<?xml version="1.0" encoding="utf-8" standalone="no"?>
<!DOCTYPE svg PUBLIC "-//W3C//DTD SVG 1.1//EN"
  "http://www.w3.org/Graphics/SVG/1.1/DTD/svg11.dtd">
<svg xmlns:xlink="http://www.w3.org/1999/xlink" width="460.8pt" height="345.6pt" viewBox="0 0 460.8 345.6" xmlns="http://www.w3.org/2000/svg" version="1.1">
 <metadata>
  <rdf:RDF xmlns:dc="http://purl.org/dc/elements/1.1/" xmlns:cc="http://creativecommons.org/ns#" xmlns:rdf="http://www.w3.org/1999/02/22-rdf-syntax-ns#">
   <cc:Work>
    <dc:type rdf:resource="http://purl.org/dc/dcmitype/StillImage"/>
    <dc:date>2023-04-17T16:36:09.538701</dc:date>
    <dc:format>image/svg+xml</dc:format>
    <dc:creator>
     <cc:Agent>
      <dc:title>Matplotlib v3.7.1, https://matplotlib.org/</dc:title>
     </cc:Agent>
    </dc:creator>
   </cc:Work>
  </rdf:RDF>
 </metadata>
 <defs>
  <style type="text/css">*{stroke-linejoin: round; stroke-linecap: butt}</style>
 </defs>
 <g id="figure_1">
  <g id="patch_1">
   <path d="M 0 345.6 
L 460.8 345.6 
L 460.8 0 
L 0 0 
z
" style="fill: #ffffff"/>
  </g>
  <g id="axes_1">
   <g id="patch_2">
    <path d="M 57.6 307.584 
L 414.72 307.584 
L 414.72 41.472 
L 57.6 41.472 
z
" style="fill: #ffffff"/>
   </g>
   <g id="matplotlib.axis_1">
    <g id="xtick_1">
     <g id="line2d_1">
      <defs>
       <path id="m0df5299770" d="M 0 0 
L 0 3.5 
" style="stroke: #000000; stroke-width: 0.8"/>
      </defs>
      <g>
       <use xlink:href="#m0df5299770" x="108.80608" y="307.584" style="stroke: #000000; stroke-width: 0.8"/>
      </g>
     </g>
     <g id="text_1">
      <!-- 80 -->
      <g transform="translate(102.44358 322.182437) scale(0.1 -0.1)">
       <defs>
        <path id="DejaVuSans-38" d="M 2034 2216 
Q 1584 2216 1326 1975 
Q 1069 1734 1069 1313 
Q 1069 891 1326 650 
Q 1584 409 2034 409 
Q 2484 409 2743 651 
Q 3003 894 3003 1313 
Q 3003 1734 2745 1975 
Q 2488 2216 2034 2216 
z
M 1403 2484 
Q 997 2584 770 2862 
Q 544 3141 544 3541 
Q 544 4100 942 4425 
Q 1341 4750 2034 4750 
Q 2731 4750 3128 4425 
Q 3525 4100 3525 3541 
Q 3525 3141 3298 2862 
Q 3072 2584 2669 2484 
Q 3125 2378 3379 2068 
Q 3634 1759 3634 1313 
Q 3634 634 3220 271 
Q 2806 -91 2034 -91 
Q 1263 -91 848 271 
Q 434 634 434 1313 
Q 434 1759 690 2068 
Q 947 2378 1403 2484 
z
M 1172 3481 
Q 1172 3119 1398 2916 
Q 1625 2713 2034 2713 
Q 2441 2713 2670 2916 
Q 2900 3119 2900 3481 
Q 2900 3844 2670 4047 
Q 2441 4250 2034 4250 
Q 1625 4250 1398 4047 
Q 1172 3844 1172 3481 
z
" transform="scale(0.015625)"/>
        <path id="DejaVuSans-30" d="M 2034 4250 
Q 1547 4250 1301 3770 
Q 1056 3291 1056 2328 
Q 1056 1369 1301 889 
Q 1547 409 2034 409 
Q 2525 409 2770 889 
Q 3016 1369 3016 2328 
Q 3016 3291 2770 3770 
Q 2525 4250 2034 4250 
z
M 2034 4750 
Q 2819 4750 3233 4129 
Q 3647 3509 3647 2328 
Q 3647 1150 3233 529 
Q 2819 -91 2034 -91 
Q 1250 -91 836 529 
Q 422 1150 422 2328 
Q 422 3509 836 4129 
Q 1250 4750 2034 4750 
z
" transform="scale(0.015625)"/>
       </defs>
       <use xlink:href="#DejaVuSans-38"/>
       <use xlink:href="#DejaVuSans-30" x="63.623047"/>
      </g>
     </g>
    </g>
    <g id="xtick_2">
     <g id="line2d_2">
      <g>
       <use xlink:href="#m0df5299770" x="184.220792" y="307.584" style="stroke: #000000; stroke-width: 0.8"/>
      </g>
     </g>
     <g id="text_2">
      <!-- 90 -->
      <g transform="translate(177.858292 322.182437) scale(0.1 -0.1)">
       <defs>
        <path id="DejaVuSans-39" d="M 703 97 
L 703 672 
Q 941 559 1184 500 
Q 1428 441 1663 441 
Q 2288 441 2617 861 
Q 2947 1281 2994 2138 
Q 2813 1869 2534 1725 
Q 2256 1581 1919 1581 
Q 1219 1581 811 2004 
Q 403 2428 403 3163 
Q 403 3881 828 4315 
Q 1253 4750 1959 4750 
Q 2769 4750 3195 4129 
Q 3622 3509 3622 2328 
Q 3622 1225 3098 567 
Q 2575 -91 1691 -91 
Q 1453 -91 1209 -44 
Q 966 3 703 97 
z
M 1959 2075 
Q 2384 2075 2632 2365 
Q 2881 2656 2881 3163 
Q 2881 3666 2632 3958 
Q 2384 4250 1959 4250 
Q 1534 4250 1286 3958 
Q 1038 3666 1038 3163 
Q 1038 2656 1286 2365 
Q 1534 2075 1959 2075 
z
" transform="scale(0.015625)"/>
       </defs>
       <use xlink:href="#DejaVuSans-39"/>
       <use xlink:href="#DejaVuSans-30" x="63.623047"/>
      </g>
     </g>
    </g>
    <g id="xtick_3">
     <g id="line2d_3">
      <g>
       <use xlink:href="#m0df5299770" x="259.635505" y="307.584" style="stroke: #000000; stroke-width: 0.8"/>
      </g>
     </g>
     <g id="text_3">
      <!-- 100 -->
      <g transform="translate(250.091755 322.182437) scale(0.1 -0.1)">
       <defs>
        <path id="DejaVuSans-31" d="M 794 531 
L 1825 531 
L 1825 4091 
L 703 3866 
L 703 4441 
L 1819 4666 
L 2450 4666 
L 2450 531 
L 3481 531 
L 3481 0 
L 794 0 
L 794 531 
z
" transform="scale(0.015625)"/>
       </defs>
       <use xlink:href="#DejaVuSans-31"/>
       <use xlink:href="#DejaVuSans-30" x="63.623047"/>
       <use xlink:href="#DejaVuSans-30" x="127.246094"/>
      </g>
     </g>
    </g>
    <g id="xtick_4">
     <g id="line2d_4">
      <g>
       <use xlink:href="#m0df5299770" x="335.050217" y="307.584" style="stroke: #000000; stroke-width: 0.8"/>
      </g>
     </g>
     <g id="text_4">
      <!-- 110 -->
      <g transform="translate(325.506467 322.182437) scale(0.1 -0.1)">
       <use xlink:href="#DejaVuSans-31"/>
       <use xlink:href="#DejaVuSans-31" x="63.623047"/>
       <use xlink:href="#DejaVuSans-30" x="127.246094"/>
      </g>
     </g>
    </g>
    <g id="xtick_5">
     <g id="line2d_5">
      <g>
       <use xlink:href="#m0df5299770" x="410.46493" y="307.584" style="stroke: #000000; stroke-width: 0.8"/>
      </g>
     </g>
     <g id="text_5">
      <!-- 120 -->
      <g transform="translate(400.92118 322.182437) scale(0.1 -0.1)">
       <defs>
        <path id="DejaVuSans-32" d="M 1228 531 
L 3431 531 
L 3431 0 
L 469 0 
L 469 531 
Q 828 903 1448 1529 
Q 2069 2156 2228 2338 
Q 2531 2678 2651 2914 
Q 2772 3150 2772 3378 
Q 2772 3750 2511 3984 
Q 2250 4219 1831 4219 
Q 1534 4219 1204 4116 
Q 875 4013 500 3803 
L 500 4441 
Q 881 4594 1212 4672 
Q 1544 4750 1819 4750 
Q 2544 4750 2975 4387 
Q 3406 4025 3406 3419 
Q 3406 3131 3298 2873 
Q 3191 2616 2906 2266 
Q 2828 2175 2409 1742 
Q 1991 1309 1228 531 
z
" transform="scale(0.015625)"/>
       </defs>
       <use xlink:href="#DejaVuSans-31"/>
       <use xlink:href="#DejaVuSans-32" x="63.623047"/>
       <use xlink:href="#DejaVuSans-30" x="127.246094"/>
      </g>
     </g>
    </g>
    <g id="text_6">
     <!-- time [s] -->
     <g transform="translate(216.768594 335.860562) scale(0.1 -0.1)">
      <defs>
       <path id="DejaVuSans-74" d="M 1172 4494 
L 1172 3500 
L 2356 3500 
L 2356 3053 
L 1172 3053 
L 1172 1153 
Q 1172 725 1289 603 
Q 1406 481 1766 481 
L 2356 481 
L 2356 0 
L 1766 0 
Q 1100 0 847 248 
Q 594 497 594 1153 
L 594 3053 
L 172 3053 
L 172 3500 
L 594 3500 
L 594 4494 
L 1172 4494 
z
" transform="scale(0.015625)"/>
       <path id="DejaVuSans-69" d="M 603 3500 
L 1178 3500 
L 1178 0 
L 603 0 
L 603 3500 
z
M 603 4863 
L 1178 4863 
L 1178 4134 
L 603 4134 
L 603 4863 
z
" transform="scale(0.015625)"/>
       <path id="DejaVuSans-6d" d="M 3328 2828 
Q 3544 3216 3844 3400 
Q 4144 3584 4550 3584 
Q 5097 3584 5394 3201 
Q 5691 2819 5691 2113 
L 5691 0 
L 5113 0 
L 5113 2094 
Q 5113 2597 4934 2840 
Q 4756 3084 4391 3084 
Q 3944 3084 3684 2787 
Q 3425 2491 3425 1978 
L 3425 0 
L 2847 0 
L 2847 2094 
Q 2847 2600 2669 2842 
Q 2491 3084 2119 3084 
Q 1678 3084 1418 2786 
Q 1159 2488 1159 1978 
L 1159 0 
L 581 0 
L 581 3500 
L 1159 3500 
L 1159 2956 
Q 1356 3278 1631 3431 
Q 1906 3584 2284 3584 
Q 2666 3584 2933 3390 
Q 3200 3197 3328 2828 
z
" transform="scale(0.015625)"/>
       <path id="DejaVuSans-65" d="M 3597 1894 
L 3597 1613 
L 953 1613 
Q 991 1019 1311 708 
Q 1631 397 2203 397 
Q 2534 397 2845 478 
Q 3156 559 3463 722 
L 3463 178 
Q 3153 47 2828 -22 
Q 2503 -91 2169 -91 
Q 1331 -91 842 396 
Q 353 884 353 1716 
Q 353 2575 817 3079 
Q 1281 3584 2069 3584 
Q 2775 3584 3186 3129 
Q 3597 2675 3597 1894 
z
M 3022 2063 
Q 3016 2534 2758 2815 
Q 2500 3097 2075 3097 
Q 1594 3097 1305 2825 
Q 1016 2553 972 2059 
L 3022 2063 
z
" transform="scale(0.015625)"/>
       <path id="DejaVuSans-20" transform="scale(0.015625)"/>
       <path id="DejaVuSans-5b" d="M 550 4863 
L 1875 4863 
L 1875 4416 
L 1125 4416 
L 1125 -397 
L 1875 -397 
L 1875 -844 
L 550 -844 
L 550 4863 
z
" transform="scale(0.015625)"/>
       <path id="DejaVuSans-73" d="M 2834 3397 
L 2834 2853 
Q 2591 2978 2328 3040 
Q 2066 3103 1784 3103 
Q 1356 3103 1142 2972 
Q 928 2841 928 2578 
Q 928 2378 1081 2264 
Q 1234 2150 1697 2047 
L 1894 2003 
Q 2506 1872 2764 1633 
Q 3022 1394 3022 966 
Q 3022 478 2636 193 
Q 2250 -91 1575 -91 
Q 1294 -91 989 -36 
Q 684 19 347 128 
L 347 722 
Q 666 556 975 473 
Q 1284 391 1588 391 
Q 1994 391 2212 530 
Q 2431 669 2431 922 
Q 2431 1156 2273 1281 
Q 2116 1406 1581 1522 
L 1381 1569 
Q 847 1681 609 1914 
Q 372 2147 372 2553 
Q 372 3047 722 3315 
Q 1072 3584 1716 3584 
Q 2034 3584 2315 3537 
Q 2597 3491 2834 3397 
z
" transform="scale(0.015625)"/>
       <path id="DejaVuSans-5d" d="M 1947 4863 
L 1947 -844 
L 622 -844 
L 622 -397 
L 1369 -397 
L 1369 4416 
L 622 4416 
L 622 4863 
L 1947 4863 
z
" transform="scale(0.015625)"/>
      </defs>
      <use xlink:href="#DejaVuSans-74"/>
      <use xlink:href="#DejaVuSans-69" x="39.208984"/>
      <use xlink:href="#DejaVuSans-6d" x="66.992188"/>
      <use xlink:href="#DejaVuSans-65" x="164.404297"/>
      <use xlink:href="#DejaVuSans-20" x="225.927734"/>
      <use xlink:href="#DejaVuSans-5b" x="257.714844"/>
      <use xlink:href="#DejaVuSans-73" x="296.728516"/>
      <use xlink:href="#DejaVuSans-5d" x="348.828125"/>
     </g>
    </g>
   </g>
   <g id="matplotlib.axis_2">
    <g id="ytick_1">
     <g id="line2d_6">
      <defs>
       <path id="mafa693ed9a" d="M 0 0 
L -3.5 0 
" style="stroke: #000000; stroke-width: 0.8"/>
      </defs>
      <g>
       <use xlink:href="#mafa693ed9a" x="57.6" y="295.532488" style="stroke: #000000; stroke-width: 0.8"/>
      </g>
     </g>
     <g id="text_7">
      <!-- −10 -->
      <g transform="translate(29.495313 299.331707) scale(0.1 -0.1)">
       <defs>
        <path id="DejaVuSans-2212" d="M 678 2272 
L 4684 2272 
L 4684 1741 
L 678 1741 
L 678 2272 
z
" transform="scale(0.015625)"/>
       </defs>
       <use xlink:href="#DejaVuSans-2212"/>
       <use xlink:href="#DejaVuSans-31" x="83.789062"/>
       <use xlink:href="#DejaVuSans-30" x="147.412109"/>
      </g>
     </g>
    </g>
    <g id="ytick_2">
     <g id="line2d_7">
      <g>
       <use xlink:href="#mafa693ed9a" x="57.6" y="259.949475" style="stroke: #000000; stroke-width: 0.8"/>
      </g>
     </g>
     <g id="text_8">
      <!-- −8 -->
      <g transform="translate(35.857813 263.748694) scale(0.1 -0.1)">
       <use xlink:href="#DejaVuSans-2212"/>
       <use xlink:href="#DejaVuSans-38" x="83.789062"/>
      </g>
     </g>
    </g>
    <g id="ytick_3">
     <g id="line2d_8">
      <g>
       <use xlink:href="#mafa693ed9a" x="57.6" y="224.366462" style="stroke: #000000; stroke-width: 0.8"/>
      </g>
     </g>
     <g id="text_9">
      <!-- −6 -->
      <g transform="translate(35.857813 228.165681) scale(0.1 -0.1)">
       <defs>
        <path id="DejaVuSans-36" d="M 2113 2584 
Q 1688 2584 1439 2293 
Q 1191 2003 1191 1497 
Q 1191 994 1439 701 
Q 1688 409 2113 409 
Q 2538 409 2786 701 
Q 3034 994 3034 1497 
Q 3034 2003 2786 2293 
Q 2538 2584 2113 2584 
z
M 3366 4563 
L 3366 3988 
Q 3128 4100 2886 4159 
Q 2644 4219 2406 4219 
Q 1781 4219 1451 3797 
Q 1122 3375 1075 2522 
Q 1259 2794 1537 2939 
Q 1816 3084 2150 3084 
Q 2853 3084 3261 2657 
Q 3669 2231 3669 1497 
Q 3669 778 3244 343 
Q 2819 -91 2113 -91 
Q 1303 -91 875 529 
Q 447 1150 447 2328 
Q 447 3434 972 4092 
Q 1497 4750 2381 4750 
Q 2619 4750 2861 4703 
Q 3103 4656 3366 4563 
z
" transform="scale(0.015625)"/>
       </defs>
       <use xlink:href="#DejaVuSans-2212"/>
       <use xlink:href="#DejaVuSans-36" x="83.789062"/>
      </g>
     </g>
    </g>
    <g id="ytick_4">
     <g id="line2d_9">
      <g>
       <use xlink:href="#mafa693ed9a" x="57.6" y="188.783449" style="stroke: #000000; stroke-width: 0.8"/>
      </g>
     </g>
     <g id="text_10">
      <!-- −4 -->
      <g transform="translate(35.857813 192.582667) scale(0.1 -0.1)">
       <defs>
        <path id="DejaVuSans-34" d="M 2419 4116 
L 825 1625 
L 2419 1625 
L 2419 4116 
z
M 2253 4666 
L 3047 4666 
L 3047 1625 
L 3713 1625 
L 3713 1100 
L 3047 1100 
L 3047 0 
L 2419 0 
L 2419 1100 
L 313 1100 
L 313 1709 
L 2253 4666 
z
" transform="scale(0.015625)"/>
       </defs>
       <use xlink:href="#DejaVuSans-2212"/>
       <use xlink:href="#DejaVuSans-34" x="83.789062"/>
      </g>
     </g>
    </g>
    <g id="ytick_5">
     <g id="line2d_10">
      <g>
       <use xlink:href="#mafa693ed9a" x="57.6" y="153.200435" style="stroke: #000000; stroke-width: 0.8"/>
      </g>
     </g>
     <g id="text_11">
      <!-- −2 -->
      <g transform="translate(35.857813 156.999654) scale(0.1 -0.1)">
       <use xlink:href="#DejaVuSans-2212"/>
       <use xlink:href="#DejaVuSans-32" x="83.789062"/>
      </g>
     </g>
    </g>
    <g id="ytick_6">
     <g id="line2d_11">
      <g>
       <use xlink:href="#mafa693ed9a" x="57.6" y="117.617422" style="stroke: #000000; stroke-width: 0.8"/>
      </g>
     </g>
     <g id="text_12">
      <!-- 0 -->
      <g transform="translate(44.2375 121.416641) scale(0.1 -0.1)">
       <use xlink:href="#DejaVuSans-30"/>
      </g>
     </g>
    </g>
    <g id="ytick_7">
     <g id="line2d_12">
      <g>
       <use xlink:href="#mafa693ed9a" x="57.6" y="82.034409" style="stroke: #000000; stroke-width: 0.8"/>
      </g>
     </g>
     <g id="text_13">
      <!-- 2 -->
      <g transform="translate(44.2375 85.833628) scale(0.1 -0.1)">
       <use xlink:href="#DejaVuSans-32"/>
      </g>
     </g>
    </g>
    <g id="ytick_8">
     <g id="line2d_13">
      <g>
       <use xlink:href="#mafa693ed9a" x="57.6" y="46.451396" style="stroke: #000000; stroke-width: 0.8"/>
      </g>
     </g>
     <g id="text_14">
      <!-- 4 -->
      <g transform="translate(44.2375 50.250614) scale(0.1 -0.1)">
       <use xlink:href="#DejaVuSans-34"/>
      </g>
     </g>
    </g>
    <g id="text_15">
     <!-- Magnetic field $[\mu T]$ -->
     <g transform="translate(23.395312 221.528) rotate(-90) scale(0.1 -0.1)">
      <defs>
       <path id="DejaVuSans-4d" d="M 628 4666 
L 1569 4666 
L 2759 1491 
L 3956 4666 
L 4897 4666 
L 4897 0 
L 4281 0 
L 4281 4097 
L 3078 897 
L 2444 897 
L 1241 4097 
L 1241 0 
L 628 0 
L 628 4666 
z
" transform="scale(0.015625)"/>
       <path id="DejaVuSans-61" d="M 2194 1759 
Q 1497 1759 1228 1600 
Q 959 1441 959 1056 
Q 959 750 1161 570 
Q 1363 391 1709 391 
Q 2188 391 2477 730 
Q 2766 1069 2766 1631 
L 2766 1759 
L 2194 1759 
z
M 3341 1997 
L 3341 0 
L 2766 0 
L 2766 531 
Q 2569 213 2275 61 
Q 1981 -91 1556 -91 
Q 1019 -91 701 211 
Q 384 513 384 1019 
Q 384 1609 779 1909 
Q 1175 2209 1959 2209 
L 2766 2209 
L 2766 2266 
Q 2766 2663 2505 2880 
Q 2244 3097 1772 3097 
Q 1472 3097 1187 3025 
Q 903 2953 641 2809 
L 641 3341 
Q 956 3463 1253 3523 
Q 1550 3584 1831 3584 
Q 2591 3584 2966 3190 
Q 3341 2797 3341 1997 
z
" transform="scale(0.015625)"/>
       <path id="DejaVuSans-67" d="M 2906 1791 
Q 2906 2416 2648 2759 
Q 2391 3103 1925 3103 
Q 1463 3103 1205 2759 
Q 947 2416 947 1791 
Q 947 1169 1205 825 
Q 1463 481 1925 481 
Q 2391 481 2648 825 
Q 2906 1169 2906 1791 
z
M 3481 434 
Q 3481 -459 3084 -895 
Q 2688 -1331 1869 -1331 
Q 1566 -1331 1297 -1286 
Q 1028 -1241 775 -1147 
L 775 -588 
Q 1028 -725 1275 -790 
Q 1522 -856 1778 -856 
Q 2344 -856 2625 -561 
Q 2906 -266 2906 331 
L 2906 616 
Q 2728 306 2450 153 
Q 2172 0 1784 0 
Q 1141 0 747 490 
Q 353 981 353 1791 
Q 353 2603 747 3093 
Q 1141 3584 1784 3584 
Q 2172 3584 2450 3431 
Q 2728 3278 2906 2969 
L 2906 3500 
L 3481 3500 
L 3481 434 
z
" transform="scale(0.015625)"/>
       <path id="DejaVuSans-6e" d="M 3513 2113 
L 3513 0 
L 2938 0 
L 2938 2094 
Q 2938 2591 2744 2837 
Q 2550 3084 2163 3084 
Q 1697 3084 1428 2787 
Q 1159 2491 1159 1978 
L 1159 0 
L 581 0 
L 581 3500 
L 1159 3500 
L 1159 2956 
Q 1366 3272 1645 3428 
Q 1925 3584 2291 3584 
Q 2894 3584 3203 3211 
Q 3513 2838 3513 2113 
z
" transform="scale(0.015625)"/>
       <path id="DejaVuSans-63" d="M 3122 3366 
L 3122 2828 
Q 2878 2963 2633 3030 
Q 2388 3097 2138 3097 
Q 1578 3097 1268 2742 
Q 959 2388 959 1747 
Q 959 1106 1268 751 
Q 1578 397 2138 397 
Q 2388 397 2633 464 
Q 2878 531 3122 666 
L 3122 134 
Q 2881 22 2623 -34 
Q 2366 -91 2075 -91 
Q 1284 -91 818 406 
Q 353 903 353 1747 
Q 353 2603 823 3093 
Q 1294 3584 2113 3584 
Q 2378 3584 2631 3529 
Q 2884 3475 3122 3366 
z
" transform="scale(0.015625)"/>
       <path id="DejaVuSans-66" d="M 2375 4863 
L 2375 4384 
L 1825 4384 
Q 1516 4384 1395 4259 
Q 1275 4134 1275 3809 
L 1275 3500 
L 2222 3500 
L 2222 3053 
L 1275 3053 
L 1275 0 
L 697 0 
L 697 3053 
L 147 3053 
L 147 3500 
L 697 3500 
L 697 3744 
Q 697 4328 969 4595 
Q 1241 4863 1831 4863 
L 2375 4863 
z
" transform="scale(0.015625)"/>
       <path id="DejaVuSans-6c" d="M 603 4863 
L 1178 4863 
L 1178 0 
L 603 0 
L 603 4863 
z
" transform="scale(0.015625)"/>
       <path id="DejaVuSans-64" d="M 2906 2969 
L 2906 4863 
L 3481 4863 
L 3481 0 
L 2906 0 
L 2906 525 
Q 2725 213 2448 61 
Q 2172 -91 1784 -91 
Q 1150 -91 751 415 
Q 353 922 353 1747 
Q 353 2572 751 3078 
Q 1150 3584 1784 3584 
Q 2172 3584 2448 3432 
Q 2725 3281 2906 2969 
z
M 947 1747 
Q 947 1113 1208 752 
Q 1469 391 1925 391 
Q 2381 391 2643 752 
Q 2906 1113 2906 1747 
Q 2906 2381 2643 2742 
Q 2381 3103 1925 3103 
Q 1469 3103 1208 2742 
Q 947 2381 947 1747 
z
" transform="scale(0.015625)"/>
       <path id="DejaVuSans-Oblique-3bc" d="M -84 -1331 
L 856 3500 
L 1434 3500 
L 1009 1322 
Q 997 1256 987 1175 
Q 978 1094 978 1013 
Q 978 722 1161 565 
Q 1344 409 1684 409 
Q 2147 409 2431 671 
Q 2716 934 2816 1459 
L 3213 3500 
L 3788 3500 
L 3266 809 
Q 3253 750 3248 706 
Q 3244 663 3244 628 
Q 3244 531 3283 486 
Q 3322 441 3406 441 
Q 3438 441 3492 456 
Q 3547 472 3647 513 
L 3559 50 
Q 3422 -19 3297 -55 
Q 3172 -91 3053 -91 
Q 2847 -91 2730 40 
Q 2613 172 2613 403 
Q 2438 153 2195 31 
Q 1953 -91 1625 -91 
Q 1334 -91 1117 43 
Q 900 178 831 397 
L 494 -1331 
L -84 -1331 
z
" transform="scale(0.015625)"/>
       <path id="DejaVuSans-Oblique-54" d="M 378 4666 
L 4325 4666 
L 4225 4134 
L 2559 4134 
L 1759 0 
L 1125 0 
L 1925 4134 
L 275 4134 
L 378 4666 
z
" transform="scale(0.015625)"/>
      </defs>
      <use xlink:href="#DejaVuSans-4d" transform="translate(0 0.015625)"/>
      <use xlink:href="#DejaVuSans-61" transform="translate(86.279297 0.015625)"/>
      <use xlink:href="#DejaVuSans-67" transform="translate(147.558594 0.015625)"/>
      <use xlink:href="#DejaVuSans-6e" transform="translate(211.035156 0.015625)"/>
      <use xlink:href="#DejaVuSans-65" transform="translate(274.414062 0.015625)"/>
      <use xlink:href="#DejaVuSans-74" transform="translate(335.9375 0.015625)"/>
      <use xlink:href="#DejaVuSans-69" transform="translate(375.146484 0.015625)"/>
      <use xlink:href="#DejaVuSans-63" transform="translate(402.929688 0.015625)"/>
      <use xlink:href="#DejaVuSans-20" transform="translate(457.910156 0.015625)"/>
      <use xlink:href="#DejaVuSans-66" transform="translate(489.697266 0.015625)"/>
      <use xlink:href="#DejaVuSans-69" transform="translate(524.902344 0.015625)"/>
      <use xlink:href="#DejaVuSans-65" transform="translate(552.685547 0.015625)"/>
      <use xlink:href="#DejaVuSans-6c" transform="translate(614.208984 0.015625)"/>
      <use xlink:href="#DejaVuSans-64" transform="translate(641.992188 0.015625)"/>
      <use xlink:href="#DejaVuSans-20" transform="translate(705.46875 0.015625)"/>
      <use xlink:href="#DejaVuSans-5b" transform="translate(737.255859 0.015625)"/>
      <use xlink:href="#DejaVuSans-Oblique-3bc" transform="translate(776.269531 0.015625)"/>
      <use xlink:href="#DejaVuSans-Oblique-54" transform="translate(839.892578 0.015625)"/>
      <use xlink:href="#DejaVuSans-5d" transform="translate(900.976562 0.015625)"/>
     </g>
    </g>
   </g>
   <g id="line2d_14">
    <path d="M 73.832727 283.078437 
L 73.902659 283.078437 
L 74.053082 281.343751 
L 74.958088 281.343751 
L 75.109461 279.475651 
L 76.919127 279.475651 
L 77.071276 281.343751 
L 77.523259 281.343751 
L 77.673448 283.078437 
L 77.824172 281.343751 
L 77.977663 283.078437 
L 81.141801 283.078437 
L 81.293822 284.813106 
L 81.447803 283.078437 
L 81.745465 283.078437 
L 81.896445 284.813106 
L 82.048293 283.078437 
L 82.650713 283.078437 
L 82.801663 284.813106 
L 84.460855 284.813106 
L 84.612755 283.078437 
L 86.421396 283.078437 
L 86.572452 284.813106 
L 90.644288 284.813106 
L 90.795623 283.078437 
L 93.812159 283.078437 
L 93.962958 281.343751 
L 94.264602 281.343751 
L 94.415386 283.078437 
L 94.565763 283.078437 
L 94.717029 281.343751 
L 94.867655 283.078437 
L 95.32086 283.078437 
L 95.471252 281.343751 
L 95.623009 281.343751 
L 95.772986 283.078437 
L 95.926116 283.078437 
L 96.074736 281.343751 
L 96.225316 283.078437 
L 98.038195 283.078437 
L 98.18628 284.813106 
L 98.336747 284.813106 
L 98.48778 283.078437 
L 100.448284 283.078437 
L 100.599928 281.343751 
L 101.202853 281.343751 
L 101.35369 279.475651 
L 101.504323 279.475651 
L 101.655191 281.343751 
L 101.805681 279.475651 
L 103.163673 279.475651 
L 103.314503 281.343751 
L 103.466199 279.475651 
L 103.615905 281.343751 
L 103.775377 281.343751 
L 103.919072 279.475651 
L 105.427555 279.475651 
L 105.578385 277.740982 
L 105.727955 279.475651 
L 105.878369 279.475651 
L 106.030315 277.740982 
L 107.235992 277.740982 
L 107.386648 276.006312 
L 108.743653 276.006312 
L 108.895146 277.740982 
L 109.801639 277.740982 
L 109.950726 279.475651 
L 111.760566 279.475651 
L 111.911652 277.740982 
L 112.063801 279.475651 
L 112.667036 279.475651 
L 112.816749 277.740982 
L 114.174817 277.740982 
L 114.325428 279.475651 
L 116.738224 279.475651 
L 116.888963 277.740982 
L 118.247106 277.740982 
L 118.397234 276.006312 
L 118.701751 276.006312 
L 118.849534 274.138195 
L 119.46298 274.138195 
L 119.60396 276.006312 
L 120.056433 276.006312 
L 120.207112 277.740982 
L 120.358032 277.740982 
L 120.508839 276.006312 
L 120.659585 277.740982 
L 122.020247 277.740982 
L 122.167495 279.475651 
L 123.978375 279.475651 
L 124.129567 277.740982 
L 125.185033 277.740982 
L 125.335267 279.475651 
L 127.146201 279.475651 
L 127.295952 281.343751 
L 128.804321 281.343751 
L 128.962232 283.078437 
L 129.558536 283.078437 
L 129.712465 281.343751 
L 129.860187 281.343751 
L 130.012043 283.078437 
L 130.915631 283.078437 
L 131.067147 284.813106 
L 131.217992 283.078437 
L 132.576882 283.078437 
L 132.72575 284.813106 
L 135.010507 284.813106 
L 135.216291 283.078437 
L 135.290122 283.078437 
L 135.441819 284.813106 
L 135.592151 283.078437 
L 135.74249 284.813106 
L 136.194888 284.813106 
L 136.345347 286.681206 
L 137.854004 286.681206 
L 138.005489 284.813106 
L 138.308181 284.813106 
L 138.459207 286.681206 
L 138.607872 284.813106 
L 139.664176 284.813106 
L 139.815578 283.078437 
L 140.419047 283.078437 
L 140.569326 281.343751 
L 140.719997 281.343751 
L 140.87066 283.078437 
L 141.325712 283.078437 
L 141.474174 281.343751 
L 141.775591 281.343751 
L 141.926881 283.078437 
L 142.078638 281.343751 
L 142.22817 283.078437 
L 142.831805 283.078437 
L 142.982498 281.343751 
L 143.7366 281.343751 
L 143.887203 279.475651 
L 145.094435 279.475651 
L 145.245468 277.740982 
L 145.54828 277.740982 
L 145.697315 276.006312 
L 145.848016 276.006312 
L 145.999358 277.740982 
L 146.301311 277.740982 
L 146.451643 276.006312 
L 147.658784 276.006312 
L 147.808889 277.740982 
L 148.110767 277.740982 
L 148.261981 279.475651 
L 149.619144 279.475651 
L 149.769822 281.343751 
L 151.128351 281.343751 
L 151.278041 283.078437 
L 151.730643 283.078437 
L 151.881578 281.343751 
L 152.032467 283.078437 
L 152.183282 283.078437 
L 152.333448 281.343751 
L 152.485257 283.078437 
L 153.238575 283.078437 
L 153.389216 284.813106 
L 154.898008 284.813106 
L 155.050361 283.078437 
L 155.200089 284.813106 
L 158.97053 284.813106 
L 159.121028 286.681206 
L 160.780453 286.681206 
L 160.931185 288.415875 
L 161.836644 288.415875 
L 161.989336 286.681206 
L 163.193513 286.681206 
L 163.344192 288.415875 
L 164.249213 288.415875 
L 164.401551 286.681206 
L 164.551317 288.415875 
L 164.70189 286.681206 
L 165.908563 286.681206 
L 166.059174 284.813106 
L 166.210381 286.681206 
L 167.569173 286.681206 
L 167.71872 284.813106 
L 169.529427 284.813106 
L 169.679699 286.681206 
L 170.132323 286.681206 
L 170.282511 284.813106 
L 170.434155 284.813106 
L 170.583748 286.681206 
L 170.886711 286.681206 
L 171.036786 284.813106 
L 171.187427 284.813106 
L 171.337948 286.681206 
L 174.65707 286.681206 
L 174.808932 288.415875 
L 175.260614 288.415875 
L 175.410794 290.150562 
L 177.522489 290.150562 
L 177.673115 292.018662 
L 180.237479 292.018662 
L 180.387796 293.753331 
L 183.857212 293.753331 
L 184.008042 292.018662 
L 185.66807 292.018662 
L 185.818342 293.753331 
L 186.121471 293.753331 
L 186.27178 292.018662 
L 186.42178 293.753331 
L 186.873529 293.753331 
L 187.024705 292.018662 
L 187.32647 292.018662 
L 187.477171 293.753331 
L 187.930142 293.753331 
L 188.081914 292.018662 
L 188.231062 292.018662 
L 188.383467 293.753331 
L 188.53447 292.018662 
L 189.437878 292.018662 
L 189.590005 290.150562 
L 189.74226 290.150562 
L 189.890879 292.018662 
L 190.042501 290.150562 
L 190.493662 290.150562 
L 190.64437 288.415875 
L 191.248141 288.415875 
L 191.398427 290.150562 
L 193.359262 290.150562 
L 193.510258 292.018662 
L 194.415083 292.018662 
L 194.566576 290.150562 
L 198.336633 290.150562 
L 198.488066 288.415875 
L 198.638368 288.415875 
L 198.790411 290.150562 
L 206.029862 290.150562 
L 206.180186 288.415875 
L 208.291375 288.415875 
L 208.44268 290.150562 
L 208.593034 290.150562 
L 208.743901 288.415875 
L 208.894889 290.150562 
L 209.49826 290.150562 
L 209.64964 288.415875 
L 209.805175 288.415875 
L 209.951291 290.150562 
L 210.102867 290.150562 
L 210.252135 288.415875 
L 210.40402 290.150562 
L 211.610037 290.150562 
L 211.760746 288.415875 
L 213.570873 288.415875 
L 213.721363 286.681206 
L 214.780381 286.681206 
L 214.928534 284.813106 
L 217.191322 284.813106 
L 217.340998 283.078437 
L 218.699149 283.078437 
L 218.850295 284.813106 
L 219.45733 284.813106 
L 219.605045 283.078437 
L 221.266326 283.078437 
L 221.416197 281.343751 
L 223.072576 281.343751 
L 223.225396 279.475651 
L 223.830909 279.475651 
L 223.979295 281.343751 
L 224.581888 281.343751 
L 224.732605 283.078437 
L 225.486375 283.078437 
L 225.637777 284.813106 
L 226.240974 284.813106 
L 226.39068 286.681206 
L 228.352089 286.681206 
L 228.502933 284.813106 
L 230.161702 284.813106 
L 230.312026 286.681206 
L 230.765035 286.681206 
L 230.917071 284.813106 
L 231.067878 286.681206 
L 231.972711 286.681206 
L 232.122379 288.415875 
L 235.14218 288.415875 
L 235.290189 290.150562 
L 236.94926 290.150562 
L 237.100406 292.018662 
L 237.250331 290.150562 
L 237.401507 290.150562 
L 237.552465 292.018662 
L 237.704214 290.150562 
L 238.155639 290.150562 
L 238.306175 292.018662 
L 238.457449 292.018662 
L 238.609206 290.150562 
L 238.760488 292.018662 
L 238.910126 290.150562 
L 239.061174 292.018662 
L 239.211769 290.150562 
L 240.87161 290.150562 
L 241.021723 288.415875 
L 241.172152 288.415875 
L 241.3244 290.150562 
L 241.474648 288.415875 
L 242.680869 288.415875 
L 242.831645 286.681206 
L 243.586019 286.681206 
L 243.736139 284.813106 
L 244.641832 284.813106 
L 244.792292 283.078437 
L 245.093868 283.078437 
L 245.245007 281.343751 
L 248.562915 281.343751 
L 248.713872 279.475651 
L 253.23831 279.475651 
L 253.389773 281.343751 
L 256.407252 281.343751 
L 256.55738 279.475651 
L 257.010826 279.475651 
L 257.160222 281.343751 
L 257.31357 279.475651 
L 257.914037 279.475651 
L 258.065915 281.343751 
L 259.423086 281.343751 
L 259.573402 279.475651 
L 259.726773 281.343751 
L 259.876343 279.475651 
L 260.026532 281.343751 
L 260.176456 279.475651 
L 260.781275 279.475651 
L 260.931056 281.343751 
L 261.534298 281.343751 
L 261.685045 279.475651 
L 261.836809 281.343751 
L 261.986636 279.475651 
L 262.137593 281.343751 
L 262.439425 281.343751 
L 262.589999 279.475651 
L 262.741688 279.475651 
L 262.89205 281.343751 
L 264.249258 281.343751 
L 264.39974 283.078437 
L 267.265628 283.078437 
L 267.42068 281.343751 
L 272.699567 281.343751 
L 272.846482 279.475651 
L 273.300147 279.475651 
L 273.450939 281.343751 
L 274.807484 281.343751 
L 274.958336 283.078437 
L 275.562023 283.078437 
L 275.712566 281.343751 
L 275.863131 281.343751 
L 276.01476 283.078437 
L 277.823476 283.078437 
L 277.97457 281.343751 
L 279.182427 281.343751 
L 279.332178 283.078437 
L 279.483437 283.078437 
L 279.633693 281.343751 
L 279.937072 281.343751 
L 280.086197 283.078437 
L 280.99103 283.078437 
L 281.142516 281.343751 
L 283.859549 281.343751 
L 284.007822 279.475651 
L 284.159187 279.475651 
L 284.309986 281.343751 
L 285.063545 281.343751 
L 285.21454 283.078437 
L 285.365219 281.343751 
L 285.515581 283.078437 
L 288.685118 283.078437 
L 288.834635 281.343751 
L 289.588503 281.343751 
L 289.740162 279.475651 
L 290.192349 279.475651 
L 290.345524 281.343751 
L 291.399422 281.343751 
L 291.561993 279.475651 
L 291.701156 281.343751 
L 292.002129 281.343751 
L 292.153184 279.475651 
L 292.30384 279.475651 
L 292.455077 281.343751 
L 292.605522 279.475651 
L 292.906803 279.475651 
L 293.05764 281.343751 
L 293.510325 281.343751 
L 293.660762 279.475651 
L 296.526559 279.475651 
L 296.67812 281.343751 
L 300.297136 281.343751 
L 300.447973 279.475651 
L 301.354413 279.475651 
L 301.504578 281.343751 
L 303.012518 281.343751 
L 303.163054 279.475651 
L 304.822336 279.475651 
L 304.973572 277.740982 
L 305.123964 279.475651 
L 305.274967 277.740982 
L 306.032885 277.740982 
L 306.180901 276.006312 
L 310.705603 276.006312 
L 310.855377 277.740982 
L 311.006696 276.006312 
L 311.157171 276.006312 
L 311.307963 277.740982 
L 311.459773 276.006312 
L 311.613106 277.740982 
L 312.06251 277.740982 
L 312.213098 279.475651 
L 312.817743 279.475651 
L 312.967675 281.343751 
L 315.681851 281.343751 
L 315.83323 279.475651 
L 315.985282 281.343751 
L 316.285477 281.343751 
L 316.438961 279.475651 
L 317.945612 279.475651 
L 318.095476 281.343751 
L 319.001048 281.343751 
L 319.151327 283.078437 
L 319.303831 281.343751 
L 319.90518 281.343751 
L 320.057156 283.078437 
L 320.508656 283.078437 
L 320.659659 281.343751 
L 321.868934 281.343751 
L 322.017086 279.475651 
L 323.828276 279.475651 
L 323.977673 281.343751 
L 324.279656 281.343751 
L 324.430613 279.475651 
L 324.732182 279.475651 
L 324.882988 281.343751 
L 325.336382 281.343751 
L 325.486879 279.475651 
L 325.636683 281.343751 
L 325.787822 281.343751 
L 325.938847 279.475651 
L 326.391924 279.475651 
L 326.541486 281.343751 
L 327.295482 281.343751 
L 327.447307 279.475651 
L 333.330673 279.475651 
L 333.479843 277.740982 
L 334.537143 277.740982 
L 334.688274 279.475651 
L 336.949667 279.475651 
L 337.100949 281.343751 
L 338.307509 281.343751 
L 338.457071 279.475651 
L 338.608293 281.343751 
L 338.759273 281.343751 
L 338.909869 279.475651 
L 342.68034 279.475651 
L 342.831381 281.343751 
L 344.490437 281.343751 
L 344.641907 279.475651 
L 345.093845 279.475651 
L 345.244659 281.343751 
L 347.054658 281.343751 
L 347.20658 279.475651 
L 347.355985 281.343751 
L 347.508088 279.475651 
L 348.563193 279.475651 
L 348.714664 277.740982 
L 349.618728 277.740982 
L 349.769813 276.006312 
L 351.431705 276.006312 
L 351.579578 274.138195 
L 351.730498 276.006312 
L 352.484253 276.006312 
L 352.634992 277.740982 
L 354.294666 277.740982 
L 354.446182 279.475651 
L 356.104725 279.475651 
L 356.255102 281.343751 
L 356.405863 279.475651 
L 356.707741 279.475651 
L 356.860176 281.343751 
L 359.57399 281.343751 
L 359.724088 283.078437 
L 360.328024 283.078437 
L 360.478408 281.343751 
L 363.646317 281.343751 
L 363.796377 279.475651 
L 367.270016 279.475651 
L 367.416479 281.343751 
L 367.869216 281.343751 
L 368.0204 283.078437 
L 368.170558 281.343751 
L 368.321365 281.343751 
L 368.472768 283.078437 
L 372.54609 283.078437 
L 372.696233 284.813106 
L 372.84655 284.813106 
L 372.997809 286.681206 
L 373.148344 286.681206 
L 373.299392 288.415875 
L 373.75176 288.415875 
L 373.902921 290.150562 
L 374.204045 290.150562 
L 374.355673 292.018662 
L 374.659346 292.018662 
L 374.807166 293.753331 
L 375.109549 293.753331 
L 375.260386 295.488 
L 375.712459 295.488 
L 375.864767 293.753331 
L 376.015453 293.753331 
L 376.164676 295.488 
L 376.315287 293.753331 
L 376.46672 295.488 
L 377.371696 295.488 
L 377.523453 293.753331 
L 377.673302 295.488 
L 377.824878 293.753331 
L 377.974675 293.753331 
L 378.125708 295.488 
L 379.482501 295.488 
L 379.633866 293.753331 
L 379.784877 293.753331 
L 379.935827 295.488 
L 380.089017 293.753331 
L 380.238413 293.753331 
L 380.388202 295.488 
L 380.538956 293.753331 
L 380.690909 293.753331 
L 380.845155 295.488 
L 380.991535 293.753331 
L 382.952468 293.753331 
L 383.102913 292.018662 
L 383.253742 293.753331 
L 384.61227 293.753331 
L 384.762896 295.488 
L 384.912964 293.753331 
L 385.215377 293.753331 
L 385.364992 295.488 
L 385.666824 295.488 
L 385.818242 293.753331 
L 386.27104 293.753331 
L 386.421349 292.018662 
L 386.571854 293.753331 
L 386.722789 293.753331 
L 386.873807 292.018662 
L 387.627524 292.018662 
L 387.779221 290.150562 
L 388.231249 290.150562 
L 388.381656 288.415875 
L 389.588812 288.415875 
L 389.739498 290.150562 
L 391.400175 290.150562 
L 391.549443 292.018662 
L 392.756275 292.018662 
L 392.908341 293.753331 
L 393.660354 293.753331 
L 393.811764 292.018662 
L 394.565979 292.018662 
L 394.716726 293.753331 
L 395.32036 293.753331 
L 395.471046 295.488 
L 395.623354 295.488 
L 395.772622 293.753331 
L 395.923859 293.753331 
L 396.074492 295.488 
L 396.376008 295.488 
L 396.526807 293.753331 
L 397.132998 293.753331 
L 397.280916 295.488 
L 398.487273 295.488 
L 398.487273 295.488 
" clip-path="url(#p5e24925876)" style="fill: none; stroke: #1f77b4; stroke-width: 1.5; stroke-linecap: square"/>
   </g>
   <g id="line2d_15">
    <path d="M 73.832727 67.845684 
L 73.902659 67.845684 
L 74.053082 65.977576 
L 79.035784 65.977576 
L 79.182692 64.242902 
L 79.332488 65.977576 
L 79.483235 64.242902 
L 80.23739 64.242902 
L 80.388151 62.508233 
L 80.690594 62.508233 
L 80.841597 64.242902 
L 81.595058 64.242902 
L 81.745465 65.977576 
L 85.667475 65.977576 
L 85.818523 64.242902 
L 86.271102 64.242902 
L 86.421396 65.977576 
L 88.23291 65.977576 
L 88.382344 64.242902 
L 88.53291 65.977576 
L 88.683807 64.242902 
L 88.834976 65.977576 
L 89.739719 65.977576 
L 89.890435 64.242902 
L 90.644288 64.242902 
L 90.795623 62.508233 
L 91.247953 62.508233 
L 91.398812 60.640125 
L 91.549189 60.640125 
L 91.701866 62.508233 
L 91.851391 60.640125 
L 92.002462 62.508233 
L 93.812159 62.508233 
L 93.962958 60.640125 
L 94.264602 60.640125 
L 94.415386 62.508233 
L 96.527216 62.508233 
L 96.680331 60.640125 
L 97.28521 60.640125 
L 97.43174 62.508233 
L 98.038195 62.508233 
L 98.18628 64.242902 
L 98.790487 64.242902 
L 98.940796 62.508233 
L 100.146693 62.508233 
L 100.298246 60.640125 
L 101.655191 60.640125 
L 101.805681 58.905451 
L 103.163673 58.905451 
L 103.314503 60.640125 
L 104.220045 60.640125 
L 104.370256 62.508233 
L 104.520716 62.508233 
L 104.672058 60.640125 
L 104.823008 62.508233 
L 107.085057 62.508233 
L 107.235992 60.640125 
L 107.688518 60.640125 
L 107.838752 58.905451 
L 107.989823 60.640125 
L 108.140811 58.905451 
L 108.452304 58.905451 
L 108.595003 60.640125 
L 109.045742 60.640125 
L 109.19676 62.508233 
L 113.118385 62.508233 
L 113.270738 60.640125 
L 113.872389 60.640125 
L 114.023256 62.508233 
L 114.476031 62.508233 
L 114.626333 64.242902 
L 117.794052 64.242902 
L 117.944595 62.508233 
L 118.548471 62.508233 
L 118.701751 60.640125 
L 119.905566 60.640125 
L 120.056433 62.508233 
L 124.279197 62.508233 
L 124.430298 60.640125 
L 125.03446 60.640125 
L 125.185033 62.508233 
L 129.106719 62.508233 
L 129.256794 60.640125 
L 131.067147 60.640125 
L 131.217992 62.508233 
L 131.519266 62.508233 
L 131.616415 60.640125 
L 132.424514 60.640125 
L 132.576882 62.508233 
L 133.781496 62.508233 
L 133.933238 64.242902 
L 134.384799 64.242902 
L 134.536035 62.508233 
L 135.592151 62.508233 
L 135.74249 64.242902 
L 136.194888 64.242902 
L 136.345347 65.977576 
L 136.647881 65.977576 
L 136.798288 67.845684 
L 139.966702 67.845684 
L 140.116815 65.977576 
L 140.419047 65.977576 
L 140.569326 64.242902 
L 141.474174 64.242902 
L 141.625079 65.977576 
L 141.775591 64.242902 
L 141.926881 65.977576 
L 145.094435 65.977576 
L 145.245468 64.242902 
L 145.54828 64.242902 
L 145.697315 62.508233 
L 146.150075 62.508233 
L 146.301311 60.640125 
L 146.602095 60.640125 
L 146.753588 58.905451 
L 148.261981 58.905451 
L 148.412516 57.170778 
L 152.485257 57.170778 
L 152.635574 58.905451 
L 152.93807 58.905451 
L 153.089058 60.640125 
L 153.238575 60.640125 
L 153.389216 58.905451 
L 153.541003 60.640125 
L 156.255329 60.640125 
L 156.406385 62.508233 
L 156.556996 60.640125 
L 157.311437 60.640125 
L 157.461882 58.905451 
L 157.763699 58.905451 
L 157.915494 60.640125 
L 160.177656 60.640125 
L 160.327603 62.508233 
L 160.780453 62.508233 
L 160.931185 60.640125 
L 163.344192 60.640125 
L 163.495179 62.508233 
L 163.796974 62.508233 
L 163.94711 64.242902 
L 167.41734 64.242902 
L 167.569173 62.508233 
L 168.171276 62.508233 
L 168.321849 60.640125 
L 169.076404 60.640125 
L 169.230664 62.508233 
L 169.679699 62.508233 
L 169.830038 64.242902 
L 172.094146 64.242902 
L 172.24309 62.508233 
L 172.997652 62.508233 
L 173.14861 60.640125 
L 173.602342 60.640125 
L 173.754265 58.905451 
L 177.070808 58.905451 
L 177.220898 57.170778 
L 180.690239 57.170778 
L 180.840443 58.905451 
L 180.991121 57.170778 
L 181.142298 58.905451 
L 183.25363 58.905451 
L 183.404762 57.170778 
L 184.460379 57.170778 
L 184.613026 55.302673 
L 185.365929 55.302673 
L 185.516524 57.170778 
L 189.74226 57.170778 
L 189.890879 55.302673 
L 190.193111 55.302673 
L 190.343119 53.568 
L 190.946135 53.568 
L 191.096874 55.302673 
L 196.677577 55.302673 
L 196.828648 57.170778 
L 196.979138 55.302673 
L 197.130005 57.170778 
L 198.790411 57.170778 
L 198.943609 55.302673 
L 199.092455 57.170778 
L 199.242809 57.170778 
L 199.392764 55.302673 
L 200.750379 55.302673 
L 200.901194 53.568 
L 202.25899 53.568 
L 202.409141 55.302673 
L 202.861863 55.302673 
L 203.012187 57.170778 
L 204.520866 57.170778 
L 204.671575 58.905451 
L 205.87812 58.905451 
L 206.029862 60.640125 
L 206.180186 60.640125 
L 206.332033 58.905451 
L 206.934996 58.905451 
L 207.084393 60.640125 
L 208.141639 60.640125 
L 208.291375 62.508233 
L 208.894889 62.508233 
L 209.045515 64.242902 
L 209.951291 64.242902 
L 210.102867 65.977576 
L 211.45905 65.977576 
L 211.610037 64.242902 
L 214.022909 64.242902 
L 214.174236 62.508233 
L 215.383639 62.508233 
L 215.531791 60.640125 
L 218.699149 60.640125 
L 218.850295 62.508233 
L 222.325797 62.508233 
L 222.469477 60.640125 
L 223.072576 60.640125 
L 223.225396 58.905451 
L 224.732605 58.905451 
L 224.883012 60.640125 
L 225.184512 60.640125 
L 225.335055 58.905451 
L 228.050716 58.905451 
L 228.201191 57.170778 
L 228.955142 57.170778 
L 229.107819 55.302673 
L 229.257261 57.170778 
L 229.860918 57.170778 
L 230.011401 58.905451 
L 230.917071 58.905451 
L 231.067878 60.640125 
L 232.876602 60.640125 
L 233.02762 62.508233 
L 233.630756 62.508233 
L 233.781322 60.640125 
L 234.083207 60.640125 
L 234.234315 58.905451 
L 235.290189 58.905451 
L 235.442075 60.640125 
L 237.100406 60.640125 
L 237.250331 58.905451 
L 239.211769 58.905451 
L 239.362456 57.170778 
L 239.664265 57.170778 
L 239.815215 55.302673 
L 240.569362 55.302673 
L 240.720177 57.170778 
L 243.435951 57.170778 
L 243.586019 58.905451 
L 244.641832 58.905451 
L 244.792292 57.170778 
L 245.395444 57.170778 
L 245.545964 55.302673 
L 245.847842 55.302673 
L 245.998558 57.170778 
L 246.453776 57.170778 
L 246.603558 58.905451 
L 248.110864 58.905451 
L 248.260871 60.640125 
L 248.41293 58.905451 
L 248.713872 58.905451 
L 248.86428 60.640125 
L 249.167673 60.640125 
L 249.316851 58.905451 
L 249.468321 60.640125 
L 250.523705 60.640125 
L 250.675583 58.905451 
L 251.428991 58.905451 
L 251.579843 60.640125 
L 253.692216 60.640125 
L 253.841568 62.508233 
L 255.200322 62.508233 
L 255.350224 60.640125 
L 255.502215 62.508233 
L 255.651928 62.508233 
L 255.803014 60.640125 
L 256.407252 60.640125 
L 256.55738 58.905451 
L 256.708073 60.640125 
L 258.671375 60.640125 
L 258.819957 62.508233 
L 258.970085 62.508233 
L 259.120869 60.640125 
L 263.496121 60.640125 
L 263.646121 62.508233 
L 266.964814 62.508233 
L 267.114813 60.640125 
L 268.322829 60.640125 
L 268.472655 62.508233 
L 272.544876 62.508233 
L 272.699567 60.640125 
L 273.752884 60.640125 
L 273.902296 62.508233 
L 275.712566 62.508233 
L 275.863131 60.640125 
L 278.126063 60.640125 
L 278.276244 58.905451 
L 278.728717 58.905451 
L 278.880104 57.170778 
L 279.0307 57.170778 
L 279.182427 58.905451 
L 281.594649 58.905451 
L 281.745645 57.170778 
L 283.706088 57.170778 
L 283.859549 55.302673 
L 284.611494 55.302673 
L 284.76218 57.170778 
L 285.21454 57.170778 
L 285.365219 58.905451 
L 288.984816 58.905451 
L 289.137501 57.170778 
L 290.494581 57.170778 
L 290.644174 58.905451 
L 292.757347 58.905451 
L 292.906803 60.640125 
L 294.114359 60.640125 
L 294.264442 58.905451 
L 294.867405 58.905451 
L 295.018694 57.170778 
L 295.621748 57.170778 
L 295.772449 58.905451 
L 298.78897 58.905451 
L 298.940078 60.640125 
L 299.845409 60.640125 
L 299.995892 58.905451 
L 300.447973 58.905451 
L 300.599225 57.170778 
L 301.051298 57.170778 
L 301.202444 58.905451 
L 301.655355 58.905451 
L 301.808477 60.640125 
L 304.822336 60.640125 
L 304.973572 62.508233 
L 305.72741 62.508233 
L 305.878307 60.640125 
L 306.332447 60.640125 
L 306.484219 62.508233 
L 306.934988 62.508233 
L 307.085343 64.242902 
L 308.744157 64.242902 
L 308.905341 62.508233 
L 309.196396 62.508233 
L 309.346992 64.242902 
L 309.497972 64.242902 
L 309.648975 62.508233 
L 310.705603 62.508233 
L 310.855377 60.640125 
L 312.213098 60.640125 
L 312.367397 62.508233 
L 312.817743 62.508233 
L 312.967675 64.242902 
L 316.285477 64.242902 
L 316.438961 62.508233 
L 316.888825 62.508233 
L 317.03967 60.640125 
L 317.190431 62.508233 
L 317.794518 62.508233 
L 317.945612 64.242902 
L 319.452714 64.242902 
L 319.604072 65.977576 
L 319.755836 64.242902 
L 319.90518 65.977576 
L 321.564515 65.977576 
L 321.717954 64.242902 
L 322.017086 64.242902 
L 322.168888 62.508233 
L 323.525637 62.508233 
L 323.678759 64.242902 
L 324.581058 64.242902 
L 324.732182 62.508233 
L 324.882988 62.508233 
L 325.036834 64.242902 
L 325.336382 64.242902 
L 325.486879 62.508233 
L 325.636683 62.508233 
L 325.787822 64.242902 
L 325.938847 62.508233 
L 326.090061 62.508233 
L 326.241343 64.242902 
L 327.295482 64.242902 
L 327.447307 62.508233 
L 327.748446 62.508233 
L 327.898747 60.640125 
L 328.657201 60.640125 
L 328.804063 62.508233 
L 332.726179 62.508233 
L 332.877762 60.640125 
L 333.330673 60.640125 
L 333.479843 58.905451 
L 334.537143 58.905451 
L 334.688274 60.640125 
L 338.608293 60.640125 
L 338.759273 58.905451 
L 339.060683 58.905451 
L 339.212681 57.170778 
L 340.420727 57.170778 
L 340.569083 58.905451 
L 344.038446 58.905451 
L 344.189102 57.170778 
L 345.546333 57.170778 
L 345.699885 58.905451 
L 347.20658 58.905451 
L 347.355985 60.640125 
L 350.073026 60.640125 
L 350.222219 58.905451 
L 350.37295 60.640125 
L 350.523855 58.905451 
L 350.67439 60.640125 
L 351.277617 60.640125 
L 351.431705 62.508233 
L 351.730498 62.508233 
L 351.880724 60.640125 
L 352.033288 60.640125 
L 352.183039 62.508233 
L 352.334321 60.640125 
L 353.3907 60.640125 
L 353.540436 62.508233 
L 353.691499 60.640125 
L 353.9926 60.640125 
L 354.143203 62.508233 
L 354.747343 62.508233 
L 354.897222 60.640125 
L 355.351196 60.640125 
L 355.500939 58.905451 
L 355.652025 60.640125 
L 356.405863 60.640125 
L 356.557794 62.508233 
L 357.162763 62.508233 
L 357.311948 64.242902 
L 358.821887 64.242902 
L 358.971193 62.508233 
L 360.328024 62.508233 
L 360.478408 60.640125 
L 360.781131 60.640125 
L 360.931839 58.905451 
L 361.23248 58.905451 
L 361.383641 57.170778 
L 361.535429 57.170778 
L 361.685451 58.905451 
L 363.947855 58.905451 
L 364.098307 57.170778 
L 364.25026 58.905451 
L 364.400162 57.170778 
L 364.551316 58.905451 
L 364.701685 58.905451 
L 364.852922 57.170778 
L 365.154475 57.170778 
L 365.305538 58.905451 
L 365.456104 57.170778 
L 365.606797 58.905451 
L 365.758735 57.170778 
L 367.416479 57.170778 
L 367.567278 58.905451 
L 371.639529 58.905451 
L 371.791053 57.170778 
L 371.944016 57.170778 
L 372.092576 55.302673 
L 372.997809 55.302673 
L 373.148344 57.170778 
L 375.712459 57.170778 
L 375.864767 55.302673 
L 376.315287 55.302673 
L 376.46672 57.170778 
L 376.617474 55.302673 
L 378.427359 55.302673 
L 378.578867 57.170778 
L 379.332524 57.170778 
L 379.482501 58.905451 
L 379.633866 57.170778 
L 379.935827 57.170778 
L 380.089017 58.905451 
L 381.443668 58.905451 
L 381.594264 60.640125 
L 382.952468 60.640125 
L 383.102913 58.905451 
L 383.253742 60.640125 
L 383.706291 60.640125 
L 383.857279 62.508233 
L 384.463221 62.508233 
L 384.61227 64.242902 
L 385.818242 64.242902 
L 385.968845 65.977576 
L 386.120233 64.242902 
L 386.421349 64.242902 
L 386.571854 65.977576 
L 386.722789 64.242902 
L 387.929273 64.242902 
L 388.080502 62.508233 
L 388.381656 62.508233 
L 388.532961 60.640125 
L 393.510037 60.640125 
L 393.660354 58.905451 
L 393.811764 58.905451 
L 393.964373 57.170778 
L 396.376008 57.170778 
L 396.526807 55.302673 
L 397.582703 55.302673 
L 397.733827 53.568 
L 397.883827 55.302673 
L 398.035101 53.568 
L 398.487273 53.568 
L 398.487273 53.568 
" clip-path="url(#p5e24925876)" style="fill: none; stroke: #ff7f0e; stroke-width: 1.5; stroke-linecap: square"/>
   </g>
   <g id="patch_3">
    <path d="M 57.6 307.584 
L 57.6 41.472 
" style="fill: none; stroke: #000000; stroke-width: 0.8; stroke-linejoin: miter; stroke-linecap: square"/>
   </g>
   <g id="patch_4">
    <path d="M 414.72 307.584 
L 414.72 41.472 
" style="fill: none; stroke: #000000; stroke-width: 0.8; stroke-linejoin: miter; stroke-linecap: square"/>
   </g>
   <g id="patch_5">
    <path d="M 57.6 307.584 
L 414.72 307.584 
" style="fill: none; stroke: #000000; stroke-width: 0.8; stroke-linejoin: miter; stroke-linecap: square"/>
   </g>
   <g id="patch_6">
    <path d="M 57.6 41.472 
L 414.72 41.472 
" style="fill: none; stroke: #000000; stroke-width: 0.8; stroke-linejoin: miter; stroke-linecap: square"/>
   </g>
   <g id="text_16">
    <!-- Nidarosdomen -->
    <g transform="translate(192.570938 35.472) scale(0.12 -0.12)">
     <defs>
      <path id="DejaVuSans-4e" d="M 628 4666 
L 1478 4666 
L 3547 763 
L 3547 4666 
L 4159 4666 
L 4159 0 
L 3309 0 
L 1241 3903 
L 1241 0 
L 628 0 
L 628 4666 
z
" transform="scale(0.015625)"/>
      <path id="DejaVuSans-72" d="M 2631 2963 
Q 2534 3019 2420 3045 
Q 2306 3072 2169 3072 
Q 1681 3072 1420 2755 
Q 1159 2438 1159 1844 
L 1159 0 
L 581 0 
L 581 3500 
L 1159 3500 
L 1159 2956 
Q 1341 3275 1631 3429 
Q 1922 3584 2338 3584 
Q 2397 3584 2469 3576 
Q 2541 3569 2628 3553 
L 2631 2963 
z
" transform="scale(0.015625)"/>
      <path id="DejaVuSans-6f" d="M 1959 3097 
Q 1497 3097 1228 2736 
Q 959 2375 959 1747 
Q 959 1119 1226 758 
Q 1494 397 1959 397 
Q 2419 397 2687 759 
Q 2956 1122 2956 1747 
Q 2956 2369 2687 2733 
Q 2419 3097 1959 3097 
z
M 1959 3584 
Q 2709 3584 3137 3096 
Q 3566 2609 3566 1747 
Q 3566 888 3137 398 
Q 2709 -91 1959 -91 
Q 1206 -91 779 398 
Q 353 888 353 1747 
Q 353 2609 779 3096 
Q 1206 3584 1959 3584 
z
" transform="scale(0.015625)"/>
     </defs>
     <use xlink:href="#DejaVuSans-4e"/>
     <use xlink:href="#DejaVuSans-69" x="74.804688"/>
     <use xlink:href="#DejaVuSans-64" x="102.587891"/>
     <use xlink:href="#DejaVuSans-61" x="166.064453"/>
     <use xlink:href="#DejaVuSans-72" x="227.34375"/>
     <use xlink:href="#DejaVuSans-6f" x="266.207031"/>
     <use xlink:href="#DejaVuSans-73" x="327.388672"/>
     <use xlink:href="#DejaVuSans-64" x="379.488281"/>
     <use xlink:href="#DejaVuSans-6f" x="442.964844"/>
     <use xlink:href="#DejaVuSans-6d" x="504.146484"/>
     <use xlink:href="#DejaVuSans-65" x="601.558594"/>
     <use xlink:href="#DejaVuSans-6e" x="663.082031"/>
    </g>
   </g>
   <g id="legend_1">
    <g id="patch_7">
     <path d="M 270.32 190.728 
L 407.72 190.728 
Q 409.72 190.728 409.72 188.728 
L 409.72 160.328 
Q 409.72 158.328 407.72 158.328 
L 270.32 158.328 
Q 268.32 158.328 268.32 160.328 
L 268.32 188.728 
Q 268.32 190.728 270.32 190.728 
z
" style="fill: #ffffff; opacity: 0.8; stroke: #cccccc; stroke-linejoin: miter"/>
    </g>
    <g id="line2d_16">
     <path d="M 272.32 166.428 
L 282.32 166.428 
L 292.32 166.428 
" style="fill: none; stroke: #1f77b4; stroke-width: 1.5; stroke-linecap: square"/>
    </g>
    <g id="text_17">
     <!-- Magnetic Field x $[\mu T]$ -->
     <g transform="translate(300.32 169.928) scale(0.1 -0.1)">
      <defs>
       <path id="DejaVuSans-46" d="M 628 4666 
L 3309 4666 
L 3309 4134 
L 1259 4134 
L 1259 2759 
L 3109 2759 
L 3109 2228 
L 1259 2228 
L 1259 0 
L 628 0 
L 628 4666 
z
" transform="scale(0.015625)"/>
       <path id="DejaVuSans-78" d="M 3513 3500 
L 2247 1797 
L 3578 0 
L 2900 0 
L 1881 1375 
L 863 0 
L 184 0 
L 1544 1831 
L 300 3500 
L 978 3500 
L 1906 2253 
L 2834 3500 
L 3513 3500 
z
" transform="scale(0.015625)"/>
      </defs>
      <use xlink:href="#DejaVuSans-4d" transform="translate(0 0.015625)"/>
      <use xlink:href="#DejaVuSans-61" transform="translate(86.279297 0.015625)"/>
      <use xlink:href="#DejaVuSans-67" transform="translate(147.558594 0.015625)"/>
      <use xlink:href="#DejaVuSans-6e" transform="translate(211.035156 0.015625)"/>
      <use xlink:href="#DejaVuSans-65" transform="translate(274.414062 0.015625)"/>
      <use xlink:href="#DejaVuSans-74" transform="translate(335.9375 0.015625)"/>
      <use xlink:href="#DejaVuSans-69" transform="translate(375.146484 0.015625)"/>
      <use xlink:href="#DejaVuSans-63" transform="translate(402.929688 0.015625)"/>
      <use xlink:href="#DejaVuSans-20" transform="translate(457.910156 0.015625)"/>
      <use xlink:href="#DejaVuSans-46" transform="translate(489.697266 0.015625)"/>
      <use xlink:href="#DejaVuSans-69" transform="translate(547.216797 0.015625)"/>
      <use xlink:href="#DejaVuSans-65" transform="translate(575 0.015625)"/>
      <use xlink:href="#DejaVuSans-6c" transform="translate(636.523438 0.015625)"/>
      <use xlink:href="#DejaVuSans-64" transform="translate(664.306641 0.015625)"/>
      <use xlink:href="#DejaVuSans-20" transform="translate(727.783203 0.015625)"/>
      <use xlink:href="#DejaVuSans-78" transform="translate(759.570312 0.015625)"/>
      <use xlink:href="#DejaVuSans-20" transform="translate(818.75 0.015625)"/>
      <use xlink:href="#DejaVuSans-5b" transform="translate(850.537109 0.015625)"/>
      <use xlink:href="#DejaVuSans-Oblique-3bc" transform="translate(889.550781 0.015625)"/>
      <use xlink:href="#DejaVuSans-Oblique-54" transform="translate(953.173828 0.015625)"/>
      <use xlink:href="#DejaVuSans-5d" transform="translate(1014.257812 0.015625)"/>
     </g>
    </g>
    <g id="line2d_17">
     <path d="M 272.32 181.128 
L 282.32 181.128 
L 292.32 181.128 
" style="fill: none; stroke: #ff7f0e; stroke-width: 1.5; stroke-linecap: square"/>
    </g>
    <g id="text_18">
     <!-- Magnetic Field y $[\mu T]$ -->
     <g transform="translate(300.32 184.628) scale(0.1 -0.1)">
      <defs>
       <path id="DejaVuSans-79" d="M 2059 -325 
Q 1816 -950 1584 -1140 
Q 1353 -1331 966 -1331 
L 506 -1331 
L 506 -850 
L 844 -850 
Q 1081 -850 1212 -737 
Q 1344 -625 1503 -206 
L 1606 56 
L 191 3500 
L 800 3500 
L 1894 763 
L 2988 3500 
L 3597 3500 
L 2059 -325 
z
" transform="scale(0.015625)"/>
      </defs>
      <use xlink:href="#DejaVuSans-4d" transform="translate(0 0.015625)"/>
      <use xlink:href="#DejaVuSans-61" transform="translate(86.279297 0.015625)"/>
      <use xlink:href="#DejaVuSans-67" transform="translate(147.558594 0.015625)"/>
      <use xlink:href="#DejaVuSans-6e" transform="translate(211.035156 0.015625)"/>
      <use xlink:href="#DejaVuSans-65" transform="translate(274.414062 0.015625)"/>
      <use xlink:href="#DejaVuSans-74" transform="translate(335.9375 0.015625)"/>
      <use xlink:href="#DejaVuSans-69" transform="translate(375.146484 0.015625)"/>
      <use xlink:href="#DejaVuSans-63" transform="translate(402.929688 0.015625)"/>
      <use xlink:href="#DejaVuSans-20" transform="translate(457.910156 0.015625)"/>
      <use xlink:href="#DejaVuSans-46" transform="translate(489.697266 0.015625)"/>
      <use xlink:href="#DejaVuSans-69" transform="translate(547.216797 0.015625)"/>
      <use xlink:href="#DejaVuSans-65" transform="translate(575 0.015625)"/>
      <use xlink:href="#DejaVuSans-6c" transform="translate(636.523438 0.015625)"/>
      <use xlink:href="#DejaVuSans-64" transform="translate(664.306641 0.015625)"/>
      <use xlink:href="#DejaVuSans-20" transform="translate(727.783203 0.015625)"/>
      <use xlink:href="#DejaVuSans-79" transform="translate(759.570312 0.015625)"/>
      <use xlink:href="#DejaVuSans-20" transform="translate(818.75 0.015625)"/>
      <use xlink:href="#DejaVuSans-5b" transform="translate(850.537109 0.015625)"/>
      <use xlink:href="#DejaVuSans-Oblique-3bc" transform="translate(889.550781 0.015625)"/>
      <use xlink:href="#DejaVuSans-Oblique-54" transform="translate(953.173828 0.015625)"/>
      <use xlink:href="#DejaVuSans-5d" transform="translate(1014.257812 0.015625)"/>
     </g>
    </g>
   </g>
  </g>
 </g>
 <defs>
  <clipPath id="p5e24925876">
   <rect x="57.6" y="41.472" width="357.12" height="266.112"/>
  </clipPath>
 </defs>
</svg>
