<?xml version="1.0" encoding="utf-8" standalone="no"?>
<!DOCTYPE svg PUBLIC "-//W3C//DTD SVG 1.1//EN"
  "http://www.w3.org/Graphics/SVG/1.1/DTD/svg11.dtd">
<svg xmlns:xlink="http://www.w3.org/1999/xlink" width="460.8pt" height="345.6pt" viewBox="0 0 460.8 345.6" xmlns="http://www.w3.org/2000/svg" version="1.1">
 <metadata>
  <rdf:RDF xmlns:dc="http://purl.org/dc/elements/1.1/" xmlns:cc="http://creativecommons.org/ns#" xmlns:rdf="http://www.w3.org/1999/02/22-rdf-syntax-ns#">
   <cc:Work>
    <dc:type rdf:resource="http://purl.org/dc/dcmitype/StillImage"/>
    <dc:date>2023-04-17T16:36:09.703744</dc:date>
    <dc:format>image/svg+xml</dc:format>
    <dc:creator>
     <cc:Agent>
      <dc:title>Matplotlib v3.7.1, https://matplotlib.org/</dc:title>
     </cc:Agent>
    </dc:creator>
   </cc:Work>
  </rdf:RDF>
 </metadata>
 <defs>
  <style type="text/css">*{stroke-linejoin: round; stroke-linecap: butt}</style>
 </defs>
 <g id="figure_1">
  <g id="patch_1">
   <path d="M 0 345.6 
L 460.8 345.6 
L 460.8 0 
L 0 0 
z
" style="fill: #ffffff"/>
  </g>
  <g id="axes_1">
   <g id="patch_2">
    <path d="M 57.6 307.584 
L 414.72 307.584 
L 414.72 41.472 
L 57.6 41.472 
z
" style="fill: #ffffff"/>
   </g>
   <g id="matplotlib.axis_1">
    <g id="xtick_1">
     <g id="line2d_1">
      <defs>
       <path id="mde4ad955c8" d="M 0 0 
L 0 3.5 
" style="stroke: #000000; stroke-width: 0.8"/>
      </defs>
      <g>
       <use xlink:href="#mde4ad955c8" x="81.551494" y="307.584" style="stroke: #000000; stroke-width: 0.8"/>
      </g>
     </g>
     <g id="text_1">
      <!-- 50 -->
      <g transform="translate(75.188994 322.182437) scale(0.1 -0.1)">
       <defs>
        <path id="DejaVuSans-35" d="M 691 4666 
L 3169 4666 
L 3169 4134 
L 1269 4134 
L 1269 2991 
Q 1406 3038 1543 3061 
Q 1681 3084 1819 3084 
Q 2600 3084 3056 2656 
Q 3513 2228 3513 1497 
Q 3513 744 3044 326 
Q 2575 -91 1722 -91 
Q 1428 -91 1123 -41 
Q 819 9 494 109 
L 494 744 
Q 775 591 1075 516 
Q 1375 441 1709 441 
Q 2250 441 2565 725 
Q 2881 1009 2881 1497 
Q 2881 1984 2565 2268 
Q 2250 2553 1709 2553 
Q 1456 2553 1204 2497 
Q 953 2441 691 2322 
L 691 4666 
z
" transform="scale(0.015625)"/>
        <path id="DejaVuSans-30" d="M 2034 4250 
Q 1547 4250 1301 3770 
Q 1056 3291 1056 2328 
Q 1056 1369 1301 889 
Q 1547 409 2034 409 
Q 2525 409 2770 889 
Q 3016 1369 3016 2328 
Q 3016 3291 2770 3770 
Q 2525 4250 2034 4250 
z
M 2034 4750 
Q 2819 4750 3233 4129 
Q 3647 3509 3647 2328 
Q 3647 1150 3233 529 
Q 2819 -91 2034 -91 
Q 1250 -91 836 529 
Q 422 1150 422 2328 
Q 422 3509 836 4129 
Q 1250 4750 2034 4750 
z
" transform="scale(0.015625)"/>
       </defs>
       <use xlink:href="#DejaVuSans-35"/>
       <use xlink:href="#DejaVuSans-30" x="63.623047"/>
      </g>
     </g>
    </g>
    <g id="xtick_2">
     <g id="line2d_2">
      <g>
       <use xlink:href="#mde4ad955c8" x="122.950821" y="307.584" style="stroke: #000000; stroke-width: 0.8"/>
      </g>
     </g>
     <g id="text_2">
      <!-- 55 -->
      <g transform="translate(116.588321 322.182437) scale(0.1 -0.1)">
       <use xlink:href="#DejaVuSans-35"/>
       <use xlink:href="#DejaVuSans-35" x="63.623047"/>
      </g>
     </g>
    </g>
    <g id="xtick_3">
     <g id="line2d_3">
      <g>
       <use xlink:href="#mde4ad955c8" x="164.350149" y="307.584" style="stroke: #000000; stroke-width: 0.8"/>
      </g>
     </g>
     <g id="text_3">
      <!-- 60 -->
      <g transform="translate(157.987649 322.182437) scale(0.1 -0.1)">
       <defs>
        <path id="DejaVuSans-36" d="M 2113 2584 
Q 1688 2584 1439 2293 
Q 1191 2003 1191 1497 
Q 1191 994 1439 701 
Q 1688 409 2113 409 
Q 2538 409 2786 701 
Q 3034 994 3034 1497 
Q 3034 2003 2786 2293 
Q 2538 2584 2113 2584 
z
M 3366 4563 
L 3366 3988 
Q 3128 4100 2886 4159 
Q 2644 4219 2406 4219 
Q 1781 4219 1451 3797 
Q 1122 3375 1075 2522 
Q 1259 2794 1537 2939 
Q 1816 3084 2150 3084 
Q 2853 3084 3261 2657 
Q 3669 2231 3669 1497 
Q 3669 778 3244 343 
Q 2819 -91 2113 -91 
Q 1303 -91 875 529 
Q 447 1150 447 2328 
Q 447 3434 972 4092 
Q 1497 4750 2381 4750 
Q 2619 4750 2861 4703 
Q 3103 4656 3366 4563 
z
" transform="scale(0.015625)"/>
       </defs>
       <use xlink:href="#DejaVuSans-36"/>
       <use xlink:href="#DejaVuSans-30" x="63.623047"/>
      </g>
     </g>
    </g>
    <g id="xtick_4">
     <g id="line2d_4">
      <g>
       <use xlink:href="#mde4ad955c8" x="205.749477" y="307.584" style="stroke: #000000; stroke-width: 0.8"/>
      </g>
     </g>
     <g id="text_4">
      <!-- 65 -->
      <g transform="translate(199.386977 322.182437) scale(0.1 -0.1)">
       <use xlink:href="#DejaVuSans-36"/>
       <use xlink:href="#DejaVuSans-35" x="63.623047"/>
      </g>
     </g>
    </g>
    <g id="xtick_5">
     <g id="line2d_5">
      <g>
       <use xlink:href="#mde4ad955c8" x="247.148804" y="307.584" style="stroke: #000000; stroke-width: 0.8"/>
      </g>
     </g>
     <g id="text_5">
      <!-- 70 -->
      <g transform="translate(240.786304 322.182437) scale(0.1 -0.1)">
       <defs>
        <path id="DejaVuSans-37" d="M 525 4666 
L 3525 4666 
L 3525 4397 
L 1831 0 
L 1172 0 
L 2766 4134 
L 525 4134 
L 525 4666 
z
" transform="scale(0.015625)"/>
       </defs>
       <use xlink:href="#DejaVuSans-37"/>
       <use xlink:href="#DejaVuSans-30" x="63.623047"/>
      </g>
     </g>
    </g>
    <g id="xtick_6">
     <g id="line2d_6">
      <g>
       <use xlink:href="#mde4ad955c8" x="288.548132" y="307.584" style="stroke: #000000; stroke-width: 0.8"/>
      </g>
     </g>
     <g id="text_6">
      <!-- 75 -->
      <g transform="translate(282.185632 322.182437) scale(0.1 -0.1)">
       <use xlink:href="#DejaVuSans-37"/>
       <use xlink:href="#DejaVuSans-35" x="63.623047"/>
      </g>
     </g>
    </g>
    <g id="xtick_7">
     <g id="line2d_7">
      <g>
       <use xlink:href="#mde4ad955c8" x="329.947459" y="307.584" style="stroke: #000000; stroke-width: 0.8"/>
      </g>
     </g>
     <g id="text_7">
      <!-- 80 -->
      <g transform="translate(323.584959 322.182437) scale(0.1 -0.1)">
       <defs>
        <path id="DejaVuSans-38" d="M 2034 2216 
Q 1584 2216 1326 1975 
Q 1069 1734 1069 1313 
Q 1069 891 1326 650 
Q 1584 409 2034 409 
Q 2484 409 2743 651 
Q 3003 894 3003 1313 
Q 3003 1734 2745 1975 
Q 2488 2216 2034 2216 
z
M 1403 2484 
Q 997 2584 770 2862 
Q 544 3141 544 3541 
Q 544 4100 942 4425 
Q 1341 4750 2034 4750 
Q 2731 4750 3128 4425 
Q 3525 4100 3525 3541 
Q 3525 3141 3298 2862 
Q 3072 2584 2669 2484 
Q 3125 2378 3379 2068 
Q 3634 1759 3634 1313 
Q 3634 634 3220 271 
Q 2806 -91 2034 -91 
Q 1263 -91 848 271 
Q 434 634 434 1313 
Q 434 1759 690 2068 
Q 947 2378 1403 2484 
z
M 1172 3481 
Q 1172 3119 1398 2916 
Q 1625 2713 2034 2713 
Q 2441 2713 2670 2916 
Q 2900 3119 2900 3481 
Q 2900 3844 2670 4047 
Q 2441 4250 2034 4250 
Q 1625 4250 1398 4047 
Q 1172 3844 1172 3481 
z
" transform="scale(0.015625)"/>
       </defs>
       <use xlink:href="#DejaVuSans-38"/>
       <use xlink:href="#DejaVuSans-30" x="63.623047"/>
      </g>
     </g>
    </g>
    <g id="xtick_8">
     <g id="line2d_8">
      <g>
       <use xlink:href="#mde4ad955c8" x="371.346787" y="307.584" style="stroke: #000000; stroke-width: 0.8"/>
      </g>
     </g>
     <g id="text_8">
      <!-- 85 -->
      <g transform="translate(364.984287 322.182437) scale(0.1 -0.1)">
       <use xlink:href="#DejaVuSans-38"/>
       <use xlink:href="#DejaVuSans-35" x="63.623047"/>
      </g>
     </g>
    </g>
    <g id="xtick_9">
     <g id="line2d_9">
      <g>
       <use xlink:href="#mde4ad955c8" x="412.746115" y="307.584" style="stroke: #000000; stroke-width: 0.8"/>
      </g>
     </g>
     <g id="text_9">
      <!-- 90 -->
      <g transform="translate(406.383615 322.182437) scale(0.1 -0.1)">
       <defs>
        <path id="DejaVuSans-39" d="M 703 97 
L 703 672 
Q 941 559 1184 500 
Q 1428 441 1663 441 
Q 2288 441 2617 861 
Q 2947 1281 2994 2138 
Q 2813 1869 2534 1725 
Q 2256 1581 1919 1581 
Q 1219 1581 811 2004 
Q 403 2428 403 3163 
Q 403 3881 828 4315 
Q 1253 4750 1959 4750 
Q 2769 4750 3195 4129 
Q 3622 3509 3622 2328 
Q 3622 1225 3098 567 
Q 2575 -91 1691 -91 
Q 1453 -91 1209 -44 
Q 966 3 703 97 
z
M 1959 2075 
Q 2384 2075 2632 2365 
Q 2881 2656 2881 3163 
Q 2881 3666 2632 3958 
Q 2384 4250 1959 4250 
Q 1534 4250 1286 3958 
Q 1038 3666 1038 3163 
Q 1038 2656 1286 2365 
Q 1534 2075 1959 2075 
z
" transform="scale(0.015625)"/>
       </defs>
       <use xlink:href="#DejaVuSans-39"/>
       <use xlink:href="#DejaVuSans-30" x="63.623047"/>
      </g>
     </g>
    </g>
    <g id="text_10">
     <!-- time [s] -->
     <g transform="translate(216.768594 335.860562) scale(0.1 -0.1)">
      <defs>
       <path id="DejaVuSans-74" d="M 1172 4494 
L 1172 3500 
L 2356 3500 
L 2356 3053 
L 1172 3053 
L 1172 1153 
Q 1172 725 1289 603 
Q 1406 481 1766 481 
L 2356 481 
L 2356 0 
L 1766 0 
Q 1100 0 847 248 
Q 594 497 594 1153 
L 594 3053 
L 172 3053 
L 172 3500 
L 594 3500 
L 594 4494 
L 1172 4494 
z
" transform="scale(0.015625)"/>
       <path id="DejaVuSans-69" d="M 603 3500 
L 1178 3500 
L 1178 0 
L 603 0 
L 603 3500 
z
M 603 4863 
L 1178 4863 
L 1178 4134 
L 603 4134 
L 603 4863 
z
" transform="scale(0.015625)"/>
       <path id="DejaVuSans-6d" d="M 3328 2828 
Q 3544 3216 3844 3400 
Q 4144 3584 4550 3584 
Q 5097 3584 5394 3201 
Q 5691 2819 5691 2113 
L 5691 0 
L 5113 0 
L 5113 2094 
Q 5113 2597 4934 2840 
Q 4756 3084 4391 3084 
Q 3944 3084 3684 2787 
Q 3425 2491 3425 1978 
L 3425 0 
L 2847 0 
L 2847 2094 
Q 2847 2600 2669 2842 
Q 2491 3084 2119 3084 
Q 1678 3084 1418 2786 
Q 1159 2488 1159 1978 
L 1159 0 
L 581 0 
L 581 3500 
L 1159 3500 
L 1159 2956 
Q 1356 3278 1631 3431 
Q 1906 3584 2284 3584 
Q 2666 3584 2933 3390 
Q 3200 3197 3328 2828 
z
" transform="scale(0.015625)"/>
       <path id="DejaVuSans-65" d="M 3597 1894 
L 3597 1613 
L 953 1613 
Q 991 1019 1311 708 
Q 1631 397 2203 397 
Q 2534 397 2845 478 
Q 3156 559 3463 722 
L 3463 178 
Q 3153 47 2828 -22 
Q 2503 -91 2169 -91 
Q 1331 -91 842 396 
Q 353 884 353 1716 
Q 353 2575 817 3079 
Q 1281 3584 2069 3584 
Q 2775 3584 3186 3129 
Q 3597 2675 3597 1894 
z
M 3022 2063 
Q 3016 2534 2758 2815 
Q 2500 3097 2075 3097 
Q 1594 3097 1305 2825 
Q 1016 2553 972 2059 
L 3022 2063 
z
" transform="scale(0.015625)"/>
       <path id="DejaVuSans-20" transform="scale(0.015625)"/>
       <path id="DejaVuSans-5b" d="M 550 4863 
L 1875 4863 
L 1875 4416 
L 1125 4416 
L 1125 -397 
L 1875 -397 
L 1875 -844 
L 550 -844 
L 550 4863 
z
" transform="scale(0.015625)"/>
       <path id="DejaVuSans-73" d="M 2834 3397 
L 2834 2853 
Q 2591 2978 2328 3040 
Q 2066 3103 1784 3103 
Q 1356 3103 1142 2972 
Q 928 2841 928 2578 
Q 928 2378 1081 2264 
Q 1234 2150 1697 2047 
L 1894 2003 
Q 2506 1872 2764 1633 
Q 3022 1394 3022 966 
Q 3022 478 2636 193 
Q 2250 -91 1575 -91 
Q 1294 -91 989 -36 
Q 684 19 347 128 
L 347 722 
Q 666 556 975 473 
Q 1284 391 1588 391 
Q 1994 391 2212 530 
Q 2431 669 2431 922 
Q 2431 1156 2273 1281 
Q 2116 1406 1581 1522 
L 1381 1569 
Q 847 1681 609 1914 
Q 372 2147 372 2553 
Q 372 3047 722 3315 
Q 1072 3584 1716 3584 
Q 2034 3584 2315 3537 
Q 2597 3491 2834 3397 
z
" transform="scale(0.015625)"/>
       <path id="DejaVuSans-5d" d="M 1947 4863 
L 1947 -844 
L 622 -844 
L 622 -397 
L 1369 -397 
L 1369 4416 
L 622 4416 
L 622 4863 
L 1947 4863 
z
" transform="scale(0.015625)"/>
      </defs>
      <use xlink:href="#DejaVuSans-74"/>
      <use xlink:href="#DejaVuSans-69" x="39.208984"/>
      <use xlink:href="#DejaVuSans-6d" x="66.992188"/>
      <use xlink:href="#DejaVuSans-65" x="164.404297"/>
      <use xlink:href="#DejaVuSans-20" x="225.927734"/>
      <use xlink:href="#DejaVuSans-5b" x="257.714844"/>
      <use xlink:href="#DejaVuSans-73" x="296.728516"/>
      <use xlink:href="#DejaVuSans-5d" x="348.828125"/>
     </g>
    </g>
   </g>
   <g id="matplotlib.axis_2">
    <g id="ytick_1">
     <g id="line2d_10">
      <defs>
       <path id="m929804226c" d="M 0 0 
L -3.5 0 
" style="stroke: #000000; stroke-width: 0.8"/>
      </defs>
      <g>
       <use xlink:href="#m929804226c" x="57.6" y="297.721945" style="stroke: #000000; stroke-width: 0.8"/>
      </g>
     </g>
     <g id="text_11">
      <!-- −14 -->
      <g transform="translate(29.495313 301.521164) scale(0.1 -0.1)">
       <defs>
        <path id="DejaVuSans-2212" d="M 678 2272 
L 4684 2272 
L 4684 1741 
L 678 1741 
L 678 2272 
z
" transform="scale(0.015625)"/>
        <path id="DejaVuSans-31" d="M 794 531 
L 1825 531 
L 1825 4091 
L 703 3866 
L 703 4441 
L 1819 4666 
L 2450 4666 
L 2450 531 
L 3481 531 
L 3481 0 
L 794 0 
L 794 531 
z
" transform="scale(0.015625)"/>
        <path id="DejaVuSans-34" d="M 2419 4116 
L 825 1625 
L 2419 1625 
L 2419 4116 
z
M 2253 4666 
L 3047 4666 
L 3047 1625 
L 3713 1625 
L 3713 1100 
L 3047 1100 
L 3047 0 
L 2419 0 
L 2419 1100 
L 313 1100 
L 313 1709 
L 2253 4666 
z
" transform="scale(0.015625)"/>
       </defs>
       <use xlink:href="#DejaVuSans-2212"/>
       <use xlink:href="#DejaVuSans-31" x="83.789062"/>
       <use xlink:href="#DejaVuSans-34" x="147.412109"/>
      </g>
     </g>
    </g>
    <g id="ytick_2">
     <g id="line2d_11">
      <g>
       <use xlink:href="#m929804226c" x="57.6" y="254.132756" style="stroke: #000000; stroke-width: 0.8"/>
      </g>
     </g>
     <g id="text_12">
      <!-- −12 -->
      <g transform="translate(29.495313 257.931975) scale(0.1 -0.1)">
       <defs>
        <path id="DejaVuSans-32" d="M 1228 531 
L 3431 531 
L 3431 0 
L 469 0 
L 469 531 
Q 828 903 1448 1529 
Q 2069 2156 2228 2338 
Q 2531 2678 2651 2914 
Q 2772 3150 2772 3378 
Q 2772 3750 2511 3984 
Q 2250 4219 1831 4219 
Q 1534 4219 1204 4116 
Q 875 4013 500 3803 
L 500 4441 
Q 881 4594 1212 4672 
Q 1544 4750 1819 4750 
Q 2544 4750 2975 4387 
Q 3406 4025 3406 3419 
Q 3406 3131 3298 2873 
Q 3191 2616 2906 2266 
Q 2828 2175 2409 1742 
Q 1991 1309 1228 531 
z
" transform="scale(0.015625)"/>
       </defs>
       <use xlink:href="#DejaVuSans-2212"/>
       <use xlink:href="#DejaVuSans-31" x="83.789062"/>
       <use xlink:href="#DejaVuSans-32" x="147.412109"/>
      </g>
     </g>
    </g>
    <g id="ytick_3">
     <g id="line2d_12">
      <g>
       <use xlink:href="#m929804226c" x="57.6" y="210.543568" style="stroke: #000000; stroke-width: 0.8"/>
      </g>
     </g>
     <g id="text_13">
      <!-- −10 -->
      <g transform="translate(29.495313 214.342787) scale(0.1 -0.1)">
       <use xlink:href="#DejaVuSans-2212"/>
       <use xlink:href="#DejaVuSans-31" x="83.789062"/>
       <use xlink:href="#DejaVuSans-30" x="147.412109"/>
      </g>
     </g>
    </g>
    <g id="ytick_4">
     <g id="line2d_13">
      <g>
       <use xlink:href="#m929804226c" x="57.6" y="166.954379" style="stroke: #000000; stroke-width: 0.8"/>
      </g>
     </g>
     <g id="text_14">
      <!-- −8 -->
      <g transform="translate(35.857813 170.753598) scale(0.1 -0.1)">
       <use xlink:href="#DejaVuSans-2212"/>
       <use xlink:href="#DejaVuSans-38" x="83.789062"/>
      </g>
     </g>
    </g>
    <g id="ytick_5">
     <g id="line2d_14">
      <g>
       <use xlink:href="#m929804226c" x="57.6" y="123.365191" style="stroke: #000000; stroke-width: 0.8"/>
      </g>
     </g>
     <g id="text_15">
      <!-- −6 -->
      <g transform="translate(35.857813 127.164409) scale(0.1 -0.1)">
       <use xlink:href="#DejaVuSans-2212"/>
       <use xlink:href="#DejaVuSans-36" x="83.789062"/>
      </g>
     </g>
    </g>
    <g id="ytick_6">
     <g id="line2d_15">
      <g>
       <use xlink:href="#m929804226c" x="57.6" y="79.776002" style="stroke: #000000; stroke-width: 0.8"/>
      </g>
     </g>
     <g id="text_16">
      <!-- −4 -->
      <g transform="translate(35.857813 83.575221) scale(0.1 -0.1)">
       <use xlink:href="#DejaVuSans-2212"/>
       <use xlink:href="#DejaVuSans-34" x="83.789062"/>
      </g>
     </g>
    </g>
    <g id="text_17">
     <!-- Magnetic field $[\mu T]$ -->
     <g transform="translate(23.395312 221.528) rotate(-90) scale(0.1 -0.1)">
      <defs>
       <path id="DejaVuSans-4d" d="M 628 4666 
L 1569 4666 
L 2759 1491 
L 3956 4666 
L 4897 4666 
L 4897 0 
L 4281 0 
L 4281 4097 
L 3078 897 
L 2444 897 
L 1241 4097 
L 1241 0 
L 628 0 
L 628 4666 
z
" transform="scale(0.015625)"/>
       <path id="DejaVuSans-61" d="M 2194 1759 
Q 1497 1759 1228 1600 
Q 959 1441 959 1056 
Q 959 750 1161 570 
Q 1363 391 1709 391 
Q 2188 391 2477 730 
Q 2766 1069 2766 1631 
L 2766 1759 
L 2194 1759 
z
M 3341 1997 
L 3341 0 
L 2766 0 
L 2766 531 
Q 2569 213 2275 61 
Q 1981 -91 1556 -91 
Q 1019 -91 701 211 
Q 384 513 384 1019 
Q 384 1609 779 1909 
Q 1175 2209 1959 2209 
L 2766 2209 
L 2766 2266 
Q 2766 2663 2505 2880 
Q 2244 3097 1772 3097 
Q 1472 3097 1187 3025 
Q 903 2953 641 2809 
L 641 3341 
Q 956 3463 1253 3523 
Q 1550 3584 1831 3584 
Q 2591 3584 2966 3190 
Q 3341 2797 3341 1997 
z
" transform="scale(0.015625)"/>
       <path id="DejaVuSans-67" d="M 2906 1791 
Q 2906 2416 2648 2759 
Q 2391 3103 1925 3103 
Q 1463 3103 1205 2759 
Q 947 2416 947 1791 
Q 947 1169 1205 825 
Q 1463 481 1925 481 
Q 2391 481 2648 825 
Q 2906 1169 2906 1791 
z
M 3481 434 
Q 3481 -459 3084 -895 
Q 2688 -1331 1869 -1331 
Q 1566 -1331 1297 -1286 
Q 1028 -1241 775 -1147 
L 775 -588 
Q 1028 -725 1275 -790 
Q 1522 -856 1778 -856 
Q 2344 -856 2625 -561 
Q 2906 -266 2906 331 
L 2906 616 
Q 2728 306 2450 153 
Q 2172 0 1784 0 
Q 1141 0 747 490 
Q 353 981 353 1791 
Q 353 2603 747 3093 
Q 1141 3584 1784 3584 
Q 2172 3584 2450 3431 
Q 2728 3278 2906 2969 
L 2906 3500 
L 3481 3500 
L 3481 434 
z
" transform="scale(0.015625)"/>
       <path id="DejaVuSans-6e" d="M 3513 2113 
L 3513 0 
L 2938 0 
L 2938 2094 
Q 2938 2591 2744 2837 
Q 2550 3084 2163 3084 
Q 1697 3084 1428 2787 
Q 1159 2491 1159 1978 
L 1159 0 
L 581 0 
L 581 3500 
L 1159 3500 
L 1159 2956 
Q 1366 3272 1645 3428 
Q 1925 3584 2291 3584 
Q 2894 3584 3203 3211 
Q 3513 2838 3513 2113 
z
" transform="scale(0.015625)"/>
       <path id="DejaVuSans-63" d="M 3122 3366 
L 3122 2828 
Q 2878 2963 2633 3030 
Q 2388 3097 2138 3097 
Q 1578 3097 1268 2742 
Q 959 2388 959 1747 
Q 959 1106 1268 751 
Q 1578 397 2138 397 
Q 2388 397 2633 464 
Q 2878 531 3122 666 
L 3122 134 
Q 2881 22 2623 -34 
Q 2366 -91 2075 -91 
Q 1284 -91 818 406 
Q 353 903 353 1747 
Q 353 2603 823 3093 
Q 1294 3584 2113 3584 
Q 2378 3584 2631 3529 
Q 2884 3475 3122 3366 
z
" transform="scale(0.015625)"/>
       <path id="DejaVuSans-66" d="M 2375 4863 
L 2375 4384 
L 1825 4384 
Q 1516 4384 1395 4259 
Q 1275 4134 1275 3809 
L 1275 3500 
L 2222 3500 
L 2222 3053 
L 1275 3053 
L 1275 0 
L 697 0 
L 697 3053 
L 147 3053 
L 147 3500 
L 697 3500 
L 697 3744 
Q 697 4328 969 4595 
Q 1241 4863 1831 4863 
L 2375 4863 
z
" transform="scale(0.015625)"/>
       <path id="DejaVuSans-6c" d="M 603 4863 
L 1178 4863 
L 1178 0 
L 603 0 
L 603 4863 
z
" transform="scale(0.015625)"/>
       <path id="DejaVuSans-64" d="M 2906 2969 
L 2906 4863 
L 3481 4863 
L 3481 0 
L 2906 0 
L 2906 525 
Q 2725 213 2448 61 
Q 2172 -91 1784 -91 
Q 1150 -91 751 415 
Q 353 922 353 1747 
Q 353 2572 751 3078 
Q 1150 3584 1784 3584 
Q 2172 3584 2448 3432 
Q 2725 3281 2906 2969 
z
M 947 1747 
Q 947 1113 1208 752 
Q 1469 391 1925 391 
Q 2381 391 2643 752 
Q 2906 1113 2906 1747 
Q 2906 2381 2643 2742 
Q 2381 3103 1925 3103 
Q 1469 3103 1208 2742 
Q 947 2381 947 1747 
z
" transform="scale(0.015625)"/>
       <path id="DejaVuSans-Oblique-3bc" d="M -84 -1331 
L 856 3500 
L 1434 3500 
L 1009 1322 
Q 997 1256 987 1175 
Q 978 1094 978 1013 
Q 978 722 1161 565 
Q 1344 409 1684 409 
Q 2147 409 2431 671 
Q 2716 934 2816 1459 
L 3213 3500 
L 3788 3500 
L 3266 809 
Q 3253 750 3248 706 
Q 3244 663 3244 628 
Q 3244 531 3283 486 
Q 3322 441 3406 441 
Q 3438 441 3492 456 
Q 3547 472 3647 513 
L 3559 50 
Q 3422 -19 3297 -55 
Q 3172 -91 3053 -91 
Q 2847 -91 2730 40 
Q 2613 172 2613 403 
Q 2438 153 2195 31 
Q 1953 -91 1625 -91 
Q 1334 -91 1117 43 
Q 900 178 831 397 
L 494 -1331 
L -84 -1331 
z
" transform="scale(0.015625)"/>
       <path id="DejaVuSans-Oblique-54" d="M 378 4666 
L 4325 4666 
L 4225 4134 
L 2559 4134 
L 1759 0 
L 1125 0 
L 1925 4134 
L 275 4134 
L 378 4666 
z
" transform="scale(0.015625)"/>
      </defs>
      <use xlink:href="#DejaVuSans-4d" transform="translate(0 0.015625)"/>
      <use xlink:href="#DejaVuSans-61" transform="translate(86.279297 0.015625)"/>
      <use xlink:href="#DejaVuSans-67" transform="translate(147.558594 0.015625)"/>
      <use xlink:href="#DejaVuSans-6e" transform="translate(211.035156 0.015625)"/>
      <use xlink:href="#DejaVuSans-65" transform="translate(274.414062 0.015625)"/>
      <use xlink:href="#DejaVuSans-74" transform="translate(335.9375 0.015625)"/>
      <use xlink:href="#DejaVuSans-69" transform="translate(375.146484 0.015625)"/>
      <use xlink:href="#DejaVuSans-63" transform="translate(402.929688 0.015625)"/>
      <use xlink:href="#DejaVuSans-20" transform="translate(457.910156 0.015625)"/>
      <use xlink:href="#DejaVuSans-66" transform="translate(489.697266 0.015625)"/>
      <use xlink:href="#DejaVuSans-69" transform="translate(524.902344 0.015625)"/>
      <use xlink:href="#DejaVuSans-65" transform="translate(552.685547 0.015625)"/>
      <use xlink:href="#DejaVuSans-6c" transform="translate(614.208984 0.015625)"/>
      <use xlink:href="#DejaVuSans-64" transform="translate(641.992188 0.015625)"/>
      <use xlink:href="#DejaVuSans-20" transform="translate(705.46875 0.015625)"/>
      <use xlink:href="#DejaVuSans-5b" transform="translate(737.255859 0.015625)"/>
      <use xlink:href="#DejaVuSans-Oblique-3bc" transform="translate(776.269531 0.015625)"/>
      <use xlink:href="#DejaVuSans-Oblique-54" transform="translate(839.892578 0.015625)"/>
      <use xlink:href="#DejaVuSans-5d" transform="translate(900.976562 0.015625)"/>
     </g>
    </g>
   </g>
   <g id="line2d_16">
    <path d="M 73.832727 62.39481 
L 74.164965 62.39481 
L 74.330885 64.519785 
L 76.979656 64.519785 
L 77.146768 66.64476 
L 77.311347 66.64476 
L 77.48592 64.519785 
L 77.641697 66.64476 
L 77.808429 66.64476 
L 77.972478 64.519785 
L 80.125574 64.519785 
L 80.294061 66.64476 
L 80.954041 66.64476 
L 81.119059 68.933187 
L 81.451388 68.933187 
L 81.616977 66.64476 
L 82.444127 66.64476 
L 82.609203 68.933187 
L 83.106723 68.933187 
L 83.272734 71.058162 
L 83.439276 71.058162 
L 83.605188 68.933187 
L 85.095174 68.933187 
L 85.259778 66.64476 
L 86.25385 66.64476 
L 86.418752 68.933187 
L 86.585086 66.64476 
L 86.750352 68.933187 
L 87.4128 68.933187 
L 87.578447 66.64476 
L 88.574043 66.64476 
L 88.738083 68.933187 
L 88.903656 66.64476 
L 89.730351 66.64476 
L 89.899194 64.519785 
L 91.055262 64.519785 
L 91.221488 62.39481 
L 91.883877 62.39481 
L 92.048729 60.106377 
L 92.546689 60.106377 
L 92.71068 62.39481 
L 92.876691 62.39481 
L 93.042272 60.106377 
L 98.009719 60.106377 
L 98.177577 62.39481 
L 98.341436 60.106377 
L 98.672995 60.106377 
L 98.839213 62.39481 
L 100.162849 62.39481 
L 100.333025 60.106377 
L 100.495244 62.39481 
L 102.31645 62.39481 
L 102.481128 60.106377 
L 102.813598 60.106377 
L 102.979593 57.981408 
L 104.309314 57.981408 
L 104.469339 60.106377 
L 104.966686 60.106377 
L 105.132084 62.39481 
L 105.296779 60.106377 
L 105.463345 62.39481 
L 105.628727 62.39481 
L 105.794532 60.106377 
L 105.958887 60.106377 
L 106.126397 62.39481 
L 106.290943 60.106377 
L 106.622866 60.106377 
L 106.791858 62.39481 
L 106.95344 60.106377 
L 107.119617 62.39481 
L 109.271984 62.39481 
L 109.437689 60.106377 
L 110.59658 60.106377 
L 110.762219 62.39481 
L 115.401436 62.39481 
L 115.563672 60.106377 
L 115.895024 60.106377 
L 116.061581 62.39481 
L 116.226069 62.39481 
L 116.391973 60.106377 
L 116.738403 60.106377 
L 116.888881 62.39481 
L 118.381095 62.39481 
L 118.544266 64.519785 
L 118.711006 62.39481 
L 120.532104 62.39481 
L 120.698447 64.519785 
L 120.863307 62.39481 
L 121.693372 62.39481 
L 121.855831 60.106377 
L 123.1809 60.106377 
L 123.348981 62.39481 
L 123.512069 60.106377 
L 123.678569 62.39481 
L 126.494022 62.39481 
L 126.659793 64.519785 
L 126.823974 62.39481 
L 128.980523 62.39481 
L 129.143769 64.519785 
L 131.130415 64.519785 
L 131.298281 62.39481 
L 132.123544 62.39481 
L 132.290292 60.106377 
L 132.455202 62.39481 
L 132.620004 60.106377 
L 132.786223 60.106377 
L 132.95288 57.981408 
L 133.780792 57.981408 
L 133.946671 55.856433 
L 134.278751 55.856433 
L 134.442618 57.981408 
L 134.773887 57.981408 
L 134.939468 55.856433 
L 136.263733 55.856433 
L 136.429711 57.981408 
L 136.599142 57.981408 
L 136.760359 55.856433 
L 136.927273 57.981408 
L 139.244087 57.981408 
L 139.410728 55.856433 
L 140.239087 55.856433 
L 140.404353 57.981408 
L 140.569164 55.856433 
L 141.066146 55.856433 
L 141.231901 57.981408 
L 147.194364 57.981408 
L 147.362379 60.106377 
L 148.352212 60.106377 
L 148.517901 57.981408 
L 148.683366 57.981408 
L 148.849286 60.106377 
L 149.677554 60.106377 
L 149.843557 57.981408 
L 151.333618 57.981408 
L 151.499199 55.856433 
L 152.823787 55.856433 
L 152.989409 57.981408 
L 153.982413 57.981408 
L 154.150577 60.106377 
L 157.625637 60.106377 
L 157.790704 57.981408 
L 158.787368 57.981408 
L 158.949621 60.106377 
L 159.612482 60.106377 
L 159.779089 62.39481 
L 160.110416 62.39481 
L 160.274697 60.106377 
L 160.440692 62.39481 
L 160.606455 60.106377 
L 160.937401 60.106377 
L 161.103313 62.39481 
L 161.27228 60.106377 
L 162.429168 60.106377 
L 162.595577 62.39481 
L 163.421742 62.39481 
L 163.587306 60.106377 
L 164.093305 60.106377 
L 164.254141 57.981408 
L 164.912482 57.981408 
L 165.077947 60.106377 
L 166.56819 60.106377 
L 166.741562 62.39481 
L 166.898507 60.106377 
L 168.885459 60.106377 
L 169.051297 62.39481 
L 169.714489 62.39481 
L 169.879515 60.106377 
L 170.542111 60.106377 
L 170.707593 62.39481 
L 171.040054 62.39481 
L 171.20455 64.519785 
L 173.853817 64.519785 
L 174.033532 62.39481 
L 174.682143 62.39481 
L 174.852684 64.519785 
L 175.509426 64.519785 
L 175.676804 62.39481 
L 176.939144 62.39481 
L 177.165739 64.519785 
L 177.334242 64.519785 
L 177.497215 66.64476 
L 178.98798 66.64476 
L 179.154629 68.933187 
L 179.321129 68.933187 
L 179.483878 66.64476 
L 179.81585 66.64476 
L 179.980968 68.933187 
L 180.811347 68.933187 
L 180.974916 66.64476 
L 181.967821 66.64476 
L 182.14265 64.519785 
L 183.293758 64.519785 
L 183.458263 66.64476 
L 187.930765 66.64476 
L 188.094739 64.519785 
L 188.923578 64.519785 
L 189.090393 66.64476 
L 189.255237 64.519785 
L 189.419907 66.64476 
L 189.917709 66.64476 
L 190.083836 68.933187 
L 192.069406 68.933187 
L 192.237346 71.058162 
L 193.062675 71.058162 
L 193.229349 68.933187 
L 196.211433 68.933187 
L 196.37525 71.058162 
L 196.706197 71.058162 
L 196.872315 68.933187 
L 197.701619 68.933187 
L 197.867191 71.058162 
L 200.018855 71.058162 
L 200.186862 68.933187 
L 204.490446 68.933187 
L 204.656548 66.64476 
L 205.48581 66.64476 
L 205.648294 64.519785 
L 206.643211 64.519785 
L 206.809711 66.64476 
L 210.123611 66.64476 
L 210.28511 68.933187 
L 210.781786 68.933187 
L 210.949172 66.64476 
L 211.114214 68.933187 
L 211.280747 68.933187 
L 211.444142 66.64476 
L 213.596981 66.64476 
L 213.762877 68.933187 
L 214.757843 68.933187 
L 214.922306 66.64476 
L 215.087291 68.933187 
L 216.411821 68.933187 
L 216.578164 66.64476 
L 217.572046 66.64476 
L 217.737163 64.519785 
L 218.399428 64.519785 
L 218.564917 62.39481 
L 221.545727 62.39481 
L 221.712119 64.519785 
L 222.374243 64.519785 
L 222.53941 62.39481 
L 222.707334 64.519785 
L 223.698914 64.519785 
L 223.86476 62.39481 
L 225.189704 62.39481 
L 225.354415 64.519785 
L 228.004858 64.519785 
L 228.170588 62.39481 
L 228.336384 64.519785 
L 229.660177 64.519785 
L 229.827894 62.39481 
L 230.653852 62.39481 
L 230.825858 60.106377 
L 230.986645 60.106377 
L 231.15023 62.39481 
L 231.31591 60.106377 
L 234.132919 60.106377 
L 234.297821 57.981408 
L 237.608591 57.981408 
L 237.77601 60.106377 
L 239.596256 60.106377 
L 239.762665 62.39481 
L 239.930357 60.106377 
L 241.251914 60.106377 
L 241.417628 62.39481 
L 242.079818 62.39481 
L 242.24645 60.106377 
L 244.069279 60.106377 
L 244.233163 62.39481 
L 245.889492 62.39481 
L 246.054112 60.106377 
L 248.704862 60.106377 
L 248.869217 57.981408 
L 249.200047 57.981408 
L 249.367971 60.106377 
L 251.685075 60.106377 
L 251.851566 62.39481 
L 252.016311 60.106377 
L 252.84371 60.106377 
L 253.011095 62.39481 
L 254.168538 62.39481 
L 254.333961 60.106377 
L 255.332 60.106377 
L 255.494053 62.39481 
L 256.159026 62.39481 
L 256.321129 64.519785 
L 256.652025 64.519785 
L 256.818194 62.39481 
L 256.984719 64.519785 
L 257.149811 62.39481 
L 257.318232 62.39481 
L 257.481875 64.519785 
L 257.646263 64.519785 
L 257.811563 62.39481 
L 258.639789 62.39481 
L 258.805254 64.519785 
L 258.971274 62.39481 
L 259.137633 64.519785 
L 260.29621 64.519785 
L 260.461194 62.39481 
L 261.289735 62.39481 
L 261.455722 64.519785 
L 261.952481 64.519785 
L 262.117937 66.64476 
L 262.282177 66.64476 
L 262.449521 68.933187 
L 263.608768 68.933187 
L 263.773695 66.64476 
L 263.939632 68.933187 
L 264.104699 66.64476 
L 264.271224 68.933187 
L 266.424428 68.933187 
L 266.589429 66.64476 
L 268.245203 66.64476 
L 268.410205 68.933187 
L 268.907816 68.933187 
L 269.071782 66.64476 
L 270.728741 66.64476 
L 270.895936 64.519785 
L 272.052824 64.519785 
L 272.218554 62.39481 
L 272.550245 62.39481 
L 272.720015 60.106377 
L 275.203023 60.106377 
L 275.366385 62.39481 
L 276.854839 62.39481 
L 277.020644 64.519785 
L 277.517303 64.519785 
L 277.685451 66.64476 
L 279.505961 66.64476 
L 279.67035 68.933187 
L 279.838 66.64476 
L 280.498552 66.64476 
L 280.663859 64.519785 
L 280.994739 64.519785 
L 281.163019 62.39481 
L 281.989896 62.39481 
L 282.153962 60.106377 
L 282.651192 60.106377 
L 282.816516 57.981408 
L 283.811781 57.981408 
L 283.977602 55.856433 
L 284.307695 55.856433 
L 284.472448 53.568 
L 284.641175 53.568 
L 284.803676 55.856433 
L 285.300807 55.856433 
L 285.466487 57.981408 
L 285.962791 57.981408 
L 286.128628 60.106377 
L 287.454938 60.106377 
L 287.619493 62.39481 
L 288.612555 62.39481 
L 288.780197 64.519785 
L 289.275308 64.519785 
L 289.440541 62.39481 
L 289.772423 62.39481 
L 289.939801 64.519785 
L 290.270515 64.519785 
L 290.434986 62.39481 
L 290.931033 62.39481 
L 291.097831 60.106377 
L 293.581029 60.106377 
L 293.748588 57.981408 
L 293.912132 60.106377 
L 294.077837 57.981408 
L 294.242458 60.106377 
L 294.743555 60.106377 
L 294.905675 57.981408 
L 296.395098 57.981408 
L 296.562285 60.106377 
L 296.727734 60.106377 
L 296.893199 57.981408 
L 298.550099 57.981408 
L 298.715324 60.106377 
L 298.880134 57.981408 
L 301.197917 57.981408 
L 301.364003 55.856433 
L 301.696622 55.856433 
L 301.861797 57.981408 
L 302.356742 57.981408 
L 302.52325 55.856433 
L 303.352943 55.856433 
L 303.517339 53.568 
L 303.847549 53.568 
L 304.013353 55.856433 
L 306.33482 55.856433 
L 306.497901 53.568 
L 307.325291 53.568 
L 307.49064 55.856433 
L 308.650202 55.856433 
L 308.816429 57.981408 
L 308.981305 55.856433 
L 309.313088 55.856433 
L 309.478362 57.981408 
L 310.140379 57.981408 
L 310.307243 60.106377 
L 313.287423 60.106377 
L 313.455289 57.981408 
L 314.942709 57.981408 
L 315.108497 55.856433 
L 317.262562 55.856433 
L 317.426363 53.568 
L 320.075804 53.568 
L 320.243396 55.856433 
L 320.408812 53.568 
L 320.573945 55.856433 
L 321.072517 55.856433 
L 321.23732 57.981408 
L 321.897755 57.981408 
L 322.063758 60.106377 
L 322.561129 60.106377 
L 322.726139 62.39481 
L 324.05283 62.39481 
L 324.217724 64.519785 
L 324.382418 62.39481 
L 324.548016 62.39481 
L 324.713787 64.519785 
L 324.878316 64.519785 
L 325.04417 62.39481 
L 325.707992 62.39481 
L 325.873564 60.106377 
L 327.199618 60.106377 
L 327.364246 62.39481 
L 328.192539 62.39481 
L 328.355951 64.519785 
L 328.522359 62.39481 
L 328.688205 62.39481 
L 328.853364 64.519785 
L 329.020203 62.39481 
L 330.177215 62.39481 
L 330.343251 64.519785 
L 330.50903 64.519785 
L 330.674917 62.39481 
L 330.840001 64.519785 
L 331.005375 62.39481 
L 331.337365 62.39481 
L 331.502283 64.519785 
L 331.668187 62.39481 
L 332.331122 62.39481 
L 332.498094 60.106377 
L 332.663998 62.39481 
L 332.828949 62.39481 
L 332.993636 60.106377 
L 333.821978 60.106377 
L 333.988164 62.39481 
L 334.983536 62.39481 
L 335.145921 60.106377 
L 335.311253 62.39481 
L 336.970066 62.39481 
L 337.132525 60.106377 
L 337.299456 60.106377 
L 337.466005 62.39481 
L 337.630402 62.39481 
L 337.79465 60.106377 
L 338.955909 60.106377 
L 339.119875 57.981408 
L 339.285928 57.981408 
L 339.450805 60.106377 
L 339.616088 57.981408 
L 339.782935 60.106377 
L 340.77661 60.106377 
L 340.941553 62.39481 
L 341.122303 60.106377 
L 341.273741 62.39481 
L 341.439264 62.39481 
L 341.604845 60.106377 
L 341.769606 60.106377 
L 341.937762 62.39481 
L 342.100991 62.39481 
L 342.266456 60.106377 
L 344.915963 60.106377 
L 345.081188 57.981408 
L 345.909183 57.981408 
L 346.083424 60.106377 
L 346.242663 57.981408 
L 346.406182 60.106377 
L 348.559816 60.106377 
L 348.729222 57.981408 
L 348.89029 57.981408 
L 349.05535 60.106377 
L 350.381635 60.106377 
L 350.546032 62.39481 
L 350.877326 62.39481 
L 351.043039 60.106377 
L 351.211021 60.106377 
L 351.373629 62.39481 
L 351.540195 60.106377 
L 352.036821 60.106377 
L 352.137745 62.39481 
L 353.029851 62.39481 
L 353.19563 64.519785 
L 354.852141 64.519785 
L 355.019279 62.39481 
L 355.184611 64.519785 
L 355.348776 62.39481 
L 356.673819 62.39481 
L 356.838671 60.106377 
L 360.152737 60.106377 
L 360.317084 57.981408 
L 361.807419 57.981408 
L 361.97189 55.856433 
L 363.793634 55.856433 
L 363.959207 53.568 
L 364.124713 55.856433 
L 365.61653 55.856433 
L 365.781829 57.981408 
L 369.424531 57.981408 
L 369.590989 55.856433 
L 369.756156 57.981408 
L 371.245687 57.981408 
L 371.411748 55.856433 
L 371.577619 55.856433 
L 371.743862 57.981408 
L 373.067547 57.981408 
L 373.234122 60.106377 
L 373.401855 57.981408 
L 373.564521 60.106377 
L 375.054028 60.106377 
L 375.219998 57.981408 
L 375.551623 57.981408 
L 375.717891 60.106377 
L 376.048009 60.106377 
L 376.214244 62.39481 
L 377.041651 62.39481 
L 377.208267 64.519785 
L 377.374949 64.519785 
L 377.539975 62.39481 
L 377.705191 64.519785 
L 378.035309 64.519785 
L 378.201089 62.39481 
L 380.685943 62.39481 
L 380.850381 60.106377 
L 381.348572 60.106377 
L 381.513789 57.981408 
L 381.678483 60.106377 
L 381.844693 57.981408 
L 382.341444 57.981408 
L 382.50647 60.106377 
L 383.665792 60.106377 
L 383.837036 62.39481 
L 383.997177 60.106377 
L 384.162203 60.106377 
L 384.328247 62.39481 
L 384.493431 62.39481 
L 384.659078 60.106377 
L 384.825793 62.39481 
L 386.150596 62.39481 
L 386.315009 60.106377 
L 386.481948 62.39481 
L 386.646477 60.106377 
L 387.806528 60.106377 
L 387.972895 57.981408 
L 388.965651 57.981408 
L 389.134784 60.106377 
L 389.295893 60.106377 
L 389.46164 57.981408 
L 391.284253 57.981408 
L 391.388257 55.856433 
L 391.615978 57.981408 
L 392.276877 57.981408 
L 392.444337 55.856433 
L 392.608287 57.981408 
L 394.595264 57.981408 
L 394.763594 60.106377 
L 394.926061 57.981408 
L 397.908651 57.981408 
L 398.073627 55.856433 
L 398.23973 57.981408 
L 398.405269 55.856433 
L 398.487273 55.856433 
L 398.487273 55.856433 
" clip-path="url(#pe2b70e314b)" style="fill: none; stroke: #1f77b4; stroke-width: 1.5; stroke-linecap: square"/>
   </g>
   <g id="line2d_17">
    <path d="M 73.832727 282.411235 
L 74.164965 282.411235 
L 74.330885 284.699678 
L 79.13339 284.699678 
L 79.298449 282.411235 
L 79.962254 282.411235 
L 80.125574 284.699678 
L 80.954041 284.699678 
L 81.119059 286.824648 
L 84.43228 286.824648 
L 84.596461 284.699678 
L 85.425798 284.699678 
L 85.590757 282.411235 
L 85.922589 282.411235 
L 86.087301 284.699678 
L 86.750352 284.699678 
L 86.914708 286.824648 
L 89.564927 286.824648 
L 89.730351 288.949618 
L 90.226671 288.949618 
L 90.395505 291.23804 
L 90.724953 291.23804 
L 90.88949 288.949618 
L 91.388129 288.949618 
L 91.553718 286.824648 
L 92.214343 286.824648 
L 92.380802 288.949618 
L 92.876691 288.949618 
L 93.042272 291.23804 
L 94.201172 291.23804 
L 94.370064 293.36301 
L 94.532764 293.36301 
L 94.697972 291.23804 
L 97.844544 291.23804 
L 98.009719 288.949618 
L 98.177577 288.949618 
L 98.341436 291.23804 
L 101.818764 291.23804 
L 101.984485 288.949618 
L 102.647512 288.949618 
L 102.813598 286.824648 
L 103.476749 286.824648 
L 103.641593 284.699678 
L 104.309314 284.699678 
L 104.469339 286.824648 
L 109.104723 286.824648 
L 109.271984 284.699678 
L 110.762219 284.699678 
L 110.927552 286.824648 
L 113.908527 286.824648 
L 114.073851 284.699678 
L 115.563672 284.699678 
L 115.730594 282.411235 
L 116.061581 282.411235 
L 116.226069 284.699678 
L 116.738403 284.699678 
L 116.888881 286.824648 
L 118.544266 286.824648 
L 118.711006 284.699678 
L 118.87768 284.699678 
L 119.053627 286.824648 
L 119.703911 286.824648 
L 119.86892 284.699678 
L 121.028888 284.699678 
L 121.19456 282.411235 
L 121.693372 282.411235 
L 121.855831 280.286265 
L 122.188475 280.286265 
L 122.353012 282.411235 
L 122.850516 282.411235 
L 123.015277 284.699678 
L 124.341364 284.699678 
L 124.507591 282.411235 
L 124.673768 282.411235 
L 124.837543 284.699678 
L 125.999647 284.699678 
L 126.161593 286.824648 
L 127.653675 286.824648 
L 127.818452 284.699678 
L 127.98265 284.699678 
L 128.148951 286.824648 
L 128.812293 286.824648 
L 128.980523 288.949618 
L 129.308936 288.949618 
L 129.474252 291.23804 
L 131.130415 291.23804 
L 131.298281 288.949618 
L 133.11774 288.949618 
L 133.28429 286.824648 
L 135.269611 286.824648 
L 135.436674 288.949618 
L 139.078556 288.949618 
L 139.244087 286.824648 
L 141.231901 286.824648 
L 141.396918 288.949618 
L 141.562276 286.824648 
L 142.060541 286.824648 
L 142.227281 288.949618 
L 142.391107 286.824648 
L 142.556348 286.824648 
L 142.720894 288.949618 
L 142.888958 286.824648 
L 143.054175 286.824648 
L 143.218787 288.949618 
L 144.712781 288.949618 
L 144.875249 291.23804 
L 145.041078 288.949618 
L 145.204787 291.23804 
L 145.370815 288.949618 
L 145.536561 291.23804 
L 145.86875 291.23804 
L 146.034885 288.949618 
L 146.366833 288.949618 
L 146.530518 291.23804 
L 147.194364 291.23804 
L 147.362379 293.36301 
L 149.015388 293.36301 
L 149.180737 291.23804 
L 151.002937 291.23804 
L 151.167209 288.949618 
L 151.831147 288.949618 
L 152.003915 286.824648 
L 152.16105 288.949618 
L 152.332435 288.949618 
L 152.491466 286.824648 
L 152.657461 288.949618 
L 153.319221 288.949618 
L 153.486565 291.23804 
L 155.47346 291.23804 
L 155.637625 293.36301 
L 157.459261 293.36301 
L 157.625637 291.23804 
L 159.280906 291.23804 
L 159.447928 293.36301 
L 159.779089 293.36301 
L 159.943991 291.23804 
L 160.110416 291.23804 
L 160.274697 293.36301 
L 160.771315 293.36301 
L 160.937401 291.23804 
L 163.090994 291.23804 
L 163.265732 288.949618 
L 165.410201 288.949618 
L 165.57391 291.23804 
L 166.072491 291.23804 
L 166.23596 288.949618 
L 166.56819 288.949618 
L 166.741562 291.23804 
L 166.898507 288.949618 
L 169.714489 288.949618 
L 169.879515 286.824648 
L 170.877313 286.824648 
L 171.040054 288.949618 
L 172.528799 288.949618 
L 172.694984 291.23804 
L 174.033532 291.23804 
L 174.18786 288.949618 
L 175.179358 288.949618 
L 175.346147 286.824648 
L 175.841888 286.824648 
L 176.006425 284.699678 
L 177.334242 284.699678 
L 177.497215 286.824648 
L 178.325649 286.824648 
L 178.491892 284.699678 
L 179.483878 284.699678 
L 179.650295 286.824648 
L 179.81585 284.699678 
L 179.980968 286.824648 
L 180.644218 286.824648 
L 180.811347 284.699678 
L 181.967821 284.699678 
L 182.14265 282.411235 
L 182.963806 282.411235 
L 183.127267 284.699678 
L 184.454297 284.699678 
L 184.617303 286.824648 
L 186.936816 286.824648 
L 187.101428 288.949618 
L 187.26686 288.949618 
L 187.435587 286.824648 
L 189.603206 286.824648 
L 189.834546 288.949618 
L 193.229349 288.949618 
L 193.394076 286.824648 
L 195.216053 286.824648 
L 195.394931 288.949618 
L 197.038037 288.949618 
L 197.203808 291.23804 
L 199.688182 291.23804 
L 199.853763 288.949618 
L 200.349528 288.949618 
L 200.516889 286.824648 
L 201.013697 286.824648 
L 201.177937 288.949618 
L 202.833007 288.949618 
L 202.999052 286.824648 
L 203.165808 288.949618 
L 203.329675 286.824648 
L 205.98049 286.824648 
L 206.144804 284.699678 
L 206.974323 284.699678 
L 207.138579 286.824648 
L 207.636844 286.824648 
L 207.801448 288.949618 
L 212.272385 288.949618 
L 212.440657 286.824648 
L 212.770361 286.824648 
L 212.934758 288.949618 
L 213.267136 288.949618 
L 213.434506 291.23804 
L 214.425415 291.23804 
L 214.59247 288.949618 
L 214.757843 291.23804 
L 214.922306 288.949618 
L 215.254205 288.949618 
L 215.419777 291.23804 
L 215.74978 291.23804 
L 215.916586 288.949618 
L 216.082415 291.23804 
L 216.247631 288.949618 
L 217.904573 288.949618 
L 218.067761 286.824648 
L 218.896145 286.824648 
L 219.061486 288.949618 
L 219.725763 288.949618 
L 219.889638 291.23804 
L 223.698914 291.23804 
L 223.86476 288.949618 
L 225.189704 288.949618 
L 225.354415 291.23804 
L 226.016821 291.23804 
L 226.183296 293.36301 
L 226.5234 293.36301 
L 226.681148 291.23804 
L 227.17837 291.23804 
L 227.342726 293.36301 
L 228.336384 293.36301 
L 228.502801 295.488 
L 229.827894 295.488 
L 229.993939 293.36301 
L 231.483122 293.36301 
L 231.647958 295.488 
L 233.965699 295.488 
L 234.132919 293.36301 
L 234.297821 295.488 
L 234.462383 295.488 
L 234.628867 293.36301 
L 236.121561 293.36301 
L 236.2845 291.23804 
L 237.608591 291.23804 
L 237.77601 293.36301 
L 238.602399 293.36301 
L 238.771316 291.23804 
L 238.934562 293.36301 
L 239.098777 293.36301 
L 239.266328 291.23804 
L 239.430915 291.23804 
L 239.596256 293.36301 
L 239.762665 293.36301 
L 239.930357 291.23804 
L 240.756331 291.23804 
L 240.9212 288.949618 
L 241.086425 291.23804 
L 241.751116 291.23804 
L 241.915835 288.949618 
L 242.576693 288.949618 
L 242.742414 286.824648 
L 243.240299 286.824648 
L 243.404729 288.949618 
L 244.069279 288.949618 
L 244.233163 291.23804 
L 246.220165 291.23804 
L 246.385141 293.36301 
L 246.716145 293.36301 
L 246.883829 291.23804 
L 247.213169 291.23804 
L 247.380795 293.36301 
L 247.875318 293.36301 
L 248.042878 291.23804 
L 248.704862 291.23804 
L 248.869217 288.949618 
L 249.200047 288.949618 
L 249.367971 291.23804 
L 250.193664 291.23804 
L 250.360528 293.36301 
L 250.693222 293.36301 
L 250.856914 291.23804 
L 254.501877 291.23804 
L 254.665876 288.949618 
L 255.332 288.949618 
L 255.494053 291.23804 
L 256.159026 291.23804 
L 256.321129 293.36301 
L 260.130529 293.36301 
L 260.29621 291.23804 
L 260.627106 291.23804 
L 260.793838 288.949618 
L 261.123559 288.949618 
L 261.289735 291.23804 
L 262.117937 291.23804 
L 262.282177 293.36301 
L 262.614034 293.36301 
L 262.779689 291.23804 
L 265.927048 291.23804 
L 266.091619 288.949618 
L 266.589429 288.949618 
L 266.755217 286.824648 
L 268.082396 286.824648 
L 268.245203 288.949618 
L 268.907816 288.949618 
L 269.071782 286.824648 
L 270.895936 286.824648 
L 271.060374 288.949618 
L 272.218554 288.949618 
L 272.384432 286.824648 
L 273.544392 286.824648 
L 273.709484 288.949618 
L 277.849284 288.949618 
L 278.014757 286.824648 
L 278.676435 286.824648 
L 278.845137 284.699678 
L 279.007952 284.699678 
L 279.174038 286.824648 
L 279.67035 286.824648 
L 279.838 288.949618 
L 280.001991 288.949618 
L 280.16792 291.23804 
L 282.816516 291.23804 
L 282.982346 293.36301 
L 283.977602 293.36301 
L 284.14161 291.23804 
L 284.641175 291.23804 
L 284.803676 288.949618 
L 285.466487 288.949618 
L 285.632192 291.23804 
L 286.957153 291.23804 
L 287.125731 293.36301 
L 294.905675 293.36301 
L 295.070577 291.23804 
L 296.562285 291.23804 
L 296.727734 288.949618 
L 298.21859 288.949618 
L 298.383492 291.23804 
L 299.707483 291.23804 
L 299.87371 288.949618 
L 300.041253 291.23804 
L 302.856962 291.23804 
L 303.022609 288.949618 
L 304.180209 288.949618 
L 304.345955 291.23804 
L 308.816429 291.23804 
L 308.981305 288.949618 
L 309.812132 288.949618 
L 309.97609 291.23804 
L 311.965998 291.23804 
L 312.127745 288.949618 
L 312.458907 288.949618 
L 312.625821 291.23804 
L 312.78987 291.23804 
L 312.954714 288.949618 
L 313.12123 291.23804 
L 313.287423 288.949618 
L 315.108497 288.949618 
L 315.274119 286.824648 
L 315.441397 286.824648 
L 315.605082 288.949618 
L 316.267471 288.949618 
L 316.433954 291.23804 
L 324.217724 291.23804 
L 324.382418 293.36301 
L 324.548016 293.36301 
L 324.713787 291.23804 
L 326.371913 291.23804 
L 326.535233 288.949618 
L 327.861129 288.949618 
L 328.026006 291.23804 
L 332.498094 291.23804 
L 332.663998 288.949618 
L 333.326544 288.949618 
L 333.490469 286.824648 
L 333.656124 286.824648 
L 333.821978 288.949618 
L 338.955909 288.949618 
L 339.119875 286.824648 
L 340.114809 286.824648 
L 340.279909 288.949618 
L 341.439264 288.949618 
L 341.604845 286.824648 
L 342.598578 286.824648 
L 342.766684 284.699678 
L 342.93041 286.824648 
L 343.094103 284.699678 
L 346.083424 284.699678 
L 346.242663 286.824648 
L 346.57129 286.824648 
L 346.738171 288.949618 
L 346.903653 288.949618 
L 347.071245 286.824648 
L 347.401902 286.824648 
L 347.566199 288.949618 
L 352.367354 288.949618 
L 352.534681 291.23804 
L 354.188874 291.23804 
L 354.354497 293.36301 
L 355.019279 293.36301 
L 355.184611 291.23804 
L 356.509398 291.23804 
L 356.673819 288.949618 
L 357.501408 288.949618 
L 357.667933 286.824648 
L 358.164344 286.824648 
L 358.329652 288.949618 
L 358.82598 288.949618 
L 358.991494 291.23804 
L 359.160818 288.949618 
L 361.14426 288.949618 
L 361.310552 286.824648 
L 361.475272 286.824648 
L 361.641151 288.949618 
L 362.139458 288.949618 
L 362.309402 286.824648 
L 362.739541 286.824648 
L 362.967229 284.699678 
L 364.457133 284.699678 
L 364.622416 286.824648 
L 367.106806 286.824648 
L 367.273819 288.949618 
L 367.438282 288.949618 
L 367.603076 286.824648 
L 367.769146 286.824648 
L 367.933683 288.949618 
L 368.103892 286.824648 
L 369.590989 286.824648 
L 369.756156 284.699678 
L 369.922192 284.699678 
L 370.086655 286.824648 
L 370.914998 286.824648 
L 371.082888 288.949618 
L 371.245687 286.824648 
L 373.067547 286.824648 
L 373.234122 288.949618 
L 373.730467 288.949618 
L 373.89666 286.824648 
L 376.71511 286.824648 
L 376.876095 288.949618 
L 377.374949 288.949618 
L 377.539975 291.23804 
L 379.525801 291.23804 
L 379.69144 288.949618 
L 381.348572 288.949618 
L 381.513789 286.824648 
L 383.837036 286.824648 
L 383.997177 284.699678 
L 385.819194 284.699678 
L 385.994968 286.824648 
L 386.150596 284.699678 
L 387.475855 284.699678 
L 387.651496 282.411235 
L 388.302583 282.411235 
L 388.470341 284.699678 
L 388.965651 284.699678 
L 389.134784 286.824648 
L 390.28975 286.824648 
L 390.455455 284.699678 
L 390.620813 286.824648 
L 390.787114 286.824648 
L 390.951775 284.699678 
L 391.117654 284.699678 
L 391.284253 286.824648 
L 391.388257 286.824648 
L 391.615978 284.699678 
L 393.270966 284.699678 
L 393.436489 282.411235 
L 393.768321 282.411235 
L 393.934936 280.286265 
L 394.263904 280.286265 
L 394.429584 282.411235 
L 394.926061 282.411235 
L 395.094002 284.699678 
L 395.588508 284.699678 
L 395.756134 282.411235 
L 395.919521 284.699678 
L 396.085226 282.411235 
L 398.487273 282.411235 
L 398.487273 282.411235 
" clip-path="url(#pe2b70e314b)" style="fill: none; stroke: #ff7f0e; stroke-width: 1.5; stroke-linecap: square"/>
   </g>
   <g id="patch_3">
    <path d="M 57.6 307.584 
L 57.6 41.472 
" style="fill: none; stroke: #000000; stroke-width: 0.8; stroke-linejoin: miter; stroke-linecap: square"/>
   </g>
   <g id="patch_4">
    <path d="M 414.72 307.584 
L 414.72 41.472 
" style="fill: none; stroke: #000000; stroke-width: 0.8; stroke-linejoin: miter; stroke-linecap: square"/>
   </g>
   <g id="patch_5">
    <path d="M 57.6 307.584 
L 414.72 307.584 
" style="fill: none; stroke: #000000; stroke-width: 0.8; stroke-linejoin: miter; stroke-linecap: square"/>
   </g>
   <g id="patch_6">
    <path d="M 57.6 41.472 
L 414.72 41.472 
" style="fill: none; stroke: #000000; stroke-width: 0.8; stroke-linejoin: miter; stroke-linecap: square"/>
   </g>
   <g id="text_18">
    <!-- Tyholt -->
    <g transform="translate(218.38875 35.472) scale(0.12 -0.12)">
     <defs>
      <path id="DejaVuSans-54" d="M -19 4666 
L 3928 4666 
L 3928 4134 
L 2272 4134 
L 2272 0 
L 1638 0 
L 1638 4134 
L -19 4134 
L -19 4666 
z
" transform="scale(0.015625)"/>
      <path id="DejaVuSans-79" d="M 2059 -325 
Q 1816 -950 1584 -1140 
Q 1353 -1331 966 -1331 
L 506 -1331 
L 506 -850 
L 844 -850 
Q 1081 -850 1212 -737 
Q 1344 -625 1503 -206 
L 1606 56 
L 191 3500 
L 800 3500 
L 1894 763 
L 2988 3500 
L 3597 3500 
L 2059 -325 
z
" transform="scale(0.015625)"/>
      <path id="DejaVuSans-68" d="M 3513 2113 
L 3513 0 
L 2938 0 
L 2938 2094 
Q 2938 2591 2744 2837 
Q 2550 3084 2163 3084 
Q 1697 3084 1428 2787 
Q 1159 2491 1159 1978 
L 1159 0 
L 581 0 
L 581 4863 
L 1159 4863 
L 1159 2956 
Q 1366 3272 1645 3428 
Q 1925 3584 2291 3584 
Q 2894 3584 3203 3211 
Q 3513 2838 3513 2113 
z
" transform="scale(0.015625)"/>
      <path id="DejaVuSans-6f" d="M 1959 3097 
Q 1497 3097 1228 2736 
Q 959 2375 959 1747 
Q 959 1119 1226 758 
Q 1494 397 1959 397 
Q 2419 397 2687 759 
Q 2956 1122 2956 1747 
Q 2956 2369 2687 2733 
Q 2419 3097 1959 3097 
z
M 1959 3584 
Q 2709 3584 3137 3096 
Q 3566 2609 3566 1747 
Q 3566 888 3137 398 
Q 2709 -91 1959 -91 
Q 1206 -91 779 398 
Q 353 888 353 1747 
Q 353 2609 779 3096 
Q 1206 3584 1959 3584 
z
" transform="scale(0.015625)"/>
     </defs>
     <use xlink:href="#DejaVuSans-54"/>
     <use xlink:href="#DejaVuSans-79" x="45.458984"/>
     <use xlink:href="#DejaVuSans-68" x="104.638672"/>
     <use xlink:href="#DejaVuSans-6f" x="168.017578"/>
     <use xlink:href="#DejaVuSans-6c" x="229.199219"/>
     <use xlink:href="#DejaVuSans-74" x="256.982422"/>
    </g>
   </g>
   <g id="legend_1">
    <g id="patch_7">
     <path d="M 270.32 190.728 
L 407.72 190.728 
Q 409.72 190.728 409.72 188.728 
L 409.72 160.328 
Q 409.72 158.328 407.72 158.328 
L 270.32 158.328 
Q 268.32 158.328 268.32 160.328 
L 268.32 188.728 
Q 268.32 190.728 270.32 190.728 
z
" style="fill: #ffffff; opacity: 0.8; stroke: #cccccc; stroke-linejoin: miter"/>
    </g>
    <g id="line2d_18">
     <path d="M 272.32 166.428 
L 282.32 166.428 
L 292.32 166.428 
" style="fill: none; stroke: #1f77b4; stroke-width: 1.5; stroke-linecap: square"/>
    </g>
    <g id="text_19">
     <!-- Magnetic Field x $[\mu T]$ -->
     <g transform="translate(300.32 169.928) scale(0.1 -0.1)">
      <defs>
       <path id="DejaVuSans-46" d="M 628 4666 
L 3309 4666 
L 3309 4134 
L 1259 4134 
L 1259 2759 
L 3109 2759 
L 3109 2228 
L 1259 2228 
L 1259 0 
L 628 0 
L 628 4666 
z
" transform="scale(0.015625)"/>
       <path id="DejaVuSans-78" d="M 3513 3500 
L 2247 1797 
L 3578 0 
L 2900 0 
L 1881 1375 
L 863 0 
L 184 0 
L 1544 1831 
L 300 3500 
L 978 3500 
L 1906 2253 
L 2834 3500 
L 3513 3500 
z
" transform="scale(0.015625)"/>
      </defs>
      <use xlink:href="#DejaVuSans-4d" transform="translate(0 0.015625)"/>
      <use xlink:href="#DejaVuSans-61" transform="translate(86.279297 0.015625)"/>
      <use xlink:href="#DejaVuSans-67" transform="translate(147.558594 0.015625)"/>
      <use xlink:href="#DejaVuSans-6e" transform="translate(211.035156 0.015625)"/>
      <use xlink:href="#DejaVuSans-65" transform="translate(274.414062 0.015625)"/>
      <use xlink:href="#DejaVuSans-74" transform="translate(335.9375 0.015625)"/>
      <use xlink:href="#DejaVuSans-69" transform="translate(375.146484 0.015625)"/>
      <use xlink:href="#DejaVuSans-63" transform="translate(402.929688 0.015625)"/>
      <use xlink:href="#DejaVuSans-20" transform="translate(457.910156 0.015625)"/>
      <use xlink:href="#DejaVuSans-46" transform="translate(489.697266 0.015625)"/>
      <use xlink:href="#DejaVuSans-69" transform="translate(547.216797 0.015625)"/>
      <use xlink:href="#DejaVuSans-65" transform="translate(575 0.015625)"/>
      <use xlink:href="#DejaVuSans-6c" transform="translate(636.523438 0.015625)"/>
      <use xlink:href="#DejaVuSans-64" transform="translate(664.306641 0.015625)"/>
      <use xlink:href="#DejaVuSans-20" transform="translate(727.783203 0.015625)"/>
      <use xlink:href="#DejaVuSans-78" transform="translate(759.570312 0.015625)"/>
      <use xlink:href="#DejaVuSans-20" transform="translate(818.75 0.015625)"/>
      <use xlink:href="#DejaVuSans-5b" transform="translate(850.537109 0.015625)"/>
      <use xlink:href="#DejaVuSans-Oblique-3bc" transform="translate(889.550781 0.015625)"/>
      <use xlink:href="#DejaVuSans-Oblique-54" transform="translate(953.173828 0.015625)"/>
      <use xlink:href="#DejaVuSans-5d" transform="translate(1014.257812 0.015625)"/>
     </g>
    </g>
    <g id="line2d_19">
     <path d="M 272.32 181.128 
L 282.32 181.128 
L 292.32 181.128 
" style="fill: none; stroke: #ff7f0e; stroke-width: 1.5; stroke-linecap: square"/>
    </g>
    <g id="text_20">
     <!-- Magnetic Field y $[\mu T]$ -->
     <g transform="translate(300.32 184.628) scale(0.1 -0.1)">
      <use xlink:href="#DejaVuSans-4d" transform="translate(0 0.015625)"/>
      <use xlink:href="#DejaVuSans-61" transform="translate(86.279297 0.015625)"/>
      <use xlink:href="#DejaVuSans-67" transform="translate(147.558594 0.015625)"/>
      <use xlink:href="#DejaVuSans-6e" transform="translate(211.035156 0.015625)"/>
      <use xlink:href="#DejaVuSans-65" transform="translate(274.414062 0.015625)"/>
      <use xlink:href="#DejaVuSans-74" transform="translate(335.9375 0.015625)"/>
      <use xlink:href="#DejaVuSans-69" transform="translate(375.146484 0.015625)"/>
      <use xlink:href="#DejaVuSans-63" transform="translate(402.929688 0.015625)"/>
      <use xlink:href="#DejaVuSans-20" transform="translate(457.910156 0.015625)"/>
      <use xlink:href="#DejaVuSans-46" transform="translate(489.697266 0.015625)"/>
      <use xlink:href="#DejaVuSans-69" transform="translate(547.216797 0.015625)"/>
      <use xlink:href="#DejaVuSans-65" transform="translate(575 0.015625)"/>
      <use xlink:href="#DejaVuSans-6c" transform="translate(636.523438 0.015625)"/>
      <use xlink:href="#DejaVuSans-64" transform="translate(664.306641 0.015625)"/>
      <use xlink:href="#DejaVuSans-20" transform="translate(727.783203 0.015625)"/>
      <use xlink:href="#DejaVuSans-79" transform="translate(759.570312 0.015625)"/>
      <use xlink:href="#DejaVuSans-20" transform="translate(818.75 0.015625)"/>
      <use xlink:href="#DejaVuSans-5b" transform="translate(850.537109 0.015625)"/>
      <use xlink:href="#DejaVuSans-Oblique-3bc" transform="translate(889.550781 0.015625)"/>
      <use xlink:href="#DejaVuSans-Oblique-54" transform="translate(953.173828 0.015625)"/>
      <use xlink:href="#DejaVuSans-5d" transform="translate(1014.257812 0.015625)"/>
     </g>
    </g>
   </g>
  </g>
 </g>
 <defs>
  <clipPath id="pe2b70e314b">
   <rect x="57.6" y="41.472" width="357.12" height="266.112"/>
  </clipPath>
 </defs>
</svg>
