<?xml version="1.0" encoding="utf-8" standalone="no"?>
<!DOCTYPE svg PUBLIC "-//W3C//DTD SVG 1.1//EN"
  "http://www.w3.org/Graphics/SVG/1.1/DTD/svg11.dtd">
<svg xmlns:xlink="http://www.w3.org/1999/xlink" width="626.107031pt" height="458.691562pt" viewBox="0 0 626.107031 458.691562" xmlns="http://www.w3.org/2000/svg" version="1.1">
 <metadata>
  <rdf:RDF xmlns:dc="http://purl.org/dc/elements/1.1/" xmlns:cc="http://creativecommons.org/ns#" xmlns:rdf="http://www.w3.org/1999/02/22-rdf-syntax-ns#">
   <cc:Work>
    <dc:type rdf:resource="http://purl.org/dc/dcmitype/StillImage"/>
    <dc:date>2023-04-19T20:43:04.650957</dc:date>
    <dc:format>image/svg+xml</dc:format>
    <dc:creator>
     <cc:Agent>
      <dc:title>Matplotlib v3.7.0, https://matplotlib.org/</dc:title>
     </cc:Agent>
    </dc:creator>
   </cc:Work>
  </rdf:RDF>
 </metadata>
 <defs>
  <style type="text/css">*{stroke-linejoin: round; stroke-linecap: butt}</style>
 </defs>
 <g id="figure_1">
  <g id="patch_1">
   <path d="M 0 458.691562 
L 626.107031 458.691562 
L 626.107031 0 
L 0 0 
L 0 458.691562 
z
" style="fill: none"/>
  </g>
  <g id="axes_1">
   <g id="patch_2">
    <path d="M 60.907031 414.957187 
L 618.907031 414.957187 
L 618.907031 26.877187 
L 60.907031 26.877187 
L 60.907031 414.957187 
z
" style="fill: none"/>
   </g>
   <g id="matplotlib.axis_1">
    <g id="xtick_1">
     <g id="line2d_1">
      <path d="M 132.787544 414.957187 
L 132.787544 26.877187 
" clip-path="url(#p7cdd6449e3)" style="fill: none; stroke: #808080; stroke-width: 0.8; stroke-linecap: square"/>
     </g>
     <g id="line2d_2">
      <defs>
       <path id="m2b5e8a72e3" d="M 0 0 
L 0 -5 
" style="stroke: #808080; stroke-width: 0.8"/>
      </defs>
      <g>
       <use xlink:href="#m2b5e8a72e3" x="132.787544" y="414.957187" style="fill: #808080; stroke: #808080; stroke-width: 0.8"/>
      </g>
     </g>
     <g id="text_1">
      <!-- 30 -->
      <g style="fill: #808080" transform="translate(123.243794 429.854844) scale(0.15 -0.15)">
       <defs>
        <path id="DejaVuSans-33" d="M 2597 2516 
Q 3050 2419 3304 2112 
Q 3559 1806 3559 1356 
Q 3559 666 3084 287 
Q 2609 -91 1734 -91 
Q 1441 -91 1130 -33 
Q 819 25 488 141 
L 488 750 
Q 750 597 1062 519 
Q 1375 441 1716 441 
Q 2309 441 2620 675 
Q 2931 909 2931 1356 
Q 2931 1769 2642 2001 
Q 2353 2234 1838 2234 
L 1294 2234 
L 1294 2753 
L 1863 2753 
Q 2328 2753 2575 2939 
Q 2822 3125 2822 3475 
Q 2822 3834 2567 4026 
Q 2313 4219 1838 4219 
Q 1578 4219 1281 4162 
Q 984 4106 628 3988 
L 628 4550 
Q 988 4650 1302 4700 
Q 1616 4750 1894 4750 
Q 2613 4750 3031 4423 
Q 3450 4097 3450 3541 
Q 3450 3153 3228 2886 
Q 3006 2619 2597 2516 
z
" transform="scale(0.015625)"/>
        <path id="DejaVuSans-30" d="M 2034 4250 
Q 1547 4250 1301 3770 
Q 1056 3291 1056 2328 
Q 1056 1369 1301 889 
Q 1547 409 2034 409 
Q 2525 409 2770 889 
Q 3016 1369 3016 2328 
Q 3016 3291 2770 3770 
Q 2525 4250 2034 4250 
z
M 2034 4750 
Q 2819 4750 3233 4129 
Q 3647 3509 3647 2328 
Q 3647 1150 3233 529 
Q 2819 -91 2034 -91 
Q 1250 -91 836 529 
Q 422 1150 422 2328 
Q 422 3509 836 4129 
Q 1250 4750 2034 4750 
z
" transform="scale(0.015625)"/>
       </defs>
       <use xlink:href="#DejaVuSans-33"/>
       <use xlink:href="#DejaVuSans-30" x="63.623047"/>
      </g>
     </g>
    </g>
    <g id="xtick_2">
     <g id="line2d_3">
      <path d="M 240.94948 414.957187 
L 240.94948 26.877187 
" clip-path="url(#p7cdd6449e3)" style="fill: none; stroke: #808080; stroke-width: 0.8; stroke-linecap: square"/>
     </g>
     <g id="line2d_4">
      <g>
       <use xlink:href="#m2b5e8a72e3" x="240.94948" y="414.957187" style="fill: #808080; stroke: #808080; stroke-width: 0.8"/>
      </g>
     </g>
     <g id="text_2">
      <!-- 35 -->
      <g style="fill: #808080" transform="translate(231.40573 429.854844) scale(0.15 -0.15)">
       <defs>
        <path id="DejaVuSans-35" d="M 691 4666 
L 3169 4666 
L 3169 4134 
L 1269 4134 
L 1269 2991 
Q 1406 3038 1543 3061 
Q 1681 3084 1819 3084 
Q 2600 3084 3056 2656 
Q 3513 2228 3513 1497 
Q 3513 744 3044 326 
Q 2575 -91 1722 -91 
Q 1428 -91 1123 -41 
Q 819 9 494 109 
L 494 744 
Q 775 591 1075 516 
Q 1375 441 1709 441 
Q 2250 441 2565 725 
Q 2881 1009 2881 1497 
Q 2881 1984 2565 2268 
Q 2250 2553 1709 2553 
Q 1456 2553 1204 2497 
Q 953 2441 691 2322 
L 691 4666 
z
" transform="scale(0.015625)"/>
       </defs>
       <use xlink:href="#DejaVuSans-33"/>
       <use xlink:href="#DejaVuSans-35" x="63.623047"/>
      </g>
     </g>
    </g>
    <g id="xtick_3">
     <g id="line2d_5">
      <path d="M 349.111415 414.957187 
L 349.111415 26.877187 
" clip-path="url(#p7cdd6449e3)" style="fill: none; stroke: #808080; stroke-width: 0.8; stroke-linecap: square"/>
     </g>
     <g id="line2d_6">
      <g>
       <use xlink:href="#m2b5e8a72e3" x="349.111415" y="414.957187" style="fill: #808080; stroke: #808080; stroke-width: 0.8"/>
      </g>
     </g>
     <g id="text_3">
      <!-- 40 -->
      <g style="fill: #808080" transform="translate(339.567665 429.854844) scale(0.15 -0.15)">
       <defs>
        <path id="DejaVuSans-34" d="M 2419 4116 
L 825 1625 
L 2419 1625 
L 2419 4116 
z
M 2253 4666 
L 3047 4666 
L 3047 1625 
L 3713 1625 
L 3713 1100 
L 3047 1100 
L 3047 0 
L 2419 0 
L 2419 1100 
L 313 1100 
L 313 1709 
L 2253 4666 
z
" transform="scale(0.015625)"/>
       </defs>
       <use xlink:href="#DejaVuSans-34"/>
       <use xlink:href="#DejaVuSans-30" x="63.623047"/>
      </g>
     </g>
    </g>
    <g id="xtick_4">
     <g id="line2d_7">
      <path d="M 457.27335 414.957187 
L 457.27335 26.877187 
" clip-path="url(#p7cdd6449e3)" style="fill: none; stroke: #808080; stroke-width: 0.8; stroke-linecap: square"/>
     </g>
     <g id="line2d_8">
      <g>
       <use xlink:href="#m2b5e8a72e3" x="457.27335" y="414.957187" style="fill: #808080; stroke: #808080; stroke-width: 0.8"/>
      </g>
     </g>
     <g id="text_4">
      <!-- 45 -->
      <g style="fill: #808080" transform="translate(447.7296 429.854844) scale(0.15 -0.15)">
       <use xlink:href="#DejaVuSans-34"/>
       <use xlink:href="#DejaVuSans-35" x="63.623047"/>
      </g>
     </g>
    </g>
    <g id="xtick_5">
     <g id="line2d_9">
      <path d="M 565.435286 414.957187 
L 565.435286 26.877187 
" clip-path="url(#p7cdd6449e3)" style="fill: none; stroke: #808080; stroke-width: 0.8; stroke-linecap: square"/>
     </g>
     <g id="line2d_10">
      <g>
       <use xlink:href="#m2b5e8a72e3" x="565.435286" y="414.957187" style="fill: #808080; stroke: #808080; stroke-width: 0.8"/>
      </g>
     </g>
     <g id="text_5">
      <!-- 50 -->
      <g style="fill: #808080" transform="translate(555.891536 429.854844) scale(0.15 -0.15)">
       <use xlink:href="#DejaVuSans-35"/>
       <use xlink:href="#DejaVuSans-30" x="63.623047"/>
      </g>
     </g>
    </g>
    <g id="text_6">
     <!-- time [s] -->
     <g style="fill: #808080" transform="translate(310.819922 448.372031) scale(0.15 -0.15)">
      <defs>
       <path id="DejaVuSans-74" d="M 1172 4494 
L 1172 3500 
L 2356 3500 
L 2356 3053 
L 1172 3053 
L 1172 1153 
Q 1172 725 1289 603 
Q 1406 481 1766 481 
L 2356 481 
L 2356 0 
L 1766 0 
Q 1100 0 847 248 
Q 594 497 594 1153 
L 594 3053 
L 172 3053 
L 172 3500 
L 594 3500 
L 594 4494 
L 1172 4494 
z
" transform="scale(0.015625)"/>
       <path id="DejaVuSans-69" d="M 603 3500 
L 1178 3500 
L 1178 0 
L 603 0 
L 603 3500 
z
M 603 4863 
L 1178 4863 
L 1178 4134 
L 603 4134 
L 603 4863 
z
" transform="scale(0.015625)"/>
       <path id="DejaVuSans-6d" d="M 3328 2828 
Q 3544 3216 3844 3400 
Q 4144 3584 4550 3584 
Q 5097 3584 5394 3201 
Q 5691 2819 5691 2113 
L 5691 0 
L 5113 0 
L 5113 2094 
Q 5113 2597 4934 2840 
Q 4756 3084 4391 3084 
Q 3944 3084 3684 2787 
Q 3425 2491 3425 1978 
L 3425 0 
L 2847 0 
L 2847 2094 
Q 2847 2600 2669 2842 
Q 2491 3084 2119 3084 
Q 1678 3084 1418 2786 
Q 1159 2488 1159 1978 
L 1159 0 
L 581 0 
L 581 3500 
L 1159 3500 
L 1159 2956 
Q 1356 3278 1631 3431 
Q 1906 3584 2284 3584 
Q 2666 3584 2933 3390 
Q 3200 3197 3328 2828 
z
" transform="scale(0.015625)"/>
       <path id="DejaVuSans-65" d="M 3597 1894 
L 3597 1613 
L 953 1613 
Q 991 1019 1311 708 
Q 1631 397 2203 397 
Q 2534 397 2845 478 
Q 3156 559 3463 722 
L 3463 178 
Q 3153 47 2828 -22 
Q 2503 -91 2169 -91 
Q 1331 -91 842 396 
Q 353 884 353 1716 
Q 353 2575 817 3079 
Q 1281 3584 2069 3584 
Q 2775 3584 3186 3129 
Q 3597 2675 3597 1894 
z
M 3022 2063 
Q 3016 2534 2758 2815 
Q 2500 3097 2075 3097 
Q 1594 3097 1305 2825 
Q 1016 2553 972 2059 
L 3022 2063 
z
" transform="scale(0.015625)"/>
       <path id="DejaVuSans-20" transform="scale(0.015625)"/>
       <path id="DejaVuSans-5b" d="M 550 4863 
L 1875 4863 
L 1875 4416 
L 1125 4416 
L 1125 -397 
L 1875 -397 
L 1875 -844 
L 550 -844 
L 550 4863 
z
" transform="scale(0.015625)"/>
       <path id="DejaVuSans-73" d="M 2834 3397 
L 2834 2853 
Q 2591 2978 2328 3040 
Q 2066 3103 1784 3103 
Q 1356 3103 1142 2972 
Q 928 2841 928 2578 
Q 928 2378 1081 2264 
Q 1234 2150 1697 2047 
L 1894 2003 
Q 2506 1872 2764 1633 
Q 3022 1394 3022 966 
Q 3022 478 2636 193 
Q 2250 -91 1575 -91 
Q 1294 -91 989 -36 
Q 684 19 347 128 
L 347 722 
Q 666 556 975 473 
Q 1284 391 1588 391 
Q 1994 391 2212 530 
Q 2431 669 2431 922 
Q 2431 1156 2273 1281 
Q 2116 1406 1581 1522 
L 1381 1569 
Q 847 1681 609 1914 
Q 372 2147 372 2553 
Q 372 3047 722 3315 
Q 1072 3584 1716 3584 
Q 2034 3584 2315 3537 
Q 2597 3491 2834 3397 
z
" transform="scale(0.015625)"/>
       <path id="DejaVuSans-5d" d="M 1947 4863 
L 1947 -844 
L 622 -844 
L 622 -397 
L 1369 -397 
L 1369 4416 
L 622 4416 
L 622 4863 
L 1947 4863 
z
" transform="scale(0.015625)"/>
      </defs>
      <use xlink:href="#DejaVuSans-74"/>
      <use xlink:href="#DejaVuSans-69" x="39.208984"/>
      <use xlink:href="#DejaVuSans-6d" x="66.992188"/>
      <use xlink:href="#DejaVuSans-65" x="164.404297"/>
      <use xlink:href="#DejaVuSans-20" x="225.927734"/>
      <use xlink:href="#DejaVuSans-5b" x="257.714844"/>
      <use xlink:href="#DejaVuSans-73" x="296.728516"/>
      <use xlink:href="#DejaVuSans-5d" x="348.828125"/>
     </g>
    </g>
   </g>
   <g id="matplotlib.axis_2">
    <g id="ytick_1">
     <g id="line2d_11">
      <path d="M 60.907031 377.298147 
L 618.907031 377.298147 
" clip-path="url(#p7cdd6449e3)" style="fill: none; stroke: #808080; stroke-width: 0.8; stroke-linecap: square"/>
     </g>
     <g id="line2d_12">
      <defs>
       <path id="m55866ee19b" d="M 0 0 
L 5 0 
" style="stroke: #808080; stroke-width: 0.8"/>
      </defs>
      <g>
       <use xlink:href="#m55866ee19b" x="60.907031" y="377.298147" style="fill: #808080; stroke: #808080; stroke-width: 0.8"/>
      </g>
     </g>
     <g id="text_7">
      <!-- −40 -->
      <g style="fill: #808080" transform="translate(25.75 382.996975) scale(0.15 -0.15)">
       <defs>
        <path id="DejaVuSans-2212" d="M 678 2272 
L 4684 2272 
L 4684 1741 
L 678 1741 
L 678 2272 
z
" transform="scale(0.015625)"/>
       </defs>
       <use xlink:href="#DejaVuSans-2212"/>
       <use xlink:href="#DejaVuSans-34" x="83.789062"/>
       <use xlink:href="#DejaVuSans-30" x="147.412109"/>
      </g>
     </g>
    </g>
    <g id="ytick_2">
     <g id="line2d_13">
      <path d="M 60.907031 301.998879 
L 618.907031 301.998879 
" clip-path="url(#p7cdd6449e3)" style="fill: none; stroke: #808080; stroke-width: 0.8; stroke-linecap: square"/>
     </g>
     <g id="line2d_14">
      <g>
       <use xlink:href="#m55866ee19b" x="60.907031" y="301.998879" style="fill: #808080; stroke: #808080; stroke-width: 0.8"/>
      </g>
     </g>
     <g id="text_8">
      <!-- −20 -->
      <g style="fill: #808080" transform="translate(25.75 307.697707) scale(0.15 -0.15)">
       <defs>
        <path id="DejaVuSans-32" d="M 1228 531 
L 3431 531 
L 3431 0 
L 469 0 
L 469 531 
Q 828 903 1448 1529 
Q 2069 2156 2228 2338 
Q 2531 2678 2651 2914 
Q 2772 3150 2772 3378 
Q 2772 3750 2511 3984 
Q 2250 4219 1831 4219 
Q 1534 4219 1204 4116 
Q 875 4013 500 3803 
L 500 4441 
Q 881 4594 1212 4672 
Q 1544 4750 1819 4750 
Q 2544 4750 2975 4387 
Q 3406 4025 3406 3419 
Q 3406 3131 3298 2873 
Q 3191 2616 2906 2266 
Q 2828 2175 2409 1742 
Q 1991 1309 1228 531 
z
" transform="scale(0.015625)"/>
       </defs>
       <use xlink:href="#DejaVuSans-2212"/>
       <use xlink:href="#DejaVuSans-32" x="83.789062"/>
       <use xlink:href="#DejaVuSans-30" x="147.412109"/>
      </g>
     </g>
    </g>
    <g id="ytick_3">
     <g id="line2d_15">
      <path d="M 60.907031 226.699612 
L 618.907031 226.699612 
" clip-path="url(#p7cdd6449e3)" style="fill: none; stroke: #808080; stroke-width: 0.8; stroke-linecap: square"/>
     </g>
     <g id="line2d_16">
      <g>
       <use xlink:href="#m55866ee19b" x="60.907031" y="226.699612" style="fill: #808080; stroke: #808080; stroke-width: 0.8"/>
      </g>
     </g>
     <g id="text_9">
      <!-- 0 -->
      <g style="fill: #808080" transform="translate(47.863281 232.39844) scale(0.15 -0.15)">
       <use xlink:href="#DejaVuSans-30"/>
      </g>
     </g>
    </g>
    <g id="ytick_4">
     <g id="line2d_17">
      <path d="M 60.907031 151.400344 
L 618.907031 151.400344 
" clip-path="url(#p7cdd6449e3)" style="fill: none; stroke: #808080; stroke-width: 0.8; stroke-linecap: square"/>
     </g>
     <g id="line2d_18">
      <g>
       <use xlink:href="#m55866ee19b" x="60.907031" y="151.400344" style="fill: #808080; stroke: #808080; stroke-width: 0.8"/>
      </g>
     </g>
     <g id="text_10">
      <!-- 20 -->
      <g style="fill: #808080" transform="translate(38.319531 157.099172) scale(0.15 -0.15)">
       <use xlink:href="#DejaVuSans-32"/>
       <use xlink:href="#DejaVuSans-30" x="63.623047"/>
      </g>
     </g>
    </g>
    <g id="ytick_5">
     <g id="line2d_19">
      <path d="M 60.907031 76.101077 
L 618.907031 76.101077 
" clip-path="url(#p7cdd6449e3)" style="fill: none; stroke: #808080; stroke-width: 0.8; stroke-linecap: square"/>
     </g>
     <g id="line2d_20">
      <g>
       <use xlink:href="#m55866ee19b" x="60.907031" y="76.101077" style="fill: #808080; stroke: #808080; stroke-width: 0.8"/>
      </g>
     </g>
     <g id="text_11">
      <!-- 40 -->
      <g style="fill: #808080" transform="translate(38.319531 81.799905) scale(0.15 -0.15)">
       <use xlink:href="#DejaVuSans-34"/>
       <use xlink:href="#DejaVuSans-30" x="63.623047"/>
      </g>
     </g>
    </g>
    <g id="text_12">
     <!-- Magnetic field $[\mu T]$ -->
     <g style="fill: #808080" transform="translate(18.6 291.417187) rotate(-90) scale(0.15 -0.15)">
      <defs>
       <path id="DejaVuSans-4d" d="M 628 4666 
L 1569 4666 
L 2759 1491 
L 3956 4666 
L 4897 4666 
L 4897 0 
L 4281 0 
L 4281 4097 
L 3078 897 
L 2444 897 
L 1241 4097 
L 1241 0 
L 628 0 
L 628 4666 
z
" transform="scale(0.015625)"/>
       <path id="DejaVuSans-61" d="M 2194 1759 
Q 1497 1759 1228 1600 
Q 959 1441 959 1056 
Q 959 750 1161 570 
Q 1363 391 1709 391 
Q 2188 391 2477 730 
Q 2766 1069 2766 1631 
L 2766 1759 
L 2194 1759 
z
M 3341 1997 
L 3341 0 
L 2766 0 
L 2766 531 
Q 2569 213 2275 61 
Q 1981 -91 1556 -91 
Q 1019 -91 701 211 
Q 384 513 384 1019 
Q 384 1609 779 1909 
Q 1175 2209 1959 2209 
L 2766 2209 
L 2766 2266 
Q 2766 2663 2505 2880 
Q 2244 3097 1772 3097 
Q 1472 3097 1187 3025 
Q 903 2953 641 2809 
L 641 3341 
Q 956 3463 1253 3523 
Q 1550 3584 1831 3584 
Q 2591 3584 2966 3190 
Q 3341 2797 3341 1997 
z
" transform="scale(0.015625)"/>
       <path id="DejaVuSans-67" d="M 2906 1791 
Q 2906 2416 2648 2759 
Q 2391 3103 1925 3103 
Q 1463 3103 1205 2759 
Q 947 2416 947 1791 
Q 947 1169 1205 825 
Q 1463 481 1925 481 
Q 2391 481 2648 825 
Q 2906 1169 2906 1791 
z
M 3481 434 
Q 3481 -459 3084 -895 
Q 2688 -1331 1869 -1331 
Q 1566 -1331 1297 -1286 
Q 1028 -1241 775 -1147 
L 775 -588 
Q 1028 -725 1275 -790 
Q 1522 -856 1778 -856 
Q 2344 -856 2625 -561 
Q 2906 -266 2906 331 
L 2906 616 
Q 2728 306 2450 153 
Q 2172 0 1784 0 
Q 1141 0 747 490 
Q 353 981 353 1791 
Q 353 2603 747 3093 
Q 1141 3584 1784 3584 
Q 2172 3584 2450 3431 
Q 2728 3278 2906 2969 
L 2906 3500 
L 3481 3500 
L 3481 434 
z
" transform="scale(0.015625)"/>
       <path id="DejaVuSans-6e" d="M 3513 2113 
L 3513 0 
L 2938 0 
L 2938 2094 
Q 2938 2591 2744 2837 
Q 2550 3084 2163 3084 
Q 1697 3084 1428 2787 
Q 1159 2491 1159 1978 
L 1159 0 
L 581 0 
L 581 3500 
L 1159 3500 
L 1159 2956 
Q 1366 3272 1645 3428 
Q 1925 3584 2291 3584 
Q 2894 3584 3203 3211 
Q 3513 2838 3513 2113 
z
" transform="scale(0.015625)"/>
       <path id="DejaVuSans-63" d="M 3122 3366 
L 3122 2828 
Q 2878 2963 2633 3030 
Q 2388 3097 2138 3097 
Q 1578 3097 1268 2742 
Q 959 2388 959 1747 
Q 959 1106 1268 751 
Q 1578 397 2138 397 
Q 2388 397 2633 464 
Q 2878 531 3122 666 
L 3122 134 
Q 2881 22 2623 -34 
Q 2366 -91 2075 -91 
Q 1284 -91 818 406 
Q 353 903 353 1747 
Q 353 2603 823 3093 
Q 1294 3584 2113 3584 
Q 2378 3584 2631 3529 
Q 2884 3475 3122 3366 
z
" transform="scale(0.015625)"/>
       <path id="DejaVuSans-66" d="M 2375 4863 
L 2375 4384 
L 1825 4384 
Q 1516 4384 1395 4259 
Q 1275 4134 1275 3809 
L 1275 3500 
L 2222 3500 
L 2222 3053 
L 1275 3053 
L 1275 0 
L 697 0 
L 697 3053 
L 147 3053 
L 147 3500 
L 697 3500 
L 697 3744 
Q 697 4328 969 4595 
Q 1241 4863 1831 4863 
L 2375 4863 
z
" transform="scale(0.015625)"/>
       <path id="DejaVuSans-6c" d="M 603 4863 
L 1178 4863 
L 1178 0 
L 603 0 
L 603 4863 
z
" transform="scale(0.015625)"/>
       <path id="DejaVuSans-64" d="M 2906 2969 
L 2906 4863 
L 3481 4863 
L 3481 0 
L 2906 0 
L 2906 525 
Q 2725 213 2448 61 
Q 2172 -91 1784 -91 
Q 1150 -91 751 415 
Q 353 922 353 1747 
Q 353 2572 751 3078 
Q 1150 3584 1784 3584 
Q 2172 3584 2448 3432 
Q 2725 3281 2906 2969 
z
M 947 1747 
Q 947 1113 1208 752 
Q 1469 391 1925 391 
Q 2381 391 2643 752 
Q 2906 1113 2906 1747 
Q 2906 2381 2643 2742 
Q 2381 3103 1925 3103 
Q 1469 3103 1208 2742 
Q 947 2381 947 1747 
z
" transform="scale(0.015625)"/>
       <path id="DejaVuSans-Oblique-3bc" d="M -84 -1331 
L 856 3500 
L 1434 3500 
L 1009 1322 
Q 997 1256 987 1175 
Q 978 1094 978 1013 
Q 978 722 1161 565 
Q 1344 409 1684 409 
Q 2147 409 2431 671 
Q 2716 934 2816 1459 
L 3213 3500 
L 3788 3500 
L 3266 809 
Q 3253 750 3248 706 
Q 3244 663 3244 628 
Q 3244 531 3283 486 
Q 3322 441 3406 441 
Q 3438 441 3492 456 
Q 3547 472 3647 513 
L 3559 50 
Q 3422 -19 3297 -55 
Q 3172 -91 3053 -91 
Q 2847 -91 2730 40 
Q 2613 172 2613 403 
Q 2438 153 2195 31 
Q 1953 -91 1625 -91 
Q 1334 -91 1117 43 
Q 900 178 831 397 
L 494 -1331 
L -84 -1331 
z
" transform="scale(0.015625)"/>
       <path id="DejaVuSans-Oblique-54" d="M 378 4666 
L 4325 4666 
L 4225 4134 
L 2559 4134 
L 1759 0 
L 1125 0 
L 1925 4134 
L 275 4134 
L 378 4666 
z
" transform="scale(0.015625)"/>
      </defs>
      <use xlink:href="#DejaVuSans-4d" transform="translate(0 0.015625)"/>
      <use xlink:href="#DejaVuSans-61" transform="translate(86.279297 0.015625)"/>
      <use xlink:href="#DejaVuSans-67" transform="translate(147.558594 0.015625)"/>
      <use xlink:href="#DejaVuSans-6e" transform="translate(211.035156 0.015625)"/>
      <use xlink:href="#DejaVuSans-65" transform="translate(274.414062 0.015625)"/>
      <use xlink:href="#DejaVuSans-74" transform="translate(335.9375 0.015625)"/>
      <use xlink:href="#DejaVuSans-69" transform="translate(375.146484 0.015625)"/>
      <use xlink:href="#DejaVuSans-63" transform="translate(402.929688 0.015625)"/>
      <use xlink:href="#DejaVuSans-20" transform="translate(457.910156 0.015625)"/>
      <use xlink:href="#DejaVuSans-66" transform="translate(489.697266 0.015625)"/>
      <use xlink:href="#DejaVuSans-69" transform="translate(524.902344 0.015625)"/>
      <use xlink:href="#DejaVuSans-65" transform="translate(552.685547 0.015625)"/>
      <use xlink:href="#DejaVuSans-6c" transform="translate(614.208984 0.015625)"/>
      <use xlink:href="#DejaVuSans-64" transform="translate(641.992188 0.015625)"/>
      <use xlink:href="#DejaVuSans-20" transform="translate(705.46875 0.015625)"/>
      <use xlink:href="#DejaVuSans-5b" transform="translate(737.255859 0.015625)"/>
      <use xlink:href="#DejaVuSans-Oblique-3bc" transform="translate(776.269531 0.015625)"/>
      <use xlink:href="#DejaVuSans-Oblique-54" transform="translate(839.892578 0.015625)"/>
      <use xlink:href="#DejaVuSans-5d" transform="translate(900.976562 0.015625)"/>
     </g>
    </g>
   </g>
   <g id="line2d_21">
    <path d="M 86.270668 236.497929 
L 87.562489 236.497929 
L 87.778921 236.102607 
L 88.427763 236.102607 
L 88.643719 236.497929 
L 88.862011 236.497929 
L 89.078011 236.102607 
L 92.322825 236.102607 
L 92.538457 235.735523 
L 93.187234 235.735523 
L 93.40451 236.102607 
L 94.921784 236.102607 
L 95.140552 235.735523 
L 96.259184 235.735523 
L 96.648243 236.102607 
L 101.408363 236.102607 
L 101.623843 235.735523 
L 110.059458 235.735523 
L 110.275608 236.102607 
L 113.95439 236.102607 
L 114.170952 236.497929 
L 121.741963 236.497929 
L 121.957811 236.102607 
L 124.77504 236.102607 
L 124.987016 235.735523 
L 126.501326 235.735523 
L 126.743912 236.102607 
L 128.665365 236.102607 
L 128.882209 235.735523 
L 129.532738 235.735523 
L 129.746141 236.102607 
L 129.963136 236.102607 
L 130.182964 235.735523 
L 131.692472 235.735523 
L 131.909099 236.102607 
L 132.124557 236.102607 
L 132.341465 235.735523 
L 136.020766 235.735523 
L 136.237025 236.102607 
L 136.451965 236.102607 
L 136.697254 235.735523 
L 142.07552 235.735523 
L 142.29245 236.102607 
L 143.817209 236.102607 
L 144.023603 236.497929 
L 144.238413 236.497929 
L 144.463779 236.102607 
L 147.268072 236.102607 
L 147.485283 236.497929 
L 147.701174 236.497929 
L 147.917022 236.102607 
L 155.488076 236.102607 
L 155.703556 235.735523 
L 158.085996 235.735523 
L 158.300697 236.102607 
L 161.977792 236.102607 
L 162.193748 236.497929 
L 170.198121 236.497929 
L 170.415894 236.865013 
L 171.062248 236.865013 
L 171.279437 236.497929 
L 171.495394 236.497929 
L 171.712258 236.865013 
L 172.796019 236.865013 
L 173.009985 237.232096 
L 175.82252 237.232096 
L 176.038584 237.627417 
L 180.930186 237.627417 
L 181.231352 237.994502 
L 182.743434 237.994502 
L 182.986431 237.627417 
L 184.475756 237.627417 
L 184.691799 237.994502 
L 185.343085 237.994502 
L 185.557808 237.627417 
L 190.127001 237.627417 
L 190.316392 237.994502 
L 190.531894 237.994502 
L 190.748543 237.627417 
L 190.964196 237.627417 
L 191.181666 237.994502 
L 191.427432 237.994502 
L 191.618294 237.627417 
L 196.157332 237.627417 
L 196.377246 237.994502 
L 196.591061 237.994502 
L 196.806217 237.627417 
L 199.186709 237.627417 
L 199.40193 237.994502 
L 200.05088 237.994502 
L 200.268783 237.627417 
L 205.244924 237.627417 
L 205.498175 237.994502 
L 207.839902 237.994502 
L 208.054755 238.361585 
L 208.708616 238.361585 
L 208.930348 237.994502 
L 209.573738 237.994502 
L 209.786644 238.361585 
L 210.008765 238.361585 
L 210.229243 237.994502 
L 215.625506 237.994502 
L 215.842393 237.627417 
L 218.222453 237.627417 
L 218.43789 237.232096 
L 220.386103 237.232096 
L 220.602729 237.627417 
L 220.819464 237.627417 
L 221.035053 237.232096 
L 221.249559 237.232096 
L 221.465624 237.627417 
L 226.442024 237.627417 
L 226.658067 237.232096 
L 230.335919 237.232096 
L 230.551486 237.627417 
L 230.768848 237.627417 
L 230.986362 237.232096 
L 234.230225 237.232096 
L 234.446657 236.865013 
L 234.662526 236.865013 
L 234.879672 237.232096 
L 237.690822 237.232096 
L 237.908639 237.627417 
L 240.28885 237.627417 
L 240.504547 237.994502 
L 241.179824 237.994502 
L 241.395672 237.627417 
L 241.587378 237.627417 
L 241.80182 237.994502 
L 245.910762 237.994502 
L 246.127518 238.361585 
L 249.372009 238.361585 
L 249.601312 237.994502 
L 254.564798 237.994502 
L 254.779976 238.361585 
L 257.160295 238.361585 
L 257.377506 237.994502 
L 273.601623 237.994502 
L 273.818964 238.361585 
L 275.333923 238.361585 
L 275.579408 237.994502 
L 280.957332 237.994502 
L 281.18991 237.627417 
L 282.690175 237.627417 
L 282.905435 237.994502 
L 287.015531 237.994502 
L 287.231125 237.627417 
L 293.504084 237.627417 
L 293.719416 237.232096 
L 298.694275 237.232096 
L 298.910549 237.627417 
L 301.290834 237.627417 
L 301.506253 237.994502 
L 303.886383 237.994502 
L 304.102619 238.361585 
L 307.347961 238.361585 
L 307.563945 238.756906 
L 307.780748 238.756906 
L 307.99729 238.361585 
L 309.078225 238.361585 
L 309.294351 238.756906 
L 309.511149 238.756906 
L 309.72731 238.361585 
L 312.973716 238.361585 
L 313.192894 237.994502 
L 315.135641 237.994502 
L 315.351669 238.361585 
L 317.733611 238.361585 
L 317.948868 237.994502 
L 318.814762 237.994502 
L 319.030588 238.361585 
L 320.667684 238.361585 
L 320.979039 237.994502 
L 324.004004 237.994502 
L 324.255004 237.627417 
L 327.033208 237.627417 
L 327.251825 237.232096 
L 328.33126 237.232096 
L 328.545788 236.865013 
L 329.196166 236.865013 
L 329.41422 236.497929 
L 329.633919 236.497929 
L 329.845851 236.865013 
L 330.060618 236.865013 
L 330.276877 236.497929 
L 333.955507 236.497929 
L 334.170165 236.865013 
L 339.580079 236.865013 
L 339.796728 237.232096 
L 346.503655 237.232096 
L 346.718378 237.627417 
L 348.665942 237.627417 
L 348.882222 237.994502 
L 351.260919 237.994502 
L 351.477762 237.627417 
L 351.696639 237.627417 
L 351.912098 237.994502 
L 353.42418 237.994502 
L 353.666354 237.627417 
L 353.857412 237.627417 
L 354.073195 237.994502 
L 355.661185 237.994502 
L 356.020715 237.627417 
L 359.91435 237.627417 
L 360.129874 237.232096 
L 362.07694 237.232096 
L 362.302479 236.865013 
L 363.808656 236.865013 
L 364.067379 237.232096 
L 368.572605 237.232096 
L 368.784018 236.865013 
L 370.989678 236.865013 
L 371.277951 236.497929 
L 374.623746 236.497929 
L 374.841173 236.102607 
L 375.488695 236.102607 
L 375.707118 236.497929 
L 377.662534 236.497929 
L 377.869102 236.102607 
L 378.086377 236.102607 
L 378.300927 236.497929 
L 380.690051 236.497929 
L 380.924179 236.865013 
L 383.278453 236.865013 
L 383.492679 237.232096 
L 387.603633 237.232096 
L 387.821903 237.627417 
L 388.468993 237.627417 
L 388.685663 237.232096 
L 391.066913 237.232096 
L 391.280922 236.865013 
L 394.530885 236.865013 
L 394.743597 237.232096 
L 397.988 237.232096 
L 398.202983 237.627417 
L 398.852214 237.627417 
L 399.069274 237.232096 
L 399.717921 237.232096 
L 399.934007 237.627417 
L 405.387553 237.627417 
L 405.774427 237.994502 
L 406.042733 237.627417 
L 407.504888 237.627417 
L 407.722683 237.232096 
L 408.370421 237.232096 
L 408.586615 237.627417 
L 408.807028 237.627417 
L 409.019177 237.232096 
L 421.351562 237.232096 
L 421.566221 236.865013 
L 432.598414 236.865013 
L 432.815581 237.232096 
L 437.357668 237.232096 
L 437.573387 236.865013 
L 437.790641 236.865013 
L 438.007873 237.232096 
L 438.656088 237.232096 
L 438.875137 236.865013 
L 439.088692 236.865013 
L 439.304324 237.232096 
L 439.521015 237.232096 
L 439.737599 236.865013 
L 441.251585 236.865013 
L 441.467973 237.232096 
L 442.98157 237.232096 
L 443.197418 237.627417 
L 444.281287 237.627417 
L 444.496702 237.232096 
L 444.712139 237.232096 
L 444.931816 237.627417 
L 445.57949 237.627417 
L 445.794646 237.232096 
L 446.010731 237.232096 
L 446.227228 237.627417 
L 446.875616 237.627417 
L 447.094709 237.994502 
L 449.904496 237.994502 
L 450.121772 238.361585 
L 455.529566 238.361585 
L 455.744873 237.994502 
L 457.260287 237.994502 
L 457.475853 238.361585 
L 457.692394 238.361585 
L 457.908177 237.994502 
L 458.12595 237.994502 
L 458.343637 238.361585 
L 458.991656 238.361585 
L 459.205644 237.994502 
L 461.169064 237.994502 
L 461.371003 237.627417 
L 462.452427 237.627417 
L 462.668535 237.994502 
L 462.884383 237.994502 
L 463.100642 237.627417 
L 465.912506 237.627417 
L 466.128094 237.232096 
L 468.510296 237.232096 
L 468.724002 237.627417 
L 469.373861 237.627417 
L 469.589687 237.232096 
L 481.487414 237.232096 
L 481.709016 236.865013 
L 483.653832 236.865013 
L 483.883114 236.497929 
L 485.395607 236.497929 
L 485.598151 236.865013 
L 486.248204 236.865013 
L 486.465783 236.497929 
L 494.329783 236.497929 
L 494.683927 236.102607 
L 500.525558 236.102607 
L 500.756679 235.735523 
L 502.292254 235.735523 
L 502.482208 235.36844 
L 506.152229 235.36844 
L 506.364962 235.735523 
L 508.803754 235.735523 
L 509.182753 236.102607 
L 512.639522 236.102607 
L 512.85537 235.735523 
L 513.504882 235.735523 
L 513.720125 236.102607 
L 515.235863 236.102607 
L 515.454112 236.497929 
L 520.426359 236.497929 
L 520.644327 236.865013 
L 522.15628 236.865013 
L 522.375589 237.232096 
L 524.322677 237.232096 
L 524.54138 237.627417 
L 524.753075 237.627417 
L 524.972189 237.232096 
L 525.186436 237.232096 
L 525.401484 237.627417 
L 527.348723 237.627417 
L 527.564766 237.994502 
L 527.781566 237.994502 
L 528.122643 237.627417 
L 529.556979 237.627417 
L 529.945215 237.232096 
L 530.811203 237.232096 
L 531.0269 237.627417 
L 531.674898 237.627417 
L 531.892087 237.232096 
L 537.736033 237.232096 
L 537.94948 237.627417 
L 539.030753 237.627417 
L 539.245887 237.232096 
L 541.195225 237.232096 
L 541.431688 237.627417 
L 547.682734 237.627417 
L 547.899794 237.232096 
L 553.309318 237.232096 
L 553.522916 237.627417 
L 556.336143 237.627417 
L 556.552857 237.994502 
L 564.124214 237.994502 
L 564.339781 237.627417 
L 569.750949 237.627417 
L 569.963898 237.232096 
L 570.18152 237.232096 
L 570.396849 237.627417 
L 582.73036 237.627417 
L 582.947095 237.994502 
L 591.380264 237.994502 
L 591.601758 237.627417 
L 593.543395 237.627417 
L 593.543395 237.627417 
" clip-path="url(#p7cdd6449e3)" style="fill: none; stroke: #1f77b4; stroke-width: 2; stroke-linecap: square"/>
   </g>
   <g id="line2d_22">
    <path d="M 86.270668 292.972376 
L 87.562489 292.972376 
L 87.778921 292.577056 
L 91.888707 292.577056 
L 92.111564 292.209973 
L 94.052897 292.209973 
L 94.268529 292.577056 
L 97.080804 292.577056 
L 97.297236 292.972376 
L 103.137634 292.972376 
L 103.354802 293.339459 
L 106.598838 293.339459 
L 106.817433 292.972376 
L 110.493382 292.972376 
L 110.70871 293.339459 
L 117.419315 293.339459 
L 117.633151 292.972376 
L 122.607302 292.972376 
L 122.824664 292.577056 
L 126.954503 292.577056 
L 127.15456 292.972376 
L 129.532738 292.972376 
L 129.746141 293.339459 
L 134.740994 293.339459 
L 134.939169 292.972376 
L 135.608561 292.972376 
L 135.825123 293.339459 
L 136.927986 293.339459 
L 137.218184 292.972376 
L 140.778615 292.972376 
L 140.995826 292.577056 
L 141.643586 292.577056 
L 141.860429 292.972376 
L 147.701174 292.972376 
L 147.917022 293.339459 
L 151.164216 293.339459 
L 151.412578 292.972376 
L 151.64041 292.972376 
L 151.817579 293.339459 
L 152.890957 293.339459 
L 153.110201 292.972376 
L 158.085996 292.972376 
L 158.300697 293.339459 
L 161.545382 293.339459 
L 161.761814 292.972376 
L 166.304378 292.972376 
L 166.519707 292.577056 
L 169.76848 292.577056 
L 169.986015 292.209973 
L 170.630076 292.209973 
L 170.846833 291.842889 
L 174.097164 291.842889 
L 174.309724 292.209973 
L 186.638973 292.209973 
L 186.85666 291.842889 
L 188.373739 291.842889 
L 188.586061 292.209973 
L 190.964196 292.209973 
L 191.181666 292.577056 
L 191.427432 292.577056 
L 191.618294 292.209973 
L 192.265708 292.209973 
L 192.481318 292.577056 
L 192.697361 292.577056 
L 192.912517 292.209973 
L 196.157332 292.209973 
L 196.377246 292.577056 
L 197.023081 292.577056 
L 197.239081 292.209973 
L 203.080409 292.209973 
L 203.302055 291.842889 
L 203.512906 291.842889 
L 203.728862 292.209973 
L 206.108186 292.209973 
L 206.325051 292.577056 
L 213.470423 292.577056 
L 213.680474 292.972376 
L 214.760946 292.972376 
L 214.977508 292.577056 
L 217.789935 292.577056 
L 218.00468 292.209973 
L 220.386103 292.209973 
L 220.602729 292.577056 
L 226.874975 292.577056 
L 227.090087 292.209973 
L 232.070923 292.209973 
L 232.282358 291.842889 
L 234.230225 291.842889 
L 234.446657 291.44757 
L 234.662526 291.44757 
L 234.879672 291.842889 
L 235.094806 291.842889 
L 235.310697 291.44757 
L 235.961702 291.44757 
L 236.178372 291.842889 
L 238.556551 291.842889 
L 238.773091 292.209973 
L 245.910762 292.209973 
L 246.127518 292.577056 
L 246.343994 292.577056 
L 246.562567 292.209973 
L 249.84314 292.209973 
L 250.021456 291.842889 
L 251.968349 291.842889 
L 252.185582 292.209973 
L 254.996429 292.209973 
L 255.213056 292.577056 
L 256.297531 292.577056 
L 256.513011 292.209973 
L 266.247088 292.209973 
L 266.462763 291.842889 
L 267.975926 291.842889 
L 268.192445 292.209973 
L 269.708637 292.209973 
L 269.940363 292.577056 
L 280.957332 292.577056 
L 281.18991 292.209973 
L 284.418938 292.209973 
L 284.634452 292.577056 
L 285.730991 292.577056 
L 285.939765 292.972376 
L 287.886442 292.972376 
L 288.100321 292.577056 
L 288.752669 292.577056 
L 288.964794 292.972376 
L 289.178922 292.972376 
L 289.394461 292.577056 
L 290.474264 292.577056 
L 290.690509 292.972376 
L 291.340282 292.972376 
L 291.555928 292.577056 
L 296.964701 292.577056 
L 297.181884 292.209973 
L 300.858576 292.209973 
L 301.074546 292.577056 
L 309.078225 292.577056 
L 309.294351 292.209973 
L 311.241333 292.209973 
L 311.457697 291.842889 
L 313.40713 291.842889 
L 313.623838 291.44757 
L 314.703772 291.44757 
L 314.919995 291.842889 
L 316.878372 291.842889 
L 317.091445 292.209973 
L 325.304521 292.209973 
L 325.524501 292.577056 
L 328.33126 292.577056 
L 328.545788 292.209973 
L 331.793653 292.209973 
L 332.008636 292.577056 
L 340.013419 292.577056 
L 340.235779 292.209973 
L 344.338209 292.209973 
L 344.557345 291.842889 
L 347.36709 291.842889 
L 347.586399 292.209973 
L 349.099044 292.209973 
L 349.319456 292.577056 
L 353.857412 292.577056 
L 354.073195 292.972376 
L 354.290081 292.972376 
L 354.504847 292.577056 
L 354.722664 292.577056 
L 354.93756 292.972376 
L 355.154965 292.972376 
L 355.370446 292.577056 
L 356.454747 292.577056 
L 356.669232 292.972376 
L 358.617532 292.972376 
L 358.832861 292.577056 
L 363.808656 292.577056 
L 364.067379 292.972376 
L 372.030542 292.972376 
L 372.245719 293.339459 
L 372.460183 293.339459 
L 372.676139 292.972376 
L 372.892311 292.972376 
L 373.13189 293.339459 
L 373.758126 293.339459 
L 373.977608 292.972376 
L 377.220779 292.972376 
L 377.475738 292.577056 
L 377.662534 292.577056 
L 377.869102 292.972376 
L 379.382979 292.972376 
L 379.646051 293.339459 
L 383.278453 293.339459 
L 383.492679 292.972376 
L 385.440935 292.972376 
L 385.658535 293.339459 
L 386.321697 293.339459 
L 386.523181 292.972376 
L 391.066913 292.972376 
L 391.280922 292.577056 
L 394.958341 292.577056 
L 395.173951 292.972376 
L 400.583086 292.972376 
L 400.802612 292.577056 
L 406.642102 292.577056 
L 406.856976 292.209973 
L 407.938422 292.209973 
L 408.153621 291.842889 
L 410.101877 291.842889 
L 410.316665 292.209973 
L 414.859921 292.209973 
L 415.078495 292.577056 
L 422.217074 292.577056 
L 422.432684 292.209973 
L 426.109628 292.209973 
L 426.325129 292.577056 
L 428.704432 292.577056 
L 428.922768 292.209973 
L 438.223526 292.209973 
L 438.43892 291.842889 
L 440.81924 291.842889 
L 441.035239 292.209973 
L 443.419431 292.209973 
L 443.632164 292.577056 
L 447.308675 292.577056 
L 447.524696 292.972376 
L 448.607937 292.972376 
L 448.825451 292.577056 
L 453.798888 292.577056 
L 454.018652 292.209973 
L 458.12595 292.209973 
L 458.343637 292.577056 
L 460.287566 292.577056 
L 460.505621 292.209973 
L 460.720625 292.209973 
L 460.938658 292.577056 
L 461.169064 292.577056 
L 461.371003 292.209973 
L 461.587262 292.209973 
L 461.803888 292.577056 
L 462.452427 292.577056 
L 462.668535 292.209973 
L 462.884383 292.209973 
L 463.100642 292.577056 
L 463.749419 292.577056 
L 463.967322 292.209973 
L 466.778256 292.209973 
L 466.993693 292.577056 
L 470.671912 292.577056 
L 470.888755 292.209973 
L 472.835778 292.209973 
L 473.050956 292.577056 
L 474.568879 292.577056 
L 474.782001 292.972376 
L 476.299318 292.972376 
L 476.511943 293.339459 
L 482.192781 293.339459 
L 482.468377 293.706542 
L 483.220665 293.706542 
L 483.444777 293.339459 
L 484.0841 293.339459 
L 484.299408 293.706542 
L 484.515861 293.706542 
L 484.733743 293.339459 
L 485.395607 293.339459 
L 485.598151 293.706542 
L 485.816509 293.706542 
L 486.055265 293.339459 
L 487.116637 293.339459 
L 487.329975 292.972376 
L 490.574119 292.972376 
L 490.789794 293.339459 
L 491.880175 293.339459 
L 492.107747 292.972376 
L 497.064549 292.972376 
L 497.279489 293.339459 
L 497.929693 293.339459 
L 498.144417 292.972376 
L 499.660501 292.972376 
L 499.876284 293.339459 
L 500.092781 293.339459 
L 500.309645 292.972376 
L 502.292254 292.972376 
L 502.482208 292.577056 
L 504.049128 292.577056 
L 504.431524 292.972376 
L 506.581696 292.972376 
L 506.797999 293.339459 
L 508.313326 293.339459 
L 508.541591 292.972376 
L 516.533719 292.972376 
L 516.751969 292.577056 
L 517.83216 292.577056 
L 518.04604 292.209973 
L 527.781566 292.209973 
L 528.122643 292.577056 
L 529.080482 292.577056 
L 529.295487 292.209973 
L 529.556979 292.209973 
L 529.945215 292.577056 
L 533.83898 292.577056 
L 534.054893 292.209973 
L 535.570415 292.209973 
L 535.784532 292.577056 
L 537.736033 292.577056 
L 537.94948 292.972376 
L 548.114733 292.972376 
L 548.33203 292.577056 
L 558.932246 292.577056 
L 559.148938 292.972376 
L 562.393125 292.972376 
L 562.60919 292.577056 
L 565.424385 292.577056 
L 565.6382 292.209973 
L 566.305234 292.209973 
L 566.503733 292.577056 
L 579.267382 292.577056 
L 579.482516 292.209973 
L 581.432568 292.209973 
L 581.646772 291.842889 
L 584.026551 291.842889 
L 584.242939 292.209973 
L 588.353634 292.209973 
L 588.568876 292.577056 
L 590.947746 292.577056 
L 591.165152 292.972376 
L 593.543395 292.972376 
L 593.543395 292.972376 
" clip-path="url(#p7cdd6449e3)" style="fill: none; stroke: #ff7f0e; stroke-width: 2; stroke-linecap: square"/>
   </g>
   <g id="line2d_23">
    <path d="M 86.270668 411.935812 
L 86.699075 411.935812 
L 86.915161 411.568715 
L 90.593121 411.568715 
L 90.80633 411.935812 
L 91.023952 411.935812 
L 91.239822 412.302896 
L 91.888707 412.302896 
L 92.111564 412.698215 
L 93.187234 412.698215 
L 93.40451 413.065299 
L 94.052897 413.065299 
L 94.268529 412.698215 
L 95.350343 412.698215 
L 95.572594 412.302896 
L 96.259184 412.302896 
L 96.648243 411.935812 
L 97.599679 411.935812 
L 97.94597 411.568715 
L 99.252739 411.568715 
L 99.460453 411.935812 
L 102.731746 411.935812 
L 102.921116 411.568715 
L 106.166017 411.568715 
L 106.383899 411.935812 
L 106.598838 411.935812 
L 106.817433 412.302896 
L 107.898079 412.302896 
L 108.113343 412.698215 
L 110.059458 412.698215 
L 110.275608 412.302896 
L 110.493382 412.302896 
L 110.70871 412.698215 
L 110.925575 412.698215 
L 111.140666 412.302896 
L 111.792991 412.302896 
L 112.007995 411.935812 
L 112.22473 411.935812 
L 112.440232 411.568715 
L 115.68602 411.568715 
L 115.9015 411.935812 
L 117.419315 411.935812 
L 117.633151 412.302896 
L 120.444518 412.302896 
L 120.662204 411.935812 
L 120.877079 411.935812 
L 121.094225 412.302896 
L 121.741963 412.302896 
L 121.957811 412.698215 
L 122.607302 412.698215 
L 122.824664 413.065299 
L 123.908382 413.065299 
L 124.120661 413.432382 
L 126.501326 413.432382 
L 126.743912 413.065299 
L 126.954503 413.065299 
L 127.15456 412.698215 
L 127.367163 412.698215 
L 127.595363 412.302896 
L 136.927986 412.302896 
L 137.534882 413.065299 
L 138.182577 413.065299 
L 138.398901 413.432382 
L 139.057434 413.432382 
L 139.264543 413.827701 
L 141.643586 413.827701 
L 141.860429 413.432382 
L 142.07552 413.432382 
L 142.29245 413.065299 
L 142.942157 413.065299 
L 143.298442 412.698215 
L 143.817209 412.698215 
L 144.023603 412.302896 
L 151.164216 412.302896 
L 151.412578 411.935812 
L 152.890957 411.935812 
L 153.110201 412.302896 
L 153.757745 412.302896 
L 153.972836 412.698215 
L 154.621742 412.698215 
L 154.840121 413.065299 
L 155.488076 413.065299 
L 155.703556 413.432382 
L 155.920053 413.432382 
L 156.138475 413.065299 
L 157.653262 413.065299 
L 157.868569 412.698215 
L 158.515918 412.698215 
L 158.732934 413.065299 
L 159.381646 413.065299 
L 159.598641 412.698215 
L 168.902081 412.698215 
L 169.117453 413.065299 
L 169.33289 413.065299 
L 169.550447 413.432382 
L 170.198121 413.432382 
L 170.415894 413.827701 
L 171.062248 413.827701 
L 171.279437 414.194785 
L 171.495394 414.194785 
L 171.712258 413.827701 
L 171.936262 413.827701 
L 172.144733 413.432382 
L 173.225682 413.432382 
L 173.443325 413.065299 
L 174.097164 413.065299 
L 174.309724 412.698215 
L 174.957419 412.698215 
L 175.174154 412.302896 
L 180.581191 412.302896 
L 180.930186 412.698215 
L 181.887657 412.698215 
L 182.104089 412.302896 
L 184.475756 412.302896 
L 184.691799 412.698215 
L 185.343085 412.698215 
L 185.557808 413.065299 
L 186.638973 413.065299 
L 186.85666 413.432382 
L 188.802298 413.432382 
L 189.017995 413.065299 
L 189.666945 413.065299 
L 189.886751 412.698215 
L 190.531894 412.698215 
L 190.748543 412.302896 
L 190.964196 412.302896 
L 191.181666 411.935812 
L 191.427432 411.935812 
L 191.618294 412.302896 
L 195.294437 412.302896 
L 195.51247 412.698215 
L 200.483376 412.698215 
L 200.700847 413.065299 
L 200.916824 413.065299 
L 201.132672 413.432382 
L 201.782185 413.432382 
L 201.999677 413.827701 
L 202.692194 413.827701 
L 203.080409 414.194785 
L 204.387741 414.194785 
L 204.596602 413.827701 
L 204.81007 413.827701 
L 205.027129 413.432382 
L 205.677291 413.432382 
L 205.892858 413.065299 
L 206.108186 413.065299 
L 206.325051 412.698215 
L 207.405978 412.698215 
L 207.638764 412.302896 
L 207.839902 412.302896 
L 208.054755 412.698215 
L 208.274432 412.698215 
L 208.488095 412.302896 
L 211.299829 412.302896 
L 211.519679 411.935812 
L 212.598962 411.935812 
L 212.816801 412.302896 
L 213.894591 412.302896 
L 214.111672 411.935812 
L 215.19381 411.935812 
L 215.410134 412.302896 
L 216.491732 412.302896 
L 216.708878 412.698215 
L 217.359083 412.698215 
L 217.572832 413.065299 
L 217.789935 413.065299 
L 218.00468 413.432382 
L 218.653976 413.432382 
L 218.873631 413.827701 
L 219.953541 413.827701 
L 220.173802 413.432382 
L 220.819464 413.432382 
L 221.035053 413.065299 
L 221.684954 413.065299 
L 221.899504 412.698215 
L 223.847674 412.698215 
L 224.062678 412.302896 
L 228.60721 412.302896 
L 228.821133 411.935812 
L 232.070923 411.935812 
L 232.282358 412.302896 
L 232.932519 412.302896 
L 233.148475 412.698215 
L 233.364129 412.698215 
L 233.58121 413.065299 
L 234.230225 413.065299 
L 234.446657 413.432382 
L 235.094806 413.432382 
L 235.310697 413.827701 
L 235.527887 413.827701 
L 235.74354 413.432382 
L 236.392338 413.432382 
L 236.609398 413.065299 
L 237.690822 413.065299 
L 237.908639 412.698215 
L 238.556551 412.698215 
L 238.773091 412.302896 
L 245.910762 412.302896 
L 246.127518 411.935812 
L 246.7814 411.935812 
L 246.996383 412.302896 
L 247.504896 412.302896 
L 247.860943 411.935812 
L 248.507124 411.935812 
L 248.723621 412.302896 
L 249.372009 412.302896 
L 249.601312 412.698215 
L 250.238407 412.698215 
L 250.453952 413.065299 
L 252.400759 413.065299 
L 252.615958 412.698215 
L 253.268542 412.698215 
L 253.482249 412.302896 
L 254.564798 412.302896 
L 254.779976 411.935812 
L 260.631569 411.935812 
L 260.873192 412.302896 
L 263.216953 412.302896 
L 263.432563 412.698215 
L 265.384453 412.698215 
L 265.596537 413.065299 
L 265.815046 413.065299 
L 266.030374 413.432382 
L 267.975926 413.432382 
L 268.192445 413.065299 
L 268.840681 413.065299 
L 269.060055 412.698215 
L 269.27467 412.698215 
L 269.489912 412.302896 
L 270.139381 412.302896 
L 270.355943 411.935812 
L 271.869388 411.935812 
L 272.087637 411.568715 
L 272.305346 411.568715 
L 272.520134 411.935812 
L 272.743986 411.935812 
L 273.00498 411.568715 
L 279.667134 411.568715 
L 279.879291 411.935812 
L 280.523662 411.935812 
L 280.74084 412.302896 
L 280.957332 412.302896 
L 281.18991 412.698215 
L 281.831637 412.698215 
L 282.048656 413.065299 
L 283.12113 413.065299 
L 283.33688 413.432382 
L 283.553955 413.432382 
L 283.769573 413.065299 
L 284.418938 413.065299 
L 284.634452 412.698215 
L 285.282624 412.698215 
L 285.499138 412.302896 
L 289.609344 412.302896 
L 289.825726 411.935812 
L 295.666709 411.935812 
L 295.884586 412.302896 
L 296.964701 412.302896 
L 297.181884 412.698215 
L 297.829668 412.698215 
L 298.045306 413.065299 
L 299.127227 413.065299 
L 299.345945 412.698215 
L 299.992306 412.698215 
L 300.210602 412.302896 
L 300.858576 412.302896 
L 301.074546 411.935812 
L 301.722578 411.935812 
L 301.938687 411.568715 
L 302.155584 411.568715 
L 302.373212 411.935812 
L 310.808959 411.935812 
L 311.025424 412.302896 
L 312.106288 412.302896 
L 312.331162 412.698215 
L 312.973716 412.698215 
L 313.192894 413.065299 
L 315.567401 413.065299 
L 315.783613 412.698215 
L 316.433796 412.698215 
L 316.669566 412.302896 
L 317.303082 412.302896 
L 317.518123 411.935812 
L 319.246955 411.935812 
L 319.465074 412.302896 
L 320.979039 412.302896 
L 321.192659 411.935812 
L 323.571875 411.935812 
L 323.795727 412.302896 
L 326.167307 412.302896 
L 326.384713 412.698215 
L 327.501247 412.698215 
L 327.698383 413.065299 
L 327.901381 413.065299 
L 328.11446 413.432382 
L 328.807324 413.432382 
L 329.196166 413.827701 
L 329.633919 413.827701 
L 329.845851 414.194785 
L 331.358994 414.194785 
L 331.575469 413.827701 
L 332.225241 413.827701 
L 332.440937 413.432382 
L 333.09032 413.432382 
L 333.30619 413.065299 
L 336.983695 413.065299 
L 337.199435 413.432382 
L 337.429669 413.432382 
L 337.632689 413.065299 
L 340.879061 413.065299 
L 341.095255 412.698215 
L 343.040872 412.698215 
L 343.259424 413.065299 
L 343.907379 413.065299 
L 344.122318 413.432382 
L 346.935891 413.432382 
L 347.150528 413.065299 
L 347.80017 413.065299 
L 348.016299 412.698215 
L 348.665942 412.698215 
L 348.882222 412.302896 
L 351.696639 412.302896 
L 351.912098 412.698215 
L 352.128616 412.698215 
L 352.343253 412.302896 
L 352.559209 412.302896 
L 352.776117 412.698215 
L 353.857412 412.698215 
L 354.073195 413.065299 
L 357.317815 413.065299 
L 357.546253 412.698215 
L 358.18404 412.698215 
L 358.414209 413.065299 
L 358.617532 413.065299 
L 358.832861 413.432382 
L 359.049379 413.432382 
L 359.265054 413.827701 
L 359.481573 413.827701 
L 359.701185 414.194785 
L 360.376959 414.194785 
L 360.564944 414.561868 
L 361.644573 414.561868 
L 361.859686 414.957188 
L 362.510561 414.957188 
L 362.727404 414.561868 
L 362.942603 414.561868 
L 363.158732 414.194785 
L 363.808656 414.194785 
L 364.067379 413.827701 
L 364.676828 413.827701 
L 364.890362 413.432382 
L 370.298004 413.432382 
L 370.512749 413.827701 
L 375.0578 413.827701 
L 375.274729 414.194785 
L 375.488695 414.194785 
L 375.707118 414.561868 
L 376.354748 414.561868 
L 376.571872 414.957188 
L 378.086377 414.957188 
L 378.300927 414.561868 
L 378.950007 414.561868 
L 379.166872 414.194785 
L 379.836805 414.194785 
L 380.032859 413.827701 
L 380.249075 413.827701 
L 380.466632 413.432382 
L 381.546283 413.432382 
L 381.770546 413.065299 
L 383.709608 413.065299 
L 383.925175 412.698215 
L 390.632296 412.698215 
L 390.876072 413.065299 
L 391.497073 413.065299 
L 391.714543 413.432382 
L 392.795124 413.432382 
L 393.011426 413.827701 
L 393.227188 413.827701 
L 393.443425 413.432382 
L 394.958341 413.432382 
L 395.173951 413.065299 
L 395.823875 413.065299 
L 396.045196 412.698215 
L 396.688889 412.698215 
L 396.909626 412.302896 
L 397.121904 412.302896 
L 397.337428 412.698215 
L 397.988 412.698215 
L 398.202983 412.302896 
L 399.717921 412.302896 
L 399.934007 411.935812 
L 400.150266 411.935812 
L 400.367671 412.302896 
L 401.015864 412.302896 
L 401.231517 411.935812 
L 402.747104 411.935812 
L 402.963536 412.302896 
L 404.476613 412.302896 
L 404.692786 411.935812 
L 404.909131 411.935812 
L 405.125087 412.302896 
L 406.042733 412.302896 
L 406.422966 412.698215 
L 407.077172 412.698215 
L 407.288737 413.065299 
L 407.938422 413.065299 
L 408.153621 413.432382 
L 408.807028 413.432382 
L 409.019177 413.065299 
L 409.236149 413.065299 
L 409.453944 413.432382 
L 409.66936 413.432382 
L 409.884883 413.065299 
L 410.534157 413.065299 
L 410.749616 412.698215 
L 411.424244 412.698215 
L 411.639291 412.302896 
L 412.697677 412.302896 
L 412.915191 412.698215 
L 413.129135 412.698215 
L 413.345524 412.302896 
L 413.997762 412.302896 
L 414.215838 412.698215 
L 414.859921 412.698215 
L 415.078495 412.302896 
L 421.783713 412.302896 
L 422.004558 412.698215 
L 422.647862 412.698215 
L 422.869074 413.065299 
L 423.514693 413.065299 
L 423.729957 413.432382 
L 424.378777 413.432382 
L 424.595469 413.827701 
L 425.244765 413.827701 
L 425.461413 413.432382 
L 425.676764 413.432382 
L 425.893888 413.065299 
L 426.541691 413.065299 
L 426.758058 412.698215 
L 427.842468 412.698215 
L 428.056737 412.302896 
L 429.137708 412.302896 
L 429.352863 412.698215 
L 433.465267 412.698215 
L 433.681699 413.065299 
L 433.897287 413.065299 
L 434.111988 412.698215 
L 435.626904 412.698215 
L 435.843747 413.065299 
L 436.05979 413.065299 
L 436.27566 412.698215 
L 437.790641 412.698215 
L 438.007873 413.065299 
L 438.656088 413.065299 
L 438.875137 413.432382 
L 439.521015 413.432382 
L 439.737599 413.827701 
L 441.251585 413.827701 
L 441.467973 413.432382 
L 442.118827 413.432382 
L 442.337444 413.065299 
L 442.98157 413.065299 
L 443.197418 412.698215 
L 443.419431 412.698215 
L 443.632164 412.302896 
L 444.281287 412.302896 
L 444.496702 411.935812 
L 445.146042 411.935812 
L 445.363469 412.302896 
L 446.010731 412.302896 
L 446.227228 411.935812 
L 446.443898 411.935812 
L 446.66245 411.568715 
L 446.875616 411.568715 
L 447.094709 411.935812 
L 447.74314 411.935812 
L 447.958101 411.568715 
L 450.771349 411.568715 
L 450.98644 411.935812 
L 451.635498 411.935812 
L 451.851779 411.568715 
L 453.798888 411.568715 
L 454.018652 411.935812 
L 454.665741 411.935812 
L 454.879707 412.302896 
L 455.529566 412.302896 
L 455.744873 412.698215 
L 457.692394 412.698215 
L 457.908177 412.302896 
L 458.563292 412.302896 
L 458.776609 411.935812 
L 460.720625 411.935812 
L 460.938658 412.302896 
L 465.482973 412.302896 
L 465.697934 412.698215 
L 469.807374 412.698215 
L 470.031053 413.065299 
L 470.238897 413.065299 
L 470.458487 413.432382 
L 471.10681 413.432382 
L 471.320278 413.827701 
L 472.835778 413.827701 
L 473.050956 413.432382 
L 473.268448 413.432382 
L 473.505041 413.065299 
L 474.13264 413.065299 
L 474.350392 412.698215 
L 474.568879 412.698215 
L 474.782001 412.302896 
L 475.429891 412.302896 
L 475.647837 411.935812 
L 476.299318 411.935812 
L 476.511943 411.568715 
L 477.599814 411.568715 
L 477.810059 411.935812 
L 478.027508 411.935812 
L 478.244546 411.568715 
L 480.623503 411.568715 
L 480.842963 411.935812 
L 481.922268 411.935812 
L 482.192781 411.568715 
L 484.0841 411.568715 
L 484.299408 411.935812 
L 485.816509 411.935812 
L 486.055265 412.302896 
L 487.116637 412.302896 
L 487.329975 412.698215 
L 488.858195 412.698215 
L 489.05903 412.302896 
L 489.70798 412.302896 
L 489.924867 411.935812 
L 490.141234 411.935812 
L 490.368504 411.568715 
L 491.088062 411.568715 
L 491.880175 410.806312 
L 492.107747 411.173395 
L 494.900986 411.173395 
L 495.116293 411.568715 
L 495.76652 411.568715 
L 495.982973 411.935812 
L 500.525558 411.935812 
L 500.756679 412.302896 
L 500.958314 412.302896 
L 501.176239 412.698215 
L 501.456443 412.698215 
L 501.823069 413.065299 
L 502.292254 413.065299 
L 502.482208 413.432382 
L 503.553487 413.432382 
L 503.772471 413.827701 
L 504.431524 413.827701 
L 504.635906 413.432382 
L 504.858504 413.432382 
L 505.068598 413.065299 
L 506.152229 413.065299 
L 506.364962 412.698215 
L 507.014755 412.698215 
L 507.232464 412.302896 
L 507.882322 412.302896 
L 508.096634 411.935812 
L 516.099579 411.935812 
L 516.318607 412.302896 
L 516.965372 412.302896 
L 517.180917 412.698215 
L 517.398128 412.698215 
L 517.615469 413.065299 
L 518.695357 413.065299 
L 518.911292 413.432382 
L 519.56353 413.432382 
L 519.777366 413.065299 
L 520.860565 413.065299 
L 521.075634 412.698215 
L 522.15628 412.698215 
L 522.375589 412.302896 
L 522.59016 412.302896 
L 522.807588 411.935812 
L 524.753075 411.935812 
L 524.972189 412.302896 
L 532.108562 412.302896 
L 532.325146 412.698215 
L 533.40577 412.698215 
L 533.625836 413.065299 
L 534.272017 413.065299 
L 534.487411 413.432382 
L 535.570415 413.432382 
L 535.784532 413.827701 
L 536.002478 413.827701 
L 536.218023 413.432382 
L 536.433958 413.432382 
L 536.653375 413.065299 
L 536.868531 413.065299 
L 537.085634 412.698215 
L 537.736033 412.698215 
L 537.94948 412.302896 
L 538.164679 412.302896 
L 538.380354 411.935812 
L 544.654503 411.935812 
L 544.893562 412.302896 
L 547.250195 412.302896 
L 547.466346 411.935812 
L 547.682734 411.935812 
L 547.899794 412.302896 
L 548.981305 412.302896 
L 549.197823 412.698215 
L 549.41339 412.698215 
L 549.629217 413.065299 
L 550.27888 413.065299 
L 550.49767 413.432382 
L 550.710966 413.432382 
L 550.93936 413.065299 
L 551.144457 413.065299 
L 551.359699 413.432382 
L 552.009255 413.432382 
L 552.224605 413.065299 
L 552.442811 413.065299 
L 552.657989 412.698215 
L 552.875156 412.698215 
L 553.090766 412.302896 
L 554.172386 412.302896 
L 554.390873 411.935812 
L 555.037746 411.935812 
L 555.253875 412.302896 
L 555.471562 412.302896 
L 555.68648 411.935812 
L 555.905248 411.935812 
L 556.121702 412.302896 
L 557.63612 412.302896 
L 557.848983 411.935812 
L 558.932246 411.935812 
L 559.148938 412.302896 
L 559.364072 412.302896 
L 559.584181 411.935812 
L 560.249312 411.935812 
L 560.445194 412.302896 
L 560.662534 412.302896 
L 560.878101 411.935812 
L 563.258031 411.935812 
L 563.47481 412.302896 
L 564.561556 412.302896 
L 564.773207 412.698215 
L 565.424385 412.698215 
L 565.6382 413.065299 
L 565.854956 413.065299 
L 566.087894 413.432382 
L 566.720576 413.432382 
L 566.949447 413.065299 
L 567.585958 413.065299 
L 567.807387 412.698215 
L 568.450734 412.698215 
L 568.668378 412.302896 
L 569.316419 412.302896 
L 569.532029 411.935812 
L 570.18152 411.935812 
L 570.396849 411.568715 
L 570.636081 411.568715 
L 570.958685 411.935812 
L 573.552646 411.935812 
L 573.858139 411.568715 
L 574.075263 411.568715 
L 574.291068 411.935812 
L 574.508798 411.935812 
L 574.723824 411.568715 
L 578.401741 411.568715 
L 578.617286 411.173395 
L 580.143148 411.173395 
L 580.349261 411.568715 
L 581.432568 411.568715 
L 581.646772 411.935812 
L 582.295916 411.935812 
L 582.511353 411.568715 
L 583.592107 411.568715 
L 583.810508 411.173395 
L 584.026551 411.173395 
L 584.242939 410.806312 
L 584.459155 410.806312 
L 584.674635 410.439229 
L 584.891587 410.439229 
L 585.116736 410.043909 
L 585.323542 410.043909 
L 585.53939 409.676826 
L 585.757012 409.676826 
L 585.973206 409.309742 
L 588.353634 409.309742 
L 588.568876 408.914423 
L 588.785481 408.914423 
L 589.005894 409.309742 
L 590.082689 409.309742 
L 590.299445 408.914423 
L 590.515618 408.914423 
L 590.731747 409.309742 
L 592.677818 409.309742 
L 592.894229 409.676826 
L 593.543395 409.676826 
L 593.543395 409.676826 
" clip-path="url(#p7cdd6449e3)" style="fill: none; stroke: #2ca02c; stroke-width: 2; stroke-linecap: square"/>
   </g>
   <g id="line2d_24">
    <path d="M 86.270668 29.721094 
L 86.699075 29.721094 
L 86.915161 30.066269 
L 87.562489 30.066269 
L 87.778921 30.218469 
L 90.593121 30.218469 
L 90.80633 29.873028 
L 91.023952 29.873028 
L 91.239822 29.527521 
L 91.888707 29.527521 
L 92.111564 29.277464 
L 93.187234 29.294607 
L 93.40451 28.931583 
L 94.052897 28.931583 
L 94.268529 29.155352 
L 95.350343 29.172484 
L 95.572594 29.544686 
L 96.259184 29.544686 
L 96.648243 29.873028 
L 97.080804 29.873028 
L 97.297236 29.740363 
L 97.599679 29.740363 
L 97.94597 30.085571 
L 99.252739 30.085571 
L 99.460453 29.740363 
L 102.731746 29.757546 
L 102.921116 30.102785 
L 103.137634 30.102785 
L 103.569612 29.978738 
L 106.166017 29.978738 
L 106.383899 29.633716 
L 106.598838 29.633716 
L 106.817433 29.412242 
L 107.898079 29.412242 
L 108.113343 29.04029 
L 110.059458 29.04029 
L 110.275608 29.395089 
L 110.493382 29.395089 
L 110.70871 28.899798 
L 110.925575 28.899798 
L 111.140666 29.271486 
L 111.792991 29.271486 
L 112.007995 29.616544 
L 112.22473 29.616544 
L 112.440232 29.961535 
L 115.68602 29.942244 
L 115.9015 29.597287 
L 117.419315 29.597287 
L 117.633151 29.375854 
L 120.444518 29.375854 
L 120.662204 29.721094 
L 120.877079 29.721094 
L 121.094225 29.375854 
L 121.741963 29.375854 
L 121.957811 29.023169 
L 122.607302 29.023169 
L 122.824664 28.809684 
L 123.908382 28.809684 
L 124.120661 28.46394 
L 126.501326 28.481013 
L 126.743912 28.809684 
L 126.954503 28.809684 
L 127.15456 29.023169 
L 127.367163 29.023169 
L 127.595363 29.395089 
L 129.532738 29.412242 
L 129.746141 29.271486 
L 134.740994 29.288629 
L 134.939169 29.412242 
L 135.608561 29.412242 
L 136.020766 29.288629 
L 136.927986 29.288629 
L 137.750427 28.694823 
L 138.182577 28.694823 
L 138.398901 28.349279 
L 139.057434 28.349279 
L 139.264543 27.977069 
L 140.778615 27.977069 
L 140.995826 28.108556 
L 141.643586 28.108556 
L 141.860429 28.349279 
L 142.07552 28.349279 
L 142.29245 28.677732 
L 142.942157 28.677732 
L 143.298442 29.023169 
L 143.817209 29.023169 
L 144.023603 29.375854 
L 151.164216 29.271486 
L 151.412578 29.740363 
L 151.64041 29.740363 
L 151.817579 29.616544 
L 152.890957 29.616544 
L 153.110201 29.395089 
L 153.757745 29.395089 
L 153.972836 29.023169 
L 154.621742 29.023169 
L 154.840121 28.677732 
L 155.488076 28.677732 
L 155.703556 28.349279 
L 155.920053 28.349279 
L 156.138475 28.694823 
L 157.653262 28.694823 
L 157.868569 29.04029 
L 158.085996 29.04029 
L 158.300697 28.899798 
L 158.515918 28.899798 
L 158.732934 28.554577 
L 159.381646 28.554577 
L 159.598641 28.899798 
L 161.545382 28.899798 
L 161.977792 29.023169 
L 163.282506 29.00397 
L 166.304378 29.00397 
L 166.519707 29.13614 
L 168.902081 29.13614 
L 169.117453 28.790506 
L 169.33289 28.790506 
L 169.550447 28.444795 
L 169.76848 28.444795 
L 170.198121 28.56647 
L 170.415894 28.175394 
L 170.630076 28.175394 
L 171.062248 28.296224 
L 171.279437 27.968402 
L 171.495394 27.968402 
L 171.712258 28.296224 
L 171.936262 28.296224 
L 172.144733 28.669034 
L 173.225682 28.649852 
L 173.443325 28.995921 
L 174.097164 28.995921 
L 174.309724 29.220445 
L 174.957419 29.220445 
L 175.174154 29.592738 
L 180.581191 29.571218 
L 180.930186 29.198966 
L 181.887657 29.178315 
L 182.104089 29.550528 
L 184.475756 29.571218 
L 184.691799 29.178315 
L 185.343085 29.178315 
L 185.557808 28.853223 
L 186.638973 28.853223 
L 186.85666 28.628435 
L 188.373739 28.628435 
L 188.802298 28.507402 
L 189.017995 28.853223 
L 189.666945 28.853223 
L 189.886751 29.198966 
L 190.531894 29.178315 
L 190.748543 29.571218 
L 190.964196 29.571218 
L 191.181666 29.773579 
L 191.427432 29.773579 
L 191.618294 29.571218 
L 192.265708 29.571218 
L 192.697361 29.448924 
L 193.130074 29.571218 
L 195.294437 29.571218 
L 195.51247 29.198966 
L 196.157332 29.198966 
L 196.377246 29.056264 
L 197.023081 29.076902 
L 197.458758 29.198966 
L 200.483376 29.198966 
L 200.700847 28.853223 
L 200.916824 28.853223 
L 201.132672 28.507402 
L 201.782185 28.507402 
L 201.999677 28.134896 
L 202.692194 28.134896 
L 203.080409 27.788917 
L 203.512906 27.909512 
L 203.943844 27.788917 
L 204.387741 27.788917 
L 204.596602 28.134896 
L 204.81007 28.134896 
L 205.027129 28.507402 
L 205.677291 28.486823 
L 205.892858 28.832608 
L 206.108186 28.832608 
L 206.325051 29.056264 
L 207.405978 29.056264 
L 207.638764 29.428247 
L 207.839902 29.428247 
L 208.054755 29.034946 
L 208.274432 29.034946 
L 208.488095 29.406889 
L 211.299829 29.428247 
L 211.519679 29.773579 
L 212.598962 29.773579 
L 212.816801 29.428247 
L 213.470423 29.428247 
L 213.680474 29.295881 
L 213.894591 29.295881 
L 214.111672 29.640981 
L 214.760946 29.640981 
L 214.977508 29.773579 
L 215.19381 29.773579 
L 215.410134 29.428247 
L 216.491732 29.448924 
L 216.708878 29.076902 
L 217.359083 29.076902 
L 217.572832 28.731372 
L 217.789935 28.731372 
L 218.00468 28.507402 
L 218.653976 28.528806 
L 218.873631 28.15626 
L 219.953541 28.15626 
L 220.173802 28.528806 
L 220.386103 28.528806 
L 220.602729 28.385764 
L 220.819464 28.385764 
L 221.035053 28.7528 
L 221.684954 28.731372 
L 221.899504 29.076902 
L 223.847674 29.076902 
L 224.062678 29.448924 
L 226.874975 29.47043 
L 227.309808 29.592738 
L 228.60721 29.592738 
L 228.821133 29.938358 
L 232.070923 29.938358 
L 232.282358 29.714437 
L 232.932519 29.714437 
L 233.148475 29.341915 
L 233.364129 29.341915 
L 233.58121 28.995921 
L 234.230225 28.995921 
L 234.446657 28.798725 
L 234.662526 28.798725 
L 234.879672 28.649852 
L 235.094806 28.649852 
L 235.310697 28.406512 
L 235.527887 28.406512 
L 235.74354 28.77953 
L 235.961702 28.77953 
L 236.392338 28.649852 
L 236.609398 28.995921 
L 237.690822 28.995921 
L 237.908639 29.320423 
L 238.556551 29.320423 
L 238.773091 29.571218 
L 245.910762 29.550528 
L 246.127518 29.752183 
L 246.343994 29.752183 
L 246.7814 29.874666 
L 246.996383 29.529157 
L 247.504896 29.529157 
L 247.860943 29.874666 
L 248.507124 29.874666 
L 248.723621 29.529157 
L 249.372009 29.529157 
L 249.601312 29.178315 
L 249.84314 29.178315 
L 250.021456 29.299759 
L 250.238407 29.299759 
L 250.453952 28.953839 
L 251.968349 28.953839 
L 252.400759 28.832608 
L 252.615958 29.178315 
L 253.268542 29.178315 
L 253.482249 29.550528 
L 254.564798 29.550528 
L 254.779976 29.874666 
L 254.996429 29.874666 
L 255.430505 29.752183 
L 256.297531 29.752183 
L 256.728318 29.874666 
L 260.631569 29.896075 
L 260.873192 29.550528 
L 263.216953 29.550528 
L 263.432563 29.178315 
L 265.384453 29.178315 
L 265.596537 28.832608 
L 265.815046 28.832608 
L 266.030374 28.486823 
L 266.247088 28.486823 
L 266.680449 28.607843 
L 267.975926 28.607843 
L 268.192445 28.832608 
L 268.840681 28.832608 
L 269.060055 29.178315 
L 269.27467 29.178315 
L 269.489912 29.550528 
L 269.708637 29.550528 
L 270.139381 29.428247 
L 270.355943 29.773579 
L 271.869388 29.773579 
L 272.087637 30.118846 
L 272.305346 30.118846 
L 272.520134 29.773579 
L 272.743986 29.773579 
L 273.00498 30.118846 
L 279.667134 30.118846 
L 279.879291 29.773579 
L 280.523662 29.773579 
L 280.74084 29.428247 
L 280.957332 29.428247 
L 281.18991 29.198966 
L 281.831637 29.198966 
L 282.048656 28.853223 
L 283.12113 28.832608 
L 283.33688 28.486823 
L 283.553955 28.486823 
L 283.769573 28.832608 
L 284.418938 28.832608 
L 284.634452 29.056264 
L 285.282624 29.056264 
L 285.499138 29.428247 
L 285.730991 29.428247 
L 285.939765 29.295881 
L 287.886442 29.316544 
L 288.100321 29.448924 
L 288.752669 29.448924 
L 288.964794 29.316544 
L 289.178922 29.316544 
L 289.394461 29.448924 
L 289.609344 29.448924 
L 289.825726 29.794292 
L 290.474264 29.794292 
L 290.690509 29.66168 
L 291.340282 29.66168 
L 291.555928 29.794292 
L 295.666709 29.815836 
L 295.884586 29.47043 
L 296.964701 29.47043 
L 297.181884 29.220445 
L 297.829668 29.220445 
L 298.045306 28.874664 
L 299.127227 28.853223 
L 299.345945 29.198966 
L 299.992306 29.198966 
L 300.210602 29.571218 
L 300.858576 29.571218 
L 301.074546 29.794292 
L 301.722578 29.773579 
L 301.938687 30.118846 
L 302.155584 30.118846 
L 302.373212 29.773579 
L 310.808959 29.874666 
L 311.025424 29.529157 
L 311.241333 29.529157 
L 311.674171 29.650817 
L 312.106288 29.650817 
L 312.331162 29.278415 
L 312.973716 29.278415 
L 313.192894 28.953839 
L 313.40713 28.953839 
L 313.839132 29.083717 
L 314.703772 29.083717 
L 315.135641 28.953839 
L 315.567401 28.932533 
L 315.783613 29.278415 
L 316.433796 29.278415 
L 316.669566 29.650817 
L 316.878372 29.650817 
L 317.303082 29.529157 
L 317.518123 29.874666 
L 319.246955 29.874666 
L 319.465074 29.529157 
L 320.979039 29.550528 
L 321.192659 29.896075 
L 323.571875 29.896075 
L 323.795727 29.550528 
L 326.167307 29.448924 
L 326.384713 29.076902 
L 327.501247 29.098368 
L 327.698383 28.7528 
L 327.901381 28.7528 
L 328.11446 28.407155 
L 328.33126 28.407155 
L 328.545788 28.547977 
L 328.807324 28.547977 
L 329.196166 28.175394 
L 329.633919 28.193852 
L 329.845851 27.829345 
L 331.358994 27.847771 
L 331.575469 28.193852 
L 331.793653 28.193852 
L 332.225241 28.072406 
L 332.440937 28.444795 
L 333.09032 28.444795 
L 333.30619 28.790506 
L 336.983695 28.771993 
L 337.199435 28.426314 
L 337.429669 28.426314 
L 337.632689 28.771993 
L 340.879061 28.874664 
L 341.095255 29.220445 
L 343.040872 29.220445 
L 343.259424 28.874664 
L 343.907379 28.874664 
L 344.122318 28.528806 
L 344.338209 28.528806 
L 344.772782 28.649852 
L 346.935891 28.628435 
L 347.150528 28.974467 
L 347.36709 28.974467 
L 347.80017 28.853223 
L 348.016299 29.198966 
L 348.665942 29.198966 
L 348.882222 29.550528 
L 349.099044 29.550528 
L 349.530285 29.428247 
L 351.696639 29.448924 
L 351.912098 29.056264 
L 352.128616 29.056264 
L 352.343253 29.428247 
L 352.559209 29.428247 
L 352.776117 29.056264 
L 353.857412 29.076902 
L 354.073195 28.578883 
L 354.290081 28.578883 
L 354.504847 28.71077 
L 354.722664 28.71077 
L 354.93756 28.578883 
L 355.154965 28.578883 
L 355.370446 28.71077 
L 356.454747 28.731372 
L 356.669232 28.599472 
L 357.317815 28.599472 
L 357.546253 28.944772 
L 358.18404 28.944772 
L 358.414209 28.599472 
L 358.617532 28.599472 
L 358.832861 28.385764 
L 359.049379 28.385764 
L 359.265054 28.013486 
L 359.481573 28.013486 
L 359.701185 27.667718 
L 360.376959 27.689032 
L 360.564944 27.343151 
L 361.644573 27.343151 
L 361.859686 26.970581 
L 362.510561 26.989602 
L 362.727404 27.362208 
L 362.942603 27.362208 
L 363.158732 27.708122 
L 363.808656 27.708122 
L 364.248745 27.903398 
L 364.676828 27.903398 
L 364.890362 28.27547 
L 370.298004 28.294616 
L 370.512749 27.922509 
L 375.0578 27.960039 
L 375.274729 27.614365 
L 375.488695 27.614365 
L 375.707118 27.249584 
L 376.354748 27.249584 
L 376.571872 26.877188 
L 377.220779 26.877188 
L 377.662534 27.00795 
L 378.086377 26.896182 
L 378.300927 27.249584 
L 378.950007 27.249584 
L 379.166872 27.595302 
L 379.382979 27.595302 
L 379.836805 27.472816 
L 380.032859 27.818244 
L 380.249075 27.818244 
L 380.466632 28.190156 
L 381.546283 28.171699 
L 381.770546 28.516933 
L 383.709608 28.620885 
L 383.925175 28.966223 
L 385.440935 28.966223 
L 385.879077 28.842888 
L 386.321697 28.842888 
L 386.523181 28.966223 
L 390.632296 28.966223 
L 390.876072 28.620885 
L 391.066913 28.620885 
L 391.280922 28.771993 
L 391.497073 28.771993 
L 391.714543 28.426314 
L 392.795124 28.426314 
L 393.011426 28.05396 
L 393.227188 28.05396 
L 393.443425 28.426314 
L 394.958341 28.407155 
L 395.173951 28.620885 
L 395.823875 28.620885 
L 396.045196 28.966223 
L 396.688889 28.966223 
L 396.909626 29.338036 
L 397.121904 29.338036 
L 397.337428 28.966223 
L 397.988 28.966223 
L 398.202983 29.316544 
L 399.717921 29.338036 
L 399.934007 29.66168 
L 400.150266 29.66168 
L 400.367671 29.316544 
L 400.583086 29.316544 
L 401.450264 29.794292 
L 402.747104 29.794292 
L 402.963536 29.448924 
L 404.476613 29.448924 
L 404.692786 29.794292 
L 404.909131 29.794292 
L 405.125087 29.448924 
L 406.042733 29.448924 
L 406.422966 29.076902 
L 406.642102 29.076902 
L 407.077172 29.198966 
L 407.288737 28.853223 
L 407.938422 28.874664 
L 408.153621 28.649852 
L 408.807028 28.628435 
L 409.019177 28.995921 
L 409.236149 28.995921 
L 409.453944 28.649852 
L 409.66936 28.649852 
L 409.884883 28.995921 
L 410.101877 28.995921 
L 410.534157 28.874664 
L 410.749616 29.220445 
L 411.424244 29.220445 
L 411.639291 29.592738 
L 412.697677 29.592738 
L 412.915191 29.220445 
L 413.129135 29.220445 
L 413.345524 29.592738 
L 413.997762 29.592738 
L 414.215838 29.220445 
L 414.859921 29.220445 
L 415.078495 29.47043 
L 421.783713 29.489692 
L 422.004558 29.117594 
L 422.217074 29.117594 
L 422.647862 29.239683 
L 422.869074 28.893868 
L 423.514693 28.893868 
L 423.729957 28.547977 
L 424.378777 28.547977 
L 424.595469 28.175394 
L 425.244765 28.175394 
L 425.461413 28.547977 
L 425.676764 28.547977 
L 425.893888 28.893868 
L 426.109628 28.893868 
L 426.541691 28.771993 
L 426.758058 29.117594 
L 427.842468 29.117594 
L 428.056737 29.489692 
L 428.704432 29.489692 
L 429.137708 29.612012 
L 429.352863 29.239683 
L 433.465267 29.220445 
L 433.681699 28.874664 
L 433.897287 28.874664 
L 434.111988 29.220445 
L 435.626904 29.220445 
L 435.843747 28.874664 
L 436.05979 28.874664 
L 436.27566 29.220445 
L 437.790641 29.239683 
L 438.007873 28.874664 
L 438.223526 28.874664 
L 438.656088 28.995921 
L 438.875137 28.669034 
L 439.521015 28.649852 
L 439.737599 28.296224 
L 440.81924 28.296224 
L 441.251585 28.175394 
L 441.467973 28.528806 
L 442.118827 28.528806 
L 442.337444 28.874664 
L 442.98157 28.874664 
L 443.197418 29.198966 
L 443.419431 29.198966 
L 443.632164 29.448924 
L 444.281287 29.448924 
L 444.496702 29.815836 
L 445.146042 29.794292 
L 445.363469 29.448924 
L 446.010731 29.47043 
L 446.227228 29.794292 
L 446.443898 29.794292 
L 446.66245 30.139595 
L 446.875616 30.139595 
L 447.094709 29.773579 
L 447.308675 29.773579 
L 447.524696 29.640981 
L 447.74314 29.640981 
L 447.958101 29.986015 
L 448.607937 29.986015 
L 448.825451 30.118846 
L 450.771349 30.097413 
L 450.98644 29.752183 
L 451.635498 29.752183 
L 451.851779 30.097413 
L 453.798888 30.097413 
L 454.018652 29.874666 
L 454.665741 29.874666 
L 454.879707 29.529157 
L 455.529566 29.529157 
L 455.744873 29.178315 
L 457.692394 29.156984 
L 457.908177 29.550528 
L 458.12595 29.550528 
L 458.343637 29.406889 
L 458.563292 29.406889 
L 458.776609 29.752183 
L 460.287566 29.773579 
L 460.720625 29.896075 
L 460.938658 29.428247 
L 461.169064 29.428247 
L 461.371003 29.571218 
L 461.587262 29.571218 
L 462.018482 29.448924 
L 463.749419 29.448924 
L 464.182672 29.571218 
L 465.482973 29.571218 
L 465.697934 29.198966 
L 468.510296 29.098368 
L 469.589687 29.098368 
L 469.807374 29.098368 
L 470.031053 28.7528 
L 470.238897 28.7528 
L 470.458487 28.407155 
L 470.671912 28.407155 
L 471.10681 28.528806 
L 471.320278 28.15626 
L 472.835778 28.15626 
L 473.050956 28.407155 
L 473.268448 28.407155 
L 473.505041 28.7528 
L 474.13264 28.7528 
L 474.350392 29.098368 
L 474.568879 29.098368 
L 474.782001 29.338036 
L 475.429891 29.338036 
L 475.647837 29.68321 
L 476.299318 29.68321 
L 476.511943 29.904317 
L 477.599814 29.904317 
L 477.810059 29.559426 
L 478.027508 29.559426 
L 478.244546 29.904317 
L 480.623503 29.904317 
L 480.842963 29.559426 
L 481.922268 29.578698 
L 482.192781 29.923622 
L 482.468377 29.799004 
L 483.220665 29.799004 
L 483.653832 29.923622 
L 484.0841 29.942244 
L 484.299408 29.472874 
L 484.515861 29.472874 
L 484.949374 29.597287 
L 485.395607 29.597287 
L 485.598151 29.454297 
L 485.816509 29.454297 
L 486.055265 29.233706 
L 487.116637 29.252263 
L 487.329975 29.00397 
L 488.858195 29.00397 
L 489.05903 29.375854 
L 489.70798 29.375854 
L 489.924867 29.721094 
L 490.141234 29.721094 
L 490.368504 30.066269 
L 490.574119 30.066269 
L 490.789794 29.942244 
L 491.088062 29.942244 
L 491.880175 30.658408 
L 492.107747 30.437891 
L 494.900986 30.45723 
L 495.116293 30.085571 
L 495.76652 30.085571 
L 495.982973 29.740363 
L 497.064549 29.740363 
L 497.496116 29.616544 
L 497.929693 29.616544 
L 498.144417 29.740363 
L 499.660501 29.740363 
L 500.092781 29.616544 
L 500.525558 29.740363 
L 500.756679 29.412242 
L 500.958314 29.412242 
L 501.176239 29.04029 
L 501.456443 29.04029 
L 501.823069 28.694823 
L 502.292254 28.694823 
L 502.482208 28.497407 
L 503.553487 28.497407 
L 503.772471 28.12492 
L 504.049128 28.12492 
L 504.431524 27.993422 
L 504.635906 28.365662 
L 504.858504 28.365662 
L 505.068598 28.711235 
L 506.152229 28.711235 
L 506.364962 29.04029 
L 506.581696 29.04029 
L 507.014755 28.916909 
L 507.232464 29.288629 
L 507.882322 29.288629 
L 508.096634 29.633716 
L 508.313326 29.633716 
L 508.541591 29.757546 
L 516.099579 29.721094 
L 516.318607 29.375854 
L 516.533719 29.375854 
L 516.965372 29.508273 
L 517.180917 29.13614 
L 517.398128 29.13614 
L 517.615469 28.790506 
L 517.83216 28.790506 
L 518.263705 28.912393 
L 518.695357 28.912393 
L 518.911292 28.56647 
L 519.56353 28.56647 
L 519.777366 28.912393 
L 520.860565 28.893868 
L 521.075634 29.239683 
L 522.15628 29.239683 
L 522.375589 29.592738 
L 522.59016 29.592738 
L 522.807588 29.938358 
L 524.753075 29.916801 
L 524.972189 29.592738 
L 527.781566 29.550528 
L 528.43071 29.448924 
L 529.080482 29.448924 
L 529.295487 29.571218 
L 530.811203 29.47043 
L 531.892087 29.47043 
L 532.108562 29.47043 
L 532.325146 29.098368 
L 533.40577 29.098368 
L 533.625836 28.7528 
L 533.83898 28.7528 
L 534.272017 28.874664 
L 534.487411 28.528806 
L 535.570415 28.528806 
L 535.784532 28.034836 
L 536.002478 28.034836 
L 536.218023 28.407155 
L 536.433958 28.407155 
L 536.653375 28.7528 
L 536.868531 28.7528 
L 537.085634 29.098368 
L 537.736033 29.098368 
L 537.94948 29.316544 
L 538.164679 29.316544 
L 538.380354 29.66168 
L 544.654503 29.66168 
L 544.893562 29.316544 
L 547.250195 29.316544 
L 547.466346 29.66168 
L 547.682734 29.66168 
L 547.899794 29.338036 
L 548.114733 29.338036 
L 548.33203 29.47043 
L 548.981305 29.47043 
L 549.197823 29.098368 
L 549.41339 29.098368 
L 549.629217 28.7528 
L 550.27888 28.7528 
L 550.49767 28.407155 
L 550.710966 28.407155 
L 550.93936 28.7528 
L 551.144457 28.7528 
L 551.359699 28.407155 
L 552.009255 28.407155 
L 552.224605 28.7528 
L 552.442811 28.7528 
L 552.657989 29.098368 
L 552.875156 29.098368 
L 553.090766 29.47043 
L 554.172386 29.448924 
L 554.390873 29.794292 
L 555.037746 29.794292 
L 555.253875 29.448924 
L 555.471562 29.448924 
L 555.68648 29.794292 
L 555.905248 29.794292 
L 556.121702 29.448924 
L 557.63612 29.428247 
L 557.848983 29.773579 
L 558.932246 29.773579 
L 559.148938 29.295881 
L 559.364072 29.295881 
L 559.584181 29.640981 
L 560.249312 29.640981 
L 560.445194 29.295881 
L 560.662534 29.295881 
L 560.878101 29.640981 
L 562.393125 29.640981 
L 562.60919 29.773579 
L 563.258031 29.773579 
L 563.47481 29.428247 
L 564.561556 29.448924 
L 564.773207 29.076902 
L 565.424385 29.076902 
L 565.6382 28.853223 
L 565.854956 28.853223 
L 566.087894 28.507402 
L 566.305234 28.507402 
L 566.503733 28.385764 
L 566.720576 28.385764 
L 566.949447 28.731372 
L 567.585958 28.731372 
L 567.807387 29.076902 
L 568.450734 29.076902 
L 568.668378 29.448924 
L 569.316419 29.448924 
L 569.532029 29.794292 
L 570.18152 29.815836 
L 570.396849 30.139595 
L 570.636081 30.139595 
L 570.958685 29.794292 
L 573.552646 29.794292 
L 573.858139 30.139595 
L 574.075263 30.139595 
L 574.291068 29.794292 
L 574.508798 29.794292 
L 574.723824 30.139595 
L 578.401741 30.139595 
L 578.617286 30.511356 
L 579.267382 30.511356 
L 579.700549 30.634313 
L 580.143148 30.634313 
L 580.349261 30.26232 
L 581.432568 30.26232 
L 581.646772 30.038701 
L 582.295916 30.038701 
L 582.511353 30.384434 
L 583.592107 30.363658 
L 583.810508 30.735844 
L 584.026551 30.735844 
L 584.242939 30.958816 
L 584.459155 30.958816 
L 584.674635 31.304041 
L 584.891587 31.304041 
L 585.116736 31.675732 
L 585.323542 31.675732 
L 585.53939 32.020792 
L 585.757012 32.020792 
L 585.973206 32.36577 
L 588.353634 32.36577 
L 588.568876 32.612905 
L 588.785481 32.612905 
L 589.005894 32.241719 
L 590.082689 32.241719 
L 590.299445 32.612905 
L 590.515618 32.612905 
L 590.731747 32.241719 
L 590.947746 32.241719 
L 591.165152 32.107439 
L 592.677818 32.128401 
L 592.894229 31.783842 
L 593.543395 31.783842 
L 593.543395 31.783842 
" clip-path="url(#p7cdd6449e3)" style="fill: none; stroke: #d62728; stroke-width: 2; stroke-linecap: square"/>
   </g>
   <g id="patch_3">
    <path d="M 60.907031 414.957188 
L 60.907031 26.877188 
" style="fill: none; stroke: #808080; stroke-width: 2; stroke-linejoin: miter; stroke-linecap: square"/>
   </g>
   <g id="patch_4">
    <path d="M 60.907031 414.957187 
L 618.907031 414.957187 
" style="fill: none; stroke: #808080; stroke-width: 2; stroke-linejoin: miter; stroke-linecap: square"/>
   </g>
   <g id="text_13">
    <!-- Tyholt_restart -->
    <g style="fill: #808080" transform="translate(278.754844 20.877187) scale(0.18 -0.18)">
     <defs>
      <path id="DejaVuSans-54" d="M -19 4666 
L 3928 4666 
L 3928 4134 
L 2272 4134 
L 2272 0 
L 1638 0 
L 1638 4134 
L -19 4134 
L -19 4666 
z
" transform="scale(0.015625)"/>
      <path id="DejaVuSans-79" d="M 2059 -325 
Q 1816 -950 1584 -1140 
Q 1353 -1331 966 -1331 
L 506 -1331 
L 506 -850 
L 844 -850 
Q 1081 -850 1212 -737 
Q 1344 -625 1503 -206 
L 1606 56 
L 191 3500 
L 800 3500 
L 1894 763 
L 2988 3500 
L 3597 3500 
L 2059 -325 
z
" transform="scale(0.015625)"/>
      <path id="DejaVuSans-68" d="M 3513 2113 
L 3513 0 
L 2938 0 
L 2938 2094 
Q 2938 2591 2744 2837 
Q 2550 3084 2163 3084 
Q 1697 3084 1428 2787 
Q 1159 2491 1159 1978 
L 1159 0 
L 581 0 
L 581 4863 
L 1159 4863 
L 1159 2956 
Q 1366 3272 1645 3428 
Q 1925 3584 2291 3584 
Q 2894 3584 3203 3211 
Q 3513 2838 3513 2113 
z
" transform="scale(0.015625)"/>
      <path id="DejaVuSans-6f" d="M 1959 3097 
Q 1497 3097 1228 2736 
Q 959 2375 959 1747 
Q 959 1119 1226 758 
Q 1494 397 1959 397 
Q 2419 397 2687 759 
Q 2956 1122 2956 1747 
Q 2956 2369 2687 2733 
Q 2419 3097 1959 3097 
z
M 1959 3584 
Q 2709 3584 3137 3096 
Q 3566 2609 3566 1747 
Q 3566 888 3137 398 
Q 2709 -91 1959 -91 
Q 1206 -91 779 398 
Q 353 888 353 1747 
Q 353 2609 779 3096 
Q 1206 3584 1959 3584 
z
" transform="scale(0.015625)"/>
      <path id="DejaVuSans-5f" d="M 3263 -1063 
L 3263 -1509 
L -63 -1509 
L -63 -1063 
L 3263 -1063 
z
" transform="scale(0.015625)"/>
      <path id="DejaVuSans-72" d="M 2631 2963 
Q 2534 3019 2420 3045 
Q 2306 3072 2169 3072 
Q 1681 3072 1420 2755 
Q 1159 2438 1159 1844 
L 1159 0 
L 581 0 
L 581 3500 
L 1159 3500 
L 1159 2956 
Q 1341 3275 1631 3429 
Q 1922 3584 2338 3584 
Q 2397 3584 2469 3576 
Q 2541 3569 2628 3553 
L 2631 2963 
z
" transform="scale(0.015625)"/>
     </defs>
     <use xlink:href="#DejaVuSans-54"/>
     <use xlink:href="#DejaVuSans-79" x="45.458984"/>
     <use xlink:href="#DejaVuSans-68" x="104.638672"/>
     <use xlink:href="#DejaVuSans-6f" x="168.017578"/>
     <use xlink:href="#DejaVuSans-6c" x="229.199219"/>
     <use xlink:href="#DejaVuSans-74" x="256.982422"/>
     <use xlink:href="#DejaVuSans-5f" x="296.191406"/>
     <use xlink:href="#DejaVuSans-72" x="346.191406"/>
     <use xlink:href="#DejaVuSans-65" x="385.054688"/>
     <use xlink:href="#DejaVuSans-73" x="446.578125"/>
     <use xlink:href="#DejaVuSans-74" x="498.677734"/>
     <use xlink:href="#DejaVuSans-61" x="537.886719"/>
     <use xlink:href="#DejaVuSans-72" x="599.166016"/>
     <use xlink:href="#DejaVuSans-74" x="640.279297"/>
    </g>
   </g>
   <g id="legend_1">
    <g id="patch_5">
     <path d="M 402.307031 127.077187 
L 608.407031 127.077187 
Q 611.407031 127.077187 611.407031 124.077187 
L 611.407031 37.377188 
Q 611.407031 34.377188 608.407031 34.377188 
L 402.307031 34.377188 
Q 399.307031 34.377188 399.307031 37.377188 
L 399.307031 124.077187 
Q 399.307031 127.077187 402.307031 127.077187 
z
" style="fill: #ffffff; opacity: 0.8; stroke: #cccccc; stroke-linejoin: miter"/>
    </g>
    <g id="line2d_25">
     <path d="M 405.307031 46.527188 
L 420.307031 46.527188 
L 435.307031 46.527188 
" style="fill: none; stroke: #1f77b4; stroke-width: 2; stroke-linecap: square"/>
    </g>
    <g id="text_14">
     <!-- Magnetic Field x $[\mu T]$ -->
     <g style="fill: #808080" transform="translate(447.307031 51.777188) scale(0.15 -0.15)">
      <defs>
       <path id="DejaVuSans-46" d="M 628 4666 
L 3309 4666 
L 3309 4134 
L 1259 4134 
L 1259 2759 
L 3109 2759 
L 3109 2228 
L 1259 2228 
L 1259 0 
L 628 0 
L 628 4666 
z
" transform="scale(0.015625)"/>
       <path id="DejaVuSans-78" d="M 3513 3500 
L 2247 1797 
L 3578 0 
L 2900 0 
L 1881 1375 
L 863 0 
L 184 0 
L 1544 1831 
L 300 3500 
L 978 3500 
L 1906 2253 
L 2834 3500 
L 3513 3500 
z
" transform="scale(0.015625)"/>
      </defs>
      <use xlink:href="#DejaVuSans-4d" transform="translate(0 0.015625)"/>
      <use xlink:href="#DejaVuSans-61" transform="translate(86.279297 0.015625)"/>
      <use xlink:href="#DejaVuSans-67" transform="translate(147.558594 0.015625)"/>
      <use xlink:href="#DejaVuSans-6e" transform="translate(211.035156 0.015625)"/>
      <use xlink:href="#DejaVuSans-65" transform="translate(274.414062 0.015625)"/>
      <use xlink:href="#DejaVuSans-74" transform="translate(335.9375 0.015625)"/>
      <use xlink:href="#DejaVuSans-69" transform="translate(375.146484 0.015625)"/>
      <use xlink:href="#DejaVuSans-63" transform="translate(402.929688 0.015625)"/>
      <use xlink:href="#DejaVuSans-20" transform="translate(457.910156 0.015625)"/>
      <use xlink:href="#DejaVuSans-46" transform="translate(489.697266 0.015625)"/>
      <use xlink:href="#DejaVuSans-69" transform="translate(547.216797 0.015625)"/>
      <use xlink:href="#DejaVuSans-65" transform="translate(575 0.015625)"/>
      <use xlink:href="#DejaVuSans-6c" transform="translate(636.523438 0.015625)"/>
      <use xlink:href="#DejaVuSans-64" transform="translate(664.306641 0.015625)"/>
      <use xlink:href="#DejaVuSans-20" transform="translate(727.783203 0.015625)"/>
      <use xlink:href="#DejaVuSans-78" transform="translate(759.570312 0.015625)"/>
      <use xlink:href="#DejaVuSans-20" transform="translate(818.75 0.015625)"/>
      <use xlink:href="#DejaVuSans-5b" transform="translate(850.537109 0.015625)"/>
      <use xlink:href="#DejaVuSans-Oblique-3bc" transform="translate(889.550781 0.015625)"/>
      <use xlink:href="#DejaVuSans-Oblique-54" transform="translate(953.173828 0.015625)"/>
      <use xlink:href="#DejaVuSans-5d" transform="translate(1014.257812 0.015625)"/>
     </g>
    </g>
    <g id="line2d_26">
     <path d="M 405.307031 68.577188 
L 420.307031 68.577188 
L 435.307031 68.577188 
" style="fill: none; stroke: #ff7f0e; stroke-width: 2; stroke-linecap: square"/>
    </g>
    <g id="text_15">
     <!-- Magnetic Field y $[\mu T]$ -->
     <g style="fill: #808080" transform="translate(447.307031 73.827188) scale(0.15 -0.15)">
      <use xlink:href="#DejaVuSans-4d" transform="translate(0 0.015625)"/>
      <use xlink:href="#DejaVuSans-61" transform="translate(86.279297 0.015625)"/>
      <use xlink:href="#DejaVuSans-67" transform="translate(147.558594 0.015625)"/>
      <use xlink:href="#DejaVuSans-6e" transform="translate(211.035156 0.015625)"/>
      <use xlink:href="#DejaVuSans-65" transform="translate(274.414062 0.015625)"/>
      <use xlink:href="#DejaVuSans-74" transform="translate(335.9375 0.015625)"/>
      <use xlink:href="#DejaVuSans-69" transform="translate(375.146484 0.015625)"/>
      <use xlink:href="#DejaVuSans-63" transform="translate(402.929688 0.015625)"/>
      <use xlink:href="#DejaVuSans-20" transform="translate(457.910156 0.015625)"/>
      <use xlink:href="#DejaVuSans-46" transform="translate(489.697266 0.015625)"/>
      <use xlink:href="#DejaVuSans-69" transform="translate(547.216797 0.015625)"/>
      <use xlink:href="#DejaVuSans-65" transform="translate(575 0.015625)"/>
      <use xlink:href="#DejaVuSans-6c" transform="translate(636.523438 0.015625)"/>
      <use xlink:href="#DejaVuSans-64" transform="translate(664.306641 0.015625)"/>
      <use xlink:href="#DejaVuSans-20" transform="translate(727.783203 0.015625)"/>
      <use xlink:href="#DejaVuSans-79" transform="translate(759.570312 0.015625)"/>
      <use xlink:href="#DejaVuSans-20" transform="translate(818.75 0.015625)"/>
      <use xlink:href="#DejaVuSans-5b" transform="translate(850.537109 0.015625)"/>
      <use xlink:href="#DejaVuSans-Oblique-3bc" transform="translate(889.550781 0.015625)"/>
      <use xlink:href="#DejaVuSans-Oblique-54" transform="translate(953.173828 0.015625)"/>
      <use xlink:href="#DejaVuSans-5d" transform="translate(1014.257812 0.015625)"/>
     </g>
    </g>
    <g id="line2d_27">
     <path d="M 405.307031 90.627187 
L 420.307031 90.627187 
L 435.307031 90.627187 
" style="fill: none; stroke: #2ca02c; stroke-width: 2; stroke-linecap: square"/>
    </g>
    <g id="text_16">
     <!-- Magnetic Field z $[\mu T]$ -->
     <g style="fill: #808080" transform="translate(447.307031 95.877187) scale(0.15 -0.15)">
      <defs>
       <path id="DejaVuSans-7a" d="M 353 3500 
L 3084 3500 
L 3084 2975 
L 922 459 
L 3084 459 
L 3084 0 
L 275 0 
L 275 525 
L 2438 3041 
L 353 3041 
L 353 3500 
z
" transform="scale(0.015625)"/>
      </defs>
      <use xlink:href="#DejaVuSans-4d" transform="translate(0 0.015625)"/>
      <use xlink:href="#DejaVuSans-61" transform="translate(86.279297 0.015625)"/>
      <use xlink:href="#DejaVuSans-67" transform="translate(147.558594 0.015625)"/>
      <use xlink:href="#DejaVuSans-6e" transform="translate(211.035156 0.015625)"/>
      <use xlink:href="#DejaVuSans-65" transform="translate(274.414062 0.015625)"/>
      <use xlink:href="#DejaVuSans-74" transform="translate(335.9375 0.015625)"/>
      <use xlink:href="#DejaVuSans-69" transform="translate(375.146484 0.015625)"/>
      <use xlink:href="#DejaVuSans-63" transform="translate(402.929688 0.015625)"/>
      <use xlink:href="#DejaVuSans-20" transform="translate(457.910156 0.015625)"/>
      <use xlink:href="#DejaVuSans-46" transform="translate(489.697266 0.015625)"/>
      <use xlink:href="#DejaVuSans-69" transform="translate(547.216797 0.015625)"/>
      <use xlink:href="#DejaVuSans-65" transform="translate(575 0.015625)"/>
      <use xlink:href="#DejaVuSans-6c" transform="translate(636.523438 0.015625)"/>
      <use xlink:href="#DejaVuSans-64" transform="translate(664.306641 0.015625)"/>
      <use xlink:href="#DejaVuSans-20" transform="translate(727.783203 0.015625)"/>
      <use xlink:href="#DejaVuSans-7a" transform="translate(759.570312 0.015625)"/>
      <use xlink:href="#DejaVuSans-20" transform="translate(812.060547 0.015625)"/>
      <use xlink:href="#DejaVuSans-5b" transform="translate(843.847656 0.015625)"/>
      <use xlink:href="#DejaVuSans-Oblique-3bc" transform="translate(882.861328 0.015625)"/>
      <use xlink:href="#DejaVuSans-Oblique-54" transform="translate(946.484375 0.015625)"/>
      <use xlink:href="#DejaVuSans-5d" transform="translate(1007.568359 0.015625)"/>
     </g>
    </g>
    <g id="line2d_28">
     <path d="M 405.307031 112.677188 
L 420.307031 112.677188 
L 435.307031 112.677188 
" style="fill: none; stroke: #d62728; stroke-width: 2; stroke-linecap: square"/>
    </g>
    <g id="text_17">
     <!-- Absolute field $[\mu T]$ -->
     <g style="fill: #808080" transform="translate(447.307031 117.927188) scale(0.15 -0.15)">
      <defs>
       <path id="DejaVuSans-41" d="M 2188 4044 
L 1331 1722 
L 3047 1722 
L 2188 4044 
z
M 1831 4666 
L 2547 4666 
L 4325 0 
L 3669 0 
L 3244 1197 
L 1141 1197 
L 716 0 
L 50 0 
L 1831 4666 
z
" transform="scale(0.015625)"/>
       <path id="DejaVuSans-62" d="M 3116 1747 
Q 3116 2381 2855 2742 
Q 2594 3103 2138 3103 
Q 1681 3103 1420 2742 
Q 1159 2381 1159 1747 
Q 1159 1113 1420 752 
Q 1681 391 2138 391 
Q 2594 391 2855 752 
Q 3116 1113 3116 1747 
z
M 1159 2969 
Q 1341 3281 1617 3432 
Q 1894 3584 2278 3584 
Q 2916 3584 3314 3078 
Q 3713 2572 3713 1747 
Q 3713 922 3314 415 
Q 2916 -91 2278 -91 
Q 1894 -91 1617 61 
Q 1341 213 1159 525 
L 1159 0 
L 581 0 
L 581 4863 
L 1159 4863 
L 1159 2969 
z
" transform="scale(0.015625)"/>
       <path id="DejaVuSans-75" d="M 544 1381 
L 544 3500 
L 1119 3500 
L 1119 1403 
Q 1119 906 1312 657 
Q 1506 409 1894 409 
Q 2359 409 2629 706 
Q 2900 1003 2900 1516 
L 2900 3500 
L 3475 3500 
L 3475 0 
L 2900 0 
L 2900 538 
Q 2691 219 2414 64 
Q 2138 -91 1772 -91 
Q 1169 -91 856 284 
Q 544 659 544 1381 
z
M 1991 3584 
L 1991 3584 
z
" transform="scale(0.015625)"/>
      </defs>
      <use xlink:href="#DejaVuSans-41" transform="translate(0 0.015625)"/>
      <use xlink:href="#DejaVuSans-62" transform="translate(68.408203 0.015625)"/>
      <use xlink:href="#DejaVuSans-73" transform="translate(131.884766 0.015625)"/>
      <use xlink:href="#DejaVuSans-6f" transform="translate(183.984375 0.015625)"/>
      <use xlink:href="#DejaVuSans-6c" transform="translate(245.166016 0.015625)"/>
      <use xlink:href="#DejaVuSans-75" transform="translate(272.949219 0.015625)"/>
      <use xlink:href="#DejaVuSans-74" transform="translate(336.328125 0.015625)"/>
      <use xlink:href="#DejaVuSans-65" transform="translate(375.537109 0.015625)"/>
      <use xlink:href="#DejaVuSans-20" transform="translate(437.060547 0.015625)"/>
      <use xlink:href="#DejaVuSans-66" transform="translate(468.847656 0.015625)"/>
      <use xlink:href="#DejaVuSans-69" transform="translate(504.052734 0.015625)"/>
      <use xlink:href="#DejaVuSans-65" transform="translate(531.835938 0.015625)"/>
      <use xlink:href="#DejaVuSans-6c" transform="translate(593.359375 0.015625)"/>
      <use xlink:href="#DejaVuSans-64" transform="translate(621.142578 0.015625)"/>
      <use xlink:href="#DejaVuSans-20" transform="translate(684.619141 0.015625)"/>
      <use xlink:href="#DejaVuSans-5b" transform="translate(716.40625 0.015625)"/>
      <use xlink:href="#DejaVuSans-Oblique-3bc" transform="translate(755.419922 0.015625)"/>
      <use xlink:href="#DejaVuSans-Oblique-54" transform="translate(819.042969 0.015625)"/>
      <use xlink:href="#DejaVuSans-5d" transform="translate(880.126953 0.015625)"/>
     </g>
    </g>
   </g>
  </g>
 </g>
 <defs>
  <clipPath id="p7cdd6449e3">
   <rect x="60.907031" y="26.877187" width="558" height="388.08"/>
  </clipPath>
 </defs>
</svg>
