<?xml version="1.0" encoding="utf-8" standalone="no"?>
<!DOCTYPE svg PUBLIC "-//W3C//DTD SVG 1.1//EN"
  "http://www.w3.org/Graphics/SVG/1.1/DTD/svg11.dtd">
<svg xmlns:xlink="http://www.w3.org/1999/xlink" width="460.8pt" height="345.6pt" viewBox="0 0 460.8 345.6" xmlns="http://www.w3.org/2000/svg" version="1.1">
 <metadata>
  <rdf:RDF xmlns:dc="http://purl.org/dc/elements/1.1/" xmlns:cc="http://creativecommons.org/ns#" xmlns:rdf="http://www.w3.org/1999/02/22-rdf-syntax-ns#">
   <cc:Work>
    <dc:type rdf:resource="http://purl.org/dc/dcmitype/StillImage"/>
    <dc:date>2023-04-17T16:36:09.862751</dc:date>
    <dc:format>image/svg+xml</dc:format>
    <dc:creator>
     <cc:Agent>
      <dc:title>Matplotlib v3.7.1, https://matplotlib.org/</dc:title>
     </cc:Agent>
    </dc:creator>
   </cc:Work>
  </rdf:RDF>
 </metadata>
 <defs>
  <style type="text/css">*{stroke-linejoin: round; stroke-linecap: butt}</style>
 </defs>
 <g id="figure_1">
  <g id="patch_1">
   <path d="M 0 345.6 
L 460.8 345.6 
L 460.8 0 
L 0 0 
z
" style="fill: #ffffff"/>
  </g>
  <g id="axes_1">
   <g id="patch_2">
    <path d="M 57.6 307.584 
L 414.72 307.584 
L 414.72 41.472 
L 57.6 41.472 
z
" style="fill: #ffffff"/>
   </g>
   <g id="matplotlib.axis_1">
    <g id="xtick_1">
     <g id="line2d_1">
      <defs>
       <path id="m19053b10bc" d="M 0 0 
L 0 3.5 
" style="stroke: #000000; stroke-width: 0.8"/>
      </defs>
      <g>
       <use xlink:href="#m19053b10bc" x="103.603528" y="307.584" style="stroke: #000000; stroke-width: 0.8"/>
      </g>
     </g>
     <g id="text_1">
      <!-- 30 -->
      <g transform="translate(97.241028 322.182437) scale(0.1 -0.1)">
       <defs>
        <path id="DejaVuSans-33" d="M 2597 2516 
Q 3050 2419 3304 2112 
Q 3559 1806 3559 1356 
Q 3559 666 3084 287 
Q 2609 -91 1734 -91 
Q 1441 -91 1130 -33 
Q 819 25 488 141 
L 488 750 
Q 750 597 1062 519 
Q 1375 441 1716 441 
Q 2309 441 2620 675 
Q 2931 909 2931 1356 
Q 2931 1769 2642 2001 
Q 2353 2234 1838 2234 
L 1294 2234 
L 1294 2753 
L 1863 2753 
Q 2328 2753 2575 2939 
Q 2822 3125 2822 3475 
Q 2822 3834 2567 4026 
Q 2313 4219 1838 4219 
Q 1578 4219 1281 4162 
Q 984 4106 628 3988 
L 628 4550 
Q 988 4650 1302 4700 
Q 1616 4750 1894 4750 
Q 2613 4750 3031 4423 
Q 3450 4097 3450 3541 
Q 3450 3153 3228 2886 
Q 3006 2619 2597 2516 
z
" transform="scale(0.015625)"/>
        <path id="DejaVuSans-30" d="M 2034 4250 
Q 1547 4250 1301 3770 
Q 1056 3291 1056 2328 
Q 1056 1369 1301 889 
Q 1547 409 2034 409 
Q 2525 409 2770 889 
Q 3016 1369 3016 2328 
Q 3016 3291 2770 3770 
Q 2525 4250 2034 4250 
z
M 2034 4750 
Q 2819 4750 3233 4129 
Q 3647 3509 3647 2328 
Q 3647 1150 3233 529 
Q 2819 -91 2034 -91 
Q 1250 -91 836 529 
Q 422 1150 422 2328 
Q 422 3509 836 4129 
Q 1250 4750 2034 4750 
z
" transform="scale(0.015625)"/>
       </defs>
       <use xlink:href="#DejaVuSans-33"/>
       <use xlink:href="#DejaVuSans-30" x="63.623047"/>
      </g>
     </g>
    </g>
    <g id="xtick_2">
     <g id="line2d_2">
      <g>
       <use xlink:href="#m19053b10bc" x="172.827167" y="307.584" style="stroke: #000000; stroke-width: 0.8"/>
      </g>
     </g>
     <g id="text_2">
      <!-- 35 -->
      <g transform="translate(166.464667 322.182437) scale(0.1 -0.1)">
       <defs>
        <path id="DejaVuSans-35" d="M 691 4666 
L 3169 4666 
L 3169 4134 
L 1269 4134 
L 1269 2991 
Q 1406 3038 1543 3061 
Q 1681 3084 1819 3084 
Q 2600 3084 3056 2656 
Q 3513 2228 3513 1497 
Q 3513 744 3044 326 
Q 2575 -91 1722 -91 
Q 1428 -91 1123 -41 
Q 819 9 494 109 
L 494 744 
Q 775 591 1075 516 
Q 1375 441 1709 441 
Q 2250 441 2565 725 
Q 2881 1009 2881 1497 
Q 2881 1984 2565 2268 
Q 2250 2553 1709 2553 
Q 1456 2553 1204 2497 
Q 953 2441 691 2322 
L 691 4666 
z
" transform="scale(0.015625)"/>
       </defs>
       <use xlink:href="#DejaVuSans-33"/>
       <use xlink:href="#DejaVuSans-35" x="63.623047"/>
      </g>
     </g>
    </g>
    <g id="xtick_3">
     <g id="line2d_3">
      <g>
       <use xlink:href="#m19053b10bc" x="242.050806" y="307.584" style="stroke: #000000; stroke-width: 0.8"/>
      </g>
     </g>
     <g id="text_3">
      <!-- 40 -->
      <g transform="translate(235.688306 322.182437) scale(0.1 -0.1)">
       <defs>
        <path id="DejaVuSans-34" d="M 2419 4116 
L 825 1625 
L 2419 1625 
L 2419 4116 
z
M 2253 4666 
L 3047 4666 
L 3047 1625 
L 3713 1625 
L 3713 1100 
L 3047 1100 
L 3047 0 
L 2419 0 
L 2419 1100 
L 313 1100 
L 313 1709 
L 2253 4666 
z
" transform="scale(0.015625)"/>
       </defs>
       <use xlink:href="#DejaVuSans-34"/>
       <use xlink:href="#DejaVuSans-30" x="63.623047"/>
      </g>
     </g>
    </g>
    <g id="xtick_4">
     <g id="line2d_4">
      <g>
       <use xlink:href="#m19053b10bc" x="311.274444" y="307.584" style="stroke: #000000; stroke-width: 0.8"/>
      </g>
     </g>
     <g id="text_4">
      <!-- 45 -->
      <g transform="translate(304.911944 322.182437) scale(0.1 -0.1)">
       <use xlink:href="#DejaVuSans-34"/>
       <use xlink:href="#DejaVuSans-35" x="63.623047"/>
      </g>
     </g>
    </g>
    <g id="xtick_5">
     <g id="line2d_5">
      <g>
       <use xlink:href="#m19053b10bc" x="380.498083" y="307.584" style="stroke: #000000; stroke-width: 0.8"/>
      </g>
     </g>
     <g id="text_5">
      <!-- 50 -->
      <g transform="translate(374.135583 322.182437) scale(0.1 -0.1)">
       <use xlink:href="#DejaVuSans-35"/>
       <use xlink:href="#DejaVuSans-30" x="63.623047"/>
      </g>
     </g>
    </g>
    <g id="text_6">
     <!-- time [s] -->
     <g transform="translate(216.768594 335.860562) scale(0.1 -0.1)">
      <defs>
       <path id="DejaVuSans-74" d="M 1172 4494 
L 1172 3500 
L 2356 3500 
L 2356 3053 
L 1172 3053 
L 1172 1153 
Q 1172 725 1289 603 
Q 1406 481 1766 481 
L 2356 481 
L 2356 0 
L 1766 0 
Q 1100 0 847 248 
Q 594 497 594 1153 
L 594 3053 
L 172 3053 
L 172 3500 
L 594 3500 
L 594 4494 
L 1172 4494 
z
" transform="scale(0.015625)"/>
       <path id="DejaVuSans-69" d="M 603 3500 
L 1178 3500 
L 1178 0 
L 603 0 
L 603 3500 
z
M 603 4863 
L 1178 4863 
L 1178 4134 
L 603 4134 
L 603 4863 
z
" transform="scale(0.015625)"/>
       <path id="DejaVuSans-6d" d="M 3328 2828 
Q 3544 3216 3844 3400 
Q 4144 3584 4550 3584 
Q 5097 3584 5394 3201 
Q 5691 2819 5691 2113 
L 5691 0 
L 5113 0 
L 5113 2094 
Q 5113 2597 4934 2840 
Q 4756 3084 4391 3084 
Q 3944 3084 3684 2787 
Q 3425 2491 3425 1978 
L 3425 0 
L 2847 0 
L 2847 2094 
Q 2847 2600 2669 2842 
Q 2491 3084 2119 3084 
Q 1678 3084 1418 2786 
Q 1159 2488 1159 1978 
L 1159 0 
L 581 0 
L 581 3500 
L 1159 3500 
L 1159 2956 
Q 1356 3278 1631 3431 
Q 1906 3584 2284 3584 
Q 2666 3584 2933 3390 
Q 3200 3197 3328 2828 
z
" transform="scale(0.015625)"/>
       <path id="DejaVuSans-65" d="M 3597 1894 
L 3597 1613 
L 953 1613 
Q 991 1019 1311 708 
Q 1631 397 2203 397 
Q 2534 397 2845 478 
Q 3156 559 3463 722 
L 3463 178 
Q 3153 47 2828 -22 
Q 2503 -91 2169 -91 
Q 1331 -91 842 396 
Q 353 884 353 1716 
Q 353 2575 817 3079 
Q 1281 3584 2069 3584 
Q 2775 3584 3186 3129 
Q 3597 2675 3597 1894 
z
M 3022 2063 
Q 3016 2534 2758 2815 
Q 2500 3097 2075 3097 
Q 1594 3097 1305 2825 
Q 1016 2553 972 2059 
L 3022 2063 
z
" transform="scale(0.015625)"/>
       <path id="DejaVuSans-20" transform="scale(0.015625)"/>
       <path id="DejaVuSans-5b" d="M 550 4863 
L 1875 4863 
L 1875 4416 
L 1125 4416 
L 1125 -397 
L 1875 -397 
L 1875 -844 
L 550 -844 
L 550 4863 
z
" transform="scale(0.015625)"/>
       <path id="DejaVuSans-73" d="M 2834 3397 
L 2834 2853 
Q 2591 2978 2328 3040 
Q 2066 3103 1784 3103 
Q 1356 3103 1142 2972 
Q 928 2841 928 2578 
Q 928 2378 1081 2264 
Q 1234 2150 1697 2047 
L 1894 2003 
Q 2506 1872 2764 1633 
Q 3022 1394 3022 966 
Q 3022 478 2636 193 
Q 2250 -91 1575 -91 
Q 1294 -91 989 -36 
Q 684 19 347 128 
L 347 722 
Q 666 556 975 473 
Q 1284 391 1588 391 
Q 1994 391 2212 530 
Q 2431 669 2431 922 
Q 2431 1156 2273 1281 
Q 2116 1406 1581 1522 
L 1381 1569 
Q 847 1681 609 1914 
Q 372 2147 372 2553 
Q 372 3047 722 3315 
Q 1072 3584 1716 3584 
Q 2034 3584 2315 3537 
Q 2597 3491 2834 3397 
z
" transform="scale(0.015625)"/>
       <path id="DejaVuSans-5d" d="M 1947 4863 
L 1947 -844 
L 622 -844 
L 622 -397 
L 1369 -397 
L 1369 4416 
L 622 4416 
L 622 4863 
L 1947 4863 
z
" transform="scale(0.015625)"/>
      </defs>
      <use xlink:href="#DejaVuSans-74"/>
      <use xlink:href="#DejaVuSans-69" x="39.208984"/>
      <use xlink:href="#DejaVuSans-6d" x="66.992188"/>
      <use xlink:href="#DejaVuSans-65" x="164.404297"/>
      <use xlink:href="#DejaVuSans-20" x="225.927734"/>
      <use xlink:href="#DejaVuSans-5b" x="257.714844"/>
      <use xlink:href="#DejaVuSans-73" x="296.728516"/>
      <use xlink:href="#DejaVuSans-5d" x="348.828125"/>
     </g>
    </g>
   </g>
   <g id="matplotlib.axis_2">
    <g id="ytick_1">
     <g id="line2d_6">
      <defs>
       <path id="m0acd556cfe" d="M 0 0 
L -3.5 0 
" style="stroke: #000000; stroke-width: 0.8"/>
      </defs>
      <g>
       <use xlink:href="#m0acd556cfe" x="57.6" y="298.649608" style="stroke: #000000; stroke-width: 0.8"/>
      </g>
     </g>
     <g id="text_7">
      <!-- −18 -->
      <g transform="translate(29.495313 302.448827) scale(0.1 -0.1)">
       <defs>
        <path id="DejaVuSans-2212" d="M 678 2272 
L 4684 2272 
L 4684 1741 
L 678 1741 
L 678 2272 
z
" transform="scale(0.015625)"/>
        <path id="DejaVuSans-31" d="M 794 531 
L 1825 531 
L 1825 4091 
L 703 3866 
L 703 4441 
L 1819 4666 
L 2450 4666 
L 2450 531 
L 3481 531 
L 3481 0 
L 794 0 
L 794 531 
z
" transform="scale(0.015625)"/>
        <path id="DejaVuSans-38" d="M 2034 2216 
Q 1584 2216 1326 1975 
Q 1069 1734 1069 1313 
Q 1069 891 1326 650 
Q 1584 409 2034 409 
Q 2484 409 2743 651 
Q 3003 894 3003 1313 
Q 3003 1734 2745 1975 
Q 2488 2216 2034 2216 
z
M 1403 2484 
Q 997 2584 770 2862 
Q 544 3141 544 3541 
Q 544 4100 942 4425 
Q 1341 4750 2034 4750 
Q 2731 4750 3128 4425 
Q 3525 4100 3525 3541 
Q 3525 3141 3298 2862 
Q 3072 2584 2669 2484 
Q 3125 2378 3379 2068 
Q 3634 1759 3634 1313 
Q 3634 634 3220 271 
Q 2806 -91 2034 -91 
Q 1263 -91 848 271 
Q 434 634 434 1313 
Q 434 1759 690 2068 
Q 947 2378 1403 2484 
z
M 1172 3481 
Q 1172 3119 1398 2916 
Q 1625 2713 2034 2713 
Q 2441 2713 2670 2916 
Q 2900 3119 2900 3481 
Q 2900 3844 2670 4047 
Q 2441 4250 2034 4250 
Q 1625 4250 1398 4047 
Q 1172 3844 1172 3481 
z
" transform="scale(0.015625)"/>
       </defs>
       <use xlink:href="#DejaVuSans-2212"/>
       <use xlink:href="#DejaVuSans-31" x="83.789062"/>
       <use xlink:href="#DejaVuSans-38" x="147.412109"/>
      </g>
     </g>
    </g>
    <g id="ytick_2">
     <g id="line2d_7">
      <g>
       <use xlink:href="#m0acd556cfe" x="57.6" y="267.424049" style="stroke: #000000; stroke-width: 0.8"/>
      </g>
     </g>
     <g id="text_8">
      <!-- −16 -->
      <g transform="translate(29.495313 271.223268) scale(0.1 -0.1)">
       <defs>
        <path id="DejaVuSans-36" d="M 2113 2584 
Q 1688 2584 1439 2293 
Q 1191 2003 1191 1497 
Q 1191 994 1439 701 
Q 1688 409 2113 409 
Q 2538 409 2786 701 
Q 3034 994 3034 1497 
Q 3034 2003 2786 2293 
Q 2538 2584 2113 2584 
z
M 3366 4563 
L 3366 3988 
Q 3128 4100 2886 4159 
Q 2644 4219 2406 4219 
Q 1781 4219 1451 3797 
Q 1122 3375 1075 2522 
Q 1259 2794 1537 2939 
Q 1816 3084 2150 3084 
Q 2853 3084 3261 2657 
Q 3669 2231 3669 1497 
Q 3669 778 3244 343 
Q 2819 -91 2113 -91 
Q 1303 -91 875 529 
Q 447 1150 447 2328 
Q 447 3434 972 4092 
Q 1497 4750 2381 4750 
Q 2619 4750 2861 4703 
Q 3103 4656 3366 4563 
z
" transform="scale(0.015625)"/>
       </defs>
       <use xlink:href="#DejaVuSans-2212"/>
       <use xlink:href="#DejaVuSans-31" x="83.789062"/>
       <use xlink:href="#DejaVuSans-36" x="147.412109"/>
      </g>
     </g>
    </g>
    <g id="ytick_3">
     <g id="line2d_8">
      <g>
       <use xlink:href="#m0acd556cfe" x="57.6" y="236.19849" style="stroke: #000000; stroke-width: 0.8"/>
      </g>
     </g>
     <g id="text_9">
      <!-- −14 -->
      <g transform="translate(29.495313 239.997708) scale(0.1 -0.1)">
       <use xlink:href="#DejaVuSans-2212"/>
       <use xlink:href="#DejaVuSans-31" x="83.789062"/>
       <use xlink:href="#DejaVuSans-34" x="147.412109"/>
      </g>
     </g>
    </g>
    <g id="ytick_4">
     <g id="line2d_9">
      <g>
       <use xlink:href="#m0acd556cfe" x="57.6" y="204.97293" style="stroke: #000000; stroke-width: 0.8"/>
      </g>
     </g>
     <g id="text_10">
      <!-- −12 -->
      <g transform="translate(29.495313 208.772149) scale(0.1 -0.1)">
       <defs>
        <path id="DejaVuSans-32" d="M 1228 531 
L 3431 531 
L 3431 0 
L 469 0 
L 469 531 
Q 828 903 1448 1529 
Q 2069 2156 2228 2338 
Q 2531 2678 2651 2914 
Q 2772 3150 2772 3378 
Q 2772 3750 2511 3984 
Q 2250 4219 1831 4219 
Q 1534 4219 1204 4116 
Q 875 4013 500 3803 
L 500 4441 
Q 881 4594 1212 4672 
Q 1544 4750 1819 4750 
Q 2544 4750 2975 4387 
Q 3406 4025 3406 3419 
Q 3406 3131 3298 2873 
Q 3191 2616 2906 2266 
Q 2828 2175 2409 1742 
Q 1991 1309 1228 531 
z
" transform="scale(0.015625)"/>
       </defs>
       <use xlink:href="#DejaVuSans-2212"/>
       <use xlink:href="#DejaVuSans-31" x="83.789062"/>
       <use xlink:href="#DejaVuSans-32" x="147.412109"/>
      </g>
     </g>
    </g>
    <g id="ytick_5">
     <g id="line2d_10">
      <g>
       <use xlink:href="#m0acd556cfe" x="57.6" y="173.747371" style="stroke: #000000; stroke-width: 0.8"/>
      </g>
     </g>
     <g id="text_11">
      <!-- −10 -->
      <g transform="translate(29.495313 177.54659) scale(0.1 -0.1)">
       <use xlink:href="#DejaVuSans-2212"/>
       <use xlink:href="#DejaVuSans-31" x="83.789062"/>
       <use xlink:href="#DejaVuSans-30" x="147.412109"/>
      </g>
     </g>
    </g>
    <g id="ytick_6">
     <g id="line2d_11">
      <g>
       <use xlink:href="#m0acd556cfe" x="57.6" y="142.521812" style="stroke: #000000; stroke-width: 0.8"/>
      </g>
     </g>
     <g id="text_12">
      <!-- −8 -->
      <g transform="translate(35.857813 146.321031) scale(0.1 -0.1)">
       <use xlink:href="#DejaVuSans-2212"/>
       <use xlink:href="#DejaVuSans-38" x="83.789062"/>
      </g>
     </g>
    </g>
    <g id="ytick_7">
     <g id="line2d_12">
      <g>
       <use xlink:href="#m0acd556cfe" x="57.6" y="111.296253" style="stroke: #000000; stroke-width: 0.8"/>
      </g>
     </g>
     <g id="text_13">
      <!-- −6 -->
      <g transform="translate(35.857813 115.095471) scale(0.1 -0.1)">
       <use xlink:href="#DejaVuSans-2212"/>
       <use xlink:href="#DejaVuSans-36" x="83.789062"/>
      </g>
     </g>
    </g>
    <g id="ytick_8">
     <g id="line2d_13">
      <g>
       <use xlink:href="#m0acd556cfe" x="57.6" y="80.070693" style="stroke: #000000; stroke-width: 0.8"/>
      </g>
     </g>
     <g id="text_14">
      <!-- −4 -->
      <g transform="translate(35.857813 83.869912) scale(0.1 -0.1)">
       <use xlink:href="#DejaVuSans-2212"/>
       <use xlink:href="#DejaVuSans-34" x="83.789062"/>
      </g>
     </g>
    </g>
    <g id="ytick_9">
     <g id="line2d_14">
      <g>
       <use xlink:href="#m0acd556cfe" x="57.6" y="48.845134" style="stroke: #000000; stroke-width: 0.8"/>
      </g>
     </g>
     <g id="text_15">
      <!-- −2 -->
      <g transform="translate(35.857813 52.644353) scale(0.1 -0.1)">
       <use xlink:href="#DejaVuSans-2212"/>
       <use xlink:href="#DejaVuSans-32" x="83.789062"/>
      </g>
     </g>
    </g>
    <g id="text_16">
     <!-- Magnetic field $[\mu T]$ -->
     <g transform="translate(23.395312 221.528) rotate(-90) scale(0.1 -0.1)">
      <defs>
       <path id="DejaVuSans-4d" d="M 628 4666 
L 1569 4666 
L 2759 1491 
L 3956 4666 
L 4897 4666 
L 4897 0 
L 4281 0 
L 4281 4097 
L 3078 897 
L 2444 897 
L 1241 4097 
L 1241 0 
L 628 0 
L 628 4666 
z
" transform="scale(0.015625)"/>
       <path id="DejaVuSans-61" d="M 2194 1759 
Q 1497 1759 1228 1600 
Q 959 1441 959 1056 
Q 959 750 1161 570 
Q 1363 391 1709 391 
Q 2188 391 2477 730 
Q 2766 1069 2766 1631 
L 2766 1759 
L 2194 1759 
z
M 3341 1997 
L 3341 0 
L 2766 0 
L 2766 531 
Q 2569 213 2275 61 
Q 1981 -91 1556 -91 
Q 1019 -91 701 211 
Q 384 513 384 1019 
Q 384 1609 779 1909 
Q 1175 2209 1959 2209 
L 2766 2209 
L 2766 2266 
Q 2766 2663 2505 2880 
Q 2244 3097 1772 3097 
Q 1472 3097 1187 3025 
Q 903 2953 641 2809 
L 641 3341 
Q 956 3463 1253 3523 
Q 1550 3584 1831 3584 
Q 2591 3584 2966 3190 
Q 3341 2797 3341 1997 
z
" transform="scale(0.015625)"/>
       <path id="DejaVuSans-67" d="M 2906 1791 
Q 2906 2416 2648 2759 
Q 2391 3103 1925 3103 
Q 1463 3103 1205 2759 
Q 947 2416 947 1791 
Q 947 1169 1205 825 
Q 1463 481 1925 481 
Q 2391 481 2648 825 
Q 2906 1169 2906 1791 
z
M 3481 434 
Q 3481 -459 3084 -895 
Q 2688 -1331 1869 -1331 
Q 1566 -1331 1297 -1286 
Q 1028 -1241 775 -1147 
L 775 -588 
Q 1028 -725 1275 -790 
Q 1522 -856 1778 -856 
Q 2344 -856 2625 -561 
Q 2906 -266 2906 331 
L 2906 616 
Q 2728 306 2450 153 
Q 2172 0 1784 0 
Q 1141 0 747 490 
Q 353 981 353 1791 
Q 353 2603 747 3093 
Q 1141 3584 1784 3584 
Q 2172 3584 2450 3431 
Q 2728 3278 2906 2969 
L 2906 3500 
L 3481 3500 
L 3481 434 
z
" transform="scale(0.015625)"/>
       <path id="DejaVuSans-6e" d="M 3513 2113 
L 3513 0 
L 2938 0 
L 2938 2094 
Q 2938 2591 2744 2837 
Q 2550 3084 2163 3084 
Q 1697 3084 1428 2787 
Q 1159 2491 1159 1978 
L 1159 0 
L 581 0 
L 581 3500 
L 1159 3500 
L 1159 2956 
Q 1366 3272 1645 3428 
Q 1925 3584 2291 3584 
Q 2894 3584 3203 3211 
Q 3513 2838 3513 2113 
z
" transform="scale(0.015625)"/>
       <path id="DejaVuSans-63" d="M 3122 3366 
L 3122 2828 
Q 2878 2963 2633 3030 
Q 2388 3097 2138 3097 
Q 1578 3097 1268 2742 
Q 959 2388 959 1747 
Q 959 1106 1268 751 
Q 1578 397 2138 397 
Q 2388 397 2633 464 
Q 2878 531 3122 666 
L 3122 134 
Q 2881 22 2623 -34 
Q 2366 -91 2075 -91 
Q 1284 -91 818 406 
Q 353 903 353 1747 
Q 353 2603 823 3093 
Q 1294 3584 2113 3584 
Q 2378 3584 2631 3529 
Q 2884 3475 3122 3366 
z
" transform="scale(0.015625)"/>
       <path id="DejaVuSans-66" d="M 2375 4863 
L 2375 4384 
L 1825 4384 
Q 1516 4384 1395 4259 
Q 1275 4134 1275 3809 
L 1275 3500 
L 2222 3500 
L 2222 3053 
L 1275 3053 
L 1275 0 
L 697 0 
L 697 3053 
L 147 3053 
L 147 3500 
L 697 3500 
L 697 3744 
Q 697 4328 969 4595 
Q 1241 4863 1831 4863 
L 2375 4863 
z
" transform="scale(0.015625)"/>
       <path id="DejaVuSans-6c" d="M 603 4863 
L 1178 4863 
L 1178 0 
L 603 0 
L 603 4863 
z
" transform="scale(0.015625)"/>
       <path id="DejaVuSans-64" d="M 2906 2969 
L 2906 4863 
L 3481 4863 
L 3481 0 
L 2906 0 
L 2906 525 
Q 2725 213 2448 61 
Q 2172 -91 1784 -91 
Q 1150 -91 751 415 
Q 353 922 353 1747 
Q 353 2572 751 3078 
Q 1150 3584 1784 3584 
Q 2172 3584 2448 3432 
Q 2725 3281 2906 2969 
z
M 947 1747 
Q 947 1113 1208 752 
Q 1469 391 1925 391 
Q 2381 391 2643 752 
Q 2906 1113 2906 1747 
Q 2906 2381 2643 2742 
Q 2381 3103 1925 3103 
Q 1469 3103 1208 2742 
Q 947 2381 947 1747 
z
" transform="scale(0.015625)"/>
       <path id="DejaVuSans-Oblique-3bc" d="M -84 -1331 
L 856 3500 
L 1434 3500 
L 1009 1322 
Q 997 1256 987 1175 
Q 978 1094 978 1013 
Q 978 722 1161 565 
Q 1344 409 1684 409 
Q 2147 409 2431 671 
Q 2716 934 2816 1459 
L 3213 3500 
L 3788 3500 
L 3266 809 
Q 3253 750 3248 706 
Q 3244 663 3244 628 
Q 3244 531 3283 486 
Q 3322 441 3406 441 
Q 3438 441 3492 456 
Q 3547 472 3647 513 
L 3559 50 
Q 3422 -19 3297 -55 
Q 3172 -91 3053 -91 
Q 2847 -91 2730 40 
Q 2613 172 2613 403 
Q 2438 153 2195 31 
Q 1953 -91 1625 -91 
Q 1334 -91 1117 43 
Q 900 178 831 397 
L 494 -1331 
L -84 -1331 
z
" transform="scale(0.015625)"/>
       <path id="DejaVuSans-Oblique-54" d="M 378 4666 
L 4325 4666 
L 4225 4134 
L 2559 4134 
L 1759 0 
L 1125 0 
L 1925 4134 
L 275 4134 
L 378 4666 
z
" transform="scale(0.015625)"/>
      </defs>
      <use xlink:href="#DejaVuSans-4d" transform="translate(0 0.015625)"/>
      <use xlink:href="#DejaVuSans-61" transform="translate(86.279297 0.015625)"/>
      <use xlink:href="#DejaVuSans-67" transform="translate(147.558594 0.015625)"/>
      <use xlink:href="#DejaVuSans-6e" transform="translate(211.035156 0.015625)"/>
      <use xlink:href="#DejaVuSans-65" transform="translate(274.414062 0.015625)"/>
      <use xlink:href="#DejaVuSans-74" transform="translate(335.9375 0.015625)"/>
      <use xlink:href="#DejaVuSans-69" transform="translate(375.146484 0.015625)"/>
      <use xlink:href="#DejaVuSans-63" transform="translate(402.929688 0.015625)"/>
      <use xlink:href="#DejaVuSans-20" transform="translate(457.910156 0.015625)"/>
      <use xlink:href="#DejaVuSans-66" transform="translate(489.697266 0.015625)"/>
      <use xlink:href="#DejaVuSans-69" transform="translate(524.902344 0.015625)"/>
      <use xlink:href="#DejaVuSans-65" transform="translate(552.685547 0.015625)"/>
      <use xlink:href="#DejaVuSans-6c" transform="translate(614.208984 0.015625)"/>
      <use xlink:href="#DejaVuSans-64" transform="translate(641.992188 0.015625)"/>
      <use xlink:href="#DejaVuSans-20" transform="translate(705.46875 0.015625)"/>
      <use xlink:href="#DejaVuSans-5b" transform="translate(737.255859 0.015625)"/>
      <use xlink:href="#DejaVuSans-Oblique-3bc" transform="translate(776.269531 0.015625)"/>
      <use xlink:href="#DejaVuSans-Oblique-54" transform="translate(839.892578 0.015625)"/>
      <use xlink:href="#DejaVuSans-5d" transform="translate(900.976562 0.015625)"/>
     </g>
    </g>
   </g>
   <g id="line2d_15">
    <path d="M 73.832727 58.251833 
L 74.659493 58.251833 
L 74.798009 56.612491 
L 75.213268 56.612491 
L 75.35148 58.251833 
L 75.491187 58.251833 
L 75.629427 56.612491 
L 77.706108 56.612491 
L 77.844113 55.090244 
L 78.25933 55.090244 
L 78.398386 56.612491 
L 79.369442 56.612491 
L 79.509453 55.090244 
L 80.225378 55.090244 
L 80.474375 56.612491 
L 83.520852 56.612491 
L 83.65876 55.090244 
L 89.057553 55.090244 
L 89.195889 56.612491 
L 91.55031 56.612491 
L 91.688909 58.251833 
L 96.534357 58.251833 
L 96.672499 56.612491 
L 98.475526 56.612491 
L 98.61119 55.090244 
L 99.580349 55.090244 
L 99.735604 56.612491 
L 100.965334 56.612491 
L 101.104113 55.090244 
L 101.520452 55.090244 
L 101.65703 56.612491 
L 101.795907 56.612491 
L 101.936597 55.090244 
L 102.902682 55.090244 
L 103.041323 56.612491 
L 103.179217 56.612491 
L 103.318038 55.090244 
L 105.672791 55.090244 
L 105.811196 56.612491 
L 105.948758 56.612491 
L 106.105743 55.090244 
L 109.547833 55.090244 
L 109.686668 56.612491 
L 110.662513 56.612491 
L 110.794606 58.251833 
L 110.932084 58.251833 
L 111.076319 56.612491 
L 112.871066 56.612491 
L 113.010081 58.251833 
L 113.148251 58.251833 
L 113.286394 56.612491 
L 118.131869 56.612491 
L 118.269776 55.090244 
L 119.794537 55.090244 
L 119.931946 56.612491 
L 122.285287 56.612491 
L 122.423499 58.251833 
L 127.546297 58.251833 
L 127.685672 59.77408 
L 128.099339 59.77408 
L 128.23834 58.251833 
L 128.376552 58.251833 
L 128.515345 59.77408 
L 129.208952 59.77408 
L 129.34589 61.296324 
L 131.145913 61.296324 
L 131.284194 62.935666 
L 134.414819 62.935666 
L 134.607565 64.457914 
L 135.575298 64.457914 
L 135.730816 62.935666 
L 136.683984 62.935666 
L 136.822251 64.457914 
L 137.239074 64.457914 
L 137.376497 62.935666 
L 140.30078 62.935666 
L 140.421991 64.457914 
L 140.559912 64.457914 
L 140.698567 62.935666 
L 140.836585 62.935666 
L 140.975766 64.457914 
L 141.133056 64.457914 
L 141.255208 62.935666 
L 144.160192 62.935666 
L 144.300938 64.457914 
L 144.437779 64.457914 
L 144.575479 62.935666 
L 146.098994 62.935666 
L 146.236735 64.457914 
L 146.652063 64.457914 
L 146.791521 62.935666 
L 149.976252 62.935666 
L 150.138332 64.457914 
L 151.637037 64.457914 
L 151.774543 65.980157 
L 152.193014 65.980157 
L 152.334922 64.457914 
L 152.746692 64.457914 
L 152.882952 65.980157 
L 153.02511 65.980157 
L 153.166215 64.457914 
L 156.619824 64.457914 
L 156.758631 62.935666 
L 158.28187 62.935666 
L 158.419749 61.296324 
L 159.666606 61.296324 
L 159.805247 62.935666 
L 159.943957 62.935666 
L 160.081934 61.296324 
L 160.219218 61.296324 
L 160.357499 62.935666 
L 163.542396 62.935666 
L 163.680663 61.296324 
L 166.034488 61.296324 
L 166.172451 62.935666 
L 166.311563 62.935666 
L 166.450771 61.296324 
L 168.526844 61.296324 
L 168.66536 59.77408 
L 168.803517 59.77408 
L 168.94249 61.296324 
L 170.741626 61.296324 
L 170.881029 62.935666 
L 172.404364 62.935666 
L 172.54241 64.457914 
L 172.974587 64.457914 
L 173.11273 62.935666 
L 173.235422 62.935666 
L 173.372665 64.457914 
L 176.002388 64.457914 
L 176.141112 65.980157 
L 178.217585 65.980157 
L 178.36434 64.457914 
L 181.540971 64.457914 
L 181.678684 65.980157 
L 183.202089 65.980157 
L 183.341104 64.457914 
L 193.724539 64.457914 
L 193.863637 65.980157 
L 194.833211 65.980157 
L 194.990321 64.457914 
L 198.432193 64.457914 
L 198.581043 62.935666 
L 199.541212 62.935666 
L 199.678979 64.457914 
L 202.30944 64.457914 
L 202.44742 62.935666 
L 206.462114 62.935666 
L 206.599926 61.296324 
L 209.783836 61.296324 
L 209.922251 62.935666 
L 211.445634 62.935666 
L 211.583502 64.457914 
L 213.106785 64.457914 
L 213.245176 65.980157 
L 215.322195 65.980157 
L 215.460425 67.619499 
L 215.599179 67.619499 
L 215.737766 65.980157 
L 216.429564 65.980157 
L 216.567885 67.619499 
L 216.706635 67.619499 
L 216.844978 65.980157 
L 218.922678 65.980157 
L 219.062952 64.457914 
L 220.30631 64.457914 
L 220.444568 65.980157 
L 221.969011 65.980157 
L 222.106775 64.457914 
L 222.660947 64.457914 
L 222.799076 65.980157 
L 223.846818 65.980157 
L 224.046085 64.457914 
L 225.982062 64.457914 
L 226.142703 62.935666 
L 227.920753 62.935666 
L 228.060668 61.296324 
L 228.751506 61.296324 
L 228.888804 59.77408 
L 229.305046 59.77408 
L 229.444601 58.251833 
L 229.585208 58.251833 
L 229.720845 59.77408 
L 229.858295 59.77408 
L 229.996701 58.251833 
L 232.351025 58.251833 
L 232.488406 59.77408 
L 235.950751 59.77408 
L 236.089406 61.296324 
L 240.381839 61.296324 
L 240.519262 62.935666 
L 241.765703 62.935666 
L 241.904122 64.457914 
L 243.426488 64.457914 
L 243.565268 62.935666 
L 243.705349 62.935666 
L 243.843242 64.457914 
L 244.810975 64.457914 
L 244.965967 62.935666 
L 245.088243 62.935666 
L 245.226345 64.457914 
L 246.242658 64.457914 
L 246.472758 62.935666 
L 248.964684 62.935666 
L 249.102619 61.296324 
L 250.348742 61.296324 
L 250.493087 59.77408 
L 251.45704 59.77408 
L 251.622623 61.296324 
L 254.505967 61.296324 
L 254.641272 59.77408 
L 256.052894 59.77408 
L 256.237389 58.251833 
L 258.378697 58.251833 
L 258.517851 56.612491 
L 258.932265 56.612491 
L 259.072055 58.251833 
L 260.323522 58.251833 
L 260.455725 56.612491 
L 260.594781 56.612491 
L 260.732093 58.251833 
L 262.261133 58.251833 
L 262.410974 59.77408 
L 263.91771 59.77408 
L 264.054814 61.296324 
L 266.685825 61.296324 
L 266.825518 62.935666 
L 267.239655 62.935666 
L 267.378324 61.296324 
L 268.902324 61.296324 
L 269.03929 59.77408 
L 271.119267 59.77408 
L 271.255402 61.296324 
L 273.33182 61.296324 
L 273.469409 62.935666 
L 273.884917 62.935666 
L 274.023835 61.296324 
L 274.438969 61.296324 
L 274.577264 62.935666 
L 278.067534 62.935666 
L 278.315133 64.457914 
L 278.486849 62.935666 
L 279.422628 62.935666 
L 279.562017 61.296324 
L 279.97657 61.296324 
L 280.114934 62.935666 
L 280.255998 62.935666 
L 280.391773 61.296324 
L 288.2845 61.296324 
L 288.421881 59.77408 
L 295.482485 59.77408 
L 295.621472 61.296324 
L 298.528408 61.296324 
L 298.666467 59.77408 
L 298.80551 59.77408 
L 298.944539 61.296324 
L 299.359396 61.296324 
L 299.499588 59.77408 
L 299.636263 59.77408 
L 299.774267 61.296324 
L 299.91295 61.296324 
L 300.051563 59.77408 
L 301.020514 59.77408 
L 301.159003 61.296324 
L 302.127705 61.296324 
L 302.265847 62.935666 
L 302.959524 62.935666 
L 303.097389 61.296324 
L 303.235269 61.296324 
L 303.375862 62.935666 
L 303.790373 62.935666 
L 303.928073 61.296324 
L 304.066368 61.296324 
L 304.204926 62.935666 
L 304.619894 62.935666 
L 304.760114 64.457914 
L 306.558378 64.457914 
L 306.697434 65.980157 
L 310.158422 65.980157 
L 310.296219 64.457914 
L 311.266083 64.457914 
L 311.404046 65.980157 
L 311.542632 65.980157 
L 311.680733 64.457914 
L 311.820108 64.457914 
L 311.959427 65.980157 
L 312.37416 65.980157 
L 312.511112 64.457914 
L 313.767701 64.457914 
L 313.896942 62.935666 
L 314.589053 62.935666 
L 314.727362 64.457914 
L 314.865505 64.457914 
L 315.003911 62.935666 
L 316.803504 62.935666 
L 316.94148 61.296324 
L 318.466089 61.296324 
L 318.602862 62.935666 
L 319.018771 62.935666 
L 319.1569 61.296324 
L 326.771445 61.296324 
L 326.91327 59.77408 
L 328.157953 59.77408 
L 328.304693 58.251833 
L 329.272689 58.251833 
L 329.402317 59.77408 
L 329.818351 59.77408 
L 329.957601 58.251833 
L 334.990561 58.251833 
L 335.217213 56.612491 
L 338.955857 56.612491 
L 339.103774 55.090244 
L 340.086542 55.090244 
L 340.208113 53.568 
L 342.556926 53.568 
L 342.693075 55.090244 
L 344.253902 55.090244 
L 344.496462 56.612491 
L 346.708794 56.612491 
L 346.846937 55.090244 
L 347.262625 55.090244 
L 347.40038 56.612491 
L 348.370452 56.612491 
L 348.510132 58.251833 
L 351.69237 58.251833 
L 351.831869 59.77408 
L 352.799519 59.77408 
L 352.939877 61.296324 
L 354.186013 61.296324 
L 354.325983 62.935666 
L 354.461468 62.935666 
L 354.601701 61.296324 
L 354.738819 61.296324 
L 354.87645 62.935666 
L 356.122683 62.935666 
L 356.26095 64.457914 
L 356.399702 64.457914 
L 356.617992 62.935666 
L 357.535966 62.935666 
L 357.784438 61.296324 
L 358.33867 61.296324 
L 358.476716 62.935666 
L 358.891435 62.935666 
L 359.030436 61.296324 
L 362.770561 61.296324 
L 362.907167 62.935666 
L 363.599182 62.935666 
L 363.736868 61.296324 
L 364.984444 61.296324 
L 365.135781 62.935666 
L 369.13645 62.935666 
L 369.275368 61.296324 
L 372.737464 61.296324 
L 372.874166 62.935666 
L 374.674632 62.935666 
L 374.813328 64.457914 
L 379.658997 64.457914 
L 379.79696 62.935666 
L 383.260107 62.935666 
L 383.396395 61.296324 
L 383.535673 61.296324 
L 383.673483 62.935666 
L 391.56693 62.935666 
L 391.705641 64.457914 
L 397.102869 64.457914 
L 397.244625 62.935666 
L 398.487273 62.935666 
L 398.487273 62.935666 
" clip-path="url(#pf700f0de80)" style="fill: none; stroke: #1f77b4; stroke-width: 1.5; stroke-linecap: square"/>
   </g>
   <g id="line2d_16">
    <path d="M 73.832727 292.443513 
L 74.659493 292.443513 
L 74.798009 290.804178 
L 77.428272 290.804178 
L 77.570901 289.281934 
L 78.813354 289.281934 
L 78.951358 290.804178 
L 80.751215 290.804178 
L 80.889731 292.443513 
L 84.627586 292.443513 
L 84.766573 293.965756 
L 86.842756 293.965756 
L 86.982657 292.443513 
L 89.335264 292.443513 
L 89.473075 293.965756 
L 93.767861 293.965756 
L 93.904717 292.443513 
L 97.088173 292.443513 
L 97.227285 290.804178 
L 99.870382 290.804178 
L 99.998418 292.443513 
L 101.520452 292.443513 
L 101.65703 293.965756 
L 104.853736 293.965756 
L 104.980568 292.443513 
L 105.408979 292.443513 
L 105.547579 293.965756 
L 106.253411 293.965756 
L 106.439138 292.443513 
L 108.717814 292.443513 
L 108.856829 290.804178 
L 109.271395 290.804178 
L 109.410175 292.443513 
L 113.148251 292.443513 
L 113.286394 293.965756 
L 115.364598 293.965756 
L 115.52355 292.443513 
L 115.669362 292.443513 
L 115.782751 293.965756 
L 116.469712 293.965756 
L 116.610029 292.443513 
L 119.794537 292.443513 
L 119.931946 293.965756 
L 122.008545 293.965756 
L 122.147061 292.443513 
L 125.054302 292.443513 
L 125.192112 290.804178 
L 127.271327 290.804178 
L 127.41055 289.281934 
L 127.822749 289.281934 
L 127.961473 287.759691 
L 130.041685 287.759691 
L 130.177723 289.281934 
L 138.068443 289.281934 
L 138.207762 287.759691 
L 139.178693 287.759691 
L 139.314579 289.281934 
L 140.836585 289.281934 
L 140.975766 290.804178 
L 141.133056 290.804178 
L 141.255208 289.281934 
L 141.669553 289.281934 
L 141.807544 290.804178 
L 141.945811 290.804178 
L 142.083511 289.281934 
L 144.160192 289.281934 
L 144.300938 290.804178 
L 144.714272 290.804178 
L 144.852512 289.281934 
L 148.590962 289.281934 
L 148.732815 287.759691 
L 148.86776 287.759691 
L 149.005971 289.281934 
L 150.528739 289.281934 
L 150.667533 290.804178 
L 155.240571 290.804178 
L 155.375003 292.443513 
L 156.066506 292.443513 
L 156.205105 290.804178 
L 158.005058 290.804178 
L 158.142495 289.281934 
L 159.666606 289.281934 
L 159.805247 290.804178 
L 163.819484 290.804178 
L 163.957156 289.281934 
L 167.144891 289.281934 
L 167.280209 287.759691 
L 168.526844 287.759691 
L 168.66536 286.120356 
L 168.803517 286.120356 
L 168.94249 287.759691 
L 169.080176 287.759691 
L 169.218346 286.120356 
L 169.63499 286.120356 
L 169.773658 287.759691 
L 171.295692 287.759691 
L 171.434278 289.281934 
L 176.002388 289.281934 
L 176.141112 290.804178 
L 176.279656 290.804178 
L 176.419543 289.281934 
L 178.51911 289.281934 
L 178.633232 287.759691 
L 179.879244 287.759691 
L 180.018272 289.281934 
L 181.817215 289.281934 
L 181.955856 290.804178 
L 182.64992 290.804178 
L 182.787827 289.281934 
L 189.017636 289.281934 
L 189.155668 287.759691 
L 190.124093 287.759691 
L 190.262665 289.281934 
L 191.233028 289.281934 
L 191.381333 290.804178 
L 198.432193 290.804178 
L 198.581043 289.281934 
L 200.64762 289.281934 
L 200.78555 290.804178 
L 201.487335 290.804178 
L 201.620949 292.443513 
L 202.866823 292.443513 
L 203.003705 290.804178 
L 203.421208 290.804178 
L 203.556968 292.443513 
L 203.69401 292.443513 
L 203.831955 290.804178 
L 204.523029 290.804178 
L 204.661426 292.443513 
L 205.077281 292.443513 
L 205.215294 290.804178 
L 208.676909 290.804178 
L 208.815905 289.281934 
L 211.168989 289.281934 
L 211.30721 290.804178 
L 216.429564 290.804178 
L 216.567885 289.281934 
L 217.813953 289.281934 
L 217.952426 287.759691 
L 219.200063 287.759691 
L 219.338756 286.120356 
L 220.029914 286.120356 
L 220.168297 287.759691 
L 221.421658 287.759691 
L 221.558025 289.281934 
L 226.814393 289.281934 
L 226.95518 290.804178 
L 228.751506 290.804178 
L 228.888804 289.281934 
L 230.967438 289.281934 
L 231.105027 290.804178 
L 236.228088 290.804178 
L 236.370398 289.281934 
L 238.995954 289.281934 
L 239.136201 287.759691 
L 240.934437 287.759691 
L 241.074795 289.281934 
L 242.042888 289.281934 
L 242.183952 290.804178 
L 245.088243 290.804178 
L 245.226345 292.443513 
L 245.365152 292.443513 
L 245.502602 290.804178 
L 245.642005 290.804178 
L 245.779538 292.443513 
L 245.918678 292.443513 
L 246.056585 290.804178 
L 246.750538 290.804178 
L 246.887809 292.443513 
L 248.13472 292.443513 
L 248.272531 290.804178 
L 251.45704 290.804178 
L 251.622623 292.443513 
L 256.719047 292.443513 
L 256.85676 293.965756 
L 256.994017 293.965756 
L 257.132229 292.443513 
L 257.270579 292.443513 
L 257.42391 293.965756 
L 257.824701 293.965756 
L 257.965169 292.443513 
L 260.040799 292.443513 
L 260.203972 290.804178 
L 260.323522 290.804178 
L 260.455725 292.443513 
L 261.424607 292.443513 
L 261.592972 293.965756 
L 263.91771 293.965756 
L 264.054814 292.443513 
L 265.301698 292.443513 
L 265.440962 293.965756 
L 265.865386 293.965756 
L 265.994336 292.443513 
L 268.902324 292.443513 
L 269.03929 290.804178 
L 271.392838 290.804178 
L 271.530829 292.443513 
L 274.992675 292.443513 
L 275.133172 290.804178 
L 278.870445 290.804178 
L 279.007965 289.281934 
L 279.70009 289.281934 
L 279.837818 287.759691 
L 281.084702 287.759691 
L 281.222166 289.281934 
L 284.129849 289.281934 
L 284.269737 290.804178 
L 288.838428 290.804178 
L 288.976418 289.281934 
L 291.329662 289.281934 
L 291.467583 290.804178 
L 292.990337 290.804178 
L 293.130072 289.281934 
L 299.082557 289.281934 
L 299.220409 287.759691 
L 300.743813 287.759691 
L 300.882053 289.281934 
L 302.407936 289.281934 
L 302.544085 290.804178 
L 304.897052 290.804178 
L 305.035305 292.443513 
L 305.72858 292.443513 
L 305.867789 290.804178 
L 309.050789 290.804178 
L 309.191437 289.281934 
L 311.820108 289.281934 
L 311.959427 290.804178 
L 313.203542 290.804178 
L 313.343097 289.281934 
L 313.4807 289.281934 
L 313.620241 290.804178 
L 313.767701 290.804178 
L 313.896942 289.281934 
L 314.035347 289.281934 
L 314.173988 290.804178 
L 314.589053 290.804178 
L 314.727362 289.281934 
L 314.865505 289.281934 
L 315.003911 290.804178 
L 315.419128 290.804178 
L 315.558586 289.281934 
L 317.357584 289.281934 
L 317.495463 290.804178 
L 319.849524 290.804178 
L 319.988303 289.281934 
L 321.234398 289.281934 
L 321.372112 290.804178 
L 322.343582 290.804178 
L 322.479981 292.443513 
L 323.451064 292.443513 
L 323.587143 293.965756 
L 327.22288 293.965756 
L 327.399262 295.488 
L 327.880726 295.488 
L 328.024157 293.965756 
L 328.433324 293.965756 
L 328.571121 295.488 
L 328.709651 295.488 
L 328.849095 293.965756 
L 329.272689 293.965756 
L 329.402317 295.488 
L 329.542065 295.488 
L 329.69487 293.965756 
L 330.374147 293.965756 
L 330.510684 292.443513 
L 332.586936 292.443513 
L 332.724968 293.965756 
L 333.422812 293.965756 
L 333.568458 292.443513 
L 336.740812 292.443513 
L 336.878373 293.965756 
L 337.294504 293.965756 
L 337.431927 292.443513 
L 338.40222 292.443513 
L 338.540322 293.965756 
L 338.67888 293.965756 
L 338.817673 292.443513 
L 340.086542 292.443513 
L 340.208113 290.804178 
L 341.210942 290.804178 
L 341.455675 292.443513 
L 342.831786 292.443513 
L 342.970219 293.965756 
L 343.940028 293.965756 
L 344.086118 292.443513 
L 349.20108 292.443513 
L 349.34076 290.804178 
L 350.032082 290.804178 
L 350.168965 289.281934 
L 356.399702 289.281934 
L 356.617992 290.804178 
L 357.231009 290.804178 
L 357.368611 289.281934 
L 357.535966 289.281934 
L 357.784438 290.804178 
L 360.276447 290.804178 
L 360.414631 289.281934 
L 361.384565 289.281934 
L 361.521601 290.804178 
L 362.770561 290.804178 
L 362.907167 292.443513 
L 369.412929 292.443513 
L 369.551999 290.804178 
L 376.336138 290.804178 
L 376.47482 292.443513 
L 378.5511 292.443513 
L 378.689381 290.804178 
L 380.491106 290.804178 
L 380.627948 289.281934 
L 381.05485 289.281934 
L 381.181889 290.804178 
L 389.350625 290.804178 
L 389.48831 289.281934 
L 390.736343 289.281934 
L 390.873434 287.759691 
L 392.396492 287.759691 
L 392.534981 289.281934 
L 395.165826 289.281934 
L 395.303581 290.804178 
L 396.826058 290.804178 
L 396.965197 292.443513 
L 398.487273 292.443513 
L 398.487273 292.443513 
" clip-path="url(#pf700f0de80)" style="fill: none; stroke: #ff7f0e; stroke-width: 1.5; stroke-linecap: square"/>
   </g>
   <g id="patch_3">
    <path d="M 57.6 307.584 
L 57.6 41.472 
" style="fill: none; stroke: #000000; stroke-width: 0.8; stroke-linejoin: miter; stroke-linecap: square"/>
   </g>
   <g id="patch_4">
    <path d="M 414.72 307.584 
L 414.72 41.472 
" style="fill: none; stroke: #000000; stroke-width: 0.8; stroke-linejoin: miter; stroke-linecap: square"/>
   </g>
   <g id="patch_5">
    <path d="M 57.6 307.584 
L 414.72 307.584 
" style="fill: none; stroke: #000000; stroke-width: 0.8; stroke-linejoin: miter; stroke-linecap: square"/>
   </g>
   <g id="patch_6">
    <path d="M 57.6 41.472 
L 414.72 41.472 
" style="fill: none; stroke: #000000; stroke-width: 0.8; stroke-linejoin: miter; stroke-linecap: square"/>
   </g>
   <g id="text_17">
    <!-- Tyholt_restart -->
    <g transform="translate(195.391875 35.472) scale(0.12 -0.12)">
     <defs>
      <path id="DejaVuSans-54" d="M -19 4666 
L 3928 4666 
L 3928 4134 
L 2272 4134 
L 2272 0 
L 1638 0 
L 1638 4134 
L -19 4134 
L -19 4666 
z
" transform="scale(0.015625)"/>
      <path id="DejaVuSans-79" d="M 2059 -325 
Q 1816 -950 1584 -1140 
Q 1353 -1331 966 -1331 
L 506 -1331 
L 506 -850 
L 844 -850 
Q 1081 -850 1212 -737 
Q 1344 -625 1503 -206 
L 1606 56 
L 191 3500 
L 800 3500 
L 1894 763 
L 2988 3500 
L 3597 3500 
L 2059 -325 
z
" transform="scale(0.015625)"/>
      <path id="DejaVuSans-68" d="M 3513 2113 
L 3513 0 
L 2938 0 
L 2938 2094 
Q 2938 2591 2744 2837 
Q 2550 3084 2163 3084 
Q 1697 3084 1428 2787 
Q 1159 2491 1159 1978 
L 1159 0 
L 581 0 
L 581 4863 
L 1159 4863 
L 1159 2956 
Q 1366 3272 1645 3428 
Q 1925 3584 2291 3584 
Q 2894 3584 3203 3211 
Q 3513 2838 3513 2113 
z
" transform="scale(0.015625)"/>
      <path id="DejaVuSans-6f" d="M 1959 3097 
Q 1497 3097 1228 2736 
Q 959 2375 959 1747 
Q 959 1119 1226 758 
Q 1494 397 1959 397 
Q 2419 397 2687 759 
Q 2956 1122 2956 1747 
Q 2956 2369 2687 2733 
Q 2419 3097 1959 3097 
z
M 1959 3584 
Q 2709 3584 3137 3096 
Q 3566 2609 3566 1747 
Q 3566 888 3137 398 
Q 2709 -91 1959 -91 
Q 1206 -91 779 398 
Q 353 888 353 1747 
Q 353 2609 779 3096 
Q 1206 3584 1959 3584 
z
" transform="scale(0.015625)"/>
      <path id="DejaVuSans-5f" d="M 3263 -1063 
L 3263 -1509 
L -63 -1509 
L -63 -1063 
L 3263 -1063 
z
" transform="scale(0.015625)"/>
      <path id="DejaVuSans-72" d="M 2631 2963 
Q 2534 3019 2420 3045 
Q 2306 3072 2169 3072 
Q 1681 3072 1420 2755 
Q 1159 2438 1159 1844 
L 1159 0 
L 581 0 
L 581 3500 
L 1159 3500 
L 1159 2956 
Q 1341 3275 1631 3429 
Q 1922 3584 2338 3584 
Q 2397 3584 2469 3576 
Q 2541 3569 2628 3553 
L 2631 2963 
z
" transform="scale(0.015625)"/>
     </defs>
     <use xlink:href="#DejaVuSans-54"/>
     <use xlink:href="#DejaVuSans-79" x="45.458984"/>
     <use xlink:href="#DejaVuSans-68" x="104.638672"/>
     <use xlink:href="#DejaVuSans-6f" x="168.017578"/>
     <use xlink:href="#DejaVuSans-6c" x="229.199219"/>
     <use xlink:href="#DejaVuSans-74" x="256.982422"/>
     <use xlink:href="#DejaVuSans-5f" x="296.191406"/>
     <use xlink:href="#DejaVuSans-72" x="346.191406"/>
     <use xlink:href="#DejaVuSans-65" x="385.054688"/>
     <use xlink:href="#DejaVuSans-73" x="446.578125"/>
     <use xlink:href="#DejaVuSans-74" x="498.677734"/>
     <use xlink:href="#DejaVuSans-61" x="537.886719"/>
     <use xlink:href="#DejaVuSans-72" x="599.166016"/>
     <use xlink:href="#DejaVuSans-74" x="640.279297"/>
    </g>
   </g>
   <g id="legend_1">
    <g id="patch_7">
     <path d="M 270.32 190.728 
L 407.72 190.728 
Q 409.72 190.728 409.72 188.728 
L 409.72 160.328 
Q 409.72 158.328 407.72 158.328 
L 270.32 158.328 
Q 268.32 158.328 268.32 160.328 
L 268.32 188.728 
Q 268.32 190.728 270.32 190.728 
z
" style="fill: #ffffff; opacity: 0.8; stroke: #cccccc; stroke-linejoin: miter"/>
    </g>
    <g id="line2d_17">
     <path d="M 272.32 166.428 
L 282.32 166.428 
L 292.32 166.428 
" style="fill: none; stroke: #1f77b4; stroke-width: 1.5; stroke-linecap: square"/>
    </g>
    <g id="text_18">
     <!-- Magnetic Field x $[\mu T]$ -->
     <g transform="translate(300.32 169.928) scale(0.1 -0.1)">
      <defs>
       <path id="DejaVuSans-46" d="M 628 4666 
L 3309 4666 
L 3309 4134 
L 1259 4134 
L 1259 2759 
L 3109 2759 
L 3109 2228 
L 1259 2228 
L 1259 0 
L 628 0 
L 628 4666 
z
" transform="scale(0.015625)"/>
       <path id="DejaVuSans-78" d="M 3513 3500 
L 2247 1797 
L 3578 0 
L 2900 0 
L 1881 1375 
L 863 0 
L 184 0 
L 1544 1831 
L 300 3500 
L 978 3500 
L 1906 2253 
L 2834 3500 
L 3513 3500 
z
" transform="scale(0.015625)"/>
      </defs>
      <use xlink:href="#DejaVuSans-4d" transform="translate(0 0.015625)"/>
      <use xlink:href="#DejaVuSans-61" transform="translate(86.279297 0.015625)"/>
      <use xlink:href="#DejaVuSans-67" transform="translate(147.558594 0.015625)"/>
      <use xlink:href="#DejaVuSans-6e" transform="translate(211.035156 0.015625)"/>
      <use xlink:href="#DejaVuSans-65" transform="translate(274.414062 0.015625)"/>
      <use xlink:href="#DejaVuSans-74" transform="translate(335.9375 0.015625)"/>
      <use xlink:href="#DejaVuSans-69" transform="translate(375.146484 0.015625)"/>
      <use xlink:href="#DejaVuSans-63" transform="translate(402.929688 0.015625)"/>
      <use xlink:href="#DejaVuSans-20" transform="translate(457.910156 0.015625)"/>
      <use xlink:href="#DejaVuSans-46" transform="translate(489.697266 0.015625)"/>
      <use xlink:href="#DejaVuSans-69" transform="translate(547.216797 0.015625)"/>
      <use xlink:href="#DejaVuSans-65" transform="translate(575 0.015625)"/>
      <use xlink:href="#DejaVuSans-6c" transform="translate(636.523438 0.015625)"/>
      <use xlink:href="#DejaVuSans-64" transform="translate(664.306641 0.015625)"/>
      <use xlink:href="#DejaVuSans-20" transform="translate(727.783203 0.015625)"/>
      <use xlink:href="#DejaVuSans-78" transform="translate(759.570312 0.015625)"/>
      <use xlink:href="#DejaVuSans-20" transform="translate(818.75 0.015625)"/>
      <use xlink:href="#DejaVuSans-5b" transform="translate(850.537109 0.015625)"/>
      <use xlink:href="#DejaVuSans-Oblique-3bc" transform="translate(889.550781 0.015625)"/>
      <use xlink:href="#DejaVuSans-Oblique-54" transform="translate(953.173828 0.015625)"/>
      <use xlink:href="#DejaVuSans-5d" transform="translate(1014.257812 0.015625)"/>
     </g>
    </g>
    <g id="line2d_18">
     <path d="M 272.32 181.128 
L 282.32 181.128 
L 292.32 181.128 
" style="fill: none; stroke: #ff7f0e; stroke-width: 1.5; stroke-linecap: square"/>
    </g>
    <g id="text_19">
     <!-- Magnetic Field y $[\mu T]$ -->
     <g transform="translate(300.32 184.628) scale(0.1 -0.1)">
      <use xlink:href="#DejaVuSans-4d" transform="translate(0 0.015625)"/>
      <use xlink:href="#DejaVuSans-61" transform="translate(86.279297 0.015625)"/>
      <use xlink:href="#DejaVuSans-67" transform="translate(147.558594 0.015625)"/>
      <use xlink:href="#DejaVuSans-6e" transform="translate(211.035156 0.015625)"/>
      <use xlink:href="#DejaVuSans-65" transform="translate(274.414062 0.015625)"/>
      <use xlink:href="#DejaVuSans-74" transform="translate(335.9375 0.015625)"/>
      <use xlink:href="#DejaVuSans-69" transform="translate(375.146484 0.015625)"/>
      <use xlink:href="#DejaVuSans-63" transform="translate(402.929688 0.015625)"/>
      <use xlink:href="#DejaVuSans-20" transform="translate(457.910156 0.015625)"/>
      <use xlink:href="#DejaVuSans-46" transform="translate(489.697266 0.015625)"/>
      <use xlink:href="#DejaVuSans-69" transform="translate(547.216797 0.015625)"/>
      <use xlink:href="#DejaVuSans-65" transform="translate(575 0.015625)"/>
      <use xlink:href="#DejaVuSans-6c" transform="translate(636.523438 0.015625)"/>
      <use xlink:href="#DejaVuSans-64" transform="translate(664.306641 0.015625)"/>
      <use xlink:href="#DejaVuSans-20" transform="translate(727.783203 0.015625)"/>
      <use xlink:href="#DejaVuSans-79" transform="translate(759.570312 0.015625)"/>
      <use xlink:href="#DejaVuSans-20" transform="translate(818.75 0.015625)"/>
      <use xlink:href="#DejaVuSans-5b" transform="translate(850.537109 0.015625)"/>
      <use xlink:href="#DejaVuSans-Oblique-3bc" transform="translate(889.550781 0.015625)"/>
      <use xlink:href="#DejaVuSans-Oblique-54" transform="translate(953.173828 0.015625)"/>
      <use xlink:href="#DejaVuSans-5d" transform="translate(1014.257812 0.015625)"/>
     </g>
    </g>
   </g>
  </g>
 </g>
 <defs>
  <clipPath id="pf700f0de80">
   <rect x="57.6" y="41.472" width="357.12" height="266.112"/>
  </clipPath>
 </defs>
</svg>
