<?xml version="1.0" encoding="utf-8" standalone="no"?>
<!DOCTYPE svg PUBLIC "-//W3C//DTD SVG 1.1//EN"
  "http://www.w3.org/Graphics/SVG/1.1/DTD/svg11.dtd">
<svg xmlns:xlink="http://www.w3.org/1999/xlink" width="460.8pt" height="345.6pt" viewBox="0 0 460.8 345.6" xmlns="http://www.w3.org/2000/svg" version="1.1">
 <metadata>
  <rdf:RDF xmlns:dc="http://purl.org/dc/elements/1.1/" xmlns:cc="http://creativecommons.org/ns#" xmlns:rdf="http://www.w3.org/1999/02/22-rdf-syntax-ns#">
   <cc:Work>
    <dc:type rdf:resource="http://purl.org/dc/dcmitype/StillImage"/>
    <dc:date>2023-04-17T16:36:11.411268</dc:date>
    <dc:format>image/svg+xml</dc:format>
    <dc:creator>
     <cc:Agent>
      <dc:title>Matplotlib v3.7.1, https://matplotlib.org/</dc:title>
     </cc:Agent>
    </dc:creator>
   </cc:Work>
  </rdf:RDF>
 </metadata>
 <defs>
  <style type="text/css">*{stroke-linejoin: round; stroke-linecap: butt}</style>
 </defs>
 <g id="figure_1">
  <g id="patch_1">
   <path d="M 0 345.6 
L 460.8 345.6 
L 460.8 0 
L 0 0 
z
" style="fill: #ffffff"/>
  </g>
  <g id="axes_1">
   <g id="patch_2">
    <path d="M 57.6 307.584 
L 414.72 307.584 
L 414.72 41.472 
L 57.6 41.472 
z
" style="fill: #ffffff"/>
   </g>
   <g id="matplotlib.axis_1">
    <g id="xtick_1">
     <g id="line2d_1">
      <defs>
       <path id="m31138957f5" d="M 0 0 
L 0 3.5 
" style="stroke: #000000; stroke-width: 0.8"/>
      </defs>
      <g>
       <use xlink:href="#m31138957f5" x="74.173415" y="307.584" style="stroke: #000000; stroke-width: 0.8"/>
      </g>
     </g>
     <g id="text_1">
      <!-- 20 -->
      <g transform="translate(67.810915 322.182437) scale(0.1 -0.1)">
       <defs>
        <path id="DejaVuSans-32" d="M 1228 531 
L 3431 531 
L 3431 0 
L 469 0 
L 469 531 
Q 828 903 1448 1529 
Q 2069 2156 2228 2338 
Q 2531 2678 2651 2914 
Q 2772 3150 2772 3378 
Q 2772 3750 2511 3984 
Q 2250 4219 1831 4219 
Q 1534 4219 1204 4116 
Q 875 4013 500 3803 
L 500 4441 
Q 881 4594 1212 4672 
Q 1544 4750 1819 4750 
Q 2544 4750 2975 4387 
Q 3406 4025 3406 3419 
Q 3406 3131 3298 2873 
Q 3191 2616 2906 2266 
Q 2828 2175 2409 1742 
Q 1991 1309 1228 531 
z
" transform="scale(0.015625)"/>
        <path id="DejaVuSans-30" d="M 2034 4250 
Q 1547 4250 1301 3770 
Q 1056 3291 1056 2328 
Q 1056 1369 1301 889 
Q 1547 409 2034 409 
Q 2525 409 2770 889 
Q 3016 1369 3016 2328 
Q 3016 3291 2770 3770 
Q 2525 4250 2034 4250 
z
M 2034 4750 
Q 2819 4750 3233 4129 
Q 3647 3509 3647 2328 
Q 3647 1150 3233 529 
Q 2819 -91 2034 -91 
Q 1250 -91 836 529 
Q 422 1150 422 2328 
Q 422 3509 836 4129 
Q 1250 4750 2034 4750 
z
" transform="scale(0.015625)"/>
       </defs>
       <use xlink:href="#DejaVuSans-32"/>
       <use xlink:href="#DejaVuSans-30" x="63.623047"/>
      </g>
     </g>
    </g>
    <g id="xtick_2">
     <g id="line2d_2">
      <g>
       <use xlink:href="#m31138957f5" x="117.486337" y="307.584" style="stroke: #000000; stroke-width: 0.8"/>
      </g>
     </g>
     <g id="text_2">
      <!-- 22 -->
      <g transform="translate(111.123837 322.182437) scale(0.1 -0.1)">
       <use xlink:href="#DejaVuSans-32"/>
       <use xlink:href="#DejaVuSans-32" x="63.623047"/>
      </g>
     </g>
    </g>
    <g id="xtick_3">
     <g id="line2d_3">
      <g>
       <use xlink:href="#m31138957f5" x="160.799259" y="307.584" style="stroke: #000000; stroke-width: 0.8"/>
      </g>
     </g>
     <g id="text_3">
      <!-- 24 -->
      <g transform="translate(154.436759 322.182437) scale(0.1 -0.1)">
       <defs>
        <path id="DejaVuSans-34" d="M 2419 4116 
L 825 1625 
L 2419 1625 
L 2419 4116 
z
M 2253 4666 
L 3047 4666 
L 3047 1625 
L 3713 1625 
L 3713 1100 
L 3047 1100 
L 3047 0 
L 2419 0 
L 2419 1100 
L 313 1100 
L 313 1709 
L 2253 4666 
z
" transform="scale(0.015625)"/>
       </defs>
       <use xlink:href="#DejaVuSans-32"/>
       <use xlink:href="#DejaVuSans-34" x="63.623047"/>
      </g>
     </g>
    </g>
    <g id="xtick_4">
     <g id="line2d_4">
      <g>
       <use xlink:href="#m31138957f5" x="204.11218" y="307.584" style="stroke: #000000; stroke-width: 0.8"/>
      </g>
     </g>
     <g id="text_4">
      <!-- 26 -->
      <g transform="translate(197.74968 322.182437) scale(0.1 -0.1)">
       <defs>
        <path id="DejaVuSans-36" d="M 2113 2584 
Q 1688 2584 1439 2293 
Q 1191 2003 1191 1497 
Q 1191 994 1439 701 
Q 1688 409 2113 409 
Q 2538 409 2786 701 
Q 3034 994 3034 1497 
Q 3034 2003 2786 2293 
Q 2538 2584 2113 2584 
z
M 3366 4563 
L 3366 3988 
Q 3128 4100 2886 4159 
Q 2644 4219 2406 4219 
Q 1781 4219 1451 3797 
Q 1122 3375 1075 2522 
Q 1259 2794 1537 2939 
Q 1816 3084 2150 3084 
Q 2853 3084 3261 2657 
Q 3669 2231 3669 1497 
Q 3669 778 3244 343 
Q 2819 -91 2113 -91 
Q 1303 -91 875 529 
Q 447 1150 447 2328 
Q 447 3434 972 4092 
Q 1497 4750 2381 4750 
Q 2619 4750 2861 4703 
Q 3103 4656 3366 4563 
z
" transform="scale(0.015625)"/>
       </defs>
       <use xlink:href="#DejaVuSans-32"/>
       <use xlink:href="#DejaVuSans-36" x="63.623047"/>
      </g>
     </g>
    </g>
    <g id="xtick_5">
     <g id="line2d_5">
      <g>
       <use xlink:href="#m31138957f5" x="247.425102" y="307.584" style="stroke: #000000; stroke-width: 0.8"/>
      </g>
     </g>
     <g id="text_5">
      <!-- 28 -->
      <g transform="translate(241.062602 322.182437) scale(0.1 -0.1)">
       <defs>
        <path id="DejaVuSans-38" d="M 2034 2216 
Q 1584 2216 1326 1975 
Q 1069 1734 1069 1313 
Q 1069 891 1326 650 
Q 1584 409 2034 409 
Q 2484 409 2743 651 
Q 3003 894 3003 1313 
Q 3003 1734 2745 1975 
Q 2488 2216 2034 2216 
z
M 1403 2484 
Q 997 2584 770 2862 
Q 544 3141 544 3541 
Q 544 4100 942 4425 
Q 1341 4750 2034 4750 
Q 2731 4750 3128 4425 
Q 3525 4100 3525 3541 
Q 3525 3141 3298 2862 
Q 3072 2584 2669 2484 
Q 3125 2378 3379 2068 
Q 3634 1759 3634 1313 
Q 3634 634 3220 271 
Q 2806 -91 2034 -91 
Q 1263 -91 848 271 
Q 434 634 434 1313 
Q 434 1759 690 2068 
Q 947 2378 1403 2484 
z
M 1172 3481 
Q 1172 3119 1398 2916 
Q 1625 2713 2034 2713 
Q 2441 2713 2670 2916 
Q 2900 3119 2900 3481 
Q 2900 3844 2670 4047 
Q 2441 4250 2034 4250 
Q 1625 4250 1398 4047 
Q 1172 3844 1172 3481 
z
" transform="scale(0.015625)"/>
       </defs>
       <use xlink:href="#DejaVuSans-32"/>
       <use xlink:href="#DejaVuSans-38" x="63.623047"/>
      </g>
     </g>
    </g>
    <g id="xtick_6">
     <g id="line2d_6">
      <g>
       <use xlink:href="#m31138957f5" x="290.738024" y="307.584" style="stroke: #000000; stroke-width: 0.8"/>
      </g>
     </g>
     <g id="text_6">
      <!-- 30 -->
      <g transform="translate(284.375524 322.182437) scale(0.1 -0.1)">
       <defs>
        <path id="DejaVuSans-33" d="M 2597 2516 
Q 3050 2419 3304 2112 
Q 3559 1806 3559 1356 
Q 3559 666 3084 287 
Q 2609 -91 1734 -91 
Q 1441 -91 1130 -33 
Q 819 25 488 141 
L 488 750 
Q 750 597 1062 519 
Q 1375 441 1716 441 
Q 2309 441 2620 675 
Q 2931 909 2931 1356 
Q 2931 1769 2642 2001 
Q 2353 2234 1838 2234 
L 1294 2234 
L 1294 2753 
L 1863 2753 
Q 2328 2753 2575 2939 
Q 2822 3125 2822 3475 
Q 2822 3834 2567 4026 
Q 2313 4219 1838 4219 
Q 1578 4219 1281 4162 
Q 984 4106 628 3988 
L 628 4550 
Q 988 4650 1302 4700 
Q 1616 4750 1894 4750 
Q 2613 4750 3031 4423 
Q 3450 4097 3450 3541 
Q 3450 3153 3228 2886 
Q 3006 2619 2597 2516 
z
" transform="scale(0.015625)"/>
       </defs>
       <use xlink:href="#DejaVuSans-33"/>
       <use xlink:href="#DejaVuSans-30" x="63.623047"/>
      </g>
     </g>
    </g>
    <g id="xtick_7">
     <g id="line2d_7">
      <g>
       <use xlink:href="#m31138957f5" x="334.050946" y="307.584" style="stroke: #000000; stroke-width: 0.8"/>
      </g>
     </g>
     <g id="text_7">
      <!-- 32 -->
      <g transform="translate(327.688446 322.182437) scale(0.1 -0.1)">
       <use xlink:href="#DejaVuSans-33"/>
       <use xlink:href="#DejaVuSans-32" x="63.623047"/>
      </g>
     </g>
    </g>
    <g id="xtick_8">
     <g id="line2d_8">
      <g>
       <use xlink:href="#m31138957f5" x="377.363868" y="307.584" style="stroke: #000000; stroke-width: 0.8"/>
      </g>
     </g>
     <g id="text_8">
      <!-- 34 -->
      <g transform="translate(371.001368 322.182437) scale(0.1 -0.1)">
       <use xlink:href="#DejaVuSans-33"/>
       <use xlink:href="#DejaVuSans-34" x="63.623047"/>
      </g>
     </g>
    </g>
    <g id="text_9">
     <!-- time [s] -->
     <g transform="translate(216.768594 335.860562) scale(0.1 -0.1)">
      <defs>
       <path id="DejaVuSans-74" d="M 1172 4494 
L 1172 3500 
L 2356 3500 
L 2356 3053 
L 1172 3053 
L 1172 1153 
Q 1172 725 1289 603 
Q 1406 481 1766 481 
L 2356 481 
L 2356 0 
L 1766 0 
Q 1100 0 847 248 
Q 594 497 594 1153 
L 594 3053 
L 172 3053 
L 172 3500 
L 594 3500 
L 594 4494 
L 1172 4494 
z
" transform="scale(0.015625)"/>
       <path id="DejaVuSans-69" d="M 603 3500 
L 1178 3500 
L 1178 0 
L 603 0 
L 603 3500 
z
M 603 4863 
L 1178 4863 
L 1178 4134 
L 603 4134 
L 603 4863 
z
" transform="scale(0.015625)"/>
       <path id="DejaVuSans-6d" d="M 3328 2828 
Q 3544 3216 3844 3400 
Q 4144 3584 4550 3584 
Q 5097 3584 5394 3201 
Q 5691 2819 5691 2113 
L 5691 0 
L 5113 0 
L 5113 2094 
Q 5113 2597 4934 2840 
Q 4756 3084 4391 3084 
Q 3944 3084 3684 2787 
Q 3425 2491 3425 1978 
L 3425 0 
L 2847 0 
L 2847 2094 
Q 2847 2600 2669 2842 
Q 2491 3084 2119 3084 
Q 1678 3084 1418 2786 
Q 1159 2488 1159 1978 
L 1159 0 
L 581 0 
L 581 3500 
L 1159 3500 
L 1159 2956 
Q 1356 3278 1631 3431 
Q 1906 3584 2284 3584 
Q 2666 3584 2933 3390 
Q 3200 3197 3328 2828 
z
" transform="scale(0.015625)"/>
       <path id="DejaVuSans-65" d="M 3597 1894 
L 3597 1613 
L 953 1613 
Q 991 1019 1311 708 
Q 1631 397 2203 397 
Q 2534 397 2845 478 
Q 3156 559 3463 722 
L 3463 178 
Q 3153 47 2828 -22 
Q 2503 -91 2169 -91 
Q 1331 -91 842 396 
Q 353 884 353 1716 
Q 353 2575 817 3079 
Q 1281 3584 2069 3584 
Q 2775 3584 3186 3129 
Q 3597 2675 3597 1894 
z
M 3022 2063 
Q 3016 2534 2758 2815 
Q 2500 3097 2075 3097 
Q 1594 3097 1305 2825 
Q 1016 2553 972 2059 
L 3022 2063 
z
" transform="scale(0.015625)"/>
       <path id="DejaVuSans-20" transform="scale(0.015625)"/>
       <path id="DejaVuSans-5b" d="M 550 4863 
L 1875 4863 
L 1875 4416 
L 1125 4416 
L 1125 -397 
L 1875 -397 
L 1875 -844 
L 550 -844 
L 550 4863 
z
" transform="scale(0.015625)"/>
       <path id="DejaVuSans-73" d="M 2834 3397 
L 2834 2853 
Q 2591 2978 2328 3040 
Q 2066 3103 1784 3103 
Q 1356 3103 1142 2972 
Q 928 2841 928 2578 
Q 928 2378 1081 2264 
Q 1234 2150 1697 2047 
L 1894 2003 
Q 2506 1872 2764 1633 
Q 3022 1394 3022 966 
Q 3022 478 2636 193 
Q 2250 -91 1575 -91 
Q 1294 -91 989 -36 
Q 684 19 347 128 
L 347 722 
Q 666 556 975 473 
Q 1284 391 1588 391 
Q 1994 391 2212 530 
Q 2431 669 2431 922 
Q 2431 1156 2273 1281 
Q 2116 1406 1581 1522 
L 1381 1569 
Q 847 1681 609 1914 
Q 372 2147 372 2553 
Q 372 3047 722 3315 
Q 1072 3584 1716 3584 
Q 2034 3584 2315 3537 
Q 2597 3491 2834 3397 
z
" transform="scale(0.015625)"/>
       <path id="DejaVuSans-5d" d="M 1947 4863 
L 1947 -844 
L 622 -844 
L 622 -397 
L 1369 -397 
L 1369 4416 
L 622 4416 
L 622 4863 
L 1947 4863 
z
" transform="scale(0.015625)"/>
      </defs>
      <use xlink:href="#DejaVuSans-74"/>
      <use xlink:href="#DejaVuSans-69" x="39.208984"/>
      <use xlink:href="#DejaVuSans-6d" x="66.992188"/>
      <use xlink:href="#DejaVuSans-65" x="164.404297"/>
      <use xlink:href="#DejaVuSans-20" x="225.927734"/>
      <use xlink:href="#DejaVuSans-5b" x="257.714844"/>
      <use xlink:href="#DejaVuSans-73" x="296.728516"/>
      <use xlink:href="#DejaVuSans-5d" x="348.828125"/>
     </g>
    </g>
   </g>
   <g id="matplotlib.axis_2">
    <g id="ytick_1">
     <g id="line2d_9">
      <defs>
       <path id="mf619268714" d="M 0 0 
L -3.5 0 
" style="stroke: #000000; stroke-width: 0.8"/>
      </defs>
      <g>
       <use xlink:href="#mf619268714" x="57.6" y="259.225216" style="stroke: #000000; stroke-width: 0.8"/>
      </g>
     </g>
     <g id="text_10">
      <!-- −20 -->
      <g transform="translate(29.495313 263.024435) scale(0.1 -0.1)">
       <defs>
        <path id="DejaVuSans-2212" d="M 678 2272 
L 4684 2272 
L 4684 1741 
L 678 1741 
L 678 2272 
z
" transform="scale(0.015625)"/>
       </defs>
       <use xlink:href="#DejaVuSans-2212"/>
       <use xlink:href="#DejaVuSans-32" x="83.789062"/>
       <use xlink:href="#DejaVuSans-30" x="147.412109"/>
      </g>
     </g>
    </g>
    <g id="ytick_2">
     <g id="line2d_10">
      <g>
       <use xlink:href="#mf619268714" x="57.6" y="210.078929" style="stroke: #000000; stroke-width: 0.8"/>
      </g>
     </g>
     <g id="text_11">
      <!-- −15 -->
      <g transform="translate(29.495313 213.878148) scale(0.1 -0.1)">
       <defs>
        <path id="DejaVuSans-31" d="M 794 531 
L 1825 531 
L 1825 4091 
L 703 3866 
L 703 4441 
L 1819 4666 
L 2450 4666 
L 2450 531 
L 3481 531 
L 3481 0 
L 794 0 
L 794 531 
z
" transform="scale(0.015625)"/>
        <path id="DejaVuSans-35" d="M 691 4666 
L 3169 4666 
L 3169 4134 
L 1269 4134 
L 1269 2991 
Q 1406 3038 1543 3061 
Q 1681 3084 1819 3084 
Q 2600 3084 3056 2656 
Q 3513 2228 3513 1497 
Q 3513 744 3044 326 
Q 2575 -91 1722 -91 
Q 1428 -91 1123 -41 
Q 819 9 494 109 
L 494 744 
Q 775 591 1075 516 
Q 1375 441 1709 441 
Q 2250 441 2565 725 
Q 2881 1009 2881 1497 
Q 2881 1984 2565 2268 
Q 2250 2553 1709 2553 
Q 1456 2553 1204 2497 
Q 953 2441 691 2322 
L 691 4666 
z
" transform="scale(0.015625)"/>
       </defs>
       <use xlink:href="#DejaVuSans-2212"/>
       <use xlink:href="#DejaVuSans-31" x="83.789062"/>
       <use xlink:href="#DejaVuSans-35" x="147.412109"/>
      </g>
     </g>
    </g>
    <g id="ytick_3">
     <g id="line2d_11">
      <g>
       <use xlink:href="#mf619268714" x="57.6" y="160.932643" style="stroke: #000000; stroke-width: 0.8"/>
      </g>
     </g>
     <g id="text_12">
      <!-- −10 -->
      <g transform="translate(29.495313 164.731862) scale(0.1 -0.1)">
       <use xlink:href="#DejaVuSans-2212"/>
       <use xlink:href="#DejaVuSans-31" x="83.789062"/>
       <use xlink:href="#DejaVuSans-30" x="147.412109"/>
      </g>
     </g>
    </g>
    <g id="ytick_4">
     <g id="line2d_12">
      <g>
       <use xlink:href="#mf619268714" x="57.6" y="111.786357" style="stroke: #000000; stroke-width: 0.8"/>
      </g>
     </g>
     <g id="text_13">
      <!-- −5 -->
      <g transform="translate(35.857813 115.585575) scale(0.1 -0.1)">
       <use xlink:href="#DejaVuSans-2212"/>
       <use xlink:href="#DejaVuSans-35" x="83.789062"/>
      </g>
     </g>
    </g>
    <g id="ytick_5">
     <g id="line2d_13">
      <g>
       <use xlink:href="#mf619268714" x="57.6" y="62.64007" style="stroke: #000000; stroke-width: 0.8"/>
      </g>
     </g>
     <g id="text_14">
      <!-- 0 -->
      <g transform="translate(44.2375 66.439289) scale(0.1 -0.1)">
       <use xlink:href="#DejaVuSans-30"/>
      </g>
     </g>
    </g>
    <g id="text_15">
     <!-- Magnetic field $[\mu T]$ -->
     <g transform="translate(23.395312 221.528) rotate(-90) scale(0.1 -0.1)">
      <defs>
       <path id="DejaVuSans-4d" d="M 628 4666 
L 1569 4666 
L 2759 1491 
L 3956 4666 
L 4897 4666 
L 4897 0 
L 4281 0 
L 4281 4097 
L 3078 897 
L 2444 897 
L 1241 4097 
L 1241 0 
L 628 0 
L 628 4666 
z
" transform="scale(0.015625)"/>
       <path id="DejaVuSans-61" d="M 2194 1759 
Q 1497 1759 1228 1600 
Q 959 1441 959 1056 
Q 959 750 1161 570 
Q 1363 391 1709 391 
Q 2188 391 2477 730 
Q 2766 1069 2766 1631 
L 2766 1759 
L 2194 1759 
z
M 3341 1997 
L 3341 0 
L 2766 0 
L 2766 531 
Q 2569 213 2275 61 
Q 1981 -91 1556 -91 
Q 1019 -91 701 211 
Q 384 513 384 1019 
Q 384 1609 779 1909 
Q 1175 2209 1959 2209 
L 2766 2209 
L 2766 2266 
Q 2766 2663 2505 2880 
Q 2244 3097 1772 3097 
Q 1472 3097 1187 3025 
Q 903 2953 641 2809 
L 641 3341 
Q 956 3463 1253 3523 
Q 1550 3584 1831 3584 
Q 2591 3584 2966 3190 
Q 3341 2797 3341 1997 
z
" transform="scale(0.015625)"/>
       <path id="DejaVuSans-67" d="M 2906 1791 
Q 2906 2416 2648 2759 
Q 2391 3103 1925 3103 
Q 1463 3103 1205 2759 
Q 947 2416 947 1791 
Q 947 1169 1205 825 
Q 1463 481 1925 481 
Q 2391 481 2648 825 
Q 2906 1169 2906 1791 
z
M 3481 434 
Q 3481 -459 3084 -895 
Q 2688 -1331 1869 -1331 
Q 1566 -1331 1297 -1286 
Q 1028 -1241 775 -1147 
L 775 -588 
Q 1028 -725 1275 -790 
Q 1522 -856 1778 -856 
Q 2344 -856 2625 -561 
Q 2906 -266 2906 331 
L 2906 616 
Q 2728 306 2450 153 
Q 2172 0 1784 0 
Q 1141 0 747 490 
Q 353 981 353 1791 
Q 353 2603 747 3093 
Q 1141 3584 1784 3584 
Q 2172 3584 2450 3431 
Q 2728 3278 2906 2969 
L 2906 3500 
L 3481 3500 
L 3481 434 
z
" transform="scale(0.015625)"/>
       <path id="DejaVuSans-6e" d="M 3513 2113 
L 3513 0 
L 2938 0 
L 2938 2094 
Q 2938 2591 2744 2837 
Q 2550 3084 2163 3084 
Q 1697 3084 1428 2787 
Q 1159 2491 1159 1978 
L 1159 0 
L 581 0 
L 581 3500 
L 1159 3500 
L 1159 2956 
Q 1366 3272 1645 3428 
Q 1925 3584 2291 3584 
Q 2894 3584 3203 3211 
Q 3513 2838 3513 2113 
z
" transform="scale(0.015625)"/>
       <path id="DejaVuSans-63" d="M 3122 3366 
L 3122 2828 
Q 2878 2963 2633 3030 
Q 2388 3097 2138 3097 
Q 1578 3097 1268 2742 
Q 959 2388 959 1747 
Q 959 1106 1268 751 
Q 1578 397 2138 397 
Q 2388 397 2633 464 
Q 2878 531 3122 666 
L 3122 134 
Q 2881 22 2623 -34 
Q 2366 -91 2075 -91 
Q 1284 -91 818 406 
Q 353 903 353 1747 
Q 353 2603 823 3093 
Q 1294 3584 2113 3584 
Q 2378 3584 2631 3529 
Q 2884 3475 3122 3366 
z
" transform="scale(0.015625)"/>
       <path id="DejaVuSans-66" d="M 2375 4863 
L 2375 4384 
L 1825 4384 
Q 1516 4384 1395 4259 
Q 1275 4134 1275 3809 
L 1275 3500 
L 2222 3500 
L 2222 3053 
L 1275 3053 
L 1275 0 
L 697 0 
L 697 3053 
L 147 3053 
L 147 3500 
L 697 3500 
L 697 3744 
Q 697 4328 969 4595 
Q 1241 4863 1831 4863 
L 2375 4863 
z
" transform="scale(0.015625)"/>
       <path id="DejaVuSans-6c" d="M 603 4863 
L 1178 4863 
L 1178 0 
L 603 0 
L 603 4863 
z
" transform="scale(0.015625)"/>
       <path id="DejaVuSans-64" d="M 2906 2969 
L 2906 4863 
L 3481 4863 
L 3481 0 
L 2906 0 
L 2906 525 
Q 2725 213 2448 61 
Q 2172 -91 1784 -91 
Q 1150 -91 751 415 
Q 353 922 353 1747 
Q 353 2572 751 3078 
Q 1150 3584 1784 3584 
Q 2172 3584 2448 3432 
Q 2725 3281 2906 2969 
z
M 947 1747 
Q 947 1113 1208 752 
Q 1469 391 1925 391 
Q 2381 391 2643 752 
Q 2906 1113 2906 1747 
Q 2906 2381 2643 2742 
Q 2381 3103 1925 3103 
Q 1469 3103 1208 2742 
Q 947 2381 947 1747 
z
" transform="scale(0.015625)"/>
       <path id="DejaVuSans-Oblique-3bc" d="M -84 -1331 
L 856 3500 
L 1434 3500 
L 1009 1322 
Q 997 1256 987 1175 
Q 978 1094 978 1013 
Q 978 722 1161 565 
Q 1344 409 1684 409 
Q 2147 409 2431 671 
Q 2716 934 2816 1459 
L 3213 3500 
L 3788 3500 
L 3266 809 
Q 3253 750 3248 706 
Q 3244 663 3244 628 
Q 3244 531 3283 486 
Q 3322 441 3406 441 
Q 3438 441 3492 456 
Q 3547 472 3647 513 
L 3559 50 
Q 3422 -19 3297 -55 
Q 3172 -91 3053 -91 
Q 2847 -91 2730 40 
Q 2613 172 2613 403 
Q 2438 153 2195 31 
Q 1953 -91 1625 -91 
Q 1334 -91 1117 43 
Q 900 178 831 397 
L 494 -1331 
L -84 -1331 
z
" transform="scale(0.015625)"/>
       <path id="DejaVuSans-Oblique-54" d="M 378 4666 
L 4325 4666 
L 4225 4134 
L 2559 4134 
L 1759 0 
L 1125 0 
L 1925 4134 
L 275 4134 
L 378 4666 
z
" transform="scale(0.015625)"/>
      </defs>
      <use xlink:href="#DejaVuSans-4d" transform="translate(0 0.015625)"/>
      <use xlink:href="#DejaVuSans-61" transform="translate(86.279297 0.015625)"/>
      <use xlink:href="#DejaVuSans-67" transform="translate(147.558594 0.015625)"/>
      <use xlink:href="#DejaVuSans-6e" transform="translate(211.035156 0.015625)"/>
      <use xlink:href="#DejaVuSans-65" transform="translate(274.414062 0.015625)"/>
      <use xlink:href="#DejaVuSans-74" transform="translate(335.9375 0.015625)"/>
      <use xlink:href="#DejaVuSans-69" transform="translate(375.146484 0.015625)"/>
      <use xlink:href="#DejaVuSans-63" transform="translate(402.929688 0.015625)"/>
      <use xlink:href="#DejaVuSans-20" transform="translate(457.910156 0.015625)"/>
      <use xlink:href="#DejaVuSans-66" transform="translate(489.697266 0.015625)"/>
      <use xlink:href="#DejaVuSans-69" transform="translate(524.902344 0.015625)"/>
      <use xlink:href="#DejaVuSans-65" transform="translate(552.685547 0.015625)"/>
      <use xlink:href="#DejaVuSans-6c" transform="translate(614.208984 0.015625)"/>
      <use xlink:href="#DejaVuSans-64" transform="translate(641.992188 0.015625)"/>
      <use xlink:href="#DejaVuSans-20" transform="translate(705.46875 0.015625)"/>
      <use xlink:href="#DejaVuSans-5b" transform="translate(737.255859 0.015625)"/>
      <use xlink:href="#DejaVuSans-Oblique-3bc" transform="translate(776.269531 0.015625)"/>
      <use xlink:href="#DejaVuSans-Oblique-54" transform="translate(839.892578 0.015625)"/>
      <use xlink:href="#DejaVuSans-5d" transform="translate(900.976562 0.015625)"/>
     </g>
    </g>
   </g>
   <g id="line2d_14">
    <path d="M 73.832727 56.972229 
L 74.050461 57.548087 
L 74.268217 56.915536 
L 74.485951 57.378082 
L 74.703707 56.593823 
L 74.921441 56.40327 
L 75.139175 57.856451 
L 75.356931 57.206427 
L 75.574665 58.329796 
L 76.010154 56.656591 
L 76.22791 56.448265 
L 76.445644 57.637552 
L 76.663378 58.207711 
L 76.881134 56.750555 
L 77.098868 56.381148 
L 77.316624 56.559402 
L 77.534375 56.32438 
L 77.752109 57.57111 
L 77.969865 57.433576 
L 78.187599 57.067468 
L 78.405355 57.328063 
L 78.623089 57.106764 
L 78.840844 57.102564 
L 79.058578 55.555119 
L 79.276312 55.668581 
L 79.494068 54.438949 
L 79.711802 56.294383 
L 80.147292 54.475395 
L 80.365048 55.856134 
L 80.582782 56.483211 
L 81.018271 55.595464 
L 81.236006 55.568692 
L 81.453761 55.102472 
L 81.671495 55.429359 
L 81.889229 56.386472 
L 82.106985 56.781301 
L 82.324719 57.918994 
L 82.542475 57.257571 
L 82.760209 57.001326 
L 82.977965 55.126619 
L 83.413433 56.627644 
L 83.631188 55.97297 
L 83.848923 57.129711 
L 84.066678 56.660415 
L 84.502146 57.187079 
L 84.719902 56.777477 
L 84.937636 55.536146 
L 85.155392 55.599439 
L 85.373126 56.357451 
L 85.590882 55.906903 
L 85.808616 56.508483 
L 86.02635 56.58265 
L 86.244105 56.031239 
L 86.461839 56.546279 
L 86.679595 56.060785 
L 86.897329 56.891689 
L 87.115063 55.902929 
L 87.332819 56.221117 
L 87.550553 56.844219 
L 87.768309 55.857559 
L 87.986043 56.523631 
L 88.203799 55.593365 
L 88.639267 56.459964 
L 89.292512 54.386905 
L 89.510246 55.760145 
L 89.945736 54.567559 
L 90.16347 55.486352 
L 90.381226 55.779193 
L 91.03445 54.703143 
L 91.252184 54.902695 
L 91.469939 54.861975 
L 91.687673 55.448106 
L 91.905429 55.042854 
L 92.123163 55.206784 
L 92.340919 56.747255 
L 92.776387 54.162606 
L 92.994143 55.049753 
L 93.211877 54.715292 
L 93.429633 54.763286 
L 93.647367 54.962538 
L 94.082856 56.864467 
L 94.30059 55.659132 
L 94.518346 56.828096 
L 94.73608 56.178072 
L 94.953836 54.847951 
L 95.17157 55.599064 
L 95.389304 55.101497 
L 95.824794 55.03198 
L 96.04255 54.008724 
L 96.478039 55.812264 
L 96.695773 55.561868 
L 96.913507 55.07075 
L 97.131263 56.230116 
L 97.348997 56.075259 
L 97.566753 54.30254 
L 97.784487 54.30254 
L 98.002221 55.233106 
L 98.219977 54.078841 
L 98.437711 54.8625 
L 98.655466 53.798298 
L 99.090956 55.946423 
L 99.308671 55.912752 
L 99.526406 56.012341 
L 99.744161 55.665431 
L 99.961895 56.461164 
L 100.397385 55.128269 
L 100.615141 55.918902 
L 100.832875 55.392088 
L 101.050609 56.383098 
L 101.268365 56.511408 
L 101.486099 55.618037 
L 101.703854 56.171997 
L 101.921588 56.353401 
L 102.139323 57.760388 
L 102.357078 56.690862 
L 102.574812 56.530006 
L 102.792568 56.62112 
L 103.010302 57.35266 
L 103.445792 56.619245 
L 103.881282 56.987227 
L 104.099016 56.540579 
L 104.316771 57.036047 
L 104.752261 58.746373 
L 105.405485 56.761804 
L 105.623219 57.230724 
L 106.058709 56.035363 
L 106.276443 56.937808 
L 106.494199 56.346802 
L 106.711933 56.155799 
L 106.929688 55.42111 
L 107.147422 55.764645 
L 107.365178 55.620736 
L 107.582912 56.40252 
L 107.800646 55.7204 
L 108.236136 56.648267 
L 108.671626 54.633551 
L 108.88936 55.056277 
L 109.107116 54.94424 
L 109.32485 54.957888 
L 109.542605 54.411802 
L 109.760339 55.771694 
L 109.978095 54.927742 
L 110.195829 55.281626 
L 110.413563 54.791483 
L 110.631319 54.808506 
L 110.849053 54.597405 
L 111.066809 54.683345 
L 111.502298 54.569434 
L 112.155522 56.474137 
L 112.373256 55.407536 
L 112.591012 55.562093 
L 112.808746 55.063626 
L 113.02648 54.927742 
L 113.244236 56.343652 
L 113.46197 55.113795 
L 113.679726 55.969596 
L 114.115215 55.448331 
L 114.33295 56.36105 
L 114.550684 55.176938 
L 114.986173 57.428326 
L 115.203929 55.596139 
L 115.421663 55.413835 
L 115.857153 57.703694 
L 116.074887 57.408079 
L 116.292643 58.357468 
L 116.510377 56.780776 
L 116.728132 56.693187 
L 116.945866 57.034322 
L 117.163601 56.626144 
L 117.381356 58.076701 
L 117.59909 58.423086 
L 117.816846 58.17239 
L 118.03458 58.487503 
L 118.47007 57.682772 
L 118.90556 58.248581 
L 119.123294 57.034547 
L 119.341049 56.96293 
L 119.558783 57.828705 
L 119.776518 56.189245 
L 119.994273 56.570651 
L 120.212007 56.214817 
L 120.429763 58.154167 
L 120.647497 57.780485 
L 120.865225 57.152733 
L 121.082981 57.072418 
L 121.300715 56.709085 
L 121.51847 55.682079 
L 121.736204 55.310797 
L 122.171694 56.318755 
L 122.389428 56.191045 
L 122.607184 55.687629 
L 122.824918 56.305332 
L 123.042674 56.219242 
L 123.260408 55.906978 
L 123.478142 55.906978 
L 123.695898 55.200935 
L 123.913632 56.812498 
L 124.349121 56.284859 
L 124.566877 56.477962 
L 124.784611 54.995609 
L 125.002345 55.570642 
L 125.220101 54.999209 
L 125.437835 55.216458 
L 125.655591 55.830112 
L 125.873325 55.542145 
L 126.09108 56.028164 
L 126.526549 56.172972 
L 126.744304 56.134427 
L 126.962038 55.58819 
L 127.179794 54.60108 
L 127.397528 55.256804 
L 127.833018 57.05577 
L 128.050752 57.05022 
L 128.268508 56.06116 
L 128.486242 57.024198 
L 128.703997 56.893638 
L 128.921731 55.662282 
L 129.139466 56.599073 
L 129.357221 56.7918 
L 129.574955 56.745906 
L 129.792711 56.198919 
L 130.010445 56.858467 
L 130.228179 55.728724 
L 130.445935 56.405145 
L 130.663669 56.286134 
L 130.881425 55.974395 
L 131.099159 56.550928 
L 131.316914 56.805899 
L 131.534648 56.849918 
L 131.752383 56.32228 
L 131.970138 56.825321 
L 132.405628 55.93705 
L 132.623362 55.611962 
L 132.841096 56.257412 
L 133.058852 56.15085 
L 133.276586 56.349277 
L 133.494342 57.036272 
L 133.712076 57.131961 
L 133.929831 56.129927 
L 134.147565 56.508483 
L 134.583055 56.071584 
L 134.800789 57.119737 
L 135.018545 56.646692 
L 135.236279 55.54822 
L 135.454013 55.624486 
L 135.671769 55.07345 
L 135.889503 56.497984 
L 136.324993 56.201844 
L 136.542748 56.200944 
L 136.760482 55.58564 
L 136.978216 55.928876 
L 137.195972 56.502859 
L 137.413706 56.654491 
L 137.631462 54.877198 
L 138.06693 55.821113 
L 138.50242 56.448865 
L 138.720176 56.343877 
L 138.93791 57.173431 
L 139.155665 56.480586 
L 139.373399 56.464388 
L 139.591133 56.989702 
L 139.808889 56.007766 
L 140.026623 56.592248 
L 140.244379 56.498734 
L 140.462113 56.607022 
L 140.897603 57.777561 
L 141.115337 58.059153 
L 141.333093 57.13436 
L 141.550827 57.434326 
L 141.768582 56.858167 
L 141.986316 57.149209 
L 142.20405 56.27526 
L 142.421806 56.719659 
L 142.639564 57.629603 
L 143.075054 57.087341 
L 143.29281 57.118762 
L 143.728278 57.99871 
L 144.163768 56.826296 
L 144.381524 56.913961 
L 144.599258 57.387831 
L 144.816992 56.783401 
L 145.034747 55.809339 
L 145.252481 56.041587 
L 145.470237 57.43545 
L 145.905705 56.173047 
L 146.123461 54.756762 
L 146.558951 57.310215 
L 146.776685 57.314564 
L 146.994441 56.184971 
L 147.212175 55.97957 
L 147.429909 55.467304 
L 147.647664 55.308173 
L 148.083154 56.646392 
L 148.300888 56.483361 
L 148.736378 55.686804 
L 148.954112 56.564202 
L 149.171868 56.564202 
L 149.389602 56.27946 
L 149.607358 55.806715 
L 149.825092 55.822463 
L 150.042826 56.247588 
L 150.260581 56.178746 
L 150.478315 55.357217 
L 150.696071 55.682829 
L 150.913805 54.091214 
L 151.131539 54.524439 
L 151.567029 56.013391 
L 151.784785 56.221192 
L 152.002519 55.740122 
L 152.438009 56.039188 
L 152.655743 56.374174 
L 152.873498 55.349193 
L 153.091232 55.773494 
L 153.308988 55.852384 
L 153.526722 55.659507 
L 153.744456 57.146059 
L 153.962212 56.544329 
L 154.179946 57.090715 
L 154.397702 56.489285 
L 154.615436 58.248431 
L 155.050926 55.466254 
L 155.704149 56.562702 
L 155.921905 56.463713 
L 156.139639 55.828462 
L 156.575129 56.198769 
L 156.792863 56.255088 
L 157.010619 57.043096 
L 157.228353 56.030189 
L 157.663842 57.378007 
L 157.881577 56.084182 
L 158.099332 56.276235 
L 158.317066 55.986469 
L 158.534822 56.940058 
L 158.752556 57.029148 
L 159.188046 55.582491 
L 159.40578 56.362625 
L 159.623536 56.205368 
L 160.059004 55.608138 
L 160.276759 55.744172 
L 160.494494 56.489585 
L 160.929983 54.711542 
L 161.365473 55.681479 
L 161.583207 54.703668 
L 161.800963 55.598464 
L 162.018697 55.981594 
L 162.236453 55.479453 
L 162.454187 55.661982 
L 162.671921 56.028314 
L 162.889676 55.820513 
L 163.107411 55.80229 
L 163.325166 56.145825 
L 163.760656 55.41541 
L 163.97839 55.962547 
L 164.196114 56.075858 
L 164.41387 57.145009 
L 164.631604 57.476996 
L 164.84936 57.055395 
L 165.067094 57.35161 
L 165.284828 57.414528 
L 165.502583 56.566601 
L 165.720318 56.826746 
L 166.155807 56.906912 
L 166.373563 57.541113 
L 166.591297 58.672657 
L 167.026787 56.141926 
L 167.244521 57.009875 
L 167.462277 56.334428 
L 167.680011 57.670548 
L 167.897745 57.800508 
L 168.1155 58.449033 
L 168.333235 56.930084 
L 168.55099 57.072793 
L 168.768724 57.963614 
L 168.986458 56.885389 
L 169.204214 56.981603 
L 169.421948 56.514033 
L 169.639704 57.023448 
L 169.857438 57.866725 
L 170.075194 56.170722 
L 170.292928 57.22165 
L 170.510662 56.635368 
L 170.946151 57.61453 
L 171.163907 56.57845 
L 171.381641 57.202227 
L 171.599375 56.914861 
L 171.817131 57.040471 
L 172.034865 56.782501 
L 172.252621 56.74763 
L 172.470355 56.865367 
L 172.688111 57.159108 
L 172.905845 56.521907 
L 173.123579 56.886889 
L 173.341334 57.494169 
L 173.559068 55.661457 
L 173.776824 55.040904 
L 173.994558 55.411061 
L 174.212292 55.465279 
L 174.430048 56.1516 
L 174.647782 56.401471 
L 174.865538 56.401471 
L 175.083272 55.647883 
L 175.301006 55.755196 
L 175.518762 56.45314 
L 175.954251 55.139217 
L 176.171985 56.340578 
L 176.389741 56.087332 
L 176.607475 57.188204 
L 176.825209 56.92521 
L 177.042965 55.475028 
L 177.260699 55.046078 
L 177.696189 56.473537 
L 177.913923 55.955647 
L 178.131679 56.366825 
L 178.349413 57.044371 
L 179.002658 56.552653 
L 179.220392 57.896272 
L 179.438126 58.315773 
L 179.655882 57.200953 
L 179.873616 57.973288 
L 180.091372 57.26702 
L 180.309106 55.9354 
L 180.52684 56.346802 
L 180.744596 57.425552 
L 180.96233 57.208227 
L 181.180085 57.361509 
L 181.397819 56.519432 
L 181.615553 56.79735 
L 181.833309 56.817972 
L 182.051043 56.243914 
L 182.268799 57.443474 
L 182.486533 57.990911 
L 182.922023 57.045721 
L 183.139757 57.354985 
L 183.357513 57.321314 
L 183.575247 56.420368 
L 183.793002 56.62457 
L 184.010736 56.328354 
L 184.22847 57.814756 
L 184.446226 56.981453 
L 184.66396 58.015658 
L 184.881716 56.892364 
L 185.09945 58.25368 
L 185.317184 57.842503 
L 185.53494 56.762179 
L 185.752674 57.807857 
L 185.970429 58.098673 
L 186.188163 57.188504 
L 186.405918 58.338795 
L 186.623652 57.038971 
L 186.841387 58.239957 
L 187.059142 57.923269 
L 187.276876 56.801024 
L 187.494632 58.452332 
L 187.712366 57.662374 
L 187.9301 57.882398 
L 188.147856 57.668823 
L 188.36559 57.930168 
L 188.583346 56.7924 
L 188.80108 56.455614 
L 189.018814 55.693028 
L 189.236569 56.384898 
L 189.454304 54.408802 
L 189.672059 56.247663 
L 189.889793 55.602588 
L 190.107549 54.579407 
L 190.325283 54.551061 
L 190.543017 56.094981 
L 190.760773 56.305932 
L 190.978507 55.9351 
L 191.196263 56.708035 
L 191.413997 58.202386 
L 191.849486 56.06281 
L 192.06722 57.52694 
L 192.50271 56.391422 
L 192.720466 57.033197 
L 192.9382 56.995776 
L 193.155934 56.601022 
L 193.37369 56.850518 
L 193.591424 56.828396 
L 193.80918 55.479678 
L 194.026914 56.694537 
L 194.244648 56.717334 
L 194.680137 57.211751 
L 194.897893 56.108405 
L 195.115627 56.640093 
L 195.551117 55.447132 
L 195.986607 57.551087 
L 196.204341 57.244148 
L 196.422097 56.027189 
L 196.857565 55.653058 
L 197.07532 55.152491 
L 197.293054 55.321596 
L 197.51081 56.96188 
L 197.728544 55.774768 
L 197.946278 56.79405 
L 198.164034 57.26657 
L 198.381768 57.118462 
L 198.599524 56.784226 
L 198.817258 56.863342 
L 199.470482 56.485761 
L 199.688237 56.853743 
L 199.905971 56.3663 
L 200.123705 56.930759 
L 200.341461 56.714184 
L 200.559195 56.714184 
L 200.776951 57.006275 
L 200.994685 55.422084 
L 201.647909 57.261471 
L 201.865665 55.796366 
L 202.301154 56.422918 
L 202.518888 56.012566 
L 202.736622 56.568401 
L 202.954378 54.774985 
L 203.172112 56.048712 
L 203.389868 55.239931 
L 203.825336 56.067834 
L 204.043092 55.557744 
L 204.260826 56.572751 
L 204.478582 56.594873 
L 204.696316 57.373958 
L 204.914071 57.534664 
L 205.131805 56.740206 
L 205.349539 56.628169 
L 205.567295 55.974095 
L 205.785029 56.569451 
L 206.002785 56.630344 
L 206.220519 56.49446 
L 206.438253 56.512308 
L 206.656009 55.036704 
L 206.873743 55.220058 
L 207.091499 57.508492 
L 207.309233 56.23034 
L 207.526969 56.766228 
L 207.744725 56.783851 
L 207.962459 55.553169 
L 208.397949 57.254271 
L 208.615705 55.990368 
L 209.051173 57.004625 
L 209.268929 55.564268 
L 209.486663 57.495893 
L 209.704418 56.813548 
L 209.922152 56.950332 
L 210.139886 57.482395 
L 210.357642 56.255763 
L 210.575376 56.889364 
L 210.793132 56.49416 
L 211.010866 56.827796 
L 211.2286 55.696178 
L 211.446356 56.745606 
L 211.66409 56.326479 
L 211.881846 57.30969 
L 212.09958 56.013766 
L 212.317314 55.564643 
L 212.535069 56.156924 
L 212.752803 56.357601 
L 213.188293 57.296717 
L 213.406049 57.371858 
L 213.623783 56.281485 
L 213.841517 56.548903 
L 214.059273 56.564277 
L 214.277007 54.885447 
L 214.494762 54.908919 
L 214.712497 57.326263 
L 214.930231 57.398705 
L 215.147986 57.604856 
L 215.36572 56.71066 
L 215.583476 56.454114 
L 215.80121 55.981219 
L 216.018944 55.966671 
L 216.2367 57.108713 
L 216.454434 57.186629 
L 216.67219 57.09304 
L 216.889924 57.154158 
L 217.760903 55.955872 
L 218.196393 57.293867 
L 218.414127 56.83897 
L 218.849617 56.589924 
L 219.067351 55.941624 
L 219.502841 56.897913 
L 219.720575 55.638884 
L 220.156065 57.058919 
L 220.37382 56.783626 
L 220.591554 56.081408 
L 220.809288 55.97522 
L 221.027044 56.66649 
L 221.244778 56.41077 
L 221.462534 57.4374 
L 221.680268 57.487869 
L 222.115758 56.66259 
L 222.768982 55.883506 
L 222.986737 56.608297 
L 223.204471 55.881106 
L 223.422205 56.315156 
L 223.857695 55.496476 
L 224.075451 55.9363 
L 224.293185 55.24878 
L 224.510919 55.760295 
L 224.728675 55.033405 
L 225.164164 55.643984 
L 225.381899 55.720175 
L 225.599633 56.888164 
L 225.817388 55.46378 
L 226.035122 55.46378 
L 226.252878 56.357826 
L 226.470612 56.740356 
L 226.688346 55.790817 
L 226.906102 56.308106 
L 227.123836 56.033113 
L 227.341592 57.103764 
L 227.994815 57.023298 
L 228.430305 55.89378 
L 228.648039 55.053202 
L 228.865795 56.634244 
L 229.083529 54.925042 
L 229.301264 56.211368 
L 229.51902 55.76022 
L 229.736754 56.488086 
L 229.95451 55.89408 
L 230.172244 55.870457 
L 230.389978 55.677355 
L 230.607733 57.047071 
L 230.825467 56.518832 
L 231.043223 57.000051 
L 231.260957 56.915536 
L 231.478691 57.441 
L 231.696447 57.157758 
L 231.914181 58.227733 
L 232.131937 58.307224 
L 232.349671 57.063569 
L 232.567405 57.900396 
L 232.785161 56.026439 
L 233.002895 56.417819 
L 233.22065 57.738115 
L 233.438384 56.491835 
L 233.873874 56.380173 
L 234.091608 56.786776 
L 234.309364 56.907137 
L 234.527098 55.609188 
L 234.744854 56.298658 
L 234.962588 57.364134 
L 235.180322 56.185271 
L 235.615812 55.370115 
L 236.051301 56.053286 
L 236.269035 54.277867 
L 236.486791 55.623061 
L 236.704525 55.396962 
L 236.922281 55.525647 
L 237.140015 56.081408 
L 237.357749 57.062819 
L 237.575505 56.071809 
L 237.793239 56.530906 
L 238.010994 56.067534 
L 238.228729 56.147025 
L 238.446463 57.09679 
L 238.664218 56.177622 
L 238.881952 57.029148 
L 239.099708 56.53458 
L 239.317442 56.3615 
L 239.535198 56.471062 
L 239.752932 55.566968 
L 239.970666 57.617679 
L 240.188422 56.092432 
L 240.406156 55.701652 
L 240.841646 57.05112 
L 241.05938 56.609046 
L 241.277135 56.814448 
L 241.712625 55.300974 
L 241.930359 55.499925 
L 242.148093 55.982494 
L 242.365849 55.63086 
L 242.583583 56.255388 
L 242.801339 56.284859 
L 243.019073 55.498051 
L 243.236807 55.71845 
L 243.454563 55.105846 
L 243.672297 54.936666 
L 244.32552 55.082074 
L 244.543276 54.951439 
L 244.76101 56.272711 
L 244.978766 55.486427 
L 245.1965 55.226507 
L 245.414234 55.399662 
L 245.63199 55.150316 
L 245.849724 55.97957 
L 246.067479 56.043237 
L 246.285214 54.631976 
L 246.502969 56.068059 
L 246.720703 55.356167 
L 246.938437 56.202219 
L 247.156193 55.323696 
L 247.373927 56.129252 
L 247.591683 54.872548 
L 247.809417 55.334495 
L 248.027151 56.520257 
L 248.462641 56.873391 
L 248.898131 56.394571 
L 249.115865 55.741547 
L 249.33362 56.19052 
L 249.551354 57.52604 
L 249.986844 56.057936 
L 250.204578 56.908037 
L 250.422334 56.070159 
L 250.640068 56.840994 
L 250.857824 55.996143 
L 251.075557 56.613846 
L 251.293291 56.438141 
L 251.511047 57.738265 
L 251.728781 57.738265 
L 251.946536 56.344852 
L 252.16427 56.429367 
L 252.382005 56.244664 
L 252.59976 55.789617 
L 252.817494 57.18138 
L 253.03525 56.562852 
L 253.252984 56.768703 
L 253.470718 56.086732 
L 253.688474 55.771094 
L 253.906208 56.074059 
L 254.123964 55.840986 
L 254.341698 56.14605 
L 254.559432 55.498501 
L 254.777187 55.579191 
L 254.994921 55.390813 
L 255.212677 55.601614 
L 255.430411 56.033188 
L 255.648167 57.706169 
L 256.083635 56.022765 
L 256.301391 56.292208 
L 256.519125 55.975445 
L 256.736881 56.401621 
L 256.954615 56.031164 
L 257.172349 56.684863 
L 257.390104 55.989244 
L 257.607838 56.241589 
L 257.825594 55.711401 
L 258.043328 56.334128 
L 258.261062 56.23334 
L 258.696552 56.826521 
L 258.914308 56.413919 
L 259.132042 57.294242 
L 259.349776 56.971029 
L 259.567532 56.248488 
L 259.785266 57.149284 
L 260.003021 57.441 
L 260.220755 57.028398 
L 260.43849 56.858617 
L 260.656245 56.83612 
L 260.873979 57.106539 
L 261.091735 56.081558 
L 261.309469 55.748447 
L 261.527203 56.773502 
L 261.744959 56.164573 
L 261.962693 57.691846 
L 262.180449 58.008909 
L 262.398183 57.321764 
L 262.615917 57.69357 
L 262.833672 57.615054 
L 263.051406 56.256062 
L 263.70463 56.252988 
L 264.14012 55.528497 
L 264.357876 56.497084 
L 264.57561 55.952198 
L 264.793344 57.52064 
L 265.0111 56.31703 
L 265.228834 56.053436 
L 265.446589 55.180163 
L 265.664323 57.90962 
L 265.882079 56.500384 
L 266.099813 56.957756 
L 266.317547 55.934425 
L 266.753037 57.450749 
L 266.970793 56.44759 
L 267.188527 57.387606 
L 267.406261 56.761879 
L 267.624017 55.656882 
L 267.841751 55.129618 
L 268.059506 55.405886 
L 268.71273 57.235149 
L 268.930464 56.542454 
L 269.14822 55.367416 
L 269.365954 56.383398 
L 269.583688 56.793825 
L 269.801444 56.370724 
L 270.019178 56.23814 
L 270.236934 56.519432 
L 270.454668 56.038213 
L 270.890157 56.270236 
L 271.107891 58.20996 
L 271.325647 56.794425 
L 271.543381 56.75213 
L 271.761115 56.933759 
L 272.414361 56.325054 
L 272.632092 56.460264 
L 272.849826 56.296033 
L 273.067582 55.401912 
L 273.285316 56.378298 
L 273.503072 56.163523 
L 273.720806 54.99036 
L 273.93854 55.816989 
L 274.156295 55.777018 
L 274.374029 55.360142 
L 274.591785 55.814889 
L 275.027253 55.905103 
L 275.245009 56.218267 
L 275.462743 55.840461 
L 275.898233 55.93645 
L 276.115967 55.698577 
L 276.333723 57.195703 
L 276.551457 57.057044 
L 276.769212 55.33007 
L 276.986946 55.33007 
L 277.204681 55.056277 
L 277.422436 55.056277 
L 277.64017 56.348377 
L 277.857926 56.492885 
L 278.07566 55.569367 
L 278.293394 54.068267 
L 278.51115 55.108846 
L 278.728884 55.101647 
L 279.164374 58.619863 
L 279.382108 58.482554 
L 279.599863 57.472496 
L 279.817597 57.247972 
L 280.035353 57.282993 
L 280.253087 56.751455 
L 280.470821 57.367733 
L 280.906311 56.097906 
L 281.124067 57.145909 
L 281.341801 56.623295 
L 281.559535 57.702344 
L 281.777291 57.185279 
L 282.21278 55.042179 
L 282.430514 57.102339 
L 282.648249 56.819997 
L 282.866004 56.79315 
L 283.083738 56.553028 
L 283.301494 55.576117 
L 283.519228 56.127527 
L 283.736962 57.13826 
L 283.954718 57.082541 
L 284.172452 56.634768 
L 284.390208 56.504584 
L 284.607942 56.829596 
L 284.825676 55.93375 
L 285.043431 56.220517 
L 285.261165 56.726333 
L 285.478921 56.930984 
L 285.696655 57.39623 
L 285.914389 56.724458 
L 286.132145 57.753563 
L 286.349879 56.252013 
L 286.567635 57.759188 
L 286.785369 56.343727 
L 287.003103 56.309006 
L 287.220859 56.494535 
L 287.438593 55.84991 
L 287.656348 56.62127 
L 287.874082 56.883215 
L 288.091817 55.552569 
L 288.309572 55.539971 
L 288.745062 56.667465 
L 288.962796 56.442566 
L 289.833776 57.498968 
L 290.05151 56.471587 
L 290.269244 56.326704 
L 290.486999 55.875632 
L 290.704734 55.788042 
L 290.922489 56.704435 
L 291.140223 55.727974 
L 291.357957 56.162773 
L 291.575713 56.860192 
L 291.793447 57.174481 
L 292.011203 55.884331 
L 292.228937 55.598239 
L 292.446671 54.177304 
L 292.882161 55.80469 
L 293.099916 55.914177 
L 293.31765 55.855084 
L 293.75314 57.229149 
L 293.970874 56.165098 
L 294.18863 56.723933 
L 294.406364 56.011141 
L 294.624098 56.107055 
L 294.841854 55.228007 
L 295.277344 56.032813 
L 295.495078 57.04932 
L 295.712812 55.673755 
L 295.930567 56.393372 
L 296.148302 55.514474 
L 296.366057 55.729474 
L 296.583791 55.410611 
L 297.019281 56.134352 
L 297.237015 55.712526 
L 297.454771 56.687937 
L 297.672505 55.847435 
L 297.890239 56.904062 
L 298.107995 56.615196 
L 298.325729 57.193903 
L 298.543484 55.15699 
L 298.761218 55.756846 
L 298.978953 54.717841 
L 299.414442 55.769969 
L 299.849932 55.267902 
L 300.067666 55.67308 
L 300.285422 55.604088 
L 300.720912 56.555353 
L 301.15638 54.6397 
L 301.374135 55.249605 
L 301.59187 54.890621 
L 301.809625 55.440157 
L 302.027359 56.354751 
L 302.245093 56.651866 
L 302.462849 56.32363 
L 302.680583 56.914561 
L 303.116073 57.009875 
L 303.333807 57.187679 
L 303.551563 57.752888 
L 303.769297 56.228541 
L 303.987052 56.296108 
L 304.640276 55.316722 
L 305.075766 55.709751 
L 305.2935 56.244064 
L 305.511234 56.40597 
L 305.72899 54.85395 
L 305.946724 55.213009 
L 306.16448 55.907053 
L 306.382214 56.135177 
L 306.817703 56.071734 
L 307.035438 57.13796 
L 307.253193 56.221117 
L 307.470927 56.168023 
L 307.688661 54.841427 
L 307.906417 56.368474 
L 308.124151 55.32767 
L 308.559641 56.824046 
L 308.777375 54.975136 
L 308.995131 56.283059 
L 309.212865 55.482752 
L 309.43062 55.400862 
L 309.648355 56.32288 
L 309.866089 56.685913 
L 310.083844 55.893405 
L 310.301578 56.1507 
L 310.519312 56.648642 
L 310.737068 56.761279 
L 310.954802 54.771835 
L 311.172558 55.652758 
L 311.390292 55.783317 
L 311.608026 54.508841 
L 311.825782 54.376781 
L 312.043516 55.837311 
L 312.261271 55.175963 
L 312.479006 53.920984 
L 312.69674 53.863391 
L 312.914495 53.568 
L 313.132229 55.337344 
L 313.349985 54.808356 
L 313.567719 55.290175 
L 313.785453 55.429884 
L 314.003209 54.723166 
L 314.438699 55.774918 
L 314.656433 54.819979 
L 315.091923 55.305398 
L 315.309657 55.136968 
L 315.527412 55.294074 
L 315.962884 55.241055 
L 316.18064 56.976204 
L 316.61613 55.32767 
L 316.833864 56.941108 
L 317.051598 56.219917 
L 317.269353 57.151758 
L 317.487087 56.841669 
L 317.704843 56.031989 
L 317.922577 56.847744 
L 318.140311 55.620586 
L 318.358067 56.100831 
L 318.575801 56.171547 
L 318.793535 56.525056 
L 319.229025 55.392688 
L 319.446781 55.546795 
L 319.664515 55.986919 
L 320.100004 54.681021 
L 320.317739 56.341553 
L 320.535494 57.009875 
L 320.970962 56.947557 
L 321.188718 56.483211 
L 321.406452 57.348386 
L 321.624208 56.570951 
L 321.841942 55.37409 
L 322.059676 55.164414 
L 322.277432 55.949873 
L 322.495166 55.263553 
L 322.712921 56.368624 
L 322.930655 56.676914 
L 323.14839 57.247372 
L 323.366145 57.287343 
L 323.583879 56.49206 
L 323.801635 57.182355 
L 324.019369 57.323263 
L 324.237103 55.920402 
L 324.890349 56.076083 
L 325.108083 57.606655 
L 325.325817 55.904653 
L 325.543572 57.236948 
L 325.761307 56.022915 
L 325.979041 56.710435 
L 326.196796 56.574251 
L 326.41453 55.918377 
L 326.85002 57.011 
L 327.067754 56.605822 
L 327.28551 56.802824 
L 327.503244 56.528656 
L 327.721 57.491244 
L 327.938734 57.298366 
L 328.156468 56.670314 
L 328.374223 56.670314 
L 328.591958 57.418577 
L 328.809713 57.509692 
L 329.245181 56.49356 
L 329.462937 56.742306 
L 329.680671 57.276769 
L 329.898427 55.97582 
L 330.116161 56.976429 
L 330.551651 55.794566 
L 330.769385 55.685454 
L 331.204875 55.98047 
L 331.422609 56.724308 
L 331.640364 55.11957 
L 332.075854 56.858018 
L 332.293588 56.282084 
L 332.511322 57.273544 
L 332.729078 55.789317 
L 332.946812 56.522582 
L 333.164546 56.332704 
L 333.382302 56.352651 
L 333.817792 54.578133 
L 334.035526 55.722575 
L 334.25326 54.855075 
L 334.471015 55.363366 
L 334.688749 56.610996 
L 334.906505 56.70646 
L 335.124239 58.036506 
L 335.341973 58.13032 
L 335.559729 57.816331 
L 335.777463 57.965264 
L 335.995219 56.889589 
L 336.430687 56.66259 
L 336.648443 57.516366 
L 336.866177 56.290259 
L 337.083911 57.779885 
L 337.301666 57.194728 
L 337.5194 57.721092 
L 337.737166 56.139901 
L 337.9549 58.134819 
L 338.172634 58.521774 
L 338.39039 56.971404 
L 338.608124 56.638293 
L 338.82588 56.948457 
L 339.043614 57.839503 
L 339.261348 56.720259 
L 339.479104 57.722517 
L 339.914593 56.975679 
L 340.132327 57.043171 
L 340.350061 57.319064 
L 340.567817 56.588424 
L 340.785551 56.442716 
L 341.003307 57.440925 
L 341.221041 57.360459 
L 341.438775 57.497768 
L 341.656531 57.093715 
L 341.874265 57.084041 
L 342.309755 55.771319 
L 342.527489 57.052095 
L 342.745244 55.842186 
L 342.962978 56.568776 
L 343.398468 55.704502 
L 343.616202 56.142226 
L 343.833958 55.882156 
L 344.051692 57.851502 
L 344.269426 57.660574 
L 344.487182 56.197569 
L 344.922672 57.960914 
L 345.140406 58.560695 
L 345.35814 57.824505 
L 346.229119 56.715459 
L 346.446853 57.245947 
L 346.664609 57.218726 
L 346.882343 57.976288 
L 347.100077 56.486736 
L 347.535567 58.605539 
L 347.753323 57.692895 
L 347.971057 58.263279 
L 348.188791 57.639427 
L 348.406546 56.418044 
L 348.62428 57.096565 
L 348.842036 56.551828 
L 349.05977 56.344102 
L 349.277504 55.508474 
L 349.49526 55.771544 
L 350.366218 58.12957 
L 350.583974 57.544188 
L 350.801708 57.423077 
L 351.019442 58.439359 
L 351.237197 58.25383 
L 351.672687 57.47902 
L 351.890421 57.401779 
L 352.108155 57.671823 
L 352.543645 58.651659 
L 352.761401 58.743223 
L 352.979135 59.873342 
L 353.196869 59.287435 
L 353.414625 58.0836 
L 353.632359 57.744939 
L 353.850114 56.738106 
L 354.067848 56.738106 
L 354.503338 58.319148 
L 354.721072 58.521774 
L 354.938806 58.420611 
L 355.156562 59.292909 
L 355.374296 59.381999 
L 355.592052 59.235091 
L 355.809786 57.542088 
L 356.02752 58.001185 
L 356.245276 57.977637 
L 356.680765 58.766471 
L 357.116234 56.932859 
L 357.551723 55.927376 
L 357.769457 55.858984 
L 357.987213 56.241514 
L 358.204947 56.276835 
L 358.422703 57.6539 
L 358.640437 58.164816 
L 358.858171 56.810923 
L 359.075927 56.169148 
L 359.293659 56.869116 
L 359.511415 56.458089 
L 359.729149 57.272569 
L 359.946883 56.759179 
L 360.164638 57.424127 
L 360.382372 56.973804 
L 360.600128 57.922969 
L 360.817862 58.118771 
L 361.035596 57.137735 
L 361.253352 55.356167 
L 361.471086 55.350768 
L 361.68882 56.421718 
L 361.906576 56.800199 
L 362.12431 58.129195 
L 362.5598 58.59909 
L 362.777534 58.483454 
L 362.995289 58.153867 
L 363.430779 56.40972 
L 363.648513 57.293792 
L 363.866247 57.156633 
L 364.084003 56.885239 
L 364.301737 57.461172 
L 364.519471 57.074367 
L 364.737227 57.61213 
L 364.954961 57.687421 
L 365.172717 57.314489 
L 365.390451 56.567351 
L 365.82594 58.527023 
L 366.479164 55.889205 
L 367.132388 57.348011 
L 367.350122 56.412644 
L 368.003368 58.122895 
L 368.221102 57.22795 
L 368.438836 58.294176 
L 368.656591 57.136985 
L 368.874326 57.318014 
L 369.092081 57.927543 
L 369.309815 57.279993 
L 369.527549 57.449924 
L 369.745305 58.46733 
L 369.963039 57.830879 
L 370.180795 59.021141 
L 370.398529 58.994744 
L 370.616263 58.282402 
L 370.834019 56.827871 
L 371.051753 57.684496 
L 371.269487 57.210702 
L 371.487243 57.206502 
L 371.704977 57.563011 
L 371.922732 58.412287 
L 372.140466 56.437241 
L 372.575956 58.970147 
L 372.79369 57.840628 
L 373.011446 57.634627 
L 373.22918 58.906254 
L 373.446914 58.434334 
L 373.882404 58.81304 
L 374.100138 59.150876 
L 374.317894 58.344195 
L 374.535628 57.060119 
L 374.753383 57.30939 
L 374.971117 58.354019 
L 375.188851 58.275353 
L 375.406607 59.383874 
L 375.624341 59.428869 
L 375.842097 59.359502 
L 376.059831 58.338045 
L 376.277565 58.806591 
L 376.495321 58.119971 
L 376.713055 58.580942 
L 376.930789 58.524399 
L 377.148545 58.283602 
L 377.366279 58.836962 
L 377.584034 59.045363 
L 378.019502 57.376432 
L 378.237258 58.609514 
L 378.454992 58.481579 
L 378.672748 58.653534 
L 379.108216 56.685163 
L 379.543706 58.553795 
L 379.76144 58.553795 
L 379.979196 58.818365 
L 380.19693 56.988877 
L 380.414685 57.457648 
L 380.850154 56.212718 
L 381.067898 57.185429 
L 381.285632 57.111413 
L 381.503367 55.666856 
L 381.938856 57.270395 
L 382.156612 57.486894 
L 382.59208 56.934809 
L 382.809836 57.35071 
L 383.02757 56.692737 
L 383.245326 56.438066 
L 383.46306 56.544629 
L 383.680794 56.274885 
L 383.898549 56.31913 
L 384.116283 57.633427 
L 384.334018 57.992186 
L 384.551773 57.760463 
L 385.204997 59.389498 
L 385.640487 57.501218 
L 385.858221 58.053379 
L 386.075955 58.196762 
L 386.293711 58.603665 
L 386.511445 58.717801 
L 386.7292 57.709693 
L 386.946935 59.079334 
L 387.164669 58.183488 
L 387.382424 57.804632 
L 387.600158 57.757538 
L 387.817914 55.867008 
L 388.253382 56.70811 
L 388.688872 57.197278 
L 388.906606 57.251872 
L 389.124362 57.572984 
L 389.342096 57.541263 
L 389.559852 57.982587 
L 389.777586 56.325054 
L 389.99532 57.734816 
L 390.213075 57.811157 
L 390.648543 57.113888 
L 391.084033 58.60224 
L 391.301789 58.272428 
L 391.737257 56.951907 
L 392.172747 58.098598 
L 392.608237 56.370649 
L 392.825971 56.772677 
L 393.043726 56.457639 
L 393.479194 57.404629 
L 393.69695 56.943133 
L 393.914684 57.385731 
L 394.13244 56.648942 
L 394.785664 56.754755 
L 395.003398 56.117404 
L 395.221132 57.461247 
L 395.438888 57.511192 
L 396.092111 56.036563 
L 396.309846 56.675864 
L 396.527601 56.804699 
L 396.745335 57.279169 
L 396.963069 57.304141 
L 397.180825 58.332571 
L 397.398559 57.432976 
L 397.616315 57.752514 
L 397.834049 57.226825 
L 398.051783 57.030497 
L 398.269539 57.000276 
L 398.487273 57.166982 
L 398.487273 57.166982 
" clip-path="url(#p09560dcbe0)" style="fill: none; stroke: #1f77b4; stroke-width: 1.5; stroke-linecap: square"/>
   </g>
   <g id="line2d_15">
    <path d="M 73.832727 289.491285 
L 74.050461 289.40527 
L 74.268217 290.824142 
L 74.485951 290.940191 
L 74.921441 290.064593 
L 75.139175 289.995376 
L 75.574665 290.322563 
L 75.79242 289.956456 
L 76.010154 290.617954 
L 76.445644 290.232199 
L 76.881134 291.57368 
L 77.098868 291.273827 
L 77.316624 291.990182 
L 77.752109 290.219712 
L 78.187599 290.469396 
L 78.623089 290.940266 
L 78.840844 290.854701 
L 79.058578 291.462431 
L 79.276312 291.614888 
L 79.494068 290.19864 
L 79.711802 291.680205 
L 79.929558 291.165953 
L 80.147292 291.286651 
L 80.365048 290.773223 
L 80.582782 290.626165 
L 80.800516 290.177005 
L 81.236006 291.417398 
L 81.453761 290.963139 
L 81.671495 290.104113 
L 81.889229 291.307049 
L 82.106985 291.386652 
L 82.324719 291.300937 
L 82.760209 292.204882 
L 82.977965 293.076955 
L 83.413433 291.947774 
L 83.631188 291.558944 
L 83.848923 289.996651 
L 84.066678 291.673568 
L 84.284412 291.976721 
L 84.502146 291.860934 
L 84.719902 290.680346 
L 84.937636 290.541125 
L 85.155392 290.077042 
L 85.373126 291.14098 
L 85.590882 290.029422 
L 85.808616 290.999659 
L 86.02635 291.082225 
L 86.244105 291.516462 
L 86.461839 290.453985 
L 86.679595 290.311464 
L 86.897329 290.501905 
L 87.115063 291.013945 
L 87.332819 290.007225 
L 87.550553 291.010721 
L 87.986043 290.659386 
L 88.203799 291.188712 
L 88.421533 291.155004 
L 88.639267 290.079854 
L 88.857022 289.756154 
L 89.292512 291.126582 
L 89.510246 290.134972 
L 89.728002 290.535801 
L 89.945736 289.8941 
L 90.16347 291.03828 
L 90.59896 291.480653 
L 90.816716 291.89948 
L 91.03445 291.578667 
L 91.252184 290.696582 
L 91.687673 290.486981 
L 92.123163 290.743527 
L 92.340919 290.488631 
L 92.994143 291.532547 
L 93.211877 290.127248 
L 93.647367 291.57143 
L 94.082856 288.791916 
L 94.30059 290.307865 
L 94.518346 290.530176 
L 94.73608 291.12617 
L 94.953836 290.08754 
L 95.389304 291.055153 
L 95.60706 291.544808 
L 95.824794 290.358184 
L 96.260284 291.233032 
L 96.478039 291.351106 
L 96.695773 290.695345 
L 96.913507 290.540038 
L 97.131263 290.984774 
L 97.348997 290.128298 
L 97.566753 290.780347 
L 97.784487 290.780347 
L 98.002221 290.169918 
L 98.219977 290.966363 
L 98.437711 290.634564 
L 98.873201 291.268166 
L 99.090956 291.757146 
L 99.308671 290.537713 
L 99.526406 290.997635 
L 99.744161 291.077688 
L 99.961895 290.941241 
L 100.397385 290.837303 
L 100.832875 291.988419 
L 101.050609 292.260863 
L 101.268365 292.183547 
L 101.486099 292.975192 
L 101.921588 291.621112 
L 102.357078 290.888372 
L 102.574812 291.009896 
L 102.792568 290.921818 
L 103.010302 291.347619 
L 103.228058 292.095732 
L 103.663526 290.755675 
L 103.881282 290.768686 
L 104.099016 290.427551 
L 104.316771 290.916494 
L 104.534505 290.04997 
L 104.752261 289.878127 
L 104.969995 289.562489 
L 105.187729 290.503779 
L 105.405485 290.598831 
L 105.623219 291.892168 
L 106.058709 289.644904 
L 106.276443 289.186333 
L 106.711933 289.740781 
L 106.929688 290.486494 
L 107.147422 290.616304 
L 107.582912 289.878615 
L 107.800646 290.214126 
L 108.018402 289.720458 
L 108.236136 290.36602 
L 108.453892 290.500067 
L 108.671626 290.159119 
L 108.88936 289.281084 
L 109.107116 290.417689 
L 109.542605 289.748055 
L 109.978095 289.698861 
L 110.195829 290.178617 
L 110.413563 290.17903 
L 110.631319 289.420455 
L 110.849053 290.757437 
L 111.066809 290.706293 
L 111.284543 290.846377 
L 111.502298 291.383352 
L 111.937767 290.340073 
L 112.155522 289.431292 
L 112.373256 290.347123 
L 112.808746 290.769061 
L 113.02648 290.550499 
L 113.244236 290.862425 
L 113.46197 290.631152 
L 113.679726 289.406432 
L 113.89746 290.374907 
L 114.115215 290.264707 
L 114.33295 289.875727 
L 114.550684 289.795074 
L 114.768439 290.154957 
L 114.986173 289.660053 
L 115.203929 290.203964 
L 115.421663 290.443861 
L 115.857153 288.527159 
L 116.074887 288.949548 
L 116.292643 288.951872 
L 116.510377 289.415393 
L 116.728132 290.470483 
L 116.945866 289.169272 
L 117.163601 288.81835 
L 117.381356 287.460333 
L 117.59909 287.55141 
L 117.816846 288.71595 
L 118.03458 288.507887 
L 118.252314 287.649311 
L 118.687804 289.282434 
L 118.90556 289.001967 
L 119.123294 289.731594 
L 119.341049 290.855001 
L 119.558783 291.22752 
L 119.776518 291.849985 
L 119.994273 291.602364 
L 120.212007 292.672002 
L 120.865225 291.510162 
L 121.082981 290.813043 
L 121.300715 290.892947 
L 121.51847 291.871583 
L 121.736204 291.026619 
L 121.95396 291.06209 
L 122.171694 292.294309 
L 122.389428 290.73149 
L 122.607184 291.803866 
L 122.824918 292.101131 
L 123.260408 291.27634 
L 123.478142 291.27634 
L 123.695898 290.741989 
L 123.913632 290.795683 
L 124.349121 290.056344 
L 124.784611 291.385377 
L 125.002345 289.262599 
L 125.220101 290.460922 
L 125.437835 290.426763 
L 125.655591 289.970141 
L 126.09108 290.504079 
L 126.308815 290.446974 
L 126.526549 291.220846 
L 126.744304 290.941204 
L 126.962038 290.895421 
L 127.833018 289.759753 
L 128.050752 290.378807 
L 128.486242 289.795824 
L 128.703997 290.961826 
L 129.139466 290.764524 
L 129.357221 291.16929 
L 129.574955 291.280839 
L 130.010445 289.717046 
L 130.228179 290.13681 
L 130.445935 289.309281 
L 130.663669 289.573025 
L 130.881425 290.967938 
L 131.099159 290.261483 
L 131.316914 288.951197 
L 131.534648 288.656182 
L 131.752383 290.139397 
L 131.970138 289.882327 
L 132.187872 289.884614 
L 132.405628 291.015745 
L 132.623362 290.17888 
L 132.841096 289.986077 
L 133.058852 290.494593 
L 133.494342 290.631827 
L 133.712076 290.017573 
L 133.929831 291.042742 
L 134.147565 290.78256 
L 134.3653 291.566143 
L 134.583055 291.394863 
L 134.800789 290.455747 
L 135.018545 290.773336 
L 135.236279 290.601381 
L 135.454013 289.439991 
L 135.671769 290.247872 
L 135.889503 290.330287 
L 136.324993 289.762566 
L 136.542748 290.67221 
L 136.760482 290.757475 
L 136.978216 291.433259 
L 137.195972 290.972587 
L 137.631462 292.601473 
L 137.849196 291.289501 
L 138.06693 291.040155 
L 138.284686 291.244281 
L 138.50242 292.13049 
L 138.93791 290.905395 
L 139.155665 290.121586 
L 139.373399 290.644651 
L 139.591133 290.871724 
L 139.808889 290.801495 
L 140.026623 290.17528 
L 140.462113 291.559432 
L 140.897603 290.243072 
L 141.115337 290.405428 
L 141.333093 289.827808 
L 141.986316 290.496168 
L 142.20405 291.767458 
L 142.421806 290.596244 
L 142.639564 290.448323 
L 143.075054 289.521506 
L 143.29281 289.744043 
L 143.510544 290.702319 
L 143.728278 290.366808 
L 143.946034 288.856633 
L 144.381524 290.47427 
L 144.599258 290.360471 
L 144.816992 289.518131 
L 145.252481 291.25403 
L 145.470237 289.940332 
L 145.687971 289.722483 
L 145.905705 290.977087 
L 146.123461 290.964301 
L 146.341195 290.007262 
L 146.776685 290.342473 
L 147.429909 291.950999 
L 147.865398 290.056344 
L 148.518622 291.905441 
L 148.736378 290.58657 
L 148.954112 290.908432 
L 149.171868 290.908432 
L 149.389602 291.084924 
L 149.607358 290.980724 
L 149.825092 290.556236 
L 150.260581 291.841511 
L 150.478315 291.233745 
L 150.696071 291.380615 
L 150.913805 291.327446 
L 151.131539 290.376369 
L 151.349295 291.352343 
L 151.567029 290.426801 
L 151.784785 290.099426 
L 152.002519 292.23739 
L 152.220274 291.18545 
L 152.438009 291.377465 
L 152.873498 292.30342 
L 153.308988 292.333717 
L 153.526722 292.071472 
L 153.744456 292.045975 
L 153.962212 292.86308 
L 154.179946 292.544555 
L 154.397702 290.56666 
L 154.615436 290.252109 
L 155.050926 291.98647 
L 155.486415 293.398143 
L 155.921905 292.252764 
L 156.139639 291.809378 
L 156.575129 291.726175 
L 156.792863 292.262812 
L 157.010619 292.072297 
L 157.228353 293.209502 
L 157.446108 292.783589 
L 157.663842 291.653583 
L 157.881577 291.243231 
L 158.099332 292.103494 
L 158.317066 292.417295 
L 158.534822 291.068726 
L 158.752556 291.631798 
L 158.97029 292.934247 
L 159.188046 292.084446 
L 159.40578 293.356935 
L 159.623536 292.54358 
L 159.84127 292.371737 
L 160.059004 292.852769 
L 160.276759 291.596965 
L 160.712249 292.939571 
L 160.929983 293.327351 
L 161.147739 292.714447 
L 161.365473 292.787226 
L 161.800963 291.441545 
L 162.236453 291.798766 
L 162.671921 293.071406 
L 162.889676 291.949649 
L 163.107411 292.507546 
L 163.325166 293.39818 
L 163.5429 291.972596 
L 163.760656 292.703536 
L 163.97839 292.750518 
L 164.196114 292.184709 
L 164.41387 292.392585 
L 164.84936 291.536747 
L 165.284828 292.293371 
L 165.502583 292.151713 
L 165.720318 290.898084 
L 165.938073 290.7604 
L 166.155807 291.63536 
L 166.373563 291.493289 
L 166.591297 291.626586 
L 166.809031 291.625462 
L 167.026787 291.428159 
L 167.462277 292.685651 
L 167.680011 292.316806 
L 167.897745 290.614504 
L 168.1155 291.583241 
L 168.333235 290.721592 
L 168.768724 291.819801 
L 168.986458 289.713184 
L 169.204214 290.238835 
L 169.421948 291.316123 
L 169.857438 291.298275 
L 170.075194 293.028061 
L 170.292928 292.304058 
L 170.510662 293.283706 
L 170.728417 291.27574 
L 170.946151 290.934079 
L 171.163907 292.497685 
L 171.381641 291.932063 
L 171.599375 293.053296 
L 171.817131 293.030648 
L 172.034865 292.440204 
L 172.252621 292.379986 
L 172.470355 290.161219 
L 172.688111 290.757962 
L 172.905845 290.139097 
L 173.123579 290.416152 
L 173.341334 290.356909 
L 173.776824 292.00818 
L 173.994558 291.01882 
L 174.212292 290.747426 
L 174.430048 290.663548 
L 174.647782 289.961442 
L 174.865538 289.961442 
L 175.083272 290.986948 
L 175.301006 289.503621 
L 175.518762 291.328534 
L 175.736496 291.469067 
L 175.954251 291.060365 
L 176.171985 291.475666 
L 176.607475 291.058077 
L 176.825209 290.039508 
L 177.042965 290.284167 
L 177.260699 291.70124 
L 177.696189 291.927601 
L 177.913923 291.278289 
L 178.131679 291.290588 
L 178.567168 290.539963 
L 178.784902 291.189387 
L 179.002658 291.223358 
L 179.220392 290.71788 
L 179.438126 290.776073 
L 179.655882 290.031372 
L 179.873616 290.67371 
L 180.091372 290.25942 
L 180.309106 290.698382 
L 180.52684 289.774602 
L 180.744596 289.755217 
L 180.96233 290.675697 
L 181.180085 290.865987 
L 181.397819 290.462947 
L 181.615553 291.918003 
L 181.833309 291.712151 
L 182.051043 291.17019 
L 182.268799 292.113917 
L 182.486533 289.884989 
L 182.704289 289.181083 
L 182.922023 289.110666 
L 183.139757 289.775277 
L 183.575247 289.080145 
L 184.010736 291.650621 
L 184.22847 290.588407 
L 184.446226 290.705843 
L 184.66396 291.143868 
L 184.881716 290.902771 
L 185.09945 290.066655 
L 185.317184 292.225167 
L 185.53494 290.09294 
L 185.752674 290.986836 
L 185.970429 289.873328 
L 186.188163 291.022269 
L 186.405918 290.605168 
L 186.841387 291.978783 
L 187.059142 291.074726 
L 187.276876 291.255305 
L 187.494632 290.445436 
L 187.712366 290.858188 
L 188.147856 291.168652 
L 188.36559 290.741277 
L 188.583346 291.525423 
L 188.80108 291.880469 
L 189.018814 291.593328 
L 189.236569 292.559665 
L 189.454304 292.218605 
L 189.672059 292.155875 
L 189.889793 292.294234 
L 190.325283 290.798908 
L 190.543017 290.828304 
L 190.760773 291.462955 
L 190.978507 291.633186 
L 191.196263 291.243006 
L 191.631731 291.44882 
L 191.849486 292.660379 
L 192.06722 291.948974 
L 192.284976 291.648334 
L 192.720466 293.450637 
L 192.9382 293.695446 
L 193.155934 293.115238 
L 193.37369 291.531872 
L 193.80918 293.203053 
L 194.026914 292.664578 
L 194.244648 293.16552 
L 194.680137 289.911086 
L 194.897893 290.36617 
L 195.115627 291.579192 
L 195.333361 290.800257 
L 195.551117 290.898534 
L 195.768851 291.711289 
L 195.986607 290.776823 
L 196.422097 292.8002 
L 196.639831 292.162362 
L 196.857565 292.762929 
L 197.07532 292.332029 
L 197.293054 292.342753 
L 197.51081 292.568027 
L 197.728544 292.270987 
L 198.164034 292.916999 
L 198.599524 292.103269 
L 198.817258 292.769941 
L 199.034992 295.488 
L 199.252748 294.860923 
L 199.470482 292.699524 
L 199.688237 292.828359 
L 200.123705 291.295162 
L 200.341461 293.114188 
L 200.559195 293.114188 
L 200.776951 292.002368 
L 200.994685 292.900126 
L 201.647909 291.769932 
L 201.865665 291.181063 
L 202.301154 292.123179 
L 202.518888 291.612076 
L 202.736622 292.023253 
L 202.954378 292.04995 
L 203.172112 291.113346 
L 203.607602 293.388207 
L 203.825336 293.157946 
L 204.043092 293.2302 
L 204.260826 292.505784 
L 204.478582 292.45284 
L 204.696316 291.762658 
L 204.914071 291.955498 
L 205.131805 293.008226 
L 205.785029 293.930506 
L 206.002785 292.618946 
L 206.220519 293.485058 
L 206.438253 292.355802 
L 206.656009 293.102415 
L 206.873743 292.597011 
L 207.309233 294.0866 
L 207.526969 293.699308 
L 207.744725 293.721055 
L 207.962459 292.646018 
L 208.397949 293.008226 
L 208.615705 292.142826 
L 208.833439 292.257901 
L 209.268929 292.828359 
L 209.486663 292.126928 
L 209.704418 292.285872 
L 209.922152 292.924161 
L 210.139886 291.67803 
L 210.357642 293.898897 
L 210.575376 292.962519 
L 210.793132 293.889786 
L 211.2286 291.698016 
L 211.446356 292.680214 
L 211.66409 293.010626 
L 211.881846 291.975258 
L 212.09958 291.862996 
L 212.535069 291.846986 
L 212.752803 292.2648 
L 212.970559 291.200036 
L 213.188293 292.397947 
L 213.406049 291.337908 
L 213.623783 292.398884 
L 213.841517 291.555982 
L 214.059273 291.862659 
L 214.494762 293.936168 
L 214.930231 290.757812 
L 215.147986 290.085591 
L 215.583476 291.548445 
L 215.80121 290.709218 
L 216.018944 292.327342 
L 216.454434 290.683796 
L 216.67219 291.562056 
L 216.889924 290.430813 
L 217.107658 292.342528 
L 217.325414 291.503263 
L 217.543148 291.554745 
L 217.760903 292.514258 
L 217.978637 291.008771 
L 218.196393 291.623137 
L 218.631861 291.988494 
L 218.849617 293.114301 
L 219.067351 293.567661 
L 219.285107 292.702374 
L 219.502841 292.588612 
L 219.720575 293.194204 
L 219.938331 293.064957 
L 220.156065 293.114113 
L 220.591554 291.345144 
L 220.809288 292.261875 
L 221.244778 291.431159 
L 221.462534 291.665882 
L 221.680268 291.140305 
L 221.898024 291.172589 
L 222.115758 292.149576 
L 222.551247 291.507388 
L 222.768982 292.183697 
L 222.986737 291.440683 
L 223.204471 291.262354 
L 223.422205 290.148096 
L 223.857695 291.882119 
L 224.510919 291.204423 
L 224.728675 291.207985 
L 224.946409 291.762133 
L 225.381899 291.249568 
L 225.599633 292.175673 
L 225.817388 292.017553 
L 226.470612 292.034389 
L 226.688346 292.919324 
L 226.906102 291.908404 
L 227.123836 293.486895 
L 227.559326 292.299933 
L 227.777081 291.972146 
L 227.994815 293.216289 
L 228.21255 293.430464 
L 228.648039 292.018341 
L 229.083529 293.286893 
L 229.301264 292.367425 
L 229.51902 292.056174 
L 229.736754 292.861355 
L 229.95451 291.814327 
L 230.172244 292.813323 
L 230.389978 291.366742 
L 230.607733 292.54433 
L 230.825467 291.251555 
L 231.043223 291.884069 
L 231.260957 291.156129 
L 231.478691 291.156804 
L 231.696447 291.588528 
L 231.914181 292.538443 
L 232.131937 292.804174 
L 232.349671 291.570905 
L 232.567405 291.010796 
L 232.785161 291.799779 
L 233.002895 292.007805 
L 233.22065 291.004759 
L 233.438384 291.239894 
L 233.65614 291.218184 
L 234.091608 292.116917 
L 234.309364 292.30687 
L 234.527098 292.094195 
L 234.744854 292.331842 
L 234.962588 291.105135 
L 235.180322 291.525011 
L 235.398078 292.834658 
L 235.615812 292.245452 
L 235.833567 292.126478 
L 236.051301 292.419769 
L 236.269035 292.522657 
L 236.486791 291.681443 
L 236.704525 291.997718 
L 236.922281 292.936572 
L 237.357749 291.159728 
L 237.575505 291.676156 
L 237.793239 291.513912 
L 238.010994 292.607135 
L 238.446463 290.785447 
L 238.664218 290.529202 
L 238.881952 291.819127 
L 239.099708 291.427485 
L 239.535198 291.5135 
L 239.970666 292.514596 
L 240.188422 291.992019 
L 240.623911 292.190633 
L 241.05938 292.759517 
L 241.277135 291.950361 
L 241.494869 292.77759 
L 241.930359 291.698878 
L 242.148093 290.480795 
L 242.365849 291.299999 
L 242.583583 291.648709 
L 242.801339 292.5852 
L 243.019073 292.426631 
L 243.236807 291.152829 
L 243.454563 291.929476 
L 243.672297 292.166374 
L 244.107786 291.932438 
L 244.32552 293.027536 
L 244.543276 293.31494 
L 244.76101 291.553732 
L 244.978766 292.00203 
L 245.414234 292.288759 
L 245.63199 291.539446 
L 246.067479 292.585725 
L 246.285214 292.922886 
L 246.502969 292.876579 
L 247.156193 290.320726 
L 247.591683 292.323968 
L 247.809417 291.138843 
L 248.027151 292.979017 
L 248.244907 290.920581 
L 248.462641 291.564006 
L 248.680396 291.290176 
L 248.898131 290.333362 
L 249.33362 290.876149 
L 249.551354 290.319713 
L 249.986844 292.452203 
L 250.422334 293.301254 
L 250.640068 293.07613 
L 250.857824 293.804221 
L 251.075557 292.952545 
L 251.511047 292.271436 
L 251.728781 292.271436 
L 251.946536 293.230237 
L 252.16427 293.38412 
L 252.382005 292.018491 
L 252.817494 291.650771 
L 253.252984 291.865809 
L 253.470718 292.609422 
L 253.688474 292.683626 
L 253.906208 293.934256 
L 254.123964 292.961319 
L 254.341698 293.777561 
L 254.559432 293.688622 
L 254.777187 292.717147 
L 254.994921 293.190792 
L 255.212677 292.443841 
L 255.430411 293.807108 
L 255.648167 293.134586 
L 256.083635 292.974592 
L 256.301391 293.113289 
L 256.519125 292.910287 
L 256.954615 292.998064 
L 257.172349 292.374362 
L 257.390104 293.142235 
L 257.607838 292.892439 
L 257.825594 291.761158 
L 258.043328 292.13544 
L 258.261062 293.714156 
L 258.478818 292.284747 
L 258.696552 292.513321 
L 258.914308 292.523107 
L 259.132042 293.073318 
L 259.349776 293.297842 
L 259.785266 293.143285 
L 260.003021 292.870654 
L 260.220755 292.882878 
L 260.43849 293.090191 
L 260.656245 292.623445 
L 260.873979 292.847032 
L 261.091735 293.611118 
L 261.309469 292.597799 
L 261.744959 292.917599 
L 261.962693 291.906941 
L 262.180449 292.246652 
L 262.398183 292.881641 
L 262.615917 292.256176 
L 262.833672 292.247552 
L 263.051406 293.070769 
L 263.269162 292.921986 
L 263.486896 294.075577 
L 263.922386 293.188505 
L 264.14012 292.918386 
L 264.357876 292.376687 
L 264.57561 293.179168 
L 264.793344 293.218839 
L 265.0111 292.871667 
L 265.228834 291.52756 
L 265.446589 292.757455 
L 265.664323 292.983029 
L 266.099813 292.570202 
L 266.317547 292.720109 
L 266.535303 292.129066 
L 266.753037 292.388123 
L 266.970793 292.392397 
L 267.406261 293.249848 
L 267.624017 293.218989 
L 267.841751 293.904409 
L 268.059506 293.773324 
L 268.27724 293.027761 
L 268.494974 293.042497 
L 268.71273 291.817402 
L 268.930464 291.644884 
L 269.14822 293.156109 
L 269.365954 292.26645 
L 269.801444 291.657633 
L 270.019178 292.855094 
L 270.236934 291.713201 
L 270.454668 291.797979 
L 270.672402 291.604726 
L 270.890157 291.647247 
L 271.107891 293.160946 
L 271.543381 293.178006 
L 271.761115 292.747894 
L 271.978871 293.07583 
L 272.196605 293.679998 
L 272.414361 293.29443 
L 272.632092 293.530203 
L 272.849826 293.0119 
L 273.067582 293.396343 
L 273.285316 293.520791 
L 273.503072 292.756105 
L 273.720806 294.547684 
L 273.93854 293.622592 
L 274.156295 292.009192 
L 274.374029 291.868996 
L 274.591785 292.497873 
L 275.027253 292.719022 
L 275.245009 291.781856 
L 275.462743 292.379424 
L 275.680499 292.541218 
L 275.898233 291.74661 
L 276.115967 292.818085 
L 276.333723 291.346457 
L 276.551457 293.760763 
L 276.769212 293.501856 
L 276.986946 293.501856 
L 277.204681 294.75316 
L 277.422436 294.75316 
L 277.857926 292.514896 
L 278.293394 294.182589 
L 278.51115 294.079326 
L 278.728884 293.706807 
L 278.94664 292.23949 
L 279.164374 292.190896 
L 279.382108 292.630607 
L 279.599863 293.333201 
L 279.817597 292.461727 
L 280.035353 293.446737 
L 280.253087 293.265183 
L 280.470821 293.249548 
L 280.688577 294.710003 
L 280.906311 293.475122 
L 281.341801 293.049096 
L 281.559535 291.867983 
L 281.777291 293.535265 
L 281.995025 292.92941 
L 282.21278 294.298713 
L 282.430514 293.509243 
L 282.648249 294.287877 
L 282.866004 293.504256 
L 283.301494 293.829793 
L 283.736962 292.435405 
L 283.954718 292.057486 
L 284.607942 293.242761 
L 284.825676 292.671365 
L 285.043431 293.968752 
L 285.261165 292.403009 
L 285.478921 293.568523 
L 285.696655 292.664616 
L 286.132145 291.710202 
L 286.349879 292.753855 
L 286.567635 292.848869 
L 286.785369 292.655729 
L 287.003103 293.03316 
L 287.220859 292.665816 
L 287.438593 292.987528 
L 287.656348 293.538002 
L 287.874082 293.288768 
L 288.091817 294.17674 
L 288.527306 292.904625 
L 288.962796 293.189517 
L 289.18053 291.741548 
L 289.398286 291.315373 
L 289.61602 292.34579 
L 289.833776 291.845711 
L 290.05151 291.808215 
L 290.486999 292.86623 
L 290.704734 291.563669 
L 290.922489 292.162287 
L 291.140223 293.309578 
L 291.357957 292.497498 
L 291.575713 292.568927 
L 291.793447 293.38367 
L 292.011203 293.246361 
L 292.228937 293.621654 
L 292.446671 293.134586 
L 292.664427 293.312465 
L 292.882161 294.055179 
L 293.099916 293.389631 
L 293.31765 293.703432 
L 293.535385 292.867617 
L 293.75314 292.47275 
L 293.970874 292.321531 
L 294.18863 292.608222 
L 294.406364 292.705074 
L 294.624098 293.001927 
L 295.059588 291.52801 
L 295.277344 292.522845 
L 295.495078 292.045225 
L 295.712812 292.492248 
L 295.930567 292.501435 
L 296.148302 292.118754 
L 296.366057 292.448903 
L 296.583791 293.379133 
L 296.801525 293.181456 
L 297.019281 292.302108 
L 297.237015 292.220292 
L 297.454771 292.809761 
L 297.890239 290.983386 
L 298.107995 292.720634 
L 298.325729 292.464202 
L 298.543484 292.999377 
L 298.761218 293.083779 
L 298.978953 293.880412 
L 299.414442 291.659583 
L 299.849932 293.591283 
L 300.067666 292.239153 
L 300.285422 292.801962 
L 300.503156 291.340232 
L 300.720912 291.853922 
L 300.938646 293.040285 
L 301.15638 291.76892 
L 301.374135 291.679905 
L 301.59187 290.787959 
L 301.809625 292.179272 
L 302.027359 292.829334 
L 302.245093 291.818189 
L 302.680583 292.560978 
L 302.898339 292.560978 
L 303.116073 292.838708 
L 303.333807 292.324193 
L 303.551563 291.320135 
L 303.769297 291.663782 
L 304.204787 292.787564 
L 304.422521 292.434205 
L 304.640276 293.302417 
L 304.85801 293.316477 
L 305.075766 293.927131 
L 305.2935 292.589325 
L 305.511234 293.110514 
L 305.72899 293.071406 
L 305.946724 293.321314 
L 306.16448 293.067356 
L 306.599948 293.325739 
L 306.817703 293.007888 
L 307.035438 293.920832 
L 307.253193 293.075081 
L 307.470927 293.18333 
L 307.688661 293.918732 
L 307.906417 293.532865 
L 308.124151 293.48712 
L 308.341885 294.28514 
L 308.559641 293.728142 
L 308.777375 294.325523 
L 308.995131 293.195742 
L 309.212865 293.209915 
L 309.43062 293.027911 
L 309.648355 293.943067 
L 309.866089 292.438517 
L 310.083844 293.409317 
L 310.301578 293.065444 
L 310.519312 292.345378 
L 310.737068 292.073272 
L 310.954802 292.526294 
L 311.172558 292.117779 
L 311.390292 291.993369 
L 311.608026 293.639952 
L 311.825782 294.307825 
L 312.043516 293.001214 
L 312.261271 292.850932 
L 312.69674 294.755373 
L 312.914495 294.346745 
L 313.132229 294.53816 
L 313.567719 293.42484 
L 314.003209 293.565636 
L 314.220943 294.166804 
L 314.438699 293.683635 
L 314.656433 293.771862 
L 314.874167 293.721205 
L 315.091923 293.797884 
L 315.309657 295.20877 
L 315.527412 294.850124 
L 315.745146 293.802046 
L 315.962884 293.6605 
L 316.18064 293.2317 
L 316.398374 294.187314 
L 316.833864 292.73882 
L 317.051598 292.903613 
L 317.269353 291.12347 
L 317.487087 291.261979 
L 317.704843 292.615234 
L 317.922577 293.101252 
L 318.140311 293.160083 
L 318.575801 292.895289 
L 318.793535 293.795109 
L 319.011291 293.908421 
L 319.446781 292.905975 
L 319.664515 293.009651 
L 319.882249 291.639147 
L 320.100004 292.664766 
L 320.317739 292.392735 
L 320.535494 293.240624 
L 320.753228 291.875482 
L 320.970962 293.541564 
L 321.188718 292.505447 
L 321.406452 292.723334 
L 321.624208 293.735679 
L 321.841942 293.743965 
L 322.277432 294.491028 
L 322.495166 293.783186 
L 322.712921 293.531627 
L 322.930655 294.243295 
L 323.14839 293.634478 
L 323.366145 293.51303 
L 323.583879 292.564615 
L 323.801635 292.317219 
L 324.019369 293.274595 
L 324.237103 293.283781 
L 324.454859 294.096049 
L 324.672593 294.197063 
L 324.890349 294.066165 
L 325.108083 293.634366 
L 325.325817 293.449362 
L 325.543572 292.835746 
L 325.761307 292.5858 
L 325.979041 292.04395 
L 326.196796 293.427839 
L 326.41453 293.267621 
L 326.632286 293.463535 
L 326.85002 292.514596 
L 327.067754 293.626491 
L 327.503244 293.587721 
L 327.721 293.66035 
L 327.938734 293.371334 
L 328.156468 294.49714 
L 328.374223 294.49714 
L 328.591958 294.191588 
L 328.809713 293.250748 
L 329.027447 293.755401 
L 329.245181 291.895093 
L 329.462937 292.775153 
L 329.680671 292.380999 
L 330.116161 294.017758 
L 330.333895 294.660096 
L 330.551651 293.283556 
L 330.769385 292.920561 
L 330.987119 293.261021 
L 331.204875 293.073881 
L 331.422609 292.714522 
L 331.640364 293.24756 
L 331.858098 292.789701 
L 332.075854 292.761317 
L 332.293588 292.903463 
L 332.729078 292.139564 
L 332.946812 292.97478 
L 333.164546 291.813765 
L 333.382302 292.365438 
L 333.600036 292.415232 
L 333.817792 292.189846 
L 334.035526 292.450891 
L 334.25326 292.447741 
L 334.471015 293.318277 
L 334.688749 292.618534 
L 335.777463 291.514062 
L 336.212953 292.578151 
L 336.430687 292.144776 
L 336.648443 290.882598 
L 336.866177 291.047391 
L 337.083911 290.955789 
L 337.301666 291.579192 
L 337.5194 291.253617 
L 337.9549 291.791867 
L 338.172634 290.783459 
L 338.82588 292.551529 
L 339.261348 290.677572 
L 339.479104 289.878015 
L 339.914593 291.977921 
L 340.132327 291.100335 
L 340.350061 291.385002 
L 340.567817 292.534918 
L 340.785551 291.934313 
L 341.003307 291.703827 
L 341.438775 288.963796 
L 341.656531 290.236698 
L 341.874265 289.913373 
L 342.091999 290.307302 
L 342.309755 291.603414 
L 342.527489 291.225421 
L 342.745244 291.847548 
L 342.962978 289.946932 
L 343.180712 291.375741 
L 343.398468 291.349681 
L 343.616202 290.758787 
L 343.833958 291.023769 
L 344.051692 290.896809 
L 344.269426 292.450703 
L 344.487182 291.417511 
L 344.704916 291.993744 
L 345.140406 291.714176 
L 345.35814 291.795992 
L 346.011385 290.570147 
L 346.229119 291.319647 
L 346.446853 291.323622 
L 346.664609 291.885906 
L 346.882343 291.540909 
L 347.100077 292.1516 
L 347.317833 291.255342 
L 347.535567 291.613163 
L 347.753323 291.46993 
L 347.971057 291.047166 
L 348.188791 290.322563 
L 348.406546 290.58147 
L 348.62428 290.239285 
L 348.842036 290.467971 
L 349.277504 291.948149 
L 349.49526 290.808394 
L 349.93075 291.85501 
L 350.148484 292.121791 
L 350.366218 291.573268 
L 350.583974 291.724975 
L 350.801708 291.33757 
L 351.019442 289.956193 
L 351.237197 291.529023 
L 351.454932 290.684921 
L 351.672687 291.409487 
L 351.890421 291.391339 
L 352.108155 291.060215 
L 352.325911 291.262541 
L 352.543645 290.844052 
L 352.761401 290.733965 
L 352.979135 289.371524 
L 353.414625 289.675201 
L 353.850114 290.934642 
L 354.067848 290.934642 
L 354.285583 290.066393 
L 354.721072 291.157591 
L 355.156562 289.80936 
L 355.374296 289.668339 
L 355.592052 289.756529 
L 355.809786 290.353722 
L 356.02752 290.37037 
L 356.245276 289.467287 
L 356.46301 290.663061 
L 356.680765 291.002734 
L 356.8985 290.374307 
L 357.116234 290.706406 
L 357.333989 291.910128 
L 357.551723 292.250364 
L 357.769457 291.000972 
L 357.987213 292.105143 
L 358.422703 291.626849 
L 358.640437 290.518665 
L 358.858171 290.97375 
L 359.075927 291.975483 
L 359.293659 292.082496 
L 359.511415 292.781077 
L 359.729149 291.930226 
L 359.946883 292.252014 
L 360.164638 291.532547 
L 360.382372 291.27574 
L 360.600128 292.084708 
L 360.817862 291.656058 
L 361.035596 291.630186 
L 361.253352 292.273461 
L 361.68882 292.397497 
L 361.906576 292.591237 
L 362.12431 291.110721 
L 362.342066 291.20536 
L 362.777534 291.696591 
L 362.995289 291.380053 
L 363.648513 293.819894 
L 363.866247 292.413545 
L 364.084003 292.9047 
L 364.301737 292.196183 
L 364.519471 292.757942 
L 364.737227 291.623212 
L 365.172717 292.524682 
L 365.390451 292.17601 
L 365.608185 292.415532 
L 366.043675 291.61755 
L 366.26143 291.336745 
L 366.479164 291.863559 
L 366.696898 291.479604 
L 366.914654 292.207244 
L 367.350122 292.053849 
L 367.567878 292.360264 
L 367.785612 292.88404 
L 368.003368 292.90995 
L 368.221102 292.530644 
L 368.438836 291.924302 
L 368.656591 291.963522 
L 369.092081 290.773261 
L 369.309815 292.099669 
L 369.745305 291.522236 
L 369.963039 292.52142 
L 370.398529 291.518262 
L 370.616263 291.724675 
L 370.834019 291.600489 
L 371.051753 291.87897 
L 371.269487 291.412861 
L 371.704977 292.378074 
L 371.922732 291.804053 
L 372.140466 291.966634 
L 372.575956 291.048404 
L 372.79369 291.616575 
L 373.011446 290.761224 
L 373.446914 292.562928 
L 373.66467 291.616313 
L 373.882404 291.392164 
L 374.317894 289.561327 
L 374.535628 291.59584 
L 374.753383 292.352127 
L 374.971117 291.093548 
L 375.188851 290.757025 
L 375.406607 291.89438 
L 375.624341 291.622612 
L 376.059831 289.841006 
L 376.495321 291.315335 
L 376.713055 291.307798 
L 376.930789 292.518833 
L 377.148545 292.233678 
L 377.366279 291.103822 
L 377.584034 291.442145 
L 377.801768 290.379819 
L 378.019502 292.19712 
L 378.237258 291.228308 
L 378.454992 292.440017 
L 378.672748 291.737349 
L 378.890482 292.477812 
L 379.108216 291.639935 
L 379.325972 293.035785 
L 379.543706 291.719463 
L 379.76144 291.719463 
L 379.979196 291.330971 
L 380.19693 291.671581 
L 380.632419 292.88869 
L 380.850154 291.628874 
L 381.067898 292.446279 
L 381.285632 292.71456 
L 381.503367 292.457115 
L 381.721122 293.971826 
L 381.938856 293.72278 
L 382.156612 292.52142 
L 382.59208 291.563031 
L 382.809836 293.19083 
L 383.02757 292.053474 
L 383.46306 291.42126 
L 383.680794 291.419048 
L 383.898549 291.170789 
L 384.116283 290.483719 
L 384.334018 290.211688 
L 384.551773 292.182084 
L 384.769507 291.546871 
L 384.987263 291.881519 
L 385.204997 291.143943 
L 385.422731 291.534985 
L 385.640487 291.661082 
L 385.858221 291.196961 
L 386.293711 290.704044 
L 386.511445 292.447441 
L 386.946935 290.723541 
L 387.382424 292.807737 
L 387.600158 292.096294 
L 387.817914 293.277257 
L 388.253382 294.054429 
L 388.471138 293.778236 
L 388.688872 292.799637 
L 388.906606 292.761992 
L 389.124362 292.177885 
L 389.342096 290.427438 
L 389.559852 292.331917 
L 389.99532 290.913382 
L 390.213075 291.594265 
L 390.430809 290.224962 
L 390.866299 290.994597 
L 391.084033 290.403741 
L 391.301789 291.092124 
L 391.519523 292.49566 
L 391.737257 292.687188 
L 391.955013 291.462843 
L 392.172747 291.506 
L 392.608237 292.650105 
L 392.825971 292.973317 
L 393.479194 290.612592 
L 393.69695 289.774002 
L 393.914684 290.923506 
L 394.13244 291.42021 
L 394.350174 292.306082 
L 394.567908 292.548567 
L 394.785664 291.077988 
L 395.221132 292.00458 
L 395.438888 292.263637 
L 395.656622 291.040155 
L 395.874377 292.15235 
L 396.309846 292.403759 
L 396.527601 291.226283 
L 397.180825 292.340503 
L 397.616315 291.948637 
L 397.834049 293.577185 
L 398.051783 293.821394 
L 398.269539 293.836392 
L 398.487273 292.828434 
L 398.487273 292.828434 
" clip-path="url(#p09560dcbe0)" style="fill: none; stroke: #ff7f0e; stroke-width: 1.5; stroke-linecap: square"/>
   </g>
   <g id="patch_3">
    <path d="M 57.6 307.584 
L 57.6 41.472 
" style="fill: none; stroke: #000000; stroke-width: 0.8; stroke-linejoin: miter; stroke-linecap: square"/>
   </g>
   <g id="patch_4">
    <path d="M 414.72 307.584 
L 414.72 41.472 
" style="fill: none; stroke: #000000; stroke-width: 0.8; stroke-linejoin: miter; stroke-linecap: square"/>
   </g>
   <g id="patch_5">
    <path d="M 57.6 307.584 
L 414.72 307.584 
" style="fill: none; stroke: #000000; stroke-width: 0.8; stroke-linejoin: miter; stroke-linecap: square"/>
   </g>
   <g id="patch_6">
    <path d="M 57.6 41.472 
L 414.72 41.472 
" style="fill: none; stroke: #000000; stroke-width: 0.8; stroke-linejoin: miter; stroke-linecap: square"/>
   </g>
   <g id="text_16">
    <!-- Tyholt_restart -->
    <g transform="translate(195.391875 35.472) scale(0.12 -0.12)">
     <defs>
      <path id="DejaVuSans-54" d="M -19 4666 
L 3928 4666 
L 3928 4134 
L 2272 4134 
L 2272 0 
L 1638 0 
L 1638 4134 
L -19 4134 
L -19 4666 
z
" transform="scale(0.015625)"/>
      <path id="DejaVuSans-79" d="M 2059 -325 
Q 1816 -950 1584 -1140 
Q 1353 -1331 966 -1331 
L 506 -1331 
L 506 -850 
L 844 -850 
Q 1081 -850 1212 -737 
Q 1344 -625 1503 -206 
L 1606 56 
L 191 3500 
L 800 3500 
L 1894 763 
L 2988 3500 
L 3597 3500 
L 2059 -325 
z
" transform="scale(0.015625)"/>
      <path id="DejaVuSans-68" d="M 3513 2113 
L 3513 0 
L 2938 0 
L 2938 2094 
Q 2938 2591 2744 2837 
Q 2550 3084 2163 3084 
Q 1697 3084 1428 2787 
Q 1159 2491 1159 1978 
L 1159 0 
L 581 0 
L 581 4863 
L 1159 4863 
L 1159 2956 
Q 1366 3272 1645 3428 
Q 1925 3584 2291 3584 
Q 2894 3584 3203 3211 
Q 3513 2838 3513 2113 
z
" transform="scale(0.015625)"/>
      <path id="DejaVuSans-6f" d="M 1959 3097 
Q 1497 3097 1228 2736 
Q 959 2375 959 1747 
Q 959 1119 1226 758 
Q 1494 397 1959 397 
Q 2419 397 2687 759 
Q 2956 1122 2956 1747 
Q 2956 2369 2687 2733 
Q 2419 3097 1959 3097 
z
M 1959 3584 
Q 2709 3584 3137 3096 
Q 3566 2609 3566 1747 
Q 3566 888 3137 398 
Q 2709 -91 1959 -91 
Q 1206 -91 779 398 
Q 353 888 353 1747 
Q 353 2609 779 3096 
Q 1206 3584 1959 3584 
z
" transform="scale(0.015625)"/>
      <path id="DejaVuSans-5f" d="M 3263 -1063 
L 3263 -1509 
L -63 -1509 
L -63 -1063 
L 3263 -1063 
z
" transform="scale(0.015625)"/>
      <path id="DejaVuSans-72" d="M 2631 2963 
Q 2534 3019 2420 3045 
Q 2306 3072 2169 3072 
Q 1681 3072 1420 2755 
Q 1159 2438 1159 1844 
L 1159 0 
L 581 0 
L 581 3500 
L 1159 3500 
L 1159 2956 
Q 1341 3275 1631 3429 
Q 1922 3584 2338 3584 
Q 2397 3584 2469 3576 
Q 2541 3569 2628 3553 
L 2631 2963 
z
" transform="scale(0.015625)"/>
     </defs>
     <use xlink:href="#DejaVuSans-54"/>
     <use xlink:href="#DejaVuSans-79" x="45.458984"/>
     <use xlink:href="#DejaVuSans-68" x="104.638672"/>
     <use xlink:href="#DejaVuSans-6f" x="168.017578"/>
     <use xlink:href="#DejaVuSans-6c" x="229.199219"/>
     <use xlink:href="#DejaVuSans-74" x="256.982422"/>
     <use xlink:href="#DejaVuSans-5f" x="296.191406"/>
     <use xlink:href="#DejaVuSans-72" x="346.191406"/>
     <use xlink:href="#DejaVuSans-65" x="385.054688"/>
     <use xlink:href="#DejaVuSans-73" x="446.578125"/>
     <use xlink:href="#DejaVuSans-74" x="498.677734"/>
     <use xlink:href="#DejaVuSans-61" x="537.886719"/>
     <use xlink:href="#DejaVuSans-72" x="599.166016"/>
     <use xlink:href="#DejaVuSans-74" x="640.279297"/>
    </g>
   </g>
   <g id="legend_1">
    <g id="patch_7">
     <path d="M 270.32 190.728 
L 407.72 190.728 
Q 409.72 190.728 409.72 188.728 
L 409.72 160.328 
Q 409.72 158.328 407.72 158.328 
L 270.32 158.328 
Q 268.32 158.328 268.32 160.328 
L 268.32 188.728 
Q 268.32 190.728 270.32 190.728 
z
" style="fill: #ffffff; opacity: 0.8; stroke: #cccccc; stroke-linejoin: miter"/>
    </g>
    <g id="line2d_16">
     <path d="M 272.32 166.428 
L 282.32 166.428 
L 292.32 166.428 
" style="fill: none; stroke: #1f77b4; stroke-width: 1.5; stroke-linecap: square"/>
    </g>
    <g id="text_17">
     <!-- Magnetic Field x $[\mu T]$ -->
     <g transform="translate(300.32 169.928) scale(0.1 -0.1)">
      <defs>
       <path id="DejaVuSans-46" d="M 628 4666 
L 3309 4666 
L 3309 4134 
L 1259 4134 
L 1259 2759 
L 3109 2759 
L 3109 2228 
L 1259 2228 
L 1259 0 
L 628 0 
L 628 4666 
z
" transform="scale(0.015625)"/>
       <path id="DejaVuSans-78" d="M 3513 3500 
L 2247 1797 
L 3578 0 
L 2900 0 
L 1881 1375 
L 863 0 
L 184 0 
L 1544 1831 
L 300 3500 
L 978 3500 
L 1906 2253 
L 2834 3500 
L 3513 3500 
z
" transform="scale(0.015625)"/>
      </defs>
      <use xlink:href="#DejaVuSans-4d" transform="translate(0 0.015625)"/>
      <use xlink:href="#DejaVuSans-61" transform="translate(86.279297 0.015625)"/>
      <use xlink:href="#DejaVuSans-67" transform="translate(147.558594 0.015625)"/>
      <use xlink:href="#DejaVuSans-6e" transform="translate(211.035156 0.015625)"/>
      <use xlink:href="#DejaVuSans-65" transform="translate(274.414062 0.015625)"/>
      <use xlink:href="#DejaVuSans-74" transform="translate(335.9375 0.015625)"/>
      <use xlink:href="#DejaVuSans-69" transform="translate(375.146484 0.015625)"/>
      <use xlink:href="#DejaVuSans-63" transform="translate(402.929688 0.015625)"/>
      <use xlink:href="#DejaVuSans-20" transform="translate(457.910156 0.015625)"/>
      <use xlink:href="#DejaVuSans-46" transform="translate(489.697266 0.015625)"/>
      <use xlink:href="#DejaVuSans-69" transform="translate(547.216797 0.015625)"/>
      <use xlink:href="#DejaVuSans-65" transform="translate(575 0.015625)"/>
      <use xlink:href="#DejaVuSans-6c" transform="translate(636.523438 0.015625)"/>
      <use xlink:href="#DejaVuSans-64" transform="translate(664.306641 0.015625)"/>
      <use xlink:href="#DejaVuSans-20" transform="translate(727.783203 0.015625)"/>
      <use xlink:href="#DejaVuSans-78" transform="translate(759.570312 0.015625)"/>
      <use xlink:href="#DejaVuSans-20" transform="translate(818.75 0.015625)"/>
      <use xlink:href="#DejaVuSans-5b" transform="translate(850.537109 0.015625)"/>
      <use xlink:href="#DejaVuSans-Oblique-3bc" transform="translate(889.550781 0.015625)"/>
      <use xlink:href="#DejaVuSans-Oblique-54" transform="translate(953.173828 0.015625)"/>
      <use xlink:href="#DejaVuSans-5d" transform="translate(1014.257812 0.015625)"/>
     </g>
    </g>
    <g id="line2d_17">
     <path d="M 272.32 181.128 
L 282.32 181.128 
L 292.32 181.128 
" style="fill: none; stroke: #ff7f0e; stroke-width: 1.5; stroke-linecap: square"/>
    </g>
    <g id="text_18">
     <!-- Magnetic Field y $[\mu T]$ -->
     <g transform="translate(300.32 184.628) scale(0.1 -0.1)">
      <use xlink:href="#DejaVuSans-4d" transform="translate(0 0.015625)"/>
      <use xlink:href="#DejaVuSans-61" transform="translate(86.279297 0.015625)"/>
      <use xlink:href="#DejaVuSans-67" transform="translate(147.558594 0.015625)"/>
      <use xlink:href="#DejaVuSans-6e" transform="translate(211.035156 0.015625)"/>
      <use xlink:href="#DejaVuSans-65" transform="translate(274.414062 0.015625)"/>
      <use xlink:href="#DejaVuSans-74" transform="translate(335.9375 0.015625)"/>
      <use xlink:href="#DejaVuSans-69" transform="translate(375.146484 0.015625)"/>
      <use xlink:href="#DejaVuSans-63" transform="translate(402.929688 0.015625)"/>
      <use xlink:href="#DejaVuSans-20" transform="translate(457.910156 0.015625)"/>
      <use xlink:href="#DejaVuSans-46" transform="translate(489.697266 0.015625)"/>
      <use xlink:href="#DejaVuSans-69" transform="translate(547.216797 0.015625)"/>
      <use xlink:href="#DejaVuSans-65" transform="translate(575 0.015625)"/>
      <use xlink:href="#DejaVuSans-6c" transform="translate(636.523438 0.015625)"/>
      <use xlink:href="#DejaVuSans-64" transform="translate(664.306641 0.015625)"/>
      <use xlink:href="#DejaVuSans-20" transform="translate(727.783203 0.015625)"/>
      <use xlink:href="#DejaVuSans-79" transform="translate(759.570312 0.015625)"/>
      <use xlink:href="#DejaVuSans-20" transform="translate(818.75 0.015625)"/>
      <use xlink:href="#DejaVuSans-5b" transform="translate(850.537109 0.015625)"/>
      <use xlink:href="#DejaVuSans-Oblique-3bc" transform="translate(889.550781 0.015625)"/>
      <use xlink:href="#DejaVuSans-Oblique-54" transform="translate(953.173828 0.015625)"/>
      <use xlink:href="#DejaVuSans-5d" transform="translate(1014.257812 0.015625)"/>
     </g>
    </g>
   </g>
  </g>
 </g>
 <defs>
  <clipPath id="p09560dcbe0">
   <rect x="57.6" y="41.472" width="357.12" height="266.112"/>
  </clipPath>
 </defs>
</svg>
