<?xml version="1.0" encoding="utf-8" standalone="no"?>
<!DOCTYPE svg PUBLIC "-//W3C//DTD SVG 1.1//EN"
  "http://www.w3.org/Graphics/SVG/1.1/DTD/svg11.dtd">
<svg xmlns:xlink="http://www.w3.org/1999/xlink" width="621.354578pt" height="458.691562pt" viewBox="0 0 621.354578 458.691562" xmlns="http://www.w3.org/2000/svg" version="1.1">
 <metadata>
  <rdf:RDF xmlns:dc="http://purl.org/dc/elements/1.1/" xmlns:cc="http://creativecommons.org/ns#" xmlns:rdf="http://www.w3.org/1999/02/22-rdf-syntax-ns#">
   <cc:Work>
    <dc:type rdf:resource="http://purl.org/dc/dcmitype/StillImage"/>
    <dc:date>2023-04-10T19:04:07.909223</dc:date>
    <dc:format>image/svg+xml</dc:format>
    <dc:creator>
     <cc:Agent>
      <dc:title>Matplotlib v3.7.1, https://matplotlib.org/</dc:title>
     </cc:Agent>
    </dc:creator>
   </cc:Work>
  </rdf:RDF>
 </metadata>
 <defs>
  <style type="text/css">*{stroke-linejoin: round; stroke-linecap: butt}</style>
 </defs>
 <g id="figure_1">
  <g id="patch_1">
   <path d="M 0 458.691562 
L 621.354578 458.691562 
L 621.354578 0 
L 0 0 
L 0 458.691562 
z
" style="fill: none"/>
  </g>
  <g id="axes_1">
   <g id="patch_2">
    <path d="M 48.4875 414.957187 
L 606.4875 414.957187 
L 606.4875 26.877187 
L 48.4875 26.877187 
L 48.4875 414.957187 
z
" style="fill: none"/>
   </g>
   <g id="matplotlib.axis_1">
    <g id="xtick_1">
     <g id="line2d_1">
      <path d="M 128.497 414.957187 
L 128.497 26.877187 
" clip-path="url(#p77703cee3a)" style="fill: none; stroke: #808080; stroke-width: 0.8; stroke-linecap: square"/>
     </g>
     <g id="line2d_2">
      <defs>
       <path id="m3171b012ed" d="M 0 0 
L 0 -5 
" style="stroke: #808080; stroke-width: 0.8"/>
      </defs>
      <g>
       <use xlink:href="#m3171b012ed" x="128.497" y="414.957187" style="fill: #808080; stroke: #808080; stroke-width: 0.8"/>
      </g>
     </g>
     <g id="text_1">
      <!-- 80 -->
      <g style="fill: #808080" transform="translate(118.95325 429.854844) scale(0.15 -0.15)">
       <defs>
        <path id="DejaVuSans-38" d="M 2034 2216 
Q 1584 2216 1326 1975 
Q 1069 1734 1069 1313 
Q 1069 891 1326 650 
Q 1584 409 2034 409 
Q 2484 409 2743 651 
Q 3003 894 3003 1313 
Q 3003 1734 2745 1975 
Q 2488 2216 2034 2216 
z
M 1403 2484 
Q 997 2584 770 2862 
Q 544 3141 544 3541 
Q 544 4100 942 4425 
Q 1341 4750 2034 4750 
Q 2731 4750 3128 4425 
Q 3525 4100 3525 3541 
Q 3525 3141 3298 2862 
Q 3072 2584 2669 2484 
Q 3125 2378 3379 2068 
Q 3634 1759 3634 1313 
Q 3634 634 3220 271 
Q 2806 -91 2034 -91 
Q 1263 -91 848 271 
Q 434 634 434 1313 
Q 434 1759 690 2068 
Q 947 2378 1403 2484 
z
M 1172 3481 
Q 1172 3119 1398 2916 
Q 1625 2713 2034 2713 
Q 2441 2713 2670 2916 
Q 2900 3119 2900 3481 
Q 2900 3844 2670 4047 
Q 2441 4250 2034 4250 
Q 1625 4250 1398 4047 
Q 1172 3844 1172 3481 
z
" transform="scale(0.015625)"/>
        <path id="DejaVuSans-30" d="M 2034 4250 
Q 1547 4250 1301 3770 
Q 1056 3291 1056 2328 
Q 1056 1369 1301 889 
Q 1547 409 2034 409 
Q 2525 409 2770 889 
Q 3016 1369 3016 2328 
Q 3016 3291 2770 3770 
Q 2525 4250 2034 4250 
z
M 2034 4750 
Q 2819 4750 3233 4129 
Q 3647 3509 3647 2328 
Q 3647 1150 3233 529 
Q 2819 -91 2034 -91 
Q 1250 -91 836 529 
Q 422 1150 422 2328 
Q 422 3509 836 4129 
Q 1250 4750 2034 4750 
z
" transform="scale(0.015625)"/>
       </defs>
       <use xlink:href="#DejaVuSans-38"/>
       <use xlink:href="#DejaVuSans-30" x="63.623047"/>
      </g>
     </g>
    </g>
    <g id="xtick_2">
     <g id="line2d_3">
      <path d="M 246.332488 414.957187 
L 246.332488 26.877187 
" clip-path="url(#p77703cee3a)" style="fill: none; stroke: #808080; stroke-width: 0.8; stroke-linecap: square"/>
     </g>
     <g id="line2d_4">
      <g>
       <use xlink:href="#m3171b012ed" x="246.332488" y="414.957187" style="fill: #808080; stroke: #808080; stroke-width: 0.8"/>
      </g>
     </g>
     <g id="text_2">
      <!-- 90 -->
      <g style="fill: #808080" transform="translate(236.788738 429.854844) scale(0.15 -0.15)">
       <defs>
        <path id="DejaVuSans-39" d="M 703 97 
L 703 672 
Q 941 559 1184 500 
Q 1428 441 1663 441 
Q 2288 441 2617 861 
Q 2947 1281 2994 2138 
Q 2813 1869 2534 1725 
Q 2256 1581 1919 1581 
Q 1219 1581 811 2004 
Q 403 2428 403 3163 
Q 403 3881 828 4315 
Q 1253 4750 1959 4750 
Q 2769 4750 3195 4129 
Q 3622 3509 3622 2328 
Q 3622 1225 3098 567 
Q 2575 -91 1691 -91 
Q 1453 -91 1209 -44 
Q 966 3 703 97 
z
M 1959 2075 
Q 2384 2075 2632 2365 
Q 2881 2656 2881 3163 
Q 2881 3666 2632 3958 
Q 2384 4250 1959 4250 
Q 1534 4250 1286 3958 
Q 1038 3666 1038 3163 
Q 1038 2656 1286 2365 
Q 1534 2075 1959 2075 
z
" transform="scale(0.015625)"/>
       </defs>
       <use xlink:href="#DejaVuSans-39"/>
       <use xlink:href="#DejaVuSans-30" x="63.623047"/>
      </g>
     </g>
    </g>
    <g id="xtick_3">
     <g id="line2d_5">
      <path d="M 364.167977 414.957187 
L 364.167977 26.877187 
" clip-path="url(#p77703cee3a)" style="fill: none; stroke: #808080; stroke-width: 0.8; stroke-linecap: square"/>
     </g>
     <g id="line2d_6">
      <g>
       <use xlink:href="#m3171b012ed" x="364.167977" y="414.957187" style="fill: #808080; stroke: #808080; stroke-width: 0.8"/>
      </g>
     </g>
     <g id="text_3">
      <!-- 100 -->
      <g style="fill: #808080" transform="translate(349.852352 429.854844) scale(0.15 -0.15)">
       <defs>
        <path id="DejaVuSans-31" d="M 794 531 
L 1825 531 
L 1825 4091 
L 703 3866 
L 703 4441 
L 1819 4666 
L 2450 4666 
L 2450 531 
L 3481 531 
L 3481 0 
L 794 0 
L 794 531 
z
" transform="scale(0.015625)"/>
       </defs>
       <use xlink:href="#DejaVuSans-31"/>
       <use xlink:href="#DejaVuSans-30" x="63.623047"/>
       <use xlink:href="#DejaVuSans-30" x="127.246094"/>
      </g>
     </g>
    </g>
    <g id="xtick_4">
     <g id="line2d_7">
      <path d="M 482.003465 414.957187 
L 482.003465 26.877187 
" clip-path="url(#p77703cee3a)" style="fill: none; stroke: #808080; stroke-width: 0.8; stroke-linecap: square"/>
     </g>
     <g id="line2d_8">
      <g>
       <use xlink:href="#m3171b012ed" x="482.003465" y="414.957187" style="fill: #808080; stroke: #808080; stroke-width: 0.8"/>
      </g>
     </g>
     <g id="text_4">
      <!-- 110 -->
      <g style="fill: #808080" transform="translate(467.68784 429.854844) scale(0.15 -0.15)">
       <use xlink:href="#DejaVuSans-31"/>
       <use xlink:href="#DejaVuSans-31" x="63.623047"/>
       <use xlink:href="#DejaVuSans-30" x="127.246094"/>
      </g>
     </g>
    </g>
    <g id="xtick_5">
     <g id="line2d_9">
      <path d="M 599.838953 414.957187 
L 599.838953 26.877187 
" clip-path="url(#p77703cee3a)" style="fill: none; stroke: #808080; stroke-width: 0.8; stroke-linecap: square"/>
     </g>
     <g id="line2d_10">
      <g>
       <use xlink:href="#m3171b012ed" x="599.838953" y="414.957187" style="fill: #808080; stroke: #808080; stroke-width: 0.8"/>
      </g>
     </g>
     <g id="text_5">
      <!-- 120 -->
      <g style="fill: #808080" transform="translate(585.523328 429.854844) scale(0.15 -0.15)">
       <defs>
        <path id="DejaVuSans-32" d="M 1228 531 
L 3431 531 
L 3431 0 
L 469 0 
L 469 531 
Q 828 903 1448 1529 
Q 2069 2156 2228 2338 
Q 2531 2678 2651 2914 
Q 2772 3150 2772 3378 
Q 2772 3750 2511 3984 
Q 2250 4219 1831 4219 
Q 1534 4219 1204 4116 
Q 875 4013 500 3803 
L 500 4441 
Q 881 4594 1212 4672 
Q 1544 4750 1819 4750 
Q 2544 4750 2975 4387 
Q 3406 4025 3406 3419 
Q 3406 3131 3298 2873 
Q 3191 2616 2906 2266 
Q 2828 2175 2409 1742 
Q 1991 1309 1228 531 
z
" transform="scale(0.015625)"/>
       </defs>
       <use xlink:href="#DejaVuSans-31"/>
       <use xlink:href="#DejaVuSans-32" x="63.623047"/>
       <use xlink:href="#DejaVuSans-30" x="127.246094"/>
      </g>
     </g>
    </g>
    <g id="text_6">
     <!-- time [s] -->
     <g style="fill: #808080" transform="translate(298.400391 448.372031) scale(0.15 -0.15)">
      <defs>
       <path id="DejaVuSans-74" d="M 1172 4494 
L 1172 3500 
L 2356 3500 
L 2356 3053 
L 1172 3053 
L 1172 1153 
Q 1172 725 1289 603 
Q 1406 481 1766 481 
L 2356 481 
L 2356 0 
L 1766 0 
Q 1100 0 847 248 
Q 594 497 594 1153 
L 594 3053 
L 172 3053 
L 172 3500 
L 594 3500 
L 594 4494 
L 1172 4494 
z
" transform="scale(0.015625)"/>
       <path id="DejaVuSans-69" d="M 603 3500 
L 1178 3500 
L 1178 0 
L 603 0 
L 603 3500 
z
M 603 4863 
L 1178 4863 
L 1178 4134 
L 603 4134 
L 603 4863 
z
" transform="scale(0.015625)"/>
       <path id="DejaVuSans-6d" d="M 3328 2828 
Q 3544 3216 3844 3400 
Q 4144 3584 4550 3584 
Q 5097 3584 5394 3201 
Q 5691 2819 5691 2113 
L 5691 0 
L 5113 0 
L 5113 2094 
Q 5113 2597 4934 2840 
Q 4756 3084 4391 3084 
Q 3944 3084 3684 2787 
Q 3425 2491 3425 1978 
L 3425 0 
L 2847 0 
L 2847 2094 
Q 2847 2600 2669 2842 
Q 2491 3084 2119 3084 
Q 1678 3084 1418 2786 
Q 1159 2488 1159 1978 
L 1159 0 
L 581 0 
L 581 3500 
L 1159 3500 
L 1159 2956 
Q 1356 3278 1631 3431 
Q 1906 3584 2284 3584 
Q 2666 3584 2933 3390 
Q 3200 3197 3328 2828 
z
" transform="scale(0.015625)"/>
       <path id="DejaVuSans-65" d="M 3597 1894 
L 3597 1613 
L 953 1613 
Q 991 1019 1311 708 
Q 1631 397 2203 397 
Q 2534 397 2845 478 
Q 3156 559 3463 722 
L 3463 178 
Q 3153 47 2828 -22 
Q 2503 -91 2169 -91 
Q 1331 -91 842 396 
Q 353 884 353 1716 
Q 353 2575 817 3079 
Q 1281 3584 2069 3584 
Q 2775 3584 3186 3129 
Q 3597 2675 3597 1894 
z
M 3022 2063 
Q 3016 2534 2758 2815 
Q 2500 3097 2075 3097 
Q 1594 3097 1305 2825 
Q 1016 2553 972 2059 
L 3022 2063 
z
" transform="scale(0.015625)"/>
       <path id="DejaVuSans-20" transform="scale(0.015625)"/>
       <path id="DejaVuSans-5b" d="M 550 4863 
L 1875 4863 
L 1875 4416 
L 1125 4416 
L 1125 -397 
L 1875 -397 
L 1875 -844 
L 550 -844 
L 550 4863 
z
" transform="scale(0.015625)"/>
       <path id="DejaVuSans-73" d="M 2834 3397 
L 2834 2853 
Q 2591 2978 2328 3040 
Q 2066 3103 1784 3103 
Q 1356 3103 1142 2972 
Q 928 2841 928 2578 
Q 928 2378 1081 2264 
Q 1234 2150 1697 2047 
L 1894 2003 
Q 2506 1872 2764 1633 
Q 3022 1394 3022 966 
Q 3022 478 2636 193 
Q 2250 -91 1575 -91 
Q 1294 -91 989 -36 
Q 684 19 347 128 
L 347 722 
Q 666 556 975 473 
Q 1284 391 1588 391 
Q 1994 391 2212 530 
Q 2431 669 2431 922 
Q 2431 1156 2273 1281 
Q 2116 1406 1581 1522 
L 1381 1569 
Q 847 1681 609 1914 
Q 372 2147 372 2553 
Q 372 3047 722 3315 
Q 1072 3584 1716 3584 
Q 2034 3584 2315 3537 
Q 2597 3491 2834 3397 
z
" transform="scale(0.015625)"/>
       <path id="DejaVuSans-5d" d="M 1947 4863 
L 1947 -844 
L 622 -844 
L 622 -397 
L 1369 -397 
L 1369 4416 
L 622 4416 
L 622 4863 
L 1947 4863 
z
" transform="scale(0.015625)"/>
      </defs>
      <use xlink:href="#DejaVuSans-74"/>
      <use xlink:href="#DejaVuSans-69" x="39.208984"/>
      <use xlink:href="#DejaVuSans-6d" x="66.992188"/>
      <use xlink:href="#DejaVuSans-65" x="164.404297"/>
      <use xlink:href="#DejaVuSans-20" x="225.927734"/>
      <use xlink:href="#DejaVuSans-5b" x="257.714844"/>
      <use xlink:href="#DejaVuSans-73" x="296.728516"/>
      <use xlink:href="#DejaVuSans-5d" x="348.828125"/>
     </g>
    </g>
   </g>
   <g id="matplotlib.axis_2">
    <g id="ytick_1">
     <g id="line2d_11">
      <path d="M 48.4875 360.664081 
L 606.4875 360.664081 
" clip-path="url(#p77703cee3a)" style="fill: none; stroke: #808080; stroke-width: 0.8; stroke-linecap: square"/>
     </g>
     <g id="line2d_12">
      <defs>
       <path id="mc5692b6117" d="M 0 0 
L 5 0 
" style="stroke: #808080; stroke-width: 0.8"/>
      </defs>
      <g>
       <use xlink:href="#mc5692b6117" x="48.4875" y="360.664081" style="fill: #808080; stroke: #808080; stroke-width: 0.8"/>
      </g>
     </g>
     <g id="text_7">
      <!-- 17 -->
      <g style="fill: #808080" transform="translate(25.9 366.362909) scale(0.15 -0.15)">
       <defs>
        <path id="DejaVuSans-37" d="M 525 4666 
L 3525 4666 
L 3525 4397 
L 1831 0 
L 1172 0 
L 2766 4134 
L 525 4134 
L 525 4666 
z
" transform="scale(0.015625)"/>
       </defs>
       <use xlink:href="#DejaVuSans-31"/>
       <use xlink:href="#DejaVuSans-37" x="63.623047"/>
      </g>
     </g>
    </g>
    <g id="ytick_2">
     <g id="line2d_13">
      <path d="M 48.4875 278.37961 
L 606.4875 278.37961 
" clip-path="url(#p77703cee3a)" style="fill: none; stroke: #808080; stroke-width: 0.8; stroke-linecap: square"/>
     </g>
     <g id="line2d_14">
      <g>
       <use xlink:href="#mc5692b6117" x="48.4875" y="278.37961" style="fill: #808080; stroke: #808080; stroke-width: 0.8"/>
      </g>
     </g>
     <g id="text_8">
      <!-- 18 -->
      <g style="fill: #808080" transform="translate(25.9 284.078438) scale(0.15 -0.15)">
       <use xlink:href="#DejaVuSans-31"/>
       <use xlink:href="#DejaVuSans-38" x="63.623047"/>
      </g>
     </g>
    </g>
    <g id="ytick_3">
     <g id="line2d_15">
      <path d="M 48.4875 196.095139 
L 606.4875 196.095139 
" clip-path="url(#p77703cee3a)" style="fill: none; stroke: #808080; stroke-width: 0.8; stroke-linecap: square"/>
     </g>
     <g id="line2d_16">
      <g>
       <use xlink:href="#mc5692b6117" x="48.4875" y="196.095139" style="fill: #808080; stroke: #808080; stroke-width: 0.8"/>
      </g>
     </g>
     <g id="text_9">
      <!-- 19 -->
      <g style="fill: #808080" transform="translate(25.9 201.793967) scale(0.15 -0.15)">
       <use xlink:href="#DejaVuSans-31"/>
       <use xlink:href="#DejaVuSans-39" x="63.623047"/>
      </g>
     </g>
    </g>
    <g id="ytick_4">
     <g id="line2d_17">
      <path d="M 48.4875 113.810668 
L 606.4875 113.810668 
" clip-path="url(#p77703cee3a)" style="fill: none; stroke: #808080; stroke-width: 0.8; stroke-linecap: square"/>
     </g>
     <g id="line2d_18">
      <g>
       <use xlink:href="#mc5692b6117" x="48.4875" y="113.810668" style="fill: #808080; stroke: #808080; stroke-width: 0.8"/>
      </g>
     </g>
     <g id="text_10">
      <!-- 20 -->
      <g style="fill: #808080" transform="translate(25.9 119.509496) scale(0.15 -0.15)">
       <use xlink:href="#DejaVuSans-32"/>
       <use xlink:href="#DejaVuSans-30" x="63.623047"/>
      </g>
     </g>
    </g>
    <g id="ytick_5">
     <g id="line2d_19">
      <path d="M 48.4875 31.526197 
L 606.4875 31.526197 
" clip-path="url(#p77703cee3a)" style="fill: none; stroke: #808080; stroke-width: 0.8; stroke-linecap: square"/>
     </g>
     <g id="line2d_20">
      <g>
       <use xlink:href="#mc5692b6117" x="48.4875" y="31.526197" style="fill: #808080; stroke: #808080; stroke-width: 0.8"/>
      </g>
     </g>
     <g id="text_11">
      <!-- 21 -->
      <g style="fill: #808080" transform="translate(25.9 37.225025) scale(0.15 -0.15)">
       <use xlink:href="#DejaVuSans-32"/>
       <use xlink:href="#DejaVuSans-31" x="63.623047"/>
      </g>
     </g>
    </g>
    <g id="text_12">
     <!-- $\theta$ [deg] -->
     <g style="fill: #808080" transform="translate(18.75 247.917187) rotate(-90) scale(0.15 -0.15)">
      <defs>
       <path id="DejaVuSans-Oblique-3b8" d="M 2913 2219 
L 925 2219 
Q 791 1284 928 888 
Q 1100 400 1566 400 
Q 2034 400 2391 891 
Q 2703 1322 2913 2219 
z
M 3009 2750 
Q 3094 3638 2984 3950 
Q 2813 4444 2353 4444 
Q 1875 4444 1525 3956 
Q 1250 3563 1034 2750 
L 3009 2750 
z
M 2444 4913 
Q 3194 4913 3494 4250 
Q 3794 3591 3566 2422 
Q 3341 1256 2781 594 
Q 2225 -72 1475 -72 
Q 722 -72 425 594 
Q 128 1256 353 2422 
Q 581 3591 1134 4250 
Q 1691 4913 2444 4913 
z
" transform="scale(0.015625)"/>
       <path id="DejaVuSans-64" d="M 2906 2969 
L 2906 4863 
L 3481 4863 
L 3481 0 
L 2906 0 
L 2906 525 
Q 2725 213 2448 61 
Q 2172 -91 1784 -91 
Q 1150 -91 751 415 
Q 353 922 353 1747 
Q 353 2572 751 3078 
Q 1150 3584 1784 3584 
Q 2172 3584 2448 3432 
Q 2725 3281 2906 2969 
z
M 947 1747 
Q 947 1113 1208 752 
Q 1469 391 1925 391 
Q 2381 391 2643 752 
Q 2906 1113 2906 1747 
Q 2906 2381 2643 2742 
Q 2381 3103 1925 3103 
Q 1469 3103 1208 2742 
Q 947 2381 947 1747 
z
" transform="scale(0.015625)"/>
       <path id="DejaVuSans-67" d="M 2906 1791 
Q 2906 2416 2648 2759 
Q 2391 3103 1925 3103 
Q 1463 3103 1205 2759 
Q 947 2416 947 1791 
Q 947 1169 1205 825 
Q 1463 481 1925 481 
Q 2391 481 2648 825 
Q 2906 1169 2906 1791 
z
M 3481 434 
Q 3481 -459 3084 -895 
Q 2688 -1331 1869 -1331 
Q 1566 -1331 1297 -1286 
Q 1028 -1241 775 -1147 
L 775 -588 
Q 1028 -725 1275 -790 
Q 1522 -856 1778 -856 
Q 2344 -856 2625 -561 
Q 2906 -266 2906 331 
L 2906 616 
Q 2728 306 2450 153 
Q 2172 0 1784 0 
Q 1141 0 747 490 
Q 353 981 353 1791 
Q 353 2603 747 3093 
Q 1141 3584 1784 3584 
Q 2172 3584 2450 3431 
Q 2728 3278 2906 2969 
L 2906 3500 
L 3481 3500 
L 3481 434 
z
" transform="scale(0.015625)"/>
      </defs>
      <use xlink:href="#DejaVuSans-Oblique-3b8" transform="translate(0 0.234375)"/>
      <use xlink:href="#DejaVuSans-20" transform="translate(61.181641 0.234375)"/>
      <use xlink:href="#DejaVuSans-5b" transform="translate(92.96875 0.234375)"/>
      <use xlink:href="#DejaVuSans-64" transform="translate(131.982422 0.234375)"/>
      <use xlink:href="#DejaVuSans-65" transform="translate(195.458984 0.234375)"/>
      <use xlink:href="#DejaVuSans-67" transform="translate(256.982422 0.234375)"/>
      <use xlink:href="#DejaVuSans-5d" transform="translate(320.458984 0.234375)"/>
     </g>
    </g>
   </g>
   <g id="line2d_21">
    <path d="M 73.851136 381.924332 
L 73.960405 381.924332 
L 74.077958 319.073112 
L 75.609513 319.073112 
L 75.729953 303.480088 
L 78.673636 303.480088 
L 78.791507 319.073112 
L 79.617593 319.073112 
L 79.735581 333.265515 
L 79.852262 333.265515 
L 79.970168 319.073112 
L 80.087768 319.073112 
L 80.20875 333.265515 
L 81.980913 333.265515 
L 82.092338 288.361024 
L 82.210457 288.361024 
L 82.330177 333.265515 
L 82.444513 333.265515 
L 82.566025 288.361024 
L 83.858421 288.361024 
L 83.977518 243.730884 
L 84.566554 243.730884 
L 84.683317 288.361024 
L 85.271563 288.361024 
L 85.390895 302.666489 
L 85.509096 302.666489 
L 85.629241 288.361024 
L 85.979778 288.361024 
L 86.09944 333.265515 
L 86.214789 333.265515 
L 86.333732 347.189179 
L 86.450696 347.189179 
L 86.571301 333.265515 
L 87.629239 333.265515 
L 87.746863 347.189179 
L 90.457586 347.189179 
L 90.575504 333.265515 
L 92.34293 333.265515 
L 92.46093 288.361024 
L 93.286097 288.361024 
L 93.40603 333.265515 
L 93.520931 333.265515 
L 93.63859 347.189179 
L 96.351422 347.189179 
L 96.466913 302.666489 
L 96.584913 302.666489 
L 96.702749 347.189179 
L 96.820172 347.189179 
L 96.937901 302.666489 
L 97.055949 302.666489 
L 97.173419 347.189179 
L 98.705811 347.189179 
L 98.827358 302.666489 
L 100.1192 302.666489 
L 100.2403 243.730884 
L 101.062426 243.730884 
L 101.182041 195.98048 
L 101.533108 195.98048 
L 101.651957 243.730884 
L 101.771666 243.730884 
L 101.889832 195.98048 
L 102.005299 195.98048 
L 102.123228 243.730884 
L 105.068998 243.730884 
L 105.186433 180.620421 
L 105.77594 180.620421 
L 105.89612 243.730884 
L 106.246504 243.730884 
L 106.364281 228.771177 
L 106.482859 228.771177 
L 106.60047 243.730884 
L 107.426344 243.730884 
L 107.545122 228.771177 
L 107.898452 228.771177 
L 108.014084 243.730884 
L 108.372056 243.730884 
L 108.487641 228.771177 
L 108.604274 228.771177 
L 108.723147 243.730884 
L 109.311276 243.730884 
L 109.429111 195.98048 
L 110.49564 195.98048 
L 110.606771 243.730884 
L 111.67218 243.730884 
L 111.787247 302.666489 
L 112.138667 302.666489 
L 112.25741 288.361024 
L 112.847636 288.361024 
L 112.964199 243.730884 
L 114.966707 243.730884 
L 115.087819 195.98048 
L 115.437943 195.98048 
L 115.559502 180.620421 
L 116.616958 180.620421 
L 116.73616 163.751029 
L 117.088005 163.751029 
L 117.207997 180.620421 
L 117.323735 180.620421 
L 117.442867 118.946655 
L 119.68074 118.946655 
L 119.801332 180.620421 
L 119.916411 180.620421 
L 120.153437 163.751029 
L 120.269234 180.620421 
L 120.636527 180.620421 
L 120.7412 163.751029 
L 121.33132 163.751029 
L 121.449344 212.339211 
L 121.801119 212.339211 
L 121.919661 163.751029 
L 122.037591 163.751029 
L 122.158796 212.339211 
L 123.218055 212.339211 
L 123.333687 196.773608 
L 123.453726 196.773608 
L 123.569311 212.339211 
L 123.922452 212.339211 
L 124.040641 196.773608 
L 125.807902 196.773608 
L 125.926174 147.773327 
L 126.043738 147.773327 
L 126.162846 131.485368 
L 126.75081 131.485368 
L 126.868398 85.928108 
L 126.98555 85.928108 
L 127.104599 131.485368 
L 127.221598 131.485368 
L 127.340164 85.928108 
L 127.944224 85.928108 
L 128.048591 131.485368 
L 128.399458 131.485368 
L 128.5176 147.773327 
L 128.871472 147.773327 
L 128.991558 196.773608 
L 130.05256 196.773608 
L 130.169866 212.339211 
L 133.113384 212.339211 
L 133.349456 196.773608 
L 133.466879 212.339211 
L 134.529743 212.339211 
L 134.64825 196.773608 
L 135.234977 196.773608 
L 135.352435 147.773327 
L 136.413108 147.773327 
L 136.531262 196.773608 
L 136.885652 196.773608 
L 137.001402 212.339211 
L 137.356299 212.339211 
L 137.479649 257.764347 
L 140.890974 257.764347 
L 141.011108 242.590076 
L 142.540707 242.590076 
L 142.660769 196.773608 
L 143.248603 196.773608 
L 143.365543 180.90352 
L 143.719486 180.90352 
L 143.838888 131.485368 
L 143.958986 131.485368 
L 144.077588 113.587386 
L 145.148406 113.587386 
L 145.251323 131.485368 
L 145.839947 131.485368 
L 146.075677 180.90352 
L 146.193182 196.773608 
L 146.546925 196.773608 
L 146.670239 180.90352 
L 146.78256 180.90352 
L 146.901822 196.773608 
L 149.144137 196.773608 
L 149.258496 212.339211 
L 152.203711 212.339211 
L 152.322089 196.773608 
L 152.673745 196.773608 
L 152.79468 147.773327 
L 153.853844 147.773327 
L 153.970278 196.773608 
L 154.089115 196.773608 
L 154.207622 212.339211 
L 157.153438 212.339211 
L 157.269671 228.771177 
L 159.744252 228.771177 
L 159.863678 243.730884 
L 160.216749 243.730884 
L 160.335008 195.98048 
L 160.922713 195.98048 
L 161.040265 180.620421 
L 161.394043 180.620421 
L 161.511537 195.98048 
L 163.043174 195.98048 
L 163.163142 211.055141 
L 163.279917 211.055141 
L 163.398413 243.730884 
L 163.986353 243.730884 
L 164.138149 195.98048 
L 165.400803 195.98048 
L 165.51799 243.730884 
L 165.638878 243.730884 
L 165.756466 258.410739 
L 167.521088 258.410739 
L 167.639371 302.666489 
L 168.463748 302.666489 
L 168.58665 258.410739 
L 169.441417 258.410739 
L 169.643929 243.730884 
L 169.878316 243.730884 
L 169.996552 258.410739 
L 170.115342 258.410739 
L 170.231858 243.730884 
L 170.350235 243.730884 
L 170.471995 302.666489 
L 171.292012 302.666489 
L 171.410177 361.891856 
L 171.999814 361.891856 
L 172.118581 409.68677 
L 173.884381 409.68677 
L 174.004479 395.428648 
L 174.594033 395.428648 
L 174.711869 409.68677 
L 174.830011 409.68677 
L 174.944983 395.428648 
L 176.712774 395.428648 
L 176.830515 381.924332 
L 177.185471 381.924332 
L 177.302906 333.265515 
L 177.89226 333.265515 
L 178.011628 273.781131 
L 178.362495 273.781131 
L 178.482911 288.361024 
L 179.308926 288.361024 
L 179.42424 273.781131 
L 179.540897 273.781131 
L 179.658638 319.073112 
L 179.776685 319.073112 
L 179.89445 273.781131 
L 180.011862 273.781131 
L 180.129355 333.265515 
L 180.248251 333.265515 
L 180.368844 319.073112 
L 180.485372 319.073112 
L 180.603125 333.265515 
L 181.662195 333.265515 
L 181.779688 319.073112 
L 183.075938 319.073112 
L 183.195234 303.480088 
L 185.197554 303.480088 
L 185.31936 242.590076 
L 185.906688 242.590076 
L 186.024441 180.90352 
L 186.375025 180.90352 
L 186.494216 196.773608 
L 186.846992 196.773608 
L 186.964096 147.773327 
L 187.083299 147.773327 
L 187.199909 131.485368 
L 187.553274 131.485368 
L 187.673195 85.928108 
L 189.204349 85.928108 
L 189.32136 102.595035 
L 189.910573 102.595035 
L 190.030093 118.946655 
L 190.146845 118.946655 
L 190.264091 74.449059 
L 192.267412 74.449059 
L 192.3846 92.103838 
L 194.625548 92.103838 
L 194.743254 108.183238 
L 195.566629 108.183238 
L 195.684747 92.103838 
L 195.802465 92.103838 
L 195.921974 108.183238 
L 196.273878 108.183238 
L 196.391607 92.103838 
L 196.508512 92.103838 
L 196.626312 108.183238 
L 196.745715 108.183238 
L 196.86401 151.936823 
L 197.453234 151.936823 
L 197.570327 195.98048 
L 197.922773 195.98048 
L 198.15815 167.370232 
L 198.276716 211.055141 
L 200.515637 211.055141 
L 200.638269 195.98048 
L 200.753688 195.98048 
L 200.870958 211.055141 
L 202.636452 211.055141 
L 202.872477 258.410739 
L 202.992292 211.055141 
L 204.28662 211.055141 
L 204.405658 167.370232 
L 204.99328 167.370232 
L 205.112859 211.055141 
L 206.878954 211.055141 
L 206.999464 226.979027 
L 208.765088 226.979027 
L 208.883253 273.915555 
L 209.706958 273.915555 
L 209.828494 241.485164 
L 211.357256 241.485164 
L 211.477001 226.979027 
L 213.477364 226.979027 
L 213.596814 241.485164 
L 213.712799 241.485164 
L 213.830293 288.038141 
L 214.420272 288.038141 
L 214.537895 331.533271 
L 215.126896 331.533271 
L 215.245109 317.774083 
L 215.364924 317.774083 
L 215.482382 331.533271 
L 215.598933 331.533271 
L 215.71678 317.774083 
L 217.71963 317.774083 
L 217.83769 302.666489 
L 217.954959 302.666489 
L 218.07435 317.774083 
L 220.077094 317.774083 
L 220.194494 273.915555 
L 220.314332 273.915555 
L 220.431661 258.410739 
L 221.255119 258.410739 
L 221.373933 211.055141 
L 222.669381 211.055141 
L 222.788312 258.410739 
L 223.37723 258.410739 
L 223.493652 273.915555 
L 223.612029 273.915555 
L 223.7297 317.774083 
L 224.319254 317.774083 
L 224.43782 302.666489 
L 224.790867 302.666489 
L 225.024606 317.774083 
L 225.497986 317.774083 
L 225.617636 302.666489 
L 225.967855 302.666489 
L 226.08747 317.774083 
L 227.384603 317.774083 
L 227.500942 273.915555 
L 228.796331 273.915555 
L 228.916959 226.979027 
L 229.74116 226.979027 
L 229.860386 183.675084 
L 231.389171 183.675084 
L 231.5063 198.530051 
L 232.332209 198.530051 
L 232.449149 213.117737 
L 235.160638 213.117737 
L 235.277342 170.767283 
L 235.86639 170.767283 
L 235.985922 186.544026 
L 240.108562 186.544026 
L 240.22668 200.926107 
L 240.815999 200.926107 
L 240.933716 242.590042 
L 241.050692 242.590042 
L 241.168845 200.926107 
L 241.286127 200.926107 
L 241.406154 242.590042 
L 244.821298 242.590042 
L 244.942126 200.926107 
L 245.764394 200.926107 
L 245.882359 186.544026 
L 246.706842 186.544026 
L 246.824489 141.610127 
L 248.121764 141.610127 
L 248.242321 186.544026 
L 248.59386 186.544026 
L 248.713946 200.926107 
L 249.302298 200.926107 
L 249.42024 186.544026 
L 249.537156 186.544026 
L 249.653248 200.926107 
L 250.477389 200.926107 
L 250.59625 186.544026 
L 251.185109 186.544026 
L 251.302956 200.926107 
L 252.128347 200.926107 
L 252.245735 186.544026 
L 252.598534 186.544026 
L 252.718373 200.926107 
L 252.836668 200.926107 
L 252.95468 186.544026 
L 254.484185 186.544026 
L 254.601372 170.767283 
L 254.959781 170.767283 
L 255.077321 141.610127 
L 255.191999 141.610127 
L 255.311413 125.455597 
L 255.664236 125.455597 
L 255.780858 83.659955 
L 256.133846 83.659955 
L 256.251752 68.05673 
L 256.840836 68.05673 
L 256.958636 110.175183 
L 257.31272 110.175183 
L 257.431568 125.455597 
L 260.611347 125.455597 
L 260.729018 141.610127 
L 262.261068 141.610127 
L 262.378679 125.455597 
L 265.796215 125.455597 
L 265.915841 170.767283 
L 266.032263 170.767283 
L 266.149721 125.455597 
L 266.267404 125.455597 
L 266.384921 170.767283 
L 268.38849 170.767283 
L 268.507892 155.842325 
L 268.859949 155.842325 
L 268.978999 170.767283 
L 269.097517 170.767283 
L 269.213385 125.455597 
L 269.336888 125.455597 
L 269.45093 170.767283 
L 269.804389 170.767283 
L 269.920846 125.455597 
L 272.159968 125.455597 
L 272.278133 83.659955 
L 274.517172 83.659955 
L 274.634006 125.455597 
L 275.459161 125.455597 
L 275.577786 170.767283 
L 278.051353 170.767283 
L 278.172182 213.117737 
L 280.172062 213.117737 
L 280.293904 255.728693 
L 280.409159 255.728693 
L 280.525686 241.485164 
L 280.64404 241.485164 
L 280.760945 198.530051 
L 281.823432 198.530051 
L 281.939264 241.485164 
L 283.708812 241.485164 
L 283.825292 288.038141 
L 283.942774 288.038141 
L 284.060987 301.903415 
L 284.414116 301.903415 
L 284.649846 288.038141 
L 284.770073 301.903415 
L 284.885764 301.903415 
L 285.005096 345.040306 
L 285.828531 345.040306 
L 285.947085 331.533271 
L 286.308086 331.533271 
L 286.418922 345.040306 
L 286.536392 345.040306 
L 286.653803 388.422889 
L 286.77323 388.422889 
L 286.888402 375.280751 
L 287.006461 375.280751 
L 287.124721 388.422889 
L 288.892265 388.422889 
L 289.010148 345.040306 
L 289.128184 345.040306 
L 289.246196 331.533271 
L 292.191989 331.533271 
L 292.309754 317.774083 
L 292.898295 317.774083 
L 293.016413 273.915555 
L 294.081846 273.915555 
L 294.196147 258.410739 
L 295.024436 258.410739 
L 295.137204 211.055141 
L 297.848941 211.055141 
L 297.968025 195.98048 
L 300.20492 195.98048 
L 300.32153 258.410739 
L 301.389579 258.410739 
L 301.500486 243.730884 
L 304.216134 243.730884 
L 304.32895 228.771177 
L 305.871558 228.771177 
L 305.979047 180.620421 
L 307.0384 180.620421 
L 307.155965 118.946655 
L 308.223295 118.946655 
L 308.336711 136.213146 
L 309.396701 136.213146 
L 309.513499 151.936823 
L 309.632195 151.936823 
L 309.749241 195.98048 
L 310.3383 195.98048 
L 310.457574 151.936823 
L 310.809961 151.936823 
L 310.927454 167.370232 
L 311.989022 167.370232 
L 312.105526 183.675084 
L 314.816744 183.675084 
L 314.93815 140.645643 
L 315.287638 140.645643 
L 315.407677 123.967761 
L 316.22991 123.967761 
L 316.346991 77.547858 
L 316.468468 77.547858 
L 316.584866 123.967761 
L 317.645185 123.967761 
L 317.764151 167.370232 
L 318.11516 167.370232 
L 318.233596 183.675084 
L 319.057867 183.675084 
L 319.177989 167.370232 
L 319.295424 167.370232 
L 319.412976 226.979027 
L 320.944861 226.979027 
L 321.061966 241.485164 
L 322.35719 241.485164 
L 322.475132 288.038141 
L 323.535557 288.038141 
L 323.653169 241.485164 
L 324.242511 241.485164 
L 324.362621 198.530051 
L 325.897157 198.530051 
L 326.012306 213.117737 
L 326.128421 213.117737 
L 326.245243 255.728693 
L 328.720719 255.728693 
L 328.839556 270.781664 
L 328.956885 270.781664 
L 329.074885 213.117737 
L 329.427355 213.117737 
L 329.545721 228.536175 
L 329.663226 228.536175 
L 329.782817 213.117737 
L 330.605686 213.117737 
L 330.723934 228.536175 
L 331.077264 228.536175 
L 331.195795 213.117737 
L 331.314384 213.117737 
L 331.434789 228.536175 
L 331.550762 228.536175 
L 331.667231 213.117737 
L 331.784571 213.117737 
L 331.90256 228.536175 
L 332.020584 228.536175 
L 332.137866 213.117737 
L 332.25589 213.117737 
L 332.373655 170.767283 
L 332.962914 170.767283 
L 333.082353 125.455597 
L 334.377129 125.455597 
L 334.494988 170.767283 
L 334.84939 170.767283 
L 334.967685 155.842325 
L 335.318988 155.842325 
L 335.438921 170.767283 
L 335.556874 170.767283 
L 335.675947 155.842325 
L 337.676358 155.842325 
L 337.794075 140.645643 
L 338.856174 140.645643 
L 338.972501 183.675084 
L 339.090654 183.675084 
L 339.207865 167.370232 
L 340.740363 167.370232 
L 340.861486 108.183238 
L 341.446669 108.183238 
L 341.565589 92.103838 
L 341.917881 92.103838 
L 342.038722 44.940209 
L 342.624753 44.940209 
L 342.744804 92.103838 
L 343.571526 92.103838 
L 343.685626 136.213146 
L 346.160725 136.213146 
L 346.277983 180.620421 
L 346.395111 180.620421 
L 346.513277 136.213146 
L 346.867054 136.213146 
L 346.985397 118.946655 
L 347.102926 118.946655 
L 347.222517 163.751029 
L 347.811989 163.751029 
L 347.929436 118.946655 
L 348.045079 118.946655 
L 348.165908 163.751029 
L 349.930789 163.751029 
L 350.048059 118.946655 
L 351.345298 118.946655 
L 351.464429 163.751029 
L 354.17236 163.751029 
L 354.290902 180.620421 
L 354.881588 180.620421 
L 355.00039 228.771177 
L 357.238003 228.771177 
L 357.355485 180.620421 
L 357.472225 180.620421 
L 357.59158 228.771177 
L 357.943637 228.771177 
L 358.060801 180.620421 
L 359.12383 180.620421 
L 359.240063 118.946655 
L 359.358406 118.946655 
L 359.47597 163.751029 
L 360.066915 163.751029 
L 360.184833 180.620421 
L 360.300347 180.620421 
L 360.41962 163.751029 
L 361.478184 163.751029 
L 361.596054 180.620421 
L 362.661523 180.620421 
L 362.775894 228.771177 
L 363.128257 228.771177 
L 363.246175 180.620421 
L 363.836072 180.620421 
L 363.954308 163.751029 
L 364.070941 163.751029 
L 364.18939 180.620421 
L 364.310583 180.620421 
L 364.426392 163.751029 
L 364.544287 163.751029 
L 364.661533 180.620421 
L 364.778956 180.620421 
L 364.896497 163.751029 
L 365.958242 163.751029 
L 366.075747 180.620421 
L 367.134841 180.620421 
L 367.254962 163.751029 
L 367.370382 163.751029 
L 367.489396 180.620421 
L 367.607514 180.620421 
L 367.725256 163.751029 
L 367.841618 163.751029 
L 367.959218 180.620421 
L 368.549102 180.620421 
L 368.667079 163.751029 
L 369.021387 163.751029 
L 369.14 180.620421 
L 370.20019 180.620421 
L 370.317731 228.771177 
L 371.376966 228.771177 
L 371.495084 243.730884 
L 375.620021 243.730884 
L 375.738151 195.98048 
L 376.090043 195.98048 
L 376.212309 180.620421 
L 377.74192 180.620421 
L 377.863903 228.771177 
L 384.338869 228.771177 
L 384.457518 180.620421 
L 384.580573 180.620421 
L 384.694355 163.751029 
L 385.51898 163.751029 
L 385.636344 180.620421 
L 386.226382 180.620421 
L 386.343616 228.771177 
L 387.874193 228.771177 
L 387.991239 243.730884 
L 389.053161 243.730884 
L 389.172917 228.771177 
L 389.288384 228.771177 
L 389.405536 180.620421 
L 389.523643 180.620421 
L 389.641584 195.98048 
L 392.586682 195.98048 
L 392.822765 180.620421 
L 393.059473 180.620421 
L 393.178652 136.213146 
L 394.00112 136.213146 
L 394.120487 92.103838 
L 394.472969 92.103838 
L 394.591004 136.213146 
L 394.710042 136.213146 
L 394.826275 151.936823 
L 395.18037 151.936823 
L 395.29731 136.213146 
L 395.889174 136.213146 
L 396.006209 151.936823 
L 397.535984 151.936823 
L 397.655835 136.213146 
L 398.47914 136.213146 
L 398.598672 92.103838 
L 401.778262 92.103838 
L 401.899256 44.940209 
L 402.018046 44.940209 
L 402.132535 26.877188 
L 402.48623 26.877188 
L 402.604277 44.940209 
L 403.19296 44.940209 
L 403.314448 92.103838 
L 403.899289 92.103838 
L 404.016842 108.183238 
L 404.135219 108.183238 
L 404.252843 136.213146 
L 404.370655 136.213146 
L 404.4912 151.936823 
L 409.557997 151.936823 
L 409.673476 136.213146 
L 410.026275 136.213146 
L 410.148765 92.103838 
L 410.969536 92.103838 
L 411.090471 74.449059 
L 411.913045 74.449059 
L 412.030291 92.103838 
L 412.385283 92.103838 
L 412.504945 136.213146 
L 413.799096 136.213146 
L 413.919772 118.946655 
L 414.053114 118.946655 
L 414.153015 136.213146 
L 414.740826 136.213146 
L 414.97685 118.946655 
L 415.21225 118.946655 
L 415.330156 136.213146 
L 415.448558 136.213146 
L 415.565851 118.946655 
L 415.920854 118.946655 
L 416.037794 163.751029 
L 416.15438 163.751029 
L 416.271968 180.620421 
L 417.097382 180.620421 
L 417.217834 163.751029 
L 418.041186 163.751029 
L 418.157643 118.946655 
L 419.21782 118.946655 
L 419.335891 74.449059 
L 420.396482 74.449059 
L 420.516344 118.946655 
L 421.810248 118.946655 
L 421.93275 136.213146 
L 425.345266 136.213146 
L 425.465116 180.620421 
L 426.995952 180.620421 
L 427.113305 136.213146 
L 427.701775 136.213146 
L 427.819516 118.946655 
L 427.937458 118.946655 
L 428.058616 74.449059 
L 428.880154 74.449059 
L 429.116319 118.946655 
L 429.35377 118.946655 
L 429.469095 136.213146 
L 429.823992 136.213146 
L 430.063245 180.620421 
L 431.94456 180.620421 
L 432.064669 163.751029 
L 434.772399 163.751029 
L 434.890329 196.773608 
L 435.008707 196.773608 
L 435.127638 212.339211 
L 435.243694 212.339211 
L 435.362048 196.773608 
L 436.186578 196.773608 
L 436.305239 147.773327 
L 436.663883 147.773327 
L 436.776934 131.485368 
L 437.131949 131.485368 
L 437.246756 180.90352 
L 438.073419 180.90352 
L 438.189829 227.116996 
L 440.900245 227.116996 
L 441.018446 180.90352 
L 441.606869 180.90352 
L 441.724387 227.116996 
L 442.078082 227.116996 
L 442.196648 180.90352 
L 443.965005 180.90352 
L 444.081898 147.773327 
L 444.199026 147.773327 
L 444.323284 131.485368 
L 444.67058 131.485368 
L 444.790501 147.773327 
L 444.906192 147.773327 
L 445.025772 131.485368 
L 445.143395 131.485368 
L 445.260983 147.773327 
L 446.085172 147.773327 
L 446.202713 163.751029 
L 446.320466 163.751029 
L 446.438949 212.339211 
L 447.265223 212.339211 
L 447.381704 273.781131 
L 451.740391 273.781131 
L 451.859205 257.764347 
L 451.976923 257.764347 
L 452.097339 273.781131 
L 452.683558 273.781131 
L 452.800911 212.339211 
L 453.62629 212.339211 
L 453.743465 163.751029 
L 453.861984 163.751029 
L 453.980774 212.339211 
L 455.041435 212.339211 
L 455.157632 257.764347 
L 455.277518 257.764347 
L 455.393881 273.781131 
L 456.926638 273.781131 
L 457.047454 288.361024 
L 457.161448 288.361024 
L 457.278271 273.781131 
L 457.632366 273.781131 
L 457.75323 319.073112 
L 457.868862 319.073112 
L 457.988701 273.781131 
L 458.105994 273.781131 
L 458.222015 319.073112 
L 458.339344 319.073112 
L 458.459595 333.265515 
L 459.282275 333.265515 
L 459.401961 319.073112 
L 460.932054 319.073112 
L 461.049796 273.781131 
L 461.407709 273.781131 
L 461.522752 257.764347 
L 461.639197 257.764347 
L 461.759024 212.339211 
L 463.996307 212.339211 
L 464.113471 257.764347 
L 464.469181 257.764347 
L 464.589126 273.781131 
L 465.174462 273.781131 
L 465.291425 257.764347 
L 465.645403 257.764347 
L 465.763628 212.339211 
L 465.881534 212.339211 
L 466.000972 228.771177 
L 466.117169 228.771177 
L 466.234864 273.781131 
L 466.825596 273.781131 
L 466.941688 212.339211 
L 467.060749 212.339211 
L 467.177229 228.771177 
L 467.294817 228.771177 
L 467.414373 273.781131 
L 467.530971 273.781131 
L 467.65028 212.339211 
L 468.003221 212.339211 
L 468.120443 257.764347 
L 468.474881 257.764347 
L 468.708572 273.781131 
L 469.886691 273.781131 
L 470.00785 212.339211 
L 470.594447 212.339211 
L 470.712211 163.751029 
L 472.014376 163.751029 
L 472.127357 212.339211 
L 478.372154 212.339211 
L 478.489813 163.751029 
L 479.316677 163.751029 
L 479.434595 102.595035 
L 481.201785 102.595035 
L 481.319892 163.751029 
L 484.971354 163.751029 
L 485.088282 180.620421 
L 487.092982 180.620421 
L 487.210417 163.751029 
L 487.326674 163.751029 
L 487.447396 180.620421 
L 487.562957 180.620421 
L 487.680039 136.213146 
L 487.798864 136.213146 
L 487.916358 118.946655 
L 488.269817 118.946655 
L 488.388796 74.449059 
L 490.394886 74.449059 
L 490.509316 118.946655 
L 493.925532 118.946655 
L 494.161533 136.213146 
L 496.047572 136.213146 
L 496.164971 92.103838 
L 496.753807 92.103838 
L 496.871372 74.449059 
L 497.696633 74.449059 
L 497.814279 92.103838 
L 498.403645 92.103838 
L 498.523142 136.213146 
L 500.760402 136.213146 
L 500.87792 118.946655 
L 500.997782 118.946655 
L 501.113968 180.620421 
L 501.231226 180.620421 
L 501.348672 163.751029 
L 503.117489 163.751029 
L 503.235513 147.773327 
L 504.766762 147.773327 
L 504.884951 131.485368 
L 505.476603 131.485368 
L 505.593519 85.928108 
L 505.709717 85.928108 
L 505.829567 131.485368 
L 505.945235 131.485368 
L 506.064955 85.928108 
L 506.181023 85.928108 
L 506.298859 131.485368 
L 507.358777 131.485368 
L 507.480867 180.90352 
L 507.599539 180.90352 
L 507.713745 163.462097 
L 507.830591 163.462097 
L 507.953623 180.90352 
L 508.066403 180.90352 
L 508.185794 131.485368 
L 508.539512 131.485368 
L 508.655899 180.90352 
L 508.773498 180.90352 
L 508.890662 131.485368 
L 509.244145 131.485368 
L 509.36211 147.773327 
L 510.660469 147.773327 
L 510.776313 196.773608 
L 510.894431 196.773608 
L 511.01156 147.773327 
L 511.600937 147.773327 
L 511.721059 196.773608 
L 512.072916 196.773608 
L 512.192766 212.339211 
L 512.780223 212.339211 
L 512.896998 163.751029 
L 513.723744 163.751029 
L 513.839812 118.946655 
L 513.957718 118.946655 
L 514.076508 163.751029 
L 514.901132 163.751029 
L 515.020146 180.620421 
L 515.136096 180.620421 
L 515.255511 163.751029 
L 515.371661 163.751029 
L 515.490263 212.339211 
L 515.843345 212.339211 
L 515.962241 228.771177 
L 516.554317 228.771177 
L 516.669018 273.781131 
L 519.146698 273.781131 
L 519.260715 228.771177 
L 520.321859 228.771177 
L 520.439353 243.730884 
L 521.500037 243.730884 
L 521.619299 180.620421 
L 522.208017 180.620421 
L 522.326712 136.213146 
L 522.91325 136.213146 
L 523.031357 92.103838 
L 523.386607 92.103838 
L 523.503064 136.213146 
L 526.68487 136.213146 
L 526.803895 118.946655 
L 527.156023 118.946655 
L 527.277559 74.449059 
L 527.391105 74.449059 
L 527.508575 118.946655 
L 527.628532 118.946655 
L 527.745224 74.449059 
L 527.862753 74.449059 
L 527.980848 118.946655 
L 528.333883 118.946655 
L 528.450858 74.449059 
L 529.041367 74.449059 
L 529.16275 118.946655 
L 529.277404 118.946655 
L 529.394367 74.449059 
L 529.512662 74.449059 
L 529.63177 118.946655 
L 529.748121 118.946655 
L 529.865202 74.449059 
L 532.3469 74.449059 
L 532.461601 92.103838 
L 532.575749 92.103838 
L 532.694786 136.213146 
L 533.28315 136.213146 
L 533.402482 151.936823 
L 533.519375 151.936823 
L 533.636327 136.213146 
L 533.989633 136.213146 
L 534.107209 151.936823 
L 539.174265 151.936823 
L 539.293609 108.183238 
L 539.650026 108.183238 
L 539.764939 61.393808 
L 540.590765 61.393808 
L 540.708907 77.547858 
L 541.060234 77.547858 
L 541.178811 94.618524 
L 541.296576 94.618524 
L 541.414577 140.645643 
L 541.531788 140.645643 
L 541.652569 155.842325 
L 542.474625 155.842325 
L 542.592401 170.767283 
L 543.18132 170.767283 
L 543.300805 186.544026 
L 543.892728 186.544026 
L 544.007594 200.926107 
L 544.59617 200.926107 
L 544.713417 215.056968 
L 545.538218 215.056968 
L 545.657892 156.338417 
L 546.011645 156.338417 
L 546.130765 170.811116 
L 546.244807 170.811116 
L 546.363349 156.338417 
L 546.480136 156.338417 
L 546.716749 215.056968 
L 546.834373 170.811116 
L 548.130775 170.811116 
L 548.249671 156.338417 
L 548.367896 156.338417 
L 548.488135 170.811116 
L 548.602035 170.811116 
L 548.72086 156.338417 
L 549.072929 156.338417 
L 549.190776 170.811116 
L 549.780248 170.811116 
L 549.899191 215.056968 
L 551.194569 215.056968 
L 551.311803 256.396963 
L 551.428908 256.396963 
L 551.552506 200.926107 
L 551.90137 200.926107 
L 552.019346 215.056968 
L 552.137229 215.056968 
L 552.255277 242.590042 
L 552.61002 242.590042 
L 552.728021 256.396963 
L 552.844065 256.396963 
L 552.964434 242.590042 
L 553.317045 242.590042 
L 553.433184 256.396963 
L 553.558054 256.396963 
L 553.66856 242.590042 
L 554.493232 242.590042 
L 554.611421 284.50089 
L 556.850731 284.50089 
L 556.970346 228.536175 
L 557.085801 228.536175 
L 557.203177 284.50089 
L 558.028579 284.50089 
L 558.146332 329.906606 
L 559.211282 329.906606 
L 559.326419 372.315613 
L 559.444172 372.315613 
L 559.560311 385.08707 
L 559.679525 385.08707 
L 559.798162 372.315613 
L 560.386526 372.315613 
L 560.6203 385.08707 
L 561.091913 385.08707 
L 561.209902 372.315613 
L 561.328503 372.315613 
L 561.447352 414.957188 
L 561.563821 414.957188 
L 561.681727 372.315613 
L 562.035999 372.315613 
L 562.154954 359.311658 
L 562.270857 359.311658 
L 562.388457 414.957188 
L 562.506021 414.957188 
L 562.624199 372.315613 
L 562.741857 372.315613 
L 562.865102 359.311658 
L 564.155506 359.311658 
L 564.276158 345.040306 
L 564.62699 345.040306 
L 564.744849 301.903415 
L 565.098826 301.903415 
L 565.217487 288.038141 
L 565.333838 288.038141 
L 565.456233 241.485164 
L 567.220018 241.485164 
L 567.338738 255.728693 
L 570.050274 255.728693 
L 570.165257 270.781664 
L 572.16918 270.781664 
L 572.28797 284.50089 
L 573.346934 284.50089 
L 573.464863 242.590042 
L 573.581803 242.590042 
L 573.70057 228.536175 
L 573.818382 228.536175 
L 573.93564 186.544026 
L 574.996842 186.544026 
L 575.114595 200.926107 
L 576.175563 200.926107 
L 576.295519 215.056968 
L 576.64899 215.056968 
L 576.764846 200.926107 
L 577.118529 200.926107 
L 577.23911 215.056968 
L 577.825012 215.056968 
L 577.943142 156.338417 
L 579.007809 156.338417 
L 579.122534 170.811116 
L 579.710474 170.811116 
L 579.82732 129.984269 
L 579.946605 129.984269 
L 580.065359 170.811116 
L 580.180979 170.811116 
L 580.298992 129.984269 
L 581.123864 129.984269 
L 581.123864 129.984269 
" clip-path="url(#p77703cee3a)" style="fill: none; stroke: #1f77b4; stroke-width: 2; stroke-linecap: square"/>
   </g>
   <g id="patch_3">
    <path d="M 48.4875 414.957188 
L 48.4875 26.877188 
" style="fill: none; stroke: #808080; stroke-width: 2; stroke-linejoin: miter; stroke-linecap: square"/>
   </g>
   <g id="patch_4">
    <path d="M 48.4875 414.957187 
L 606.4875 414.957187 
" style="fill: none; stroke: #808080; stroke-width: 2; stroke-linejoin: miter; stroke-linecap: square"/>
   </g>
   <g id="text_13">
    <!-- Oskar-Nidarosdomen-vinkel -->
    <g style="fill: #808080" transform="translate(203.923125 20.877187) scale(0.18 -0.18)">
     <defs>
      <path id="DejaVuSans-4f" d="M 2522 4238 
Q 1834 4238 1429 3725 
Q 1025 3213 1025 2328 
Q 1025 1447 1429 934 
Q 1834 422 2522 422 
Q 3209 422 3611 934 
Q 4013 1447 4013 2328 
Q 4013 3213 3611 3725 
Q 3209 4238 2522 4238 
z
M 2522 4750 
Q 3503 4750 4090 4092 
Q 4678 3434 4678 2328 
Q 4678 1225 4090 567 
Q 3503 -91 2522 -91 
Q 1538 -91 948 565 
Q 359 1222 359 2328 
Q 359 3434 948 4092 
Q 1538 4750 2522 4750 
z
" transform="scale(0.015625)"/>
      <path id="DejaVuSans-6b" d="M 581 4863 
L 1159 4863 
L 1159 1991 
L 2875 3500 
L 3609 3500 
L 1753 1863 
L 3688 0 
L 2938 0 
L 1159 1709 
L 1159 0 
L 581 0 
L 581 4863 
z
" transform="scale(0.015625)"/>
      <path id="DejaVuSans-61" d="M 2194 1759 
Q 1497 1759 1228 1600 
Q 959 1441 959 1056 
Q 959 750 1161 570 
Q 1363 391 1709 391 
Q 2188 391 2477 730 
Q 2766 1069 2766 1631 
L 2766 1759 
L 2194 1759 
z
M 3341 1997 
L 3341 0 
L 2766 0 
L 2766 531 
Q 2569 213 2275 61 
Q 1981 -91 1556 -91 
Q 1019 -91 701 211 
Q 384 513 384 1019 
Q 384 1609 779 1909 
Q 1175 2209 1959 2209 
L 2766 2209 
L 2766 2266 
Q 2766 2663 2505 2880 
Q 2244 3097 1772 3097 
Q 1472 3097 1187 3025 
Q 903 2953 641 2809 
L 641 3341 
Q 956 3463 1253 3523 
Q 1550 3584 1831 3584 
Q 2591 3584 2966 3190 
Q 3341 2797 3341 1997 
z
" transform="scale(0.015625)"/>
      <path id="DejaVuSans-72" d="M 2631 2963 
Q 2534 3019 2420 3045 
Q 2306 3072 2169 3072 
Q 1681 3072 1420 2755 
Q 1159 2438 1159 1844 
L 1159 0 
L 581 0 
L 581 3500 
L 1159 3500 
L 1159 2956 
Q 1341 3275 1631 3429 
Q 1922 3584 2338 3584 
Q 2397 3584 2469 3576 
Q 2541 3569 2628 3553 
L 2631 2963 
z
" transform="scale(0.015625)"/>
      <path id="DejaVuSans-2d" d="M 313 2009 
L 1997 2009 
L 1997 1497 
L 313 1497 
L 313 2009 
z
" transform="scale(0.015625)"/>
      <path id="DejaVuSans-4e" d="M 628 4666 
L 1478 4666 
L 3547 763 
L 3547 4666 
L 4159 4666 
L 4159 0 
L 3309 0 
L 1241 3903 
L 1241 0 
L 628 0 
L 628 4666 
z
" transform="scale(0.015625)"/>
      <path id="DejaVuSans-6f" d="M 1959 3097 
Q 1497 3097 1228 2736 
Q 959 2375 959 1747 
Q 959 1119 1226 758 
Q 1494 397 1959 397 
Q 2419 397 2687 759 
Q 2956 1122 2956 1747 
Q 2956 2369 2687 2733 
Q 2419 3097 1959 3097 
z
M 1959 3584 
Q 2709 3584 3137 3096 
Q 3566 2609 3566 1747 
Q 3566 888 3137 398 
Q 2709 -91 1959 -91 
Q 1206 -91 779 398 
Q 353 888 353 1747 
Q 353 2609 779 3096 
Q 1206 3584 1959 3584 
z
" transform="scale(0.015625)"/>
      <path id="DejaVuSans-6e" d="M 3513 2113 
L 3513 0 
L 2938 0 
L 2938 2094 
Q 2938 2591 2744 2837 
Q 2550 3084 2163 3084 
Q 1697 3084 1428 2787 
Q 1159 2491 1159 1978 
L 1159 0 
L 581 0 
L 581 3500 
L 1159 3500 
L 1159 2956 
Q 1366 3272 1645 3428 
Q 1925 3584 2291 3584 
Q 2894 3584 3203 3211 
Q 3513 2838 3513 2113 
z
" transform="scale(0.015625)"/>
      <path id="DejaVuSans-76" d="M 191 3500 
L 800 3500 
L 1894 563 
L 2988 3500 
L 3597 3500 
L 2284 0 
L 1503 0 
L 191 3500 
z
" transform="scale(0.015625)"/>
      <path id="DejaVuSans-6c" d="M 603 4863 
L 1178 4863 
L 1178 0 
L 603 0 
L 603 4863 
z
" transform="scale(0.015625)"/>
     </defs>
     <use xlink:href="#DejaVuSans-4f"/>
     <use xlink:href="#DejaVuSans-73" x="78.710938"/>
     <use xlink:href="#DejaVuSans-6b" x="130.810547"/>
     <use xlink:href="#DejaVuSans-61" x="186.970703"/>
     <use xlink:href="#DejaVuSans-72" x="248.25"/>
     <use xlink:href="#DejaVuSans-2d" x="282.988281"/>
     <use xlink:href="#DejaVuSans-4e" x="319.072266"/>
     <use xlink:href="#DejaVuSans-69" x="393.876953"/>
     <use xlink:href="#DejaVuSans-64" x="421.660156"/>
     <use xlink:href="#DejaVuSans-61" x="485.136719"/>
     <use xlink:href="#DejaVuSans-72" x="546.416016"/>
     <use xlink:href="#DejaVuSans-6f" x="585.279297"/>
     <use xlink:href="#DejaVuSans-73" x="646.460938"/>
     <use xlink:href="#DejaVuSans-64" x="698.560547"/>
     <use xlink:href="#DejaVuSans-6f" x="762.037109"/>
     <use xlink:href="#DejaVuSans-6d" x="823.21875"/>
     <use xlink:href="#DejaVuSans-65" x="920.630859"/>
     <use xlink:href="#DejaVuSans-6e" x="982.154297"/>
     <use xlink:href="#DejaVuSans-2d" x="1045.533203"/>
     <use xlink:href="#DejaVuSans-76" x="1078.992188"/>
     <use xlink:href="#DejaVuSans-69" x="1138.171875"/>
     <use xlink:href="#DejaVuSans-6e" x="1165.955078"/>
     <use xlink:href="#DejaVuSans-6b" x="1229.333984"/>
     <use xlink:href="#DejaVuSans-65" x="1283.619141"/>
     <use xlink:href="#DejaVuSans-6c" x="1345.142578"/>
    </g>
   </g>
   <g id="legend_1">
    <g id="patch_5">
     <path d="M 58.9875 60.894375 
L 312.928125 60.894375 
Q 315.928125 60.894375 315.928125 57.894375 
L 315.928125 37.377187 
Q 315.928125 34.377187 312.928125 34.377187 
L 58.9875 34.377187 
Q 55.9875 34.377187 55.9875 37.377187 
L 55.9875 57.894375 
Q 55.9875 60.894375 58.9875 60.894375 
z
" style="fill: #ffffff; opacity: 0.8; stroke: #cccccc; stroke-linejoin: miter"/>
    </g>
    <g id="line2d_22">
     <path d="M 61.9875 46.524844 
L 76.9875 46.524844 
L 91.9875 46.524844 
" style="fill: none; stroke: #1f77b4; stroke-width: 2; stroke-linecap: square"/>
    </g>
    <g id="text_14">
     <!-- Oskar-Nidarosdomen-vinkel -->
     <g style="fill: #808080" transform="translate(103.9875 51.774844) scale(0.15 -0.15)">
      <use xlink:href="#DejaVuSans-4f"/>
      <use xlink:href="#DejaVuSans-73" x="78.710938"/>
      <use xlink:href="#DejaVuSans-6b" x="130.810547"/>
      <use xlink:href="#DejaVuSans-61" x="186.970703"/>
      <use xlink:href="#DejaVuSans-72" x="248.25"/>
      <use xlink:href="#DejaVuSans-2d" x="282.988281"/>
      <use xlink:href="#DejaVuSans-4e" x="319.072266"/>
      <use xlink:href="#DejaVuSans-69" x="393.876953"/>
      <use xlink:href="#DejaVuSans-64" x="421.660156"/>
      <use xlink:href="#DejaVuSans-61" x="485.136719"/>
      <use xlink:href="#DejaVuSans-72" x="546.416016"/>
      <use xlink:href="#DejaVuSans-6f" x="585.279297"/>
      <use xlink:href="#DejaVuSans-73" x="646.460938"/>
      <use xlink:href="#DejaVuSans-64" x="698.560547"/>
      <use xlink:href="#DejaVuSans-6f" x="762.037109"/>
      <use xlink:href="#DejaVuSans-6d" x="823.21875"/>
      <use xlink:href="#DejaVuSans-65" x="920.630859"/>
      <use xlink:href="#DejaVuSans-6e" x="982.154297"/>
      <use xlink:href="#DejaVuSans-2d" x="1045.533203"/>
      <use xlink:href="#DejaVuSans-76" x="1078.992188"/>
      <use xlink:href="#DejaVuSans-69" x="1138.171875"/>
      <use xlink:href="#DejaVuSans-6e" x="1165.955078"/>
      <use xlink:href="#DejaVuSans-6b" x="1229.333984"/>
      <use xlink:href="#DejaVuSans-65" x="1283.619141"/>
      <use xlink:href="#DejaVuSans-6c" x="1345.142578"/>
     </g>
    </g>
   </g>
  </g>
 </g>
 <defs>
  <clipPath id="p77703cee3a">
   <rect x="48.4875" y="26.877187" width="558" height="388.08"/>
  </clipPath>
 </defs>
</svg>
