<?xml version="1.0" encoding="utf-8" standalone="no"?>
<!DOCTYPE svg PUBLIC "-//W3C//DTD SVG 1.1//EN"
  "http://www.w3.org/Graphics/SVG/1.1/DTD/svg11.dtd">
<svg xmlns:xlink="http://www.w3.org/1999/xlink" width="460.8pt" height="345.6pt" viewBox="0 0 460.8 345.6" xmlns="http://www.w3.org/2000/svg" version="1.1">
 <metadata>
  <rdf:RDF xmlns:dc="http://purl.org/dc/elements/1.1/" xmlns:cc="http://creativecommons.org/ns#" xmlns:rdf="http://www.w3.org/1999/02/22-rdf-syntax-ns#">
   <cc:Work>
    <dc:type rdf:resource="http://purl.org/dc/dcmitype/StillImage"/>
    <dc:date>2023-04-17T15:21:26.814612</dc:date>
    <dc:format>image/svg+xml</dc:format>
    <dc:creator>
     <cc:Agent>
      <dc:title>Matplotlib v3.7.1, https://matplotlib.org/</dc:title>
     </cc:Agent>
    </dc:creator>
   </cc:Work>
  </rdf:RDF>
 </metadata>
 <defs>
  <style type="text/css">*{stroke-linejoin: round; stroke-linecap: butt}</style>
 </defs>
 <g id="figure_1">
  <g id="patch_1">
   <path d="M 0 345.6 
L 460.8 345.6 
L 460.8 0 
L 0 0 
z
" style="fill: #ffffff"/>
  </g>
  <g id="axes_1">
   <g id="patch_2">
    <path d="M 57.6 307.584 
L 414.72 307.584 
L 414.72 41.472 
L 57.6 41.472 
z
" style="fill: #ffffff"/>
   </g>
   <g id="matplotlib.axis_1">
    <g id="xtick_1">
     <g id="line2d_1">
      <defs>
       <path id="m79d712d3a6" d="M 0 0 
L 0 3.5 
" style="stroke: #000000; stroke-width: 0.8"/>
      </defs>
      <g>
       <use xlink:href="#m79d712d3a6" x="108.80608" y="307.584" style="stroke: #000000; stroke-width: 0.8"/>
      </g>
     </g>
     <g id="text_1">
      <!-- 80 -->
      <g transform="translate(102.44358 322.182437) scale(0.1 -0.1)">
       <defs>
        <path id="DejaVuSans-38" d="M 2034 2216 
Q 1584 2216 1326 1975 
Q 1069 1734 1069 1313 
Q 1069 891 1326 650 
Q 1584 409 2034 409 
Q 2484 409 2743 651 
Q 3003 894 3003 1313 
Q 3003 1734 2745 1975 
Q 2488 2216 2034 2216 
z
M 1403 2484 
Q 997 2584 770 2862 
Q 544 3141 544 3541 
Q 544 4100 942 4425 
Q 1341 4750 2034 4750 
Q 2731 4750 3128 4425 
Q 3525 4100 3525 3541 
Q 3525 3141 3298 2862 
Q 3072 2584 2669 2484 
Q 3125 2378 3379 2068 
Q 3634 1759 3634 1313 
Q 3634 634 3220 271 
Q 2806 -91 2034 -91 
Q 1263 -91 848 271 
Q 434 634 434 1313 
Q 434 1759 690 2068 
Q 947 2378 1403 2484 
z
M 1172 3481 
Q 1172 3119 1398 2916 
Q 1625 2713 2034 2713 
Q 2441 2713 2670 2916 
Q 2900 3119 2900 3481 
Q 2900 3844 2670 4047 
Q 2441 4250 2034 4250 
Q 1625 4250 1398 4047 
Q 1172 3844 1172 3481 
z
" transform="scale(0.015625)"/>
        <path id="DejaVuSans-30" d="M 2034 4250 
Q 1547 4250 1301 3770 
Q 1056 3291 1056 2328 
Q 1056 1369 1301 889 
Q 1547 409 2034 409 
Q 2525 409 2770 889 
Q 3016 1369 3016 2328 
Q 3016 3291 2770 3770 
Q 2525 4250 2034 4250 
z
M 2034 4750 
Q 2819 4750 3233 4129 
Q 3647 3509 3647 2328 
Q 3647 1150 3233 529 
Q 2819 -91 2034 -91 
Q 1250 -91 836 529 
Q 422 1150 422 2328 
Q 422 3509 836 4129 
Q 1250 4750 2034 4750 
z
" transform="scale(0.015625)"/>
       </defs>
       <use xlink:href="#DejaVuSans-38"/>
       <use xlink:href="#DejaVuSans-30" x="63.623047"/>
      </g>
     </g>
    </g>
    <g id="xtick_2">
     <g id="line2d_2">
      <g>
       <use xlink:href="#m79d712d3a6" x="184.220792" y="307.584" style="stroke: #000000; stroke-width: 0.8"/>
      </g>
     </g>
     <g id="text_2">
      <!-- 90 -->
      <g transform="translate(177.858292 322.182437) scale(0.1 -0.1)">
       <defs>
        <path id="DejaVuSans-39" d="M 703 97 
L 703 672 
Q 941 559 1184 500 
Q 1428 441 1663 441 
Q 2288 441 2617 861 
Q 2947 1281 2994 2138 
Q 2813 1869 2534 1725 
Q 2256 1581 1919 1581 
Q 1219 1581 811 2004 
Q 403 2428 403 3163 
Q 403 3881 828 4315 
Q 1253 4750 1959 4750 
Q 2769 4750 3195 4129 
Q 3622 3509 3622 2328 
Q 3622 1225 3098 567 
Q 2575 -91 1691 -91 
Q 1453 -91 1209 -44 
Q 966 3 703 97 
z
M 1959 2075 
Q 2384 2075 2632 2365 
Q 2881 2656 2881 3163 
Q 2881 3666 2632 3958 
Q 2384 4250 1959 4250 
Q 1534 4250 1286 3958 
Q 1038 3666 1038 3163 
Q 1038 2656 1286 2365 
Q 1534 2075 1959 2075 
z
" transform="scale(0.015625)"/>
       </defs>
       <use xlink:href="#DejaVuSans-39"/>
       <use xlink:href="#DejaVuSans-30" x="63.623047"/>
      </g>
     </g>
    </g>
    <g id="xtick_3">
     <g id="line2d_3">
      <g>
       <use xlink:href="#m79d712d3a6" x="259.635505" y="307.584" style="stroke: #000000; stroke-width: 0.8"/>
      </g>
     </g>
     <g id="text_3">
      <!-- 100 -->
      <g transform="translate(250.091755 322.182437) scale(0.1 -0.1)">
       <defs>
        <path id="DejaVuSans-31" d="M 794 531 
L 1825 531 
L 1825 4091 
L 703 3866 
L 703 4441 
L 1819 4666 
L 2450 4666 
L 2450 531 
L 3481 531 
L 3481 0 
L 794 0 
L 794 531 
z
" transform="scale(0.015625)"/>
       </defs>
       <use xlink:href="#DejaVuSans-31"/>
       <use xlink:href="#DejaVuSans-30" x="63.623047"/>
       <use xlink:href="#DejaVuSans-30" x="127.246094"/>
      </g>
     </g>
    </g>
    <g id="xtick_4">
     <g id="line2d_4">
      <g>
       <use xlink:href="#m79d712d3a6" x="335.050217" y="307.584" style="stroke: #000000; stroke-width: 0.8"/>
      </g>
     </g>
     <g id="text_4">
      <!-- 110 -->
      <g transform="translate(325.506467 322.182437) scale(0.1 -0.1)">
       <use xlink:href="#DejaVuSans-31"/>
       <use xlink:href="#DejaVuSans-31" x="63.623047"/>
       <use xlink:href="#DejaVuSans-30" x="127.246094"/>
      </g>
     </g>
    </g>
    <g id="xtick_5">
     <g id="line2d_5">
      <g>
       <use xlink:href="#m79d712d3a6" x="410.46493" y="307.584" style="stroke: #000000; stroke-width: 0.8"/>
      </g>
     </g>
     <g id="text_5">
      <!-- 120 -->
      <g transform="translate(400.92118 322.182437) scale(0.1 -0.1)">
       <defs>
        <path id="DejaVuSans-32" d="M 1228 531 
L 3431 531 
L 3431 0 
L 469 0 
L 469 531 
Q 828 903 1448 1529 
Q 2069 2156 2228 2338 
Q 2531 2678 2651 2914 
Q 2772 3150 2772 3378 
Q 2772 3750 2511 3984 
Q 2250 4219 1831 4219 
Q 1534 4219 1204 4116 
Q 875 4013 500 3803 
L 500 4441 
Q 881 4594 1212 4672 
Q 1544 4750 1819 4750 
Q 2544 4750 2975 4387 
Q 3406 4025 3406 3419 
Q 3406 3131 3298 2873 
Q 3191 2616 2906 2266 
Q 2828 2175 2409 1742 
Q 1991 1309 1228 531 
z
" transform="scale(0.015625)"/>
       </defs>
       <use xlink:href="#DejaVuSans-31"/>
       <use xlink:href="#DejaVuSans-32" x="63.623047"/>
       <use xlink:href="#DejaVuSans-30" x="127.246094"/>
      </g>
     </g>
    </g>
    <g id="text_6">
     <!-- time [s] -->
     <g transform="translate(216.768594 335.860562) scale(0.1 -0.1)">
      <defs>
       <path id="DejaVuSans-74" d="M 1172 4494 
L 1172 3500 
L 2356 3500 
L 2356 3053 
L 1172 3053 
L 1172 1153 
Q 1172 725 1289 603 
Q 1406 481 1766 481 
L 2356 481 
L 2356 0 
L 1766 0 
Q 1100 0 847 248 
Q 594 497 594 1153 
L 594 3053 
L 172 3053 
L 172 3500 
L 594 3500 
L 594 4494 
L 1172 4494 
z
" transform="scale(0.015625)"/>
       <path id="DejaVuSans-69" d="M 603 3500 
L 1178 3500 
L 1178 0 
L 603 0 
L 603 3500 
z
M 603 4863 
L 1178 4863 
L 1178 4134 
L 603 4134 
L 603 4863 
z
" transform="scale(0.015625)"/>
       <path id="DejaVuSans-6d" d="M 3328 2828 
Q 3544 3216 3844 3400 
Q 4144 3584 4550 3584 
Q 5097 3584 5394 3201 
Q 5691 2819 5691 2113 
L 5691 0 
L 5113 0 
L 5113 2094 
Q 5113 2597 4934 2840 
Q 4756 3084 4391 3084 
Q 3944 3084 3684 2787 
Q 3425 2491 3425 1978 
L 3425 0 
L 2847 0 
L 2847 2094 
Q 2847 2600 2669 2842 
Q 2491 3084 2119 3084 
Q 1678 3084 1418 2786 
Q 1159 2488 1159 1978 
L 1159 0 
L 581 0 
L 581 3500 
L 1159 3500 
L 1159 2956 
Q 1356 3278 1631 3431 
Q 1906 3584 2284 3584 
Q 2666 3584 2933 3390 
Q 3200 3197 3328 2828 
z
" transform="scale(0.015625)"/>
       <path id="DejaVuSans-65" d="M 3597 1894 
L 3597 1613 
L 953 1613 
Q 991 1019 1311 708 
Q 1631 397 2203 397 
Q 2534 397 2845 478 
Q 3156 559 3463 722 
L 3463 178 
Q 3153 47 2828 -22 
Q 2503 -91 2169 -91 
Q 1331 -91 842 396 
Q 353 884 353 1716 
Q 353 2575 817 3079 
Q 1281 3584 2069 3584 
Q 2775 3584 3186 3129 
Q 3597 2675 3597 1894 
z
M 3022 2063 
Q 3016 2534 2758 2815 
Q 2500 3097 2075 3097 
Q 1594 3097 1305 2825 
Q 1016 2553 972 2059 
L 3022 2063 
z
" transform="scale(0.015625)"/>
       <path id="DejaVuSans-20" transform="scale(0.015625)"/>
       <path id="DejaVuSans-5b" d="M 550 4863 
L 1875 4863 
L 1875 4416 
L 1125 4416 
L 1125 -397 
L 1875 -397 
L 1875 -844 
L 550 -844 
L 550 4863 
z
" transform="scale(0.015625)"/>
       <path id="DejaVuSans-73" d="M 2834 3397 
L 2834 2853 
Q 2591 2978 2328 3040 
Q 2066 3103 1784 3103 
Q 1356 3103 1142 2972 
Q 928 2841 928 2578 
Q 928 2378 1081 2264 
Q 1234 2150 1697 2047 
L 1894 2003 
Q 2506 1872 2764 1633 
Q 3022 1394 3022 966 
Q 3022 478 2636 193 
Q 2250 -91 1575 -91 
Q 1294 -91 989 -36 
Q 684 19 347 128 
L 347 722 
Q 666 556 975 473 
Q 1284 391 1588 391 
Q 1994 391 2212 530 
Q 2431 669 2431 922 
Q 2431 1156 2273 1281 
Q 2116 1406 1581 1522 
L 1381 1569 
Q 847 1681 609 1914 
Q 372 2147 372 2553 
Q 372 3047 722 3315 
Q 1072 3584 1716 3584 
Q 2034 3584 2315 3537 
Q 2597 3491 2834 3397 
z
" transform="scale(0.015625)"/>
       <path id="DejaVuSans-5d" d="M 1947 4863 
L 1947 -844 
L 622 -844 
L 622 -397 
L 1369 -397 
L 1369 4416 
L 622 4416 
L 622 4863 
L 1947 4863 
z
" transform="scale(0.015625)"/>
      </defs>
      <use xlink:href="#DejaVuSans-74"/>
      <use xlink:href="#DejaVuSans-69" x="39.208984"/>
      <use xlink:href="#DejaVuSans-6d" x="66.992188"/>
      <use xlink:href="#DejaVuSans-65" x="164.404297"/>
      <use xlink:href="#DejaVuSans-20" x="225.927734"/>
      <use xlink:href="#DejaVuSans-5b" x="257.714844"/>
      <use xlink:href="#DejaVuSans-73" x="296.728516"/>
      <use xlink:href="#DejaVuSans-5d" x="348.828125"/>
     </g>
    </g>
   </g>
   <g id="matplotlib.axis_2">
    <g id="ytick_1">
     <g id="line2d_6">
      <defs>
       <path id="mc3758bdf6f" d="M 0 0 
L -3.5 0 
" style="stroke: #000000; stroke-width: 0.8"/>
      </defs>
      <g>
       <use xlink:href="#mc3758bdf6f" x="57.6" y="261.642946" style="stroke: #000000; stroke-width: 0.8"/>
      </g>
     </g>
     <g id="text_7">
      <!-- 17 -->
      <g transform="translate(37.875 265.442165) scale(0.1 -0.1)">
       <defs>
        <path id="DejaVuSans-37" d="M 525 4666 
L 3525 4666 
L 3525 4397 
L 1831 0 
L 1172 0 
L 2766 4134 
L 525 4134 
L 525 4666 
z
" transform="scale(0.015625)"/>
       </defs>
       <use xlink:href="#DejaVuSans-31"/>
       <use xlink:href="#DejaVuSans-37" x="63.623047"/>
      </g>
     </g>
    </g>
    <g id="ytick_2">
     <g id="line2d_7">
      <g>
       <use xlink:href="#mc3758bdf6f" x="57.6" y="210.348731" style="stroke: #000000; stroke-width: 0.8"/>
      </g>
     </g>
     <g id="text_8">
      <!-- 18 -->
      <g transform="translate(37.875 214.147949) scale(0.1 -0.1)">
       <use xlink:href="#DejaVuSans-31"/>
       <use xlink:href="#DejaVuSans-38" x="63.623047"/>
      </g>
     </g>
    </g>
    <g id="ytick_3">
     <g id="line2d_8">
      <g>
       <use xlink:href="#mc3758bdf6f" x="57.6" y="159.054515" style="stroke: #000000; stroke-width: 0.8"/>
      </g>
     </g>
     <g id="text_9">
      <!-- 19 -->
      <g transform="translate(37.875 162.853734) scale(0.1 -0.1)">
       <use xlink:href="#DejaVuSans-31"/>
       <use xlink:href="#DejaVuSans-39" x="63.623047"/>
      </g>
     </g>
    </g>
    <g id="ytick_4">
     <g id="line2d_9">
      <g>
       <use xlink:href="#mc3758bdf6f" x="57.6" y="107.7603" style="stroke: #000000; stroke-width: 0.8"/>
      </g>
     </g>
     <g id="text_10">
      <!-- 20 -->
      <g transform="translate(37.875 111.559518) scale(0.1 -0.1)">
       <use xlink:href="#DejaVuSans-32"/>
       <use xlink:href="#DejaVuSans-30" x="63.623047"/>
      </g>
     </g>
    </g>
    <g id="ytick_5">
     <g id="line2d_10">
      <g>
       <use xlink:href="#mc3758bdf6f" x="57.6" y="56.466084" style="stroke: #000000; stroke-width: 0.8"/>
      </g>
     </g>
     <g id="text_11">
      <!-- 21 -->
      <g transform="translate(37.875 60.265303) scale(0.1 -0.1)">
       <use xlink:href="#DejaVuSans-32"/>
       <use xlink:href="#DejaVuSans-31" x="63.623047"/>
      </g>
     </g>
    </g>
    <g id="text_12">
     <!-- $\theta$ [deg] -->
     <g transform="translate(31.775 192.528) rotate(-90) scale(0.1 -0.1)">
      <defs>
       <path id="DejaVuSans-Oblique-3b8" d="M 2913 2219 
L 925 2219 
Q 791 1284 928 888 
Q 1100 400 1566 400 
Q 2034 400 2391 891 
Q 2703 1322 2913 2219 
z
M 3009 2750 
Q 3094 3638 2984 3950 
Q 2813 4444 2353 4444 
Q 1875 4444 1525 3956 
Q 1250 3563 1034 2750 
L 3009 2750 
z
M 2444 4913 
Q 3194 4913 3494 4250 
Q 3794 3591 3566 2422 
Q 3341 1256 2781 594 
Q 2225 -72 1475 -72 
Q 722 -72 425 594 
Q 128 1256 353 2422 
Q 581 3591 1134 4250 
Q 1691 4913 2444 4913 
z
" transform="scale(0.015625)"/>
       <path id="DejaVuSans-64" d="M 2906 2969 
L 2906 4863 
L 3481 4863 
L 3481 0 
L 2906 0 
L 2906 525 
Q 2725 213 2448 61 
Q 2172 -91 1784 -91 
Q 1150 -91 751 415 
Q 353 922 353 1747 
Q 353 2572 751 3078 
Q 1150 3584 1784 3584 
Q 2172 3584 2448 3432 
Q 2725 3281 2906 2969 
z
M 947 1747 
Q 947 1113 1208 752 
Q 1469 391 1925 391 
Q 2381 391 2643 752 
Q 2906 1113 2906 1747 
Q 2906 2381 2643 2742 
Q 2381 3103 1925 3103 
Q 1469 3103 1208 2742 
Q 947 2381 947 1747 
z
" transform="scale(0.015625)"/>
       <path id="DejaVuSans-67" d="M 2906 1791 
Q 2906 2416 2648 2759 
Q 2391 3103 1925 3103 
Q 1463 3103 1205 2759 
Q 947 2416 947 1791 
Q 947 1169 1205 825 
Q 1463 481 1925 481 
Q 2391 481 2648 825 
Q 2906 1169 2906 1791 
z
M 3481 434 
Q 3481 -459 3084 -895 
Q 2688 -1331 1869 -1331 
Q 1566 -1331 1297 -1286 
Q 1028 -1241 775 -1147 
L 775 -588 
Q 1028 -725 1275 -790 
Q 1522 -856 1778 -856 
Q 2344 -856 2625 -561 
Q 2906 -266 2906 331 
L 2906 616 
Q 2728 306 2450 153 
Q 2172 0 1784 0 
Q 1141 0 747 490 
Q 353 981 353 1791 
Q 353 2603 747 3093 
Q 1141 3584 1784 3584 
Q 2172 3584 2450 3431 
Q 2728 3278 2906 2969 
L 2906 3500 
L 3481 3500 
L 3481 434 
z
" transform="scale(0.015625)"/>
      </defs>
      <use xlink:href="#DejaVuSans-Oblique-3b8" transform="translate(0 0.234375)"/>
      <use xlink:href="#DejaVuSans-20" transform="translate(61.181641 0.234375)"/>
      <use xlink:href="#DejaVuSans-5b" transform="translate(92.96875 0.234375)"/>
      <use xlink:href="#DejaVuSans-64" transform="translate(131.982422 0.234375)"/>
      <use xlink:href="#DejaVuSans-65" transform="translate(195.458984 0.234375)"/>
      <use xlink:href="#DejaVuSans-67" transform="translate(256.982422 0.234375)"/>
      <use xlink:href="#DejaVuSans-5d" transform="translate(320.458984 0.234375)"/>
     </g>
    </g>
   </g>
   <g id="line2d_11">
    <path d="M 73.832727 274.89609 
L 73.902659 274.89609 
L 74.053082 235.716109 
L 74.958088 235.716109 
L 75.109461 225.995782 
L 76.919127 225.995782 
L 77.071276 235.716109 
L 77.523259 235.716109 
L 77.673448 244.563321 
L 77.824172 235.716109 
L 77.977663 244.563321 
L 79.035784 244.563321 
L 79.182692 216.570911 
L 79.332488 244.563321 
L 79.483235 216.570911 
L 80.23739 216.570911 
L 80.388151 188.749525 
L 80.690594 188.749525 
L 80.841597 216.570911 
L 81.141801 216.570911 
L 81.293822 225.488604 
L 81.447803 216.570911 
L 81.595058 216.570911 
L 81.745465 244.563321 
L 81.896445 253.243008 
L 82.048293 244.563321 
L 82.650713 244.563321 
L 82.801663 253.243008 
L 84.460855 253.243008 
L 84.612755 244.563321 
L 85.667475 244.563321 
L 85.818523 216.570911 
L 86.271102 216.570911 
L 86.421396 244.563321 
L 86.572452 253.243008 
L 88.23291 253.243008 
L 88.382344 225.488604 
L 88.53291 253.243008 
L 88.683807 225.488604 
L 88.834976 253.243008 
L 89.739719 253.243008 
L 89.890435 225.488604 
L 90.644288 225.488604 
L 90.795623 188.749525 
L 91.247953 188.749525 
L 91.398812 158.983039 
L 91.549189 158.983039 
L 91.701866 188.749525 
L 91.851391 158.983039 
L 92.002462 188.749525 
L 93.812159 188.749525 
L 93.962958 149.407938 
L 94.264602 149.407938 
L 94.415386 188.749525 
L 94.565763 188.749525 
L 94.717029 179.423994 
L 94.867655 188.749525 
L 95.32086 188.749525 
L 95.471252 179.423994 
L 95.623009 179.423994 
L 95.772986 188.749525 
L 95.926116 188.749525 
L 96.074736 179.423994 
L 96.225316 188.749525 
L 96.527216 188.749525 
L 96.680331 158.983039 
L 97.28521 158.983039 
L 97.43174 188.749525 
L 98.038195 188.749525 
L 98.18628 225.488604 
L 98.336747 225.488604 
L 98.48778 216.570911 
L 98.790487 216.570911 
L 98.940796 188.749525 
L 100.146693 188.749525 
L 100.298246 158.983039 
L 100.448284 158.983039 
L 100.599928 149.407938 
L 101.202853 149.407938 
L 101.35369 138.891953 
L 101.504323 138.891953 
L 101.655191 149.407938 
L 101.805681 110.961954 
L 103.163673 110.961954 
L 103.314503 149.407938 
L 103.466199 138.891953 
L 103.615905 149.407938 
L 103.775377 149.407938 
L 103.919072 138.891953 
L 104.220045 138.891953 
L 104.370256 169.18069 
L 104.520716 169.18069 
L 104.672058 138.891953 
L 104.823008 169.18069 
L 105.427555 169.18069 
L 105.578385 159.477457 
L 105.727955 169.18069 
L 105.878369 169.18069 
L 106.030315 159.477457 
L 107.085057 159.477457 
L 107.235992 128.931828 
L 107.386648 118.778294 
L 107.688518 118.778294 
L 107.838752 90.378963 
L 107.989823 118.778294 
L 108.140811 90.378963 
L 108.452304 90.378963 
L 108.595003 118.778294 
L 108.743653 118.778294 
L 108.895146 128.931828 
L 109.045742 128.931828 
L 109.19676 159.477457 
L 109.801639 159.477457 
L 109.950726 169.18069 
L 111.760566 169.18069 
L 111.911652 159.477457 
L 112.063801 169.18069 
L 112.667036 169.18069 
L 112.816749 159.477457 
L 113.118385 159.477457 
L 113.270738 128.931828 
L 113.872389 128.931828 
L 114.023256 159.477457 
L 114.174817 159.477457 
L 114.325428 169.18069 
L 114.476031 169.18069 
L 114.626333 197.497658 
L 116.738224 197.497658 
L 116.888963 188.038372 
L 117.794052 188.038372 
L 117.944595 159.477457 
L 118.247106 159.477457 
L 118.397234 149.584415 
L 118.548471 149.584415 
L 118.701751 118.778294 
L 118.849534 107.621111 
L 119.46298 107.621111 
L 119.60396 118.778294 
L 119.905566 118.778294 
L 120.056433 149.584415 
L 120.207112 159.477457 
L 120.358032 159.477457 
L 120.508839 149.584415 
L 120.659585 159.477457 
L 122.020247 159.477457 
L 122.167495 169.18069 
L 123.978375 169.18069 
L 124.129567 159.477457 
L 124.279197 159.477457 
L 124.430298 128.931828 
L 125.03446 128.931828 
L 125.185033 159.477457 
L 125.335267 169.18069 
L 127.146201 169.18069 
L 127.295952 179.423994 
L 128.804321 179.423994 
L 128.962232 188.749525 
L 129.106719 188.749525 
L 129.256794 158.983039 
L 129.558536 158.983039 
L 129.712465 149.407938 
L 129.860187 149.407938 
L 130.012043 158.983039 
L 130.915631 158.983039 
L 131.217992 188.749525 
L 131.519266 188.749525 
L 131.616415 158.983039 
L 132.424514 158.983039 
L 132.576882 188.749525 
L 132.72575 197.900603 
L 133.781496 197.900603 
L 133.933238 225.488604 
L 134.384799 225.488604 
L 134.536035 197.900603 
L 135.010507 197.900603 
L 135.216291 188.749525 
L 135.290122 188.749525 
L 135.441819 197.900603 
L 135.592151 188.749525 
L 135.74249 225.488604 
L 136.194888 225.488604 
L 136.345347 262.408313 
L 136.647881 262.408313 
L 136.798288 292.202545 
L 137.854004 292.202545 
L 138.005489 283.314365 
L 138.308181 283.314365 
L 138.459207 292.202545 
L 138.607872 283.314365 
L 139.664176 283.314365 
L 139.815578 274.89609 
L 139.966702 274.89609 
L 140.116815 244.563321 
L 140.419047 244.563321 
L 140.569326 207.482147 
L 140.719997 207.482147 
L 140.87066 216.570911 
L 141.325712 216.570911 
L 141.474174 207.482147 
L 141.625079 235.716109 
L 141.775591 207.482147 
L 141.926881 244.563321 
L 142.078638 235.716109 
L 142.22817 244.563321 
L 142.831805 244.563321 
L 142.982498 235.716109 
L 143.7366 235.716109 
L 143.887203 225.995782 
L 145.094435 225.995782 
L 145.245468 188.038372 
L 145.54828 188.038372 
L 145.697315 149.584415 
L 145.848016 149.584415 
L 145.999358 159.477457 
L 146.150075 159.477457 
L 146.301311 128.931828 
L 146.451643 118.778294 
L 146.602095 118.778294 
L 146.753588 90.378963 
L 147.658784 90.378963 
L 147.808889 100.768736 
L 148.110767 100.768736 
L 148.261981 110.961954 
L 148.412516 83.223193 
L 149.619144 83.223193 
L 149.769822 94.228769 
L 151.128351 94.228769 
L 151.278041 104.252291 
L 151.730643 104.252291 
L 151.881578 94.228769 
L 152.032467 104.252291 
L 152.183282 104.252291 
L 152.333448 94.228769 
L 152.710612 131.527254 
L 152.93807 131.527254 
L 153.089058 158.983039 
L 153.238575 158.983039 
L 153.389216 141.148079 
L 153.541003 168.380231 
L 154.898008 168.380231 
L 155.050361 158.983039 
L 155.200089 168.380231 
L 156.255329 168.380231 
L 156.406385 197.900603 
L 156.556996 168.380231 
L 157.311437 168.380231 
L 157.461882 141.148079 
L 157.763699 141.148079 
L 157.915494 168.380231 
L 158.97053 168.380231 
L 159.121028 178.306809 
L 160.177656 178.306809 
L 160.327603 207.565943 
L 160.780453 207.565943 
L 160.931185 187.349596 
L 161.836644 187.349596 
L 161.989336 178.306809 
L 163.193513 178.306809 
L 163.570949 216.369633 
L 163.796974 216.369633 
L 163.94711 243.48348 
L 164.249213 243.48348 
L 164.401551 234.906325 
L 164.551317 243.48348 
L 164.70189 234.906325 
L 165.908563 234.906325 
L 166.059174 225.488604 
L 166.210381 234.906325 
L 167.41734 234.906325 
L 167.569173 207.565943 
L 167.71872 197.900603 
L 168.171276 197.900603 
L 168.321849 168.380231 
L 169.076404 168.380231 
L 169.230664 197.900603 
L 169.529427 197.900603 
L 169.905279 234.906325 
L 170.132323 234.906325 
L 170.282511 225.488604 
L 170.434155 225.488604 
L 170.583748 234.906325 
L 170.886711 234.906325 
L 171.036786 225.488604 
L 171.187427 225.488604 
L 171.337948 234.906325 
L 172.094146 234.906325 
L 172.24309 207.565943 
L 172.997652 207.565943 
L 173.14861 178.306809 
L 173.602342 178.306809 
L 173.754265 151.312143 
L 174.65707 151.312143 
L 174.808932 160.572383 
L 175.260614 160.572383 
L 175.410794 169.666005 
L 177.070808 169.666005 
L 177.220898 143.265722 
L 177.522489 143.265722 
L 177.673115 153.100575 
L 180.237479 153.100575 
L 180.387796 162.066028 
L 180.690239 162.066028 
L 180.840443 188.038351 
L 180.991121 162.066028 
L 181.142298 188.038351 
L 183.25363 188.038351 
L 183.404762 162.066028 
L 183.857212 162.066028 
L 184.008042 153.100575 
L 184.460379 153.100575 
L 184.613026 125.089833 
L 185.365929 125.089833 
L 185.516524 153.100575 
L 185.66807 153.100575 
L 185.818342 162.066028 
L 186.121471 162.066028 
L 186.27178 153.100575 
L 186.42178 162.066028 
L 186.873529 162.066028 
L 187.024705 153.100575 
L 187.32647 153.100575 
L 187.477171 162.066028 
L 187.930142 162.066028 
L 188.081914 153.100575 
L 188.231062 153.100575 
L 188.383467 162.066028 
L 188.53447 153.100575 
L 189.437878 153.100575 
L 189.590005 143.265722 
L 189.74226 143.265722 
L 189.967305 115.019476 
L 190.193111 115.019476 
L 190.343119 88.96505 
L 190.493662 88.96505 
L 190.64437 79.238364 
L 190.946135 79.238364 
L 191.096874 105.494023 
L 191.248141 105.494023 
L 191.398427 115.019476 
L 193.359262 115.019476 
L 193.510258 125.089833 
L 194.415083 125.089833 
L 194.566576 115.019476 
L 196.677577 115.019476 
L 196.828648 143.265722 
L 196.979138 115.019476 
L 197.130005 143.265722 
L 198.336633 143.265722 
L 198.488066 133.961852 
L 198.638368 133.961852 
L 198.790411 143.265722 
L 198.943609 115.019476 
L 199.092455 143.265722 
L 199.242809 143.265722 
L 199.392764 115.019476 
L 200.750379 115.019476 
L 200.901194 88.96505 
L 202.25899 88.96505 
L 202.409141 115.019476 
L 202.861863 115.019476 
L 203.012187 143.265722 
L 204.520866 143.265722 
L 204.671575 169.666005 
L 205.87812 169.666005 
L 206.029862 196.228679 
L 206.406075 160.572383 
L 206.934996 160.572383 
L 207.084393 187.349596 
L 208.141639 187.349596 
L 208.291375 216.369633 
L 208.44268 225.012921 
L 208.593034 225.012921 
L 208.743901 216.369633 
L 209.121458 251.903451 
L 209.49826 251.903451 
L 209.64964 243.48348 
L 209.805175 243.48348 
L 210.102867 278.947139 
L 210.252135 270.754637 
L 210.40402 278.947139 
L 211.45905 278.947139 
L 211.610037 251.903451 
L 211.760746 243.48348 
L 213.570873 243.48348 
L 213.721363 234.906325 
L 214.022909 234.906325 
L 214.174236 207.565943 
L 214.780381 207.565943 
L 214.928534 197.900603 
L 215.383639 197.900603 
L 215.531791 168.380231 
L 217.191322 168.380231 
L 217.340998 158.983039 
L 218.699149 158.983039 
L 218.850295 197.900603 
L 219.45733 197.900603 
L 219.605045 188.749525 
L 221.266326 188.749525 
L 221.416197 179.423994 
L 222.325797 179.423994 
L 222.469477 149.407938 
L 223.072576 149.407938 
L 223.225396 110.961954 
L 223.830909 110.961954 
L 223.979295 121.72548 
L 224.581888 121.72548 
L 224.958592 158.983039 
L 225.184512 158.983039 
L 225.335055 131.527254 
L 225.486375 131.527254 
L 225.637777 141.148079 
L 226.240974 141.148079 
L 226.39068 151.312143 
L 228.050716 151.312143 
L 228.201191 124.488596 
L 228.352089 124.488596 
L 228.502933 114.091994 
L 228.955142 114.091994 
L 229.107819 85.154912 
L 229.257261 114.091994 
L 229.860918 114.091994 
L 230.011401 141.148079 
L 230.161702 141.148079 
L 230.312026 151.312143 
L 230.765035 151.312143 
L 230.917071 141.148079 
L 231.067878 178.306809 
L 231.972711 178.306809 
L 232.122379 187.349596 
L 232.876602 187.349596 
L 233.02762 216.369633 
L 233.630756 216.369633 
L 233.781322 187.349596 
L 234.083207 187.349596 
L 234.234315 160.572383 
L 235.14218 160.572383 
L 235.516411 196.228679 
L 236.94926 196.228679 
L 237.100406 205.612349 
L 237.250331 169.666005 
L 237.401507 169.666005 
L 237.552465 179.277499 
L 237.704214 169.666005 
L 238.155639 169.666005 
L 238.306175 179.277499 
L 238.457449 179.277499 
L 238.609206 169.666005 
L 238.760488 179.277499 
L 238.910126 169.666005 
L 239.061174 179.277499 
L 239.437999 143.265722 
L 239.664265 143.265722 
L 239.815215 115.019476 
L 240.569362 115.019476 
L 240.720177 143.265722 
L 240.87161 143.265722 
L 241.021723 133.961852 
L 241.172152 133.961852 
L 241.3244 143.265722 
L 241.474648 133.961852 
L 242.680869 133.961852 
L 242.831645 124.488596 
L 243.435951 124.488596 
L 243.586019 151.312143 
L 243.736139 141.148079 
L 244.641832 141.148079 
L 244.792292 104.252291 
L 245.093868 104.252291 
L 245.245007 94.228769 
L 245.395444 94.228769 
L 245.545964 64.828066 
L 245.847842 64.828066 
L 245.998558 94.228769 
L 246.453776 94.228769 
L 246.603558 121.72548 
L 248.110864 121.72548 
L 248.260871 149.407938 
L 248.41293 121.72548 
L 248.562915 121.72548 
L 248.713872 110.961954 
L 248.86428 138.891953 
L 249.167673 138.891953 
L 249.316851 110.961954 
L 249.468321 138.891953 
L 250.523705 138.891953 
L 250.675583 110.961954 
L 251.428991 110.961954 
L 251.579843 138.891953 
L 253.23831 138.891953 
L 253.389773 149.407938 
L 253.692216 149.407938 
L 253.841568 179.423994 
L 255.200322 179.423994 
L 255.350224 149.407938 
L 255.502215 179.423994 
L 255.651928 179.423994 
L 255.803014 149.407938 
L 256.407252 149.407938 
L 256.55738 110.961954 
L 256.708073 138.891953 
L 257.010826 138.891953 
L 257.160222 149.407938 
L 257.31357 138.891953 
L 257.914037 138.891953 
L 258.065915 149.407938 
L 258.671375 149.407938 
L 258.819957 179.423994 
L 258.970085 179.423994 
L 259.120869 149.407938 
L 259.423086 149.407938 
L 259.573402 138.891953 
L 259.726773 149.407938 
L 259.876343 138.891953 
L 260.026532 149.407938 
L 260.176456 138.891953 
L 260.781275 138.891953 
L 260.931056 149.407938 
L 261.534298 149.407938 
L 261.685045 138.891953 
L 261.836809 149.407938 
L 261.986636 138.891953 
L 262.137593 149.407938 
L 262.439425 149.407938 
L 262.589999 138.891953 
L 262.741688 138.891953 
L 262.89205 149.407938 
L 263.496121 149.407938 
L 263.646121 179.423994 
L 264.249258 179.423994 
L 264.39974 188.749525 
L 266.964814 188.749525 
L 267.114813 158.983039 
L 267.265628 158.983039 
L 267.42068 149.407938 
L 268.322829 149.407938 
L 268.472655 179.423994 
L 272.544876 179.423994 
L 272.699567 149.407938 
L 272.846482 138.891953 
L 273.300147 138.891953 
L 273.450939 149.407938 
L 273.752884 149.407938 
L 273.902296 179.423994 
L 274.807484 179.423994 
L 274.958336 188.749525 
L 275.562023 188.749525 
L 275.863131 149.407938 
L 276.01476 158.983039 
L 277.823476 158.983039 
L 277.97457 149.407938 
L 278.126063 149.407938 
L 278.276244 121.72548 
L 278.728717 121.72548 
L 278.880104 94.228769 
L 279.0307 94.228769 
L 279.182427 121.72548 
L 279.332178 131.527254 
L 279.483437 131.527254 
L 279.633693 121.72548 
L 279.937072 121.72548 
L 280.086197 131.527254 
L 280.99103 131.527254 
L 281.142516 121.72548 
L 281.594649 121.72548 
L 281.745645 94.228769 
L 283.706088 94.228769 
L 283.859549 64.828066 
L 284.007822 53.568 
L 284.159187 53.568 
L 284.309986 64.828066 
L 284.611494 64.828066 
L 284.76218 94.228769 
L 285.063545 94.228769 
L 285.442368 131.527254 
L 288.685118 131.527254 
L 288.834635 121.72548 
L 288.984816 121.72548 
L 289.137501 94.228769 
L 289.588503 94.228769 
L 289.740162 83.223193 
L 290.192349 83.223193 
L 290.345524 94.228769 
L 290.494581 94.228769 
L 290.644174 121.72548 
L 291.399422 121.72548 
L 291.561993 110.961954 
L 291.701156 121.72548 
L 292.002129 121.72548 
L 292.153184 110.961954 
L 292.30384 110.961954 
L 292.455077 121.72548 
L 292.605522 110.961954 
L 292.757347 110.961954 
L 292.906803 138.891953 
L 293.05764 149.407938 
L 293.510325 149.407938 
L 293.660762 138.891953 
L 294.114359 138.891953 
L 294.264442 110.961954 
L 294.867405 110.961954 
L 295.018694 83.223193 
L 295.621748 83.223193 
L 295.772449 110.961954 
L 296.526559 110.961954 
L 296.67812 121.72548 
L 298.78897 121.72548 
L 298.940078 149.407938 
L 299.845409 149.407938 
L 299.995892 121.72548 
L 300.297136 121.72548 
L 300.67602 83.223193 
L 301.051298 83.223193 
L 301.202444 110.961954 
L 301.354413 110.961954 
L 301.504578 121.72548 
L 301.655355 121.72548 
L 301.808477 149.407938 
L 303.012518 149.407938 
L 303.163054 138.891953 
L 304.822336 138.891953 
L 304.973572 159.477457 
L 305.123964 169.18069 
L 305.274967 159.477457 
L 305.72741 159.477457 
L 305.878307 128.931828 
L 306.032885 128.931828 
L 306.180901 118.778294 
L 306.332447 118.778294 
L 306.484219 149.584415 
L 306.934988 149.584415 
L 307.085343 178.392816 
L 308.744157 178.392816 
L 308.905341 149.584415 
L 309.196396 149.584415 
L 309.346992 178.392816 
L 309.497972 178.392816 
L 309.648975 149.584415 
L 310.705603 149.584415 
L 310.855377 128.931828 
L 311.006696 118.778294 
L 311.157171 118.778294 
L 311.307963 128.931828 
L 311.459773 118.778294 
L 311.613106 128.931828 
L 312.06251 128.931828 
L 312.439176 169.18069 
L 312.817743 169.18069 
L 312.967675 207.482147 
L 315.681851 207.482147 
L 315.83323 197.497658 
L 315.985282 207.482147 
L 316.285477 207.482147 
L 316.438961 169.18069 
L 316.888825 169.18069 
L 317.03967 138.891953 
L 317.190431 169.18069 
L 317.794518 169.18069 
L 317.945612 197.497658 
L 318.095476 207.482147 
L 319.001048 207.482147 
L 319.151327 216.570911 
L 319.303831 207.482147 
L 319.452714 207.482147 
L 319.604072 235.716109 
L 319.755836 207.482147 
L 319.90518 235.716109 
L 320.057156 244.563321 
L 320.508656 244.563321 
L 320.659659 235.716109 
L 321.564515 235.716109 
L 321.717954 207.482147 
L 321.868934 207.482147 
L 322.244235 169.18069 
L 323.525637 169.18069 
L 323.678759 197.497658 
L 323.828276 197.497658 
L 323.977673 207.482147 
L 324.279656 207.482147 
L 324.430613 197.497658 
L 324.581058 197.497658 
L 324.732182 169.18069 
L 325.109957 207.482147 
L 325.336382 207.482147 
L 325.486879 169.18069 
L 325.787822 207.482147 
L 325.938847 169.18069 
L 326.090061 169.18069 
L 326.241343 197.497658 
L 326.391924 197.497658 
L 326.541486 207.482147 
L 327.295482 207.482147 
L 327.447307 169.18069 
L 327.748446 169.18069 
L 327.898747 138.891953 
L 328.657201 138.891953 
L 328.804063 169.18069 
L 332.726179 169.18069 
L 332.877762 138.891953 
L 333.330673 138.891953 
L 333.479843 100.768736 
L 334.537143 100.768736 
L 334.688274 138.891953 
L 336.949667 138.891953 
L 337.100949 149.407938 
L 338.307509 149.407938 
L 338.457071 138.891953 
L 338.608293 149.407938 
L 338.759273 121.72548 
L 338.909869 110.961954 
L 339.060683 110.961954 
L 339.212681 83.223193 
L 340.420727 83.223193 
L 340.569083 110.961954 
L 342.68034 110.961954 
L 342.831381 121.72548 
L 344.038446 121.72548 
L 344.189102 94.228769 
L 344.490437 94.228769 
L 344.641907 83.223193 
L 345.093845 83.223193 
L 345.244659 94.228769 
L 345.546333 94.228769 
L 345.699885 121.72548 
L 347.054658 121.72548 
L 347.20658 110.961954 
L 347.355985 149.407938 
L 347.508088 138.891953 
L 348.563193 138.891953 
L 348.714664 128.931828 
L 349.618728 128.931828 
L 349.769813 118.778294 
L 350.073026 118.778294 
L 350.222219 90.378963 
L 350.37295 118.778294 
L 350.523855 90.378963 
L 350.67439 118.778294 
L 351.277617 118.778294 
L 351.431705 149.584415 
L 351.579578 138.71184 
L 351.730498 149.584415 
L 351.880724 118.778294 
L 352.033288 118.778294 
L 352.183039 149.584415 
L 352.334321 118.778294 
L 352.484253 118.778294 
L 352.634992 128.931828 
L 353.3907 128.931828 
L 353.540436 159.477457 
L 353.691499 128.931828 
L 353.9926 128.931828 
L 354.143203 159.477457 
L 354.294666 159.477457 
L 354.446182 169.18069 
L 354.747343 169.18069 
L 354.897222 138.891953 
L 355.351196 138.891953 
L 355.500939 110.961954 
L 355.652025 138.891953 
L 356.104725 138.891953 
L 356.255102 149.407938 
L 356.405863 138.891953 
L 356.557794 169.18069 
L 356.707741 169.18069 
L 356.860176 179.423994 
L 357.162763 179.423994 
L 357.311948 207.482147 
L 358.821887 207.482147 
L 358.971193 179.423994 
L 359.57399 179.423994 
L 359.724088 188.749525 
L 360.328024 188.749525 
L 360.478408 149.407938 
L 360.781131 149.407938 
L 360.931839 121.72548 
L 361.23248 121.72548 
L 361.383641 94.228769 
L 361.535429 94.228769 
L 361.685451 121.72548 
L 363.646317 121.72548 
L 363.796377 110.961954 
L 363.947855 110.961954 
L 364.098307 83.223193 
L 364.25026 110.961954 
L 364.400162 83.223193 
L 364.551316 110.961954 
L 364.701685 110.961954 
L 364.852922 83.223193 
L 365.154475 83.223193 
L 365.305538 110.961954 
L 365.456104 83.223193 
L 365.606797 110.961954 
L 365.758735 83.223193 
L 367.270016 83.223193 
L 367.567278 121.72548 
L 367.869216 121.72548 
L 368.0204 131.527254 
L 368.170558 121.72548 
L 368.321365 121.72548 
L 368.472768 131.527254 
L 371.639529 131.527254 
L 371.791053 104.252291 
L 371.944016 104.252291 
L 372.092576 75.084854 
L 372.54609 75.084854 
L 372.696233 85.154912 
L 372.84655 85.154912 
L 373.299392 133.961852 
L 373.75176 133.961852 
L 373.902921 143.265722 
L 374.204045 143.265722 
L 374.355673 153.100575 
L 374.659346 153.100575 
L 374.807166 162.066028 
L 375.109549 162.066028 
L 375.260386 170.874876 
L 375.712459 170.874876 
L 375.864767 134.271104 
L 376.015453 134.271104 
L 376.164676 143.293046 
L 376.315287 134.271104 
L 376.46672 170.874876 
L 376.617474 143.293046 
L 377.371696 143.293046 
L 377.523453 134.271104 
L 377.673302 143.293046 
L 377.824878 134.271104 
L 377.974675 134.271104 
L 378.125708 143.293046 
L 378.427359 143.293046 
L 378.578867 170.874876 
L 379.332524 170.874876 
L 379.482501 196.645262 
L 379.633866 162.066028 
L 379.784877 162.066028 
L 380.089017 188.038351 
L 380.238413 188.038351 
L 380.388202 196.645262 
L 380.538956 188.038351 
L 380.690909 188.038351 
L 380.845155 196.645262 
L 380.991535 188.038351 
L 381.443668 188.038351 
L 381.594264 214.164594 
L 382.952468 214.164594 
L 383.102913 179.277499 
L 383.253742 214.164594 
L 383.706291 214.164594 
L 383.857279 242.469456 
L 384.463221 242.469456 
L 384.61227 268.906239 
L 384.762896 276.867667 
L 384.912964 268.906239 
L 385.215377 268.906239 
L 385.364992 276.867667 
L 385.666824 276.867667 
L 385.818242 268.906239 
L 385.968845 295.488 
L 386.120233 268.906239 
L 386.27104 268.906239 
L 386.421349 260.799878 
L 386.571854 295.488 
L 386.722789 268.906239 
L 386.873807 260.799878 
L 387.627524 260.799878 
L 387.779221 251.903451 
L 387.929273 251.903451 
L 388.080502 225.012921 
L 388.231249 225.012921 
L 388.608798 187.349596 
L 389.588812 187.349596 
L 389.739498 196.228679 
L 391.400175 196.228679 
L 391.549443 205.612349 
L 392.756275 205.612349 
L 392.908341 214.164594 
L 393.510037 214.164594 
L 393.660354 188.038351 
L 394.038989 153.100575 
L 394.565979 153.100575 
L 394.716726 162.066028 
L 395.32036 162.066028 
L 395.471046 170.874876 
L 395.623354 170.874876 
L 395.772622 162.066028 
L 395.923859 162.066028 
L 396.074492 170.874876 
L 396.376008 170.874876 
L 396.526807 134.271104 
L 397.132998 134.271104 
L 397.280916 143.293046 
L 397.582703 143.293046 
L 397.733827 117.842544 
L 397.883827 143.293046 
L 398.035101 117.842544 
L 398.487273 117.842544 
L 398.487273 117.842544 
" clip-path="url(#p7d458437f2)" style="fill: none; stroke: #1f77b4; stroke-width: 1.5; stroke-linecap: square"/>
   </g>
   <g id="patch_3">
    <path d="M 57.6 307.584 
L 57.6 41.472 
" style="fill: none; stroke: #000000; stroke-width: 0.8; stroke-linejoin: miter; stroke-linecap: square"/>
   </g>
   <g id="patch_4">
    <path d="M 414.72 307.584 
L 414.72 41.472 
" style="fill: none; stroke: #000000; stroke-width: 0.8; stroke-linejoin: miter; stroke-linecap: square"/>
   </g>
   <g id="patch_5">
    <path d="M 57.6 307.584 
L 414.72 307.584 
" style="fill: none; stroke: #000000; stroke-width: 0.8; stroke-linejoin: miter; stroke-linecap: square"/>
   </g>
   <g id="patch_6">
    <path d="M 57.6 41.472 
L 414.72 41.472 
" style="fill: none; stroke: #000000; stroke-width: 0.8; stroke-linejoin: miter; stroke-linecap: square"/>
   </g>
   <g id="text_13">
    <!-- Oskar-Nidarosdomen-vinkel -->
    <g transform="translate(153.78375 35.472) scale(0.12 -0.12)">
     <defs>
      <path id="DejaVuSans-4f" d="M 2522 4238 
Q 1834 4238 1429 3725 
Q 1025 3213 1025 2328 
Q 1025 1447 1429 934 
Q 1834 422 2522 422 
Q 3209 422 3611 934 
Q 4013 1447 4013 2328 
Q 4013 3213 3611 3725 
Q 3209 4238 2522 4238 
z
M 2522 4750 
Q 3503 4750 4090 4092 
Q 4678 3434 4678 2328 
Q 4678 1225 4090 567 
Q 3503 -91 2522 -91 
Q 1538 -91 948 565 
Q 359 1222 359 2328 
Q 359 3434 948 4092 
Q 1538 4750 2522 4750 
z
" transform="scale(0.015625)"/>
      <path id="DejaVuSans-6b" d="M 581 4863 
L 1159 4863 
L 1159 1991 
L 2875 3500 
L 3609 3500 
L 1753 1863 
L 3688 0 
L 2938 0 
L 1159 1709 
L 1159 0 
L 581 0 
L 581 4863 
z
" transform="scale(0.015625)"/>
      <path id="DejaVuSans-61" d="M 2194 1759 
Q 1497 1759 1228 1600 
Q 959 1441 959 1056 
Q 959 750 1161 570 
Q 1363 391 1709 391 
Q 2188 391 2477 730 
Q 2766 1069 2766 1631 
L 2766 1759 
L 2194 1759 
z
M 3341 1997 
L 3341 0 
L 2766 0 
L 2766 531 
Q 2569 213 2275 61 
Q 1981 -91 1556 -91 
Q 1019 -91 701 211 
Q 384 513 384 1019 
Q 384 1609 779 1909 
Q 1175 2209 1959 2209 
L 2766 2209 
L 2766 2266 
Q 2766 2663 2505 2880 
Q 2244 3097 1772 3097 
Q 1472 3097 1187 3025 
Q 903 2953 641 2809 
L 641 3341 
Q 956 3463 1253 3523 
Q 1550 3584 1831 3584 
Q 2591 3584 2966 3190 
Q 3341 2797 3341 1997 
z
" transform="scale(0.015625)"/>
      <path id="DejaVuSans-72" d="M 2631 2963 
Q 2534 3019 2420 3045 
Q 2306 3072 2169 3072 
Q 1681 3072 1420 2755 
Q 1159 2438 1159 1844 
L 1159 0 
L 581 0 
L 581 3500 
L 1159 3500 
L 1159 2956 
Q 1341 3275 1631 3429 
Q 1922 3584 2338 3584 
Q 2397 3584 2469 3576 
Q 2541 3569 2628 3553 
L 2631 2963 
z
" transform="scale(0.015625)"/>
      <path id="DejaVuSans-2d" d="M 313 2009 
L 1997 2009 
L 1997 1497 
L 313 1497 
L 313 2009 
z
" transform="scale(0.015625)"/>
      <path id="DejaVuSans-4e" d="M 628 4666 
L 1478 4666 
L 3547 763 
L 3547 4666 
L 4159 4666 
L 4159 0 
L 3309 0 
L 1241 3903 
L 1241 0 
L 628 0 
L 628 4666 
z
" transform="scale(0.015625)"/>
      <path id="DejaVuSans-6f" d="M 1959 3097 
Q 1497 3097 1228 2736 
Q 959 2375 959 1747 
Q 959 1119 1226 758 
Q 1494 397 1959 397 
Q 2419 397 2687 759 
Q 2956 1122 2956 1747 
Q 2956 2369 2687 2733 
Q 2419 3097 1959 3097 
z
M 1959 3584 
Q 2709 3584 3137 3096 
Q 3566 2609 3566 1747 
Q 3566 888 3137 398 
Q 2709 -91 1959 -91 
Q 1206 -91 779 398 
Q 353 888 353 1747 
Q 353 2609 779 3096 
Q 1206 3584 1959 3584 
z
" transform="scale(0.015625)"/>
      <path id="DejaVuSans-6e" d="M 3513 2113 
L 3513 0 
L 2938 0 
L 2938 2094 
Q 2938 2591 2744 2837 
Q 2550 3084 2163 3084 
Q 1697 3084 1428 2787 
Q 1159 2491 1159 1978 
L 1159 0 
L 581 0 
L 581 3500 
L 1159 3500 
L 1159 2956 
Q 1366 3272 1645 3428 
Q 1925 3584 2291 3584 
Q 2894 3584 3203 3211 
Q 3513 2838 3513 2113 
z
" transform="scale(0.015625)"/>
      <path id="DejaVuSans-76" d="M 191 3500 
L 800 3500 
L 1894 563 
L 2988 3500 
L 3597 3500 
L 2284 0 
L 1503 0 
L 191 3500 
z
" transform="scale(0.015625)"/>
      <path id="DejaVuSans-6c" d="M 603 4863 
L 1178 4863 
L 1178 0 
L 603 0 
L 603 4863 
z
" transform="scale(0.015625)"/>
     </defs>
     <use xlink:href="#DejaVuSans-4f"/>
     <use xlink:href="#DejaVuSans-73" x="78.710938"/>
     <use xlink:href="#DejaVuSans-6b" x="130.810547"/>
     <use xlink:href="#DejaVuSans-61" x="186.970703"/>
     <use xlink:href="#DejaVuSans-72" x="248.25"/>
     <use xlink:href="#DejaVuSans-2d" x="282.988281"/>
     <use xlink:href="#DejaVuSans-4e" x="319.072266"/>
     <use xlink:href="#DejaVuSans-69" x="393.876953"/>
     <use xlink:href="#DejaVuSans-64" x="421.660156"/>
     <use xlink:href="#DejaVuSans-61" x="485.136719"/>
     <use xlink:href="#DejaVuSans-72" x="546.416016"/>
     <use xlink:href="#DejaVuSans-6f" x="585.279297"/>
     <use xlink:href="#DejaVuSans-73" x="646.460938"/>
     <use xlink:href="#DejaVuSans-64" x="698.560547"/>
     <use xlink:href="#DejaVuSans-6f" x="762.037109"/>
     <use xlink:href="#DejaVuSans-6d" x="823.21875"/>
     <use xlink:href="#DejaVuSans-65" x="920.630859"/>
     <use xlink:href="#DejaVuSans-6e" x="982.154297"/>
     <use xlink:href="#DejaVuSans-2d" x="1045.533203"/>
     <use xlink:href="#DejaVuSans-76" x="1078.992188"/>
     <use xlink:href="#DejaVuSans-69" x="1138.171875"/>
     <use xlink:href="#DejaVuSans-6e" x="1165.955078"/>
     <use xlink:href="#DejaVuSans-6b" x="1229.333984"/>
     <use xlink:href="#DejaVuSans-65" x="1283.619141"/>
     <use xlink:href="#DejaVuSans-6c" x="1345.142578"/>
    </g>
   </g>
   <g id="legend_1">
    <g id="patch_7">
     <path d="M 64.6 64.150125 
L 233.89375 64.150125 
Q 235.89375 64.150125 235.89375 62.150125 
L 235.89375 48.472 
Q 235.89375 46.472 233.89375 46.472 
L 64.6 46.472 
Q 62.6 46.472 62.6 48.472 
L 62.6 62.150125 
Q 62.6 64.150125 64.6 64.150125 
z
" style="fill: #ffffff; opacity: 0.8; stroke: #cccccc; stroke-linejoin: miter"/>
    </g>
    <g id="line2d_12">
     <path d="M 66.6 54.570438 
L 76.6 54.570438 
L 86.6 54.570438 
" style="fill: none; stroke: #1f77b4; stroke-width: 1.5; stroke-linecap: square"/>
    </g>
    <g id="text_14">
     <!-- Oskar-Nidarosdomen-vinkel -->
     <g transform="translate(94.6 58.070438) scale(0.1 -0.1)">
      <use xlink:href="#DejaVuSans-4f"/>
      <use xlink:href="#DejaVuSans-73" x="78.710938"/>
      <use xlink:href="#DejaVuSans-6b" x="130.810547"/>
      <use xlink:href="#DejaVuSans-61" x="186.970703"/>
      <use xlink:href="#DejaVuSans-72" x="248.25"/>
      <use xlink:href="#DejaVuSans-2d" x="282.988281"/>
      <use xlink:href="#DejaVuSans-4e" x="319.072266"/>
      <use xlink:href="#DejaVuSans-69" x="393.876953"/>
      <use xlink:href="#DejaVuSans-64" x="421.660156"/>
      <use xlink:href="#DejaVuSans-61" x="485.136719"/>
      <use xlink:href="#DejaVuSans-72" x="546.416016"/>
      <use xlink:href="#DejaVuSans-6f" x="585.279297"/>
      <use xlink:href="#DejaVuSans-73" x="646.460938"/>
      <use xlink:href="#DejaVuSans-64" x="698.560547"/>
      <use xlink:href="#DejaVuSans-6f" x="762.037109"/>
      <use xlink:href="#DejaVuSans-6d" x="823.21875"/>
      <use xlink:href="#DejaVuSans-65" x="920.630859"/>
      <use xlink:href="#DejaVuSans-6e" x="982.154297"/>
      <use xlink:href="#DejaVuSans-2d" x="1045.533203"/>
      <use xlink:href="#DejaVuSans-76" x="1078.992188"/>
      <use xlink:href="#DejaVuSans-69" x="1138.171875"/>
      <use xlink:href="#DejaVuSans-6e" x="1165.955078"/>
      <use xlink:href="#DejaVuSans-6b" x="1229.333984"/>
      <use xlink:href="#DejaVuSans-65" x="1283.619141"/>
      <use xlink:href="#DejaVuSans-6c" x="1345.142578"/>
     </g>
    </g>
   </g>
  </g>
 </g>
 <defs>
  <clipPath id="p7d458437f2">
   <rect x="57.6" y="41.472" width="357.12" height="266.112"/>
  </clipPath>
 </defs>
</svg>
