<?xml version="1.0" encoding="utf-8" standalone="no"?>
<!DOCTYPE svg PUBLIC "-//W3C//DTD SVG 1.1//EN"
  "http://www.w3.org/Graphics/SVG/1.1/DTD/svg11.dtd">
<svg xmlns:xlink="http://www.w3.org/1999/xlink" width="613.6875pt" height="458.691562pt" viewBox="0 0 613.6875 458.691562" xmlns="http://www.w3.org/2000/svg" version="1.1">
 <metadata>
  <rdf:RDF xmlns:dc="http://purl.org/dc/elements/1.1/" xmlns:cc="http://creativecommons.org/ns#" xmlns:rdf="http://www.w3.org/1999/02/22-rdf-syntax-ns#">
   <cc:Work>
    <dc:type rdf:resource="http://purl.org/dc/dcmitype/StillImage"/>
    <dc:date>2023-04-10T14:16:10.021101</dc:date>
    <dc:format>image/svg+xml</dc:format>
    <dc:creator>
     <cc:Agent>
      <dc:title>Matplotlib v3.7.1, https://matplotlib.org/</dc:title>
     </cc:Agent>
    </dc:creator>
   </cc:Work>
  </rdf:RDF>
 </metadata>
 <defs>
  <style type="text/css">*{stroke-linejoin: round; stroke-linecap: butt}</style>
 </defs>
 <g id="figure_1">
  <g id="patch_1">
   <path d="M 0 458.691562 
L 613.6875 458.691562 
L 613.6875 0 
L 0 0 
L 0 458.691562 
z
" style="fill: none"/>
  </g>
  <g id="axes_1">
   <g id="patch_2">
    <path d="M 48.4875 414.957187 
L 606.4875 414.957187 
L 606.4875 26.877187 
L 48.4875 26.877187 
L 48.4875 414.957187 
z
" style="fill: none"/>
   </g>
   <g id="matplotlib.axis_1">
    <g id="xtick_1">
     <g id="line2d_1">
      <path d="M 56.16915 414.957187 
L 56.16915 26.877187 
" clip-path="url(#p364ec1d13c)" style="fill: none; stroke: #808080; stroke-width: 0.8; stroke-linecap: square"/>
     </g>
     <g id="line2d_2">
      <defs>
       <path id="m0ea0a48d63" d="M 0 0 
L 0 -5 
" style="stroke: #808080; stroke-width: 0.8"/>
      </defs>
      <g>
       <use xlink:href="#m0ea0a48d63" x="56.16915" y="414.957187" style="fill: #808080; stroke: #808080; stroke-width: 0.8"/>
      </g>
     </g>
     <g id="text_1">
      <!-- 70 -->
      <g style="fill: #808080" transform="translate(46.6254 429.854844) scale(0.15 -0.15)">
       <defs>
        <path id="DejaVuSans-37" d="M 525 4666 
L 3525 4666 
L 3525 4397 
L 1831 0 
L 1172 0 
L 2766 4134 
L 525 4134 
L 525 4666 
z
" transform="scale(0.015625)"/>
        <path id="DejaVuSans-30" d="M 2034 4250 
Q 1547 4250 1301 3770 
Q 1056 3291 1056 2328 
Q 1056 1369 1301 889 
Q 1547 409 2034 409 
Q 2525 409 2770 889 
Q 3016 1369 3016 2328 
Q 3016 3291 2770 3770 
Q 2525 4250 2034 4250 
z
M 2034 4750 
Q 2819 4750 3233 4129 
Q 3647 3509 3647 2328 
Q 3647 1150 3233 529 
Q 2819 -91 2034 -91 
Q 1250 -91 836 529 
Q 422 1150 422 2328 
Q 422 3509 836 4129 
Q 1250 4750 2034 4750 
z
" transform="scale(0.015625)"/>
       </defs>
       <use xlink:href="#DejaVuSans-37"/>
       <use xlink:href="#DejaVuSans-30" x="63.623047"/>
      </g>
     </g>
    </g>
    <g id="xtick_2">
     <g id="line2d_3">
      <path d="M 118.350178 414.957187 
L 118.350178 26.877187 
" clip-path="url(#p364ec1d13c)" style="fill: none; stroke: #808080; stroke-width: 0.8; stroke-linecap: square"/>
     </g>
     <g id="line2d_4">
      <g>
       <use xlink:href="#m0ea0a48d63" x="118.350178" y="414.957187" style="fill: #808080; stroke: #808080; stroke-width: 0.8"/>
      </g>
     </g>
     <g id="text_2">
      <!-- 75 -->
      <g style="fill: #808080" transform="translate(108.806428 429.854844) scale(0.15 -0.15)">
       <defs>
        <path id="DejaVuSans-35" d="M 691 4666 
L 3169 4666 
L 3169 4134 
L 1269 4134 
L 1269 2991 
Q 1406 3038 1543 3061 
Q 1681 3084 1819 3084 
Q 2600 3084 3056 2656 
Q 3513 2228 3513 1497 
Q 3513 744 3044 326 
Q 2575 -91 1722 -91 
Q 1428 -91 1123 -41 
Q 819 9 494 109 
L 494 744 
Q 775 591 1075 516 
Q 1375 441 1709 441 
Q 2250 441 2565 725 
Q 2881 1009 2881 1497 
Q 2881 1984 2565 2268 
Q 2250 2553 1709 2553 
Q 1456 2553 1204 2497 
Q 953 2441 691 2322 
L 691 4666 
z
" transform="scale(0.015625)"/>
       </defs>
       <use xlink:href="#DejaVuSans-37"/>
       <use xlink:href="#DejaVuSans-35" x="63.623047"/>
      </g>
     </g>
    </g>
    <g id="xtick_3">
     <g id="line2d_5">
      <path d="M 180.531206 414.957187 
L 180.531206 26.877187 
" clip-path="url(#p364ec1d13c)" style="fill: none; stroke: #808080; stroke-width: 0.8; stroke-linecap: square"/>
     </g>
     <g id="line2d_6">
      <g>
       <use xlink:href="#m0ea0a48d63" x="180.531206" y="414.957187" style="fill: #808080; stroke: #808080; stroke-width: 0.8"/>
      </g>
     </g>
     <g id="text_3">
      <!-- 80 -->
      <g style="fill: #808080" transform="translate(170.987456 429.854844) scale(0.15 -0.15)">
       <defs>
        <path id="DejaVuSans-38" d="M 2034 2216 
Q 1584 2216 1326 1975 
Q 1069 1734 1069 1313 
Q 1069 891 1326 650 
Q 1584 409 2034 409 
Q 2484 409 2743 651 
Q 3003 894 3003 1313 
Q 3003 1734 2745 1975 
Q 2488 2216 2034 2216 
z
M 1403 2484 
Q 997 2584 770 2862 
Q 544 3141 544 3541 
Q 544 4100 942 4425 
Q 1341 4750 2034 4750 
Q 2731 4750 3128 4425 
Q 3525 4100 3525 3541 
Q 3525 3141 3298 2862 
Q 3072 2584 2669 2484 
Q 3125 2378 3379 2068 
Q 3634 1759 3634 1313 
Q 3634 634 3220 271 
Q 2806 -91 2034 -91 
Q 1263 -91 848 271 
Q 434 634 434 1313 
Q 434 1759 690 2068 
Q 947 2378 1403 2484 
z
M 1172 3481 
Q 1172 3119 1398 2916 
Q 1625 2713 2034 2713 
Q 2441 2713 2670 2916 
Q 2900 3119 2900 3481 
Q 2900 3844 2670 4047 
Q 2441 4250 2034 4250 
Q 1625 4250 1398 4047 
Q 1172 3844 1172 3481 
z
" transform="scale(0.015625)"/>
       </defs>
       <use xlink:href="#DejaVuSans-38"/>
       <use xlink:href="#DejaVuSans-30" x="63.623047"/>
      </g>
     </g>
    </g>
    <g id="xtick_4">
     <g id="line2d_7">
      <path d="M 242.712234 414.957187 
L 242.712234 26.877187 
" clip-path="url(#p364ec1d13c)" style="fill: none; stroke: #808080; stroke-width: 0.8; stroke-linecap: square"/>
     </g>
     <g id="line2d_8">
      <g>
       <use xlink:href="#m0ea0a48d63" x="242.712234" y="414.957187" style="fill: #808080; stroke: #808080; stroke-width: 0.8"/>
      </g>
     </g>
     <g id="text_4">
      <!-- 85 -->
      <g style="fill: #808080" transform="translate(233.168484 429.854844) scale(0.15 -0.15)">
       <use xlink:href="#DejaVuSans-38"/>
       <use xlink:href="#DejaVuSans-35" x="63.623047"/>
      </g>
     </g>
    </g>
    <g id="xtick_5">
     <g id="line2d_9">
      <path d="M 304.893262 414.957187 
L 304.893262 26.877187 
" clip-path="url(#p364ec1d13c)" style="fill: none; stroke: #808080; stroke-width: 0.8; stroke-linecap: square"/>
     </g>
     <g id="line2d_10">
      <g>
       <use xlink:href="#m0ea0a48d63" x="304.893262" y="414.957187" style="fill: #808080; stroke: #808080; stroke-width: 0.8"/>
      </g>
     </g>
     <g id="text_5">
      <!-- 90 -->
      <g style="fill: #808080" transform="translate(295.349512 429.854844) scale(0.15 -0.15)">
       <defs>
        <path id="DejaVuSans-39" d="M 703 97 
L 703 672 
Q 941 559 1184 500 
Q 1428 441 1663 441 
Q 2288 441 2617 861 
Q 2947 1281 2994 2138 
Q 2813 1869 2534 1725 
Q 2256 1581 1919 1581 
Q 1219 1581 811 2004 
Q 403 2428 403 3163 
Q 403 3881 828 4315 
Q 1253 4750 1959 4750 
Q 2769 4750 3195 4129 
Q 3622 3509 3622 2328 
Q 3622 1225 3098 567 
Q 2575 -91 1691 -91 
Q 1453 -91 1209 -44 
Q 966 3 703 97 
z
M 1959 2075 
Q 2384 2075 2632 2365 
Q 2881 2656 2881 3163 
Q 2881 3666 2632 3958 
Q 2384 4250 1959 4250 
Q 1534 4250 1286 3958 
Q 1038 3666 1038 3163 
Q 1038 2656 1286 2365 
Q 1534 2075 1959 2075 
z
" transform="scale(0.015625)"/>
       </defs>
       <use xlink:href="#DejaVuSans-39"/>
       <use xlink:href="#DejaVuSans-30" x="63.623047"/>
      </g>
     </g>
    </g>
    <g id="xtick_6">
     <g id="line2d_11">
      <path d="M 367.07429 414.957187 
L 367.07429 26.877187 
" clip-path="url(#p364ec1d13c)" style="fill: none; stroke: #808080; stroke-width: 0.8; stroke-linecap: square"/>
     </g>
     <g id="line2d_12">
      <g>
       <use xlink:href="#m0ea0a48d63" x="367.07429" y="414.957187" style="fill: #808080; stroke: #808080; stroke-width: 0.8"/>
      </g>
     </g>
     <g id="text_6">
      <!-- 95 -->
      <g style="fill: #808080" transform="translate(357.53054 429.854844) scale(0.15 -0.15)">
       <use xlink:href="#DejaVuSans-39"/>
       <use xlink:href="#DejaVuSans-35" x="63.623047"/>
      </g>
     </g>
    </g>
    <g id="xtick_7">
     <g id="line2d_13">
      <path d="M 429.255318 414.957187 
L 429.255318 26.877187 
" clip-path="url(#p364ec1d13c)" style="fill: none; stroke: #808080; stroke-width: 0.8; stroke-linecap: square"/>
     </g>
     <g id="line2d_14">
      <g>
       <use xlink:href="#m0ea0a48d63" x="429.255318" y="414.957187" style="fill: #808080; stroke: #808080; stroke-width: 0.8"/>
      </g>
     </g>
     <g id="text_7">
      <!-- 100 -->
      <g style="fill: #808080" transform="translate(414.939693 429.854844) scale(0.15 -0.15)">
       <defs>
        <path id="DejaVuSans-31" d="M 794 531 
L 1825 531 
L 1825 4091 
L 703 3866 
L 703 4441 
L 1819 4666 
L 2450 4666 
L 2450 531 
L 3481 531 
L 3481 0 
L 794 0 
L 794 531 
z
" transform="scale(0.015625)"/>
       </defs>
       <use xlink:href="#DejaVuSans-31"/>
       <use xlink:href="#DejaVuSans-30" x="63.623047"/>
       <use xlink:href="#DejaVuSans-30" x="127.246094"/>
      </g>
     </g>
    </g>
    <g id="xtick_8">
     <g id="line2d_15">
      <path d="M 491.436346 414.957187 
L 491.436346 26.877187 
" clip-path="url(#p364ec1d13c)" style="fill: none; stroke: #808080; stroke-width: 0.8; stroke-linecap: square"/>
     </g>
     <g id="line2d_16">
      <g>
       <use xlink:href="#m0ea0a48d63" x="491.436346" y="414.957187" style="fill: #808080; stroke: #808080; stroke-width: 0.8"/>
      </g>
     </g>
     <g id="text_8">
      <!-- 105 -->
      <g style="fill: #808080" transform="translate(477.120721 429.854844) scale(0.15 -0.15)">
       <use xlink:href="#DejaVuSans-31"/>
       <use xlink:href="#DejaVuSans-30" x="63.623047"/>
       <use xlink:href="#DejaVuSans-35" x="127.246094"/>
      </g>
     </g>
    </g>
    <g id="xtick_9">
     <g id="line2d_17">
      <path d="M 553.617375 414.957187 
L 553.617375 26.877187 
" clip-path="url(#p364ec1d13c)" style="fill: none; stroke: #808080; stroke-width: 0.8; stroke-linecap: square"/>
     </g>
     <g id="line2d_18">
      <g>
       <use xlink:href="#m0ea0a48d63" x="553.617375" y="414.957187" style="fill: #808080; stroke: #808080; stroke-width: 0.8"/>
      </g>
     </g>
     <g id="text_9">
      <!-- 110 -->
      <g style="fill: #808080" transform="translate(539.30175 429.854844) scale(0.15 -0.15)">
       <use xlink:href="#DejaVuSans-31"/>
       <use xlink:href="#DejaVuSans-31" x="63.623047"/>
       <use xlink:href="#DejaVuSans-30" x="127.246094"/>
      </g>
     </g>
    </g>
    <g id="text_10">
     <!-- time [s] -->
     <g style="fill: #808080" transform="translate(298.400391 448.372031) scale(0.15 -0.15)">
      <defs>
       <path id="DejaVuSans-74" d="M 1172 4494 
L 1172 3500 
L 2356 3500 
L 2356 3053 
L 1172 3053 
L 1172 1153 
Q 1172 725 1289 603 
Q 1406 481 1766 481 
L 2356 481 
L 2356 0 
L 1766 0 
Q 1100 0 847 248 
Q 594 497 594 1153 
L 594 3053 
L 172 3053 
L 172 3500 
L 594 3500 
L 594 4494 
L 1172 4494 
z
" transform="scale(0.015625)"/>
       <path id="DejaVuSans-69" d="M 603 3500 
L 1178 3500 
L 1178 0 
L 603 0 
L 603 3500 
z
M 603 4863 
L 1178 4863 
L 1178 4134 
L 603 4134 
L 603 4863 
z
" transform="scale(0.015625)"/>
       <path id="DejaVuSans-6d" d="M 3328 2828 
Q 3544 3216 3844 3400 
Q 4144 3584 4550 3584 
Q 5097 3584 5394 3201 
Q 5691 2819 5691 2113 
L 5691 0 
L 5113 0 
L 5113 2094 
Q 5113 2597 4934 2840 
Q 4756 3084 4391 3084 
Q 3944 3084 3684 2787 
Q 3425 2491 3425 1978 
L 3425 0 
L 2847 0 
L 2847 2094 
Q 2847 2600 2669 2842 
Q 2491 3084 2119 3084 
Q 1678 3084 1418 2786 
Q 1159 2488 1159 1978 
L 1159 0 
L 581 0 
L 581 3500 
L 1159 3500 
L 1159 2956 
Q 1356 3278 1631 3431 
Q 1906 3584 2284 3584 
Q 2666 3584 2933 3390 
Q 3200 3197 3328 2828 
z
" transform="scale(0.015625)"/>
       <path id="DejaVuSans-65" d="M 3597 1894 
L 3597 1613 
L 953 1613 
Q 991 1019 1311 708 
Q 1631 397 2203 397 
Q 2534 397 2845 478 
Q 3156 559 3463 722 
L 3463 178 
Q 3153 47 2828 -22 
Q 2503 -91 2169 -91 
Q 1331 -91 842 396 
Q 353 884 353 1716 
Q 353 2575 817 3079 
Q 1281 3584 2069 3584 
Q 2775 3584 3186 3129 
Q 3597 2675 3597 1894 
z
M 3022 2063 
Q 3016 2534 2758 2815 
Q 2500 3097 2075 3097 
Q 1594 3097 1305 2825 
Q 1016 2553 972 2059 
L 3022 2063 
z
" transform="scale(0.015625)"/>
       <path id="DejaVuSans-20" transform="scale(0.015625)"/>
       <path id="DejaVuSans-5b" d="M 550 4863 
L 1875 4863 
L 1875 4416 
L 1125 4416 
L 1125 -397 
L 1875 -397 
L 1875 -844 
L 550 -844 
L 550 4863 
z
" transform="scale(0.015625)"/>
       <path id="DejaVuSans-73" d="M 2834 3397 
L 2834 2853 
Q 2591 2978 2328 3040 
Q 2066 3103 1784 3103 
Q 1356 3103 1142 2972 
Q 928 2841 928 2578 
Q 928 2378 1081 2264 
Q 1234 2150 1697 2047 
L 1894 2003 
Q 2506 1872 2764 1633 
Q 3022 1394 3022 966 
Q 3022 478 2636 193 
Q 2250 -91 1575 -91 
Q 1294 -91 989 -36 
Q 684 19 347 128 
L 347 722 
Q 666 556 975 473 
Q 1284 391 1588 391 
Q 1994 391 2212 530 
Q 2431 669 2431 922 
Q 2431 1156 2273 1281 
Q 2116 1406 1581 1522 
L 1381 1569 
Q 847 1681 609 1914 
Q 372 2147 372 2553 
Q 372 3047 722 3315 
Q 1072 3584 1716 3584 
Q 2034 3584 2315 3537 
Q 2597 3491 2834 3397 
z
" transform="scale(0.015625)"/>
       <path id="DejaVuSans-5d" d="M 1947 4863 
L 1947 -844 
L 622 -844 
L 622 -397 
L 1369 -397 
L 1369 4416 
L 622 4416 
L 622 4863 
L 1947 4863 
z
" transform="scale(0.015625)"/>
      </defs>
      <use xlink:href="#DejaVuSans-74"/>
      <use xlink:href="#DejaVuSans-69" x="39.208984"/>
      <use xlink:href="#DejaVuSans-6d" x="66.992188"/>
      <use xlink:href="#DejaVuSans-65" x="164.404297"/>
      <use xlink:href="#DejaVuSans-20" x="225.927734"/>
      <use xlink:href="#DejaVuSans-5b" x="257.714844"/>
      <use xlink:href="#DejaVuSans-73" x="296.728516"/>
      <use xlink:href="#DejaVuSans-5d" x="348.828125"/>
     </g>
    </g>
   </g>
   <g id="matplotlib.axis_2">
    <g id="ytick_1">
     <g id="line2d_19">
      <path d="M 48.4875 365.259567 
L 606.4875 365.259567 
" clip-path="url(#p364ec1d13c)" style="fill: none; stroke: #808080; stroke-width: 0.8; stroke-linecap: square"/>
     </g>
     <g id="line2d_20">
      <defs>
       <path id="mf0e90b0bea" d="M 0 0 
L 5 0 
" style="stroke: #808080; stroke-width: 0.8"/>
      </defs>
      <g>
       <use xlink:href="#mf0e90b0bea" x="48.4875" y="365.259567" style="fill: #808080; stroke: #808080; stroke-width: 0.8"/>
      </g>
     </g>
     <g id="text_11">
      <!-- 17 -->
      <g style="fill: #808080" transform="translate(25.9 370.958396) scale(0.15 -0.15)">
       <use xlink:href="#DejaVuSans-31"/>
       <use xlink:href="#DejaVuSans-37" x="63.623047"/>
      </g>
     </g>
    </g>
    <g id="ytick_2">
     <g id="line2d_21">
      <path d="M 48.4875 281.842226 
L 606.4875 281.842226 
" clip-path="url(#p364ec1d13c)" style="fill: none; stroke: #808080; stroke-width: 0.8; stroke-linecap: square"/>
     </g>
     <g id="line2d_22">
      <g>
       <use xlink:href="#mf0e90b0bea" x="48.4875" y="281.842226" style="fill: #808080; stroke: #808080; stroke-width: 0.8"/>
      </g>
     </g>
     <g id="text_12">
      <!-- 18 -->
      <g style="fill: #808080" transform="translate(25.9 287.541055) scale(0.15 -0.15)">
       <use xlink:href="#DejaVuSans-31"/>
       <use xlink:href="#DejaVuSans-38" x="63.623047"/>
      </g>
     </g>
    </g>
    <g id="ytick_3">
     <g id="line2d_23">
      <path d="M 48.4875 198.424885 
L 606.4875 198.424885 
" clip-path="url(#p364ec1d13c)" style="fill: none; stroke: #808080; stroke-width: 0.8; stroke-linecap: square"/>
     </g>
     <g id="line2d_24">
      <g>
       <use xlink:href="#mf0e90b0bea" x="48.4875" y="198.424885" style="fill: #808080; stroke: #808080; stroke-width: 0.8"/>
      </g>
     </g>
     <g id="text_13">
      <!-- 19 -->
      <g style="fill: #808080" transform="translate(25.9 204.123714) scale(0.15 -0.15)">
       <use xlink:href="#DejaVuSans-31"/>
       <use xlink:href="#DejaVuSans-39" x="63.623047"/>
      </g>
     </g>
    </g>
    <g id="ytick_4">
     <g id="line2d_25">
      <path d="M 48.4875 115.007544 
L 606.4875 115.007544 
" clip-path="url(#p364ec1d13c)" style="fill: none; stroke: #808080; stroke-width: 0.8; stroke-linecap: square"/>
     </g>
     <g id="line2d_26">
      <g>
       <use xlink:href="#mf0e90b0bea" x="48.4875" y="115.007544" style="fill: #808080; stroke: #808080; stroke-width: 0.8"/>
      </g>
     </g>
     <g id="text_14">
      <!-- 20 -->
      <g style="fill: #808080" transform="translate(25.9 120.706373) scale(0.15 -0.15)">
       <defs>
        <path id="DejaVuSans-32" d="M 1228 531 
L 3431 531 
L 3431 0 
L 469 0 
L 469 531 
Q 828 903 1448 1529 
Q 2069 2156 2228 2338 
Q 2531 2678 2651 2914 
Q 2772 3150 2772 3378 
Q 2772 3750 2511 3984 
Q 2250 4219 1831 4219 
Q 1534 4219 1204 4116 
Q 875 4013 500 3803 
L 500 4441 
Q 881 4594 1212 4672 
Q 1544 4750 1819 4750 
Q 2544 4750 2975 4387 
Q 3406 4025 3406 3419 
Q 3406 3131 3298 2873 
Q 3191 2616 2906 2266 
Q 2828 2175 2409 1742 
Q 1991 1309 1228 531 
z
" transform="scale(0.015625)"/>
       </defs>
       <use xlink:href="#DejaVuSans-32"/>
       <use xlink:href="#DejaVuSans-30" x="63.623047"/>
      </g>
     </g>
    </g>
    <g id="ytick_5">
     <g id="line2d_27">
      <path d="M 48.4875 31.590203 
L 606.4875 31.590203 
" clip-path="url(#p364ec1d13c)" style="fill: none; stroke: #808080; stroke-width: 0.8; stroke-linecap: square"/>
     </g>
     <g id="line2d_28">
      <g>
       <use xlink:href="#mf0e90b0bea" x="48.4875" y="31.590203" style="fill: #808080; stroke: #808080; stroke-width: 0.8"/>
      </g>
     </g>
     <g id="text_15">
      <!-- 21 -->
      <g style="fill: #808080" transform="translate(25.9 37.289032) scale(0.15 -0.15)">
       <use xlink:href="#DejaVuSans-32"/>
       <use xlink:href="#DejaVuSans-31" x="63.623047"/>
      </g>
     </g>
    </g>
    <g id="text_16">
     <!-- $\theta$ [deg] -->
     <g style="fill: #808080" transform="translate(18.75 247.917187) rotate(-90) scale(0.15 -0.15)">
      <defs>
       <path id="DejaVuSans-Oblique-3b8" d="M 2913 2219 
L 925 2219 
Q 791 1284 928 888 
Q 1100 400 1566 400 
Q 2034 400 2391 891 
Q 2703 1322 2913 2219 
z
M 3009 2750 
Q 3094 3638 2984 3950 
Q 2813 4444 2353 4444 
Q 1875 4444 1525 3956 
Q 1250 3563 1034 2750 
L 3009 2750 
z
M 2444 4913 
Q 3194 4913 3494 4250 
Q 3794 3591 3566 2422 
Q 3341 1256 2781 594 
Q 2225 -72 1475 -72 
Q 722 -72 425 594 
Q 128 1256 353 2422 
Q 581 3591 1134 4250 
Q 1691 4913 2444 4913 
z
" transform="scale(0.015625)"/>
       <path id="DejaVuSans-64" d="M 2906 2969 
L 2906 4863 
L 3481 4863 
L 3481 0 
L 2906 0 
L 2906 525 
Q 2725 213 2448 61 
Q 2172 -91 1784 -91 
Q 1150 -91 751 415 
Q 353 922 353 1747 
Q 353 2572 751 3078 
Q 1150 3584 1784 3584 
Q 2172 3584 2448 3432 
Q 2725 3281 2906 2969 
z
M 947 1747 
Q 947 1113 1208 752 
Q 1469 391 1925 391 
Q 2381 391 2643 752 
Q 2906 1113 2906 1747 
Q 2906 2381 2643 2742 
Q 2381 3103 1925 3103 
Q 1469 3103 1208 2742 
Q 947 2381 947 1747 
z
" transform="scale(0.015625)"/>
       <path id="DejaVuSans-67" d="M 2906 1791 
Q 2906 2416 2648 2759 
Q 2391 3103 1925 3103 
Q 1463 3103 1205 2759 
Q 947 2416 947 1791 
Q 947 1169 1205 825 
Q 1463 481 1925 481 
Q 2391 481 2648 825 
Q 2906 1169 2906 1791 
z
M 3481 434 
Q 3481 -459 3084 -895 
Q 2688 -1331 1869 -1331 
Q 1566 -1331 1297 -1286 
Q 1028 -1241 775 -1147 
L 775 -588 
Q 1028 -725 1275 -790 
Q 1522 -856 1778 -856 
Q 2344 -856 2625 -561 
Q 2906 -266 2906 331 
L 2906 616 
Q 2728 306 2450 153 
Q 2172 0 1784 0 
Q 1141 0 747 490 
Q 353 981 353 1791 
Q 353 2603 747 3093 
Q 1141 3584 1784 3584 
Q 2172 3584 2450 3431 
Q 2728 3278 2906 2969 
L 2906 3500 
L 3481 3500 
L 3481 434 
z
" transform="scale(0.015625)"/>
      </defs>
      <use xlink:href="#DejaVuSans-Oblique-3b8" transform="translate(0 0.234375)"/>
      <use xlink:href="#DejaVuSans-20" transform="translate(61.181641 0.234375)"/>
      <use xlink:href="#DejaVuSans-5b" transform="translate(92.96875 0.234375)"/>
      <use xlink:href="#DejaVuSans-64" transform="translate(131.982422 0.234375)"/>
      <use xlink:href="#DejaVuSans-65" transform="translate(195.458984 0.234375)"/>
      <use xlink:href="#DejaVuSans-67" transform="translate(256.982422 0.234375)"/>
      <use xlink:href="#DejaVuSans-5d" transform="translate(320.458984 0.234375)"/>
     </g>
    </g>
   </g>
   <g id="line2d_29">
    <path d="M 73.851136 229.873843 
L 74.721671 229.873843 
L 74.845635 212.632255 
L 75.218945 212.632255 
L 75.344041 260.243338 
L 75.46742 260.243338 
L 75.59233 277.035247 
L 76.213655 277.035247 
L 76.337805 260.243338 
L 78.951585 260.243338 
L 79.198904 212.632255 
L 79.696066 212.632255 
L 79.819645 260.243338 
L 80.442027 260.243338 
L 80.566289 277.035247 
L 82.680718 277.035247 
L 82.805764 292.310196 
L 83.923978 292.310196 
L 84.04829 307.288282 
L 84.420792 307.288282 
L 84.545863 260.943138 
L 86.411256 260.943138 
L 86.538317 323.095986 
L 86.660018 323.095986 
L 86.785947 260.943138 
L 86.9095 260.943138 
L 87.032868 277.180437 
L 87.655399 277.180437 
L 87.779488 260.943138 
L 87.907543 260.943138 
L 88.027988 277.180437 
L 88.649326 277.180437 
L 88.77518 323.095986 
L 89.396232 323.095986 
L 89.522161 337.483786 
L 95.61564 337.483786 
L 95.738821 291.961063 
L 96.862469 291.961063 
L 96.984767 246.716467 
L 97.106045 246.716467 
L 97.231825 231.550799 
L 97.603767 231.550799 
L 97.728465 291.961063 
L 99.09636 291.961063 
L 99.220573 337.483786 
L 99.844808 337.483786 
L 99.966733 291.961063 
L 101.086663 291.961063 
L 101.212095 277.180437 
L 101.583017 277.180437 
L 101.708821 291.961063 
L 103.573966 291.961063 
L 103.699821 277.180437 
L 103.822081 277.180437 
L 103.946953 291.961063 
L 105.565637 291.961063 
L 105.691255 246.716467 
L 105.814349 246.716467 
L 105.946919 231.550799 
L 107.304405 231.550799 
L 107.429377 291.961063 
L 107.552669 291.961063 
L 107.687279 277.180437 
L 107.801567 277.180437 
L 107.927558 291.961063 
L 108.547876 291.961063 
L 108.672462 277.180437 
L 108.795842 277.180437 
L 108.924022 291.961063 
L 109.296449 291.961063 
L 109.420003 277.180437 
L 113.771195 277.180437 
L 113.898255 291.961063 
L 114.517703 291.961063 
L 114.641916 246.716467 
L 116.506252 246.716467 
L 116.632492 306.463481 
L 117.257834 306.463481 
L 117.3791 351.599147 
L 117.506359 351.599147 
L 117.633557 366.504246 
L 119.243187 366.504246 
L 119.368097 414.957187 
L 119.494647 414.957187 
L 119.616174 366.504246 
L 120.486945 366.504246 
L 120.611406 351.599147 
L 120.991457 351.599147 
L 121.108556 400.502764 
L 121.482799 400.502764 
L 121.607758 337.483786 
L 122.482297 337.483786 
L 122.601112 372.856359 
L 122.72571 372.856359 
L 122.858666 386.812525 
L 122.973987 386.812525 
L 123.09805 323.095986 
L 124.714434 323.095986 
L 124.841544 307.288282 
L 127.94827 307.288282 
L 128.072669 323.095986 
L 128.94451 323.095986 
L 129.069033 337.483786 
L 129.192177 337.483786 
L 129.316613 323.095986 
L 129.440727 323.095986 
L 129.568409 337.483786 
L 131.438728 337.483786 
L 131.556324 291.961063 
L 131.680985 291.961063 
L 131.807337 337.483786 
L 131.928005 337.483786 
L 132.056247 291.961063 
L 133.420225 291.961063 
L 133.545918 246.716467 
L 134.167579 246.716467 
L 134.29081 291.961063 
L 134.911637 291.961063 
L 135.037579 306.463481 
L 135.162326 306.463481 
L 135.289126 291.961063 
L 135.659078 291.961063 
L 135.785368 337.483786 
L 135.907106 337.483786 
L 136.032637 351.599147 
L 136.156079 351.599147 
L 136.283363 337.483786 
L 137.399898 337.483786 
L 137.524037 351.599147 
L 140.384899 351.599147 
L 140.509348 337.483786 
L 142.374667 337.483786 
L 142.499203 291.961063 
L 143.370073 291.961063 
L 143.496649 337.483786 
L 143.617914 337.483786 
L 143.74209 351.599147 
L 146.605178 351.599147 
L 146.727065 306.463481 
L 146.851601 306.463481 
L 146.975963 351.599147 
L 147.09989 351.599147 
L 147.22414 306.463481 
L 147.348726 306.463481 
L 147.472703 351.599147 
L 149.089969 351.599147 
L 149.218248 306.463481 
L 150.581642 306.463481 
L 150.709449 246.716467 
L 151.577111 246.716467 
L 151.70335 198.308648 
L 152.073862 198.308648 
L 152.199294 246.716467 
L 152.325633 246.716467 
L 152.450344 198.308648 
L 152.572206 198.308648 
L 152.696667 246.716467 
L 155.805595 246.716467 
L 155.929534 182.737116 
L 156.551692 182.737116 
L 156.678529 246.716467 
L 157.04832 246.716467 
L 157.17262 231.550799 
L 157.297765 231.550799 
L 157.421891 246.716467 
L 158.293507 246.716467 
L 158.418864 231.550799 
L 158.791764 231.550799 
L 158.9138 246.716467 
L 159.2916 246.716467 
L 159.413586 231.550799 
L 159.53668 231.550799 
L 159.662137 246.716467 
L 160.28284 246.716467 
L 160.407202 198.308648 
L 161.532803 198.308648 
L 161.650089 246.716467 
L 162.774508 246.716467 
L 162.895948 306.463481 
L 163.266833 306.463481 
L 163.392153 291.961063 
L 164.01507 291.961063 
L 164.138089 246.716467 
L 166.25151 246.716467 
L 166.379329 198.308648 
L 166.748846 198.308648 
L 166.877138 182.737116 
L 167.993163 182.737116 
L 168.118968 165.635471 
L 168.4903 165.635471 
L 168.616938 182.737116 
L 168.739087 182.737116 
L 168.864817 120.214242 
L 171.226639 120.214242 
L 171.353911 182.737116 
L 171.475363 182.737116 
L 171.725517 165.635471 
L 171.847728 182.737116 
L 172.235364 182.737116 
L 172.345835 165.635471 
L 172.96864 165.635471 
L 173.093201 214.892602 
L 173.464459 214.892602 
L 173.589568 165.635471 
L 173.714029 165.635471 
L 173.841948 214.892602 
L 174.959876 214.892602 
L 175.081912 199.112695 
L 175.2086 199.112695 
L 175.330587 214.892602 
L 175.703287 214.892602 
L 175.828022 199.112695 
L 177.693167 199.112695 
L 177.817989 149.437793 
L 177.942065 149.437793 
L 178.067771 132.925585 
L 178.6883 132.925585 
L 178.812401 86.741105 
L 178.936042 86.741105 
L 179.061685 132.925585 
L 179.185164 132.925585 
L 179.310297 86.741105 
L 179.947814 86.741105 
L 180.057961 132.925585 
L 180.428262 132.925585 
L 180.552947 149.437793 
L 180.926419 149.437793 
L 181.053156 199.112695 
L 182.172925 199.112695 
L 182.296727 214.892602 
L 185.403279 214.892602 
L 185.536595 199.112695 
L 185.652426 199.112695 
L 185.776353 214.892602 
L 186.898086 214.892602 
L 187.023157 199.112695 
L 187.64238 199.112695 
L 187.766344 149.437793 
L 188.885765 149.437793 
L 189.010462 199.112695 
L 189.384481 199.112695 
L 189.506642 214.892602 
L 189.881196 214.892602 
L 190.011378 260.943138 
L 193.611647 260.943138 
L 193.738434 245.559952 
L 195.352753 245.559952 
L 195.479466 199.112695 
L 196.099858 199.112695 
L 196.223275 183.024113 
L 196.596821 183.024113 
L 196.722838 132.925585 
L 196.849587 132.925585 
L 196.974758 114.781188 
L 198.104886 114.781188 
L 198.213503 132.925585 
L 198.834729 132.925585 
L 198.967846 183.024113 
L 199.083515 183.024113 
L 199.207529 199.112695 
L 199.580864 199.112695 
L 199.711009 183.024113 
L 199.829551 183.024113 
L 199.955418 199.112695 
L 202.321928 199.112695 
L 202.442622 214.892602 
L 205.550964 214.892602 
L 205.675898 199.112695 
L 206.047032 199.112695 
L 206.174665 149.437793 
L 207.292493 149.437793 
L 207.415375 199.112695 
L 207.540794 199.112695 
L 207.665865 214.892602 
L 210.774842 214.892602 
L 210.897513 231.550799 
L 213.509153 231.550799 
L 213.635194 246.716467 
L 214.00782 246.716467 
L 214.13263 198.308648 
L 214.752886 198.308648 
L 214.876949 182.737116 
L 215.250322 182.737116 
L 215.374323 198.308648 
L 216.990793 198.308648 
L 217.117406 213.590853 
L 217.240649 213.590853 
L 217.365708 246.716467 
L 217.986212 246.716467 
L 218.146415 198.308648 
L 219.479005 198.308648 
L 219.602683 246.716467 
L 219.730266 246.716467 
L 219.854367 261.59843 
L 221.716726 261.59843 
L 221.84156 306.463481 
L 222.711597 306.463481 
L 222.841307 261.59843 
L 223.743417 261.59843 
L 223.957145 246.716467 
L 224.204514 246.716467 
L 224.329299 261.59843 
L 224.454668 261.59843 
L 224.577637 246.716467 
L 224.702572 246.716467 
L 224.831075 306.463481 
L 225.69651 306.463481 
L 225.821221 366.504246 
L 226.443516 366.504246 
L 226.56886 414.957187 
L 228.432463 414.957187 
L 228.559213 400.502764 
L 229.181421 400.502764 
L 229.305783 414.957187 
L 229.430469 414.957187 
L 229.551809 400.502764 
L 231.417513 400.502764 
L 231.541776 386.812525 
L 231.916392 386.812525 
L 232.040331 337.483786 
L 232.662328 337.483786 
L 232.788306 277.180437 
L 233.158607 277.180437 
L 233.285692 291.961063 
L 234.157458 291.961063 
L 234.279159 277.180437 
L 234.402277 277.180437 
L 234.52654 323.095986 
L 234.651126 323.095986 
L 234.775413 277.180437 
L 234.899327 277.180437 
L 235.023329 337.483786 
L 235.14881 337.483786 
L 235.276082 323.095986 
L 235.399064 323.095986 
L 235.523339 337.483786 
L 236.641068 337.483786 
L 236.765069 323.095986 
L 238.133114 323.095986 
L 238.259018 307.288282 
L 240.37224 307.288282 
L 240.500793 245.559952 
L 241.120651 245.559952 
L 241.244926 183.024113 
L 241.614928 183.024113 
L 241.74072 199.112695 
L 242.113036 199.112695 
L 242.236627 149.437793 
L 242.362431 149.437793 
L 242.4855 132.925585 
L 242.858437 132.925585 
L 242.985 86.741105 
L 244.600961 86.741105 
L 244.724452 103.637497 
L 245.3463 103.637497 
L 245.47244 120.214242 
L 245.595658 120.214242 
L 245.719398 75.104016 
L 247.833678 75.104016 
L 247.957356 93.001861 
L 250.322424 93.001861 
L 250.446649 109.302638 
L 251.315629 109.302638 
L 251.440289 93.001861 
L 251.564527 93.001861 
L 251.690655 109.302638 
L 252.06205 109.302638 
L 252.1863 93.001861 
L 252.30968 93.001861 
L 252.434004 109.302638 
L 252.56002 109.302638 
L 252.684867 153.65861 
L 253.306727 153.65861 
L 253.430306 198.308648 
L 253.802273 198.308648 
L 254.050686 169.304502 
L 254.175819 213.590853 
L 256.538748 213.590853 
L 256.668172 198.308648 
L 256.789984 198.308648 
L 256.913749 213.590853 
L 258.777029 213.590853 
L 259.026126 261.59843 
L 259.152577 213.590853 
L 260.518595 213.590853 
L 260.644226 169.304502 
L 261.264394 169.304502 
L 261.390597 213.590853 
L 263.25451 213.590853 
L 263.381696 229.733975 
L 265.245112 229.733975 
L 265.369822 277.316712 
L 266.23915 277.316712 
L 266.367417 244.439828 
L 267.980853 244.439828 
L 268.10723 229.733975 
L 270.218388 229.733975 
L 270.344453 244.439828 
L 270.466863 244.439828 
L 270.590864 291.633734 
L 271.21352 291.633734 
L 271.337659 335.727693 
L 271.959282 335.727693 
L 272.084042 321.779073 
L 272.210494 321.779073 
L 272.334458 335.727693 
L 272.457464 335.727693 
L 272.581839 321.779073 
L 274.695621 321.779073 
L 274.820219 306.463481 
L 274.943984 306.463481 
L 275.069988 321.779073 
L 277.183658 321.779073 
L 277.30756 277.316712 
L 277.434036 277.316712 
L 277.557863 261.59843 
L 278.42693 261.59843 
L 278.552324 213.590853 
L 279.919523 213.590853 
L 280.045042 261.59843 
L 280.666579 261.59843 
L 280.789448 277.316712 
L 280.914383 277.316712 
L 281.038571 321.779073 
L 281.660779 321.779073 
L 281.785912 306.463481 
L 282.158513 306.463481 
L 282.288645 321.779073 
L 282.904797 321.779073 
L 283.031075 306.463481 
L 283.400691 306.463481 
L 283.526931 321.779073 
L 284.895908 321.779073 
L 285.018691 277.316712 
L 286.385828 277.316712 
L 286.513137 229.733975 
L 287.382988 229.733975 
L 287.508817 185.833835 
L 289.122278 185.833835 
L 289.245894 200.893321 
L 290.117548 200.893321 
L 290.240965 215.681846 
L 293.102635 215.681846 
L 293.225803 172.748322 
L 293.847477 172.748322 
L 293.97363 188.742276 
L 298.32461 188.742276 
L 298.449271 203.322365 
L 299.07123 203.322365 
L 299.195468 245.559918 
L 299.318922 245.559918 
L 299.44362 203.322365 
L 299.567398 203.322365 
L 299.694073 245.559918 
L 303.298371 245.559918 
L 303.425892 203.322365 
L 304.293703 203.322365 
L 304.418202 188.742276 
L 305.288351 188.742276 
L 305.412514 143.189739 
L 306.78164 143.189739 
L 306.908875 188.742276 
L 307.279885 188.742276 
L 307.406622 203.322365 
L 308.027562 203.322365 
L 308.152036 188.742276 
L 308.275428 188.742276 
L 308.397949 203.322365 
L 309.267737 203.322365 
L 309.393181 188.742276 
L 310.014656 188.742276 
L 310.13903 203.322365 
L 311.010137 203.322365 
L 311.134026 188.742276 
L 311.506366 188.742276 
L 311.632843 203.322365 
L 311.75769 203.322365 
L 311.882238 188.742276 
L 313.496458 188.742276 
L 313.620136 172.748322 
L 313.998395 172.748322 
L 314.122447 143.189739 
L 314.243476 143.189739 
L 314.369504 126.812797 
L 314.741869 126.812797 
L 314.86495 84.441725 
L 315.237489 84.441725 
L 315.361926 68.623679 
L 315.983637 68.623679 
L 316.107961 111.322007 
L 316.481657 111.322007 
L 316.607089 126.812797 
L 319.962986 126.812797 
L 320.087174 143.189739 
L 321.70408 143.189739 
L 321.828206 126.812797 
L 325.435029 126.812797 
L 325.561281 172.748322 
L 325.684151 172.748322 
L 325.808115 126.812797 
L 325.932315 126.812797 
L 326.056341 172.748322 
L 328.170882 172.748322 
L 328.296898 157.617881 
L 328.668455 157.617881 
L 328.794098 172.748322 
L 328.919181 172.748322 
L 329.041466 126.812797 
L 329.17181 126.812797 
L 329.292168 172.748322 
L 329.665204 172.748322 
L 329.788111 126.812797 
L 332.151251 126.812797 
L 332.275961 84.441725 
L 334.639015 84.441725 
L 334.76232 126.812797 
L 335.633177 126.812797 
L 335.758373 172.748322 
L 338.368944 172.748322 
L 338.496464 215.681846 
L 340.607112 215.681846 
L 340.735703 258.879458 
L 340.857341 258.879458 
L 340.980323 244.439828 
L 341.105232 244.439828 
L 341.228612 200.893321 
L 342.349947 200.893321 
L 342.472195 244.439828 
L 344.339752 244.439828 
L 344.462684 291.633734 
L 344.586673 291.633734 
L 344.711433 305.689901 
L 345.084122 305.689901 
L 345.215759 291.633734 
L 345.332908 291.633734 
L 345.459794 305.689901 
L 345.581893 305.689901 
L 345.707835 349.42069 
L 346.576877 349.42069 
L 346.701997 335.727693 
L 347.082993 335.727693 
L 347.199968 349.42069 
L 347.323944 349.42069 
L 347.447859 393.400552 
L 347.5739 393.400552 
L 347.695451 380.077476 
L 347.820049 380.077476 
L 347.944859 393.400552 
L 349.810303 393.400552 
L 349.934714 349.42069 
L 350.059288 349.42069 
L 350.183836 335.727693 
L 353.292788 335.727693 
L 353.417076 321.779073 
L 354.038214 321.779073 
L 354.162875 277.316712 
L 355.287319 277.316712 
L 355.407951 261.59843 
L 356.282116 261.59843 
L 356.401131 213.590853 
L 359.263062 213.590853 
L 359.388743 198.308648 
L 361.749532 198.308648 
L 361.872601 261.59843 
L 362.999806 261.59843 
L 363.116856 246.716467 
L 365.982916 246.716467 
L 366.101981 231.550799 
L 367.730029 231.550799 
L 367.843472 182.737116 
L 368.9615 182.737116 
L 369.085576 120.214242 
L 370.212022 120.214242 
L 370.331721 137.718453 
L 371.45042 137.718453 
L 371.573687 153.65861 
L 371.698957 153.65861 
L 371.822486 198.308648 
L 372.444172 198.308648 
L 372.570051 153.65861 
L 372.941956 153.65861 
L 373.065957 169.304502 
L 374.186323 169.304502 
L 374.309279 185.833835 
L 377.170664 185.833835 
L 377.298794 142.211977 
L 377.667639 142.211977 
L 377.794327 125.304477 
L 378.662101 125.304477 
L 378.785667 78.245478 
L 378.913872 78.245478 
L 379.036716 125.304477 
L 380.155763 125.304477 
L 380.281319 169.304502 
L 380.651769 169.304502 
L 380.776765 185.833835 
L 381.64669 185.833835 
L 381.773465 169.304502 
L 381.897404 169.304502 
L 382.021468 229.733975 
L 383.6382 229.733975 
L 383.761791 244.439828 
L 385.128753 244.439828 
L 385.253227 291.633734 
L 386.372386 291.633734 
L 386.496512 244.439828 
L 387.118497 244.439828 
L 387.245259 200.893321 
L 388.864789 200.893321 
L 388.986315 215.681846 
L 389.108861 215.681846 
L 389.232154 258.879458 
L 391.84474 258.879458 
L 391.970159 274.139675 
L 392.093986 274.139675 
L 392.218522 215.681846 
L 392.590514 215.681846 
L 392.715436 231.312561 
L 392.83945 231.312561 
L 392.965665 215.681846 
L 393.83411 215.681846 
L 393.958907 231.312561 
L 394.331807 231.312561 
L 394.456902 215.681846 
L 394.58206 215.681846 
L 394.709134 231.312561 
L 394.831531 231.312561 
L 394.95445 215.681846 
L 395.07829 215.681846 
L 395.202814 231.312561 
L 395.327375 231.312561 
L 395.451152 215.681846 
L 395.575713 215.681846 
L 395.700001 172.748322 
L 396.321898 172.748322 
L 396.447951 126.812797 
L 397.814442 126.812797 
L 397.938829 172.748322 
L 398.31286 172.748322 
L 398.437707 157.617881 
L 398.808468 157.617881 
L 398.935043 172.748322 
L 399.05953 172.748322 
L 399.185198 157.617881 
L 401.296405 157.617881 
L 401.420643 142.211977 
L 402.541568 142.211977 
L 402.664338 185.833835 
L 402.789036 185.833835 
L 402.912739 169.304502 
L 404.530117 169.304502 
L 404.657949 109.302638 
L 405.275543 109.302638 
L 405.401049 93.001861 
L 405.772855 93.001861 
L 405.900388 45.188896 
L 406.518878 45.188896 
L 406.645578 93.001861 
L 407.51809 93.001861 
L 407.638509 137.718453 
L 410.250697 137.718453 
L 410.37445 182.737116 
L 410.498066 182.737116 
L 410.622776 137.718453 
L 410.996148 137.718453 
L 411.121045 120.214242 
L 411.245084 120.214242 
L 411.371299 165.635471 
L 411.99342 165.635471 
L 412.117372 120.214242 
L 412.23942 120.214242 
L 412.366941 165.635471 
L 414.229574 165.635471 
L 414.353339 120.214242 
L 415.722429 120.214242 
L 415.848159 165.635471 
L 418.706073 165.635471 
L 418.831181 182.737116 
L 419.454584 182.737116 
L 419.579965 231.550799 
L 421.941514 231.550799 
L 422.065503 182.737116 
L 422.188708 182.737116 
L 422.314675 231.550799 
L 422.686231 231.550799 
L 422.809884 182.737116 
L 423.931792 182.737116 
L 424.054462 120.214242 
L 424.179359 120.214242 
L 424.303435 165.635471 
L 424.927111 165.635471 
L 425.05156 182.737116 
L 425.173472 182.737116 
L 425.299351 165.635471 
L 426.416546 165.635471 
L 426.540945 182.737116 
L 427.665427 182.737116 
L 427.786132 231.550799 
L 428.158012 231.550799 
L 428.282461 182.737116 
L 428.90503 182.737116 
L 429.029815 165.635471 
L 429.152909 165.635471 
L 429.277918 182.737116 
L 429.405824 182.737116 
L 429.528047 165.635471 
L 429.652471 165.635471 
L 429.776211 182.737116 
L 429.900138 182.737116 
L 430.024189 165.635471 
L 431.144741 165.635471 
L 431.268755 182.737116 
L 432.386509 182.737116 
L 432.513283 165.635471 
L 432.635096 165.635471 
L 432.760702 182.737116 
L 432.885362 182.737116 
L 433.009625 165.635471 
L 433.132432 165.635471 
L 433.256546 182.737116 
L 433.879102 182.737116 
L 434.003613 165.635471 
L 434.377545 165.635471 
L 434.502728 182.737116 
L 435.621638 182.737116 
L 435.74569 231.550799 
L 436.863593 231.550799 
L 436.988253 246.716467 
L 441.341659 246.716467 
L 441.466332 198.308648 
L 441.837714 198.308648 
L 441.966752 182.737116 
L 443.581084 182.737116 
L 443.709823 231.550799 
L 450.543419 231.550799 
L 450.668639 182.737116 
L 450.79851 182.737116 
L 450.918594 165.635471 
L 451.788892 165.635471 
L 451.912757 182.737116 
L 452.535475 182.737116 
L 452.659203 231.550799 
L 454.274554 231.550799 
L 454.398083 246.716467 
L 455.518821 246.716467 
L 455.64521 231.550799 
L 455.767073 231.550799 
L 455.890714 182.737116 
L 456.015362 182.737116 
L 456.139836 198.308648 
L 459.248054 198.308648 
L 459.497213 182.737116 
L 459.747032 182.737116 
L 459.872811 137.718453 
L 460.740834 137.718453 
L 460.866812 93.001861 
L 461.238817 93.001861 
L 461.36339 137.718453 
L 461.489021 137.718453 
L 461.611691 153.65861 
L 461.985399 153.65861 
L 462.108816 137.718453 
L 462.733462 137.718453 
L 462.856978 153.65861 
L 464.471484 153.65861 
L 464.597973 137.718453 
L 465.466878 137.718453 
L 465.593031 93.001861 
L 468.948729 93.001861 
L 469.076424 45.188896 
L 469.201794 45.188896 
L 469.322624 26.877187 
L 469.695909 26.877187 
L 469.820495 45.188896 
L 470.441783 45.188896 
L 470.57 93.001861 
L 471.187234 93.001861 
L 471.311298 109.302638 
L 471.436232 109.302638 
L 471.56037 137.718453 
L 471.684707 137.718453 
L 471.811929 153.65861 
L 477.159361 153.65861 
L 477.281236 137.718453 
L 477.653576 137.718453 
L 477.78285 93.001861 
L 478.649082 93.001861 
L 478.776714 75.104016 
L 479.644849 75.104016 
L 479.768589 93.001861 
L 480.143242 93.001861 
L 480.269532 137.718453 
L 481.635363 137.718453 
L 481.762722 120.214242 
L 481.90345 120.214242 
L 482.008884 137.718453 
L 482.629252 137.718453 
L 482.878349 120.214242 
L 483.126787 120.214242 
L 483.251224 137.718453 
L 483.376183 137.718453 
L 483.499973 120.214242 
L 483.874639 120.214242 
L 483.998055 165.635471 
L 484.121099 165.635471 
L 484.2452 182.737116 
L 485.116331 182.737116 
L 485.243454 165.635471 
L 486.112409 165.635471 
L 486.235316 120.214242 
L 487.354214 120.214242 
L 487.478825 75.104016 
L 488.598158 75.104016 
L 488.724659 120.214242 
L 490.090229 120.214242 
L 490.219516 137.718453 
L 493.821041 137.718453 
L 493.94753 182.737116 
L 495.563155 182.737116 
L 495.687007 137.718453 
L 496.308071 137.718453 
L 496.432333 120.214242 
L 496.556807 120.214242 
L 496.684676 75.104016 
L 497.551716 75.104016 
L 497.684485 120.214242 
L 498.051565 120.214242 
L 498.173278 137.718453 
L 498.547831 137.718453 
L 498.800336 182.737116 
L 500.785851 182.737116 
L 500.912613 165.635471 
L 503.770317 165.635471 
L 503.894778 199.112695 
L 504.019712 199.112695 
L 504.145231 214.892602 
L 504.267715 214.892602 
L 504.392624 199.112695 
L 505.262823 199.112695 
L 505.388055 149.437793 
L 505.766564 149.437793 
L 505.885877 132.925585 
L 506.260555 132.925585 
L 506.381721 183.024113 
L 507.25417 183.024113 
L 507.377028 229.873843 
L 510.237566 229.873843 
L 510.362314 183.024113 
L 510.983328 183.024113 
L 511.107355 229.873843 
L 511.48064 229.873843 
L 511.605773 183.024113 
L 513.472074 183.024113 
L 513.595441 149.437793 
L 513.719057 149.437793 
L 513.850197 132.925585 
L 514.216729 132.925585 
L 514.343293 149.437793 
L 514.465391 149.437793 
L 514.591594 132.925585 
L 514.715732 132.925585 
L 514.839833 149.437793 
L 515.709671 149.437793 
L 515.833722 165.635471 
L 515.957997 165.635471 
L 516.083043 214.892602 
L 516.955082 214.892602 
L 517.078014 277.180437 
L 521.678117 277.180437 
L 521.803511 260.943138 
L 521.927749 260.943138 
L 522.054834 277.180437 
L 522.673523 277.180437 
L 522.797375 214.892602 
L 523.668469 214.892602 
L 523.792135 165.635471 
L 523.917218 165.635471 
L 524.042588 214.892602 
L 525.161995 214.892602 
L 525.284629 260.943138 
L 525.411155 260.943138 
L 525.533962 277.180437 
L 527.151614 277.180437 
L 527.279123 291.961063 
L 527.399431 291.961063 
L 527.522723 277.180437 
L 527.896431 277.180437 
L 528.023989 323.095986 
L 528.146026 323.095986 
L 528.272502 277.180437 
L 528.396292 277.180437 
L 528.518739 323.095986 
L 528.642566 323.095986 
L 528.769478 337.483786 
L 529.637724 337.483786 
L 529.764038 323.095986 
L 531.37888 323.095986 
L 531.503142 277.180437 
L 531.880879 277.180437 
L 532.002294 260.943138 
L 532.125189 260.943138 
L 532.251652 214.892602 
L 534.612853 214.892602 
L 534.736506 260.943138 
L 535.111918 260.943138 
L 535.238506 277.180437 
L 535.856262 277.180437 
L 535.979704 260.943138 
L 536.353287 260.943138 
L 536.47806 214.892602 
L 536.602496 214.892602 
L 536.72855 231.550799 
L 536.851183 231.550799 
L 536.975396 277.180437 
L 537.598848 277.180437 
L 537.721369 214.892602 
L 537.847025 214.892602 
L 537.969957 231.550799 
L 538.094057 231.550799 
L 538.220235 277.180437 
L 538.343291 277.180437 
L 538.469208 214.892602 
L 538.841697 214.892602 
L 538.965413 260.943138 
L 539.339481 260.943138 
L 539.469688 277.180437 
L 540.829488 277.180437 
L 540.957357 214.892602 
L 541.576444 214.892602 
L 541.700731 165.635471 
L 543.075019 165.635471 
L 543.194257 214.892602 
L 549.784936 214.892602 
L 549.909112 165.635471 
L 550.781773 165.635471 
L 550.906222 103.637497 
L 552.771292 103.637497 
L 552.89594 165.635471 
L 556.749647 165.635471 
L 556.873051 182.737116 
L 558.988786 182.737116 
L 559.112725 165.635471 
L 559.23542 165.635471 
L 559.362829 182.737116 
L 559.484791 182.737116 
L 559.608357 137.718453 
L 559.733764 137.718453 
L 559.857766 120.214242 
L 560.230802 120.214242 
L 560.35637 75.104016 
L 562.473572 75.104016 
L 562.59434 120.214242 
L 566.19977 120.214242 
L 566.448843 137.718453 
L 568.439344 137.718453 
L 568.563246 93.001861 
L 569.184696 93.001861 
L 569.308772 75.104016 
L 570.179742 75.104016 
L 570.303905 93.001861 
L 570.925914 93.001861 
L 571.052029 137.718453 
L 573.413205 137.718453 
L 573.537231 120.214242 
L 573.663732 120.214242 
L 573.786353 182.737116 
L 573.910106 182.737116 
L 574.034057 165.635471 
L 575.900844 165.635471 
L 576.025405 149.437793 
L 577.641465 149.437793 
L 577.7662 132.925585 
L 578.390622 132.925585 
L 578.514014 86.741105 
L 578.636647 86.741105 
L 578.763136 132.925585 
L 578.88521 132.925585 
L 579.011562 86.741105 
L 579.134058 86.741105 
L 579.25842 132.925585 
L 580.377045 132.925585 
L 580.505896 183.024113 
L 580.631141 183.024113 
L 580.751673 165.342561 
L 580.87499 165.342561 
L 581.004837 183.024113 
L 581.123864 183.024113 
L 581.123864 183.024113 
" clip-path="url(#p364ec1d13c)" style="fill: none; stroke: #1f77b4; stroke-width: 2; stroke-linecap: square"/>
   </g>
   <g id="patch_3">
    <path d="M 48.4875 414.957187 
L 48.4875 26.877187 
" style="fill: none; stroke: #808080; stroke-width: 2; stroke-linejoin: miter; stroke-linecap: square"/>
   </g>
   <g id="patch_4">
    <path d="M 48.4875 414.957187 
L 606.4875 414.957187 
" style="fill: none; stroke: #808080; stroke-width: 2; stroke-linejoin: miter; stroke-linecap: square"/>
   </g>
   <g id="text_17">
    <!-- Oskar-Nidarosdomen-vinkel -->
    <g style="fill: #808080" transform="translate(203.923125 20.877187) scale(0.18 -0.18)">
     <defs>
      <path id="DejaVuSans-4f" d="M 2522 4238 
Q 1834 4238 1429 3725 
Q 1025 3213 1025 2328 
Q 1025 1447 1429 934 
Q 1834 422 2522 422 
Q 3209 422 3611 934 
Q 4013 1447 4013 2328 
Q 4013 3213 3611 3725 
Q 3209 4238 2522 4238 
z
M 2522 4750 
Q 3503 4750 4090 4092 
Q 4678 3434 4678 2328 
Q 4678 1225 4090 567 
Q 3503 -91 2522 -91 
Q 1538 -91 948 565 
Q 359 1222 359 2328 
Q 359 3434 948 4092 
Q 1538 4750 2522 4750 
z
" transform="scale(0.015625)"/>
      <path id="DejaVuSans-6b" d="M 581 4863 
L 1159 4863 
L 1159 1991 
L 2875 3500 
L 3609 3500 
L 1753 1863 
L 3688 0 
L 2938 0 
L 1159 1709 
L 1159 0 
L 581 0 
L 581 4863 
z
" transform="scale(0.015625)"/>
      <path id="DejaVuSans-61" d="M 2194 1759 
Q 1497 1759 1228 1600 
Q 959 1441 959 1056 
Q 959 750 1161 570 
Q 1363 391 1709 391 
Q 2188 391 2477 730 
Q 2766 1069 2766 1631 
L 2766 1759 
L 2194 1759 
z
M 3341 1997 
L 3341 0 
L 2766 0 
L 2766 531 
Q 2569 213 2275 61 
Q 1981 -91 1556 -91 
Q 1019 -91 701 211 
Q 384 513 384 1019 
Q 384 1609 779 1909 
Q 1175 2209 1959 2209 
L 2766 2209 
L 2766 2266 
Q 2766 2663 2505 2880 
Q 2244 3097 1772 3097 
Q 1472 3097 1187 3025 
Q 903 2953 641 2809 
L 641 3341 
Q 956 3463 1253 3523 
Q 1550 3584 1831 3584 
Q 2591 3584 2966 3190 
Q 3341 2797 3341 1997 
z
" transform="scale(0.015625)"/>
      <path id="DejaVuSans-72" d="M 2631 2963 
Q 2534 3019 2420 3045 
Q 2306 3072 2169 3072 
Q 1681 3072 1420 2755 
Q 1159 2438 1159 1844 
L 1159 0 
L 581 0 
L 581 3500 
L 1159 3500 
L 1159 2956 
Q 1341 3275 1631 3429 
Q 1922 3584 2338 3584 
Q 2397 3584 2469 3576 
Q 2541 3569 2628 3553 
L 2631 2963 
z
" transform="scale(0.015625)"/>
      <path id="DejaVuSans-2d" d="M 313 2009 
L 1997 2009 
L 1997 1497 
L 313 1497 
L 313 2009 
z
" transform="scale(0.015625)"/>
      <path id="DejaVuSans-4e" d="M 628 4666 
L 1478 4666 
L 3547 763 
L 3547 4666 
L 4159 4666 
L 4159 0 
L 3309 0 
L 1241 3903 
L 1241 0 
L 628 0 
L 628 4666 
z
" transform="scale(0.015625)"/>
      <path id="DejaVuSans-6f" d="M 1959 3097 
Q 1497 3097 1228 2736 
Q 959 2375 959 1747 
Q 959 1119 1226 758 
Q 1494 397 1959 397 
Q 2419 397 2687 759 
Q 2956 1122 2956 1747 
Q 2956 2369 2687 2733 
Q 2419 3097 1959 3097 
z
M 1959 3584 
Q 2709 3584 3137 3096 
Q 3566 2609 3566 1747 
Q 3566 888 3137 398 
Q 2709 -91 1959 -91 
Q 1206 -91 779 398 
Q 353 888 353 1747 
Q 353 2609 779 3096 
Q 1206 3584 1959 3584 
z
" transform="scale(0.015625)"/>
      <path id="DejaVuSans-6e" d="M 3513 2113 
L 3513 0 
L 2938 0 
L 2938 2094 
Q 2938 2591 2744 2837 
Q 2550 3084 2163 3084 
Q 1697 3084 1428 2787 
Q 1159 2491 1159 1978 
L 1159 0 
L 581 0 
L 581 3500 
L 1159 3500 
L 1159 2956 
Q 1366 3272 1645 3428 
Q 1925 3584 2291 3584 
Q 2894 3584 3203 3211 
Q 3513 2838 3513 2113 
z
" transform="scale(0.015625)"/>
      <path id="DejaVuSans-76" d="M 191 3500 
L 800 3500 
L 1894 563 
L 2988 3500 
L 3597 3500 
L 2284 0 
L 1503 0 
L 191 3500 
z
" transform="scale(0.015625)"/>
      <path id="DejaVuSans-6c" d="M 603 4863 
L 1178 4863 
L 1178 0 
L 603 0 
L 603 4863 
z
" transform="scale(0.015625)"/>
     </defs>
     <use xlink:href="#DejaVuSans-4f"/>
     <use xlink:href="#DejaVuSans-73" x="78.710938"/>
     <use xlink:href="#DejaVuSans-6b" x="130.810547"/>
     <use xlink:href="#DejaVuSans-61" x="186.970703"/>
     <use xlink:href="#DejaVuSans-72" x="248.25"/>
     <use xlink:href="#DejaVuSans-2d" x="282.988281"/>
     <use xlink:href="#DejaVuSans-4e" x="319.072266"/>
     <use xlink:href="#DejaVuSans-69" x="393.876953"/>
     <use xlink:href="#DejaVuSans-64" x="421.660156"/>
     <use xlink:href="#DejaVuSans-61" x="485.136719"/>
     <use xlink:href="#DejaVuSans-72" x="546.416016"/>
     <use xlink:href="#DejaVuSans-6f" x="585.279297"/>
     <use xlink:href="#DejaVuSans-73" x="646.460938"/>
     <use xlink:href="#DejaVuSans-64" x="698.560547"/>
     <use xlink:href="#DejaVuSans-6f" x="762.037109"/>
     <use xlink:href="#DejaVuSans-6d" x="823.21875"/>
     <use xlink:href="#DejaVuSans-65" x="920.630859"/>
     <use xlink:href="#DejaVuSans-6e" x="982.154297"/>
     <use xlink:href="#DejaVuSans-2d" x="1045.533203"/>
     <use xlink:href="#DejaVuSans-76" x="1078.992188"/>
     <use xlink:href="#DejaVuSans-69" x="1138.171875"/>
     <use xlink:href="#DejaVuSans-6e" x="1165.955078"/>
     <use xlink:href="#DejaVuSans-6b" x="1229.333984"/>
     <use xlink:href="#DejaVuSans-65" x="1283.619141"/>
     <use xlink:href="#DejaVuSans-6c" x="1345.142578"/>
    </g>
   </g>
   <g id="legend_1">
    <g id="patch_5">
     <path d="M 58.9875 60.894375 
L 312.928125 60.894375 
Q 315.928125 60.894375 315.928125 57.894375 
L 315.928125 37.377187 
Q 315.928125 34.377187 312.928125 34.377187 
L 58.9875 34.377187 
Q 55.9875 34.377187 55.9875 37.377187 
L 55.9875 57.894375 
Q 55.9875 60.894375 58.9875 60.894375 
z
" style="fill: #ffffff; opacity: 0.8; stroke: #cccccc; stroke-linejoin: miter"/>
    </g>
    <g id="line2d_30">
     <path d="M 61.9875 46.524844 
L 76.9875 46.524844 
L 91.9875 46.524844 
" style="fill: none; stroke: #1f77b4; stroke-width: 2; stroke-linecap: square"/>
    </g>
    <g id="text_18">
     <!-- Oskar-Nidarosdomen-vinkel -->
     <g style="fill: #808080" transform="translate(103.9875 51.774844) scale(0.15 -0.15)">
      <use xlink:href="#DejaVuSans-4f"/>
      <use xlink:href="#DejaVuSans-73" x="78.710938"/>
      <use xlink:href="#DejaVuSans-6b" x="130.810547"/>
      <use xlink:href="#DejaVuSans-61" x="186.970703"/>
      <use xlink:href="#DejaVuSans-72" x="248.25"/>
      <use xlink:href="#DejaVuSans-2d" x="282.988281"/>
      <use xlink:href="#DejaVuSans-4e" x="319.072266"/>
      <use xlink:href="#DejaVuSans-69" x="393.876953"/>
      <use xlink:href="#DejaVuSans-64" x="421.660156"/>
      <use xlink:href="#DejaVuSans-61" x="485.136719"/>
      <use xlink:href="#DejaVuSans-72" x="546.416016"/>
      <use xlink:href="#DejaVuSans-6f" x="585.279297"/>
      <use xlink:href="#DejaVuSans-73" x="646.460938"/>
      <use xlink:href="#DejaVuSans-64" x="698.560547"/>
      <use xlink:href="#DejaVuSans-6f" x="762.037109"/>
      <use xlink:href="#DejaVuSans-6d" x="823.21875"/>
      <use xlink:href="#DejaVuSans-65" x="920.630859"/>
      <use xlink:href="#DejaVuSans-6e" x="982.154297"/>
      <use xlink:href="#DejaVuSans-2d" x="1045.533203"/>
      <use xlink:href="#DejaVuSans-76" x="1078.992188"/>
      <use xlink:href="#DejaVuSans-69" x="1138.171875"/>
      <use xlink:href="#DejaVuSans-6e" x="1165.955078"/>
      <use xlink:href="#DejaVuSans-6b" x="1229.333984"/>
      <use xlink:href="#DejaVuSans-65" x="1283.619141"/>
      <use xlink:href="#DejaVuSans-6c" x="1345.142578"/>
     </g>
    </g>
   </g>
  </g>
 </g>
 <defs>
  <clipPath id="p364ec1d13c">
   <rect x="48.4875" y="26.877187" width="558" height="388.08"/>
  </clipPath>
 </defs>
</svg>
