<?xml version="1.0" encoding="utf-8" standalone="no"?>
<!DOCTYPE svg PUBLIC "-//W3C//DTD SVG 1.1//EN"
  "http://www.w3.org/Graphics/SVG/1.1/DTD/svg11.dtd">
<svg xmlns:xlink="http://www.w3.org/1999/xlink" width="460.8pt" height="345.6pt" viewBox="0 0 460.8 345.6" xmlns="http://www.w3.org/2000/svg" version="1.1">
 <metadata>
  <rdf:RDF xmlns:dc="http://purl.org/dc/elements/1.1/" xmlns:cc="http://creativecommons.org/ns#" xmlns:rdf="http://www.w3.org/1999/02/22-rdf-syntax-ns#">
   <cc:Work>
    <dc:type rdf:resource="http://purl.org/dc/dcmitype/StillImage"/>
    <dc:date>2023-04-17T15:21:28.207058</dc:date>
    <dc:format>image/svg+xml</dc:format>
    <dc:creator>
     <cc:Agent>
      <dc:title>Matplotlib v3.7.1, https://matplotlib.org/</dc:title>
     </cc:Agent>
    </dc:creator>
   </cc:Work>
  </rdf:RDF>
 </metadata>
 <defs>
  <style type="text/css">*{stroke-linejoin: round; stroke-linecap: butt}</style>
 </defs>
 <g id="figure_1">
  <g id="patch_1">
   <path d="M 0 345.6 
L 460.8 345.6 
L 460.8 0 
L 0 0 
z
" style="fill: #ffffff"/>
  </g>
  <g id="axes_1">
   <g id="patch_2">
    <path d="M 57.6 307.584 
L 414.72 307.584 
L 414.72 41.472 
L 57.6 41.472 
z
" style="fill: #ffffff"/>
   </g>
   <g id="matplotlib.axis_1">
    <g id="xtick_1">
     <g id="line2d_1">
      <defs>
       <path id="me985cb538f" d="M 0 0 
L 0 3.5 
" style="stroke: #000000; stroke-width: 0.8"/>
      </defs>
      <g>
       <use xlink:href="#me985cb538f" x="81.551494" y="307.584" style="stroke: #000000; stroke-width: 0.8"/>
      </g>
     </g>
     <g id="text_1">
      <!-- 50 -->
      <g transform="translate(75.188994 322.182437) scale(0.1 -0.1)">
       <defs>
        <path id="DejaVuSans-35" d="M 691 4666 
L 3169 4666 
L 3169 4134 
L 1269 4134 
L 1269 2991 
Q 1406 3038 1543 3061 
Q 1681 3084 1819 3084 
Q 2600 3084 3056 2656 
Q 3513 2228 3513 1497 
Q 3513 744 3044 326 
Q 2575 -91 1722 -91 
Q 1428 -91 1123 -41 
Q 819 9 494 109 
L 494 744 
Q 775 591 1075 516 
Q 1375 441 1709 441 
Q 2250 441 2565 725 
Q 2881 1009 2881 1497 
Q 2881 1984 2565 2268 
Q 2250 2553 1709 2553 
Q 1456 2553 1204 2497 
Q 953 2441 691 2322 
L 691 4666 
z
" transform="scale(0.015625)"/>
        <path id="DejaVuSans-30" d="M 2034 4250 
Q 1547 4250 1301 3770 
Q 1056 3291 1056 2328 
Q 1056 1369 1301 889 
Q 1547 409 2034 409 
Q 2525 409 2770 889 
Q 3016 1369 3016 2328 
Q 3016 3291 2770 3770 
Q 2525 4250 2034 4250 
z
M 2034 4750 
Q 2819 4750 3233 4129 
Q 3647 3509 3647 2328 
Q 3647 1150 3233 529 
Q 2819 -91 2034 -91 
Q 1250 -91 836 529 
Q 422 1150 422 2328 
Q 422 3509 836 4129 
Q 1250 4750 2034 4750 
z
" transform="scale(0.015625)"/>
       </defs>
       <use xlink:href="#DejaVuSans-35"/>
       <use xlink:href="#DejaVuSans-30" x="63.623047"/>
      </g>
     </g>
    </g>
    <g id="xtick_2">
     <g id="line2d_2">
      <g>
       <use xlink:href="#me985cb538f" x="122.950821" y="307.584" style="stroke: #000000; stroke-width: 0.8"/>
      </g>
     </g>
     <g id="text_2">
      <!-- 55 -->
      <g transform="translate(116.588321 322.182437) scale(0.1 -0.1)">
       <use xlink:href="#DejaVuSans-35"/>
       <use xlink:href="#DejaVuSans-35" x="63.623047"/>
      </g>
     </g>
    </g>
    <g id="xtick_3">
     <g id="line2d_3">
      <g>
       <use xlink:href="#me985cb538f" x="164.350149" y="307.584" style="stroke: #000000; stroke-width: 0.8"/>
      </g>
     </g>
     <g id="text_3">
      <!-- 60 -->
      <g transform="translate(157.987649 322.182437) scale(0.1 -0.1)">
       <defs>
        <path id="DejaVuSans-36" d="M 2113 2584 
Q 1688 2584 1439 2293 
Q 1191 2003 1191 1497 
Q 1191 994 1439 701 
Q 1688 409 2113 409 
Q 2538 409 2786 701 
Q 3034 994 3034 1497 
Q 3034 2003 2786 2293 
Q 2538 2584 2113 2584 
z
M 3366 4563 
L 3366 3988 
Q 3128 4100 2886 4159 
Q 2644 4219 2406 4219 
Q 1781 4219 1451 3797 
Q 1122 3375 1075 2522 
Q 1259 2794 1537 2939 
Q 1816 3084 2150 3084 
Q 2853 3084 3261 2657 
Q 3669 2231 3669 1497 
Q 3669 778 3244 343 
Q 2819 -91 2113 -91 
Q 1303 -91 875 529 
Q 447 1150 447 2328 
Q 447 3434 972 4092 
Q 1497 4750 2381 4750 
Q 2619 4750 2861 4703 
Q 3103 4656 3366 4563 
z
" transform="scale(0.015625)"/>
       </defs>
       <use xlink:href="#DejaVuSans-36"/>
       <use xlink:href="#DejaVuSans-30" x="63.623047"/>
      </g>
     </g>
    </g>
    <g id="xtick_4">
     <g id="line2d_4">
      <g>
       <use xlink:href="#me985cb538f" x="205.749477" y="307.584" style="stroke: #000000; stroke-width: 0.8"/>
      </g>
     </g>
     <g id="text_4">
      <!-- 65 -->
      <g transform="translate(199.386977 322.182437) scale(0.1 -0.1)">
       <use xlink:href="#DejaVuSans-36"/>
       <use xlink:href="#DejaVuSans-35" x="63.623047"/>
      </g>
     </g>
    </g>
    <g id="xtick_5">
     <g id="line2d_5">
      <g>
       <use xlink:href="#me985cb538f" x="247.148804" y="307.584" style="stroke: #000000; stroke-width: 0.8"/>
      </g>
     </g>
     <g id="text_5">
      <!-- 70 -->
      <g transform="translate(240.786304 322.182437) scale(0.1 -0.1)">
       <defs>
        <path id="DejaVuSans-37" d="M 525 4666 
L 3525 4666 
L 3525 4397 
L 1831 0 
L 1172 0 
L 2766 4134 
L 525 4134 
L 525 4666 
z
" transform="scale(0.015625)"/>
       </defs>
       <use xlink:href="#DejaVuSans-37"/>
       <use xlink:href="#DejaVuSans-30" x="63.623047"/>
      </g>
     </g>
    </g>
    <g id="xtick_6">
     <g id="line2d_6">
      <g>
       <use xlink:href="#me985cb538f" x="288.548132" y="307.584" style="stroke: #000000; stroke-width: 0.8"/>
      </g>
     </g>
     <g id="text_6">
      <!-- 75 -->
      <g transform="translate(282.185632 322.182437) scale(0.1 -0.1)">
       <use xlink:href="#DejaVuSans-37"/>
       <use xlink:href="#DejaVuSans-35" x="63.623047"/>
      </g>
     </g>
    </g>
    <g id="xtick_7">
     <g id="line2d_7">
      <g>
       <use xlink:href="#me985cb538f" x="329.947459" y="307.584" style="stroke: #000000; stroke-width: 0.8"/>
      </g>
     </g>
     <g id="text_7">
      <!-- 80 -->
      <g transform="translate(323.584959 322.182437) scale(0.1 -0.1)">
       <defs>
        <path id="DejaVuSans-38" d="M 2034 2216 
Q 1584 2216 1326 1975 
Q 1069 1734 1069 1313 
Q 1069 891 1326 650 
Q 1584 409 2034 409 
Q 2484 409 2743 651 
Q 3003 894 3003 1313 
Q 3003 1734 2745 1975 
Q 2488 2216 2034 2216 
z
M 1403 2484 
Q 997 2584 770 2862 
Q 544 3141 544 3541 
Q 544 4100 942 4425 
Q 1341 4750 2034 4750 
Q 2731 4750 3128 4425 
Q 3525 4100 3525 3541 
Q 3525 3141 3298 2862 
Q 3072 2584 2669 2484 
Q 3125 2378 3379 2068 
Q 3634 1759 3634 1313 
Q 3634 634 3220 271 
Q 2806 -91 2034 -91 
Q 1263 -91 848 271 
Q 434 634 434 1313 
Q 434 1759 690 2068 
Q 947 2378 1403 2484 
z
M 1172 3481 
Q 1172 3119 1398 2916 
Q 1625 2713 2034 2713 
Q 2441 2713 2670 2916 
Q 2900 3119 2900 3481 
Q 2900 3844 2670 4047 
Q 2441 4250 2034 4250 
Q 1625 4250 1398 4047 
Q 1172 3844 1172 3481 
z
" transform="scale(0.015625)"/>
       </defs>
       <use xlink:href="#DejaVuSans-38"/>
       <use xlink:href="#DejaVuSans-30" x="63.623047"/>
      </g>
     </g>
    </g>
    <g id="xtick_8">
     <g id="line2d_8">
      <g>
       <use xlink:href="#me985cb538f" x="371.346787" y="307.584" style="stroke: #000000; stroke-width: 0.8"/>
      </g>
     </g>
     <g id="text_8">
      <!-- 85 -->
      <g transform="translate(364.984287 322.182437) scale(0.1 -0.1)">
       <use xlink:href="#DejaVuSans-38"/>
       <use xlink:href="#DejaVuSans-35" x="63.623047"/>
      </g>
     </g>
    </g>
    <g id="xtick_9">
     <g id="line2d_9">
      <g>
       <use xlink:href="#me985cb538f" x="412.746115" y="307.584" style="stroke: #000000; stroke-width: 0.8"/>
      </g>
     </g>
     <g id="text_9">
      <!-- 90 -->
      <g transform="translate(406.383615 322.182437) scale(0.1 -0.1)">
       <defs>
        <path id="DejaVuSans-39" d="M 703 97 
L 703 672 
Q 941 559 1184 500 
Q 1428 441 1663 441 
Q 2288 441 2617 861 
Q 2947 1281 2994 2138 
Q 2813 1869 2534 1725 
Q 2256 1581 1919 1581 
Q 1219 1581 811 2004 
Q 403 2428 403 3163 
Q 403 3881 828 4315 
Q 1253 4750 1959 4750 
Q 2769 4750 3195 4129 
Q 3622 3509 3622 2328 
Q 3622 1225 3098 567 
Q 2575 -91 1691 -91 
Q 1453 -91 1209 -44 
Q 966 3 703 97 
z
M 1959 2075 
Q 2384 2075 2632 2365 
Q 2881 2656 2881 3163 
Q 2881 3666 2632 3958 
Q 2384 4250 1959 4250 
Q 1534 4250 1286 3958 
Q 1038 3666 1038 3163 
Q 1038 2656 1286 2365 
Q 1534 2075 1959 2075 
z
" transform="scale(0.015625)"/>
       </defs>
       <use xlink:href="#DejaVuSans-39"/>
       <use xlink:href="#DejaVuSans-30" x="63.623047"/>
      </g>
     </g>
    </g>
    <g id="text_10">
     <!-- time [s] -->
     <g transform="translate(216.768594 335.860562) scale(0.1 -0.1)">
      <defs>
       <path id="DejaVuSans-74" d="M 1172 4494 
L 1172 3500 
L 2356 3500 
L 2356 3053 
L 1172 3053 
L 1172 1153 
Q 1172 725 1289 603 
Q 1406 481 1766 481 
L 2356 481 
L 2356 0 
L 1766 0 
Q 1100 0 847 248 
Q 594 497 594 1153 
L 594 3053 
L 172 3053 
L 172 3500 
L 594 3500 
L 594 4494 
L 1172 4494 
z
" transform="scale(0.015625)"/>
       <path id="DejaVuSans-69" d="M 603 3500 
L 1178 3500 
L 1178 0 
L 603 0 
L 603 3500 
z
M 603 4863 
L 1178 4863 
L 1178 4134 
L 603 4134 
L 603 4863 
z
" transform="scale(0.015625)"/>
       <path id="DejaVuSans-6d" d="M 3328 2828 
Q 3544 3216 3844 3400 
Q 4144 3584 4550 3584 
Q 5097 3584 5394 3201 
Q 5691 2819 5691 2113 
L 5691 0 
L 5113 0 
L 5113 2094 
Q 5113 2597 4934 2840 
Q 4756 3084 4391 3084 
Q 3944 3084 3684 2787 
Q 3425 2491 3425 1978 
L 3425 0 
L 2847 0 
L 2847 2094 
Q 2847 2600 2669 2842 
Q 2491 3084 2119 3084 
Q 1678 3084 1418 2786 
Q 1159 2488 1159 1978 
L 1159 0 
L 581 0 
L 581 3500 
L 1159 3500 
L 1159 2956 
Q 1356 3278 1631 3431 
Q 1906 3584 2284 3584 
Q 2666 3584 2933 3390 
Q 3200 3197 3328 2828 
z
" transform="scale(0.015625)"/>
       <path id="DejaVuSans-65" d="M 3597 1894 
L 3597 1613 
L 953 1613 
Q 991 1019 1311 708 
Q 1631 397 2203 397 
Q 2534 397 2845 478 
Q 3156 559 3463 722 
L 3463 178 
Q 3153 47 2828 -22 
Q 2503 -91 2169 -91 
Q 1331 -91 842 396 
Q 353 884 353 1716 
Q 353 2575 817 3079 
Q 1281 3584 2069 3584 
Q 2775 3584 3186 3129 
Q 3597 2675 3597 1894 
z
M 3022 2063 
Q 3016 2534 2758 2815 
Q 2500 3097 2075 3097 
Q 1594 3097 1305 2825 
Q 1016 2553 972 2059 
L 3022 2063 
z
" transform="scale(0.015625)"/>
       <path id="DejaVuSans-20" transform="scale(0.015625)"/>
       <path id="DejaVuSans-5b" d="M 550 4863 
L 1875 4863 
L 1875 4416 
L 1125 4416 
L 1125 -397 
L 1875 -397 
L 1875 -844 
L 550 -844 
L 550 4863 
z
" transform="scale(0.015625)"/>
       <path id="DejaVuSans-73" d="M 2834 3397 
L 2834 2853 
Q 2591 2978 2328 3040 
Q 2066 3103 1784 3103 
Q 1356 3103 1142 2972 
Q 928 2841 928 2578 
Q 928 2378 1081 2264 
Q 1234 2150 1697 2047 
L 1894 2003 
Q 2506 1872 2764 1633 
Q 3022 1394 3022 966 
Q 3022 478 2636 193 
Q 2250 -91 1575 -91 
Q 1294 -91 989 -36 
Q 684 19 347 128 
L 347 722 
Q 666 556 975 473 
Q 1284 391 1588 391 
Q 1994 391 2212 530 
Q 2431 669 2431 922 
Q 2431 1156 2273 1281 
Q 2116 1406 1581 1522 
L 1381 1569 
Q 847 1681 609 1914 
Q 372 2147 372 2553 
Q 372 3047 722 3315 
Q 1072 3584 1716 3584 
Q 2034 3584 2315 3537 
Q 2597 3491 2834 3397 
z
" transform="scale(0.015625)"/>
       <path id="DejaVuSans-5d" d="M 1947 4863 
L 1947 -844 
L 622 -844 
L 622 -397 
L 1369 -397 
L 1369 4416 
L 622 4416 
L 622 4863 
L 1947 4863 
z
" transform="scale(0.015625)"/>
      </defs>
      <use xlink:href="#DejaVuSans-74"/>
      <use xlink:href="#DejaVuSans-69" x="39.208984"/>
      <use xlink:href="#DejaVuSans-6d" x="66.992188"/>
      <use xlink:href="#DejaVuSans-65" x="164.404297"/>
      <use xlink:href="#DejaVuSans-20" x="225.927734"/>
      <use xlink:href="#DejaVuSans-5b" x="257.714844"/>
      <use xlink:href="#DejaVuSans-73" x="296.728516"/>
      <use xlink:href="#DejaVuSans-5d" x="348.828125"/>
     </g>
    </g>
   </g>
   <g id="matplotlib.axis_2">
    <g id="ytick_1">
     <g id="line2d_10">
      <defs>
       <path id="m0ad53352a5" d="M 0 0 
L -3.5 0 
" style="stroke: #000000; stroke-width: 0.8"/>
      </defs>
      <g>
       <use xlink:href="#m0ad53352a5" x="57.6" y="298.263514" style="stroke: #000000; stroke-width: 0.8"/>
      </g>
     </g>
     <g id="text_11">
      <!-- 281.5 -->
      <g transform="translate(21.971875 302.062733) scale(0.1 -0.1)">
       <defs>
        <path id="DejaVuSans-32" d="M 1228 531 
L 3431 531 
L 3431 0 
L 469 0 
L 469 531 
Q 828 903 1448 1529 
Q 2069 2156 2228 2338 
Q 2531 2678 2651 2914 
Q 2772 3150 2772 3378 
Q 2772 3750 2511 3984 
Q 2250 4219 1831 4219 
Q 1534 4219 1204 4116 
Q 875 4013 500 3803 
L 500 4441 
Q 881 4594 1212 4672 
Q 1544 4750 1819 4750 
Q 2544 4750 2975 4387 
Q 3406 4025 3406 3419 
Q 3406 3131 3298 2873 
Q 3191 2616 2906 2266 
Q 2828 2175 2409 1742 
Q 1991 1309 1228 531 
z
" transform="scale(0.015625)"/>
        <path id="DejaVuSans-31" d="M 794 531 
L 1825 531 
L 1825 4091 
L 703 3866 
L 703 4441 
L 1819 4666 
L 2450 4666 
L 2450 531 
L 3481 531 
L 3481 0 
L 794 0 
L 794 531 
z
" transform="scale(0.015625)"/>
        <path id="DejaVuSans-2e" d="M 684 794 
L 1344 794 
L 1344 0 
L 684 0 
L 684 794 
z
" transform="scale(0.015625)"/>
       </defs>
       <use xlink:href="#DejaVuSans-32"/>
       <use xlink:href="#DejaVuSans-38" x="63.623047"/>
       <use xlink:href="#DejaVuSans-31" x="127.246094"/>
       <use xlink:href="#DejaVuSans-2e" x="190.869141"/>
       <use xlink:href="#DejaVuSans-35" x="222.65625"/>
      </g>
     </g>
    </g>
    <g id="ytick_2">
     <g id="line2d_11">
      <g>
       <use xlink:href="#m0ad53352a5" x="57.6" y="262.608342" style="stroke: #000000; stroke-width: 0.8"/>
      </g>
     </g>
     <g id="text_12">
      <!-- 282.0 -->
      <g transform="translate(21.971875 266.40756) scale(0.1 -0.1)">
       <use xlink:href="#DejaVuSans-32"/>
       <use xlink:href="#DejaVuSans-38" x="63.623047"/>
       <use xlink:href="#DejaVuSans-32" x="127.246094"/>
       <use xlink:href="#DejaVuSans-2e" x="190.869141"/>
       <use xlink:href="#DejaVuSans-30" x="222.65625"/>
      </g>
     </g>
    </g>
    <g id="ytick_3">
     <g id="line2d_12">
      <g>
       <use xlink:href="#m0ad53352a5" x="57.6" y="226.95317" style="stroke: #000000; stroke-width: 0.8"/>
      </g>
     </g>
     <g id="text_13">
      <!-- 282.5 -->
      <g transform="translate(21.971875 230.752388) scale(0.1 -0.1)">
       <use xlink:href="#DejaVuSans-32"/>
       <use xlink:href="#DejaVuSans-38" x="63.623047"/>
       <use xlink:href="#DejaVuSans-32" x="127.246094"/>
       <use xlink:href="#DejaVuSans-2e" x="190.869141"/>
       <use xlink:href="#DejaVuSans-35" x="222.65625"/>
      </g>
     </g>
    </g>
    <g id="ytick_4">
     <g id="line2d_13">
      <g>
       <use xlink:href="#m0ad53352a5" x="57.6" y="191.297997" style="stroke: #000000; stroke-width: 0.8"/>
      </g>
     </g>
     <g id="text_14">
      <!-- 283.0 -->
      <g transform="translate(21.971875 195.097216) scale(0.1 -0.1)">
       <defs>
        <path id="DejaVuSans-33" d="M 2597 2516 
Q 3050 2419 3304 2112 
Q 3559 1806 3559 1356 
Q 3559 666 3084 287 
Q 2609 -91 1734 -91 
Q 1441 -91 1130 -33 
Q 819 25 488 141 
L 488 750 
Q 750 597 1062 519 
Q 1375 441 1716 441 
Q 2309 441 2620 675 
Q 2931 909 2931 1356 
Q 2931 1769 2642 2001 
Q 2353 2234 1838 2234 
L 1294 2234 
L 1294 2753 
L 1863 2753 
Q 2328 2753 2575 2939 
Q 2822 3125 2822 3475 
Q 2822 3834 2567 4026 
Q 2313 4219 1838 4219 
Q 1578 4219 1281 4162 
Q 984 4106 628 3988 
L 628 4550 
Q 988 4650 1302 4700 
Q 1616 4750 1894 4750 
Q 2613 4750 3031 4423 
Q 3450 4097 3450 3541 
Q 3450 3153 3228 2886 
Q 3006 2619 2597 2516 
z
" transform="scale(0.015625)"/>
       </defs>
       <use xlink:href="#DejaVuSans-32"/>
       <use xlink:href="#DejaVuSans-38" x="63.623047"/>
       <use xlink:href="#DejaVuSans-33" x="127.246094"/>
       <use xlink:href="#DejaVuSans-2e" x="190.869141"/>
       <use xlink:href="#DejaVuSans-30" x="222.65625"/>
      </g>
     </g>
    </g>
    <g id="ytick_5">
     <g id="line2d_14">
      <g>
       <use xlink:href="#m0ad53352a5" x="57.6" y="155.642825" style="stroke: #000000; stroke-width: 0.8"/>
      </g>
     </g>
     <g id="text_15">
      <!-- 283.5 -->
      <g transform="translate(21.971875 159.442044) scale(0.1 -0.1)">
       <use xlink:href="#DejaVuSans-32"/>
       <use xlink:href="#DejaVuSans-38" x="63.623047"/>
       <use xlink:href="#DejaVuSans-33" x="127.246094"/>
       <use xlink:href="#DejaVuSans-2e" x="190.869141"/>
       <use xlink:href="#DejaVuSans-35" x="222.65625"/>
      </g>
     </g>
    </g>
    <g id="ytick_6">
     <g id="line2d_15">
      <g>
       <use xlink:href="#m0ad53352a5" x="57.6" y="119.987653" style="stroke: #000000; stroke-width: 0.8"/>
      </g>
     </g>
     <g id="text_16">
      <!-- 284.0 -->
      <g transform="translate(21.971875 123.786872) scale(0.1 -0.1)">
       <defs>
        <path id="DejaVuSans-34" d="M 2419 4116 
L 825 1625 
L 2419 1625 
L 2419 4116 
z
M 2253 4666 
L 3047 4666 
L 3047 1625 
L 3713 1625 
L 3713 1100 
L 3047 1100 
L 3047 0 
L 2419 0 
L 2419 1100 
L 313 1100 
L 313 1709 
L 2253 4666 
z
" transform="scale(0.015625)"/>
       </defs>
       <use xlink:href="#DejaVuSans-32"/>
       <use xlink:href="#DejaVuSans-38" x="63.623047"/>
       <use xlink:href="#DejaVuSans-34" x="127.246094"/>
       <use xlink:href="#DejaVuSans-2e" x="190.869141"/>
       <use xlink:href="#DejaVuSans-30" x="222.65625"/>
      </g>
     </g>
    </g>
    <g id="ytick_7">
     <g id="line2d_16">
      <g>
       <use xlink:href="#m0ad53352a5" x="57.6" y="84.332481" style="stroke: #000000; stroke-width: 0.8"/>
      </g>
     </g>
     <g id="text_17">
      <!-- 284.5 -->
      <g transform="translate(21.971875 88.131699) scale(0.1 -0.1)">
       <use xlink:href="#DejaVuSans-32"/>
       <use xlink:href="#DejaVuSans-38" x="63.623047"/>
       <use xlink:href="#DejaVuSans-34" x="127.246094"/>
       <use xlink:href="#DejaVuSans-2e" x="190.869141"/>
       <use xlink:href="#DejaVuSans-35" x="222.65625"/>
      </g>
     </g>
    </g>
    <g id="ytick_8">
     <g id="line2d_17">
      <g>
       <use xlink:href="#m0ad53352a5" x="57.6" y="48.677309" style="stroke: #000000; stroke-width: 0.8"/>
      </g>
     </g>
     <g id="text_18">
      <!-- 285.0 -->
      <g transform="translate(21.971875 52.476527) scale(0.1 -0.1)">
       <use xlink:href="#DejaVuSans-32"/>
       <use xlink:href="#DejaVuSans-38" x="63.623047"/>
       <use xlink:href="#DejaVuSans-35" x="127.246094"/>
       <use xlink:href="#DejaVuSans-2e" x="190.869141"/>
       <use xlink:href="#DejaVuSans-30" x="222.65625"/>
      </g>
     </g>
    </g>
    <g id="text_19">
     <!-- $\theta$ [deg] -->
     <g transform="translate(15.871875 192.528) rotate(-90) scale(0.1 -0.1)">
      <defs>
       <path id="DejaVuSans-Oblique-3b8" d="M 2913 2219 
L 925 2219 
Q 791 1284 928 888 
Q 1100 400 1566 400 
Q 2034 400 2391 891 
Q 2703 1322 2913 2219 
z
M 3009 2750 
Q 3094 3638 2984 3950 
Q 2813 4444 2353 4444 
Q 1875 4444 1525 3956 
Q 1250 3563 1034 2750 
L 3009 2750 
z
M 2444 4913 
Q 3194 4913 3494 4250 
Q 3794 3591 3566 2422 
Q 3341 1256 2781 594 
Q 2225 -72 1475 -72 
Q 722 -72 425 594 
Q 128 1256 353 2422 
Q 581 3591 1134 4250 
Q 1691 4913 2444 4913 
z
" transform="scale(0.015625)"/>
       <path id="DejaVuSans-64" d="M 2906 2969 
L 2906 4863 
L 3481 4863 
L 3481 0 
L 2906 0 
L 2906 525 
Q 2725 213 2448 61 
Q 2172 -91 1784 -91 
Q 1150 -91 751 415 
Q 353 922 353 1747 
Q 353 2572 751 3078 
Q 1150 3584 1784 3584 
Q 2172 3584 2448 3432 
Q 2725 3281 2906 2969 
z
M 947 1747 
Q 947 1113 1208 752 
Q 1469 391 1925 391 
Q 2381 391 2643 752 
Q 2906 1113 2906 1747 
Q 2906 2381 2643 2742 
Q 2381 3103 1925 3103 
Q 1469 3103 1208 2742 
Q 947 2381 947 1747 
z
" transform="scale(0.015625)"/>
       <path id="DejaVuSans-67" d="M 2906 1791 
Q 2906 2416 2648 2759 
Q 2391 3103 1925 3103 
Q 1463 3103 1205 2759 
Q 947 2416 947 1791 
Q 947 1169 1205 825 
Q 1463 481 1925 481 
Q 2391 481 2648 825 
Q 2906 1169 2906 1791 
z
M 3481 434 
Q 3481 -459 3084 -895 
Q 2688 -1331 1869 -1331 
Q 1566 -1331 1297 -1286 
Q 1028 -1241 775 -1147 
L 775 -588 
Q 1028 -725 1275 -790 
Q 1522 -856 1778 -856 
Q 2344 -856 2625 -561 
Q 2906 -266 2906 331 
L 2906 616 
Q 2728 306 2450 153 
Q 2172 0 1784 0 
Q 1141 0 747 490 
Q 353 981 353 1791 
Q 353 2603 747 3093 
Q 1141 3584 1784 3584 
Q 2172 3584 2450 3431 
Q 2728 3278 2906 2969 
L 2906 3500 
L 3481 3500 
L 3481 434 
z
" transform="scale(0.015625)"/>
      </defs>
      <use xlink:href="#DejaVuSans-Oblique-3b8" transform="translate(0 0.234375)"/>
      <use xlink:href="#DejaVuSans-20" transform="translate(61.181641 0.234375)"/>
      <use xlink:href="#DejaVuSans-5b" transform="translate(92.96875 0.234375)"/>
      <use xlink:href="#DejaVuSans-64" transform="translate(131.982422 0.234375)"/>
      <use xlink:href="#DejaVuSans-65" transform="translate(195.458984 0.234375)"/>
      <use xlink:href="#DejaVuSans-67" transform="translate(256.982422 0.234375)"/>
      <use xlink:href="#DejaVuSans-5d" transform="translate(320.458984 0.234375)"/>
     </g>
    </g>
   </g>
   <g id="line2d_18">
    <path d="M 73.832727 152.722884 
L 74.164965 152.722884 
L 74.330885 131.941314 
L 76.979656 131.941314 
L 77.146768 103.964864 
L 77.311347 103.964864 
L 77.48592 131.941314 
L 77.641697 103.964864 
L 77.808429 103.964864 
L 77.972478 131.941314 
L 79.13339 131.941314 
L 79.298449 124.455035 
L 79.962254 124.455035 
L 80.125574 131.941314 
L 80.294061 103.964864 
L 80.954041 103.964864 
L 81.119059 81.166588 
L 81.451388 81.166588 
L 81.616977 110.996556 
L 82.444127 110.996556 
L 82.609203 81.166588 
L 83.106723 81.166588 
L 83.272734 53.568 
L 83.439276 53.568 
L 83.605188 81.166588 
L 84.43228 81.166588 
L 84.596461 73.944765 
L 85.095174 73.944765 
L 85.259778 103.964864 
L 85.425798 103.964864 
L 85.590757 96.283922 
L 85.922589 96.283922 
L 86.087301 103.964864 
L 86.25385 103.964864 
L 86.418752 73.944765 
L 86.585086 103.964864 
L 86.750352 73.944765 
L 86.914708 81.166588 
L 87.4128 81.166588 
L 87.578447 110.996556 
L 88.574043 110.996556 
L 88.738083 81.166588 
L 88.903656 110.996556 
L 89.564927 110.996556 
L 89.730351 117.933374 
L 89.899194 145.554839 
L 90.226671 145.554839 
L 90.395505 152.73357 
L 90.724953 152.73357 
L 90.88949 145.554839 
L 91.055262 145.554839 
L 91.221488 173.267237 
L 91.388129 173.267237 
L 91.553718 166.685141 
L 91.883877 166.685141 
L 92.048729 196.822517 
L 92.214343 196.822517 
L 92.380802 203.210609 
L 92.546689 203.210609 
L 92.71068 173.267237 
L 92.876691 173.267237 
L 93.042272 209.993384 
L 94.201172 209.993384 
L 94.370064 216.203737 
L 94.532764 216.203737 
L 94.697972 209.993384 
L 97.844544 209.993384 
L 98.009719 203.210609 
L 98.177577 173.267237 
L 98.341436 209.993384 
L 98.672995 209.993384 
L 98.839213 180.256339 
L 100.162849 180.256339 
L 100.333025 209.993384 
L 100.495244 180.256339 
L 101.818764 180.256339 
L 101.984485 173.267237 
L 102.31645 173.267237 
L 102.481128 203.210609 
L 102.647512 203.210609 
L 102.813598 196.822517 
L 102.979593 224.898882 
L 103.476749 224.898882 
L 103.641593 218.606749 
L 104.309314 218.606749 
L 104.469339 196.822517 
L 104.966686 196.822517 
L 105.132084 166.685141 
L 105.296779 196.822517 
L 105.463345 166.685141 
L 105.628727 166.685141 
L 105.794532 196.822517 
L 105.958887 196.822517 
L 106.126397 166.685141 
L 106.290943 196.822517 
L 106.622866 196.822517 
L 106.791858 166.685141 
L 106.95344 196.822517 
L 107.119617 166.685141 
L 109.104723 166.685141 
L 109.271984 160.012416 
L 109.437689 190.346162 
L 110.59658 190.346162 
L 110.762219 160.012416 
L 110.927552 166.685141 
L 113.908527 166.685141 
L 114.073851 160.012416 
L 115.401436 160.012416 
L 115.563672 190.346162 
L 115.730594 183.270797 
L 115.895024 183.270797 
L 116.061581 152.722884 
L 116.226069 160.012416 
L 116.391973 190.346162 
L 116.738403 190.346162 
L 116.888881 166.685141 
L 118.381095 166.685141 
L 118.544266 138.794465 
L 118.711006 160.012416 
L 118.87768 160.012416 
L 119.053627 166.685141 
L 119.703911 166.685141 
L 119.86892 160.012416 
L 120.532104 160.012416 
L 120.698447 131.941314 
L 120.863307 160.012416 
L 121.028888 160.012416 
L 121.19456 152.722884 
L 121.693372 152.722884 
L 121.855831 176.60529 
L 122.188475 176.60529 
L 122.353012 183.270797 
L 122.850516 183.270797 
L 123.015277 190.346162 
L 123.1809 190.346162 
L 123.348981 160.012416 
L 123.512069 190.346162 
L 123.678569 160.012416 
L 124.341364 160.012416 
L 124.507591 152.722884 
L 124.673768 152.722884 
L 124.837543 160.012416 
L 125.999647 160.012416 
L 126.161593 166.685141 
L 126.494022 166.685141 
L 126.659793 138.794465 
L 126.823974 166.685141 
L 127.653675 166.685141 
L 127.818452 160.012416 
L 127.98265 160.012416 
L 128.148951 166.685141 
L 128.812293 166.685141 
L 128.980523 173.267237 
L 129.143769 145.554839 
L 129.308936 145.554839 
L 129.474252 152.73357 
L 131.130415 152.73357 
L 131.298281 173.267237 
L 132.123544 173.267237 
L 132.290292 203.210609 
L 132.455202 173.267237 
L 132.620004 203.210609 
L 132.786223 203.210609 
L 132.95288 231.104998 
L 133.11774 231.104998 
L 133.28429 224.898882 
L 133.780792 224.898882 
L 133.946671 253.061326 
L 134.278751 253.061326 
L 134.442618 224.898882 
L 134.773887 224.898882 
L 134.939468 253.061326 
L 135.269611 253.061326 
L 135.436674 259.083741 
L 136.263733 259.083741 
L 136.429711 231.104998 
L 136.599142 231.104998 
L 136.760359 259.083741 
L 136.927273 231.104998 
L 139.078556 231.104998 
L 139.244087 224.898882 
L 139.410728 253.061326 
L 140.239087 253.061326 
L 140.404353 224.898882 
L 140.569164 253.061326 
L 141.066146 253.061326 
L 141.231901 224.898882 
L 141.396918 231.104998 
L 141.562276 224.898882 
L 142.060541 224.898882 
L 142.227281 231.104998 
L 142.391107 224.898882 
L 142.556348 224.898882 
L 142.720894 231.104998 
L 142.888958 224.898882 
L 143.054175 224.898882 
L 143.218787 231.104998 
L 144.712781 231.104998 
L 144.875249 237.694268 
L 145.041078 231.104998 
L 145.204787 237.694268 
L 145.370815 231.104998 
L 145.536561 237.694268 
L 145.86875 237.694268 
L 146.034885 231.104998 
L 146.366833 231.104998 
L 146.530518 237.694268 
L 147.194364 237.694268 
L 147.362379 216.203737 
L 148.352212 216.203737 
L 148.517901 243.727189 
L 148.683366 243.727189 
L 148.849286 216.203737 
L 149.015388 216.203737 
L 149.180737 209.993384 
L 149.677554 209.993384 
L 149.843557 237.694268 
L 151.002937 237.694268 
L 151.167209 231.104998 
L 151.333618 231.104998 
L 151.499199 259.083741 
L 151.831147 259.083741 
L 152.003915 253.061326 
L 152.16105 259.083741 
L 152.332435 259.083741 
L 152.491466 253.061326 
L 152.657461 259.083741 
L 152.823787 259.083741 
L 152.989409 231.104998 
L 153.319221 231.104998 
L 153.486565 237.694268 
L 153.982413 237.694268 
L 154.150577 209.993384 
L 155.47346 209.993384 
L 155.637625 216.203737 
L 157.459261 216.203737 
L 157.625637 209.993384 
L 157.790704 237.694268 
L 158.787368 237.694268 
L 158.949621 209.993384 
L 159.280906 209.993384 
L 159.447928 216.203737 
L 159.612482 216.203737 
L 159.779089 186.655906 
L 159.943991 180.256339 
L 160.110416 180.256339 
L 160.274697 216.203737 
L 160.440692 186.655906 
L 160.606455 216.203737 
L 160.771315 216.203737 
L 160.937401 209.993384 
L 161.103313 180.256339 
L 161.27228 209.993384 
L 162.429168 209.993384 
L 162.595577 180.256339 
L 163.090994 180.256339 
L 163.265732 173.267237 
L 163.421742 173.267237 
L 163.587306 203.210609 
L 164.093305 203.210609 
L 164.254141 231.104998 
L 164.912482 231.104998 
L 165.077947 203.210609 
L 165.410201 203.210609 
L 165.57391 209.993384 
L 166.072491 209.993384 
L 166.23596 203.210609 
L 166.56819 203.210609 
L 166.741562 180.256339 
L 166.898507 203.210609 
L 168.885459 203.210609 
L 169.051297 173.267237 
L 169.714489 173.267237 
L 169.879515 196.822517 
L 170.542111 196.822517 
L 170.707593 166.685141 
L 170.877313 166.685141 
L 171.040054 173.267237 
L 171.20455 145.554839 
L 172.528799 145.554839 
L 172.694984 152.73357 
L 173.853817 152.73357 
L 174.033532 180.256339 
L 174.18786 173.267237 
L 174.682143 173.267237 
L 174.852684 145.554839 
L 175.179358 145.554839 
L 175.346147 138.794465 
L 175.509426 138.794465 
L 175.676804 166.685141 
L 175.841888 166.685141 
L 176.006425 160.012416 
L 176.939144 160.012416 
L 177.165739 131.941314 
L 177.334242 131.941314 
L 177.497215 110.996556 
L 178.325649 110.996556 
L 178.491892 103.964864 
L 178.98798 103.964864 
L 179.154629 73.944765 
L 179.321129 73.944765 
L 179.483878 103.964864 
L 179.650295 110.996556 
L 180.064321 81.166588 
L 180.644218 81.166588 
L 180.811347 73.944765 
L 180.974916 103.964864 
L 181.967821 103.964864 
L 182.14265 124.455035 
L 182.963806 124.455035 
L 183.127267 131.941314 
L 183.293758 131.941314 
L 183.458263 103.964864 
L 184.454297 103.964864 
L 184.617303 110.996556 
L 186.936816 110.996556 
L 187.101428 117.933374 
L 187.26686 117.933374 
L 187.435587 110.996556 
L 187.930765 110.996556 
L 188.094739 138.794465 
L 188.923578 138.794465 
L 189.090393 110.996556 
L 189.255237 138.794465 
L 189.419907 110.996556 
L 189.603206 110.996556 
L 189.834546 117.933374 
L 189.917709 117.933374 
L 190.083836 88.291332 
L 192.069406 88.291332 
L 192.237346 60.865273 
L 193.062675 60.865273 
L 193.229349 88.291332 
L 193.394076 81.166588 
L 195.216053 81.166588 
L 195.394931 88.291332 
L 196.211433 88.291332 
L 196.37525 60.865273 
L 196.706197 60.865273 
L 196.872315 88.291332 
L 197.038037 88.291332 
L 197.203808 95.857724 
L 197.701619 95.857724 
L 197.867191 68.615267 
L 199.688182 68.615267 
L 199.853763 60.865273 
L 200.018855 60.865273 
L 200.186862 88.291332 
L 200.349528 88.291332 
L 200.516889 81.166588 
L 201.013697 81.166588 
L 201.177937 88.291332 
L 202.833007 88.291332 
L 202.999052 81.166588 
L 203.165808 88.291332 
L 203.329675 81.166588 
L 204.490446 81.166588 
L 204.656548 110.996556 
L 205.48581 110.996556 
L 205.648294 138.794465 
L 205.98049 138.794465 
L 206.144804 131.941314 
L 206.643211 131.941314 
L 206.809711 103.964864 
L 206.974323 103.964864 
L 207.138579 110.996556 
L 207.636844 110.996556 
L 207.801448 117.933374 
L 210.123611 117.933374 
L 210.28511 88.291332 
L 210.781786 88.291332 
L 210.949172 117.933374 
L 211.114214 88.291332 
L 211.280747 88.291332 
L 211.444142 117.933374 
L 212.272385 117.933374 
L 212.440657 110.996556 
L 212.770361 110.996556 
L 212.934758 117.933374 
L 213.267136 117.933374 
L 213.434506 125.299812 
L 213.596981 125.299812 
L 213.762877 95.857724 
L 214.425415 95.857724 
L 214.59247 88.291332 
L 214.922306 117.933374 
L 215.087291 88.291332 
L 215.254205 88.291332 
L 215.419777 95.857724 
L 215.74978 95.857724 
L 215.916586 88.291332 
L 216.082415 95.857724 
L 216.247631 88.291332 
L 216.411821 88.291332 
L 216.578164 117.933374 
L 217.572046 117.933374 
L 217.737163 145.554839 
L 217.904573 145.554839 
L 218.067761 138.794465 
L 218.399428 138.794465 
L 218.564917 166.685141 
L 218.896145 166.685141 
L 219.061486 173.267237 
L 219.725763 173.267237 
L 219.889638 180.256339 
L 221.545727 180.256339 
L 221.712119 152.73357 
L 222.374243 152.73357 
L 222.53941 180.256339 
L 222.707334 152.73357 
L 223.698914 152.73357 
L 223.86476 173.267237 
L 225.189704 173.267237 
L 225.354415 152.73357 
L 226.016821 152.73357 
L 226.183296 159.307066 
L 226.5234 159.307066 
L 226.681148 152.73357 
L 227.17837 152.73357 
L 227.342726 159.307066 
L 228.004858 159.307066 
L 228.170588 186.655906 
L 228.336384 159.307066 
L 228.502801 165.793346 
L 229.660177 165.793346 
L 229.827894 192.970298 
L 229.993939 186.655906 
L 230.653852 186.655906 
L 230.825858 216.203737 
L 230.986645 216.203737 
L 231.15023 186.655906 
L 231.31591 216.203737 
L 231.483122 216.203737 
L 231.647958 222.331162 
L 233.965699 222.331162 
L 234.132919 216.203737 
L 234.297821 249.679313 
L 234.462383 249.679313 
L 234.628867 243.727189 
L 236.121561 243.727189 
L 236.2845 237.694268 
L 237.608591 237.694268 
L 237.77601 216.203737 
L 238.602399 216.203737 
L 238.771316 209.993384 
L 238.934562 216.203737 
L 239.098777 216.203737 
L 239.266328 209.993384 
L 239.430915 209.993384 
L 239.596256 216.203737 
L 239.762665 186.655906 
L 239.930357 209.993384 
L 240.756331 209.993384 
L 240.9212 203.210609 
L 241.086425 209.993384 
L 241.251914 209.993384 
L 241.417628 180.256339 
L 241.751116 180.256339 
L 241.915835 173.267237 
L 242.079818 173.267237 
L 242.24645 203.210609 
L 242.576693 203.210609 
L 242.742414 196.822517 
L 243.240299 196.822517 
L 243.404729 203.210609 
L 244.069279 203.210609 
L 244.233163 180.256339 
L 245.889492 180.256339 
L 246.054112 209.993384 
L 246.220165 209.993384 
L 246.385141 216.203737 
L 246.716145 216.203737 
L 246.883829 209.993384 
L 247.213169 209.993384 
L 247.380795 216.203737 
L 247.875318 216.203737 
L 248.042878 209.993384 
L 248.704862 209.993384 
L 248.869217 231.104998 
L 249.200047 231.104998 
L 249.367971 209.993384 
L 250.193664 209.993384 
L 250.360528 216.203737 
L 250.693222 216.203737 
L 250.856914 209.993384 
L 251.685075 209.993384 
L 251.851566 180.256339 
L 252.016311 209.993384 
L 252.84371 209.993384 
L 253.011095 180.256339 
L 254.168538 180.256339 
L 254.333961 209.993384 
L 254.501877 209.993384 
L 254.665876 203.210609 
L 255.332 203.210609 
L 255.494053 180.256339 
L 256.159026 180.256339 
L 256.321129 159.307066 
L 256.652025 159.307066 
L 256.818194 186.655906 
L 256.984719 159.307066 
L 257.149811 186.655906 
L 257.318232 186.655906 
L 257.481875 159.307066 
L 257.646263 159.307066 
L 257.811563 186.655906 
L 258.639789 186.655906 
L 258.805254 159.307066 
L 258.971274 186.655906 
L 259.137633 159.307066 
L 260.130529 159.307066 
L 260.29621 152.73357 
L 260.461194 180.256339 
L 260.627106 180.256339 
L 260.793838 173.267237 
L 261.123559 173.267237 
L 261.289735 180.256339 
L 261.455722 152.73357 
L 261.952481 152.73357 
L 262.117937 125.299812 
L 262.282177 132.045498 
L 262.449521 102.786864 
L 262.614034 102.786864 
L 262.779689 95.857724 
L 263.608768 95.857724 
L 263.773695 125.299812 
L 263.939632 95.857724 
L 264.104699 125.299812 
L 264.271224 95.857724 
L 265.927048 95.857724 
L 266.091619 88.291332 
L 266.424428 88.291332 
L 266.589429 117.933374 
L 266.755217 110.996556 
L 268.082396 110.996556 
L 268.245203 117.933374 
L 268.410205 88.291332 
L 268.907816 88.291332 
L 269.071782 110.996556 
L 270.728741 110.996556 
L 270.895936 138.794465 
L 271.060374 145.554839 
L 272.052824 145.554839 
L 272.218554 173.267237 
L 272.384432 166.685141 
L 272.550245 166.685141 
L 272.720015 196.822517 
L 273.544392 196.822517 
L 273.709484 203.210609 
L 275.203023 203.210609 
L 275.366385 173.267237 
L 276.854839 173.267237 
L 277.020644 145.554839 
L 277.517303 145.554839 
L 277.685451 117.933374 
L 277.849284 117.933374 
L 278.014757 110.996556 
L 278.676435 110.996556 
L 278.845137 103.964864 
L 279.007952 103.964864 
L 279.174038 110.996556 
L 279.505961 110.996556 
L 279.67035 81.166588 
L 279.838 117.933374 
L 280.001991 117.933374 
L 280.16792 125.299812 
L 280.498552 125.299812 
L 280.663859 152.73357 
L 280.994739 152.73357 
L 281.163019 180.256339 
L 281.989896 180.256339 
L 282.153962 209.993384 
L 282.651192 209.993384 
L 282.816516 237.694268 
L 282.982346 243.727189 
L 283.811781 243.727189 
L 283.977602 271.331557 
L 284.14161 265.477699 
L 284.307695 265.477699 
L 284.472448 295.488 
L 284.641175 295.488 
L 284.803676 259.083741 
L 285.300807 259.083741 
L 285.466487 231.104998 
L 285.632192 237.694268 
L 285.962791 237.694268 
L 286.128628 209.993384 
L 286.957153 209.993384 
L 287.125731 216.203737 
L 287.454938 216.203737 
L 287.619493 186.655906 
L 288.612555 186.655906 
L 288.780197 159.307066 
L 289.275308 159.307066 
L 289.440541 186.655906 
L 289.772423 186.655906 
L 289.939801 159.307066 
L 290.270515 159.307066 
L 290.434986 186.655906 
L 290.931033 186.655906 
L 291.097831 216.203737 
L 293.581029 216.203737 
L 293.748588 243.727189 
L 293.912132 216.203737 
L 294.077837 243.727189 
L 294.242458 216.203737 
L 294.743555 216.203737 
L 294.905675 243.727189 
L 295.070577 237.694268 
L 296.395098 237.694268 
L 296.562285 209.993384 
L 296.727734 203.210609 
L 296.893199 231.104998 
L 298.21859 231.104998 
L 298.383492 237.694268 
L 298.550099 237.694268 
L 298.715324 209.993384 
L 298.880134 237.694268 
L 299.707483 237.694268 
L 299.87371 231.104998 
L 300.041253 237.694268 
L 301.197917 237.694268 
L 301.364003 265.477699 
L 301.696622 265.477699 
L 301.861797 237.694268 
L 302.356742 237.694268 
L 302.52325 265.477699 
L 302.856962 265.477699 
L 303.022609 259.083741 
L 303.352943 259.083741 
L 303.517339 289.30635 
L 303.847549 289.30635 
L 304.013353 259.083741 
L 304.180209 259.083741 
L 304.345955 265.477699 
L 306.33482 265.477699 
L 306.497901 295.488 
L 307.325291 295.488 
L 307.49064 265.477699 
L 308.650202 265.477699 
L 308.816429 237.694268 
L 308.981305 259.083741 
L 309.313088 259.083741 
L 309.478362 231.104998 
L 309.812132 231.104998 
L 309.97609 237.694268 
L 310.140379 237.694268 
L 310.307243 209.993384 
L 311.965998 209.993384 
L 312.127745 203.210609 
L 312.458907 203.210609 
L 312.625821 209.993384 
L 312.78987 209.993384 
L 312.954714 203.210609 
L 313.12123 209.993384 
L 313.287423 203.210609 
L 313.455289 231.104998 
L 314.942709 231.104998 
L 315.108497 259.083741 
L 315.274119 253.061326 
L 315.441397 253.061326 
L 315.605082 259.083741 
L 316.267471 259.083741 
L 316.433954 265.477699 
L 317.262562 265.477699 
L 317.426363 295.488 
L 320.075804 295.488 
L 320.243396 265.477699 
L 320.408812 295.488 
L 320.573945 265.477699 
L 321.072517 265.477699 
L 321.23732 237.694268 
L 321.897755 237.694268 
L 322.063758 209.993384 
L 322.561129 209.993384 
L 322.726139 180.256339 
L 324.05283 180.256339 
L 324.217724 152.73357 
L 324.382418 186.655906 
L 324.548016 186.655906 
L 324.713787 152.73357 
L 324.878316 152.73357 
L 325.04417 180.256339 
L 325.707992 180.256339 
L 325.873564 209.993384 
L 326.371913 209.993384 
L 326.535233 203.210609 
L 327.199618 203.210609 
L 327.364246 173.267237 
L 327.861129 173.267237 
L 328.026006 180.256339 
L 328.192539 180.256339 
L 328.355951 152.73357 
L 328.522359 180.256339 
L 328.688205 180.256339 
L 328.853364 152.73357 
L 329.020203 180.256339 
L 330.177215 180.256339 
L 330.343251 152.73357 
L 330.50903 152.73357 
L 330.674917 180.256339 
L 330.840001 152.73357 
L 331.005375 180.256339 
L 331.337365 180.256339 
L 331.502283 152.73357 
L 331.668187 180.256339 
L 332.331122 180.256339 
L 332.498094 209.993384 
L 332.663998 173.267237 
L 332.828949 173.267237 
L 332.993636 203.210609 
L 333.326544 203.210609 
L 333.490469 196.822517 
L 333.656124 196.822517 
L 333.821978 203.210609 
L 333.988164 173.267237 
L 334.983536 173.267237 
L 335.145921 203.210609 
L 335.311253 173.267237 
L 336.970066 173.267237 
L 337.132525 203.210609 
L 337.299456 203.210609 
L 337.466005 173.267237 
L 337.630402 173.267237 
L 337.79465 203.210609 
L 338.955909 203.210609 
L 339.119875 224.898882 
L 339.285928 224.898882 
L 339.450805 196.822517 
L 339.616088 224.898882 
L 339.782935 196.822517 
L 340.114809 196.822517 
L 340.279909 203.210609 
L 340.77661 203.210609 
L 340.941553 173.267237 
L 341.122303 203.210609 
L 341.273741 173.267237 
L 341.439264 173.267237 
L 341.604845 196.822517 
L 341.769606 196.822517 
L 341.937762 166.685141 
L 342.100991 166.685141 
L 342.266456 196.822517 
L 342.598578 196.822517 
L 342.766684 190.346162 
L 342.93041 196.822517 
L 343.094103 190.346162 
L 344.915963 190.346162 
L 345.081188 218.606749 
L 345.909183 218.606749 
L 346.083424 190.346162 
L 346.242663 224.898882 
L 346.406182 196.822517 
L 346.57129 196.822517 
L 346.738171 203.210609 
L 346.903653 203.210609 
L 347.071245 196.822517 
L 347.401902 196.822517 
L 347.566199 203.210609 
L 348.559816 203.210609 
L 348.729222 231.104998 
L 348.89029 231.104998 
L 349.05535 203.210609 
L 350.381635 203.210609 
L 350.546032 173.267237 
L 350.877326 173.267237 
L 351.043039 203.210609 
L 351.211021 203.210609 
L 351.373629 173.267237 
L 351.540195 203.210609 
L 352.036821 203.210609 
L 352.137745 173.267237 
L 352.367354 173.267237 
L 352.534681 180.256339 
L 353.029851 180.256339 
L 353.19563 152.73357 
L 354.188874 152.73357 
L 354.354497 159.307066 
L 354.852141 159.307066 
L 355.019279 186.655906 
L 355.184611 152.73357 
L 355.348776 180.256339 
L 356.509398 180.256339 
L 356.673819 173.267237 
L 356.838671 203.210609 
L 357.501408 203.210609 
L 357.667933 196.822517 
L 358.164344 196.822517 
L 358.329652 203.210609 
L 358.82598 203.210609 
L 358.991494 209.993384 
L 359.160818 203.210609 
L 360.152737 203.210609 
L 360.317084 231.104998 
L 361.14426 231.104998 
L 361.310552 224.898882 
L 361.475272 224.898882 
L 361.641151 231.104998 
L 361.807419 231.104998 
L 361.97189 259.083741 
L 362.139458 259.083741 
L 362.309402 253.061326 
L 362.739541 253.061326 
L 362.967229 246.955186 
L 363.793634 246.955186 
L 363.959207 277.579741 
L 364.124713 246.955186 
L 364.457133 246.955186 
L 364.622416 253.061326 
L 365.61653 253.061326 
L 365.781829 224.898882 
L 367.106806 224.898882 
L 367.273819 231.104998 
L 367.438282 231.104998 
L 367.603076 224.898882 
L 367.769146 224.898882 
L 367.933683 231.104998 
L 368.103892 224.898882 
L 369.424531 224.898882 
L 369.590989 253.061326 
L 369.756156 218.606749 
L 369.922192 218.606749 
L 370.086655 224.898882 
L 370.914998 224.898882 
L 371.082888 231.104998 
L 371.245687 224.898882 
L 371.411748 253.061326 
L 371.577619 253.061326 
L 371.743862 224.898882 
L 373.067547 224.898882 
L 373.234122 203.210609 
L 373.401855 231.104998 
L 373.564521 203.210609 
L 373.730467 203.210609 
L 373.89666 196.822517 
L 375.054028 196.822517 
L 375.219998 224.898882 
L 375.551623 224.898882 
L 375.717891 196.822517 
L 376.048009 196.822517 
L 376.214244 166.685141 
L 376.71511 166.685141 
L 376.876095 173.267237 
L 377.041651 173.267237 
L 377.208267 145.554839 
L 377.374949 145.554839 
L 377.539975 180.256339 
L 377.705191 152.73357 
L 378.035309 152.73357 
L 378.201089 180.256339 
L 379.525801 180.256339 
L 379.69144 173.267237 
L 380.685943 173.267237 
L 380.850381 203.210609 
L 381.348572 203.210609 
L 381.513789 224.898882 
L 381.678483 196.822517 
L 381.844693 224.898882 
L 382.341444 224.898882 
L 382.50647 196.822517 
L 383.665792 196.822517 
L 383.837036 166.685141 
L 383.997177 190.346162 
L 384.162203 190.346162 
L 384.328247 160.012416 
L 384.493431 160.012416 
L 384.659078 190.346162 
L 384.825793 160.012416 
L 385.819194 160.012416 
L 385.994968 166.685141 
L 386.150596 160.012416 
L 386.315009 190.346162 
L 386.481948 160.012416 
L 386.646477 190.346162 
L 387.475855 190.346162 
L 387.651496 183.270797 
L 387.806528 183.270797 
L 387.972895 211.732335 
L 388.302583 211.732335 
L 388.470341 218.606749 
L 388.965651 218.606749 
L 389.134784 196.822517 
L 389.295893 196.822517 
L 389.46164 224.898882 
L 390.28975 224.898882 
L 390.455455 218.606749 
L 390.620813 224.898882 
L 390.787114 224.898882 
L 390.951775 218.606749 
L 391.117654 218.606749 
L 391.284253 224.898882 
L 391.388257 253.061326 
L 391.615978 218.606749 
L 392.276877 218.606749 
L 392.444337 246.955186 
L 392.608287 218.606749 
L 393.270966 218.606749 
L 393.436489 211.732335 
L 393.768321 211.732335 
L 393.934936 205.255839 
L 394.263904 205.255839 
L 394.429584 211.732335 
L 394.595264 211.732335 
L 394.763594 183.270797 
L 394.926061 211.732335 
L 395.094002 218.606749 
L 395.588508 218.606749 
L 395.756134 211.732335 
L 395.919521 218.606749 
L 396.085226 211.732335 
L 397.908651 211.732335 
L 398.073627 240.283682 
L 398.23973 211.732335 
L 398.405269 240.283682 
L 398.487273 240.283682 
L 398.487273 240.283682 
" clip-path="url(#p63f45d9d4b)" style="fill: none; stroke: #1f77b4; stroke-width: 1.5; stroke-linecap: square"/>
   </g>
   <g id="patch_3">
    <path d="M 57.6 307.584 
L 57.6 41.472 
" style="fill: none; stroke: #000000; stroke-width: 0.8; stroke-linejoin: miter; stroke-linecap: square"/>
   </g>
   <g id="patch_4">
    <path d="M 414.72 307.584 
L 414.72 41.472 
" style="fill: none; stroke: #000000; stroke-width: 0.8; stroke-linejoin: miter; stroke-linecap: square"/>
   </g>
   <g id="patch_5">
    <path d="M 57.6 307.584 
L 414.72 307.584 
" style="fill: none; stroke: #000000; stroke-width: 0.8; stroke-linejoin: miter; stroke-linecap: square"/>
   </g>
   <g id="patch_6">
    <path d="M 57.6 41.472 
L 414.72 41.472 
" style="fill: none; stroke: #000000; stroke-width: 0.8; stroke-linejoin: miter; stroke-linecap: square"/>
   </g>
   <g id="text_20">
    <!-- Oskar-Tyholt-vinkel -->
    <g transform="translate(180.149063 35.472) scale(0.12 -0.12)">
     <defs>
      <path id="DejaVuSans-4f" d="M 2522 4238 
Q 1834 4238 1429 3725 
Q 1025 3213 1025 2328 
Q 1025 1447 1429 934 
Q 1834 422 2522 422 
Q 3209 422 3611 934 
Q 4013 1447 4013 2328 
Q 4013 3213 3611 3725 
Q 3209 4238 2522 4238 
z
M 2522 4750 
Q 3503 4750 4090 4092 
Q 4678 3434 4678 2328 
Q 4678 1225 4090 567 
Q 3503 -91 2522 -91 
Q 1538 -91 948 565 
Q 359 1222 359 2328 
Q 359 3434 948 4092 
Q 1538 4750 2522 4750 
z
" transform="scale(0.015625)"/>
      <path id="DejaVuSans-6b" d="M 581 4863 
L 1159 4863 
L 1159 1991 
L 2875 3500 
L 3609 3500 
L 1753 1863 
L 3688 0 
L 2938 0 
L 1159 1709 
L 1159 0 
L 581 0 
L 581 4863 
z
" transform="scale(0.015625)"/>
      <path id="DejaVuSans-61" d="M 2194 1759 
Q 1497 1759 1228 1600 
Q 959 1441 959 1056 
Q 959 750 1161 570 
Q 1363 391 1709 391 
Q 2188 391 2477 730 
Q 2766 1069 2766 1631 
L 2766 1759 
L 2194 1759 
z
M 3341 1997 
L 3341 0 
L 2766 0 
L 2766 531 
Q 2569 213 2275 61 
Q 1981 -91 1556 -91 
Q 1019 -91 701 211 
Q 384 513 384 1019 
Q 384 1609 779 1909 
Q 1175 2209 1959 2209 
L 2766 2209 
L 2766 2266 
Q 2766 2663 2505 2880 
Q 2244 3097 1772 3097 
Q 1472 3097 1187 3025 
Q 903 2953 641 2809 
L 641 3341 
Q 956 3463 1253 3523 
Q 1550 3584 1831 3584 
Q 2591 3584 2966 3190 
Q 3341 2797 3341 1997 
z
" transform="scale(0.015625)"/>
      <path id="DejaVuSans-72" d="M 2631 2963 
Q 2534 3019 2420 3045 
Q 2306 3072 2169 3072 
Q 1681 3072 1420 2755 
Q 1159 2438 1159 1844 
L 1159 0 
L 581 0 
L 581 3500 
L 1159 3500 
L 1159 2956 
Q 1341 3275 1631 3429 
Q 1922 3584 2338 3584 
Q 2397 3584 2469 3576 
Q 2541 3569 2628 3553 
L 2631 2963 
z
" transform="scale(0.015625)"/>
      <path id="DejaVuSans-2d" d="M 313 2009 
L 1997 2009 
L 1997 1497 
L 313 1497 
L 313 2009 
z
" transform="scale(0.015625)"/>
      <path id="DejaVuSans-54" d="M -19 4666 
L 3928 4666 
L 3928 4134 
L 2272 4134 
L 2272 0 
L 1638 0 
L 1638 4134 
L -19 4134 
L -19 4666 
z
" transform="scale(0.015625)"/>
      <path id="DejaVuSans-79" d="M 2059 -325 
Q 1816 -950 1584 -1140 
Q 1353 -1331 966 -1331 
L 506 -1331 
L 506 -850 
L 844 -850 
Q 1081 -850 1212 -737 
Q 1344 -625 1503 -206 
L 1606 56 
L 191 3500 
L 800 3500 
L 1894 763 
L 2988 3500 
L 3597 3500 
L 2059 -325 
z
" transform="scale(0.015625)"/>
      <path id="DejaVuSans-68" d="M 3513 2113 
L 3513 0 
L 2938 0 
L 2938 2094 
Q 2938 2591 2744 2837 
Q 2550 3084 2163 3084 
Q 1697 3084 1428 2787 
Q 1159 2491 1159 1978 
L 1159 0 
L 581 0 
L 581 4863 
L 1159 4863 
L 1159 2956 
Q 1366 3272 1645 3428 
Q 1925 3584 2291 3584 
Q 2894 3584 3203 3211 
Q 3513 2838 3513 2113 
z
" transform="scale(0.015625)"/>
      <path id="DejaVuSans-6f" d="M 1959 3097 
Q 1497 3097 1228 2736 
Q 959 2375 959 1747 
Q 959 1119 1226 758 
Q 1494 397 1959 397 
Q 2419 397 2687 759 
Q 2956 1122 2956 1747 
Q 2956 2369 2687 2733 
Q 2419 3097 1959 3097 
z
M 1959 3584 
Q 2709 3584 3137 3096 
Q 3566 2609 3566 1747 
Q 3566 888 3137 398 
Q 2709 -91 1959 -91 
Q 1206 -91 779 398 
Q 353 888 353 1747 
Q 353 2609 779 3096 
Q 1206 3584 1959 3584 
z
" transform="scale(0.015625)"/>
      <path id="DejaVuSans-6c" d="M 603 4863 
L 1178 4863 
L 1178 0 
L 603 0 
L 603 4863 
z
" transform="scale(0.015625)"/>
      <path id="DejaVuSans-76" d="M 191 3500 
L 800 3500 
L 1894 563 
L 2988 3500 
L 3597 3500 
L 2284 0 
L 1503 0 
L 191 3500 
z
" transform="scale(0.015625)"/>
      <path id="DejaVuSans-6e" d="M 3513 2113 
L 3513 0 
L 2938 0 
L 2938 2094 
Q 2938 2591 2744 2837 
Q 2550 3084 2163 3084 
Q 1697 3084 1428 2787 
Q 1159 2491 1159 1978 
L 1159 0 
L 581 0 
L 581 3500 
L 1159 3500 
L 1159 2956 
Q 1366 3272 1645 3428 
Q 1925 3584 2291 3584 
Q 2894 3584 3203 3211 
Q 3513 2838 3513 2113 
z
" transform="scale(0.015625)"/>
     </defs>
     <use xlink:href="#DejaVuSans-4f"/>
     <use xlink:href="#DejaVuSans-73" x="78.710938"/>
     <use xlink:href="#DejaVuSans-6b" x="130.810547"/>
     <use xlink:href="#DejaVuSans-61" x="186.970703"/>
     <use xlink:href="#DejaVuSans-72" x="248.25"/>
     <use xlink:href="#DejaVuSans-2d" x="282.988281"/>
     <use xlink:href="#DejaVuSans-54" x="309.947266"/>
     <use xlink:href="#DejaVuSans-79" x="355.40625"/>
     <use xlink:href="#DejaVuSans-68" x="414.585938"/>
     <use xlink:href="#DejaVuSans-6f" x="477.964844"/>
     <use xlink:href="#DejaVuSans-6c" x="539.146484"/>
     <use xlink:href="#DejaVuSans-74" x="566.929688"/>
     <use xlink:href="#DejaVuSans-2d" x="606.138672"/>
     <use xlink:href="#DejaVuSans-76" x="639.597656"/>
     <use xlink:href="#DejaVuSans-69" x="698.777344"/>
     <use xlink:href="#DejaVuSans-6e" x="726.560547"/>
     <use xlink:href="#DejaVuSans-6b" x="789.939453"/>
     <use xlink:href="#DejaVuSans-65" x="844.224609"/>
     <use xlink:href="#DejaVuSans-6c" x="905.748047"/>
    </g>
   </g>
   <g id="legend_1">
    <g id="patch_7">
     <path d="M 282.368438 64.150125 
L 407.72 64.150125 
Q 409.72 64.150125 409.72 62.150125 
L 409.72 48.472 
Q 409.72 46.472 407.72 46.472 
L 282.368438 46.472 
Q 280.368438 46.472 280.368438 48.472 
L 280.368438 62.150125 
Q 280.368438 64.150125 282.368438 64.150125 
z
" style="fill: #ffffff; opacity: 0.8; stroke: #cccccc; stroke-linejoin: miter"/>
    </g>
    <g id="line2d_19">
     <path d="M 284.368438 54.570438 
L 294.368438 54.570438 
L 304.368438 54.570438 
" style="fill: none; stroke: #1f77b4; stroke-width: 1.5; stroke-linecap: square"/>
    </g>
    <g id="text_21">
     <!-- Oskar-Tyholt-vinkel -->
     <g transform="translate(312.368438 58.070438) scale(0.1 -0.1)">
      <use xlink:href="#DejaVuSans-4f"/>
      <use xlink:href="#DejaVuSans-73" x="78.710938"/>
      <use xlink:href="#DejaVuSans-6b" x="130.810547"/>
      <use xlink:href="#DejaVuSans-61" x="186.970703"/>
      <use xlink:href="#DejaVuSans-72" x="248.25"/>
      <use xlink:href="#DejaVuSans-2d" x="282.988281"/>
      <use xlink:href="#DejaVuSans-54" x="309.947266"/>
      <use xlink:href="#DejaVuSans-79" x="355.40625"/>
      <use xlink:href="#DejaVuSans-68" x="414.585938"/>
      <use xlink:href="#DejaVuSans-6f" x="477.964844"/>
      <use xlink:href="#DejaVuSans-6c" x="539.146484"/>
      <use xlink:href="#DejaVuSans-74" x="566.929688"/>
      <use xlink:href="#DejaVuSans-2d" x="606.138672"/>
      <use xlink:href="#DejaVuSans-76" x="639.597656"/>
      <use xlink:href="#DejaVuSans-69" x="698.777344"/>
      <use xlink:href="#DejaVuSans-6e" x="726.560547"/>
      <use xlink:href="#DejaVuSans-6b" x="789.939453"/>
      <use xlink:href="#DejaVuSans-65" x="844.224609"/>
      <use xlink:href="#DejaVuSans-6c" x="905.748047"/>
     </g>
    </g>
   </g>
  </g>
 </g>
 <defs>
  <clipPath id="p63f45d9d4b">
   <rect x="57.6" y="41.472" width="357.12" height="266.112"/>
  </clipPath>
 </defs>
</svg>
