<?xml version="1.0" encoding="utf-8" standalone="no"?>
<!DOCTYPE svg PUBLIC "-//W3C//DTD SVG 1.1//EN"
  "http://www.w3.org/Graphics/SVG/1.1/DTD/svg11.dtd">
<svg xmlns:xlink="http://www.w3.org/1999/xlink" width="460.8pt" height="345.6pt" viewBox="0 0 460.8 345.6" xmlns="http://www.w3.org/2000/svg" version="1.1">
 <metadata>
  <rdf:RDF xmlns:dc="http://purl.org/dc/elements/1.1/" xmlns:cc="http://creativecommons.org/ns#" xmlns:rdf="http://www.w3.org/1999/02/22-rdf-syntax-ns#">
   <cc:Work>
    <dc:type rdf:resource="http://purl.org/dc/dcmitype/StillImage"/>
    <dc:date>2023-04-17T15:21:29.522444</dc:date>
    <dc:format>image/svg+xml</dc:format>
    <dc:creator>
     <cc:Agent>
      <dc:title>Matplotlib v3.7.1, https://matplotlib.org/</dc:title>
     </cc:Agent>
    </dc:creator>
   </cc:Work>
  </rdf:RDF>
 </metadata>
 <defs>
  <style type="text/css">*{stroke-linejoin: round; stroke-linecap: butt}</style>
 </defs>
 <g id="figure_1">
  <g id="patch_1">
   <path d="M 0 345.6 
L 460.8 345.6 
L 460.8 0 
L 0 0 
z
" style="fill: #ffffff"/>
  </g>
  <g id="axes_1">
   <g id="patch_2">
    <path d="M 57.6 307.584 
L 414.72 307.584 
L 414.72 41.472 
L 57.6 41.472 
z
" style="fill: #ffffff"/>
   </g>
   <g id="matplotlib.axis_1">
    <g id="xtick_1">
     <g id="line2d_1">
      <defs>
       <path id="m276a6ddcf9" d="M 0 0 
L 0 3.5 
" style="stroke: #000000; stroke-width: 0.8"/>
      </defs>
      <g>
       <use xlink:href="#m276a6ddcf9" x="103.603528" y="307.584" style="stroke: #000000; stroke-width: 0.8"/>
      </g>
     </g>
     <g id="text_1">
      <!-- 30 -->
      <g transform="translate(97.241028 322.182437) scale(0.1 -0.1)">
       <defs>
        <path id="DejaVuSans-33" d="M 2597 2516 
Q 3050 2419 3304 2112 
Q 3559 1806 3559 1356 
Q 3559 666 3084 287 
Q 2609 -91 1734 -91 
Q 1441 -91 1130 -33 
Q 819 25 488 141 
L 488 750 
Q 750 597 1062 519 
Q 1375 441 1716 441 
Q 2309 441 2620 675 
Q 2931 909 2931 1356 
Q 2931 1769 2642 2001 
Q 2353 2234 1838 2234 
L 1294 2234 
L 1294 2753 
L 1863 2753 
Q 2328 2753 2575 2939 
Q 2822 3125 2822 3475 
Q 2822 3834 2567 4026 
Q 2313 4219 1838 4219 
Q 1578 4219 1281 4162 
Q 984 4106 628 3988 
L 628 4550 
Q 988 4650 1302 4700 
Q 1616 4750 1894 4750 
Q 2613 4750 3031 4423 
Q 3450 4097 3450 3541 
Q 3450 3153 3228 2886 
Q 3006 2619 2597 2516 
z
" transform="scale(0.015625)"/>
        <path id="DejaVuSans-30" d="M 2034 4250 
Q 1547 4250 1301 3770 
Q 1056 3291 1056 2328 
Q 1056 1369 1301 889 
Q 1547 409 2034 409 
Q 2525 409 2770 889 
Q 3016 1369 3016 2328 
Q 3016 3291 2770 3770 
Q 2525 4250 2034 4250 
z
M 2034 4750 
Q 2819 4750 3233 4129 
Q 3647 3509 3647 2328 
Q 3647 1150 3233 529 
Q 2819 -91 2034 -91 
Q 1250 -91 836 529 
Q 422 1150 422 2328 
Q 422 3509 836 4129 
Q 1250 4750 2034 4750 
z
" transform="scale(0.015625)"/>
       </defs>
       <use xlink:href="#DejaVuSans-33"/>
       <use xlink:href="#DejaVuSans-30" x="63.623047"/>
      </g>
     </g>
    </g>
    <g id="xtick_2">
     <g id="line2d_2">
      <g>
       <use xlink:href="#m276a6ddcf9" x="172.827167" y="307.584" style="stroke: #000000; stroke-width: 0.8"/>
      </g>
     </g>
     <g id="text_2">
      <!-- 35 -->
      <g transform="translate(166.464667 322.182437) scale(0.1 -0.1)">
       <defs>
        <path id="DejaVuSans-35" d="M 691 4666 
L 3169 4666 
L 3169 4134 
L 1269 4134 
L 1269 2991 
Q 1406 3038 1543 3061 
Q 1681 3084 1819 3084 
Q 2600 3084 3056 2656 
Q 3513 2228 3513 1497 
Q 3513 744 3044 326 
Q 2575 -91 1722 -91 
Q 1428 -91 1123 -41 
Q 819 9 494 109 
L 494 744 
Q 775 591 1075 516 
Q 1375 441 1709 441 
Q 2250 441 2565 725 
Q 2881 1009 2881 1497 
Q 2881 1984 2565 2268 
Q 2250 2553 1709 2553 
Q 1456 2553 1204 2497 
Q 953 2441 691 2322 
L 691 4666 
z
" transform="scale(0.015625)"/>
       </defs>
       <use xlink:href="#DejaVuSans-33"/>
       <use xlink:href="#DejaVuSans-35" x="63.623047"/>
      </g>
     </g>
    </g>
    <g id="xtick_3">
     <g id="line2d_3">
      <g>
       <use xlink:href="#m276a6ddcf9" x="242.050806" y="307.584" style="stroke: #000000; stroke-width: 0.8"/>
      </g>
     </g>
     <g id="text_3">
      <!-- 40 -->
      <g transform="translate(235.688306 322.182437) scale(0.1 -0.1)">
       <defs>
        <path id="DejaVuSans-34" d="M 2419 4116 
L 825 1625 
L 2419 1625 
L 2419 4116 
z
M 2253 4666 
L 3047 4666 
L 3047 1625 
L 3713 1625 
L 3713 1100 
L 3047 1100 
L 3047 0 
L 2419 0 
L 2419 1100 
L 313 1100 
L 313 1709 
L 2253 4666 
z
" transform="scale(0.015625)"/>
       </defs>
       <use xlink:href="#DejaVuSans-34"/>
       <use xlink:href="#DejaVuSans-30" x="63.623047"/>
      </g>
     </g>
    </g>
    <g id="xtick_4">
     <g id="line2d_4">
      <g>
       <use xlink:href="#m276a6ddcf9" x="311.274444" y="307.584" style="stroke: #000000; stroke-width: 0.8"/>
      </g>
     </g>
     <g id="text_4">
      <!-- 45 -->
      <g transform="translate(304.911944 322.182437) scale(0.1 -0.1)">
       <use xlink:href="#DejaVuSans-34"/>
       <use xlink:href="#DejaVuSans-35" x="63.623047"/>
      </g>
     </g>
    </g>
    <g id="xtick_5">
     <g id="line2d_5">
      <g>
       <use xlink:href="#m276a6ddcf9" x="380.498083" y="307.584" style="stroke: #000000; stroke-width: 0.8"/>
      </g>
     </g>
     <g id="text_5">
      <!-- 50 -->
      <g transform="translate(374.135583 322.182437) scale(0.1 -0.1)">
       <use xlink:href="#DejaVuSans-35"/>
       <use xlink:href="#DejaVuSans-30" x="63.623047"/>
      </g>
     </g>
    </g>
    <g id="text_6">
     <!-- time [s] -->
     <g transform="translate(216.768594 335.860562) scale(0.1 -0.1)">
      <defs>
       <path id="DejaVuSans-74" d="M 1172 4494 
L 1172 3500 
L 2356 3500 
L 2356 3053 
L 1172 3053 
L 1172 1153 
Q 1172 725 1289 603 
Q 1406 481 1766 481 
L 2356 481 
L 2356 0 
L 1766 0 
Q 1100 0 847 248 
Q 594 497 594 1153 
L 594 3053 
L 172 3053 
L 172 3500 
L 594 3500 
L 594 4494 
L 1172 4494 
z
" transform="scale(0.015625)"/>
       <path id="DejaVuSans-69" d="M 603 3500 
L 1178 3500 
L 1178 0 
L 603 0 
L 603 3500 
z
M 603 4863 
L 1178 4863 
L 1178 4134 
L 603 4134 
L 603 4863 
z
" transform="scale(0.015625)"/>
       <path id="DejaVuSans-6d" d="M 3328 2828 
Q 3544 3216 3844 3400 
Q 4144 3584 4550 3584 
Q 5097 3584 5394 3201 
Q 5691 2819 5691 2113 
L 5691 0 
L 5113 0 
L 5113 2094 
Q 5113 2597 4934 2840 
Q 4756 3084 4391 3084 
Q 3944 3084 3684 2787 
Q 3425 2491 3425 1978 
L 3425 0 
L 2847 0 
L 2847 2094 
Q 2847 2600 2669 2842 
Q 2491 3084 2119 3084 
Q 1678 3084 1418 2786 
Q 1159 2488 1159 1978 
L 1159 0 
L 581 0 
L 581 3500 
L 1159 3500 
L 1159 2956 
Q 1356 3278 1631 3431 
Q 1906 3584 2284 3584 
Q 2666 3584 2933 3390 
Q 3200 3197 3328 2828 
z
" transform="scale(0.015625)"/>
       <path id="DejaVuSans-65" d="M 3597 1894 
L 3597 1613 
L 953 1613 
Q 991 1019 1311 708 
Q 1631 397 2203 397 
Q 2534 397 2845 478 
Q 3156 559 3463 722 
L 3463 178 
Q 3153 47 2828 -22 
Q 2503 -91 2169 -91 
Q 1331 -91 842 396 
Q 353 884 353 1716 
Q 353 2575 817 3079 
Q 1281 3584 2069 3584 
Q 2775 3584 3186 3129 
Q 3597 2675 3597 1894 
z
M 3022 2063 
Q 3016 2534 2758 2815 
Q 2500 3097 2075 3097 
Q 1594 3097 1305 2825 
Q 1016 2553 972 2059 
L 3022 2063 
z
" transform="scale(0.015625)"/>
       <path id="DejaVuSans-20" transform="scale(0.015625)"/>
       <path id="DejaVuSans-5b" d="M 550 4863 
L 1875 4863 
L 1875 4416 
L 1125 4416 
L 1125 -397 
L 1875 -397 
L 1875 -844 
L 550 -844 
L 550 4863 
z
" transform="scale(0.015625)"/>
       <path id="DejaVuSans-73" d="M 2834 3397 
L 2834 2853 
Q 2591 2978 2328 3040 
Q 2066 3103 1784 3103 
Q 1356 3103 1142 2972 
Q 928 2841 928 2578 
Q 928 2378 1081 2264 
Q 1234 2150 1697 2047 
L 1894 2003 
Q 2506 1872 2764 1633 
Q 3022 1394 3022 966 
Q 3022 478 2636 193 
Q 2250 -91 1575 -91 
Q 1294 -91 989 -36 
Q 684 19 347 128 
L 347 722 
Q 666 556 975 473 
Q 1284 391 1588 391 
Q 1994 391 2212 530 
Q 2431 669 2431 922 
Q 2431 1156 2273 1281 
Q 2116 1406 1581 1522 
L 1381 1569 
Q 847 1681 609 1914 
Q 372 2147 372 2553 
Q 372 3047 722 3315 
Q 1072 3584 1716 3584 
Q 2034 3584 2315 3537 
Q 2597 3491 2834 3397 
z
" transform="scale(0.015625)"/>
       <path id="DejaVuSans-5d" d="M 1947 4863 
L 1947 -844 
L 622 -844 
L 622 -397 
L 1369 -397 
L 1369 4416 
L 622 4416 
L 622 4863 
L 1947 4863 
z
" transform="scale(0.015625)"/>
      </defs>
      <use xlink:href="#DejaVuSans-74"/>
      <use xlink:href="#DejaVuSans-69" x="39.208984"/>
      <use xlink:href="#DejaVuSans-6d" x="66.992188"/>
      <use xlink:href="#DejaVuSans-65" x="164.404297"/>
      <use xlink:href="#DejaVuSans-20" x="225.927734"/>
      <use xlink:href="#DejaVuSans-5b" x="257.714844"/>
      <use xlink:href="#DejaVuSans-73" x="296.728516"/>
      <use xlink:href="#DejaVuSans-5d" x="348.828125"/>
     </g>
    </g>
   </g>
   <g id="matplotlib.axis_2">
    <g id="ytick_1">
     <g id="line2d_6">
      <defs>
       <path id="m5485fc0381" d="M 0 0 
L -3.5 0 
" style="stroke: #000000; stroke-width: 0.8"/>
      </defs>
      <g>
       <use xlink:href="#m5485fc0381" x="57.6" y="291.609375" style="stroke: #000000; stroke-width: 0.8"/>
      </g>
     </g>
     <g id="text_7">
      <!-- 277.5 -->
      <g transform="translate(21.971875 295.408594) scale(0.1 -0.1)">
       <defs>
        <path id="DejaVuSans-32" d="M 1228 531 
L 3431 531 
L 3431 0 
L 469 0 
L 469 531 
Q 828 903 1448 1529 
Q 2069 2156 2228 2338 
Q 2531 2678 2651 2914 
Q 2772 3150 2772 3378 
Q 2772 3750 2511 3984 
Q 2250 4219 1831 4219 
Q 1534 4219 1204 4116 
Q 875 4013 500 3803 
L 500 4441 
Q 881 4594 1212 4672 
Q 1544 4750 1819 4750 
Q 2544 4750 2975 4387 
Q 3406 4025 3406 3419 
Q 3406 3131 3298 2873 
Q 3191 2616 2906 2266 
Q 2828 2175 2409 1742 
Q 1991 1309 1228 531 
z
" transform="scale(0.015625)"/>
        <path id="DejaVuSans-37" d="M 525 4666 
L 3525 4666 
L 3525 4397 
L 1831 0 
L 1172 0 
L 2766 4134 
L 525 4134 
L 525 4666 
z
" transform="scale(0.015625)"/>
        <path id="DejaVuSans-2e" d="M 684 794 
L 1344 794 
L 1344 0 
L 684 0 
L 684 794 
z
" transform="scale(0.015625)"/>
       </defs>
       <use xlink:href="#DejaVuSans-32"/>
       <use xlink:href="#DejaVuSans-37" x="63.623047"/>
       <use xlink:href="#DejaVuSans-37" x="127.246094"/>
       <use xlink:href="#DejaVuSans-2e" x="190.869141"/>
       <use xlink:href="#DejaVuSans-35" x="222.65625"/>
      </g>
     </g>
    </g>
    <g id="ytick_2">
     <g id="line2d_7">
      <g>
       <use xlink:href="#m5485fc0381" x="57.6" y="250.9696" style="stroke: #000000; stroke-width: 0.8"/>
      </g>
     </g>
     <g id="text_8">
      <!-- 278.0 -->
      <g transform="translate(21.971875 254.768818) scale(0.1 -0.1)">
       <defs>
        <path id="DejaVuSans-38" d="M 2034 2216 
Q 1584 2216 1326 1975 
Q 1069 1734 1069 1313 
Q 1069 891 1326 650 
Q 1584 409 2034 409 
Q 2484 409 2743 651 
Q 3003 894 3003 1313 
Q 3003 1734 2745 1975 
Q 2488 2216 2034 2216 
z
M 1403 2484 
Q 997 2584 770 2862 
Q 544 3141 544 3541 
Q 544 4100 942 4425 
Q 1341 4750 2034 4750 
Q 2731 4750 3128 4425 
Q 3525 4100 3525 3541 
Q 3525 3141 3298 2862 
Q 3072 2584 2669 2484 
Q 3125 2378 3379 2068 
Q 3634 1759 3634 1313 
Q 3634 634 3220 271 
Q 2806 -91 2034 -91 
Q 1263 -91 848 271 
Q 434 634 434 1313 
Q 434 1759 690 2068 
Q 947 2378 1403 2484 
z
M 1172 3481 
Q 1172 3119 1398 2916 
Q 1625 2713 2034 2713 
Q 2441 2713 2670 2916 
Q 2900 3119 2900 3481 
Q 2900 3844 2670 4047 
Q 2441 4250 2034 4250 
Q 1625 4250 1398 4047 
Q 1172 3844 1172 3481 
z
" transform="scale(0.015625)"/>
       </defs>
       <use xlink:href="#DejaVuSans-32"/>
       <use xlink:href="#DejaVuSans-37" x="63.623047"/>
       <use xlink:href="#DejaVuSans-38" x="127.246094"/>
       <use xlink:href="#DejaVuSans-2e" x="190.869141"/>
       <use xlink:href="#DejaVuSans-30" x="222.65625"/>
      </g>
     </g>
    </g>
    <g id="ytick_3">
     <g id="line2d_8">
      <g>
       <use xlink:href="#m5485fc0381" x="57.6" y="210.329824" style="stroke: #000000; stroke-width: 0.8"/>
      </g>
     </g>
     <g id="text_9">
      <!-- 278.5 -->
      <g transform="translate(21.971875 214.129043) scale(0.1 -0.1)">
       <use xlink:href="#DejaVuSans-32"/>
       <use xlink:href="#DejaVuSans-37" x="63.623047"/>
       <use xlink:href="#DejaVuSans-38" x="127.246094"/>
       <use xlink:href="#DejaVuSans-2e" x="190.869141"/>
       <use xlink:href="#DejaVuSans-35" x="222.65625"/>
      </g>
     </g>
    </g>
    <g id="ytick_4">
     <g id="line2d_9">
      <g>
       <use xlink:href="#m5485fc0381" x="57.6" y="169.690048" style="stroke: #000000; stroke-width: 0.8"/>
      </g>
     </g>
     <g id="text_10">
      <!-- 279.0 -->
      <g transform="translate(21.971875 173.489267) scale(0.1 -0.1)">
       <defs>
        <path id="DejaVuSans-39" d="M 703 97 
L 703 672 
Q 941 559 1184 500 
Q 1428 441 1663 441 
Q 2288 441 2617 861 
Q 2947 1281 2994 2138 
Q 2813 1869 2534 1725 
Q 2256 1581 1919 1581 
Q 1219 1581 811 2004 
Q 403 2428 403 3163 
Q 403 3881 828 4315 
Q 1253 4750 1959 4750 
Q 2769 4750 3195 4129 
Q 3622 3509 3622 2328 
Q 3622 1225 3098 567 
Q 2575 -91 1691 -91 
Q 1453 -91 1209 -44 
Q 966 3 703 97 
z
M 1959 2075 
Q 2384 2075 2632 2365 
Q 2881 2656 2881 3163 
Q 2881 3666 2632 3958 
Q 2384 4250 1959 4250 
Q 1534 4250 1286 3958 
Q 1038 3666 1038 3163 
Q 1038 2656 1286 2365 
Q 1534 2075 1959 2075 
z
" transform="scale(0.015625)"/>
       </defs>
       <use xlink:href="#DejaVuSans-32"/>
       <use xlink:href="#DejaVuSans-37" x="63.623047"/>
       <use xlink:href="#DejaVuSans-39" x="127.246094"/>
       <use xlink:href="#DejaVuSans-2e" x="190.869141"/>
       <use xlink:href="#DejaVuSans-30" x="222.65625"/>
      </g>
     </g>
    </g>
    <g id="ytick_5">
     <g id="line2d_10">
      <g>
       <use xlink:href="#m5485fc0381" x="57.6" y="129.050273" style="stroke: #000000; stroke-width: 0.8"/>
      </g>
     </g>
     <g id="text_11">
      <!-- 279.5 -->
      <g transform="translate(21.971875 132.849491) scale(0.1 -0.1)">
       <use xlink:href="#DejaVuSans-32"/>
       <use xlink:href="#DejaVuSans-37" x="63.623047"/>
       <use xlink:href="#DejaVuSans-39" x="127.246094"/>
       <use xlink:href="#DejaVuSans-2e" x="190.869141"/>
       <use xlink:href="#DejaVuSans-35" x="222.65625"/>
      </g>
     </g>
    </g>
    <g id="ytick_6">
     <g id="line2d_11">
      <g>
       <use xlink:href="#m5485fc0381" x="57.6" y="88.410497" style="stroke: #000000; stroke-width: 0.8"/>
      </g>
     </g>
     <g id="text_12">
      <!-- 280.0 -->
      <g transform="translate(21.971875 92.209716) scale(0.1 -0.1)">
       <use xlink:href="#DejaVuSans-32"/>
       <use xlink:href="#DejaVuSans-38" x="63.623047"/>
       <use xlink:href="#DejaVuSans-30" x="127.246094"/>
       <use xlink:href="#DejaVuSans-2e" x="190.869141"/>
       <use xlink:href="#DejaVuSans-30" x="222.65625"/>
      </g>
     </g>
    </g>
    <g id="ytick_7">
     <g id="line2d_12">
      <g>
       <use xlink:href="#m5485fc0381" x="57.6" y="47.770721" style="stroke: #000000; stroke-width: 0.8"/>
      </g>
     </g>
     <g id="text_13">
      <!-- 280.5 -->
      <g transform="translate(21.971875 51.56994) scale(0.1 -0.1)">
       <use xlink:href="#DejaVuSans-32"/>
       <use xlink:href="#DejaVuSans-38" x="63.623047"/>
       <use xlink:href="#DejaVuSans-30" x="127.246094"/>
       <use xlink:href="#DejaVuSans-2e" x="190.869141"/>
       <use xlink:href="#DejaVuSans-35" x="222.65625"/>
      </g>
     </g>
    </g>
    <g id="text_14">
     <!-- $\theta$ [deg] -->
     <g transform="translate(15.871875 192.528) rotate(-90) scale(0.1 -0.1)">
      <defs>
       <path id="DejaVuSans-Oblique-3b8" d="M 2913 2219 
L 925 2219 
Q 791 1284 928 888 
Q 1100 400 1566 400 
Q 2034 400 2391 891 
Q 2703 1322 2913 2219 
z
M 3009 2750 
Q 3094 3638 2984 3950 
Q 2813 4444 2353 4444 
Q 1875 4444 1525 3956 
Q 1250 3563 1034 2750 
L 3009 2750 
z
M 2444 4913 
Q 3194 4913 3494 4250 
Q 3794 3591 3566 2422 
Q 3341 1256 2781 594 
Q 2225 -72 1475 -72 
Q 722 -72 425 594 
Q 128 1256 353 2422 
Q 581 3591 1134 4250 
Q 1691 4913 2444 4913 
z
" transform="scale(0.015625)"/>
       <path id="DejaVuSans-64" d="M 2906 2969 
L 2906 4863 
L 3481 4863 
L 3481 0 
L 2906 0 
L 2906 525 
Q 2725 213 2448 61 
Q 2172 -91 1784 -91 
Q 1150 -91 751 415 
Q 353 922 353 1747 
Q 353 2572 751 3078 
Q 1150 3584 1784 3584 
Q 2172 3584 2448 3432 
Q 2725 3281 2906 2969 
z
M 947 1747 
Q 947 1113 1208 752 
Q 1469 391 1925 391 
Q 2381 391 2643 752 
Q 2906 1113 2906 1747 
Q 2906 2381 2643 2742 
Q 2381 3103 1925 3103 
Q 1469 3103 1208 2742 
Q 947 2381 947 1747 
z
" transform="scale(0.015625)"/>
       <path id="DejaVuSans-67" d="M 2906 1791 
Q 2906 2416 2648 2759 
Q 2391 3103 1925 3103 
Q 1463 3103 1205 2759 
Q 947 2416 947 1791 
Q 947 1169 1205 825 
Q 1463 481 1925 481 
Q 2391 481 2648 825 
Q 2906 1169 2906 1791 
z
M 3481 434 
Q 3481 -459 3084 -895 
Q 2688 -1331 1869 -1331 
Q 1566 -1331 1297 -1286 
Q 1028 -1241 775 -1147 
L 775 -588 
Q 1028 -725 1275 -790 
Q 1522 -856 1778 -856 
Q 2344 -856 2625 -561 
Q 2906 -266 2906 331 
L 2906 616 
Q 2728 306 2450 153 
Q 2172 0 1784 0 
Q 1141 0 747 490 
Q 353 981 353 1791 
Q 353 2603 747 3093 
Q 1141 3584 1784 3584 
Q 2172 3584 2450 3431 
Q 2728 3278 2906 2969 
L 2906 3500 
L 3481 3500 
L 3481 434 
z
" transform="scale(0.015625)"/>
      </defs>
      <use xlink:href="#DejaVuSans-Oblique-3b8" transform="translate(0 0.234375)"/>
      <use xlink:href="#DejaVuSans-20" transform="translate(61.181641 0.234375)"/>
      <use xlink:href="#DejaVuSans-5b" transform="translate(92.96875 0.234375)"/>
      <use xlink:href="#DejaVuSans-64" transform="translate(131.982422 0.234375)"/>
      <use xlink:href="#DejaVuSans-65" transform="translate(195.458984 0.234375)"/>
      <use xlink:href="#DejaVuSans-67" transform="translate(256.982422 0.234375)"/>
      <use xlink:href="#DejaVuSans-5d" transform="translate(320.458984 0.234375)"/>
     </g>
    </g>
   </g>
   <g id="line2d_13">
    <path d="M 73.832727 217.632099 
L 74.659493 217.632099 
L 74.798009 240.95386 
L 75.213268 240.95386 
L 75.35148 213.589275 
L 75.491187 213.589275 
L 75.629427 240.95386 
L 77.428272 240.95386 
L 77.570901 237.303965 
L 77.706108 237.303965 
L 77.844113 262.892252 
L 78.25933 262.892252 
L 78.398386 237.303965 
L 78.813354 237.303965 
L 78.951358 240.95386 
L 79.369442 240.95386 
L 79.509453 266.405058 
L 80.225378 266.405058 
L 80.474375 240.95386 
L 80.751215 240.95386 
L 80.889731 244.840185 
L 83.520852 244.840185 
L 83.65876 270.145348 
L 84.627586 270.145348 
L 84.766573 273.579471 
L 86.842756 273.579471 
L 86.982657 270.145348 
L 89.057553 270.145348 
L 89.195889 244.840185 
L 89.335264 244.840185 
L 89.473075 248.408449 
L 91.55031 248.408449 
L 91.688909 221.344126 
L 93.767861 221.344126 
L 93.904717 217.632099 
L 96.534357 217.632099 
L 96.672499 244.840185 
L 97.088173 244.840185 
L 97.227285 240.95386 
L 98.475526 240.95386 
L 98.61119 266.405058 
L 99.580349 266.405058 
L 99.735604 240.95386 
L 99.870382 240.95386 
L 99.998418 244.840185 
L 100.965334 244.840185 
L 101.104113 270.145348 
L 101.520452 270.145348 
L 101.65703 248.408449 
L 101.795907 248.408449 
L 101.936597 273.579471 
L 102.902682 273.579471 
L 103.041323 248.408449 
L 103.179217 248.408449 
L 103.318038 273.579471 
L 104.853736 273.579471 
L 104.980568 270.145348 
L 105.408979 270.145348 
L 105.547579 273.579471 
L 105.672791 273.579471 
L 105.811196 248.408449 
L 105.948758 248.408449 
L 106.105743 273.579471 
L 106.253411 273.579471 
L 106.439138 270.145348 
L 108.717814 270.145348 
L 108.856829 266.405058 
L 109.271395 266.405058 
L 109.410175 270.145348 
L 109.547833 270.145348 
L 109.686668 244.840185 
L 110.662513 244.840185 
L 110.794606 217.632099 
L 110.932084 217.632099 
L 111.076319 244.840185 
L 112.871066 244.840185 
L 113.010081 217.632099 
L 113.148251 217.632099 
L 113.286394 248.408449 
L 115.364598 248.408449 
L 115.52355 244.840185 
L 115.669362 244.840185 
L 115.782751 248.408449 
L 116.469712 248.408449 
L 116.610029 244.840185 
L 118.131869 244.840185 
L 118.269776 270.145348 
L 119.794537 270.145348 
L 119.931946 248.408449 
L 122.008545 248.408449 
L 122.147061 244.840185 
L 122.285287 244.840185 
L 122.423499 217.632099 
L 125.054302 217.632099 
L 125.192112 213.589275 
L 127.271327 213.589275 
L 127.41055 209.792474 
L 127.546297 209.792474 
L 127.685672 184.28949 
L 127.822749 184.28949 
L 127.961473 180.313707 
L 128.099339 180.313707 
L 128.23834 205.953825 
L 128.376552 205.953825 
L 128.515345 180.313707 
L 129.208952 180.313707 
L 129.34589 154.717633 
L 130.041685 154.717633 
L 130.177723 158.829837 
L 131.145913 158.829837 
L 131.284194 131.461706 
L 134.414819 131.461706 
L 134.607565 106.096339 
L 135.575298 106.096339 
L 135.730816 131.461706 
L 136.683984 131.461706 
L 136.822251 106.096339 
L 137.239074 106.096339 
L 137.376497 131.461706 
L 138.068443 131.461706 
L 138.207762 127.203407 
L 139.178693 127.203407 
L 139.314579 131.461706 
L 140.30078 131.461706 
L 140.421991 106.096339 
L 140.559912 106.096339 
L 140.698567 131.461706 
L 140.836585 131.461706 
L 140.975766 110.441959 
L 141.133056 110.441959 
L 141.255208 131.461706 
L 141.669553 131.461706 
L 141.807544 135.673827 
L 141.945811 135.673827 
L 142.083511 131.461706 
L 144.160192 131.461706 
L 144.300938 110.441959 
L 144.437779 110.441959 
L 144.575479 135.673827 
L 144.714272 135.673827 
L 144.852512 131.461706 
L 146.098994 131.461706 
L 146.236735 106.096339 
L 146.652063 106.096339 
L 146.791521 131.461706 
L 148.590962 131.461706 
L 148.732815 127.203407 
L 148.86776 127.203407 
L 149.005971 131.461706 
L 149.976252 131.461706 
L 150.138332 106.096339 
L 150.528739 106.096339 
L 150.667533 110.441959 
L 151.637037 110.441959 
L 151.774543 85.256943 
L 152.193014 85.256943 
L 152.334922 110.441959 
L 152.746692 110.441959 
L 152.882952 85.256943 
L 153.02511 85.256943 
L 153.166215 110.441959 
L 155.240571 110.441959 
L 155.375003 115.069535 
L 156.066506 115.069535 
L 156.205105 110.441959 
L 156.619824 110.441959 
L 156.758631 135.673827 
L 158.005058 135.673827 
L 158.142495 131.461706 
L 158.28187 131.461706 
L 158.419749 158.829837 
L 159.666606 158.829837 
L 159.805247 135.673827 
L 159.943957 135.673827 
L 160.081934 162.897362 
L 160.219218 162.897362 
L 160.357499 135.673827 
L 163.542396 135.673827 
L 163.680663 162.897362 
L 163.819484 162.897362 
L 163.957156 158.829837 
L 166.034488 158.829837 
L 166.172451 131.461706 
L 166.311563 131.461706 
L 166.450771 158.829837 
L 167.144891 158.829837 
L 167.280209 154.717633 
L 168.526844 154.717633 
L 168.66536 175.982897 
L 168.803517 175.982897 
L 168.94249 154.717633 
L 169.080176 154.717633 
L 169.218346 150.238308 
L 169.63499 150.238308 
L 169.773658 154.717633 
L 170.741626 154.717633 
L 170.881029 127.203407 
L 171.295692 127.203407 
L 171.434278 131.461706 
L 172.404364 131.461706 
L 172.54241 106.096339 
L 172.974587 106.096339 
L 173.11273 131.461706 
L 173.235422 131.461706 
L 173.372665 106.096339 
L 176.002388 106.096339 
L 176.141112 85.256943 
L 176.279656 85.256943 
L 176.419543 80.778585 
L 178.217585 80.778585 
L 178.36434 106.096339 
L 178.51911 106.096339 
L 178.633232 101.703165 
L 179.879244 101.703165 
L 180.018272 106.096339 
L 181.540971 106.096339 
L 181.678684 80.778585 
L 181.817215 80.778585 
L 181.955856 85.256943 
L 182.64992 85.256943 
L 182.787827 80.778585 
L 183.202089 80.778585 
L 183.341104 106.096339 
L 189.017636 106.096339 
L 189.155668 101.703165 
L 190.124093 101.703165 
L 190.262665 106.096339 
L 191.233028 106.096339 
L 191.381333 110.441959 
L 193.724539 110.441959 
L 193.863637 85.256943 
L 194.833211 85.256943 
L 194.990321 110.441959 
L 198.432193 110.441959 
L 198.581043 131.461706 
L 199.541212 131.461706 
L 199.678979 106.096339 
L 200.64762 106.096339 
L 200.78555 110.441959 
L 201.487335 110.441959 
L 201.620949 115.069535 
L 202.30944 115.069535 
L 202.44742 140.159149 
L 202.866823 140.159149 
L 203.003705 135.673827 
L 203.421208 135.673827 
L 203.556968 140.159149 
L 203.69401 140.159149 
L 203.831955 135.673827 
L 204.523029 135.673827 
L 204.661426 140.159149 
L 205.077281 140.159149 
L 205.215294 135.673827 
L 206.462114 135.673827 
L 206.599926 162.897362 
L 208.676909 162.897362 
L 208.815905 158.829837 
L 209.783836 158.829837 
L 209.922251 131.461706 
L 211.168989 131.461706 
L 211.30721 135.673827 
L 211.445634 135.673827 
L 211.583502 110.441959 
L 213.106785 110.441959 
L 213.245176 85.256943 
L 215.322195 85.256943 
L 215.460425 58.188435 
L 215.599179 58.188435 
L 215.737766 85.256943 
L 216.429564 85.256943 
L 216.567885 53.568 
L 216.706635 53.568 
L 216.844978 80.778585 
L 217.813953 80.778585 
L 217.952426 76.251314 
L 218.922678 76.251314 
L 219.062952 101.703165 
L 219.200063 101.703165 
L 219.338756 96.917996 
L 220.029914 96.917996 
L 220.168297 101.703165 
L 220.30631 101.703165 
L 220.444568 76.251314 
L 221.421658 76.251314 
L 221.558025 80.778585 
L 221.969011 80.778585 
L 222.106775 106.096339 
L 222.660947 106.096339 
L 222.799076 80.778585 
L 223.846818 80.778585 
L 224.046085 106.096339 
L 225.982062 106.096339 
L 226.142703 131.461706 
L 226.814393 131.461706 
L 226.95518 135.673827 
L 227.920753 135.673827 
L 228.060668 162.897362 
L 228.751506 162.897362 
L 228.888804 184.28949 
L 229.305046 184.28949 
L 229.444601 209.792474 
L 229.585208 209.792474 
L 229.720845 184.28949 
L 229.858295 184.28949 
L 229.996701 209.792474 
L 230.967438 209.792474 
L 231.105027 213.589275 
L 232.351025 213.589275 
L 232.488406 188.222001 
L 235.950751 188.222001 
L 236.089406 162.897362 
L 236.228088 162.897362 
L 236.370398 158.829837 
L 238.995954 158.829837 
L 239.136201 154.717633 
L 240.381839 154.717633 
L 240.519262 127.203407 
L 240.934437 127.203407 
L 241.074795 131.461706 
L 241.765703 131.461706 
L 241.904122 106.096339 
L 242.042888 106.096339 
L 242.183952 110.441959 
L 243.426488 110.441959 
L 243.565268 135.673827 
L 243.705349 135.673827 
L 243.843242 110.441959 
L 244.810975 110.441959 
L 244.965967 135.673827 
L 245.088243 135.673827 
L 245.226345 115.069535 
L 245.365152 115.069535 
L 245.502602 110.441959 
L 245.642005 110.441959 
L 245.779538 115.069535 
L 245.918678 115.069535 
L 246.056585 110.441959 
L 246.242658 110.441959 
L 246.472758 135.673827 
L 246.750538 135.673827 
L 246.887809 140.159149 
L 248.13472 140.159149 
L 248.272531 135.673827 
L 248.964684 135.673827 
L 249.102619 162.897362 
L 250.348742 162.897362 
L 250.493087 188.222001 
L 251.45704 188.222001 
L 251.622623 167.228617 
L 254.505967 167.228617 
L 254.641272 192.409408 
L 256.052894 192.409408 
L 256.237389 217.632099 
L 256.719047 217.632099 
L 256.85676 221.344126 
L 256.994017 221.344126 
L 257.132229 217.632099 
L 257.270579 217.632099 
L 257.42391 221.344126 
L 257.824701 221.344126 
L 257.965169 217.632099 
L 258.378697 217.632099 
L 258.517851 244.840185 
L 258.932265 244.840185 
L 259.072055 217.632099 
L 260.040799 217.632099 
L 260.203972 213.589275 
L 260.323522 213.589275 
L 260.455725 244.840185 
L 260.594781 244.840185 
L 260.732093 217.632099 
L 261.424607 217.632099 
L 261.592972 221.344126 
L 262.261133 221.344126 
L 262.410974 196.254258 
L 263.91771 196.254258 
L 264.054814 167.228617 
L 265.301698 167.228617 
L 265.440962 171.205623 
L 265.865386 171.205623 
L 265.994336 167.228617 
L 266.685825 167.228617 
L 266.825518 140.159149 
L 267.239655 140.159149 
L 267.378324 167.228617 
L 268.902324 167.228617 
L 269.03929 188.222001 
L 271.119267 188.222001 
L 271.255402 162.897362 
L 271.392838 162.897362 
L 271.530829 167.228617 
L 273.33182 167.228617 
L 273.469409 140.159149 
L 273.884917 140.159149 
L 274.023835 167.228617 
L 274.438969 167.228617 
L 274.577264 140.159149 
L 274.992675 140.159149 
L 275.133172 135.673827 
L 278.067534 135.673827 
L 278.315133 110.441959 
L 278.486849 135.673827 
L 278.870445 135.673827 
L 279.007965 131.461706 
L 279.422628 131.461706 
L 279.562017 158.829837 
L 279.70009 158.829837 
L 279.837818 154.717633 
L 279.97657 154.717633 
L 280.114934 127.203407 
L 280.255998 127.203407 
L 280.391773 154.717633 
L 281.084702 154.717633 
L 281.222166 158.829837 
L 284.129849 158.829837 
L 284.269737 162.897362 
L 288.2845 162.897362 
L 288.421881 188.222001 
L 288.838428 188.222001 
L 288.976418 184.28949 
L 291.329662 184.28949 
L 291.467583 188.222001 
L 292.990337 188.222001 
L 293.130072 184.28949 
L 295.482485 184.28949 
L 295.621472 158.829837 
L 298.528408 158.829837 
L 298.666467 184.28949 
L 298.80551 184.28949 
L 298.944539 158.829837 
L 299.082557 158.829837 
L 299.220409 154.717633 
L 299.359396 154.717633 
L 299.499588 180.313707 
L 299.636263 180.313707 
L 299.774267 154.717633 
L 299.91295 154.717633 
L 300.051563 180.313707 
L 300.743813 180.313707 
L 300.882053 184.28949 
L 301.020514 184.28949 
L 301.159003 158.829837 
L 302.127705 158.829837 
L 302.265847 131.461706 
L 302.407936 131.461706 
L 302.544085 135.673827 
L 302.959524 135.673827 
L 303.097389 162.897362 
L 303.235269 162.897362 
L 303.375862 135.673827 
L 303.790373 135.673827 
L 303.928073 162.897362 
L 304.066368 162.897362 
L 304.204926 135.673827 
L 304.619894 135.673827 
L 304.760114 110.441959 
L 304.897052 110.441959 
L 305.035305 115.069535 
L 305.72858 115.069535 
L 305.867789 110.441959 
L 306.558378 110.441959 
L 306.697434 85.256943 
L 309.050789 85.256943 
L 309.191437 80.778585 
L 310.158422 80.778585 
L 310.296219 106.096339 
L 311.266083 106.096339 
L 311.404046 80.778585 
L 311.542632 80.778585 
L 311.680733 106.096339 
L 311.820108 106.096339 
L 311.959427 85.256943 
L 312.37416 85.256943 
L 312.511112 110.441959 
L 313.203542 110.441959 
L 313.343097 106.096339 
L 313.4807 106.096339 
L 313.620241 110.441959 
L 313.767701 110.441959 
L 313.896942 131.461706 
L 314.035347 131.461706 
L 314.173988 135.673827 
L 314.589053 135.673827 
L 314.727362 106.096339 
L 314.865505 106.096339 
L 315.003911 135.673827 
L 315.419128 135.673827 
L 315.558586 131.461706 
L 316.803504 131.461706 
L 316.94148 158.829837 
L 317.357584 158.829837 
L 317.495463 162.897362 
L 318.466089 162.897362 
L 318.602862 135.673827 
L 319.018771 135.673827 
L 319.1569 162.897362 
L 319.849524 162.897362 
L 319.988303 158.829837 
L 321.234398 158.829837 
L 321.372112 162.897362 
L 322.343582 162.897362 
L 322.479981 167.228617 
L 323.451064 167.228617 
L 323.587143 171.205623 
L 326.771445 171.205623 
L 326.91327 196.254258 
L 327.22288 196.254258 
L 327.399262 200.057934 
L 327.880726 200.057934 
L 328.024157 196.254258 
L 328.157953 196.254258 
L 328.304693 221.344126 
L 328.433324 221.344126 
L 328.571121 225.016337 
L 328.709651 225.016337 
L 328.849095 221.344126 
L 329.272689 221.344126 
L 329.402317 200.057934 
L 329.542065 200.057934 
L 329.69487 196.254258 
L 329.818351 196.254258 
L 329.957601 221.344126 
L 330.374147 221.344126 
L 330.510684 217.632099 
L 332.586936 217.632099 
L 332.724968 221.344126 
L 333.422812 221.344126 
L 333.568458 217.632099 
L 334.990561 217.632099 
L 335.217213 244.840185 
L 336.740812 244.840185 
L 336.878373 248.408449 
L 337.294504 248.408449 
L 337.431927 244.840185 
L 338.40222 244.840185 
L 338.540322 248.408449 
L 338.67888 248.408449 
L 338.817673 244.840185 
L 338.955857 244.840185 
L 339.103774 270.145348 
L 340.086542 270.145348 
L 340.208113 291.894408 
L 341.210942 291.894408 
L 341.455675 295.488 
L 342.556926 295.488 
L 342.693075 270.145348 
L 342.831786 270.145348 
L 342.970219 273.579471 
L 343.940028 273.579471 
L 344.086118 270.145348 
L 344.253902 270.145348 
L 344.496462 244.840185 
L 346.708794 244.840185 
L 346.846937 270.145348 
L 347.262625 270.145348 
L 347.40038 244.840185 
L 348.370452 244.840185 
L 348.510132 217.632099 
L 349.20108 217.632099 
L 349.34076 213.589275 
L 350.032082 213.589275 
L 350.168965 209.792474 
L 351.69237 209.792474 
L 351.831869 184.28949 
L 352.799519 184.28949 
L 352.939877 158.829837 
L 354.186013 158.829837 
L 354.325983 131.461706 
L 354.461468 131.461706 
L 354.601701 158.829837 
L 354.738819 158.829837 
L 354.87645 131.461706 
L 356.122683 131.461706 
L 356.26095 106.096339 
L 356.399702 106.096339 
L 356.617992 135.673827 
L 357.231009 135.673827 
L 357.368611 131.461706 
L 357.535966 131.461706 
L 357.784438 162.897362 
L 358.33867 162.897362 
L 358.476716 135.673827 
L 358.891435 135.673827 
L 359.030436 162.897362 
L 360.276447 162.897362 
L 360.414631 158.829837 
L 361.384565 158.829837 
L 361.521601 162.897362 
L 362.770561 162.897362 
L 362.907167 140.159149 
L 363.599182 140.159149 
L 363.736868 167.228617 
L 364.984444 167.228617 
L 365.135781 140.159149 
L 369.13645 140.159149 
L 369.275368 167.228617 
L 369.412929 167.228617 
L 369.551999 162.897362 
L 372.737464 162.897362 
L 372.874166 135.673827 
L 374.674632 135.673827 
L 374.813328 110.441959 
L 376.336138 110.441959 
L 376.47482 115.069535 
L 378.5511 115.069535 
L 378.689381 110.441959 
L 379.658997 110.441959 
L 379.79696 135.673827 
L 380.491106 135.673827 
L 380.627948 131.461706 
L 381.05485 131.461706 
L 381.181889 135.673827 
L 383.260107 135.673827 
L 383.396395 162.897362 
L 383.535673 162.897362 
L 383.673483 135.673827 
L 389.350625 135.673827 
L 389.48831 131.461706 
L 390.736343 131.461706 
L 390.873434 127.203407 
L 391.56693 127.203407 
L 391.705641 101.703165 
L 392.396492 101.703165 
L 392.534981 106.096339 
L 395.165826 106.096339 
L 395.303581 110.441959 
L 396.826058 110.441959 
L 396.965197 115.069535 
L 397.102869 115.069535 
L 397.244625 140.159149 
L 398.487273 140.159149 
L 398.487273 140.159149 
" clip-path="url(#p7d1495ffa4)" style="fill: none; stroke: #1f77b4; stroke-width: 1.5; stroke-linecap: square"/>
   </g>
   <g id="patch_3">
    <path d="M 57.6 307.584 
L 57.6 41.472 
" style="fill: none; stroke: #000000; stroke-width: 0.8; stroke-linejoin: miter; stroke-linecap: square"/>
   </g>
   <g id="patch_4">
    <path d="M 414.72 307.584 
L 414.72 41.472 
" style="fill: none; stroke: #000000; stroke-width: 0.8; stroke-linejoin: miter; stroke-linecap: square"/>
   </g>
   <g id="patch_5">
    <path d="M 57.6 307.584 
L 414.72 307.584 
" style="fill: none; stroke: #000000; stroke-width: 0.8; stroke-linejoin: miter; stroke-linecap: square"/>
   </g>
   <g id="patch_6">
    <path d="M 57.6 41.472 
L 414.72 41.472 
" style="fill: none; stroke: #000000; stroke-width: 0.8; stroke-linejoin: miter; stroke-linecap: square"/>
   </g>
   <g id="text_15">
    <!-- Oskar-Tyholt_restart-vinkel -->
    <g transform="translate(157.152187 35.472) scale(0.12 -0.12)">
     <defs>
      <path id="DejaVuSans-4f" d="M 2522 4238 
Q 1834 4238 1429 3725 
Q 1025 3213 1025 2328 
Q 1025 1447 1429 934 
Q 1834 422 2522 422 
Q 3209 422 3611 934 
Q 4013 1447 4013 2328 
Q 4013 3213 3611 3725 
Q 3209 4238 2522 4238 
z
M 2522 4750 
Q 3503 4750 4090 4092 
Q 4678 3434 4678 2328 
Q 4678 1225 4090 567 
Q 3503 -91 2522 -91 
Q 1538 -91 948 565 
Q 359 1222 359 2328 
Q 359 3434 948 4092 
Q 1538 4750 2522 4750 
z
" transform="scale(0.015625)"/>
      <path id="DejaVuSans-6b" d="M 581 4863 
L 1159 4863 
L 1159 1991 
L 2875 3500 
L 3609 3500 
L 1753 1863 
L 3688 0 
L 2938 0 
L 1159 1709 
L 1159 0 
L 581 0 
L 581 4863 
z
" transform="scale(0.015625)"/>
      <path id="DejaVuSans-61" d="M 2194 1759 
Q 1497 1759 1228 1600 
Q 959 1441 959 1056 
Q 959 750 1161 570 
Q 1363 391 1709 391 
Q 2188 391 2477 730 
Q 2766 1069 2766 1631 
L 2766 1759 
L 2194 1759 
z
M 3341 1997 
L 3341 0 
L 2766 0 
L 2766 531 
Q 2569 213 2275 61 
Q 1981 -91 1556 -91 
Q 1019 -91 701 211 
Q 384 513 384 1019 
Q 384 1609 779 1909 
Q 1175 2209 1959 2209 
L 2766 2209 
L 2766 2266 
Q 2766 2663 2505 2880 
Q 2244 3097 1772 3097 
Q 1472 3097 1187 3025 
Q 903 2953 641 2809 
L 641 3341 
Q 956 3463 1253 3523 
Q 1550 3584 1831 3584 
Q 2591 3584 2966 3190 
Q 3341 2797 3341 1997 
z
" transform="scale(0.015625)"/>
      <path id="DejaVuSans-72" d="M 2631 2963 
Q 2534 3019 2420 3045 
Q 2306 3072 2169 3072 
Q 1681 3072 1420 2755 
Q 1159 2438 1159 1844 
L 1159 0 
L 581 0 
L 581 3500 
L 1159 3500 
L 1159 2956 
Q 1341 3275 1631 3429 
Q 1922 3584 2338 3584 
Q 2397 3584 2469 3576 
Q 2541 3569 2628 3553 
L 2631 2963 
z
" transform="scale(0.015625)"/>
      <path id="DejaVuSans-2d" d="M 313 2009 
L 1997 2009 
L 1997 1497 
L 313 1497 
L 313 2009 
z
" transform="scale(0.015625)"/>
      <path id="DejaVuSans-54" d="M -19 4666 
L 3928 4666 
L 3928 4134 
L 2272 4134 
L 2272 0 
L 1638 0 
L 1638 4134 
L -19 4134 
L -19 4666 
z
" transform="scale(0.015625)"/>
      <path id="DejaVuSans-79" d="M 2059 -325 
Q 1816 -950 1584 -1140 
Q 1353 -1331 966 -1331 
L 506 -1331 
L 506 -850 
L 844 -850 
Q 1081 -850 1212 -737 
Q 1344 -625 1503 -206 
L 1606 56 
L 191 3500 
L 800 3500 
L 1894 763 
L 2988 3500 
L 3597 3500 
L 2059 -325 
z
" transform="scale(0.015625)"/>
      <path id="DejaVuSans-68" d="M 3513 2113 
L 3513 0 
L 2938 0 
L 2938 2094 
Q 2938 2591 2744 2837 
Q 2550 3084 2163 3084 
Q 1697 3084 1428 2787 
Q 1159 2491 1159 1978 
L 1159 0 
L 581 0 
L 581 4863 
L 1159 4863 
L 1159 2956 
Q 1366 3272 1645 3428 
Q 1925 3584 2291 3584 
Q 2894 3584 3203 3211 
Q 3513 2838 3513 2113 
z
" transform="scale(0.015625)"/>
      <path id="DejaVuSans-6f" d="M 1959 3097 
Q 1497 3097 1228 2736 
Q 959 2375 959 1747 
Q 959 1119 1226 758 
Q 1494 397 1959 397 
Q 2419 397 2687 759 
Q 2956 1122 2956 1747 
Q 2956 2369 2687 2733 
Q 2419 3097 1959 3097 
z
M 1959 3584 
Q 2709 3584 3137 3096 
Q 3566 2609 3566 1747 
Q 3566 888 3137 398 
Q 2709 -91 1959 -91 
Q 1206 -91 779 398 
Q 353 888 353 1747 
Q 353 2609 779 3096 
Q 1206 3584 1959 3584 
z
" transform="scale(0.015625)"/>
      <path id="DejaVuSans-6c" d="M 603 4863 
L 1178 4863 
L 1178 0 
L 603 0 
L 603 4863 
z
" transform="scale(0.015625)"/>
      <path id="DejaVuSans-5f" d="M 3263 -1063 
L 3263 -1509 
L -63 -1509 
L -63 -1063 
L 3263 -1063 
z
" transform="scale(0.015625)"/>
      <path id="DejaVuSans-76" d="M 191 3500 
L 800 3500 
L 1894 563 
L 2988 3500 
L 3597 3500 
L 2284 0 
L 1503 0 
L 191 3500 
z
" transform="scale(0.015625)"/>
      <path id="DejaVuSans-6e" d="M 3513 2113 
L 3513 0 
L 2938 0 
L 2938 2094 
Q 2938 2591 2744 2837 
Q 2550 3084 2163 3084 
Q 1697 3084 1428 2787 
Q 1159 2491 1159 1978 
L 1159 0 
L 581 0 
L 581 3500 
L 1159 3500 
L 1159 2956 
Q 1366 3272 1645 3428 
Q 1925 3584 2291 3584 
Q 2894 3584 3203 3211 
Q 3513 2838 3513 2113 
z
" transform="scale(0.015625)"/>
     </defs>
     <use xlink:href="#DejaVuSans-4f"/>
     <use xlink:href="#DejaVuSans-73" x="78.710938"/>
     <use xlink:href="#DejaVuSans-6b" x="130.810547"/>
     <use xlink:href="#DejaVuSans-61" x="186.970703"/>
     <use xlink:href="#DejaVuSans-72" x="248.25"/>
     <use xlink:href="#DejaVuSans-2d" x="282.988281"/>
     <use xlink:href="#DejaVuSans-54" x="309.947266"/>
     <use xlink:href="#DejaVuSans-79" x="355.40625"/>
     <use xlink:href="#DejaVuSans-68" x="414.585938"/>
     <use xlink:href="#DejaVuSans-6f" x="477.964844"/>
     <use xlink:href="#DejaVuSans-6c" x="539.146484"/>
     <use xlink:href="#DejaVuSans-74" x="566.929688"/>
     <use xlink:href="#DejaVuSans-5f" x="606.138672"/>
     <use xlink:href="#DejaVuSans-72" x="656.138672"/>
     <use xlink:href="#DejaVuSans-65" x="695.001953"/>
     <use xlink:href="#DejaVuSans-73" x="756.525391"/>
     <use xlink:href="#DejaVuSans-74" x="808.625"/>
     <use xlink:href="#DejaVuSans-61" x="847.833984"/>
     <use xlink:href="#DejaVuSans-72" x="909.113281"/>
     <use xlink:href="#DejaVuSans-74" x="950.226562"/>
     <use xlink:href="#DejaVuSans-2d" x="989.435547"/>
     <use xlink:href="#DejaVuSans-76" x="1022.894531"/>
     <use xlink:href="#DejaVuSans-69" x="1082.074219"/>
     <use xlink:href="#DejaVuSans-6e" x="1109.857422"/>
     <use xlink:href="#DejaVuSans-6b" x="1173.236328"/>
     <use xlink:href="#DejaVuSans-65" x="1227.521484"/>
     <use xlink:href="#DejaVuSans-6c" x="1289.044922"/>
    </g>
   </g>
   <g id="legend_1">
    <g id="patch_7">
     <path d="M 244.040312 64.42825 
L 407.72 64.42825 
Q 409.72 64.42825 409.72 62.42825 
L 409.72 48.472 
Q 409.72 46.472 407.72 46.472 
L 244.040312 46.472 
Q 242.040312 46.472 242.040312 48.472 
L 242.040312 62.42825 
Q 242.040312 64.42825 244.040312 64.42825 
z
" style="fill: #ffffff; opacity: 0.8; stroke: #cccccc; stroke-linejoin: miter"/>
    </g>
    <g id="line2d_14">
     <path d="M 246.040312 54.570437 
L 256.040313 54.570437 
L 266.040313 54.570437 
" style="fill: none; stroke: #1f77b4; stroke-width: 1.5; stroke-linecap: square"/>
    </g>
    <g id="text_16">
     <!-- Oskar-Tyholt_restart-vinkel -->
     <g transform="translate(274.040313 58.070437) scale(0.1 -0.1)">
      <use xlink:href="#DejaVuSans-4f"/>
      <use xlink:href="#DejaVuSans-73" x="78.710938"/>
      <use xlink:href="#DejaVuSans-6b" x="130.810547"/>
      <use xlink:href="#DejaVuSans-61" x="186.970703"/>
      <use xlink:href="#DejaVuSans-72" x="248.25"/>
      <use xlink:href="#DejaVuSans-2d" x="282.988281"/>
      <use xlink:href="#DejaVuSans-54" x="309.947266"/>
      <use xlink:href="#DejaVuSans-79" x="355.40625"/>
      <use xlink:href="#DejaVuSans-68" x="414.585938"/>
      <use xlink:href="#DejaVuSans-6f" x="477.964844"/>
      <use xlink:href="#DejaVuSans-6c" x="539.146484"/>
      <use xlink:href="#DejaVuSans-74" x="566.929688"/>
      <use xlink:href="#DejaVuSans-5f" x="606.138672"/>
      <use xlink:href="#DejaVuSans-72" x="656.138672"/>
      <use xlink:href="#DejaVuSans-65" x="695.001953"/>
      <use xlink:href="#DejaVuSans-73" x="756.525391"/>
      <use xlink:href="#DejaVuSans-74" x="808.625"/>
      <use xlink:href="#DejaVuSans-61" x="847.833984"/>
      <use xlink:href="#DejaVuSans-72" x="909.113281"/>
      <use xlink:href="#DejaVuSans-74" x="950.226562"/>
      <use xlink:href="#DejaVuSans-2d" x="989.435547"/>
      <use xlink:href="#DejaVuSans-76" x="1022.894531"/>
      <use xlink:href="#DejaVuSans-69" x="1082.074219"/>
      <use xlink:href="#DejaVuSans-6e" x="1109.857422"/>
      <use xlink:href="#DejaVuSans-6b" x="1173.236328"/>
      <use xlink:href="#DejaVuSans-65" x="1227.521484"/>
      <use xlink:href="#DejaVuSans-6c" x="1289.044922"/>
     </g>
    </g>
   </g>
  </g>
 </g>
 <defs>
  <clipPath id="p7d1495ffa4">
   <rect x="57.6" y="41.472" width="357.12" height="266.112"/>
  </clipPath>
 </defs>
</svg>
