<?xml version="1.0" encoding="utf-8" standalone="no"?>
<!DOCTYPE svg PUBLIC "-//W3C//DTD SVG 1.1//EN"
  "http://www.w3.org/Graphics/SVG/1.1/DTD/svg11.dtd">
<svg xmlns:xlink="http://www.w3.org/1999/xlink" width="638.44274pt" height="458.691562pt" viewBox="0 0 638.44274 458.691562" xmlns="http://www.w3.org/2000/svg" version="1.1">
 <metadata>
  <rdf:RDF xmlns:dc="http://purl.org/dc/elements/1.1/" xmlns:cc="http://creativecommons.org/ns#" xmlns:rdf="http://www.w3.org/1999/02/22-rdf-syntax-ns#">
   <cc:Work>
    <dc:type rdf:resource="http://purl.org/dc/dcmitype/StillImage"/>
    <dc:date>2023-03-30T16:04:59.511329</dc:date>
    <dc:format>image/svg+xml</dc:format>
    <dc:creator>
     <cc:Agent>
      <dc:title>Matplotlib v3.7.0, https://matplotlib.org/</dc:title>
     </cc:Agent>
    </dc:creator>
   </cc:Work>
  </rdf:RDF>
 </metadata>
 <defs>
  <style type="text/css">*{stroke-linejoin: round; stroke-linecap: butt}</style>
 </defs>
 <g id="figure_1">
  <g id="patch_1">
   <path d="M 0 458.691562 
L 638.44274 458.691562 
L 638.44274 0 
L 0 0 
L 0 458.691562 
z
" style="fill: none"/>
  </g>
  <g id="axes_1">
   <g id="patch_2">
    <path d="M 72.342187 414.957187 
L 630.342188 414.957187 
L 630.342188 26.877187 
L 72.342187 26.877187 
L 72.342187 414.957187 
z
" style="fill: none"/>
   </g>
   <g id="matplotlib.axis_1">
    <g id="xtick_1">
     <g id="line2d_1">
      <path d="M 170.188125 414.957187 
L 170.188125 26.877187 
" clip-path="url(#pcfad640d99)" style="fill: none; stroke: #808080; stroke-width: 0.8; stroke-linecap: square"/>
     </g>
     <g id="line2d_2">
      <defs>
       <path id="m7dbb3f2298" d="M 0 0 
L 0 -5 
" style="stroke: #808080; stroke-width: 0.8"/>
      </defs>
      <g>
       <use xlink:href="#m7dbb3f2298" x="170.188125" y="414.957187" style="fill: #808080; stroke: #808080; stroke-width: 0.8"/>
      </g>
     </g>
     <g id="text_1">
      <!-- 30 -->
      <g style="fill: #808080" transform="translate(160.644375 429.854844) scale(0.15 -0.15)">
       <defs>
        <path id="DejaVuSans-33" d="M 2597 2516 
Q 3050 2419 3304 2112 
Q 3559 1806 3559 1356 
Q 3559 666 3084 287 
Q 2609 -91 1734 -91 
Q 1441 -91 1130 -33 
Q 819 25 488 141 
L 488 750 
Q 750 597 1062 519 
Q 1375 441 1716 441 
Q 2309 441 2620 675 
Q 2931 909 2931 1356 
Q 2931 1769 2642 2001 
Q 2353 2234 1838 2234 
L 1294 2234 
L 1294 2753 
L 1863 2753 
Q 2328 2753 2575 2939 
Q 2822 3125 2822 3475 
Q 2822 3834 2567 4026 
Q 2313 4219 1838 4219 
Q 1578 4219 1281 4162 
Q 984 4106 628 3988 
L 628 4550 
Q 988 4650 1302 4700 
Q 1616 4750 1894 4750 
Q 2613 4750 3031 4423 
Q 3450 4097 3450 3541 
Q 3450 3153 3228 2886 
Q 3006 2619 2597 2516 
z
" transform="scale(0.015625)"/>
        <path id="DejaVuSans-30" d="M 2034 4250 
Q 1547 4250 1301 3770 
Q 1056 3291 1056 2328 
Q 1056 1369 1301 889 
Q 1547 409 2034 409 
Q 2525 409 2770 889 
Q 3016 1369 3016 2328 
Q 3016 3291 2770 3770 
Q 2525 4250 2034 4250 
z
M 2034 4750 
Q 2819 4750 3233 4129 
Q 3647 3509 3647 2328 
Q 3647 1150 3233 529 
Q 2819 -91 2034 -91 
Q 1250 -91 836 529 
Q 422 1150 422 2328 
Q 422 3509 836 4129 
Q 1250 4750 2034 4750 
z
" transform="scale(0.015625)"/>
       </defs>
       <use xlink:href="#DejaVuSans-33"/>
       <use xlink:href="#DejaVuSans-30" x="63.623047"/>
      </g>
     </g>
    </g>
    <g id="xtick_2">
     <g id="line2d_3">
      <path d="M 283.065841 414.957187 
L 283.065841 26.877187 
" clip-path="url(#pcfad640d99)" style="fill: none; stroke: #808080; stroke-width: 0.8; stroke-linecap: square"/>
     </g>
     <g id="line2d_4">
      <g>
       <use xlink:href="#m7dbb3f2298" x="283.065841" y="414.957187" style="fill: #808080; stroke: #808080; stroke-width: 0.8"/>
      </g>
     </g>
     <g id="text_2">
      <!-- 35 -->
      <g style="fill: #808080" transform="translate(273.522091 429.854844) scale(0.15 -0.15)">
       <defs>
        <path id="DejaVuSans-35" d="M 691 4666 
L 3169 4666 
L 3169 4134 
L 1269 4134 
L 1269 2991 
Q 1406 3038 1543 3061 
Q 1681 3084 1819 3084 
Q 2600 3084 3056 2656 
Q 3513 2228 3513 1497 
Q 3513 744 3044 326 
Q 2575 -91 1722 -91 
Q 1428 -91 1123 -41 
Q 819 9 494 109 
L 494 744 
Q 775 591 1075 516 
Q 1375 441 1709 441 
Q 2250 441 2565 725 
Q 2881 1009 2881 1497 
Q 2881 1984 2565 2268 
Q 2250 2553 1709 2553 
Q 1456 2553 1204 2497 
Q 953 2441 691 2322 
L 691 4666 
z
" transform="scale(0.015625)"/>
       </defs>
       <use xlink:href="#DejaVuSans-33"/>
       <use xlink:href="#DejaVuSans-35" x="63.623047"/>
      </g>
     </g>
    </g>
    <g id="xtick_3">
     <g id="line2d_5">
      <path d="M 395.943557 414.957187 
L 395.943557 26.877187 
" clip-path="url(#pcfad640d99)" style="fill: none; stroke: #808080; stroke-width: 0.8; stroke-linecap: square"/>
     </g>
     <g id="line2d_6">
      <g>
       <use xlink:href="#m7dbb3f2298" x="395.943557" y="414.957187" style="fill: #808080; stroke: #808080; stroke-width: 0.8"/>
      </g>
     </g>
     <g id="text_3">
      <!-- 40 -->
      <g style="fill: #808080" transform="translate(386.399807 429.854844) scale(0.15 -0.15)">
       <defs>
        <path id="DejaVuSans-34" d="M 2419 4116 
L 825 1625 
L 2419 1625 
L 2419 4116 
z
M 2253 4666 
L 3047 4666 
L 3047 1625 
L 3713 1625 
L 3713 1100 
L 3047 1100 
L 3047 0 
L 2419 0 
L 2419 1100 
L 313 1100 
L 313 1709 
L 2253 4666 
z
" transform="scale(0.015625)"/>
       </defs>
       <use xlink:href="#DejaVuSans-34"/>
       <use xlink:href="#DejaVuSans-30" x="63.623047"/>
      </g>
     </g>
    </g>
    <g id="xtick_4">
     <g id="line2d_7">
      <path d="M 508.821273 414.957187 
L 508.821273 26.877187 
" clip-path="url(#pcfad640d99)" style="fill: none; stroke: #808080; stroke-width: 0.8; stroke-linecap: square"/>
     </g>
     <g id="line2d_8">
      <g>
       <use xlink:href="#m7dbb3f2298" x="508.821273" y="414.957187" style="fill: #808080; stroke: #808080; stroke-width: 0.8"/>
      </g>
     </g>
     <g id="text_4">
      <!-- 45 -->
      <g style="fill: #808080" transform="translate(499.277523 429.854844) scale(0.15 -0.15)">
       <use xlink:href="#DejaVuSans-34"/>
       <use xlink:href="#DejaVuSans-35" x="63.623047"/>
      </g>
     </g>
    </g>
    <g id="xtick_5">
     <g id="line2d_9">
      <path d="M 621.69899 414.957187 
L 621.69899 26.877187 
" clip-path="url(#pcfad640d99)" style="fill: none; stroke: #808080; stroke-width: 0.8; stroke-linecap: square"/>
     </g>
     <g id="line2d_10">
      <g>
       <use xlink:href="#m7dbb3f2298" x="621.69899" y="414.957187" style="fill: #808080; stroke: #808080; stroke-width: 0.8"/>
      </g>
     </g>
     <g id="text_5">
      <!-- 50 -->
      <g style="fill: #808080" transform="translate(612.15524 429.854844) scale(0.15 -0.15)">
       <use xlink:href="#DejaVuSans-35"/>
       <use xlink:href="#DejaVuSans-30" x="63.623047"/>
      </g>
     </g>
    </g>
    <g id="text_6">
     <!-- time [s] -->
     <g style="fill: #808080" transform="translate(322.255078 448.372031) scale(0.15 -0.15)">
      <defs>
       <path id="DejaVuSans-74" d="M 1172 4494 
L 1172 3500 
L 2356 3500 
L 2356 3053 
L 1172 3053 
L 1172 1153 
Q 1172 725 1289 603 
Q 1406 481 1766 481 
L 2356 481 
L 2356 0 
L 1766 0 
Q 1100 0 847 248 
Q 594 497 594 1153 
L 594 3053 
L 172 3053 
L 172 3500 
L 594 3500 
L 594 4494 
L 1172 4494 
z
" transform="scale(0.015625)"/>
       <path id="DejaVuSans-69" d="M 603 3500 
L 1178 3500 
L 1178 0 
L 603 0 
L 603 3500 
z
M 603 4863 
L 1178 4863 
L 1178 4134 
L 603 4134 
L 603 4863 
z
" transform="scale(0.015625)"/>
       <path id="DejaVuSans-6d" d="M 3328 2828 
Q 3544 3216 3844 3400 
Q 4144 3584 4550 3584 
Q 5097 3584 5394 3201 
Q 5691 2819 5691 2113 
L 5691 0 
L 5113 0 
L 5113 2094 
Q 5113 2597 4934 2840 
Q 4756 3084 4391 3084 
Q 3944 3084 3684 2787 
Q 3425 2491 3425 1978 
L 3425 0 
L 2847 0 
L 2847 2094 
Q 2847 2600 2669 2842 
Q 2491 3084 2119 3084 
Q 1678 3084 1418 2786 
Q 1159 2488 1159 1978 
L 1159 0 
L 581 0 
L 581 3500 
L 1159 3500 
L 1159 2956 
Q 1356 3278 1631 3431 
Q 1906 3584 2284 3584 
Q 2666 3584 2933 3390 
Q 3200 3197 3328 2828 
z
" transform="scale(0.015625)"/>
       <path id="DejaVuSans-65" d="M 3597 1894 
L 3597 1613 
L 953 1613 
Q 991 1019 1311 708 
Q 1631 397 2203 397 
Q 2534 397 2845 478 
Q 3156 559 3463 722 
L 3463 178 
Q 3153 47 2828 -22 
Q 2503 -91 2169 -91 
Q 1331 -91 842 396 
Q 353 884 353 1716 
Q 353 2575 817 3079 
Q 1281 3584 2069 3584 
Q 2775 3584 3186 3129 
Q 3597 2675 3597 1894 
z
M 3022 2063 
Q 3016 2534 2758 2815 
Q 2500 3097 2075 3097 
Q 1594 3097 1305 2825 
Q 1016 2553 972 2059 
L 3022 2063 
z
" transform="scale(0.015625)"/>
       <path id="DejaVuSans-20" transform="scale(0.015625)"/>
       <path id="DejaVuSans-5b" d="M 550 4863 
L 1875 4863 
L 1875 4416 
L 1125 4416 
L 1125 -397 
L 1875 -397 
L 1875 -844 
L 550 -844 
L 550 4863 
z
" transform="scale(0.015625)"/>
       <path id="DejaVuSans-73" d="M 2834 3397 
L 2834 2853 
Q 2591 2978 2328 3040 
Q 2066 3103 1784 3103 
Q 1356 3103 1142 2972 
Q 928 2841 928 2578 
Q 928 2378 1081 2264 
Q 1234 2150 1697 2047 
L 1894 2003 
Q 2506 1872 2764 1633 
Q 3022 1394 3022 966 
Q 3022 478 2636 193 
Q 2250 -91 1575 -91 
Q 1294 -91 989 -36 
Q 684 19 347 128 
L 347 722 
Q 666 556 975 473 
Q 1284 391 1588 391 
Q 1994 391 2212 530 
Q 2431 669 2431 922 
Q 2431 1156 2273 1281 
Q 2116 1406 1581 1522 
L 1381 1569 
Q 847 1681 609 1914 
Q 372 2147 372 2553 
Q 372 3047 722 3315 
Q 1072 3584 1716 3584 
Q 2034 3584 2315 3537 
Q 2597 3491 2834 3397 
z
" transform="scale(0.015625)"/>
       <path id="DejaVuSans-5d" d="M 1947 4863 
L 1947 -844 
L 622 -844 
L 622 -397 
L 1369 -397 
L 1369 4416 
L 622 4416 
L 622 4863 
L 1947 4863 
z
" transform="scale(0.015625)"/>
      </defs>
      <use xlink:href="#DejaVuSans-74"/>
      <use xlink:href="#DejaVuSans-69" x="39.208984"/>
      <use xlink:href="#DejaVuSans-6d" x="66.992188"/>
      <use xlink:href="#DejaVuSans-65" x="164.404297"/>
      <use xlink:href="#DejaVuSans-20" x="225.927734"/>
      <use xlink:href="#DejaVuSans-5b" x="257.714844"/>
      <use xlink:href="#DejaVuSans-73" x="296.728516"/>
      <use xlink:href="#DejaVuSans-5d" x="348.828125"/>
     </g>
    </g>
   </g>
   <g id="matplotlib.axis_2">
    <g id="ytick_1">
     <g id="line2d_11">
      <path d="M 72.342187 408.735227 
L 630.342188 408.735227 
" clip-path="url(#pcfad640d99)" style="fill: none; stroke: #808080; stroke-width: 0.8; stroke-linecap: square"/>
     </g>
     <g id="line2d_12">
      <defs>
       <path id="ma118ccc37f" d="M 0 0 
L 5 0 
" style="stroke: #808080; stroke-width: 0.8"/>
      </defs>
      <g>
       <use xlink:href="#ma118ccc37f" x="72.342187" y="408.735227" style="fill: #808080; stroke: #808080; stroke-width: 0.8"/>
      </g>
     </g>
     <g id="text_7">
      <!-- 277.5 -->
      <g style="fill: #808080" transform="translate(25.9 414.434055) scale(0.15 -0.15)">
       <defs>
        <path id="DejaVuSans-32" d="M 1228 531 
L 3431 531 
L 3431 0 
L 469 0 
L 469 531 
Q 828 903 1448 1529 
Q 2069 2156 2228 2338 
Q 2531 2678 2651 2914 
Q 2772 3150 2772 3378 
Q 2772 3750 2511 3984 
Q 2250 4219 1831 4219 
Q 1534 4219 1204 4116 
Q 875 4013 500 3803 
L 500 4441 
Q 881 4594 1212 4672 
Q 1544 4750 1819 4750 
Q 2544 4750 2975 4387 
Q 3406 4025 3406 3419 
Q 3406 3131 3298 2873 
Q 3191 2616 2906 2266 
Q 2828 2175 2409 1742 
Q 1991 1309 1228 531 
z
" transform="scale(0.015625)"/>
        <path id="DejaVuSans-37" d="M 525 4666 
L 3525 4666 
L 3525 4397 
L 1831 0 
L 1172 0 
L 2766 4134 
L 525 4134 
L 525 4666 
z
" transform="scale(0.015625)"/>
        <path id="DejaVuSans-2e" d="M 684 794 
L 1344 794 
L 1344 0 
L 684 0 
L 684 794 
z
" transform="scale(0.015625)"/>
       </defs>
       <use xlink:href="#DejaVuSans-32"/>
       <use xlink:href="#DejaVuSans-37" x="63.623047"/>
       <use xlink:href="#DejaVuSans-37" x="127.246094"/>
       <use xlink:href="#DejaVuSans-2e" x="190.869141"/>
       <use xlink:href="#DejaVuSans-35" x="222.65625"/>
      </g>
     </g>
    </g>
    <g id="ytick_2">
     <g id="line2d_13">
      <path d="M 72.342187 343.542254 
L 630.342188 343.542254 
" clip-path="url(#pcfad640d99)" style="fill: none; stroke: #808080; stroke-width: 0.8; stroke-linecap: square"/>
     </g>
     <g id="line2d_14">
      <g>
       <use xlink:href="#ma118ccc37f" x="72.342187" y="343.542254" style="fill: #808080; stroke: #808080; stroke-width: 0.8"/>
      </g>
     </g>
     <g id="text_8">
      <!-- 278.0 -->
      <g style="fill: #808080" transform="translate(25.9 349.241082) scale(0.15 -0.15)">
       <defs>
        <path id="DejaVuSans-38" d="M 2034 2216 
Q 1584 2216 1326 1975 
Q 1069 1734 1069 1313 
Q 1069 891 1326 650 
Q 1584 409 2034 409 
Q 2484 409 2743 651 
Q 3003 894 3003 1313 
Q 3003 1734 2745 1975 
Q 2488 2216 2034 2216 
z
M 1403 2484 
Q 997 2584 770 2862 
Q 544 3141 544 3541 
Q 544 4100 942 4425 
Q 1341 4750 2034 4750 
Q 2731 4750 3128 4425 
Q 3525 4100 3525 3541 
Q 3525 3141 3298 2862 
Q 3072 2584 2669 2484 
Q 3125 2378 3379 2068 
Q 3634 1759 3634 1313 
Q 3634 634 3220 271 
Q 2806 -91 2034 -91 
Q 1263 -91 848 271 
Q 434 634 434 1313 
Q 434 1759 690 2068 
Q 947 2378 1403 2484 
z
M 1172 3481 
Q 1172 3119 1398 2916 
Q 1625 2713 2034 2713 
Q 2441 2713 2670 2916 
Q 2900 3119 2900 3481 
Q 2900 3844 2670 4047 
Q 2441 4250 2034 4250 
Q 1625 4250 1398 4047 
Q 1172 3844 1172 3481 
z
" transform="scale(0.015625)"/>
       </defs>
       <use xlink:href="#DejaVuSans-32"/>
       <use xlink:href="#DejaVuSans-37" x="63.623047"/>
       <use xlink:href="#DejaVuSans-38" x="127.246094"/>
       <use xlink:href="#DejaVuSans-2e" x="190.869141"/>
       <use xlink:href="#DejaVuSans-30" x="222.65625"/>
      </g>
     </g>
    </g>
    <g id="ytick_3">
     <g id="line2d_15">
      <path d="M 72.342187 278.34928 
L 630.342188 278.34928 
" clip-path="url(#pcfad640d99)" style="fill: none; stroke: #808080; stroke-width: 0.8; stroke-linecap: square"/>
     </g>
     <g id="line2d_16">
      <g>
       <use xlink:href="#ma118ccc37f" x="72.342187" y="278.34928" style="fill: #808080; stroke: #808080; stroke-width: 0.8"/>
      </g>
     </g>
     <g id="text_9">
      <!-- 278.5 -->
      <g style="fill: #808080" transform="translate(25.9 284.048108) scale(0.15 -0.15)">
       <use xlink:href="#DejaVuSans-32"/>
       <use xlink:href="#DejaVuSans-37" x="63.623047"/>
       <use xlink:href="#DejaVuSans-38" x="127.246094"/>
       <use xlink:href="#DejaVuSans-2e" x="190.869141"/>
       <use xlink:href="#DejaVuSans-35" x="222.65625"/>
      </g>
     </g>
    </g>
    <g id="ytick_4">
     <g id="line2d_17">
      <path d="M 72.342187 213.156307 
L 630.342188 213.156307 
" clip-path="url(#pcfad640d99)" style="fill: none; stroke: #808080; stroke-width: 0.8; stroke-linecap: square"/>
     </g>
     <g id="line2d_18">
      <g>
       <use xlink:href="#ma118ccc37f" x="72.342187" y="213.156307" style="fill: #808080; stroke: #808080; stroke-width: 0.8"/>
      </g>
     </g>
     <g id="text_10">
      <!-- 279.0 -->
      <g style="fill: #808080" transform="translate(25.9 218.855135) scale(0.15 -0.15)">
       <defs>
        <path id="DejaVuSans-39" d="M 703 97 
L 703 672 
Q 941 559 1184 500 
Q 1428 441 1663 441 
Q 2288 441 2617 861 
Q 2947 1281 2994 2138 
Q 2813 1869 2534 1725 
Q 2256 1581 1919 1581 
Q 1219 1581 811 2004 
Q 403 2428 403 3163 
Q 403 3881 828 4315 
Q 1253 4750 1959 4750 
Q 2769 4750 3195 4129 
Q 3622 3509 3622 2328 
Q 3622 1225 3098 567 
Q 2575 -91 1691 -91 
Q 1453 -91 1209 -44 
Q 966 3 703 97 
z
M 1959 2075 
Q 2384 2075 2632 2365 
Q 2881 2656 2881 3163 
Q 2881 3666 2632 3958 
Q 2384 4250 1959 4250 
Q 1534 4250 1286 3958 
Q 1038 3666 1038 3163 
Q 1038 2656 1286 2365 
Q 1534 2075 1959 2075 
z
" transform="scale(0.015625)"/>
       </defs>
       <use xlink:href="#DejaVuSans-32"/>
       <use xlink:href="#DejaVuSans-37" x="63.623047"/>
       <use xlink:href="#DejaVuSans-39" x="127.246094"/>
       <use xlink:href="#DejaVuSans-2e" x="190.869141"/>
       <use xlink:href="#DejaVuSans-30" x="222.65625"/>
      </g>
     </g>
    </g>
    <g id="ytick_5">
     <g id="line2d_19">
      <path d="M 72.342187 147.963333 
L 630.342188 147.963333 
" clip-path="url(#pcfad640d99)" style="fill: none; stroke: #808080; stroke-width: 0.8; stroke-linecap: square"/>
     </g>
     <g id="line2d_20">
      <g>
       <use xlink:href="#ma118ccc37f" x="72.342187" y="147.963333" style="fill: #808080; stroke: #808080; stroke-width: 0.8"/>
      </g>
     </g>
     <g id="text_11">
      <!-- 279.5 -->
      <g style="fill: #808080" transform="translate(25.9 153.662161) scale(0.15 -0.15)">
       <use xlink:href="#DejaVuSans-32"/>
       <use xlink:href="#DejaVuSans-37" x="63.623047"/>
       <use xlink:href="#DejaVuSans-39" x="127.246094"/>
       <use xlink:href="#DejaVuSans-2e" x="190.869141"/>
       <use xlink:href="#DejaVuSans-35" x="222.65625"/>
      </g>
     </g>
    </g>
    <g id="ytick_6">
     <g id="line2d_21">
      <path d="M 72.342187 82.77036 
L 630.342188 82.77036 
" clip-path="url(#pcfad640d99)" style="fill: none; stroke: #808080; stroke-width: 0.8; stroke-linecap: square"/>
     </g>
     <g id="line2d_22">
      <g>
       <use xlink:href="#ma118ccc37f" x="72.342187" y="82.77036" style="fill: #808080; stroke: #808080; stroke-width: 0.8"/>
      </g>
     </g>
     <g id="text_12">
      <!-- 280.0 -->
      <g style="fill: #808080" transform="translate(25.9 88.469188) scale(0.15 -0.15)">
       <use xlink:href="#DejaVuSans-32"/>
       <use xlink:href="#DejaVuSans-38" x="63.623047"/>
       <use xlink:href="#DejaVuSans-30" x="127.246094"/>
       <use xlink:href="#DejaVuSans-2e" x="190.869141"/>
       <use xlink:href="#DejaVuSans-30" x="222.65625"/>
      </g>
     </g>
    </g>
    <g id="text_13">
     <!-- $\theta$ [deg] -->
     <g style="fill: #808080" transform="translate(18.75 247.917187) rotate(-90) scale(0.15 -0.15)">
      <defs>
       <path id="DejaVuSans-Oblique-3b8" d="M 2913 2219 
L 925 2219 
Q 791 1284 928 888 
Q 1100 400 1566 400 
Q 2034 400 2391 891 
Q 2703 1322 2913 2219 
z
M 3009 2750 
Q 3094 3638 2984 3950 
Q 2813 4444 2353 4444 
Q 1875 4444 1525 3956 
Q 1250 3563 1034 2750 
L 3009 2750 
z
M 2444 4913 
Q 3194 4913 3494 4250 
Q 3794 3591 3566 2422 
Q 3341 1256 2781 594 
Q 2225 -72 1475 -72 
Q 722 -72 425 594 
Q 128 1256 353 2422 
Q 581 3591 1134 4250 
Q 1691 4913 2444 4913 
z
" transform="scale(0.015625)"/>
       <path id="DejaVuSans-64" d="M 2906 2969 
L 2906 4863 
L 3481 4863 
L 3481 0 
L 2906 0 
L 2906 525 
Q 2725 213 2448 61 
Q 2172 -91 1784 -91 
Q 1150 -91 751 415 
Q 353 922 353 1747 
Q 353 2572 751 3078 
Q 1150 3584 1784 3584 
Q 2172 3584 2448 3432 
Q 2725 3281 2906 2969 
z
M 947 1747 
Q 947 1113 1208 752 
Q 1469 391 1925 391 
Q 2381 391 2643 752 
Q 2906 1113 2906 1747 
Q 2906 2381 2643 2742 
Q 2381 3103 1925 3103 
Q 1469 3103 1208 2742 
Q 947 2381 947 1747 
z
" transform="scale(0.015625)"/>
       <path id="DejaVuSans-67" d="M 2906 1791 
Q 2906 2416 2648 2759 
Q 2391 3103 1925 3103 
Q 1463 3103 1205 2759 
Q 947 2416 947 1791 
Q 947 1169 1205 825 
Q 1463 481 1925 481 
Q 2391 481 2648 825 
Q 2906 1169 2906 1791 
z
M 3481 434 
Q 3481 -459 3084 -895 
Q 2688 -1331 1869 -1331 
Q 1566 -1331 1297 -1286 
Q 1028 -1241 775 -1147 
L 775 -588 
Q 1028 -725 1275 -790 
Q 1522 -856 1778 -856 
Q 2344 -856 2625 -561 
Q 2906 -266 2906 331 
L 2906 616 
Q 2728 306 2450 153 
Q 2172 0 1784 0 
Q 1141 0 747 490 
Q 353 981 353 1791 
Q 353 2603 747 3093 
Q 1141 3584 1784 3584 
Q 2172 3584 2450 3431 
Q 2728 3278 2906 2969 
L 2906 3500 
L 3481 3500 
L 3481 434 
z
" transform="scale(0.015625)"/>
      </defs>
      <use xlink:href="#DejaVuSans-Oblique-3b8" transform="translate(0 0.234375)"/>
      <use xlink:href="#DejaVuSans-20" transform="translate(61.181641 0.234375)"/>
      <use xlink:href="#DejaVuSans-5b" transform="translate(92.96875 0.234375)"/>
      <use xlink:href="#DejaVuSans-64" transform="translate(131.982422 0.234375)"/>
      <use xlink:href="#DejaVuSans-65" transform="translate(195.458984 0.234375)"/>
      <use xlink:href="#DejaVuSans-67" transform="translate(256.982422 0.234375)"/>
      <use xlink:href="#DejaVuSans-5d" transform="translate(320.458984 0.234375)"/>
     </g>
    </g>
   </g>
   <g id="line2d_23">
    <path d="M 97.705824 327.475338 
L 98.171286 327.475338 
L 98.383022 290.063346 
L 98.610155 290.063346 
L 98.835301 333.709651 
L 100.41446 333.709651 
L 100.642473 290.063346 
L 109.905512 290.063346 
L 110.122486 333.709651 
L 111.704489 333.709651 
L 111.937875 327.475338 
L 112.154375 327.475338 
L 112.381123 283.577982 
L 113.961479 283.577982 
L 114.187573 290.063346 
L 115.766552 290.063346 
L 115.99768 296.018056 
L 118.930311 296.018056 
L 119.152658 290.063346 
L 119.831617 290.063346 
L 120.05665 333.709651 
L 120.284302 333.709651 
L 120.508387 290.063346 
L 122.99129 290.063346 
L 123.217158 327.475338 
L 123.894289 327.475338 
L 124.119661 283.577982 
L 124.347471 283.577982 
L 124.572888 327.475338 
L 127.506128 327.475338 
L 127.738701 321.620298 
L 127.959174 321.620298 
L 128.184207 362.668176 
L 128.86127 362.668176 
L 129.088019 321.620298 
L 129.764676 321.620298 
L 129.989709 327.475338 
L 130.671445 327.475338 
L 130.899751 368.303302 
L 132.067155 368.303302 
L 132.473176 327.475338 
L 132.924597 327.475338 
L 133.150465 333.709651 
L 137.440834 333.709651 
L 137.665709 374.30335 
L 139.245501 374.30335 
L 139.472137 379.812255 
L 142.85761 379.812255 
L 143.085736 374.30335 
L 146.46911 374.30335 
L 146.694685 333.709651 
L 146.921953 333.709651 
L 147.14667 339.433742 
L 150.533859 339.433742 
L 150.759863 296.018056 
L 154.149852 296.018056 
L 154.373011 290.063346 
L 158.660965 290.063346 
L 158.886223 333.709651 
L 159.564031 333.709651 
L 159.79087 327.475338 
L 161.826281 327.475338 
L 162.047499 368.303302 
L 163.627832 368.303302 
L 163.880994 327.475338 
L 164.100767 327.475338 
L 164.309546 333.709651 
L 165.886222 333.709651 
L 166.112519 374.30335 
L 166.791411 374.30335 
L 167.014119 339.433742 
L 167.240574 339.433742 
L 167.469987 379.812255 
L 169.045308 379.812255 
L 169.27138 339.433742 
L 169.496232 339.433742 
L 169.722597 379.812255 
L 172.226744 379.812255 
L 172.433558 374.30335 
L 173.132136 374.30335 
L 173.35814 379.812255 
L 173.562313 379.812255 
L 173.788001 339.433742 
L 174.012311 339.433742 
L 174.268295 379.812255 
L 174.509086 379.812255 
L 174.811937 374.30335 
L 178.527601 374.30335 
L 178.754282 368.303302 
L 179.430284 368.303302 
L 179.656581 374.30335 
L 179.88105 374.30335 
L 180.107437 333.709651 
L 181.698674 333.709651 
L 181.914068 290.063346 
L 182.138243 290.063346 
L 182.373435 333.709651 
L 185.299993 333.709651 
L 185.526674 290.063346 
L 185.751978 290.063346 
L 185.977236 339.433742 
L 189.366006 339.433742 
L 189.625196 333.709651 
L 189.862961 333.709651 
L 190.047855 339.433742 
L 191.168031 339.433742 
L 191.396834 333.709651 
L 193.878383 333.709651 
L 194.103258 374.30335 
L 196.58957 374.30335 
L 196.813633 339.433742 
L 200.199783 339.433742 
L 200.425652 333.709651 
L 200.651046 333.709651 
L 200.876418 290.063346 
L 205.166268 290.063346 
L 205.390984 283.577982 
L 208.781402 283.577982 
L 209.008422 277.487282 
L 209.229775 277.487282 
L 209.457043 236.576244 
L 209.680563 236.576244 
L 209.90677 230.198425 
L 210.131578 230.198425 
L 210.358236 271.329449 
L 210.583608 271.329449 
L 210.809928 230.198425 
L 211.94094 230.198425 
L 212.164234 189.138056 
L 213.298813 189.138056 
L 213.520641 195.734718 
L 215.099394 195.734718 
L 215.324878 151.831674 
L 220.42975 151.831674 
L 220.744047 111.141398 
L 222.322055 111.141398 
L 222.575646 151.831674 
L 224.129904 151.831674 
L 224.355366 111.141398 
L 225.035048 111.141398 
L 225.259133 151.831674 
L 226.387436 151.831674 
L 226.614614 145.000653 
L 228.197837 145.000653 
L 228.419416 151.831674 
L 230.027539 151.831674 
L 230.225188 111.141398 
L 230.450086 111.141398 
L 230.67618 151.831674 
L 230.901235 151.831674 
L 231.128187 118.112497 
L 231.384668 118.112497 
L 231.583852 151.831674 
L 232.259493 151.831674 
L 232.484503 158.588618 
L 232.709965 158.588618 
L 232.934502 151.831674 
L 236.320788 151.831674 
L 236.550291 118.112497 
L 236.773428 118.112497 
L 236.997964 158.588618 
L 237.224284 158.588618 
L 237.449701 151.831674 
L 239.482245 151.831674 
L 239.706849 111.141398 
L 240.384092 111.141398 
L 240.611496 151.831674 
L 243.545707 151.831674 
L 243.777016 145.000653 
L 243.99706 145.000653 
L 244.222431 151.831674 
L 245.804593 151.831674 
L 246.068885 111.141398 
L 246.705493 111.141398 
L 246.931813 118.112497 
L 248.51271 118.112497 
L 248.73693 77.711534 
L 249.419299 77.711534 
L 249.650698 118.112497 
L 250.32214 118.112497 
L 250.544328 77.711534 
L 250.776134 77.711534 
L 251.006224 118.112497 
L 254.388718 118.112497 
L 254.607926 125.5359 
L 255.735507 125.5359 
L 255.961511 118.112497 
L 256.637761 118.112497 
L 256.864103 158.588618 
L 258.896557 158.588618 
L 259.120664 151.831674 
L 259.347932 151.831674 
L 259.572762 195.734718 
L 261.605916 195.734718 
L 261.831987 158.588618 
L 262.058172 158.588618 
L 262.283159 202.259706 
L 262.507019 202.259706 
L 262.732503 158.588618 
L 267.925871 158.588618 
L 268.151333 202.259706 
L 268.377698 202.259706 
L 268.602189 195.734718 
L 271.989537 195.734718 
L 272.214502 151.831674 
L 272.441341 151.831674 
L 272.668338 195.734718 
L 273.800186 195.734718 
L 274.020839 189.138056 
L 276.053631 189.138056 
L 276.2795 223.251084 
L 276.504781 223.251084 
L 276.731394 189.138056 
L 276.955908 189.138056 
L 277.181212 181.952474 
L 277.8606 181.952474 
L 278.086717 189.138056 
L 279.665109 189.138056 
L 279.892422 145.000653 
L 280.568582 145.000653 
L 280.794563 151.831674 
L 282.376409 151.831674 
L 282.60151 111.141398 
L 283.306228 111.141398 
L 283.531486 151.831674 
L 283.731551 151.831674 
L 283.955342 111.141398 
L 288.243431 111.141398 
L 288.469638 77.711534 
L 288.695552 77.711534 
L 288.923655 70.527501 
L 291.855586 70.527501 
L 292.094887 111.141398 
L 292.347259 111.141398 
L 292.533349 104.094015 
L 294.565125 104.094015 
L 294.791829 111.141398 
L 297.274777 111.141398 
L 297.499336 70.527501 
L 297.725227 70.527501 
L 297.951299 77.711534 
L 299.083056 77.711534 
L 299.307931 70.527501 
L 299.983436 70.527501 
L 300.210117 111.141398 
L 309.466406 111.141398 
L 309.691484 104.094015 
L 311.270621 104.094015 
L 311.496579 111.141398 
L 313.078877 111.141398 
L 313.320706 118.112497 
L 317.141594 118.112497 
L 317.368411 77.711534 
L 318.949421 77.711534 
L 319.205608 118.112497 
L 324.818006 118.112497 
L 325.060725 151.831674 
L 326.6264 151.831674 
L 326.851046 111.141398 
L 328.430536 111.141398 
L 328.655446 118.112497 
L 329.799794 118.112497 
L 330.017669 125.5359 
L 331.140338 125.5359 
L 331.365332 165.783823 
L 332.049221 165.783823 
L 332.272424 158.588618 
L 332.953214 158.588618 
L 333.174588 165.783823 
L 333.398052 165.783823 
L 333.622988 158.588618 
L 334.74987 158.588618 
L 334.975543 165.783823 
L 335.653646 165.783823 
L 335.878693 158.588618 
L 337.911787 158.588618 
L 338.136507 202.259706 
L 341.523285 202.259706 
L 341.749936 195.734718 
L 343.328267 195.734718 
L 343.55397 151.831674 
L 345.58693 151.831674 
L 345.812316 158.588618 
L 346.038034 158.588618 
L 346.262845 118.112497 
L 348.746747 118.112497 
L 348.972411 77.711534 
L 352.359247 77.711534 
L 352.584648 34.289136 
L 352.810904 34.289136 
L 353.036887 77.711534 
L 354.164949 77.711534 
L 354.390499 26.877188 
L 354.616749 26.877188 
L 354.842334 70.527501 
L 356.422367 70.527501 
L 356.648165 63.265003 
L 358.230281 63.265003 
L 358.459016 104.094015 
L 358.682592 104.094015 
L 358.908748 96.417806 
L 360.035766 96.417806 
L 360.261416 104.094015 
L 360.486464 104.094015 
L 360.711911 63.265003 
L 362.305177 63.265003 
L 362.52754 70.527501 
L 363.197704 70.527501 
L 363.422346 111.141398 
L 364.325992 111.141398 
L 364.551228 70.527501 
L 366.2597 70.527501 
L 366.58463 111.141398 
L 369.741481 111.141398 
L 370.003425 151.831674 
L 371.0987 151.831674 
L 371.328271 158.588618 
L 372.902757 158.588618 
L 373.130905 202.259706 
L 374.257402 202.259706 
L 374.481284 236.576244 
L 375.160018 236.576244 
L 375.387579 277.487282 
L 375.616856 277.487282 
L 375.838029 236.576244 
L 376.062159 236.576244 
L 376.287847 277.487282 
L 377.870754 277.487282 
L 378.095109 283.577982 
L 380.126863 283.577982 
L 380.35088 242.884648 
L 385.996662 242.884648 
L 386.222756 202.259706 
L 386.448896 202.259706 
L 386.68095 195.734718 
L 390.962243 195.734718 
L 391.190934 189.138056 
L 393.2221 189.138056 
L 393.446185 145.000653 
L 394.123181 145.000653 
L 394.352051 151.831674 
L 395.478661 151.831674 
L 395.704372 111.141398 
L 395.930646 111.141398 
L 396.160668 118.112497 
L 398.186778 118.112497 
L 398.413076 158.588618 
L 398.641495 158.588618 
L 398.866347 118.112497 
L 400.444355 118.112497 
L 400.697088 158.588618 
L 400.896476 158.588618 
L 401.121667 125.5359 
L 401.348009 125.5359 
L 401.572139 118.112497 
L 401.799452 118.112497 
L 402.023718 125.5359 
L 402.250602 125.5359 
L 402.475477 118.112497 
L 402.778892 118.112497 
L 403.154098 158.588618 
L 403.607053 158.588618 
L 403.83089 165.783823 
L 405.864134 165.783823 
L 406.088851 158.588618 
L 407.217492 158.588618 
L 407.442412 202.259706 
L 409.474369 202.259706 
L 409.709742 242.884648 
L 411.281587 242.884648 
L 411.55159 209.207761 
L 416.253241 209.207761 
L 416.473871 249.601946 
L 418.775696 249.601946 
L 419.076538 290.063346 
L 419.861941 290.063346 
L 420.0865 296.018056 
L 420.310314 296.018056 
L 420.535686 290.063346 
L 420.761283 290.063346 
L 421.011307 296.018056 
L 421.664847 296.018056 
L 421.893898 290.063346 
L 422.568207 290.063346 
L 422.795114 333.709651 
L 423.470868 333.709651 
L 423.698813 290.063346 
L 425.278469 290.063346 
L 425.544544 283.577982 
L 425.739484 283.577982 
L 425.955058 333.709651 
L 426.181806 333.709651 
L 426.405711 290.063346 
L 427.534939 290.063346 
L 427.809481 296.018056 
L 428.898999 296.018056 
L 429.143334 255.769726 
L 431.600253 255.769726 
L 431.823819 209.207761 
L 433.857017 209.207761 
L 434.084104 215.587541 
L 434.77618 215.587541 
L 434.986449 209.207761 
L 436.114007 209.207761 
L 436.341794 165.783823 
L 437.017096 165.783823 
L 437.243213 209.207761 
L 439.728284 209.207761 
L 439.951624 242.884648 
L 443.343283 242.884648 
L 443.565268 202.259706 
L 443.789376 202.259706 
L 444.014386 209.207761 
L 446.951126 209.207761 
L 447.175481 165.783823 
L 447.853019 165.783823 
L 448.079542 209.207761 
L 448.756469 209.207761 
L 448.981976 165.783823 
L 449.659356 165.783823 
L 449.888452 158.588618 
L 454.673293 158.588618 
L 455.077034 118.112497 
L 455.357039 158.588618 
L 455.982539 158.588618 
L 456.206782 151.831674 
L 456.882942 151.831674 
L 457.110233 195.734718 
L 457.335379 195.734718 
L 457.55996 189.138056 
L 457.786212 189.138056 
L 458.011832 145.000653 
L 458.241855 145.000653 
L 458.463253 189.138056 
L 459.593159 189.138056 
L 459.817312 195.734718 
L 464.55865 195.734718 
L 464.786753 202.259706 
L 471.333322 202.259706 
L 471.557339 242.884648 
L 472.236569 242.884648 
L 472.46158 236.576244 
L 476.298835 236.576244 
L 476.523733 242.884648 
L 479.006772 242.884648 
L 479.234627 236.576244 
L 483.070527 236.576244 
L 483.297163 195.734718 
L 488.037282 195.734718 
L 488.262406 236.576244 
L 488.489132 236.576244 
L 488.715835 195.734718 
L 488.940891 195.734718 
L 489.165676 189.138056 
L 489.392312 189.138056 
L 489.620912 230.198425 
L 489.843777 230.198425 
L 490.06881 189.138056 
L 490.29495 189.138056 
L 490.520976 230.198425 
L 491.649776 230.198425 
L 491.875192 236.576244 
L 492.10097 236.576244 
L 492.326794 195.734718 
L 493.906382 195.734718 
L 494.131641 151.831674 
L 494.363333 151.831674 
L 494.585341 158.588618 
L 495.262766 158.588618 
L 495.487573 202.259706 
L 495.712403 202.259706 
L 495.941657 158.588618 
L 496.617569 158.588618 
L 496.842105 202.259706 
L 497.067613 202.259706 
L 497.293549 158.588618 
L 497.970205 158.588618 
L 498.19885 118.112497 
L 498.422145 118.112497 
L 498.647584 125.5359 
L 499.778055 125.5359 
L 500.005052 118.112497 
L 501.131143 118.112497 
L 501.357891 77.711534 
L 505.195327 77.711534 
L 505.424672 70.527501 
L 507.001461 70.527501 
L 507.226155 111.141398 
L 508.80764 111.141398 
L 509.032605 70.527501 
L 509.258586 70.527501 
L 509.483778 111.141398 
L 509.711046 111.141398 
L 509.938223 77.711534 
L 510.614496 77.711534 
L 510.837813 118.112497 
L 511.966907 118.112497 
L 512.194468 111.141398 
L 512.418846 111.141398 
L 512.646385 118.112497 
L 512.886837 118.112497 
L 513.09758 151.831674 
L 513.323268 151.831674 
L 513.549339 158.588618 
L 514.226154 158.588618 
L 514.451684 111.141398 
L 514.676943 111.141398 
L 514.90263 158.588618 
L 515.579693 158.588618 
L 515.807097 151.831674 
L 517.83709 151.831674 
L 518.062078 195.734718 
L 518.740586 195.734718 
L 518.965415 202.259706 
L 520.548142 202.259706 
L 520.771165 158.588618 
L 521.449357 158.588618 
L 521.674593 202.259706 
L 522.804003 202.259706 
L 523.0303 195.734718 
L 525.062212 195.734718 
L 525.286771 202.259706 
L 526.870874 202.259706 
L 527.093288 209.207761 
L 528.676759 209.207761 
L 528.898654 215.587541 
L 534.091052 215.587541 
L 534.322316 255.769726 
L 534.827173 255.769726 
L 535.114785 261.871457 
L 535.899872 261.871457 
L 536.133755 255.769726 
L 536.351925 255.769726 
L 536.591203 296.018056 
L 536.800952 296.018056 
L 537.025647 301.908895 
L 537.251538 301.908895 
L 537.478919 296.018056 
L 538.16964 296.018056 
L 538.381015 261.871457 
L 538.608892 261.871457 
L 538.858058 255.769726 
L 539.05941 255.769726 
L 539.286475 296.018056 
L 539.965705 296.018056 
L 540.188345 290.063346 
L 543.573931 290.063346 
L 543.79901 296.018056 
L 544.93693 296.018056 
L 545.174425 290.063346 
L 547.493339 290.063346 
L 547.862923 333.709651 
L 550.347339 333.709651 
L 550.57165 339.433742 
L 551.250203 339.433742 
L 551.474288 333.709651 
L 553.056472 333.709651 
L 553.281663 339.433742 
L 553.507599 339.433742 
L 553.733919 333.709651 
L 553.959246 333.709651 
L 554.200443 374.30335 
L 555.802968 374.30335 
L 556.001204 409.192467 
L 557.63644 409.192467 
L 558.035508 414.957187 
L 559.831235 414.957187 
L 560.053243 374.30335 
L 560.279427 374.30335 
L 560.50516 379.812255 
L 562.086554 379.812255 
L 562.324771 374.30335 
L 562.598364 374.30335 
L 562.993888 333.709651 
L 566.601369 333.709651 
L 566.826628 374.30335 
L 567.504459 374.30335 
L 567.729085 333.709651 
L 569.310909 333.709651 
L 569.538673 290.063346 
L 570.665351 290.063346 
L 570.893116 283.577982 
L 572.020403 283.577982 
L 572.243607 277.487282 
L 574.727707 277.487282 
L 574.955178 236.576244 
L 576.533051 236.576244 
L 576.761921 195.734718 
L 578.793901 195.734718 
L 579.02214 151.831674 
L 579.243064 151.831674 
L 579.471732 195.734718 
L 579.69532 195.734718 
L 579.919743 151.831674 
L 581.951881 151.831674 
L 582.177343 111.141398 
L 582.403595 111.141398 
L 582.759543 158.588618 
L 583.759143 158.588618 
L 583.983522 151.831674 
L 584.256415 151.831674 
L 584.661578 202.259706 
L 585.565322 202.259706 
L 585.790423 158.588618 
L 586.466673 158.588618 
L 586.693332 202.259706 
L 588.725108 202.259706 
L 588.950435 195.734718 
L 590.532032 195.734718 
L 590.755485 202.259706 
L 592.79207 202.259706 
L 593.014823 165.783823 
L 594.143239 165.783823 
L 594.367752 209.207761 
L 596.40208 209.207761 
L 596.648853 165.783823 
L 603.17244 165.783823 
L 603.398963 209.207761 
L 603.623274 209.207761 
L 603.850045 202.259706 
L 604.978551 202.259706 
L 604.978551 202.259706 
" clip-path="url(#pcfad640d99)" style="fill: none; stroke: #1f77b4; stroke-width: 2; stroke-linecap: square"/>
   </g>
   <g id="patch_3">
    <path d="M 72.342187 414.957187 
L 72.342187 26.877188 
" style="fill: none; stroke: #808080; stroke-width: 2; stroke-linejoin: miter; stroke-linecap: square"/>
   </g>
   <g id="patch_4">
    <path d="M 72.342188 414.957187 
L 630.342188 414.957187 
" style="fill: none; stroke: #808080; stroke-width: 2; stroke-linejoin: miter; stroke-linecap: square"/>
   </g>
   <g id="text_14">
    <!-- Oskar-Tyholt_restart-vinkel -->
    <g style="fill: #808080" transform="translate(232.830469 20.877187) scale(0.18 -0.18)">
     <defs>
      <path id="DejaVuSans-4f" d="M 2522 4238 
Q 1834 4238 1429 3725 
Q 1025 3213 1025 2328 
Q 1025 1447 1429 934 
Q 1834 422 2522 422 
Q 3209 422 3611 934 
Q 4013 1447 4013 2328 
Q 4013 3213 3611 3725 
Q 3209 4238 2522 4238 
z
M 2522 4750 
Q 3503 4750 4090 4092 
Q 4678 3434 4678 2328 
Q 4678 1225 4090 567 
Q 3503 -91 2522 -91 
Q 1538 -91 948 565 
Q 359 1222 359 2328 
Q 359 3434 948 4092 
Q 1538 4750 2522 4750 
z
" transform="scale(0.015625)"/>
      <path id="DejaVuSans-6b" d="M 581 4863 
L 1159 4863 
L 1159 1991 
L 2875 3500 
L 3609 3500 
L 1753 1863 
L 3688 0 
L 2938 0 
L 1159 1709 
L 1159 0 
L 581 0 
L 581 4863 
z
" transform="scale(0.015625)"/>
      <path id="DejaVuSans-61" d="M 2194 1759 
Q 1497 1759 1228 1600 
Q 959 1441 959 1056 
Q 959 750 1161 570 
Q 1363 391 1709 391 
Q 2188 391 2477 730 
Q 2766 1069 2766 1631 
L 2766 1759 
L 2194 1759 
z
M 3341 1997 
L 3341 0 
L 2766 0 
L 2766 531 
Q 2569 213 2275 61 
Q 1981 -91 1556 -91 
Q 1019 -91 701 211 
Q 384 513 384 1019 
Q 384 1609 779 1909 
Q 1175 2209 1959 2209 
L 2766 2209 
L 2766 2266 
Q 2766 2663 2505 2880 
Q 2244 3097 1772 3097 
Q 1472 3097 1187 3025 
Q 903 2953 641 2809 
L 641 3341 
Q 956 3463 1253 3523 
Q 1550 3584 1831 3584 
Q 2591 3584 2966 3190 
Q 3341 2797 3341 1997 
z
" transform="scale(0.015625)"/>
      <path id="DejaVuSans-72" d="M 2631 2963 
Q 2534 3019 2420 3045 
Q 2306 3072 2169 3072 
Q 1681 3072 1420 2755 
Q 1159 2438 1159 1844 
L 1159 0 
L 581 0 
L 581 3500 
L 1159 3500 
L 1159 2956 
Q 1341 3275 1631 3429 
Q 1922 3584 2338 3584 
Q 2397 3584 2469 3576 
Q 2541 3569 2628 3553 
L 2631 2963 
z
" transform="scale(0.015625)"/>
      <path id="DejaVuSans-2d" d="M 313 2009 
L 1997 2009 
L 1997 1497 
L 313 1497 
L 313 2009 
z
" transform="scale(0.015625)"/>
      <path id="DejaVuSans-54" d="M -19 4666 
L 3928 4666 
L 3928 4134 
L 2272 4134 
L 2272 0 
L 1638 0 
L 1638 4134 
L -19 4134 
L -19 4666 
z
" transform="scale(0.015625)"/>
      <path id="DejaVuSans-79" d="M 2059 -325 
Q 1816 -950 1584 -1140 
Q 1353 -1331 966 -1331 
L 506 -1331 
L 506 -850 
L 844 -850 
Q 1081 -850 1212 -737 
Q 1344 -625 1503 -206 
L 1606 56 
L 191 3500 
L 800 3500 
L 1894 763 
L 2988 3500 
L 3597 3500 
L 2059 -325 
z
" transform="scale(0.015625)"/>
      <path id="DejaVuSans-68" d="M 3513 2113 
L 3513 0 
L 2938 0 
L 2938 2094 
Q 2938 2591 2744 2837 
Q 2550 3084 2163 3084 
Q 1697 3084 1428 2787 
Q 1159 2491 1159 1978 
L 1159 0 
L 581 0 
L 581 4863 
L 1159 4863 
L 1159 2956 
Q 1366 3272 1645 3428 
Q 1925 3584 2291 3584 
Q 2894 3584 3203 3211 
Q 3513 2838 3513 2113 
z
" transform="scale(0.015625)"/>
      <path id="DejaVuSans-6f" d="M 1959 3097 
Q 1497 3097 1228 2736 
Q 959 2375 959 1747 
Q 959 1119 1226 758 
Q 1494 397 1959 397 
Q 2419 397 2687 759 
Q 2956 1122 2956 1747 
Q 2956 2369 2687 2733 
Q 2419 3097 1959 3097 
z
M 1959 3584 
Q 2709 3584 3137 3096 
Q 3566 2609 3566 1747 
Q 3566 888 3137 398 
Q 2709 -91 1959 -91 
Q 1206 -91 779 398 
Q 353 888 353 1747 
Q 353 2609 779 3096 
Q 1206 3584 1959 3584 
z
" transform="scale(0.015625)"/>
      <path id="DejaVuSans-6c" d="M 603 4863 
L 1178 4863 
L 1178 0 
L 603 0 
L 603 4863 
z
" transform="scale(0.015625)"/>
      <path id="DejaVuSans-5f" d="M 3263 -1063 
L 3263 -1509 
L -63 -1509 
L -63 -1063 
L 3263 -1063 
z
" transform="scale(0.015625)"/>
      <path id="DejaVuSans-76" d="M 191 3500 
L 800 3500 
L 1894 563 
L 2988 3500 
L 3597 3500 
L 2284 0 
L 1503 0 
L 191 3500 
z
" transform="scale(0.015625)"/>
      <path id="DejaVuSans-6e" d="M 3513 2113 
L 3513 0 
L 2938 0 
L 2938 2094 
Q 2938 2591 2744 2837 
Q 2550 3084 2163 3084 
Q 1697 3084 1428 2787 
Q 1159 2491 1159 1978 
L 1159 0 
L 581 0 
L 581 3500 
L 1159 3500 
L 1159 2956 
Q 1366 3272 1645 3428 
Q 1925 3584 2291 3584 
Q 2894 3584 3203 3211 
Q 3513 2838 3513 2113 
z
" transform="scale(0.015625)"/>
     </defs>
     <use xlink:href="#DejaVuSans-4f"/>
     <use xlink:href="#DejaVuSans-73" x="78.710938"/>
     <use xlink:href="#DejaVuSans-6b" x="130.810547"/>
     <use xlink:href="#DejaVuSans-61" x="186.970703"/>
     <use xlink:href="#DejaVuSans-72" x="248.25"/>
     <use xlink:href="#DejaVuSans-2d" x="282.988281"/>
     <use xlink:href="#DejaVuSans-54" x="309.947266"/>
     <use xlink:href="#DejaVuSans-79" x="355.40625"/>
     <use xlink:href="#DejaVuSans-68" x="414.585938"/>
     <use xlink:href="#DejaVuSans-6f" x="477.964844"/>
     <use xlink:href="#DejaVuSans-6c" x="539.146484"/>
     <use xlink:href="#DejaVuSans-74" x="566.929688"/>
     <use xlink:href="#DejaVuSans-5f" x="606.138672"/>
     <use xlink:href="#DejaVuSans-72" x="656.138672"/>
     <use xlink:href="#DejaVuSans-65" x="695.001953"/>
     <use xlink:href="#DejaVuSans-73" x="756.525391"/>
     <use xlink:href="#DejaVuSans-74" x="808.625"/>
     <use xlink:href="#DejaVuSans-61" x="847.833984"/>
     <use xlink:href="#DejaVuSans-72" x="909.113281"/>
     <use xlink:href="#DejaVuSans-74" x="950.226562"/>
     <use xlink:href="#DejaVuSans-2d" x="989.435547"/>
     <use xlink:href="#DejaVuSans-76" x="1022.894531"/>
     <use xlink:href="#DejaVuSans-69" x="1082.074219"/>
     <use xlink:href="#DejaVuSans-6e" x="1109.857422"/>
     <use xlink:href="#DejaVuSans-6b" x="1173.236328"/>
     <use xlink:href="#DejaVuSans-65" x="1227.521484"/>
     <use xlink:href="#DejaVuSans-6c" x="1289.044922"/>
    </g>
   </g>
   <g id="legend_1">
    <g id="patch_5">
     <path d="M 374.322656 61.311562 
L 619.842188 61.311562 
Q 622.842188 61.311562 622.842188 58.311562 
L 622.842188 37.377187 
Q 622.842188 34.377187 619.842188 34.377187 
L 374.322656 34.377187 
Q 371.322656 34.377187 371.322656 37.377187 
L 371.322656 58.311562 
Q 371.322656 61.311562 374.322656 61.311562 
z
" style="fill: #ffffff; opacity: 0.8; stroke: #cccccc; stroke-linejoin: miter"/>
    </g>
    <g id="line2d_24">
     <path d="M 377.322656 46.524844 
L 392.322656 46.524844 
L 407.322656 46.524844 
" style="fill: none; stroke: #1f77b4; stroke-width: 2; stroke-linecap: square"/>
    </g>
    <g id="text_15">
     <!-- Oskar-Tyholt_restart-vinkel -->
     <g style="fill: #808080" transform="translate(419.322656 51.774844) scale(0.15 -0.15)">
      <use xlink:href="#DejaVuSans-4f"/>
      <use xlink:href="#DejaVuSans-73" x="78.710938"/>
      <use xlink:href="#DejaVuSans-6b" x="130.810547"/>
      <use xlink:href="#DejaVuSans-61" x="186.970703"/>
      <use xlink:href="#DejaVuSans-72" x="248.25"/>
      <use xlink:href="#DejaVuSans-2d" x="282.988281"/>
      <use xlink:href="#DejaVuSans-54" x="309.947266"/>
      <use xlink:href="#DejaVuSans-79" x="355.40625"/>
      <use xlink:href="#DejaVuSans-68" x="414.585938"/>
      <use xlink:href="#DejaVuSans-6f" x="477.964844"/>
      <use xlink:href="#DejaVuSans-6c" x="539.146484"/>
      <use xlink:href="#DejaVuSans-74" x="566.929688"/>
      <use xlink:href="#DejaVuSans-5f" x="606.138672"/>
      <use xlink:href="#DejaVuSans-72" x="656.138672"/>
      <use xlink:href="#DejaVuSans-65" x="695.001953"/>
      <use xlink:href="#DejaVuSans-73" x="756.525391"/>
      <use xlink:href="#DejaVuSans-74" x="808.625"/>
      <use xlink:href="#DejaVuSans-61" x="847.833984"/>
      <use xlink:href="#DejaVuSans-72" x="909.113281"/>
      <use xlink:href="#DejaVuSans-74" x="950.226562"/>
      <use xlink:href="#DejaVuSans-2d" x="989.435547"/>
      <use xlink:href="#DejaVuSans-76" x="1022.894531"/>
      <use xlink:href="#DejaVuSans-69" x="1082.074219"/>
      <use xlink:href="#DejaVuSans-6e" x="1109.857422"/>
      <use xlink:href="#DejaVuSans-6b" x="1173.236328"/>
      <use xlink:href="#DejaVuSans-65" x="1227.521484"/>
      <use xlink:href="#DejaVuSans-6c" x="1289.044922"/>
     </g>
    </g>
   </g>
  </g>
 </g>
 <defs>
  <clipPath id="pcfad640d99">
   <rect x="72.342187" y="26.877187" width="558" height="388.08"/>
  </clipPath>
 </defs>
</svg>
