<?xml version="1.0" encoding="utf-8" standalone="no"?>
<!DOCTYPE svg PUBLIC "-//W3C//DTD SVG 1.1//EN"
  "http://www.w3.org/Graphics/SVG/1.1/DTD/svg11.dtd">
<svg xmlns:xlink="http://www.w3.org/1999/xlink" width="644.001741pt" height="458.691562pt" viewBox="0 0 644.001741 458.691562" xmlns="http://www.w3.org/2000/svg" version="1.1">
 <metadata>
  <rdf:RDF xmlns:dc="http://purl.org/dc/elements/1.1/" xmlns:cc="http://creativecommons.org/ns#" xmlns:rdf="http://www.w3.org/1999/02/22-rdf-syntax-ns#">
   <cc:Work>
    <dc:type rdf:resource="http://purl.org/dc/dcmitype/StillImage"/>
    <dc:date>2023-04-10T19:04:10.676866</dc:date>
    <dc:format>image/svg+xml</dc:format>
    <dc:creator>
     <cc:Agent>
      <dc:title>Matplotlib v3.7.1, https://matplotlib.org/</dc:title>
     </cc:Agent>
    </dc:creator>
   </cc:Work>
  </rdf:RDF>
 </metadata>
 <defs>
  <style type="text/css">*{stroke-linejoin: round; stroke-linecap: butt}</style>
 </defs>
 <g id="figure_1">
  <g id="patch_1">
   <path d="M 0 458.691562 
L 644.001741 458.691562 
L 644.001741 0 
L 0 0 
L 0 458.691562 
z
" style="fill: none"/>
  </g>
  <g id="axes_1">
   <g id="patch_2">
    <path d="M 72.342187 414.957187 
L 630.342188 414.957187 
L 630.342188 26.877187 
L 72.342187 26.877187 
L 72.342187 414.957187 
z
" style="fill: none"/>
   </g>
   <g id="matplotlib.axis_1">
    <g id="xtick_1">
     <g id="line2d_1">
      <path d="M 109.766396 414.957187 
L 109.766396 26.877187 
" clip-path="url(#pda488ab967)" style="fill: none; stroke: #808080; stroke-width: 0.8; stroke-linecap: square"/>
     </g>
     <g id="line2d_2">
      <defs>
       <path id="ma94b33360d" d="M 0 0 
L 0 -5 
" style="stroke: #808080; stroke-width: 0.8"/>
      </defs>
      <g>
       <use xlink:href="#ma94b33360d" x="109.766396" y="414.957187" style="fill: #808080; stroke: #808080; stroke-width: 0.8"/>
      </g>
     </g>
     <g id="text_1">
      <!-- 50 -->
      <g style="fill: #808080" transform="translate(100.222646 429.854844) scale(0.15 -0.15)">
       <defs>
        <path id="DejaVuSans-35" d="M 691 4666 
L 3169 4666 
L 3169 4134 
L 1269 4134 
L 1269 2991 
Q 1406 3038 1543 3061 
Q 1681 3084 1819 3084 
Q 2600 3084 3056 2656 
Q 3513 2228 3513 1497 
Q 3513 744 3044 326 
Q 2575 -91 1722 -91 
Q 1428 -91 1123 -41 
Q 819 9 494 109 
L 494 744 
Q 775 591 1075 516 
Q 1375 441 1709 441 
Q 2250 441 2565 725 
Q 2881 1009 2881 1497 
Q 2881 1984 2565 2268 
Q 2250 2553 1709 2553 
Q 1456 2553 1204 2497 
Q 953 2441 691 2322 
L 691 4666 
z
" transform="scale(0.015625)"/>
        <path id="DejaVuSans-30" d="M 2034 4250 
Q 1547 4250 1301 3770 
Q 1056 3291 1056 2328 
Q 1056 1369 1301 889 
Q 1547 409 2034 409 
Q 2525 409 2770 889 
Q 3016 1369 3016 2328 
Q 3016 3291 2770 3770 
Q 2525 4250 2034 4250 
z
M 2034 4750 
Q 2819 4750 3233 4129 
Q 3647 3509 3647 2328 
Q 3647 1150 3233 529 
Q 2819 -91 2034 -91 
Q 1250 -91 836 529 
Q 422 1150 422 2328 
Q 422 3509 836 4129 
Q 1250 4750 2034 4750 
z
" transform="scale(0.015625)"/>
       </defs>
       <use xlink:href="#DejaVuSans-35"/>
       <use xlink:href="#DejaVuSans-30" x="63.623047"/>
      </g>
     </g>
    </g>
    <g id="xtick_2">
     <g id="line2d_3">
      <path d="M 174.452846 414.957187 
L 174.452846 26.877187 
" clip-path="url(#pda488ab967)" style="fill: none; stroke: #808080; stroke-width: 0.8; stroke-linecap: square"/>
     </g>
     <g id="line2d_4">
      <g>
       <use xlink:href="#ma94b33360d" x="174.452846" y="414.957187" style="fill: #808080; stroke: #808080; stroke-width: 0.8"/>
      </g>
     </g>
     <g id="text_2">
      <!-- 55 -->
      <g style="fill: #808080" transform="translate(164.909096 429.854844) scale(0.15 -0.15)">
       <use xlink:href="#DejaVuSans-35"/>
       <use xlink:href="#DejaVuSans-35" x="63.623047"/>
      </g>
     </g>
    </g>
    <g id="xtick_3">
     <g id="line2d_5">
      <path d="M 239.139295 414.957187 
L 239.139295 26.877187 
" clip-path="url(#pda488ab967)" style="fill: none; stroke: #808080; stroke-width: 0.8; stroke-linecap: square"/>
     </g>
     <g id="line2d_6">
      <g>
       <use xlink:href="#ma94b33360d" x="239.139295" y="414.957187" style="fill: #808080; stroke: #808080; stroke-width: 0.8"/>
      </g>
     </g>
     <g id="text_3">
      <!-- 60 -->
      <g style="fill: #808080" transform="translate(229.595545 429.854844) scale(0.15 -0.15)">
       <defs>
        <path id="DejaVuSans-36" d="M 2113 2584 
Q 1688 2584 1439 2293 
Q 1191 2003 1191 1497 
Q 1191 994 1439 701 
Q 1688 409 2113 409 
Q 2538 409 2786 701 
Q 3034 994 3034 1497 
Q 3034 2003 2786 2293 
Q 2538 2584 2113 2584 
z
M 3366 4563 
L 3366 3988 
Q 3128 4100 2886 4159 
Q 2644 4219 2406 4219 
Q 1781 4219 1451 3797 
Q 1122 3375 1075 2522 
Q 1259 2794 1537 2939 
Q 1816 3084 2150 3084 
Q 2853 3084 3261 2657 
Q 3669 2231 3669 1497 
Q 3669 778 3244 343 
Q 2819 -91 2113 -91 
Q 1303 -91 875 529 
Q 447 1150 447 2328 
Q 447 3434 972 4092 
Q 1497 4750 2381 4750 
Q 2619 4750 2861 4703 
Q 3103 4656 3366 4563 
z
" transform="scale(0.015625)"/>
       </defs>
       <use xlink:href="#DejaVuSans-36"/>
       <use xlink:href="#DejaVuSans-30" x="63.623047"/>
      </g>
     </g>
    </g>
    <g id="xtick_4">
     <g id="line2d_7">
      <path d="M 303.825745 414.957187 
L 303.825745 26.877187 
" clip-path="url(#pda488ab967)" style="fill: none; stroke: #808080; stroke-width: 0.8; stroke-linecap: square"/>
     </g>
     <g id="line2d_8">
      <g>
       <use xlink:href="#ma94b33360d" x="303.825745" y="414.957187" style="fill: #808080; stroke: #808080; stroke-width: 0.8"/>
      </g>
     </g>
     <g id="text_4">
      <!-- 65 -->
      <g style="fill: #808080" transform="translate(294.281995 429.854844) scale(0.15 -0.15)">
       <use xlink:href="#DejaVuSans-36"/>
       <use xlink:href="#DejaVuSans-35" x="63.623047"/>
      </g>
     </g>
    </g>
    <g id="xtick_5">
     <g id="line2d_9">
      <path d="M 368.512194 414.957187 
L 368.512194 26.877187 
" clip-path="url(#pda488ab967)" style="fill: none; stroke: #808080; stroke-width: 0.8; stroke-linecap: square"/>
     </g>
     <g id="line2d_10">
      <g>
       <use xlink:href="#ma94b33360d" x="368.512194" y="414.957187" style="fill: #808080; stroke: #808080; stroke-width: 0.8"/>
      </g>
     </g>
     <g id="text_5">
      <!-- 70 -->
      <g style="fill: #808080" transform="translate(358.968444 429.854844) scale(0.15 -0.15)">
       <defs>
        <path id="DejaVuSans-37" d="M 525 4666 
L 3525 4666 
L 3525 4397 
L 1831 0 
L 1172 0 
L 2766 4134 
L 525 4134 
L 525 4666 
z
" transform="scale(0.015625)"/>
       </defs>
       <use xlink:href="#DejaVuSans-37"/>
       <use xlink:href="#DejaVuSans-30" x="63.623047"/>
      </g>
     </g>
    </g>
    <g id="xtick_6">
     <g id="line2d_11">
      <path d="M 433.198643 414.957187 
L 433.198643 26.877187 
" clip-path="url(#pda488ab967)" style="fill: none; stroke: #808080; stroke-width: 0.8; stroke-linecap: square"/>
     </g>
     <g id="line2d_12">
      <g>
       <use xlink:href="#ma94b33360d" x="433.198643" y="414.957187" style="fill: #808080; stroke: #808080; stroke-width: 0.8"/>
      </g>
     </g>
     <g id="text_6">
      <!-- 75 -->
      <g style="fill: #808080" transform="translate(423.654893 429.854844) scale(0.15 -0.15)">
       <use xlink:href="#DejaVuSans-37"/>
       <use xlink:href="#DejaVuSans-35" x="63.623047"/>
      </g>
     </g>
    </g>
    <g id="xtick_7">
     <g id="line2d_13">
      <path d="M 497.885093 414.957187 
L 497.885093 26.877187 
" clip-path="url(#pda488ab967)" style="fill: none; stroke: #808080; stroke-width: 0.8; stroke-linecap: square"/>
     </g>
     <g id="line2d_14">
      <g>
       <use xlink:href="#ma94b33360d" x="497.885093" y="414.957187" style="fill: #808080; stroke: #808080; stroke-width: 0.8"/>
      </g>
     </g>
     <g id="text_7">
      <!-- 80 -->
      <g style="fill: #808080" transform="translate(488.341343 429.854844) scale(0.15 -0.15)">
       <defs>
        <path id="DejaVuSans-38" d="M 2034 2216 
Q 1584 2216 1326 1975 
Q 1069 1734 1069 1313 
Q 1069 891 1326 650 
Q 1584 409 2034 409 
Q 2484 409 2743 651 
Q 3003 894 3003 1313 
Q 3003 1734 2745 1975 
Q 2488 2216 2034 2216 
z
M 1403 2484 
Q 997 2584 770 2862 
Q 544 3141 544 3541 
Q 544 4100 942 4425 
Q 1341 4750 2034 4750 
Q 2731 4750 3128 4425 
Q 3525 4100 3525 3541 
Q 3525 3141 3298 2862 
Q 3072 2584 2669 2484 
Q 3125 2378 3379 2068 
Q 3634 1759 3634 1313 
Q 3634 634 3220 271 
Q 2806 -91 2034 -91 
Q 1263 -91 848 271 
Q 434 634 434 1313 
Q 434 1759 690 2068 
Q 947 2378 1403 2484 
z
M 1172 3481 
Q 1172 3119 1398 2916 
Q 1625 2713 2034 2713 
Q 2441 2713 2670 2916 
Q 2900 3119 2900 3481 
Q 2900 3844 2670 4047 
Q 2441 4250 2034 4250 
Q 1625 4250 1398 4047 
Q 1172 3844 1172 3481 
z
" transform="scale(0.015625)"/>
       </defs>
       <use xlink:href="#DejaVuSans-38"/>
       <use xlink:href="#DejaVuSans-30" x="63.623047"/>
      </g>
     </g>
    </g>
    <g id="xtick_8">
     <g id="line2d_15">
      <path d="M 562.571542 414.957187 
L 562.571542 26.877187 
" clip-path="url(#pda488ab967)" style="fill: none; stroke: #808080; stroke-width: 0.8; stroke-linecap: square"/>
     </g>
     <g id="line2d_16">
      <g>
       <use xlink:href="#ma94b33360d" x="562.571542" y="414.957187" style="fill: #808080; stroke: #808080; stroke-width: 0.8"/>
      </g>
     </g>
     <g id="text_8">
      <!-- 85 -->
      <g style="fill: #808080" transform="translate(553.027792 429.854844) scale(0.15 -0.15)">
       <use xlink:href="#DejaVuSans-38"/>
       <use xlink:href="#DejaVuSans-35" x="63.623047"/>
      </g>
     </g>
    </g>
    <g id="xtick_9">
     <g id="line2d_17">
      <path d="M 627.257991 414.957187 
L 627.257991 26.877187 
" clip-path="url(#pda488ab967)" style="fill: none; stroke: #808080; stroke-width: 0.8; stroke-linecap: square"/>
     </g>
     <g id="line2d_18">
      <g>
       <use xlink:href="#ma94b33360d" x="627.257991" y="414.957187" style="fill: #808080; stroke: #808080; stroke-width: 0.8"/>
      </g>
     </g>
     <g id="text_9">
      <!-- 90 -->
      <g style="fill: #808080" transform="translate(617.714241 429.854844) scale(0.15 -0.15)">
       <defs>
        <path id="DejaVuSans-39" d="M 703 97 
L 703 672 
Q 941 559 1184 500 
Q 1428 441 1663 441 
Q 2288 441 2617 861 
Q 2947 1281 2994 2138 
Q 2813 1869 2534 1725 
Q 2256 1581 1919 1581 
Q 1219 1581 811 2004 
Q 403 2428 403 3163 
Q 403 3881 828 4315 
Q 1253 4750 1959 4750 
Q 2769 4750 3195 4129 
Q 3622 3509 3622 2328 
Q 3622 1225 3098 567 
Q 2575 -91 1691 -91 
Q 1453 -91 1209 -44 
Q 966 3 703 97 
z
M 1959 2075 
Q 2384 2075 2632 2365 
Q 2881 2656 2881 3163 
Q 2881 3666 2632 3958 
Q 2384 4250 1959 4250 
Q 1534 4250 1286 3958 
Q 1038 3666 1038 3163 
Q 1038 2656 1286 2365 
Q 1534 2075 1959 2075 
z
" transform="scale(0.015625)"/>
       </defs>
       <use xlink:href="#DejaVuSans-39"/>
       <use xlink:href="#DejaVuSans-30" x="63.623047"/>
      </g>
     </g>
    </g>
    <g id="text_10">
     <!-- time [s] -->
     <g style="fill: #808080" transform="translate(322.255078 448.372031) scale(0.15 -0.15)">
      <defs>
       <path id="DejaVuSans-74" d="M 1172 4494 
L 1172 3500 
L 2356 3500 
L 2356 3053 
L 1172 3053 
L 1172 1153 
Q 1172 725 1289 603 
Q 1406 481 1766 481 
L 2356 481 
L 2356 0 
L 1766 0 
Q 1100 0 847 248 
Q 594 497 594 1153 
L 594 3053 
L 172 3053 
L 172 3500 
L 594 3500 
L 594 4494 
L 1172 4494 
z
" transform="scale(0.015625)"/>
       <path id="DejaVuSans-69" d="M 603 3500 
L 1178 3500 
L 1178 0 
L 603 0 
L 603 3500 
z
M 603 4863 
L 1178 4863 
L 1178 4134 
L 603 4134 
L 603 4863 
z
" transform="scale(0.015625)"/>
       <path id="DejaVuSans-6d" d="M 3328 2828 
Q 3544 3216 3844 3400 
Q 4144 3584 4550 3584 
Q 5097 3584 5394 3201 
Q 5691 2819 5691 2113 
L 5691 0 
L 5113 0 
L 5113 2094 
Q 5113 2597 4934 2840 
Q 4756 3084 4391 3084 
Q 3944 3084 3684 2787 
Q 3425 2491 3425 1978 
L 3425 0 
L 2847 0 
L 2847 2094 
Q 2847 2600 2669 2842 
Q 2491 3084 2119 3084 
Q 1678 3084 1418 2786 
Q 1159 2488 1159 1978 
L 1159 0 
L 581 0 
L 581 3500 
L 1159 3500 
L 1159 2956 
Q 1356 3278 1631 3431 
Q 1906 3584 2284 3584 
Q 2666 3584 2933 3390 
Q 3200 3197 3328 2828 
z
" transform="scale(0.015625)"/>
       <path id="DejaVuSans-65" d="M 3597 1894 
L 3597 1613 
L 953 1613 
Q 991 1019 1311 708 
Q 1631 397 2203 397 
Q 2534 397 2845 478 
Q 3156 559 3463 722 
L 3463 178 
Q 3153 47 2828 -22 
Q 2503 -91 2169 -91 
Q 1331 -91 842 396 
Q 353 884 353 1716 
Q 353 2575 817 3079 
Q 1281 3584 2069 3584 
Q 2775 3584 3186 3129 
Q 3597 2675 3597 1894 
z
M 3022 2063 
Q 3016 2534 2758 2815 
Q 2500 3097 2075 3097 
Q 1594 3097 1305 2825 
Q 1016 2553 972 2059 
L 3022 2063 
z
" transform="scale(0.015625)"/>
       <path id="DejaVuSans-20" transform="scale(0.015625)"/>
       <path id="DejaVuSans-5b" d="M 550 4863 
L 1875 4863 
L 1875 4416 
L 1125 4416 
L 1125 -397 
L 1875 -397 
L 1875 -844 
L 550 -844 
L 550 4863 
z
" transform="scale(0.015625)"/>
       <path id="DejaVuSans-73" d="M 2834 3397 
L 2834 2853 
Q 2591 2978 2328 3040 
Q 2066 3103 1784 3103 
Q 1356 3103 1142 2972 
Q 928 2841 928 2578 
Q 928 2378 1081 2264 
Q 1234 2150 1697 2047 
L 1894 2003 
Q 2506 1872 2764 1633 
Q 3022 1394 3022 966 
Q 3022 478 2636 193 
Q 2250 -91 1575 -91 
Q 1294 -91 989 -36 
Q 684 19 347 128 
L 347 722 
Q 666 556 975 473 
Q 1284 391 1588 391 
Q 1994 391 2212 530 
Q 2431 669 2431 922 
Q 2431 1156 2273 1281 
Q 2116 1406 1581 1522 
L 1381 1569 
Q 847 1681 609 1914 
Q 372 2147 372 2553 
Q 372 3047 722 3315 
Q 1072 3584 1716 3584 
Q 2034 3584 2315 3537 
Q 2597 3491 2834 3397 
z
" transform="scale(0.015625)"/>
       <path id="DejaVuSans-5d" d="M 1947 4863 
L 1947 -844 
L 622 -844 
L 622 -397 
L 1369 -397 
L 1369 4416 
L 622 4416 
L 622 4863 
L 1947 4863 
z
" transform="scale(0.015625)"/>
      </defs>
      <use xlink:href="#DejaVuSans-74"/>
      <use xlink:href="#DejaVuSans-69" x="39.208984"/>
      <use xlink:href="#DejaVuSans-6d" x="66.992188"/>
      <use xlink:href="#DejaVuSans-65" x="164.404297"/>
      <use xlink:href="#DejaVuSans-20" x="225.927734"/>
      <use xlink:href="#DejaVuSans-5b" x="257.714844"/>
      <use xlink:href="#DejaVuSans-73" x="296.728516"/>
      <use xlink:href="#DejaVuSans-5d" x="348.828125"/>
     </g>
    </g>
   </g>
   <g id="matplotlib.axis_2">
    <g id="ytick_1">
     <g id="line2d_19">
      <path d="M 72.342187 362.212736 
L 630.342188 362.212736 
" clip-path="url(#pda488ab967)" style="fill: none; stroke: #808080; stroke-width: 0.8; stroke-linecap: square"/>
     </g>
     <g id="line2d_20">
      <defs>
       <path id="mcce55a5209" d="M 0 0 
L 5 0 
" style="stroke: #808080; stroke-width: 0.8"/>
      </defs>
      <g>
       <use xlink:href="#mcce55a5209" x="72.342187" y="362.212736" style="fill: #808080; stroke: #808080; stroke-width: 0.8"/>
      </g>
     </g>
     <g id="text_11">
      <!-- 282.0 -->
      <g style="fill: #808080" transform="translate(25.9 367.911564) scale(0.15 -0.15)">
       <defs>
        <path id="DejaVuSans-32" d="M 1228 531 
L 3431 531 
L 3431 0 
L 469 0 
L 469 531 
Q 828 903 1448 1529 
Q 2069 2156 2228 2338 
Q 2531 2678 2651 2914 
Q 2772 3150 2772 3378 
Q 2772 3750 2511 3984 
Q 2250 4219 1831 4219 
Q 1534 4219 1204 4116 
Q 875 4013 500 3803 
L 500 4441 
Q 881 4594 1212 4672 
Q 1544 4750 1819 4750 
Q 2544 4750 2975 4387 
Q 3406 4025 3406 3419 
Q 3406 3131 3298 2873 
Q 3191 2616 2906 2266 
Q 2828 2175 2409 1742 
Q 1991 1309 1228 531 
z
" transform="scale(0.015625)"/>
        <path id="DejaVuSans-2e" d="M 684 794 
L 1344 794 
L 1344 0 
L 684 0 
L 684 794 
z
" transform="scale(0.015625)"/>
       </defs>
       <use xlink:href="#DejaVuSans-32"/>
       <use xlink:href="#DejaVuSans-38" x="63.623047"/>
       <use xlink:href="#DejaVuSans-32" x="127.246094"/>
       <use xlink:href="#DejaVuSans-2e" x="190.869141"/>
       <use xlink:href="#DejaVuSans-30" x="222.65625"/>
      </g>
     </g>
    </g>
    <g id="ytick_2">
     <g id="line2d_21">
      <path d="M 72.342187 305.015897 
L 630.342188 305.015897 
" clip-path="url(#pda488ab967)" style="fill: none; stroke: #808080; stroke-width: 0.8; stroke-linecap: square"/>
     </g>
     <g id="line2d_22">
      <g>
       <use xlink:href="#mcce55a5209" x="72.342187" y="305.015897" style="fill: #808080; stroke: #808080; stroke-width: 0.8"/>
      </g>
     </g>
     <g id="text_12">
      <!-- 282.5 -->
      <g style="fill: #808080" transform="translate(25.9 310.714725) scale(0.15 -0.15)">
       <use xlink:href="#DejaVuSans-32"/>
       <use xlink:href="#DejaVuSans-38" x="63.623047"/>
       <use xlink:href="#DejaVuSans-32" x="127.246094"/>
       <use xlink:href="#DejaVuSans-2e" x="190.869141"/>
       <use xlink:href="#DejaVuSans-35" x="222.65625"/>
      </g>
     </g>
    </g>
    <g id="ytick_3">
     <g id="line2d_23">
      <path d="M 72.342187 247.819058 
L 630.342188 247.819058 
" clip-path="url(#pda488ab967)" style="fill: none; stroke: #808080; stroke-width: 0.8; stroke-linecap: square"/>
     </g>
     <g id="line2d_24">
      <g>
       <use xlink:href="#mcce55a5209" x="72.342187" y="247.819058" style="fill: #808080; stroke: #808080; stroke-width: 0.8"/>
      </g>
     </g>
     <g id="text_13">
      <!-- 283.0 -->
      <g style="fill: #808080" transform="translate(25.9 253.517886) scale(0.15 -0.15)">
       <defs>
        <path id="DejaVuSans-33" d="M 2597 2516 
Q 3050 2419 3304 2112 
Q 3559 1806 3559 1356 
Q 3559 666 3084 287 
Q 2609 -91 1734 -91 
Q 1441 -91 1130 -33 
Q 819 25 488 141 
L 488 750 
Q 750 597 1062 519 
Q 1375 441 1716 441 
Q 2309 441 2620 675 
Q 2931 909 2931 1356 
Q 2931 1769 2642 2001 
Q 2353 2234 1838 2234 
L 1294 2234 
L 1294 2753 
L 1863 2753 
Q 2328 2753 2575 2939 
Q 2822 3125 2822 3475 
Q 2822 3834 2567 4026 
Q 2313 4219 1838 4219 
Q 1578 4219 1281 4162 
Q 984 4106 628 3988 
L 628 4550 
Q 988 4650 1302 4700 
Q 1616 4750 1894 4750 
Q 2613 4750 3031 4423 
Q 3450 4097 3450 3541 
Q 3450 3153 3228 2886 
Q 3006 2619 2597 2516 
z
" transform="scale(0.015625)"/>
       </defs>
       <use xlink:href="#DejaVuSans-32"/>
       <use xlink:href="#DejaVuSans-38" x="63.623047"/>
       <use xlink:href="#DejaVuSans-33" x="127.246094"/>
       <use xlink:href="#DejaVuSans-2e" x="190.869141"/>
       <use xlink:href="#DejaVuSans-30" x="222.65625"/>
      </g>
     </g>
    </g>
    <g id="ytick_4">
     <g id="line2d_25">
      <path d="M 72.342187 190.622219 
L 630.342188 190.622219 
" clip-path="url(#pda488ab967)" style="fill: none; stroke: #808080; stroke-width: 0.8; stroke-linecap: square"/>
     </g>
     <g id="line2d_26">
      <g>
       <use xlink:href="#mcce55a5209" x="72.342187" y="190.622219" style="fill: #808080; stroke: #808080; stroke-width: 0.8"/>
      </g>
     </g>
     <g id="text_14">
      <!-- 283.5 -->
      <g style="fill: #808080" transform="translate(25.9 196.321048) scale(0.15 -0.15)">
       <use xlink:href="#DejaVuSans-32"/>
       <use xlink:href="#DejaVuSans-38" x="63.623047"/>
       <use xlink:href="#DejaVuSans-33" x="127.246094"/>
       <use xlink:href="#DejaVuSans-2e" x="190.869141"/>
       <use xlink:href="#DejaVuSans-35" x="222.65625"/>
      </g>
     </g>
    </g>
    <g id="ytick_5">
     <g id="line2d_27">
      <path d="M 72.342187 133.425381 
L 630.342188 133.425381 
" clip-path="url(#pda488ab967)" style="fill: none; stroke: #808080; stroke-width: 0.8; stroke-linecap: square"/>
     </g>
     <g id="line2d_28">
      <g>
       <use xlink:href="#mcce55a5209" x="72.342187" y="133.425381" style="fill: #808080; stroke: #808080; stroke-width: 0.8"/>
      </g>
     </g>
     <g id="text_15">
      <!-- 284.0 -->
      <g style="fill: #808080" transform="translate(25.9 139.124209) scale(0.15 -0.15)">
       <defs>
        <path id="DejaVuSans-34" d="M 2419 4116 
L 825 1625 
L 2419 1625 
L 2419 4116 
z
M 2253 4666 
L 3047 4666 
L 3047 1625 
L 3713 1625 
L 3713 1100 
L 3047 1100 
L 3047 0 
L 2419 0 
L 2419 1100 
L 313 1100 
L 313 1709 
L 2253 4666 
z
" transform="scale(0.015625)"/>
       </defs>
       <use xlink:href="#DejaVuSans-32"/>
       <use xlink:href="#DejaVuSans-38" x="63.623047"/>
       <use xlink:href="#DejaVuSans-34" x="127.246094"/>
       <use xlink:href="#DejaVuSans-2e" x="190.869141"/>
       <use xlink:href="#DejaVuSans-30" x="222.65625"/>
      </g>
     </g>
    </g>
    <g id="ytick_6">
     <g id="line2d_29">
      <path d="M 72.342187 76.228542 
L 630.342188 76.228542 
" clip-path="url(#pda488ab967)" style="fill: none; stroke: #808080; stroke-width: 0.8; stroke-linecap: square"/>
     </g>
     <g id="line2d_30">
      <g>
       <use xlink:href="#mcce55a5209" x="72.342187" y="76.228542" style="fill: #808080; stroke: #808080; stroke-width: 0.8"/>
      </g>
     </g>
     <g id="text_16">
      <!-- 284.5 -->
      <g style="fill: #808080" transform="translate(25.9 81.92737) scale(0.15 -0.15)">
       <use xlink:href="#DejaVuSans-32"/>
       <use xlink:href="#DejaVuSans-38" x="63.623047"/>
       <use xlink:href="#DejaVuSans-34" x="127.246094"/>
       <use xlink:href="#DejaVuSans-2e" x="190.869141"/>
       <use xlink:href="#DejaVuSans-35" x="222.65625"/>
      </g>
     </g>
    </g>
    <g id="text_17">
     <!-- $\theta$ [deg] -->
     <g style="fill: #808080" transform="translate(18.75 247.917187) rotate(-90) scale(0.15 -0.15)">
      <defs>
       <path id="DejaVuSans-Oblique-3b8" d="M 2913 2219 
L 925 2219 
Q 791 1284 928 888 
Q 1100 400 1566 400 
Q 2034 400 2391 891 
Q 2703 1322 2913 2219 
z
M 3009 2750 
Q 3094 3638 2984 3950 
Q 2813 4444 2353 4444 
Q 1875 4444 1525 3956 
Q 1250 3563 1034 2750 
L 3009 2750 
z
M 2444 4913 
Q 3194 4913 3494 4250 
Q 3794 3591 3566 2422 
Q 3341 1256 2781 594 
Q 2225 -72 1475 -72 
Q 722 -72 425 594 
Q 128 1256 353 2422 
Q 581 3591 1134 4250 
Q 1691 4913 2444 4913 
z
" transform="scale(0.015625)"/>
       <path id="DejaVuSans-64" d="M 2906 2969 
L 2906 4863 
L 3481 4863 
L 3481 0 
L 2906 0 
L 2906 525 
Q 2725 213 2448 61 
Q 2172 -91 1784 -91 
Q 1150 -91 751 415 
Q 353 922 353 1747 
Q 353 2572 751 3078 
Q 1150 3584 1784 3584 
Q 2172 3584 2448 3432 
Q 2725 3281 2906 2969 
z
M 947 1747 
Q 947 1113 1208 752 
Q 1469 391 1925 391 
Q 2381 391 2643 752 
Q 2906 1113 2906 1747 
Q 2906 2381 2643 2742 
Q 2381 3103 1925 3103 
Q 1469 3103 1208 2742 
Q 947 2381 947 1747 
z
" transform="scale(0.015625)"/>
       <path id="DejaVuSans-67" d="M 2906 1791 
Q 2906 2416 2648 2759 
Q 2391 3103 1925 3103 
Q 1463 3103 1205 2759 
Q 947 2416 947 1791 
Q 947 1169 1205 825 
Q 1463 481 1925 481 
Q 2391 481 2648 825 
Q 2906 1169 2906 1791 
z
M 3481 434 
Q 3481 -459 3084 -895 
Q 2688 -1331 1869 -1331 
Q 1566 -1331 1297 -1286 
Q 1028 -1241 775 -1147 
L 775 -588 
Q 1028 -725 1275 -790 
Q 1522 -856 1778 -856 
Q 2344 -856 2625 -561 
Q 2906 -266 2906 331 
L 2906 616 
Q 2728 306 2450 153 
Q 2172 0 1784 0 
Q 1141 0 747 490 
Q 353 981 353 1791 
Q 353 2603 747 3093 
Q 1141 3584 1784 3584 
Q 2172 3584 2450 3431 
Q 2728 3278 2906 2969 
L 2906 3500 
L 3481 3500 
L 3481 434 
z
" transform="scale(0.015625)"/>
      </defs>
      <use xlink:href="#DejaVuSans-Oblique-3b8" transform="translate(0 0.234375)"/>
      <use xlink:href="#DejaVuSans-20" transform="translate(61.181641 0.234375)"/>
      <use xlink:href="#DejaVuSans-5b" transform="translate(92.96875 0.234375)"/>
      <use xlink:href="#DejaVuSans-64" transform="translate(131.982422 0.234375)"/>
      <use xlink:href="#DejaVuSans-65" transform="translate(195.458984 0.234375)"/>
      <use xlink:href="#DejaVuSans-67" transform="translate(256.982422 0.234375)"/>
      <use xlink:href="#DejaVuSans-5d" transform="translate(320.458984 0.234375)"/>
     </g>
    </g>
   </g>
   <g id="line2d_31">
    <path d="M 97.705824 185.938147 
L 98.224946 185.938147 
L 98.354228 152.601046 
L 102.6229 152.601046 
L 102.753527 107.722156 
L 103.141167 107.722156 
L 103.269945 152.601046 
L 103.413937 152.601046 
L 103.528329 107.722156 
L 103.917858 107.722156 
L 104.045445 152.601046 
L 105.988109 152.601046 
L 106.119021 140.591806 
L 107.283209 140.591806 
L 107.410357 152.601046 
L 107.538397 152.601046 
L 107.668507 107.722156 
L 108.832876 107.722156 
L 108.961434 71.149922 
L 109.609981 71.149922 
L 109.737555 119.002163 
L 111.161136 119.002163 
L 111.290638 71.149922 
L 112.196442 71.149922 
L 112.327342 26.877188 
L 112.716056 26.877188 
L 112.843967 71.149922 
L 114.267625 71.149922 
L 114.395989 59.564915 
L 115.303397 59.564915 
L 115.430519 107.722156 
L 115.819996 107.722156 
L 115.950973 95.400645 
L 116.596234 95.400645 
L 116.72602 107.722156 
L 117.113829 107.722156 
L 117.242154 59.564915 
L 117.371488 59.564915 
L 117.502555 107.722156 
L 117.631385 107.722156 
L 117.760887 59.564915 
L 117.889613 59.564915 
L 118.018753 71.149922 
L 118.924687 71.149922 
L 119.054112 119.002163 
L 120.739129 119.002163 
L 120.867014 71.149922 
L 120.995443 71.149922 
L 121.126083 119.002163 
L 122.287386 119.002163 
L 122.416397 130.129975 
L 122.54586 130.129975 
L 122.675259 174.439408 
L 123.32136 174.439408 
L 123.451095 185.95529 
L 124.099926 185.95529 
L 124.227928 174.439408 
L 124.616034 174.439408 
L 124.746959 218.894714 
L 125.136139 218.894714 
L 125.263946 208.335935 
L 125.910746 208.335935 
L 126.038825 256.681308 
L 126.427099 256.681308 
L 126.556899 266.928872 
L 126.946389 266.928872 
L 127.07593 218.894714 
L 127.462018 218.894714 
L 127.592814 277.809575 
L 129.531518 277.809575 
L 129.661991 287.772016 
L 130.049631 287.772016 
L 130.180181 277.809575 
L 135.224288 277.809575 
L 135.353273 266.928872 
L 135.482374 266.928872 
L 135.61339 218.894714 
L 135.744652 218.894714 
L 135.873339 277.809575 
L 136.518741 277.809575 
L 136.648438 230.106398 
L 138.846639 230.106398 
L 138.977098 277.809575 
L 139.112539 277.809575 
L 139.234887 230.106398 
L 141.434006 230.106398 
L 141.564246 218.894714 
L 142.211641 218.894714 
L 142.340211 266.928872 
L 142.728925 266.928872 
L 142.857043 256.681308 
L 142.988434 256.681308 
L 143.117639 301.720477 
L 144.024608 301.720477 
L 144.151354 291.626848 
L 145.325491 291.626848 
L 145.446196 256.681308 
L 146.352634 256.681308 
L 146.479847 208.335935 
L 146.611069 208.335935 
L 146.738308 256.681308 
L 146.868405 256.681308 
L 146.998503 208.335935 
L 147.387074 208.335935 
L 147.521751 256.681308 
L 147.902948 256.681308 
L 148.033098 208.335935 
L 148.164683 208.335935 
L 148.291184 256.681308 
L 148.940416 256.681308 
L 149.067149 208.335935 
L 149.204466 208.335935 
L 149.326801 256.681308 
L 149.456937 256.681308 
L 149.586103 208.335935 
L 152.818316 208.335935 
L 152.949203 197.631772 
L 153.079663 197.631772 
L 153.209204 246.292155 
L 155.149344 246.292155 
L 155.278834 197.631772 
L 155.408155 197.631772 
L 155.536752 208.335935 
L 160.32426 208.335935 
L 160.451654 197.631772 
L 162.656931 197.631772 
L 162.780858 246.292155 
L 162.910425 246.292155 
L 163.04395 234.942091 
L 163.428162 234.942091 
L 163.558208 185.938147 
L 163.688409 185.938147 
L 163.81716 197.631772 
L 163.945421 197.631772 
L 164.074522 246.292155 
L 164.745941 246.292155 
L 164.851549 208.335935 
L 167.312648 208.335935 
L 167.438605 163.594641 
L 167.567603 163.594641 
L 167.696277 197.631772 
L 168.088562 197.631772 
L 168.214843 208.335935 
L 169.379548 208.335935 
L 169.510021 197.631772 
L 170.673601 197.631772 
L 170.802598 152.601046 
L 170.933511 152.601046 
L 171.068511 197.631772 
L 171.449825 197.631772 
L 171.579314 185.938147 
L 172.488081 185.938147 
L 172.612629 224.249508 
L 173.26168 224.249508 
L 173.389539 234.942091 
L 174.296119 234.942091 
L 174.426139 246.292155 
L 174.812343 246.292155 
L 174.941626 197.631772 
L 175.07497 197.631772 
L 175.201911 246.292155 
L 175.329796 246.292155 
L 175.461485 197.631772 
L 176.625569 197.631772 
L 176.753635 185.938147 
L 177.14495 185.938147 
L 177.27123 197.631772 
L 179.216637 197.631772 
L 179.34099 208.335935 
L 179.989096 208.335935 
L 180.117783 163.594641 
L 180.248114 163.594641 
L 180.375145 208.335935 
L 181.801054 208.335935 
L 181.928409 197.631772 
L 182.315079 197.631772 
L 182.44722 208.335935 
L 183.611395 208.335935 
L 183.74179 218.894714 
L 183.874255 218.894714 
L 183.998272 174.439408 
L 184.3874 174.439408 
L 184.516488 185.95529 
L 187.233461 185.95529 
L 187.362808 218.894714 
L 188.785224 218.894714 
L 188.915775 266.928872 
L 189.045768 266.928872 
L 189.173007 218.894714 
L 189.30344 218.894714 
L 189.449399 266.928872 
L 189.82066 266.928872 
L 189.951405 311.676121 
L 190.338656 311.676121 
L 190.466166 301.720477 
L 191.374675 301.720477 
L 191.504578 346.897731 
L 192.152736 346.897731 
L 192.28414 301.720477 
L 192.926386 301.720477 
L 193.055449 346.897731 
L 193.700955 346.897731 
L 193.829668 356.558688 
L 195.25427 356.558688 
L 195.38539 311.676121 
L 195.778347 311.676121 
L 195.900087 356.558688 
L 196.030249 356.558688 
L 196.166323 311.676121 
L 199.652431 311.676121 
L 199.783965 301.720477 
L 199.911074 301.720477 
L 200.040731 346.897731 
L 201.465761 346.897731 
L 201.593141 301.720477 
L 201.723989 301.720477 
L 201.852146 346.897731 
L 202.758041 346.897731 
L 202.887233 301.720477 
L 203.017032 301.720477 
L 203.146716 311.676121 
L 203.274873 311.676121 
L 203.404297 301.720477 
L 204.311783 301.720477 
L 204.438905 311.676121 
L 204.572315 311.676121 
L 204.697845 301.720477 
L 205.086481 301.720477 
L 205.215427 311.676121 
L 205.343584 311.676121 
L 205.476722 301.720477 
L 205.864336 301.720477 
L 205.991432 311.676121 
L 208.455908 311.676121 
L 208.578282 322.246409 
L 208.709763 322.246409 
L 208.837571 311.676121 
L 208.968871 311.676121 
L 209.095799 322.246409 
L 209.224667 322.246409 
L 209.356757 311.676121 
L 209.484086 311.676121 
L 209.614856 322.246409 
L 210.262109 322.246409 
L 210.392245 311.676121 
L 211.040364 311.676121 
L 211.167111 322.246409 
L 212.333382 322.246409 
L 212.460943 287.772016 
L 214.142519 287.772016 
L 214.271672 331.92422 
L 214.659946 331.92422 
L 214.789798 287.772016 
L 215.178732 287.772016 
L 215.306526 277.809575 
L 216.213366 277.809575 
L 216.341716 322.246409 
L 218.284276 322.246409 
L 218.412601 311.676121 
L 218.800966 311.676121 
L 218.928566 356.558688 
L 219.578355 356.558688 
L 219.705037 346.897731 
L 219.848304 346.897731 
L 219.971221 356.558688 
L 220.361617 356.558688 
L 220.483253 346.897731 
L 220.610104 346.897731 
L 220.738998 356.558688 
L 221.129355 356.558688 
L 221.258986 311.676121 
L 221.90347 311.676121 
L 222.03402 322.246409 
L 222.939708 322.246409 
L 223.073661 277.809575 
L 225.269468 277.809575 
L 225.39725 287.772016 
L 228.372283 287.772016 
L 228.502614 277.809575 
L 228.632245 277.809575 
L 228.761062 322.246409 
L 230.447451 322.246409 
L 230.572024 277.809575 
L 231.218604 277.809575 
L 231.350098 287.772016 
L 231.73669 287.772016 
L 231.866309 240.37237 
L 231.997014 240.37237 
L 232.125016 230.106398 
L 232.514713 230.106398 
L 232.641964 287.772016 
L 232.771402 287.772016 
L 232.901409 240.37237 
L 233.030769 240.37237 
L 233.159404 287.772016 
L 233.547368 287.772016 
L 233.678487 277.809575 
L 233.806877 277.809575 
L 233.936405 230.106398 
L 234.066114 230.106398 
L 234.194517 277.809575 
L 236.137762 277.809575 
L 236.26469 230.106398 
L 237.171866 230.106398 
L 237.299156 218.894714 
L 237.688659 218.894714 
L 237.816738 266.928872 
L 238.737976 266.928872 
L 238.852148 311.676121 
L 240.01794 311.676121 
L 240.147921 266.928872 
L 240.795627 266.928872 
L 240.921882 277.809575 
L 241.830454 277.809575 
L 241.957719 266.928872 
L 242.604984 266.928872 
L 242.733477 230.106398 
L 242.875878 230.106398 
L 242.996428 266.928872 
L 246.225718 266.928872 
L 246.359826 218.894714 
L 247.521077 218.894714 
L 247.650812 256.681308 
L 248.814236 256.681308 
L 248.945201 208.335935 
L 249.33799 208.335935 
L 249.461605 218.894714 
L 249.592272 218.894714 
L 249.719484 174.439408 
L 251.918436 174.439408 
L 252.049387 185.95529 
L 253.988777 185.95529 
L 254.119832 230.106398 
L 254.269581 230.106398 
L 254.376611 218.894714 
L 255.283037 218.894714 
L 255.41109 174.439408 
L 256.059934 174.439408 
L 256.188272 163.594641 
L 256.575666 163.594641 
L 256.707963 208.335935 
L 257.095137 208.335935 
L 257.223138 197.631772 
L 258.809599 197.631772 
L 259.035717 152.601046 
L 259.426941 152.601046 
L 259.554231 119.002163 
L 260.976013 119.002163 
L 261.118091 107.722156 
L 262.010906 107.722156 
L 262.139554 59.564915 
L 262.531451 59.564915 
L 262.662014 107.722156 
L 262.785746 107.722156 
L 262.915145 119.002163 
L 263.045773 119.002163 
L 263.175689 107.722156 
L 263.304454 107.722156 
L 263.433141 71.149922 
L 264.598778 71.149922 
L 264.728034 59.564915 
L 264.859917 59.564915 
L 264.985706 107.722156 
L 266.666907 107.722156 
L 266.798544 140.591806 
L 268.223134 140.591806 
L 268.35252 152.601046 
L 268.738685 152.601046 
L 268.866945 107.722156 
L 270.552027 107.722156 
L 270.679382 119.002163 
L 274.430963 119.002163 
L 274.559482 130.129975 
L 274.946656 130.129975 
L 275.075719 119.002163 
L 275.984007 119.002163 
L 276.111776 163.594641 
L 277.535279 163.594641 
L 277.672155 119.002163 
L 277.795926 119.002163 
L 277.923475 163.594641 
L 278.053495 163.594641 
L 278.182842 119.002163 
L 278.597197 119.002163 
L 278.82783 130.129975 
L 279.088607 130.129975 
L 279.219481 82.579199 
L 282.450634 82.579199 
L 282.583965 38.583229 
L 284.002617 38.583229 
L 284.135237 82.579199 
L 284.263045 82.579199 
L 284.39256 71.149922 
L 287.36727 71.149922 
L 287.496513 82.579199 
L 288.922552 82.579199 
L 289.049066 38.583229 
L 289.69562 38.583229 
L 289.824695 82.579199 
L 290.21412 82.579199 
L 290.342833 94.716953 
L 291.250966 94.716953 
L 291.380158 51.015512 
L 294.354972 51.015512 
L 294.482792 38.583229 
L 294.871648 38.583229 
L 295.002379 82.579199 
L 295.388325 82.579199 
L 295.523506 71.149922 
L 296.426089 71.149922 
L 296.557649 82.579199 
L 299.268761 82.579199 
L 299.397824 71.149922 
L 299.528206 71.149922 
L 299.659015 82.579199 
L 299.788763 82.579199 
L 299.915949 71.149922 
L 301.858509 71.149922 
L 301.988413 119.002163 
L 303.413765 119.002163 
L 303.538429 163.594641 
L 304.186704 163.594641 
L 304.321278 152.601046 
L 305.222205 152.601046 
L 305.349973 107.722156 
L 305.739567 107.722156 
L 305.867219 119.002163 
L 306.774757 119.002163 
L 306.903716 130.129975 
L 310.66033 130.129975 
L 310.78326 82.579199 
L 311.688728 82.579199 
L 311.818088 130.129975 
L 311.950268 130.129975 
L 312.078257 82.579199 
L 312.468355 82.579199 
L 312.597689 130.129975 
L 314.017789 130.129975 
L 314.147744 119.002163 
L 314.795877 119.002163 
L 314.923839 130.129975 
L 315.572088 130.129975 
L 315.703246 141.94697 
L 316.087471 141.94697 
L 316.217271 94.716953 
L 317.381899 94.716953 
L 317.511466 82.579199 
L 317.642921 82.579199 
L 317.771001 94.716953 
L 317.901318 94.716953 
L 318.03258 130.129975 
L 318.158291 130.129975 
L 318.286746 82.579199 
L 318.676883 82.579199 
L 318.80654 94.716953 
L 319.451218 94.716953 
L 319.579879 82.579199 
L 319.711853 82.579199 
L 319.841316 94.716953 
L 319.970961 94.716953 
L 320.100903 82.579199 
L 320.485658 82.579199 
L 320.615742 130.129975 
L 322.298509 130.129975 
L 322.426575 174.439408 
L 322.818083 174.439408 
L 322.945645 163.594641 
L 323.591293 163.594641 
L 323.720873 208.335935 
L 324.367414 208.335935 
L 324.498042 218.894714 
L 325.663692 218.894714 
L 325.791046 230.106398 
L 328.507386 230.106398 
L 328.63703 185.95529 
L 329.801943 185.95529 
L 329.929867 230.106398 
L 330.060016 230.106398 
L 330.190294 185.95529 
L 331.871741 185.95529 
L 332.004736 218.894714 
L 334.2011 218.894714 
L 334.329839 185.95529 
L 335.493471 185.95529 
L 335.622714 196.500273 
L 336.285 196.500273 
L 336.399482 185.95529 
L 337.308391 185.95529 
L 337.434659 196.500273 
L 338.599778 196.500273 
L 338.727702 240.37237 
L 338.858731 240.37237 
L 338.990161 196.500273 
L 339.117788 196.500273 
L 339.246048 206.905347 
L 341.186214 206.905347 
L 341.316157 250.501707 
L 341.448272 250.501707 
L 341.575937 240.37237 
L 342.738832 240.37237 
L 342.86955 287.772016 
L 343.25882 287.772016 
L 343.385386 240.37237 
L 343.514422 240.37237 
L 343.647197 287.772016 
L 344.034566 287.772016 
L 344.16606 297.601427 
L 347.913592 297.601427 
L 348.043211 287.772016 
L 348.174874 287.772016 
L 348.3014 341.472419 
L 348.689661 341.472419 
L 348.820005 331.92422 
L 351.282126 331.92422 
L 351.406777 322.246409 
L 353.605612 322.246409 
L 353.734726 287.772016 
L 355.158436 287.772016 
L 355.290163 277.809575 
L 355.422369 277.809575 
L 355.546477 287.772016 
L 355.934026 287.772016 
L 356.067267 277.809575 
L 356.452993 277.809575 
L 356.583155 287.772016 
L 356.711337 287.772016 
L 356.840038 240.37237 
L 356.971351 240.37237 
L 357.115641 277.809575 
L 358.523955 277.809575 
L 358.651375 266.928872 
L 358.781563 266.928872 
L 358.913264 277.809575 
L 359.298304 277.809575 
L 359.428621 230.106398 
L 360.078306 230.106398 
L 360.203979 218.894714 
L 360.591903 218.894714 
L 360.721496 266.928872 
L 361.36827 266.928872 
L 361.497514 256.681308 
L 362.405155 256.681308 
L 362.533493 266.928872 
L 363.700437 266.928872 
L 363.826912 230.106398 
L 366.544519 230.106398 
L 366.67459 277.809575 
L 367.061195 277.809575 
L 367.191603 287.772016 
L 367.836165 287.772016 
L 367.971372 277.809575 
L 368.612764 277.809575 
L 368.742241 287.772016 
L 369.647372 287.772016 
L 369.778362 277.809575 
L 370.943534 277.809575 
L 371.071225 311.676121 
L 371.717261 311.676121 
L 371.847359 277.809575 
L 373.269788 277.809575 
L 373.402938 287.772016 
L 374.050346 287.772016 
L 374.178283 277.809575 
L 375.600117 277.809575 
L 375.728507 230.106398 
L 375.86026 230.106398 
L 375.987369 277.809575 
L 377.410484 277.809575 
L 377.540335 230.106398 
L 379.480528 230.106398 
L 379.61179 277.809575 
L 380.00137 277.809575 
L 380.127767 266.928872 
L 381.298437 266.928872 
L 381.421238 230.106398 
L 382.590665 230.106398 
L 382.71507 196.500273 
L 383.360977 196.500273 
L 383.491165 240.37237 
L 383.620616 240.37237 
L 383.750209 196.500273 
L 383.880811 196.500273 
L 384.008747 240.37237 
L 384.401925 240.37237 
L 384.527649 196.500273 
L 384.914474 196.500273 
L 385.043511 240.37237 
L 386.466858 240.37237 
L 386.596516 196.500273 
L 386.725397 196.500273 
L 386.854641 240.37237 
L 386.984803 240.37237 
L 387.115806 196.500273 
L 388.79614 196.500273 
L 388.92484 185.95529 
L 389.055015 185.95529 
L 389.185604 230.106398 
L 389.572041 230.106398 
L 389.70307 218.894714 
L 390.347748 218.894714 
L 390.476694 230.106398 
L 390.607399 230.106398 
L 390.735763 185.95529 
L 391.642939 185.95529 
L 391.771147 141.94697 
L 391.901465 141.94697 
L 392.034667 152.768174 
L 392.158089 152.768174 
L 392.288186 105.832448 
L 392.676615 105.832448 
L 392.806389 94.716953 
L 394.230888 94.716953 
L 394.357842 141.94697 
L 394.488586 141.94697 
L 394.618308 94.716953 
L 394.747862 94.716953 
L 394.875605 141.94697 
L 395.00578 141.94697 
L 395.135709 94.716953 
L 397.8532 94.716953 
L 398.110342 82.579199 
L 398.630356 82.579199 
L 398.758914 130.129975 
L 398.88817 130.129975 
L 399.015719 119.002163 
L 401.220932 119.002163 
L 401.345285 130.129975 
L 401.475318 130.129975 
L 401.603475 82.579199 
L 402.51065 82.579199 
L 402.638277 119.002163 
L 405.355845 119.002163 
L 405.486706 163.594641 
L 405.617088 163.594641 
L 405.743317 174.439408 
L 407.424725 174.439408 
L 407.555352 218.894714 
L 407.683677 218.894714 
L 407.813167 208.335935 
L 408.201945 208.335935 
L 408.330982 256.681308 
L 409.7553 256.681308 
L 409.887131 266.928872 
L 412.346911 266.928872 
L 412.471846 218.894714 
L 414.927874 218.894714 
L 415.059446 174.439408 
L 415.962974 174.439408 
L 416.092851 130.129975 
L 416.481694 130.129975 
L 416.610821 119.002163 
L 417.774117 119.002163 
L 417.906375 107.722156 
L 418.292113 107.722156 
L 418.421667 119.002163 
L 419.070252 119.002163 
L 419.200052 71.149922 
L 419.327109 71.149922 
L 419.456909 130.129975 
L 419.845299 130.129975 
L 420.104562 141.94697 
L 420.621174 141.94697 
L 420.750301 185.95529 
L 421.396467 185.95529 
L 421.530808 230.106398 
L 422.9514 230.106398 
L 423.081058 277.809575 
L 423.984676 277.809575 
L 424.113971 322.246409 
L 424.242994 322.246409 
L 424.3726 331.92422 
L 425.798095 331.92422 
L 425.926408 376.206227 
L 426.057191 376.206227 
L 426.190238 366.815663 
L 426.572962 366.815663 
L 426.701442 414.957188 
L 427.094024 414.957188 
L 427.219334 356.558688 
L 428.124699 356.558688 
L 428.253904 311.676121 
L 428.383574 311.676121 
L 428.512546 322.246409 
L 429.159048 322.246409 
L 429.290698 277.809575 
L 430.712739 277.809575 
L 430.841426 287.772016 
L 431.490529 287.772016 
L 431.617909 240.37237 
L 433.299304 240.37237 
L 433.429246 196.500273 
L 434.334857 196.500273 
L 434.465213 240.37237 
L 435.111599 240.37237 
L 435.2407 196.500273 
L 435.889867 196.500273 
L 436.016756 240.37237 
L 436.921927 240.37237 
L 437.055918 287.772016 
L 441.062545 287.772016 
L 441.192694 331.92422 
L 441.324357 331.92422 
L 441.450017 287.772016 
L 441.579894 287.772016 
L 441.708737 331.92422 
L 441.838808 331.92422 
L 441.967767 287.772016 
L 442.878992 287.772016 
L 443.002582 331.92422 
L 443.132304 331.92422 
L 443.262958 322.246409 
L 445.459529 322.246409 
L 445.590157 277.809575 
L 445.720759 277.809575 
L 445.84889 266.928872 
L 445.979272 266.928872 
L 446.107726 311.676121 
L 448.308734 311.676121 
L 448.436386 322.246409 
L 448.826717 322.246409 
L 448.954059 277.809575 
L 449.084881 277.809575 
L 449.212973 322.246409 
L 450.63513 322.246409 
L 450.766328 311.676121 
L 450.894859 311.676121 
L 451.023637 322.246409 
L 452.963933 322.246409 
L 453.09328 366.815663 
L 453.743159 366.815663 
L 453.870113 322.246409 
L 454.774597 322.246409 
L 454.907787 366.815663 
L 455.556191 366.815663 
L 455.681553 356.558688 
L 456.33116 356.558688 
L 456.45761 405.04079 
L 457.103982 405.04079 
L 457.234209 356.558688 
L 457.623764 356.558688 
L 457.753111 366.815663 
L 460.990344 366.815663 
L 461.116677 414.957188 
L 462.537955 414.957188 
L 462.669178 366.815663 
L 464.608128 366.815663 
L 464.739894 322.246409 
L 464.867857 322.246409 
L 464.99569 356.558688 
L 465.643887 356.558688 
L 465.771941 311.676121 
L 466.423644 311.676121 
L 466.550365 322.246409 
L 466.93653 322.246409 
L 467.066537 277.809575 
L 469.78906 277.809575 
L 469.91221 266.928872 
L 470.55923 266.928872 
L 470.689185 277.809575 
L 471.076359 277.809575 
L 471.206702 266.928872 
L 471.333927 266.928872 
L 471.468838 277.809575 
L 471.594109 277.809575 
L 471.727273 266.928872 
L 471.853787 266.928872 
L 471.983004 311.676121 
L 474.440171 311.676121 
L 474.569854 356.558688 
L 474.699214 356.558688 
L 474.829777 346.897731 
L 475.219371 346.897731 
L 475.348123 356.558688 
L 476.510111 356.558688 
L 476.640545 366.815663 
L 478.064941 366.815663 
L 478.192334 414.957188 
L 482.460631 414.957188 
L 482.592216 366.815663 
L 482.722494 366.815663 
L 482.850379 414.957188 
L 482.980956 414.957188 
L 483.111726 366.815663 
L 484.017996 366.815663 
L 484.143487 322.246409 
L 485.30743 322.246409 
L 485.436647 277.809575 
L 486.343952 277.809575 
L 486.471643 230.106398 
L 488.674734 230.106398 
L 488.800614 185.95529 
L 488.932381 185.95529 
L 489.060848 240.37237 
L 489.448462 240.37237 
L 489.5768 185.95529 
L 489.964556 185.95529 
L 490.094486 230.106398 
L 491.260925 230.106398 
L 491.388059 277.809575 
L 492.298301 277.809575 
L 492.423107 266.928872 
L 493.59159 266.928872 
L 493.716707 218.894714 
L 494.625202 218.894714 
L 494.752414 230.106398 
L 495.14303 230.106398 
L 495.269712 185.95529 
L 495.39836 185.95529 
L 495.527772 230.106398 
L 495.917508 230.106398 
L 496.04551 185.95529 
L 496.175568 185.95529 
L 496.304178 230.106398 
L 498.244086 230.106398 
L 498.375697 185.95529 
L 498.762547 185.95529 
L 498.892813 230.106398 
L 499.021746 230.106398 
L 499.150369 185.95529 
L 499.27969 185.95529 
L 499.411236 230.106398 
L 500.05682 230.106398 
L 500.185067 185.95529 
L 500.314505 185.95529 
L 500.444059 230.106398 
L 501.609566 230.106398 
L 501.73815 277.809575 
L 501.87046 277.809575 
L 501.996301 218.894714 
L 502.387421 218.894714 
L 502.515616 266.928872 
L 503.164913 266.928872 
L 503.293626 256.681308 
L 503.679882 256.681308 
L 503.809682 266.928872 
L 503.939029 266.928872 
L 504.068233 218.894714 
L 505.753962 218.894714 
L 505.879713 266.928872 
L 506.007688 266.928872 
L 506.136751 218.894714 
L 508.857916 218.894714 
L 508.982748 266.928872 
L 509.372587 266.928872 
L 509.501624 218.894714 
L 509.88969 218.894714 
L 510.019206 266.928872 
L 511.960795 266.928872 
L 512.088745 301.720477 
L 512.47645 301.720477 
L 512.605422 256.681308 
L 512.73407 256.681308 
L 512.86396 301.720477 
L 512.992324 301.720477 
L 513.123263 256.681308 
L 513.771576 256.681308 
L 513.899254 266.928872 
L 514.805641 266.928872 
L 514.938093 218.894714 
L 515.063364 218.894714 
L 515.198883 266.928872 
L 515.345785 266.928872 
L 515.451263 218.894714 
L 515.841038 218.894714 
L 515.969492 256.681308 
L 516.357197 256.681308 
L 516.486699 208.335935 
L 516.874986 208.335935 
L 517.004243 256.681308 
L 517.652465 256.681308 
L 517.779755 246.292155 
L 517.915131 246.292155 
L 518.039122 256.681308 
L 518.170953 256.681308 
L 518.297402 246.292155 
L 521.27338 246.292155 
L 521.407643 291.626848 
L 522.825286 291.626848 
L 522.955344 246.292155 
L 523.097538 246.292155 
L 523.215642 301.720477 
L 523.346348 301.720477 
L 523.474608 256.681308 
L 523.859829 256.681308 
L 523.991388 266.928872 
L 524.379145 266.928872 
L 524.508569 256.681308 
L 525.157659 256.681308 
L 525.284315 266.928872 
L 526.9669 266.928872 
L 527.095665 311.676121 
L 527.483266 311.676121 
L 527.62044 266.928872 
L 529.813492 266.928872 
L 529.942347 218.894714 
L 530.588009 218.894714 
L 530.717835 266.928872 
L 531.109407 266.928872 
L 531.234834 218.894714 
L 531.363483 218.894714 
L 531.497047 266.928872 
L 532.399721 266.928872 
L 532.557414 218.894714 
L 532.916178 218.894714 
L 533.047957 230.106398 
L 533.951329 230.106398 
L 534.081633 185.95529 
L 535.762304 185.95529 
L 535.893423 196.500273 
L 536.798658 196.500273 
L 536.927397 240.37237 
L 537.05981 240.37237 
L 537.188006 185.95529 
L 537.318142 185.95529 
L 537.445368 230.106398 
L 539.388122 230.106398 
L 539.514519 218.894714 
L 539.64503 218.894714 
L 539.774351 266.928872 
L 540.938138 266.928872 
L 541.068533 256.681308 
L 541.973975 256.681308 
L 542.103284 266.928872 
L 543.007781 266.928872 
L 543.139431 277.809575 
L 543.266398 277.809575 
L 543.397918 266.928872 
L 545.08084 266.928872 
L 545.207599 311.676121 
L 546.630093 311.676121 
L 546.761381 301.720477 
L 547.1473 301.720477 
L 547.277384 311.676121 
L 547.666279 311.676121 
L 547.794229 356.558688 
L 548.185091 356.558688 
L 548.311992 346.897731 
L 549.122721 346.897731 
L 549.346976 337.102464 
L 550.769741 337.102464 
L 550.899528 386.229356 
L 551.028448 386.229356 
L 551.159581 337.102464 
L 551.806458 337.102464 
L 551.934692 346.897731 
L 553.618015 346.897731 
L 553.745758 301.720477 
L 555.946572 301.720477 
L 556.074897 311.676121 
L 556.464503 311.676121 
L 556.592531 301.720477 
L 556.981477 301.720477 
L 557.109569 311.676121 
L 557.238567 311.676121 
L 557.368936 301.720477 
L 559.568017 301.720477 
L 559.698554 346.897731 
L 559.828108 346.897731 
L 559.957507 291.626848 
L 560.345613 291.626848 
L 560.47311 301.720477 
L 561.896871 301.720477 
L 562.034149 311.676121 
L 562.159201 311.676121 
L 562.28433 301.720477 
L 562.413574 301.720477 
L 562.544202 346.897731 
L 562.932217 346.897731 
L 563.060516 301.720477 
L 565.26023 301.720477 
L 565.391026 266.928872 
L 565.520503 266.928872 
L 565.651105 311.676121 
L 565.782586 311.676121 
L 565.908699 266.928872 
L 566.296041 266.928872 
L 566.425363 256.681308 
L 568.364106 256.681308 
L 568.494294 301.720477 
L 569.141598 301.720477 
L 569.27048 256.681308 
L 569.917202 256.681308 
L 570.047752 208.335935 
L 570.959546 208.335935 
L 571.083511 218.894714 
L 571.469767 218.894714 
L 571.599101 174.439408 
L 571.990545 174.439408 
L 572.118107 230.106398 
L 572.248398 230.106398 
L 572.506549 185.95529 
L 573.022358 185.95529 
L 573.154823 230.106398 
L 575.351252 230.106398 
L 575.482902 218.894714 
L 577.163973 218.894714 
L 577.291315 266.928872 
L 578.199331 266.928872 
L 578.328316 301.720477 
L 578.457482 301.720477 
L 578.585108 256.681308 
L 578.714818 256.681308 
L 578.844216 301.720477 
L 579.750694 301.720477 
L 579.880907 256.681308 
L 581.819987 256.681308 
L 581.95297 208.335935 
L 582.087556 208.335935 
L 582.210538 246.292155 
L 582.595629 246.292155 
L 582.725352 197.631772 
L 583.113173 197.631772 
L 583.244758 246.292155 
L 583.371996 246.292155 
L 583.502107 197.631772 
L 585.184679 197.631772 
L 585.312564 208.335935 
L 585.459324 208.335935 
L 585.572875 197.631772 
L 585.702494 197.631772 
L 585.83012 246.292155 
L 585.95939 246.292155 
L 586.088853 197.631772 
L 586.220231 197.631772 
L 586.347314 246.292155 
L 587.773211 246.292155 
L 587.900733 234.942091 
L 588.289887 234.942091 
L 588.418626 280.599141 
L 589.064973 280.599141 
L 589.19661 291.626848 
L 590.101017 291.626848 
L 590.229303 256.681308 
L 590.617021 256.681308 
L 590.746251 301.720477 
L 592.169923 301.720477 
L 592.300214 291.626848 
L 592.428837 291.626848 
L 592.560448 301.720477 
L 592.947053 301.720477 
L 593.076814 291.626848 
L 593.463522 291.626848 
L 593.592391 301.720477 
L 593.723833 301.720477 
L 593.886339 346.897731 
L 594.11203 291.626848 
L 595.274807 291.626848 
L 595.40418 337.102464 
L 595.536464 337.102464 
L 595.662797 291.626848 
L 596.828071 291.626848 
L 596.956293 280.599141 
L 597.605189 280.599141 
L 597.733501 270.209762 
L 598.379537 270.209762 
L 598.510463 280.599141 
L 598.897287 280.599141 
L 599.026518 234.942091 
L 599.160303 234.942091 
L 599.28516 280.599141 
L 599.414158 280.599141 
L 599.544514 291.626848 
L 600.449232 291.626848 
L 600.578618 280.599141 
L 600.711147 280.599141 
L 600.843819 291.626848 
L 600.966439 291.626848 
L 601.097506 280.599141 
L 604.074455 280.599141 
L 604.201538 326.400261 
L 604.33223 326.400261 
L 604.4619 280.599141 
L 604.591765 280.599141 
L 604.718926 326.400261 
L 604.978551 326.400261 
L 604.978551 326.400261 
" clip-path="url(#pda488ab967)" style="fill: none; stroke: #1f77b4; stroke-width: 2; stroke-linecap: square"/>
   </g>
   <g id="patch_3">
    <path d="M 72.342187 414.957188 
L 72.342187 26.877188 
" style="fill: none; stroke: #808080; stroke-width: 2; stroke-linejoin: miter; stroke-linecap: square"/>
   </g>
   <g id="patch_4">
    <path d="M 72.342188 414.957187 
L 630.342188 414.957187 
" style="fill: none; stroke: #808080; stroke-width: 2; stroke-linejoin: miter; stroke-linecap: square"/>
   </g>
   <g id="text_18">
    <!-- Oskar-Tyholt-vinkel -->
    <g style="fill: #808080" transform="translate(267.325781 20.877187) scale(0.18 -0.18)">
     <defs>
      <path id="DejaVuSans-4f" d="M 2522 4238 
Q 1834 4238 1429 3725 
Q 1025 3213 1025 2328 
Q 1025 1447 1429 934 
Q 1834 422 2522 422 
Q 3209 422 3611 934 
Q 4013 1447 4013 2328 
Q 4013 3213 3611 3725 
Q 3209 4238 2522 4238 
z
M 2522 4750 
Q 3503 4750 4090 4092 
Q 4678 3434 4678 2328 
Q 4678 1225 4090 567 
Q 3503 -91 2522 -91 
Q 1538 -91 948 565 
Q 359 1222 359 2328 
Q 359 3434 948 4092 
Q 1538 4750 2522 4750 
z
" transform="scale(0.015625)"/>
      <path id="DejaVuSans-6b" d="M 581 4863 
L 1159 4863 
L 1159 1991 
L 2875 3500 
L 3609 3500 
L 1753 1863 
L 3688 0 
L 2938 0 
L 1159 1709 
L 1159 0 
L 581 0 
L 581 4863 
z
" transform="scale(0.015625)"/>
      <path id="DejaVuSans-61" d="M 2194 1759 
Q 1497 1759 1228 1600 
Q 959 1441 959 1056 
Q 959 750 1161 570 
Q 1363 391 1709 391 
Q 2188 391 2477 730 
Q 2766 1069 2766 1631 
L 2766 1759 
L 2194 1759 
z
M 3341 1997 
L 3341 0 
L 2766 0 
L 2766 531 
Q 2569 213 2275 61 
Q 1981 -91 1556 -91 
Q 1019 -91 701 211 
Q 384 513 384 1019 
Q 384 1609 779 1909 
Q 1175 2209 1959 2209 
L 2766 2209 
L 2766 2266 
Q 2766 2663 2505 2880 
Q 2244 3097 1772 3097 
Q 1472 3097 1187 3025 
Q 903 2953 641 2809 
L 641 3341 
Q 956 3463 1253 3523 
Q 1550 3584 1831 3584 
Q 2591 3584 2966 3190 
Q 3341 2797 3341 1997 
z
" transform="scale(0.015625)"/>
      <path id="DejaVuSans-72" d="M 2631 2963 
Q 2534 3019 2420 3045 
Q 2306 3072 2169 3072 
Q 1681 3072 1420 2755 
Q 1159 2438 1159 1844 
L 1159 0 
L 581 0 
L 581 3500 
L 1159 3500 
L 1159 2956 
Q 1341 3275 1631 3429 
Q 1922 3584 2338 3584 
Q 2397 3584 2469 3576 
Q 2541 3569 2628 3553 
L 2631 2963 
z
" transform="scale(0.015625)"/>
      <path id="DejaVuSans-2d" d="M 313 2009 
L 1997 2009 
L 1997 1497 
L 313 1497 
L 313 2009 
z
" transform="scale(0.015625)"/>
      <path id="DejaVuSans-54" d="M -19 4666 
L 3928 4666 
L 3928 4134 
L 2272 4134 
L 2272 0 
L 1638 0 
L 1638 4134 
L -19 4134 
L -19 4666 
z
" transform="scale(0.015625)"/>
      <path id="DejaVuSans-79" d="M 2059 -325 
Q 1816 -950 1584 -1140 
Q 1353 -1331 966 -1331 
L 506 -1331 
L 506 -850 
L 844 -850 
Q 1081 -850 1212 -737 
Q 1344 -625 1503 -206 
L 1606 56 
L 191 3500 
L 800 3500 
L 1894 763 
L 2988 3500 
L 3597 3500 
L 2059 -325 
z
" transform="scale(0.015625)"/>
      <path id="DejaVuSans-68" d="M 3513 2113 
L 3513 0 
L 2938 0 
L 2938 2094 
Q 2938 2591 2744 2837 
Q 2550 3084 2163 3084 
Q 1697 3084 1428 2787 
Q 1159 2491 1159 1978 
L 1159 0 
L 581 0 
L 581 4863 
L 1159 4863 
L 1159 2956 
Q 1366 3272 1645 3428 
Q 1925 3584 2291 3584 
Q 2894 3584 3203 3211 
Q 3513 2838 3513 2113 
z
" transform="scale(0.015625)"/>
      <path id="DejaVuSans-6f" d="M 1959 3097 
Q 1497 3097 1228 2736 
Q 959 2375 959 1747 
Q 959 1119 1226 758 
Q 1494 397 1959 397 
Q 2419 397 2687 759 
Q 2956 1122 2956 1747 
Q 2956 2369 2687 2733 
Q 2419 3097 1959 3097 
z
M 1959 3584 
Q 2709 3584 3137 3096 
Q 3566 2609 3566 1747 
Q 3566 888 3137 398 
Q 2709 -91 1959 -91 
Q 1206 -91 779 398 
Q 353 888 353 1747 
Q 353 2609 779 3096 
Q 1206 3584 1959 3584 
z
" transform="scale(0.015625)"/>
      <path id="DejaVuSans-6c" d="M 603 4863 
L 1178 4863 
L 1178 0 
L 603 0 
L 603 4863 
z
" transform="scale(0.015625)"/>
      <path id="DejaVuSans-76" d="M 191 3500 
L 800 3500 
L 1894 563 
L 2988 3500 
L 3597 3500 
L 2284 0 
L 1503 0 
L 191 3500 
z
" transform="scale(0.015625)"/>
      <path id="DejaVuSans-6e" d="M 3513 2113 
L 3513 0 
L 2938 0 
L 2938 2094 
Q 2938 2591 2744 2837 
Q 2550 3084 2163 3084 
Q 1697 3084 1428 2787 
Q 1159 2491 1159 1978 
L 1159 0 
L 581 0 
L 581 3500 
L 1159 3500 
L 1159 2956 
Q 1366 3272 1645 3428 
Q 1925 3584 2291 3584 
Q 2894 3584 3203 3211 
Q 3513 2838 3513 2113 
z
" transform="scale(0.015625)"/>
     </defs>
     <use xlink:href="#DejaVuSans-4f"/>
     <use xlink:href="#DejaVuSans-73" x="78.710938"/>
     <use xlink:href="#DejaVuSans-6b" x="130.810547"/>
     <use xlink:href="#DejaVuSans-61" x="186.970703"/>
     <use xlink:href="#DejaVuSans-72" x="248.25"/>
     <use xlink:href="#DejaVuSans-2d" x="282.988281"/>
     <use xlink:href="#DejaVuSans-54" x="309.947266"/>
     <use xlink:href="#DejaVuSans-79" x="355.40625"/>
     <use xlink:href="#DejaVuSans-68" x="414.585938"/>
     <use xlink:href="#DejaVuSans-6f" x="477.964844"/>
     <use xlink:href="#DejaVuSans-6c" x="539.146484"/>
     <use xlink:href="#DejaVuSans-74" x="566.929688"/>
     <use xlink:href="#DejaVuSans-2d" x="606.138672"/>
     <use xlink:href="#DejaVuSans-76" x="639.597656"/>
     <use xlink:href="#DejaVuSans-69" x="698.777344"/>
     <use xlink:href="#DejaVuSans-6e" x="726.560547"/>
     <use xlink:href="#DejaVuSans-6b" x="789.939453"/>
     <use xlink:href="#DejaVuSans-65" x="844.224609"/>
     <use xlink:href="#DejaVuSans-6c" x="905.748047"/>
    </g>
   </g>
   <g id="legend_1">
    <g id="patch_5">
     <path d="M 431.814844 60.894375 
L 619.842188 60.894375 
Q 622.842188 60.894375 622.842188 57.894375 
L 622.842188 37.377187 
Q 622.842188 34.377187 619.842188 34.377187 
L 431.814844 34.377187 
Q 428.814844 34.377187 428.814844 37.377187 
L 428.814844 57.894375 
Q 428.814844 60.894375 431.814844 60.894375 
z
" style="fill: #ffffff; opacity: 0.8; stroke: #cccccc; stroke-linejoin: miter"/>
    </g>
    <g id="line2d_32">
     <path d="M 434.814844 46.524844 
L 449.814844 46.524844 
L 464.814844 46.524844 
" style="fill: none; stroke: #1f77b4; stroke-width: 2; stroke-linecap: square"/>
    </g>
    <g id="text_19">
     <!-- Oskar-Tyholt-vinkel -->
     <g style="fill: #808080" transform="translate(476.814844 51.774844) scale(0.15 -0.15)">
      <use xlink:href="#DejaVuSans-4f"/>
      <use xlink:href="#DejaVuSans-73" x="78.710938"/>
      <use xlink:href="#DejaVuSans-6b" x="130.810547"/>
      <use xlink:href="#DejaVuSans-61" x="186.970703"/>
      <use xlink:href="#DejaVuSans-72" x="248.25"/>
      <use xlink:href="#DejaVuSans-2d" x="282.988281"/>
      <use xlink:href="#DejaVuSans-54" x="309.947266"/>
      <use xlink:href="#DejaVuSans-79" x="355.40625"/>
      <use xlink:href="#DejaVuSans-68" x="414.585938"/>
      <use xlink:href="#DejaVuSans-6f" x="477.964844"/>
      <use xlink:href="#DejaVuSans-6c" x="539.146484"/>
      <use xlink:href="#DejaVuSans-74" x="566.929688"/>
      <use xlink:href="#DejaVuSans-2d" x="606.138672"/>
      <use xlink:href="#DejaVuSans-76" x="639.597656"/>
      <use xlink:href="#DejaVuSans-69" x="698.777344"/>
      <use xlink:href="#DejaVuSans-6e" x="726.560547"/>
      <use xlink:href="#DejaVuSans-6b" x="789.939453"/>
      <use xlink:href="#DejaVuSans-65" x="844.224609"/>
      <use xlink:href="#DejaVuSans-6c" x="905.748047"/>
     </g>
    </g>
   </g>
  </g>
 </g>
 <defs>
  <clipPath id="pda488ab967">
   <rect x="72.342187" y="26.877187" width="558" height="388.08"/>
  </clipPath>
 </defs>
</svg>
