<?xml version="1.0" encoding="utf-8" standalone="no"?>
<!DOCTYPE svg PUBLIC "-//W3C//DTD SVG 1.1//EN"
  "http://www.w3.org/Graphics/SVG/1.1/DTD/svg11.dtd">
<svg xmlns:xlink="http://www.w3.org/1999/xlink" width="637.542187pt" height="458.691562pt" viewBox="0 0 637.542187 458.691562" xmlns="http://www.w3.org/2000/svg" version="1.1">
 <metadata>
  <rdf:RDF xmlns:dc="http://purl.org/dc/elements/1.1/" xmlns:cc="http://creativecommons.org/ns#" xmlns:rdf="http://www.w3.org/1999/02/22-rdf-syntax-ns#">
   <cc:Work>
    <dc:type rdf:resource="http://purl.org/dc/dcmitype/StillImage"/>
    <dc:date>2023-04-10T19:04:13.546382</dc:date>
    <dc:format>image/svg+xml</dc:format>
    <dc:creator>
     <cc:Agent>
      <dc:title>Matplotlib v3.7.1, https://matplotlib.org/</dc:title>
     </cc:Agent>
    </dc:creator>
   </cc:Work>
  </rdf:RDF>
 </metadata>
 <defs>
  <style type="text/css">*{stroke-linejoin: round; stroke-linecap: butt}</style>
 </defs>
 <g id="figure_1">
  <g id="patch_1">
   <path d="M 0 458.691562 
L 637.542187 458.691562 
L 637.542187 0 
L 0 0 
L 0 458.691562 
z
" style="fill: none"/>
  </g>
  <g id="axes_1">
   <g id="patch_2">
    <path d="M 72.342187 414.957187 
L 630.342188 414.957187 
L 630.342188 26.877187 
L 72.342187 26.877187 
L 72.342187 414.957187 
z
" style="fill: none"/>
   </g>
   <g id="matplotlib.axis_1">
    <g id="xtick_1">
     <g id="line2d_1">
      <path d="M 144.222701 414.957187 
L 144.222701 26.877187 
" clip-path="url(#pa1b79bdb3d)" style="fill: none; stroke: #808080; stroke-width: 0.8; stroke-linecap: square"/>
     </g>
     <g id="line2d_2">
      <defs>
       <path id="mcc05d9f536" d="M 0 0 
L 0 -5 
" style="stroke: #808080; stroke-width: 0.8"/>
      </defs>
      <g>
       <use xlink:href="#mcc05d9f536" x="144.222701" y="414.957187" style="fill: #808080; stroke: #808080; stroke-width: 0.8"/>
      </g>
     </g>
     <g id="text_1">
      <!-- 30 -->
      <g style="fill: #808080" transform="translate(134.678951 429.854844) scale(0.15 -0.15)">
       <defs>
        <path id="DejaVuSans-33" d="M 2597 2516 
Q 3050 2419 3304 2112 
Q 3559 1806 3559 1356 
Q 3559 666 3084 287 
Q 2609 -91 1734 -91 
Q 1441 -91 1130 -33 
Q 819 25 488 141 
L 488 750 
Q 750 597 1062 519 
Q 1375 441 1716 441 
Q 2309 441 2620 675 
Q 2931 909 2931 1356 
Q 2931 1769 2642 2001 
Q 2353 2234 1838 2234 
L 1294 2234 
L 1294 2753 
L 1863 2753 
Q 2328 2753 2575 2939 
Q 2822 3125 2822 3475 
Q 2822 3834 2567 4026 
Q 2313 4219 1838 4219 
Q 1578 4219 1281 4162 
Q 984 4106 628 3988 
L 628 4550 
Q 988 4650 1302 4700 
Q 1616 4750 1894 4750 
Q 2613 4750 3031 4423 
Q 3450 4097 3450 3541 
Q 3450 3153 3228 2886 
Q 3006 2619 2597 2516 
z
" transform="scale(0.015625)"/>
        <path id="DejaVuSans-30" d="M 2034 4250 
Q 1547 4250 1301 3770 
Q 1056 3291 1056 2328 
Q 1056 1369 1301 889 
Q 1547 409 2034 409 
Q 2525 409 2770 889 
Q 3016 1369 3016 2328 
Q 3016 3291 2770 3770 
Q 2525 4250 2034 4250 
z
M 2034 4750 
Q 2819 4750 3233 4129 
Q 3647 3509 3647 2328 
Q 3647 1150 3233 529 
Q 2819 -91 2034 -91 
Q 1250 -91 836 529 
Q 422 1150 422 2328 
Q 422 3509 836 4129 
Q 1250 4750 2034 4750 
z
" transform="scale(0.015625)"/>
       </defs>
       <use xlink:href="#DejaVuSans-33"/>
       <use xlink:href="#DejaVuSans-30" x="63.623047"/>
      </g>
     </g>
    </g>
    <g id="xtick_2">
     <g id="line2d_3">
      <path d="M 252.384636 414.957187 
L 252.384636 26.877187 
" clip-path="url(#pa1b79bdb3d)" style="fill: none; stroke: #808080; stroke-width: 0.8; stroke-linecap: square"/>
     </g>
     <g id="line2d_4">
      <g>
       <use xlink:href="#mcc05d9f536" x="252.384636" y="414.957187" style="fill: #808080; stroke: #808080; stroke-width: 0.8"/>
      </g>
     </g>
     <g id="text_2">
      <!-- 35 -->
      <g style="fill: #808080" transform="translate(242.840886 429.854844) scale(0.15 -0.15)">
       <defs>
        <path id="DejaVuSans-35" d="M 691 4666 
L 3169 4666 
L 3169 4134 
L 1269 4134 
L 1269 2991 
Q 1406 3038 1543 3061 
Q 1681 3084 1819 3084 
Q 2600 3084 3056 2656 
Q 3513 2228 3513 1497 
Q 3513 744 3044 326 
Q 2575 -91 1722 -91 
Q 1428 -91 1123 -41 
Q 819 9 494 109 
L 494 744 
Q 775 591 1075 516 
Q 1375 441 1709 441 
Q 2250 441 2565 725 
Q 2881 1009 2881 1497 
Q 2881 1984 2565 2268 
Q 2250 2553 1709 2553 
Q 1456 2553 1204 2497 
Q 953 2441 691 2322 
L 691 4666 
z
" transform="scale(0.015625)"/>
       </defs>
       <use xlink:href="#DejaVuSans-33"/>
       <use xlink:href="#DejaVuSans-35" x="63.623047"/>
      </g>
     </g>
    </g>
    <g id="xtick_3">
     <g id="line2d_5">
      <path d="M 360.546571 414.957187 
L 360.546571 26.877187 
" clip-path="url(#pa1b79bdb3d)" style="fill: none; stroke: #808080; stroke-width: 0.8; stroke-linecap: square"/>
     </g>
     <g id="line2d_6">
      <g>
       <use xlink:href="#mcc05d9f536" x="360.546571" y="414.957187" style="fill: #808080; stroke: #808080; stroke-width: 0.8"/>
      </g>
     </g>
     <g id="text_3">
      <!-- 40 -->
      <g style="fill: #808080" transform="translate(351.002821 429.854844) scale(0.15 -0.15)">
       <defs>
        <path id="DejaVuSans-34" d="M 2419 4116 
L 825 1625 
L 2419 1625 
L 2419 4116 
z
M 2253 4666 
L 3047 4666 
L 3047 1625 
L 3713 1625 
L 3713 1100 
L 3047 1100 
L 3047 0 
L 2419 0 
L 2419 1100 
L 313 1100 
L 313 1709 
L 2253 4666 
z
" transform="scale(0.015625)"/>
       </defs>
       <use xlink:href="#DejaVuSans-34"/>
       <use xlink:href="#DejaVuSans-30" x="63.623047"/>
      </g>
     </g>
    </g>
    <g id="xtick_4">
     <g id="line2d_7">
      <path d="M 468.708507 414.957187 
L 468.708507 26.877187 
" clip-path="url(#pa1b79bdb3d)" style="fill: none; stroke: #808080; stroke-width: 0.8; stroke-linecap: square"/>
     </g>
     <g id="line2d_8">
      <g>
       <use xlink:href="#mcc05d9f536" x="468.708507" y="414.957187" style="fill: #808080; stroke: #808080; stroke-width: 0.8"/>
      </g>
     </g>
     <g id="text_4">
      <!-- 45 -->
      <g style="fill: #808080" transform="translate(459.164757 429.854844) scale(0.15 -0.15)">
       <use xlink:href="#DejaVuSans-34"/>
       <use xlink:href="#DejaVuSans-35" x="63.623047"/>
      </g>
     </g>
    </g>
    <g id="xtick_5">
     <g id="line2d_9">
      <path d="M 576.870442 414.957187 
L 576.870442 26.877187 
" clip-path="url(#pa1b79bdb3d)" style="fill: none; stroke: #808080; stroke-width: 0.8; stroke-linecap: square"/>
     </g>
     <g id="line2d_10">
      <g>
       <use xlink:href="#mcc05d9f536" x="576.870442" y="414.957187" style="fill: #808080; stroke: #808080; stroke-width: 0.8"/>
      </g>
     </g>
     <g id="text_5">
      <!-- 50 -->
      <g style="fill: #808080" transform="translate(567.326692 429.854844) scale(0.15 -0.15)">
       <use xlink:href="#DejaVuSans-35"/>
       <use xlink:href="#DejaVuSans-30" x="63.623047"/>
      </g>
     </g>
    </g>
    <g id="text_6">
     <!-- time [s] -->
     <g style="fill: #808080" transform="translate(322.255078 448.372031) scale(0.15 -0.15)">
      <defs>
       <path id="DejaVuSans-74" d="M 1172 4494 
L 1172 3500 
L 2356 3500 
L 2356 3053 
L 1172 3053 
L 1172 1153 
Q 1172 725 1289 603 
Q 1406 481 1766 481 
L 2356 481 
L 2356 0 
L 1766 0 
Q 1100 0 847 248 
Q 594 497 594 1153 
L 594 3053 
L 172 3053 
L 172 3500 
L 594 3500 
L 594 4494 
L 1172 4494 
z
" transform="scale(0.015625)"/>
       <path id="DejaVuSans-69" d="M 603 3500 
L 1178 3500 
L 1178 0 
L 603 0 
L 603 3500 
z
M 603 4863 
L 1178 4863 
L 1178 4134 
L 603 4134 
L 603 4863 
z
" transform="scale(0.015625)"/>
       <path id="DejaVuSans-6d" d="M 3328 2828 
Q 3544 3216 3844 3400 
Q 4144 3584 4550 3584 
Q 5097 3584 5394 3201 
Q 5691 2819 5691 2113 
L 5691 0 
L 5113 0 
L 5113 2094 
Q 5113 2597 4934 2840 
Q 4756 3084 4391 3084 
Q 3944 3084 3684 2787 
Q 3425 2491 3425 1978 
L 3425 0 
L 2847 0 
L 2847 2094 
Q 2847 2600 2669 2842 
Q 2491 3084 2119 3084 
Q 1678 3084 1418 2786 
Q 1159 2488 1159 1978 
L 1159 0 
L 581 0 
L 581 3500 
L 1159 3500 
L 1159 2956 
Q 1356 3278 1631 3431 
Q 1906 3584 2284 3584 
Q 2666 3584 2933 3390 
Q 3200 3197 3328 2828 
z
" transform="scale(0.015625)"/>
       <path id="DejaVuSans-65" d="M 3597 1894 
L 3597 1613 
L 953 1613 
Q 991 1019 1311 708 
Q 1631 397 2203 397 
Q 2534 397 2845 478 
Q 3156 559 3463 722 
L 3463 178 
Q 3153 47 2828 -22 
Q 2503 -91 2169 -91 
Q 1331 -91 842 396 
Q 353 884 353 1716 
Q 353 2575 817 3079 
Q 1281 3584 2069 3584 
Q 2775 3584 3186 3129 
Q 3597 2675 3597 1894 
z
M 3022 2063 
Q 3016 2534 2758 2815 
Q 2500 3097 2075 3097 
Q 1594 3097 1305 2825 
Q 1016 2553 972 2059 
L 3022 2063 
z
" transform="scale(0.015625)"/>
       <path id="DejaVuSans-20" transform="scale(0.015625)"/>
       <path id="DejaVuSans-5b" d="M 550 4863 
L 1875 4863 
L 1875 4416 
L 1125 4416 
L 1125 -397 
L 1875 -397 
L 1875 -844 
L 550 -844 
L 550 4863 
z
" transform="scale(0.015625)"/>
       <path id="DejaVuSans-73" d="M 2834 3397 
L 2834 2853 
Q 2591 2978 2328 3040 
Q 2066 3103 1784 3103 
Q 1356 3103 1142 2972 
Q 928 2841 928 2578 
Q 928 2378 1081 2264 
Q 1234 2150 1697 2047 
L 1894 2003 
Q 2506 1872 2764 1633 
Q 3022 1394 3022 966 
Q 3022 478 2636 193 
Q 2250 -91 1575 -91 
Q 1294 -91 989 -36 
Q 684 19 347 128 
L 347 722 
Q 666 556 975 473 
Q 1284 391 1588 391 
Q 1994 391 2212 530 
Q 2431 669 2431 922 
Q 2431 1156 2273 1281 
Q 2116 1406 1581 1522 
L 1381 1569 
Q 847 1681 609 1914 
Q 372 2147 372 2553 
Q 372 3047 722 3315 
Q 1072 3584 1716 3584 
Q 2034 3584 2315 3537 
Q 2597 3491 2834 3397 
z
" transform="scale(0.015625)"/>
       <path id="DejaVuSans-5d" d="M 1947 4863 
L 1947 -844 
L 622 -844 
L 622 -397 
L 1369 -397 
L 1369 4416 
L 622 4416 
L 622 4863 
L 1947 4863 
z
" transform="scale(0.015625)"/>
      </defs>
      <use xlink:href="#DejaVuSans-74"/>
      <use xlink:href="#DejaVuSans-69" x="39.208984"/>
      <use xlink:href="#DejaVuSans-6d" x="66.992188"/>
      <use xlink:href="#DejaVuSans-65" x="164.404297"/>
      <use xlink:href="#DejaVuSans-20" x="225.927734"/>
      <use xlink:href="#DejaVuSans-5b" x="257.714844"/>
      <use xlink:href="#DejaVuSans-73" x="296.728516"/>
      <use xlink:href="#DejaVuSans-5d" x="348.828125"/>
     </g>
    </g>
   </g>
   <g id="matplotlib.axis_2">
    <g id="ytick_1">
     <g id="line2d_11">
      <path d="M 72.342187 408.735227 
L 630.342188 408.735227 
" clip-path="url(#pa1b79bdb3d)" style="fill: none; stroke: #808080; stroke-width: 0.8; stroke-linecap: square"/>
     </g>
     <g id="line2d_12">
      <defs>
       <path id="m874eb54f07" d="M 0 0 
L 5 0 
" style="stroke: #808080; stroke-width: 0.8"/>
      </defs>
      <g>
       <use xlink:href="#m874eb54f07" x="72.342187" y="408.735227" style="fill: #808080; stroke: #808080; stroke-width: 0.8"/>
      </g>
     </g>
     <g id="text_7">
      <!-- 277.5 -->
      <g style="fill: #808080" transform="translate(25.9 414.434055) scale(0.15 -0.15)">
       <defs>
        <path id="DejaVuSans-32" d="M 1228 531 
L 3431 531 
L 3431 0 
L 469 0 
L 469 531 
Q 828 903 1448 1529 
Q 2069 2156 2228 2338 
Q 2531 2678 2651 2914 
Q 2772 3150 2772 3378 
Q 2772 3750 2511 3984 
Q 2250 4219 1831 4219 
Q 1534 4219 1204 4116 
Q 875 4013 500 3803 
L 500 4441 
Q 881 4594 1212 4672 
Q 1544 4750 1819 4750 
Q 2544 4750 2975 4387 
Q 3406 4025 3406 3419 
Q 3406 3131 3298 2873 
Q 3191 2616 2906 2266 
Q 2828 2175 2409 1742 
Q 1991 1309 1228 531 
z
" transform="scale(0.015625)"/>
        <path id="DejaVuSans-37" d="M 525 4666 
L 3525 4666 
L 3525 4397 
L 1831 0 
L 1172 0 
L 2766 4134 
L 525 4134 
L 525 4666 
z
" transform="scale(0.015625)"/>
        <path id="DejaVuSans-2e" d="M 684 794 
L 1344 794 
L 1344 0 
L 684 0 
L 684 794 
z
" transform="scale(0.015625)"/>
       </defs>
       <use xlink:href="#DejaVuSans-32"/>
       <use xlink:href="#DejaVuSans-37" x="63.623047"/>
       <use xlink:href="#DejaVuSans-37" x="127.246094"/>
       <use xlink:href="#DejaVuSans-2e" x="190.869141"/>
       <use xlink:href="#DejaVuSans-35" x="222.65625"/>
      </g>
     </g>
    </g>
    <g id="ytick_2">
     <g id="line2d_13">
      <path d="M 72.342187 343.542254 
L 630.342188 343.542254 
" clip-path="url(#pa1b79bdb3d)" style="fill: none; stroke: #808080; stroke-width: 0.8; stroke-linecap: square"/>
     </g>
     <g id="line2d_14">
      <g>
       <use xlink:href="#m874eb54f07" x="72.342187" y="343.542254" style="fill: #808080; stroke: #808080; stroke-width: 0.8"/>
      </g>
     </g>
     <g id="text_8">
      <!-- 278.0 -->
      <g style="fill: #808080" transform="translate(25.9 349.241082) scale(0.15 -0.15)">
       <defs>
        <path id="DejaVuSans-38" d="M 2034 2216 
Q 1584 2216 1326 1975 
Q 1069 1734 1069 1313 
Q 1069 891 1326 650 
Q 1584 409 2034 409 
Q 2484 409 2743 651 
Q 3003 894 3003 1313 
Q 3003 1734 2745 1975 
Q 2488 2216 2034 2216 
z
M 1403 2484 
Q 997 2584 770 2862 
Q 544 3141 544 3541 
Q 544 4100 942 4425 
Q 1341 4750 2034 4750 
Q 2731 4750 3128 4425 
Q 3525 4100 3525 3541 
Q 3525 3141 3298 2862 
Q 3072 2584 2669 2484 
Q 3125 2378 3379 2068 
Q 3634 1759 3634 1313 
Q 3634 634 3220 271 
Q 2806 -91 2034 -91 
Q 1263 -91 848 271 
Q 434 634 434 1313 
Q 434 1759 690 2068 
Q 947 2378 1403 2484 
z
M 1172 3481 
Q 1172 3119 1398 2916 
Q 1625 2713 2034 2713 
Q 2441 2713 2670 2916 
Q 2900 3119 2900 3481 
Q 2900 3844 2670 4047 
Q 2441 4250 2034 4250 
Q 1625 4250 1398 4047 
Q 1172 3844 1172 3481 
z
" transform="scale(0.015625)"/>
       </defs>
       <use xlink:href="#DejaVuSans-32"/>
       <use xlink:href="#DejaVuSans-37" x="63.623047"/>
       <use xlink:href="#DejaVuSans-38" x="127.246094"/>
       <use xlink:href="#DejaVuSans-2e" x="190.869141"/>
       <use xlink:href="#DejaVuSans-30" x="222.65625"/>
      </g>
     </g>
    </g>
    <g id="ytick_3">
     <g id="line2d_15">
      <path d="M 72.342187 278.34928 
L 630.342188 278.34928 
" clip-path="url(#pa1b79bdb3d)" style="fill: none; stroke: #808080; stroke-width: 0.8; stroke-linecap: square"/>
     </g>
     <g id="line2d_16">
      <g>
       <use xlink:href="#m874eb54f07" x="72.342187" y="278.34928" style="fill: #808080; stroke: #808080; stroke-width: 0.8"/>
      </g>
     </g>
     <g id="text_9">
      <!-- 278.5 -->
      <g style="fill: #808080" transform="translate(25.9 284.048108) scale(0.15 -0.15)">
       <use xlink:href="#DejaVuSans-32"/>
       <use xlink:href="#DejaVuSans-37" x="63.623047"/>
       <use xlink:href="#DejaVuSans-38" x="127.246094"/>
       <use xlink:href="#DejaVuSans-2e" x="190.869141"/>
       <use xlink:href="#DejaVuSans-35" x="222.65625"/>
      </g>
     </g>
    </g>
    <g id="ytick_4">
     <g id="line2d_17">
      <path d="M 72.342187 213.156307 
L 630.342188 213.156307 
" clip-path="url(#pa1b79bdb3d)" style="fill: none; stroke: #808080; stroke-width: 0.8; stroke-linecap: square"/>
     </g>
     <g id="line2d_18">
      <g>
       <use xlink:href="#m874eb54f07" x="72.342187" y="213.156307" style="fill: #808080; stroke: #808080; stroke-width: 0.8"/>
      </g>
     </g>
     <g id="text_10">
      <!-- 279.0 -->
      <g style="fill: #808080" transform="translate(25.9 218.855135) scale(0.15 -0.15)">
       <defs>
        <path id="DejaVuSans-39" d="M 703 97 
L 703 672 
Q 941 559 1184 500 
Q 1428 441 1663 441 
Q 2288 441 2617 861 
Q 2947 1281 2994 2138 
Q 2813 1869 2534 1725 
Q 2256 1581 1919 1581 
Q 1219 1581 811 2004 
Q 403 2428 403 3163 
Q 403 3881 828 4315 
Q 1253 4750 1959 4750 
Q 2769 4750 3195 4129 
Q 3622 3509 3622 2328 
Q 3622 1225 3098 567 
Q 2575 -91 1691 -91 
Q 1453 -91 1209 -44 
Q 966 3 703 97 
z
M 1959 2075 
Q 2384 2075 2632 2365 
Q 2881 2656 2881 3163 
Q 2881 3666 2632 3958 
Q 2384 4250 1959 4250 
Q 1534 4250 1286 3958 
Q 1038 3666 1038 3163 
Q 1038 2656 1286 2365 
Q 1534 2075 1959 2075 
z
" transform="scale(0.015625)"/>
       </defs>
       <use xlink:href="#DejaVuSans-32"/>
       <use xlink:href="#DejaVuSans-37" x="63.623047"/>
       <use xlink:href="#DejaVuSans-39" x="127.246094"/>
       <use xlink:href="#DejaVuSans-2e" x="190.869141"/>
       <use xlink:href="#DejaVuSans-30" x="222.65625"/>
      </g>
     </g>
    </g>
    <g id="ytick_5">
     <g id="line2d_19">
      <path d="M 72.342187 147.963333 
L 630.342188 147.963333 
" clip-path="url(#pa1b79bdb3d)" style="fill: none; stroke: #808080; stroke-width: 0.8; stroke-linecap: square"/>
     </g>
     <g id="line2d_20">
      <g>
       <use xlink:href="#m874eb54f07" x="72.342187" y="147.963333" style="fill: #808080; stroke: #808080; stroke-width: 0.8"/>
      </g>
     </g>
     <g id="text_11">
      <!-- 279.5 -->
      <g style="fill: #808080" transform="translate(25.9 153.662161) scale(0.15 -0.15)">
       <use xlink:href="#DejaVuSans-32"/>
       <use xlink:href="#DejaVuSans-37" x="63.623047"/>
       <use xlink:href="#DejaVuSans-39" x="127.246094"/>
       <use xlink:href="#DejaVuSans-2e" x="190.869141"/>
       <use xlink:href="#DejaVuSans-35" x="222.65625"/>
      </g>
     </g>
    </g>
    <g id="ytick_6">
     <g id="line2d_21">
      <path d="M 72.342187 82.77036 
L 630.342188 82.77036 
" clip-path="url(#pa1b79bdb3d)" style="fill: none; stroke: #808080; stroke-width: 0.8; stroke-linecap: square"/>
     </g>
     <g id="line2d_22">
      <g>
       <use xlink:href="#m874eb54f07" x="72.342187" y="82.77036" style="fill: #808080; stroke: #808080; stroke-width: 0.8"/>
      </g>
     </g>
     <g id="text_12">
      <!-- 280.0 -->
      <g style="fill: #808080" transform="translate(25.9 88.469188) scale(0.15 -0.15)">
       <use xlink:href="#DejaVuSans-32"/>
       <use xlink:href="#DejaVuSans-38" x="63.623047"/>
       <use xlink:href="#DejaVuSans-30" x="127.246094"/>
       <use xlink:href="#DejaVuSans-2e" x="190.869141"/>
       <use xlink:href="#DejaVuSans-30" x="222.65625"/>
      </g>
     </g>
    </g>
    <g id="text_13">
     <!-- $\theta$ [deg] -->
     <g style="fill: #808080" transform="translate(18.75 247.917187) rotate(-90) scale(0.15 -0.15)">
      <defs>
       <path id="DejaVuSans-Oblique-3b8" d="M 2913 2219 
L 925 2219 
Q 791 1284 928 888 
Q 1100 400 1566 400 
Q 2034 400 2391 891 
Q 2703 1322 2913 2219 
z
M 3009 2750 
Q 3094 3638 2984 3950 
Q 2813 4444 2353 4444 
Q 1875 4444 1525 3956 
Q 1250 3563 1034 2750 
L 3009 2750 
z
M 2444 4913 
Q 3194 4913 3494 4250 
Q 3794 3591 3566 2422 
Q 3341 1256 2781 594 
Q 2225 -72 1475 -72 
Q 722 -72 425 594 
Q 128 1256 353 2422 
Q 581 3591 1134 4250 
Q 1691 4913 2444 4913 
z
" transform="scale(0.015625)"/>
       <path id="DejaVuSans-64" d="M 2906 2969 
L 2906 4863 
L 3481 4863 
L 3481 0 
L 2906 0 
L 2906 525 
Q 2725 213 2448 61 
Q 2172 -91 1784 -91 
Q 1150 -91 751 415 
Q 353 922 353 1747 
Q 353 2572 751 3078 
Q 1150 3584 1784 3584 
Q 2172 3584 2448 3432 
Q 2725 3281 2906 2969 
z
M 947 1747 
Q 947 1113 1208 752 
Q 1469 391 1925 391 
Q 2381 391 2643 752 
Q 2906 1113 2906 1747 
Q 2906 2381 2643 2742 
Q 2381 3103 1925 3103 
Q 1469 3103 1208 2742 
Q 947 2381 947 1747 
z
" transform="scale(0.015625)"/>
       <path id="DejaVuSans-67" d="M 2906 1791 
Q 2906 2416 2648 2759 
Q 2391 3103 1925 3103 
Q 1463 3103 1205 2759 
Q 947 2416 947 1791 
Q 947 1169 1205 825 
Q 1463 481 1925 481 
Q 2391 481 2648 825 
Q 2906 1169 2906 1791 
z
M 3481 434 
Q 3481 -459 3084 -895 
Q 2688 -1331 1869 -1331 
Q 1566 -1331 1297 -1286 
Q 1028 -1241 775 -1147 
L 775 -588 
Q 1028 -725 1275 -790 
Q 1522 -856 1778 -856 
Q 2344 -856 2625 -561 
Q 2906 -266 2906 331 
L 2906 616 
Q 2728 306 2450 153 
Q 2172 0 1784 0 
Q 1141 0 747 490 
Q 353 981 353 1791 
Q 353 2603 747 3093 
Q 1141 3584 1784 3584 
Q 2172 3584 2450 3431 
Q 2728 3278 2906 2969 
L 2906 3500 
L 3481 3500 
L 3481 434 
z
" transform="scale(0.015625)"/>
      </defs>
      <use xlink:href="#DejaVuSans-Oblique-3b8" transform="translate(0 0.234375)"/>
      <use xlink:href="#DejaVuSans-20" transform="translate(61.181641 0.234375)"/>
      <use xlink:href="#DejaVuSans-5b" transform="translate(92.96875 0.234375)"/>
      <use xlink:href="#DejaVuSans-64" transform="translate(131.982422 0.234375)"/>
      <use xlink:href="#DejaVuSans-65" transform="translate(195.458984 0.234375)"/>
      <use xlink:href="#DejaVuSans-67" transform="translate(256.982422 0.234375)"/>
      <use xlink:href="#DejaVuSans-5d" transform="translate(320.458984 0.234375)"/>
     </g>
    </g>
   </g>
   <g id="line2d_23">
    <path d="M 97.705824 290.063346 
L 98.997645 290.063346 
L 99.214077 327.475338 
L 99.862919 327.475338 
L 100.078875 283.577982 
L 100.297168 283.577982 
L 100.513167 327.475338 
L 103.323863 327.475338 
L 103.54672 321.620298 
L 103.757982 321.620298 
L 103.973613 362.668176 
L 104.62239 362.668176 
L 104.839666 321.620298 
L 105.488053 321.620298 
L 105.703685 327.475338 
L 106.35694 327.475338 
L 106.575708 368.303302 
L 107.694341 368.303302 
L 108.083399 327.475338 
L 108.51596 327.475338 
L 108.732392 333.709651 
L 112.843519 333.709651 
L 113.059 374.30335 
L 114.572791 374.30335 
L 114.789958 379.812255 
L 118.033994 379.812255 
L 118.25259 374.30335 
L 121.494614 374.30335 
L 121.710765 333.709651 
L 121.928538 333.709651 
L 122.143867 339.433742 
L 125.389547 339.433742 
L 125.606109 296.018056 
L 128.854471 296.018056 
L 129.068307 290.063346 
L 133.17712 290.063346 
L 133.392967 333.709651 
L 134.042458 333.709651 
L 134.259821 327.475338 
L 136.210197 327.475338 
L 136.422172 368.303302 
L 137.936483 368.303302 
L 138.179068 327.475338 
L 138.38966 327.475338 
L 138.589716 333.709651 
L 140.100522 333.709651 
L 140.317365 374.30335 
L 140.967894 374.30335 
L 141.181297 339.433742 
L 141.398292 339.433742 
L 141.61812 379.812255 
L 143.127628 379.812255 
L 143.344255 339.433742 
L 143.559713 339.433742 
L 143.776621 379.812255 
L 146.176151 379.812255 
L 146.374325 374.30335 
L 147.043718 374.30335 
L 147.260279 379.812255 
L 147.455923 379.812255 
L 147.672182 339.433742 
L 147.887121 339.433742 
L 148.132411 379.812255 
L 148.363142 379.812255 
L 148.65334 374.30335 
L 152.213772 374.30335 
L 152.430982 368.303302 
L 153.078743 368.303302 
L 153.295586 374.30335 
L 153.510676 374.30335 
L 153.727606 333.709651 
L 155.252365 333.709651 
L 155.458759 290.063346 
L 155.673569 290.063346 
L 155.898935 333.709651 
L 158.703228 333.709651 
L 158.920439 290.063346 
L 159.13633 290.063346 
L 159.352178 339.433742 
L 162.599372 339.433742 
L 162.847734 333.709651 
L 163.075566 333.709651 
L 163.252735 339.433742 
L 164.326113 339.433742 
L 164.545357 333.709651 
L 166.923232 333.709651 
L 167.138713 374.30335 
L 169.521152 374.30335 
L 169.735854 339.433742 
L 172.980539 339.433742 
L 173.196971 333.709651 
L 173.412948 333.709651 
L 173.628905 290.063346 
L 177.739534 290.063346 
L 177.954863 283.577982 
L 181.203636 283.577982 
L 181.421172 277.487282 
L 181.633277 277.487282 
L 181.85105 236.576244 
L 182.065233 236.576244 
L 182.281989 230.198425 
L 182.497404 230.198425 
L 182.714594 271.329449 
L 182.93055 271.329449 
L 183.147414 230.198425 
L 184.231175 230.198425 
L 184.445141 189.138056 
L 185.53232 189.138056 
L 185.74488 195.734718 
L 187.257676 195.734718 
L 187.47374 151.831674 
L 192.365342 151.831674 
L 192.666508 111.141398 
L 194.178591 111.141398 
L 194.421587 151.831674 
L 195.910912 151.831674 
L 196.126955 111.141398 
L 196.778241 111.141398 
L 196.992964 151.831674 
L 198.074129 151.831674 
L 198.291816 145.000653 
L 199.808895 145.000653 
L 200.021217 151.831674 
L 201.562157 151.831674 
L 201.751549 111.141398 
L 201.96705 111.141398 
L 202.183699 151.831674 
L 202.399352 151.831674 
L 202.616822 118.112497 
L 202.862588 118.112497 
L 203.053451 151.831674 
L 203.700865 151.831674 
L 203.916475 158.588618 
L 204.132517 158.588618 
L 204.347673 151.831674 
L 207.592488 151.831674 
L 207.812403 118.112497 
L 208.026217 118.112497 
L 208.241373 158.588618 
L 208.458238 158.588618 
L 208.674237 151.831674 
L 210.621866 151.831674 
L 210.837086 111.141398 
L 211.486036 111.141398 
L 211.703939 151.831674 
L 214.515565 151.831674 
L 214.737211 145.000653 
L 214.948062 145.000653 
L 215.164018 151.831674 
L 216.680081 151.831674 
L 216.933331 111.141398 
L 217.543343 111.141398 
L 217.760207 118.112497 
L 219.275058 118.112497 
L 219.489911 77.711534 
L 220.143772 77.711534 
L 220.365504 118.112497 
L 221.008894 118.112497 
L 221.2218 77.711534 
L 221.443922 77.711534 
L 221.664399 118.112497 
L 224.905579 118.112497 
L 225.11563 125.5359 
L 226.196103 125.5359 
L 226.412664 118.112497 
L 227.060663 118.112497 
L 227.277549 158.588618 
L 229.225091 158.588618 
L 229.439836 151.831674 
L 229.657609 151.831674 
L 229.873046 195.734718 
L 231.821259 195.734718 
L 232.037886 158.588618 
L 232.25462 158.588618 
L 232.470209 202.259706 
L 232.684716 202.259706 
L 232.90078 158.588618 
L 237.877181 158.588618 
L 238.093223 202.259706 
L 238.310131 202.259706 
L 238.525244 195.734718 
L 241.771075 195.734718 
L 241.986642 151.831674 
L 242.204004 151.831674 
L 242.421518 195.734718 
L 243.506079 195.734718 
L 243.717514 189.138056 
L 245.665381 189.138056 
L 245.881813 223.251084 
L 246.097682 223.251084 
L 246.314828 189.138056 
L 246.529962 189.138056 
L 246.745854 181.952474 
L 247.396859 181.952474 
L 247.613529 189.138056 
L 249.125979 189.138056 
L 249.343795 145.000653 
L 249.991707 145.000653 
L 250.208247 151.831674 
L 251.724007 151.831674 
L 251.939703 111.141398 
L 252.61498 111.141398 
L 252.830828 151.831674 
L 253.022534 151.831674 
L 253.236976 111.141398 
L 257.345918 111.141398 
L 257.562675 77.711534 
L 257.77915 77.711534 
L 257.997723 70.527501 
L 260.807165 70.527501 
L 261.036468 111.141398 
L 261.278297 111.141398 
L 261.456612 104.094015 
L 263.403506 104.094015 
L 263.620738 111.141398 
L 265.999954 111.141398 
L 266.215132 70.527501 
L 266.431585 70.527501 
L 266.648212 77.711534 
L 267.732687 77.711534 
L 267.948167 70.527501 
L 268.595452 70.527501 
L 268.812662 111.141398 
L 277.682244 111.141398 
L 277.897919 104.094015 
L 279.411083 104.094015 
L 279.627601 111.141398 
L 281.143794 111.141398 
L 281.37552 118.112497 
L 285.03678 118.112497 
L 285.25412 77.711534 
L 286.769079 77.711534 
L 287.014564 118.112497 
L 292.392488 118.112497 
L 292.625067 151.831674 
L 294.125332 151.831674 
L 294.340592 111.141398 
L 295.854094 111.141398 
L 296.069609 118.112497 
L 297.166148 118.112497 
L 297.374921 125.5359 
L 298.450687 125.5359 
L 298.666281 165.783823 
L 299.321599 165.783823 
L 299.535477 158.588618 
L 300.187825 158.588618 
L 300.399951 165.783823 
L 300.614078 165.783823 
L 300.829618 158.588618 
L 301.90942 158.588618 
L 302.125665 165.783823 
L 302.775439 165.783823 
L 302.991084 158.588618 
L 304.93924 158.588618 
L 305.154572 202.259706 
L 308.399857 202.259706 
L 308.61704 195.734718 
L 310.129431 195.734718 
L 310.345705 151.831674 
L 312.293733 151.831674 
L 312.509703 158.588618 
L 312.72599 158.588618 
L 312.941409 118.112497 
L 315.321539 118.112497 
L 315.537776 77.711534 
L 318.783117 77.711534 
L 318.999101 34.289136 
L 319.215904 34.289136 
L 319.432446 77.711534 
L 320.513381 77.711534 
L 320.729507 26.877188 
L 320.946305 26.877188 
L 321.162466 70.527501 
L 322.676489 70.527501 
L 322.892854 63.265003 
L 324.408872 63.265003 
L 324.628051 104.094015 
L 324.842287 104.094015 
L 325.058994 96.417806 
L 326.138928 96.417806 
L 326.355151 104.094015 
L 326.570797 104.094015 
L 326.786825 63.265003 
L 328.313528 63.265003 
L 328.526601 70.527501 
L 329.168767 70.527501 
L 329.384024 111.141398 
L 330.249918 111.141398 
L 330.465744 70.527501 
L 332.10284 70.527501 
L 332.414195 111.141398 
L 335.43916 111.141398 
L 335.69016 151.831674 
L 336.739677 151.831674 
L 336.959657 158.588618 
L 338.468365 158.588618 
L 338.686981 202.259706 
L 339.766416 202.259706 
L 339.980944 236.576244 
L 340.631322 236.576244 
L 340.849377 277.487282 
L 341.069075 277.487282 
L 341.281008 236.576244 
L 341.495774 236.576244 
L 341.712033 277.487282 
L 343.228809 277.487282 
L 343.443792 283.577982 
L 345.390664 283.577982 
L 345.605322 242.884648 
L 351.015236 242.884648 
L 351.231884 202.259706 
L 351.448576 202.259706 
L 351.670935 195.734718 
L 355.773366 195.734718 
L 355.992502 189.138056 
L 357.938811 189.138056 
L 358.153534 145.000653 
L 358.802246 145.000653 
L 359.021555 151.831674 
L 360.101098 151.831674 
L 360.317378 111.141398 
L 360.5342 111.141398 
L 360.754612 118.112497 
L 362.696076 118.112497 
L 362.912919 158.588618 
L 363.131795 158.588618 
L 363.347254 118.112497 
L 364.859336 118.112497 
L 365.101511 158.588618 
L 365.292568 158.588618 
L 365.508351 125.5359 
L 365.725237 125.5359 
L 365.940004 118.112497 
L 366.15782 118.112497 
L 366.372716 125.5359 
L 366.590122 125.5359 
L 366.805602 118.112497 
L 367.096341 118.112497 
L 367.455871 158.588618 
L 367.889904 158.588618 
L 368.104389 165.783823 
L 370.052688 165.783823 
L 370.268017 158.588618 
L 371.349506 158.588618 
L 371.56503 202.259706 
L 373.512096 202.259706 
L 373.737635 242.884648 
L 375.243812 242.884648 
L 375.502535 209.207761 
L 380.007761 209.207761 
L 380.219174 249.601946 
L 382.424834 249.601946 
L 382.713107 290.063346 
L 383.465698 290.063346 
L 383.680876 296.018056 
L 383.895339 296.018056 
L 384.111295 290.063346 
L 384.327468 290.063346 
L 384.567046 296.018056 
L 385.193282 296.018056 
L 385.412764 290.063346 
L 386.058902 290.063346 
L 386.276329 333.709651 
L 386.923852 333.709651 
L 387.142274 290.063346 
L 388.655935 290.063346 
L 388.910895 283.577982 
L 389.09769 283.577982 
L 389.304258 333.709651 
L 389.521534 333.709651 
L 389.736084 290.063346 
L 390.818136 290.063346 
L 391.081207 296.018056 
L 392.125208 296.018056 
L 392.359335 255.769726 
L 394.713609 255.769726 
L 394.927835 209.207761 
L 396.876091 209.207761 
L 397.093691 215.587541 
L 397.756854 215.587541 
L 397.958338 209.207761 
L 399.038789 209.207761 
L 399.25706 165.783823 
L 399.904149 165.783823 
L 400.120819 209.207761 
L 402.502069 209.207761 
L 402.716078 242.884648 
L 405.966042 242.884648 
L 406.178753 202.259706 
L 406.393498 202.259706 
L 406.609108 209.207761 
L 409.423157 209.207761 
L 409.638139 165.783823 
L 410.28737 165.783823 
L 410.50443 209.207761 
L 411.153077 209.207761 
L 411.369163 165.783823 
L 412.018243 165.783823 
L 412.237768 158.588618 
L 416.822709 158.588618 
L 417.209583 118.112497 
L 417.477889 158.588618 
L 418.077258 158.588618 
L 418.292132 151.831674 
L 418.940044 151.831674 
L 419.157839 195.734718 
L 419.373579 195.734718 
L 419.588778 189.138056 
L 419.805577 189.138056 
L 420.021772 145.000653 
L 420.242184 145.000653 
L 420.454333 189.138056 
L 421.537034 189.138056 
L 421.751822 195.734718 
L 426.295077 195.734718 
L 426.513651 202.259706 
L 432.786719 202.259706 
L 433.001377 242.884648 
L 433.65223 242.884648 
L 433.86784 236.576244 
L 437.544784 236.576244 
L 437.760286 242.884648 
L 440.139589 242.884648 
L 440.357924 236.576244 
L 444.03357 236.576244 
L 444.250737 195.734718 
L 448.792825 195.734718 
L 449.008543 236.576244 
L 449.225797 236.576244 
L 449.443029 195.734718 
L 449.658683 195.734718 
L 449.874076 189.138056 
L 450.091244 189.138056 
L 450.310293 230.198425 
L 450.523848 230.198425 
L 450.73948 189.138056 
L 450.956172 189.138056 
L 451.172755 230.198425 
L 452.254396 230.198425 
L 452.470395 236.576244 
L 452.686741 236.576244 
L 452.90313 195.734718 
L 454.416726 195.734718 
L 454.632574 151.831674 
L 454.854587 151.831674 
L 455.06732 158.588618 
L 455.716443 158.588618 
L 455.931859 202.259706 
L 456.147296 202.259706 
L 456.366972 158.588618 
L 457.014646 158.588618 
L 457.229802 202.259706 
L 457.445888 202.259706 
L 457.662385 158.588618 
L 458.310772 158.588618 
L 458.529865 118.112497 
L 458.743831 118.112497 
L 458.959852 125.5359 
L 460.043094 125.5359 
L 460.260607 118.112497 
L 461.339652 118.112497 
L 461.556928 77.711534 
L 465.234045 77.711534 
L 465.453808 70.527501 
L 466.964722 70.527501 
L 467.180029 111.141398 
L 468.695443 111.141398 
L 468.91101 70.527501 
L 469.12755 70.527501 
L 469.343333 111.141398 
L 469.561106 111.141398 
L 469.778793 77.711534 
L 470.426813 77.711534 
L 470.6408 118.112497 
L 471.722722 118.112497 
L 471.940777 111.141398 
L 472.155781 111.141398 
L 472.373814 118.112497 
L 472.60422 118.112497 
L 472.806159 151.831674 
L 473.022418 151.831674 
L 473.239045 158.588618 
L 473.887583 158.588618 
L 474.103691 111.141398 
L 474.319539 111.141398 
L 474.535798 158.588618 
L 475.184575 158.588618 
L 475.402478 151.831674 
L 477.347662 151.831674 
L 477.563251 195.734718 
L 478.213412 195.734718 
L 478.428849 202.259706 
L 479.945452 202.259706 
L 480.159159 158.588618 
L 480.809017 158.588618 
L 481.024843 202.259706 
L 482.107069 202.259706 
L 482.323912 195.734718 
L 484.270935 195.734718 
L 484.486112 202.259706 
L 486.004035 202.259706 
L 486.217157 209.207761 
L 487.734474 209.207761 
L 487.947099 215.587541 
L 492.92257 215.587541 
L 493.144172 255.769726 
L 493.627937 255.769726 
L 493.903534 261.871457 
L 494.655822 261.871457 
L 494.879933 255.769726 
L 495.088989 255.769726 
L 495.31827 296.018056 
L 495.519257 296.018056 
L 495.734564 301.908895 
L 495.951017 301.908895 
L 496.168899 296.018056 
L 496.830763 296.018056 
L 497.033307 261.871457 
L 497.251665 261.871457 
L 497.490421 255.769726 
L 497.683361 255.769726 
L 497.900939 296.018056 
L 498.551793 296.018056 
L 498.765131 290.063346 
L 502.009276 290.063346 
L 502.224951 296.018056 
L 503.315331 296.018056 
L 503.542904 290.063346 
L 505.764939 290.063346 
L 506.119083 333.709651 
L 508.499706 333.709651 
L 508.714645 339.433742 
L 509.36485 339.433742 
L 509.579573 333.709651 
L 511.095657 333.709651 
L 511.31144 339.433742 
L 511.527937 339.433742 
L 511.744802 333.709651 
L 511.960715 333.709651 
L 512.191835 374.30335 
L 513.72741 374.30335 
L 513.917364 409.192467 
L 515.484284 409.192467 
L 515.86668 414.957187 
L 517.587385 414.957187 
L 517.800118 374.30335 
L 518.016853 374.30335 
L 518.233155 379.812255 
L 519.748482 379.812255 
L 519.976747 374.30335 
L 520.23891 374.30335 
L 520.617909 333.709651 
L 524.074678 333.709651 
L 524.290526 374.30335 
L 524.940039 374.30335 
L 525.155281 333.709651 
L 526.671019 333.709651 
L 526.889268 290.063346 
L 527.968876 290.063346 
L 528.187125 283.577982 
L 529.267316 283.577982 
L 529.481196 277.487282 
L 531.861516 277.487282 
L 532.079483 236.576244 
L 533.591436 236.576244 
L 533.810745 195.734718 
L 535.757833 195.734718 
L 535.976536 151.831674 
L 536.188231 151.831674 
L 536.407345 195.734718 
L 536.621592 195.734718 
L 536.83664 151.831674 
L 538.783879 151.831674 
L 538.999922 111.141398 
L 539.216722 111.141398 
L 539.5578 158.588618 
L 540.515638 158.588618 
L 540.730643 151.831674 
L 540.992135 151.831674 
L 541.380372 202.259706 
L 542.246359 202.259706 
L 542.462056 158.588618 
L 543.110054 158.588618 
L 543.327243 202.259706 
L 545.274136 202.259706 
L 545.490049 195.734718 
L 547.005571 195.734718 
L 547.219688 202.259706 
L 549.171189 202.259706 
L 549.384636 165.783823 
L 550.465909 165.783823 
L 550.681043 209.207761 
L 552.630381 209.207761 
L 552.866845 165.783823 
L 559.117891 165.783823 
L 559.33495 209.207761 
L 559.549889 209.207761 
L 559.767187 202.259706 
L 564.744474 202.259706 
L 564.958073 158.588618 
L 567.7713 158.588618 
L 567.988013 118.112497 
L 570.367402 118.112497 
L 570.584094 125.5359 
L 573.828282 125.5359 
L 574.044346 118.112497 
L 575.55937 118.112497 
L 575.774937 158.588618 
L 576.859541 158.588618 
L 577.073356 151.831674 
L 577.740391 151.831674 
L 577.938889 158.588618 
L 581.186105 158.588618 
L 581.399055 202.259706 
L 581.616676 202.259706 
L 581.832005 158.588618 
L 590.702539 158.588618 
L 590.917673 151.831674 
L 592.867724 151.831674 
L 593.081928 145.000653 
L 594.165516 145.000653 
L 594.382251 104.094015 
L 595.461707 104.094015 
L 595.678096 111.141398 
L 599.78879 111.141398 
L 600.004032 118.112497 
L 602.382903 118.112497 
L 602.600308 125.5359 
L 602.815421 125.5359 
L 603.036915 165.783823 
L 604.978551 165.783823 
L 604.978551 165.783823 
" clip-path="url(#pa1b79bdb3d)" style="fill: none; stroke: #1f77b4; stroke-width: 2; stroke-linecap: square"/>
   </g>
   <g id="patch_3">
    <path d="M 72.342187 414.957187 
L 72.342187 26.877188 
" style="fill: none; stroke: #808080; stroke-width: 2; stroke-linejoin: miter; stroke-linecap: square"/>
   </g>
   <g id="patch_4">
    <path d="M 72.342188 414.957187 
L 630.342188 414.957187 
" style="fill: none; stroke: #808080; stroke-width: 2; stroke-linejoin: miter; stroke-linecap: square"/>
   </g>
   <g id="text_14">
    <!-- Oskar-Tyholt_restart-vinkel -->
    <g style="fill: #808080" transform="translate(232.830469 20.877187) scale(0.18 -0.18)">
     <defs>
      <path id="DejaVuSans-4f" d="M 2522 4238 
Q 1834 4238 1429 3725 
Q 1025 3213 1025 2328 
Q 1025 1447 1429 934 
Q 1834 422 2522 422 
Q 3209 422 3611 934 
Q 4013 1447 4013 2328 
Q 4013 3213 3611 3725 
Q 3209 4238 2522 4238 
z
M 2522 4750 
Q 3503 4750 4090 4092 
Q 4678 3434 4678 2328 
Q 4678 1225 4090 567 
Q 3503 -91 2522 -91 
Q 1538 -91 948 565 
Q 359 1222 359 2328 
Q 359 3434 948 4092 
Q 1538 4750 2522 4750 
z
" transform="scale(0.015625)"/>
      <path id="DejaVuSans-6b" d="M 581 4863 
L 1159 4863 
L 1159 1991 
L 2875 3500 
L 3609 3500 
L 1753 1863 
L 3688 0 
L 2938 0 
L 1159 1709 
L 1159 0 
L 581 0 
L 581 4863 
z
" transform="scale(0.015625)"/>
      <path id="DejaVuSans-61" d="M 2194 1759 
Q 1497 1759 1228 1600 
Q 959 1441 959 1056 
Q 959 750 1161 570 
Q 1363 391 1709 391 
Q 2188 391 2477 730 
Q 2766 1069 2766 1631 
L 2766 1759 
L 2194 1759 
z
M 3341 1997 
L 3341 0 
L 2766 0 
L 2766 531 
Q 2569 213 2275 61 
Q 1981 -91 1556 -91 
Q 1019 -91 701 211 
Q 384 513 384 1019 
Q 384 1609 779 1909 
Q 1175 2209 1959 2209 
L 2766 2209 
L 2766 2266 
Q 2766 2663 2505 2880 
Q 2244 3097 1772 3097 
Q 1472 3097 1187 3025 
Q 903 2953 641 2809 
L 641 3341 
Q 956 3463 1253 3523 
Q 1550 3584 1831 3584 
Q 2591 3584 2966 3190 
Q 3341 2797 3341 1997 
z
" transform="scale(0.015625)"/>
      <path id="DejaVuSans-72" d="M 2631 2963 
Q 2534 3019 2420 3045 
Q 2306 3072 2169 3072 
Q 1681 3072 1420 2755 
Q 1159 2438 1159 1844 
L 1159 0 
L 581 0 
L 581 3500 
L 1159 3500 
L 1159 2956 
Q 1341 3275 1631 3429 
Q 1922 3584 2338 3584 
Q 2397 3584 2469 3576 
Q 2541 3569 2628 3553 
L 2631 2963 
z
" transform="scale(0.015625)"/>
      <path id="DejaVuSans-2d" d="M 313 2009 
L 1997 2009 
L 1997 1497 
L 313 1497 
L 313 2009 
z
" transform="scale(0.015625)"/>
      <path id="DejaVuSans-54" d="M -19 4666 
L 3928 4666 
L 3928 4134 
L 2272 4134 
L 2272 0 
L 1638 0 
L 1638 4134 
L -19 4134 
L -19 4666 
z
" transform="scale(0.015625)"/>
      <path id="DejaVuSans-79" d="M 2059 -325 
Q 1816 -950 1584 -1140 
Q 1353 -1331 966 -1331 
L 506 -1331 
L 506 -850 
L 844 -850 
Q 1081 -850 1212 -737 
Q 1344 -625 1503 -206 
L 1606 56 
L 191 3500 
L 800 3500 
L 1894 763 
L 2988 3500 
L 3597 3500 
L 2059 -325 
z
" transform="scale(0.015625)"/>
      <path id="DejaVuSans-68" d="M 3513 2113 
L 3513 0 
L 2938 0 
L 2938 2094 
Q 2938 2591 2744 2837 
Q 2550 3084 2163 3084 
Q 1697 3084 1428 2787 
Q 1159 2491 1159 1978 
L 1159 0 
L 581 0 
L 581 4863 
L 1159 4863 
L 1159 2956 
Q 1366 3272 1645 3428 
Q 1925 3584 2291 3584 
Q 2894 3584 3203 3211 
Q 3513 2838 3513 2113 
z
" transform="scale(0.015625)"/>
      <path id="DejaVuSans-6f" d="M 1959 3097 
Q 1497 3097 1228 2736 
Q 959 2375 959 1747 
Q 959 1119 1226 758 
Q 1494 397 1959 397 
Q 2419 397 2687 759 
Q 2956 1122 2956 1747 
Q 2956 2369 2687 2733 
Q 2419 3097 1959 3097 
z
M 1959 3584 
Q 2709 3584 3137 3096 
Q 3566 2609 3566 1747 
Q 3566 888 3137 398 
Q 2709 -91 1959 -91 
Q 1206 -91 779 398 
Q 353 888 353 1747 
Q 353 2609 779 3096 
Q 1206 3584 1959 3584 
z
" transform="scale(0.015625)"/>
      <path id="DejaVuSans-6c" d="M 603 4863 
L 1178 4863 
L 1178 0 
L 603 0 
L 603 4863 
z
" transform="scale(0.015625)"/>
      <path id="DejaVuSans-5f" d="M 3263 -1063 
L 3263 -1509 
L -63 -1509 
L -63 -1063 
L 3263 -1063 
z
" transform="scale(0.015625)"/>
      <path id="DejaVuSans-76" d="M 191 3500 
L 800 3500 
L 1894 563 
L 2988 3500 
L 3597 3500 
L 2284 0 
L 1503 0 
L 191 3500 
z
" transform="scale(0.015625)"/>
      <path id="DejaVuSans-6e" d="M 3513 2113 
L 3513 0 
L 2938 0 
L 2938 2094 
Q 2938 2591 2744 2837 
Q 2550 3084 2163 3084 
Q 1697 3084 1428 2787 
Q 1159 2491 1159 1978 
L 1159 0 
L 581 0 
L 581 3500 
L 1159 3500 
L 1159 2956 
Q 1366 3272 1645 3428 
Q 1925 3584 2291 3584 
Q 2894 3584 3203 3211 
Q 3513 2838 3513 2113 
z
" transform="scale(0.015625)"/>
     </defs>
     <use xlink:href="#DejaVuSans-4f"/>
     <use xlink:href="#DejaVuSans-73" x="78.710938"/>
     <use xlink:href="#DejaVuSans-6b" x="130.810547"/>
     <use xlink:href="#DejaVuSans-61" x="186.970703"/>
     <use xlink:href="#DejaVuSans-72" x="248.25"/>
     <use xlink:href="#DejaVuSans-2d" x="282.988281"/>
     <use xlink:href="#DejaVuSans-54" x="309.947266"/>
     <use xlink:href="#DejaVuSans-79" x="355.40625"/>
     <use xlink:href="#DejaVuSans-68" x="414.585938"/>
     <use xlink:href="#DejaVuSans-6f" x="477.964844"/>
     <use xlink:href="#DejaVuSans-6c" x="539.146484"/>
     <use xlink:href="#DejaVuSans-74" x="566.929688"/>
     <use xlink:href="#DejaVuSans-5f" x="606.138672"/>
     <use xlink:href="#DejaVuSans-72" x="656.138672"/>
     <use xlink:href="#DejaVuSans-65" x="695.001953"/>
     <use xlink:href="#DejaVuSans-73" x="756.525391"/>
     <use xlink:href="#DejaVuSans-74" x="808.625"/>
     <use xlink:href="#DejaVuSans-61" x="847.833984"/>
     <use xlink:href="#DejaVuSans-72" x="909.113281"/>
     <use xlink:href="#DejaVuSans-74" x="950.226562"/>
     <use xlink:href="#DejaVuSans-2d" x="989.435547"/>
     <use xlink:href="#DejaVuSans-76" x="1022.894531"/>
     <use xlink:href="#DejaVuSans-69" x="1082.074219"/>
     <use xlink:href="#DejaVuSans-6e" x="1109.857422"/>
     <use xlink:href="#DejaVuSans-6b" x="1173.236328"/>
     <use xlink:href="#DejaVuSans-65" x="1227.521484"/>
     <use xlink:href="#DejaVuSans-6c" x="1289.044922"/>
    </g>
   </g>
   <g id="legend_1">
    <g id="patch_5">
     <path d="M 374.322656 61.311562 
L 619.842188 61.311562 
Q 622.842188 61.311562 622.842188 58.311562 
L 622.842188 37.377187 
Q 622.842188 34.377187 619.842188 34.377187 
L 374.322656 34.377187 
Q 371.322656 34.377187 371.322656 37.377187 
L 371.322656 58.311562 
Q 371.322656 61.311562 374.322656 61.311562 
z
" style="fill: #ffffff; opacity: 0.8; stroke: #cccccc; stroke-linejoin: miter"/>
    </g>
    <g id="line2d_24">
     <path d="M 377.322656 46.524844 
L 392.322656 46.524844 
L 407.322656 46.524844 
" style="fill: none; stroke: #1f77b4; stroke-width: 2; stroke-linecap: square"/>
    </g>
    <g id="text_15">
     <!-- Oskar-Tyholt_restart-vinkel -->
     <g style="fill: #808080" transform="translate(419.322656 51.774844) scale(0.15 -0.15)">
      <use xlink:href="#DejaVuSans-4f"/>
      <use xlink:href="#DejaVuSans-73" x="78.710938"/>
      <use xlink:href="#DejaVuSans-6b" x="130.810547"/>
      <use xlink:href="#DejaVuSans-61" x="186.970703"/>
      <use xlink:href="#DejaVuSans-72" x="248.25"/>
      <use xlink:href="#DejaVuSans-2d" x="282.988281"/>
      <use xlink:href="#DejaVuSans-54" x="309.947266"/>
      <use xlink:href="#DejaVuSans-79" x="355.40625"/>
      <use xlink:href="#DejaVuSans-68" x="414.585938"/>
      <use xlink:href="#DejaVuSans-6f" x="477.964844"/>
      <use xlink:href="#DejaVuSans-6c" x="539.146484"/>
      <use xlink:href="#DejaVuSans-74" x="566.929688"/>
      <use xlink:href="#DejaVuSans-5f" x="606.138672"/>
      <use xlink:href="#DejaVuSans-72" x="656.138672"/>
      <use xlink:href="#DejaVuSans-65" x="695.001953"/>
      <use xlink:href="#DejaVuSans-73" x="756.525391"/>
      <use xlink:href="#DejaVuSans-74" x="808.625"/>
      <use xlink:href="#DejaVuSans-61" x="847.833984"/>
      <use xlink:href="#DejaVuSans-72" x="909.113281"/>
      <use xlink:href="#DejaVuSans-74" x="950.226562"/>
      <use xlink:href="#DejaVuSans-2d" x="989.435547"/>
      <use xlink:href="#DejaVuSans-76" x="1022.894531"/>
      <use xlink:href="#DejaVuSans-69" x="1082.074219"/>
      <use xlink:href="#DejaVuSans-6e" x="1109.857422"/>
      <use xlink:href="#DejaVuSans-6b" x="1173.236328"/>
      <use xlink:href="#DejaVuSans-65" x="1227.521484"/>
      <use xlink:href="#DejaVuSans-6c" x="1289.044922"/>
     </g>
    </g>
   </g>
  </g>
 </g>
 <defs>
  <clipPath id="pa1b79bdb3d">
   <rect x="72.342187" y="26.877187" width="558" height="388.08"/>
  </clipPath>
 </defs>
</svg>
