<?xml version="1.0" encoding="utf-8" standalone="no"?>
<!DOCTYPE svg PUBLIC "-//W3C//DTD SVG 1.1//EN"
  "http://www.w3.org/Graphics/SVG/1.1/DTD/svg11.dtd">
<svg xmlns:xlink="http://www.w3.org/1999/xlink" width="637.542188pt" height="458.691562pt" viewBox="0 0 637.542188 458.691562" xmlns="http://www.w3.org/2000/svg" version="1.1">
 <metadata>
  <rdf:RDF xmlns:dc="http://purl.org/dc/elements/1.1/" xmlns:cc="http://creativecommons.org/ns#" xmlns:rdf="http://www.w3.org/1999/02/22-rdf-syntax-ns#">
   <cc:Work>
    <dc:type rdf:resource="http://purl.org/dc/dcmitype/StillImage"/>
    <dc:date>2023-03-30T16:04:52.118863</dc:date>
    <dc:format>image/svg+xml</dc:format>
    <dc:creator>
     <cc:Agent>
      <dc:title>Matplotlib v3.7.0, https://matplotlib.org/</dc:title>
     </cc:Agent>
    </dc:creator>
   </cc:Work>
  </rdf:RDF>
 </metadata>
 <defs>
  <style type="text/css">*{stroke-linejoin: round; stroke-linecap: butt}</style>
 </defs>
 <g id="figure_1">
  <g id="patch_1">
   <path d="M 0 458.691562 
L 637.542188 458.691562 
L 637.542188 0 
L 0 0 
L 0 458.691562 
z
" style="fill: none"/>
  </g>
  <g id="axes_1">
   <g id="patch_2">
    <path d="M 72.342187 414.957187 
L 630.342188 414.957187 
L 630.342188 26.877187 
L 72.342187 26.877187 
L 72.342187 414.957187 
z
" style="fill: none"/>
   </g>
   <g id="matplotlib.axis_1">
    <g id="xtick_1">
     <g id="line2d_1">
      <path d="M 180.914861 414.957187 
L 180.914861 26.877187 
" clip-path="url(#p059c0b1d8d)" style="fill: none; stroke: #808080; stroke-width: 0.8; stroke-linecap: square"/>
     </g>
     <g id="line2d_2">
      <defs>
       <path id="m443d8c2c27" d="M 0 0 
L 0 -5 
" style="stroke: #808080; stroke-width: 0.8"/>
      </defs>
      <g>
       <use xlink:href="#m443d8c2c27" x="180.914861" y="414.957187" style="fill: #808080; stroke: #808080; stroke-width: 0.8"/>
      </g>
     </g>
     <g id="text_1">
      <!-- 60 -->
      <g style="fill: #808080" transform="translate(171.371111 429.854844) scale(0.15 -0.15)">
       <defs>
        <path id="DejaVuSans-36" d="M 2113 2584 
Q 1688 2584 1439 2293 
Q 1191 2003 1191 1497 
Q 1191 994 1439 701 
Q 1688 409 2113 409 
Q 2538 409 2786 701 
Q 3034 994 3034 1497 
Q 3034 2003 2786 2293 
Q 2538 2584 2113 2584 
z
M 3366 4563 
L 3366 3988 
Q 3128 4100 2886 4159 
Q 2644 4219 2406 4219 
Q 1781 4219 1451 3797 
Q 1122 3375 1075 2522 
Q 1259 2794 1537 2939 
Q 1816 3084 2150 3084 
Q 2853 3084 3261 2657 
Q 3669 2231 3669 1497 
Q 3669 778 3244 343 
Q 2819 -91 2113 -91 
Q 1303 -91 875 529 
Q 447 1150 447 2328 
Q 447 3434 972 4092 
Q 1497 4750 2381 4750 
Q 2619 4750 2861 4703 
Q 3103 4656 3366 4563 
z
" transform="scale(0.015625)"/>
        <path id="DejaVuSans-30" d="M 2034 4250 
Q 1547 4250 1301 3770 
Q 1056 3291 1056 2328 
Q 1056 1369 1301 889 
Q 1547 409 2034 409 
Q 2525 409 2770 889 
Q 3016 1369 3016 2328 
Q 3016 3291 2770 3770 
Q 2525 4250 2034 4250 
z
M 2034 4750 
Q 2819 4750 3233 4129 
Q 3647 3509 3647 2328 
Q 3647 1150 3233 529 
Q 2819 -91 2034 -91 
Q 1250 -91 836 529 
Q 422 1150 422 2328 
Q 422 3509 836 4129 
Q 1250 4750 2034 4750 
z
" transform="scale(0.015625)"/>
       </defs>
       <use xlink:href="#DejaVuSans-36"/>
       <use xlink:href="#DejaVuSans-30" x="63.623047"/>
      </g>
     </g>
    </g>
    <g id="xtick_2">
     <g id="line2d_3">
      <path d="M 300.612584 414.957187 
L 300.612584 26.877187 
" clip-path="url(#p059c0b1d8d)" style="fill: none; stroke: #808080; stroke-width: 0.8; stroke-linecap: square"/>
     </g>
     <g id="line2d_4">
      <g>
       <use xlink:href="#m443d8c2c27" x="300.612584" y="414.957187" style="fill: #808080; stroke: #808080; stroke-width: 0.8"/>
      </g>
     </g>
     <g id="text_2">
      <!-- 70 -->
      <g style="fill: #808080" transform="translate(291.068834 429.854844) scale(0.15 -0.15)">
       <defs>
        <path id="DejaVuSans-37" d="M 525 4666 
L 3525 4666 
L 3525 4397 
L 1831 0 
L 1172 0 
L 2766 4134 
L 525 4134 
L 525 4666 
z
" transform="scale(0.015625)"/>
       </defs>
       <use xlink:href="#DejaVuSans-37"/>
       <use xlink:href="#DejaVuSans-30" x="63.623047"/>
      </g>
     </g>
    </g>
    <g id="xtick_3">
     <g id="line2d_5">
      <path d="M 420.310308 414.957187 
L 420.310308 26.877187 
" clip-path="url(#p059c0b1d8d)" style="fill: none; stroke: #808080; stroke-width: 0.8; stroke-linecap: square"/>
     </g>
     <g id="line2d_6">
      <g>
       <use xlink:href="#m443d8c2c27" x="420.310308" y="414.957187" style="fill: #808080; stroke: #808080; stroke-width: 0.8"/>
      </g>
     </g>
     <g id="text_3">
      <!-- 80 -->
      <g style="fill: #808080" transform="translate(410.766558 429.854844) scale(0.15 -0.15)">
       <defs>
        <path id="DejaVuSans-38" d="M 2034 2216 
Q 1584 2216 1326 1975 
Q 1069 1734 1069 1313 
Q 1069 891 1326 650 
Q 1584 409 2034 409 
Q 2484 409 2743 651 
Q 3003 894 3003 1313 
Q 3003 1734 2745 1975 
Q 2488 2216 2034 2216 
z
M 1403 2484 
Q 997 2584 770 2862 
Q 544 3141 544 3541 
Q 544 4100 942 4425 
Q 1341 4750 2034 4750 
Q 2731 4750 3128 4425 
Q 3525 4100 3525 3541 
Q 3525 3141 3298 2862 
Q 3072 2584 2669 2484 
Q 3125 2378 3379 2068 
Q 3634 1759 3634 1313 
Q 3634 634 3220 271 
Q 2806 -91 2034 -91 
Q 1263 -91 848 271 
Q 434 634 434 1313 
Q 434 1759 690 2068 
Q 947 2378 1403 2484 
z
M 1172 3481 
Q 1172 3119 1398 2916 
Q 1625 2713 2034 2713 
Q 2441 2713 2670 2916 
Q 2900 3119 2900 3481 
Q 2900 3844 2670 4047 
Q 2441 4250 2034 4250 
Q 1625 4250 1398 4047 
Q 1172 3844 1172 3481 
z
" transform="scale(0.015625)"/>
       </defs>
       <use xlink:href="#DejaVuSans-38"/>
       <use xlink:href="#DejaVuSans-30" x="63.623047"/>
      </g>
     </g>
    </g>
    <g id="xtick_4">
     <g id="line2d_7">
      <path d="M 540.008031 414.957187 
L 540.008031 26.877187 
" clip-path="url(#p059c0b1d8d)" style="fill: none; stroke: #808080; stroke-width: 0.8; stroke-linecap: square"/>
     </g>
     <g id="line2d_8">
      <g>
       <use xlink:href="#m443d8c2c27" x="540.008031" y="414.957187" style="fill: #808080; stroke: #808080; stroke-width: 0.8"/>
      </g>
     </g>
     <g id="text_4">
      <!-- 90 -->
      <g style="fill: #808080" transform="translate(530.464281 429.854844) scale(0.15 -0.15)">
       <defs>
        <path id="DejaVuSans-39" d="M 703 97 
L 703 672 
Q 941 559 1184 500 
Q 1428 441 1663 441 
Q 2288 441 2617 861 
Q 2947 1281 2994 2138 
Q 2813 1869 2534 1725 
Q 2256 1581 1919 1581 
Q 1219 1581 811 2004 
Q 403 2428 403 3163 
Q 403 3881 828 4315 
Q 1253 4750 1959 4750 
Q 2769 4750 3195 4129 
Q 3622 3509 3622 2328 
Q 3622 1225 3098 567 
Q 2575 -91 1691 -91 
Q 1453 -91 1209 -44 
Q 966 3 703 97 
z
M 1959 2075 
Q 2384 2075 2632 2365 
Q 2881 2656 2881 3163 
Q 2881 3666 2632 3958 
Q 2384 4250 1959 4250 
Q 1534 4250 1286 3958 
Q 1038 3666 1038 3163 
Q 1038 2656 1286 2365 
Q 1534 2075 1959 2075 
z
" transform="scale(0.015625)"/>
       </defs>
       <use xlink:href="#DejaVuSans-39"/>
       <use xlink:href="#DejaVuSans-30" x="63.623047"/>
      </g>
     </g>
    </g>
    <g id="text_5">
     <!-- time [s] -->
     <g style="fill: #808080" transform="translate(322.255078 448.372031) scale(0.15 -0.15)">
      <defs>
       <path id="DejaVuSans-74" d="M 1172 4494 
L 1172 3500 
L 2356 3500 
L 2356 3053 
L 1172 3053 
L 1172 1153 
Q 1172 725 1289 603 
Q 1406 481 1766 481 
L 2356 481 
L 2356 0 
L 1766 0 
Q 1100 0 847 248 
Q 594 497 594 1153 
L 594 3053 
L 172 3053 
L 172 3500 
L 594 3500 
L 594 4494 
L 1172 4494 
z
" transform="scale(0.015625)"/>
       <path id="DejaVuSans-69" d="M 603 3500 
L 1178 3500 
L 1178 0 
L 603 0 
L 603 3500 
z
M 603 4863 
L 1178 4863 
L 1178 4134 
L 603 4134 
L 603 4863 
z
" transform="scale(0.015625)"/>
       <path id="DejaVuSans-6d" d="M 3328 2828 
Q 3544 3216 3844 3400 
Q 4144 3584 4550 3584 
Q 5097 3584 5394 3201 
Q 5691 2819 5691 2113 
L 5691 0 
L 5113 0 
L 5113 2094 
Q 5113 2597 4934 2840 
Q 4756 3084 4391 3084 
Q 3944 3084 3684 2787 
Q 3425 2491 3425 1978 
L 3425 0 
L 2847 0 
L 2847 2094 
Q 2847 2600 2669 2842 
Q 2491 3084 2119 3084 
Q 1678 3084 1418 2786 
Q 1159 2488 1159 1978 
L 1159 0 
L 581 0 
L 581 3500 
L 1159 3500 
L 1159 2956 
Q 1356 3278 1631 3431 
Q 1906 3584 2284 3584 
Q 2666 3584 2933 3390 
Q 3200 3197 3328 2828 
z
" transform="scale(0.015625)"/>
       <path id="DejaVuSans-65" d="M 3597 1894 
L 3597 1613 
L 953 1613 
Q 991 1019 1311 708 
Q 1631 397 2203 397 
Q 2534 397 2845 478 
Q 3156 559 3463 722 
L 3463 178 
Q 3153 47 2828 -22 
Q 2503 -91 2169 -91 
Q 1331 -91 842 396 
Q 353 884 353 1716 
Q 353 2575 817 3079 
Q 1281 3584 2069 3584 
Q 2775 3584 3186 3129 
Q 3597 2675 3597 1894 
z
M 3022 2063 
Q 3016 2534 2758 2815 
Q 2500 3097 2075 3097 
Q 1594 3097 1305 2825 
Q 1016 2553 972 2059 
L 3022 2063 
z
" transform="scale(0.015625)"/>
       <path id="DejaVuSans-20" transform="scale(0.015625)"/>
       <path id="DejaVuSans-5b" d="M 550 4863 
L 1875 4863 
L 1875 4416 
L 1125 4416 
L 1125 -397 
L 1875 -397 
L 1875 -844 
L 550 -844 
L 550 4863 
z
" transform="scale(0.015625)"/>
       <path id="DejaVuSans-73" d="M 2834 3397 
L 2834 2853 
Q 2591 2978 2328 3040 
Q 2066 3103 1784 3103 
Q 1356 3103 1142 2972 
Q 928 2841 928 2578 
Q 928 2378 1081 2264 
Q 1234 2150 1697 2047 
L 1894 2003 
Q 2506 1872 2764 1633 
Q 3022 1394 3022 966 
Q 3022 478 2636 193 
Q 2250 -91 1575 -91 
Q 1294 -91 989 -36 
Q 684 19 347 128 
L 347 722 
Q 666 556 975 473 
Q 1284 391 1588 391 
Q 1994 391 2212 530 
Q 2431 669 2431 922 
Q 2431 1156 2273 1281 
Q 2116 1406 1581 1522 
L 1381 1569 
Q 847 1681 609 1914 
Q 372 2147 372 2553 
Q 372 3047 722 3315 
Q 1072 3584 1716 3584 
Q 2034 3584 2315 3537 
Q 2597 3491 2834 3397 
z
" transform="scale(0.015625)"/>
       <path id="DejaVuSans-5d" d="M 1947 4863 
L 1947 -844 
L 622 -844 
L 622 -397 
L 1369 -397 
L 1369 4416 
L 622 4416 
L 622 4863 
L 1947 4863 
z
" transform="scale(0.015625)"/>
      </defs>
      <use xlink:href="#DejaVuSans-74"/>
      <use xlink:href="#DejaVuSans-69" x="39.208984"/>
      <use xlink:href="#DejaVuSans-6d" x="66.992188"/>
      <use xlink:href="#DejaVuSans-65" x="164.404297"/>
      <use xlink:href="#DejaVuSans-20" x="225.927734"/>
      <use xlink:href="#DejaVuSans-5b" x="257.714844"/>
      <use xlink:href="#DejaVuSans-73" x="296.728516"/>
      <use xlink:href="#DejaVuSans-5d" x="348.828125"/>
     </g>
    </g>
   </g>
   <g id="matplotlib.axis_2">
    <g id="ytick_1">
     <g id="line2d_9">
      <path d="M 72.342187 363.77748 
L 630.342188 363.77748 
" clip-path="url(#p059c0b1d8d)" style="fill: none; stroke: #808080; stroke-width: 0.8; stroke-linecap: square"/>
     </g>
     <g id="line2d_10">
      <defs>
       <path id="m48dcfe4616" d="M 0 0 
L 5 0 
" style="stroke: #808080; stroke-width: 0.8"/>
      </defs>
      <g>
       <use xlink:href="#m48dcfe4616" x="72.342187" y="363.77748" style="fill: #808080; stroke: #808080; stroke-width: 0.8"/>
      </g>
     </g>
     <g id="text_6">
      <!-- 282.0 -->
      <g style="fill: #808080" transform="translate(25.9 369.476308) scale(0.15 -0.15)">
       <defs>
        <path id="DejaVuSans-32" d="M 1228 531 
L 3431 531 
L 3431 0 
L 469 0 
L 469 531 
Q 828 903 1448 1529 
Q 2069 2156 2228 2338 
Q 2531 2678 2651 2914 
Q 2772 3150 2772 3378 
Q 2772 3750 2511 3984 
Q 2250 4219 1831 4219 
Q 1534 4219 1204 4116 
Q 875 4013 500 3803 
L 500 4441 
Q 881 4594 1212 4672 
Q 1544 4750 1819 4750 
Q 2544 4750 2975 4387 
Q 3406 4025 3406 3419 
Q 3406 3131 3298 2873 
Q 3191 2616 2906 2266 
Q 2828 2175 2409 1742 
Q 1991 1309 1228 531 
z
" transform="scale(0.015625)"/>
        <path id="DejaVuSans-2e" d="M 684 794 
L 1344 794 
L 1344 0 
L 684 0 
L 684 794 
z
" transform="scale(0.015625)"/>
       </defs>
       <use xlink:href="#DejaVuSans-32"/>
       <use xlink:href="#DejaVuSans-38" x="63.623047"/>
       <use xlink:href="#DejaVuSans-32" x="127.246094"/>
       <use xlink:href="#DejaVuSans-2e" x="190.869141"/>
       <use xlink:href="#DejaVuSans-30" x="222.65625"/>
      </g>
     </g>
    </g>
    <g id="ytick_2">
     <g id="line2d_11">
      <path d="M 72.342187 308.277472 
L 630.342188 308.277472 
" clip-path="url(#p059c0b1d8d)" style="fill: none; stroke: #808080; stroke-width: 0.8; stroke-linecap: square"/>
     </g>
     <g id="line2d_12">
      <g>
       <use xlink:href="#m48dcfe4616" x="72.342187" y="308.277472" style="fill: #808080; stroke: #808080; stroke-width: 0.8"/>
      </g>
     </g>
     <g id="text_7">
      <!-- 282.5 -->
      <g style="fill: #808080" transform="translate(25.9 313.9763) scale(0.15 -0.15)">
       <defs>
        <path id="DejaVuSans-35" d="M 691 4666 
L 3169 4666 
L 3169 4134 
L 1269 4134 
L 1269 2991 
Q 1406 3038 1543 3061 
Q 1681 3084 1819 3084 
Q 2600 3084 3056 2656 
Q 3513 2228 3513 1497 
Q 3513 744 3044 326 
Q 2575 -91 1722 -91 
Q 1428 -91 1123 -41 
Q 819 9 494 109 
L 494 744 
Q 775 591 1075 516 
Q 1375 441 1709 441 
Q 2250 441 2565 725 
Q 2881 1009 2881 1497 
Q 2881 1984 2565 2268 
Q 2250 2553 1709 2553 
Q 1456 2553 1204 2497 
Q 953 2441 691 2322 
L 691 4666 
z
" transform="scale(0.015625)"/>
       </defs>
       <use xlink:href="#DejaVuSans-32"/>
       <use xlink:href="#DejaVuSans-38" x="63.623047"/>
       <use xlink:href="#DejaVuSans-32" x="127.246094"/>
       <use xlink:href="#DejaVuSans-2e" x="190.869141"/>
       <use xlink:href="#DejaVuSans-35" x="222.65625"/>
      </g>
     </g>
    </g>
    <g id="ytick_3">
     <g id="line2d_13">
      <path d="M 72.342187 252.777464 
L 630.342188 252.777464 
" clip-path="url(#p059c0b1d8d)" style="fill: none; stroke: #808080; stroke-width: 0.8; stroke-linecap: square"/>
     </g>
     <g id="line2d_14">
      <g>
       <use xlink:href="#m48dcfe4616" x="72.342187" y="252.777464" style="fill: #808080; stroke: #808080; stroke-width: 0.8"/>
      </g>
     </g>
     <g id="text_8">
      <!-- 283.0 -->
      <g style="fill: #808080" transform="translate(25.9 258.476292) scale(0.15 -0.15)">
       <defs>
        <path id="DejaVuSans-33" d="M 2597 2516 
Q 3050 2419 3304 2112 
Q 3559 1806 3559 1356 
Q 3559 666 3084 287 
Q 2609 -91 1734 -91 
Q 1441 -91 1130 -33 
Q 819 25 488 141 
L 488 750 
Q 750 597 1062 519 
Q 1375 441 1716 441 
Q 2309 441 2620 675 
Q 2931 909 2931 1356 
Q 2931 1769 2642 2001 
Q 2353 2234 1838 2234 
L 1294 2234 
L 1294 2753 
L 1863 2753 
Q 2328 2753 2575 2939 
Q 2822 3125 2822 3475 
Q 2822 3834 2567 4026 
Q 2313 4219 1838 4219 
Q 1578 4219 1281 4162 
Q 984 4106 628 3988 
L 628 4550 
Q 988 4650 1302 4700 
Q 1616 4750 1894 4750 
Q 2613 4750 3031 4423 
Q 3450 4097 3450 3541 
Q 3450 3153 3228 2886 
Q 3006 2619 2597 2516 
z
" transform="scale(0.015625)"/>
       </defs>
       <use xlink:href="#DejaVuSans-32"/>
       <use xlink:href="#DejaVuSans-38" x="63.623047"/>
       <use xlink:href="#DejaVuSans-33" x="127.246094"/>
       <use xlink:href="#DejaVuSans-2e" x="190.869141"/>
       <use xlink:href="#DejaVuSans-30" x="222.65625"/>
      </g>
     </g>
    </g>
    <g id="ytick_4">
     <g id="line2d_15">
      <path d="M 72.342187 197.277457 
L 630.342188 197.277457 
" clip-path="url(#p059c0b1d8d)" style="fill: none; stroke: #808080; stroke-width: 0.8; stroke-linecap: square"/>
     </g>
     <g id="line2d_16">
      <g>
       <use xlink:href="#m48dcfe4616" x="72.342187" y="197.277457" style="fill: #808080; stroke: #808080; stroke-width: 0.8"/>
      </g>
     </g>
     <g id="text_9">
      <!-- 283.5 -->
      <g style="fill: #808080" transform="translate(25.9 202.976285) scale(0.15 -0.15)">
       <use xlink:href="#DejaVuSans-32"/>
       <use xlink:href="#DejaVuSans-38" x="63.623047"/>
       <use xlink:href="#DejaVuSans-33" x="127.246094"/>
       <use xlink:href="#DejaVuSans-2e" x="190.869141"/>
       <use xlink:href="#DejaVuSans-35" x="222.65625"/>
      </g>
     </g>
    </g>
    <g id="ytick_5">
     <g id="line2d_17">
      <path d="M 72.342187 141.777449 
L 630.342188 141.777449 
" clip-path="url(#p059c0b1d8d)" style="fill: none; stroke: #808080; stroke-width: 0.8; stroke-linecap: square"/>
     </g>
     <g id="line2d_18">
      <g>
       <use xlink:href="#m48dcfe4616" x="72.342187" y="141.777449" style="fill: #808080; stroke: #808080; stroke-width: 0.8"/>
      </g>
     </g>
     <g id="text_10">
      <!-- 284.0 -->
      <g style="fill: #808080" transform="translate(25.9 147.476277) scale(0.15 -0.15)">
       <defs>
        <path id="DejaVuSans-34" d="M 2419 4116 
L 825 1625 
L 2419 1625 
L 2419 4116 
z
M 2253 4666 
L 3047 4666 
L 3047 1625 
L 3713 1625 
L 3713 1100 
L 3047 1100 
L 3047 0 
L 2419 0 
L 2419 1100 
L 313 1100 
L 313 1709 
L 2253 4666 
z
" transform="scale(0.015625)"/>
       </defs>
       <use xlink:href="#DejaVuSans-32"/>
       <use xlink:href="#DejaVuSans-38" x="63.623047"/>
       <use xlink:href="#DejaVuSans-34" x="127.246094"/>
       <use xlink:href="#DejaVuSans-2e" x="190.869141"/>
       <use xlink:href="#DejaVuSans-30" x="222.65625"/>
      </g>
     </g>
    </g>
    <g id="ytick_6">
     <g id="line2d_19">
      <path d="M 72.342187 86.277441 
L 630.342188 86.277441 
" clip-path="url(#p059c0b1d8d)" style="fill: none; stroke: #808080; stroke-width: 0.8; stroke-linecap: square"/>
     </g>
     <g id="line2d_20">
      <g>
       <use xlink:href="#m48dcfe4616" x="72.342187" y="86.277441" style="fill: #808080; stroke: #808080; stroke-width: 0.8"/>
      </g>
     </g>
     <g id="text_11">
      <!-- 284.5 -->
      <g style="fill: #808080" transform="translate(25.9 91.976269) scale(0.15 -0.15)">
       <use xlink:href="#DejaVuSans-32"/>
       <use xlink:href="#DejaVuSans-38" x="63.623047"/>
       <use xlink:href="#DejaVuSans-34" x="127.246094"/>
       <use xlink:href="#DejaVuSans-2e" x="190.869141"/>
       <use xlink:href="#DejaVuSans-35" x="222.65625"/>
      </g>
     </g>
    </g>
    <g id="ytick_7">
     <g id="line2d_21">
      <path d="M 72.342187 30.777433 
L 630.342188 30.777433 
" clip-path="url(#p059c0b1d8d)" style="fill: none; stroke: #808080; stroke-width: 0.8; stroke-linecap: square"/>
     </g>
     <g id="line2d_22">
      <g>
       <use xlink:href="#m48dcfe4616" x="72.342187" y="30.777433" style="fill: #808080; stroke: #808080; stroke-width: 0.8"/>
      </g>
     </g>
     <g id="text_12">
      <!-- 285.0 -->
      <g style="fill: #808080" transform="translate(25.9 36.476261) scale(0.15 -0.15)">
       <use xlink:href="#DejaVuSans-32"/>
       <use xlink:href="#DejaVuSans-38" x="63.623047"/>
       <use xlink:href="#DejaVuSans-35" x="127.246094"/>
       <use xlink:href="#DejaVuSans-2e" x="190.869141"/>
       <use xlink:href="#DejaVuSans-30" x="222.65625"/>
      </g>
     </g>
    </g>
    <g id="text_13">
     <!-- $\theta$ [deg] -->
     <g style="fill: #808080" transform="translate(18.75 247.917187) rotate(-90) scale(0.15 -0.15)">
      <defs>
       <path id="DejaVuSans-Oblique-3b8" d="M 2913 2219 
L 925 2219 
Q 791 1284 928 888 
Q 1100 400 1566 400 
Q 2034 400 2391 891 
Q 2703 1322 2913 2219 
z
M 3009 2750 
Q 3094 3638 2984 3950 
Q 2813 4444 2353 4444 
Q 1875 4444 1525 3956 
Q 1250 3563 1034 2750 
L 3009 2750 
z
M 2444 4913 
Q 3194 4913 3494 4250 
Q 3794 3591 3566 2422 
Q 3341 1256 2781 594 
Q 2225 -72 1475 -72 
Q 722 -72 425 594 
Q 128 1256 353 2422 
Q 581 3591 1134 4250 
Q 1691 4913 2444 4913 
z
" transform="scale(0.015625)"/>
       <path id="DejaVuSans-64" d="M 2906 2969 
L 2906 4863 
L 3481 4863 
L 3481 0 
L 2906 0 
L 2906 525 
Q 2725 213 2448 61 
Q 2172 -91 1784 -91 
Q 1150 -91 751 415 
Q 353 922 353 1747 
Q 353 2572 751 3078 
Q 1150 3584 1784 3584 
Q 2172 3584 2448 3432 
Q 2725 3281 2906 2969 
z
M 947 1747 
Q 947 1113 1208 752 
Q 1469 391 1925 391 
Q 2381 391 2643 752 
Q 2906 1113 2906 1747 
Q 2906 2381 2643 2742 
Q 2381 3103 1925 3103 
Q 1469 3103 1208 2742 
Q 947 2381 947 1747 
z
" transform="scale(0.015625)"/>
       <path id="DejaVuSans-67" d="M 2906 1791 
Q 2906 2416 2648 2759 
Q 2391 3103 1925 3103 
Q 1463 3103 1205 2759 
Q 947 2416 947 1791 
Q 947 1169 1205 825 
Q 1463 481 1925 481 
Q 2391 481 2648 825 
Q 2906 1169 2906 1791 
z
M 3481 434 
Q 3481 -459 3084 -895 
Q 2688 -1331 1869 -1331 
Q 1566 -1331 1297 -1286 
Q 1028 -1241 775 -1147 
L 775 -588 
Q 1028 -725 1275 -790 
Q 1522 -856 1778 -856 
Q 2344 -856 2625 -561 
Q 2906 -266 2906 331 
L 2906 616 
Q 2728 306 2450 153 
Q 2172 0 1784 0 
Q 1141 0 747 490 
Q 353 981 353 1791 
Q 353 2603 747 3093 
Q 1141 3584 1784 3584 
Q 2172 3584 2450 3431 
Q 2728 3278 2906 2969 
L 2906 3500 
L 3481 3500 
L 3481 434 
z
" transform="scale(0.015625)"/>
      </defs>
      <use xlink:href="#DejaVuSans-Oblique-3b8" transform="translate(0 0.234375)"/>
      <use xlink:href="#DejaVuSans-20" transform="translate(61.181641 0.234375)"/>
      <use xlink:href="#DejaVuSans-5b" transform="translate(92.96875 0.234375)"/>
      <use xlink:href="#DejaVuSans-64" transform="translate(131.982422 0.234375)"/>
      <use xlink:href="#DejaVuSans-65" transform="translate(195.458984 0.234375)"/>
      <use xlink:href="#DejaVuSans-67" transform="translate(256.982422 0.234375)"/>
      <use xlink:href="#DejaVuSans-5d" transform="translate(320.458984 0.234375)"/>
     </g>
    </g>
   </g>
   <g id="line2d_23">
    <path d="M 97.705824 214.465668 
L 97.81901 261.376802 
L 97.939414 261.376802 
L 98.05892 214.465668 
L 101.049412 214.465668 
L 101.17051 204.07906 
L 101.291214 204.07906 
L 101.411067 251.295859 
L 103.206114 251.295859 
L 103.325919 204.07906 
L 103.445569 204.07906 
L 103.564549 214.465668 
L 107.994023 214.465668 
L 108.111889 204.07906 
L 110.152245 204.07906 
L 110.266903 251.295859 
L 110.38678 251.295859 
L 110.51032 240.282512 
L 110.865799 240.282512 
L 110.986119 192.732344 
L 111.106582 192.732344 
L 111.225706 204.07906 
L 111.344374 204.07906 
L 111.46382 251.295859 
L 112.085028 251.295859 
L 112.182737 214.465668 
L 114.459783 214.465668 
L 114.57632 171.051692 
L 114.695671 171.051692 
L 114.814722 204.07906 
L 115.17767 204.07906 
L 115.294507 214.465668 
L 116.372109 214.465668 
L 116.492824 204.07906 
L 117.569386 204.07906 
L 117.688736 160.384239 
L 117.809858 160.384239 
L 117.934763 204.07906 
L 118.28756 204.07906 
L 118.407366 192.732344 
L 119.24817 192.732344 
L 119.363403 229.90714 
L 119.963915 229.90714 
L 120.082212 240.282512 
L 120.920994 240.282512 
L 121.04129 251.295859 
L 121.398612 251.295859 
L 121.518226 204.07906 
L 121.641598 204.07906 
L 121.759045 251.295859 
L 121.877367 251.295859 
L 121.999207 204.07906 
L 123.076235 204.07906 
L 123.194724 192.732344 
L 123.556774 192.732344 
L 123.673611 204.07906 
L 125.473529 204.07906 
L 125.588583 214.465668 
L 126.18822 214.465668 
L 126.307284 171.051692 
L 126.427867 171.051692 
L 126.545398 214.465668 
L 127.864671 214.465668 
L 127.982501 204.07906 
L 128.340254 204.07906 
L 128.462513 214.465668 
L 129.539625 214.465668 
L 129.660268 224.711205 
L 129.782827 224.711205 
L 129.897569 181.574733 
L 130.257596 181.574733 
L 130.37703 192.748979 
L 132.890814 192.748979 
L 133.010488 224.711205 
L 134.326528 224.711205 
L 134.447315 271.320357 
L 134.567588 271.320357 
L 134.68531 224.711205 
L 134.80599 224.711205 
L 135.044236 271.320357 
L 135.284529 271.320357 
L 135.405496 314.740111 
L 135.763787 314.740111 
L 135.881761 305.079816 
L 136.722326 305.079816 
L 136.842515 348.916818 
L 137.4422 348.916818 
L 137.563777 305.079816 
L 138.157993 305.079816 
L 138.277403 348.916818 
L 138.874635 348.916818 
L 138.993722 358.291168 
L 140.311786 358.291168 
L 140.433099 314.740111 
L 140.796669 314.740111 
L 140.909305 358.291168 
L 141.029733 358.291168 
L 141.155631 314.740111 
L 144.381029 314.740111 
L 144.502726 305.079816 
L 144.620329 305.079816 
L 144.74029 348.916818 
L 146.058749 348.916818 
L 146.176603 305.079816 
L 146.297665 305.079816 
L 146.416238 348.916818 
L 147.254385 348.916818 
L 147.373915 305.079816 
L 147.494008 305.079816 
L 147.613993 314.740111 
L 147.732566 314.740111 
L 147.852311 305.079816 
L 148.691931 305.079816 
L 148.809546 314.740111 
L 148.932978 314.740111 
L 149.049121 305.079816 
L 149.408693 305.079816 
L 149.527996 314.740111 
L 149.646568 314.740111 
L 149.769749 305.079816 
L 150.128375 305.079816 
L 150.245966 314.740111 
L 152.526136 314.740111 
L 152.639358 324.996815 
L 152.761007 324.996815 
L 152.879257 314.740111 
L 153.000738 314.740111 
L 153.118173 324.996815 
L 153.237404 324.996815 
L 153.359615 314.740111 
L 153.477422 314.740111 
L 153.598412 324.996815 
L 154.19726 324.996815 
L 154.317664 314.740111 
L 154.917314 314.740111 
L 155.034582 324.996815 
L 156.113633 324.996815 
L 156.231655 291.545157 
L 157.787474 291.545157 
L 157.906968 334.387519 
L 158.266205 334.387519 
L 158.386345 291.545157 
L 158.746193 291.545157 
L 158.86443 281.878267 
L 159.703451 281.878267 
L 159.822203 324.996815 
L 161.619489 324.996815 
L 161.738217 314.740111 
L 162.097537 314.740111 
L 162.215595 358.291168 
L 162.816789 358.291168 
L 162.933997 348.916818 
L 163.06655 348.916818 
L 163.180275 358.291168 
L 163.541475 358.291168 
L 163.654015 348.916818 
L 163.771378 348.916818 
L 163.890633 358.291168 
L 164.251797 358.291168 
L 164.371734 314.740111 
L 164.96802 314.740111 
L 165.088807 324.996815 
L 165.926763 324.996815 
L 166.050698 281.878267 
L 168.082292 281.878267 
L 168.200517 291.545157 
L 170.953062 291.545157 
L 171.073646 281.878267 
L 171.193583 281.878267 
L 171.312766 324.996815 
L 172.873038 324.996815 
L 172.988295 281.878267 
L 173.58652 281.878267 
L 173.708181 291.545157 
L 174.065861 291.545157 
L 174.185786 245.551693 
L 174.306717 245.551693 
L 174.425146 235.590277 
L 174.785699 235.590277 
L 174.903434 291.545157 
L 175.023192 291.545157 
L 175.143476 245.551693 
L 175.263162 245.551693 
L 175.382177 291.545157 
L 175.741127 291.545157 
L 175.86244 281.878267 
L 175.981228 281.878267 
L 176.10107 235.590277 
L 176.221079 235.590277 
L 176.339879 281.878267 
L 178.137798 281.878267 
L 178.255234 235.590277 
L 179.094566 235.590277 
L 179.212337 224.711205 
L 179.572711 224.711205 
L 179.691211 271.320357 
L 180.543555 271.320357 
L 180.649188 314.740111 
L 181.727796 314.740111 
L 181.848057 271.320357 
L 182.447323 271.320357 
L 182.564136 281.878267 
L 183.404761 281.878267 
L 183.522508 271.320357 
L 184.121368 271.320357 
L 184.240252 235.590277 
L 184.372003 235.590277 
L 184.483537 271.320357 
L 187.471324 271.320357 
L 187.595403 224.711205 
L 188.669809 224.711205 
L 188.789842 261.376802 
L 189.86626 261.376802 
L 189.98743 214.465668 
L 190.350844 214.465668 
L 190.465215 224.711205 
L 190.58611 224.711205 
L 190.703809 181.574733 
L 192.738311 181.574733 
L 192.859469 192.748979 
L 194.653822 192.748979 
L 194.775076 235.590277 
L 194.913626 235.590277 
L 195.012652 224.711205 
L 195.85129 224.711205 
L 195.969767 181.574733 
L 196.570087 181.574733 
L 196.688827 171.051692 
L 197.04725 171.051692 
L 197.169653 214.465668 
L 197.527872 214.465668 
L 197.646301 204.07906 
L 199.114118 204.07906 
L 199.323326 160.384239 
L 199.685292 160.384239 
L 199.803062 127.782118 
L 201.118516 127.782118 
L 201.358845 116.83675 
L 202.076014 116.83675 
L 202.195042 70.108165 
L 202.55763 70.108165 
L 202.678429 116.83675 
L 202.792908 116.83675 
L 202.91263 127.782118 
L 203.033488 127.782118 
L 203.153689 116.83675 
L 203.272824 116.83675 
L 203.391887 81.349486 
L 204.470352 81.349486 
L 204.589942 70.108165 
L 204.711962 70.108165 
L 204.828344 116.83675 
L 206.383816 116.83675 
L 206.505608 148.731271 
L 207.82366 148.731271 
L 207.943369 160.384239 
L 208.300655 160.384239 
L 208.419323 116.83675 
L 209.978386 116.83675 
L 210.096217 127.782118 
L 213.567235 127.782118 
L 213.686143 138.579806 
L 214.044362 138.579806 
L 214.163773 127.782118 
L 215.004135 127.782118 
L 215.122348 171.051692 
L 216.439394 171.051692 
L 216.566034 127.782118 
L 216.680549 127.782118 
L 216.798559 171.051692 
L 216.918855 171.051692 
L 217.038529 127.782118 
L 217.421897 127.782118 
L 217.635282 138.579806 
L 217.876557 138.579806 
L 217.997643 92.439696 
L 220.987153 92.439696 
L 221.110514 49.748934 
L 222.423071 49.748934 
L 222.545773 92.439696 
L 222.664023 92.439696 
L 222.783852 81.349486 
L 225.536098 81.349486 
L 225.655676 92.439696 
L 226.975068 92.439696 
L 227.09212 49.748934 
L 227.690322 49.748934 
L 227.809744 92.439696 
L 228.170046 92.439696 
L 228.289133 104.217365 
L 229.129352 104.217365 
L 229.248882 61.812394 
L 232.001223 61.812394 
L 232.119485 49.748934 
L 232.47926 49.748934 
L 232.600215 92.439696 
L 232.957297 92.439696 
L 233.082369 81.349486 
L 233.917452 81.349486 
L 234.039173 92.439696 
L 236.547534 92.439696 
L 236.666945 81.349486 
L 236.787576 81.349486 
L 236.908602 92.439696 
L 237.028647 92.439696 
L 237.146322 81.349486 
L 238.943607 81.349486 
L 239.063796 127.782118 
L 240.382554 127.782118 
L 240.497894 171.051692 
L 241.097688 171.051692 
L 241.222197 160.384239 
L 242.055748 160.384239 
L 242.173962 116.83675 
L 242.534419 116.83675 
L 242.652525 127.782118 
L 243.492193 127.782118 
L 243.611507 138.579806 
L 247.087182 138.579806 
L 247.200919 92.439696 
L 248.038671 92.439696 
L 248.158357 138.579806 
L 248.280652 138.579806 
L 248.399069 92.439696 
L 248.759994 92.439696 
L 248.879656 138.579806 
L 250.193554 138.579806 
L 250.31379 127.782118 
L 250.913452 127.782118 
L 251.031845 138.579806 
L 251.631614 138.579806 
L 251.752963 150.046232 
L 252.108454 150.046232 
L 252.228546 104.217365 
L 253.306077 104.217365 
L 253.425955 92.439696 
L 253.547579 92.439696 
L 253.66608 104.217365 
L 253.786652 104.217365 
L 253.908097 138.579806 
L 254.024407 138.579806 
L 254.143255 92.439696 
L 254.504216 92.439696 
L 254.624177 104.217365 
L 255.220642 104.217365 
L 255.339682 92.439696 
L 255.461785 92.439696 
L 255.581567 104.217365 
L 255.701516 104.217365 
L 255.82174 92.439696 
L 256.177721 92.439696 
L 256.298078 138.579806 
L 257.854998 138.579806 
L 257.973487 181.574733 
L 258.335716 181.574733 
L 258.453738 171.051692 
L 259.051101 171.051692 
L 259.17099 214.465668 
L 259.76918 214.465668 
L 259.890039 224.711205 
L 260.968515 224.711205 
L 261.086346 235.590277 
L 263.599543 235.590277 
L 263.719492 192.748979 
L 264.797286 192.748979 
L 264.915643 235.590277 
L 265.036059 235.590277 
L 265.156595 192.748979 
L 266.712294 192.748979 
L 266.835343 224.711205 
L 268.867452 224.711205 
L 268.986563 192.748979 
L 270.063172 192.748979 
L 270.18275 202.981128 
L 270.795507 202.981128 
L 270.901427 192.748979 
L 271.742364 192.748979 
L 271.859189 202.981128 
L 272.937174 202.981128 
L 273.055531 245.551693 
L 273.176761 245.551693 
L 273.298362 202.981128 
L 273.416444 202.981128 
L 273.535112 213.07752 
L 275.330183 213.07752 
L 275.450408 255.380528 
L 275.572643 255.380528 
L 275.690761 245.551693 
L 276.766687 245.551693 
L 276.88763 291.545157 
L 277.247789 291.545157 
L 277.364889 245.551693 
L 277.484275 245.551693 
L 277.607121 291.545157 
L 277.96552 291.545157 
L 278.087181 301.082963 
L 281.554453 301.082963 
L 281.674378 291.545157 
L 281.796194 291.545157 
L 281.913259 343.652456 
L 282.272484 343.652456 
L 282.393079 334.387519 
L 284.67107 334.387519 
L 284.786399 324.996815 
L 286.820794 324.996815 
L 286.940252 291.545157 
L 288.257489 291.545157 
L 288.379366 281.878267 
L 288.501685 281.878267 
L 288.616511 291.545157 
L 288.975077 291.545157 
L 289.098354 281.878267 
L 289.455233 281.878267 
L 289.575661 291.545157 
L 289.694257 291.545157 
L 289.813332 245.551693 
L 289.934826 245.551693 
L 290.177249 281.878267 
L 291.371318 281.878267 
L 291.489208 271.320357 
L 291.60966 271.320357 
L 291.731512 281.878267 
L 292.087757 281.878267 
L 292.208328 235.590277 
L 292.809426 235.590277 
L 292.925701 224.711205 
L 293.284614 224.711205 
L 293.404515 271.320357 
L 294.00292 271.320357 
L 294.122498 261.376802 
L 294.962262 261.376802 
L 295.081002 271.320357 
L 296.160675 271.320357 
L 296.277692 235.590277 
L 298.792062 235.590277 
L 298.912406 281.878267 
L 299.270099 281.878267 
L 299.390754 291.545157 
L 299.987112 291.545157 
L 300.112208 281.878267 
L 300.705634 281.878267 
L 300.825427 291.545157 
L 301.662868 291.545157 
L 301.784062 281.878267 
L 302.862096 281.878267 
L 302.980238 314.740111 
L 303.57796 314.740111 
L 303.698328 281.878267 
L 305.014381 281.878267 
L 305.137574 291.545157 
L 305.736565 291.545157 
L 305.854934 281.878267 
L 307.170436 281.878267 
L 307.289224 235.590277 
L 307.411124 235.590277 
L 307.528727 281.878267 
L 308.845414 281.878267 
L 308.965555 235.590277 
L 310.760649 235.590277 
L 310.882095 281.878267 
L 311.24254 281.878267 
L 311.359485 271.320357 
L 312.442606 271.320357 
L 312.556223 235.590277 
L 313.638195 235.590277 
L 313.753296 202.981128 
L 314.350899 202.981128 
L 314.471351 245.551693 
L 314.59112 245.551693 
L 314.711021 202.981128 
L 314.831856 202.981128 
L 314.950225 245.551693 
L 315.313999 245.551693 
L 315.430321 202.981128 
L 315.788217 202.981128 
L 315.907604 245.551693 
L 317.224506 245.551693 
L 317.344467 202.981128 
L 317.46371 202.981128 
L 317.583288 245.551693 
L 317.703716 245.551693 
L 317.824922 202.981128 
L 319.379592 202.981128 
L 319.498667 192.748979 
L 319.619107 192.748979 
L 319.73993 235.590277 
L 320.097467 235.590277 
L 320.218697 224.711205 
L 320.815162 224.711205 
L 320.934465 235.590277 
L 321.055396 235.590277 
L 321.17416 192.748979 
L 322.013492 192.748979 
L 322.132113 150.046232 
L 322.252684 150.046232 
L 322.375925 160.546409 
L 322.490117 160.546409 
L 322.610485 115.003102 
L 322.969865 115.003102 
L 323.089934 104.217365 
L 324.407902 104.217365 
L 324.525361 150.046232 
L 324.646327 150.046232 
L 324.766348 104.217365 
L 324.886214 104.217365 
L 325.004403 150.046232 
L 325.124843 150.046232 
L 325.245055 104.217365 
L 327.759318 104.217365 
L 327.997229 92.439696 
L 328.478354 92.439696 
L 328.597298 138.579806 
L 328.716888 138.579806 
L 328.834898 127.782118 
L 330.875193 127.782118 
L 330.990247 138.579806 
L 331.110555 138.579806 
L 331.229128 92.439696 
L 332.06846 92.439696 
L 332.186542 127.782118 
L 334.700876 127.782118 
L 334.821951 171.051692 
L 334.942582 171.051692 
L 335.059371 181.574733 
L 336.615034 181.574733 
L 336.735893 224.711205 
L 336.854621 224.711205 
L 336.974427 214.465668 
L 337.334131 214.465668 
L 337.453517 261.376802 
L 338.771317 261.376802 
L 338.893289 271.320357 
L 341.169114 271.320357 
L 341.284706 224.711205 
L 343.55706 224.711205 
L 343.678792 181.574733 
L 344.514749 181.574733 
L 344.634914 138.579806 
L 344.994677 138.579806 
L 345.114147 127.782118 
L 346.190445 127.782118 
L 346.312812 116.83675 
L 346.669703 116.83675 
L 346.789568 127.782118 
L 347.389649 127.782118 
L 347.509742 81.349486 
L 347.627297 81.349486 
L 347.74739 138.579806 
L 348.106734 138.579806 
L 348.346608 150.046232 
L 348.824585 150.046232 
L 348.944056 192.748979 
L 349.541898 192.748979 
L 349.666192 235.590277 
L 350.980545 235.590277 
L 351.100506 281.878267 
L 351.936547 281.878267 
L 352.056172 324.996815 
L 352.175547 324.996815 
L 352.29546 334.387519 
L 353.61435 334.387519 
L 353.733066 377.355833 
L 353.854068 377.355833 
L 353.977165 368.243855 
L 354.331267 368.243855 
L 354.450139 414.957188 
L 354.813362 414.957188 
L 354.929301 358.291168 
L 355.766957 358.291168 
L 355.8865 314.740111 
L 356.006473 314.740111 
L 356.125799 324.996815 
L 356.723953 324.996815 
L 356.845757 281.878267 
L 358.161451 281.878267 
L 358.280514 291.545157 
L 358.881073 291.545157 
L 358.998928 245.551693 
L 360.554579 245.551693 
L 360.674804 202.981128 
L 361.512688 202.981128 
L 361.633295 245.551693 
L 362.231341 245.551693 
L 362.350787 202.981128 
L 362.951406 202.981128 
L 363.068806 245.551693 
L 363.906283 245.551693 
L 364.030254 291.545157 
L 367.737245 291.545157 
L 367.85766 334.387519 
L 367.979477 334.387519 
L 368.095739 291.545157 
L 368.215904 291.545157 
L 368.335111 334.387519 
L 368.455455 334.387519 
L 368.574769 291.545157 
L 369.417848 291.545157 
L 369.532196 334.387519 
L 369.652217 334.387519 
L 369.773099 324.996815 
L 371.805399 324.996815 
L 371.926258 281.878267 
L 372.047093 281.878267 
L 372.165641 271.320357 
L 372.286273 271.320357 
L 372.405121 314.740111 
L 374.441526 314.740111 
L 374.559632 324.996815 
L 374.920772 324.996815 
L 375.03859 281.878267 
L 375.159629 281.878267 
L 375.278141 324.996815 
L 376.593942 324.996815 
L 376.715328 314.740111 
L 376.834248 314.740111 
L 376.953395 324.996815 
L 378.748585 324.996815 
L 378.868259 368.243855 
L 379.469537 368.243855 
L 379.586996 324.996815 
L 380.423839 324.996815 
L 380.547067 368.243855 
L 381.14698 368.243855 
L 381.262968 358.291168 
L 381.863994 358.291168 
L 381.980986 405.334975 
L 382.57902 405.334975 
L 382.699508 358.291168 
L 383.05993 358.291168 
L 383.179603 368.243855 
L 386.17474 368.243855 
L 386.291625 414.957188 
L 387.606612 414.957188 
L 387.728021 368.243855 
L 389.521967 368.243855 
L 389.643879 324.996815 
L 389.762272 324.996815 
L 389.880545 358.291168 
L 390.480267 358.291168 
L 390.598744 314.740111 
L 391.201709 314.740111 
L 391.318953 324.996815 
L 391.676239 324.996815 
L 391.796523 281.878267 
L 394.315442 281.878267 
L 394.429382 271.320357 
L 395.028014 271.320357 
L 395.148251 281.878267 
L 395.50647 281.878267 
L 395.627065 271.320357 
L 395.744776 271.320357 
L 395.869597 281.878267 
L 395.9855 281.878267 
L 396.108705 271.320357 
L 396.225758 271.320357 
L 396.345312 314.740111 
L 398.618719 314.740111 
L 398.738703 358.291168 
L 398.858389 358.291168 
L 398.979188 348.916818 
L 399.339646 348.916818 
L 399.458769 358.291168 
L 400.533858 358.291168 
L 400.654537 368.243855 
L 401.972409 368.243855 
L 402.090276 414.957188 
L 406.039367 414.957188 
L 406.161111 368.243855 
L 406.281647 368.243855 
L 406.399968 414.957188 
L 406.520779 414.957188 
L 406.64177 368.243855 
L 407.480264 368.243855 
L 407.596371 324.996815 
L 408.673267 324.996815 
L 408.792821 281.878267 
L 409.632274 281.878267 
L 409.750415 235.590277 
L 411.788748 235.590277 
L 411.905214 192.748979 
L 412.027126 192.748979 
L 412.145986 245.551693 
L 412.504612 245.551693 
L 412.623352 192.748979 
L 412.98211 192.748979 
L 413.102323 235.590277 
L 414.181529 235.590277 
L 414.299156 281.878267 
L 415.141325 281.878267 
L 415.256798 271.320357 
L 416.337896 271.320357 
L 416.453655 224.711205 
L 417.294209 224.711205 
L 417.411907 235.590277 
L 417.773311 235.590277 
L 417.890519 192.748979 
L 418.009546 192.748979 
L 418.12928 235.590277 
L 418.489869 235.590277 
L 418.608298 192.748979 
L 418.72863 192.748979 
L 418.847622 235.590277 
L 420.642453 235.590277 
L 420.764222 192.748979 
L 421.122142 192.748979 
L 421.242665 235.590277 
L 421.361956 235.590277 
L 421.48096 192.748979 
L 421.60061 192.748979 
L 421.722318 235.590277 
L 422.319622 235.590277 
L 422.438278 192.748979 
L 422.558036 192.748979 
L 422.677901 235.590277 
L 423.756246 235.590277 
L 423.875213 281.878267 
L 423.997628 281.878267 
L 424.114058 224.711205 
L 424.475928 224.711205 
L 424.594537 271.320357 
L 425.195276 271.320357 
L 425.314363 261.376802 
L 425.671733 261.376802 
L 425.791825 271.320357 
L 425.911499 271.320357 
L 426.031041 224.711205 
L 427.590703 224.711205 
L 427.707049 271.320357 
L 427.825454 271.320357 
L 427.944864 224.711205 
L 430.462526 224.711205 
L 430.578023 271.320357 
L 430.938708 271.320357 
L 431.058094 224.711205 
L 431.41714 224.711205 
L 431.536969 271.320357 
L 433.333356 271.320357 
L 433.451738 305.079816 
L 433.810448 305.079816 
L 433.929774 261.376802 
L 434.048802 261.376802 
L 434.168978 305.079816 
L 434.287742 305.079816 
L 434.408888 261.376802 
L 435.008718 261.376802 
L 435.126847 271.320357 
L 435.96545 271.320357 
L 436.087996 224.711205 
L 436.203899 224.711205 
L 436.329283 271.320357 
L 436.4652 271.320357 
L 436.562789 224.711205 
L 436.923414 224.711205 
L 437.042262 261.376802 
L 437.400972 261.376802 
L 437.52079 214.465668 
L 437.880039 214.465668 
L 437.999629 261.376802 
L 438.599374 261.376802 
L 438.717145 251.295859 
L 438.842396 251.295859 
L 438.957115 261.376802 
L 439.079087 261.376802 
L 439.196079 251.295859 
L 441.949498 251.295859 
L 442.07372 295.285629 
L 443.385344 295.285629 
L 443.505676 251.295859 
L 443.637236 251.295859 
L 443.746508 305.079816 
L 443.867438 305.079816 
L 443.986107 261.376802 
L 444.342519 261.376802 
L 444.464239 271.320357 
L 444.822997 271.320357 
L 444.942743 261.376802 
L 445.54329 261.376802 
L 445.660474 271.320357 
L 447.217227 271.320357 
L 447.336362 314.740111 
L 447.694977 314.740111 
L 447.821892 271.320357 
L 449.850936 271.320357 
L 449.970155 224.711205 
L 450.56753 224.711205 
L 450.687647 271.320357 
L 451.049936 271.320357 
L 451.165983 224.711205 
L 451.285011 224.711205 
L 451.408586 271.320357 
L 452.243753 271.320357 
L 452.389653 224.711205 
L 452.721587 224.711205 
L 452.843511 235.590277 
L 453.679324 235.590277 
L 453.799884 192.748979 
L 455.354865 192.748979 
L 455.476178 202.981128 
L 456.313715 202.981128 
L 456.432827 245.551693 
L 456.555337 245.551693 
L 456.673946 192.748979 
L 456.79435 192.748979 
L 456.91206 235.590277 
L 458.709525 235.590277 
L 458.82647 224.711205 
L 458.947221 224.711205 
L 459.066871 271.320357 
L 460.143624 271.320357 
L 460.264267 261.376802 
L 461.101995 261.376802 
L 461.221633 271.320357 
L 462.058488 271.320357 
L 462.180292 281.878267 
L 462.297764 281.878267 
L 462.419448 271.320357 
L 463.976512 271.320357 
L 464.093792 314.740111 
L 465.409904 314.740111 
L 465.531374 305.079816 
L 465.888432 305.079816 
L 466.008788 314.740111 
L 466.368599 314.740111 
L 466.486981 358.291168 
L 466.848611 358.291168 
L 466.966023 348.916818 
L 467.716121 348.916818 
L 467.923605 339.412143 
L 469.239968 339.412143 
L 469.360049 387.08161 
L 469.479328 387.08161 
L 469.600653 339.412143 
L 470.199154 339.412143 
L 470.317798 348.916818 
L 471.875233 348.916818 
L 471.993423 305.079816 
L 474.029649 305.079816 
L 474.148377 314.740111 
L 474.508847 314.740111 
L 474.627299 305.079816 
L 474.987159 305.079816 
L 475.105671 314.740111 
L 475.225022 314.740111 
L 475.345641 305.079816 
L 477.380263 305.079816 
L 477.501038 348.916818 
L 477.620904 348.916818 
L 477.740625 295.285629 
L 478.099707 295.285629 
L 478.217669 305.079816 
L 479.534954 305.079816 
L 479.661965 314.740111 
L 479.777665 314.740111 
L 479.893437 305.079816 
L 480.013015 305.079816 
L 480.133874 348.916818 
L 480.492871 348.916818 
L 480.611575 305.079816 
L 482.646784 305.079816 
L 482.767798 271.320357 
L 482.887592 271.320357 
L 483.008426 314.740111 
L 483.130075 314.740111 
L 483.246756 271.320357 
L 483.605131 271.320357 
L 483.724781 261.376802 
L 485.518535 261.376802 
L 485.638987 305.079816 
L 486.237883 305.079816 
L 486.357126 261.376802 
L 486.955483 261.376802 
L 487.07627 214.465668 
L 487.919875 214.465668 
L 488.03457 224.711205 
L 488.391939 224.711205 
L 488.511601 181.574733 
L 488.87377 181.574733 
L 488.991792 235.590277 
L 489.11234 235.590277 
L 489.351185 192.748979 
L 489.82842 192.748979 
L 489.950978 235.590277 
L 491.983146 235.590277 
L 492.104951 224.711205 
L 493.660303 224.711205 
L 493.778121 271.320357 
L 494.618232 271.320357 
L 494.73757 305.079816 
L 494.857077 305.079816 
L 494.975158 261.376802 
L 495.095167 261.376802 
L 495.214889 305.079816 
L 496.053575 305.079816 
L 496.174051 261.376802 
L 497.968116 261.376802 
L 498.091153 214.465668 
L 498.215675 214.465668 
L 498.32946 251.295859 
L 498.685752 251.295859 
L 498.805773 204.07906 
L 499.164591 204.07906 
L 499.286335 251.295859 
L 499.404058 251.295859 
L 499.524438 204.07906 
L 501.081179 204.07906 
L 501.1995 214.465668 
L 501.335285 214.465668 
L 501.440344 204.07906 
L 501.560269 204.07906 
L 501.678351 251.295859 
L 501.797953 251.295859 
L 501.917734 204.07906 
L 502.039287 204.07906 
L 502.156866 251.295859 
L 503.476127 251.295859 
L 503.594113 240.282512 
L 503.954163 240.282512 
L 504.073275 284.585077 
L 504.671284 284.585077 
L 504.793077 295.285629 
L 505.629848 295.285629 
L 505.74854 261.376802 
L 506.107262 261.376802 
L 506.226828 305.079816 
L 507.54403 305.079816 
L 507.664577 295.285629 
L 507.783581 295.285629 
L 507.905349 305.079816 
L 508.263042 305.079816 
L 508.383099 295.285629 
L 508.740887 295.285629 
L 508.860118 305.079816 
L 508.981731 305.079816 
L 509.132083 348.916818 
L 509.340896 295.285629 
L 510.416715 295.285629 
L 510.536413 339.412143 
L 510.658804 339.412143 
L 510.775689 295.285629 
L 511.853818 295.285629 
L 511.972451 284.585077 
L 512.572818 284.585077 
L 512.691535 274.503914 
L 513.289257 274.503914 
L 513.410391 284.585077 
L 513.768287 284.585077 
L 513.887854 240.282512 
L 514.011633 240.282512 
L 514.127153 284.585077 
L 514.246504 284.585077 
L 514.367111 295.285629 
L 515.204169 295.285629 
L 515.323879 284.585077 
L 515.446497 284.585077 
L 515.569247 295.285629 
L 515.682697 295.285629 
L 515.803963 284.585077 
L 518.558279 284.585077 
L 518.675858 329.027436 
L 518.796777 329.027436 
L 518.91675 284.585077 
L 519.036902 284.585077 
L 519.154553 329.027436 
L 519.514233 329.027436 
L 519.752946 339.412143 
L 519.873829 329.027436 
L 520.710013 329.027436 
L 520.829759 367.579503 
L 521.429433 367.579503 
L 521.550806 319.243398 
L 522.147116 319.243398 
L 522.266156 274.503914 
L 522.626122 274.503914 
L 522.746275 284.585077 
L 522.864429 284.585077 
L 522.98573 240.282512 
L 523.343375 240.282512 
L 523.463671 192.732344 
L 524.063596 192.732344 
L 524.183557 204.07906 
L 524.779377 204.07906 
L 524.900738 160.384239 
L 526.455492 160.384239 
L 526.579846 148.731271 
L 526.700872 148.731271 
L 526.81516 104.880775 
L 527.65363 104.880775 
L 527.77243 116.83675 
L 527.892308 116.83675 
L 528.016913 70.108165 
L 529.090889 70.108165 
L 529.210898 57.82957 
L 529.814833 57.82957 
L 529.932352 46.264603 
L 530.049285 46.264603 
L 530.175494 57.82957 
L 530.528303 57.82957 
L 530.647558 104.880775 
L 531.962653 104.880775 
L 532.081333 57.82957 
L 534.355434 57.82957 
L 534.47755 70.108165 
L 534.600934 70.108165 
L 534.715676 57.82957 
L 534.83626 57.82957 
L 534.955586 104.880775 
L 536.033548 104.880775 
L 536.152456 116.83675 
L 537.709436 116.83675 
L 537.826979 104.880775 
L 539.144325 104.880775 
L 539.264441 148.731271 
L 539.38366 148.731271 
L 539.503154 104.880775 
L 540.580003 104.880775 
L 540.70164 70.108165 
L 542.258093 70.108165 
L 542.37669 26.877187 
L 543.931898 26.877187 
L 544.053439 70.108165 
L 545.607846 70.108165 
L 545.731589 57.82957 
L 547.045715 57.82957 
L 547.165233 104.880775 
L 549.198347 104.880775 
L 549.318475 70.108165 
L 549.442183 70.108165 
L 549.559678 116.83675 
L 551.114444 116.83675 
L 551.235027 70.108165 
L 552.550338 70.108165 
L 552.670048 81.349486 
L 553.268069 81.349486 
L 553.387791 38.390169 
L 555.903993 38.390169 
L 556.02053 70.108165 
L 557.337517 70.108165 
L 557.45743 81.349486 
L 559.493847 81.349486 
L 559.61327 127.782118 
L 559.977318 127.782118 
L 560.090792 81.349486 
L 560.450304 81.349486 
L 560.571246 127.782118 
L 560.928688 127.782118 
L 561.048302 81.349486 
L 561.407634 81.349486 
L 561.527021 92.439696 
L 561.646419 92.439696 
L 561.766931 138.579806 
L 561.886413 138.579806 
L 562.006494 92.439696 
L 562.126335 92.439696 
L 562.245841 138.579806 
L 564.042827 138.579806 
L 564.160514 127.782118 
L 564.760344 127.782118 
L 564.878904 171.051692 
L 565.239733 171.051692 
L 565.359036 127.782118 
L 565.478578 127.782118 
L 565.597258 171.051692 
L 565.9561 171.051692 
L 566.078048 138.579806 
L 568.589557 138.579806 
L 568.711158 181.574733 
L 571.942147 181.574733 
L 572.062982 192.748979 
L 572.183518 192.748979 
L 572.304364 181.574733 
L 573.14621 181.574733 
L 573.257829 224.711205 
L 573.858783 224.711205 
L 573.97635 271.320357 
L 574.095605 271.320357 
L 574.215171 224.711205 
L 574.574288 224.711205 
L 574.694907 235.590277 
L 575.771265 235.590277 
L 575.894003 202.981128 
L 576.010625 202.981128 
L 576.129916 235.590277 
L 576.729864 235.590277 
L 576.849335 192.748979 
L 578.646991 192.748979 
L 578.765504 150.046232 
L 579.602502 150.046232 
L 579.723732 138.579806 
L 580.08097 138.579806 
L 580.200033 92.439696 
L 581.279168 92.439696 
L 581.399775 138.579806 
L 581.51897 138.579806 
L 581.638836 92.439696 
L 581.760628 92.439696 
L 581.876831 81.349486 
L 581.999162 81.349486 
L 582.116202 127.782118 
L 582.234847 127.782118 
L 582.354784 116.83675 
L 582.479988 116.83675 
L 582.59461 70.108165 
L 582.954445 70.108165 
L 583.074837 116.83675 
L 583.1956 116.83675 
L 583.312509 81.349486 
L 585.107652 81.349486 
L 585.227409 127.782118 
L 587.981163 127.782118 
L 588.100622 138.579806 
L 589.894986 138.579806 
L 590.015258 181.574733 
L 590.146435 181.574733 
L 590.254857 138.579806 
L 590.617673 138.579806 
L 590.733457 127.782118 
L 591.334291 127.782118 
L 591.458059 138.579806 
L 592.529174 138.579806 
L 592.649518 150.046232 
L 592.77082 150.046232 
L 592.888028 104.217365 
L 593.72742 104.217365 
L 593.845861 150.046232 
L 595.882697 150.046232 
L 596.001641 192.748979 
L 596.121746 192.748979 
L 596.241288 150.046232 
L 597.079255 150.046232 
L 597.201706 160.546409 
L 598.276017 160.546409 
L 598.394566 202.981128 
L 598.514742 202.981128 
L 598.634081 192.748979 
L 598.992516 192.748979 
L 599.112154 235.590277 
L 600.668751 235.590277 
L 600.788508 245.551693 
L 601.146967 245.551693 
L 601.268305 202.981128 
L 601.637895 202.981128 
L 601.746198 213.07752 
L 602.587278 213.07752 
L 602.702846 202.981128 
L 604.978551 202.981128 
L 604.978551 202.981128 
" clip-path="url(#p059c0b1d8d)" style="fill: none; stroke: #1f77b4; stroke-width: 2; stroke-linecap: square"/>
   </g>
   <g id="patch_3">
    <path d="M 72.342187 414.957188 
L 72.342187 26.877187 
" style="fill: none; stroke: #808080; stroke-width: 2; stroke-linejoin: miter; stroke-linecap: square"/>
   </g>
   <g id="patch_4">
    <path d="M 72.342188 414.957187 
L 630.342188 414.957187 
" style="fill: none; stroke: #808080; stroke-width: 2; stroke-linejoin: miter; stroke-linecap: square"/>
   </g>
   <g id="text_14">
    <!-- Oskar-Tyholt-vinkel -->
    <g style="fill: #808080" transform="translate(267.325781 20.877187) scale(0.18 -0.18)">
     <defs>
      <path id="DejaVuSans-4f" d="M 2522 4238 
Q 1834 4238 1429 3725 
Q 1025 3213 1025 2328 
Q 1025 1447 1429 934 
Q 1834 422 2522 422 
Q 3209 422 3611 934 
Q 4013 1447 4013 2328 
Q 4013 3213 3611 3725 
Q 3209 4238 2522 4238 
z
M 2522 4750 
Q 3503 4750 4090 4092 
Q 4678 3434 4678 2328 
Q 4678 1225 4090 567 
Q 3503 -91 2522 -91 
Q 1538 -91 948 565 
Q 359 1222 359 2328 
Q 359 3434 948 4092 
Q 1538 4750 2522 4750 
z
" transform="scale(0.015625)"/>
      <path id="DejaVuSans-6b" d="M 581 4863 
L 1159 4863 
L 1159 1991 
L 2875 3500 
L 3609 3500 
L 1753 1863 
L 3688 0 
L 2938 0 
L 1159 1709 
L 1159 0 
L 581 0 
L 581 4863 
z
" transform="scale(0.015625)"/>
      <path id="DejaVuSans-61" d="M 2194 1759 
Q 1497 1759 1228 1600 
Q 959 1441 959 1056 
Q 959 750 1161 570 
Q 1363 391 1709 391 
Q 2188 391 2477 730 
Q 2766 1069 2766 1631 
L 2766 1759 
L 2194 1759 
z
M 3341 1997 
L 3341 0 
L 2766 0 
L 2766 531 
Q 2569 213 2275 61 
Q 1981 -91 1556 -91 
Q 1019 -91 701 211 
Q 384 513 384 1019 
Q 384 1609 779 1909 
Q 1175 2209 1959 2209 
L 2766 2209 
L 2766 2266 
Q 2766 2663 2505 2880 
Q 2244 3097 1772 3097 
Q 1472 3097 1187 3025 
Q 903 2953 641 2809 
L 641 3341 
Q 956 3463 1253 3523 
Q 1550 3584 1831 3584 
Q 2591 3584 2966 3190 
Q 3341 2797 3341 1997 
z
" transform="scale(0.015625)"/>
      <path id="DejaVuSans-72" d="M 2631 2963 
Q 2534 3019 2420 3045 
Q 2306 3072 2169 3072 
Q 1681 3072 1420 2755 
Q 1159 2438 1159 1844 
L 1159 0 
L 581 0 
L 581 3500 
L 1159 3500 
L 1159 2956 
Q 1341 3275 1631 3429 
Q 1922 3584 2338 3584 
Q 2397 3584 2469 3576 
Q 2541 3569 2628 3553 
L 2631 2963 
z
" transform="scale(0.015625)"/>
      <path id="DejaVuSans-2d" d="M 313 2009 
L 1997 2009 
L 1997 1497 
L 313 1497 
L 313 2009 
z
" transform="scale(0.015625)"/>
      <path id="DejaVuSans-54" d="M -19 4666 
L 3928 4666 
L 3928 4134 
L 2272 4134 
L 2272 0 
L 1638 0 
L 1638 4134 
L -19 4134 
L -19 4666 
z
" transform="scale(0.015625)"/>
      <path id="DejaVuSans-79" d="M 2059 -325 
Q 1816 -950 1584 -1140 
Q 1353 -1331 966 -1331 
L 506 -1331 
L 506 -850 
L 844 -850 
Q 1081 -850 1212 -737 
Q 1344 -625 1503 -206 
L 1606 56 
L 191 3500 
L 800 3500 
L 1894 763 
L 2988 3500 
L 3597 3500 
L 2059 -325 
z
" transform="scale(0.015625)"/>
      <path id="DejaVuSans-68" d="M 3513 2113 
L 3513 0 
L 2938 0 
L 2938 2094 
Q 2938 2591 2744 2837 
Q 2550 3084 2163 3084 
Q 1697 3084 1428 2787 
Q 1159 2491 1159 1978 
L 1159 0 
L 581 0 
L 581 4863 
L 1159 4863 
L 1159 2956 
Q 1366 3272 1645 3428 
Q 1925 3584 2291 3584 
Q 2894 3584 3203 3211 
Q 3513 2838 3513 2113 
z
" transform="scale(0.015625)"/>
      <path id="DejaVuSans-6f" d="M 1959 3097 
Q 1497 3097 1228 2736 
Q 959 2375 959 1747 
Q 959 1119 1226 758 
Q 1494 397 1959 397 
Q 2419 397 2687 759 
Q 2956 1122 2956 1747 
Q 2956 2369 2687 2733 
Q 2419 3097 1959 3097 
z
M 1959 3584 
Q 2709 3584 3137 3096 
Q 3566 2609 3566 1747 
Q 3566 888 3137 398 
Q 2709 -91 1959 -91 
Q 1206 -91 779 398 
Q 353 888 353 1747 
Q 353 2609 779 3096 
Q 1206 3584 1959 3584 
z
" transform="scale(0.015625)"/>
      <path id="DejaVuSans-6c" d="M 603 4863 
L 1178 4863 
L 1178 0 
L 603 0 
L 603 4863 
z
" transform="scale(0.015625)"/>
      <path id="DejaVuSans-76" d="M 191 3500 
L 800 3500 
L 1894 563 
L 2988 3500 
L 3597 3500 
L 2284 0 
L 1503 0 
L 191 3500 
z
" transform="scale(0.015625)"/>
      <path id="DejaVuSans-6e" d="M 3513 2113 
L 3513 0 
L 2938 0 
L 2938 2094 
Q 2938 2591 2744 2837 
Q 2550 3084 2163 3084 
Q 1697 3084 1428 2787 
Q 1159 2491 1159 1978 
L 1159 0 
L 581 0 
L 581 3500 
L 1159 3500 
L 1159 2956 
Q 1366 3272 1645 3428 
Q 1925 3584 2291 3584 
Q 2894 3584 3203 3211 
Q 3513 2838 3513 2113 
z
" transform="scale(0.015625)"/>
     </defs>
     <use xlink:href="#DejaVuSans-4f"/>
     <use xlink:href="#DejaVuSans-73" x="78.710938"/>
     <use xlink:href="#DejaVuSans-6b" x="130.810547"/>
     <use xlink:href="#DejaVuSans-61" x="186.970703"/>
     <use xlink:href="#DejaVuSans-72" x="248.25"/>
     <use xlink:href="#DejaVuSans-2d" x="282.988281"/>
     <use xlink:href="#DejaVuSans-54" x="309.947266"/>
     <use xlink:href="#DejaVuSans-79" x="355.40625"/>
     <use xlink:href="#DejaVuSans-68" x="414.585938"/>
     <use xlink:href="#DejaVuSans-6f" x="477.964844"/>
     <use xlink:href="#DejaVuSans-6c" x="539.146484"/>
     <use xlink:href="#DejaVuSans-74" x="566.929688"/>
     <use xlink:href="#DejaVuSans-2d" x="606.138672"/>
     <use xlink:href="#DejaVuSans-76" x="639.597656"/>
     <use xlink:href="#DejaVuSans-69" x="698.777344"/>
     <use xlink:href="#DejaVuSans-6e" x="726.560547"/>
     <use xlink:href="#DejaVuSans-6b" x="789.939453"/>
     <use xlink:href="#DejaVuSans-65" x="844.224609"/>
     <use xlink:href="#DejaVuSans-6c" x="905.748047"/>
    </g>
   </g>
   <g id="legend_1">
    <g id="patch_5">
     <path d="M 82.842187 407.457187 
L 270.869531 407.457187 
Q 273.869531 407.457187 273.869531 404.457187 
L 273.869531 383.94 
Q 273.869531 380.94 270.869531 380.94 
L 82.842187 380.94 
Q 79.842187 380.94 79.842187 383.94 
L 79.842187 404.457187 
Q 79.842187 407.457187 82.842187 407.457187 
z
" style="fill: #ffffff; opacity: 0.8; stroke: #cccccc; stroke-linejoin: miter"/>
    </g>
    <g id="line2d_24">
     <path d="M 85.842187 393.087656 
L 100.842187 393.087656 
L 115.842187 393.087656 
" style="fill: none; stroke: #1f77b4; stroke-width: 2; stroke-linecap: square"/>
    </g>
    <g id="text_15">
     <!-- Oskar-Tyholt-vinkel -->
     <g style="fill: #808080" transform="translate(127.842187 398.337656) scale(0.15 -0.15)">
      <use xlink:href="#DejaVuSans-4f"/>
      <use xlink:href="#DejaVuSans-73" x="78.710938"/>
      <use xlink:href="#DejaVuSans-6b" x="130.810547"/>
      <use xlink:href="#DejaVuSans-61" x="186.970703"/>
      <use xlink:href="#DejaVuSans-72" x="248.25"/>
      <use xlink:href="#DejaVuSans-2d" x="282.988281"/>
      <use xlink:href="#DejaVuSans-54" x="309.947266"/>
      <use xlink:href="#DejaVuSans-79" x="355.40625"/>
      <use xlink:href="#DejaVuSans-68" x="414.585938"/>
      <use xlink:href="#DejaVuSans-6f" x="477.964844"/>
      <use xlink:href="#DejaVuSans-6c" x="539.146484"/>
      <use xlink:href="#DejaVuSans-74" x="566.929688"/>
      <use xlink:href="#DejaVuSans-2d" x="606.138672"/>
      <use xlink:href="#DejaVuSans-76" x="639.597656"/>
      <use xlink:href="#DejaVuSans-69" x="698.777344"/>
      <use xlink:href="#DejaVuSans-6e" x="726.560547"/>
      <use xlink:href="#DejaVuSans-6b" x="789.939453"/>
      <use xlink:href="#DejaVuSans-65" x="844.224609"/>
      <use xlink:href="#DejaVuSans-6c" x="905.748047"/>
     </g>
    </g>
   </g>
  </g>
 </g>
 <defs>
  <clipPath id="p059c0b1d8d">
   <rect x="72.342187" y="26.877187" width="558" height="388.08"/>
  </clipPath>
 </defs>
</svg>
