<?xml version="1.0" encoding="utf-8" standalone="no"?>
<!DOCTYPE svg PUBLIC "-//W3C//DTD SVG 1.1//EN"
  "http://www.w3.org/Graphics/SVG/1.1/DTD/svg11.dtd">
<svg xmlns:xlink="http://www.w3.org/1999/xlink" width="460.8pt" height="345.6pt" viewBox="0 0 460.8 345.6" xmlns="http://www.w3.org/2000/svg" version="1.1">
 <metadata>
  <rdf:RDF xmlns:dc="http://purl.org/dc/elements/1.1/" xmlns:cc="http://creativecommons.org/ns#" xmlns:rdf="http://www.w3.org/1999/02/22-rdf-syntax-ns#">
   <cc:Work>
    <dc:type rdf:resource="http://purl.org/dc/dcmitype/StillImage"/>
    <dc:date>2023-04-17T15:21:31.846447</dc:date>
    <dc:format>image/svg+xml</dc:format>
    <dc:creator>
     <cc:Agent>
      <dc:title>Matplotlib v3.7.1, https://matplotlib.org/</dc:title>
     </cc:Agent>
    </dc:creator>
   </cc:Work>
  </rdf:RDF>
 </metadata>
 <defs>
  <style type="text/css">*{stroke-linejoin: round; stroke-linecap: butt}</style>
 </defs>
 <g id="figure_1">
  <g id="patch_1">
   <path d="M 0 345.6 
L 460.8 345.6 
L 460.8 0 
L 0 0 
z
" style="fill: #ffffff"/>
  </g>
  <g id="axes_1">
   <g id="patch_2">
    <path d="M 57.6 307.584 
L 414.72 307.584 
L 414.72 41.472 
L 57.6 41.472 
z
" style="fill: #ffffff"/>
   </g>
   <g id="matplotlib.axis_1">
    <g id="xtick_1">
     <g id="line2d_1">
      <defs>
       <path id="md8e34d411d" d="M 0 0 
L 0 3.5 
" style="stroke: #000000; stroke-width: 0.8"/>
      </defs>
      <g>
       <use xlink:href="#md8e34d411d" x="108.80608" y="307.584" style="stroke: #000000; stroke-width: 0.8"/>
      </g>
     </g>
     <g id="text_1">
      <!-- 80 -->
      <g transform="translate(102.44358 322.182437) scale(0.1 -0.1)">
       <defs>
        <path id="DejaVuSans-38" d="M 2034 2216 
Q 1584 2216 1326 1975 
Q 1069 1734 1069 1313 
Q 1069 891 1326 650 
Q 1584 409 2034 409 
Q 2484 409 2743 651 
Q 3003 894 3003 1313 
Q 3003 1734 2745 1975 
Q 2488 2216 2034 2216 
z
M 1403 2484 
Q 997 2584 770 2862 
Q 544 3141 544 3541 
Q 544 4100 942 4425 
Q 1341 4750 2034 4750 
Q 2731 4750 3128 4425 
Q 3525 4100 3525 3541 
Q 3525 3141 3298 2862 
Q 3072 2584 2669 2484 
Q 3125 2378 3379 2068 
Q 3634 1759 3634 1313 
Q 3634 634 3220 271 
Q 2806 -91 2034 -91 
Q 1263 -91 848 271 
Q 434 634 434 1313 
Q 434 1759 690 2068 
Q 947 2378 1403 2484 
z
M 1172 3481 
Q 1172 3119 1398 2916 
Q 1625 2713 2034 2713 
Q 2441 2713 2670 2916 
Q 2900 3119 2900 3481 
Q 2900 3844 2670 4047 
Q 2441 4250 2034 4250 
Q 1625 4250 1398 4047 
Q 1172 3844 1172 3481 
z
" transform="scale(0.015625)"/>
        <path id="DejaVuSans-30" d="M 2034 4250 
Q 1547 4250 1301 3770 
Q 1056 3291 1056 2328 
Q 1056 1369 1301 889 
Q 1547 409 2034 409 
Q 2525 409 2770 889 
Q 3016 1369 3016 2328 
Q 3016 3291 2770 3770 
Q 2525 4250 2034 4250 
z
M 2034 4750 
Q 2819 4750 3233 4129 
Q 3647 3509 3647 2328 
Q 3647 1150 3233 529 
Q 2819 -91 2034 -91 
Q 1250 -91 836 529 
Q 422 1150 422 2328 
Q 422 3509 836 4129 
Q 1250 4750 2034 4750 
z
" transform="scale(0.015625)"/>
       </defs>
       <use xlink:href="#DejaVuSans-38"/>
       <use xlink:href="#DejaVuSans-30" x="63.623047"/>
      </g>
     </g>
    </g>
    <g id="xtick_2">
     <g id="line2d_2">
      <g>
       <use xlink:href="#md8e34d411d" x="184.220792" y="307.584" style="stroke: #000000; stroke-width: 0.8"/>
      </g>
     </g>
     <g id="text_2">
      <!-- 90 -->
      <g transform="translate(177.858292 322.182437) scale(0.1 -0.1)">
       <defs>
        <path id="DejaVuSans-39" d="M 703 97 
L 703 672 
Q 941 559 1184 500 
Q 1428 441 1663 441 
Q 2288 441 2617 861 
Q 2947 1281 2994 2138 
Q 2813 1869 2534 1725 
Q 2256 1581 1919 1581 
Q 1219 1581 811 2004 
Q 403 2428 403 3163 
Q 403 3881 828 4315 
Q 1253 4750 1959 4750 
Q 2769 4750 3195 4129 
Q 3622 3509 3622 2328 
Q 3622 1225 3098 567 
Q 2575 -91 1691 -91 
Q 1453 -91 1209 -44 
Q 966 3 703 97 
z
M 1959 2075 
Q 2384 2075 2632 2365 
Q 2881 2656 2881 3163 
Q 2881 3666 2632 3958 
Q 2384 4250 1959 4250 
Q 1534 4250 1286 3958 
Q 1038 3666 1038 3163 
Q 1038 2656 1286 2365 
Q 1534 2075 1959 2075 
z
" transform="scale(0.015625)"/>
       </defs>
       <use xlink:href="#DejaVuSans-39"/>
       <use xlink:href="#DejaVuSans-30" x="63.623047"/>
      </g>
     </g>
    </g>
    <g id="xtick_3">
     <g id="line2d_3">
      <g>
       <use xlink:href="#md8e34d411d" x="259.635505" y="307.584" style="stroke: #000000; stroke-width: 0.8"/>
      </g>
     </g>
     <g id="text_3">
      <!-- 100 -->
      <g transform="translate(250.091755 322.182437) scale(0.1 -0.1)">
       <defs>
        <path id="DejaVuSans-31" d="M 794 531 
L 1825 531 
L 1825 4091 
L 703 3866 
L 703 4441 
L 1819 4666 
L 2450 4666 
L 2450 531 
L 3481 531 
L 3481 0 
L 794 0 
L 794 531 
z
" transform="scale(0.015625)"/>
       </defs>
       <use xlink:href="#DejaVuSans-31"/>
       <use xlink:href="#DejaVuSans-30" x="63.623047"/>
       <use xlink:href="#DejaVuSans-30" x="127.246094"/>
      </g>
     </g>
    </g>
    <g id="xtick_4">
     <g id="line2d_4">
      <g>
       <use xlink:href="#md8e34d411d" x="335.050217" y="307.584" style="stroke: #000000; stroke-width: 0.8"/>
      </g>
     </g>
     <g id="text_4">
      <!-- 110 -->
      <g transform="translate(325.506467 322.182437) scale(0.1 -0.1)">
       <use xlink:href="#DejaVuSans-31"/>
       <use xlink:href="#DejaVuSans-31" x="63.623047"/>
       <use xlink:href="#DejaVuSans-30" x="127.246094"/>
      </g>
     </g>
    </g>
    <g id="xtick_5">
     <g id="line2d_5">
      <g>
       <use xlink:href="#md8e34d411d" x="410.46493" y="307.584" style="stroke: #000000; stroke-width: 0.8"/>
      </g>
     </g>
     <g id="text_5">
      <!-- 120 -->
      <g transform="translate(400.92118 322.182437) scale(0.1 -0.1)">
       <defs>
        <path id="DejaVuSans-32" d="M 1228 531 
L 3431 531 
L 3431 0 
L 469 0 
L 469 531 
Q 828 903 1448 1529 
Q 2069 2156 2228 2338 
Q 2531 2678 2651 2914 
Q 2772 3150 2772 3378 
Q 2772 3750 2511 3984 
Q 2250 4219 1831 4219 
Q 1534 4219 1204 4116 
Q 875 4013 500 3803 
L 500 4441 
Q 881 4594 1212 4672 
Q 1544 4750 1819 4750 
Q 2544 4750 2975 4387 
Q 3406 4025 3406 3419 
Q 3406 3131 3298 2873 
Q 3191 2616 2906 2266 
Q 2828 2175 2409 1742 
Q 1991 1309 1228 531 
z
" transform="scale(0.015625)"/>
       </defs>
       <use xlink:href="#DejaVuSans-31"/>
       <use xlink:href="#DejaVuSans-32" x="63.623047"/>
       <use xlink:href="#DejaVuSans-30" x="127.246094"/>
      </g>
     </g>
    </g>
    <g id="text_6">
     <!-- time [s] -->
     <g transform="translate(216.768594 335.860562) scale(0.1 -0.1)">
      <defs>
       <path id="DejaVuSans-74" d="M 1172 4494 
L 1172 3500 
L 2356 3500 
L 2356 3053 
L 1172 3053 
L 1172 1153 
Q 1172 725 1289 603 
Q 1406 481 1766 481 
L 2356 481 
L 2356 0 
L 1766 0 
Q 1100 0 847 248 
Q 594 497 594 1153 
L 594 3053 
L 172 3053 
L 172 3500 
L 594 3500 
L 594 4494 
L 1172 4494 
z
" transform="scale(0.015625)"/>
       <path id="DejaVuSans-69" d="M 603 3500 
L 1178 3500 
L 1178 0 
L 603 0 
L 603 3500 
z
M 603 4863 
L 1178 4863 
L 1178 4134 
L 603 4134 
L 603 4863 
z
" transform="scale(0.015625)"/>
       <path id="DejaVuSans-6d" d="M 3328 2828 
Q 3544 3216 3844 3400 
Q 4144 3584 4550 3584 
Q 5097 3584 5394 3201 
Q 5691 2819 5691 2113 
L 5691 0 
L 5113 0 
L 5113 2094 
Q 5113 2597 4934 2840 
Q 4756 3084 4391 3084 
Q 3944 3084 3684 2787 
Q 3425 2491 3425 1978 
L 3425 0 
L 2847 0 
L 2847 2094 
Q 2847 2600 2669 2842 
Q 2491 3084 2119 3084 
Q 1678 3084 1418 2786 
Q 1159 2488 1159 1978 
L 1159 0 
L 581 0 
L 581 3500 
L 1159 3500 
L 1159 2956 
Q 1356 3278 1631 3431 
Q 1906 3584 2284 3584 
Q 2666 3584 2933 3390 
Q 3200 3197 3328 2828 
z
" transform="scale(0.015625)"/>
       <path id="DejaVuSans-65" d="M 3597 1894 
L 3597 1613 
L 953 1613 
Q 991 1019 1311 708 
Q 1631 397 2203 397 
Q 2534 397 2845 478 
Q 3156 559 3463 722 
L 3463 178 
Q 3153 47 2828 -22 
Q 2503 -91 2169 -91 
Q 1331 -91 842 396 
Q 353 884 353 1716 
Q 353 2575 817 3079 
Q 1281 3584 2069 3584 
Q 2775 3584 3186 3129 
Q 3597 2675 3597 1894 
z
M 3022 2063 
Q 3016 2534 2758 2815 
Q 2500 3097 2075 3097 
Q 1594 3097 1305 2825 
Q 1016 2553 972 2059 
L 3022 2063 
z
" transform="scale(0.015625)"/>
       <path id="DejaVuSans-20" transform="scale(0.015625)"/>
       <path id="DejaVuSans-5b" d="M 550 4863 
L 1875 4863 
L 1875 4416 
L 1125 4416 
L 1125 -397 
L 1875 -397 
L 1875 -844 
L 550 -844 
L 550 4863 
z
" transform="scale(0.015625)"/>
       <path id="DejaVuSans-73" d="M 2834 3397 
L 2834 2853 
Q 2591 2978 2328 3040 
Q 2066 3103 1784 3103 
Q 1356 3103 1142 2972 
Q 928 2841 928 2578 
Q 928 2378 1081 2264 
Q 1234 2150 1697 2047 
L 1894 2003 
Q 2506 1872 2764 1633 
Q 3022 1394 3022 966 
Q 3022 478 2636 193 
Q 2250 -91 1575 -91 
Q 1294 -91 989 -36 
Q 684 19 347 128 
L 347 722 
Q 666 556 975 473 
Q 1284 391 1588 391 
Q 1994 391 2212 530 
Q 2431 669 2431 922 
Q 2431 1156 2273 1281 
Q 2116 1406 1581 1522 
L 1381 1569 
Q 847 1681 609 1914 
Q 372 2147 372 2553 
Q 372 3047 722 3315 
Q 1072 3584 1716 3584 
Q 2034 3584 2315 3537 
Q 2597 3491 2834 3397 
z
" transform="scale(0.015625)"/>
       <path id="DejaVuSans-5d" d="M 1947 4863 
L 1947 -844 
L 622 -844 
L 622 -397 
L 1369 -397 
L 1369 4416 
L 622 4416 
L 622 4863 
L 1947 4863 
z
" transform="scale(0.015625)"/>
      </defs>
      <use xlink:href="#DejaVuSans-74"/>
      <use xlink:href="#DejaVuSans-69" x="39.208984"/>
      <use xlink:href="#DejaVuSans-6d" x="66.992188"/>
      <use xlink:href="#DejaVuSans-65" x="164.404297"/>
      <use xlink:href="#DejaVuSans-20" x="225.927734"/>
      <use xlink:href="#DejaVuSans-5b" x="257.714844"/>
      <use xlink:href="#DejaVuSans-73" x="296.728516"/>
      <use xlink:href="#DejaVuSans-5d" x="348.828125"/>
     </g>
    </g>
   </g>
   <g id="matplotlib.axis_2">
    <g id="ytick_1">
     <g id="line2d_6">
      <defs>
       <path id="m8e9f258ae9" d="M 0 0 
L -3.5 0 
" style="stroke: #000000; stroke-width: 0.8"/>
      </defs>
      <g>
       <use xlink:href="#m8e9f258ae9" x="57.6" y="283.283127" style="stroke: #000000; stroke-width: 0.8"/>
      </g>
     </g>
     <g id="text_7">
      <!-- 77.50 -->
      <g transform="translate(21.971875 287.082346) scale(0.1 -0.1)">
       <defs>
        <path id="DejaVuSans-37" d="M 525 4666 
L 3525 4666 
L 3525 4397 
L 1831 0 
L 1172 0 
L 2766 4134 
L 525 4134 
L 525 4666 
z
" transform="scale(0.015625)"/>
        <path id="DejaVuSans-2e" d="M 684 794 
L 1344 794 
L 1344 0 
L 684 0 
L 684 794 
z
" transform="scale(0.015625)"/>
        <path id="DejaVuSans-35" d="M 691 4666 
L 3169 4666 
L 3169 4134 
L 1269 4134 
L 1269 2991 
Q 1406 3038 1543 3061 
Q 1681 3084 1819 3084 
Q 2600 3084 3056 2656 
Q 3513 2228 3513 1497 
Q 3513 744 3044 326 
Q 2575 -91 1722 -91 
Q 1428 -91 1123 -41 
Q 819 9 494 109 
L 494 744 
Q 775 591 1075 516 
Q 1375 441 1709 441 
Q 2250 441 2565 725 
Q 2881 1009 2881 1497 
Q 2881 1984 2565 2268 
Q 2250 2553 1709 2553 
Q 1456 2553 1204 2497 
Q 953 2441 691 2322 
L 691 4666 
z
" transform="scale(0.015625)"/>
       </defs>
       <use xlink:href="#DejaVuSans-37"/>
       <use xlink:href="#DejaVuSans-37" x="63.623047"/>
       <use xlink:href="#DejaVuSans-2e" x="127.246094"/>
       <use xlink:href="#DejaVuSans-35" x="159.033203"/>
       <use xlink:href="#DejaVuSans-30" x="222.65625"/>
      </g>
     </g>
    </g>
    <g id="ytick_2">
     <g id="line2d_7">
      <g>
       <use xlink:href="#m8e9f258ae9" x="57.6" y="252.287825" style="stroke: #000000; stroke-width: 0.8"/>
      </g>
     </g>
     <g id="text_8">
      <!-- 77.75 -->
      <g transform="translate(21.971875 256.087044) scale(0.1 -0.1)">
       <use xlink:href="#DejaVuSans-37"/>
       <use xlink:href="#DejaVuSans-37" x="63.623047"/>
       <use xlink:href="#DejaVuSans-2e" x="127.246094"/>
       <use xlink:href="#DejaVuSans-37" x="159.033203"/>
       <use xlink:href="#DejaVuSans-35" x="222.65625"/>
      </g>
     </g>
    </g>
    <g id="ytick_3">
     <g id="line2d_8">
      <g>
       <use xlink:href="#m8e9f258ae9" x="57.6" y="221.292524" style="stroke: #000000; stroke-width: 0.8"/>
      </g>
     </g>
     <g id="text_9">
      <!-- 78.00 -->
      <g transform="translate(21.971875 225.091743) scale(0.1 -0.1)">
       <use xlink:href="#DejaVuSans-37"/>
       <use xlink:href="#DejaVuSans-38" x="63.623047"/>
       <use xlink:href="#DejaVuSans-2e" x="127.246094"/>
       <use xlink:href="#DejaVuSans-30" x="159.033203"/>
       <use xlink:href="#DejaVuSans-30" x="222.65625"/>
      </g>
     </g>
    </g>
    <g id="ytick_4">
     <g id="line2d_9">
      <g>
       <use xlink:href="#m8e9f258ae9" x="57.6" y="190.297222" style="stroke: #000000; stroke-width: 0.8"/>
      </g>
     </g>
     <g id="text_10">
      <!-- 78.25 -->
      <g transform="translate(21.971875 194.096441) scale(0.1 -0.1)">
       <use xlink:href="#DejaVuSans-37"/>
       <use xlink:href="#DejaVuSans-38" x="63.623047"/>
       <use xlink:href="#DejaVuSans-2e" x="127.246094"/>
       <use xlink:href="#DejaVuSans-32" x="159.033203"/>
       <use xlink:href="#DejaVuSans-35" x="222.65625"/>
      </g>
     </g>
    </g>
    <g id="ytick_5">
     <g id="line2d_10">
      <g>
       <use xlink:href="#m8e9f258ae9" x="57.6" y="159.301921" style="stroke: #000000; stroke-width: 0.8"/>
      </g>
     </g>
     <g id="text_11">
      <!-- 78.50 -->
      <g transform="translate(21.971875 163.10114) scale(0.1 -0.1)">
       <use xlink:href="#DejaVuSans-37"/>
       <use xlink:href="#DejaVuSans-38" x="63.623047"/>
       <use xlink:href="#DejaVuSans-2e" x="127.246094"/>
       <use xlink:href="#DejaVuSans-35" x="159.033203"/>
       <use xlink:href="#DejaVuSans-30" x="222.65625"/>
      </g>
     </g>
    </g>
    <g id="ytick_6">
     <g id="line2d_11">
      <g>
       <use xlink:href="#m8e9f258ae9" x="57.6" y="128.306619" style="stroke: #000000; stroke-width: 0.8"/>
      </g>
     </g>
     <g id="text_12">
      <!-- 78.75 -->
      <g transform="translate(21.971875 132.105838) scale(0.1 -0.1)">
       <use xlink:href="#DejaVuSans-37"/>
       <use xlink:href="#DejaVuSans-38" x="63.623047"/>
       <use xlink:href="#DejaVuSans-2e" x="127.246094"/>
       <use xlink:href="#DejaVuSans-37" x="159.033203"/>
       <use xlink:href="#DejaVuSans-35" x="222.65625"/>
      </g>
     </g>
    </g>
    <g id="ytick_7">
     <g id="line2d_12">
      <g>
       <use xlink:href="#m8e9f258ae9" x="57.6" y="97.311318" style="stroke: #000000; stroke-width: 0.8"/>
      </g>
     </g>
     <g id="text_13">
      <!-- 79.00 -->
      <g transform="translate(21.971875 101.110537) scale(0.1 -0.1)">
       <use xlink:href="#DejaVuSans-37"/>
       <use xlink:href="#DejaVuSans-39" x="63.623047"/>
       <use xlink:href="#DejaVuSans-2e" x="127.246094"/>
       <use xlink:href="#DejaVuSans-30" x="159.033203"/>
       <use xlink:href="#DejaVuSans-30" x="222.65625"/>
      </g>
     </g>
    </g>
    <g id="ytick_8">
     <g id="line2d_13">
      <g>
       <use xlink:href="#m8e9f258ae9" x="57.6" y="66.316016" style="stroke: #000000; stroke-width: 0.8"/>
      </g>
     </g>
     <g id="text_14">
      <!-- 79.25 -->
      <g transform="translate(21.971875 70.115235) scale(0.1 -0.1)">
       <use xlink:href="#DejaVuSans-37"/>
       <use xlink:href="#DejaVuSans-39" x="63.623047"/>
       <use xlink:href="#DejaVuSans-2e" x="127.246094"/>
       <use xlink:href="#DejaVuSans-32" x="159.033203"/>
       <use xlink:href="#DejaVuSans-35" x="222.65625"/>
      </g>
     </g>
    </g>
    <g id="text_15">
     <!-- $\theta$ [deg] -->
     <g transform="translate(15.871875 192.528) rotate(-90) scale(0.1 -0.1)">
      <defs>
       <path id="DejaVuSans-Oblique-3b8" d="M 2913 2219 
L 925 2219 
Q 791 1284 928 888 
Q 1100 400 1566 400 
Q 2034 400 2391 891 
Q 2703 1322 2913 2219 
z
M 3009 2750 
Q 3094 3638 2984 3950 
Q 2813 4444 2353 4444 
Q 1875 4444 1525 3956 
Q 1250 3563 1034 2750 
L 3009 2750 
z
M 2444 4913 
Q 3194 4913 3494 4250 
Q 3794 3591 3566 2422 
Q 3341 1256 2781 594 
Q 2225 -72 1475 -72 
Q 722 -72 425 594 
Q 128 1256 353 2422 
Q 581 3591 1134 4250 
Q 1691 4913 2444 4913 
z
" transform="scale(0.015625)"/>
       <path id="DejaVuSans-64" d="M 2906 2969 
L 2906 4863 
L 3481 4863 
L 3481 0 
L 2906 0 
L 2906 525 
Q 2725 213 2448 61 
Q 2172 -91 1784 -91 
Q 1150 -91 751 415 
Q 353 922 353 1747 
Q 353 2572 751 3078 
Q 1150 3584 1784 3584 
Q 2172 3584 2448 3432 
Q 2725 3281 2906 2969 
z
M 947 1747 
Q 947 1113 1208 752 
Q 1469 391 1925 391 
Q 2381 391 2643 752 
Q 2906 1113 2906 1747 
Q 2906 2381 2643 2742 
Q 2381 3103 1925 3103 
Q 1469 3103 1208 2742 
Q 947 2381 947 1747 
z
" transform="scale(0.015625)"/>
       <path id="DejaVuSans-67" d="M 2906 1791 
Q 2906 2416 2648 2759 
Q 2391 3103 1925 3103 
Q 1463 3103 1205 2759 
Q 947 2416 947 1791 
Q 947 1169 1205 825 
Q 1463 481 1925 481 
Q 2391 481 2648 825 
Q 2906 1169 2906 1791 
z
M 3481 434 
Q 3481 -459 3084 -895 
Q 2688 -1331 1869 -1331 
Q 1566 -1331 1297 -1286 
Q 1028 -1241 775 -1147 
L 775 -588 
Q 1028 -725 1275 -790 
Q 1522 -856 1778 -856 
Q 2344 -856 2625 -561 
Q 2906 -266 2906 331 
L 2906 616 
Q 2728 306 2450 153 
Q 2172 0 1784 0 
Q 1141 0 747 490 
Q 353 981 353 1791 
Q 353 2603 747 3093 
Q 1141 3584 1784 3584 
Q 2172 3584 2450 3431 
Q 2728 3278 2906 2969 
L 2906 3500 
L 3481 3500 
L 3481 434 
z
" transform="scale(0.015625)"/>
      </defs>
      <use xlink:href="#DejaVuSans-Oblique-3b8" transform="translate(0 0.234375)"/>
      <use xlink:href="#DejaVuSans-20" transform="translate(61.181641 0.234375)"/>
      <use xlink:href="#DejaVuSans-5b" transform="translate(92.96875 0.234375)"/>
      <use xlink:href="#DejaVuSans-64" transform="translate(131.982422 0.234375)"/>
      <use xlink:href="#DejaVuSans-65" transform="translate(195.458984 0.234375)"/>
      <use xlink:href="#DejaVuSans-67" transform="translate(256.982422 0.234375)"/>
      <use xlink:href="#DejaVuSans-5d" transform="translate(320.458984 0.234375)"/>
     </g>
    </g>
   </g>
   <g id="line2d_14">
    <path d="M 73.832727 117.90852 
L 73.902659 117.90852 
L 74.053082 109.253673 
L 74.204424 109.253673 
L 74.354552 106.600096 
L 74.509718 106.600096 
L 74.731535 101.121005 
L 74.958088 101.121005 
L 75.109461 87.278731 
L 75.259823 87.278731 
L 75.487515 92.705108 
L 75.712582 92.705108 
L 75.938955 97.971385 
L 76.014173 97.971385 
L 76.164859 100.823737 
L 76.468426 100.823737 
L 76.617363 97.971385 
L 76.919127 97.971385 
L 77.071276 114.797532 
L 77.371887 114.797532 
L 77.523259 111.9175 
L 77.673448 124.870896 
L 77.824172 111.9175 
L 77.977663 124.870896 
L 79.035784 124.870896 
L 79.182692 128.975245 
L 79.332488 124.870896 
L 79.483235 126.28015 
L 79.635444 123.595417 
L 79.786417 123.595417 
L 79.936508 120.715579 
L 80.086455 120.715579 
L 80.23739 118.051964 
L 80.388151 119.58541 
L 80.690594 119.58541 
L 80.841597 115.398429 
L 81.066725 120.715579 
L 81.141801 120.715579 
L 81.293822 133.557387 
L 81.447803 123.595417 
L 81.595058 123.595417 
L 81.745465 122.183319 
L 81.896445 135.115551 
L 82.048293 122.183319 
L 82.348881 122.183319 
L 82.499997 124.870896 
L 82.650713 124.870896 
L 82.801663 137.826846 
L 82.952734 137.826846 
L 83.103707 140.758182 
L 83.254589 140.758182 
L 83.406044 137.826846 
L 83.555267 137.826846 
L 83.706678 140.758182 
L 83.860516 137.826846 
L 84.460855 137.826846 
L 84.612755 124.870896 
L 84.913102 124.870896 
L 85.13924 119.506077 
L 85.216397 119.506077 
L 85.366178 116.634277 
L 85.516495 116.634277 
L 85.667475 113.978099 
L 85.818523 118.051964 
L 85.969104 118.051964 
L 86.12016 115.398429 
L 86.271102 115.398429 
L 86.421396 113.978099 
L 86.572452 126.837871 
L 87.178613 126.837871 
L 87.327089 129.517513 
L 87.477029 126.837871 
L 87.628333 126.837871 
L 87.778695 129.517513 
L 88.23291 129.517513 
L 88.382344 133.557387 
L 88.53291 132.414674 
L 88.683807 136.462493 
L 88.834976 132.414674 
L 89.287683 132.414674 
L 89.438995 135.115551 
L 89.739719 135.115551 
L 89.890435 139.170773 
L 90.34269 139.170773 
L 90.494364 136.462493 
L 90.644288 136.462493 
L 90.795623 124.91784 
L 90.946671 124.91784 
L 91.09747 122.246572 
L 91.247953 122.246572 
L 91.476256 126.897499 
L 91.549189 126.897499 
L 91.701866 122.246572 
L 91.851391 126.897499 
L 92.002462 122.246572 
L 92.15314 124.91784 
L 92.308487 124.91784 
L 92.454965 127.805951 
L 92.907446 127.805951 
L 93.058645 124.91784 
L 93.662619 124.91784 
L 93.812159 127.805951 
L 93.962958 116.829541 
L 94.264602 116.829541 
L 94.415386 124.91784 
L 94.565763 124.91784 
L 94.717029 112.122573 
L 94.867655 124.91784 
L 95.018975 127.805951 
L 95.32086 127.805951 
L 95.471252 114.985483 
L 95.623009 114.985483 
L 95.772986 130.498394 
L 95.926116 130.498394 
L 96.074736 117.654439 
L 96.225316 127.805951 
L 96.527216 127.805951 
L 96.680331 129.577249 
L 97.28521 129.577249 
L 97.43174 127.805951 
L 97.582864 127.805951 
L 97.734161 130.498394 
L 97.884395 130.498394 
L 98.261672 141.889499 
L 98.336747 141.889499 
L 98.48778 128.975245 
L 98.639251 128.975245 
L 98.790487 126.28015 
L 98.940796 133.201225 
L 99.393888 133.201225 
L 99.549144 130.498394 
L 100.146693 130.498394 
L 100.298246 132.474528 
L 100.448284 132.474528 
L 100.599928 119.701726 
L 100.749995 119.701726 
L 100.902356 116.829541 
L 101.051813 116.829541 
L 101.202853 114.173007 
L 101.35369 103.107654 
L 101.504323 100.476149 
L 101.655191 111.526529 
L 101.805681 102.382264 
L 101.961178 99.561296 
L 102.410099 99.561296 
L 102.560363 96.952081 
L 102.710921 96.952081 
L 102.862158 99.561296 
L 103.163673 99.561296 
L 103.314503 111.526529 
L 103.466199 97.854613 
L 103.615905 114.173007 
L 103.775377 114.173007 
L 103.919072 103.107654 
L 104.220045 103.107654 
L 104.370256 98.34854 
L 104.520716 98.34854 
L 104.672058 103.107654 
L 104.823008 98.34854 
L 105.125142 98.34854 
L 105.279456 101.18428 
L 105.427555 101.18428 
L 105.578385 88.374286 
L 105.727955 101.18428 
L 105.878369 101.18428 
L 106.030315 88.374286 
L 106.935472 88.374286 
L 107.085057 85.563803 
L 107.235992 90.372223 
L 107.386648 77.643469 
L 107.538956 75.058515 
L 107.688518 75.058515 
L 107.838752 79.688591 
L 107.989823 75.058515 
L 108.140811 79.688591 
L 108.296052 79.688591 
L 108.452304 82.282034 
L 108.595003 77.643469 
L 108.743653 80.438287 
L 108.895146 93.192209 
L 109.045742 95.821163 
L 109.19676 90.994383 
L 109.498351 90.994383 
L 109.649753 93.624611 
L 109.801639 93.624611 
L 109.950726 103.827915 
L 110.101706 106.481766 
L 111.006607 106.481766 
L 111.158953 103.827915 
L 111.307851 106.481766 
L 111.760566 106.481766 
L 111.911652 93.624611 
L 112.063801 106.481766 
L 112.214344 103.827915 
L 112.364246 106.481766 
L 112.591983 101.18428 
L 112.667036 101.18428 
L 112.816749 88.374286 
L 113.051771 82.964356 
L 113.118385 82.964356 
L 113.270738 87.763983 
L 113.420338 85.16563 
L 113.872389 85.16563 
L 114.023256 82.964356 
L 114.174817 85.563803 
L 114.325428 98.34854 
L 114.476031 101.18428 
L 114.626333 96.883052 
L 115.380691 96.883052 
L 115.532214 94.055789 
L 115.682455 96.883052 
L 115.83287 96.883052 
L 115.984182 94.055789 
L 116.134634 96.883052 
L 116.587191 96.883052 
L 116.738224 94.055789 
L 116.888963 81.22629 
L 117.794052 81.22629 
L 117.944595 85.563803 
L 118.095553 85.563803 
L 118.247106 82.964356 
L 118.397234 70.208814 
L 118.548471 67.642532 
L 118.701751 69.721042 
L 118.849534 53.568 
L 119.46298 53.568 
L 119.60396 69.721042 
L 119.755664 69.721042 
L 119.905566 72.483367 
L 120.056433 67.642532 
L 120.207112 82.964356 
L 120.358032 82.964356 
L 120.508839 70.208814 
L 120.659585 80.374765 
L 121.413536 80.374765 
L 121.564712 82.964356 
L 121.715632 80.374765 
L 121.866198 82.964356 
L 122.020247 82.964356 
L 122.167495 93.112849 
L 123.073037 93.112849 
L 123.223565 95.725725 
L 123.528979 95.725725 
L 123.676965 93.112849 
L 123.826965 93.112849 
L 123.978375 90.31004 
L 124.129567 75.027647 
L 124.279197 75.027647 
L 124.430298 77.232136 
L 124.884242 77.232136 
L 125.03446 79.800412 
L 125.185033 75.027647 
L 125.335267 90.31004 
L 125.571172 95.725725 
L 125.788502 95.725725 
L 125.938758 93.112849 
L 126.24102 93.112849 
L 126.391676 90.31004 
L 127.146201 90.31004 
L 127.295952 104.007005 
L 127.446736 101.389722 
L 128.654057 101.389722 
L 128.804321 104.007005 
L 128.962232 114.090439 
L 129.106719 114.090439 
L 129.256794 118.715452 
L 129.410799 116.076673 
L 129.558536 116.076673 
L 129.712465 100.639891 
L 129.860187 98.044355 
L 130.012043 113.245998 
L 130.163264 110.627735 
L 130.312299 113.245998 
L 130.46444 113.245998 
L 130.69076 118.715452 
L 130.915631 118.715452 
L 131.067147 134.045735 
L 131.217992 116.73079 
L 131.369281 116.73079 
L 131.616415 124.227884 
L 132.276143 124.227884 
L 132.424514 126.897499 
L 132.576882 119.58541 
L 132.72575 132.338305 
L 133.329754 132.338305 
L 133.480365 135.022675 
L 133.631187 132.338305 
L 133.781496 132.338305 
L 133.933238 128.193564 
L 134.384799 128.193564 
L 134.536035 132.338305 
L 134.686752 129.458781 
L 134.838463 129.458781 
L 135.010507 126.795389 
L 135.216291 111.460023 
L 135.290122 111.460023 
L 135.441819 124.142011 
L 135.592151 111.460023 
L 135.74249 122.666222 
L 135.893334 122.666222 
L 136.04749 125.32213 
L 136.194888 125.32213 
L 136.345347 137.994802 
L 136.647881 137.994802 
L 136.798288 136.52789 
L 137.401893 136.52789 
L 137.552405 133.840788 
L 137.854004 133.840788 
L 138.005489 119.968571 
L 138.308181 119.968571 
L 138.459207 133.840788 
L 138.607872 119.968571 
L 138.759078 117.113202 
L 138.910737 119.968571 
L 139.06085 117.113202 
L 139.664176 117.113202 
L 139.815578 104.258706 
L 139.966702 104.258706 
L 140.116815 103.252534 
L 140.268066 103.252534 
L 140.419047 100.446797 
L 140.569326 89.207511 
L 140.719997 89.207511 
L 140.87066 101.880274 
L 141.021399 101.880274 
L 141.174008 104.482741 
L 141.325712 104.482741 
L 141.474174 91.787068 
L 141.625079 87.709499 
L 141.926881 105.868071 
L 142.078638 95.684932 
L 142.22817 108.493492 
L 142.379867 111.331975 
L 142.831805 111.331975 
L 142.982498 98.498294 
L 143.133418 98.498294 
L 143.283863 101.121005 
L 143.434987 98.498294 
L 143.586005 101.121005 
L 143.7366 101.121005 
L 143.887203 84.681264 
L 144.038417 87.278731 
L 144.642814 87.278731 
L 144.792776 89.886082 
L 145.094435 89.886082 
L 145.245468 78.634779 
L 145.396297 78.634779 
L 145.54828 76.053096 
L 145.697315 64.889719 
L 145.848016 64.889719 
L 145.999358 75.027647 
L 146.150075 75.027647 
L 146.301311 79.800412 
L 146.451643 64.620764 
L 146.602095 64.620764 
L 146.753588 69.216534 
L 146.906778 69.216534 
L 147.13039 74.33358 
L 147.357826 74.33358 
L 147.506929 77.104983 
L 147.658784 77.104983 
L 147.808889 92.34657 
L 148.110767 92.34657 
L 148.261981 105.012065 
L 148.412516 109.666805 
L 149.619144 109.666805 
L 149.769822 123.263949 
L 149.920373 125.937073 
L 150.223133 125.937073 
L 150.373072 123.263949 
L 150.523902 125.937073 
L 151.128351 125.937073 
L 151.278041 135.897468 
L 151.430153 133.211511 
L 151.730643 133.211511 
L 151.881578 117.744333 
L 152.032467 130.330283 
L 152.183282 130.330283 
L 152.333448 117.744333 
L 152.485257 133.211511 
L 152.635574 128.661325 
L 152.785906 131.339007 
L 152.93807 131.339007 
L 153.089058 129.577249 
L 153.238575 129.577249 
L 153.389216 146.735125 
L 153.541003 142.329892 
L 154.445293 142.329892 
L 154.596017 139.62695 
L 154.898008 139.62695 
L 155.050361 126.897499 
L 155.200089 139.62695 
L 155.350647 136.934224 
L 156.104734 136.934224 
L 156.406385 129.458781 
L 156.556996 134.045735 
L 156.709658 131.374047 
L 156.859522 131.374047 
L 157.009952 128.712403 
L 157.161068 128.712403 
L 157.311437 125.857191 
L 157.461882 127.564811 
L 157.763699 127.564811 
L 157.915494 125.857191 
L 158.065758 128.712403 
L 158.367266 128.712403 
L 158.517831 131.374047 
L 158.671504 131.374047 
L 158.82004 134.045735 
L 158.97053 134.045735 
L 159.121028 147.707923 
L 159.271978 150.623088 
L 160.177656 150.623088 
L 160.327603 146.076424 
L 160.479239 148.785757 
L 160.780453 148.785757 
L 160.931185 166.079127 
L 161.836644 166.079127 
L 161.989336 153.340673 
L 162.288333 153.340673 
L 162.439351 150.623088 
L 163.193513 150.623088 
L 163.344192 163.338487 
L 163.495179 161.569247 
L 163.646054 164.312083 
L 163.796974 164.312083 
L 163.94711 163.195519 
L 164.173889 168.720315 
L 164.249213 168.720315 
L 164.401551 155.800414 
L 164.551317 168.720315 
L 164.70189 153.056274 
L 165.760441 153.056274 
L 165.908563 155.800414 
L 166.059174 141.889499 
L 166.210381 155.800414 
L 166.511866 155.800414 
L 166.662409 153.056274 
L 167.118147 153.056274 
L 167.266714 155.800414 
L 167.41734 153.056274 
L 167.569173 154.445719 
L 167.71872 140.630515 
L 167.87001 137.717232 
L 168.025575 137.717232 
L 168.171276 135.022675 
L 168.321849 139.62695 
L 168.472573 136.934224 
L 168.927716 136.934224 
L 169.076404 139.62695 
L 169.230664 135.022675 
L 169.453108 140.630515 
L 169.529427 140.630515 
L 169.679699 154.445719 
L 169.830038 150.322668 
L 170.132323 150.322668 
L 170.282511 136.462493 
L 170.434155 136.462493 
L 170.583748 150.322668 
L 170.886711 150.322668 
L 171.036786 136.462493 
L 171.187427 136.462493 
L 171.337948 150.322668 
L 171.7907 150.322668 
L 171.941273 153.056274 
L 172.094146 153.056274 
L 172.24309 157.18685 
L 172.394764 154.445719 
L 172.997652 154.445719 
L 173.14861 159.017866 
L 173.377274 153.340673 
L 173.602342 153.340673 
L 173.754265 157.691046 
L 173.902628 154.965584 
L 174.053435 154.965584 
L 174.203654 152.041966 
L 174.35609 154.965584 
L 174.65707 154.965584 
L 174.808932 170.38674 
L 174.958216 170.38674 
L 175.109015 173.145578 
L 175.260614 173.145578 
L 175.410794 185.868734 
L 177.070808 185.868734 
L 177.296268 193.271787 
L 177.522489 193.271787 
L 177.673115 203.915991 
L 177.824736 206.958847 
L 177.974706 206.958847 
L 178.125189 203.915991 
L 178.728748 203.915991 
L 178.880339 201.101546 
L 179.333958 201.101546 
L 179.483377 198.297701 
L 179.785232 198.297701 
L 179.936401 201.101546 
L 180.087917 201.101546 
L 180.237479 203.915991 
L 180.387796 216.604876 
L 180.539176 219.672448 
L 180.690239 219.672448 
L 180.840443 218.216245 
L 180.991121 222.532134 
L 181.142298 218.216245 
L 182.801391 218.216245 
L 182.952522 221.079079 
L 183.25363 221.079079 
L 183.404762 225.402796 
L 183.706534 225.402796 
L 183.857212 222.532134 
L 184.008042 209.7955 
L 184.159014 206.958847 
L 184.31277 206.958847 
L 184.460379 203.915991 
L 184.613026 205.892803 
L 184.762076 203.080333 
L 185.214458 203.080333 
L 185.443085 198.297701 
L 185.66807 198.297701 
L 185.818342 213.767561 
L 186.121471 213.767561 
L 186.27178 203.915991 
L 186.42178 216.604876 
L 186.873529 216.604876 
L 187.024705 201.101546 
L 187.32647 201.101546 
L 187.477171 213.767561 
L 187.930142 213.767561 
L 188.081914 198.297701 
L 188.231062 198.297701 
L 188.383467 210.940924 
L 188.53447 198.297701 
L 189.437878 198.297701 
L 189.590005 184.686531 
L 189.74226 181.705175 
L 189.890879 200.063347 
L 190.042501 183.762002 
L 190.193111 183.762002 
L 190.343119 188.347201 
L 190.493662 185.583064 
L 190.64437 173.109548 
L 190.797817 173.109548 
L 190.946135 175.851265 
L 191.096874 171.22171 
L 191.248141 173.965403 
L 191.398427 189.519008 
L 191.549128 189.519008 
L 191.71124 192.307007 
L 192.454429 192.307007 
L 192.606186 195.105552 
L 192.755907 195.105552 
L 192.906525 198.131223 
L 193.359262 198.131223 
L 193.510258 211.768114 
L 193.661532 214.613484 
L 194.415083 214.613484 
L 194.566576 200.95186 
L 195.168951 200.95186 
L 195.321432 198.131223 
L 195.471161 198.131223 
L 195.622812 195.105552 
L 195.773348 195.105552 
L 195.924735 192.307007 
L 196.075157 192.307007 
L 196.225346 189.519008 
L 196.37619 189.519008 
L 196.602261 195.105552 
L 196.677577 195.105552 
L 196.828648 193.271787 
L 196.979138 198.131223 
L 197.130005 196.083601 
L 197.733602 196.083601 
L 197.884311 193.271787 
L 198.336633 193.271787 
L 198.488066 180.566866 
L 198.638368 180.566866 
L 198.790411 193.271787 
L 198.943609 198.131223 
L 199.1667 190.255584 
L 199.242809 190.255584 
L 199.392764 198.131223 
L 200.750379 198.131223 
L 200.901194 199.724567 
L 201.133282 194.121376 
L 202.107625 194.121376 
L 202.25899 196.917684 
L 202.409141 195.105552 
L 202.711071 195.105552 
L 202.861863 198.131223 
L 203.012187 190.255584 
L 203.163152 190.255584 
L 203.313974 193.271787 
L 203.465535 190.255584 
L 204.520866 190.255584 
L 204.671575 185.868734 
L 204.97447 185.868734 
L 205.124448 183.086878 
L 205.87812 183.086878 
L 206.029862 178.821321 
L 206.180186 163.338487 
L 206.332033 164.690049 
L 206.481415 161.963057 
L 206.632335 161.963057 
L 206.783541 159.246297 
L 206.934996 159.246297 
L 207.084393 154.970269 
L 207.236241 157.679322 
L 207.537884 157.679322 
L 207.688322 160.398582 
L 207.839 160.398582 
L 207.993118 163.338487 
L 208.141639 163.338487 
L 208.291375 161.569247 
L 208.44268 174.355728 
L 208.593034 174.355728 
L 208.743901 161.569247 
L 208.894889 174.355728 
L 209.045515 170.329232 
L 209.49826 170.329232 
L 209.64964 157.50259 
L 209.805175 157.50259 
L 209.951291 170.329232 
L 210.252135 153.553672 
L 210.40402 166.419519 
L 210.554737 166.419519 
L 210.704865 169.17116 
L 211.45905 169.17116 
L 211.610037 170.329232 
L 211.760746 157.50259 
L 211.911764 154.777468 
L 212.213265 154.777468 
L 212.36377 151.854216 
L 212.81656 151.854216 
L 212.967223 154.777468 
L 213.118158 154.777468 
L 213.346657 160.23804 
L 213.570873 160.23804 
L 213.721363 147.390388 
L 214.022909 147.390388 
L 214.174236 151.505363 
L 214.626671 151.505363 
L 214.780381 154.445719 
L 214.928534 140.630515 
L 215.383639 140.630515 
L 215.531791 145.252236 
L 216.73817 145.252236 
L 216.889565 147.976582 
L 217.039701 145.252236 
L 217.191322 145.252236 
L 217.340998 129.577249 
L 217.491714 126.897499 
L 217.79372 126.897499 
L 217.944828 124.227884 
L 218.248697 124.227884 
L 218.398123 126.897499 
L 218.548138 126.897499 
L 219.001999 140.630515 
L 219.15126 140.630515 
L 219.301961 143.346415 
L 219.45733 143.346415 
L 219.605045 127.805951 
L 221.266326 127.805951 
L 221.416197 114.985483 
L 222.325797 114.985483 
L 222.469477 119.701726 
L 222.621679 119.701726 
L 222.771279 116.829541 
L 222.921686 116.829541 
L 223.072576 114.173007 
L 223.225396 105.012065 
L 223.375517 105.012065 
L 223.525366 102.382264 
L 223.676708 105.012065 
L 223.830909 105.012065 
L 223.979295 118.659552 
L 224.205049 124.205313 
L 224.430192 124.205313 
L 224.581888 126.891163 
L 224.732605 142.361612 
L 224.883012 137.886919 
L 225.184512 137.886919 
L 225.335055 142.361612 
L 225.486375 142.361612 
L 225.637777 158.106997 
L 225.939089 158.106997 
L 226.090597 160.871664 
L 226.240974 160.871664 
L 226.39068 174.692816 
L 226.542422 171.902852 
L 227.447172 171.902852 
L 227.598168 174.692816 
L 227.748876 171.902852 
L 228.050716 171.902852 
L 228.201191 173.408899 
L 228.352089 173.408899 
L 228.502933 156.937171 
L 228.804977 156.937171 
L 228.955142 154.196495 
L 229.107819 159.204196 
L 229.257261 151.256628 
L 229.558151 151.256628 
L 229.710277 154.196495 
L 229.860918 154.196495 
L 230.011401 152.398526 
L 230.161702 152.398526 
L 230.312026 166.142122 
L 230.765035 166.142122 
L 230.917071 152.398526 
L 231.067878 159.017866 
L 231.222644 159.017866 
L 231.368602 161.767338 
L 231.51925 161.767338 
L 231.671052 159.017866 
L 231.972711 159.017866 
L 232.122379 168.83015 
L 232.725652 168.83015 
L 233.02762 161.569247 
L 233.630756 161.569247 
L 233.781322 166.079127 
L 233.932672 163.338487 
L 234.083207 163.338487 
L 234.234315 167.638312 
L 234.46114 161.963057 
L 234.68651 161.963057 
L 234.837844 164.690049 
L 234.988274 164.690049 
L 235.14218 167.638312 
L 235.290189 180.315511 
L 235.442075 178.821321 
L 235.667301 184.594734 
L 236.34632 184.594734 
L 236.498069 187.39078 
L 236.94926 187.39078 
L 237.100406 201.193235 
L 237.250331 191.680198 
L 237.401507 194.494809 
L 237.552465 208.277474 
L 237.704214 194.494809 
L 237.854418 191.680198 
L 238.155639 191.680198 
L 238.306175 205.437842 
L 238.457449 205.437842 
L 238.609206 191.680198 
L 238.760488 205.437842 
L 238.910126 191.680198 
L 239.061174 205.437842 
L 239.211769 191.680198 
L 239.362456 193.271787 
L 239.516113 190.255584 
L 239.664265 190.255584 
L 239.815215 192.307007 
L 239.965826 192.307007 
L 240.116414 189.519008 
L 240.569362 189.519008 
L 240.720177 187.465799 
L 240.87161 187.465799 
L 241.021723 177.575443 
L 241.172152 177.575443 
L 241.3244 193.271787 
L 241.474648 177.575443 
L 241.625108 180.566866 
L 242.531223 180.566866 
L 242.680869 183.355588 
L 242.831645 170.632649 
L 242.982339 170.632649 
L 243.134639 167.867047 
L 243.435951 167.867047 
L 243.812286 149.666119 
L 244.189163 149.666119 
L 244.340211 146.735125 
L 244.641832 146.735125 
L 244.792292 135.897468 
L 244.943076 135.897468 
L 245.093868 133.211511 
L 245.245007 120.600937 
L 245.395444 117.744333 
L 245.545964 122.814031 
L 245.699049 122.814031 
L 245.924674 117.744333 
L 245.998558 117.744333 
L 246.149606 120.600937 
L 246.453776 120.600937 
L 246.603558 118.659552 
L 246.753226 118.659552 
L 246.903799 121.324276 
L 247.054809 121.324276 
L 247.206061 118.659552 
L 247.355948 118.659552 
L 247.507878 116.004912 
L 247.959507 116.004912 
L 248.260871 108.687665 
L 248.41293 113.157291 
L 248.562915 113.157291 
L 248.713872 99.561296 
L 249.015018 95.042512 
L 249.316851 102.382264 
L 249.468321 97.854613 
L 249.619875 97.854613 
L 249.770538 95.042512 
L 250.071413 95.042512 
L 250.297423 89.85029 
L 250.523705 89.85029 
L 250.675583 91.564285 
L 250.976706 91.564285 
L 251.126925 88.985131 
L 251.428991 88.985131 
L 251.579843 87.070656 
L 251.733002 89.85029 
L 251.886238 89.85029 
L 252.108349 95.042512 
L 252.183477 95.042512 
L 252.33632 97.854613 
L 252.634819 97.854613 
L 252.786569 100.476149 
L 253.087684 100.476149 
L 253.23831 97.854613 
L 253.389773 111.526529 
L 253.692216 111.526529 
L 253.841568 106.836693 
L 254.596295 106.836693 
L 254.746635 109.47462 
L 255.050081 109.47462 
L 255.200322 106.836693 
L 255.350224 111.526529 
L 255.576717 104.007005 
L 255.651928 104.007005 
L 255.803014 108.687665 
L 255.953436 106.061892 
L 256.104424 106.061892 
L 256.256422 103.446004 
L 256.407252 103.446004 
L 256.55738 91.564285 
L 256.708073 87.070656 
L 257.010826 87.070656 
L 257.160222 100.639891 
L 257.31357 89.85029 
L 257.461911 89.85029 
L 257.612529 92.441502 
L 257.764226 92.441502 
L 257.914037 95.042512 
L 258.065915 108.687665 
L 258.671375 108.687665 
L 258.819957 104.007005 
L 258.970085 104.007005 
L 259.120869 111.526529 
L 259.423086 111.526529 
L 259.573402 97.854613 
L 259.726773 111.526529 
L 259.876343 97.854613 
L 260.026532 108.687665 
L 260.176456 95.042512 
L 260.629435 95.042512 
L 260.781275 92.441502 
L 260.931056 106.061892 
L 261.082489 108.687665 
L 261.233778 106.061892 
L 261.384268 106.061892 
L 261.534298 103.446004 
L 261.685045 89.85029 
L 261.836809 100.639891 
L 261.986636 87.070656 
L 262.137593 100.639891 
L 262.439425 100.639891 
L 262.589999 89.85029 
L 262.741688 92.441502 
L 262.89205 106.061892 
L 263.118165 111.526529 
L 263.496121 111.526529 
L 263.646121 106.836693 
L 264.249258 106.836693 
L 264.39974 122.246572 
L 265.006128 122.246572 
L 265.154695 124.91784 
L 266.662046 124.91784 
L 266.813479 122.246572 
L 266.964814 122.246572 
L 267.114813 124.227884 
L 267.265628 124.227884 
L 267.42068 108.687665 
L 267.567656 108.687665 
L 267.739926 106.061892 
L 267.869051 106.061892 
L 268.095612 111.526529 
L 268.322829 111.526529 
L 268.472655 109.47462 
L 268.701275 114.985483 
L 269.229336 114.985483 
L 269.378235 112.122573 
L 269.625218 112.122573 
L 269.830007 114.985483 
L 270.885941 114.985483 
L 271.041394 112.122573 
L 271.338746 112.122573 
L 271.489229 109.47462 
L 272.091928 109.47462 
L 272.24315 106.836693 
L 272.393964 106.836693 
L 272.544876 104.007005 
L 272.699567 106.061892 
L 272.846482 92.441502 
L 272.99747 89.85029 
L 273.300147 89.85029 
L 273.450939 103.446004 
L 273.600335 106.061892 
L 273.752884 106.061892 
L 273.902296 101.389722 
L 274.053201 104.007005 
L 274.204498 104.007005 
L 274.354369 106.836693 
L 274.506013 104.007005 
L 274.807484 104.007005 
L 274.958336 116.73079 
L 275.259776 116.73079 
L 275.410462 119.58541 
L 275.562023 119.58541 
L 275.712566 106.836693 
L 276.090454 124.227884 
L 277.673032 124.227884 
L 277.823476 121.364194 
L 277.97457 108.687665 
L 278.126063 106.061892 
L 278.276244 107.899452 
L 278.728717 107.899452 
L 279.0307 112.4699 
L 279.182427 107.899452 
L 279.332178 120.485465 
L 279.483437 123.132225 
L 279.633693 113.157291 
L 279.785873 116.004912 
L 279.937072 116.004912 
L 280.086197 128.661325 
L 280.99103 128.661325 
L 281.142516 116.004912 
L 281.594649 116.004912 
L 281.745645 120.600937 
L 282.047515 120.600937 
L 282.198216 117.744333 
L 282.650674 117.744333 
L 282.801179 120.600937 
L 282.953328 120.600937 
L 283.10283 117.744333 
L 283.253939 117.744333 
L 283.405266 115.102146 
L 283.558071 115.102146 
L 283.706088 112.4699 
L 283.859549 117.521269 
L 284.007822 101.271884 
L 284.159187 98.675208 
L 284.309986 112.066928 
L 284.46068 112.066928 
L 284.611494 114.687787 
L 284.76218 109.646235 
L 284.989669 115.102146 
L 285.063545 115.102146 
L 285.21454 127.665314 
L 285.365219 113.157291 
L 285.515581 125.788978 
L 285.968559 125.788978 
L 286.119917 128.661325 
L 287.326861 128.661325 
L 287.47711 131.339007 
L 287.627555 131.339007 
L 287.778799 128.661325 
L 287.93266 128.661325 
L 288.082999 131.339007 
L 288.231363 128.661325 
L 288.381619 128.661325 
L 288.535201 131.339007 
L 288.685118 128.661325 
L 288.834635 116.004912 
L 288.984816 113.157291 
L 289.137501 117.744333 
L 289.289688 115.102146 
L 289.438277 115.102146 
L 289.588503 112.4699 
L 289.740162 98.97306 
L 290.041157 98.97306 
L 290.192349 101.580835 
L 290.345524 115.102146 
L 290.494581 117.744333 
L 290.644174 113.157291 
L 290.795237 113.157291 
L 290.947461 116.004912 
L 291.399422 116.004912 
L 291.561993 102.382264 
L 291.701156 116.004912 
L 292.002129 116.004912 
L 292.153184 102.382264 
L 292.30384 102.382264 
L 292.455077 116.004912 
L 292.605522 102.382264 
L 292.757347 102.382264 
L 292.906803 97.854613 
L 293.05764 111.526529 
L 293.217897 114.173007 
L 293.35905 111.526529 
L 293.510325 111.526529 
L 293.660762 97.854613 
L 294.114359 97.854613 
L 294.264442 99.561296 
L 294.414736 99.561296 
L 294.56687 96.952081 
L 294.716945 96.952081 
L 294.867405 94.352692 
L 295.018694 98.97306 
L 295.621748 98.97306 
L 295.84944 94.352692 
L 295.923814 94.352692 
L 296.074101 96.952081 
L 296.225428 96.952081 
L 296.37625 99.561296 
L 296.526559 99.561296 
L 296.67812 113.157291 
L 296.828617 110.523415 
L 298.78897 110.523415 
L 298.940078 106.061892 
L 299.392303 106.061892 
L 299.544595 103.446004 
L 299.845409 103.446004 
L 299.995892 105.084675 
L 300.297136 105.084675 
L 300.447973 88.985131 
L 300.599225 93.588175 
L 301.051298 93.588175 
L 301.202444 91.564285 
L 301.354413 94.352692 
L 301.504578 110.523415 
L 301.655355 110.523415 
L 301.808477 108.687665 
L 303.012518 108.687665 
L 303.163054 95.042512 
L 303.465429 95.042512 
L 303.615806 97.854613 
L 303.76668 95.042512 
L 303.917751 97.854613 
L 304.370458 97.854613 
L 304.520941 100.476149 
L 304.822336 100.476149 
L 304.973572 82.964356 
L 305.123964 95.725725 
L 305.274967 82.964356 
L 305.50103 77.596943 
L 305.576634 77.596943 
L 305.72741 75.027647 
L 305.878307 79.800412 
L 306.032885 77.232136 
L 306.180901 64.620764 
L 306.332447 67.166084 
L 306.484219 59.807014 
L 306.707402 64.889719 
L 306.782651 64.889719 
L 306.934988 67.642532 
L 307.085343 63.275487 
L 307.236029 63.275487 
L 307.387016 65.833767 
L 308.00863 65.833767 
L 308.218894 63.275487 
L 308.593079 63.275487 
L 308.744157 60.531262 
L 308.905341 64.889719 
L 309.04657 62.343563 
L 309.196396 62.343563 
L 309.346992 57.99305 
L 309.497972 57.99305 
L 309.648975 62.343563 
L 310.102067 62.343563 
L 310.253477 64.889719 
L 310.404088 64.889719 
L 310.553801 62.343563 
L 310.705603 62.343563 
L 310.855377 77.232136 
L 311.006696 64.620764 
L 311.157171 61.890374 
L 311.307963 74.477113 
L 311.459773 59.364899 
L 311.613106 71.928848 
L 312.06251 71.928848 
L 312.213098 84.499619 
L 312.367397 82.364541 
L 312.5145 85.134982 
L 312.666114 85.134982 
L 312.817743 87.717627 
L 312.967675 97.175703 
L 313.420156 97.175703 
L 313.570382 99.785325 
L 315.2298 99.785325 
L 315.383993 97.175703 
L 315.681851 97.175703 
L 315.83323 83.456677 
L 315.985282 97.175703 
L 316.285477 97.175703 
L 316.438961 85.134982 
L 316.587144 85.134982 
L 316.73915 82.364541 
L 316.888825 82.364541 
L 317.03967 84.499619 
L 317.190431 79.80201 
L 317.344775 79.80201 
L 317.491758 82.364541 
L 317.645567 82.364541 
L 317.794518 85.134982 
L 317.945612 83.456677 
L 318.095476 97.175703 
L 318.245709 97.175703 
L 318.398635 99.785325 
L 318.547904 97.175703 
L 319.001048 97.175703 
L 319.151327 107.296345 
L 319.303831 97.175703 
L 319.452714 97.175703 
L 319.604072 93.082755 
L 319.755836 97.175703 
L 319.90518 93.082755 
L 320.057156 105.868071 
L 320.508656 105.868071 
L 320.659659 93.082755 
L 321.564515 93.082755 
L 321.717954 94.57591 
L 321.868934 91.787068 
L 322.017086 78.119619 
L 322.168888 79.80201 
L 322.320404 77.249081 
L 322.922432 77.249081 
L 323.077025 79.80201 
L 323.224453 79.80201 
L 323.450795 85.134982 
L 323.525637 85.134982 
L 323.678759 80.881764 
L 323.828276 83.456677 
L 323.977673 97.175703 
L 324.279656 97.175703 
L 324.430613 83.456677 
L 324.581058 83.456677 
L 324.882988 101.389722 
L 325.036834 97.175703 
L 325.336382 97.175703 
L 325.486879 87.717627 
L 325.636683 101.389722 
L 325.787822 99.785325 
L 325.938847 90.31004 
L 326.090061 90.31004 
L 326.241343 86.041332 
L 326.391924 86.041332 
L 326.541486 99.785325 
L 326.703304 99.785325 
L 326.843507 102.606733 
L 327.144917 102.606733 
L 327.59779 87.717627 
L 327.748446 87.717627 
L 327.898747 89.85029 
L 328.502465 89.85029 
L 328.657201 92.441502 
L 328.804063 90.31004 
L 328.955044 90.31004 
L 329.181733 95.725725 
L 330.16235 95.725725 
L 330.312795 93.112849 
L 330.765147 93.112849 
L 330.917244 95.725725 
L 331.068239 95.725725 
L 331.217673 93.112849 
L 331.669732 93.112849 
L 331.822288 95.725725 
L 332.574927 95.725725 
L 332.726179 93.112849 
L 332.877762 95.042512 
L 333.027566 95.042512 
L 333.178139 92.441502 
L 333.330673 92.441502 
L 333.479843 81.780817 
L 333.630545 79.016918 
L 333.933508 79.016918 
L 334.106653 81.780817 
L 334.235205 81.780817 
L 334.461117 86.94366 
L 334.537143 86.94366 
L 334.688274 97.854613 
L 334.837301 97.854613 
L 334.988454 100.476149 
L 335.742315 100.476149 
L 335.893469 97.854613 
L 335.988687 100.476149 
L 336.949667 100.476149 
L 337.100949 114.173007 
L 338.307509 114.173007 
L 338.457071 97.854613 
L 338.608293 111.526529 
L 338.759273 113.157291 
L 338.909869 99.561296 
L 339.060683 96.952081 
L 339.212681 98.97306 
L 339.513194 98.97306 
L 339.740079 104.198465 
L 339.966768 104.198465 
L 340.11667 107.028529 
L 340.267944 107.028529 
L 340.420727 109.666805 
L 340.644543 102.382264 
L 340.723464 102.382264 
L 340.871858 105.012065 
L 342.077445 105.012065 
L 342.228448 102.382264 
L 342.379632 105.012065 
L 342.68034 105.012065 
L 342.831381 118.659552 
L 343.284902 118.659552 
L 343.434457 116.004912 
L 343.88727 116.004912 
L 344.038446 113.157291 
L 344.189102 115.102146 
L 344.340957 115.102146 
L 344.490437 112.4699 
L 344.641907 96.175655 
L 344.942759 96.175655 
L 345.093845 98.97306 
L 345.244659 112.4699 
L 345.395918 115.102146 
L 345.546333 115.102146 
L 345.699885 110.523415 
L 345.847917 113.157291 
L 346.150307 113.157291 
L 346.300578 116.004912 
L 347.054658 116.004912 
L 347.20658 102.382264 
L 347.355985 111.526529 
L 347.508088 97.854613 
L 347.959649 97.854613 
L 348.110388 100.476149 
L 348.262801 100.476149 
L 348.412876 97.854613 
L 348.563193 100.476149 
L 348.714664 87.763983 
L 349.01587 87.763983 
L 349.166722 90.372223 
L 349.317401 87.763983 
L 349.415266 87.763983 
L 349.618728 85.16563 
L 349.769813 72.483367 
L 349.920635 72.483367 
L 350.073026 69.721042 
L 350.222219 74.33358 
L 350.37295 69.721042 
L 350.523855 74.33358 
L 350.67439 69.721042 
L 350.900665 75.058515 
L 351.277617 75.058515 
L 351.579578 56.479123 
L 351.730498 70.208814 
L 351.880724 75.058515 
L 352.033288 75.058515 
L 352.183039 70.208814 
L 352.334321 75.058515 
L 352.484253 75.058515 
L 352.634992 87.763983 
L 352.786123 85.16563 
L 353.3907 85.16563 
L 353.540436 80.374765 
L 353.691499 85.16563 
L 353.841884 85.16563 
L 354.143203 77.596943 
L 354.294666 77.596943 
L 354.446182 90.31004 
L 354.747343 90.31004 
L 354.897222 92.441502 
L 355.199333 92.441502 
L 355.351196 89.85029 
L 355.500939 94.352692 
L 355.652025 89.85029 
L 355.95477 89.85029 
L 356.104725 92.441502 
L 356.255102 108.687665 
L 356.405863 95.042512 
L 356.557794 93.112849 
L 356.707741 93.112849 
L 356.860176 109.47462 
L 357.162763 109.47462 
L 357.311948 105.236943 
L 358.517581 105.236943 
L 358.668425 107.877152 
L 358.821887 107.877152 
L 358.971193 109.47462 
L 359.57399 109.47462 
L 359.724088 124.91784 
L 360.025784 124.91784 
L 360.177036 122.246572 
L 360.328024 122.246572 
L 360.478408 114.173007 
L 360.704796 108.687665 
L 360.781131 108.687665 
L 360.931839 113.157291 
L 361.081915 110.523415 
L 361.23248 110.523415 
L 361.383641 117.744333 
L 361.609961 113.157291 
L 361.987291 113.157291 
L 362.137917 116.004912 
L 362.288505 116.004912 
L 362.515058 121.324276 
L 362.590051 121.324276 
L 362.741234 118.659552 
L 363.646317 118.659552 
L 363.796377 105.012065 
L 363.947855 102.382264 
L 364.098307 107.028529 
L 364.25026 102.382264 
L 364.400162 104.198465 
L 364.551316 99.561296 
L 364.701685 99.561296 
L 364.852922 104.198465 
L 365.003344 104.198465 
L 365.154475 107.028529 
L 365.305538 102.382264 
L 365.456104 107.028529 
L 365.606797 102.382264 
L 365.758735 104.198465 
L 365.908735 104.198465 
L 366.059904 101.580835 
L 366.360967 101.580835 
L 366.511917 98.97306 
L 367.116065 98.97306 
L 367.270016 101.580835 
L 367.416479 115.102146 
L 367.567278 113.157291 
L 367.719103 116.004912 
L 367.869216 116.004912 
L 368.0204 131.339007 
L 368.170558 118.659552 
L 368.321365 116.004912 
L 368.472768 128.661325 
L 369.678574 128.661325 
L 369.830089 125.788978 
L 369.980617 125.788978 
L 370.131522 128.661325 
L 370.282035 125.788978 
L 370.584651 125.788978 
L 370.734824 128.661325 
L 371.338278 128.661325 
L 371.488843 125.788978 
L 371.639529 125.788978 
L 371.791053 130.330283 
L 371.944016 130.330283 
L 372.092576 132.675719 
L 372.54609 132.675719 
L 372.696233 147.892854 
L 372.84655 150.80838 
L 372.997809 167.092845 
L 373.148344 164.900432 
L 373.299392 180.566866 
L 373.600584 180.566866 
L 373.75176 183.355588 
L 373.902921 196.083601 
L 374.204045 196.083601 
L 374.355673 212.643048 
L 374.659346 212.643048 
L 374.807166 225.402796 
L 374.95844 228.506368 
L 375.109549 228.506368 
L 375.260386 241.294532 
L 375.712459 241.294532 
L 375.864767 233.296439 
L 376.015453 236.19846 
L 376.164676 248.964387 
L 376.315287 236.19846 
L 376.541999 248.964387 
L 377.371696 248.964387 
L 377.523453 233.296439 
L 377.673302 246.039215 
L 377.824878 236.19846 
L 377.974675 236.19846 
L 378.125708 251.900722 
L 378.276545 255.075477 
L 378.427359 255.075477 
L 378.578867 253.255204 
L 378.728807 253.255204 
L 378.955805 259.420497 
L 379.332524 259.420497 
L 379.561604 249.450325 
L 379.784877 249.450325 
L 379.935827 265.40418 
L 380.089017 248.026838 
L 380.238413 251.233497 
L 380.388202 264.28144 
L 380.538956 251.233497 
L 380.690909 251.233497 
L 380.845155 267.29515 
L 380.991535 254.223114 
L 381.142311 254.223114 
L 381.293148 257.22435 
L 381.443668 257.22435 
L 381.594264 256.153502 
L 381.745817 256.153502 
L 381.899407 259.171066 
L 382.048102 259.171066 
L 382.197853 262.200548 
L 382.348833 259.171066 
L 382.952468 259.171066 
L 383.102913 250.3507 
L 383.253742 262.200548 
L 383.404632 265.476203 
L 383.564081 265.476203 
L 383.706291 268.53029 
L 383.857279 267.03546 
L 384.087746 273.424385 
L 384.160317 273.424385 
L 384.309412 276.519262 
L 384.463221 276.519262 
L 384.61227 275.721612 
L 384.762896 289.199416 
L 384.912964 275.721612 
L 385.063808 278.834221 
L 385.215377 278.834221 
L 385.364992 292.337468 
L 385.518574 292.337468 
L 385.666824 295.488 
L 385.818242 278.834221 
L 385.968845 274.802834 
L 386.195218 281.959219 
L 386.27104 281.959219 
L 386.421349 268.430231 
L 386.571854 277.920201 
L 386.722789 281.959219 
L 386.873807 268.430231 
L 387.627524 268.430231 
L 387.779221 250.789021 
L 387.929273 247.729398 
L 388.080502 251.959811 
L 388.231249 248.669798 
L 388.381656 232.245559 
L 388.532961 236.965513 
L 388.683564 233.95136 
L 389.442092 233.95136 
L 389.588812 236.965513 
L 389.739498 250.300586 
L 389.890584 250.300586 
L 390.041451 253.351882 
L 390.343698 253.351882 
L 390.493298 250.300586 
L 391.097144 250.300586 
L 391.248358 247.261331 
L 391.400175 247.261331 
L 391.549443 261.5976 
L 392.303937 261.5976 
L 392.454722 258.308994 
L 392.756275 258.308994 
L 392.908341 271.596386 
L 393.058952 271.596386 
L 393.209186 274.911839 
L 393.359676 271.596386 
L 393.510037 271.596386 
L 393.660354 272.879172 
L 393.811764 259.659185 
L 393.964373 264.167514 
L 394.11331 264.167514 
L 394.263951 261.121564 
L 394.415647 261.121564 
L 394.565979 257.854639 
L 394.716726 270.980247 
L 394.86754 274.273525 
L 395.018633 274.273525 
L 395.169176 277.344036 
L 395.32036 277.344036 
L 395.471046 290.523438 
L 395.623354 290.523438 
L 395.772622 277.344036 
L 395.923859 277.344036 
L 396.074492 290.523438 
L 396.376008 290.523438 
L 396.526807 282.280731 
L 396.678036 279.201029 
L 397.132998 279.201029 
L 397.280916 292.308986 
L 397.431527 288.979641 
L 397.582703 288.979641 
L 397.733827 290.531505 
L 397.883827 285.900485 
L 398.035101 290.531505 
L 398.186262 290.531505 
L 398.337552 287.455883 
L 398.487273 287.455883 
L 398.487273 287.455883 
" clip-path="url(#p3cf8c86227)" style="fill: none; stroke: #1f77b4; stroke-width: 1.5; stroke-linecap: square"/>
   </g>
   <g id="patch_3">
    <path d="M 57.6 307.584 
L 57.6 41.472 
" style="fill: none; stroke: #000000; stroke-width: 0.8; stroke-linejoin: miter; stroke-linecap: square"/>
   </g>
   <g id="patch_4">
    <path d="M 414.72 307.584 
L 414.72 41.472 
" style="fill: none; stroke: #000000; stroke-width: 0.8; stroke-linejoin: miter; stroke-linecap: square"/>
   </g>
   <g id="patch_5">
    <path d="M 57.6 307.584 
L 414.72 307.584 
" style="fill: none; stroke: #000000; stroke-width: 0.8; stroke-linejoin: miter; stroke-linecap: square"/>
   </g>
   <g id="patch_6">
    <path d="M 57.6 41.472 
L 414.72 41.472 
" style="fill: none; stroke: #000000; stroke-width: 0.8; stroke-linejoin: miter; stroke-linecap: square"/>
   </g>
   <g id="text_16">
    <!-- Oskar-Nidarosdomen-vinkel -->
    <g transform="translate(153.78375 35.472) scale(0.12 -0.12)">
     <defs>
      <path id="DejaVuSans-4f" d="M 2522 4238 
Q 1834 4238 1429 3725 
Q 1025 3213 1025 2328 
Q 1025 1447 1429 934 
Q 1834 422 2522 422 
Q 3209 422 3611 934 
Q 4013 1447 4013 2328 
Q 4013 3213 3611 3725 
Q 3209 4238 2522 4238 
z
M 2522 4750 
Q 3503 4750 4090 4092 
Q 4678 3434 4678 2328 
Q 4678 1225 4090 567 
Q 3503 -91 2522 -91 
Q 1538 -91 948 565 
Q 359 1222 359 2328 
Q 359 3434 948 4092 
Q 1538 4750 2522 4750 
z
" transform="scale(0.015625)"/>
      <path id="DejaVuSans-6b" d="M 581 4863 
L 1159 4863 
L 1159 1991 
L 2875 3500 
L 3609 3500 
L 1753 1863 
L 3688 0 
L 2938 0 
L 1159 1709 
L 1159 0 
L 581 0 
L 581 4863 
z
" transform="scale(0.015625)"/>
      <path id="DejaVuSans-61" d="M 2194 1759 
Q 1497 1759 1228 1600 
Q 959 1441 959 1056 
Q 959 750 1161 570 
Q 1363 391 1709 391 
Q 2188 391 2477 730 
Q 2766 1069 2766 1631 
L 2766 1759 
L 2194 1759 
z
M 3341 1997 
L 3341 0 
L 2766 0 
L 2766 531 
Q 2569 213 2275 61 
Q 1981 -91 1556 -91 
Q 1019 -91 701 211 
Q 384 513 384 1019 
Q 384 1609 779 1909 
Q 1175 2209 1959 2209 
L 2766 2209 
L 2766 2266 
Q 2766 2663 2505 2880 
Q 2244 3097 1772 3097 
Q 1472 3097 1187 3025 
Q 903 2953 641 2809 
L 641 3341 
Q 956 3463 1253 3523 
Q 1550 3584 1831 3584 
Q 2591 3584 2966 3190 
Q 3341 2797 3341 1997 
z
" transform="scale(0.015625)"/>
      <path id="DejaVuSans-72" d="M 2631 2963 
Q 2534 3019 2420 3045 
Q 2306 3072 2169 3072 
Q 1681 3072 1420 2755 
Q 1159 2438 1159 1844 
L 1159 0 
L 581 0 
L 581 3500 
L 1159 3500 
L 1159 2956 
Q 1341 3275 1631 3429 
Q 1922 3584 2338 3584 
Q 2397 3584 2469 3576 
Q 2541 3569 2628 3553 
L 2631 2963 
z
" transform="scale(0.015625)"/>
      <path id="DejaVuSans-2d" d="M 313 2009 
L 1997 2009 
L 1997 1497 
L 313 1497 
L 313 2009 
z
" transform="scale(0.015625)"/>
      <path id="DejaVuSans-4e" d="M 628 4666 
L 1478 4666 
L 3547 763 
L 3547 4666 
L 4159 4666 
L 4159 0 
L 3309 0 
L 1241 3903 
L 1241 0 
L 628 0 
L 628 4666 
z
" transform="scale(0.015625)"/>
      <path id="DejaVuSans-6f" d="M 1959 3097 
Q 1497 3097 1228 2736 
Q 959 2375 959 1747 
Q 959 1119 1226 758 
Q 1494 397 1959 397 
Q 2419 397 2687 759 
Q 2956 1122 2956 1747 
Q 2956 2369 2687 2733 
Q 2419 3097 1959 3097 
z
M 1959 3584 
Q 2709 3584 3137 3096 
Q 3566 2609 3566 1747 
Q 3566 888 3137 398 
Q 2709 -91 1959 -91 
Q 1206 -91 779 398 
Q 353 888 353 1747 
Q 353 2609 779 3096 
Q 1206 3584 1959 3584 
z
" transform="scale(0.015625)"/>
      <path id="DejaVuSans-6e" d="M 3513 2113 
L 3513 0 
L 2938 0 
L 2938 2094 
Q 2938 2591 2744 2837 
Q 2550 3084 2163 3084 
Q 1697 3084 1428 2787 
Q 1159 2491 1159 1978 
L 1159 0 
L 581 0 
L 581 3500 
L 1159 3500 
L 1159 2956 
Q 1366 3272 1645 3428 
Q 1925 3584 2291 3584 
Q 2894 3584 3203 3211 
Q 3513 2838 3513 2113 
z
" transform="scale(0.015625)"/>
      <path id="DejaVuSans-76" d="M 191 3500 
L 800 3500 
L 1894 563 
L 2988 3500 
L 3597 3500 
L 2284 0 
L 1503 0 
L 191 3500 
z
" transform="scale(0.015625)"/>
      <path id="DejaVuSans-6c" d="M 603 4863 
L 1178 4863 
L 1178 0 
L 603 0 
L 603 4863 
z
" transform="scale(0.015625)"/>
     </defs>
     <use xlink:href="#DejaVuSans-4f"/>
     <use xlink:href="#DejaVuSans-73" x="78.710938"/>
     <use xlink:href="#DejaVuSans-6b" x="130.810547"/>
     <use xlink:href="#DejaVuSans-61" x="186.970703"/>
     <use xlink:href="#DejaVuSans-72" x="248.25"/>
     <use xlink:href="#DejaVuSans-2d" x="282.988281"/>
     <use xlink:href="#DejaVuSans-4e" x="319.072266"/>
     <use xlink:href="#DejaVuSans-69" x="393.876953"/>
     <use xlink:href="#DejaVuSans-64" x="421.660156"/>
     <use xlink:href="#DejaVuSans-61" x="485.136719"/>
     <use xlink:href="#DejaVuSans-72" x="546.416016"/>
     <use xlink:href="#DejaVuSans-6f" x="585.279297"/>
     <use xlink:href="#DejaVuSans-73" x="646.460938"/>
     <use xlink:href="#DejaVuSans-64" x="698.560547"/>
     <use xlink:href="#DejaVuSans-6f" x="762.037109"/>
     <use xlink:href="#DejaVuSans-6d" x="823.21875"/>
     <use xlink:href="#DejaVuSans-65" x="920.630859"/>
     <use xlink:href="#DejaVuSans-6e" x="982.154297"/>
     <use xlink:href="#DejaVuSans-2d" x="1045.533203"/>
     <use xlink:href="#DejaVuSans-76" x="1078.992188"/>
     <use xlink:href="#DejaVuSans-69" x="1138.171875"/>
     <use xlink:href="#DejaVuSans-6e" x="1165.955078"/>
     <use xlink:href="#DejaVuSans-6b" x="1229.333984"/>
     <use xlink:href="#DejaVuSans-65" x="1283.619141"/>
     <use xlink:href="#DejaVuSans-6c" x="1345.142578"/>
    </g>
   </g>
   <g id="legend_1">
    <g id="patch_7">
     <path d="M 64.6 302.584 
L 233.89375 302.584 
Q 235.89375 302.584 235.89375 300.584 
L 235.89375 286.905875 
Q 235.89375 284.905875 233.89375 284.905875 
L 64.6 284.905875 
Q 62.6 284.905875 62.6 286.905875 
L 62.6 300.584 
Q 62.6 302.584 64.6 302.584 
z
" style="fill: #ffffff; opacity: 0.8; stroke: #cccccc; stroke-linejoin: miter"/>
    </g>
    <g id="line2d_15">
     <path d="M 66.6 293.004312 
L 76.6 293.004312 
L 86.6 293.004312 
" style="fill: none; stroke: #1f77b4; stroke-width: 1.5; stroke-linecap: square"/>
    </g>
    <g id="text_17">
     <!-- Oskar-Nidarosdomen-vinkel -->
     <g transform="translate(94.6 296.504312) scale(0.1 -0.1)">
      <use xlink:href="#DejaVuSans-4f"/>
      <use xlink:href="#DejaVuSans-73" x="78.710938"/>
      <use xlink:href="#DejaVuSans-6b" x="130.810547"/>
      <use xlink:href="#DejaVuSans-61" x="186.970703"/>
      <use xlink:href="#DejaVuSans-72" x="248.25"/>
      <use xlink:href="#DejaVuSans-2d" x="282.988281"/>
      <use xlink:href="#DejaVuSans-4e" x="319.072266"/>
      <use xlink:href="#DejaVuSans-69" x="393.876953"/>
      <use xlink:href="#DejaVuSans-64" x="421.660156"/>
      <use xlink:href="#DejaVuSans-61" x="485.136719"/>
      <use xlink:href="#DejaVuSans-72" x="546.416016"/>
      <use xlink:href="#DejaVuSans-6f" x="585.279297"/>
      <use xlink:href="#DejaVuSans-73" x="646.460938"/>
      <use xlink:href="#DejaVuSans-64" x="698.560547"/>
      <use xlink:href="#DejaVuSans-6f" x="762.037109"/>
      <use xlink:href="#DejaVuSans-6d" x="823.21875"/>
      <use xlink:href="#DejaVuSans-65" x="920.630859"/>
      <use xlink:href="#DejaVuSans-6e" x="982.154297"/>
      <use xlink:href="#DejaVuSans-2d" x="1045.533203"/>
      <use xlink:href="#DejaVuSans-76" x="1078.992188"/>
      <use xlink:href="#DejaVuSans-69" x="1138.171875"/>
      <use xlink:href="#DejaVuSans-6e" x="1165.955078"/>
      <use xlink:href="#DejaVuSans-6b" x="1229.333984"/>
      <use xlink:href="#DejaVuSans-65" x="1283.619141"/>
      <use xlink:href="#DejaVuSans-6c" x="1345.142578"/>
     </g>
    </g>
   </g>
  </g>
 </g>
 <defs>
  <clipPath id="p3cf8c86227">
   <rect x="57.6" y="41.472" width="357.12" height="266.112"/>
  </clipPath>
 </defs>
</svg>
