<?xml version="1.0" encoding="utf-8" standalone="no"?>
<!DOCTYPE svg PUBLIC "-//W3C//DTD SVG 1.1//EN"
  "http://www.w3.org/Graphics/SVG/1.1/DTD/svg11.dtd">
<svg xmlns:xlink="http://www.w3.org/1999/xlink" width="645.209266pt" height="458.691562pt" viewBox="0 0 645.209266 458.691562" xmlns="http://www.w3.org/2000/svg" version="1.1">
 <metadata>
  <rdf:RDF xmlns:dc="http://purl.org/dc/elements/1.1/" xmlns:cc="http://creativecommons.org/ns#" xmlns:rdf="http://www.w3.org/1999/02/22-rdf-syntax-ns#">
   <cc:Work>
    <dc:type rdf:resource="http://purl.org/dc/dcmitype/StillImage"/>
    <dc:date>2023-04-10T19:04:18.724930</dc:date>
    <dc:format>image/svg+xml</dc:format>
    <dc:creator>
     <cc:Agent>
      <dc:title>Matplotlib v3.7.1, https://matplotlib.org/</dc:title>
     </cc:Agent>
    </dc:creator>
   </cc:Work>
  </rdf:RDF>
 </metadata>
 <defs>
  <style type="text/css">*{stroke-linejoin: round; stroke-linecap: butt}</style>
 </defs>
 <g id="figure_1">
  <g id="patch_1">
   <path d="M 0 458.691562 
L 645.209266 458.691562 
L 645.209266 0 
L 0 0 
L 0 458.691562 
z
" style="fill: none"/>
  </g>
  <g id="axes_1">
   <g id="patch_2">
    <path d="M 72.342187 414.957187 
L 630.342188 414.957187 
L 630.342188 26.877187 
L 72.342187 26.877187 
L 72.342187 414.957187 
z
" style="fill: none"/>
   </g>
   <g id="matplotlib.axis_1">
    <g id="xtick_1">
     <g id="line2d_1">
      <path d="M 152.351687 414.957187 
L 152.351687 26.877187 
" clip-path="url(#p15b654aa9a)" style="fill: none; stroke: #808080; stroke-width: 0.8; stroke-linecap: square"/>
     </g>
     <g id="line2d_2">
      <defs>
       <path id="m3cb1a634bb" d="M 0 0 
L 0 -5 
" style="stroke: #808080; stroke-width: 0.8"/>
      </defs>
      <g>
       <use xlink:href="#m3cb1a634bb" x="152.351687" y="414.957187" style="fill: #808080; stroke: #808080; stroke-width: 0.8"/>
      </g>
     </g>
     <g id="text_1">
      <!-- 80 -->
      <g style="fill: #808080" transform="translate(142.807937 429.854844) scale(0.15 -0.15)">
       <defs>
        <path id="DejaVuSans-38" d="M 2034 2216 
Q 1584 2216 1326 1975 
Q 1069 1734 1069 1313 
Q 1069 891 1326 650 
Q 1584 409 2034 409 
Q 2484 409 2743 651 
Q 3003 894 3003 1313 
Q 3003 1734 2745 1975 
Q 2488 2216 2034 2216 
z
M 1403 2484 
Q 997 2584 770 2862 
Q 544 3141 544 3541 
Q 544 4100 942 4425 
Q 1341 4750 2034 4750 
Q 2731 4750 3128 4425 
Q 3525 4100 3525 3541 
Q 3525 3141 3298 2862 
Q 3072 2584 2669 2484 
Q 3125 2378 3379 2068 
Q 3634 1759 3634 1313 
Q 3634 634 3220 271 
Q 2806 -91 2034 -91 
Q 1263 -91 848 271 
Q 434 634 434 1313 
Q 434 1759 690 2068 
Q 947 2378 1403 2484 
z
M 1172 3481 
Q 1172 3119 1398 2916 
Q 1625 2713 2034 2713 
Q 2441 2713 2670 2916 
Q 2900 3119 2900 3481 
Q 2900 3844 2670 4047 
Q 2441 4250 2034 4250 
Q 1625 4250 1398 4047 
Q 1172 3844 1172 3481 
z
" transform="scale(0.015625)"/>
        <path id="DejaVuSans-30" d="M 2034 4250 
Q 1547 4250 1301 3770 
Q 1056 3291 1056 2328 
Q 1056 1369 1301 889 
Q 1547 409 2034 409 
Q 2525 409 2770 889 
Q 3016 1369 3016 2328 
Q 3016 3291 2770 3770 
Q 2525 4250 2034 4250 
z
M 2034 4750 
Q 2819 4750 3233 4129 
Q 3647 3509 3647 2328 
Q 3647 1150 3233 529 
Q 2819 -91 2034 -91 
Q 1250 -91 836 529 
Q 422 1150 422 2328 
Q 422 3509 836 4129 
Q 1250 4750 2034 4750 
z
" transform="scale(0.015625)"/>
       </defs>
       <use xlink:href="#DejaVuSans-38"/>
       <use xlink:href="#DejaVuSans-30" x="63.623047"/>
      </g>
     </g>
    </g>
    <g id="xtick_2">
     <g id="line2d_3">
      <path d="M 270.187176 414.957187 
L 270.187176 26.877187 
" clip-path="url(#p15b654aa9a)" style="fill: none; stroke: #808080; stroke-width: 0.8; stroke-linecap: square"/>
     </g>
     <g id="line2d_4">
      <g>
       <use xlink:href="#m3cb1a634bb" x="270.187176" y="414.957187" style="fill: #808080; stroke: #808080; stroke-width: 0.8"/>
      </g>
     </g>
     <g id="text_2">
      <!-- 90 -->
      <g style="fill: #808080" transform="translate(260.643426 429.854844) scale(0.15 -0.15)">
       <defs>
        <path id="DejaVuSans-39" d="M 703 97 
L 703 672 
Q 941 559 1184 500 
Q 1428 441 1663 441 
Q 2288 441 2617 861 
Q 2947 1281 2994 2138 
Q 2813 1869 2534 1725 
Q 2256 1581 1919 1581 
Q 1219 1581 811 2004 
Q 403 2428 403 3163 
Q 403 3881 828 4315 
Q 1253 4750 1959 4750 
Q 2769 4750 3195 4129 
Q 3622 3509 3622 2328 
Q 3622 1225 3098 567 
Q 2575 -91 1691 -91 
Q 1453 -91 1209 -44 
Q 966 3 703 97 
z
M 1959 2075 
Q 2384 2075 2632 2365 
Q 2881 2656 2881 3163 
Q 2881 3666 2632 3958 
Q 2384 4250 1959 4250 
Q 1534 4250 1286 3958 
Q 1038 3666 1038 3163 
Q 1038 2656 1286 2365 
Q 1534 2075 1959 2075 
z
" transform="scale(0.015625)"/>
       </defs>
       <use xlink:href="#DejaVuSans-39"/>
       <use xlink:href="#DejaVuSans-30" x="63.623047"/>
      </g>
     </g>
    </g>
    <g id="xtick_3">
     <g id="line2d_5">
      <path d="M 388.022664 414.957187 
L 388.022664 26.877187 
" clip-path="url(#p15b654aa9a)" style="fill: none; stroke: #808080; stroke-width: 0.8; stroke-linecap: square"/>
     </g>
     <g id="line2d_6">
      <g>
       <use xlink:href="#m3cb1a634bb" x="388.022664" y="414.957187" style="fill: #808080; stroke: #808080; stroke-width: 0.8"/>
      </g>
     </g>
     <g id="text_3">
      <!-- 100 -->
      <g style="fill: #808080" transform="translate(373.707039 429.854844) scale(0.15 -0.15)">
       <defs>
        <path id="DejaVuSans-31" d="M 794 531 
L 1825 531 
L 1825 4091 
L 703 3866 
L 703 4441 
L 1819 4666 
L 2450 4666 
L 2450 531 
L 3481 531 
L 3481 0 
L 794 0 
L 794 531 
z
" transform="scale(0.015625)"/>
       </defs>
       <use xlink:href="#DejaVuSans-31"/>
       <use xlink:href="#DejaVuSans-30" x="63.623047"/>
       <use xlink:href="#DejaVuSans-30" x="127.246094"/>
      </g>
     </g>
    </g>
    <g id="xtick_4">
     <g id="line2d_7">
      <path d="M 505.858152 414.957187 
L 505.858152 26.877187 
" clip-path="url(#p15b654aa9a)" style="fill: none; stroke: #808080; stroke-width: 0.8; stroke-linecap: square"/>
     </g>
     <g id="line2d_8">
      <g>
       <use xlink:href="#m3cb1a634bb" x="505.858152" y="414.957187" style="fill: #808080; stroke: #808080; stroke-width: 0.8"/>
      </g>
     </g>
     <g id="text_4">
      <!-- 110 -->
      <g style="fill: #808080" transform="translate(491.542527 429.854844) scale(0.15 -0.15)">
       <use xlink:href="#DejaVuSans-31"/>
       <use xlink:href="#DejaVuSans-31" x="63.623047"/>
       <use xlink:href="#DejaVuSans-30" x="127.246094"/>
      </g>
     </g>
    </g>
    <g id="xtick_5">
     <g id="line2d_9">
      <path d="M 623.693641 414.957187 
L 623.693641 26.877187 
" clip-path="url(#p15b654aa9a)" style="fill: none; stroke: #808080; stroke-width: 0.8; stroke-linecap: square"/>
     </g>
     <g id="line2d_10">
      <g>
       <use xlink:href="#m3cb1a634bb" x="623.693641" y="414.957187" style="fill: #808080; stroke: #808080; stroke-width: 0.8"/>
      </g>
     </g>
     <g id="text_5">
      <!-- 120 -->
      <g style="fill: #808080" transform="translate(609.378016 429.854844) scale(0.15 -0.15)">
       <defs>
        <path id="DejaVuSans-32" d="M 1228 531 
L 3431 531 
L 3431 0 
L 469 0 
L 469 531 
Q 828 903 1448 1529 
Q 2069 2156 2228 2338 
Q 2531 2678 2651 2914 
Q 2772 3150 2772 3378 
Q 2772 3750 2511 3984 
Q 2250 4219 1831 4219 
Q 1534 4219 1204 4116 
Q 875 4013 500 3803 
L 500 4441 
Q 881 4594 1212 4672 
Q 1544 4750 1819 4750 
Q 2544 4750 2975 4387 
Q 3406 4025 3406 3419 
Q 3406 3131 3298 2873 
Q 3191 2616 2906 2266 
Q 2828 2175 2409 1742 
Q 1991 1309 1228 531 
z
" transform="scale(0.015625)"/>
       </defs>
       <use xlink:href="#DejaVuSans-31"/>
       <use xlink:href="#DejaVuSans-32" x="63.623047"/>
       <use xlink:href="#DejaVuSans-30" x="127.246094"/>
      </g>
     </g>
    </g>
    <g id="text_6">
     <!-- time [s] -->
     <g style="fill: #808080" transform="translate(322.255078 448.372031) scale(0.15 -0.15)">
      <defs>
       <path id="DejaVuSans-74" d="M 1172 4494 
L 1172 3500 
L 2356 3500 
L 2356 3053 
L 1172 3053 
L 1172 1153 
Q 1172 725 1289 603 
Q 1406 481 1766 481 
L 2356 481 
L 2356 0 
L 1766 0 
Q 1100 0 847 248 
Q 594 497 594 1153 
L 594 3053 
L 172 3053 
L 172 3500 
L 594 3500 
L 594 4494 
L 1172 4494 
z
" transform="scale(0.015625)"/>
       <path id="DejaVuSans-69" d="M 603 3500 
L 1178 3500 
L 1178 0 
L 603 0 
L 603 3500 
z
M 603 4863 
L 1178 4863 
L 1178 4134 
L 603 4134 
L 603 4863 
z
" transform="scale(0.015625)"/>
       <path id="DejaVuSans-6d" d="M 3328 2828 
Q 3544 3216 3844 3400 
Q 4144 3584 4550 3584 
Q 5097 3584 5394 3201 
Q 5691 2819 5691 2113 
L 5691 0 
L 5113 0 
L 5113 2094 
Q 5113 2597 4934 2840 
Q 4756 3084 4391 3084 
Q 3944 3084 3684 2787 
Q 3425 2491 3425 1978 
L 3425 0 
L 2847 0 
L 2847 2094 
Q 2847 2600 2669 2842 
Q 2491 3084 2119 3084 
Q 1678 3084 1418 2786 
Q 1159 2488 1159 1978 
L 1159 0 
L 581 0 
L 581 3500 
L 1159 3500 
L 1159 2956 
Q 1356 3278 1631 3431 
Q 1906 3584 2284 3584 
Q 2666 3584 2933 3390 
Q 3200 3197 3328 2828 
z
" transform="scale(0.015625)"/>
       <path id="DejaVuSans-65" d="M 3597 1894 
L 3597 1613 
L 953 1613 
Q 991 1019 1311 708 
Q 1631 397 2203 397 
Q 2534 397 2845 478 
Q 3156 559 3463 722 
L 3463 178 
Q 3153 47 2828 -22 
Q 2503 -91 2169 -91 
Q 1331 -91 842 396 
Q 353 884 353 1716 
Q 353 2575 817 3079 
Q 1281 3584 2069 3584 
Q 2775 3584 3186 3129 
Q 3597 2675 3597 1894 
z
M 3022 2063 
Q 3016 2534 2758 2815 
Q 2500 3097 2075 3097 
Q 1594 3097 1305 2825 
Q 1016 2553 972 2059 
L 3022 2063 
z
" transform="scale(0.015625)"/>
       <path id="DejaVuSans-20" transform="scale(0.015625)"/>
       <path id="DejaVuSans-5b" d="M 550 4863 
L 1875 4863 
L 1875 4416 
L 1125 4416 
L 1125 -397 
L 1875 -397 
L 1875 -844 
L 550 -844 
L 550 4863 
z
" transform="scale(0.015625)"/>
       <path id="DejaVuSans-73" d="M 2834 3397 
L 2834 2853 
Q 2591 2978 2328 3040 
Q 2066 3103 1784 3103 
Q 1356 3103 1142 2972 
Q 928 2841 928 2578 
Q 928 2378 1081 2264 
Q 1234 2150 1697 2047 
L 1894 2003 
Q 2506 1872 2764 1633 
Q 3022 1394 3022 966 
Q 3022 478 2636 193 
Q 2250 -91 1575 -91 
Q 1294 -91 989 -36 
Q 684 19 347 128 
L 347 722 
Q 666 556 975 473 
Q 1284 391 1588 391 
Q 1994 391 2212 530 
Q 2431 669 2431 922 
Q 2431 1156 2273 1281 
Q 2116 1406 1581 1522 
L 1381 1569 
Q 847 1681 609 1914 
Q 372 2147 372 2553 
Q 372 3047 722 3315 
Q 1072 3584 1716 3584 
Q 2034 3584 2315 3537 
Q 2597 3491 2834 3397 
z
" transform="scale(0.015625)"/>
       <path id="DejaVuSans-5d" d="M 1947 4863 
L 1947 -844 
L 622 -844 
L 622 -397 
L 1369 -397 
L 1369 4416 
L 622 4416 
L 622 4863 
L 1947 4863 
z
" transform="scale(0.015625)"/>
      </defs>
      <use xlink:href="#DejaVuSans-74"/>
      <use xlink:href="#DejaVuSans-69" x="39.208984"/>
      <use xlink:href="#DejaVuSans-6d" x="66.992188"/>
      <use xlink:href="#DejaVuSans-65" x="164.404297"/>
      <use xlink:href="#DejaVuSans-20" x="225.927734"/>
      <use xlink:href="#DejaVuSans-5b" x="257.714844"/>
      <use xlink:href="#DejaVuSans-73" x="296.728516"/>
      <use xlink:href="#DejaVuSans-5d" x="348.828125"/>
     </g>
    </g>
   </g>
   <g id="matplotlib.axis_2">
    <g id="ytick_1">
     <g id="line2d_11">
      <path d="M 72.342187 395.378537 
L 630.342188 395.378537 
" clip-path="url(#p15b654aa9a)" style="fill: none; stroke: #808080; stroke-width: 0.8; stroke-linecap: square"/>
     </g>
     <g id="line2d_12">
      <defs>
       <path id="ma69aaf0d42" d="M 0 0 
L 5 0 
" style="stroke: #808080; stroke-width: 0.8"/>
      </defs>
      <g>
       <use xlink:href="#ma69aaf0d42" x="72.342187" y="395.378537" style="fill: #808080; stroke: #808080; stroke-width: 0.8"/>
      </g>
     </g>
     <g id="text_7">
      <!-- 77.50 -->
      <g style="fill: #808080" transform="translate(25.9 401.077365) scale(0.15 -0.15)">
       <defs>
        <path id="DejaVuSans-37" d="M 525 4666 
L 3525 4666 
L 3525 4397 
L 1831 0 
L 1172 0 
L 2766 4134 
L 525 4134 
L 525 4666 
z
" transform="scale(0.015625)"/>
        <path id="DejaVuSans-2e" d="M 684 794 
L 1344 794 
L 1344 0 
L 684 0 
L 684 794 
z
" transform="scale(0.015625)"/>
        <path id="DejaVuSans-35" d="M 691 4666 
L 3169 4666 
L 3169 4134 
L 1269 4134 
L 1269 2991 
Q 1406 3038 1543 3061 
Q 1681 3084 1819 3084 
Q 2600 3084 3056 2656 
Q 3513 2228 3513 1497 
Q 3513 744 3044 326 
Q 2575 -91 1722 -91 
Q 1428 -91 1123 -41 
Q 819 9 494 109 
L 494 744 
Q 775 591 1075 516 
Q 1375 441 1709 441 
Q 2250 441 2565 725 
Q 2881 1009 2881 1497 
Q 2881 1984 2565 2268 
Q 2250 2553 1709 2553 
Q 1456 2553 1204 2497 
Q 953 2441 691 2322 
L 691 4666 
z
" transform="scale(0.015625)"/>
       </defs>
       <use xlink:href="#DejaVuSans-37"/>
       <use xlink:href="#DejaVuSans-37" x="63.623047"/>
       <use xlink:href="#DejaVuSans-2e" x="127.246094"/>
       <use xlink:href="#DejaVuSans-35" x="159.033203"/>
       <use xlink:href="#DejaVuSans-30" x="222.65625"/>
      </g>
     </g>
    </g>
    <g id="ytick_2">
     <g id="line2d_13">
      <path d="M 72.342187 345.656908 
L 630.342188 345.656908 
" clip-path="url(#p15b654aa9a)" style="fill: none; stroke: #808080; stroke-width: 0.8; stroke-linecap: square"/>
     </g>
     <g id="line2d_14">
      <g>
       <use xlink:href="#ma69aaf0d42" x="72.342187" y="345.656908" style="fill: #808080; stroke: #808080; stroke-width: 0.8"/>
      </g>
     </g>
     <g id="text_8">
      <!-- 77.75 -->
      <g style="fill: #808080" transform="translate(25.9 351.355736) scale(0.15 -0.15)">
       <use xlink:href="#DejaVuSans-37"/>
       <use xlink:href="#DejaVuSans-37" x="63.623047"/>
       <use xlink:href="#DejaVuSans-2e" x="127.246094"/>
       <use xlink:href="#DejaVuSans-37" x="159.033203"/>
       <use xlink:href="#DejaVuSans-35" x="222.65625"/>
      </g>
     </g>
    </g>
    <g id="ytick_3">
     <g id="line2d_15">
      <path d="M 72.342187 295.935278 
L 630.342188 295.935278 
" clip-path="url(#p15b654aa9a)" style="fill: none; stroke: #808080; stroke-width: 0.8; stroke-linecap: square"/>
     </g>
     <g id="line2d_16">
      <g>
       <use xlink:href="#ma69aaf0d42" x="72.342187" y="295.935278" style="fill: #808080; stroke: #808080; stroke-width: 0.8"/>
      </g>
     </g>
     <g id="text_9">
      <!-- 78.00 -->
      <g style="fill: #808080" transform="translate(25.9 301.634106) scale(0.15 -0.15)">
       <use xlink:href="#DejaVuSans-37"/>
       <use xlink:href="#DejaVuSans-38" x="63.623047"/>
       <use xlink:href="#DejaVuSans-2e" x="127.246094"/>
       <use xlink:href="#DejaVuSans-30" x="159.033203"/>
       <use xlink:href="#DejaVuSans-30" x="222.65625"/>
      </g>
     </g>
    </g>
    <g id="ytick_4">
     <g id="line2d_17">
      <path d="M 72.342187 246.213649 
L 630.342188 246.213649 
" clip-path="url(#p15b654aa9a)" style="fill: none; stroke: #808080; stroke-width: 0.8; stroke-linecap: square"/>
     </g>
     <g id="line2d_18">
      <g>
       <use xlink:href="#ma69aaf0d42" x="72.342187" y="246.213649" style="fill: #808080; stroke: #808080; stroke-width: 0.8"/>
      </g>
     </g>
     <g id="text_10">
      <!-- 78.25 -->
      <g style="fill: #808080" transform="translate(25.9 251.912477) scale(0.15 -0.15)">
       <use xlink:href="#DejaVuSans-37"/>
       <use xlink:href="#DejaVuSans-38" x="63.623047"/>
       <use xlink:href="#DejaVuSans-2e" x="127.246094"/>
       <use xlink:href="#DejaVuSans-32" x="159.033203"/>
       <use xlink:href="#DejaVuSans-35" x="222.65625"/>
      </g>
     </g>
    </g>
    <g id="ytick_5">
     <g id="line2d_19">
      <path d="M 72.342187 196.492019 
L 630.342188 196.492019 
" clip-path="url(#p15b654aa9a)" style="fill: none; stroke: #808080; stroke-width: 0.8; stroke-linecap: square"/>
     </g>
     <g id="line2d_20">
      <g>
       <use xlink:href="#ma69aaf0d42" x="72.342187" y="196.492019" style="fill: #808080; stroke: #808080; stroke-width: 0.8"/>
      </g>
     </g>
     <g id="text_11">
      <!-- 78.50 -->
      <g style="fill: #808080" transform="translate(25.9 202.190847) scale(0.15 -0.15)">
       <use xlink:href="#DejaVuSans-37"/>
       <use xlink:href="#DejaVuSans-38" x="63.623047"/>
       <use xlink:href="#DejaVuSans-2e" x="127.246094"/>
       <use xlink:href="#DejaVuSans-35" x="159.033203"/>
       <use xlink:href="#DejaVuSans-30" x="222.65625"/>
      </g>
     </g>
    </g>
    <g id="ytick_6">
     <g id="line2d_21">
      <path d="M 72.342187 146.770389 
L 630.342188 146.770389 
" clip-path="url(#p15b654aa9a)" style="fill: none; stroke: #808080; stroke-width: 0.8; stroke-linecap: square"/>
     </g>
     <g id="line2d_22">
      <g>
       <use xlink:href="#ma69aaf0d42" x="72.342187" y="146.770389" style="fill: #808080; stroke: #808080; stroke-width: 0.8"/>
      </g>
     </g>
     <g id="text_12">
      <!-- 78.75 -->
      <g style="fill: #808080" transform="translate(25.9 152.469218) scale(0.15 -0.15)">
       <use xlink:href="#DejaVuSans-37"/>
       <use xlink:href="#DejaVuSans-38" x="63.623047"/>
       <use xlink:href="#DejaVuSans-2e" x="127.246094"/>
       <use xlink:href="#DejaVuSans-37" x="159.033203"/>
       <use xlink:href="#DejaVuSans-35" x="222.65625"/>
      </g>
     </g>
    </g>
    <g id="ytick_7">
     <g id="line2d_23">
      <path d="M 72.342187 97.04876 
L 630.342188 97.04876 
" clip-path="url(#p15b654aa9a)" style="fill: none; stroke: #808080; stroke-width: 0.8; stroke-linecap: square"/>
     </g>
     <g id="line2d_24">
      <g>
       <use xlink:href="#ma69aaf0d42" x="72.342187" y="97.04876" style="fill: #808080; stroke: #808080; stroke-width: 0.8"/>
      </g>
     </g>
     <g id="text_13">
      <!-- 79.00 -->
      <g style="fill: #808080" transform="translate(25.9 102.747588) scale(0.15 -0.15)">
       <use xlink:href="#DejaVuSans-37"/>
       <use xlink:href="#DejaVuSans-39" x="63.623047"/>
       <use xlink:href="#DejaVuSans-2e" x="127.246094"/>
       <use xlink:href="#DejaVuSans-30" x="159.033203"/>
       <use xlink:href="#DejaVuSans-30" x="222.65625"/>
      </g>
     </g>
    </g>
    <g id="ytick_8">
     <g id="line2d_25">
      <path d="M 72.342187 47.32713 
L 630.342188 47.32713 
" clip-path="url(#p15b654aa9a)" style="fill: none; stroke: #808080; stroke-width: 0.8; stroke-linecap: square"/>
     </g>
     <g id="line2d_26">
      <g>
       <use xlink:href="#ma69aaf0d42" x="72.342187" y="47.32713" style="fill: #808080; stroke: #808080; stroke-width: 0.8"/>
      </g>
     </g>
     <g id="text_14">
      <!-- 79.25 -->
      <g style="fill: #808080" transform="translate(25.9 53.025959) scale(0.15 -0.15)">
       <use xlink:href="#DejaVuSans-37"/>
       <use xlink:href="#DejaVuSans-39" x="63.623047"/>
       <use xlink:href="#DejaVuSans-2e" x="127.246094"/>
       <use xlink:href="#DejaVuSans-32" x="159.033203"/>
       <use xlink:href="#DejaVuSans-35" x="222.65625"/>
      </g>
     </g>
    </g>
    <g id="text_15">
     <!-- $\theta$ [deg] -->
     <g style="fill: #808080" transform="translate(18.75 247.917187) rotate(-90) scale(0.15 -0.15)">
      <defs>
       <path id="DejaVuSans-Oblique-3b8" d="M 2913 2219 
L 925 2219 
Q 791 1284 928 888 
Q 1100 400 1566 400 
Q 2034 400 2391 891 
Q 2703 1322 2913 2219 
z
M 3009 2750 
Q 3094 3638 2984 3950 
Q 2813 4444 2353 4444 
Q 1875 4444 1525 3956 
Q 1250 3563 1034 2750 
L 3009 2750 
z
M 2444 4913 
Q 3194 4913 3494 4250 
Q 3794 3591 3566 2422 
Q 3341 1256 2781 594 
Q 2225 -72 1475 -72 
Q 722 -72 425 594 
Q 128 1256 353 2422 
Q 581 3591 1134 4250 
Q 1691 4913 2444 4913 
z
" transform="scale(0.015625)"/>
       <path id="DejaVuSans-64" d="M 2906 2969 
L 2906 4863 
L 3481 4863 
L 3481 0 
L 2906 0 
L 2906 525 
Q 2725 213 2448 61 
Q 2172 -91 1784 -91 
Q 1150 -91 751 415 
Q 353 922 353 1747 
Q 353 2572 751 3078 
Q 1150 3584 1784 3584 
Q 2172 3584 2448 3432 
Q 2725 3281 2906 2969 
z
M 947 1747 
Q 947 1113 1208 752 
Q 1469 391 1925 391 
Q 2381 391 2643 752 
Q 2906 1113 2906 1747 
Q 2906 2381 2643 2742 
Q 2381 3103 1925 3103 
Q 1469 3103 1208 2742 
Q 947 2381 947 1747 
z
" transform="scale(0.015625)"/>
       <path id="DejaVuSans-67" d="M 2906 1791 
Q 2906 2416 2648 2759 
Q 2391 3103 1925 3103 
Q 1463 3103 1205 2759 
Q 947 2416 947 1791 
Q 947 1169 1205 825 
Q 1463 481 1925 481 
Q 2391 481 2648 825 
Q 2906 1169 2906 1791 
z
M 3481 434 
Q 3481 -459 3084 -895 
Q 2688 -1331 1869 -1331 
Q 1566 -1331 1297 -1286 
Q 1028 -1241 775 -1147 
L 775 -588 
Q 1028 -725 1275 -790 
Q 1522 -856 1778 -856 
Q 2344 -856 2625 -561 
Q 2906 -266 2906 331 
L 2906 616 
Q 2728 306 2450 153 
Q 2172 0 1784 0 
Q 1141 0 747 490 
Q 353 981 353 1791 
Q 353 2603 747 3093 
Q 1141 3584 1784 3584 
Q 2172 3584 2450 3431 
Q 2728 3278 2906 2969 
L 2906 3500 
L 3481 3500 
L 3481 434 
z
" transform="scale(0.015625)"/>
      </defs>
      <use xlink:href="#DejaVuSans-Oblique-3b8" transform="translate(0 0.234375)"/>
      <use xlink:href="#DejaVuSans-20" transform="translate(61.181641 0.234375)"/>
      <use xlink:href="#DejaVuSans-5b" transform="translate(92.96875 0.234375)"/>
      <use xlink:href="#DejaVuSans-64" transform="translate(131.982422 0.234375)"/>
      <use xlink:href="#DejaVuSans-65" transform="translate(195.458984 0.234375)"/>
      <use xlink:href="#DejaVuSans-67" transform="translate(256.982422 0.234375)"/>
      <use xlink:href="#DejaVuSans-5d" transform="translate(320.458984 0.234375)"/>
     </g>
    </g>
   </g>
   <g id="line2d_27">
    <path d="M 97.705824 130.090105 
L 97.815093 130.090105 
L 97.932645 116.206287 
L 98.2866 116.206287 
L 98.407864 111.949509 
L 98.763621 111.949509 
L 98.876602 107.383397 
L 98.994355 107.383397 
L 99.110211 103.160133 
L 99.4642 103.160133 
L 99.58464 80.954818 
L 99.93566 80.954818 
L 100.054356 85.137444 
L 100.172026 85.137444 
L 100.291429 89.659632 
L 100.643097 89.659632 
L 100.7627 93.875475 
L 100.879004 93.875475 
L 100.996804 98.107617 
L 101.114333 98.107617 
L 101.233736 102.683266 
L 101.824103 102.683266 
L 101.938911 98.107617 
L 102.528324 98.107617 
L 102.646195 125.099561 
L 103.235761 125.099561 
L 103.356896 120.479511 
L 103.47228 120.479511 
L 103.590269 141.258917 
L 103.70695 141.258917 
L 103.824856 120.479511 
L 103.942456 120.479511 
L 104.063437 141.258917 
L 105.835601 141.258917 
L 105.947026 147.842977 
L 106.065144 147.842977 
L 106.184865 141.258917 
L 106.299201 141.258917 
L 106.420713 143.519595 
L 106.534742 143.519595 
L 106.656466 139.212836 
L 107.008464 139.212836 
L 107.124061 134.593095 
L 107.477273 134.593095 
L 107.599079 130.320213 
L 107.713109 130.320213 
L 107.832205 132.780116 
L 108.421241 132.780116 
L 108.538004 126.063501 
L 108.657183 126.063501 
L 108.773416 130.320213 
L 108.891534 130.320213 
L 109.008946 134.593095 
L 109.126251 134.593095 
L 109.245583 155.193496 
L 109.363784 155.193496 
L 109.483929 139.212836 
L 109.834466 139.212836 
L 109.954128 136.947595 
L 110.069477 136.947595 
L 110.18842 157.69305 
L 110.305383 157.69305 
L 110.425988 136.947595 
L 111.012314 136.947595 
L 111.132895 141.258917 
L 111.483927 141.258917 
L 111.60155 162.04242 
L 111.955834 162.04242 
L 112.073093 166.74477 
L 112.427483 166.74477 
L 112.547357 162.04242 
L 112.897293 162.04242 
L 113.018322 166.74477 
L 113.133871 166.74477 
L 113.252461 162.04242 
L 114.312273 162.04242 
L 114.430191 141.258917 
L 115.018909 141.258917 
L 115.143874 136.947595 
L 115.256654 136.947595 
L 115.372251 132.652853 
L 115.492808 132.652853 
L 115.607403 128.046007 
L 115.961711 128.046007 
L 116.081278 123.785054 
L 116.197617 123.785054 
L 116.315618 130.320213 
L 116.668912 130.320213 
L 116.904937 126.063501 
L 117.140784 126.063501 
L 117.260717 123.785054 
L 117.375619 123.785054 
L 117.493278 144.414273 
L 118.55877 144.414273 
L 118.673176 148.712865 
L 118.790764 148.712865 
L 118.907916 144.414273 
L 119.261458 144.414273 
L 119.380601 148.712865 
L 120.20611 148.712865 
L 120.3216 155.193496 
L 120.439601 155.193496 
L 120.557436 153.360394 
L 120.674859 153.360394 
L 120.792589 159.85377 
L 120.910636 159.85377 
L 121.028107 153.360394 
L 121.854192 153.360394 
L 121.970802 157.69305 
L 122.560498 157.69305 
L 122.682045 164.198303 
L 123.50264 164.198303 
L 123.622526 159.85377 
L 123.973888 159.85377 
L 124.094987 141.334223 
L 124.446361 141.334223 
L 124.562924 137.049063 
L 124.917114 137.049063 
L 125.036728 140.227419 
L 125.152832 140.227419 
L 125.273837 144.509925 
L 125.387796 144.509925 
L 125.506645 137.049063 
L 125.626354 137.049063 
L 125.744519 144.509925 
L 125.859986 144.509925 
L 125.977916 137.049063 
L 126.096034 137.049063 
L 126.216721 141.334223 
L 126.574199 141.334223 
L 126.684611 145.967234 
L 127.510072 145.967234 
L 127.627023 141.334223 
L 128.690029 141.334223 
L 128.80737 145.967234 
L 128.923685 145.967234 
L 129.04112 128.359243 
L 129.630627 128.359243 
L 129.750808 141.334223 
L 130.101192 141.334223 
L 130.218968 120.808481 
L 130.337546 120.808481 
L 130.455158 141.334223 
L 130.572899 141.334223 
L 130.692313 145.967234 
L 131.281031 145.967234 
L 131.399809 125.401066 
L 131.753139 125.401066 
L 131.868771 150.286361 
L 132.226744 150.286361 
L 132.342328 129.682517 
L 132.458962 129.682517 
L 132.577834 145.967234 
L 133.165963 145.967234 
L 133.283799 148.808692 
L 134.350328 148.808692 
L 134.461458 145.967234 
L 134.815412 145.967234 
L 134.93478 150.286361 
L 135.286554 150.286361 
L 135.404908 154.622153 
L 135.526868 154.622153 
L 135.641934 168.559592 
L 135.993355 168.559592 
L 136.112098 147.842977 
L 136.466017 147.842977 
L 136.583852 143.519595 
L 136.702324 143.519595 
L 136.818887 154.622153 
L 137.645137 154.622153 
L 137.763291 150.286361 
L 138.821395 150.286361 
L 138.942506 153.456409 
L 139.292631 153.456409 
L 139.41419 132.966706 
L 139.764055 132.966706 
L 139.88499 128.359243 
L 140.235645 128.359243 
L 140.353068 124.09772 
L 140.471646 124.09772 
L 140.590848 106.347049 
L 140.707328 106.347049 
L 140.826177 102.125677 
L 140.942693 102.125677 
L 141.062685 119.852328 
L 141.178423 119.852328 
L 141.297554 105.183403 
L 141.413563 105.183403 
L 141.533331 100.658099 
L 142.357968 100.658099 
L 142.476522 96.472483 
L 142.828002 96.472483 
L 142.948972 100.658099 
L 143.535427 100.658099 
L 143.65602 119.852328 
L 143.771098 119.852328 
L 144.008124 97.920296 
L 144.123921 124.09772 
L 144.491214 124.09772 
L 144.595888 106.347049 
L 145.186008 106.347049 
L 145.304032 98.712637 
L 145.655806 98.712637 
L 145.774349 106.347049 
L 145.892278 106.347049 
L 146.013484 98.712637 
L 146.600222 98.712637 
L 146.716337 103.261637 
L 147.072742 103.261637 
L 147.188374 82.712272 
L 147.308413 82.712272 
L 147.423998 103.261637 
L 147.777139 103.261637 
L 147.895328 82.712272 
L 149.428863 82.712272 
L 149.545768 78.203788 
L 149.66259 78.203788 
L 149.780861 85.917294 
L 149.898426 85.917294 
L 150.017534 65.498252 
L 150.133826 65.498252 
L 150.252781 61.351556 
L 150.605498 61.351556 
L 150.723086 68.778969 
L 150.840238 68.778969 
L 150.959287 61.351556 
L 151.076286 61.351556 
L 151.194852 68.778969 
L 151.554768 68.778969 
L 151.666712 72.939284 
L 151.798912 72.939284 
L 151.903279 65.498252 
L 152.02188 65.498252 
L 152.13684 69.981606 
L 152.254146 69.981606 
L 152.372287 90.441023 
L 152.490854 90.441023 
L 152.612083 94.658303 
L 152.726159 94.658303 
L 152.846245 86.915343 
L 153.433361 86.915343 
L 153.553376 91.134667 
L 153.907248 91.134667 
L 154.024553 107.502468 
L 154.140197 107.502468 
L 154.258056 111.759687 
L 155.790012 111.759687 
L 155.908978 107.502468 
L 156.028051 107.502468 
L 156.142811 111.759687 
L 156.968072 111.759687 
L 157.204143 91.134667 
L 157.321567 111.759687 
L 157.441877 111.759687 
L 157.557673 107.502468 
L 157.6771 107.502468 
L 157.793286 111.759687 
L 157.911321 111.759687 
L 158.029746 107.502468 
L 158.14724 107.502468 
L 158.267161 103.261637 
L 158.384431 103.261637 
L 158.502938 82.712272 
L 158.618358 82.712272 
L 158.736299 78.203788 
L 158.854524 78.203788 
L 159.089664 74.033842 
L 159.207123 81.733243 
L 159.327716 81.733243 
L 159.445198 77.565053 
L 160.267795 77.565053 
L 160.385949 74.033842 
L 160.503525 74.033842 
L 160.621644 78.203788 
L 160.740339 78.203788 
L 160.856089 98.712637 
L 160.975669 98.712637 
L 161.092644 103.261637 
L 161.210986 103.261637 
L 161.334336 96.361751 
L 162.624517 96.361751 
L 162.746206 91.826349 
L 162.861272 91.826349 
L 162.977505 96.361751 
L 163.331047 96.361751 
L 163.451027 91.826349 
L 163.567472 91.826349 
L 163.689573 96.361751 
L 164.509673 96.361751 
L 164.630148 91.826349 
L 164.745662 91.826349 
L 164.865795 71.245695 
L 166.395394 71.245695 
L 166.515457 78.203788 
L 166.866489 78.203788 
L 166.98661 74.033842 
L 167.103291 74.033842 
L 167.220231 53.571826 
L 167.337866 53.571826 
L 167.574173 49.455082 
L 167.693576 52.789359 
L 167.813674 52.789359 
L 167.932275 26.877188 
L 169.003093 26.877188 
L 169.106011 52.789359 
L 169.460413 52.789359 
L 169.581913 57.220589 
L 169.694635 57.220589 
L 169.930364 49.455082 
L 170.04787 74.033842 
L 170.401612 74.033842 
L 170.524927 53.571826 
L 170.637248 53.571826 
L 170.756509 69.879707 
L 172.050838 69.879707 
L 172.169156 74.033842 
L 172.287051 74.033842 
L 172.405275 69.879707 
L 172.522863 69.879707 
L 172.640227 74.033842 
L 172.998824 74.033842 
L 173.113183 90.313716 
L 174.643808 90.313716 
L 174.761478 94.505205 
L 175.356217 94.505205 
L 175.46954 90.313716 
L 175.821821 90.313716 
L 175.942908 85.817543 
L 176.058399 85.817543 
L 176.176777 61.302038 
L 176.528433 61.302038 
L 176.649368 64.838405 
L 177.473815 64.838405 
L 177.591545 68.958348 
L 177.708532 68.958348 
L 177.824965 61.302038 
L 177.943802 61.302038 
L 178.062309 85.817543 
L 178.178542 85.817543 
L 178.301468 90.313716 
L 178.415627 90.313716 
L 178.652665 94.505205 
L 178.886722 94.505205 
L 179.004192 90.313716 
L 179.593782 90.313716 
L 179.713361 85.817543 
L 181.008126 85.817543 
L 181.124359 107.789758 
L 181.242112 107.789758 
L 181.361291 103.5912 
L 183.364152 103.5912 
L 183.483649 107.789758 
L 183.598939 107.789758 
L 183.718366 123.965267 
L 184.071436 123.965267 
L 184.189696 131.384558 
L 184.305929 131.384558 
L 184.425862 127.151517 
L 184.7774 127.151517 
L 184.894953 102.388346 
L 185.017914 102.388346 
L 185.133923 98.224674 
L 185.24873 98.224674 
L 185.366224 122.610642 
L 185.486004 122.610642 
L 185.60239 118.410513 
L 185.722288 118.410513 
L 185.837837 122.610642 
L 186.192875 122.610642 
L 186.311229 127.151517 
L 186.427309 127.151517 
L 186.5465 131.384558 
L 186.897862 131.384558 
L 187.01783 155.976888 
L 187.134605 155.976888 
L 187.2531 128.200829 
L 187.606689 128.200829 
L 187.723335 132.780116 
L 187.84104 132.780116 
L 187.992836 140.227419 
L 189.023661 140.227419 
L 189.137537 144.509925 
L 189.255491 144.509925 
L 189.372678 132.780116 
L 189.493565 132.780116 
L 189.611153 153.237884 
L 190.669929 153.237884 
L 190.787258 157.544061 
L 190.905258 157.544061 
L 191.023259 153.237884 
L 191.375775 153.237884 
L 191.494058 146.589029 
L 192.318436 146.589029 
L 192.441338 153.237884 
L 192.554743 153.237884 
L 192.673863 148.618649 
L 193.027287 148.618649 
L 193.144415 144.346124 
L 193.296105 144.346124 
L 193.617642 119.745641 
L 193.733003 119.745641 
L 193.85124 140.089663 
L 193.97003 140.089663 
L 194.086545 119.745641 
L 194.204923 119.745641 
L 194.326682 137.722253 
L 194.675522 137.722253 
L 194.79324 141.982771 
L 195.146699 141.982771 
L 195.264865 162.311848 
L 195.854502 162.311848 
L 195.973268 159.958678 
L 197.032645 159.958678 
L 197.151941 155.648118 
L 197.739068 155.648118 
L 197.859166 133.39477 
L 198.448721 133.39477 
L 198.566556 155.648118 
L 198.684698 155.648118 
L 198.79967 133.39477 
L 198.916987 133.39477 
L 199.040055 128.814283 
L 199.153247 128.814283 
L 199.271024 133.39477 
L 199.390215 133.39477 
L 199.509275 128.814283 
L 200.567462 128.814283 
L 200.685203 108.193529 
L 201.040159 108.193529 
L 201.157594 106.57946 
L 201.511041 106.57946 
L 201.629643 102.078592 
L 201.746948 102.078592 
L 201.866315 84.048904 
L 202.217182 84.048904 
L 202.337598 104.378127 
L 202.688123 104.378127 
L 202.806654 108.552917 
L 203.163613 108.552917 
L 203.278927 88.186942 
L 203.395584 88.186942 
L 203.513325 81.645842 
L 203.631373 81.645842 
L 203.749138 92.660709 
L 203.866549 92.660709 
L 203.984043 110.775218 
L 204.102939 110.775218 
L 204.223532 94.439766 
L 204.340059 94.439766 
L 204.457812 114.98683 
L 204.573703 114.98683 
L 204.691456 119.540231 
L 205.516882 119.540231 
L 205.634376 98.952867 
L 205.988153 98.952867 
L 206.108829 103.160133 
L 206.223223 103.160133 
L 206.34199 98.952867 
L 206.459354 98.952867 
L 206.577213 103.160133 
L 206.930625 103.160133 
L 207.049922 76.788048 
L 207.165943 76.788048 
L 207.286217 80.954818 
L 208.346584 80.954818 
L 208.463394 85.137444 
L 209.052241 85.137444 
L 209.174048 67.088478 
L 209.523902 67.088478 
L 209.642503 62.947029 
L 209.761375 62.947029 
L 209.879128 45.039112 
L 210.229713 45.039112 
L 210.348903 61.302038 
L 210.701679 61.302038 
L 210.818784 68.958348 
L 210.937986 68.958348 
L 211.054596 44.607663 
L 211.407961 44.607663 
L 211.527883 51.980045 
L 211.884029 51.980045 
L 211.997834 56.076588 
L 212.117284 56.076588 
L 212.233423 60.188639 
L 212.588791 60.188639 
L 212.704293 64.634431 
L 213.059037 64.634431 
L 213.176048 89.084476 
L 213.76526 89.084476 
L 213.884781 109.402041 
L 214.001532 109.402041 
L 214.118779 116.869021 
L 216.1221 116.869021 
L 216.239287 138.681105 
L 216.357535 138.681105 
L 216.477103 142.969242 
L 217.065832 142.969242 
L 217.184823 138.681105 
L 217.300113 138.681105 
L 217.418172 142.969242 
L 218.480235 142.969242 
L 218.597941 158.947376 
L 218.714127 158.947376 
L 218.832787 154.638652 
L 219.421317 154.638652 
L 219.539435 129.826721 
L 219.657153 129.826721 
L 219.776661 150.016683 
L 220.128565 150.016683 
L 220.246295 129.826721 
L 220.363199 129.826721 
L 220.480999 154.638652 
L 220.600402 154.638652 
L 220.718697 147.339396 
L 220.835272 147.339396 
L 220.952518 151.634844 
L 221.307922 151.634844 
L 221.425015 148.808692 
L 221.777461 148.808692 
L 222.012837 176.332784 
L 222.131403 169.266056 
L 223.662958 169.266056 
L 223.780546 164.930086 
L 224.370325 164.930086 
L 224.492956 144.509925 
L 224.608376 144.509925 
L 224.725646 164.930086 
L 224.842326 164.930086 
L 224.960268 160.610506 
L 226.255834 160.610506 
L 226.37975 155.976888 
L 226.49114 155.976888 
L 226.727164 148.618649 
L 226.846979 155.976888 
L 226.962493 155.976888 
L 227.079787 151.691055 
L 227.43519 151.691055 
L 227.559047 147.421334 
L 227.906356 147.421334 
L 228.025016 142.841098 
L 228.141308 142.841098 
L 228.260345 145.580405 
L 228.847967 145.580405 
L 228.967547 142.841098 
L 229.085146 142.841098 
L 229.204561 147.421334 
L 229.79104 147.421334 
L 229.908934 151.691055 
L 230.266412 151.691055 
L 230.380642 155.976888 
L 230.733641 155.976888 
L 230.854152 177.893314 
L 230.968794 177.893314 
L 231.204653 182.569724 
L 232.619775 182.569724 
L 232.73794 175.276118 
L 232.854067 175.276118 
L 232.97162 179.622339 
L 233.561646 179.622339 
L 233.683181 207.363787 
L 235.211944 207.363787 
L 235.331688 186.929183 
L 235.917708 186.929183 
L 236.036474 182.569724 
L 237.332052 182.569724 
L 237.451501 202.967343 
L 237.567487 202.967343 
L 237.684981 200.129187 
L 237.803405 200.129187 
L 237.921795 204.529154 
L 238.274959 204.529154 
L 238.392583 202.738 
L 238.509546 202.738 
L 238.627617 207.16083 
L 238.747845 207.16083 
L 238.863889 211.600693 
L 238.981583 211.600693 
L 239.099796 190.875019 
L 239.219611 190.875019 
L 239.33707 211.600693 
L 239.453621 211.600693 
L 239.571468 186.47296 
L 241.342877 186.47296 
L 241.45673 190.875019 
L 241.574318 190.875019 
L 241.692377 168.559592 
L 241.809647 168.559592 
L 241.929038 190.875019 
L 242.516978 190.875019 
L 242.637052 186.47296 
L 243.464293 186.47296 
L 243.581209 190.875019 
L 243.696429 190.875019 
L 243.819355 186.47296 
L 243.931782 186.47296 
L 244.049181 188.701861 
L 244.16902 188.701861 
L 244.286349 166.539971 
L 244.402688 166.539971 
L 244.520323 161.866581 
L 244.882148 161.866581 
L 244.993833 157.544061 
L 245.109807 157.544061 
L 245.22862 164.930086 
L 245.345077 164.930086 
L 245.464279 160.610506 
L 246.291744 160.610506 
L 246.408365 164.930086 
L 246.524068 164.930086 
L 246.642999 157.544061 
L 246.765101 157.544061 
L 246.879849 161.866581 
L 246.994243 161.866581 
L 247.112668 166.539971 
L 247.231918 166.539971 
L 247.348339 188.701861 
L 247.466717 188.701861 
L 247.584387 182.087801 
L 248.173942 182.087801 
L 248.292508 159.85377 
L 248.645555 159.85377 
L 248.879293 182.087801 
L 249.352674 182.087801 
L 249.472324 159.85377 
L 249.822543 159.85377 
L 249.942157 182.087801 
L 250.765156 182.087801 
L 250.884523 186.47296 
L 251.239291 186.47296 
L 251.355629 193.099093 
L 251.472016 193.099093 
L 251.590322 188.701861 
L 252.651019 188.701861 
L 252.771647 196.036348 
L 252.88689 196.036348 
L 253.005008 191.30517 
L 253.123751 191.30517 
L 253.244179 186.929183 
L 253.595847 186.929183 
L 253.715073 193.907907 
L 253.833227 193.907907 
L 253.946903 189.535811 
L 254.30068 189.535811 
L 254.418115 184.845841 
L 254.535397 184.845841 
L 254.65586 189.535811 
L 255.243859 189.535811 
L 255.360987 214.273916 
L 255.7144 214.273916 
L 255.834462 218.699552 
L 256.186896 218.699552 
L 256.303836 239.109615 
L 259.015325 239.109615 
L 259.132029 246.146853 
L 259.249841 246.146853 
L 259.367606 250.985345 
L 259.721077 250.985345 
L 259.840609 268.060424 
L 259.95643 268.060424 
L 260.07476 272.941672 
L 260.427666 272.941672 
L 260.546503 268.060424 
L 261.605856 268.060424 
L 261.725588 263.545584 
L 262.551497 263.545584 
L 262.673292 259.04775 
L 263.256613 259.04775 
L 263.374755 263.545584 
L 263.729558 263.545584 
L 263.845437 268.060424 
L 263.963249 268.060424 
L 264.081367 288.415509 
L 264.198119 288.415509 
L 264.31817 293.336407 
L 264.670686 293.336407 
L 264.788404 291.000415 
L 264.905379 291.000415 
L 265.023533 297.923819 
L 265.140814 297.923819 
L 265.260842 291.000415 
L 267.969361 291.000415 
L 268.087503 295.592877 
L 268.675985 295.592877 
L 268.796814 302.528839 
L 269.383646 302.528839 
L 269.501482 297.923819 
L 269.619081 297.923819 
L 269.737047 277.492135 
L 269.854752 277.492135 
L 269.974862 272.941672 
L 270.33089 272.941672 
L 270.444896 268.060424 
L 270.56153 268.060424 
L 270.679177 271.231559 
L 270.80004 271.231559 
L 270.917664 266.719888 
L 271.739779 266.719888 
L 271.859311 261.88014 
L 271.976451 261.88014 
L 272.097009 259.04775 
L 272.448547 259.04775 
L 272.568633 283.863983 
L 273.156986 283.863983 
L 273.274927 268.060424 
L 273.391844 268.060424 
L 273.507935 288.415509 
L 274.332077 288.415509 
L 274.450937 263.545584 
L 275.039797 263.545584 
L 275.157644 283.863983 
L 275.983034 283.863983 
L 276.100422 259.04775 
L 276.453222 259.04775 
L 276.57306 279.329587 
L 276.691355 279.329587 
L 276.809368 259.04775 
L 278.338872 259.04775 
L 278.45606 237.213164 
L 278.57657 237.213164 
L 278.696114 232.430572 
L 278.814468 232.430572 
L 278.932009 261.88014 
L 279.046686 261.88014 
L 279.166101 235.730065 
L 279.518924 235.730065 
L 279.635546 243.08549 
L 279.753311 243.08549 
L 279.87091 238.651353 
L 279.988534 238.651353 
L 280.10644 218.641754 
L 280.463776 218.641754 
L 280.577428 223.039925 
L 280.695523 223.039925 
L 280.813323 215.613348 
L 280.931053 215.613348 
L 281.049348 220.014688 
L 281.167407 220.014688 
L 281.286256 244.965263 
L 281.6377 244.965263 
L 281.755548 249.437677 
L 283.052233 249.437677 
L 283.171294 253.92701 
L 283.523292 253.92701 
L 283.640962 258.78069 
L 284.466035 258.78069 
L 284.583705 280.656537 
L 284.701965 280.656537 
L 284.820625 285.220984 
L 286.115755 285.220984 
L 286.233367 263.305463 
L 287.293674 263.305463 
L 287.413112 258.78069 
L 287.765876 258.78069 
L 287.885138 253.92701 
L 288.238043 253.92701 
L 288.360451 249.437677 
L 288.709621 249.437677 
L 288.826702 244.965263 
L 289.179985 244.965263 
L 289.299564 249.437677 
L 289.414972 249.437677 
L 289.53322 253.92701 
L 289.650902 253.92701 
L 289.770529 250.985345 
L 289.88695 250.985345 
L 290.004409 258.78069 
L 290.122091 258.78069 
L 290.239608 255.495965 
L 291.300941 255.495965 
L 291.419071 250.985345 
L 292.243177 250.985345 
L 292.36258 230.604536 
L 292.714637 230.604536 
L 292.833686 250.985345 
L 292.952205 250.985345 
L 293.068073 258.78069 
L 293.191576 258.78069 
L 293.305617 250.985345 
L 293.424148 250.985345 
L 293.540157 246.146853 
L 293.659076 246.146853 
L 293.775533 258.78069 
L 296.014655 258.78069 
L 296.13282 261.336681 
L 296.250302 261.336681 
L 296.372663 256.833973 
L 296.485679 256.833973 
L 296.721314 252.348228 
L 298.135352 252.348228 
L 298.25294 256.833973 
L 298.37186 256.833973 
L 298.488694 253.92701 
L 299.078236 253.92701 
L 299.195435 258.78069 
L 299.313848 258.78069 
L 299.432473 246.146853 
L 299.784613 246.146853 
L 299.90345 250.985345 
L 300.020272 250.985345 
L 300.13971 246.146853 
L 301.906041 246.146853 
L 302.026869 239.109615 
L 302.614797 239.109615 
L 302.730606 234.647054 
L 304.026749 234.647054 
L 304.148591 227.80439 
L 304.263846 227.80439 
L 304.380374 202.967343 
L 304.498728 202.967343 
L 304.615632 205.135475 
L 304.735989 205.135475 
L 304.85168 200.760924 
L 305.20521 200.760924 
L 305.324813 196.402789 
L 305.67812 196.402789 
L 305.793952 189.543327 
L 305.911552 189.543327 
L 306.029752 193.8891 
L 306.620132 193.8891 
L 306.739275 198.251246 
L 307.090625 198.251246 
L 307.209863 202.967343 
L 307.563499 202.967343 
L 307.67998 200.129187 
L 307.797461 200.129187 
L 307.915674 220.640834 
L 308.268803 220.640834 
L 308.504533 200.129187 
L 308.624761 220.640834 
L 308.740452 220.640834 
L 308.859784 214.181663 
L 309.683218 214.181663 
L 309.801772 193.605592 
L 310.162773 193.605592 
L 310.273609 214.181663 
L 310.391079 214.181663 
L 310.508491 207.909833 
L 310.627917 207.909833 
L 310.743089 187.27087 
L 310.861149 187.27087 
L 310.979409 207.909833 
L 311.333964 207.909833 
L 311.451057 212.323923 
L 312.746953 212.323923 
L 312.864835 214.181663 
L 312.982871 214.181663 
L 313.100883 193.605592 
L 313.218354 193.605592 
L 313.336637 189.234043 
L 313.925414 189.234043 
L 314.043155 184.54466 
L 314.868062 184.54466 
L 314.986263 189.234043 
L 315.33931 189.234043 
L 315.45645 193.605592 
L 315.575134 193.605592 
L 315.69634 197.99371 
L 316.046676 197.99371 
L 316.164441 177.383935 
L 316.752982 177.383935 
L 316.8711 183.985041 
L 317.696361 183.985041 
L 317.814008 188.701861 
L 317.936534 188.701861 
L 318.050834 166.539971 
L 318.879123 166.539971 
L 318.991892 173.953983 
L 320.995578 173.953983 
L 321.113213 178.324288 
L 321.232133 178.324288 
L 321.348543 173.953983 
L 321.703628 173.953983 
L 321.822713 148.808692 
L 321.937496 148.808692 
L 322.057241 144.509925 
L 322.644874 144.509925 
L 322.762722 140.227419 
L 323.355776 140.227419 
L 323.589255 144.509925 
L 323.823653 144.509925 
L 323.941183 148.808692 
L 324.059607 148.808692 
L 324.176217 161.866581 
L 324.295773 161.866581 
L 324.412395 166.539971 
L 324.766031 166.539971 
L 324.883831 170.896728 
L 325.244266 170.896728 
L 325.355173 145.967234 
L 328.070822 145.967234 
L 328.183637 125.401066 
L 329.726245 125.401066 
L 329.833735 132.966706 
L 330.188561 132.966706 
L 330.304924 128.359243 
L 330.657322 128.359243 
L 330.778493 124.09772 
L 330.893088 124.09772 
L 331.010652 109.402041 
L 331.366433 109.402041 
L 331.483443 105.183403 
L 331.600572 105.183403 
L 331.718678 109.402041 
L 332.077982 109.402041 
L 332.191399 131.294886 
L 332.309835 131.294886 
L 332.426339 135.569547 
L 332.544611 135.569547 
L 332.662576 140.191211 
L 333.014362 140.191211 
L 333.13162 144.499761 
L 333.251388 144.499761 
L 333.368187 169.316939 
L 333.486882 169.316939 
L 333.603928 162.138787 
L 334.192988 162.138787 
L 334.312261 169.316939 
L 334.664648 169.316939 
L 334.782142 194.575161 
L 335.372014 194.575161 
L 335.488589 199.010148 
L 335.84371 199.010148 
L 335.960214 221.18158 
L 336.077625 221.18158 
L 336.198713 216.706013 
L 337.728394 216.706013 
L 337.849435 221.18158 
L 337.964325 221.18158 
L 338.082172 216.706013 
L 338.671432 216.706013 
L 338.792838 219.121963 
L 339.142326 219.121963 
L 339.262365 192.698567 
L 339.849963 192.698567 
L 339.966644 188.302065 
L 340.084597 188.302065 
L 340.201679 196.335252 
L 340.323155 196.335252 
L 340.439553 183.586028 
L 341.026798 183.586028 
L 341.150054 188.302065 
L 341.499872 188.302065 
L 341.618839 185.417823 
L 341.969847 185.417823 
L 342.088284 207.464842 
L 342.912555 207.464842 
L 343.032676 185.417823 
L 343.150111 185.417823 
L 343.267664 196.036348 
L 343.627569 196.036348 
L 343.739454 200.446959 
L 344.091016 200.446959 
L 344.208922 196.036348 
L 344.799549 196.036348 
L 344.916654 211.776886 
L 345.976018 211.776886 
L 346.09581 207.363787 
L 346.211878 207.363787 
L 346.329819 200.129187 
L 347.390244 200.129187 
L 347.507856 207.363787 
L 347.625503 207.363787 
L 347.746779 202.967343 
L 348.097198 202.967343 
L 348.217308 209.864979 
L 348.333305 209.864979 
L 348.450681 205.135475 
L 348.568611 205.135475 
L 348.687719 200.760924 
L 349.039859 200.760924 
L 349.159686 205.135475 
L 349.511366 205.135475 
L 349.629366 209.864979 
L 349.751844 209.864979 
L 349.866993 230.201319 
L 349.983108 230.201319 
L 350.09993 227.80439 
L 350.220429 227.80439 
L 350.336579 232.254556 
L 350.453519 232.254556 
L 350.572345 237.065906 
L 351.633312 237.065906 
L 351.752208 241.551231 
L 352.575407 241.551231 
L 352.694244 263.692669 
L 352.811572 263.692669 
L 352.929573 248.432172 
L 353.045829 248.432172 
L 353.163889 252.947277 
L 353.282042 252.947277 
L 353.400408 275.056968 
L 353.517914 275.056968 
L 353.637505 252.947277 
L 353.755022 252.947277 
L 353.871408 248.432172 
L 354.460374 248.432172 
L 354.578622 270.501725 
L 354.931951 270.501725 
L 355.050482 248.432172 
L 355.169072 248.432172 
L 355.289476 270.501725 
L 355.40545 270.501725 
L 355.521918 248.432172 
L 355.639259 248.432172 
L 355.757248 270.501725 
L 355.875272 270.501725 
L 355.992553 248.432172 
L 356.110577 248.432172 
L 356.228342 250.985345 
L 356.346024 250.985345 
L 356.46406 246.146853 
L 356.817602 246.146853 
L 356.93704 249.437677 
L 357.288791 249.437677 
L 357.406367 244.965263 
L 358.231816 244.965263 
L 358.349675 241.671574 
L 358.704077 241.671574 
L 358.822373 225.805795 
L 359.173675 225.805795 
L 359.293608 250.985345 
L 359.411562 250.985345 
L 359.530634 225.805795 
L 359.646325 225.805795 
L 359.762876 230.604536 
L 361.297224 230.604536 
L 361.412632 235.07811 
L 361.531045 235.07811 
L 361.648763 214.668396 
L 362.002092 214.668396 
L 362.121495 210.231909 
L 362.710861 210.231909 
L 362.827188 203.041458 
L 362.945342 203.041458 
L 363.062553 181.034587 
L 363.887755 181.034587 
L 364.008348 176.332784 
L 364.595051 176.332784 
L 364.716174 158.947376 
L 365.065744 158.947376 
L 365.185371 154.638652 
L 365.301357 154.638652 
L 365.420276 134.409191 
L 365.537511 134.409191 
L 365.657231 129.826721 
L 365.772569 129.826721 
L 365.893409 137.959363 
L 366.246951 137.959363 
L 366.365706 133.706127 
L 366.47944 133.706127 
L 366.599491 129.826721 
L 366.714935 129.826721 
L 366.834514 134.409191 
L 367.426213 134.409191 
L 367.540313 131.294886 
L 367.894103 131.294886 
L 368.012881 135.569547 
L 368.365327 135.569547 
L 368.484176 131.294886 
L 368.835856 131.294886 
L 368.95593 127.036401 
L 369.778917 127.036401 
L 369.900782 122.468341 
L 370.015412 122.468341 
L 370.13267 115.298316 
L 370.249799 115.298316 
L 370.367964 122.468341 
L 370.721742 122.468341 
L 370.840084 100.658099 
L 370.957613 100.658099 
L 371.077204 97.920296 
L 371.192624 97.920296 
L 371.310436 93.409218 
L 371.428154 93.409218 
L 371.548346 97.920296 
L 371.666676 97.920296 
L 371.784123 105.183403 
L 371.899767 105.183403 
L 372.020595 97.920296 
L 372.373242 97.920296 
L 372.489416 93.409218 
L 373.07877 93.409218 
L 373.198361 89.236764 
L 373.314146 89.236764 
L 373.431911 85.080027 
L 373.785476 85.080027 
L 373.902746 87.829561 
L 374.493291 87.829561 
L 374.610655 83.692169 
L 375.199985 83.692169 
L 375.319117 80.621031 
L 375.435692 80.621031 
L 375.553233 85.080027 
L 375.914434 85.080027 
L 376.024457 89.236764 
L 376.14287 89.236764 
L 376.261483 93.409218 
L 376.37887 93.409218 
L 376.49792 97.920296 
L 377.084092 97.920296 
L 377.204603 102.125677 
L 377.791694 102.125677 
L 377.910308 97.920296 
L 378.027047 97.920296 
L 378.14559 119.852328 
L 378.736275 119.852328 
L 378.855077 112.329049 
L 380.148899 112.329049 
L 380.266958 116.560724 
L 380.857939 116.560724 
L 380.975315 112.329049 
L 381.092691 112.329049 
L 381.210173 119.852328 
L 381.326912 119.852328 
L 381.446268 112.329049 
L 381.564398 112.329049 
L 381.680808 107.789758 
L 381.798325 107.789758 
L 381.915489 115.298316 
L 382.034396 115.298316 
L 382.152279 111.086139 
L 382.50535 111.086139 
L 382.623044 106.889818 
L 382.978518 106.889818 
L 383.094751 87.829561 
L 383.213093 87.829561 
L 383.330658 80.621031 
L 383.921603 80.621031 
L 384.039521 102.388346 
L 384.155035 102.388346 
L 384.274308 85.080027 
L 384.626424 85.080027 
L 384.744118 89.236764 
L 385.098791 89.236764 
L 385.215189 93.409218 
L 385.332871 93.409218 
L 385.450742 115.298316 
L 386.51621 115.298316 
L 386.630581 107.789758 
L 386.982945 107.789758 
L 387.100863 119.852328 
L 387.690759 119.852328 
L 387.808995 97.920296 
L 387.925629 97.920296 
L 388.044077 119.852328 
L 388.165271 119.852328 
L 388.28108 97.920296 
L 388.398974 97.920296 
L 388.51622 115.298316 
L 388.633643 115.298316 
L 388.751184 93.409218 
L 389.575679 93.409218 
L 389.693043 89.236764 
L 389.812929 89.236764 
L 389.930435 111.086139 
L 390.046962 111.086139 
L 390.166895 115.298316 
L 390.283576 115.298316 
L 390.400115 111.086139 
L 390.755106 111.086139 
L 390.873602 106.889818 
L 390.989528 106.889818 
L 391.10965 85.080027 
L 391.22507 85.080027 
L 391.344084 102.388346 
L 391.462202 102.388346 
L 391.579943 80.621031 
L 391.696306 80.621031 
L 391.813905 102.388346 
L 392.40379 102.388346 
L 392.521767 85.080027 
L 392.63906 85.080027 
L 392.758157 89.236764 
L 392.876074 89.236764 
L 392.994688 111.086139 
L 393.111015 111.086139 
L 393.23063 115.298316 
L 393.347958 115.298316 
L 393.464321 119.852328 
L 394.054877 119.852328 
L 394.172418 112.329049 
L 395.231653 112.329049 
L 395.349771 137.049063 
L 396.414262 137.049063 
L 396.529776 141.334223 
L 399.001635 141.334223 
L 399.120401 137.049063 
L 399.474709 137.049063 
L 399.592839 140.227419 
L 399.944731 140.227419 
L 400.066997 115.298316 
L 400.41665 115.298316 
L 400.536454 111.086139 
L 400.88758 111.086139 
L 401.006346 115.298316 
L 401.123981 115.298316 
L 401.241581 119.852328 
L 401.596608 119.852328 
L 401.718591 116.560724 
L 401.830711 116.560724 
L 401.948547 120.808481 
L 402.066406 120.808481 
L 402.18793 125.401066 
L 403.013026 125.401066 
L 403.128622 120.808481 
L 403.631591 120.808481 
L 403.834233 125.401066 
L 405.601471 125.401066 
L 405.720614 120.808481 
L 406.308978 120.808481 
L 406.430832 116.560724 
L 407.485825 116.560724 
L 407.606241 112.329049 
L 407.957756 112.329049 
L 408.077182 107.789758 
L 408.193557 107.789758 
L 408.312205 111.086139 
L 408.435261 111.086139 
L 408.549043 89.236764 
L 408.664816 89.236764 
L 408.784466 85.080027 
L 409.373667 85.080027 
L 409.491032 106.889818 
L 409.609279 106.889818 
L 409.727798 111.086139 
L 410.081069 111.086139 
L 410.198304 103.5912 
L 410.314525 103.5912 
L 410.433928 107.789758 
L 410.786715 107.789758 
L 410.903655 112.329049 
L 411.02089 112.329049 
L 411.139691 107.789758 
L 411.728881 107.789758 
L 411.845927 128.200829 
L 412.435587 128.200829 
L 412.554401 132.780116 
L 412.907848 132.780116 
L 413.027604 112.329049 
L 413.143071 112.329049 
L 413.260223 119.852328 
L 413.37833 119.852328 
L 413.496272 140.227419 
L 416.206299 140.227419 
L 416.324229 135.633582 
L 416.441369 135.633582 
L 416.677453 115.298316 
L 416.797221 111.086139 
L 416.914161 111.086139 
L 417.033339 114.033892 
L 417.855808 114.033892 
L 417.975175 116.836023 
L 418.09235 116.836023 
L 418.20962 121.365653 
L 418.327656 121.365653 
L 418.445692 114.033892 
L 418.564729 114.033892 
L 418.680962 134.223954 
L 418.798715 134.223954 
L 419.035058 138.469799 
L 419.151998 122.468341 
L 419.269833 122.468341 
L 419.38926 127.036401 
L 419.743862 127.036401 
L 419.860896 147.339396 
L 421.390672 147.339396 
L 421.510522 127.036401 
L 422.333827 127.036401 
L 422.453359 134.409191 
L 423.041429 134.409191 
L 423.159335 129.826721 
L 423.983866 129.826721 
L 424.10209 134.409191 
L 424.456763 134.409191 
L 424.572984 129.826721 
L 424.926467 129.826721 
L 425.046153 125.588213 
L 425.401674 125.588213 
L 425.51621 121.365653 
L 425.63295 121.365653 
L 425.753943 129.46889 
L 425.872733 129.46889 
L 425.987222 103.402168 
L 426.10441 103.402168 
L 426.224885 99.236667 
L 426.340917 99.236667 
L 426.458965 120.719217 
L 426.812 120.719217 
L 426.932416 124.923512 
L 427.047647 124.923512 
L 427.169136 116.836023 
L 427.283094 116.836023 
L 427.403734 121.365653 
L 427.518518 121.365653 
L 427.638545 125.588213 
L 427.753977 125.588213 
L 427.871529 145.74163 
L 427.989907 145.74163 
L 428.10753 122.468341 
L 428.225342 122.468341 
L 428.345888 142.731672 
L 429.168062 142.731672 
L 429.28618 147.339396 
L 431.290408 147.339396 
L 431.409293 151.634844 
L 431.760242 151.634844 
L 431.878973 147.339396 
L 432.236969 147.339396 
L 432.349561 151.634844 
L 432.471874 151.634844 
L 432.585738 147.339396 
L 432.938467 147.339396 
L 433.05952 151.634844 
L 433.178439 151.634844 
L 433.294436 147.339396 
L 433.412684 147.339396 
L 433.528163 127.036401 
L 433.646305 127.036401 
L 433.764447 122.468341 
L 433.880963 122.468341 
L 434.003453 129.826721 
L 434.119532 129.826721 
L 434.23507 125.588213 
L 434.589496 125.588213 
L 434.706271 121.365653 
L 434.824224 121.365653 
L 434.945158 99.714472 
L 435.531496 99.714472 
L 435.649473 103.897777 
L 435.767733 103.897777 
L 435.884979 125.588213 
L 436.007068 125.588213 
L 436.125081 129.826721 
L 436.23997 129.826721 
L 436.359632 122.468341 
L 436.709745 122.468341 
L 436.830797 127.036401 
L 437.653784 127.036401 
L 437.774459 105.183403 
L 437.907802 105.183403 
L 438.007703 127.036401 
L 438.595513 127.036401 
L 438.831538 105.183403 
L 439.066938 105.183403 
L 439.184844 127.036401 
L 439.303245 127.036401 
L 439.420539 105.183403 
L 439.775541 105.183403 
L 439.892481 97.920296 
L 440.009068 97.920296 
L 440.126656 119.852328 
L 440.244751 119.852328 
L 440.361926 124.09772 
L 440.495151 124.09772 
L 440.600072 119.852328 
L 440.95207 119.852328 
L 441.072521 97.920296 
L 441.895873 97.920296 
L 442.01233 100.658099 
L 442.365212 100.658099 
L 442.486041 96.472483 
L 442.837414 96.472483 
L 442.956817 92.302631 
L 443.072508 92.302631 
L 443.190579 99.714472 
L 444.251169 99.714472 
L 444.371031 96.472483 
L 444.48664 96.472483 
L 444.606938 92.302631 
L 444.723147 92.302631 
L 444.844989 96.472483 
L 445.194419 96.472483 
L 445.311029 100.658099 
L 445.664936 100.658099 
L 445.787437 122.468341 
L 445.90175 122.468341 
L 446.024511 118.243166 
L 449.199953 118.243166 
L 449.319804 111.086139 
L 450.142661 111.086139 
L 450.263654 106.889818 
L 450.85064 106.889818 
L 450.967992 109.51852 
L 451.556463 109.51852 
L 451.674204 83.692169 
L 451.792145 83.692169 
L 451.913304 91.076218 
L 452.734841 91.076218 
L 452.971007 87.829561 
L 453.089373 92.302631 
L 453.208457 92.302631 
L 453.323783 118.243166 
L 453.67868 118.243166 
L 453.917933 115.298316 
L 455.799247 115.298316 
L 455.919357 93.409218 
L 456.50692 93.409218 
L 456.62485 97.920296 
L 456.741884 97.920296 
L 456.859873 93.409218 
L 456.977626 93.409218 
L 457.095237 97.920296 
L 457.921028 97.920296 
L 458.037509 102.125677 
L 458.627087 102.125677 
L 458.745017 74.033842 
L 458.863394 74.033842 
L 458.982325 94.505205 
L 459.098382 94.505205 
L 459.216736 74.033842 
L 459.334324 74.033842 
L 459.456814 69.879707 
L 459.569959 69.879707 
L 459.687547 65.423617 
L 459.805677 65.423617 
L 459.923065 61.302038 
L 460.041266 61.302038 
L 460.159926 68.958348 
L 460.277043 68.958348 
L 460.39469 64.838405 
L 460.51857 64.838405 
L 460.631622 44.607663 
L 460.749846 44.607663 
L 460.866209 48.690781 
L 460.986636 48.690781 
L 461.101444 36.885606 
L 461.22378 36.885606 
L 461.337998 40.954653 
L 461.455127 40.954653 
L 461.572503 45.039112 
L 461.690079 45.039112 
L 461.81066 49.455082 
L 461.928107 49.455082 
L 462.044516 42.449615 
L 462.398482 42.449615 
L 462.515776 46.553522 
L 463.605672 46.553522 
L 463.816385 42.449615 
L 464.518873 42.449615 
L 464.637557 38.04742 
L 464.754933 38.04742 
L 464.873134 45.039112 
L 465.006783 45.039112 
L 465.109441 40.954653 
L 465.461557 40.954653 
L 465.579074 33.975705 
L 465.932769 33.975705 
L 466.051335 40.954653 
L 466.876667 40.954653 
L 466.994797 45.039112 
L 467.348574 45.039112 
L 467.466151 40.954653 
L 467.819692 40.954653 
L 467.936585 64.838405 
L 468.053714 64.838405 
L 468.177971 44.607663 
L 468.290151 44.607663 
L 468.409919 40.227663 
L 468.525268 40.227663 
L 468.645189 60.41889 
L 468.76088 60.41889 
L 468.880459 36.17638 
L 468.998083 36.17638 
L 469.115671 56.331047 
L 469.939859 56.331047 
L 470.0574 76.49666 
L 470.175153 76.49666 
L 470.293637 73.071638 
L 470.416245 73.071638 
L 470.5284 77.515887 
L 470.882991 77.515887 
L 471.001663 81.65888 
L 471.119911 81.65888 
L 471.236391 96.831211 
L 472.061181 96.831211 
L 472.177932 101.01748 
L 474.888749 101.01748 
L 475.009967 96.831211 
L 475.595079 96.831211 
L 475.713892 74.823607 
L 475.83161 74.823607 
L 475.952026 96.831211 
L 476.538246 96.831211 
L 476.655598 77.515887 
L 477.0096 77.515887 
L 477.131654 73.071638 
L 477.480977 73.071638 
L 477.598153 76.49666 
L 477.716672 76.49666 
L 477.835462 68.960912 
L 478.193399 68.960912 
L 478.305448 73.071638 
L 478.663385 73.071638 
L 478.77923 77.515887 
L 478.896122 77.515887 
L 479.01232 74.823607 
L 479.132206 74.823607 
L 479.248568 96.831211 
L 479.601108 96.831211 
L 479.724848 101.01748 
L 479.840055 101.01748 
L 479.954697 96.831211 
L 480.781325 96.831211 
L 480.902142 113.066408 
L 481.016136 113.066408 
L 481.132958 96.831211 
L 481.487054 96.831211 
L 481.607918 90.26544 
L 481.72355 90.26544 
L 481.843388 96.831211 
L 481.960682 96.831211 
L 482.076702 90.26544 
L 482.194031 90.26544 
L 482.314282 110.775218 
L 483.136963 110.775218 
L 483.256648 90.26544 
L 484.786742 90.26544 
L 484.904483 92.660709 
L 485.02649 92.660709 
L 485.142122 88.186942 
L 485.262397 88.186942 
L 485.377439 66.262076 
L 485.493884 66.262076 
L 485.613711 68.960912 
L 485.731076 68.960912 
L 485.848805 64.865588 
L 486.908488 64.865588 
L 487.028927 68.960912 
L 487.380395 68.960912 
L 487.4971 73.071638 
L 487.615053 73.071638 
L 487.734055 77.515887 
L 487.850995 77.515887 
L 487.968159 70.693017 
L 488.090248 70.693017 
L 488.206387 74.823607 
L 488.323869 74.823607 
L 488.443813 96.831211 
L 489.029149 96.831211 
L 489.146113 74.823607 
L 489.500091 74.823607 
L 489.618315 81.65888 
L 489.736221 81.65888 
L 489.855659 103.5912 
L 489.971857 103.5912 
L 490.089551 96.831211 
L 490.680284 96.831211 
L 490.796375 81.65888 
L 490.915436 81.65888 
L 491.031917 103.5912 
L 491.149505 103.5912 
L 491.269061 101.01748 
L 491.385659 101.01748 
L 491.504967 85.817543 
L 491.857908 85.817543 
L 491.975131 78.969824 
L 492.329568 78.969824 
L 492.56326 101.01748 
L 492.816099 101.01748 
L 492.917249 105.543488 
L 493.50612 105.543488 
L 493.623826 101.01748 
L 493.741379 101.01748 
L 493.862537 85.817543 
L 493.978605 85.817543 
L 494.098291 81.65888 
L 494.449134 81.65888 
L 494.566899 85.080027 
L 495.627289 85.080027 
L 495.745006 89.236764 
L 495.869064 89.236764 
L 495.982044 85.817543 
L 496.334443 85.817543 
L 496.45209 90.313716 
L 496.571563 90.313716 
L 496.688645 94.505205 
L 498.22086 94.505205 
L 498.337788 90.313716 
L 499.16273 90.313716 
L 499.281803 94.505205 
L 499.636311 94.505205 
L 499.752155 90.313716 
L 500.576144 90.313716 
L 500.696383 94.505205 
L 501.990511 94.505205 
L 502.108358 90.313716 
L 502.226842 90.313716 
L 502.344501 93.409218 
L 502.69776 93.409218 
L 502.818576 89.236764 
L 503.171364 89.236764 
L 503.289282 72.135247 
L 503.404443 72.135247 
L 503.522726 67.701493 
L 504.113294 67.701493 
L 504.231059 72.135247 
L 504.584695 72.135247 
L 504.700869 76.26846 
L 504.823429 76.26846 
L 504.937683 80.417308 
L 505.056473 80.417308 
L 505.174579 97.920296 
L 505.52547 97.920296 
L 505.646334 102.125677 
L 506.939555 102.125677 
L 507.058934 97.920296 
L 507.175732 97.920296 
L 507.324511 102.125677 
L 508.826042 102.125677 
L 508.94297 124.09772 
L 510.94767 124.09772 
L 511.065105 97.920296 
L 511.181361 97.920296 
L 511.302084 119.852328 
L 511.417645 119.852328 
L 511.534726 122.468341 
L 511.653551 122.468341 
L 511.771045 100.658099 
L 511.888857 100.658099 
L 512.010157 96.472483 
L 512.124505 96.472483 
L 512.243483 99.714472 
L 512.831553 99.714472 
L 512.950991 103.897777 
L 513.067648 103.897777 
L 513.186061 108.096892 
L 513.540263 108.096892 
L 513.656472 112.636786 
L 514.01085 112.636786 
L 514.127072 116.869021 
L 514.249573 116.869021 
L 514.364003 109.402041 
L 514.481379 109.402041 
L 514.599285 105.183403 
L 514.7226 105.183403 
L 514.836264 109.402041 
L 516.838195 109.402041 
L 516.958364 105.183403 
L 517.074137 105.183403 
L 517.192621 109.402041 
L 517.780219 109.402041 
L 518.01622 131.294886 
L 518.724847 131.294886 
L 518.841681 127.036401 
L 519.666046 127.036401 
L 519.784 122.468341 
L 519.902259 122.468341 
L 520.019659 125.588213 
L 520.374933 125.588213 
L 520.4939 121.365653 
L 520.608495 121.365653 
L 520.726059 95.226967 
L 521.315248 95.226967 
L 521.434321 99.714472 
L 521.55132 99.714472 
L 521.668967 121.365653 
L 521.786967 121.365653 
L 521.907666 125.588213 
L 522.258333 125.588213 
L 522.37783 118.243166 
L 522.498258 118.243166 
L 522.611851 122.468341 
L 523.202042 122.468341 
L 523.318958 127.036401 
L 524.61509 127.036401 
L 524.732607 105.183403 
L 524.852469 105.183403 
L 524.968655 119.852328 
L 525.085913 119.852328 
L 525.20336 97.920296 
L 526.029139 97.920296 
L 526.148318 102.125677 
L 526.502814 102.125677 
L 526.62197 97.920296 
L 526.737307 97.920296 
L 526.854483 102.125677 
L 526.972177 102.125677 
L 527.090201 81.733243 
L 527.679484 81.733243 
L 527.798628 85.917294 
L 527.915191 85.917294 
L 528.034464 81.733243 
L 528.303541 81.733243 
L 528.621449 77.565053 
L 528.739638 57.220589 
L 529.09318 57.220589 
L 529.210603 52.789359 
L 529.33129 52.789359 
L 529.448207 60.188639 
L 529.564404 60.188639 
L 529.684255 52.789359 
L 529.799922 52.789359 
L 529.919643 60.188639 
L 530.035711 60.188639 
L 530.153546 52.789359 
L 530.270922 52.789359 
L 530.388958 57.220589 
L 530.506947 57.220589 
L 530.624476 61.351556 
L 531.213465 61.351556 
L 531.335554 53.571826 
L 531.454226 53.571826 
L 531.568432 31.547114 
L 531.685278 31.547114 
L 531.80831 53.571826 
L 531.92109 53.571826 
L 532.040481 61.351556 
L 532.3942 61.351556 
L 532.510586 53.571826 
L 532.628186 53.571826 
L 532.74535 61.351556 
L 533.098833 61.351556 
L 533.216798 81.733243 
L 533.334362 81.733243 
L 533.45393 77.565053 
L 534.515156 77.565053 
L 534.631 69.879707 
L 534.749119 69.879707 
L 534.866247 77.565053 
L 535.220131 77.565053 
L 535.34156 73.093881 
L 535.455625 73.093881 
L 535.575746 65.423617 
L 535.927603 65.423617 
L 536.047454 85.817543 
L 536.634911 85.817543 
L 536.751686 89.236764 
L 537.341146 89.236764 
L 537.459087 85.080027 
L 537.578431 85.080027 
L 537.694499 92.302631 
L 537.812405 92.302631 
L 537.931195 85.080027 
L 538.521516 85.080027 
L 538.641673 89.236764 
L 538.75582 89.236764 
L 538.874834 115.298316 
L 538.990784 115.298316 
L 539.110198 93.409218 
L 539.226349 93.409218 
L 539.34495 90.313716 
L 539.698032 90.313716 
L 539.816928 116.560724 
L 540.409005 116.560724 
L 540.523706 109.762784 
L 542.525907 109.762784 
L 542.643743 113.998119 
L 543.001385 113.998119 
L 543.115403 116.560724 
L 544.176547 116.560724 
L 544.294041 141.334223 
L 544.882476 141.334223 
L 545.001584 137.049063 
L 545.354725 137.049063 
L 545.473986 124.09772 
L 545.589701 124.09772 
L 545.709669 119.852328 
L 545.825984 119.852328 
L 545.943431 115.298316 
L 546.062704 115.298316 
L 546.1814 122.468341 
L 546.298187 122.468341 
L 546.414773 118.243166 
L 546.767938 118.243166 
L 546.886044 129.826721 
L 547.004127 129.826721 
L 547.241295 125.588213 
L 547.357752 122.468341 
L 547.94733 122.468341 
L 548.064823 127.036401 
L 548.417976 127.036401 
L 548.53798 131.294886 
L 548.653612 131.294886 
L 548.771966 135.569547 
L 548.889142 135.569547 
L 549.006635 131.294886 
L 550.539557 131.294886 
L 550.658583 109.402041 
L 550.774026 109.402041 
L 550.892569 105.183403 
L 551.010711 105.183403 
L 551.132246 112.636786 
L 551.245792 112.636786 
L 551.363263 105.183403 
L 551.483219 105.183403 
L 551.599912 108.096892 
L 551.717441 108.096892 
L 551.835535 100.658099 
L 552.188571 100.658099 
L 552.305546 108.096892 
L 552.659912 108.096892 
L 552.779068 112.636786 
L 552.896055 112.636786 
L 553.017437 105.183403 
L 553.132091 105.183403 
L 553.249055 112.636786 
L 553.36735 112.636786 
L 553.486458 105.183403 
L 553.602809 105.183403 
L 553.71989 108.096892 
L 554.074586 108.096892 
L 554.194991 103.897777 
L 554.781199 103.897777 
L 554.898492 99.714472 
L 555.961038 99.714472 
L 556.077566 103.897777 
L 556.201588 103.897777 
L 556.316289 125.588213 
L 556.430436 125.588213 
L 556.549473 122.468341 
L 556.66606 122.468341 
L 556.78432 127.036401 
L 557.137838 127.036401 
L 557.25717 151.634844 
L 557.374063 151.634844 
L 557.491014 131.294886 
L 557.608685 131.294886 
L 557.727911 127.036401 
L 557.84432 127.036401 
L 557.961897 147.339396 
L 559.964959 147.339396 
L 560.083419 142.731672 
L 560.436902 142.731672 
L 560.554148 147.339396 
L 560.67269 147.339396 
L 560.790113 142.731672 
L 561.380705 142.731672 
L 561.498847 147.339396 
L 562.558247 147.339396 
L 562.678215 142.731672 
L 563.028952 142.731672 
L 563.148296 150.016683 
L 563.504713 150.016683 
L 563.619626 153.779153 
L 564.445453 153.779153 
L 564.563595 178.189974 
L 564.680051 178.189974 
L 564.797262 182.866963 
L 564.914921 182.866963 
L 565.033499 208.98996 
L 565.151264 208.98996 
L 565.269264 205.472965 
L 565.386475 205.472965 
L 565.507257 230.604536 
L 566.093099 230.604536 
L 566.213162 235.07811 
L 566.329312 235.07811 
L 566.447089 255.495965 
L 567.036007 255.495965 
L 567.155492 282.060077 
L 567.747415 282.060077 
L 567.862281 302.528839 
L 567.978385 302.528839 
L 568.096797 307.507487 
L 568.450858 307.507487 
L 568.568104 328.021832 
L 569.392905 328.021832 
L 569.512579 315.191558 
L 569.630886 315.191558 
L 569.748981 319.846884 
L 569.866333 319.846884 
L 569.985453 340.325558 
L 570.099494 340.325558 
L 570.218037 319.846884 
L 570.334823 319.846884 
L 570.571437 332.700475 
L 570.68906 340.325558 
L 571.985463 340.325558 
L 572.104359 315.191558 
L 572.222583 315.191558 
L 572.342823 335.633095 
L 572.456722 335.633095 
L 572.575548 319.846884 
L 572.927616 319.846884 
L 573.045464 345.035929 
L 573.163606 345.035929 
L 573.280982 350.128765 
L 573.634936 350.128765 
L 573.753879 347.208744 
L 574.105948 347.208744 
L 574.223854 351.960836 
L 574.345884 351.960836 
L 574.460633 357.098901 
L 575.049256 357.098901 
L 575.166491 350.137946 
L 575.283596 350.137946 
L 575.407193 341.105083 
L 575.756057 341.105083 
L 575.874034 366.697725 
L 575.991917 366.697725 
L 576.109964 338.821574 
L 576.231276 338.821574 
L 576.344751 343.96559 
L 576.464708 343.96559 
L 576.582708 364.896665 
L 576.698753 364.896665 
L 576.819122 343.96559 
L 577.171733 343.96559 
L 577.287871 369.731158 
L 577.412742 369.731158 
L 577.523248 348.761433 
L 577.877049 348.761433 
L 577.996852 353.575916 
L 578.347919 353.575916 
L 578.466108 351.858097 
L 578.820027 351.858097 
L 578.937215 356.698773 
L 579.292347 356.698773 
L 579.408439 361.558566 
L 579.526333 361.558566 
L 579.647527 356.698773 
L 580.705419 356.698773 
L 580.825033 342.549435 
L 580.940489 342.549435 
L 581.057865 361.558566 
L 581.17616 361.558566 
L 581.298567 366.813263 
L 581.661064 366.813263 
L 581.765196 371.712527 
L 581.883267 371.712527 
L 582.00102 369.314572 
L 582.119185 369.314572 
L 582.239931 374.618336 
L 582.354609 374.618336 
L 582.47929 379.563471 
L 582.592684 379.563471 
L 582.710566 384.52817 
L 583.06597 384.52817 
L 583.181107 383.248607 
L 583.29886 383.248607 
L 583.414999 404.869251 
L 583.534213 404.869251 
L 583.652849 383.248607 
L 583.768694 383.248607 
L 583.886494 388.24175 
L 584.241214 388.24175 
L 584.474988 409.903209 
L 584.71496 409.903209 
L 584.830167 414.957188 
L 584.946601 414.957188 
L 585.064589 388.24175 
L 585.183191 388.24175 
L 585.30204 381.774734 
L 585.418508 381.774734 
L 585.536414 388.24175 
L 585.655051 388.24175 
L 585.772215 393.254768 
L 585.890687 393.254768 
L 586.009642 371.552016 
L 586.125545 371.552016 
L 586.243144 386.77551 
L 586.360709 386.77551 
L 586.478886 393.254768 
L 586.596545 393.254768 
L 586.719789 371.552016 
L 588.010194 371.552016 
L 588.130845 343.252575 
L 588.24722 343.252575 
L 588.365904 338.344431 
L 588.481677 338.344431 
L 588.599536 345.130718 
L 588.717973 345.130718 
L 588.837045 339.852989 
L 588.953514 339.852989 
L 589.072174 313.505772 
L 589.188525 313.505772 
L 589.310921 321.077364 
L 589.424938 321.077364 
L 589.543434 316.242161 
L 590.845457 316.242161 
L 590.956918 321.077364 
L 591.074706 321.077364 
L 591.193425 342.469044 
L 591.546225 342.469044 
L 591.664355 347.363832 
L 592.254216 347.363832 
L 592.370448 342.469044 
L 593.431475 342.469044 
L 593.550147 337.593573 
L 593.904961 337.593573 
L 594.019945 360.591338 
L 595.31709 360.591338 
L 595.434749 355.315865 
L 596.023867 355.315865 
L 596.142657 376.631057 
L 596.4968 376.631057 
L 596.613693 381.949596 
L 596.73154 381.949596 
L 596.848303 376.631057 
L 597.201621 376.631057 
L 597.319551 378.688859 
L 597.436491 378.688859 
L 597.555257 357.481797 
L 597.673069 357.481797 
L 597.790327 364.713907 
L 598.144234 364.713907 
L 598.265675 359.827696 
L 598.616637 359.827696 
L 598.734496 354.587005 
L 598.85153 354.587005 
L 598.969283 375.642667 
L 599.087071 375.642667 
L 599.20678 380.925634 
L 599.558802 380.925634 
L 599.677875 385.851246 
L 600.03025 385.851246 
L 600.150207 406.993202 
L 600.503678 406.993202 
L 600.619534 385.851246 
L 600.973217 385.851246 
L 601.093798 406.993202 
L 601.6797 406.993202 
L 601.79783 393.770526 
L 601.915323 393.770526 
L 602.033607 388.830171 
L 602.862497 388.830171 
L 602.977221 409.857519 
L 603.093619 409.857519 
L 603.214613 404.516696 
L 603.565162 404.516696 
L 603.682007 407.006143 
L 603.801292 407.006143 
L 603.920047 399.577216 
L 604.035667 399.577216 
L 604.153679 407.006143 
L 604.508223 407.006143 
L 604.624833 402.072333 
L 604.978551 402.072333 
L 604.978551 402.072333 
" clip-path="url(#p15b654aa9a)" style="fill: none; stroke: #1f77b4; stroke-width: 2; stroke-linecap: square"/>
   </g>
   <g id="patch_3">
    <path d="M 72.342187 414.957188 
L 72.342187 26.877188 
" style="fill: none; stroke: #808080; stroke-width: 2; stroke-linejoin: miter; stroke-linecap: square"/>
   </g>
   <g id="patch_4">
    <path d="M 72.342188 414.957187 
L 630.342188 414.957187 
" style="fill: none; stroke: #808080; stroke-width: 2; stroke-linejoin: miter; stroke-linecap: square"/>
   </g>
   <g id="text_16">
    <!-- Oskar-Nidarosdomen-vinkel -->
    <g style="fill: #808080" transform="translate(227.777813 20.877187) scale(0.18 -0.18)">
     <defs>
      <path id="DejaVuSans-4f" d="M 2522 4238 
Q 1834 4238 1429 3725 
Q 1025 3213 1025 2328 
Q 1025 1447 1429 934 
Q 1834 422 2522 422 
Q 3209 422 3611 934 
Q 4013 1447 4013 2328 
Q 4013 3213 3611 3725 
Q 3209 4238 2522 4238 
z
M 2522 4750 
Q 3503 4750 4090 4092 
Q 4678 3434 4678 2328 
Q 4678 1225 4090 567 
Q 3503 -91 2522 -91 
Q 1538 -91 948 565 
Q 359 1222 359 2328 
Q 359 3434 948 4092 
Q 1538 4750 2522 4750 
z
" transform="scale(0.015625)"/>
      <path id="DejaVuSans-6b" d="M 581 4863 
L 1159 4863 
L 1159 1991 
L 2875 3500 
L 3609 3500 
L 1753 1863 
L 3688 0 
L 2938 0 
L 1159 1709 
L 1159 0 
L 581 0 
L 581 4863 
z
" transform="scale(0.015625)"/>
      <path id="DejaVuSans-61" d="M 2194 1759 
Q 1497 1759 1228 1600 
Q 959 1441 959 1056 
Q 959 750 1161 570 
Q 1363 391 1709 391 
Q 2188 391 2477 730 
Q 2766 1069 2766 1631 
L 2766 1759 
L 2194 1759 
z
M 3341 1997 
L 3341 0 
L 2766 0 
L 2766 531 
Q 2569 213 2275 61 
Q 1981 -91 1556 -91 
Q 1019 -91 701 211 
Q 384 513 384 1019 
Q 384 1609 779 1909 
Q 1175 2209 1959 2209 
L 2766 2209 
L 2766 2266 
Q 2766 2663 2505 2880 
Q 2244 3097 1772 3097 
Q 1472 3097 1187 3025 
Q 903 2953 641 2809 
L 641 3341 
Q 956 3463 1253 3523 
Q 1550 3584 1831 3584 
Q 2591 3584 2966 3190 
Q 3341 2797 3341 1997 
z
" transform="scale(0.015625)"/>
      <path id="DejaVuSans-72" d="M 2631 2963 
Q 2534 3019 2420 3045 
Q 2306 3072 2169 3072 
Q 1681 3072 1420 2755 
Q 1159 2438 1159 1844 
L 1159 0 
L 581 0 
L 581 3500 
L 1159 3500 
L 1159 2956 
Q 1341 3275 1631 3429 
Q 1922 3584 2338 3584 
Q 2397 3584 2469 3576 
Q 2541 3569 2628 3553 
L 2631 2963 
z
" transform="scale(0.015625)"/>
      <path id="DejaVuSans-2d" d="M 313 2009 
L 1997 2009 
L 1997 1497 
L 313 1497 
L 313 2009 
z
" transform="scale(0.015625)"/>
      <path id="DejaVuSans-4e" d="M 628 4666 
L 1478 4666 
L 3547 763 
L 3547 4666 
L 4159 4666 
L 4159 0 
L 3309 0 
L 1241 3903 
L 1241 0 
L 628 0 
L 628 4666 
z
" transform="scale(0.015625)"/>
      <path id="DejaVuSans-6f" d="M 1959 3097 
Q 1497 3097 1228 2736 
Q 959 2375 959 1747 
Q 959 1119 1226 758 
Q 1494 397 1959 397 
Q 2419 397 2687 759 
Q 2956 1122 2956 1747 
Q 2956 2369 2687 2733 
Q 2419 3097 1959 3097 
z
M 1959 3584 
Q 2709 3584 3137 3096 
Q 3566 2609 3566 1747 
Q 3566 888 3137 398 
Q 2709 -91 1959 -91 
Q 1206 -91 779 398 
Q 353 888 353 1747 
Q 353 2609 779 3096 
Q 1206 3584 1959 3584 
z
" transform="scale(0.015625)"/>
      <path id="DejaVuSans-6e" d="M 3513 2113 
L 3513 0 
L 2938 0 
L 2938 2094 
Q 2938 2591 2744 2837 
Q 2550 3084 2163 3084 
Q 1697 3084 1428 2787 
Q 1159 2491 1159 1978 
L 1159 0 
L 581 0 
L 581 3500 
L 1159 3500 
L 1159 2956 
Q 1366 3272 1645 3428 
Q 1925 3584 2291 3584 
Q 2894 3584 3203 3211 
Q 3513 2838 3513 2113 
z
" transform="scale(0.015625)"/>
      <path id="DejaVuSans-76" d="M 191 3500 
L 800 3500 
L 1894 563 
L 2988 3500 
L 3597 3500 
L 2284 0 
L 1503 0 
L 191 3500 
z
" transform="scale(0.015625)"/>
      <path id="DejaVuSans-6c" d="M 603 4863 
L 1178 4863 
L 1178 0 
L 603 0 
L 603 4863 
z
" transform="scale(0.015625)"/>
     </defs>
     <use xlink:href="#DejaVuSans-4f"/>
     <use xlink:href="#DejaVuSans-73" x="78.710938"/>
     <use xlink:href="#DejaVuSans-6b" x="130.810547"/>
     <use xlink:href="#DejaVuSans-61" x="186.970703"/>
     <use xlink:href="#DejaVuSans-72" x="248.25"/>
     <use xlink:href="#DejaVuSans-2d" x="282.988281"/>
     <use xlink:href="#DejaVuSans-4e" x="319.072266"/>
     <use xlink:href="#DejaVuSans-69" x="393.876953"/>
     <use xlink:href="#DejaVuSans-64" x="421.660156"/>
     <use xlink:href="#DejaVuSans-61" x="485.136719"/>
     <use xlink:href="#DejaVuSans-72" x="546.416016"/>
     <use xlink:href="#DejaVuSans-6f" x="585.279297"/>
     <use xlink:href="#DejaVuSans-73" x="646.460938"/>
     <use xlink:href="#DejaVuSans-64" x="698.560547"/>
     <use xlink:href="#DejaVuSans-6f" x="762.037109"/>
     <use xlink:href="#DejaVuSans-6d" x="823.21875"/>
     <use xlink:href="#DejaVuSans-65" x="920.630859"/>
     <use xlink:href="#DejaVuSans-6e" x="982.154297"/>
     <use xlink:href="#DejaVuSans-2d" x="1045.533203"/>
     <use xlink:href="#DejaVuSans-76" x="1078.992188"/>
     <use xlink:href="#DejaVuSans-69" x="1138.171875"/>
     <use xlink:href="#DejaVuSans-6e" x="1165.955078"/>
     <use xlink:href="#DejaVuSans-6b" x="1229.333984"/>
     <use xlink:href="#DejaVuSans-65" x="1283.619141"/>
     <use xlink:href="#DejaVuSans-6c" x="1345.142578"/>
    </g>
   </g>
   <g id="legend_1">
    <g id="patch_5">
     <path d="M 82.842187 407.457187 
L 336.782812 407.457187 
Q 339.782812 407.457187 339.782812 404.457187 
L 339.782812 383.94 
Q 339.782812 380.94 336.782812 380.94 
L 82.842187 380.94 
Q 79.842187 380.94 79.842187 383.94 
L 79.842187 404.457187 
Q 79.842187 407.457187 82.842187 407.457187 
z
" style="fill: #ffffff; opacity: 0.8; stroke: #cccccc; stroke-linejoin: miter"/>
    </g>
    <g id="line2d_28">
     <path d="M 85.842187 393.087656 
L 100.842187 393.087656 
L 115.842187 393.087656 
" style="fill: none; stroke: #1f77b4; stroke-width: 2; stroke-linecap: square"/>
    </g>
    <g id="text_17">
     <!-- Oskar-Nidarosdomen-vinkel -->
     <g style="fill: #808080" transform="translate(127.842187 398.337656) scale(0.15 -0.15)">
      <use xlink:href="#DejaVuSans-4f"/>
      <use xlink:href="#DejaVuSans-73" x="78.710938"/>
      <use xlink:href="#DejaVuSans-6b" x="130.810547"/>
      <use xlink:href="#DejaVuSans-61" x="186.970703"/>
      <use xlink:href="#DejaVuSans-72" x="248.25"/>
      <use xlink:href="#DejaVuSans-2d" x="282.988281"/>
      <use xlink:href="#DejaVuSans-4e" x="319.072266"/>
      <use xlink:href="#DejaVuSans-69" x="393.876953"/>
      <use xlink:href="#DejaVuSans-64" x="421.660156"/>
      <use xlink:href="#DejaVuSans-61" x="485.136719"/>
      <use xlink:href="#DejaVuSans-72" x="546.416016"/>
      <use xlink:href="#DejaVuSans-6f" x="585.279297"/>
      <use xlink:href="#DejaVuSans-73" x="646.460938"/>
      <use xlink:href="#DejaVuSans-64" x="698.560547"/>
      <use xlink:href="#DejaVuSans-6f" x="762.037109"/>
      <use xlink:href="#DejaVuSans-6d" x="823.21875"/>
      <use xlink:href="#DejaVuSans-65" x="920.630859"/>
      <use xlink:href="#DejaVuSans-6e" x="982.154297"/>
      <use xlink:href="#DejaVuSans-2d" x="1045.533203"/>
      <use xlink:href="#DejaVuSans-76" x="1078.992188"/>
      <use xlink:href="#DejaVuSans-69" x="1138.171875"/>
      <use xlink:href="#DejaVuSans-6e" x="1165.955078"/>
      <use xlink:href="#DejaVuSans-6b" x="1229.333984"/>
      <use xlink:href="#DejaVuSans-65" x="1283.619141"/>
      <use xlink:href="#DejaVuSans-6c" x="1345.142578"/>
     </g>
    </g>
   </g>
  </g>
 </g>
 <defs>
  <clipPath id="p15b654aa9a">
   <rect x="72.342187" y="26.877187" width="558" height="388.08"/>
  </clipPath>
 </defs>
</svg>
