<?xml version="1.0" encoding="utf-8" standalone="no"?>
<!DOCTYPE svg PUBLIC "-//W3C//DTD SVG 1.1//EN"
  "http://www.w3.org/Graphics/SVG/1.1/DTD/svg11.dtd">
<svg xmlns:xlink="http://www.w3.org/1999/xlink" width="627.998437pt" height="458.691562pt" viewBox="0 0 627.998437 458.691562" xmlns="http://www.w3.org/2000/svg" version="1.1">
 <metadata>
  <rdf:RDF xmlns:dc="http://purl.org/dc/elements/1.1/" xmlns:cc="http://creativecommons.org/ns#" xmlns:rdf="http://www.w3.org/1999/02/22-rdf-syntax-ns#">
   <cc:Work>
    <dc:type rdf:resource="http://purl.org/dc/dcmitype/StillImage"/>
    <dc:date>2023-04-10T19:04:24.455960</dc:date>
    <dc:format>image/svg+xml</dc:format>
    <dc:creator>
     <cc:Agent>
      <dc:title>Matplotlib v3.7.1, https://matplotlib.org/</dc:title>
     </cc:Agent>
    </dc:creator>
   </cc:Work>
  </rdf:RDF>
 </metadata>
 <defs>
  <style type="text/css">*{stroke-linejoin: round; stroke-linecap: butt}</style>
 </defs>
 <g id="figure_1">
  <g id="patch_1">
   <path d="M 0 458.691562 
L 627.998437 458.691562 
L 627.998437 0 
L 0 0 
L 0 458.691562 
z
" style="fill: none"/>
  </g>
  <g id="axes_1">
   <g id="patch_2">
    <path d="M 62.798438 414.957187 
L 620.798437 414.957187 
L 620.798437 26.877187 
L 62.798438 26.877187 
L 62.798438 414.957187 
z
" style="fill: none"/>
   </g>
   <g id="matplotlib.axis_1">
    <g id="xtick_1">
     <g id="line2d_1">
      <path d="M 134.678951 414.957187 
L 134.678951 26.877187 
" clip-path="url(#p46c8eea40d)" style="fill: none; stroke: #808080; stroke-width: 0.8; stroke-linecap: square"/>
     </g>
     <g id="line2d_2">
      <defs>
       <path id="m52890a30e5" d="M 0 0 
L 0 -5 
" style="stroke: #808080; stroke-width: 0.8"/>
      </defs>
      <g>
       <use xlink:href="#m52890a30e5" x="134.678951" y="414.957187" style="fill: #808080; stroke: #808080; stroke-width: 0.8"/>
      </g>
     </g>
     <g id="text_1">
      <!-- 30 -->
      <g style="fill: #808080" transform="translate(125.135201 429.854844) scale(0.15 -0.15)">
       <defs>
        <path id="DejaVuSans-33" d="M 2597 2516 
Q 3050 2419 3304 2112 
Q 3559 1806 3559 1356 
Q 3559 666 3084 287 
Q 2609 -91 1734 -91 
Q 1441 -91 1130 -33 
Q 819 25 488 141 
L 488 750 
Q 750 597 1062 519 
Q 1375 441 1716 441 
Q 2309 441 2620 675 
Q 2931 909 2931 1356 
Q 2931 1769 2642 2001 
Q 2353 2234 1838 2234 
L 1294 2234 
L 1294 2753 
L 1863 2753 
Q 2328 2753 2575 2939 
Q 2822 3125 2822 3475 
Q 2822 3834 2567 4026 
Q 2313 4219 1838 4219 
Q 1578 4219 1281 4162 
Q 984 4106 628 3988 
L 628 4550 
Q 988 4650 1302 4700 
Q 1616 4750 1894 4750 
Q 2613 4750 3031 4423 
Q 3450 4097 3450 3541 
Q 3450 3153 3228 2886 
Q 3006 2619 2597 2516 
z
" transform="scale(0.015625)"/>
        <path id="DejaVuSans-30" d="M 2034 4250 
Q 1547 4250 1301 3770 
Q 1056 3291 1056 2328 
Q 1056 1369 1301 889 
Q 1547 409 2034 409 
Q 2525 409 2770 889 
Q 3016 1369 3016 2328 
Q 3016 3291 2770 3770 
Q 2525 4250 2034 4250 
z
M 2034 4750 
Q 2819 4750 3233 4129 
Q 3647 3509 3647 2328 
Q 3647 1150 3233 529 
Q 2819 -91 2034 -91 
Q 1250 -91 836 529 
Q 422 1150 422 2328 
Q 422 3509 836 4129 
Q 1250 4750 2034 4750 
z
" transform="scale(0.015625)"/>
       </defs>
       <use xlink:href="#DejaVuSans-33"/>
       <use xlink:href="#DejaVuSans-30" x="63.623047"/>
      </g>
     </g>
    </g>
    <g id="xtick_2">
     <g id="line2d_3">
      <path d="M 242.840886 414.957187 
L 242.840886 26.877187 
" clip-path="url(#p46c8eea40d)" style="fill: none; stroke: #808080; stroke-width: 0.8; stroke-linecap: square"/>
     </g>
     <g id="line2d_4">
      <g>
       <use xlink:href="#m52890a30e5" x="242.840886" y="414.957187" style="fill: #808080; stroke: #808080; stroke-width: 0.8"/>
      </g>
     </g>
     <g id="text_2">
      <!-- 35 -->
      <g style="fill: #808080" transform="translate(233.297136 429.854844) scale(0.15 -0.15)">
       <defs>
        <path id="DejaVuSans-35" d="M 691 4666 
L 3169 4666 
L 3169 4134 
L 1269 4134 
L 1269 2991 
Q 1406 3038 1543 3061 
Q 1681 3084 1819 3084 
Q 2600 3084 3056 2656 
Q 3513 2228 3513 1497 
Q 3513 744 3044 326 
Q 2575 -91 1722 -91 
Q 1428 -91 1123 -41 
Q 819 9 494 109 
L 494 744 
Q 775 591 1075 516 
Q 1375 441 1709 441 
Q 2250 441 2565 725 
Q 2881 1009 2881 1497 
Q 2881 1984 2565 2268 
Q 2250 2553 1709 2553 
Q 1456 2553 1204 2497 
Q 953 2441 691 2322 
L 691 4666 
z
" transform="scale(0.015625)"/>
       </defs>
       <use xlink:href="#DejaVuSans-33"/>
       <use xlink:href="#DejaVuSans-35" x="63.623047"/>
      </g>
     </g>
    </g>
    <g id="xtick_3">
     <g id="line2d_5">
      <path d="M 351.002821 414.957187 
L 351.002821 26.877187 
" clip-path="url(#p46c8eea40d)" style="fill: none; stroke: #808080; stroke-width: 0.8; stroke-linecap: square"/>
     </g>
     <g id="line2d_6">
      <g>
       <use xlink:href="#m52890a30e5" x="351.002821" y="414.957187" style="fill: #808080; stroke: #808080; stroke-width: 0.8"/>
      </g>
     </g>
     <g id="text_3">
      <!-- 40 -->
      <g style="fill: #808080" transform="translate(341.459071 429.854844) scale(0.15 -0.15)">
       <defs>
        <path id="DejaVuSans-34" d="M 2419 4116 
L 825 1625 
L 2419 1625 
L 2419 4116 
z
M 2253 4666 
L 3047 4666 
L 3047 1625 
L 3713 1625 
L 3713 1100 
L 3047 1100 
L 3047 0 
L 2419 0 
L 2419 1100 
L 313 1100 
L 313 1709 
L 2253 4666 
z
" transform="scale(0.015625)"/>
       </defs>
       <use xlink:href="#DejaVuSans-34"/>
       <use xlink:href="#DejaVuSans-30" x="63.623047"/>
      </g>
     </g>
    </g>
    <g id="xtick_4">
     <g id="line2d_7">
      <path d="M 459.164757 414.957187 
L 459.164757 26.877187 
" clip-path="url(#p46c8eea40d)" style="fill: none; stroke: #808080; stroke-width: 0.8; stroke-linecap: square"/>
     </g>
     <g id="line2d_8">
      <g>
       <use xlink:href="#m52890a30e5" x="459.164757" y="414.957187" style="fill: #808080; stroke: #808080; stroke-width: 0.8"/>
      </g>
     </g>
     <g id="text_4">
      <!-- 45 -->
      <g style="fill: #808080" transform="translate(449.621007 429.854844) scale(0.15 -0.15)">
       <use xlink:href="#DejaVuSans-34"/>
       <use xlink:href="#DejaVuSans-35" x="63.623047"/>
      </g>
     </g>
    </g>
    <g id="xtick_5">
     <g id="line2d_9">
      <path d="M 567.326692 414.957187 
L 567.326692 26.877187 
" clip-path="url(#p46c8eea40d)" style="fill: none; stroke: #808080; stroke-width: 0.8; stroke-linecap: square"/>
     </g>
     <g id="line2d_10">
      <g>
       <use xlink:href="#m52890a30e5" x="567.326692" y="414.957187" style="fill: #808080; stroke: #808080; stroke-width: 0.8"/>
      </g>
     </g>
     <g id="text_5">
      <!-- 50 -->
      <g style="fill: #808080" transform="translate(557.782942 429.854844) scale(0.15 -0.15)">
       <use xlink:href="#DejaVuSans-35"/>
       <use xlink:href="#DejaVuSans-30" x="63.623047"/>
      </g>
     </g>
    </g>
    <g id="text_6">
     <!-- time [s] -->
     <g style="fill: #808080" transform="translate(312.711328 448.372031) scale(0.15 -0.15)">
      <defs>
       <path id="DejaVuSans-74" d="M 1172 4494 
L 1172 3500 
L 2356 3500 
L 2356 3053 
L 1172 3053 
L 1172 1153 
Q 1172 725 1289 603 
Q 1406 481 1766 481 
L 2356 481 
L 2356 0 
L 1766 0 
Q 1100 0 847 248 
Q 594 497 594 1153 
L 594 3053 
L 172 3053 
L 172 3500 
L 594 3500 
L 594 4494 
L 1172 4494 
z
" transform="scale(0.015625)"/>
       <path id="DejaVuSans-69" d="M 603 3500 
L 1178 3500 
L 1178 0 
L 603 0 
L 603 3500 
z
M 603 4863 
L 1178 4863 
L 1178 4134 
L 603 4134 
L 603 4863 
z
" transform="scale(0.015625)"/>
       <path id="DejaVuSans-6d" d="M 3328 2828 
Q 3544 3216 3844 3400 
Q 4144 3584 4550 3584 
Q 5097 3584 5394 3201 
Q 5691 2819 5691 2113 
L 5691 0 
L 5113 0 
L 5113 2094 
Q 5113 2597 4934 2840 
Q 4756 3084 4391 3084 
Q 3944 3084 3684 2787 
Q 3425 2491 3425 1978 
L 3425 0 
L 2847 0 
L 2847 2094 
Q 2847 2600 2669 2842 
Q 2491 3084 2119 3084 
Q 1678 3084 1418 2786 
Q 1159 2488 1159 1978 
L 1159 0 
L 581 0 
L 581 3500 
L 1159 3500 
L 1159 2956 
Q 1356 3278 1631 3431 
Q 1906 3584 2284 3584 
Q 2666 3584 2933 3390 
Q 3200 3197 3328 2828 
z
" transform="scale(0.015625)"/>
       <path id="DejaVuSans-65" d="M 3597 1894 
L 3597 1613 
L 953 1613 
Q 991 1019 1311 708 
Q 1631 397 2203 397 
Q 2534 397 2845 478 
Q 3156 559 3463 722 
L 3463 178 
Q 3153 47 2828 -22 
Q 2503 -91 2169 -91 
Q 1331 -91 842 396 
Q 353 884 353 1716 
Q 353 2575 817 3079 
Q 1281 3584 2069 3584 
Q 2775 3584 3186 3129 
Q 3597 2675 3597 1894 
z
M 3022 2063 
Q 3016 2534 2758 2815 
Q 2500 3097 2075 3097 
Q 1594 3097 1305 2825 
Q 1016 2553 972 2059 
L 3022 2063 
z
" transform="scale(0.015625)"/>
       <path id="DejaVuSans-20" transform="scale(0.015625)"/>
       <path id="DejaVuSans-5b" d="M 550 4863 
L 1875 4863 
L 1875 4416 
L 1125 4416 
L 1125 -397 
L 1875 -397 
L 1875 -844 
L 550 -844 
L 550 4863 
z
" transform="scale(0.015625)"/>
       <path id="DejaVuSans-73" d="M 2834 3397 
L 2834 2853 
Q 2591 2978 2328 3040 
Q 2066 3103 1784 3103 
Q 1356 3103 1142 2972 
Q 928 2841 928 2578 
Q 928 2378 1081 2264 
Q 1234 2150 1697 2047 
L 1894 2003 
Q 2506 1872 2764 1633 
Q 3022 1394 3022 966 
Q 3022 478 2636 193 
Q 2250 -91 1575 -91 
Q 1294 -91 989 -36 
Q 684 19 347 128 
L 347 722 
Q 666 556 975 473 
Q 1284 391 1588 391 
Q 1994 391 2212 530 
Q 2431 669 2431 922 
Q 2431 1156 2273 1281 
Q 2116 1406 1581 1522 
L 1381 1569 
Q 847 1681 609 1914 
Q 372 2147 372 2553 
Q 372 3047 722 3315 
Q 1072 3584 1716 3584 
Q 2034 3584 2315 3537 
Q 2597 3491 2834 3397 
z
" transform="scale(0.015625)"/>
       <path id="DejaVuSans-5d" d="M 1947 4863 
L 1947 -844 
L 622 -844 
L 622 -397 
L 1369 -397 
L 1369 4416 
L 622 4416 
L 622 4863 
L 1947 4863 
z
" transform="scale(0.015625)"/>
      </defs>
      <use xlink:href="#DejaVuSans-74"/>
      <use xlink:href="#DejaVuSans-69" x="39.208984"/>
      <use xlink:href="#DejaVuSans-6d" x="66.992188"/>
      <use xlink:href="#DejaVuSans-65" x="164.404297"/>
      <use xlink:href="#DejaVuSans-20" x="225.927734"/>
      <use xlink:href="#DejaVuSans-5b" x="257.714844"/>
      <use xlink:href="#DejaVuSans-73" x="296.728516"/>
      <use xlink:href="#DejaVuSans-5d" x="348.828125"/>
     </g>
    </g>
   </g>
   <g id="matplotlib.axis_2">
    <g id="ytick_1">
     <g id="line2d_11">
      <path d="M 62.798438 410.04183 
L 620.798437 410.04183 
" clip-path="url(#p46c8eea40d)" style="fill: none; stroke: #808080; stroke-width: 0.8; stroke-linecap: square"/>
     </g>
     <g id="line2d_12">
      <defs>
       <path id="m113b85171c" d="M 0 0 
L 5 0 
" style="stroke: #808080; stroke-width: 0.8"/>
      </defs>
      <g>
       <use xlink:href="#m113b85171c" x="62.798438" y="410.04183" style="fill: #808080; stroke: #808080; stroke-width: 0.8"/>
      </g>
     </g>
     <g id="text_7">
      <!-- 69.8 -->
      <g style="fill: #808080" transform="translate(25.9 415.740658) scale(0.15 -0.15)">
       <defs>
        <path id="DejaVuSans-36" d="M 2113 2584 
Q 1688 2584 1439 2293 
Q 1191 2003 1191 1497 
Q 1191 994 1439 701 
Q 1688 409 2113 409 
Q 2538 409 2786 701 
Q 3034 994 3034 1497 
Q 3034 2003 2786 2293 
Q 2538 2584 2113 2584 
z
M 3366 4563 
L 3366 3988 
Q 3128 4100 2886 4159 
Q 2644 4219 2406 4219 
Q 1781 4219 1451 3797 
Q 1122 3375 1075 2522 
Q 1259 2794 1537 2939 
Q 1816 3084 2150 3084 
Q 2853 3084 3261 2657 
Q 3669 2231 3669 1497 
Q 3669 778 3244 343 
Q 2819 -91 2113 -91 
Q 1303 -91 875 529 
Q 447 1150 447 2328 
Q 447 3434 972 4092 
Q 1497 4750 2381 4750 
Q 2619 4750 2861 4703 
Q 3103 4656 3366 4563 
z
" transform="scale(0.015625)"/>
        <path id="DejaVuSans-39" d="M 703 97 
L 703 672 
Q 941 559 1184 500 
Q 1428 441 1663 441 
Q 2288 441 2617 861 
Q 2947 1281 2994 2138 
Q 2813 1869 2534 1725 
Q 2256 1581 1919 1581 
Q 1219 1581 811 2004 
Q 403 2428 403 3163 
Q 403 3881 828 4315 
Q 1253 4750 1959 4750 
Q 2769 4750 3195 4129 
Q 3622 3509 3622 2328 
Q 3622 1225 3098 567 
Q 2575 -91 1691 -91 
Q 1453 -91 1209 -44 
Q 966 3 703 97 
z
M 1959 2075 
Q 2384 2075 2632 2365 
Q 2881 2656 2881 3163 
Q 2881 3666 2632 3958 
Q 2384 4250 1959 4250 
Q 1534 4250 1286 3958 
Q 1038 3666 1038 3163 
Q 1038 2656 1286 2365 
Q 1534 2075 1959 2075 
z
" transform="scale(0.015625)"/>
        <path id="DejaVuSans-2e" d="M 684 794 
L 1344 794 
L 1344 0 
L 684 0 
L 684 794 
z
" transform="scale(0.015625)"/>
        <path id="DejaVuSans-38" d="M 2034 2216 
Q 1584 2216 1326 1975 
Q 1069 1734 1069 1313 
Q 1069 891 1326 650 
Q 1584 409 2034 409 
Q 2484 409 2743 651 
Q 3003 894 3003 1313 
Q 3003 1734 2745 1975 
Q 2488 2216 2034 2216 
z
M 1403 2484 
Q 997 2584 770 2862 
Q 544 3141 544 3541 
Q 544 4100 942 4425 
Q 1341 4750 2034 4750 
Q 2731 4750 3128 4425 
Q 3525 4100 3525 3541 
Q 3525 3141 3298 2862 
Q 3072 2584 2669 2484 
Q 3125 2378 3379 2068 
Q 3634 1759 3634 1313 
Q 3634 634 3220 271 
Q 2806 -91 2034 -91 
Q 1263 -91 848 271 
Q 434 634 434 1313 
Q 434 1759 690 2068 
Q 947 2378 1403 2484 
z
M 1172 3481 
Q 1172 3119 1398 2916 
Q 1625 2713 2034 2713 
Q 2441 2713 2670 2916 
Q 2900 3119 2900 3481 
Q 2900 3844 2670 4047 
Q 2441 4250 2034 4250 
Q 1625 4250 1398 4047 
Q 1172 3844 1172 3481 
z
" transform="scale(0.015625)"/>
       </defs>
       <use xlink:href="#DejaVuSans-36"/>
       <use xlink:href="#DejaVuSans-39" x="63.623047"/>
       <use xlink:href="#DejaVuSans-2e" x="127.246094"/>
       <use xlink:href="#DejaVuSans-38" x="159.033203"/>
      </g>
     </g>
    </g>
    <g id="ytick_2">
     <g id="line2d_13">
      <path d="M 62.798438 366.576423 
L 620.798437 366.576423 
" clip-path="url(#p46c8eea40d)" style="fill: none; stroke: #808080; stroke-width: 0.8; stroke-linecap: square"/>
     </g>
     <g id="line2d_14">
      <g>
       <use xlink:href="#m113b85171c" x="62.798438" y="366.576423" style="fill: #808080; stroke: #808080; stroke-width: 0.8"/>
      </g>
     </g>
     <g id="text_8">
      <!-- 69.9 -->
      <g style="fill: #808080" transform="translate(25.9 372.275251) scale(0.15 -0.15)">
       <use xlink:href="#DejaVuSans-36"/>
       <use xlink:href="#DejaVuSans-39" x="63.623047"/>
       <use xlink:href="#DejaVuSans-2e" x="127.246094"/>
       <use xlink:href="#DejaVuSans-39" x="159.033203"/>
      </g>
     </g>
    </g>
    <g id="ytick_3">
     <g id="line2d_15">
      <path d="M 62.798438 323.111015 
L 620.798437 323.111015 
" clip-path="url(#p46c8eea40d)" style="fill: none; stroke: #808080; stroke-width: 0.8; stroke-linecap: square"/>
     </g>
     <g id="line2d_16">
      <g>
       <use xlink:href="#m113b85171c" x="62.798438" y="323.111015" style="fill: #808080; stroke: #808080; stroke-width: 0.8"/>
      </g>
     </g>
     <g id="text_9">
      <!-- 70.0 -->
      <g style="fill: #808080" transform="translate(25.9 328.809843) scale(0.15 -0.15)">
       <defs>
        <path id="DejaVuSans-37" d="M 525 4666 
L 3525 4666 
L 3525 4397 
L 1831 0 
L 1172 0 
L 2766 4134 
L 525 4134 
L 525 4666 
z
" transform="scale(0.015625)"/>
       </defs>
       <use xlink:href="#DejaVuSans-37"/>
       <use xlink:href="#DejaVuSans-30" x="63.623047"/>
       <use xlink:href="#DejaVuSans-2e" x="127.246094"/>
       <use xlink:href="#DejaVuSans-30" x="159.033203"/>
      </g>
     </g>
    </g>
    <g id="ytick_4">
     <g id="line2d_17">
      <path d="M 62.798438 279.645608 
L 620.798437 279.645608 
" clip-path="url(#p46c8eea40d)" style="fill: none; stroke: #808080; stroke-width: 0.8; stroke-linecap: square"/>
     </g>
     <g id="line2d_18">
      <g>
       <use xlink:href="#m113b85171c" x="62.798438" y="279.645608" style="fill: #808080; stroke: #808080; stroke-width: 0.8"/>
      </g>
     </g>
     <g id="text_10">
      <!-- 70.1 -->
      <g style="fill: #808080" transform="translate(25.9 285.344436) scale(0.15 -0.15)">
       <defs>
        <path id="DejaVuSans-31" d="M 794 531 
L 1825 531 
L 1825 4091 
L 703 3866 
L 703 4441 
L 1819 4666 
L 2450 4666 
L 2450 531 
L 3481 531 
L 3481 0 
L 794 0 
L 794 531 
z
" transform="scale(0.015625)"/>
       </defs>
       <use xlink:href="#DejaVuSans-37"/>
       <use xlink:href="#DejaVuSans-30" x="63.623047"/>
       <use xlink:href="#DejaVuSans-2e" x="127.246094"/>
       <use xlink:href="#DejaVuSans-31" x="159.033203"/>
      </g>
     </g>
    </g>
    <g id="ytick_5">
     <g id="line2d_19">
      <path d="M 62.798438 236.1802 
L 620.798437 236.1802 
" clip-path="url(#p46c8eea40d)" style="fill: none; stroke: #808080; stroke-width: 0.8; stroke-linecap: square"/>
     </g>
     <g id="line2d_20">
      <g>
       <use xlink:href="#m113b85171c" x="62.798438" y="236.1802" style="fill: #808080; stroke: #808080; stroke-width: 0.8"/>
      </g>
     </g>
     <g id="text_11">
      <!-- 70.2 -->
      <g style="fill: #808080" transform="translate(25.9 241.879028) scale(0.15 -0.15)">
       <defs>
        <path id="DejaVuSans-32" d="M 1228 531 
L 3431 531 
L 3431 0 
L 469 0 
L 469 531 
Q 828 903 1448 1529 
Q 2069 2156 2228 2338 
Q 2531 2678 2651 2914 
Q 2772 3150 2772 3378 
Q 2772 3750 2511 3984 
Q 2250 4219 1831 4219 
Q 1534 4219 1204 4116 
Q 875 4013 500 3803 
L 500 4441 
Q 881 4594 1212 4672 
Q 1544 4750 1819 4750 
Q 2544 4750 2975 4387 
Q 3406 4025 3406 3419 
Q 3406 3131 3298 2873 
Q 3191 2616 2906 2266 
Q 2828 2175 2409 1742 
Q 1991 1309 1228 531 
z
" transform="scale(0.015625)"/>
       </defs>
       <use xlink:href="#DejaVuSans-37"/>
       <use xlink:href="#DejaVuSans-30" x="63.623047"/>
       <use xlink:href="#DejaVuSans-2e" x="127.246094"/>
       <use xlink:href="#DejaVuSans-32" x="159.033203"/>
      </g>
     </g>
    </g>
    <g id="ytick_6">
     <g id="line2d_21">
      <path d="M 62.798438 192.714793 
L 620.798437 192.714793 
" clip-path="url(#p46c8eea40d)" style="fill: none; stroke: #808080; stroke-width: 0.8; stroke-linecap: square"/>
     </g>
     <g id="line2d_22">
      <g>
       <use xlink:href="#m113b85171c" x="62.798438" y="192.714793" style="fill: #808080; stroke: #808080; stroke-width: 0.8"/>
      </g>
     </g>
     <g id="text_12">
      <!-- 70.3 -->
      <g style="fill: #808080" transform="translate(25.9 198.413621) scale(0.15 -0.15)">
       <use xlink:href="#DejaVuSans-37"/>
       <use xlink:href="#DejaVuSans-30" x="63.623047"/>
       <use xlink:href="#DejaVuSans-2e" x="127.246094"/>
       <use xlink:href="#DejaVuSans-33" x="159.033203"/>
      </g>
     </g>
    </g>
    <g id="ytick_7">
     <g id="line2d_23">
      <path d="M 62.798438 149.249385 
L 620.798437 149.249385 
" clip-path="url(#p46c8eea40d)" style="fill: none; stroke: #808080; stroke-width: 0.8; stroke-linecap: square"/>
     </g>
     <g id="line2d_24">
      <g>
       <use xlink:href="#m113b85171c" x="62.798438" y="149.249385" style="fill: #808080; stroke: #808080; stroke-width: 0.8"/>
      </g>
     </g>
     <g id="text_13">
      <!-- 70.4 -->
      <g style="fill: #808080" transform="translate(25.9 154.948214) scale(0.15 -0.15)">
       <use xlink:href="#DejaVuSans-37"/>
       <use xlink:href="#DejaVuSans-30" x="63.623047"/>
       <use xlink:href="#DejaVuSans-2e" x="127.246094"/>
       <use xlink:href="#DejaVuSans-34" x="159.033203"/>
      </g>
     </g>
    </g>
    <g id="ytick_8">
     <g id="line2d_25">
      <path d="M 62.798438 105.783978 
L 620.798437 105.783978 
" clip-path="url(#p46c8eea40d)" style="fill: none; stroke: #808080; stroke-width: 0.8; stroke-linecap: square"/>
     </g>
     <g id="line2d_26">
      <g>
       <use xlink:href="#m113b85171c" x="62.798438" y="105.783978" style="fill: #808080; stroke: #808080; stroke-width: 0.8"/>
      </g>
     </g>
     <g id="text_14">
      <!-- 70.5 -->
      <g style="fill: #808080" transform="translate(25.9 111.482806) scale(0.15 -0.15)">
       <use xlink:href="#DejaVuSans-37"/>
       <use xlink:href="#DejaVuSans-30" x="63.623047"/>
       <use xlink:href="#DejaVuSans-2e" x="127.246094"/>
       <use xlink:href="#DejaVuSans-35" x="159.033203"/>
      </g>
     </g>
    </g>
    <g id="ytick_9">
     <g id="line2d_27">
      <path d="M 62.798438 62.318571 
L 620.798437 62.318571 
" clip-path="url(#p46c8eea40d)" style="fill: none; stroke: #808080; stroke-width: 0.8; stroke-linecap: square"/>
     </g>
     <g id="line2d_28">
      <g>
       <use xlink:href="#m113b85171c" x="62.798438" y="62.318571" style="fill: #808080; stroke: #808080; stroke-width: 0.8"/>
      </g>
     </g>
     <g id="text_15">
      <!-- 70.6 -->
      <g style="fill: #808080" transform="translate(25.9 68.017399) scale(0.15 -0.15)">
       <use xlink:href="#DejaVuSans-37"/>
       <use xlink:href="#DejaVuSans-30" x="63.623047"/>
       <use xlink:href="#DejaVuSans-2e" x="127.246094"/>
       <use xlink:href="#DejaVuSans-36" x="159.033203"/>
      </g>
     </g>
    </g>
    <g id="text_16">
     <!-- $\theta$ [deg] -->
     <g style="fill: #808080" transform="translate(18.75 247.917187) rotate(-90) scale(0.15 -0.15)">
      <defs>
       <path id="DejaVuSans-Oblique-3b8" d="M 2913 2219 
L 925 2219 
Q 791 1284 928 888 
Q 1100 400 1566 400 
Q 2034 400 2391 891 
Q 2703 1322 2913 2219 
z
M 3009 2750 
Q 3094 3638 2984 3950 
Q 2813 4444 2353 4444 
Q 1875 4444 1525 3956 
Q 1250 3563 1034 2750 
L 3009 2750 
z
M 2444 4913 
Q 3194 4913 3494 4250 
Q 3794 3591 3566 2422 
Q 3341 1256 2781 594 
Q 2225 -72 1475 -72 
Q 722 -72 425 594 
Q 128 1256 353 2422 
Q 581 3591 1134 4250 
Q 1691 4913 2444 4913 
z
" transform="scale(0.015625)"/>
       <path id="DejaVuSans-64" d="M 2906 2969 
L 2906 4863 
L 3481 4863 
L 3481 0 
L 2906 0 
L 2906 525 
Q 2725 213 2448 61 
Q 2172 -91 1784 -91 
Q 1150 -91 751 415 
Q 353 922 353 1747 
Q 353 2572 751 3078 
Q 1150 3584 1784 3584 
Q 2172 3584 2448 3432 
Q 2725 3281 2906 2969 
z
M 947 1747 
Q 947 1113 1208 752 
Q 1469 391 1925 391 
Q 2381 391 2643 752 
Q 2906 1113 2906 1747 
Q 2906 2381 2643 2742 
Q 2381 3103 1925 3103 
Q 1469 3103 1208 2742 
Q 947 2381 947 1747 
z
" transform="scale(0.015625)"/>
       <path id="DejaVuSans-67" d="M 2906 1791 
Q 2906 2416 2648 2759 
Q 2391 3103 1925 3103 
Q 1463 3103 1205 2759 
Q 947 2416 947 1791 
Q 947 1169 1205 825 
Q 1463 481 1925 481 
Q 2391 481 2648 825 
Q 2906 1169 2906 1791 
z
M 3481 434 
Q 3481 -459 3084 -895 
Q 2688 -1331 1869 -1331 
Q 1566 -1331 1297 -1286 
Q 1028 -1241 775 -1147 
L 775 -588 
Q 1028 -725 1275 -790 
Q 1522 -856 1778 -856 
Q 2344 -856 2625 -561 
Q 2906 -266 2906 331 
L 2906 616 
Q 2728 306 2450 153 
Q 2172 0 1784 0 
Q 1141 0 747 490 
Q 353 981 353 1791 
Q 353 2603 747 3093 
Q 1141 3584 1784 3584 
Q 2172 3584 2450 3431 
Q 2728 3278 2906 2969 
L 2906 3500 
L 3481 3500 
L 3481 434 
z
" transform="scale(0.015625)"/>
      </defs>
      <use xlink:href="#DejaVuSans-Oblique-3b8" transform="translate(0 0.234375)"/>
      <use xlink:href="#DejaVuSans-20" transform="translate(61.181641 0.234375)"/>
      <use xlink:href="#DejaVuSans-5b" transform="translate(92.96875 0.234375)"/>
      <use xlink:href="#DejaVuSans-64" transform="translate(131.982422 0.234375)"/>
      <use xlink:href="#DejaVuSans-65" transform="translate(195.458984 0.234375)"/>
      <use xlink:href="#DejaVuSans-67" transform="translate(256.982422 0.234375)"/>
      <use xlink:href="#DejaVuSans-5d" transform="translate(320.458984 0.234375)"/>
     </g>
    </g>
   </g>
   <g id="line2d_29">
    <path d="M 88.162074 272.347829 
L 88.590482 272.347829 
L 88.806568 288.160406 
L 89.453895 288.160406 
L 89.670327 234.76765 
L 90.319169 234.76765 
L 90.535125 241.565868 
L 90.753418 241.565868 
L 90.969417 234.76765 
L 92.484528 234.76765 
L 92.697736 219.036527 
L 92.915358 219.036527 
L 93.131228 203.361143 
L 93.780113 203.361143 
L 94.00297 143.381789 
L 94.214232 143.381789 
L 94.429863 137.301522 
L 95.07864 137.301522 
L 95.295916 127.885868 
L 95.944303 127.885868 
L 96.159935 186.541337 
L 96.81319 186.541337 
L 97.031958 180.501773 
L 97.241749 180.501773 
L 97.464 197.31164 
L 98.150591 197.31164 
L 98.539649 219.036527 
L 98.97221 219.036527 
L 99.188642 265.60874 
L 99.491085 265.60874 
L 99.837376 281.411036 
L 101.144145 281.411036 
L 101.351859 265.60874 
L 103.299769 265.60874 
L 103.51525 259.593549 
L 104.623152 259.593549 
L 104.812522 275.386665 
L 105.029041 275.386665 
L 105.246208 318.686962 
L 108.057424 318.686962 
L 108.275305 302.827944 
L 108.490244 302.827944 
L 108.70884 243.856326 
L 109.789485 243.856326 
L 110.004749 226.970095 
L 111.950864 226.970095 
L 112.167015 249.86236 
L 112.384788 249.86236 
L 112.600117 276.024491 
L 112.816981 276.024491 
L 113.032072 292.991079 
L 113.684397 292.991079 
L 113.899401 308.80311 
L 114.116136 308.80311 
L 114.331638 324.67122 
L 115.845797 324.67122 
L 116.062359 331.375708 
L 117.577426 331.375708 
L 117.792906 315.497416 
L 119.310721 315.497416 
L 119.524557 256.591194 
L 122.335924 256.591194 
L 122.553611 272.347829 
L 122.768485 272.347829 
L 122.985631 256.591194 
L 123.63337 256.591194 
L 123.849217 232.966292 
L 124.498708 232.966292 
L 124.716071 170.979557 
L 125.799788 170.979557 
L 126.012067 155.472054 
L 126.666447 155.472054 
L 126.878422 149.450876 
L 128.392733 149.450876 
L 128.635318 170.979557 
L 128.84591 170.979557 
L 129.045966 232.966292 
L 129.258569 232.966292 
L 129.486769 249.86236 
L 130.556772 249.86236 
L 130.773615 243.856326 
L 131.424144 243.856326 
L 131.637547 292.991079 
L 131.854542 292.991079 
L 132.07437 287.024984 
L 133.583878 287.024984 
L 133.800505 292.991079 
L 134.015963 292.991079 
L 134.232871 287.024984 
L 136.632401 287.024984 
L 136.830575 243.856326 
L 137.499968 243.856326 
L 137.716529 287.024984 
L 137.912173 287.024984 
L 138.128432 292.991079 
L 138.343371 292.991079 
L 138.588661 287.024984 
L 138.819392 287.024984 
L 139.10959 226.970095 
L 139.426288 211.346792 
L 140.073984 211.346792 
L 140.290308 195.777917 
L 140.948841 195.777917 
L 141.155949 179.072041 
L 142.670022 179.072041 
L 142.887232 132.820786 
L 143.534993 132.820786 
L 143.751836 195.777917 
L 143.966926 195.777917 
L 144.183856 217.333878 
L 144.833563 217.333878 
L 145.189849 232.966292 
L 145.708615 232.966292 
L 145.915009 256.591194 
L 146.129819 256.591194 
L 146.355185 249.86236 
L 149.159478 249.86236 
L 149.376689 256.591194 
L 149.59258 256.591194 
L 149.808428 292.991079 
L 153.055622 292.991079 
L 153.303984 265.60874 
L 153.531816 265.60874 
L 153.708985 308.80311 
L 154.782363 308.80311 
L 155.001607 249.86236 
L 155.649151 249.86236 
L 155.864242 232.966292 
L 156.513148 232.966292 
L 156.731527 217.333878 
L 157.379482 217.333878 
L 157.594963 195.777917 
L 157.811459 195.777917 
L 158.029882 211.346792 
L 159.544668 211.346792 
L 159.759975 226.970095 
L 159.977402 226.970095 
L 160.192104 276.024491 
L 160.407324 276.024491 
L 160.62434 260.326759 
L 161.273052 260.326759 
L 161.490047 276.024491 
L 163.436789 276.024491 
L 163.653221 232.966292 
L 163.869198 232.966292 
L 164.085155 239.684111 
L 168.195784 239.684111 
L 168.411113 193.307677 
L 170.793488 193.307677 
L 171.00886 177.735589 
L 171.224297 177.735589 
L 171.441853 162.217803 
L 171.659886 162.217803 
L 171.877422 119.23515 
L 172.089527 119.23515 
L 172.3073 109.193451 
L 172.521483 109.193451 
L 172.738239 66.278133 
L 172.953654 66.278133 
L 173.170844 44.420187 
L 173.3868 44.420187 
L 173.603664 66.278133 
L 173.827668 66.278133 
L 174.036139 82.798785 
L 174.687425 82.798785 
L 174.901391 89.62779 
L 175.117088 89.62779 
L 175.334731 105.034686 
L 175.98857 105.034686 
L 176.20113 163.567418 
L 176.848825 163.567418 
L 177.06556 180.349398 
L 177.713926 180.349398 
L 177.92999 187.950842 
L 182.472597 187.950842 
L 182.821592 171.15636 
L 183.122758 178.445156 
L 183.779063 178.445156 
L 183.995495 195.251638 
L 184.634841 195.251638 
L 184.877837 187.950842 
L 186.367162 187.950842 
L 186.583205 178.445156 
L 187.234491 178.445156 
L 187.449214 155.618035 
L 188.530379 155.618035 
L 188.748066 97.244415 
L 190.265145 97.244415 
L 190.477467 140.133929 
L 190.693705 140.133929 
L 190.909401 155.618035 
L 191.558351 155.618035 
L 191.778158 171.15636 
L 192.018407 171.15636 
L 192.207799 178.445156 
L 192.4233 178.445156 
L 192.639949 187.950842 
L 192.855602 187.950842 
L 193.073072 253.976711 
L 193.318838 253.976711 
L 193.509701 187.950842 
L 194.157115 187.950842 
L 194.372725 230.995799 
L 194.588767 230.995799 
L 194.803923 187.950842 
L 197.185843 187.950842 
L 197.403876 171.15636 
L 198.048738 171.15636 
L 198.268653 221.371 
L 198.482467 221.371 
L 198.697623 214.130644 
L 198.914488 214.130644 
L 199.130487 171.15636 
L 201.078116 171.15636 
L 201.293336 178.445156 
L 201.942286 178.445156 
L 202.160189 171.15636 
L 202.374783 171.15636 
L 202.592253 155.618035 
L 202.808231 155.618035 
L 203.024079 140.133929 
L 203.673591 140.133929 
L 203.891083 123.519109 
L 204.583601 123.519109 
L 204.971815 108.146746 
L 205.193461 65.392854 
L 205.404312 65.392854 
L 205.620268 108.146746 
L 206.279147 108.146746 
L 206.488008 123.519109 
L 206.701476 123.519109 
L 206.918536 140.133929 
L 207.136331 140.133929 
L 207.389581 147.400522 
L 207.568697 147.400522 
L 207.784264 162.895716 
L 207.999593 162.895716 
L 208.216457 221.371 
L 209.297384 221.371 
L 209.53017 238.248042 
L 209.731308 238.248042 
L 209.946161 228.842012 
L 210.165838 228.842012 
L 210.379501 245.731314 
L 210.600022 245.731314 
L 210.821754 238.248042 
L 211.465144 238.248042 
L 211.67805 245.731314 
L 211.900172 245.731314 
L 212.120649 238.248042 
L 213.191236 238.248042 
L 213.411086 253.976711 
L 214.490369 253.976711 
L 214.708207 238.248042 
L 215.361829 238.248042 
L 215.57188 284.499643 
L 215.785997 284.499643 
L 216.003078 300.298762 
L 216.652353 300.298762 
L 216.868914 253.976711 
L 217.085217 253.976711 
L 217.301541 238.248042 
L 217.516913 238.248042 
L 217.733799 230.995799 
L 218.383138 230.995799 
L 218.600284 214.130644 
L 219.250489 214.130644 
L 219.464239 198.526862 
L 219.681341 198.526862 
L 219.896086 140.133929 
L 220.113859 140.133929 
L 220.329296 132.568115 
L 220.545382 132.568115 
L 220.765037 115.965701 
L 221.844948 115.965701 
L 222.065209 132.568115 
L 222.277509 132.568115 
L 222.494136 182.97746 
L 222.71087 182.97746 
L 222.926459 190.999902 
L 223.140966 190.999902 
L 223.35703 198.526862 
L 223.576361 198.526862 
L 223.790911 214.130644 
L 225.73908 214.130644 
L 225.954084 230.995799 
L 228.333431 230.995799 
L 228.549473 223.444987 
L 228.766381 223.444987 
L 228.981494 180.349398 
L 230.498616 180.349398 
L 230.712539 195.989568 
L 232.227325 195.989568 
L 232.442892 203.60265 
L 232.660254 203.60265 
L 232.877768 195.989568 
L 233.962329 195.989568 
L 234.173764 137.206519 
L 234.823926 137.206519 
L 235.039882 120.495609 
L 235.255535 120.495609 
L 235.472616 105.034686 
L 236.121631 105.034686 
L 236.338063 36.454145 
L 236.553932 36.454145 
L 236.771078 89.62779 
L 236.986212 89.62779 
L 237.202104 26.877187 
L 237.419293 26.877187 
L 237.634946 43.332815 
L 237.853109 43.332815 
L 238.069779 89.62779 
L 238.283745 89.62779 
L 238.500804 105.034686 
L 239.582229 105.034686 
L 239.800045 128.135583 
L 240.447957 128.135583 
L 240.664497 187.950842 
L 242.180257 187.950842 
L 242.395953 195.251638 
L 243.07123 195.251638 
L 243.287078 187.950842 
L 243.478784 187.950842 
L 243.693226 195.251638 
L 247.802168 195.251638 
L 248.018925 261.471396 
L 248.2354 261.471396 
L 248.453973 218.459434 
L 248.672807 218.459434 
L 248.887789 202.784931 
L 249.396302 202.784931 
L 249.752349 218.459434 
L 250.39853 218.459434 
L 250.615027 202.784931 
L 251.263415 202.784931 
L 251.492718 178.445156 
L 251.734547 178.445156 
L 251.912862 135.473314 
L 252.129814 135.473314 
L 252.345359 119.989481 
L 253.859756 119.989481 
L 254.076988 162.895716 
L 254.292165 162.895716 
L 254.507364 178.445156 
L 255.159949 178.445156 
L 255.373655 195.251638 
L 256.456204 195.251638 
L 256.671382 218.459434 
L 256.887835 218.459434 
L 257.104462 261.471396 
L 258.188937 261.471396 
L 258.404417 218.459434 
L 259.051702 218.459434 
L 259.268912 210.914618 
L 262.522975 210.914618 
L 262.764598 195.251638 
L 265.108359 195.251638 
L 265.323969 178.445156 
L 267.275859 178.445156 
L 267.487943 162.895716 
L 267.706452 162.895716 
L 267.921781 147.400522 
L 268.138494 147.400522 
L 268.354169 104.559731 
L 269.867333 104.559731 
L 270.083851 162.895716 
L 270.732087 162.895716 
L 270.951461 178.445156 
L 271.166076 178.445156 
L 271.381318 195.251638 
L 271.600044 195.251638 
L 271.83177 238.248042 
L 272.030788 238.248042 
L 272.247349 253.976711 
L 273.760795 253.976711 
L 273.979044 269.761251 
L 274.196752 269.761251 
L 274.41154 253.976711 
L 274.635392 253.976711 
L 274.896387 269.761251 
L 275.49303 269.761251 
L 275.71037 277.267378 
L 277.225329 277.267378 
L 277.470814 269.761251 
L 281.55854 269.761251 
L 281.770697 253.976711 
L 282.415068 253.976711 
L 282.632247 238.248042 
L 282.848738 238.248042 
L 283.081317 171.15636 
L 283.723043 171.15636 
L 283.940062 155.618035 
L 284.581582 155.618035 
L 284.796842 162.895716 
L 285.012536 162.895716 
L 285.228286 147.400522 
L 285.445361 147.400522 
L 285.660979 162.895716 
L 286.310344 162.895716 
L 286.525859 221.371 
L 287.17403 221.371 
L 287.390544 238.248042 
L 287.622398 238.248042 
L 287.831171 284.499643 
L 288.906937 284.499643 
L 289.122531 277.29914 
L 289.777849 277.29914 
L 289.991727 230.995799 
L 290.644075 230.995799 
L 290.856201 277.29914 
L 291.070328 277.29914 
L 291.285868 230.995799 
L 291.50075 230.995799 
L 291.717132 246.713401 
L 292.36567 246.713401 
L 292.581915 293.087306 
L 293.231689 293.087306 
L 293.447334 246.713401 
L 295.39549 246.713401 
L 295.610822 239.151061 
L 297.558115 239.151061 
L 297.775993 223.444987 
L 298.856107 223.444987 
L 299.07329 163.567418 
L 299.721074 163.567418 
L 299.936712 148.040672 
L 300.585681 148.040672 
L 300.801955 155.618035 
L 301.018633 155.618035 
L 301.237351 171.15636 
L 301.883712 171.15636 
L 302.102008 187.950842 
L 302.749983 187.950842 
L 302.965953 246.713401 
L 303.18224 246.713401 
L 303.397659 253.976711 
L 303.613984 253.976711 
L 303.830093 269.761251 
L 304.04699 269.761251 
L 304.264618 253.976711 
L 305.777789 253.976711 
L 305.994026 261.471396 
L 309.239367 261.471396 
L 309.455351 269.800457 
L 309.672154 269.800457 
L 309.888696 261.471396 
L 310.969631 261.471396 
L 311.185757 226.844113 
L 311.402555 226.844113 
L 311.618716 218.459434 
L 312.700365 218.459434 
L 312.916831 202.784931 
L 313.132739 202.784931 
L 313.349104 159.792785 
L 313.997694 159.792785 
L 314.222568 143.044643 
L 314.865122 143.044643 
L 315.084301 119.989481 
L 315.298537 119.989481 
L 315.515244 73.732084 
L 316.595178 73.732084 
L 316.811401 119.989481 
L 317.027047 119.989481 
L 317.243075 127.549238 
L 317.458808 127.549238 
L 317.67502 143.044643 
L 318.325202 143.044643 
L 318.560972 159.792785 
L 318.769778 159.792785 
L 318.982851 202.784931 
L 319.194489 202.784931 
L 319.409529 218.459434 
L 319.625017 218.459434 
L 319.840274 210.914618 
L 320.706168 210.914618 
L 320.921994 218.459434 
L 321.138361 218.459434 
L 321.356481 202.784931 
L 322.55909 202.784931 
L 322.870445 195.251638 
L 323.084065 210.914618 
L 325.463281 210.914618 
L 325.687133 195.251638 
L 325.89541 195.251638 
L 326.14641 187.950842 
L 327.195927 187.950842 
L 327.415907 230.995799 
L 328.058713 230.995799 
L 328.276119 214.130644 
L 328.924615 214.130644 
L 329.143231 206.592215 
L 329.392653 206.592215 
L 329.589789 190.999902 
L 329.792787 190.999902 
L 330.005866 175.46194 
L 330.222666 175.46194 
L 330.437194 125.784736 
L 330.69873 125.784736 
L 331.305627 102.654614 
L 331.525325 102.654614 
L 331.737258 93.842885 
L 331.952024 93.842885 
L 332.168283 87.314004 
L 333.2504 87.314004 
L 333.466875 102.654614 
L 333.685059 102.654614 
L 333.900042 145.566805 
L 334.116647 145.566805 
L 334.332344 162.217803 
L 334.981726 162.217803 
L 335.197596 177.735589 
L 335.846914 177.735589 
L 336.061572 184.251422 
L 338.875102 184.251422 
L 339.090841 168.723723 
L 339.321075 168.723723 
L 339.524095 184.251422 
L 341.471486 184.251422 
L 341.688134 190.999902 
L 341.904826 190.999902 
L 342.127185 148.040672 
L 342.770467 148.040672 
L 342.986661 163.567418 
L 344.932278 163.567418 
L 345.15083 148.040672 
L 345.798785 148.040672 
L 346.013724 132.568115 
L 346.229616 132.568115 
L 346.448752 89.62779 
L 348.395061 89.62779 
L 348.609784 97.244415 
L 348.827298 97.244415 
L 349.041934 112.662971 
L 349.258496 112.662971 
L 349.477805 155.618035 
L 349.691576 155.618035 
L 349.907706 171.15636 
L 350.557348 171.15636 
L 350.773628 195.251638 
L 350.99045 195.251638 
L 351.210862 238.248042 
L 353.152326 238.248042 
L 353.369169 230.995799 
L 353.588045 230.995799 
L 353.803504 221.371 
L 354.020022 221.371 
L 354.234659 238.248042 
L 354.450615 238.248042 
L 354.667523 221.371 
L 355.315586 221.371 
L 355.557761 214.130644 
L 355.748818 214.130644 
L 355.964601 251.862036 
L 356.181487 251.862036 
L 356.396254 205.756208 
L 356.61407 205.756208 
L 356.828966 251.862036 
L 357.046372 251.862036 
L 357.261852 205.756208 
L 357.552591 205.756208 
L 357.912121 198.526862 
L 358.346154 198.526862 
L 358.560639 244.684198 
L 359.209221 244.684198 
L 359.437659 260.358186 
L 360.075447 260.358186 
L 360.305615 244.684198 
L 360.508938 244.684198 
L 360.724267 182.97746 
L 360.940785 182.97746 
L 361.15646 166.292501 
L 361.372979 166.292501 
L 361.592591 150.855177 
L 361.805756 150.855177 
L 362.02128 143.363329 
L 362.268365 143.363329 
L 362.45635 127.99091 
L 363.53598 127.99091 
L 363.751092 111.49559 
L 363.968346 111.49559 
L 364.193885 104.799731 
L 364.401967 104.799731 
L 364.61881 121.28411 
L 364.834009 121.28411 
L 365.050139 136.646344 
L 365.700062 136.646344 
L 365.958785 204.854815 
L 366.568235 204.854815 
L 366.781768 221.602837 
L 370.464011 221.602837 
L 370.675424 214.912743 
L 372.18941 214.912743 
L 372.404155 198.175632 
L 372.881084 198.175632 
L 373.169357 191.726781 
L 373.921948 191.726781 
L 374.137126 234.540228 
L 374.351589 234.540228 
L 374.567545 191.726781 
L 374.783718 191.726781 
L 375.023296 234.540228 
L 375.649532 234.540228 
L 375.869014 191.726781 
L 376.515152 191.726781 
L 376.732579 185.040276 
L 376.949206 185.040276 
L 377.166136 169.574536 
L 377.380102 169.574536 
L 377.598524 160.828694 
L 378.246154 160.828694 
L 378.463278 144.27988 
L 379.112185 144.27988 
L 379.367145 98.334726 
L 379.55394 98.334726 
L 379.760508 137.624453 
L 379.977784 137.624453 
L 380.192334 160.828694 
L 380.841413 160.828694 
L 381.058278 176.250915 
L 381.274386 176.250915 
L 381.537457 218.999629 
L 381.728211 218.999629 
L 381.924266 234.540228 
L 382.140481 234.540228 
L 382.358038 251.336687 
L 382.581458 251.336687 
L 382.815585 257.753326 
L 383.437689 257.753326 
L 383.661952 273.416248 
L 385.169859 273.416248 
L 385.384085 237.210949 
L 385.601014 237.210949 
L 385.816581 252.873585 
L 387.332341 252.873585 
L 387.549941 295.799854 
L 388.213104 295.799854 
L 388.414588 252.873585 
L 389.495039 252.873585 
L 389.71331 260.358186 
L 390.360399 260.358186 
L 390.577069 252.873585 
L 392.523703 252.873585 
L 392.767478 237.210949 
L 392.958319 237.210949 
L 393.172328 184.251422 
L 393.388479 184.251422 
L 393.605949 168.723723 
L 394.68653 168.723723 
L 394.902833 152.062077 
L 395.118594 152.062077 
L 395.334831 168.723723 
L 396.422292 168.723723 
L 396.635003 175.46194 
L 396.849748 175.46194 
L 397.065358 237.210949 
L 397.715281 237.210949 
L 397.936602 252.873585 
L 398.580295 252.873585 
L 398.801032 269.802282 
L 399.013311 269.802282 
L 399.228834 252.873585 
L 399.879407 252.873585 
L 400.094389 277.29914 
L 400.74362 277.29914 
L 400.96068 269.802282 
L 401.609327 269.802282 
L 401.825413 293.087306 
L 402.041672 293.087306 
L 402.259077 277.29914 
L 402.474493 277.29914 
L 402.694018 230.995799 
L 402.90727 230.995799 
L 403.122923 246.713401 
L 404.63851 246.713401 
L 404.854942 230.995799 
L 406.368019 230.995799 
L 406.584192 246.713401 
L 406.800537 246.713401 
L 407.016494 230.995799 
L 407.278959 230.995799 
L 407.665833 238.248042 
L 407.934139 230.995799 
L 408.314372 214.130644 
L 408.533508 214.130644 
L 408.748382 171.15636 
L 408.968578 171.15636 
L 409.180143 155.618035 
L 409.396294 155.618035 
L 409.614089 148.040672 
L 409.829829 148.040672 
L 410.045028 89.62779 
L 410.261827 89.62779 
L 410.478022 97.244415 
L 410.698434 97.244415 
L 410.910583 105.034686 
L 411.127556 105.034686 
L 411.34535 89.62779 
L 411.560766 89.62779 
L 411.776289 105.034686 
L 411.993284 105.034686 
L 412.208072 148.040672 
L 412.425564 148.040672 
L 412.641022 163.567418 
L 413.31565 163.567418 
L 413.530697 180.349398 
L 414.589084 180.349398 
L 414.806597 163.567418 
L 415.020542 163.567418 
L 415.23693 180.349398 
L 415.889168 180.349398 
L 416.107245 163.567418 
L 416.751327 163.567418 
L 416.969901 223.444987 
L 423.242969 223.444987 
L 423.457627 216.675112 
L 423.675119 216.675112 
L 423.895964 199.833448 
L 424.10848 199.833448 
L 424.32409 156.763293 
L 424.539268 156.763293 
L 424.760481 141.246932 
L 425.406099 141.246932 
L 425.621363 125.784736 
L 426.270183 125.784736 
L 426.486875 109.193451 
L 427.136171 109.193451 
L 427.352819 125.784736 
L 427.56817 125.784736 
L 427.785294 141.246932 
L 428.001034 141.246932 
L 428.216536 184.251422 
L 428.433098 184.251422 
L 428.649465 199.833448 
L 429.733875 199.833448 
L 429.948143 216.675112 
L 430.595839 216.675112 
L 430.814174 173.534059 
L 431.029114 173.534059 
L 431.244269 156.763293 
L 434.48982 156.763293 
L 434.706987 163.567418 
L 435.356673 163.567418 
L 435.573105 148.040672 
L 435.788693 148.040672 
L 436.003395 163.567418 
L 437.518311 163.567418 
L 437.735154 148.040672 
L 437.951196 148.040672 
L 438.167066 163.567418 
L 439.249075 163.567418 
L 439.464793 156.763293 
L 439.682047 156.763293 
L 439.899279 148.040672 
L 440.114933 148.040672 
L 440.330326 105.034686 
L 440.547494 105.034686 
L 440.766543 82.798785 
L 440.980098 82.798785 
L 441.19573 89.62779 
L 441.412422 89.62779 
L 441.629005 66.278133 
L 442.710646 66.278133 
L 442.926645 109.193451 
L 443.142991 109.193451 
L 443.35938 132.568115 
L 444.010233 132.568115 
L 444.22885 148.040672 
L 444.872976 148.040672 
L 445.088824 171.15636 
L 445.310837 171.15636 
L 445.52357 230.995799 
L 446.172693 230.995799 
L 446.388109 239.151061 
L 446.603546 239.151061 
L 446.823222 246.713401 
L 447.037448 246.713401 
L 447.254875 230.995799 
L 447.470896 230.995799 
L 447.686052 223.444987 
L 447.902138 223.444987 
L 448.118635 246.713401 
L 448.335305 246.713401 
L 448.553857 262.486848 
L 448.767022 262.486848 
L 448.986115 253.976711 
L 449.200081 253.976711 
L 449.416102 300.298762 
L 449.634546 300.298762 
L 449.849507 316.15393 
L 450.499344 316.15393 
L 450.716857 269.761251 
L 451.795902 269.761251 
L 452.013178 277.267378 
L 452.662755 277.267378 
L 452.877846 261.471396 
L 453.526904 261.471396 
L 453.743185 277.267378 
L 455.690295 277.267378 
L 455.910058 218.459434 
L 456.557148 218.459434 
L 456.771114 202.784931 
L 457.420972 202.784931 
L 457.636279 178.445156 
L 459.151693 178.445156 
L 459.36726 185.966072 
L 459.5838 185.966072 
L 459.799583 195.251638 
L 460.017356 195.251638 
L 460.235043 245.731314 
L 460.454698 245.731314 
L 460.668015 261.471396 
L 460.883063 261.471396 
L 461.09705 253.976711 
L 462.178972 253.976711 
L 462.397027 210.914618 
L 462.612031 210.914618 
L 462.830064 238.248042 
L 463.06047 238.248042 
L 463.262409 187.950842 
L 463.478668 187.950842 
L 463.695295 230.995799 
L 464.343833 230.995799 
L 464.559941 195.251638 
L 464.775789 195.251638 
L 464.992048 230.995799 
L 465.640825 230.995799 
L 465.858728 187.950842 
L 467.374379 187.950842 
L 467.589341 171.15636 
L 467.803912 171.15636 
L 468.019501 163.567418 
L 468.669662 163.567418 
L 468.885099 206.592215 
L 470.401702 206.592215 
L 470.615409 214.130644 
L 471.265267 214.130644 
L 471.481093 206.592215 
L 471.69878 206.592215 
L 471.922459 190.999902 
L 472.130303 190.999902 
L 472.349893 175.46194 
L 472.563319 175.46194 
L 472.780162 132.568115 
L 472.998216 132.568115 
L 473.211684 115.965701 
L 474.727185 115.965701 
L 474.942362 175.46194 
L 475.159854 175.46194 
L 475.396447 190.999902 
L 476.024046 190.999902 
L 476.241798 206.592215 
L 476.460285 206.592215 
L 476.673407 269.802282 
L 477.321297 269.802282 
L 477.539243 285.579038 
L 478.190724 285.579038 
L 478.403349 344.539152 
L 479.49122 344.539152 
L 479.701465 328.64088 
L 479.918914 328.64088 
L 480.135952 344.539152 
L 482.514909 344.539152 
L 482.734369 328.64088 
L 483.37882 328.64088 
L 483.600422 321.953828 
L 483.813674 321.953828 
L 484.084187 337.841937 
L 484.359784 380.964895 
L 485.112072 380.964895 
L 485.336183 337.841937 
L 485.545239 337.841937 
L 485.77452 331.375708 
L 485.975507 331.375708 
L 486.190814 358.597716 
L 486.407267 358.597716 
L 486.625149 315.497416 
L 487.287013 315.497416 
L 487.489557 365.011429 
L 487.707915 365.011429 
L 487.946671 306.121848 
L 488.139611 306.121848 
L 488.357189 299.675228 
L 489.008043 299.675228 
L 489.221381 239.684111 
L 490.749601 239.684111 
L 490.950437 256.591194 
L 491.599387 256.591194 
L 491.816273 272.347829 
L 492.03264 272.347829 
L 492.25991 288.160406 
L 492.465526 288.160406 
L 492.681201 331.375708 
L 492.979468 331.375708 
L 493.551039 364.530866 
L 493.771581 364.530866 
L 493.999154 305.250813 
L 496.221189 305.250813 
L 496.575333 298.490344 
L 496.792392 298.490344 
L 497.0077 281.411036 
L 497.657926 281.411036 
L 497.87438 265.60874 
L 498.955956 265.60874 
L 499.170895 308.80311 
L 499.8211 308.80311 
L 500.035823 265.60874 
L 501.551907 265.60874 
L 501.76769 308.80311 
L 501.984187 308.80311 
L 502.201052 265.60874 
L 502.416965 265.60874 
L 502.648085 243.856326 
L 502.84972 243.856326 
L 503.067645 226.970095 
L 503.347849 226.970095 
L 503.714475 211.346792 
L 504.18366 211.346792 
L 504.373614 143.664137 
L 505.444893 143.664137 
L 505.663878 127.04353 
L 505.940534 127.04353 
L 506.527313 190.032729 
L 506.74991 190.032729 
L 506.960004 205.592866 
L 508.043635 205.592866 
L 508.256368 226.970095 
L 508.473103 226.970095 
L 508.689405 270.068139 
L 508.906161 270.068139 
L 509.12387 287.024984 
L 509.773728 287.024984 
L 509.98804 302.827944 
L 510.204732 302.827944 
L 510.432997 259.593549 
L 510.69516 259.593549 
L 511.074159 265.60874 
L 514.530928 265.60874 
L 514.746776 259.593549 
L 515.396289 259.593549 
L 515.611531 265.60874 
L 517.127269 265.60874 
L 517.345518 272.347829 
L 517.990985 272.347829 
L 518.210013 256.591194 
L 518.425126 256.591194 
L 518.643375 210.138613 
L 518.856778 210.138613 
L 519.072323 193.307677 
L 519.289534 193.307677 
L 519.506875 177.735589 
L 519.723566 177.735589 
L 519.937446 134.687338 
L 520.586764 134.687338 
L 520.802698 119.23515 
L 521.454936 119.23515 
L 521.668772 134.687338 
L 522.317766 134.687338 
L 522.535733 141.246932 
L 522.751971 141.246932 
L 522.96704 156.763293 
L 524.047686 156.763293 
L 524.266995 180.349398 
L 524.481567 180.349398 
L 524.698994 195.989568 
L 526.214083 195.989568 
L 526.432786 203.60265 
L 526.644481 203.60265 
L 526.863595 180.349398 
L 527.077842 180.349398 
L 527.29289 187.950842 
L 529.240129 187.950842 
L 529.456172 195.251638 
L 529.672972 195.251638 
L 530.01405 230.995799 
L 530.971888 230.995799 
L 531.186893 187.950842 
L 531.448385 187.950842 
L 531.836622 223.444987 
L 532.702609 223.444987 
L 532.918306 230.995799 
L 533.566304 230.995799 
L 533.783493 223.444987 
L 533.999968 223.444987 
L 534.216552 206.592215 
L 535.297176 206.592215 
L 535.517242 190.999902 
L 535.730386 190.999902 
L 535.946299 148.040672 
L 536.163423 148.040672 
L 536.378817 132.568115 
L 537.461821 132.568115 
L 537.675938 158.789271 
L 537.893885 158.789271 
L 538.10943 175.46194 
L 538.325364 175.46194 
L 538.544781 190.999902 
L 538.759937 190.999902 
L 538.97704 206.592215 
L 539.627439 206.592215 
L 539.840886 277.29914 
L 540.056085 277.29914 
L 540.27176 293.087306 
L 540.922159 293.087306 
L 541.137293 285.579038 
L 543.086631 285.579038 
L 543.323095 293.087306 
L 546.545909 293.087306 
L 546.784969 277.29914 
L 549.141601 277.29914 
L 549.357752 293.087306 
L 549.574141 293.087306 
L 549.7912 269.802282 
L 550.006139 269.802282 
L 550.223437 223.444987 
L 550.872711 223.444987 
L 551.08923 206.592215 
L 551.304796 206.592215 
L 551.520623 190.999902 
L 552.170287 190.999902 
L 552.389077 175.46194 
L 552.602372 175.46194 
L 552.830767 190.999902 
L 553.035863 190.999902 
L 553.251106 175.46194 
L 553.900661 175.46194 
L 554.116012 190.999902 
L 554.334218 190.999902 
L 554.549395 206.592215 
L 554.766562 206.592215 
L 554.982172 223.444987 
L 555.200724 223.444987 
L 555.414323 230.995799 
L 556.063792 230.995799 
L 556.282279 246.713401 
L 556.929152 246.713401 
L 557.145281 230.995799 
L 557.362968 230.995799 
L 557.577886 246.713401 
L 557.796654 246.713401 
L 558.013108 230.995799 
L 558.22755 230.995799 
L 558.444263 238.248042 
L 559.527526 238.248042 
L 559.740389 253.976711 
L 560.823652 253.976711 
L 561.040344 284.499643 
L 561.255478 284.499643 
L 561.475588 300.298762 
L 562.140719 300.298762 
L 562.3366 284.499643 
L 562.553941 284.499643 
L 562.769507 300.298762 
L 564.284532 300.298762 
L 564.500596 253.976711 
L 565.149438 253.976711 
L 565.366216 238.248042 
L 566.01562 238.248042 
L 566.231187 230.995799 
L 566.452962 230.995799 
L 566.664613 214.130644 
L 567.315791 214.130644 
L 567.529606 155.618035 
L 567.746362 155.618035 
L 567.9793 140.133929 
L 568.196641 140.133929 
L 568.395139 182.97746 
L 568.611982 182.97746 
L 568.840853 198.526862 
L 569.477364 198.526862 
L 569.698794 214.130644 
L 570.342141 214.130644 
L 570.559784 230.995799 
L 571.207826 230.995799 
L 571.423436 246.713401 
L 571.642355 246.713401 
L 571.855305 239.151061 
L 572.072926 239.151061 
L 572.288255 262.486848 
L 572.527488 262.486848 
L 572.850091 246.713401 
L 575.444053 246.713401 
L 575.749545 262.486848 
L 575.96667 262.486848 
L 576.182474 246.713401 
L 576.400204 246.713401 
L 576.61523 262.486848 
L 580.293147 262.486848 
L 580.508692 279.535008 
L 581.158789 279.535008 
L 581.373923 236.287086 
L 582.034554 236.287086 
L 582.240667 219.310137 
L 583.323974 219.310137 
L 583.538178 160.444868 
L 584.187323 160.444868 
L 584.40276 176.086136 
L 584.621766 176.086136 
L 584.838501 183.458569 
L 585.483514 183.458569 
L 585.701914 200.376232 
L 585.917957 200.376232 
L 586.134346 259.455737 
L 586.350561 259.455737 
L 586.566042 275.345082 
L 586.782993 275.345082 
L 587.008143 292.519539 
L 587.214948 292.519539 
L 587.430796 308.526009 
L 587.648418 308.526009 
L 587.864612 324.589313 
L 590.24504 324.589313 
L 590.460282 385.561051 
L 590.676887 385.561051 
L 590.8973 368.126078 
L 591.974095 368.126078 
L 592.190852 385.561051 
L 592.407024 385.561051 
L 592.623153 368.126078 
L 592.839153 368.126078 
L 593.056558 414.957188 
L 593.271671 414.957188 
L 593.493165 407.666587 
L 594.569224 407.666587 
L 594.785635 391.475879 
L 595.434801 391.475879 
L 595.434801 391.475879 
" clip-path="url(#p46c8eea40d)" style="fill: none; stroke: #1f77b4; stroke-width: 2; stroke-linecap: square"/>
   </g>
   <g id="patch_3">
    <path d="M 62.798438 414.957188 
L 62.798438 26.877187 
" style="fill: none; stroke: #808080; stroke-width: 2; stroke-linejoin: miter; stroke-linecap: square"/>
   </g>
   <g id="patch_4">
    <path d="M 62.798437 414.957187 
L 620.798437 414.957187 
" style="fill: none; stroke: #808080; stroke-width: 2; stroke-linejoin: miter; stroke-linecap: square"/>
   </g>
   <g id="text_17">
    <!-- Oskar-Tyholt_restart-vinkel -->
    <g style="fill: #808080" transform="translate(223.286719 20.877187) scale(0.18 -0.18)">
     <defs>
      <path id="DejaVuSans-4f" d="M 2522 4238 
Q 1834 4238 1429 3725 
Q 1025 3213 1025 2328 
Q 1025 1447 1429 934 
Q 1834 422 2522 422 
Q 3209 422 3611 934 
Q 4013 1447 4013 2328 
Q 4013 3213 3611 3725 
Q 3209 4238 2522 4238 
z
M 2522 4750 
Q 3503 4750 4090 4092 
Q 4678 3434 4678 2328 
Q 4678 1225 4090 567 
Q 3503 -91 2522 -91 
Q 1538 -91 948 565 
Q 359 1222 359 2328 
Q 359 3434 948 4092 
Q 1538 4750 2522 4750 
z
" transform="scale(0.015625)"/>
      <path id="DejaVuSans-6b" d="M 581 4863 
L 1159 4863 
L 1159 1991 
L 2875 3500 
L 3609 3500 
L 1753 1863 
L 3688 0 
L 2938 0 
L 1159 1709 
L 1159 0 
L 581 0 
L 581 4863 
z
" transform="scale(0.015625)"/>
      <path id="DejaVuSans-61" d="M 2194 1759 
Q 1497 1759 1228 1600 
Q 959 1441 959 1056 
Q 959 750 1161 570 
Q 1363 391 1709 391 
Q 2188 391 2477 730 
Q 2766 1069 2766 1631 
L 2766 1759 
L 2194 1759 
z
M 3341 1997 
L 3341 0 
L 2766 0 
L 2766 531 
Q 2569 213 2275 61 
Q 1981 -91 1556 -91 
Q 1019 -91 701 211 
Q 384 513 384 1019 
Q 384 1609 779 1909 
Q 1175 2209 1959 2209 
L 2766 2209 
L 2766 2266 
Q 2766 2663 2505 2880 
Q 2244 3097 1772 3097 
Q 1472 3097 1187 3025 
Q 903 2953 641 2809 
L 641 3341 
Q 956 3463 1253 3523 
Q 1550 3584 1831 3584 
Q 2591 3584 2966 3190 
Q 3341 2797 3341 1997 
z
" transform="scale(0.015625)"/>
      <path id="DejaVuSans-72" d="M 2631 2963 
Q 2534 3019 2420 3045 
Q 2306 3072 2169 3072 
Q 1681 3072 1420 2755 
Q 1159 2438 1159 1844 
L 1159 0 
L 581 0 
L 581 3500 
L 1159 3500 
L 1159 2956 
Q 1341 3275 1631 3429 
Q 1922 3584 2338 3584 
Q 2397 3584 2469 3576 
Q 2541 3569 2628 3553 
L 2631 2963 
z
" transform="scale(0.015625)"/>
      <path id="DejaVuSans-2d" d="M 313 2009 
L 1997 2009 
L 1997 1497 
L 313 1497 
L 313 2009 
z
" transform="scale(0.015625)"/>
      <path id="DejaVuSans-54" d="M -19 4666 
L 3928 4666 
L 3928 4134 
L 2272 4134 
L 2272 0 
L 1638 0 
L 1638 4134 
L -19 4134 
L -19 4666 
z
" transform="scale(0.015625)"/>
      <path id="DejaVuSans-79" d="M 2059 -325 
Q 1816 -950 1584 -1140 
Q 1353 -1331 966 -1331 
L 506 -1331 
L 506 -850 
L 844 -850 
Q 1081 -850 1212 -737 
Q 1344 -625 1503 -206 
L 1606 56 
L 191 3500 
L 800 3500 
L 1894 763 
L 2988 3500 
L 3597 3500 
L 2059 -325 
z
" transform="scale(0.015625)"/>
      <path id="DejaVuSans-68" d="M 3513 2113 
L 3513 0 
L 2938 0 
L 2938 2094 
Q 2938 2591 2744 2837 
Q 2550 3084 2163 3084 
Q 1697 3084 1428 2787 
Q 1159 2491 1159 1978 
L 1159 0 
L 581 0 
L 581 4863 
L 1159 4863 
L 1159 2956 
Q 1366 3272 1645 3428 
Q 1925 3584 2291 3584 
Q 2894 3584 3203 3211 
Q 3513 2838 3513 2113 
z
" transform="scale(0.015625)"/>
      <path id="DejaVuSans-6f" d="M 1959 3097 
Q 1497 3097 1228 2736 
Q 959 2375 959 1747 
Q 959 1119 1226 758 
Q 1494 397 1959 397 
Q 2419 397 2687 759 
Q 2956 1122 2956 1747 
Q 2956 2369 2687 2733 
Q 2419 3097 1959 3097 
z
M 1959 3584 
Q 2709 3584 3137 3096 
Q 3566 2609 3566 1747 
Q 3566 888 3137 398 
Q 2709 -91 1959 -91 
Q 1206 -91 779 398 
Q 353 888 353 1747 
Q 353 2609 779 3096 
Q 1206 3584 1959 3584 
z
" transform="scale(0.015625)"/>
      <path id="DejaVuSans-6c" d="M 603 4863 
L 1178 4863 
L 1178 0 
L 603 0 
L 603 4863 
z
" transform="scale(0.015625)"/>
      <path id="DejaVuSans-5f" d="M 3263 -1063 
L 3263 -1509 
L -63 -1509 
L -63 -1063 
L 3263 -1063 
z
" transform="scale(0.015625)"/>
      <path id="DejaVuSans-76" d="M 191 3500 
L 800 3500 
L 1894 563 
L 2988 3500 
L 3597 3500 
L 2284 0 
L 1503 0 
L 191 3500 
z
" transform="scale(0.015625)"/>
      <path id="DejaVuSans-6e" d="M 3513 2113 
L 3513 0 
L 2938 0 
L 2938 2094 
Q 2938 2591 2744 2837 
Q 2550 3084 2163 3084 
Q 1697 3084 1428 2787 
Q 1159 2491 1159 1978 
L 1159 0 
L 581 0 
L 581 3500 
L 1159 3500 
L 1159 2956 
Q 1366 3272 1645 3428 
Q 1925 3584 2291 3584 
Q 2894 3584 3203 3211 
Q 3513 2838 3513 2113 
z
" transform="scale(0.015625)"/>
     </defs>
     <use xlink:href="#DejaVuSans-4f"/>
     <use xlink:href="#DejaVuSans-73" x="78.710938"/>
     <use xlink:href="#DejaVuSans-6b" x="130.810547"/>
     <use xlink:href="#DejaVuSans-61" x="186.970703"/>
     <use xlink:href="#DejaVuSans-72" x="248.25"/>
     <use xlink:href="#DejaVuSans-2d" x="282.988281"/>
     <use xlink:href="#DejaVuSans-54" x="309.947266"/>
     <use xlink:href="#DejaVuSans-79" x="355.40625"/>
     <use xlink:href="#DejaVuSans-68" x="414.585938"/>
     <use xlink:href="#DejaVuSans-6f" x="477.964844"/>
     <use xlink:href="#DejaVuSans-6c" x="539.146484"/>
     <use xlink:href="#DejaVuSans-74" x="566.929688"/>
     <use xlink:href="#DejaVuSans-5f" x="606.138672"/>
     <use xlink:href="#DejaVuSans-72" x="656.138672"/>
     <use xlink:href="#DejaVuSans-65" x="695.001953"/>
     <use xlink:href="#DejaVuSans-73" x="756.525391"/>
     <use xlink:href="#DejaVuSans-74" x="808.625"/>
     <use xlink:href="#DejaVuSans-61" x="847.833984"/>
     <use xlink:href="#DejaVuSans-72" x="909.113281"/>
     <use xlink:href="#DejaVuSans-74" x="950.226562"/>
     <use xlink:href="#DejaVuSans-2d" x="989.435547"/>
     <use xlink:href="#DejaVuSans-76" x="1022.894531"/>
     <use xlink:href="#DejaVuSans-69" x="1082.074219"/>
     <use xlink:href="#DejaVuSans-6e" x="1109.857422"/>
     <use xlink:href="#DejaVuSans-6b" x="1173.236328"/>
     <use xlink:href="#DejaVuSans-65" x="1227.521484"/>
     <use xlink:href="#DejaVuSans-6c" x="1289.044922"/>
    </g>
   </g>
   <g id="legend_1">
    <g id="patch_5">
     <path d="M 364.778906 61.311562 
L 610.298437 61.311562 
Q 613.298437 61.311562 613.298437 58.311562 
L 613.298437 37.377187 
Q 613.298437 34.377187 610.298437 34.377187 
L 364.778906 34.377187 
Q 361.778906 34.377187 361.778906 37.377187 
L 361.778906 58.311562 
Q 361.778906 61.311562 364.778906 61.311562 
z
" style="fill: #ffffff; opacity: 0.8; stroke: #cccccc; stroke-linejoin: miter"/>
    </g>
    <g id="line2d_30">
     <path d="M 367.778906 46.524844 
L 382.778906 46.524844 
L 397.778906 46.524844 
" style="fill: none; stroke: #1f77b4; stroke-width: 2; stroke-linecap: square"/>
    </g>
    <g id="text_18">
     <!-- Oskar-Tyholt_restart-vinkel -->
     <g style="fill: #808080" transform="translate(409.778906 51.774844) scale(0.15 -0.15)">
      <use xlink:href="#DejaVuSans-4f"/>
      <use xlink:href="#DejaVuSans-73" x="78.710938"/>
      <use xlink:href="#DejaVuSans-6b" x="130.810547"/>
      <use xlink:href="#DejaVuSans-61" x="186.970703"/>
      <use xlink:href="#DejaVuSans-72" x="248.25"/>
      <use xlink:href="#DejaVuSans-2d" x="282.988281"/>
      <use xlink:href="#DejaVuSans-54" x="309.947266"/>
      <use xlink:href="#DejaVuSans-79" x="355.40625"/>
      <use xlink:href="#DejaVuSans-68" x="414.585938"/>
      <use xlink:href="#DejaVuSans-6f" x="477.964844"/>
      <use xlink:href="#DejaVuSans-6c" x="539.146484"/>
      <use xlink:href="#DejaVuSans-74" x="566.929688"/>
      <use xlink:href="#DejaVuSans-5f" x="606.138672"/>
      <use xlink:href="#DejaVuSans-72" x="656.138672"/>
      <use xlink:href="#DejaVuSans-65" x="695.001953"/>
      <use xlink:href="#DejaVuSans-73" x="756.525391"/>
      <use xlink:href="#DejaVuSans-74" x="808.625"/>
      <use xlink:href="#DejaVuSans-61" x="847.833984"/>
      <use xlink:href="#DejaVuSans-72" x="909.113281"/>
      <use xlink:href="#DejaVuSans-74" x="950.226562"/>
      <use xlink:href="#DejaVuSans-2d" x="989.435547"/>
      <use xlink:href="#DejaVuSans-76" x="1022.894531"/>
      <use xlink:href="#DejaVuSans-69" x="1082.074219"/>
      <use xlink:href="#DejaVuSans-6e" x="1109.857422"/>
      <use xlink:href="#DejaVuSans-6b" x="1173.236328"/>
      <use xlink:href="#DejaVuSans-65" x="1227.521484"/>
      <use xlink:href="#DejaVuSans-6c" x="1289.044922"/>
     </g>
    </g>
   </g>
  </g>
 </g>
 <defs>
  <clipPath id="p46c8eea40d">
   <rect x="62.798438" y="26.877187" width="558" height="388.08"/>
  </clipPath>
 </defs>
</svg>
