<?xml version="1.0" encoding="utf-8" standalone="no"?>
<!DOCTYPE svg PUBLIC "-//W3C//DTD SVG 1.1//EN"
  "http://www.w3.org/Graphics/SVG/1.1/DTD/svg11.dtd">
<svg xmlns:xlink="http://www.w3.org/1999/xlink" width="460.8pt" height="345.6pt" viewBox="0 0 460.8 345.6" xmlns="http://www.w3.org/2000/svg" version="1.1">
 <metadata>
  <rdf:RDF xmlns:dc="http://purl.org/dc/elements/1.1/" xmlns:cc="http://creativecommons.org/ns#" xmlns:rdf="http://www.w3.org/1999/02/22-rdf-syntax-ns#">
   <cc:Work>
    <dc:type rdf:resource="http://purl.org/dc/dcmitype/StillImage"/>
    <dc:date>2023-04-17T15:21:34.431481</dc:date>
    <dc:format>image/svg+xml</dc:format>
    <dc:creator>
     <cc:Agent>
      <dc:title>Matplotlib v3.7.1, https://matplotlib.org/</dc:title>
     </cc:Agent>
    </dc:creator>
   </cc:Work>
  </rdf:RDF>
 </metadata>
 <defs>
  <style type="text/css">*{stroke-linejoin: round; stroke-linecap: butt}</style>
 </defs>
 <g id="figure_1">
  <g id="patch_1">
   <path d="M 0 345.6 
L 460.8 345.6 
L 460.8 0 
L 0 0 
z
" style="fill: #ffffff"/>
  </g>
  <g id="axes_1">
   <g id="patch_2">
    <path d="M 57.6 307.584 
L 414.72 307.584 
L 414.72 41.472 
L 57.6 41.472 
z
" style="fill: #ffffff"/>
   </g>
   <g id="matplotlib.axis_1">
    <g id="xtick_1">
     <g id="line2d_1">
      <defs>
       <path id="mc0ecd78dc9" d="M 0 0 
L 0 3.5 
" style="stroke: #000000; stroke-width: 0.8"/>
      </defs>
      <g>
       <use xlink:href="#mc0ecd78dc9" x="103.603528" y="307.584" style="stroke: #000000; stroke-width: 0.8"/>
      </g>
     </g>
     <g id="text_1">
      <!-- 30 -->
      <g transform="translate(97.241028 322.182437) scale(0.1 -0.1)">
       <defs>
        <path id="DejaVuSans-33" d="M 2597 2516 
Q 3050 2419 3304 2112 
Q 3559 1806 3559 1356 
Q 3559 666 3084 287 
Q 2609 -91 1734 -91 
Q 1441 -91 1130 -33 
Q 819 25 488 141 
L 488 750 
Q 750 597 1062 519 
Q 1375 441 1716 441 
Q 2309 441 2620 675 
Q 2931 909 2931 1356 
Q 2931 1769 2642 2001 
Q 2353 2234 1838 2234 
L 1294 2234 
L 1294 2753 
L 1863 2753 
Q 2328 2753 2575 2939 
Q 2822 3125 2822 3475 
Q 2822 3834 2567 4026 
Q 2313 4219 1838 4219 
Q 1578 4219 1281 4162 
Q 984 4106 628 3988 
L 628 4550 
Q 988 4650 1302 4700 
Q 1616 4750 1894 4750 
Q 2613 4750 3031 4423 
Q 3450 4097 3450 3541 
Q 3450 3153 3228 2886 
Q 3006 2619 2597 2516 
z
" transform="scale(0.015625)"/>
        <path id="DejaVuSans-30" d="M 2034 4250 
Q 1547 4250 1301 3770 
Q 1056 3291 1056 2328 
Q 1056 1369 1301 889 
Q 1547 409 2034 409 
Q 2525 409 2770 889 
Q 3016 1369 3016 2328 
Q 3016 3291 2770 3770 
Q 2525 4250 2034 4250 
z
M 2034 4750 
Q 2819 4750 3233 4129 
Q 3647 3509 3647 2328 
Q 3647 1150 3233 529 
Q 2819 -91 2034 -91 
Q 1250 -91 836 529 
Q 422 1150 422 2328 
Q 422 3509 836 4129 
Q 1250 4750 2034 4750 
z
" transform="scale(0.015625)"/>
       </defs>
       <use xlink:href="#DejaVuSans-33"/>
       <use xlink:href="#DejaVuSans-30" x="63.623047"/>
      </g>
     </g>
    </g>
    <g id="xtick_2">
     <g id="line2d_2">
      <g>
       <use xlink:href="#mc0ecd78dc9" x="172.827167" y="307.584" style="stroke: #000000; stroke-width: 0.8"/>
      </g>
     </g>
     <g id="text_2">
      <!-- 35 -->
      <g transform="translate(166.464667 322.182437) scale(0.1 -0.1)">
       <defs>
        <path id="DejaVuSans-35" d="M 691 4666 
L 3169 4666 
L 3169 4134 
L 1269 4134 
L 1269 2991 
Q 1406 3038 1543 3061 
Q 1681 3084 1819 3084 
Q 2600 3084 3056 2656 
Q 3513 2228 3513 1497 
Q 3513 744 3044 326 
Q 2575 -91 1722 -91 
Q 1428 -91 1123 -41 
Q 819 9 494 109 
L 494 744 
Q 775 591 1075 516 
Q 1375 441 1709 441 
Q 2250 441 2565 725 
Q 2881 1009 2881 1497 
Q 2881 1984 2565 2268 
Q 2250 2553 1709 2553 
Q 1456 2553 1204 2497 
Q 953 2441 691 2322 
L 691 4666 
z
" transform="scale(0.015625)"/>
       </defs>
       <use xlink:href="#DejaVuSans-33"/>
       <use xlink:href="#DejaVuSans-35" x="63.623047"/>
      </g>
     </g>
    </g>
    <g id="xtick_3">
     <g id="line2d_3">
      <g>
       <use xlink:href="#mc0ecd78dc9" x="242.050806" y="307.584" style="stroke: #000000; stroke-width: 0.8"/>
      </g>
     </g>
     <g id="text_3">
      <!-- 40 -->
      <g transform="translate(235.688306 322.182437) scale(0.1 -0.1)">
       <defs>
        <path id="DejaVuSans-34" d="M 2419 4116 
L 825 1625 
L 2419 1625 
L 2419 4116 
z
M 2253 4666 
L 3047 4666 
L 3047 1625 
L 3713 1625 
L 3713 1100 
L 3047 1100 
L 3047 0 
L 2419 0 
L 2419 1100 
L 313 1100 
L 313 1709 
L 2253 4666 
z
" transform="scale(0.015625)"/>
       </defs>
       <use xlink:href="#DejaVuSans-34"/>
       <use xlink:href="#DejaVuSans-30" x="63.623047"/>
      </g>
     </g>
    </g>
    <g id="xtick_4">
     <g id="line2d_4">
      <g>
       <use xlink:href="#mc0ecd78dc9" x="311.274444" y="307.584" style="stroke: #000000; stroke-width: 0.8"/>
      </g>
     </g>
     <g id="text_4">
      <!-- 45 -->
      <g transform="translate(304.911944 322.182437) scale(0.1 -0.1)">
       <use xlink:href="#DejaVuSans-34"/>
       <use xlink:href="#DejaVuSans-35" x="63.623047"/>
      </g>
     </g>
    </g>
    <g id="xtick_5">
     <g id="line2d_5">
      <g>
       <use xlink:href="#mc0ecd78dc9" x="380.498083" y="307.584" style="stroke: #000000; stroke-width: 0.8"/>
      </g>
     </g>
     <g id="text_5">
      <!-- 50 -->
      <g transform="translate(374.135583 322.182437) scale(0.1 -0.1)">
       <use xlink:href="#DejaVuSans-35"/>
       <use xlink:href="#DejaVuSans-30" x="63.623047"/>
      </g>
     </g>
    </g>
    <g id="text_6">
     <!-- time [s] -->
     <g transform="translate(216.768594 335.860562) scale(0.1 -0.1)">
      <defs>
       <path id="DejaVuSans-74" d="M 1172 4494 
L 1172 3500 
L 2356 3500 
L 2356 3053 
L 1172 3053 
L 1172 1153 
Q 1172 725 1289 603 
Q 1406 481 1766 481 
L 2356 481 
L 2356 0 
L 1766 0 
Q 1100 0 847 248 
Q 594 497 594 1153 
L 594 3053 
L 172 3053 
L 172 3500 
L 594 3500 
L 594 4494 
L 1172 4494 
z
" transform="scale(0.015625)"/>
       <path id="DejaVuSans-69" d="M 603 3500 
L 1178 3500 
L 1178 0 
L 603 0 
L 603 3500 
z
M 603 4863 
L 1178 4863 
L 1178 4134 
L 603 4134 
L 603 4863 
z
" transform="scale(0.015625)"/>
       <path id="DejaVuSans-6d" d="M 3328 2828 
Q 3544 3216 3844 3400 
Q 4144 3584 4550 3584 
Q 5097 3584 5394 3201 
Q 5691 2819 5691 2113 
L 5691 0 
L 5113 0 
L 5113 2094 
Q 5113 2597 4934 2840 
Q 4756 3084 4391 3084 
Q 3944 3084 3684 2787 
Q 3425 2491 3425 1978 
L 3425 0 
L 2847 0 
L 2847 2094 
Q 2847 2600 2669 2842 
Q 2491 3084 2119 3084 
Q 1678 3084 1418 2786 
Q 1159 2488 1159 1978 
L 1159 0 
L 581 0 
L 581 3500 
L 1159 3500 
L 1159 2956 
Q 1356 3278 1631 3431 
Q 1906 3584 2284 3584 
Q 2666 3584 2933 3390 
Q 3200 3197 3328 2828 
z
" transform="scale(0.015625)"/>
       <path id="DejaVuSans-65" d="M 3597 1894 
L 3597 1613 
L 953 1613 
Q 991 1019 1311 708 
Q 1631 397 2203 397 
Q 2534 397 2845 478 
Q 3156 559 3463 722 
L 3463 178 
Q 3153 47 2828 -22 
Q 2503 -91 2169 -91 
Q 1331 -91 842 396 
Q 353 884 353 1716 
Q 353 2575 817 3079 
Q 1281 3584 2069 3584 
Q 2775 3584 3186 3129 
Q 3597 2675 3597 1894 
z
M 3022 2063 
Q 3016 2534 2758 2815 
Q 2500 3097 2075 3097 
Q 1594 3097 1305 2825 
Q 1016 2553 972 2059 
L 3022 2063 
z
" transform="scale(0.015625)"/>
       <path id="DejaVuSans-20" transform="scale(0.015625)"/>
       <path id="DejaVuSans-5b" d="M 550 4863 
L 1875 4863 
L 1875 4416 
L 1125 4416 
L 1125 -397 
L 1875 -397 
L 1875 -844 
L 550 -844 
L 550 4863 
z
" transform="scale(0.015625)"/>
       <path id="DejaVuSans-73" d="M 2834 3397 
L 2834 2853 
Q 2591 2978 2328 3040 
Q 2066 3103 1784 3103 
Q 1356 3103 1142 2972 
Q 928 2841 928 2578 
Q 928 2378 1081 2264 
Q 1234 2150 1697 2047 
L 1894 2003 
Q 2506 1872 2764 1633 
Q 3022 1394 3022 966 
Q 3022 478 2636 193 
Q 2250 -91 1575 -91 
Q 1294 -91 989 -36 
Q 684 19 347 128 
L 347 722 
Q 666 556 975 473 
Q 1284 391 1588 391 
Q 1994 391 2212 530 
Q 2431 669 2431 922 
Q 2431 1156 2273 1281 
Q 2116 1406 1581 1522 
L 1381 1569 
Q 847 1681 609 1914 
Q 372 2147 372 2553 
Q 372 3047 722 3315 
Q 1072 3584 1716 3584 
Q 2034 3584 2315 3537 
Q 2597 3491 2834 3397 
z
" transform="scale(0.015625)"/>
       <path id="DejaVuSans-5d" d="M 1947 4863 
L 1947 -844 
L 622 -844 
L 622 -397 
L 1369 -397 
L 1369 4416 
L 622 4416 
L 622 4863 
L 1947 4863 
z
" transform="scale(0.015625)"/>
      </defs>
      <use xlink:href="#DejaVuSans-74"/>
      <use xlink:href="#DejaVuSans-69" x="39.208984"/>
      <use xlink:href="#DejaVuSans-6d" x="66.992188"/>
      <use xlink:href="#DejaVuSans-65" x="164.404297"/>
      <use xlink:href="#DejaVuSans-20" x="225.927734"/>
      <use xlink:href="#DejaVuSans-5b" x="257.714844"/>
      <use xlink:href="#DejaVuSans-73" x="296.728516"/>
      <use xlink:href="#DejaVuSans-5d" x="348.828125"/>
     </g>
    </g>
   </g>
   <g id="matplotlib.axis_2">
    <g id="ytick_1">
     <g id="line2d_6">
      <defs>
       <path id="m6b1b7decc1" d="M 0 0 
L -3.5 0 
" style="stroke: #000000; stroke-width: 0.8"/>
      </defs>
      <g>
       <use xlink:href="#m6b1b7decc1" x="57.6" y="292.423881" style="stroke: #000000; stroke-width: 0.8"/>
      </g>
     </g>
     <g id="text_7">
      <!-- 69.8 -->
      <g transform="translate(28.334375 296.2231) scale(0.1 -0.1)">
       <defs>
        <path id="DejaVuSans-36" d="M 2113 2584 
Q 1688 2584 1439 2293 
Q 1191 2003 1191 1497 
Q 1191 994 1439 701 
Q 1688 409 2113 409 
Q 2538 409 2786 701 
Q 3034 994 3034 1497 
Q 3034 2003 2786 2293 
Q 2538 2584 2113 2584 
z
M 3366 4563 
L 3366 3988 
Q 3128 4100 2886 4159 
Q 2644 4219 2406 4219 
Q 1781 4219 1451 3797 
Q 1122 3375 1075 2522 
Q 1259 2794 1537 2939 
Q 1816 3084 2150 3084 
Q 2853 3084 3261 2657 
Q 3669 2231 3669 1497 
Q 3669 778 3244 343 
Q 2819 -91 2113 -91 
Q 1303 -91 875 529 
Q 447 1150 447 2328 
Q 447 3434 972 4092 
Q 1497 4750 2381 4750 
Q 2619 4750 2861 4703 
Q 3103 4656 3366 4563 
z
" transform="scale(0.015625)"/>
        <path id="DejaVuSans-39" d="M 703 97 
L 703 672 
Q 941 559 1184 500 
Q 1428 441 1663 441 
Q 2288 441 2617 861 
Q 2947 1281 2994 2138 
Q 2813 1869 2534 1725 
Q 2256 1581 1919 1581 
Q 1219 1581 811 2004 
Q 403 2428 403 3163 
Q 403 3881 828 4315 
Q 1253 4750 1959 4750 
Q 2769 4750 3195 4129 
Q 3622 3509 3622 2328 
Q 3622 1225 3098 567 
Q 2575 -91 1691 -91 
Q 1453 -91 1209 -44 
Q 966 3 703 97 
z
M 1959 2075 
Q 2384 2075 2632 2365 
Q 2881 2656 2881 3163 
Q 2881 3666 2632 3958 
Q 2384 4250 1959 4250 
Q 1534 4250 1286 3958 
Q 1038 3666 1038 3163 
Q 1038 2656 1286 2365 
Q 1534 2075 1959 2075 
z
" transform="scale(0.015625)"/>
        <path id="DejaVuSans-2e" d="M 684 794 
L 1344 794 
L 1344 0 
L 684 0 
L 684 794 
z
" transform="scale(0.015625)"/>
        <path id="DejaVuSans-38" d="M 2034 2216 
Q 1584 2216 1326 1975 
Q 1069 1734 1069 1313 
Q 1069 891 1326 650 
Q 1584 409 2034 409 
Q 2484 409 2743 651 
Q 3003 894 3003 1313 
Q 3003 1734 2745 1975 
Q 2488 2216 2034 2216 
z
M 1403 2484 
Q 997 2584 770 2862 
Q 544 3141 544 3541 
Q 544 4100 942 4425 
Q 1341 4750 2034 4750 
Q 2731 4750 3128 4425 
Q 3525 4100 3525 3541 
Q 3525 3141 3298 2862 
Q 3072 2584 2669 2484 
Q 3125 2378 3379 2068 
Q 3634 1759 3634 1313 
Q 3634 634 3220 271 
Q 2806 -91 2034 -91 
Q 1263 -91 848 271 
Q 434 634 434 1313 
Q 434 1759 690 2068 
Q 947 2378 1403 2484 
z
M 1172 3481 
Q 1172 3119 1398 2916 
Q 1625 2713 2034 2713 
Q 2441 2713 2670 2916 
Q 2900 3119 2900 3481 
Q 2900 3844 2670 4047 
Q 2441 4250 2034 4250 
Q 1625 4250 1398 4047 
Q 1172 3844 1172 3481 
z
" transform="scale(0.015625)"/>
       </defs>
       <use xlink:href="#DejaVuSans-36"/>
       <use xlink:href="#DejaVuSans-39" x="63.623047"/>
       <use xlink:href="#DejaVuSans-2e" x="127.246094"/>
       <use xlink:href="#DejaVuSans-38" x="159.033203"/>
      </g>
     </g>
    </g>
    <g id="ytick_2">
     <g id="line2d_7">
      <g>
       <use xlink:href="#m6b1b7decc1" x="57.6" y="238.233243" style="stroke: #000000; stroke-width: 0.8"/>
      </g>
     </g>
     <g id="text_8">
      <!-- 70.0 -->
      <g transform="translate(28.334375 242.032462) scale(0.1 -0.1)">
       <defs>
        <path id="DejaVuSans-37" d="M 525 4666 
L 3525 4666 
L 3525 4397 
L 1831 0 
L 1172 0 
L 2766 4134 
L 525 4134 
L 525 4666 
z
" transform="scale(0.015625)"/>
       </defs>
       <use xlink:href="#DejaVuSans-37"/>
       <use xlink:href="#DejaVuSans-30" x="63.623047"/>
       <use xlink:href="#DejaVuSans-2e" x="127.246094"/>
       <use xlink:href="#DejaVuSans-30" x="159.033203"/>
      </g>
     </g>
    </g>
    <g id="ytick_3">
     <g id="line2d_8">
      <g>
       <use xlink:href="#m6b1b7decc1" x="57.6" y="184.042605" style="stroke: #000000; stroke-width: 0.8"/>
      </g>
     </g>
     <g id="text_9">
      <!-- 70.2 -->
      <g transform="translate(28.334375 187.841824) scale(0.1 -0.1)">
       <defs>
        <path id="DejaVuSans-32" d="M 1228 531 
L 3431 531 
L 3431 0 
L 469 0 
L 469 531 
Q 828 903 1448 1529 
Q 2069 2156 2228 2338 
Q 2531 2678 2651 2914 
Q 2772 3150 2772 3378 
Q 2772 3750 2511 3984 
Q 2250 4219 1831 4219 
Q 1534 4219 1204 4116 
Q 875 4013 500 3803 
L 500 4441 
Q 881 4594 1212 4672 
Q 1544 4750 1819 4750 
Q 2544 4750 2975 4387 
Q 3406 4025 3406 3419 
Q 3406 3131 3298 2873 
Q 3191 2616 2906 2266 
Q 2828 2175 2409 1742 
Q 1991 1309 1228 531 
z
" transform="scale(0.015625)"/>
       </defs>
       <use xlink:href="#DejaVuSans-37"/>
       <use xlink:href="#DejaVuSans-30" x="63.623047"/>
       <use xlink:href="#DejaVuSans-2e" x="127.246094"/>
       <use xlink:href="#DejaVuSans-32" x="159.033203"/>
      </g>
     </g>
    </g>
    <g id="ytick_4">
     <g id="line2d_9">
      <g>
       <use xlink:href="#m6b1b7decc1" x="57.6" y="129.851968" style="stroke: #000000; stroke-width: 0.8"/>
      </g>
     </g>
     <g id="text_10">
      <!-- 70.4 -->
      <g transform="translate(28.334375 133.651186) scale(0.1 -0.1)">
       <use xlink:href="#DejaVuSans-37"/>
       <use xlink:href="#DejaVuSans-30" x="63.623047"/>
       <use xlink:href="#DejaVuSans-2e" x="127.246094"/>
       <use xlink:href="#DejaVuSans-34" x="159.033203"/>
      </g>
     </g>
    </g>
    <g id="ytick_5">
     <g id="line2d_10">
      <g>
       <use xlink:href="#m6b1b7decc1" x="57.6" y="75.66133" style="stroke: #000000; stroke-width: 0.8"/>
      </g>
     </g>
     <g id="text_11">
      <!-- 70.6 -->
      <g transform="translate(28.334375 79.460548) scale(0.1 -0.1)">
       <use xlink:href="#DejaVuSans-37"/>
       <use xlink:href="#DejaVuSans-30" x="63.623047"/>
       <use xlink:href="#DejaVuSans-2e" x="127.246094"/>
       <use xlink:href="#DejaVuSans-36" x="159.033203"/>
      </g>
     </g>
    </g>
    <g id="text_12">
     <!-- $\theta$ [deg] -->
     <g transform="translate(22.234375 192.528) rotate(-90) scale(0.1 -0.1)">
      <defs>
       <path id="DejaVuSans-Oblique-3b8" d="M 2913 2219 
L 925 2219 
Q 791 1284 928 888 
Q 1100 400 1566 400 
Q 2034 400 2391 891 
Q 2703 1322 2913 2219 
z
M 3009 2750 
Q 3094 3638 2984 3950 
Q 2813 4444 2353 4444 
Q 1875 4444 1525 3956 
Q 1250 3563 1034 2750 
L 3009 2750 
z
M 2444 4913 
Q 3194 4913 3494 4250 
Q 3794 3591 3566 2422 
Q 3341 1256 2781 594 
Q 2225 -72 1475 -72 
Q 722 -72 425 594 
Q 128 1256 353 2422 
Q 581 3591 1134 4250 
Q 1691 4913 2444 4913 
z
" transform="scale(0.015625)"/>
       <path id="DejaVuSans-64" d="M 2906 2969 
L 2906 4863 
L 3481 4863 
L 3481 0 
L 2906 0 
L 2906 525 
Q 2725 213 2448 61 
Q 2172 -91 1784 -91 
Q 1150 -91 751 415 
Q 353 922 353 1747 
Q 353 2572 751 3078 
Q 1150 3584 1784 3584 
Q 2172 3584 2448 3432 
Q 2725 3281 2906 2969 
z
M 947 1747 
Q 947 1113 1208 752 
Q 1469 391 1925 391 
Q 2381 391 2643 752 
Q 2906 1113 2906 1747 
Q 2906 2381 2643 2742 
Q 2381 3103 1925 3103 
Q 1469 3103 1208 2742 
Q 947 2381 947 1747 
z
" transform="scale(0.015625)"/>
       <path id="DejaVuSans-67" d="M 2906 1791 
Q 2906 2416 2648 2759 
Q 2391 3103 1925 3103 
Q 1463 3103 1205 2759 
Q 947 2416 947 1791 
Q 947 1169 1205 825 
Q 1463 481 1925 481 
Q 2391 481 2648 825 
Q 2906 1169 2906 1791 
z
M 3481 434 
Q 3481 -459 3084 -895 
Q 2688 -1331 1869 -1331 
Q 1566 -1331 1297 -1286 
Q 1028 -1241 775 -1147 
L 775 -588 
Q 1028 -725 1275 -790 
Q 1522 -856 1778 -856 
Q 2344 -856 2625 -561 
Q 2906 -266 2906 331 
L 2906 616 
Q 2728 306 2450 153 
Q 2172 0 1784 0 
Q 1141 0 747 490 
Q 353 981 353 1791 
Q 353 2603 747 3093 
Q 1141 3584 1784 3584 
Q 2172 3584 2450 3431 
Q 2728 3278 2906 2969 
L 2906 3500 
L 3481 3500 
L 3481 434 
z
" transform="scale(0.015625)"/>
      </defs>
      <use xlink:href="#DejaVuSans-Oblique-3b8" transform="translate(0 0.234375)"/>
      <use xlink:href="#DejaVuSans-20" transform="translate(61.181641 0.234375)"/>
      <use xlink:href="#DejaVuSans-5b" transform="translate(92.96875 0.234375)"/>
      <use xlink:href="#DejaVuSans-64" transform="translate(131.982422 0.234375)"/>
      <use xlink:href="#DejaVuSans-65" transform="translate(195.458984 0.234375)"/>
      <use xlink:href="#DejaVuSans-67" transform="translate(256.982422 0.234375)"/>
      <use xlink:href="#DejaVuSans-5d" transform="translate(320.458984 0.234375)"/>
     </g>
    </g>
   </g>
   <g id="line2d_11">
    <path d="M 73.832727 206.58866 
L 74.106908 206.58866 
L 74.245203 216.445851 
L 74.659493 216.445851 
L 74.798009 183.162055 
L 75.213268 183.162055 
L 75.35148 187.399905 
L 75.491187 187.399905 
L 75.629427 183.162055 
L 76.599098 183.162055 
L 76.735551 173.35564 
L 76.874829 173.35564 
L 77.012986 163.583972 
L 77.428272 163.583972 
L 77.570901 126.194245 
L 77.706108 126.194245 
L 77.844113 122.403949 
L 78.25933 122.403949 
L 78.398386 116.53445 
L 78.813354 116.53445 
L 78.951358 153.098899 
L 79.369442 153.098899 
L 79.509453 149.333975 
L 79.643719 149.333975 
L 79.78596 159.812854 
L 80.225378 159.812854 
L 80.474375 173.35564 
L 80.751215 173.35564 
L 80.889731 202.387669 
L 81.083294 202.387669 
L 81.304921 212.238451 
L 82.141253 212.238451 
L 82.27419 202.387669 
L 83.520852 202.387669 
L 83.65876 198.637939 
L 84.367817 198.637939 
L 84.489014 208.482999 
L 84.627586 208.482999 
L 84.766573 235.475392 
L 86.565751 235.475392 
L 86.705195 225.589251 
L 86.842756 225.589251 
L 86.982657 188.827723 
L 87.674271 188.827723 
L 87.81204 178.301241 
L 89.057553 178.301241 
L 89.195889 192.571744 
L 89.335264 192.571744 
L 89.473075 208.880605 
L 89.611868 208.880605 
L 89.749526 219.457179 
L 90.167014 219.457179 
L 90.304617 229.314029 
L 90.443327 229.314029 
L 90.581248 239.205838 
L 91.55031 239.205838 
L 91.688909 243.38526 
L 92.658553 243.38526 
L 92.79646 233.487103 
L 93.767861 233.487103 
L 93.904717 196.766342 
L 95.703991 196.766342 
L 95.843311 206.58866 
L 95.98083 206.58866 
L 96.119804 196.766342 
L 96.534357 196.766342 
L 96.672499 182.03913 
L 97.088173 182.03913 
L 97.227285 143.398049 
L 97.920864 143.398049 
L 98.056723 133.731033 
L 98.475526 133.731033 
L 98.61119 129.977572 
L 99.580349 129.977572 
L 99.735604 143.398049 
L 99.870382 143.398049 
L 99.998418 182.03913 
L 100.134484 182.03913 
L 100.280532 192.571744 
L 100.965334 192.571744 
L 101.104113 188.827723 
L 101.520452 188.827723 
L 101.65703 219.457179 
L 101.795907 219.457179 
L 101.936597 215.738055 
L 102.902682 215.738055 
L 103.041323 219.457179 
L 103.179217 219.457179 
L 103.318038 215.738055 
L 104.853736 215.738055 
L 104.980568 188.827723 
L 105.408979 188.827723 
L 105.547579 215.738055 
L 105.672791 215.738055 
L 105.811196 219.457179 
L 105.948758 219.457179 
L 106.105743 215.738055 
L 106.253411 215.738055 
L 106.439138 178.301241 
L 106.641825 168.562039 
L 107.05635 168.562039 
L 107.194797 158.856766 
L 107.616258 158.856766 
L 107.748807 148.442714 
L 108.717814 148.442714 
L 108.856829 119.610763 
L 109.271395 119.610763 
L 109.410175 158.856766 
L 109.547833 158.856766 
L 109.686668 172.294249 
L 110.10248 172.294249 
L 110.330503 182.03913 
L 110.662513 182.03913 
L 110.794606 196.766342 
L 110.932084 196.766342 
L 111.076319 192.571744 
L 112.871066 192.571744 
L 113.010081 196.766342 
L 113.148251 196.766342 
L 113.286394 219.457179 
L 115.364598 219.457179 
L 115.52355 202.387669 
L 115.669362 202.387669 
L 115.782751 229.314029 
L 116.469712 229.314029 
L 116.610029 192.571744 
L 117.024457 192.571744 
L 117.162115 182.03913 
L 117.577415 182.03913 
L 117.717178 172.294249 
L 118.131869 172.294249 
L 118.269776 158.856766 
L 118.408334 158.856766 
L 118.548124 168.562039 
L 119.517587 168.562039 
L 119.655384 178.301241 
L 119.794537 178.301241 
L 119.931946 208.880605 
L 120.069688 208.880605 
L 120.208578 199.095006 
L 120.623754 199.095006 
L 120.76263 208.880605 
L 122.008545 208.880605 
L 122.147061 182.03913 
L 122.285287 182.03913 
L 122.423499 186.226861 
L 125.054302 186.226861 
L 125.192112 157.316877 
L 126.716832 157.316877 
L 126.85467 147.609601 
L 126.99255 147.609601 
L 127.131786 137.936176 
L 127.271327 137.936176 
L 127.41055 111.141795 
L 127.546297 111.141795 
L 127.685672 104.882034 
L 127.822749 104.882034 
L 127.961473 78.129629 
L 128.099339 78.129629 
L 128.23834 64.503896 
L 128.376552 64.503896 
L 128.515345 78.129629 
L 128.658707 78.129629 
L 128.792129 88.428216 
L 129.208952 88.428216 
L 129.34589 92.685259 
L 129.483936 92.685259 
L 129.623228 102.289558 
L 130.041685 102.289558 
L 130.177723 138.777494 
L 130.592248 138.777494 
L 130.730959 149.238989 
L 131.145913 149.238989 
L 131.284194 153.977551 
L 134.191462 153.977551 
L 134.414819 143.508264 
L 134.607565 148.051928 
L 135.027601 148.051928 
L 135.166117 158.528696 
L 135.575298 158.528696 
L 135.730816 153.977551 
L 136.683984 153.977551 
L 136.822251 148.051928 
L 137.239074 148.051928 
L 137.376497 133.822035 
L 138.068443 133.822035 
L 138.207762 97.433285 
L 139.178693 97.433285 
L 139.314579 124.169605 
L 139.452971 124.169605 
L 139.591017 133.822035 
L 140.006345 133.822035 
L 140.147021 143.508264 
L 140.30078 143.508264 
L 140.421991 148.051928 
L 140.559912 148.051928 
L 140.698567 153.977551 
L 140.836585 153.977551 
L 140.975766 195.136534 
L 141.133056 195.136534 
L 141.255208 153.977551 
L 141.669553 153.977551 
L 141.807544 180.810771 
L 141.945811 180.810771 
L 142.083511 153.977551 
L 143.60794 153.977551 
L 143.747481 143.508264 
L 144.160192 143.508264 
L 144.300938 174.810896 
L 144.437779 174.810896 
L 144.575479 170.297428 
L 144.714272 170.297428 
L 144.852512 143.508264 
L 146.098994 143.508264 
L 146.236735 148.051928 
L 146.652063 148.051928 
L 146.791521 143.508264 
L 146.928861 143.508264 
L 147.068042 133.822035 
L 147.206268 133.822035 
L 147.34441 124.169605 
L 147.760098 124.169605 
L 147.899293 113.812315 
L 148.342504 113.812315 
L 148.590962 104.229543 
L 148.732815 77.577766 
L 148.86776 77.577766 
L 149.005971 104.229543 
L 149.427654 104.229543 
L 149.561325 113.812315 
L 149.697945 113.812315 
L 149.836863 124.169605 
L 149.976252 124.169605 
L 150.138332 128.699429 
L 150.252966 128.699429 
L 150.390929 138.358771 
L 150.528739 138.358771 
L 150.667533 174.810896 
L 151.359326 174.810896 
L 151.508309 185.33165 
L 151.637037 185.33165 
L 151.774543 179.46815 
L 151.915136 179.46815 
L 152.051881 189.996546 
L 152.193014 189.996546 
L 152.334922 185.33165 
L 152.746692 185.33165 
L 152.882952 189.996546 
L 153.02511 189.996546 
L 153.166215 185.33165 
L 153.851391 185.33165 
L 153.992095 195.136534 
L 154.682836 195.136534 
L 154.822252 185.33165 
L 155.240571 185.33165 
L 155.375003 214.163816 
L 155.512038 214.163816 
L 155.65097 224.012618 
L 156.066506 224.012618 
L 156.205105 195.136534 
L 156.343539 195.136534 
L 156.481986 185.33165 
L 156.619824 185.33165 
L 156.758631 180.810771 
L 157.174209 180.810771 
L 157.313182 170.297428 
L 157.729313 170.297428 
L 157.866113 160.570394 
L 158.005058 160.570394 
L 158.142495 124.169605 
L 158.28187 124.169605 
L 158.419749 119.453254 
L 158.558044 119.453254 
L 158.698624 109.103697 
L 159.389766 109.103697 
L 159.530733 119.453254 
L 159.666606 119.453254 
L 159.805247 150.877261 
L 159.943957 150.877261 
L 160.081934 155.878263 
L 160.219218 155.878263 
L 160.357499 160.570394 
L 160.497871 160.570394 
L 160.635183 170.297428 
L 161.882011 170.297428 
L 162.019614 180.810771 
L 163.542396 180.810771 
L 163.680663 176.103771 
L 163.819484 176.103771 
L 163.957156 149.238989 
L 164.928114 149.238989 
L 165.065025 158.988705 
L 166.034488 158.988705 
L 166.172451 163.734522 
L 166.311563 163.734522 
L 166.450771 158.988705 
L 167.144891 158.988705 
L 167.280209 122.344726 
L 167.696312 122.344726 
L 167.834524 111.927535 
L 167.972542 111.927535 
L 168.111474 102.289558 
L 168.526844 102.289558 
L 168.66536 59.538051 
L 168.803517 59.538051 
L 168.94249 92.685259 
L 169.080176 92.685259 
L 169.218346 53.568 
L 169.357347 53.568 
L 169.495365 63.826054 
L 169.63499 63.826054 
L 169.773658 92.685259 
L 169.910597 92.685259 
L 170.049515 102.289558 
L 170.741626 102.289558 
L 170.881029 116.690117 
L 171.295692 116.690117 
L 171.434278 153.977551 
L 172.404364 153.977551 
L 172.54241 158.528696 
L 172.974587 158.528696 
L 173.11273 153.977551 
L 173.235422 153.977551 
L 173.372665 158.528696 
L 176.002388 158.528696 
L 176.141112 199.808545 
L 176.279656 199.808545 
L 176.419543 172.995894 
L 176.559596 172.995894 
L 176.697185 163.224775 
L 177.022633 163.224775 
L 177.250504 172.995894 
L 177.664059 172.995894 
L 177.802617 163.224775 
L 178.217585 163.224775 
L 178.36434 148.051928 
L 178.51911 148.051928 
L 178.633232 121.264286 
L 178.772081 121.264286 
L 178.91003 111.612027 
L 179.879244 111.612027 
L 180.018272 138.358771 
L 180.155986 138.358771 
L 180.293713 148.051928 
L 180.711367 148.051928 
L 180.848139 158.528696 
L 181.540971 158.528696 
L 181.678684 172.995894 
L 181.817215 172.995894 
L 181.955856 199.808545 
L 182.64992 199.808545 
L 182.787827 172.995894 
L 183.202089 172.995894 
L 183.341104 168.292632 
L 185.423704 168.292632 
L 185.578343 158.528696 
L 187.07835 158.528696 
L 187.21634 148.051928 
L 188.46555 148.051928 
L 188.601284 138.358771 
L 188.741129 138.358771 
L 188.87894 128.699429 
L 189.017636 128.699429 
L 189.155668 101.993482 
L 190.124093 101.993482 
L 190.262665 138.358771 
L 190.677536 138.358771 
L 190.817935 148.051928 
L 190.955289 148.051928 
L 191.093044 158.528696 
L 191.233028 158.528696 
L 191.381333 185.33165 
L 191.508704 185.33165 
L 191.647304 195.136534 
L 192.615908 195.136534 
L 192.755588 204.976248 
L 192.894921 204.976248 
L 193.032386 195.136534 
L 193.175651 195.136534 
L 193.342687 204.976248 
L 193.724539 204.976248 
L 193.863637 209.655392 
L 194.833211 209.655392 
L 194.990321 204.976248 
L 197.606466 204.976248 
L 197.742246 195.136534 
L 198.154643 195.136534 
L 198.293638 185.33165 
L 198.432193 185.33165 
L 198.581043 143.508264 
L 198.991748 143.508264 
L 199.13064 133.822035 
L 199.541212 133.822035 
L 199.678979 138.358771 
L 199.817023 138.358771 
L 199.955103 128.699429 
L 200.094031 128.699429 
L 200.232027 138.358771 
L 200.64762 138.358771 
L 200.78555 174.810896 
L 201.200379 174.810896 
L 201.338948 185.33165 
L 201.487335 185.33165 
L 201.620949 214.163816 
L 202.30944 214.163816 
L 202.44742 209.675191 
L 202.866823 209.675191 
L 203.003705 180.810771 
L 203.421208 180.810771 
L 203.556968 209.675191 
L 203.69401 209.675191 
L 203.831955 180.810771 
L 203.96948 180.810771 
L 204.107964 190.608756 
L 204.523029 190.608756 
L 204.661426 219.517165 
L 205.077281 219.517165 
L 205.215294 190.608756 
L 206.462114 190.608756 
L 206.599926 185.894571 
L 207.846194 185.894571 
L 207.985635 176.103771 
L 208.676909 176.103771 
L 208.815905 138.777494 
L 209.230487 138.777494 
L 209.368496 129.098484 
L 209.783836 129.098484 
L 209.922251 133.822035 
L 210.060925 133.822035 
L 210.200905 143.508264 
L 210.614576 143.508264 
L 210.754285 153.977551 
L 211.168989 153.977551 
L 211.30721 190.608756 
L 211.445634 190.608756 
L 211.583502 195.136534 
L 211.72195 195.136534 
L 211.860259 204.976248 
L 211.999074 204.976248 
L 212.138355 195.136534 
L 213.106785 195.136534 
L 213.245176 199.808545 
L 215.322195 199.808545 
L 215.460425 205.000687 
L 215.599179 205.000687 
L 215.737766 199.808545 
L 216.429564 199.808545 
L 216.567885 178.222707 
L 216.706635 178.222707 
L 216.844978 172.995894 
L 217.537234 172.995894 
L 217.675772 163.224775 
L 217.813953 163.224775 
L 217.952426 136.424476 
L 218.367524 136.424476 
L 218.511444 125.984076 
L 218.922678 125.984076 
L 219.062952 111.612027 
L 219.200063 111.612027 
L 219.338756 82.776247 
L 220.029914 82.776247 
L 220.168297 111.612027 
L 220.30631 111.612027 
L 220.444568 116.324603 
L 220.582637 116.324603 
L 220.721013 125.984076 
L 221.137129 125.984076 
L 221.288022 136.424476 
L 221.421658 136.424476 
L 221.558025 163.224775 
L 221.693473 163.224775 
L 221.831099 172.995894 
L 221.969011 172.995894 
L 222.106775 168.292632 
L 222.660947 168.292632 
L 222.799076 172.995894 
L 222.937551 172.995894 
L 223.077148 163.224775 
L 223.846818 163.224775 
L 224.046085 158.528696 
L 224.182801 168.292632 
L 225.7055 168.292632 
L 225.848765 158.528696 
L 225.982062 158.528696 
L 226.142703 153.977551 
L 226.814393 153.977551 
L 226.95518 180.810771 
L 227.366577 180.810771 
L 227.505716 170.297428 
L 227.920753 170.297428 
L 228.060668 165.598147 
L 228.220298 165.598147 
L 228.346465 155.878263 
L 228.476384 155.878263 
L 228.612754 146.192261 
L 228.751506 146.192261 
L 228.888804 115.224654 
L 229.056187 115.224654 
L 229.444601 100.805876 
L 229.585208 100.805876 
L 229.720845 95.31285 
L 229.858295 95.31285 
L 229.996701 91.242899 
L 230.689256 91.242899 
L 230.8278 100.805876 
L 230.967438 100.805876 
L 231.105027 127.556333 
L 231.243654 127.556333 
L 231.3817 137.936176 
L 231.797305 137.936176 
L 231.935461 147.609601 
L 232.351025 147.609601 
L 232.488406 151.671419 
L 234.289065 151.671419 
L 234.427138 141.991814 
L 234.574488 141.991814 
L 234.704421 151.671419 
L 235.950751 151.671419 
L 236.089406 155.878263 
L 236.228088 155.878263 
L 236.370398 129.098484 
L 236.782099 129.098484 
L 236.920463 138.777494 
L 238.165658 138.777494 
L 238.305531 129.098484 
L 238.720222 129.098484 
L 238.857784 119.453254 
L 238.995954 119.453254 
L 239.136201 92.685259 
L 240.381839 92.685259 
L 240.519262 97.433285 
L 240.65847 97.433285 
L 240.795838 107.044852 
L 240.934437 107.044852 
L 241.074795 133.822035 
L 241.211609 133.822035 
L 241.349932 143.508264 
L 241.765703 143.508264 
L 241.904122 158.528696 
L 242.042888 158.528696 
L 242.183952 185.33165 
L 243.426488 185.33165 
L 243.565268 180.810771 
L 243.705349 180.810771 
L 243.843242 174.810896 
L 243.981814 174.810896 
L 244.119182 185.33165 
L 244.257394 185.33165 
L 244.396215 174.810896 
L 244.810975 174.810896 
L 244.965967 170.297428 
L 245.088243 170.297428 
L 245.226345 193.818295 
L 245.365152 193.818295 
L 245.502602 165.077 
L 245.642005 165.077 
L 245.779538 193.818295 
L 245.918678 193.818295 
L 246.056585 165.077 
L 246.242658 165.077 
L 246.472758 160.570394 
L 246.750538 160.570394 
L 246.887809 189.343799 
L 247.302901 189.343799 
L 247.449102 199.114597 
L 247.857286 199.114597 
L 248.004594 189.343799 
L 248.13472 189.343799 
L 248.272531 150.877261 
L 248.411103 150.877261 
L 248.549135 140.476248 
L 248.687706 140.476248 
L 248.828258 130.85298 
L 248.964684 130.85298 
L 249.102619 126.182737 
L 249.260754 126.182737 
L 249.381064 116.599931 
L 250.072027 116.599931 
L 250.209699 106.317134 
L 250.348742 106.317134 
L 250.493087 102.143092 
L 250.626259 102.143092 
L 250.765039 112.419069 
L 250.902766 112.419069 
L 251.041089 121.995526 
L 251.45704 121.995526 
L 251.622623 164.515093 
L 252.01267 164.515093 
L 252.149331 174.955418 
L 254.505967 174.955418 
L 254.641272 170.78497 
L 255.610223 170.78497 
L 255.747659 160.351446 
L 256.052894 160.351446 
L 256.237389 156.331383 
L 256.719047 156.331383 
L 256.85676 183.020285 
L 256.994017 183.020285 
L 257.132229 156.331383 
L 257.270579 156.331383 
L 257.42391 183.020285 
L 257.824701 183.020285 
L 257.965169 156.331383 
L 258.378697 156.331383 
L 258.517851 152.163172 
L 258.656492 152.163172 
L 258.795327 142.522191 
L 258.932265 142.522191 
L 259.072055 137.070238 
L 259.486539 137.070238 
L 259.625498 126.754094 
L 260.040799 126.754094 
L 260.203972 98.112959 
L 260.323522 98.112959 
L 260.455725 122.605256 
L 260.594781 122.605256 
L 260.732093 137.070238 
L 261.147505 137.070238 
L 261.286298 146.68409 
L 261.424607 146.68409 
L 261.592972 173.332639 
L 261.715055 173.332639 
L 261.84053 183.020285 
L 261.978908 183.020285 
L 262.118145 193.490805 
L 262.261133 193.490805 
L 262.410974 197.490788 
L 262.809121 197.490788 
L 262.952649 207.254687 
L 263.91771 207.254687 
L 264.054814 184.68515 
L 264.193649 184.68515 
L 264.331612 194.448871 
L 265.301698 194.448871 
L 265.440962 221.208104 
L 265.865386 221.208104 
L 265.994336 194.448871 
L 266.685825 194.448871 
L 266.825518 199.114597 
L 267.239655 199.114597 
L 267.378324 194.448871 
L 268.62417 194.448871 
L 268.780186 184.68515 
L 268.902324 184.68515 
L 269.03929 151.671419 
L 269.177627 151.671419 
L 269.316808 141.991814 
L 270.008379 141.991814 
L 270.146813 131.605334 
L 270.2849 131.605334 
L 270.423292 141.991814 
L 271.119267 141.991814 
L 271.255402 146.192261 
L 271.392838 146.192261 
L 271.530829 184.68515 
L 271.94678 184.68515 
L 272.088425 194.448871 
L 272.500389 194.448871 
L 272.641661 205.001825 
L 272.777519 205.001825 
L 272.915454 194.448871 
L 273.33182 194.448871 
L 273.469409 209.675191 
L 273.884917 209.675191 
L 274.023835 205.001825 
L 274.438969 205.001825 
L 274.577264 219.517165 
L 274.71567 219.517165 
L 274.854809 209.675191 
L 274.992675 209.675191 
L 275.133172 180.810771 
L 275.269653 180.810771 
L 275.407671 190.608756 
L 276.377646 190.608756 
L 276.516163 180.810771 
L 277.484532 180.810771 
L 277.622883 190.608756 
L 277.761344 190.608756 
L 277.899556 180.810771 
L 278.067534 180.810771 
L 278.315133 185.33165 
L 278.486849 180.810771 
L 278.730198 170.297428 
L 278.870445 170.297428 
L 279.007965 143.508264 
L 279.14889 143.508264 
L 279.284292 133.822035 
L 279.422628 133.822035 
L 279.562017 129.098484 
L 279.70009 129.098484 
L 279.837818 92.685259 
L 279.97657 92.685259 
L 280.114934 97.433285 
L 280.255998 97.433285 
L 280.391773 102.289558 
L 280.530636 102.289558 
L 280.670024 92.685259 
L 280.80789 92.685259 
L 280.945825 102.289558 
L 281.084702 102.289558 
L 281.222166 129.098484 
L 281.361361 129.098484 
L 281.499254 138.777494 
L 281.931016 138.777494 
L 282.068646 149.238989 
L 282.746014 149.238989 
L 282.885222 138.777494 
L 283.022147 138.777494 
L 283.160635 149.238989 
L 283.578068 149.238989 
L 283.717637 138.777494 
L 284.129849 138.777494 
L 284.269737 176.103771 
L 288.2845 176.103771 
L 288.421881 171.883589 
L 288.561076 171.883589 
L 288.702417 161.384889 
L 288.838428 161.384889 
L 288.976418 134.535962 
L 289.114131 134.535962 
L 289.255708 124.863425 
L 289.668904 124.863425 
L 289.806672 115.224654 
L 290.221917 115.224654 
L 290.3606 104.882034 
L 290.776149 104.882034 
L 290.914804 115.224654 
L 291.052629 115.224654 
L 291.191588 124.863425 
L 291.329662 124.863425 
L 291.467583 151.671419 
L 291.606182 151.671419 
L 291.744657 161.384889 
L 292.43868 161.384889 
L 292.575812 171.883589 
L 292.990337 171.883589 
L 293.130072 144.990465 
L 293.267633 144.990465 
L 293.405332 134.535962 
L 295.482485 134.535962 
L 295.621472 138.777494 
L 296.037271 138.777494 
L 296.175787 129.098484 
L 296.313764 129.098484 
L 296.451173 138.777494 
L 297.420719 138.777494 
L 297.559498 129.098484 
L 297.697766 129.098484 
L 297.835922 138.777494 
L 298.528408 138.777494 
L 298.666467 134.535962 
L 298.80551 134.535962 
L 298.944539 129.098484 
L 299.082557 129.098484 
L 299.220409 102.289558 
L 299.359396 102.289558 
L 299.499588 88.428216 
L 299.636263 88.428216 
L 299.774267 92.685259 
L 299.91295 92.685259 
L 300.051563 78.129629 
L 300.743813 78.129629 
L 300.882053 104.882034 
L 301.020514 104.882034 
L 301.159003 119.453254 
L 301.575549 119.453254 
L 301.715464 129.098484 
L 302.127705 129.098484 
L 302.265847 143.508264 
L 302.407936 143.508264 
L 302.544085 180.810771 
L 302.959524 180.810771 
L 303.097389 185.894571 
L 303.235269 185.894571 
L 303.375862 190.608756 
L 303.512967 190.608756 
L 303.65212 180.810771 
L 303.790373 180.810771 
L 303.928073 176.103771 
L 304.066368 176.103771 
L 304.204926 190.608756 
L 304.343595 190.608756 
L 304.483468 200.441554 
L 304.619894 200.441554 
L 304.760114 195.136534 
L 304.897052 195.136534 
L 305.035305 224.012618 
L 305.175109 224.012618 
L 305.312684 233.896359 
L 305.72858 233.896359 
L 305.867789 204.976248 
L 306.558378 204.976248 
L 306.697434 209.655392 
L 307.113164 209.655392 
L 307.250822 199.808545 
L 307.666219 199.808545 
L 307.804638 209.655392 
L 309.050789 209.655392 
L 309.191437 172.995894 
L 309.605574 172.995894 
L 309.742513 163.224775 
L 310.158422 163.224775 
L 310.296219 148.051928 
L 311.266083 148.051928 
L 311.404046 152.740291 
L 311.542632 152.740291 
L 311.680733 158.528696 
L 311.820108 158.528696 
L 311.959427 189.996546 
L 312.100007 189.996546 
L 312.23653 199.808545 
L 312.37416 199.808545 
L 312.511112 195.136534 
L 313.203542 195.136534 
L 313.343097 168.292632 
L 313.4807 168.292632 
L 313.620241 185.33165 
L 313.767701 185.33165 
L 313.896942 153.977551 
L 314.035347 153.977551 
L 314.173988 180.810771 
L 314.589053 180.810771 
L 314.727362 158.528696 
L 314.865505 158.528696 
L 315.003911 180.810771 
L 315.419128 180.810771 
L 315.558586 153.977551 
L 316.528603 153.977551 
L 316.666178 143.508264 
L 316.803504 143.508264 
L 316.94148 138.777494 
L 317.357584 138.777494 
L 317.495463 165.598147 
L 318.466089 165.598147 
L 318.602862 170.297428 
L 319.018771 170.297428 
L 319.1569 165.598147 
L 319.296219 165.598147 
L 319.439374 155.878263 
L 319.572394 155.878263 
L 319.712932 146.192261 
L 319.849524 146.192261 
L 319.988303 119.453254 
L 320.127858 119.453254 
L 320.264478 109.103697 
L 321.234398 109.103697 
L 321.372112 146.192261 
L 321.511307 146.192261 
L 321.662726 155.878263 
L 322.06439 155.878263 
L 322.203751 165.598147 
L 322.343582 165.598147 
L 322.479981 205.001825 
L 322.89463 205.001825 
L 323.034116 214.836686 
L 323.451064 214.836686 
L 323.587143 251.591043 
L 324.283381 251.591043 
L 324.417938 241.680432 
L 324.557105 241.680432 
L 324.696009 251.591043 
L 326.218542 251.591043 
L 326.358996 241.680432 
L 326.771445 241.680432 
L 326.91327 237.51188 
L 327.049751 237.51188 
L 327.22288 247.416156 
L 327.399262 274.298 
L 327.880726 274.298 
L 328.024157 247.416156 
L 328.157953 247.416156 
L 328.304693 243.38526 
L 328.433324 243.38526 
L 328.571121 260.354823 
L 328.709651 260.354823 
L 328.849095 233.487103 
L 329.272689 233.487103 
L 329.402317 264.352982 
L 329.542065 264.352982 
L 329.69487 227.642593 
L 329.818351 227.642593 
L 329.957601 223.623921 
L 330.374147 223.623921 
L 330.510684 186.226861 
L 331.488745 186.226861 
L 331.617279 196.766342 
L 332.032607 196.766342 
L 332.171415 206.58866 
L 332.30989 206.58866 
L 332.455342 216.445851 
L 332.586936 216.445851 
L 332.724968 243.38526 
L 332.915859 243.38526 
L 333.422812 264.05341 
L 333.568458 227.099611 
L 334.990561 227.099611 
L 335.217213 222.885292 
L 335.356131 222.885292 
L 335.493928 212.238451 
L 335.910073 212.238451 
L 336.048603 202.387669 
L 336.740812 202.387669 
L 336.878373 229.314029 
L 337.294504 229.314029 
L 337.431927 202.387669 
L 338.40222 202.387669 
L 338.540322 229.314029 
L 338.67888 229.314029 
L 338.817673 202.387669 
L 338.955857 202.387669 
L 339.103774 188.827723 
L 339.232821 188.827723 
L 339.372293 178.301241 
L 339.551624 178.301241 
L 339.786264 168.562039 
L 340.086542 168.562039 
L 340.208113 126.370254 
L 340.893732 126.370254 
L 341.033882 116.009357 
L 341.210942 116.009357 
L 341.58648 155.27535 
L 341.728942 155.27535 
L 341.863402 164.975176 
L 342.556926 164.975176 
L 342.693075 178.301241 
L 342.831786 178.301241 
L 342.970219 205.167554 
L 343.108943 205.167554 
L 343.248277 215.738055 
L 343.664186 215.738055 
L 343.801346 225.589251 
L 343.940028 225.589251 
L 344.086118 198.637939 
L 344.253902 198.637939 
L 344.496462 202.387669 
L 346.708794 202.387669 
L 346.846937 198.637939 
L 347.262625 198.637939 
L 347.40038 202.387669 
L 348.370452 202.387669 
L 348.510132 206.58866 
L 348.923231 206.58866 
L 349.063408 196.766342 
L 349.20108 196.766342 
L 349.34076 167.808889 
L 349.477338 167.808889 
L 349.615287 157.316877 
L 349.754302 157.316877 
L 349.8934 147.609601 
L 350.032082 147.609601 
L 350.168965 120.774328 
L 350.584529 120.774328 
L 350.722727 111.141795 
L 351.140159 111.141795 
L 351.277014 120.774328 
L 351.69237 120.774328 
L 351.831869 124.863425 
L 351.970261 124.863425 
L 352.107906 134.535962 
L 352.799519 134.535962 
L 352.939877 149.238989 
L 353.077203 149.238989 
L 353.216356 158.988705 
L 354.186013 158.988705 
L 354.325983 163.734522 
L 354.461468 163.734522 
L 354.601701 149.238989 
L 354.738819 149.238989 
L 354.87645 153.977551 
L 356.122683 153.977551 
L 356.26095 158.528696 
L 356.399702 158.528696 
L 356.617992 180.810771 
L 357.231009 180.810771 
L 357.368611 153.977551 
L 357.535966 153.977551 
L 357.784438 176.103771 
L 358.33867 176.103771 
L 358.476716 180.810771 
L 358.891435 180.810771 
L 359.030436 176.103771 
L 359.16898 176.103771 
L 359.307593 165.598147 
L 359.999193 165.598147 
L 360.140035 155.878263 
L 360.276447 155.878263 
L 360.414631 129.098484 
L 360.553591 129.098484 
L 360.691443 119.453254 
L 361.384565 119.453254 
L 361.521601 135.798909 
L 361.661086 135.798909 
L 361.799035 146.192261 
L 361.937233 146.192261 
L 362.07766 155.878263 
L 362.21536 155.878263 
L 362.354306 165.598147 
L 362.770561 165.598147 
L 362.907167 209.675191 
L 363.044894 209.675191 
L 363.182926 219.517165 
L 363.599182 219.517165 
L 363.736868 214.836686 
L 364.984444 214.836686 
L 365.135781 219.517165 
L 367.198382 219.517165 
L 367.35138 209.675191 
L 368.859625 209.675191 
L 368.997961 219.517165 
L 369.13645 219.517165 
L 369.275368 205.001825 
L 369.412929 205.001825 
L 369.551999 176.103771 
L 369.967535 176.103771 
L 370.106107 165.598147 
L 370.24407 165.598147 
L 370.382199 155.878263 
L 370.797983 155.878263 
L 370.938009 146.192261 
L 371.074518 146.192261 
L 371.220691 155.878263 
L 371.351953 155.878263 
L 371.489708 146.192261 
L 371.905423 146.192261 
L 372.043247 155.878263 
L 372.182899 155.878263 
L 372.320613 165.598147 
L 372.4596 165.598147 
L 372.59759 176.103771 
L 372.737464 176.103771 
L 372.874166 180.810771 
L 373.289827 180.810771 
L 373.429658 190.608756 
L 373.843657 190.608756 
L 373.98198 180.810771 
L 374.1213 180.810771 
L 374.258847 190.608756 
L 374.398859 190.608756 
L 374.537389 180.810771 
L 374.674632 180.810771 
L 374.813328 185.33165 
L 375.506617 185.33165 
L 375.642849 195.136534 
L 376.336138 195.136534 
L 376.47482 214.163816 
L 376.612506 214.163816 
L 376.753376 224.012618 
L 377.17906 224.012618 
L 377.304424 214.163816 
L 377.443522 214.163816 
L 377.581485 224.012618 
L 378.5511 224.012618 
L 378.689381 195.136534 
L 379.10464 195.136534 
L 379.243378 185.33165 
L 379.658997 185.33165 
L 379.79696 180.810771 
L 379.938896 180.810771 
L 380.074352 170.297428 
L 380.491106 170.297428 
L 380.627948 133.822035 
L 380.766672 133.822035 
L 380.915752 124.169605 
L 381.05485 124.169605 
L 381.181889 150.877261 
L 381.320669 150.877261 
L 381.467146 160.570394 
L 381.874513 160.570394 
L 382.016228 170.297428 
L 382.42797 170.297428 
L 382.567262 180.810771 
L 382.982008 180.810771 
L 383.119999 190.608756 
L 383.260107 190.608756 
L 383.396395 185.894571 
L 383.535673 185.894571 
L 383.673483 200.441554 
L 383.826592 200.441554 
L 384.033059 190.608756 
L 385.693194 190.608756 
L 385.888709 200.441554 
L 386.027668 200.441554 
L 386.165783 190.608756 
L 386.305131 190.608756 
L 386.442747 200.441554 
L 388.796614 200.441554 
L 388.934563 211.068979 
L 389.350625 211.068979 
L 389.48831 184.109235 
L 389.911115 184.109235 
L 390.043027 173.526202 
L 390.736343 173.526202 
L 390.873434 136.83097 
L 391.288887 136.83097 
L 391.426766 146.58137 
L 391.56693 146.58137 
L 391.705641 151.177173 
L 392.118449 151.177173 
L 392.258225 161.723248 
L 392.396492 161.723248 
L 392.534981 198.552031 
L 392.673359 198.552031 
L 392.811267 208.457077 
L 392.950115 208.457077 
L 393.094211 219.163232 
L 393.226567 219.163232 
L 393.36471 229.141292 
L 393.503988 229.141292 
L 393.642352 239.15478 
L 395.165826 239.15478 
L 395.303581 277.163136 
L 395.442208 277.163136 
L 395.583272 266.294581 
L 396.272421 266.294581 
L 396.411145 277.163136 
L 396.549495 277.163136 
L 396.687818 266.294581 
L 396.826058 266.294581 
L 396.965197 295.488 
L 397.102869 295.488 
L 397.244625 290.94321 
L 397.933304 290.94321 
L 398.071806 280.850301 
L 398.487273 280.850301 
L 398.487273 280.850301 
" clip-path="url(#p712003c750)" style="fill: none; stroke: #1f77b4; stroke-width: 1.5; stroke-linecap: square"/>
   </g>
   <g id="patch_3">
    <path d="M 57.6 307.584 
L 57.6 41.472 
" style="fill: none; stroke: #000000; stroke-width: 0.8; stroke-linejoin: miter; stroke-linecap: square"/>
   </g>
   <g id="patch_4">
    <path d="M 414.72 307.584 
L 414.72 41.472 
" style="fill: none; stroke: #000000; stroke-width: 0.8; stroke-linejoin: miter; stroke-linecap: square"/>
   </g>
   <g id="patch_5">
    <path d="M 57.6 307.584 
L 414.72 307.584 
" style="fill: none; stroke: #000000; stroke-width: 0.8; stroke-linejoin: miter; stroke-linecap: square"/>
   </g>
   <g id="patch_6">
    <path d="M 57.6 41.472 
L 414.72 41.472 
" style="fill: none; stroke: #000000; stroke-width: 0.8; stroke-linejoin: miter; stroke-linecap: square"/>
   </g>
   <g id="text_13">
    <!-- Oskar-Tyholt_restart-vinkel -->
    <g transform="translate(157.152187 35.472) scale(0.12 -0.12)">
     <defs>
      <path id="DejaVuSans-4f" d="M 2522 4238 
Q 1834 4238 1429 3725 
Q 1025 3213 1025 2328 
Q 1025 1447 1429 934 
Q 1834 422 2522 422 
Q 3209 422 3611 934 
Q 4013 1447 4013 2328 
Q 4013 3213 3611 3725 
Q 3209 4238 2522 4238 
z
M 2522 4750 
Q 3503 4750 4090 4092 
Q 4678 3434 4678 2328 
Q 4678 1225 4090 567 
Q 3503 -91 2522 -91 
Q 1538 -91 948 565 
Q 359 1222 359 2328 
Q 359 3434 948 4092 
Q 1538 4750 2522 4750 
z
" transform="scale(0.015625)"/>
      <path id="DejaVuSans-6b" d="M 581 4863 
L 1159 4863 
L 1159 1991 
L 2875 3500 
L 3609 3500 
L 1753 1863 
L 3688 0 
L 2938 0 
L 1159 1709 
L 1159 0 
L 581 0 
L 581 4863 
z
" transform="scale(0.015625)"/>
      <path id="DejaVuSans-61" d="M 2194 1759 
Q 1497 1759 1228 1600 
Q 959 1441 959 1056 
Q 959 750 1161 570 
Q 1363 391 1709 391 
Q 2188 391 2477 730 
Q 2766 1069 2766 1631 
L 2766 1759 
L 2194 1759 
z
M 3341 1997 
L 3341 0 
L 2766 0 
L 2766 531 
Q 2569 213 2275 61 
Q 1981 -91 1556 -91 
Q 1019 -91 701 211 
Q 384 513 384 1019 
Q 384 1609 779 1909 
Q 1175 2209 1959 2209 
L 2766 2209 
L 2766 2266 
Q 2766 2663 2505 2880 
Q 2244 3097 1772 3097 
Q 1472 3097 1187 3025 
Q 903 2953 641 2809 
L 641 3341 
Q 956 3463 1253 3523 
Q 1550 3584 1831 3584 
Q 2591 3584 2966 3190 
Q 3341 2797 3341 1997 
z
" transform="scale(0.015625)"/>
      <path id="DejaVuSans-72" d="M 2631 2963 
Q 2534 3019 2420 3045 
Q 2306 3072 2169 3072 
Q 1681 3072 1420 2755 
Q 1159 2438 1159 1844 
L 1159 0 
L 581 0 
L 581 3500 
L 1159 3500 
L 1159 2956 
Q 1341 3275 1631 3429 
Q 1922 3584 2338 3584 
Q 2397 3584 2469 3576 
Q 2541 3569 2628 3553 
L 2631 2963 
z
" transform="scale(0.015625)"/>
      <path id="DejaVuSans-2d" d="M 313 2009 
L 1997 2009 
L 1997 1497 
L 313 1497 
L 313 2009 
z
" transform="scale(0.015625)"/>
      <path id="DejaVuSans-54" d="M -19 4666 
L 3928 4666 
L 3928 4134 
L 2272 4134 
L 2272 0 
L 1638 0 
L 1638 4134 
L -19 4134 
L -19 4666 
z
" transform="scale(0.015625)"/>
      <path id="DejaVuSans-79" d="M 2059 -325 
Q 1816 -950 1584 -1140 
Q 1353 -1331 966 -1331 
L 506 -1331 
L 506 -850 
L 844 -850 
Q 1081 -850 1212 -737 
Q 1344 -625 1503 -206 
L 1606 56 
L 191 3500 
L 800 3500 
L 1894 763 
L 2988 3500 
L 3597 3500 
L 2059 -325 
z
" transform="scale(0.015625)"/>
      <path id="DejaVuSans-68" d="M 3513 2113 
L 3513 0 
L 2938 0 
L 2938 2094 
Q 2938 2591 2744 2837 
Q 2550 3084 2163 3084 
Q 1697 3084 1428 2787 
Q 1159 2491 1159 1978 
L 1159 0 
L 581 0 
L 581 4863 
L 1159 4863 
L 1159 2956 
Q 1366 3272 1645 3428 
Q 1925 3584 2291 3584 
Q 2894 3584 3203 3211 
Q 3513 2838 3513 2113 
z
" transform="scale(0.015625)"/>
      <path id="DejaVuSans-6f" d="M 1959 3097 
Q 1497 3097 1228 2736 
Q 959 2375 959 1747 
Q 959 1119 1226 758 
Q 1494 397 1959 397 
Q 2419 397 2687 759 
Q 2956 1122 2956 1747 
Q 2956 2369 2687 2733 
Q 2419 3097 1959 3097 
z
M 1959 3584 
Q 2709 3584 3137 3096 
Q 3566 2609 3566 1747 
Q 3566 888 3137 398 
Q 2709 -91 1959 -91 
Q 1206 -91 779 398 
Q 353 888 353 1747 
Q 353 2609 779 3096 
Q 1206 3584 1959 3584 
z
" transform="scale(0.015625)"/>
      <path id="DejaVuSans-6c" d="M 603 4863 
L 1178 4863 
L 1178 0 
L 603 0 
L 603 4863 
z
" transform="scale(0.015625)"/>
      <path id="DejaVuSans-5f" d="M 3263 -1063 
L 3263 -1509 
L -63 -1509 
L -63 -1063 
L 3263 -1063 
z
" transform="scale(0.015625)"/>
      <path id="DejaVuSans-76" d="M 191 3500 
L 800 3500 
L 1894 563 
L 2988 3500 
L 3597 3500 
L 2284 0 
L 1503 0 
L 191 3500 
z
" transform="scale(0.015625)"/>
      <path id="DejaVuSans-6e" d="M 3513 2113 
L 3513 0 
L 2938 0 
L 2938 2094 
Q 2938 2591 2744 2837 
Q 2550 3084 2163 3084 
Q 1697 3084 1428 2787 
Q 1159 2491 1159 1978 
L 1159 0 
L 581 0 
L 581 3500 
L 1159 3500 
L 1159 2956 
Q 1366 3272 1645 3428 
Q 1925 3584 2291 3584 
Q 2894 3584 3203 3211 
Q 3513 2838 3513 2113 
z
" transform="scale(0.015625)"/>
     </defs>
     <use xlink:href="#DejaVuSans-4f"/>
     <use xlink:href="#DejaVuSans-73" x="78.710938"/>
     <use xlink:href="#DejaVuSans-6b" x="130.810547"/>
     <use xlink:href="#DejaVuSans-61" x="186.970703"/>
     <use xlink:href="#DejaVuSans-72" x="248.25"/>
     <use xlink:href="#DejaVuSans-2d" x="282.988281"/>
     <use xlink:href="#DejaVuSans-54" x="309.947266"/>
     <use xlink:href="#DejaVuSans-79" x="355.40625"/>
     <use xlink:href="#DejaVuSans-68" x="414.585938"/>
     <use xlink:href="#DejaVuSans-6f" x="477.964844"/>
     <use xlink:href="#DejaVuSans-6c" x="539.146484"/>
     <use xlink:href="#DejaVuSans-74" x="566.929688"/>
     <use xlink:href="#DejaVuSans-5f" x="606.138672"/>
     <use xlink:href="#DejaVuSans-72" x="656.138672"/>
     <use xlink:href="#DejaVuSans-65" x="695.001953"/>
     <use xlink:href="#DejaVuSans-73" x="756.525391"/>
     <use xlink:href="#DejaVuSans-74" x="808.625"/>
     <use xlink:href="#DejaVuSans-61" x="847.833984"/>
     <use xlink:href="#DejaVuSans-72" x="909.113281"/>
     <use xlink:href="#DejaVuSans-74" x="950.226562"/>
     <use xlink:href="#DejaVuSans-2d" x="989.435547"/>
     <use xlink:href="#DejaVuSans-76" x="1022.894531"/>
     <use xlink:href="#DejaVuSans-69" x="1082.074219"/>
     <use xlink:href="#DejaVuSans-6e" x="1109.857422"/>
     <use xlink:href="#DejaVuSans-6b" x="1173.236328"/>
     <use xlink:href="#DejaVuSans-65" x="1227.521484"/>
     <use xlink:href="#DejaVuSans-6c" x="1289.044922"/>
    </g>
   </g>
   <g id="legend_1">
    <g id="patch_7">
     <path d="M 244.040312 64.42825 
L 407.72 64.42825 
Q 409.72 64.42825 409.72 62.42825 
L 409.72 48.472 
Q 409.72 46.472 407.72 46.472 
L 244.040312 46.472 
Q 242.040312 46.472 242.040312 48.472 
L 242.040312 62.42825 
Q 242.040312 64.42825 244.040312 64.42825 
z
" style="fill: #ffffff; opacity: 0.8; stroke: #cccccc; stroke-linejoin: miter"/>
    </g>
    <g id="line2d_12">
     <path d="M 246.040312 54.570437 
L 256.040313 54.570437 
L 266.040313 54.570437 
" style="fill: none; stroke: #1f77b4; stroke-width: 1.5; stroke-linecap: square"/>
    </g>
    <g id="text_14">
     <!-- Oskar-Tyholt_restart-vinkel -->
     <g transform="translate(274.040313 58.070437) scale(0.1 -0.1)">
      <use xlink:href="#DejaVuSans-4f"/>
      <use xlink:href="#DejaVuSans-73" x="78.710938"/>
      <use xlink:href="#DejaVuSans-6b" x="130.810547"/>
      <use xlink:href="#DejaVuSans-61" x="186.970703"/>
      <use xlink:href="#DejaVuSans-72" x="248.25"/>
      <use xlink:href="#DejaVuSans-2d" x="282.988281"/>
      <use xlink:href="#DejaVuSans-54" x="309.947266"/>
      <use xlink:href="#DejaVuSans-79" x="355.40625"/>
      <use xlink:href="#DejaVuSans-68" x="414.585938"/>
      <use xlink:href="#DejaVuSans-6f" x="477.964844"/>
      <use xlink:href="#DejaVuSans-6c" x="539.146484"/>
      <use xlink:href="#DejaVuSans-74" x="566.929688"/>
      <use xlink:href="#DejaVuSans-5f" x="606.138672"/>
      <use xlink:href="#DejaVuSans-72" x="656.138672"/>
      <use xlink:href="#DejaVuSans-65" x="695.001953"/>
      <use xlink:href="#DejaVuSans-73" x="756.525391"/>
      <use xlink:href="#DejaVuSans-74" x="808.625"/>
      <use xlink:href="#DejaVuSans-61" x="847.833984"/>
      <use xlink:href="#DejaVuSans-72" x="909.113281"/>
      <use xlink:href="#DejaVuSans-74" x="950.226562"/>
      <use xlink:href="#DejaVuSans-2d" x="989.435547"/>
      <use xlink:href="#DejaVuSans-76" x="1022.894531"/>
      <use xlink:href="#DejaVuSans-69" x="1082.074219"/>
      <use xlink:href="#DejaVuSans-6e" x="1109.857422"/>
      <use xlink:href="#DejaVuSans-6b" x="1173.236328"/>
      <use xlink:href="#DejaVuSans-65" x="1227.521484"/>
      <use xlink:href="#DejaVuSans-6c" x="1289.044922"/>
     </g>
    </g>
   </g>
  </g>
 </g>
 <defs>
  <clipPath id="p712003c750">
   <rect x="57.6" y="41.472" width="357.12" height="266.112"/>
  </clipPath>
 </defs>
</svg>
