<?xml version="1.0" encoding="utf-8" standalone="no"?>
<!DOCTYPE svg PUBLIC "-//W3C//DTD SVG 1.1//EN"
  "http://www.w3.org/Graphics/SVG/1.1/DTD/svg11.dtd">
<svg xmlns:xlink="http://www.w3.org/1999/xlink" width="460.8pt" height="345.6pt" viewBox="0 0 460.8 345.6" xmlns="http://www.w3.org/2000/svg" version="1.1">
 <metadata>
  <rdf:RDF xmlns:dc="http://purl.org/dc/elements/1.1/" xmlns:cc="http://creativecommons.org/ns#" xmlns:rdf="http://www.w3.org/1999/02/22-rdf-syntax-ns#">
   <cc:Work>
    <dc:type rdf:resource="http://purl.org/dc/dcmitype/StillImage"/>
    <dc:date>2023-04-17T15:21:33.114988</dc:date>
    <dc:format>image/svg+xml</dc:format>
    <dc:creator>
     <cc:Agent>
      <dc:title>Matplotlib v3.7.1, https://matplotlib.org/</dc:title>
     </cc:Agent>
    </dc:creator>
   </cc:Work>
  </rdf:RDF>
 </metadata>
 <defs>
  <style type="text/css">*{stroke-linejoin: round; stroke-linecap: butt}</style>
 </defs>
 <g id="figure_1">
  <g id="patch_1">
   <path d="M 0 345.6 
L 460.8 345.6 
L 460.8 0 
L 0 0 
z
" style="fill: #ffffff"/>
  </g>
  <g id="axes_1">
   <g id="patch_2">
    <path d="M 57.6 307.584 
L 414.72 307.584 
L 414.72 41.472 
L 57.6 41.472 
z
" style="fill: #ffffff"/>
   </g>
   <g id="matplotlib.axis_1">
    <g id="xtick_1">
     <g id="line2d_1">
      <defs>
       <path id="m5805ffd563" d="M 0 0 
L 0 3.5 
" style="stroke: #000000; stroke-width: 0.8"/>
      </defs>
      <g>
       <use xlink:href="#m5805ffd563" x="81.551494" y="307.584" style="stroke: #000000; stroke-width: 0.8"/>
      </g>
     </g>
     <g id="text_1">
      <!-- 50 -->
      <g transform="translate(75.188994 322.182437) scale(0.1 -0.1)">
       <defs>
        <path id="DejaVuSans-35" d="M 691 4666 
L 3169 4666 
L 3169 4134 
L 1269 4134 
L 1269 2991 
Q 1406 3038 1543 3061 
Q 1681 3084 1819 3084 
Q 2600 3084 3056 2656 
Q 3513 2228 3513 1497 
Q 3513 744 3044 326 
Q 2575 -91 1722 -91 
Q 1428 -91 1123 -41 
Q 819 9 494 109 
L 494 744 
Q 775 591 1075 516 
Q 1375 441 1709 441 
Q 2250 441 2565 725 
Q 2881 1009 2881 1497 
Q 2881 1984 2565 2268 
Q 2250 2553 1709 2553 
Q 1456 2553 1204 2497 
Q 953 2441 691 2322 
L 691 4666 
z
" transform="scale(0.015625)"/>
        <path id="DejaVuSans-30" d="M 2034 4250 
Q 1547 4250 1301 3770 
Q 1056 3291 1056 2328 
Q 1056 1369 1301 889 
Q 1547 409 2034 409 
Q 2525 409 2770 889 
Q 3016 1369 3016 2328 
Q 3016 3291 2770 3770 
Q 2525 4250 2034 4250 
z
M 2034 4750 
Q 2819 4750 3233 4129 
Q 3647 3509 3647 2328 
Q 3647 1150 3233 529 
Q 2819 -91 2034 -91 
Q 1250 -91 836 529 
Q 422 1150 422 2328 
Q 422 3509 836 4129 
Q 1250 4750 2034 4750 
z
" transform="scale(0.015625)"/>
       </defs>
       <use xlink:href="#DejaVuSans-35"/>
       <use xlink:href="#DejaVuSans-30" x="63.623047"/>
      </g>
     </g>
    </g>
    <g id="xtick_2">
     <g id="line2d_2">
      <g>
       <use xlink:href="#m5805ffd563" x="122.950821" y="307.584" style="stroke: #000000; stroke-width: 0.8"/>
      </g>
     </g>
     <g id="text_2">
      <!-- 55 -->
      <g transform="translate(116.588321 322.182437) scale(0.1 -0.1)">
       <use xlink:href="#DejaVuSans-35"/>
       <use xlink:href="#DejaVuSans-35" x="63.623047"/>
      </g>
     </g>
    </g>
    <g id="xtick_3">
     <g id="line2d_3">
      <g>
       <use xlink:href="#m5805ffd563" x="164.350149" y="307.584" style="stroke: #000000; stroke-width: 0.8"/>
      </g>
     </g>
     <g id="text_3">
      <!-- 60 -->
      <g transform="translate(157.987649 322.182437) scale(0.1 -0.1)">
       <defs>
        <path id="DejaVuSans-36" d="M 2113 2584 
Q 1688 2584 1439 2293 
Q 1191 2003 1191 1497 
Q 1191 994 1439 701 
Q 1688 409 2113 409 
Q 2538 409 2786 701 
Q 3034 994 3034 1497 
Q 3034 2003 2786 2293 
Q 2538 2584 2113 2584 
z
M 3366 4563 
L 3366 3988 
Q 3128 4100 2886 4159 
Q 2644 4219 2406 4219 
Q 1781 4219 1451 3797 
Q 1122 3375 1075 2522 
Q 1259 2794 1537 2939 
Q 1816 3084 2150 3084 
Q 2853 3084 3261 2657 
Q 3669 2231 3669 1497 
Q 3669 778 3244 343 
Q 2819 -91 2113 -91 
Q 1303 -91 875 529 
Q 447 1150 447 2328 
Q 447 3434 972 4092 
Q 1497 4750 2381 4750 
Q 2619 4750 2861 4703 
Q 3103 4656 3366 4563 
z
" transform="scale(0.015625)"/>
       </defs>
       <use xlink:href="#DejaVuSans-36"/>
       <use xlink:href="#DejaVuSans-30" x="63.623047"/>
      </g>
     </g>
    </g>
    <g id="xtick_4">
     <g id="line2d_4">
      <g>
       <use xlink:href="#m5805ffd563" x="205.749477" y="307.584" style="stroke: #000000; stroke-width: 0.8"/>
      </g>
     </g>
     <g id="text_4">
      <!-- 65 -->
      <g transform="translate(199.386977 322.182437) scale(0.1 -0.1)">
       <use xlink:href="#DejaVuSans-36"/>
       <use xlink:href="#DejaVuSans-35" x="63.623047"/>
      </g>
     </g>
    </g>
    <g id="xtick_5">
     <g id="line2d_5">
      <g>
       <use xlink:href="#m5805ffd563" x="247.148804" y="307.584" style="stroke: #000000; stroke-width: 0.8"/>
      </g>
     </g>
     <g id="text_5">
      <!-- 70 -->
      <g transform="translate(240.786304 322.182437) scale(0.1 -0.1)">
       <defs>
        <path id="DejaVuSans-37" d="M 525 4666 
L 3525 4666 
L 3525 4397 
L 1831 0 
L 1172 0 
L 2766 4134 
L 525 4134 
L 525 4666 
z
" transform="scale(0.015625)"/>
       </defs>
       <use xlink:href="#DejaVuSans-37"/>
       <use xlink:href="#DejaVuSans-30" x="63.623047"/>
      </g>
     </g>
    </g>
    <g id="xtick_6">
     <g id="line2d_6">
      <g>
       <use xlink:href="#m5805ffd563" x="288.548132" y="307.584" style="stroke: #000000; stroke-width: 0.8"/>
      </g>
     </g>
     <g id="text_6">
      <!-- 75 -->
      <g transform="translate(282.185632 322.182437) scale(0.1 -0.1)">
       <use xlink:href="#DejaVuSans-37"/>
       <use xlink:href="#DejaVuSans-35" x="63.623047"/>
      </g>
     </g>
    </g>
    <g id="xtick_7">
     <g id="line2d_7">
      <g>
       <use xlink:href="#m5805ffd563" x="329.947459" y="307.584" style="stroke: #000000; stroke-width: 0.8"/>
      </g>
     </g>
     <g id="text_7">
      <!-- 80 -->
      <g transform="translate(323.584959 322.182437) scale(0.1 -0.1)">
       <defs>
        <path id="DejaVuSans-38" d="M 2034 2216 
Q 1584 2216 1326 1975 
Q 1069 1734 1069 1313 
Q 1069 891 1326 650 
Q 1584 409 2034 409 
Q 2484 409 2743 651 
Q 3003 894 3003 1313 
Q 3003 1734 2745 1975 
Q 2488 2216 2034 2216 
z
M 1403 2484 
Q 997 2584 770 2862 
Q 544 3141 544 3541 
Q 544 4100 942 4425 
Q 1341 4750 2034 4750 
Q 2731 4750 3128 4425 
Q 3525 4100 3525 3541 
Q 3525 3141 3298 2862 
Q 3072 2584 2669 2484 
Q 3125 2378 3379 2068 
Q 3634 1759 3634 1313 
Q 3634 634 3220 271 
Q 2806 -91 2034 -91 
Q 1263 -91 848 271 
Q 434 634 434 1313 
Q 434 1759 690 2068 
Q 947 2378 1403 2484 
z
M 1172 3481 
Q 1172 3119 1398 2916 
Q 1625 2713 2034 2713 
Q 2441 2713 2670 2916 
Q 2900 3119 2900 3481 
Q 2900 3844 2670 4047 
Q 2441 4250 2034 4250 
Q 1625 4250 1398 4047 
Q 1172 3844 1172 3481 
z
" transform="scale(0.015625)"/>
       </defs>
       <use xlink:href="#DejaVuSans-38"/>
       <use xlink:href="#DejaVuSans-30" x="63.623047"/>
      </g>
     </g>
    </g>
    <g id="xtick_8">
     <g id="line2d_8">
      <g>
       <use xlink:href="#m5805ffd563" x="371.346787" y="307.584" style="stroke: #000000; stroke-width: 0.8"/>
      </g>
     </g>
     <g id="text_8">
      <!-- 85 -->
      <g transform="translate(364.984287 322.182437) scale(0.1 -0.1)">
       <use xlink:href="#DejaVuSans-38"/>
       <use xlink:href="#DejaVuSans-35" x="63.623047"/>
      </g>
     </g>
    </g>
    <g id="xtick_9">
     <g id="line2d_9">
      <g>
       <use xlink:href="#m5805ffd563" x="412.746115" y="307.584" style="stroke: #000000; stroke-width: 0.8"/>
      </g>
     </g>
     <g id="text_9">
      <!-- 90 -->
      <g transform="translate(406.383615 322.182437) scale(0.1 -0.1)">
       <defs>
        <path id="DejaVuSans-39" d="M 703 97 
L 703 672 
Q 941 559 1184 500 
Q 1428 441 1663 441 
Q 2288 441 2617 861 
Q 2947 1281 2994 2138 
Q 2813 1869 2534 1725 
Q 2256 1581 1919 1581 
Q 1219 1581 811 2004 
Q 403 2428 403 3163 
Q 403 3881 828 4315 
Q 1253 4750 1959 4750 
Q 2769 4750 3195 4129 
Q 3622 3509 3622 2328 
Q 3622 1225 3098 567 
Q 2575 -91 1691 -91 
Q 1453 -91 1209 -44 
Q 966 3 703 97 
z
M 1959 2075 
Q 2384 2075 2632 2365 
Q 2881 2656 2881 3163 
Q 2881 3666 2632 3958 
Q 2384 4250 1959 4250 
Q 1534 4250 1286 3958 
Q 1038 3666 1038 3163 
Q 1038 2656 1286 2365 
Q 1534 2075 1959 2075 
z
" transform="scale(0.015625)"/>
       </defs>
       <use xlink:href="#DejaVuSans-39"/>
       <use xlink:href="#DejaVuSans-30" x="63.623047"/>
      </g>
     </g>
    </g>
    <g id="text_10">
     <!-- time [s] -->
     <g transform="translate(216.768594 335.860562) scale(0.1 -0.1)">
      <defs>
       <path id="DejaVuSans-74" d="M 1172 4494 
L 1172 3500 
L 2356 3500 
L 2356 3053 
L 1172 3053 
L 1172 1153 
Q 1172 725 1289 603 
Q 1406 481 1766 481 
L 2356 481 
L 2356 0 
L 1766 0 
Q 1100 0 847 248 
Q 594 497 594 1153 
L 594 3053 
L 172 3053 
L 172 3500 
L 594 3500 
L 594 4494 
L 1172 4494 
z
" transform="scale(0.015625)"/>
       <path id="DejaVuSans-69" d="M 603 3500 
L 1178 3500 
L 1178 0 
L 603 0 
L 603 3500 
z
M 603 4863 
L 1178 4863 
L 1178 4134 
L 603 4134 
L 603 4863 
z
" transform="scale(0.015625)"/>
       <path id="DejaVuSans-6d" d="M 3328 2828 
Q 3544 3216 3844 3400 
Q 4144 3584 4550 3584 
Q 5097 3584 5394 3201 
Q 5691 2819 5691 2113 
L 5691 0 
L 5113 0 
L 5113 2094 
Q 5113 2597 4934 2840 
Q 4756 3084 4391 3084 
Q 3944 3084 3684 2787 
Q 3425 2491 3425 1978 
L 3425 0 
L 2847 0 
L 2847 2094 
Q 2847 2600 2669 2842 
Q 2491 3084 2119 3084 
Q 1678 3084 1418 2786 
Q 1159 2488 1159 1978 
L 1159 0 
L 581 0 
L 581 3500 
L 1159 3500 
L 1159 2956 
Q 1356 3278 1631 3431 
Q 1906 3584 2284 3584 
Q 2666 3584 2933 3390 
Q 3200 3197 3328 2828 
z
" transform="scale(0.015625)"/>
       <path id="DejaVuSans-65" d="M 3597 1894 
L 3597 1613 
L 953 1613 
Q 991 1019 1311 708 
Q 1631 397 2203 397 
Q 2534 397 2845 478 
Q 3156 559 3463 722 
L 3463 178 
Q 3153 47 2828 -22 
Q 2503 -91 2169 -91 
Q 1331 -91 842 396 
Q 353 884 353 1716 
Q 353 2575 817 3079 
Q 1281 3584 2069 3584 
Q 2775 3584 3186 3129 
Q 3597 2675 3597 1894 
z
M 3022 2063 
Q 3016 2534 2758 2815 
Q 2500 3097 2075 3097 
Q 1594 3097 1305 2825 
Q 1016 2553 972 2059 
L 3022 2063 
z
" transform="scale(0.015625)"/>
       <path id="DejaVuSans-20" transform="scale(0.015625)"/>
       <path id="DejaVuSans-5b" d="M 550 4863 
L 1875 4863 
L 1875 4416 
L 1125 4416 
L 1125 -397 
L 1875 -397 
L 1875 -844 
L 550 -844 
L 550 4863 
z
" transform="scale(0.015625)"/>
       <path id="DejaVuSans-73" d="M 2834 3397 
L 2834 2853 
Q 2591 2978 2328 3040 
Q 2066 3103 1784 3103 
Q 1356 3103 1142 2972 
Q 928 2841 928 2578 
Q 928 2378 1081 2264 
Q 1234 2150 1697 2047 
L 1894 2003 
Q 2506 1872 2764 1633 
Q 3022 1394 3022 966 
Q 3022 478 2636 193 
Q 2250 -91 1575 -91 
Q 1294 -91 989 -36 
Q 684 19 347 128 
L 347 722 
Q 666 556 975 473 
Q 1284 391 1588 391 
Q 1994 391 2212 530 
Q 2431 669 2431 922 
Q 2431 1156 2273 1281 
Q 2116 1406 1581 1522 
L 1381 1569 
Q 847 1681 609 1914 
Q 372 2147 372 2553 
Q 372 3047 722 3315 
Q 1072 3584 1716 3584 
Q 2034 3584 2315 3537 
Q 2597 3491 2834 3397 
z
" transform="scale(0.015625)"/>
       <path id="DejaVuSans-5d" d="M 1947 4863 
L 1947 -844 
L 622 -844 
L 622 -397 
L 1369 -397 
L 1369 4416 
L 622 4416 
L 622 4863 
L 1947 4863 
z
" transform="scale(0.015625)"/>
      </defs>
      <use xlink:href="#DejaVuSans-74"/>
      <use xlink:href="#DejaVuSans-69" x="39.208984"/>
      <use xlink:href="#DejaVuSans-6d" x="66.992188"/>
      <use xlink:href="#DejaVuSans-65" x="164.404297"/>
      <use xlink:href="#DejaVuSans-20" x="225.927734"/>
      <use xlink:href="#DejaVuSans-5b" x="257.714844"/>
      <use xlink:href="#DejaVuSans-73" x="296.728516"/>
      <use xlink:href="#DejaVuSans-5d" x="348.828125"/>
     </g>
    </g>
   </g>
   <g id="matplotlib.axis_2">
    <g id="ytick_1">
     <g id="line2d_10">
      <defs>
       <path id="mca8e541d6f" d="M 0 0 
L -3.5 0 
" style="stroke: #000000; stroke-width: 0.8"/>
      </defs>
      <g>
       <use xlink:href="#mca8e541d6f" x="57.6" y="302.942192" style="stroke: #000000; stroke-width: 0.8"/>
      </g>
     </g>
     <g id="text_11">
      <!-- 73.6 -->
      <g transform="translate(28.334375 306.741411) scale(0.1 -0.1)">
       <defs>
        <path id="DejaVuSans-33" d="M 2597 2516 
Q 3050 2419 3304 2112 
Q 3559 1806 3559 1356 
Q 3559 666 3084 287 
Q 2609 -91 1734 -91 
Q 1441 -91 1130 -33 
Q 819 25 488 141 
L 488 750 
Q 750 597 1062 519 
Q 1375 441 1716 441 
Q 2309 441 2620 675 
Q 2931 909 2931 1356 
Q 2931 1769 2642 2001 
Q 2353 2234 1838 2234 
L 1294 2234 
L 1294 2753 
L 1863 2753 
Q 2328 2753 2575 2939 
Q 2822 3125 2822 3475 
Q 2822 3834 2567 4026 
Q 2313 4219 1838 4219 
Q 1578 4219 1281 4162 
Q 984 4106 628 3988 
L 628 4550 
Q 988 4650 1302 4700 
Q 1616 4750 1894 4750 
Q 2613 4750 3031 4423 
Q 3450 4097 3450 3541 
Q 3450 3153 3228 2886 
Q 3006 2619 2597 2516 
z
" transform="scale(0.015625)"/>
        <path id="DejaVuSans-2e" d="M 684 794 
L 1344 794 
L 1344 0 
L 684 0 
L 684 794 
z
" transform="scale(0.015625)"/>
       </defs>
       <use xlink:href="#DejaVuSans-37"/>
       <use xlink:href="#DejaVuSans-33" x="63.623047"/>
       <use xlink:href="#DejaVuSans-2e" x="127.246094"/>
       <use xlink:href="#DejaVuSans-36" x="159.033203"/>
      </g>
     </g>
    </g>
    <g id="ytick_2">
     <g id="line2d_11">
      <g>
       <use xlink:href="#mca8e541d6f" x="57.6" y="251.18859" style="stroke: #000000; stroke-width: 0.8"/>
      </g>
     </g>
     <g id="text_12">
      <!-- 73.8 -->
      <g transform="translate(28.334375 254.987809) scale(0.1 -0.1)">
       <use xlink:href="#DejaVuSans-37"/>
       <use xlink:href="#DejaVuSans-33" x="63.623047"/>
       <use xlink:href="#DejaVuSans-2e" x="127.246094"/>
       <use xlink:href="#DejaVuSans-38" x="159.033203"/>
      </g>
     </g>
    </g>
    <g id="ytick_3">
     <g id="line2d_12">
      <g>
       <use xlink:href="#mca8e541d6f" x="57.6" y="199.434988" style="stroke: #000000; stroke-width: 0.8"/>
      </g>
     </g>
     <g id="text_13">
      <!-- 74.0 -->
      <g transform="translate(28.334375 203.234207) scale(0.1 -0.1)">
       <defs>
        <path id="DejaVuSans-34" d="M 2419 4116 
L 825 1625 
L 2419 1625 
L 2419 4116 
z
M 2253 4666 
L 3047 4666 
L 3047 1625 
L 3713 1625 
L 3713 1100 
L 3047 1100 
L 3047 0 
L 2419 0 
L 2419 1100 
L 313 1100 
L 313 1709 
L 2253 4666 
z
" transform="scale(0.015625)"/>
       </defs>
       <use xlink:href="#DejaVuSans-37"/>
       <use xlink:href="#DejaVuSans-34" x="63.623047"/>
       <use xlink:href="#DejaVuSans-2e" x="127.246094"/>
       <use xlink:href="#DejaVuSans-30" x="159.033203"/>
      </g>
     </g>
    </g>
    <g id="ytick_4">
     <g id="line2d_13">
      <g>
       <use xlink:href="#mca8e541d6f" x="57.6" y="147.681386" style="stroke: #000000; stroke-width: 0.8"/>
      </g>
     </g>
     <g id="text_14">
      <!-- 74.2 -->
      <g transform="translate(28.334375 151.480605) scale(0.1 -0.1)">
       <defs>
        <path id="DejaVuSans-32" d="M 1228 531 
L 3431 531 
L 3431 0 
L 469 0 
L 469 531 
Q 828 903 1448 1529 
Q 2069 2156 2228 2338 
Q 2531 2678 2651 2914 
Q 2772 3150 2772 3378 
Q 2772 3750 2511 3984 
Q 2250 4219 1831 4219 
Q 1534 4219 1204 4116 
Q 875 4013 500 3803 
L 500 4441 
Q 881 4594 1212 4672 
Q 1544 4750 1819 4750 
Q 2544 4750 2975 4387 
Q 3406 4025 3406 3419 
Q 3406 3131 3298 2873 
Q 3191 2616 2906 2266 
Q 2828 2175 2409 1742 
Q 1991 1309 1228 531 
z
" transform="scale(0.015625)"/>
       </defs>
       <use xlink:href="#DejaVuSans-37"/>
       <use xlink:href="#DejaVuSans-34" x="63.623047"/>
       <use xlink:href="#DejaVuSans-2e" x="127.246094"/>
       <use xlink:href="#DejaVuSans-32" x="159.033203"/>
      </g>
     </g>
    </g>
    <g id="ytick_5">
     <g id="line2d_14">
      <g>
       <use xlink:href="#mca8e541d6f" x="57.6" y="95.927785" style="stroke: #000000; stroke-width: 0.8"/>
      </g>
     </g>
     <g id="text_15">
      <!-- 74.4 -->
      <g transform="translate(28.334375 99.727003) scale(0.1 -0.1)">
       <use xlink:href="#DejaVuSans-37"/>
       <use xlink:href="#DejaVuSans-34" x="63.623047"/>
       <use xlink:href="#DejaVuSans-2e" x="127.246094"/>
       <use xlink:href="#DejaVuSans-34" x="159.033203"/>
      </g>
     </g>
    </g>
    <g id="ytick_6">
     <g id="line2d_15">
      <g>
       <use xlink:href="#mca8e541d6f" x="57.6" y="44.174183" style="stroke: #000000; stroke-width: 0.8"/>
      </g>
     </g>
     <g id="text_16">
      <!-- 74.6 -->
      <g transform="translate(28.334375 47.973401) scale(0.1 -0.1)">
       <use xlink:href="#DejaVuSans-37"/>
       <use xlink:href="#DejaVuSans-34" x="63.623047"/>
       <use xlink:href="#DejaVuSans-2e" x="127.246094"/>
       <use xlink:href="#DejaVuSans-36" x="159.033203"/>
      </g>
     </g>
    </g>
    <g id="text_17">
     <!-- $\theta$ [deg] -->
     <g transform="translate(22.234375 192.528) rotate(-90) scale(0.1 -0.1)">
      <defs>
       <path id="DejaVuSans-Oblique-3b8" d="M 2913 2219 
L 925 2219 
Q 791 1284 928 888 
Q 1100 400 1566 400 
Q 2034 400 2391 891 
Q 2703 1322 2913 2219 
z
M 3009 2750 
Q 3094 3638 2984 3950 
Q 2813 4444 2353 4444 
Q 1875 4444 1525 3956 
Q 1250 3563 1034 2750 
L 3009 2750 
z
M 2444 4913 
Q 3194 4913 3494 4250 
Q 3794 3591 3566 2422 
Q 3341 1256 2781 594 
Q 2225 -72 1475 -72 
Q 722 -72 425 594 
Q 128 1256 353 2422 
Q 581 3591 1134 4250 
Q 1691 4913 2444 4913 
z
" transform="scale(0.015625)"/>
       <path id="DejaVuSans-64" d="M 2906 2969 
L 2906 4863 
L 3481 4863 
L 3481 0 
L 2906 0 
L 2906 525 
Q 2725 213 2448 61 
Q 2172 -91 1784 -91 
Q 1150 -91 751 415 
Q 353 922 353 1747 
Q 353 2572 751 3078 
Q 1150 3584 1784 3584 
Q 2172 3584 2448 3432 
Q 2725 3281 2906 2969 
z
M 947 1747 
Q 947 1113 1208 752 
Q 1469 391 1925 391 
Q 2381 391 2643 752 
Q 2906 1113 2906 1747 
Q 2906 2381 2643 2742 
Q 2381 3103 1925 3103 
Q 1469 3103 1208 2742 
Q 947 2381 947 1747 
z
" transform="scale(0.015625)"/>
       <path id="DejaVuSans-67" d="M 2906 1791 
Q 2906 2416 2648 2759 
Q 2391 3103 1925 3103 
Q 1463 3103 1205 2759 
Q 947 2416 947 1791 
Q 947 1169 1205 825 
Q 1463 481 1925 481 
Q 2391 481 2648 825 
Q 2906 1169 2906 1791 
z
M 3481 434 
Q 3481 -459 3084 -895 
Q 2688 -1331 1869 -1331 
Q 1566 -1331 1297 -1286 
Q 1028 -1241 775 -1147 
L 775 -588 
Q 1028 -725 1275 -790 
Q 1522 -856 1778 -856 
Q 2344 -856 2625 -561 
Q 2906 -266 2906 331 
L 2906 616 
Q 2728 306 2450 153 
Q 2172 0 1784 0 
Q 1141 0 747 490 
Q 353 981 353 1791 
Q 353 2603 747 3093 
Q 1141 3584 1784 3584 
Q 2172 3584 2450 3431 
Q 2728 3278 2906 2969 
L 2906 3500 
L 3481 3500 
L 3481 434 
z
" transform="scale(0.015625)"/>
      </defs>
      <use xlink:href="#DejaVuSans-Oblique-3b8" transform="translate(0 0.234375)"/>
      <use xlink:href="#DejaVuSans-20" transform="translate(61.181641 0.234375)"/>
      <use xlink:href="#DejaVuSans-5b" transform="translate(92.96875 0.234375)"/>
      <use xlink:href="#DejaVuSans-64" transform="translate(131.982422 0.234375)"/>
      <use xlink:href="#DejaVuSans-65" transform="translate(195.458984 0.234375)"/>
      <use xlink:href="#DejaVuSans-67" transform="translate(256.982422 0.234375)"/>
      <use xlink:href="#DejaVuSans-5d" transform="translate(320.458984 0.234375)"/>
     </g>
    </g>
   </g>
   <g id="line2d_16">
    <path d="M 73.832727 95.184957 
L 73.999682 102.839447 
L 74.164965 102.839447 
L 74.330885 145.733459 
L 74.495249 145.733459 
L 74.743761 161.906458 
L 75.157911 161.906458 
L 75.324627 169.738034 
L 75.488452 161.906458 
L 75.986072 161.906458 
L 76.152232 169.738034 
L 76.48346 169.738034 
L 76.648503 161.906458 
L 76.8154 169.738034 
L 76.979656 161.906458 
L 77.146768 176.420593 
L 77.311347 176.420593 
L 77.48592 169.738034 
L 77.641697 176.420593 
L 77.808429 176.420593 
L 77.972478 169.738034 
L 78.305304 169.738034 
L 78.47057 178.204655 
L 78.6349 169.738034 
L 78.800903 169.738034 
L 79.050641 154.103906 
L 79.13339 154.103906 
L 79.298449 125.361887 
L 79.962254 125.361887 
L 80.125574 154.103906 
L 80.294061 168.577618 
L 80.46047 176.420593 
L 80.622391 176.420593 
L 80.787823 184.89953 
L 80.954041 184.89953 
L 81.119059 219.01421 
L 81.451388 219.01421 
L 81.616977 211.659612 
L 81.782408 211.659612 
L 81.948014 219.609238 
L 82.114928 219.609238 
L 82.279689 211.659612 
L 82.527008 226.976404 
L 83.106723 226.976404 
L 83.272734 234.003347 
L 83.439276 234.003347 
L 83.605188 219.01421 
L 84.43228 219.01421 
L 84.596461 192.311983 
L 84.763723 183.819418 
L 84.928765 183.819418 
L 85.176532 168.577618 
L 85.259778 168.577618 
L 85.425798 160.7637 
L 85.590757 123.748444 
L 85.922589 123.748444 
L 86.087301 152.381053 
L 86.335978 168.137335 
L 86.418752 168.137335 
L 86.585086 168.577618 
L 86.750352 175.963828 
L 86.914708 210.472624 
L 87.4128 210.472624 
L 87.578447 203.131516 
L 87.7431 211.659612 
L 87.908242 203.131516 
L 88.574043 203.131516 
L 88.738083 210.472624 
L 88.903656 203.131516 
L 89.564927 203.131516 
L 89.730351 229.82632 
L 89.899194 223.247694 
L 90.226671 223.247694 
L 90.395505 260.650082 
L 90.5615 260.650082 
L 90.724953 252.032277 
L 90.88949 215.325015 
L 91.055262 215.325015 
L 91.221488 201.054142 
L 91.63655 165.940862 
L 91.717046 165.940862 
L 91.965848 151.467953 
L 92.048729 151.467953 
L 92.214343 159.233653 
L 92.380802 185.943086 
L 92.546689 185.943086 
L 92.71068 201.054142 
L 92.876691 201.054142 
L 93.042272 231.103626 
L 93.873711 231.103626 
L 94.036353 223.183497 
L 94.201172 223.183497 
L 94.370064 249.903706 
L 94.532764 249.903706 
L 94.697972 223.183497 
L 95.360452 223.183497 
L 95.525751 214.686829 
L 95.693278 223.183497 
L 96.188596 223.183497 
L 96.356669 231.103626 
L 96.521231 231.103626 
L 96.685653 223.183497 
L 97.183149 223.183497 
L 97.348729 214.686829 
L 97.844544 214.686829 
L 98.009719 185.943086 
L 98.177577 192.59783 
L 98.341436 214.686829 
L 98.51128 223.183497 
L 98.672995 223.183497 
L 98.839213 237.725861 
L 99.004843 245.686621 
L 100.162849 245.686621 
L 100.333025 239.053136 
L 100.495244 245.686621 
L 101.818764 245.686621 
L 101.984485 216.848487 
L 102.31645 216.848487 
L 102.565649 202.258426 
L 102.647512 202.258426 
L 102.813598 175.454496 
L 102.979593 161.578523 
L 103.143534 153.194384 
L 103.310671 153.194384 
L 103.476749 145.438937 
L 103.641593 118.709361 
L 104.309314 118.709361 
L 104.469339 159.233653 
L 104.63651 167.62887 
L 104.801436 167.62887 
L 105.048102 182.185455 
L 105.132084 182.185455 
L 105.296779 175.454496 
L 105.463345 182.185455 
L 105.628727 182.185455 
L 105.876047 167.62887 
L 105.958887 167.62887 
L 106.126397 174.348375 
L 106.290943 167.62887 
L 106.622866 167.62887 
L 106.791858 174.348375 
L 106.95344 167.62887 
L 107.119617 174.348375 
L 108.774257 174.348375 
L 108.939721 165.940862 
L 109.104723 165.940862 
L 109.35489 117.09445 
L 110.431008 117.09445 
L 110.679454 131.535106 
L 110.762219 131.535106 
L 110.927552 174.348375 
L 111.093654 174.348375 
L 111.257777 182.185455 
L 112.765607 182.185455 
L 112.996682 190.051664 
L 113.908527 190.051664 
L 114.073851 155.416949 
L 114.239779 155.416949 
L 114.405045 163.237429 
L 114.570783 155.416949 
L 114.902657 155.416949 
L 115.149728 139.266887 
L 115.401436 139.266887 
L 115.730594 88.389833 
L 115.895024 88.389833 
L 116.308694 117.09445 
L 116.558638 117.09445 
L 116.738403 124.786257 
L 116.888881 158.163781 
L 117.054511 158.163781 
L 117.219239 165.940862 
L 117.38761 158.163781 
L 118.381095 158.163781 
L 118.544266 164.568795 
L 118.711006 131.535106 
L 118.87768 131.535106 
L 119.053627 158.163781 
L 119.703911 158.163781 
L 119.86892 131.535106 
L 120.035163 131.535106 
L 120.20197 139.266887 
L 120.532104 139.266887 
L 120.698447 145.733459 
L 120.945526 131.535106 
L 121.028888 131.535106 
L 121.19456 102.839447 
L 121.361134 95.184957 
L 121.693372 95.184957 
L 121.855831 53.568 
L 122.023027 53.568 
L 122.188475 61.7184 
L 122.353012 96.032735 
L 122.685441 96.032735 
L 122.850516 103.703963 
L 123.015277 132.506541 
L 123.348981 155.416949 
L 123.512069 148.632612 
L 123.678569 155.416949 
L 124.341364 155.416949 
L 124.507591 126.570257 
L 124.673768 126.570257 
L 124.837543 155.416949 
L 125.170808 155.416949 
L 125.334816 163.237429 
L 125.499734 163.237429 
L 125.689161 155.416949 
L 125.830366 155.416949 
L 125.999647 163.237429 
L 126.161593 190.051664 
L 126.494022 190.051664 
L 126.659793 196.50125 
L 126.906881 182.185455 
L 126.989745 182.185455 
L 127.237752 165.940862 
L 127.653675 165.940862 
L 127.818452 131.535106 
L 127.98265 131.535106 
L 128.148951 158.163781 
L 128.479873 158.163781 
L 128.645321 165.940862 
L 128.812293 165.940862 
L 128.980523 201.054142 
L 129.225822 215.325015 
L 129.308936 215.325015 
L 129.474252 236.118691 
L 129.638748 244.06076 
L 130.799378 244.06076 
L 130.965066 236.118691 
L 131.130415 236.118691 
L 131.298281 201.054142 
L 131.628101 201.054142 
L 131.792407 208.936681 
L 131.958501 201.054142 
L 132.123544 208.936681 
L 132.290292 202.258426 
L 132.455202 208.936681 
L 132.620004 202.258426 
L 132.786223 202.258426 
L 132.95288 188.384367 
L 133.11774 188.384367 
L 133.28429 153.194384 
L 133.449133 145.438937 
L 133.780792 145.438937 
L 133.946671 131.875514 
L 134.278751 131.875514 
L 134.524398 145.438937 
L 134.773887 145.438937 
L 134.939468 139.59246 
L 135.188361 155.71135 
L 135.269611 155.71135 
L 135.436674 190.414442 
L 135.767438 190.414442 
L 135.932762 182.563367 
L 136.263733 182.563367 
L 136.429711 188.384367 
L 136.599142 188.384367 
L 136.760359 182.563367 
L 136.927273 188.384367 
L 137.921652 188.384367 
L 138.084765 196.245352 
L 138.251596 188.384367 
L 138.747171 188.384367 
L 138.915964 196.245352 
L 139.078556 196.245352 
L 139.244087 161.578523 
L 139.410728 147.337959 
L 139.742957 147.337959 
L 139.906236 139.59246 
L 140.239087 139.59246 
L 140.404353 145.438937 
L 140.569164 139.59246 
L 140.818976 155.71135 
L 140.901816 155.71135 
L 141.148829 169.39383 
L 141.231901 169.39383 
L 141.396918 204.135539 
L 141.562276 177.2382 
L 141.893826 177.2382 
L 142.060541 169.39383 
L 142.227281 204.135539 
L 142.391107 177.2382 
L 142.556348 177.2382 
L 142.720894 204.135539 
L 142.888958 177.2382 
L 143.054175 177.2382 
L 143.218787 204.135539 
L 143.552143 204.135539 
L 143.714759 196.245352 
L 144.212603 196.245352 
L 144.37767 188.384367 
L 144.712781 188.384367 
L 144.875249 217.231108 
L 145.041078 188.384367 
L 145.204787 208.745288 
L 145.370815 172.150357 
L 145.536561 200.89572 
L 145.702705 200.89572 
L 145.86875 193.075021 
L 146.034885 156.04024 
L 146.366833 156.04024 
L 146.530518 184.684862 
L 146.779021 200.89572 
L 146.862557 200.89572 
L 147.028767 208.745288 
L 147.194364 208.745288 
L 147.362379 249.903706 
L 148.352212 249.903706 
L 148.517901 243.997574 
L 148.766471 257.86913 
L 149.015388 257.86913 
L 149.180737 231.103626 
L 149.512362 231.103626 
L 149.677554 239.053136 
L 149.843557 233.080509 
L 151.002937 233.080509 
L 151.167209 204.135539 
L 151.499199 182.563367 
L 151.665177 182.563367 
L 152.003915 147.337959 
L 152.16105 174.140831 
L 152.332435 174.140831 
L 152.491466 147.337959 
L 152.657461 182.563367 
L 152.823787 182.563367 
L 153.071694 196.245352 
L 153.319221 196.245352 
L 153.486565 233.080509 
L 153.982413 233.080509 
L 154.150577 239.053136 
L 154.48077 239.053136 
L 154.644852 231.103626 
L 155.47346 231.103626 
L 155.637625 257.86913 
L 156.135973 257.86913 
L 156.300842 265.864072 
L 157.128762 265.864072 
L 157.295775 257.86913 
L 157.459261 257.86913 
L 157.625637 223.183497 
L 157.873569 208.745288 
L 158.121717 208.745288 
L 158.287165 217.231108 
L 158.62909 217.231108 
L 158.867095 231.103626 
L 158.949621 231.103626 
L 159.116327 239.053136 
L 159.280906 239.053136 
L 159.447928 274.507183 
L 159.612482 282.563946 
L 159.779089 281.101241 
L 159.943991 262.315172 
L 160.110416 262.315172 
L 160.274697 282.563946 
L 160.440692 281.101241 
L 160.606455 282.563946 
L 160.937401 247.647167 
L 161.103313 254.292806 
L 161.27228 247.647167 
L 161.434922 247.647167 
L 161.600246 255.658212 
L 161.768352 255.658212 
L 161.930596 247.647167 
L 162.429168 247.647167 
L 162.595577 254.292806 
L 162.925811 254.292806 
L 163.503712 202.258426 
L 163.587306 202.258426 
L 163.753201 194.387227 
L 163.920223 194.387227 
L 164.166375 179.951192 
L 164.580302 179.951192 
L 164.829062 196.245352 
L 164.912482 196.245352 
L 165.077947 202.258426 
L 165.244786 202.258426 
L 165.410201 210.158859 
L 165.57391 247.647167 
L 166.072491 247.647167 
L 166.23596 218.699869 
L 166.56819 218.699869 
L 166.741562 254.292806 
L 166.898507 210.158859 
L 167.229304 210.158859 
L 167.398056 218.699869 
L 167.893697 218.699869 
L 168.058036 210.158859 
L 168.885459 210.158859 
L 169.051297 225.401784 
L 169.217101 216.848487 
L 169.384048 216.848487 
L 169.631011 201.054142 
L 169.714489 201.054142 
L 169.879515 167.62887 
L 170.129592 151.467953 
L 170.542111 151.467953 
L 170.790814 165.940862 
L 170.877313 165.940862 
L 171.040054 201.054142 
L 171.287672 215.325015 
L 171.370007 215.325015 
L 171.535455 223.247694 
L 172.528799 223.247694 
L 172.694984 252.032277 
L 173.853817 252.032277 
L 174.033532 245.686621 
L 174.18786 216.848487 
L 174.682143 216.848487 
L 174.852684 223.247694 
L 175.179358 223.247694 
L 175.346147 188.624057 
L 175.509426 188.624057 
L 175.676804 174.348375 
L 176.172958 131.535106 
L 176.338779 131.535106 
L 176.504923 139.266887 
L 176.835529 139.266887 
L 177.083859 154.103906 
L 177.165739 154.103906 
L 177.334242 161.906458 
L 177.497215 203.131516 
L 178.325649 203.131516 
L 178.491892 176.420593 
L 178.656512 168.577618 
L 178.821712 168.577618 
L 178.98798 176.420593 
L 179.154629 175.963828 
L 179.321129 175.963828 
L 179.483878 176.420593 
L 179.650295 195.243038 
L 179.81585 168.577618 
L 179.980968 202.571657 
L 180.14803 210.472624 
L 180.312651 202.571657 
L 180.644218 202.571657 
L 180.891852 168.577618 
L 181.142094 168.577618 
L 181.305655 160.7637 
L 181.471393 160.7637 
L 181.719599 144.626988 
L 181.967821 144.626988 
L 182.14265 101.684642 
L 182.301648 93.461019 
L 182.795493 93.461019 
L 182.963806 101.684642 
L 183.127267 130.27646 
L 183.542651 160.7637 
L 184.122382 160.7637 
L 184.286622 168.577618 
L 184.454297 168.577618 
L 184.617303 195.243038 
L 185.27999 195.243038 
L 185.445339 203.131516 
L 185.610978 203.131516 
L 185.780161 195.243038 
L 185.94392 195.243038 
L 186.108664 203.131516 
L 186.771012 203.131516 
L 187.185279 238.403434 
L 187.26686 238.403434 
L 187.435587 203.131516 
L 187.602501 203.131516 
L 187.763776 195.243038 
L 187.930765 195.243038 
L 188.094739 180.776026 
L 188.426513 180.776026 
L 188.593286 172.356759 
L 188.758494 172.356759 
L 189.011179 187.383756 
L 189.090393 187.383756 
L 189.255237 180.776026 
L 189.502358 195.243038 
L 189.603206 195.243038 
L 189.834546 229.82632 
L 189.917709 229.82632 
L 190.083836 237.110427 
L 190.413863 237.110427 
L 190.581042 229.164212 
L 191.408482 229.164212 
L 191.573326 221.247369 
L 192.069406 221.247369 
L 192.237346 219.665987 
L 193.062675 219.665987 
L 193.229349 221.247369 
L 193.394076 186.255214 
L 193.571282 186.255214 
L 193.808881 170.660938 
L 195.216053 170.660938 
L 195.394931 204.897886 
L 195.549433 204.897886 
L 195.797233 221.247369 
L 196.211433 221.247369 
L 196.37525 228.171741 
L 196.706197 228.171741 
L 196.872315 229.164212 
L 197.038037 221.247369 
L 197.203808 249.819435 
L 197.368785 257.784716 
L 197.701619 257.784716 
L 197.867191 264.663342 
L 198.197823 264.663342 
L 198.362145 256.686437 
L 199.357708 256.686437 
L 199.527511 248.128817 
L 199.688182 248.128817 
L 199.853763 211.797968 
L 200.102523 197.070432 
L 200.349528 197.070432 
L 200.516889 170.660938 
L 200.845897 170.660938 
L 201.013697 178.443699 
L 201.177937 204.897886 
L 201.425836 221.247369 
L 202.833007 221.247369 
L 202.999052 194.699926 
L 203.165808 229.164212 
L 203.329675 202.571657 
L 203.828529 202.571657 
L 203.992627 210.472624 
L 204.490446 210.472624 
L 204.656548 203.131516 
L 204.986352 203.131516 
L 205.152388 195.243038 
L 205.48581 195.243038 
L 205.648294 188.624057 
L 205.814231 188.624057 
L 205.98049 180.776026 
L 206.144804 154.103906 
L 206.31349 145.733459 
L 206.479684 145.733459 
L 206.643211 137.990687 
L 206.809711 152.381053 
L 207.221692 187.383756 
L 207.305493 187.383756 
L 207.552655 203.131516 
L 207.636844 203.131516 
L 207.801448 229.82632 
L 208.136551 229.82632 
L 208.298406 238.403434 
L 208.961019 238.403434 
L 209.137173 229.82632 
L 209.291319 238.403434 
L 209.954321 238.403434 
L 210.202286 253.708625 
L 210.28511 253.708625 
L 210.451875 245.700897 
L 210.781786 245.700897 
L 210.949172 238.403434 
L 211.114214 245.700897 
L 211.280747 245.700897 
L 211.533573 229.82632 
L 211.610791 229.82632 
L 211.775742 221.892468 
L 211.940901 221.892468 
L 212.191259 205.508043 
L 212.272385 205.508043 
L 212.440657 171.153266 
L 212.770361 171.153266 
L 212.934758 197.663948 
L 213.101216 197.663948 
L 213.267136 205.508043 
L 213.434506 234.0883 
L 213.680053 249.819435 
L 213.762877 249.819435 
L 213.928466 257.784716 
L 214.094138 249.819435 
L 214.425415 249.819435 
L 214.59247 221.247369 
L 214.757843 249.819435 
L 214.922306 213.987951 
L 215.170553 229.164212 
L 215.254205 229.164212 
L 215.419777 257.784716 
L 215.74978 257.784716 
L 215.916586 229.164212 
L 216.082415 257.784716 
L 216.247631 229.164212 
L 216.411821 229.164212 
L 216.661062 213.987951 
L 216.909077 213.987951 
L 217.079418 221.892468 
L 217.240354 213.987951 
L 217.406456 221.892468 
L 217.654008 207.431636 
L 217.737163 207.431636 
L 218.234807 164.568795 
L 218.399428 164.568795 
L 218.564917 158.163781 
L 218.896145 158.163781 
L 219.061486 184.775576 
L 219.227323 184.775576 
L 219.39331 192.59783 
L 219.559081 192.59783 
L 219.725763 201.054142 
L 219.889638 229.794515 
L 220.055376 237.725861 
L 220.221843 229.794515 
L 220.388889 229.794515 
L 220.552358 237.725861 
L 220.717865 229.794515 
L 221.545727 229.794515 
L 221.712119 244.06076 
L 222.374243 244.06076 
L 222.53941 237.725861 
L 222.707334 244.06076 
L 223.20189 244.06076 
L 223.369028 236.118691 
L 223.698914 236.118691 
L 223.86476 192.59783 
L 224.36127 192.59783 
L 224.610908 176.982108 
L 225.189704 176.982108 
L 225.354415 219.717058 
L 225.685958 219.717058 
L 225.853484 227.59847 
L 226.016821 227.59847 
L 226.183296 254.170183 
L 226.5234 254.170183 
L 226.681148 227.59847 
L 227.17837 227.59847 
L 227.342726 254.170183 
L 227.676959 254.170183 
L 227.83922 246.243977 
L 228.004858 246.243977 
L 228.170588 247.906276 
L 228.336384 254.170183 
L 228.502801 280.724633 
L 229.494696 280.724633 
L 229.74334 266.548459 
L 229.827894 266.548459 
L 229.993939 239.990621 
L 230.15788 232.104034 
L 230.32332 232.104034 
L 230.48799 223.643139 
L 230.653852 223.643139 
L 230.825858 217.129122 
L 230.986645 217.129122 
L 231.15023 232.104034 
L 231.31591 225.578206 
L 231.483122 233.453791 
L 231.647958 268.011499 
L 231.813439 268.011499 
L 231.977852 276.605275 
L 232.144923 276.605275 
L 232.309254 284.615858 
L 232.476242 284.615858 
L 232.640291 292.656096 
L 232.805889 284.615858 
L 232.971825 292.656096 
L 233.965699 292.656096 
L 234.132919 265.864072 
L 234.297821 286.77581 
L 234.462383 286.77581 
L 234.628867 259.937904 
L 235.788015 259.937904 
L 235.952925 251.952995 
L 236.121561 251.952995 
L 236.2845 217.231108 
L 236.532424 200.89572 
L 237.608591 200.89572 
L 237.77601 241.358412 
L 237.939786 241.358412 
L 238.107677 249.903706 
L 238.602399 249.903706 
L 238.771316 223.183497 
L 238.934562 249.903706 
L 239.098777 249.903706 
L 239.266328 214.686829 
L 239.430915 214.686829 
L 239.596256 241.358412 
L 239.762665 247.906276 
L 239.930357 214.686829 
L 240.261593 214.686829 
L 240.424864 223.183497 
L 240.756331 223.183497 
L 240.9212 194.387227 
L 241.086425 223.183497 
L 241.251914 223.183497 
L 241.500443 237.725861 
L 241.751116 237.725861 
L 241.915835 201.054142 
L 242.079818 201.054142 
L 242.24645 185.943086 
L 242.576693 185.943086 
L 242.742414 151.467953 
L 243.240299 151.467953 
L 243.404729 178.1321 
L 243.570086 178.1321 
L 243.737182 185.943086 
L 243.90244 185.943086 
L 244.069279 194.387227 
L 244.233163 237.725861 
L 244.399216 237.725861 
L 244.565219 229.794515 
L 244.729152 237.725861 
L 245.391706 237.725861 
L 245.559928 229.794515 
L 245.889492 229.794515 
L 246.054112 223.183497 
L 246.220165 223.183497 
L 246.385141 241.358412 
L 246.716145 241.358412 
L 246.883829 214.686829 
L 247.213169 214.686829 
L 247.380795 241.358412 
L 247.875318 241.358412 
L 248.042878 214.686829 
L 248.208782 206.82722 
L 248.537724 206.82722 
L 248.704862 198.996511 
L 248.869217 164.378242 
L 249.200047 164.378242 
L 249.367971 206.82722 
L 249.532467 214.686829 
L 249.697659 214.686829 
L 249.864134 223.183497 
L 250.193664 223.183497 
L 250.360528 249.903706 
L 250.693222 249.903706 
L 250.856914 223.183497 
L 251.187306 223.183497 
L 251.354104 231.103626 
L 251.519047 223.183497 
L 251.685075 231.103626 
L 251.851566 229.794515 
L 252.016311 223.183497 
L 252.181643 231.103626 
L 252.346727 223.183497 
L 252.84371 223.183497 
L 253.011095 229.794515 
L 253.176353 221.285806 
L 253.34171 229.794515 
L 253.50595 221.285806 
L 253.672044 221.285806 
L 253.840995 213.415051 
L 254.004232 213.415051 
L 254.252545 198.996511 
L 254.333961 198.996511 
L 254.501877 190.595604 
L 254.665876 162.000999 
L 254.831581 154.277689 
L 255.168936 154.277689 
L 255.332 162.000999 
L 255.494053 205.573229 
L 255.658293 205.573229 
L 255.824445 213.415051 
L 255.990696 213.415051 
L 256.159026 221.285806 
L 256.321129 262.738795 
L 256.487571 262.738795 
L 256.652025 270.72594 
L 256.818194 264.440019 
L 256.984719 262.738795 
L 257.149811 256.463491 
L 257.318232 256.463491 
L 257.481875 270.72594 
L 257.728847 256.463491 
L 257.811563 256.463491 
L 257.977657 264.440019 
L 258.639789 264.440019 
L 258.805254 270.72594 
L 258.971274 272.446098 
L 259.137633 278.742668 
L 259.314441 278.742668 
L 259.46771 270.72594 
L 259.63676 278.742668 
L 259.798764 278.742668 
L 259.964261 270.72594 
L 260.130529 270.72594 
L 260.29621 244.06076 
L 260.461194 229.794515 
L 260.627106 229.794515 
L 260.793838 192.59783 
L 260.957605 192.59783 
L 261.123559 184.775576 
L 261.289735 213.415051 
L 261.455722 227.59847 
L 261.625012 227.59847 
L 261.8695 244.06076 
L 261.952481 244.06076 
L 262.117937 250.573438 
L 262.282177 285.216075 
L 262.449521 292.384029 
L 262.614034 292.384029 
L 262.779689 265.779515 
L 263.608768 265.779515 
L 263.773695 258.556007 
L 263.939632 265.779515 
L 264.104699 250.573438 
L 264.271224 265.779515 
L 265.098805 265.779515 
L 265.265338 257.784716 
L 265.927048 257.784716 
L 266.091619 221.247369 
L 266.34105 204.897886 
L 266.424428 204.897886 
L 266.589429 197.663948 
L 266.755217 163.382839 
L 266.921551 155.046649 
L 267.427492 155.046649 
L 267.581796 163.382839 
L 267.747675 163.382839 
L 267.913322 171.153266 
L 268.082396 171.153266 
L 268.245203 205.508043 
L 268.410205 212.754229 
L 268.907816 212.754229 
L 269.071782 178.95241 
L 269.238597 171.153266 
L 269.571621 171.153266 
L 269.736275 178.95241 
L 270.728741 178.95241 
L 270.895936 172.356759 
L 271.060374 191.130659 
L 271.224845 198.963685 
L 271.722532 198.963685 
L 271.886754 207.431636 
L 272.136426 192.59783 
L 272.218554 192.59783 
L 272.384432 158.163781 
L 272.550245 158.163781 
L 272.720015 143.730867 
L 273.37891 143.730867 
L 273.544392 151.467953 
L 273.709484 178.1321 
L 273.877035 185.943086 
L 274.040298 185.943086 
L 274.205705 194.387227 
L 274.538042 194.387227 
L 274.705154 185.943086 
L 275.203023 185.943086 
L 275.448156 201.054142 
L 275.53127 201.054142 
L 275.69594 192.59783 
L 275.86311 201.054142 
L 276.031233 201.054142 
L 276.193974 208.936681 
L 276.854839 208.936681 
L 277.020644 215.325015 
L 277.186357 207.431636 
L 277.517303 207.431636 
L 277.685451 213.987951 
L 277.849284 213.987951 
L 278.014757 187.383756 
L 278.34649 187.383756 
L 278.511086 178.95241 
L 278.676435 178.95241 
L 278.845137 144.626988 
L 279.256696 178.95241 
L 279.339561 178.95241 
L 279.589033 194.699926 
L 279.67035 194.699926 
L 279.838 213.987951 
L 280.001991 205.508043 
L 280.16792 242.62035 
L 280.353935 250.573438 
L 280.498552 250.573438 
L 280.663859 244.06076 
L 280.994739 244.06076 
L 281.163019 237.725861 
L 281.326041 237.725861 
L 281.493419 229.794515 
L 281.823264 229.794515 
L 281.989896 237.725861 
L 282.153962 231.103626 
L 282.651192 231.103626 
L 282.816516 225.141133 
L 282.982346 251.952995 
L 283.148067 243.997574 
L 283.811781 243.997574 
L 283.977602 238.270614 
L 284.14161 202.983881 
L 284.472448 181.351283 
L 284.641175 181.351283 
L 284.803676 166.349843 
L 285.300807 166.349843 
L 285.466487 172.150357 
L 285.632192 208.745288 
L 285.799363 208.745288 
L 286.047047 231.103626 
L 286.128628 231.103626 
L 286.294408 239.053136 
L 286.957153 239.053136 
L 287.125731 265.864072 
L 287.454938 265.864072 
L 287.619493 272.446098 
L 287.784775 272.446098 
L 287.950348 281.101241 
L 288.612555 281.101241 
L 288.780197 287.409314 
L 288.943733 287.409314 
L 289.109761 295.488 
L 289.275308 295.488 
L 289.440541 289.169211 
L 289.772423 289.169211 
L 289.939801 295.488 
L 290.103212 295.488 
L 290.351724 281.101241 
L 290.434986 281.101241 
L 290.602794 272.446098 
L 290.767605 272.446098 
L 291.097831 249.903706 
L 291.4278 249.903706 
L 291.677364 265.864072 
L 292.092342 265.864072 
L 292.255364 274.507183 
L 293.083368 274.507183 
L 293.250256 265.864072 
L 293.416144 274.507183 
L 293.581029 274.507183 
L 293.748588 268.570176 
L 293.912132 274.507183 
L 294.077837 268.570176 
L 294.242458 274.507183 
L 294.575598 274.507183 
L 294.822653 259.937904 
L 294.905675 259.937904 
L 295.070577 233.080509 
L 296.230031 233.080509 
L 296.395098 225.141133 
L 296.562285 231.103626 
L 296.727734 194.387227 
L 296.893199 188.384367 
L 297.721169 188.384367 
L 297.887221 196.245352 
L 298.051469 196.245352 
L 298.21859 204.135539 
L 298.383492 233.080509 
L 298.550099 241.66359 
L 298.880134 233.080509 
L 299.707483 233.080509 
L 299.87371 204.135539 
L 300.041253 233.080509 
L 300.700852 233.080509 
L 300.868362 241.66359 
L 301.042231 233.080509 
L 301.197917 233.080509 
L 301.364003 227.288943 
L 301.696622 227.288943 
L 301.861797 233.080509 
L 302.026997 225.141133 
L 302.192197 225.141133 
L 302.441984 211.459178 
L 302.52325 211.459178 
L 302.691398 202.983881 
L 302.856962 202.983881 
L 303.022609 174.140831 
L 303.187213 166.349843 
L 303.352943 174.140831 
L 303.517339 168.087635 
L 303.682755 176.499082 
L 303.847549 176.499082 
L 304.013353 190.414442 
L 304.180209 190.414442 
L 304.345955 227.288943 
L 305.172393 227.288943 
L 305.338322 235.861403 
L 305.503547 235.861403 
L 305.672539 227.288943 
L 305.835387 227.288943 
L 306.001432 219.3594 
L 306.33482 219.3594 
L 306.497901 213.336154 
L 307.325291 213.336154 
L 307.49064 219.3594 
L 307.656726 219.3594 
L 307.824376 211.459178 
L 307.987183 219.3594 
L 308.15423 211.459178 
L 308.320531 211.459178 
L 308.485971 202.983881 
L 308.650202 202.983881 
L 308.816429 200.89572 
L 308.981305 166.349843 
L 309.147987 158.587547 
L 309.313088 158.587547 
L 309.478362 164.378242 
L 309.643678 164.378242 
L 309.812132 172.150357 
L 309.97609 200.89572 
L 310.140379 200.89572 
L 310.307243 214.686829 
L 310.471698 214.686829 
L 310.647769 223.183497 
L 311.135312 223.183497 
L 311.301357 231.103626 
L 311.965998 231.103626 
L 312.127745 194.387227 
L 312.295438 202.258426 
L 312.458907 202.258426 
L 312.625821 231.103626 
L 312.78987 231.103626 
L 312.954714 202.258426 
L 313.12123 231.103626 
L 313.287423 194.387227 
L 313.455289 188.384367 
L 313.618568 188.384367 
L 313.784331 179.951192 
L 314.282274 179.951192 
L 314.445901 172.150357 
L 314.610993 172.150357 
L 314.778031 164.378242 
L 314.942709 164.378242 
L 315.274119 123.596737 
L 315.441397 123.596737 
L 315.605082 142.556587 
L 315.853569 158.587547 
L 316.267471 158.587547 
L 316.433954 195.144055 
L 316.602425 195.144055 
L 316.76428 202.983881 
L 317.096592 202.983881 
L 317.344094 189.152147 
L 318.422472 189.152147 
L 318.585353 196.981821 
L 319.251005 196.981821 
L 319.413282 205.446149 
L 320.075804 205.446149 
L 320.243396 211.459178 
L 320.408812 205.446149 
L 320.573945 211.459178 
L 320.820851 195.144055 
L 321.072517 195.144055 
L 321.23732 193.075021 
L 321.401791 193.075021 
L 321.567562 200.89572 
L 321.897755 200.89572 
L 322.063758 214.686829 
L 322.230249 223.183497 
L 322.395466 223.183497 
L 322.642852 237.725861 
L 322.726139 237.725861 
L 322.890602 245.686621 
L 323.057756 237.725861 
L 323.88927 237.725861 
L 324.05283 229.794515 
L 324.464836 256.463491 
L 324.548016 256.463491 
L 324.713787 236.118691 
L 324.878316 236.118691 
L 325.127507 221.285806 
L 325.54184 221.285806 
L 325.707992 229.794515 
L 325.873564 214.686829 
L 326.037944 214.686829 
L 326.204742 223.183497 
L 326.699762 178.1321 
L 326.865666 178.1321 
L 327.031065 170.349865 
L 327.199618 170.349865 
L 327.364246 168.621183 
L 327.861129 168.621183 
L 328.026006 205.573229 
L 328.192539 205.573229 
L 328.355951 219.717058 
L 328.522359 221.285806 
L 328.688205 221.285806 
L 328.853364 236.118691 
L 329.020203 229.794515 
L 330.012868 229.794515 
L 330.261446 244.06076 
L 330.50903 244.06076 
L 330.674917 237.725861 
L 330.840001 244.06076 
L 331.005375 237.725861 
L 331.337365 237.725861 
L 331.502283 244.06076 
L 331.668187 237.725861 
L 332.331122 237.725861 
L 332.910994 194.387227 
L 332.993636 194.387227 
L 333.241212 178.1321 
L 333.326544 178.1321 
L 333.490469 151.467953 
L 333.656124 151.467953 
L 333.821978 178.1321 
L 333.988164 192.59783 
L 334.152105 192.59783 
L 334.321668 201.054142 
L 334.651033 201.054142 
L 334.817318 208.936681 
L 334.983536 208.936681 
L 335.145921 202.258426 
L 335.311253 208.936681 
L 335.808012 208.936681 
L 335.974073 201.054142 
L 336.970066 201.054142 
L 337.132525 194.387227 
L 337.299456 194.387227 
L 337.466005 201.054142 
L 337.630402 201.054142 
L 337.79465 194.387227 
L 338.627116 194.387227 
L 338.789434 185.943086 
L 338.955909 185.943086 
L 339.119875 145.438937 
L 339.285928 145.438937 
L 339.450805 151.467953 
L 339.616088 145.438937 
L 339.782935 151.467953 
L 339.951141 151.467953 
L 340.114809 159.233653 
L 340.279909 185.943086 
L 340.445796 194.387227 
L 340.610152 194.387227 
L 340.941553 216.848487 
L 341.122303 210.158859 
L 341.273741 216.848487 
L 341.439264 216.848487 
L 341.604845 183.309216 
L 341.852488 198.555702 
L 342.100991 198.555702 
L 342.266456 191.800841 
L 342.598578 191.800841 
L 342.766684 164.883581 
L 342.93041 191.800841 
L 343.094103 164.883581 
L 343.757138 164.883581 
L 343.923423 156.441486 
L 344.58457 156.441486 
L 344.751542 148.632612 
L 344.915963 148.632612 
L 345.081188 134.754247 
L 345.248665 134.754247 
L 345.416721 126.419287 
L 345.909183 126.419287 
L 346.083424 132.506541 
L 346.242663 161.578523 
L 346.406182 167.62887 
L 346.57129 167.62887 
L 346.738171 194.387227 
L 346.903653 202.258426 
L 347.071245 167.62887 
L 347.401902 167.62887 
L 347.566199 194.387227 
L 347.897468 194.387227 
L 348.062329 202.258426 
L 348.229549 202.258426 
L 348.396214 194.387227 
L 348.559816 194.387227 
L 348.729222 196.245352 
L 348.89029 196.245352 
L 349.05535 202.258426 
L 350.381635 202.258426 
L 350.546032 201.054142 
L 350.711662 201.054142 
L 351.043039 178.1321 
L 351.211021 178.1321 
L 351.373629 176.982108 
L 351.540195 170.349865 
L 351.870744 170.349865 
L 352.036821 178.1321 
L 352.367354 192.59783 
L 352.534681 221.285806 
L 352.698598 229.794515 
L 353.029851 229.794515 
L 353.19563 236.118691 
L 353.694285 236.118691 
L 353.858061 227.59847 
L 354.188874 227.59847 
L 354.354497 254.170183 
L 354.852141 254.170183 
L 355.348776 221.285806 
L 356.509398 221.285806 
L 356.673819 184.775576 
L 356.921454 170.349865 
L 357.004608 170.349865 
L 357.171183 162.000999 
L 357.501408 162.000999 
L 357.667933 135.430469 
L 358.164344 135.430469 
L 358.329652 170.349865 
L 358.49534 170.349865 
L 358.660697 178.1321 
L 358.82598 178.1321 
L 358.991494 214.686829 
L 359.160818 185.943086 
L 360.152737 185.943086 
L 360.40062 172.150357 
L 361.14426 172.150357 
L 361.310552 145.438937 
L 361.475272 145.438937 
L 361.641151 172.150357 
L 361.807419 172.150357 
L 361.97189 166.349843 
L 362.139458 166.349843 
L 362.309402 139.59246 
L 362.468914 139.59246 
L 363.215037 81.716692 
L 363.793634 81.716692 
L 363.959207 75.619485 
L 364.124713 89.301681 
L 364.292355 96.914914 
L 364.457133 96.914914 
L 364.622416 123.596737 
L 364.78822 131.875514 
L 364.953039 131.875514 
L 365.118239 139.59246 
L 365.61653 139.59246 
L 365.781829 145.438937 
L 365.946631 145.438937 
L 366.113172 153.194384 
L 366.277329 145.438937 
L 366.444317 153.194384 
L 366.608491 145.438937 
L 367.106806 145.438937 
L 367.273819 172.150357 
L 367.438282 172.150357 
L 367.603076 145.438937 
L 367.769146 145.438937 
L 367.933683 179.951192 
L 368.103892 153.194384 
L 368.431518 153.194384 
L 368.678672 137.712074 
L 368.927441 137.712074 
L 369.093452 129.42265 
L 369.258528 129.42265 
L 369.508075 115.938307 
L 369.590989 115.938307 
L 369.756156 95.163985 
L 369.922192 95.163985 
L 370.086655 121.754364 
L 370.335026 137.712074 
L 370.585327 137.712074 
L 370.83311 153.194384 
L 370.914998 153.194384 
L 371.082888 179.951192 
L 371.245687 153.194384 
L 371.411748 147.337959 
L 371.577619 147.337959 
L 371.743862 153.194384 
L 372.406764 153.194384 
L 372.570416 161.578523 
L 373.067547 161.578523 
L 373.234122 194.387227 
L 373.401855 188.384367 
L 373.564521 194.387227 
L 373.730467 194.387227 
L 373.89666 167.62887 
L 374.557874 167.62887 
L 374.724075 159.233653 
L 374.890285 159.233653 
L 375.219998 137.712074 
L 375.385512 137.712074 
L 375.551623 129.42265 
L 375.717891 135.430469 
L 376.048009 135.430469 
L 376.297631 150.415348 
L 376.71511 150.415348 
L 376.876095 184.775576 
L 377.041651 184.775576 
L 377.208267 191.130659 
L 377.374949 191.130659 
L 377.539975 213.415051 
L 377.705191 219.717058 
L 378.035309 219.717058 
L 378.201089 213.415051 
L 379.525801 213.415051 
L 379.69144 192.59783 
L 380.685943 192.59783 
L 380.850381 178.1321 
L 381.016732 170.349865 
L 381.181592 170.349865 
L 381.348572 162.000999 
L 381.513789 129.42265 
L 381.678483 127.752025 
L 381.844693 121.754364 
L 382.009413 121.754364 
L 382.174919 129.42265 
L 382.341444 129.42265 
L 382.589244 143.730867 
L 382.671719 143.730867 
L 382.838807 151.467953 
L 383.665792 151.467953 
L 383.837036 158.163781 
L 383.997177 132.506541 
L 384.162203 132.506541 
L 384.328247 139.266887 
L 384.493431 139.266887 
L 384.659078 132.506541 
L 384.825793 139.266887 
L 385.819194 139.266887 
L 385.994968 165.940862 
L 386.150596 139.266887 
L 386.315009 132.506541 
L 386.481948 139.266887 
L 386.728862 124.786257 
L 386.979841 124.786257 
L 387.143004 117.09445 
L 387.308957 117.09445 
L 387.475855 108.842659 
L 387.651496 80.190542 
L 387.806528 80.190542 
L 387.972895 66.508556 
L 388.137201 66.508556 
L 388.302583 74.083036 
L 388.470341 111.02788 
L 388.634398 111.02788 
L 388.7993 118.709361 
L 388.965651 118.709361 
L 389.134784 151.467953 
L 389.295893 159.233653 
L 389.46164 153.194384 
L 390.28975 153.194384 
L 390.455455 126.419287 
L 390.620813 153.194384 
L 390.787114 153.194384 
L 390.951775 126.419287 
L 391.117654 126.419287 
L 391.284253 161.578523 
L 391.388257 155.71135 
L 391.615978 134.754247 
L 391.781227 134.754247 
L 391.947438 142.523744 
L 392.276877 142.523744 
L 392.444337 136.599689 
L 392.608287 142.523744 
L 393.104946 142.523744 
L 393.270966 134.754247 
L 393.436489 105.846179 
L 393.684131 89.903583 
L 393.768321 89.903583 
L 393.934936 63.137425 
L 394.263904 63.137425 
L 394.429584 89.903583 
L 394.595264 89.903583 
L 394.763594 103.703963 
L 394.926061 97.564339 
L 395.094002 134.754247 
L 395.257132 142.523744 
L 395.588508 142.523744 
L 395.756134 113.566191 
L 395.919521 142.523744 
L 396.085226 113.566191 
L 397.908651 113.566191 
L 398.073627 107.590978 
L 398.23973 105.846179 
L 398.405269 107.590978 
L 398.487273 107.590978 
L 398.487273 107.590978 
" clip-path="url(#p7737b75d2b)" style="fill: none; stroke: #1f77b4; stroke-width: 1.5; stroke-linecap: square"/>
   </g>
   <g id="patch_3">
    <path d="M 57.6 307.584 
L 57.6 41.472 
" style="fill: none; stroke: #000000; stroke-width: 0.8; stroke-linejoin: miter; stroke-linecap: square"/>
   </g>
   <g id="patch_4">
    <path d="M 414.72 307.584 
L 414.72 41.472 
" style="fill: none; stroke: #000000; stroke-width: 0.8; stroke-linejoin: miter; stroke-linecap: square"/>
   </g>
   <g id="patch_5">
    <path d="M 57.6 307.584 
L 414.72 307.584 
" style="fill: none; stroke: #000000; stroke-width: 0.8; stroke-linejoin: miter; stroke-linecap: square"/>
   </g>
   <g id="patch_6">
    <path d="M 57.6 41.472 
L 414.72 41.472 
" style="fill: none; stroke: #000000; stroke-width: 0.8; stroke-linejoin: miter; stroke-linecap: square"/>
   </g>
   <g id="text_18">
    <!-- Oskar-Tyholt-vinkel -->
    <g transform="translate(180.149063 35.472) scale(0.12 -0.12)">
     <defs>
      <path id="DejaVuSans-4f" d="M 2522 4238 
Q 1834 4238 1429 3725 
Q 1025 3213 1025 2328 
Q 1025 1447 1429 934 
Q 1834 422 2522 422 
Q 3209 422 3611 934 
Q 4013 1447 4013 2328 
Q 4013 3213 3611 3725 
Q 3209 4238 2522 4238 
z
M 2522 4750 
Q 3503 4750 4090 4092 
Q 4678 3434 4678 2328 
Q 4678 1225 4090 567 
Q 3503 -91 2522 -91 
Q 1538 -91 948 565 
Q 359 1222 359 2328 
Q 359 3434 948 4092 
Q 1538 4750 2522 4750 
z
" transform="scale(0.015625)"/>
      <path id="DejaVuSans-6b" d="M 581 4863 
L 1159 4863 
L 1159 1991 
L 2875 3500 
L 3609 3500 
L 1753 1863 
L 3688 0 
L 2938 0 
L 1159 1709 
L 1159 0 
L 581 0 
L 581 4863 
z
" transform="scale(0.015625)"/>
      <path id="DejaVuSans-61" d="M 2194 1759 
Q 1497 1759 1228 1600 
Q 959 1441 959 1056 
Q 959 750 1161 570 
Q 1363 391 1709 391 
Q 2188 391 2477 730 
Q 2766 1069 2766 1631 
L 2766 1759 
L 2194 1759 
z
M 3341 1997 
L 3341 0 
L 2766 0 
L 2766 531 
Q 2569 213 2275 61 
Q 1981 -91 1556 -91 
Q 1019 -91 701 211 
Q 384 513 384 1019 
Q 384 1609 779 1909 
Q 1175 2209 1959 2209 
L 2766 2209 
L 2766 2266 
Q 2766 2663 2505 2880 
Q 2244 3097 1772 3097 
Q 1472 3097 1187 3025 
Q 903 2953 641 2809 
L 641 3341 
Q 956 3463 1253 3523 
Q 1550 3584 1831 3584 
Q 2591 3584 2966 3190 
Q 3341 2797 3341 1997 
z
" transform="scale(0.015625)"/>
      <path id="DejaVuSans-72" d="M 2631 2963 
Q 2534 3019 2420 3045 
Q 2306 3072 2169 3072 
Q 1681 3072 1420 2755 
Q 1159 2438 1159 1844 
L 1159 0 
L 581 0 
L 581 3500 
L 1159 3500 
L 1159 2956 
Q 1341 3275 1631 3429 
Q 1922 3584 2338 3584 
Q 2397 3584 2469 3576 
Q 2541 3569 2628 3553 
L 2631 2963 
z
" transform="scale(0.015625)"/>
      <path id="DejaVuSans-2d" d="M 313 2009 
L 1997 2009 
L 1997 1497 
L 313 1497 
L 313 2009 
z
" transform="scale(0.015625)"/>
      <path id="DejaVuSans-54" d="M -19 4666 
L 3928 4666 
L 3928 4134 
L 2272 4134 
L 2272 0 
L 1638 0 
L 1638 4134 
L -19 4134 
L -19 4666 
z
" transform="scale(0.015625)"/>
      <path id="DejaVuSans-79" d="M 2059 -325 
Q 1816 -950 1584 -1140 
Q 1353 -1331 966 -1331 
L 506 -1331 
L 506 -850 
L 844 -850 
Q 1081 -850 1212 -737 
Q 1344 -625 1503 -206 
L 1606 56 
L 191 3500 
L 800 3500 
L 1894 763 
L 2988 3500 
L 3597 3500 
L 2059 -325 
z
" transform="scale(0.015625)"/>
      <path id="DejaVuSans-68" d="M 3513 2113 
L 3513 0 
L 2938 0 
L 2938 2094 
Q 2938 2591 2744 2837 
Q 2550 3084 2163 3084 
Q 1697 3084 1428 2787 
Q 1159 2491 1159 1978 
L 1159 0 
L 581 0 
L 581 4863 
L 1159 4863 
L 1159 2956 
Q 1366 3272 1645 3428 
Q 1925 3584 2291 3584 
Q 2894 3584 3203 3211 
Q 3513 2838 3513 2113 
z
" transform="scale(0.015625)"/>
      <path id="DejaVuSans-6f" d="M 1959 3097 
Q 1497 3097 1228 2736 
Q 959 2375 959 1747 
Q 959 1119 1226 758 
Q 1494 397 1959 397 
Q 2419 397 2687 759 
Q 2956 1122 2956 1747 
Q 2956 2369 2687 2733 
Q 2419 3097 1959 3097 
z
M 1959 3584 
Q 2709 3584 3137 3096 
Q 3566 2609 3566 1747 
Q 3566 888 3137 398 
Q 2709 -91 1959 -91 
Q 1206 -91 779 398 
Q 353 888 353 1747 
Q 353 2609 779 3096 
Q 1206 3584 1959 3584 
z
" transform="scale(0.015625)"/>
      <path id="DejaVuSans-6c" d="M 603 4863 
L 1178 4863 
L 1178 0 
L 603 0 
L 603 4863 
z
" transform="scale(0.015625)"/>
      <path id="DejaVuSans-76" d="M 191 3500 
L 800 3500 
L 1894 563 
L 2988 3500 
L 3597 3500 
L 2284 0 
L 1503 0 
L 191 3500 
z
" transform="scale(0.015625)"/>
      <path id="DejaVuSans-6e" d="M 3513 2113 
L 3513 0 
L 2938 0 
L 2938 2094 
Q 2938 2591 2744 2837 
Q 2550 3084 2163 3084 
Q 1697 3084 1428 2787 
Q 1159 2491 1159 1978 
L 1159 0 
L 581 0 
L 581 3500 
L 1159 3500 
L 1159 2956 
Q 1366 3272 1645 3428 
Q 1925 3584 2291 3584 
Q 2894 3584 3203 3211 
Q 3513 2838 3513 2113 
z
" transform="scale(0.015625)"/>
     </defs>
     <use xlink:href="#DejaVuSans-4f"/>
     <use xlink:href="#DejaVuSans-73" x="78.710938"/>
     <use xlink:href="#DejaVuSans-6b" x="130.810547"/>
     <use xlink:href="#DejaVuSans-61" x="186.970703"/>
     <use xlink:href="#DejaVuSans-72" x="248.25"/>
     <use xlink:href="#DejaVuSans-2d" x="282.988281"/>
     <use xlink:href="#DejaVuSans-54" x="309.947266"/>
     <use xlink:href="#DejaVuSans-79" x="355.40625"/>
     <use xlink:href="#DejaVuSans-68" x="414.585938"/>
     <use xlink:href="#DejaVuSans-6f" x="477.964844"/>
     <use xlink:href="#DejaVuSans-6c" x="539.146484"/>
     <use xlink:href="#DejaVuSans-74" x="566.929688"/>
     <use xlink:href="#DejaVuSans-2d" x="606.138672"/>
     <use xlink:href="#DejaVuSans-76" x="639.597656"/>
     <use xlink:href="#DejaVuSans-69" x="698.777344"/>
     <use xlink:href="#DejaVuSans-6e" x="726.560547"/>
     <use xlink:href="#DejaVuSans-6b" x="789.939453"/>
     <use xlink:href="#DejaVuSans-65" x="844.224609"/>
     <use xlink:href="#DejaVuSans-6c" x="905.748047"/>
    </g>
   </g>
   <g id="legend_1">
    <g id="patch_7">
     <path d="M 64.6 302.584 
L 189.951562 302.584 
Q 191.951562 302.584 191.951562 300.584 
L 191.951562 286.905875 
Q 191.951562 284.905875 189.951562 284.905875 
L 64.6 284.905875 
Q 62.6 284.905875 62.6 286.905875 
L 62.6 300.584 
Q 62.6 302.584 64.6 302.584 
z
" style="fill: #ffffff; opacity: 0.8; stroke: #cccccc; stroke-linejoin: miter"/>
    </g>
    <g id="line2d_17">
     <path d="M 66.6 293.004312 
L 76.6 293.004312 
L 86.6 293.004312 
" style="fill: none; stroke: #1f77b4; stroke-width: 1.5; stroke-linecap: square"/>
    </g>
    <g id="text_19">
     <!-- Oskar-Tyholt-vinkel -->
     <g transform="translate(94.6 296.504312) scale(0.1 -0.1)">
      <use xlink:href="#DejaVuSans-4f"/>
      <use xlink:href="#DejaVuSans-73" x="78.710938"/>
      <use xlink:href="#DejaVuSans-6b" x="130.810547"/>
      <use xlink:href="#DejaVuSans-61" x="186.970703"/>
      <use xlink:href="#DejaVuSans-72" x="248.25"/>
      <use xlink:href="#DejaVuSans-2d" x="282.988281"/>
      <use xlink:href="#DejaVuSans-54" x="309.947266"/>
      <use xlink:href="#DejaVuSans-79" x="355.40625"/>
      <use xlink:href="#DejaVuSans-68" x="414.585938"/>
      <use xlink:href="#DejaVuSans-6f" x="477.964844"/>
      <use xlink:href="#DejaVuSans-6c" x="539.146484"/>
      <use xlink:href="#DejaVuSans-74" x="566.929688"/>
      <use xlink:href="#DejaVuSans-2d" x="606.138672"/>
      <use xlink:href="#DejaVuSans-76" x="639.597656"/>
      <use xlink:href="#DejaVuSans-69" x="698.777344"/>
      <use xlink:href="#DejaVuSans-6e" x="726.560547"/>
      <use xlink:href="#DejaVuSans-6b" x="789.939453"/>
      <use xlink:href="#DejaVuSans-65" x="844.224609"/>
      <use xlink:href="#DejaVuSans-6c" x="905.748047"/>
     </g>
    </g>
   </g>
  </g>
 </g>
 <defs>
  <clipPath id="p7737b75d2b">
   <rect x="57.6" y="41.472" width="357.12" height="266.112"/>
  </clipPath>
 </defs>
</svg>
