<?xml version="1.0" encoding="utf-8" standalone="no"?>
<!DOCTYPE svg PUBLIC "-//W3C//DTD SVG 1.1//EN"
  "http://www.w3.org/Graphics/SVG/1.1/DTD/svg11.dtd">
<svg xmlns:xlink="http://www.w3.org/1999/xlink" width="634.457991pt" height="458.691562pt" viewBox="0 0 634.457991 458.691562" xmlns="http://www.w3.org/2000/svg" version="1.1">
 <metadata>
  <rdf:RDF xmlns:dc="http://purl.org/dc/elements/1.1/" xmlns:cc="http://creativecommons.org/ns#" xmlns:rdf="http://www.w3.org/1999/02/22-rdf-syntax-ns#">
   <cc:Work>
    <dc:type rdf:resource="http://purl.org/dc/dcmitype/StillImage"/>
    <dc:date>2023-04-10T19:04:21.524950</dc:date>
    <dc:format>image/svg+xml</dc:format>
    <dc:creator>
     <cc:Agent>
      <dc:title>Matplotlib v3.7.1, https://matplotlib.org/</dc:title>
     </cc:Agent>
    </dc:creator>
   </cc:Work>
  </rdf:RDF>
 </metadata>
 <defs>
  <style type="text/css">*{stroke-linejoin: round; stroke-linecap: butt}</style>
 </defs>
 <g id="figure_1">
  <g id="patch_1">
   <path d="M 0 458.691562 
L 634.457991 458.691562 
L 634.457991 0 
L 0 0 
L 0 458.691562 
z
" style="fill: none"/>
  </g>
  <g id="axes_1">
   <g id="patch_2">
    <path d="M 62.798438 414.957187 
L 620.798437 414.957187 
L 620.798437 26.877187 
L 62.798438 26.877187 
L 62.798438 414.957187 
z
" style="fill: none"/>
   </g>
   <g id="matplotlib.axis_1">
    <g id="xtick_1">
     <g id="line2d_1">
      <path d="M 100.222646 414.957187 
L 100.222646 26.877187 
" clip-path="url(#pc832860daf)" style="fill: none; stroke: #808080; stroke-width: 0.8; stroke-linecap: square"/>
     </g>
     <g id="line2d_2">
      <defs>
       <path id="m71ea77e7de" d="M 0 0 
L 0 -5 
" style="stroke: #808080; stroke-width: 0.8"/>
      </defs>
      <g>
       <use xlink:href="#m71ea77e7de" x="100.222646" y="414.957187" style="fill: #808080; stroke: #808080; stroke-width: 0.8"/>
      </g>
     </g>
     <g id="text_1">
      <!-- 50 -->
      <g style="fill: #808080" transform="translate(90.678896 429.854844) scale(0.15 -0.15)">
       <defs>
        <path id="DejaVuSans-35" d="M 691 4666 
L 3169 4666 
L 3169 4134 
L 1269 4134 
L 1269 2991 
Q 1406 3038 1543 3061 
Q 1681 3084 1819 3084 
Q 2600 3084 3056 2656 
Q 3513 2228 3513 1497 
Q 3513 744 3044 326 
Q 2575 -91 1722 -91 
Q 1428 -91 1123 -41 
Q 819 9 494 109 
L 494 744 
Q 775 591 1075 516 
Q 1375 441 1709 441 
Q 2250 441 2565 725 
Q 2881 1009 2881 1497 
Q 2881 1984 2565 2268 
Q 2250 2553 1709 2553 
Q 1456 2553 1204 2497 
Q 953 2441 691 2322 
L 691 4666 
z
" transform="scale(0.015625)"/>
        <path id="DejaVuSans-30" d="M 2034 4250 
Q 1547 4250 1301 3770 
Q 1056 3291 1056 2328 
Q 1056 1369 1301 889 
Q 1547 409 2034 409 
Q 2525 409 2770 889 
Q 3016 1369 3016 2328 
Q 3016 3291 2770 3770 
Q 2525 4250 2034 4250 
z
M 2034 4750 
Q 2819 4750 3233 4129 
Q 3647 3509 3647 2328 
Q 3647 1150 3233 529 
Q 2819 -91 2034 -91 
Q 1250 -91 836 529 
Q 422 1150 422 2328 
Q 422 3509 836 4129 
Q 1250 4750 2034 4750 
z
" transform="scale(0.015625)"/>
       </defs>
       <use xlink:href="#DejaVuSans-35"/>
       <use xlink:href="#DejaVuSans-30" x="63.623047"/>
      </g>
     </g>
    </g>
    <g id="xtick_2">
     <g id="line2d_3">
      <path d="M 164.909096 414.957187 
L 164.909096 26.877187 
" clip-path="url(#pc832860daf)" style="fill: none; stroke: #808080; stroke-width: 0.8; stroke-linecap: square"/>
     </g>
     <g id="line2d_4">
      <g>
       <use xlink:href="#m71ea77e7de" x="164.909096" y="414.957187" style="fill: #808080; stroke: #808080; stroke-width: 0.8"/>
      </g>
     </g>
     <g id="text_2">
      <!-- 55 -->
      <g style="fill: #808080" transform="translate(155.365346 429.854844) scale(0.15 -0.15)">
       <use xlink:href="#DejaVuSans-35"/>
       <use xlink:href="#DejaVuSans-35" x="63.623047"/>
      </g>
     </g>
    </g>
    <g id="xtick_3">
     <g id="line2d_5">
      <path d="M 229.595545 414.957187 
L 229.595545 26.877187 
" clip-path="url(#pc832860daf)" style="fill: none; stroke: #808080; stroke-width: 0.8; stroke-linecap: square"/>
     </g>
     <g id="line2d_6">
      <g>
       <use xlink:href="#m71ea77e7de" x="229.595545" y="414.957187" style="fill: #808080; stroke: #808080; stroke-width: 0.8"/>
      </g>
     </g>
     <g id="text_3">
      <!-- 60 -->
      <g style="fill: #808080" transform="translate(220.051795 429.854844) scale(0.15 -0.15)">
       <defs>
        <path id="DejaVuSans-36" d="M 2113 2584 
Q 1688 2584 1439 2293 
Q 1191 2003 1191 1497 
Q 1191 994 1439 701 
Q 1688 409 2113 409 
Q 2538 409 2786 701 
Q 3034 994 3034 1497 
Q 3034 2003 2786 2293 
Q 2538 2584 2113 2584 
z
M 3366 4563 
L 3366 3988 
Q 3128 4100 2886 4159 
Q 2644 4219 2406 4219 
Q 1781 4219 1451 3797 
Q 1122 3375 1075 2522 
Q 1259 2794 1537 2939 
Q 1816 3084 2150 3084 
Q 2853 3084 3261 2657 
Q 3669 2231 3669 1497 
Q 3669 778 3244 343 
Q 2819 -91 2113 -91 
Q 1303 -91 875 529 
Q 447 1150 447 2328 
Q 447 3434 972 4092 
Q 1497 4750 2381 4750 
Q 2619 4750 2861 4703 
Q 3103 4656 3366 4563 
z
" transform="scale(0.015625)"/>
       </defs>
       <use xlink:href="#DejaVuSans-36"/>
       <use xlink:href="#DejaVuSans-30" x="63.623047"/>
      </g>
     </g>
    </g>
    <g id="xtick_4">
     <g id="line2d_7">
      <path d="M 294.281995 414.957187 
L 294.281995 26.877187 
" clip-path="url(#pc832860daf)" style="fill: none; stroke: #808080; stroke-width: 0.8; stroke-linecap: square"/>
     </g>
     <g id="line2d_8">
      <g>
       <use xlink:href="#m71ea77e7de" x="294.281995" y="414.957187" style="fill: #808080; stroke: #808080; stroke-width: 0.8"/>
      </g>
     </g>
     <g id="text_4">
      <!-- 65 -->
      <g style="fill: #808080" transform="translate(284.738245 429.854844) scale(0.15 -0.15)">
       <use xlink:href="#DejaVuSans-36"/>
       <use xlink:href="#DejaVuSans-35" x="63.623047"/>
      </g>
     </g>
    </g>
    <g id="xtick_5">
     <g id="line2d_9">
      <path d="M 358.968444 414.957187 
L 358.968444 26.877187 
" clip-path="url(#pc832860daf)" style="fill: none; stroke: #808080; stroke-width: 0.8; stroke-linecap: square"/>
     </g>
     <g id="line2d_10">
      <g>
       <use xlink:href="#m71ea77e7de" x="358.968444" y="414.957187" style="fill: #808080; stroke: #808080; stroke-width: 0.8"/>
      </g>
     </g>
     <g id="text_5">
      <!-- 70 -->
      <g style="fill: #808080" transform="translate(349.424694 429.854844) scale(0.15 -0.15)">
       <defs>
        <path id="DejaVuSans-37" d="M 525 4666 
L 3525 4666 
L 3525 4397 
L 1831 0 
L 1172 0 
L 2766 4134 
L 525 4134 
L 525 4666 
z
" transform="scale(0.015625)"/>
       </defs>
       <use xlink:href="#DejaVuSans-37"/>
       <use xlink:href="#DejaVuSans-30" x="63.623047"/>
      </g>
     </g>
    </g>
    <g id="xtick_6">
     <g id="line2d_11">
      <path d="M 423.654893 414.957187 
L 423.654893 26.877187 
" clip-path="url(#pc832860daf)" style="fill: none; stroke: #808080; stroke-width: 0.8; stroke-linecap: square"/>
     </g>
     <g id="line2d_12">
      <g>
       <use xlink:href="#m71ea77e7de" x="423.654893" y="414.957187" style="fill: #808080; stroke: #808080; stroke-width: 0.8"/>
      </g>
     </g>
     <g id="text_6">
      <!-- 75 -->
      <g style="fill: #808080" transform="translate(414.111143 429.854844) scale(0.15 -0.15)">
       <use xlink:href="#DejaVuSans-37"/>
       <use xlink:href="#DejaVuSans-35" x="63.623047"/>
      </g>
     </g>
    </g>
    <g id="xtick_7">
     <g id="line2d_13">
      <path d="M 488.341343 414.957187 
L 488.341343 26.877187 
" clip-path="url(#pc832860daf)" style="fill: none; stroke: #808080; stroke-width: 0.8; stroke-linecap: square"/>
     </g>
     <g id="line2d_14">
      <g>
       <use xlink:href="#m71ea77e7de" x="488.341343" y="414.957187" style="fill: #808080; stroke: #808080; stroke-width: 0.8"/>
      </g>
     </g>
     <g id="text_7">
      <!-- 80 -->
      <g style="fill: #808080" transform="translate(478.797593 429.854844) scale(0.15 -0.15)">
       <defs>
        <path id="DejaVuSans-38" d="M 2034 2216 
Q 1584 2216 1326 1975 
Q 1069 1734 1069 1313 
Q 1069 891 1326 650 
Q 1584 409 2034 409 
Q 2484 409 2743 651 
Q 3003 894 3003 1313 
Q 3003 1734 2745 1975 
Q 2488 2216 2034 2216 
z
M 1403 2484 
Q 997 2584 770 2862 
Q 544 3141 544 3541 
Q 544 4100 942 4425 
Q 1341 4750 2034 4750 
Q 2731 4750 3128 4425 
Q 3525 4100 3525 3541 
Q 3525 3141 3298 2862 
Q 3072 2584 2669 2484 
Q 3125 2378 3379 2068 
Q 3634 1759 3634 1313 
Q 3634 634 3220 271 
Q 2806 -91 2034 -91 
Q 1263 -91 848 271 
Q 434 634 434 1313 
Q 434 1759 690 2068 
Q 947 2378 1403 2484 
z
M 1172 3481 
Q 1172 3119 1398 2916 
Q 1625 2713 2034 2713 
Q 2441 2713 2670 2916 
Q 2900 3119 2900 3481 
Q 2900 3844 2670 4047 
Q 2441 4250 2034 4250 
Q 1625 4250 1398 4047 
Q 1172 3844 1172 3481 
z
" transform="scale(0.015625)"/>
       </defs>
       <use xlink:href="#DejaVuSans-38"/>
       <use xlink:href="#DejaVuSans-30" x="63.623047"/>
      </g>
     </g>
    </g>
    <g id="xtick_8">
     <g id="line2d_15">
      <path d="M 553.027792 414.957187 
L 553.027792 26.877187 
" clip-path="url(#pc832860daf)" style="fill: none; stroke: #808080; stroke-width: 0.8; stroke-linecap: square"/>
     </g>
     <g id="line2d_16">
      <g>
       <use xlink:href="#m71ea77e7de" x="553.027792" y="414.957187" style="fill: #808080; stroke: #808080; stroke-width: 0.8"/>
      </g>
     </g>
     <g id="text_8">
      <!-- 85 -->
      <g style="fill: #808080" transform="translate(543.484042 429.854844) scale(0.15 -0.15)">
       <use xlink:href="#DejaVuSans-38"/>
       <use xlink:href="#DejaVuSans-35" x="63.623047"/>
      </g>
     </g>
    </g>
    <g id="xtick_9">
     <g id="line2d_17">
      <path d="M 617.714241 414.957187 
L 617.714241 26.877187 
" clip-path="url(#pc832860daf)" style="fill: none; stroke: #808080; stroke-width: 0.8; stroke-linecap: square"/>
     </g>
     <g id="line2d_18">
      <g>
       <use xlink:href="#m71ea77e7de" x="617.714241" y="414.957187" style="fill: #808080; stroke: #808080; stroke-width: 0.8"/>
      </g>
     </g>
     <g id="text_9">
      <!-- 90 -->
      <g style="fill: #808080" transform="translate(608.170491 429.854844) scale(0.15 -0.15)">
       <defs>
        <path id="DejaVuSans-39" d="M 703 97 
L 703 672 
Q 941 559 1184 500 
Q 1428 441 1663 441 
Q 2288 441 2617 861 
Q 2947 1281 2994 2138 
Q 2813 1869 2534 1725 
Q 2256 1581 1919 1581 
Q 1219 1581 811 2004 
Q 403 2428 403 3163 
Q 403 3881 828 4315 
Q 1253 4750 1959 4750 
Q 2769 4750 3195 4129 
Q 3622 3509 3622 2328 
Q 3622 1225 3098 567 
Q 2575 -91 1691 -91 
Q 1453 -91 1209 -44 
Q 966 3 703 97 
z
M 1959 2075 
Q 2384 2075 2632 2365 
Q 2881 2656 2881 3163 
Q 2881 3666 2632 3958 
Q 2384 4250 1959 4250 
Q 1534 4250 1286 3958 
Q 1038 3666 1038 3163 
Q 1038 2656 1286 2365 
Q 1534 2075 1959 2075 
z
" transform="scale(0.015625)"/>
       </defs>
       <use xlink:href="#DejaVuSans-39"/>
       <use xlink:href="#DejaVuSans-30" x="63.623047"/>
      </g>
     </g>
    </g>
    <g id="text_10">
     <!-- time [s] -->
     <g style="fill: #808080" transform="translate(312.711328 448.372031) scale(0.15 -0.15)">
      <defs>
       <path id="DejaVuSans-74" d="M 1172 4494 
L 1172 3500 
L 2356 3500 
L 2356 3053 
L 1172 3053 
L 1172 1153 
Q 1172 725 1289 603 
Q 1406 481 1766 481 
L 2356 481 
L 2356 0 
L 1766 0 
Q 1100 0 847 248 
Q 594 497 594 1153 
L 594 3053 
L 172 3053 
L 172 3500 
L 594 3500 
L 594 4494 
L 1172 4494 
z
" transform="scale(0.015625)"/>
       <path id="DejaVuSans-69" d="M 603 3500 
L 1178 3500 
L 1178 0 
L 603 0 
L 603 3500 
z
M 603 4863 
L 1178 4863 
L 1178 4134 
L 603 4134 
L 603 4863 
z
" transform="scale(0.015625)"/>
       <path id="DejaVuSans-6d" d="M 3328 2828 
Q 3544 3216 3844 3400 
Q 4144 3584 4550 3584 
Q 5097 3584 5394 3201 
Q 5691 2819 5691 2113 
L 5691 0 
L 5113 0 
L 5113 2094 
Q 5113 2597 4934 2840 
Q 4756 3084 4391 3084 
Q 3944 3084 3684 2787 
Q 3425 2491 3425 1978 
L 3425 0 
L 2847 0 
L 2847 2094 
Q 2847 2600 2669 2842 
Q 2491 3084 2119 3084 
Q 1678 3084 1418 2786 
Q 1159 2488 1159 1978 
L 1159 0 
L 581 0 
L 581 3500 
L 1159 3500 
L 1159 2956 
Q 1356 3278 1631 3431 
Q 1906 3584 2284 3584 
Q 2666 3584 2933 3390 
Q 3200 3197 3328 2828 
z
" transform="scale(0.015625)"/>
       <path id="DejaVuSans-65" d="M 3597 1894 
L 3597 1613 
L 953 1613 
Q 991 1019 1311 708 
Q 1631 397 2203 397 
Q 2534 397 2845 478 
Q 3156 559 3463 722 
L 3463 178 
Q 3153 47 2828 -22 
Q 2503 -91 2169 -91 
Q 1331 -91 842 396 
Q 353 884 353 1716 
Q 353 2575 817 3079 
Q 1281 3584 2069 3584 
Q 2775 3584 3186 3129 
Q 3597 2675 3597 1894 
z
M 3022 2063 
Q 3016 2534 2758 2815 
Q 2500 3097 2075 3097 
Q 1594 3097 1305 2825 
Q 1016 2553 972 2059 
L 3022 2063 
z
" transform="scale(0.015625)"/>
       <path id="DejaVuSans-20" transform="scale(0.015625)"/>
       <path id="DejaVuSans-5b" d="M 550 4863 
L 1875 4863 
L 1875 4416 
L 1125 4416 
L 1125 -397 
L 1875 -397 
L 1875 -844 
L 550 -844 
L 550 4863 
z
" transform="scale(0.015625)"/>
       <path id="DejaVuSans-73" d="M 2834 3397 
L 2834 2853 
Q 2591 2978 2328 3040 
Q 2066 3103 1784 3103 
Q 1356 3103 1142 2972 
Q 928 2841 928 2578 
Q 928 2378 1081 2264 
Q 1234 2150 1697 2047 
L 1894 2003 
Q 2506 1872 2764 1633 
Q 3022 1394 3022 966 
Q 3022 478 2636 193 
Q 2250 -91 1575 -91 
Q 1294 -91 989 -36 
Q 684 19 347 128 
L 347 722 
Q 666 556 975 473 
Q 1284 391 1588 391 
Q 1994 391 2212 530 
Q 2431 669 2431 922 
Q 2431 1156 2273 1281 
Q 2116 1406 1581 1522 
L 1381 1569 
Q 847 1681 609 1914 
Q 372 2147 372 2553 
Q 372 3047 722 3315 
Q 1072 3584 1716 3584 
Q 2034 3584 2315 3537 
Q 2597 3491 2834 3397 
z
" transform="scale(0.015625)"/>
       <path id="DejaVuSans-5d" d="M 1947 4863 
L 1947 -844 
L 622 -844 
L 622 -397 
L 1369 -397 
L 1369 4416 
L 622 4416 
L 622 4863 
L 1947 4863 
z
" transform="scale(0.015625)"/>
      </defs>
      <use xlink:href="#DejaVuSans-74"/>
      <use xlink:href="#DejaVuSans-69" x="39.208984"/>
      <use xlink:href="#DejaVuSans-6d" x="66.992188"/>
      <use xlink:href="#DejaVuSans-65" x="164.404297"/>
      <use xlink:href="#DejaVuSans-20" x="225.927734"/>
      <use xlink:href="#DejaVuSans-5b" x="257.714844"/>
      <use xlink:href="#DejaVuSans-73" x="296.728516"/>
      <use xlink:href="#DejaVuSans-5d" x="348.828125"/>
     </g>
    </g>
   </g>
   <g id="matplotlib.axis_2">
    <g id="ytick_1">
     <g id="line2d_19">
      <path d="M 62.798438 343.893551 
L 620.798437 343.893551 
" clip-path="url(#pc832860daf)" style="fill: none; stroke: #808080; stroke-width: 0.8; stroke-linecap: square"/>
     </g>
     <g id="line2d_20">
      <defs>
       <path id="mc4489eefda" d="M 0 0 
L 5 0 
" style="stroke: #808080; stroke-width: 0.8"/>
      </defs>
      <g>
       <use xlink:href="#mc4489eefda" x="62.798438" y="343.893551" style="fill: #808080; stroke: #808080; stroke-width: 0.8"/>
      </g>
     </g>
     <g id="text_11">
      <!-- 73.8 -->
      <g style="fill: #808080" transform="translate(25.9 349.592379) scale(0.15 -0.15)">
       <defs>
        <path id="DejaVuSans-33" d="M 2597 2516 
Q 3050 2419 3304 2112 
Q 3559 1806 3559 1356 
Q 3559 666 3084 287 
Q 2609 -91 1734 -91 
Q 1441 -91 1130 -33 
Q 819 25 488 141 
L 488 750 
Q 750 597 1062 519 
Q 1375 441 1716 441 
Q 2309 441 2620 675 
Q 2931 909 2931 1356 
Q 2931 1769 2642 2001 
Q 2353 2234 1838 2234 
L 1294 2234 
L 1294 2753 
L 1863 2753 
Q 2328 2753 2575 2939 
Q 2822 3125 2822 3475 
Q 2822 3834 2567 4026 
Q 2313 4219 1838 4219 
Q 1578 4219 1281 4162 
Q 984 4106 628 3988 
L 628 4550 
Q 988 4650 1302 4700 
Q 1616 4750 1894 4750 
Q 2613 4750 3031 4423 
Q 3450 4097 3450 3541 
Q 3450 3153 3228 2886 
Q 3006 2619 2597 2516 
z
" transform="scale(0.015625)"/>
        <path id="DejaVuSans-2e" d="M 684 794 
L 1344 794 
L 1344 0 
L 684 0 
L 684 794 
z
" transform="scale(0.015625)"/>
       </defs>
       <use xlink:href="#DejaVuSans-37"/>
       <use xlink:href="#DejaVuSans-33" x="63.623047"/>
       <use xlink:href="#DejaVuSans-2e" x="127.246094"/>
       <use xlink:href="#DejaVuSans-38" x="159.033203"/>
      </g>
     </g>
    </g>
    <g id="ytick_2">
     <g id="line2d_21">
      <path d="M 62.798438 260.872148 
L 620.798437 260.872148 
" clip-path="url(#pc832860daf)" style="fill: none; stroke: #808080; stroke-width: 0.8; stroke-linecap: square"/>
     </g>
     <g id="line2d_22">
      <g>
       <use xlink:href="#mc4489eefda" x="62.798438" y="260.872148" style="fill: #808080; stroke: #808080; stroke-width: 0.8"/>
      </g>
     </g>
     <g id="text_12">
      <!-- 74.0 -->
      <g style="fill: #808080" transform="translate(25.9 266.570976) scale(0.15 -0.15)">
       <defs>
        <path id="DejaVuSans-34" d="M 2419 4116 
L 825 1625 
L 2419 1625 
L 2419 4116 
z
M 2253 4666 
L 3047 4666 
L 3047 1625 
L 3713 1625 
L 3713 1100 
L 3047 1100 
L 3047 0 
L 2419 0 
L 2419 1100 
L 313 1100 
L 313 1709 
L 2253 4666 
z
" transform="scale(0.015625)"/>
       </defs>
       <use xlink:href="#DejaVuSans-37"/>
       <use xlink:href="#DejaVuSans-34" x="63.623047"/>
       <use xlink:href="#DejaVuSans-2e" x="127.246094"/>
       <use xlink:href="#DejaVuSans-30" x="159.033203"/>
      </g>
     </g>
    </g>
    <g id="ytick_3">
     <g id="line2d_23">
      <path d="M 62.798438 177.850745 
L 620.798437 177.850745 
" clip-path="url(#pc832860daf)" style="fill: none; stroke: #808080; stroke-width: 0.8; stroke-linecap: square"/>
     </g>
     <g id="line2d_24">
      <g>
       <use xlink:href="#mc4489eefda" x="62.798438" y="177.850745" style="fill: #808080; stroke: #808080; stroke-width: 0.8"/>
      </g>
     </g>
     <g id="text_13">
      <!-- 74.2 -->
      <g style="fill: #808080" transform="translate(25.9 183.549573) scale(0.15 -0.15)">
       <defs>
        <path id="DejaVuSans-32" d="M 1228 531 
L 3431 531 
L 3431 0 
L 469 0 
L 469 531 
Q 828 903 1448 1529 
Q 2069 2156 2228 2338 
Q 2531 2678 2651 2914 
Q 2772 3150 2772 3378 
Q 2772 3750 2511 3984 
Q 2250 4219 1831 4219 
Q 1534 4219 1204 4116 
Q 875 4013 500 3803 
L 500 4441 
Q 881 4594 1212 4672 
Q 1544 4750 1819 4750 
Q 2544 4750 2975 4387 
Q 3406 4025 3406 3419 
Q 3406 3131 3298 2873 
Q 3191 2616 2906 2266 
Q 2828 2175 2409 1742 
Q 1991 1309 1228 531 
z
" transform="scale(0.015625)"/>
       </defs>
       <use xlink:href="#DejaVuSans-37"/>
       <use xlink:href="#DejaVuSans-34" x="63.623047"/>
       <use xlink:href="#DejaVuSans-2e" x="127.246094"/>
       <use xlink:href="#DejaVuSans-32" x="159.033203"/>
      </g>
     </g>
    </g>
    <g id="ytick_4">
     <g id="line2d_25">
      <path d="M 62.798438 94.829342 
L 620.798437 94.829342 
" clip-path="url(#pc832860daf)" style="fill: none; stroke: #808080; stroke-width: 0.8; stroke-linecap: square"/>
     </g>
     <g id="line2d_26">
      <g>
       <use xlink:href="#mc4489eefda" x="62.798438" y="94.829342" style="fill: #808080; stroke: #808080; stroke-width: 0.8"/>
      </g>
     </g>
     <g id="text_14">
      <!-- 74.4 -->
      <g style="fill: #808080" transform="translate(25.9 100.52817) scale(0.15 -0.15)">
       <use xlink:href="#DejaVuSans-37"/>
       <use xlink:href="#DejaVuSans-34" x="63.623047"/>
       <use xlink:href="#DejaVuSans-2e" x="127.246094"/>
       <use xlink:href="#DejaVuSans-34" x="159.033203"/>
      </g>
     </g>
    </g>
    <g id="text_15">
     <!-- $\theta$ [deg] -->
     <g style="fill: #808080" transform="translate(18.75 247.917187) rotate(-90) scale(0.15 -0.15)">
      <defs>
       <path id="DejaVuSans-Oblique-3b8" d="M 2913 2219 
L 925 2219 
Q 791 1284 928 888 
Q 1100 400 1566 400 
Q 2034 400 2391 891 
Q 2703 1322 2913 2219 
z
M 3009 2750 
Q 3094 3638 2984 3950 
Q 2813 4444 2353 4444 
Q 1875 4444 1525 3956 
Q 1250 3563 1034 2750 
L 3009 2750 
z
M 2444 4913 
Q 3194 4913 3494 4250 
Q 3794 3591 3566 2422 
Q 3341 1256 2781 594 
Q 2225 -72 1475 -72 
Q 722 -72 425 594 
Q 128 1256 353 2422 
Q 581 3591 1134 4250 
Q 1691 4913 2444 4913 
z
" transform="scale(0.015625)"/>
       <path id="DejaVuSans-64" d="M 2906 2969 
L 2906 4863 
L 3481 4863 
L 3481 0 
L 2906 0 
L 2906 525 
Q 2725 213 2448 61 
Q 2172 -91 1784 -91 
Q 1150 -91 751 415 
Q 353 922 353 1747 
Q 353 2572 751 3078 
Q 1150 3584 1784 3584 
Q 2172 3584 2448 3432 
Q 2725 3281 2906 2969 
z
M 947 1747 
Q 947 1113 1208 752 
Q 1469 391 1925 391 
Q 2381 391 2643 752 
Q 2906 1113 2906 1747 
Q 2906 2381 2643 2742 
Q 2381 3103 1925 3103 
Q 1469 3103 1208 2742 
Q 947 2381 947 1747 
z
" transform="scale(0.015625)"/>
       <path id="DejaVuSans-67" d="M 2906 1791 
Q 2906 2416 2648 2759 
Q 2391 3103 1925 3103 
Q 1463 3103 1205 2759 
Q 947 2416 947 1791 
Q 947 1169 1205 825 
Q 1463 481 1925 481 
Q 2391 481 2648 825 
Q 2906 1169 2906 1791 
z
M 3481 434 
Q 3481 -459 3084 -895 
Q 2688 -1331 1869 -1331 
Q 1566 -1331 1297 -1286 
Q 1028 -1241 775 -1147 
L 775 -588 
Q 1028 -725 1275 -790 
Q 1522 -856 1778 -856 
Q 2344 -856 2625 -561 
Q 2906 -266 2906 331 
L 2906 616 
Q 2728 306 2450 153 
Q 2172 0 1784 0 
Q 1141 0 747 490 
Q 353 981 353 1791 
Q 353 2603 747 3093 
Q 1141 3584 1784 3584 
Q 2172 3584 2450 3431 
Q 2728 3278 2906 2969 
L 2906 3500 
L 3481 3500 
L 3481 434 
z
" transform="scale(0.015625)"/>
      </defs>
      <use xlink:href="#DejaVuSans-Oblique-3b8" transform="translate(0 0.234375)"/>
      <use xlink:href="#DejaVuSans-20" transform="translate(61.181641 0.234375)"/>
      <use xlink:href="#DejaVuSans-5b" transform="translate(92.96875 0.234375)"/>
      <use xlink:href="#DejaVuSans-64" transform="translate(131.982422 0.234375)"/>
      <use xlink:href="#DejaVuSans-65" transform="translate(195.458984 0.234375)"/>
      <use xlink:href="#DejaVuSans-67" transform="translate(256.982422 0.234375)"/>
      <use xlink:href="#DejaVuSans-5d" transform="translate(320.458984 0.234375)"/>
     </g>
    </g>
   </g>
   <g id="line2d_27">
    <path d="M 88.162074 93.637723 
L 88.293944 105.916801 
L 88.681196 105.916801 
L 88.810478 174.725945 
L 89.197264 174.725945 
L 89.326973 188.153537 
L 89.45698 188.153537 
L 89.585564 200.670131 
L 90.232674 200.670131 
L 90.364001 213.233283 
L 90.493167 213.233283 
L 90.620676 200.670131 
L 91.526675 200.670131 
L 91.655491 213.233283 
L 92.303844 213.233283 
L 92.431509 200.670131 
L 92.561723 200.670131 
L 92.691988 213.233283 
L 92.8225 213.233283 
L 92.94944 200.670131 
L 93.07915 200.670131 
L 93.209777 223.953222 
L 93.597417 223.953222 
L 93.726195 213.233283 
L 93.870187 213.233283 
L 93.984579 223.953222 
L 94.374108 223.953222 
L 94.501695 213.233283 
L 95.150474 213.233283 
L 95.280028 226.815155 
L 95.408703 226.815155 
L 95.537105 213.233283 
L 95.924849 213.233283 
L 96.057986 200.670131 
L 96.184811 200.670131 
L 96.315063 188.153537 
L 96.444359 188.153537 
L 96.575271 142.046548 
L 97.739459 142.046548 
L 97.866607 188.153537 
L 97.994647 188.153537 
L 98.124757 211.371783 
L 98.257908 211.371783 
L 98.383633 223.953222 
L 98.770923 223.953222 
L 98.900658 237.55485 
L 99.289126 237.55485 
L 99.417684 292.280483 
L 100.066231 292.280483 
L 100.193805 280.482481 
L 100.58345 280.482481 
L 100.711801 293.235006 
L 101.103012 293.235006 
L 101.229189 280.482481 
L 101.360451 280.482481 
L 101.487612 293.235006 
L 101.617386 293.235006 
L 101.746888 305.053168 
L 102.652692 305.053168 
L 102.783592 316.325557 
L 103.172306 316.325557 
L 103.300217 292.280483 
L 104.723875 292.280483 
L 104.852239 249.44566 
L 104.980408 249.44566 
L 105.115771 235.82217 
L 105.499634 235.82217 
L 105.629809 223.220495 
L 105.759647 223.220495 
L 105.886769 211.371783 
L 106.016841 211.371783 
L 106.145994 198.836957 
L 106.276246 198.836957 
L 106.407223 139.458316 
L 107.052484 139.458316 
L 107.18227 185.389794 
L 107.309845 185.389794 
L 107.439438 198.836957 
L 107.570079 198.836957 
L 107.698404 210.665495 
L 107.827738 210.665495 
L 107.958805 211.371783 
L 108.087635 211.371783 
L 108.217137 223.220495 
L 108.345863 223.220495 
L 108.475003 278.578354 
L 109.380937 278.578354 
L 109.510362 266.801994 
L 109.63976 266.801994 
L 109.769754 280.482481 
L 109.897031 280.482481 
L 110.026818 266.801994 
L 111.195379 266.801994 
L 111.323264 278.578354 
L 111.451693 278.578354 
L 111.582333 266.801994 
L 112.743636 266.801994 
L 112.872647 309.624909 
L 113.00211 309.624909 
L 113.131509 299.071697 
L 113.77761 299.071697 
L 113.907345 359.07136 
L 114.300781 359.07136 
L 114.426182 345.246966 
L 114.556176 345.246966 
L 114.684178 286.362399 
L 115.072284 286.362399 
L 115.203209 263.469541 
L 115.332013 263.469541 
L 115.461515 249.904206 
L 115.592389 249.904206 
L 115.720196 207.141988 
L 116.106322 207.141988 
L 116.23814 194.666252 
L 116.366996 194.666252 
L 116.495075 183.925028 
L 116.624577 183.925028 
L 116.753976 196.382506 
L 116.883349 196.382506 
L 117.013149 239.228888 
L 117.402639 239.228888 
L 117.53218 263.469541 
L 117.918268 263.469541 
L 118.049064 311.673921 
L 119.476111 311.673921 
L 119.60018 298.968713 
L 119.987768 298.968713 
L 120.118241 341.832382 
L 120.505881 341.832382 
L 120.636431 298.968713 
L 121.799144 298.968713 
L 121.929811 285.338642 
L 122.057424 285.338642 
L 122.188996 298.968713 
L 123.093119 298.968713 
L 123.222906 311.673921 
L 123.612861 311.673921 
L 123.740203 298.968713 
L 124.647107 298.968713 
L 124.776597 285.338642 
L 125.680538 285.338642 
L 125.809523 239.228888 
L 125.938624 239.228888 
L 126.06964 249.904206 
L 126.200902 249.904206 
L 126.329589 285.338642 
L 126.456931 285.338642 
L 126.586549 298.968713 
L 126.974991 298.968713 
L 127.104688 322.297089 
L 127.234708 322.297089 
L 127.362424 335.067476 
L 129.302889 335.067476 
L 129.433348 324.42626 
L 129.568789 324.42626 
L 129.691137 335.067476 
L 131.890256 335.067476 
L 132.020496 288.806302 
L 132.667891 288.806302 
L 132.796461 278.075024 
L 132.9252 278.075024 
L 133.057264 265.401413 
L 133.185175 265.401413 
L 133.313293 222.403442 
L 133.444684 222.403442 
L 133.573889 200.144068 
L 133.704051 200.144068 
L 133.833269 186.694511 
L 134.221362 186.694511 
L 134.348574 174.253482 
L 134.480858 174.253482 
L 134.607604 131.374788 
L 135.781741 131.374788 
L 135.902446 196.382506 
L 136.03178 196.382506 
L 136.16004 209.849832 
L 136.550682 209.849832 
L 136.677985 222.403442 
L 136.808884 222.403442 
L 136.936097 233.201022 
L 137.067319 233.201022 
L 137.194558 222.403442 
L 137.324655 222.403442 
L 137.454753 233.201022 
L 137.843324 233.201022 
L 137.978001 222.403442 
L 138.102393 222.403442 
L 138.229761 209.849832 
L 138.359198 209.849832 
L 138.489348 220.629039 
L 138.620933 220.629039 
L 138.747434 209.849832 
L 139.396666 209.849832 
L 139.523399 220.629039 
L 139.660716 220.629039 
L 139.783051 209.849832 
L 139.913187 209.849832 
L 140.042353 220.629039 
L 142.758213 220.629039 
L 142.88791 207.141988 
L 143.274566 207.141988 
L 143.405453 164.352485 
L 143.535913 164.352485 
L 143.665454 128.784201 
L 145.346887 128.784201 
L 145.475005 141.123142 
L 145.605594 141.123142 
L 145.735084 151.94942 
L 145.864405 151.94942 
L 145.993002 220.629039 
L 146.382272 220.629039 
L 146.509148 233.201022 
L 148.994699 233.201022 
L 149.226923 245.819732 
L 150.78051 245.819732 
L 150.907904 190.259877 
L 151.298093 190.259877 
L 151.429872 202.80523 
L 151.556321 202.80523 
L 151.683546 190.259877 
L 152.333839 190.259877 
L 152.461815 177.761027 
L 152.59001 177.761027 
L 152.719888 164.352485 
L 153.113181 164.352485 
L 153.237108 141.123142 
L 153.366675 141.123142 
L 153.5002 82.737211 
L 153.884412 82.737211 
L 154.014458 93.637723 
L 154.144659 93.637723 
L 154.27341 126.335105 
L 154.401671 126.335105 
L 154.530772 128.784201 
L 154.92131 128.784201 
L 155.049725 141.123142 
L 155.202191 141.123142 
L 155.307799 194.666252 
L 155.696111 194.666252 
L 155.828447 207.141988 
L 155.953499 207.141988 
L 156.083092 194.666252 
L 157.768898 194.666252 
L 157.894855 204.940963 
L 158.023853 204.940963 
L 158.152527 151.94942 
L 158.544812 151.94942 
L 158.671093 194.666252 
L 159.835798 194.666252 
L 159.966271 151.94942 
L 160.35338 151.94942 
L 160.483141 164.352485 
L 161.129851 164.352485 
L 161.258848 174.725945 
L 161.389761 174.725945 
L 161.524761 164.352485 
L 161.647355 164.352485 
L 161.775822 151.94942 
L 161.906075 151.94942 
L 162.035564 105.916801 
L 162.164937 105.916801 
L 162.293275 93.637723 
L 162.944331 93.637723 
L 163.068879 26.877188 
L 163.459417 26.877188 
L 163.587379 39.951788 
L 163.71793 39.951788 
L 163.845789 94.9977 
L 164.494439 94.9977 
L 164.622596 107.303628 
L 164.752369 107.303628 
L 164.882389 153.507763 
L 165.009809 153.507763 
L 165.139078 166.89638 
L 165.268593 166.89638 
L 165.397876 190.259877 
L 165.53122 190.259877 
L 165.658161 179.376669 
L 165.786046 179.376669 
L 165.917735 190.259877 
L 167.081819 190.259877 
L 167.209885 143.984975 
L 167.6012 143.984975 
L 167.72748 190.259877 
L 168.377825 190.259877 
L 168.504015 202.80523 
L 168.891772 202.80523 
L 169.021106 190.259877 
L 169.408384 190.259877 
L 169.537537 202.80523 
L 169.672887 202.80523 
L 169.79724 245.819732 
L 170.445346 245.819732 
L 170.574033 256.165943 
L 170.704364 256.165943 
L 170.831395 245.819732 
L 170.960897 245.819732 
L 171.090438 233.201022 
L 171.219915 233.201022 
L 171.350116 220.629039 
L 171.477716 220.629039 
L 171.607425 207.141988 
L 172.257304 207.141988 
L 172.384659 151.94942 
L 172.771329 151.94942 
L 172.90347 194.666252 
L 173.548239 194.666252 
L 173.677819 207.141988 
L 174.067645 207.141988 
L 174.19804 263.469541 
L 174.330505 263.469541 
L 174.454522 273.700103 
L 174.585577 273.700103 
L 174.713785 286.362399 
L 174.84365 286.362399 
L 174.972738 319.718921 
L 175.101956 319.718921 
L 175.230332 332.459324 
L 177.172465 332.459324 
L 177.302239 319.718921 
L 177.689711 319.718921 
L 177.819058 263.469541 
L 178.467346 263.469541 
L 178.59483 276.114447 
L 178.724073 276.114447 
L 178.854999 263.469541 
L 178.983595 263.469541 
L 179.113809 276.114447 
L 179.241474 276.114447 
L 179.372025 265.401413 
L 179.502018 265.401413 
L 179.629257 276.114447 
L 179.75969 276.114447 
L 179.905649 265.401413 
L 180.27691 265.401413 
L 180.407655 243.14511 
L 180.794906 243.14511 
L 180.922416 186.694511 
L 181.05514 186.694511 
L 181.181447 174.253482 
L 181.830925 174.253482 
L 181.960828 152.495492 
L 182.608986 152.495492 
L 182.74039 161.858306 
L 182.865028 161.858306 
L 182.99281 174.253482 
L 183.382636 174.253482 
L 183.511699 164.874759 
L 183.641356 164.874759 
L 183.769319 177.299829 
L 183.901577 177.299829 
L 184.030251 190.732145 
L 184.157205 190.732145 
L 184.285918 246.401688 
L 184.935059 246.401688 
L 185.06363 233.807255 
L 185.71052 233.807255 
L 185.84164 243.14511 
L 186.234597 243.14511 
L 186.356337 233.807255 
L 186.486499 233.807255 
L 186.622573 243.14511 
L 188.301019 243.14511 
L 188.428981 255.75544 
L 188.555883 255.75544 
L 188.68699 243.14511 
L 189.590892 243.14511 
L 189.722115 255.75544 
L 190.108681 255.75544 
L 190.240215 200.144068 
L 190.367324 200.144068 
L 190.496981 177.299829 
L 191.146808 177.299829 
L 191.275289 164.874759 
L 191.922011 164.874759 
L 192.049391 174.253482 
L 192.180239 174.253482 
L 192.308396 164.874759 
L 192.437756 164.874759 
L 192.567323 177.299829 
L 192.695648 177.299829 
L 192.828087 190.732145 
L 192.957524 190.732145 
L 193.084957 203.253141 
L 193.214291 203.253141 
L 193.343483 212.681124 
L 193.473282 212.681124 
L 193.602966 268.412614 
L 193.731123 268.412614 
L 193.860547 225.2648 
L 194.507541 225.2648 
L 194.638829 212.681124 
L 194.768033 212.681124 
L 194.895155 268.412614 
L 195.028565 268.412614 
L 195.154095 225.2648 
L 195.542731 225.2648 
L 195.671677 268.412614 
L 195.799834 268.412614 
L 195.932972 225.2648 
L 196.320586 225.2648 
L 196.447682 268.412614 
L 197.09866 268.412614 
L 197.223803 255.75544 
L 198.130629 255.75544 
L 198.260545 243.14511 
L 198.912158 243.14511 
L 199.034532 289.42009 
L 199.166013 289.42009 
L 199.293821 243.14511 
L 199.425121 243.14511 
L 199.552049 275.80742 
L 199.680917 275.80742 
L 199.813007 217.103051 
L 199.940336 217.103051 
L 200.071106 263.215405 
L 200.458914 263.215405 
L 200.58755 250.6697 
L 200.718359 250.6697 
L 200.848495 191.259739 
L 201.496614 191.259739 
L 201.623361 237.210486 
L 201.752372 237.210486 
L 201.882223 250.6697 
L 202.0132 250.6697 
L 202.140659 263.215405 
L 202.271183 263.215405 
L 202.399197 275.80742 
L 202.789632 275.80742 
L 202.917193 341.832382 
L 204.598769 341.832382 
L 204.727922 332.357962 
L 204.857658 332.357962 
L 204.988402 345.119783 
L 205.116196 345.119783 
L 205.246048 354.61025 
L 205.634982 354.61025 
L 205.762776 311.673921 
L 206.411504 311.673921 
L 206.541769 324.42626 
L 206.669616 324.42626 
L 206.797966 314.84517 
L 208.740526 314.84517 
L 208.868851 268.412614 
L 208.997202 268.412614 
L 209.127701 255.75544 
L 209.257216 255.75544 
L 209.384816 233.807255 
L 209.775277 233.807255 
L 209.902955 220.296104 
L 210.034605 220.296104 
L 210.161287 177.299829 
L 210.304554 177.299829 
L 210.427471 220.296104 
L 210.817867 220.296104 
L 210.939503 177.299829 
L 211.066354 177.299829 
L 211.195248 233.807255 
L 211.585605 233.807255 
L 211.715236 243.14511 
L 211.844389 243.14511 
L 211.97296 255.75544 
L 212.35972 255.75544 
L 212.49027 314.84517 
L 213.395958 314.84517 
L 213.529911 324.42626 
L 214.174641 324.42626 
L 214.301685 311.673921 
L 215.725718 311.673921 
L 215.8535 354.61025 
L 216.760896 354.61025 
L 216.888949 367.435469 
L 218.312129 367.435469 
L 218.441411 354.61025 
L 218.828533 354.61025 
L 218.958864 298.968713 
L 219.088495 298.968713 
L 219.217312 289.42009 
L 219.346413 289.42009 
L 219.47589 275.80742 
L 219.86362 275.80742 
L 219.993213 289.42009 
L 220.656391 289.42009 
L 220.77328 302.109088 
L 220.903701 302.109088 
L 221.028274 311.673921 
L 221.15722 311.673921 
L 221.289115 324.42626 
L 221.674854 324.42626 
L 221.806348 381.30046 
L 221.935825 381.30046 
L 222.063335 394.22485 
L 222.19294 394.22485 
L 222.322559 391.878428 
L 222.453264 391.878428 
L 222.581266 361.742443 
L 222.970963 361.742443 
L 223.098214 394.22485 
L 223.227652 394.22485 
L 223.357659 391.878428 
L 223.487019 391.878428 
L 223.615654 394.22485 
L 223.746023 394.22485 
L 223.874219 381.30046 
L 224.003618 381.30046 
L 224.134737 338.212518 
L 224.263127 338.212518 
L 224.392655 348.87323 
L 224.522364 348.87323 
L 224.650767 338.212518 
L 225.040503 338.212518 
L 225.17091 351.063569 
L 225.561487 351.063569 
L 225.685698 338.212518 
L 226.594012 338.212518 
L 226.72094 348.87323 
L 227.370017 348.87323 
L 227.497061 335.067476 
L 227.628116 335.067476 
L 227.755406 288.806302 
L 227.901144 288.806302 
L 228.015161 276.114447 
L 228.144909 276.114447 
L 228.272988 265.401413 
L 228.403603 265.401413 
L 228.532911 252.774697 
L 228.923785 252.774697 
L 229.049937 239.228888 
L 229.194226 239.228888 
L 229.308398 229.616892 
L 229.955159 229.616892 
L 230.084571 243.14511 
L 230.213853 243.14511 
L 230.343847 255.75544 
L 230.47419 255.75544 
L 230.604171 265.401413 
L 230.993415 265.401413 
L 231.123241 278.075024 
L 231.251877 278.075024 
L 231.378132 338.212518 
L 232.286704 338.212518 
L 232.413969 291.776228 
L 233.061234 291.776228 
L 233.189727 348.87323 
L 233.332128 348.87323 
L 233.452678 278.075024 
L 234.094225 278.075024 
L 234.225487 291.776228 
L 235.132339 291.776228 
L 235.259422 278.075024 
L 236.681968 278.075024 
L 236.816076 302.527216 
L 236.941089 302.527216 
L 237.07182 288.806302 
L 237.461012 288.806302 
L 237.588626 276.114447 
L 237.719344 276.114447 
L 237.846893 263.469541 
L 237.977327 263.469541 
L 238.107062 209.849832 
L 238.23518 209.849832 
L 238.365652 196.382506 
L 238.494831 196.382506 
L 238.625925 183.925028 
L 239.270486 183.925028 
L 239.401451 194.666252 
L 239.529051 194.666252 
L 239.659084 207.141988 
L 239.79424 207.141988 
L 239.917855 263.469541 
L 240.048522 263.469541 
L 240.175734 273.700103 
L 240.305547 273.700103 
L 240.435425 286.362399 
L 240.564073 286.362399 
L 240.692864 299.071697 
L 242.374686 299.071697 
L 242.505637 345.246966 
L 244.445027 345.246966 
L 244.576082 335.067476 
L 244.725831 335.067476 
L 244.832861 288.806302 
L 245.739287 288.806302 
L 245.86734 299.071697 
L 246.516184 299.071697 
L 246.644522 243.529613 
L 247.031916 243.529613 
L 247.164213 220.629039 
L 247.293443 220.629039 
L 247.420397 207.141988 
L 247.551387 207.141988 
L 247.679388 164.352485 
L 247.808477 164.352485 
L 247.938018 151.94942 
L 248.32778 151.94942 
L 248.455509 164.352485 
L 249.103952 164.352485 
L 249.491967 188.153537 
L 249.619904 188.153537 
L 249.749834 200.670131 
L 249.883191 200.670131 
L 250.010481 266.801994 
L 251.432263 266.801994 
L 251.574341 223.953222 
L 251.692018 223.953222 
L 251.818726 211.371783 
L 252.207362 211.371783 
L 252.33689 223.953222 
L 252.467156 223.953222 
L 252.595804 223.220495 
L 252.987701 223.220495 
L 253.118264 223.953222 
L 253.241996 223.953222 
L 253.371395 254.147561 
L 253.502023 254.147561 
L 253.631939 211.371783 
L 253.760704 211.371783 
L 253.889391 265.903888 
L 254.018699 265.903888 
L 254.148939 278.578354 
L 254.279735 278.578354 
L 254.406313 265.903888 
L 255.055028 265.903888 
L 255.184284 235.82217 
L 255.316167 235.82217 
L 255.441956 211.371783 
L 255.83296 211.371783 
L 255.960819 198.836957 
L 256.347489 198.836957 
L 256.478298 185.389794 
L 256.610038 185.389794 
L 256.73531 172.950981 
L 257.123157 172.950981 
L 257.254794 104.0643 
L 257.396328 104.0643 
L 257.511832 90.872239 
L 258.416395 90.872239 
L 258.546233 104.0643 
L 258.679384 104.0643 
L 258.80877 149.930342 
L 258.934792 149.930342 
L 259.068124 162.305248 
L 259.194935 162.305248 
L 259.323195 185.389794 
L 259.451973 185.389794 
L 259.58383 198.836957 
L 260.48966 198.836957 
L 260.616601 211.371783 
L 261.008277 211.371783 
L 261.135632 254.147561 
L 262.298423 254.147561 
L 262.430383 266.801994 
L 262.815591 266.801994 
L 262.946723 254.147561 
L 263.335812 254.147561 
L 263.46349 266.801994 
L 264.628144 266.801994 
L 264.76198 280.482481 
L 264.887213 280.482481 
L 265.015732 323.384029 
L 265.402906 323.384029 
L 265.531969 266.801994 
L 265.927345 266.801994 
L 266.054571 254.147561 
L 266.440257 254.147561 
L 266.568026 230.940063 
L 267.214864 230.940063 
L 267.344263 217.434154 
L 267.733585 217.434154 
L 267.862997 230.940063 
L 267.991529 230.940063 
L 268.128405 241.539963 
L 268.252176 241.539963 
L 268.379725 230.940063 
L 268.509745 230.940063 
L 268.639092 241.539963 
L 268.767042 241.539963 
L 268.895871 254.147561 
L 269.053447 254.147561 
L 269.414915 309.624909 
L 269.544857 309.624909 
L 269.675731 321.30983 
L 270.320099 321.30983 
L 270.448553 308.562778 
L 271.87419 308.562778 
L 272.001894 295.862842 
L 272.906884 295.862842 
L 273.040215 293.326042 
L 274.458867 293.326042 
L 274.591487 295.862842 
L 274.719295 295.862842 
L 274.84881 239.729594 
L 275.253566 239.729594 
L 275.366017 227.198621 
L 275.494704 227.198621 
L 275.624814 214.713775 
L 277.82352 214.713775 
L 277.952763 269.635546 
L 278.344427 269.635546 
L 278.471471 282.23843 
L 278.600494 282.23843 
L 278.731614 295.862842 
L 279.378802 295.862842 
L 279.505316 306.970689 
L 280.15187 306.970689 
L 280.280945 308.562778 
L 280.41143 308.562778 
L 280.539859 295.862842 
L 280.67037 295.862842 
L 280.799083 341.697197 
L 280.929388 341.697197 
L 281.072203 354.474836 
L 281.707216 354.474836 
L 281.836408 365.509298 
L 282.482535 365.509298 
L 282.61284 352.713013 
L 284.294856 352.713013 
L 284.421744 338.985165 
L 284.811222 338.985165 
L 284.939042 280.704427 
L 285.069942 280.704427 
L 285.198926 268.129213 
L 285.327898 268.129213 
L 285.458629 257.079005 
L 285.844575 257.079005 
L 285.979756 214.713775 
L 286.620152 214.713775 
L 286.749655 227.198621 
L 286.882339 227.198621 
L 287.013899 269.635546 
L 287.138963 269.635546 
L 287.267521 282.23843 
L 287.400918 282.23843 
L 287.526306 295.862842 
L 289.725011 295.862842 
L 289.854074 253.276318 
L 289.984456 253.276318 
L 290.115265 308.562778 
L 290.245013 308.562778 
L 290.372199 265.903888 
L 291.280513 265.903888 
L 291.407105 278.578354 
L 292.314759 278.578354 
L 292.444663 266.801994 
L 293.089612 266.801994 
L 293.223203 254.147561 
L 293.870015 254.147561 
L 293.994679 243.529613 
L 294.383173 243.529613 
L 294.513516 230.940063 
L 294.642954 230.940063 
L 294.777528 188.153537 
L 294.899694 188.153537 
L 295.029805 174.725945 
L 295.422943 174.725945 
L 295.548137 162.305248 
L 295.678455 162.305248 
L 295.806223 185.389794 
L 295.938611 185.389794 
L 296.064439 198.836957 
L 296.195817 198.836957 
L 296.323469 241.539963 
L 296.71327 241.539963 
L 296.849913 254.147561 
L 296.974758 254.147561 
L 297.099461 266.801994 
L 297.231007 266.801994 
L 297.359966 309.624909 
L 298.011798 309.624909 
L 298.13478 323.384029 
L 299.300029 323.384029 
L 299.428173 309.624909 
L 299.57527 309.624909 
L 299.687449 323.384029 
L 300.852064 323.384029 
L 300.980777 336.209802 
L 301.11658 336.209802 
L 301.23951 347.936106 
L 301.368921 347.936106 
L 301.498864 335.090376 
L 302.144978 335.090376 
L 302.274338 323.384029 
L 302.406518 323.384029 
L 302.534507 335.090376 
L 302.924605 335.090376 
L 303.053939 323.384029 
L 303.179909 323.384029 
L 303.319645 309.624909 
L 303.440298 309.624909 
L 303.568727 296.897689 
L 303.956095 296.897689 
L 304.087861 284.217525 
L 304.216225 284.217525 
L 304.34728 270.614339 
L 304.474039 270.614339 
L 304.603994 215.503553 
L 305.252127 215.503553 
L 305.380089 258.031104 
L 305.769088 258.031104 
L 305.899444 270.614339 
L 306.028338 270.614339 
L 306.159496 316.461835 
L 306.289853 316.461835 
L 306.416366 330.148666 
L 306.543721 330.148666 
L 306.673521 341.697197 
L 306.802933 341.697197 
L 306.9399 354.474836 
L 307.061665 354.474836 
L 307.192526 341.697197 
L 307.838149 341.697197 
L 307.967716 295.862842 
L 308.099171 295.862842 
L 308.227251 341.697197 
L 308.357568 341.697197 
L 308.48883 284.217525 
L 308.614541 284.217525 
L 308.742996 295.862842 
L 308.87233 295.862842 
L 309.002427 308.562778 
L 309.133133 308.562778 
L 309.26279 354.474836 
L 309.907468 354.474836 
L 310.036129 308.562778 
L 310.168103 308.562778 
L 310.297566 354.474836 
L 310.427211 354.474836 
L 310.557153 308.562778 
L 310.941908 308.562778 
L 311.071992 296.897689 
L 311.201818 296.897689 
L 311.331346 284.217525 
L 311.71887 284.217525 
L 311.848075 296.897689 
L 311.985029 296.897689 
L 312.106859 284.217525 
L 312.236491 284.217525 
L 312.367054 296.897689 
L 312.496026 296.897689 
L 312.626485 284.217525 
L 312.754759 284.217525 
L 312.882825 273.700103 
L 313.012754 273.700103 
L 313.142347 260.116099 
L 313.274333 260.116099 
L 313.401895 217.434154 
L 313.529314 217.434154 
L 313.66165 204.940963 
L 314.047543 204.940963 
L 314.177123 194.666252 
L 314.823664 194.666252 
L 314.954292 237.356007 
L 315.34113 237.356007 
L 315.471279 249.904206 
L 315.859501 249.904206 
L 315.98802 263.469541 
L 316.119942 263.469541 
L 316.247296 309.573889 
L 316.375997 309.573889 
L 316.505706 322.297089 
L 316.634962 322.297089 
L 316.764659 309.573889 
L 317.156076 309.573889 
L 317.28193 322.297089 
L 317.411497 322.297089 
L 317.540806 309.573889 
L 318.963636 309.573889 
L 319.09328 332.459324 
L 320.258193 332.459324 
L 320.386117 322.297089 
L 320.516266 322.297089 
L 320.646544 332.459324 
L 321.551391 332.459324 
L 321.681126 319.718921 
L 322.327991 319.718921 
L 322.460986 249.904206 
L 323.362922 249.904206 
L 323.491855 237.356007 
L 323.62586 237.356007 
L 323.752982 224.853986 
L 324.65735 224.853986 
L 324.786089 293.407969 
L 325.432746 293.407969 
L 325.561977 306.051066 
L 325.949721 306.051066 
L 326.078964 348.676523 
L 326.74125 348.676523 
L 326.855732 306.051066 
L 327.764641 306.051066 
L 327.890909 348.676523 
L 328.543686 348.676523 
L 328.667962 335.961568 
L 329.056028 335.961568 
L 329.183952 338.628172 
L 329.314981 338.628172 
L 329.446411 348.676523 
L 329.574038 348.676523 
L 329.702298 391.274287 
L 331.3839 391.274287 
L 331.512703 378.487684 
L 331.642464 378.487684 
L 331.772407 368.533341 
L 331.904522 368.533341 
L 332.032187 325.930142 
L 332.163967 325.930142 
L 332.291528 313.278741 
L 332.678625 313.278741 
L 332.809421 299.706057 
L 333.195082 299.706057 
L 333.3258 289.256488 
L 333.71507 289.256488 
L 333.841636 313.278741 
L 333.970672 313.278741 
L 334.103447 302.810226 
L 334.229547 302.810226 
L 334.359334 315.443978 
L 334.490816 315.443978 
L 334.62231 370.880301 
L 335.006936 370.880301 
L 335.13517 384.666149 
L 335.52488 384.666149 
L 335.655366 397.51646 
L 336.042566 397.51646 
L 336.172133 410.414341 
L 336.298893 410.414341 
L 336.429042 397.51646 
L 336.557638 397.51646 
L 336.688137 410.414341 
L 338.369842 410.414341 
L 338.499461 367.435469 
L 338.631124 367.435469 
L 338.75765 400.981383 
L 339.145911 400.981383 
L 339.276255 357.928909 
L 341.21721 357.928909 
L 341.34472 345.119783 
L 341.738376 345.119783 
L 341.863027 289.42009 
L 341.992969 289.42009 
L 342.122057 275.80742 
L 342.252905 275.80742 
L 342.38035 263.215405 
L 344.061862 263.215405 
L 344.190976 328.124306 
L 344.579353 328.124306 
L 344.709658 341.832382 
L 345.614686 341.832382 
L 345.746413 298.968713 
L 345.878619 298.968713 
L 346.002727 341.832382 
L 346.390276 341.832382 
L 346.523517 285.338642 
L 346.909243 285.338642 
L 347.039405 328.124306 
L 347.167587 328.124306 
L 347.296288 338.628172 
L 347.427601 338.628172 
L 347.571891 285.338642 
L 348.207176 285.338642 
L 348.331504 298.968713 
L 348.980205 298.968713 
L 349.107625 252.774697 
L 349.237813 252.774697 
L 349.369514 298.968713 
L 349.754554 298.968713 
L 349.884871 309.573889 
L 350.013481 309.573889 
L 350.14288 322.297089 
L 350.534556 322.297089 
L 350.660229 263.469541 
L 351.048153 263.469541 
L 351.177746 239.228888 
L 351.82452 239.228888 
L 351.953764 183.925028 
L 352.861405 183.925028 
L 352.989743 226.698764 
L 353.376697 226.698764 
L 353.506484 239.228888 
L 353.896 239.228888 
L 354.025942 252.774697 
L 354.156687 252.774697 
L 354.283162 322.297089 
L 354.672212 322.297089 
L 354.801908 309.573889 
L 354.931591 309.573889 
L 355.059761 322.297089 
L 356.222979 322.297089 
L 356.352999 309.573889 
L 357.000769 309.573889 
L 357.13084 298.968713 
L 357.517445 298.968713 
L 357.647853 328.124306 
L 358.292415 328.124306 
L 358.427622 285.338642 
L 359.069014 285.338642 
L 359.198491 328.124306 
L 360.103622 328.124306 
L 360.234612 285.338642 
L 360.365434 285.338642 
L 360.494859 272.73052 
L 361.138631 272.73052 
L 361.269026 260.168757 
L 361.399784 260.168757 
L 361.527475 204.635284 
L 362.173511 204.635284 
L 362.303609 272.73052 
L 362.435892 272.73052 
L 362.563389 285.338642 
L 362.951029 285.338642 
L 363.083106 298.968713 
L 363.726038 298.968713 
L 363.859188 341.832382 
L 364.506596 341.832382 
L 364.634533 298.968713 
L 365.278603 298.968713 
L 365.408791 311.673921 
L 365.539225 311.673921 
L 365.668507 298.968713 
L 365.796949 298.968713 
L 365.930552 311.673921 
L 366.056367 311.673921 
L 366.184757 309.573889 
L 366.31651 309.573889 
L 366.443619 298.968713 
L 366.573923 298.968713 
L 366.704215 311.673921 
L 366.832255 311.673921 
L 366.961434 298.968713 
L 367.866734 298.968713 
L 367.996585 309.573889 
L 368.128274 309.573889 
L 368.255085 295.924502 
L 368.386489 295.924502 
L 368.514103 309.573889 
L 368.64486 309.573889 
L 368.77312 295.924502 
L 369.161006 295.924502 
L 369.290327 283.298499 
L 369.68005 283.298499 
L 369.808673 270.71891 
L 369.936778 270.71891 
L 370.06804 260.168757 
L 370.195252 260.168757 
L 370.325944 246.692303 
L 370.45762 246.692303 
L 370.584017 200.821791 
L 370.713869 200.821791 
L 370.841651 188.432313 
L 371.4999 188.432313 
L 371.618768 200.821791 
L 371.754687 200.821791 
L 371.877488 270.71891 
L 372.26452 270.71891 
L 372.396726 283.298499 
L 372.7839 283.298499 
L 372.912044 295.924502 
L 373.046915 295.924502 
L 373.17132 362.422005 
L 373.560267 362.422005 
L 373.689122 375.234716 
L 373.817227 375.234716 
L 373.947415 365.151051 
L 374.076866 365.151051 
L 374.206459 362.422005 
L 374.337061 362.422005 
L 374.464997 352.355371 
L 374.858175 352.355371 
L 374.983899 375.234716 
L 375.113867 375.234716 
L 375.241261 362.422005 
L 375.370724 362.422005 
L 375.499761 352.355371 
L 375.629004 352.355371 
L 375.75839 365.151051 
L 376.923108 365.151051 
L 377.052766 375.234716 
L 377.181647 375.234716 
L 377.310891 377.994137 
L 377.441053 377.994137 
L 377.572056 388.094884 
L 377.977252 388.094884 
L 378.087736 375.234716 
L 378.216734 375.234716 
L 378.346249 388.094884 
L 378.734006 388.094884 
L 378.863404 375.234716 
L 379.25239 375.234716 
L 379.38109 332.459324 
L 379.511265 332.459324 
L 379.641854 309.573889 
L 380.028291 309.573889 
L 380.15932 249.904206 
L 380.544696 249.904206 
L 380.674444 237.356007 
L 380.803998 237.356007 
L 380.932944 283.298499 
L 381.063649 283.298499 
L 381.192013 306.051066 
L 381.587519 306.051066 
L 381.709298 319.718921 
L 381.840495 319.718921 
L 381.969531 332.459324 
L 382.099189 332.459324 
L 382.227397 342.906745 
L 382.357715 342.906745 
L 382.490917 398.479308 
L 382.614339 398.479308 
L 382.744436 409.977901 
L 383.132865 409.977901 
L 383.262639 367.299826 
L 384.687138 367.299826 
L 384.814092 355.712116 
L 384.944836 355.712116 
L 385.074558 367.299826 
L 385.204112 367.299826 
L 385.331855 342.906745 
L 385.46203 342.906745 
L 385.591959 367.299826 
L 387.01532 367.299826 
L 387.142662 354.474836 
L 388.30945 354.474836 
L 388.566592 295.862842 
L 388.695719 282.23843 
L 388.826735 282.23843 
L 388.956327 269.635546 
L 389.086606 269.635546 
L 389.215164 258.031104 
L 389.34442 258.031104 
L 389.471969 203.038492 
L 389.603464 203.038492 
L 389.731608 189.665853 
L 390.653894 189.665853 
L 390.765737 203.038492 
L 391.154179 203.038492 
L 391.283099 215.503553 
L 391.677182 215.503553 
L 391.801535 270.614339 
L 391.931568 270.614339 
L 392.059725 282.23843 
L 392.9669 282.23843 
L 393.094527 228.014678 
L 393.223097 228.014678 
L 393.353156 215.503553 
L 394.004096 215.503553 
L 394.129626 228.014678 
L 395.812095 228.014678 
L 395.942956 217.434154 
L 396.073338 217.434154 
L 396.199567 247.550619 
L 396.330272 247.550619 
L 396.45852 260.116099 
L 397.364893 260.116099 
L 397.493179 273.700103 
L 397.621491 273.700103 
L 397.752029 260.116099 
L 397.880975 260.116099 
L 398.011602 249.904206 
L 398.139927 249.904206 
L 398.269417 194.666252 
L 398.658195 194.666252 
L 398.787232 171.513454 
L 399.952985 171.513454 
L 400.080534 183.925028 
L 400.21155 183.925028 
L 400.343381 226.698764 
L 400.469506 226.698764 
L 400.598737 239.228888 
L 400.986403 239.228888 
L 401.117962 252.774697 
L 401.764128 252.774697 
L 401.893837 239.228888 
L 402.803161 239.228888 
L 402.928096 249.904206 
L 403.058413 249.904206 
L 403.186182 263.469541 
L 403.316046 263.469541 
L 403.447463 249.904206 
L 403.573343 249.904206 
L 403.703881 263.469541 
L 404.097239 263.469541 
L 404.220609 276.114447 
L 405.384124 276.114447 
L 405.515696 286.362399 
L 405.643193 286.362399 
L 405.772928 273.700103 
L 406.419224 273.700103 
L 406.549101 284.217525 
L 406.937944 284.217525 
L 407.067071 241.539963 
L 407.714829 241.539963 
L 407.842921 228.014678 
L 408.230367 228.014678 
L 408.362625 172.950981 
L 408.493964 172.950981 
L 408.619352 185.389794 
L 408.748363 185.389794 
L 408.877917 228.014678 
L 409.266501 228.014678 
L 409.396663 241.539963 
L 409.526502 241.539963 
L 409.656302 253.276318 
L 409.783359 253.276318 
L 409.913159 284.217525 
L 410.045313 284.217525 
L 410.171012 270.614339 
L 410.301549 270.614339 
L 410.560812 330.148666 
L 410.691078 342.906745 
L 411.077424 342.906745 
L 411.206551 332.459324 
L 411.852717 332.459324 
L 411.987058 322.297089 
L 412.370377 322.297089 
L 412.500565 309.573889 
L 413.147287 309.573889 
L 413.278588 322.297089 
L 413.40765 322.297089 
L 413.537308 311.673921 
L 414.440926 311.673921 
L 414.570221 302.109088 
L 414.699244 302.109088 
L 414.82885 345.119783 
L 414.958352 345.119783 
L 415.088036 332.357962 
L 416.254345 332.357962 
L 416.382658 323.170964 
L 416.513441 323.170964 
L 416.646488 266.565164 
L 416.769702 266.565164 
L 416.902788 253.988775 
L 417.029212 253.988775 
L 417.157692 231.862871 
L 417.550274 231.862871 
L 417.675584 207.798061 
L 418.580949 207.798061 
L 418.710154 217.103051 
L 418.839824 217.103051 
L 418.968796 275.80742 
L 419.359942 275.80742 
L 419.486262 289.42009 
L 419.615298 289.42009 
L 419.746948 311.673921 
L 419.874419 311.673921 
L 420.003857 324.42626 
L 421.168989 324.42626 
L 421.297676 367.435469 
L 421.946779 367.435469 
L 422.074159 377.994137 
L 422.462149 377.994137 
L 422.592013 391.878428 
L 423.755554 391.878428 
L 423.885496 401.997629 
L 424.27302 401.997629 
L 424.403389 414.957188 
L 424.791107 414.957188 
L 424.921463 404.820798 
L 425.567849 404.820798 
L 425.69695 414.957188 
L 426.084706 414.957188 
L 426.214778 401.997629 
L 426.346117 401.997629 
L 426.473006 391.878428 
L 426.603104 391.878428 
L 426.731222 377.994137 
L 427.12282 377.994137 
L 427.249709 365.151051 
L 427.378177 365.151051 
L 427.512168 341.832382 
L 428.154375 341.832382 
L 428.285559 354.61025 
L 428.414673 354.61025 
L 428.544318 367.435469 
L 429.192722 367.435469 
L 429.317994 381.30046 
L 430.741199 381.30046 
L 430.873444 367.435469 
L 431.001963 367.435469 
L 431.131039 381.30046 
L 431.518795 381.30046 
L 431.648944 371.776512 
L 431.780607 371.776512 
L 431.906267 381.30046 
L 432.036144 381.30046 
L 432.164987 371.776512 
L 432.295058 371.776512 
L 432.424017 381.30046 
L 433.072809 381.30046 
L 433.204084 367.435469 
L 433.335242 367.435469 
L 433.458832 357.928909 
L 433.588554 357.928909 
L 433.719208 314.84517 
L 435.657861 314.84517 
L 435.790261 302.109088 
L 435.915779 302.109088 
L 436.046407 311.673921 
L 436.177009 311.673921 
L 436.30514 252.774697 
L 436.435522 252.774697 
L 436.563976 243.14511 
L 437.987763 243.14511 
L 438.11592 255.75544 
L 438.503858 255.75544 
L 438.634447 268.412614 
L 438.764984 268.412614 
L 438.892636 314.84517 
L 439.022643 314.84517 
L 439.153556 328.613864 
L 439.282967 328.613864 
L 439.410309 324.42626 
L 439.541131 324.42626 
L 439.669223 314.84517 
L 441.09138 314.84517 
L 441.222578 268.412614 
L 441.351109 268.412614 
L 441.479887 314.84517 
L 442.643519 314.84517 
L 442.775505 328.613864 
L 442.905253 328.613864 
L 443.032854 314.84517 
L 443.420183 314.84517 
L 443.54953 305.554534 
L 444.199409 305.554534 
L 444.326363 314.84517 
L 444.457495 314.84517 
L 444.585587 302.109088 
L 444.973745 302.109088 
L 445.102846 289.42009 
L 445.230847 289.42009 
L 445.364037 280.160952 
L 445.491016 280.160952 
L 445.619613 266.565164 
L 446.012441 266.565164 
L 446.137803 220.296104 
L 446.271264 220.296104 
L 446.397856 207.798061 
L 446.528458 207.798061 
L 446.654557 220.296104 
L 446.78741 220.296104 
L 446.91386 210.585769 
L 447.04428 210.585769 
L 447.174442 224.079131 
L 447.560232 224.079131 
L 447.690459 246.401688 
L 448.080014 246.401688 
L 448.209361 305.554534 
L 449.630302 305.554534 
L 449.760969 319.306188 
L 450.147729 319.306188 
L 450.277089 305.554534 
L 450.66623 305.554534 
L 450.794231 292.834225 
L 451.446594 292.834225 
L 451.572927 283.171934 
L 452.994205 283.171934 
L 453.125428 292.834225 
L 453.512071 292.834225 
L 453.641289 280.160952 
L 453.774026 280.160952 
L 453.901458 292.834225 
L 454.028412 292.834225 
L 454.160217 280.160952 
L 454.549267 280.160952 
L 454.67516 266.565164 
L 455.064378 266.565164 
L 455.196144 263.215405 
L 455.324107 263.215405 
L 455.45194 207.798061 
L 455.581727 207.798061 
L 455.712446 195.346044 
L 456.100137 195.346044 
L 456.228191 204.635284 
L 456.616685 204.635284 
L 456.745618 217.103051 
L 456.879894 217.103051 
L 457.006615 263.215405 
L 457.39278 263.215405 
L 457.522787 285.338642 
L 457.910465 285.338642 
L 458.041287 298.968713 
L 458.947363 298.968713 
L 459.075106 311.673921 
L 460.24531 311.673921 
L 460.36846 252.774697 
L 460.49804 252.774697 
L 460.626805 265.401413 
L 461.01548 265.401413 
L 461.145435 311.673921 
L 461.532609 311.673921 
L 461.662952 265.401413 
L 461.790177 265.401413 
L 461.925088 311.673921 
L 462.050359 311.673921 
L 462.183523 252.774697 
L 462.310037 252.774697 
L 462.439254 243.14511 
L 462.827451 243.14511 
L 462.969373 229.616892 
L 463.864491 229.616892 
L 463.992492 217.103051 
L 464.378114 217.103051 
L 464.507772 204.635284 
L 464.896421 204.635284 
L 465.026104 181.987407 
L 465.155464 181.987407 
L 465.286027 139.214954 
L 465.675621 139.214954 
L 465.804373 169.629712 
L 465.931378 169.629712 
L 466.060505 181.987407 
L 466.190292 181.987407 
L 466.319639 195.346044 
L 466.966361 195.346044 
L 467.096795 253.988775 
L 467.489726 253.988775 
L 467.614726 266.565164 
L 468.261863 266.565164 
L 468.389618 253.988775 
L 468.521191 253.988775 
L 468.648584 244.376757 
L 470.33355 244.376757 
L 470.459106 256.936858 
L 471.628133 256.936858 
L 471.753042 270.515051 
L 472.916881 270.515051 
L 473.048466 280.160952 
L 473.178744 280.160952 
L 473.306629 270.515051 
L 473.437206 270.515051 
L 473.567976 280.160952 
L 473.695227 280.160952 
L 473.823552 266.565164 
L 473.952847 266.565164 
L 474.081017 253.988775 
L 474.474246 253.988775 
L 474.599737 250.6697 
L 474.988736 250.6697 
L 475.11732 263.215405 
L 475.76368 263.215405 
L 475.892897 285.338642 
L 476.023059 285.338642 
L 476.15665 298.968713 
L 476.541353 298.968713 
L 476.673701 311.673921 
L 476.800202 311.673921 
L 476.927893 322.297089 
L 477.05803 322.297089 
L 477.186988 335.067476 
L 477.315003 335.067476 
L 477.447507 322.297089 
L 478.875421 322.297089 
L 478.999658 309.573889 
L 479.130984 309.573889 
L 479.256864 319.718921 
L 479.388631 319.718921 
L 479.517098 338.628172 
L 479.645966 338.628172 
L 479.774744 352.355371 
L 479.904712 352.355371 
L 480.03305 319.718921 
L 480.420806 319.718921 
L 480.550736 309.573889 
L 480.679953 309.573889 
L 480.810167 295.924502 
L 481.457562 295.924502 
L 481.585279 309.573889 
L 481.717175 309.573889 
L 481.844309 285.338642 
L 482.232726 285.338642 
L 482.363366 298.968713 
L 482.493347 298.968713 
L 482.620391 285.338642 
L 482.754551 285.338642 
L 482.879357 239.228888 
L 483.009739 239.228888 
L 483.140781 226.698764 
L 483.526041 226.698764 
L 483.65641 214.214763 
L 484.04784 214.214763 
L 484.172957 211.441668 
L 485.081452 211.441668 
L 485.208664 270.71891 
L 485.59928 270.71891 
L 485.725962 293.407969 
L 485.85461 293.407969 
L 485.984022 295.924502 
L 486.373758 295.924502 
L 486.50176 319.718921 
L 486.631818 319.718921 
L 486.760428 309.573889 
L 488.443543 309.573889 
L 488.572994 322.297089 
L 488.700336 322.297089 
L 488.831947 332.459324 
L 489.218797 332.459324 
L 489.349063 322.297089 
L 489.477996 322.297089 
L 489.606619 332.459324 
L 489.73594 332.459324 
L 489.867486 322.297089 
L 490.51307 322.297089 
L 490.641317 332.459324 
L 490.770755 332.459324 
L 490.900309 322.297089 
L 492.065816 322.297089 
L 492.1944 311.673921 
L 492.32671 311.673921 
L 492.452551 276.114447 
L 492.585934 276.114447 
L 492.710947 263.469541 
L 492.843671 263.469541 
L 492.971866 252.774697 
L 493.100993 252.774697 
L 493.229396 239.228888 
L 493.360257 239.228888 
L 493.487831 226.698764 
L 493.621163 226.698764 
L 493.749876 183.925028 
L 494.136132 183.925028 
L 494.265932 226.698764 
L 494.395279 226.698764 
L 494.524483 249.904206 
L 494.911101 249.904206 
L 495.053619 263.469541 
L 495.690677 263.469541 
L 495.817229 276.114447 
L 496.210212 276.114447 
L 496.335963 265.401413 
L 496.463938 265.401413 
L 496.593001 276.114447 
L 497.498456 276.114447 
L 497.631412 263.469541 
L 499.314166 263.469541 
L 499.438998 252.774697 
L 499.828837 252.774697 
L 499.957874 263.469541 
L 500.34594 263.469541 
L 500.475456 252.774697 
L 501.903306 252.774697 
L 502.027801 239.228888 
L 502.417045 239.228888 
L 502.544995 174.253482 
L 502.9327 174.253482 
L 503.061672 183.925028 
L 503.19032 183.925028 
L 503.32021 174.253482 
L 503.448574 174.253482 
L 503.579513 183.925028 
L 503.972095 183.925028 
L 504.100911 196.382506 
L 504.227826 196.382506 
L 504.355504 239.228888 
L 504.485796 239.228888 
L 504.618364 252.774697 
L 505.001799 252.774697 
L 505.132285 265.401413 
L 505.261891 265.401413 
L 505.394343 288.806302 
L 505.519614 288.806302 
L 505.655133 278.075024 
L 505.802035 278.075024 
L 505.907513 288.806302 
L 506.297288 288.806302 
L 506.425742 235.003721 
L 506.556008 235.003721 
L 506.686312 248.625704 
L 506.813447 248.625704 
L 506.942949 259.461626 
L 507.331236 259.461626 
L 507.460493 248.625704 
L 508.108715 248.625704 
L 508.236005 205.445932 
L 508.371381 205.445932 
L 508.495372 248.625704 
L 508.627203 248.625704 
L 508.753652 205.445932 
L 509.918966 205.445932 
L 510.047795 191.903404 
L 511.211828 191.903404 
L 511.341317 179.376669 
L 511.72963 179.376669 
L 511.863893 157.113459 
L 512.249476 157.113459 
L 512.377995 143.742793 
L 513.281536 143.742793 
L 513.411594 153.507763 
L 513.553788 153.507763 
L 513.671892 200.144068 
L 513.802598 200.144068 
L 513.930858 209.849832 
L 514.316079 209.849832 
L 514.447638 252.774697 
L 514.57683 252.774697 
L 514.706966 265.401413 
L 514.835395 265.401413 
L 514.964819 209.849832 
L 515.613909 209.849832 
L 515.740565 252.774697 
L 516.388232 252.774697 
L 516.516466 265.401413 
L 516.907108 265.401413 
L 517.033311 252.774697 
L 517.42315 252.774697 
L 517.551915 255.75544 
L 517.939516 255.75544 
L 518.07669 265.401413 
L 520.269742 265.401413 
L 520.398597 263.469541 
L 520.78541 263.469541 
L 520.914951 249.904206 
L 521.044259 249.904206 
L 521.174085 226.698764 
L 521.565657 226.698764 
L 521.691084 224.853986 
L 521.819733 224.853986 
L 521.953297 214.214763 
L 522.596475 214.214763 
L 522.726482 226.698764 
L 522.855971 226.698764 
L 523.244426 249.904206 
L 523.372428 249.904206 
L 523.504207 295.924502 
L 523.633877 295.924502 
L 523.76131 309.573889 
L 524.407579 309.573889 
L 524.537883 319.718921 
L 525.445758 319.718921 
L 525.573539 306.051066 
L 526.218554 306.051066 
L 526.349673 348.676523 
L 527.254908 348.676523 
L 527.383647 338.628172 
L 527.51606 338.628172 
L 527.644256 306.051066 
L 527.774392 306.051066 
L 527.901618 295.924502 
L 529.844372 295.924502 
L 529.970769 237.356007 
L 530.10128 237.356007 
L 530.230601 226.698764 
L 530.358862 226.698764 
L 530.488209 214.214763 
L 530.618138 214.214763 
L 530.748688 200.821791 
L 531.394388 200.821791 
L 531.524783 158.198232 
L 532.430225 158.198232 
L 532.559534 214.214763 
L 532.947406 214.214763 
L 533.076107 226.698764 
L 533.464031 226.698764 
L 533.595681 285.338642 
L 533.722648 285.338642 
L 533.854168 239.228888 
L 535.53709 239.228888 
L 535.663849 229.616892 
L 535.793882 229.616892 
L 535.924406 217.103051 
L 537.086343 217.103051 
L 537.217631 174.253482 
L 537.60355 174.253482 
L 537.733634 217.103051 
L 538.122529 217.103051 
L 538.250479 207.798061 
L 538.641341 207.798061 
L 538.768242 164.874759 
L 539.156115 164.874759 
L 539.290223 152.495492 
L 539.415003 152.495492 
L 539.578971 139.214954 
L 539.803226 96.412862 
L 539.934733 96.412862 
L 540.063433 84.199967 
L 540.191655 84.199967 
L 540.321933 72.032381 
L 541.225991 72.032381 
L 541.355778 62.251444 
L 541.484698 62.251444 
L 541.615831 84.199967 
L 541.743302 84.199967 
L 541.873697 96.412862 
L 542.262708 96.412862 
L 542.390942 139.214954 
L 542.520962 139.214954 
L 542.65084 152.495492 
L 543.037561 152.495492 
L 543.167749 164.874759 
L 544.074265 164.874759 
L 544.202008 174.253482 
L 544.590049 174.253482 
L 544.719629 186.694511 
L 544.850269 186.694511 
L 544.977728 174.253482 
L 545.106764 174.253482 
L 545.241622 186.694511 
L 545.367683 186.694511 
L 545.496099 174.253482 
L 546.402822 174.253482 
L 546.531147 217.103051 
L 546.920753 217.103051 
L 547.048781 174.253482 
L 547.437727 174.253482 
L 547.565819 229.616892 
L 547.694817 229.616892 
L 547.825186 186.694511 
L 548.472685 186.694511 
L 548.601036 174.253482 
L 548.729917 174.253482 
L 548.858863 161.858306 
L 549.247564 161.858306 
L 549.378722 148.560688 
L 549.764887 148.560688 
L 549.894325 136.259479 
L 550.024267 136.259479 
L 550.154804 126.929555 
L 550.284358 126.929555 
L 550.413757 93.604081 
L 550.801863 93.604081 
L 550.92936 136.259479 
L 551.058836 136.259479 
L 551.187898 148.560688 
L 551.31894 148.560688 
L 551.446916 161.858306 
L 551.83801 161.858306 
L 551.963981 174.253482 
L 552.094427 174.253482 
L 552.225172 186.694511 
L 552.353121 186.694511 
L 552.490399 229.616892 
L 552.615451 229.616892 
L 552.74058 186.694511 
L 552.869824 186.694511 
L 553.000452 177.299829 
L 553.388467 177.299829 
L 553.516766 186.694511 
L 554.684007 186.694511 
L 554.813095 200.144068 
L 555.71648 200.144068 
L 555.847276 252.774697 
L 555.976753 252.774697 
L 556.107355 243.14511 
L 556.238836 243.14511 
L 556.364949 252.774697 
L 556.752291 252.774697 
L 556.881613 209.849832 
L 558.045115 209.849832 
L 558.178058 196.382506 
L 558.564508 196.382506 
L 558.693079 183.925028 
L 558.820356 183.925028 
L 558.950544 161.858306 
L 559.3383 161.858306 
L 559.46832 148.560688 
L 559.597848 148.560688 
L 559.72673 158.198232 
L 560.373452 158.198232 
L 560.504002 168.901713 
L 560.633194 168.901713 
L 560.763485 182.236475 
L 561.415796 182.236475 
L 561.539761 237.356007 
L 561.926017 237.356007 
L 562.055351 247.550619 
L 562.446795 247.550619 
L 562.574357 283.298499 
L 562.704648 283.298499 
L 562.962799 293.407969 
L 563.478608 293.407969 
L 563.611073 283.298499 
L 565.807502 283.298499 
L 565.939152 249.904206 
L 567.620223 249.904206 
L 567.747565 226.698764 
L 567.877158 226.698764 
L 568.008186 214.214763 
L 568.394675 214.214763 
L 568.523712 200.821791 
L 568.655581 200.821791 
L 568.784566 148.560688 
L 568.913732 148.560688 
L 569.041358 145.880727 
L 569.171068 145.880727 
L 569.300466 136.259479 
L 569.688145 136.259479 
L 569.823806 148.560688 
L 570.206944 148.560688 
L 570.337157 158.198232 
L 570.464797 158.198232 
L 570.594131 171.513454 
L 570.722999 171.513454 
L 570.854351 183.925028 
L 572.276237 183.925028 
L 572.40922 194.666252 
L 572.543806 194.666252 
L 572.666788 153.507763 
L 573.051879 153.507763 
L 573.181602 164.352485 
L 573.569423 164.352485 
L 573.701008 153.507763 
L 573.828246 153.507763 
L 573.958357 164.352485 
L 575.640929 164.352485 
L 575.768814 207.141988 
L 575.915574 207.141988 
L 576.029125 164.352485 
L 576.158744 164.352485 
L 576.28637 153.507763 
L 576.41564 153.507763 
L 576.545103 164.352485 
L 576.676481 164.352485 
L 576.803564 153.507763 
L 576.933558 153.507763 
L 577.062284 141.123142 
L 577.454439 141.123142 
L 577.581962 128.784201 
L 577.968684 128.784201 
L 578.09763 115.546953 
L 578.229461 115.546953 
L 578.356983 69.584182 
L 578.746137 69.584182 
L 578.874876 47.635996 
L 579.262814 47.635996 
L 579.391863 59.786724 
L 579.521223 59.786724 
L 579.65286 119.052412 
L 580.039685 119.052412 
L 580.169446 131.374788 
L 580.557267 131.374788 
L 580.685553 183.925028 
L 580.821537 183.925028 
L 580.944079 196.382506 
L 581.073271 196.382506 
L 581.202501 186.694511 
L 582.626173 186.694511 
L 582.756464 143.742793 
L 582.885087 143.742793 
L 583.016698 186.694511 
L 583.403303 186.694511 
L 583.533064 143.742793 
L 583.919772 143.742793 
L 584.048641 200.144068 
L 584.180083 200.144068 
L 584.342589 190.732145 
L 584.56828 157.113459 
L 584.956605 157.113459 
L 585.087246 169.577026 
L 585.731057 169.577026 
L 585.86043 160.073855 
L 585.992714 160.073855 
L 586.119047 169.577026 
L 587.024916 169.577026 
L 587.153939 157.113459 
L 587.284321 157.113459 
L 587.412543 110.740099 
L 587.542951 110.740099 
L 587.67341 97.454648 
L 587.802563 97.454648 
L 587.929892 85.165518 
L 588.061439 85.165518 
L 588.189751 42.22814 
L 588.835787 42.22814 
L 588.966713 85.165518 
L 589.353537 85.165518 
L 589.482768 107.303628 
L 589.616553 107.303628 
L 589.74141 97.454648 
L 589.870408 97.454648 
L 590.000764 157.113459 
L 590.132815 157.113459 
L 590.265746 169.577026 
L 590.905482 169.577026 
L 591.034868 123.124285 
L 591.167397 123.124285 
L 591.300069 169.577026 
L 591.422689 169.577026 
L 591.553756 123.124285 
L 594.530705 123.124285 
L 594.657788 113.539048 
L 594.78848 113.539048 
L 594.91815 110.740099 
L 595.048015 110.740099 
L 595.175176 113.539048 
L 595.434801 113.539048 
L 595.434801 113.539048 
" clip-path="url(#pc832860daf)" style="fill: none; stroke: #1f77b4; stroke-width: 2; stroke-linecap: square"/>
   </g>
   <g id="patch_3">
    <path d="M 62.798438 414.957188 
L 62.798438 26.877188 
" style="fill: none; stroke: #808080; stroke-width: 2; stroke-linejoin: miter; stroke-linecap: square"/>
   </g>
   <g id="patch_4">
    <path d="M 62.798437 414.957187 
L 620.798437 414.957187 
" style="fill: none; stroke: #808080; stroke-width: 2; stroke-linejoin: miter; stroke-linecap: square"/>
   </g>
   <g id="text_16">
    <!-- Oskar-Tyholt-vinkel -->
    <g style="fill: #808080" transform="translate(257.782031 20.877187) scale(0.18 -0.18)">
     <defs>
      <path id="DejaVuSans-4f" d="M 2522 4238 
Q 1834 4238 1429 3725 
Q 1025 3213 1025 2328 
Q 1025 1447 1429 934 
Q 1834 422 2522 422 
Q 3209 422 3611 934 
Q 4013 1447 4013 2328 
Q 4013 3213 3611 3725 
Q 3209 4238 2522 4238 
z
M 2522 4750 
Q 3503 4750 4090 4092 
Q 4678 3434 4678 2328 
Q 4678 1225 4090 567 
Q 3503 -91 2522 -91 
Q 1538 -91 948 565 
Q 359 1222 359 2328 
Q 359 3434 948 4092 
Q 1538 4750 2522 4750 
z
" transform="scale(0.015625)"/>
      <path id="DejaVuSans-6b" d="M 581 4863 
L 1159 4863 
L 1159 1991 
L 2875 3500 
L 3609 3500 
L 1753 1863 
L 3688 0 
L 2938 0 
L 1159 1709 
L 1159 0 
L 581 0 
L 581 4863 
z
" transform="scale(0.015625)"/>
      <path id="DejaVuSans-61" d="M 2194 1759 
Q 1497 1759 1228 1600 
Q 959 1441 959 1056 
Q 959 750 1161 570 
Q 1363 391 1709 391 
Q 2188 391 2477 730 
Q 2766 1069 2766 1631 
L 2766 1759 
L 2194 1759 
z
M 3341 1997 
L 3341 0 
L 2766 0 
L 2766 531 
Q 2569 213 2275 61 
Q 1981 -91 1556 -91 
Q 1019 -91 701 211 
Q 384 513 384 1019 
Q 384 1609 779 1909 
Q 1175 2209 1959 2209 
L 2766 2209 
L 2766 2266 
Q 2766 2663 2505 2880 
Q 2244 3097 1772 3097 
Q 1472 3097 1187 3025 
Q 903 2953 641 2809 
L 641 3341 
Q 956 3463 1253 3523 
Q 1550 3584 1831 3584 
Q 2591 3584 2966 3190 
Q 3341 2797 3341 1997 
z
" transform="scale(0.015625)"/>
      <path id="DejaVuSans-72" d="M 2631 2963 
Q 2534 3019 2420 3045 
Q 2306 3072 2169 3072 
Q 1681 3072 1420 2755 
Q 1159 2438 1159 1844 
L 1159 0 
L 581 0 
L 581 3500 
L 1159 3500 
L 1159 2956 
Q 1341 3275 1631 3429 
Q 1922 3584 2338 3584 
Q 2397 3584 2469 3576 
Q 2541 3569 2628 3553 
L 2631 2963 
z
" transform="scale(0.015625)"/>
      <path id="DejaVuSans-2d" d="M 313 2009 
L 1997 2009 
L 1997 1497 
L 313 1497 
L 313 2009 
z
" transform="scale(0.015625)"/>
      <path id="DejaVuSans-54" d="M -19 4666 
L 3928 4666 
L 3928 4134 
L 2272 4134 
L 2272 0 
L 1638 0 
L 1638 4134 
L -19 4134 
L -19 4666 
z
" transform="scale(0.015625)"/>
      <path id="DejaVuSans-79" d="M 2059 -325 
Q 1816 -950 1584 -1140 
Q 1353 -1331 966 -1331 
L 506 -1331 
L 506 -850 
L 844 -850 
Q 1081 -850 1212 -737 
Q 1344 -625 1503 -206 
L 1606 56 
L 191 3500 
L 800 3500 
L 1894 763 
L 2988 3500 
L 3597 3500 
L 2059 -325 
z
" transform="scale(0.015625)"/>
      <path id="DejaVuSans-68" d="M 3513 2113 
L 3513 0 
L 2938 0 
L 2938 2094 
Q 2938 2591 2744 2837 
Q 2550 3084 2163 3084 
Q 1697 3084 1428 2787 
Q 1159 2491 1159 1978 
L 1159 0 
L 581 0 
L 581 4863 
L 1159 4863 
L 1159 2956 
Q 1366 3272 1645 3428 
Q 1925 3584 2291 3584 
Q 2894 3584 3203 3211 
Q 3513 2838 3513 2113 
z
" transform="scale(0.015625)"/>
      <path id="DejaVuSans-6f" d="M 1959 3097 
Q 1497 3097 1228 2736 
Q 959 2375 959 1747 
Q 959 1119 1226 758 
Q 1494 397 1959 397 
Q 2419 397 2687 759 
Q 2956 1122 2956 1747 
Q 2956 2369 2687 2733 
Q 2419 3097 1959 3097 
z
M 1959 3584 
Q 2709 3584 3137 3096 
Q 3566 2609 3566 1747 
Q 3566 888 3137 398 
Q 2709 -91 1959 -91 
Q 1206 -91 779 398 
Q 353 888 353 1747 
Q 353 2609 779 3096 
Q 1206 3584 1959 3584 
z
" transform="scale(0.015625)"/>
      <path id="DejaVuSans-6c" d="M 603 4863 
L 1178 4863 
L 1178 0 
L 603 0 
L 603 4863 
z
" transform="scale(0.015625)"/>
      <path id="DejaVuSans-76" d="M 191 3500 
L 800 3500 
L 1894 563 
L 2988 3500 
L 3597 3500 
L 2284 0 
L 1503 0 
L 191 3500 
z
" transform="scale(0.015625)"/>
      <path id="DejaVuSans-6e" d="M 3513 2113 
L 3513 0 
L 2938 0 
L 2938 2094 
Q 2938 2591 2744 2837 
Q 2550 3084 2163 3084 
Q 1697 3084 1428 2787 
Q 1159 2491 1159 1978 
L 1159 0 
L 581 0 
L 581 3500 
L 1159 3500 
L 1159 2956 
Q 1366 3272 1645 3428 
Q 1925 3584 2291 3584 
Q 2894 3584 3203 3211 
Q 3513 2838 3513 2113 
z
" transform="scale(0.015625)"/>
     </defs>
     <use xlink:href="#DejaVuSans-4f"/>
     <use xlink:href="#DejaVuSans-73" x="78.710938"/>
     <use xlink:href="#DejaVuSans-6b" x="130.810547"/>
     <use xlink:href="#DejaVuSans-61" x="186.970703"/>
     <use xlink:href="#DejaVuSans-72" x="248.25"/>
     <use xlink:href="#DejaVuSans-2d" x="282.988281"/>
     <use xlink:href="#DejaVuSans-54" x="309.947266"/>
     <use xlink:href="#DejaVuSans-79" x="355.40625"/>
     <use xlink:href="#DejaVuSans-68" x="414.585938"/>
     <use xlink:href="#DejaVuSans-6f" x="477.964844"/>
     <use xlink:href="#DejaVuSans-6c" x="539.146484"/>
     <use xlink:href="#DejaVuSans-74" x="566.929688"/>
     <use xlink:href="#DejaVuSans-2d" x="606.138672"/>
     <use xlink:href="#DejaVuSans-76" x="639.597656"/>
     <use xlink:href="#DejaVuSans-69" x="698.777344"/>
     <use xlink:href="#DejaVuSans-6e" x="726.560547"/>
     <use xlink:href="#DejaVuSans-6b" x="789.939453"/>
     <use xlink:href="#DejaVuSans-65" x="844.224609"/>
     <use xlink:href="#DejaVuSans-6c" x="905.748047"/>
    </g>
   </g>
   <g id="legend_1">
    <g id="patch_5">
     <path d="M 247.784766 60.894375 
L 435.812109 60.894375 
Q 438.812109 60.894375 438.812109 57.894375 
L 438.812109 37.377187 
Q 438.812109 34.377187 435.812109 34.377187 
L 247.784766 34.377187 
Q 244.784766 34.377187 244.784766 37.377187 
L 244.784766 57.894375 
Q 244.784766 60.894375 247.784766 60.894375 
z
" style="fill: #ffffff; opacity: 0.8; stroke: #cccccc; stroke-linejoin: miter"/>
    </g>
    <g id="line2d_28">
     <path d="M 250.784766 46.524844 
L 265.784766 46.524844 
L 280.784766 46.524844 
" style="fill: none; stroke: #1f77b4; stroke-width: 2; stroke-linecap: square"/>
    </g>
    <g id="text_17">
     <!-- Oskar-Tyholt-vinkel -->
     <g style="fill: #808080" transform="translate(292.784766 51.774844) scale(0.15 -0.15)">
      <use xlink:href="#DejaVuSans-4f"/>
      <use xlink:href="#DejaVuSans-73" x="78.710938"/>
      <use xlink:href="#DejaVuSans-6b" x="130.810547"/>
      <use xlink:href="#DejaVuSans-61" x="186.970703"/>
      <use xlink:href="#DejaVuSans-72" x="248.25"/>
      <use xlink:href="#DejaVuSans-2d" x="282.988281"/>
      <use xlink:href="#DejaVuSans-54" x="309.947266"/>
      <use xlink:href="#DejaVuSans-79" x="355.40625"/>
      <use xlink:href="#DejaVuSans-68" x="414.585938"/>
      <use xlink:href="#DejaVuSans-6f" x="477.964844"/>
      <use xlink:href="#DejaVuSans-6c" x="539.146484"/>
      <use xlink:href="#DejaVuSans-74" x="566.929688"/>
      <use xlink:href="#DejaVuSans-2d" x="606.138672"/>
      <use xlink:href="#DejaVuSans-76" x="639.597656"/>
      <use xlink:href="#DejaVuSans-69" x="698.777344"/>
      <use xlink:href="#DejaVuSans-6e" x="726.560547"/>
      <use xlink:href="#DejaVuSans-6b" x="789.939453"/>
      <use xlink:href="#DejaVuSans-65" x="844.224609"/>
      <use xlink:href="#DejaVuSans-6c" x="905.748047"/>
     </g>
    </g>
   </g>
  </g>
 </g>
 <defs>
  <clipPath id="pc832860daf">
   <rect x="62.798438" y="26.877187" width="558" height="388.08"/>
  </clipPath>
 </defs>
</svg>
