<?xml version="1.0" encoding="utf-8" standalone="no"?>
<!DOCTYPE svg PUBLIC "-//W3C//DTD SVG 1.1//EN"
  "http://www.w3.org/Graphics/SVG/1.1/DTD/svg11.dtd">
<svg xmlns:xlink="http://www.w3.org/1999/xlink" width="626.257031pt" height="458.691562pt" viewBox="0 0 626.257031 458.691562" xmlns="http://www.w3.org/2000/svg" version="1.1">
 <metadata>
  <rdf:RDF xmlns:dc="http://purl.org/dc/elements/1.1/" xmlns:cc="http://creativecommons.org/ns#" xmlns:rdf="http://www.w3.org/1999/02/22-rdf-syntax-ns#">
   <cc:Work>
    <dc:type rdf:resource="http://purl.org/dc/dcmitype/StillImage"/>
    <dc:date>2023-03-30T16:06:08.753171</dc:date>
    <dc:format>image/svg+xml</dc:format>
    <dc:creator>
     <cc:Agent>
      <dc:title>Matplotlib v3.7.0, https://matplotlib.org/</dc:title>
     </cc:Agent>
    </dc:creator>
   </cc:Work>
  </rdf:RDF>
 </metadata>
 <defs>
  <style type="text/css">*{stroke-linejoin: round; stroke-linecap: butt}</style>
 </defs>
 <g id="figure_1">
  <g id="patch_1">
   <path d="M 0 458.691562 
L 626.257031 458.691562 
L 626.257031 0 
L 0 0 
L 0 458.691562 
z
" style="fill: none"/>
  </g>
  <g id="axes_1">
   <g id="patch_2">
    <path d="M 61.057031 414.957187 
L 619.057031 414.957187 
L 619.057031 26.877187 
L 61.057031 26.877187 
L 61.057031 414.957187 
z
" style="fill: none"/>
   </g>
   <g id="matplotlib.axis_1">
    <g id="xtick_1">
     <g id="line2d_1">
      <path d="M 85.982394 414.957187 
L 85.982394 26.877187 
" clip-path="url(#p820b483a10)" style="fill: none; stroke: #808080; stroke-width: 0.8; stroke-linecap: square"/>
     </g>
     <g id="line2d_2">
      <defs>
       <path id="mfbd3268fdd" d="M 0 0 
L 0 -5 
" style="stroke: #808080; stroke-width: 0.8"/>
      </defs>
      <g>
       <use xlink:href="#mfbd3268fdd" x="85.982394" y="414.957187" style="fill: #808080; stroke: #808080; stroke-width: 0.8"/>
      </g>
     </g>
     <g id="text_1">
      <!-- 20 -->
      <g style="fill: #808080" transform="translate(76.438644 429.854844) scale(0.15 -0.15)">
       <defs>
        <path id="DejaVuSans-32" d="M 1228 531 
L 3431 531 
L 3431 0 
L 469 0 
L 469 531 
Q 828 903 1448 1529 
Q 2069 2156 2228 2338 
Q 2531 2678 2651 2914 
Q 2772 3150 2772 3378 
Q 2772 3750 2511 3984 
Q 2250 4219 1831 4219 
Q 1534 4219 1204 4116 
Q 875 4013 500 3803 
L 500 4441 
Q 881 4594 1212 4672 
Q 1544 4750 1819 4750 
Q 2544 4750 2975 4387 
Q 3406 4025 3406 3419 
Q 3406 3131 3298 2873 
Q 3191 2616 2906 2266 
Q 2828 2175 2409 1742 
Q 1991 1309 1228 531 
z
" transform="scale(0.015625)"/>
        <path id="DejaVuSans-30" d="M 2034 4250 
Q 1547 4250 1301 3770 
Q 1056 3291 1056 2328 
Q 1056 1369 1301 889 
Q 1547 409 2034 409 
Q 2525 409 2770 889 
Q 3016 1369 3016 2328 
Q 3016 3291 2770 3770 
Q 2525 4250 2034 4250 
z
M 2034 4750 
Q 2819 4750 3233 4129 
Q 3647 3509 3647 2328 
Q 3647 1150 3233 529 
Q 2819 -91 2034 -91 
Q 1250 -91 836 529 
Q 422 1150 422 2328 
Q 422 3509 836 4129 
Q 1250 4750 2034 4750 
z
" transform="scale(0.015625)"/>
       </defs>
       <use xlink:href="#DejaVuSans-32"/>
       <use xlink:href="#DejaVuSans-30" x="63.623047"/>
      </g>
     </g>
    </g>
    <g id="xtick_2">
     <g id="line2d_3">
      <path d="M 153.662234 414.957187 
L 153.662234 26.877187 
" clip-path="url(#p820b483a10)" style="fill: none; stroke: #808080; stroke-width: 0.8; stroke-linecap: square"/>
     </g>
     <g id="line2d_4">
      <g>
       <use xlink:href="#mfbd3268fdd" x="153.662234" y="414.957187" style="fill: #808080; stroke: #808080; stroke-width: 0.8"/>
      </g>
     </g>
     <g id="text_2">
      <!-- 22 -->
      <g style="fill: #808080" transform="translate(144.118484 429.854844) scale(0.15 -0.15)">
       <use xlink:href="#DejaVuSans-32"/>
       <use xlink:href="#DejaVuSans-32" x="63.623047"/>
      </g>
     </g>
    </g>
    <g id="xtick_3">
     <g id="line2d_5">
      <path d="M 221.342073 414.957187 
L 221.342073 26.877187 
" clip-path="url(#p820b483a10)" style="fill: none; stroke: #808080; stroke-width: 0.8; stroke-linecap: square"/>
     </g>
     <g id="line2d_6">
      <g>
       <use xlink:href="#mfbd3268fdd" x="221.342073" y="414.957187" style="fill: #808080; stroke: #808080; stroke-width: 0.8"/>
      </g>
     </g>
     <g id="text_3">
      <!-- 24 -->
      <g style="fill: #808080" transform="translate(211.798323 429.854844) scale(0.15 -0.15)">
       <defs>
        <path id="DejaVuSans-34" d="M 2419 4116 
L 825 1625 
L 2419 1625 
L 2419 4116 
z
M 2253 4666 
L 3047 4666 
L 3047 1625 
L 3713 1625 
L 3713 1100 
L 3047 1100 
L 3047 0 
L 2419 0 
L 2419 1100 
L 313 1100 
L 313 1709 
L 2253 4666 
z
" transform="scale(0.015625)"/>
       </defs>
       <use xlink:href="#DejaVuSans-32"/>
       <use xlink:href="#DejaVuSans-34" x="63.623047"/>
      </g>
     </g>
    </g>
    <g id="xtick_4">
     <g id="line2d_7">
      <path d="M 289.021913 414.957187 
L 289.021913 26.877187 
" clip-path="url(#p820b483a10)" style="fill: none; stroke: #808080; stroke-width: 0.8; stroke-linecap: square"/>
     </g>
     <g id="line2d_8">
      <g>
       <use xlink:href="#mfbd3268fdd" x="289.021913" y="414.957187" style="fill: #808080; stroke: #808080; stroke-width: 0.8"/>
      </g>
     </g>
     <g id="text_4">
      <!-- 26 -->
      <g style="fill: #808080" transform="translate(279.478163 429.854844) scale(0.15 -0.15)">
       <defs>
        <path id="DejaVuSans-36" d="M 2113 2584 
Q 1688 2584 1439 2293 
Q 1191 2003 1191 1497 
Q 1191 994 1439 701 
Q 1688 409 2113 409 
Q 2538 409 2786 701 
Q 3034 994 3034 1497 
Q 3034 2003 2786 2293 
Q 2538 2584 2113 2584 
z
M 3366 4563 
L 3366 3988 
Q 3128 4100 2886 4159 
Q 2644 4219 2406 4219 
Q 1781 4219 1451 3797 
Q 1122 3375 1075 2522 
Q 1259 2794 1537 2939 
Q 1816 3084 2150 3084 
Q 2853 3084 3261 2657 
Q 3669 2231 3669 1497 
Q 3669 778 3244 343 
Q 2819 -91 2113 -91 
Q 1303 -91 875 529 
Q 447 1150 447 2328 
Q 447 3434 972 4092 
Q 1497 4750 2381 4750 
Q 2619 4750 2861 4703 
Q 3103 4656 3366 4563 
z
" transform="scale(0.015625)"/>
       </defs>
       <use xlink:href="#DejaVuSans-32"/>
       <use xlink:href="#DejaVuSans-36" x="63.623047"/>
      </g>
     </g>
    </g>
    <g id="xtick_5">
     <g id="line2d_9">
      <path d="M 356.701753 414.957187 
L 356.701753 26.877187 
" clip-path="url(#p820b483a10)" style="fill: none; stroke: #808080; stroke-width: 0.8; stroke-linecap: square"/>
     </g>
     <g id="line2d_10">
      <g>
       <use xlink:href="#mfbd3268fdd" x="356.701753" y="414.957187" style="fill: #808080; stroke: #808080; stroke-width: 0.8"/>
      </g>
     </g>
     <g id="text_5">
      <!-- 28 -->
      <g style="fill: #808080" transform="translate(347.158003 429.854844) scale(0.15 -0.15)">
       <defs>
        <path id="DejaVuSans-38" d="M 2034 2216 
Q 1584 2216 1326 1975 
Q 1069 1734 1069 1313 
Q 1069 891 1326 650 
Q 1584 409 2034 409 
Q 2484 409 2743 651 
Q 3003 894 3003 1313 
Q 3003 1734 2745 1975 
Q 2488 2216 2034 2216 
z
M 1403 2484 
Q 997 2584 770 2862 
Q 544 3141 544 3541 
Q 544 4100 942 4425 
Q 1341 4750 2034 4750 
Q 2731 4750 3128 4425 
Q 3525 4100 3525 3541 
Q 3525 3141 3298 2862 
Q 3072 2584 2669 2484 
Q 3125 2378 3379 2068 
Q 3634 1759 3634 1313 
Q 3634 634 3220 271 
Q 2806 -91 2034 -91 
Q 1263 -91 848 271 
Q 434 634 434 1313 
Q 434 1759 690 2068 
Q 947 2378 1403 2484 
z
M 1172 3481 
Q 1172 3119 1398 2916 
Q 1625 2713 2034 2713 
Q 2441 2713 2670 2916 
Q 2900 3119 2900 3481 
Q 2900 3844 2670 4047 
Q 2441 4250 2034 4250 
Q 1625 4250 1398 4047 
Q 1172 3844 1172 3481 
z
" transform="scale(0.015625)"/>
       </defs>
       <use xlink:href="#DejaVuSans-32"/>
       <use xlink:href="#DejaVuSans-38" x="63.623047"/>
      </g>
     </g>
    </g>
    <g id="xtick_6">
     <g id="line2d_11">
      <path d="M 424.381592 414.957187 
L 424.381592 26.877187 
" clip-path="url(#p820b483a10)" style="fill: none; stroke: #808080; stroke-width: 0.8; stroke-linecap: square"/>
     </g>
     <g id="line2d_12">
      <g>
       <use xlink:href="#mfbd3268fdd" x="424.381592" y="414.957187" style="fill: #808080; stroke: #808080; stroke-width: 0.8"/>
      </g>
     </g>
     <g id="text_6">
      <!-- 30 -->
      <g style="fill: #808080" transform="translate(414.837842 429.854844) scale(0.15 -0.15)">
       <defs>
        <path id="DejaVuSans-33" d="M 2597 2516 
Q 3050 2419 3304 2112 
Q 3559 1806 3559 1356 
Q 3559 666 3084 287 
Q 2609 -91 1734 -91 
Q 1441 -91 1130 -33 
Q 819 25 488 141 
L 488 750 
Q 750 597 1062 519 
Q 1375 441 1716 441 
Q 2309 441 2620 675 
Q 2931 909 2931 1356 
Q 2931 1769 2642 2001 
Q 2353 2234 1838 2234 
L 1294 2234 
L 1294 2753 
L 1863 2753 
Q 2328 2753 2575 2939 
Q 2822 3125 2822 3475 
Q 2822 3834 2567 4026 
Q 2313 4219 1838 4219 
Q 1578 4219 1281 4162 
Q 984 4106 628 3988 
L 628 4550 
Q 988 4650 1302 4700 
Q 1616 4750 1894 4750 
Q 2613 4750 3031 4423 
Q 3450 4097 3450 3541 
Q 3450 3153 3228 2886 
Q 3006 2619 2597 2516 
z
" transform="scale(0.015625)"/>
       </defs>
       <use xlink:href="#DejaVuSans-33"/>
       <use xlink:href="#DejaVuSans-30" x="63.623047"/>
      </g>
     </g>
    </g>
    <g id="xtick_7">
     <g id="line2d_13">
      <path d="M 492.061432 414.957187 
L 492.061432 26.877187 
" clip-path="url(#p820b483a10)" style="fill: none; stroke: #808080; stroke-width: 0.8; stroke-linecap: square"/>
     </g>
     <g id="line2d_14">
      <g>
       <use xlink:href="#mfbd3268fdd" x="492.061432" y="414.957187" style="fill: #808080; stroke: #808080; stroke-width: 0.8"/>
      </g>
     </g>
     <g id="text_7">
      <!-- 32 -->
      <g style="fill: #808080" transform="translate(482.517682 429.854844) scale(0.15 -0.15)">
       <use xlink:href="#DejaVuSans-33"/>
       <use xlink:href="#DejaVuSans-32" x="63.623047"/>
      </g>
     </g>
    </g>
    <g id="xtick_8">
     <g id="line2d_15">
      <path d="M 559.741272 414.957187 
L 559.741272 26.877187 
" clip-path="url(#p820b483a10)" style="fill: none; stroke: #808080; stroke-width: 0.8; stroke-linecap: square"/>
     </g>
     <g id="line2d_16">
      <g>
       <use xlink:href="#mfbd3268fdd" x="559.741272" y="414.957187" style="fill: #808080; stroke: #808080; stroke-width: 0.8"/>
      </g>
     </g>
     <g id="text_8">
      <!-- 34 -->
      <g style="fill: #808080" transform="translate(550.197522 429.854844) scale(0.15 -0.15)">
       <use xlink:href="#DejaVuSans-33"/>
       <use xlink:href="#DejaVuSans-34" x="63.623047"/>
      </g>
     </g>
    </g>
    <g id="text_9">
     <!-- time [s] -->
     <g style="fill: #808080" transform="translate(310.969922 448.372031) scale(0.15 -0.15)">
      <defs>
       <path id="DejaVuSans-74" d="M 1172 4494 
L 1172 3500 
L 2356 3500 
L 2356 3053 
L 1172 3053 
L 1172 1153 
Q 1172 725 1289 603 
Q 1406 481 1766 481 
L 2356 481 
L 2356 0 
L 1766 0 
Q 1100 0 847 248 
Q 594 497 594 1153 
L 594 3053 
L 172 3053 
L 172 3500 
L 594 3500 
L 594 4494 
L 1172 4494 
z
" transform="scale(0.015625)"/>
       <path id="DejaVuSans-69" d="M 603 3500 
L 1178 3500 
L 1178 0 
L 603 0 
L 603 3500 
z
M 603 4863 
L 1178 4863 
L 1178 4134 
L 603 4134 
L 603 4863 
z
" transform="scale(0.015625)"/>
       <path id="DejaVuSans-6d" d="M 3328 2828 
Q 3544 3216 3844 3400 
Q 4144 3584 4550 3584 
Q 5097 3584 5394 3201 
Q 5691 2819 5691 2113 
L 5691 0 
L 5113 0 
L 5113 2094 
Q 5113 2597 4934 2840 
Q 4756 3084 4391 3084 
Q 3944 3084 3684 2787 
Q 3425 2491 3425 1978 
L 3425 0 
L 2847 0 
L 2847 2094 
Q 2847 2600 2669 2842 
Q 2491 3084 2119 3084 
Q 1678 3084 1418 2786 
Q 1159 2488 1159 1978 
L 1159 0 
L 581 0 
L 581 3500 
L 1159 3500 
L 1159 2956 
Q 1356 3278 1631 3431 
Q 1906 3584 2284 3584 
Q 2666 3584 2933 3390 
Q 3200 3197 3328 2828 
z
" transform="scale(0.015625)"/>
       <path id="DejaVuSans-65" d="M 3597 1894 
L 3597 1613 
L 953 1613 
Q 991 1019 1311 708 
Q 1631 397 2203 397 
Q 2534 397 2845 478 
Q 3156 559 3463 722 
L 3463 178 
Q 3153 47 2828 -22 
Q 2503 -91 2169 -91 
Q 1331 -91 842 396 
Q 353 884 353 1716 
Q 353 2575 817 3079 
Q 1281 3584 2069 3584 
Q 2775 3584 3186 3129 
Q 3597 2675 3597 1894 
z
M 3022 2063 
Q 3016 2534 2758 2815 
Q 2500 3097 2075 3097 
Q 1594 3097 1305 2825 
Q 1016 2553 972 2059 
L 3022 2063 
z
" transform="scale(0.015625)"/>
       <path id="DejaVuSans-20" transform="scale(0.015625)"/>
       <path id="DejaVuSans-5b" d="M 550 4863 
L 1875 4863 
L 1875 4416 
L 1125 4416 
L 1125 -397 
L 1875 -397 
L 1875 -844 
L 550 -844 
L 550 4863 
z
" transform="scale(0.015625)"/>
       <path id="DejaVuSans-73" d="M 2834 3397 
L 2834 2853 
Q 2591 2978 2328 3040 
Q 2066 3103 1784 3103 
Q 1356 3103 1142 2972 
Q 928 2841 928 2578 
Q 928 2378 1081 2264 
Q 1234 2150 1697 2047 
L 1894 2003 
Q 2506 1872 2764 1633 
Q 3022 1394 3022 966 
Q 3022 478 2636 193 
Q 2250 -91 1575 -91 
Q 1294 -91 989 -36 
Q 684 19 347 128 
L 347 722 
Q 666 556 975 473 
Q 1284 391 1588 391 
Q 1994 391 2212 530 
Q 2431 669 2431 922 
Q 2431 1156 2273 1281 
Q 2116 1406 1581 1522 
L 1381 1569 
Q 847 1681 609 1914 
Q 372 2147 372 2553 
Q 372 3047 722 3315 
Q 1072 3584 1716 3584 
Q 2034 3584 2315 3537 
Q 2597 3491 2834 3397 
z
" transform="scale(0.015625)"/>
       <path id="DejaVuSans-5d" d="M 1947 4863 
L 1947 -844 
L 622 -844 
L 622 -397 
L 1369 -397 
L 1369 4416 
L 622 4416 
L 622 4863 
L 1947 4863 
z
" transform="scale(0.015625)"/>
      </defs>
      <use xlink:href="#DejaVuSans-74"/>
      <use xlink:href="#DejaVuSans-69" x="39.208984"/>
      <use xlink:href="#DejaVuSans-6d" x="66.992188"/>
      <use xlink:href="#DejaVuSans-65" x="164.404297"/>
      <use xlink:href="#DejaVuSans-20" x="225.927734"/>
      <use xlink:href="#DejaVuSans-5b" x="257.714844"/>
      <use xlink:href="#DejaVuSans-73" x="296.728516"/>
      <use xlink:href="#DejaVuSans-5d" x="348.828125"/>
     </g>
    </g>
   </g>
   <g id="matplotlib.axis_2">
    <g id="ytick_1">
     <g id="line2d_17">
      <path d="M 61.057031 405.678001 
L 619.057031 405.678001 
" clip-path="url(#p820b483a10)" style="fill: none; stroke: #808080; stroke-width: 0.8; stroke-linecap: square"/>
     </g>
     <g id="line2d_18">
      <defs>
       <path id="m2c96ded571" d="M 0 0 
L 5 0 
" style="stroke: #808080; stroke-width: 0.8"/>
      </defs>
      <g>
       <use xlink:href="#m2c96ded571" x="61.057031" y="405.678001" style="fill: #808080; stroke: #808080; stroke-width: 0.8"/>
      </g>
     </g>
     <g id="text_10">
      <!-- −20 -->
      <g style="fill: #808080" transform="translate(25.9 411.376829) scale(0.15 -0.15)">
       <defs>
        <path id="DejaVuSans-2212" d="M 678 2272 
L 4684 2272 
L 4684 1741 
L 678 1741 
L 678 2272 
z
" transform="scale(0.015625)"/>
       </defs>
       <use xlink:href="#DejaVuSans-2212"/>
       <use xlink:href="#DejaVuSans-32" x="83.789062"/>
       <use xlink:href="#DejaVuSans-30" x="147.412109"/>
      </g>
     </g>
    </g>
    <g id="ytick_2">
     <g id="line2d_19">
      <path d="M 61.057031 335.341908 
L 619.057031 335.341908 
" clip-path="url(#p820b483a10)" style="fill: none; stroke: #808080; stroke-width: 0.8; stroke-linecap: square"/>
     </g>
     <g id="line2d_20">
      <g>
       <use xlink:href="#m2c96ded571" x="61.057031" y="335.341908" style="fill: #808080; stroke: #808080; stroke-width: 0.8"/>
      </g>
     </g>
     <g id="text_11">
      <!-- 0 -->
      <g style="fill: #808080" transform="translate(48.013281 341.040737) scale(0.15 -0.15)">
       <use xlink:href="#DejaVuSans-30"/>
      </g>
     </g>
    </g>
    <g id="ytick_3">
     <g id="line2d_21">
      <path d="M 61.057031 265.005816 
L 619.057031 265.005816 
" clip-path="url(#p820b483a10)" style="fill: none; stroke: #808080; stroke-width: 0.8; stroke-linecap: square"/>
     </g>
     <g id="line2d_22">
      <g>
       <use xlink:href="#m2c96ded571" x="61.057031" y="265.005816" style="fill: #808080; stroke: #808080; stroke-width: 0.8"/>
      </g>
     </g>
     <g id="text_12">
      <!-- 20 -->
      <g style="fill: #808080" transform="translate(38.469531 270.704644) scale(0.15 -0.15)">
       <use xlink:href="#DejaVuSans-32"/>
       <use xlink:href="#DejaVuSans-30" x="63.623047"/>
      </g>
     </g>
    </g>
    <g id="ytick_4">
     <g id="line2d_23">
      <path d="M 61.057031 194.669723 
L 619.057031 194.669723 
" clip-path="url(#p820b483a10)" style="fill: none; stroke: #808080; stroke-width: 0.8; stroke-linecap: square"/>
     </g>
     <g id="line2d_24">
      <g>
       <use xlink:href="#m2c96ded571" x="61.057031" y="194.669723" style="fill: #808080; stroke: #808080; stroke-width: 0.8"/>
      </g>
     </g>
     <g id="text_13">
      <!-- 40 -->
      <g style="fill: #808080" transform="translate(38.469531 200.368551) scale(0.15 -0.15)">
       <use xlink:href="#DejaVuSans-34"/>
       <use xlink:href="#DejaVuSans-30" x="63.623047"/>
      </g>
     </g>
    </g>
    <g id="ytick_5">
     <g id="line2d_25">
      <path d="M 61.057031 124.33363 
L 619.057031 124.33363 
" clip-path="url(#p820b483a10)" style="fill: none; stroke: #808080; stroke-width: 0.8; stroke-linecap: square"/>
     </g>
     <g id="line2d_26">
      <g>
       <use xlink:href="#m2c96ded571" x="61.057031" y="124.33363" style="fill: #808080; stroke: #808080; stroke-width: 0.8"/>
      </g>
     </g>
     <g id="text_14">
      <!-- 60 -->
      <g style="fill: #808080" transform="translate(38.469531 130.032458) scale(0.15 -0.15)">
       <use xlink:href="#DejaVuSans-36"/>
       <use xlink:href="#DejaVuSans-30" x="63.623047"/>
      </g>
     </g>
    </g>
    <g id="ytick_6">
     <g id="line2d_27">
      <path d="M 61.057031 53.997538 
L 619.057031 53.997538 
" clip-path="url(#p820b483a10)" style="fill: none; stroke: #808080; stroke-width: 0.8; stroke-linecap: square"/>
     </g>
     <g id="line2d_28">
      <g>
       <use xlink:href="#m2c96ded571" x="61.057031" y="53.997538" style="fill: #808080; stroke: #808080; stroke-width: 0.8"/>
      </g>
     </g>
     <g id="text_15">
      <!-- 80 -->
      <g style="fill: #808080" transform="translate(38.469531 59.696366) scale(0.15 -0.15)">
       <use xlink:href="#DejaVuSans-38"/>
       <use xlink:href="#DejaVuSans-30" x="63.623047"/>
      </g>
     </g>
    </g>
    <g id="text_16">
     <!-- $\theta$ [deg] -->
     <g style="fill: #808080" transform="translate(18.75 247.917187) rotate(-90) scale(0.15 -0.15)">
      <defs>
       <path id="DejaVuSans-Oblique-3b8" d="M 2913 2219 
L 925 2219 
Q 791 1284 928 888 
Q 1100 400 1566 400 
Q 2034 400 2391 891 
Q 2703 1322 2913 2219 
z
M 3009 2750 
Q 3094 3638 2984 3950 
Q 2813 4444 2353 4444 
Q 1875 4444 1525 3956 
Q 1250 3563 1034 2750 
L 3009 2750 
z
M 2444 4913 
Q 3194 4913 3494 4250 
Q 3794 3591 3566 2422 
Q 3341 1256 2781 594 
Q 2225 -72 1475 -72 
Q 722 -72 425 594 
Q 128 1256 353 2422 
Q 581 3591 1134 4250 
Q 1691 4913 2444 4913 
z
" transform="scale(0.015625)"/>
       <path id="DejaVuSans-64" d="M 2906 2969 
L 2906 4863 
L 3481 4863 
L 3481 0 
L 2906 0 
L 2906 525 
Q 2725 213 2448 61 
Q 2172 -91 1784 -91 
Q 1150 -91 751 415 
Q 353 922 353 1747 
Q 353 2572 751 3078 
Q 1150 3584 1784 3584 
Q 2172 3584 2448 3432 
Q 2725 3281 2906 2969 
z
M 947 1747 
Q 947 1113 1208 752 
Q 1469 391 1925 391 
Q 2381 391 2643 752 
Q 2906 1113 2906 1747 
Q 2906 2381 2643 2742 
Q 2381 3103 1925 3103 
Q 1469 3103 1208 2742 
Q 947 2381 947 1747 
z
" transform="scale(0.015625)"/>
       <path id="DejaVuSans-67" d="M 2906 1791 
Q 2906 2416 2648 2759 
Q 2391 3103 1925 3103 
Q 1463 3103 1205 2759 
Q 947 2416 947 1791 
Q 947 1169 1205 825 
Q 1463 481 1925 481 
Q 2391 481 2648 825 
Q 2906 1169 2906 1791 
z
M 3481 434 
Q 3481 -459 3084 -895 
Q 2688 -1331 1869 -1331 
Q 1566 -1331 1297 -1286 
Q 1028 -1241 775 -1147 
L 775 -588 
Q 1028 -725 1275 -790 
Q 1522 -856 1778 -856 
Q 2344 -856 2625 -561 
Q 2906 -266 2906 331 
L 2906 616 
Q 2728 306 2450 153 
Q 2172 0 1784 0 
Q 1141 0 747 490 
Q 353 981 353 1791 
Q 353 2603 747 3093 
Q 1141 3584 1784 3584 
Q 2172 3584 2450 3431 
Q 2728 3278 2906 2969 
L 2906 3500 
L 3481 3500 
L 3481 434 
z
" transform="scale(0.015625)"/>
      </defs>
      <use xlink:href="#DejaVuSans-Oblique-3b8" transform="translate(0 0.234375)"/>
      <use xlink:href="#DejaVuSans-20" transform="translate(61.181641 0.234375)"/>
      <use xlink:href="#DejaVuSans-5b" transform="translate(92.96875 0.234375)"/>
      <use xlink:href="#DejaVuSans-64" transform="translate(131.982422 0.234375)"/>
      <use xlink:href="#DejaVuSans-65" transform="translate(195.458984 0.234375)"/>
      <use xlink:href="#DejaVuSans-67" transform="translate(256.982422 0.234375)"/>
      <use xlink:href="#DejaVuSans-5d" transform="translate(320.458984 0.234375)"/>
     </g>
    </g>
   </g>
   <g id="line2d_29">
    <path d="M 86.420668 226.999309 
L 87.433192 212.133176 
L 87.770711 209.894305 
L 88.445716 203.269391 
L 89.79576 197.981817 
L 90.470765 190.052382 
L 90.808284 188.000452 
L 91.483289 178.589495 
L 93.170852 162.905154 
L 93.508337 162.000931 
L 93.845857 161.529981 
L 94.520862 161.848075 
L 94.858381 161.197871 
L 95.1959 161.600812 
L 95.533386 163.348256 
L 95.870905 163.909223 
L 96.208425 163.532204 
L 96.54591 160.903287 
L 97.895954 157.042983 
L 98.233473 155.205404 
L 98.908478 152.732354 
L 100.258521 144.391195 
L 100.596041 144.155749 
L 100.933526 143.676925 
L 101.608565 140.093424 
L 101.94605 139.8955 
L 102.28357 139.528886 
L 102.958574 137.361745 
L 103.296094 138.149155 
L 103.633613 137.221228 
L 103.971099 135.87018 
L 104.308618 133.811114 
L 104.646138 133.231361 
L 105.321143 128.890527 
L 105.658662 126.731618 
L 105.996181 125.524565 
L 106.671186 122.294832 
L 107.008706 122.11652 
L 107.346191 122.661977 
L 108.02123 120.104492 
L 108.358715 122.294059 
L 109.033754 122.396719 
L 109.37124 121.779305 
L 109.708759 120.826326 
L 110.046278 121.154533 
L 110.721283 120.768955 
L 111.396288 121.971658 
L 111.733807 122.186249 
L 112.071327 122.868033 
L 112.408812 121.492296 
L 112.746332 121.107884 
L 113.421337 122.534764 
L 113.758856 123.89762 
L 114.433895 124.270058 
L 114.77138 125.303618 
L 115.446419 128.173134 
L 115.783904 129.114173 
L 116.121424 132.800539 
L 116.458943 134.245591 
L 117.133948 136.015967 
L 117.808953 138.5131 
L 118.146472 139.814346 
L 118.483992 140.522473 
L 118.821477 140.037686 
L 119.158997 139.920928 
L 119.834056 137.365774 
L 120.171576 137.632878 
L 120.509095 138.239909 
L 120.84658 137.626934 
L 121.521619 137.059595 
L 121.859105 138.003917 
L 122.196624 137.251236 
L 122.534143 138.403099 
L 122.871663 137.7948 
L 123.209148 137.511723 
L 123.546668 137.425459 
L 123.884187 138.227775 
L 124.221673 139.577252 
L 124.559192 139.558836 
L 124.896711 140.438566 
L 125.234197 140.57005 
L 125.571716 139.485234 
L 125.909236 139.515424 
L 126.246721 141.001242 
L 126.58424 140.568944 
L 127.596765 142.221364 
L 128.27177 143.882714 
L 128.946808 146.003534 
L 129.284294 148.606518 
L 129.959332 151.285413 
L 130.296818 152.390715 
L 130.634337 152.5718 
L 130.971857 153.198518 
L 131.646862 155.057399 
L 132.321867 155.794603 
L 132.659386 155.309945 
L 133.334391 157.058025 
L 133.67191 156.512164 
L 134.009429 155.676111 
L 134.346915 156.506817 
L 134.684434 156.273377 
L 135.021954 158.020877 
L 135.359439 157.79302 
L 135.696959 157.901653 
L 136.371997 156.881094 
L 136.709483 157.193544 
L 137.047002 158.026979 
L 137.384522 157.142533 
L 137.722007 157.731427 
L 138.059526 159.100719 
L 138.397046 159.829032 
L 139.072051 159.009995 
L 139.40957 157.527043 
L 139.747056 157.905969 
L 140.084575 157.120157 
L 140.422094 156.865821 
L 140.75958 157.164518 
L 141.097099 155.767609 
L 141.434619 156.456934 
L 141.772104 156.053894 
L 142.109623 155.378963 
L 142.784628 155.009073 
L 143.122148 155.571104 
L 143.459667 155.284484 
L 143.797153 154.527827 
L 144.472191 150.796947 
L 144.809677 150.529284 
L 145.147196 151.762904 
L 145.484715 151.070751 
L 145.822201 148.753874 
L 146.15972 149.485007 
L 146.49724 149.258209 
L 146.834725 149.769321 
L 147.172245 149.527078 
L 147.847249 148.47677 
L 148.184769 146.801857 
L 148.522288 147.306941 
L 148.859774 145.827206 
L 149.197293 146.766308 
L 149.534812 145.194561 
L 149.872298 144.969117 
L 150.209817 145.803313 
L 150.884822 144.533194 
L 151.222342 144.763814 
L 151.559861 143.30778 
L 152.234866 143.580198 
L 152.572385 144.743669 
L 152.909871 145.305942 
L 153.24739 145.047935 
L 153.584909 145.451518 
L 154.259914 147.710326 
L 154.597434 146.778827 
L 154.934919 147.58506 
L 155.272439 147.538042 
L 155.609958 148.244399 
L 155.947477 148.473381 
L 156.284963 146.725302 
L 156.622482 146.733963 
L 157.297487 145.186669 
L 157.634975 142.194269 
L 158.647499 139.325119 
L 158.984985 139.630303 
L 159.660024 136.404326 
L 160.672548 130.553287 
L 161.347553 127.75068 
L 161.685072 125.704698 
L 162.360077 122.927961 
L 162.697596 122.566344 
L 163.035116 120.863205 
L 163.372601 118.393958 
L 164.04764 115.473918 
L 164.385126 114.301496 
L 164.722645 112.020146 
L 165.060164 110.936096 
L 165.735169 105.166884 
L 166.072689 103.636242 
L 167.422698 91.280089 
L 167.760218 89.700084 
L 168.097737 85.73596 
L 168.435223 83.439663 
L 169.110261 77.206298 
L 169.785266 71.646473 
L 170.460271 65.036579 
L 171.13531 60.53958 
L 171.472795 59.175297 
L 171.810315 56.664024 
L 172.147834 57.308199 
L 172.48532 57.014554 
L 172.822839 56.553732 
L 173.160358 58.28746 
L 173.497844 59.315147 
L 173.835363 60.819382 
L 176.872936 90.242947 
L 177.210455 94.285434 
L 178.897984 101.869803 
L 179.235504 101.71511 
L 179.572989 103.04437 
L 179.910509 103.164331 
L 180.248028 103.001799 
L 180.923033 105.64447 
L 181.260552 105.954976 
L 181.598038 105.552138 
L 181.935557 107.481204 
L 182.273076 107.629033 
L 182.610562 106.810102 
L 182.948081 107.578403 
L 183.285601 106.976025 
L 183.960606 107.841167 
L 184.298125 107.218954 
L 184.63561 107.557386 
L 184.97313 106.69019 
L 185.310649 106.866651 
L 185.648135 106.574615 
L 186.323173 107.652734 
L 186.660659 107.519895 
L 186.998178 107.580392 
L 187.335698 107.117599 
L 187.673183 105.137891 
L 188.010702 105.222932 
L 188.348222 104.785069 
L 189.360746 95.415554 
L 189.698232 94.949352 
L 190.035751 92.252105 
L 190.37327 92.101679 
L 190.710756 90.61452 
L 191.048275 91.29615 
L 191.385795 90.762907 
L 191.72328 90.667373 
L 192.060799 89.96444 
L 192.398319 87.60966 
L 192.735804 86.705494 
L 193.073324 84.466063 
L 194.423367 79.678943 
L 194.760853 78.919969 
L 195.773377 69.825731 
L 196.44839 59.600673 
L 196.785876 56.103926 
L 197.123395 53.959307 
L 197.460915 53.506827 
L 198.13592 60.975389 
L 198.810924 74.129674 
L 199.485929 92.278272 
L 200.498487 129.247146 
L 201.173492 161.88662 
L 202.186016 211.150074 
L 203.873546 287.223057 
L 204.88607 316.58244 
L 205.223589 320.829165 
L 205.561075 320.670347 
L 205.898594 316.459902 
L 206.573599 296.263062 
L 207.248638 267.167458 
L 208.261162 219.911317 
L 209.948691 140.143705 
L 210.623696 116.430731 
L 211.298735 103.662237 
L 211.63622 99.316815 
L 211.97374 97.192158 
L 212.311259 97.834269 
L 212.648744 100.683218 
L 213.661269 124.407325 
L 214.673793 151.171732 
L 215.686317 169.377702 
L 217.37388 231.473869 
L 217.711366 245.790527 
L 218.386404 262.393967 
L 218.72389 266.853281 
L 219.061409 267.674107 
L 219.398929 267.897138 
L 219.736414 267.430642 
L 220.411453 258.006393 
L 221.086458 243.697375 
L 222.098982 211.679334 
L 224.12403 148.208584 
L 225.136555 129.455753 
L 225.47404 125.784019 
L 226.149079 121.653074 
L 226.486564 119.908181 
L 226.824084 119.056378 
L 227.161603 118.638493 
L 227.499089 117.249976 
L 227.836608 118.243562 
L 228.174127 116.762833 
L 229.186652 123.053628 
L 230.199176 135.768043 
L 230.536661 138.506508 
L 231.2117 146.173346 
L 231.886705 150.002744 
L 232.899229 163.754764 
L 233.236749 166.04234 
L 233.574234 172.005606 
L 233.911753 174.124922 
L 234.249239 179.848743 
L 234.586763 182.156321 
L 234.924282 186.98285 
L 235.599287 191.530703 
L 235.936806 190.632963 
L 236.274292 192.356499 
L 236.611811 191.927944 
L 236.949331 191.832579 
L 237.286816 192.062807 
L 237.624336 191.219423 
L 237.961855 189.021215 
L 238.29934 188.11284 
L 238.63686 186.880423 
L 238.974379 183.613307 
L 239.649384 179.790711 
L 240.324389 169.993588 
L 240.999428 161.659932 
L 241.674432 152.655496 
L 242.349437 148.169149 
L 242.686957 144.577574 
L 243.024442 143.491729 
L 243.361962 141.319702 
L 243.699481 140.533873 
L 244.036966 141.10419 
L 244.374486 141.432173 
L 244.712005 140.709504 
L 246.062015 141.784525 
L 246.399534 141.87107 
L 246.737054 142.808224 
L 247.074539 142.655299 
L 247.412059 141.697008 
L 247.749578 141.135693 
L 248.762102 145.728821 
L 249.437107 152.481904 
L 249.774626 155.189662 
L 250.112112 158.957564 
L 250.449631 160.447707 
L 250.787151 163.316047 
L 251.124636 163.995733 
L 251.462156 165.56291 
L 251.799641 168.150077 
L 252.13716 168.889978 
L 252.47468 173.531993 
L 252.812165 173.604058 
L 253.149685 176.130293 
L 253.82469 178.284523 
L 254.499728 175.852206 
L 254.837214 176.952397 
L 255.174733 175.049917 
L 255.512252 175.528965 
L 256.187257 177.210322 
L 256.524777 175.051408 
L 256.862262 175.264476 
L 257.199782 176.079196 
L 258.549791 182.941933 
L 258.887311 185.788236 
L 259.22483 186.413646 
L 259.562316 188.622747 
L 259.899835 188.942175 
L 260.237354 188.986216 
L 260.57484 187.955159 
L 260.912359 186.564587 
L 261.249879 186.622483 
L 261.587364 185.70855 
L 261.924883 185.700087 
L 262.599888 179.892314 
L 262.937408 178.274311 
L 263.274927 175.605947 
L 263.949932 169.282717 
L 264.287417 168.142487 
L 264.624937 169.138275 
L 264.962456 171.211419 
L 265.299942 174.669874 
L 265.97498 188.191052 
L 266.649985 209.599044 
L 267.66251 251.602604 
L 269.350039 331.255341 
L 270.700082 370.529007 
L 271.375087 384.949624 
L 272.050092 393.684524 
L 272.387611 396.438614 
L 272.725139 397.457075 
L 273.400144 402.804263 
L 273.73763 407.089381 
L 274.750154 414.117174 
L 275.087673 414.957187 
L 275.425193 412.523009 
L 275.762678 407.908542 
L 276.100197 401.377829 
L 276.775202 378.805239 
L 277.787727 326.30616 
L 279.13777 252.410857 
L 280.150294 211.504959 
L 281.162819 184.170059 
L 281.837824 170.33639 
L 282.175343 166.84927 
L 282.512828 160.351912 
L 282.850348 157.651117 
L 284.200358 140.184802 
L 284.875396 134.704008 
L 285.212882 135.196997 
L 285.550401 132.601048 
L 286.225406 130.12888 
L 286.562925 129.444019 
L 286.900411 127.863165 
L 287.57545 123.86554 
L 287.912935 119.078428 
L 288.250455 116.675439 
L 288.587974 116.536794 
L 288.925459 114.50701 
L 289.262979 113.381722 
L 289.600498 111.136074 
L 289.937984 110.442735 
L 290.275503 110.2329 
L 290.950508 107.815655 
L 291.288027 107.760082 
L 292.638037 102.00967 
L 292.975556 100.35818 
L 293.313076 100.389793 
L 293.650561 100.083048 
L 293.988081 99.954492 
L 294.325566 100.853436 
L 294.663085 102.566139 
L 295.000605 102.883517 
L 295.33809 103.886432 
L 296.013129 107.601878 
L 296.350615 108.240795 
L 297.025653 112.157712 
L 297.363139 114.693555 
L 298.375663 128.247635 
L 299.725707 150.503708 
L 301.750721 172.434205 
L 302.763246 179.864255 
L 303.100765 180.948155 
L 303.438284 180.513328 
L 303.77577 180.678705 
L 304.788294 177.968002 
L 305.125813 176.308074 
L 305.463299 173.158386 
L 305.800818 171.118175 
L 306.475823 165.014875 
L 306.813343 163.246947 
L 309.175877 143.156241 
L 309.513396 138.716674 
L 309.850915 136.052561 
L 310.188401 130.91246 
L 310.86344 124.637329 
L 311.200929 123.437487 
L 311.538448 121.442496 
L 311.875934 121.767068 
L 312.213453 120.190896 
L 312.550973 119.830341 
L 313.563497 114.208405 
L 314.575987 108.364814 
L 315.251026 106.979543 
L 315.926031 104.951433 
L 316.601036 106.326357 
L 316.938555 106.340637 
L 317.276041 105.65012 
L 317.61356 107.059216 
L 317.951079 106.711672 
L 318.963604 110.694568 
L 319.301089 111.685336 
L 319.638609 113.345537 
L 320.313613 114.854868 
L 320.651133 114.016262 
L 320.988618 114.124725 
L 321.326138 115.224171 
L 321.663657 116.901036 
L 322.001143 117.229686 
L 322.676181 118.577945 
L 323.351186 118.259441 
L 324.026191 117.252072 
L 324.36371 115.523462 
L 324.701196 114.935849 
L 325.038715 113.901826 
L 325.376235 113.639025 
L 326.05124 112.517657 
L 326.726244 110.081636 
L 327.063764 108.19171 
L 327.401249 107.317537 
L 327.738769 107.369739 
L 328.076288 105.564655 
L 328.413774 106.353879 
L 328.751293 104.618918 
L 329.763817 102.837633 
L 330.101303 102.402103 
L 330.438822 101.142338 
L 330.776341 102.388154 
L 331.113827 102.23589 
L 331.451346 102.444494 
L 331.788832 100.964622 
L 332.126351 100.178524 
L 332.46387 100.011779 
L 332.801356 102.082342 
L 333.138875 101.581074 
L 333.476395 101.875331 
L 333.81388 101.938486 
L 334.1514 103.201465 
L 334.488885 102.769051 
L 334.826404 103.641841 
L 335.163924 102.862614 
L 335.501409 102.726433 
L 335.838929 102.908084 
L 336.176448 102.898901 
L 336.513934 103.766116 
L 336.851453 104.310481 
L 337.188938 105.620447 
L 337.526458 105.524999 
L 337.863977 106.079648 
L 338.201463 107.805004 
L 338.876501 106.663973 
L 339.213987 106.949489 
L 339.551506 107.420676 
L 339.888992 107.262862 
L 340.226511 108.062492 
L 340.564031 107.483563 
L 340.901516 107.28204 
L 341.239035 106.188921 
L 341.576555 103.96069 
L 341.91404 105.042101 
L 342.25156 105.369313 
L 342.589045 107.003388 
L 343.264084 108.822531 
L 343.601569 110.295172 
L 343.939089 111.102086 
L 344.276574 111.608501 
L 345.289099 117.603206 
L 345.626618 118.464837 
L 345.964137 118.798668 
L 346.301623 119.453236 
L 346.976628 118.802413 
L 347.314147 119.768466 
L 347.651666 119.314393 
L 348.326671 119.3545 
L 348.664191 118.431394 
L 349.001676 116.793374 
L 349.339191 116.598985 
L 349.676677 116.621326 
L 350.014196 116.899138 
L 350.351716 116.652348 
L 350.689201 114.620854 
L 351.364206 114.605938 
L 351.701725 114.745991 
L 352.039245 113.734803 
L 352.37673 113.630431 
L 352.71425 113.963455 
L 353.051769 115.504646 
L 353.389255 116.019826 
L 353.726774 114.819594 
L 354.401779 115.719889 
L 354.739298 117.187708 
L 355.076784 117.611398 
L 355.414303 115.950107 
L 355.751822 117.379504 
L 356.089308 117.749869 
L 356.426827 118.440547 
L 356.764313 117.72857 
L 357.439352 120.002499 
L 358.114356 120.718529 
L 358.451842 121.613972 
L 358.789361 123.713331 
L 359.126881 124.939908 
L 359.464366 127.116069 
L 360.47689 129.182426 
L 360.81441 127.102584 
L 361.489415 125.873793 
L 361.826934 126.798857 
L 362.16442 125.459937 
L 362.501939 125.714208 
L 362.839424 126.544408 
L 363.851949 130.986334 
L 364.189468 131.961113 
L 364.526987 132.09106 
L 364.864473 134.535523 
L 365.201992 133.631624 
L 365.539478 133.570345 
L 365.876997 132.636765 
L 366.214517 131.014779 
L 366.889521 128.641197 
L 367.564526 123.832403 
L 367.902046 123.484821 
L 368.239531 122.122644 
L 368.577051 121.967712 
L 368.914536 121.526949 
L 369.252055 123.484065 
L 369.589575 121.785787 
L 369.92706 121.35043 
L 370.26458 120.458237 
L 371.277104 113.252009 
L 372.627114 98.064425 
L 372.964633 97.244085 
L 373.302119 95.818015 
L 373.639638 95.485195 
L 374.314643 99.618366 
L 374.652162 100.763141 
L 375.327167 101.171891 
L 375.664686 101.84792 
L 376.677211 100.590452 
L 377.014696 98.98421 
L 377.352216 99.307342 
L 377.689701 97.428203 
L 378.02722 96.947815 
L 378.36474 96.112396 
L 378.702225 96.155505 
L 379.039745 94.914432 
L 379.37723 93.051423 
L 379.71475 92.438506 
L 380.052269 91.20088 
L 380.389754 90.868084 
L 380.727274 88.978822 
L 381.064759 88.924545 
L 381.739798 90.189439 
L 382.077284 90.013232 
L 382.752322 91.225611 
L 383.089808 89.997674 
L 383.764813 90.03836 
L 384.102332 90.222854 
L 384.439851 89.792489 
L 384.777337 88.508525 
L 385.114856 88.757097 
L 385.452342 88.764645 
L 385.789861 89.782917 
L 386.464866 90.043539 
L 386.802385 90.456844 
L 387.47739 92.566869 
L 387.814893 92.36263 
L 388.152378 94.243815 
L 388.827383 95.961707 
L 389.164902 95.918367 
L 389.502422 96.675208 
L 389.839907 96.638151 
L 390.177427 96.054106 
L 390.514946 95.695081 
L 390.852432 94.675906 
L 391.189951 94.66314 
L 391.527436 93.441764 
L 391.864956 91.549682 
L 392.202475 92.037896 
L 392.87748 89.719274 
L 393.214966 90.089383 
L 393.552485 90.074868 
L 393.890004 87.693945 
L 394.22749 86.156289 
L 394.565009 86.3327 
L 395.240014 87.042822 
L 395.577533 87.137726 
L 395.915019 87.69641 
L 396.252538 88.756977 
L 396.590024 89.001246 
L 396.927543 89.49867 
L 397.265063 89.550977 
L 397.940067 92.061163 
L 398.277553 92.455259 
L 398.615072 92.338337 
L 398.952592 93.76561 
L 399.627597 98.06867 
L 399.965116 97.863107 
L 400.302601 99.532158 
L 401.315126 107.118495 
L 401.652645 107.069275 
L 401.990131 108.784898 
L 402.32765 111.47096 
L 402.665135 111.853949 
L 403.340174 114.951423 
L 404.015179 119.902018 
L 404.352665 124.161815 
L 404.690184 125.141768 
L 405.027703 126.625417 
L 405.365189 130.740551 
L 405.702708 132.600867 
L 406.040194 136.387781 
L 407.727723 144.985071 
L 408.065242 145.817662 
L 408.402762 148.090723 
L 408.740247 148.953324 
L 409.077766 151.398864 
L 409.415252 151.578624 
L 409.752771 152.551688 
L 410.427776 153.378538 
L 410.765296 154.93585 
L 411.102815 155.210017 
L 411.4403 156.219773 
L 411.77782 154.097075 
L 412.115305 154.126277 
L 412.452825 153.555679 
L 412.790344 151.007711 
L 413.12783 149.568107 
L 413.465349 149.684799 
L 413.802834 148.911584 
L 414.477873 148.899367 
L 414.815359 146.65302 
L 415.152878 148.335544 
L 415.490364 146.794146 
L 415.827883 147.784904 
L 416.165402 149.876037 
L 416.502888 148.897421 
L 416.840407 148.367508 
L 417.177893 145.831074 
L 417.515412 146.886969 
L 417.852931 145.033919 
L 418.190417 141.611249 
L 418.527936 141.40792 
L 418.865422 139.452182 
L 419.202941 140.235531 
L 419.540461 138.784579 
L 419.877946 140.112363 
L 420.215465 136.079446 
L 420.552951 136.086441 
L 420.89047 134.2961 
L 421.565475 129.032519 
L 422.24048 126.467693 
L 422.915519 125.364652 
L 423.590524 119.832446 
L 424.603048 111.682682 
L 425.278053 108.242114 
L 425.615538 106.89283 
L 425.953066 104.771988 
L 426.290585 104.769236 
L 426.628071 103.358364 
L 426.96559 102.425159 
L 427.303076 102.879978 
L 427.640595 102.391237 
L 427.978115 100.794562 
L 428.3156 102.836048 
L 428.990605 104.292271 
L 429.328124 102.999347 
L 429.665644 102.735562 
L 430.003129 103.867657 
L 430.340649 104.302845 
L 430.678134 103.853168 
L 431.015653 105.632336 
L 431.353173 106.161938 
L 432.028178 109.681858 
L 432.365697 111.607242 
L 432.703183 111.525752 
L 433.040702 113.319306 
L 433.378187 114.129321 
L 434.053226 113.694772 
L 434.390712 112.657497 
L 434.728231 113.163406 
L 435.065717 114.682103 
L 435.403236 115.113475 
L 435.740721 114.998604 
L 436.078241 114.347231 
L 436.41576 111.348558 
L 437.090765 107.893324 
L 437.428284 106.698777 
L 437.76577 102.797976 
L 438.103289 100.723477 
L 438.440775 97.739845 
L 438.778294 97.360437 
L 439.453299 91.446663 
L 439.790818 90.681685 
L 440.128304 88.430615 
L 440.465823 87.236388 
L 440.803343 84.815623 
L 441.140828 85.904957 
L 441.478348 87.676503 
L 441.815833 87.547999 
L 442.153352 86.507007 
L 442.490872 83.987227 
L 442.828357 82.892445 
L 443.503362 79.832058 
L 443.840882 78.813199 
L 444.178401 78.840887 
L 444.515886 79.720077 
L 444.853406 79.966617 
L 445.190891 81.393948 
L 445.86593 81.530689 
L 446.203416 83.209274 
L 446.540935 82.53654 
L 447.21594 83.517824 
L 447.890945 88.170251 
L 449.240988 103.797269 
L 450.253479 124.428638 
L 451.603522 156.008045 
L 452.278527 168.277455 
L 452.953532 176.497289 
L 453.966056 184.809932 
L 454.303576 185.946944 
L 454.641061 188.639131 
L 454.978581 189.140728 
L 455.316066 190.931951 
L 455.653585 191.223722 
L 456.32859 194.37172 
L 456.66611 194.230385 
L 457.003595 197.30388 
L 457.341115 199.05392 
L 457.678634 201.698933 
L 458.353639 203.196935 
L 459.028644 201.754931 
L 459.366163 202.102003 
L 459.703649 203.317384 
L 460.041168 202.381394 
L 460.378653 202.0708 
L 460.716173 200.558492 
L 461.053692 200.381788 
L 461.391178 199.587406 
L 461.728697 197.583503 
L 462.066183 198.616006 
L 462.741221 198.932636 
L 463.078707 199.979934 
L 463.416226 199.011568 
L 464.091231 198.050909 
L 465.103748 195.890747 
L 465.441234 195.410171 
L 465.778753 195.793164 
L 466.791277 194.814323 
L 467.128763 195.626653 
L 467.466282 193.971848 
L 467.803802 194.574908 
L 468.141287 195.798142 
L 468.478806 194.088582 
L 468.816292 193.494633 
L 469.153811 194.619291 
L 469.491331 192.75875 
L 469.828816 192.282085 
L 470.503821 187.786929 
L 471.17886 181.33095 
L 471.516345 179.863789 
L 472.866389 168.170945 
L 473.203874 168.070647 
L 473.541394 165.336232 
L 473.878879 164.901445 
L 474.216399 163.067337 
L 474.553918 162.812075 
L 474.891404 162.791852 
L 475.228923 161.871816 
L 475.566408 162.018432 
L 475.903928 161.72972 
L 476.241447 162.554666 
L 476.578933 160.70943 
L 476.916452 159.505714 
L 477.253938 159.957937 
L 477.591457 158.850641 
L 477.928976 159.004144 
L 478.266462 158.964041 
L 478.603981 155.90884 
L 479.278986 153.406981 
L 479.616505 153.665561 
L 479.953991 152.95564 
L 480.29151 151.832 
L 480.628996 149.902093 
L 481.304035 144.535511 
L 481.64152 142.213553 
L 481.979039 141.702546 
L 482.316525 140.19913 
L 482.654044 138.099207 
L 482.991564 138.298365 
L 483.329049 137.950792 
L 483.666569 136.849361 
L 484.004054 136.768023 
L 484.341573 136.478324 
L 484.679093 135.40053 
L 485.016578 135.068 
L 485.354098 134.405947 
L 485.691583 133.176785 
L 486.029103 132.573914 
L 486.366588 132.506389 
L 487.379112 128.623272 
L 487.716632 129.773044 
L 488.054117 126.777595 
L 488.391637 127.639863 
L 488.729156 126.72977 
L 489.066641 127.608795 
L 489.404161 124.384887 
L 489.74168 125.993845 
L 490.079166 126.34781 
L 490.416685 125.165817 
L 490.754171 125.755622 
L 491.09169 123.257254 
L 491.429175 125.30959 
L 491.766695 124.877436 
L 492.104214 122.963963 
L 492.779219 126.120363 
L 493.116705 123.345392 
L 493.454224 124.56521 
L 493.791743 124.444454 
L 494.129229 123.661151 
L 494.804267 123.813736 
L 495.141753 124.512242 
L 495.479272 123.78726 
L 495.816758 123.74471 
L 496.154277 124.010514 
L 496.491763 123.228465 
L 496.829282 124.473655 
L 497.166801 123.281243 
L 497.504287 123.656627 
L 497.841806 123.256546 
L 498.179292 122.595616 
L 498.516811 123.438961 
L 498.854331 122.960817 
L 499.191816 123.467397 
L 499.529336 124.488644 
L 499.866821 123.704733 
L 500.54186 126.571833 
L 500.879345 126.576726 
L 501.216865 128.579472 
L 501.55435 128.003339 
L 502.566874 125.768262 
L 503.241884 129.98696 
L 503.579403 129.434717 
L 504.254408 127.622733 
L 504.591927 128.193883 
L 505.266932 128.234926 
L 505.604452 125.418258 
L 505.941937 125.222357 
L 506.279456 126.450759 
L 506.616942 125.95217 
L 506.954461 124.420144 
L 507.291981 120.024451 
L 507.629466 119.903353 
L 507.966986 118.804557 
L 508.64199 115.498282 
L 508.97951 114.256098 
L 509.992 106.782376 
L 510.667039 103.11275 
L 511.004524 102.30893 
L 512.017049 94.28049 
L 512.354568 89.196239 
L 514.042097 73.764383 
L 514.717102 66.63719 
L 515.054588 64.915284 
L 515.729626 59.69545 
L 516.067112 59.569477 
L 516.404631 58.482188 
L 516.742117 56.942067 
L 517.079636 56.79094 
L 517.417155 58.099255 
L 517.754641 57.889117 
L 518.767165 63.088625 
L 519.104684 62.568392 
L 519.779689 62.215728 
L 520.79218 55.8071 
L 521.129699 56.602734 
L 521.804704 53.818377 
L 522.142223 53.175181 
L 522.817228 54.274865 
L 523.492233 53.57254 
L 523.829752 53.900348 
L 524.167238 53.597815 
L 524.504757 52.87972 
L 524.842277 53.399322 
L 525.179762 53.337709 
L 525.517282 51.925005 
L 525.854767 51.568258 
L 526.192286 51.558603 
L 526.529806 52.081443 
L 526.867291 50.590649 
L 527.20481 49.829503 
L 527.542296 50.550303 
L 527.879816 50.238367 
L 528.217335 48.867446 
L 528.554821 48.171027 
L 528.89234 48.967311 
L 529.229825 47.51104 
L 529.904864 43.603315 
L 530.24235 42.347197 
L 530.579869 40.644979 
L 530.917355 37.550602 
L 531.254874 36.050337 
L 531.592393 33.560463 
L 531.929879 32.754068 
L 532.267398 31.383257 
L 533.617408 28.992833 
L 533.954927 28.645855 
L 534.292413 28.459695 
L 534.629932 29.098646 
L 535.304937 27.975696 
L 535.642456 29.905022 
L 535.979942 29.894023 
L 536.317461 28.950223 
L 536.654947 29.311276 
L 536.992466 27.712131 
L 537.667471 27.447419 
L 538.00499 27.004731 
L 538.342476 26.877187 
L 538.679995 28.330092 
L 539.017515 27.487246 
L 539.355 28.600718 
L 540.030005 29.002286 
L 540.705043 30.371203 
L 541.380057 34.348301 
L 543.067586 48.711455 
L 544.755115 63.518095 
L 546.105125 75.638897 
L 547.117649 90.932178 
L 547.455169 96.034037 
L 547.792654 98.492911 
L 548.130174 102.180029 
L 548.467659 104.24417 
L 549.142664 111.731113 
L 549.480183 113.931985 
L 550.155188 121.144975 
L 550.492708 127.376214 
L 550.830193 129.390467 
L 551.842717 139.141011 
L 552.517722 144.547401 
L 552.855242 145.984216 
L 553.192761 146.539003 
L 553.530246 148.525185 
L 553.867765 151.475253 
L 554.205251 151.575485 
L 554.54277 152.373371 
L 555.89278 161.758443 
L 556.567819 164.618162 
L 556.905304 164.099029 
L 558.592834 170.282562 
L 558.930353 174.336061 
L 559.267839 176.533283 
L 559.605358 180.337375 
L 559.942844 182.73933 
L 560.280363 188.864266 
L 561.292887 201.079203 
L 561.630373 201.37495 
L 561.967892 201.959909 
L 562.305411 203.420499 
L 562.642897 202.99613 
L 562.980416 200.415031 
L 563.655421 203.345999 
L 563.992941 205.016822 
L 564.330426 206.015279 
L 565.005431 206.485999 
L 565.34295 206.077622 
L 565.680436 206.948477 
L 566.017955 206.977226 
L 566.355475 209.138448 
L 566.69296 208.812876 
L 567.030479 209.535313 
L 567.367965 209.297324 
L 567.705484 211.708585 
L 568.043003 211.34139 
L 568.380489 212.323818 
L 569.055494 209.710501 
L 570.405537 204.256636 
L 570.743023 202.852071 
L 571.080543 202.021805 
L 571.418062 202.036379 
L 572.093067 198.329491 
L 572.430552 198.957554 
L 572.768072 199.327245 
L 573.105557 198.642622 
L 573.443077 197.133405 
L 573.780596 196.995702 
L 574.118081 198.056873 
L 574.455601 196.951582 
L 574.793086 196.398829 
L 575.130606 196.805793 
L 575.805611 194.633372 
L 576.14313 194.152331 
L 576.480615 193.210332 
L 576.818135 189.370003 
L 577.155654 189.25199 
L 577.830659 184.826716 
L 578.168145 180.382398 
L 578.843149 178.496001 
L 579.180669 176.220288 
L 579.518191 175.230196 
L 580.193196 171.397473 
L 580.530681 171.369551 
L 580.868201 169.537681 
L 581.543206 163.464985 
L 582.21821 154.852442 
L 582.55573 148.861768 
L 584.580744 130.995751 
L 584.918264 130.260502 
L 585.930788 126.295411 
L 586.268274 125.539031 
L 586.605793 125.863898 
L 586.943312 125.494516 
L 587.280798 124.625007 
L 587.618317 124.183635 
L 587.955803 124.373012 
L 588.293322 123.444224 
L 588.630841 123.58977 
L 588.968327 121.163275 
L 589.305846 120.714053 
L 589.643332 118.437963 
L 589.980851 118.337286 
L 590.31837 117.263538 
L 590.655856 115.10307 
L 591.66838 117.963947 
L 592.005866 119.606235 
L 592.343385 122.149385 
L 593.01839 124.171097 
L 593.355909 124.499632 
L 593.693395 125.464633 
L 593.693395 125.464633 
" clip-path="url(#p820b483a10)" style="fill: none; stroke: #1f77b4; stroke-width: 2; stroke-linecap: square"/>
   </g>
   <g id="patch_3">
    <path d="M 61.057031 414.957187 
L 61.057031 26.877187 
" style="fill: none; stroke: #808080; stroke-width: 2; stroke-linejoin: miter; stroke-linecap: square"/>
   </g>
   <g id="patch_4">
    <path d="M 61.057031 414.957187 
L 619.057031 414.957187 
" style="fill: none; stroke: #808080; stroke-width: 2; stroke-linejoin: miter; stroke-linecap: square"/>
   </g>
   <g id="text_17">
    <!-- Thorb-Tyholt_restart-vinkel -->
    <g style="fill: #808080" transform="translate(220.892813 20.877187) scale(0.18 -0.18)">
     <defs>
      <path id="DejaVuSans-54" d="M -19 4666 
L 3928 4666 
L 3928 4134 
L 2272 4134 
L 2272 0 
L 1638 0 
L 1638 4134 
L -19 4134 
L -19 4666 
z
" transform="scale(0.015625)"/>
      <path id="DejaVuSans-68" d="M 3513 2113 
L 3513 0 
L 2938 0 
L 2938 2094 
Q 2938 2591 2744 2837 
Q 2550 3084 2163 3084 
Q 1697 3084 1428 2787 
Q 1159 2491 1159 1978 
L 1159 0 
L 581 0 
L 581 4863 
L 1159 4863 
L 1159 2956 
Q 1366 3272 1645 3428 
Q 1925 3584 2291 3584 
Q 2894 3584 3203 3211 
Q 3513 2838 3513 2113 
z
" transform="scale(0.015625)"/>
      <path id="DejaVuSans-6f" d="M 1959 3097 
Q 1497 3097 1228 2736 
Q 959 2375 959 1747 
Q 959 1119 1226 758 
Q 1494 397 1959 397 
Q 2419 397 2687 759 
Q 2956 1122 2956 1747 
Q 2956 2369 2687 2733 
Q 2419 3097 1959 3097 
z
M 1959 3584 
Q 2709 3584 3137 3096 
Q 3566 2609 3566 1747 
Q 3566 888 3137 398 
Q 2709 -91 1959 -91 
Q 1206 -91 779 398 
Q 353 888 353 1747 
Q 353 2609 779 3096 
Q 1206 3584 1959 3584 
z
" transform="scale(0.015625)"/>
      <path id="DejaVuSans-72" d="M 2631 2963 
Q 2534 3019 2420 3045 
Q 2306 3072 2169 3072 
Q 1681 3072 1420 2755 
Q 1159 2438 1159 1844 
L 1159 0 
L 581 0 
L 581 3500 
L 1159 3500 
L 1159 2956 
Q 1341 3275 1631 3429 
Q 1922 3584 2338 3584 
Q 2397 3584 2469 3576 
Q 2541 3569 2628 3553 
L 2631 2963 
z
" transform="scale(0.015625)"/>
      <path id="DejaVuSans-62" d="M 3116 1747 
Q 3116 2381 2855 2742 
Q 2594 3103 2138 3103 
Q 1681 3103 1420 2742 
Q 1159 2381 1159 1747 
Q 1159 1113 1420 752 
Q 1681 391 2138 391 
Q 2594 391 2855 752 
Q 3116 1113 3116 1747 
z
M 1159 2969 
Q 1341 3281 1617 3432 
Q 1894 3584 2278 3584 
Q 2916 3584 3314 3078 
Q 3713 2572 3713 1747 
Q 3713 922 3314 415 
Q 2916 -91 2278 -91 
Q 1894 -91 1617 61 
Q 1341 213 1159 525 
L 1159 0 
L 581 0 
L 581 4863 
L 1159 4863 
L 1159 2969 
z
" transform="scale(0.015625)"/>
      <path id="DejaVuSans-2d" d="M 313 2009 
L 1997 2009 
L 1997 1497 
L 313 1497 
L 313 2009 
z
" transform="scale(0.015625)"/>
      <path id="DejaVuSans-79" d="M 2059 -325 
Q 1816 -950 1584 -1140 
Q 1353 -1331 966 -1331 
L 506 -1331 
L 506 -850 
L 844 -850 
Q 1081 -850 1212 -737 
Q 1344 -625 1503 -206 
L 1606 56 
L 191 3500 
L 800 3500 
L 1894 763 
L 2988 3500 
L 3597 3500 
L 2059 -325 
z
" transform="scale(0.015625)"/>
      <path id="DejaVuSans-6c" d="M 603 4863 
L 1178 4863 
L 1178 0 
L 603 0 
L 603 4863 
z
" transform="scale(0.015625)"/>
      <path id="DejaVuSans-5f" d="M 3263 -1063 
L 3263 -1509 
L -63 -1509 
L -63 -1063 
L 3263 -1063 
z
" transform="scale(0.015625)"/>
      <path id="DejaVuSans-61" d="M 2194 1759 
Q 1497 1759 1228 1600 
Q 959 1441 959 1056 
Q 959 750 1161 570 
Q 1363 391 1709 391 
Q 2188 391 2477 730 
Q 2766 1069 2766 1631 
L 2766 1759 
L 2194 1759 
z
M 3341 1997 
L 3341 0 
L 2766 0 
L 2766 531 
Q 2569 213 2275 61 
Q 1981 -91 1556 -91 
Q 1019 -91 701 211 
Q 384 513 384 1019 
Q 384 1609 779 1909 
Q 1175 2209 1959 2209 
L 2766 2209 
L 2766 2266 
Q 2766 2663 2505 2880 
Q 2244 3097 1772 3097 
Q 1472 3097 1187 3025 
Q 903 2953 641 2809 
L 641 3341 
Q 956 3463 1253 3523 
Q 1550 3584 1831 3584 
Q 2591 3584 2966 3190 
Q 3341 2797 3341 1997 
z
" transform="scale(0.015625)"/>
      <path id="DejaVuSans-76" d="M 191 3500 
L 800 3500 
L 1894 563 
L 2988 3500 
L 3597 3500 
L 2284 0 
L 1503 0 
L 191 3500 
z
" transform="scale(0.015625)"/>
      <path id="DejaVuSans-6e" d="M 3513 2113 
L 3513 0 
L 2938 0 
L 2938 2094 
Q 2938 2591 2744 2837 
Q 2550 3084 2163 3084 
Q 1697 3084 1428 2787 
Q 1159 2491 1159 1978 
L 1159 0 
L 581 0 
L 581 3500 
L 1159 3500 
L 1159 2956 
Q 1366 3272 1645 3428 
Q 1925 3584 2291 3584 
Q 2894 3584 3203 3211 
Q 3513 2838 3513 2113 
z
" transform="scale(0.015625)"/>
      <path id="DejaVuSans-6b" d="M 581 4863 
L 1159 4863 
L 1159 1991 
L 2875 3500 
L 3609 3500 
L 1753 1863 
L 3688 0 
L 2938 0 
L 1159 1709 
L 1159 0 
L 581 0 
L 581 4863 
z
" transform="scale(0.015625)"/>
     </defs>
     <use xlink:href="#DejaVuSans-54"/>
     <use xlink:href="#DejaVuSans-68" x="61.083984"/>
     <use xlink:href="#DejaVuSans-6f" x="124.462891"/>
     <use xlink:href="#DejaVuSans-72" x="185.644531"/>
     <use xlink:href="#DejaVuSans-62" x="226.757812"/>
     <use xlink:href="#DejaVuSans-2d" x="290.234375"/>
     <use xlink:href="#DejaVuSans-54" x="317.193359"/>
     <use xlink:href="#DejaVuSans-79" x="362.652344"/>
     <use xlink:href="#DejaVuSans-68" x="421.832031"/>
     <use xlink:href="#DejaVuSans-6f" x="485.210938"/>
     <use xlink:href="#DejaVuSans-6c" x="546.392578"/>
     <use xlink:href="#DejaVuSans-74" x="574.175781"/>
     <use xlink:href="#DejaVuSans-5f" x="613.384766"/>
     <use xlink:href="#DejaVuSans-72" x="663.384766"/>
     <use xlink:href="#DejaVuSans-65" x="702.248047"/>
     <use xlink:href="#DejaVuSans-73" x="763.771484"/>
     <use xlink:href="#DejaVuSans-74" x="815.871094"/>
     <use xlink:href="#DejaVuSans-61" x="855.080078"/>
     <use xlink:href="#DejaVuSans-72" x="916.359375"/>
     <use xlink:href="#DejaVuSans-74" x="957.472656"/>
     <use xlink:href="#DejaVuSans-2d" x="996.681641"/>
     <use xlink:href="#DejaVuSans-76" x="1030.140625"/>
     <use xlink:href="#DejaVuSans-69" x="1089.320312"/>
     <use xlink:href="#DejaVuSans-6e" x="1117.103516"/>
     <use xlink:href="#DejaVuSans-6b" x="1180.482422"/>
     <use xlink:href="#DejaVuSans-65" x="1234.767578"/>
     <use xlink:href="#DejaVuSans-6c" x="1296.291016"/>
    </g>
   </g>
   <g id="legend_1">
    <g id="patch_5">
     <path d="M 361.95 407.457187 
L 608.557031 407.457187 
Q 611.557031 407.457187 611.557031 404.457187 
L 611.557031 383.522812 
Q 611.557031 380.522812 608.557031 380.522812 
L 361.95 380.522812 
Q 358.95 380.522812 358.95 383.522812 
L 358.95 404.457187 
Q 358.95 407.457187 361.95 407.457187 
z
" style="fill: #ffffff; opacity: 0.8; stroke: #cccccc; stroke-linejoin: miter"/>
    </g>
    <g id="line2d_30">
     <path d="M 364.95 392.670469 
L 379.95 392.670469 
L 394.95 392.670469 
" style="fill: none; stroke: #1f77b4; stroke-width: 2; stroke-linecap: square"/>
    </g>
    <g id="text_18">
     <!-- Thorb-Tyholt_restart-vinkel -->
     <g style="fill: #808080" transform="translate(406.95 397.920469) scale(0.15 -0.15)">
      <use xlink:href="#DejaVuSans-54"/>
      <use xlink:href="#DejaVuSans-68" x="61.083984"/>
      <use xlink:href="#DejaVuSans-6f" x="124.462891"/>
      <use xlink:href="#DejaVuSans-72" x="185.644531"/>
      <use xlink:href="#DejaVuSans-62" x="226.757812"/>
      <use xlink:href="#DejaVuSans-2d" x="290.234375"/>
      <use xlink:href="#DejaVuSans-54" x="317.193359"/>
      <use xlink:href="#DejaVuSans-79" x="362.652344"/>
      <use xlink:href="#DejaVuSans-68" x="421.832031"/>
      <use xlink:href="#DejaVuSans-6f" x="485.210938"/>
      <use xlink:href="#DejaVuSans-6c" x="546.392578"/>
      <use xlink:href="#DejaVuSans-74" x="574.175781"/>
      <use xlink:href="#DejaVuSans-5f" x="613.384766"/>
      <use xlink:href="#DejaVuSans-72" x="663.384766"/>
      <use xlink:href="#DejaVuSans-65" x="702.248047"/>
      <use xlink:href="#DejaVuSans-73" x="763.771484"/>
      <use xlink:href="#DejaVuSans-74" x="815.871094"/>
      <use xlink:href="#DejaVuSans-61" x="855.080078"/>
      <use xlink:href="#DejaVuSans-72" x="916.359375"/>
      <use xlink:href="#DejaVuSans-74" x="957.472656"/>
      <use xlink:href="#DejaVuSans-2d" x="996.681641"/>
      <use xlink:href="#DejaVuSans-76" x="1030.140625"/>
      <use xlink:href="#DejaVuSans-69" x="1089.320312"/>
      <use xlink:href="#DejaVuSans-6e" x="1117.103516"/>
      <use xlink:href="#DejaVuSans-6b" x="1180.482422"/>
      <use xlink:href="#DejaVuSans-65" x="1234.767578"/>
      <use xlink:href="#DejaVuSans-6c" x="1296.291016"/>
     </g>
    </g>
   </g>
  </g>
 </g>
 <defs>
  <clipPath id="p820b483a10">
   <rect x="61.057031" y="26.877187" width="558" height="388.08"/>
  </clipPath>
 </defs>
</svg>
