<?xml version="1.0" encoding="utf-8" standalone="no"?>
<!DOCTYPE svg PUBLIC "-//W3C//DTD SVG 1.1//EN"
  "http://www.w3.org/Graphics/SVG/1.1/DTD/svg11.dtd">
<svg xmlns:xlink="http://www.w3.org/1999/xlink" width="613.6875pt" height="458.691562pt" viewBox="0 0 613.6875 458.691562" xmlns="http://www.w3.org/2000/svg" version="1.1">
 <metadata>
  <rdf:RDF xmlns:dc="http://purl.org/dc/elements/1.1/" xmlns:cc="http://creativecommons.org/ns#" xmlns:rdf="http://www.w3.org/1999/02/22-rdf-syntax-ns#">
   <cc:Work>
    <dc:type rdf:resource="http://purl.org/dc/dcmitype/StillImage"/>
    <dc:date>2023-04-10T19:04:08.737200</dc:date>
    <dc:format>image/svg+xml</dc:format>
    <dc:creator>
     <cc:Agent>
      <dc:title>Matplotlib v3.7.1, https://matplotlib.org/</dc:title>
     </cc:Agent>
    </dc:creator>
   </cc:Work>
  </rdf:RDF>
 </metadata>
 <defs>
  <style type="text/css">*{stroke-linejoin: round; stroke-linecap: butt}</style>
 </defs>
 <g id="figure_1">
  <g id="patch_1">
   <path d="M 0 458.691562 
L 613.6875 458.691562 
L 613.6875 0 
L 0 0 
L 0 458.691562 
z
" style="fill: none"/>
  </g>
  <g id="axes_1">
   <g id="patch_2">
    <path d="M 48.4875 414.957187 
L 606.4875 414.957187 
L 606.4875 26.877187 
L 48.4875 26.877187 
L 48.4875 414.957187 
z
" style="fill: none"/>
   </g>
   <g id="matplotlib.axis_1">
    <g id="xtick_1">
     <g id="line2d_1">
      <path d="M 74.104985 414.957187 
L 74.104985 26.877187 
" clip-path="url(#pfbb6d06036)" style="fill: none; stroke: #808080; stroke-width: 0.8; stroke-linecap: square"/>
     </g>
     <g id="line2d_2">
      <defs>
       <path id="mf14e31d1fe" d="M 0 0 
L 0 -5 
" style="stroke: #808080; stroke-width: 0.8"/>
      </defs>
      <g>
       <use xlink:href="#mf14e31d1fe" x="74.104985" y="414.957187" style="fill: #808080; stroke: #808080; stroke-width: 0.8"/>
      </g>
     </g>
     <g id="text_1">
      <!-- 50 -->
      <g style="fill: #808080" transform="translate(64.561235 429.854844) scale(0.15 -0.15)">
       <defs>
        <path id="DejaVuSans-35" d="M 691 4666 
L 3169 4666 
L 3169 4134 
L 1269 4134 
L 1269 2991 
Q 1406 3038 1543 3061 
Q 1681 3084 1819 3084 
Q 2600 3084 3056 2656 
Q 3513 2228 3513 1497 
Q 3513 744 3044 326 
Q 2575 -91 1722 -91 
Q 1428 -91 1123 -41 
Q 819 9 494 109 
L 494 744 
Q 775 591 1075 516 
Q 1375 441 1709 441 
Q 2250 441 2565 725 
Q 2881 1009 2881 1497 
Q 2881 1984 2565 2268 
Q 2250 2553 1709 2553 
Q 1456 2553 1204 2497 
Q 953 2441 691 2322 
L 691 4666 
z
" transform="scale(0.015625)"/>
        <path id="DejaVuSans-30" d="M 2034 4250 
Q 1547 4250 1301 3770 
Q 1056 3291 1056 2328 
Q 1056 1369 1301 889 
Q 1547 409 2034 409 
Q 2525 409 2770 889 
Q 3016 1369 3016 2328 
Q 3016 3291 2770 3770 
Q 2525 4250 2034 4250 
z
M 2034 4750 
Q 2819 4750 3233 4129 
Q 3647 3509 3647 2328 
Q 3647 1150 3233 529 
Q 2819 -91 2034 -91 
Q 1250 -91 836 529 
Q 422 1150 422 2328 
Q 422 3509 836 4129 
Q 1250 4750 2034 4750 
z
" transform="scale(0.015625)"/>
       </defs>
       <use xlink:href="#DejaVuSans-35"/>
       <use xlink:href="#DejaVuSans-30" x="63.623047"/>
      </g>
     </g>
    </g>
    <g id="xtick_2">
     <g id="line2d_3">
      <path d="M 158.679907 414.957187 
L 158.679907 26.877187 
" clip-path="url(#pfbb6d06036)" style="fill: none; stroke: #808080; stroke-width: 0.8; stroke-linecap: square"/>
     </g>
     <g id="line2d_4">
      <g>
       <use xlink:href="#mf14e31d1fe" x="158.679907" y="414.957187" style="fill: #808080; stroke: #808080; stroke-width: 0.8"/>
      </g>
     </g>
     <g id="text_2">
      <!-- 55 -->
      <g style="fill: #808080" transform="translate(149.136157 429.854844) scale(0.15 -0.15)">
       <use xlink:href="#DejaVuSans-35"/>
       <use xlink:href="#DejaVuSans-35" x="63.623047"/>
      </g>
     </g>
    </g>
    <g id="xtick_3">
     <g id="line2d_5">
      <path d="M 243.25483 414.957187 
L 243.25483 26.877187 
" clip-path="url(#pfbb6d06036)" style="fill: none; stroke: #808080; stroke-width: 0.8; stroke-linecap: square"/>
     </g>
     <g id="line2d_6">
      <g>
       <use xlink:href="#mf14e31d1fe" x="243.25483" y="414.957187" style="fill: #808080; stroke: #808080; stroke-width: 0.8"/>
      </g>
     </g>
     <g id="text_3">
      <!-- 60 -->
      <g style="fill: #808080" transform="translate(233.71108 429.854844) scale(0.15 -0.15)">
       <defs>
        <path id="DejaVuSans-36" d="M 2113 2584 
Q 1688 2584 1439 2293 
Q 1191 2003 1191 1497 
Q 1191 994 1439 701 
Q 1688 409 2113 409 
Q 2538 409 2786 701 
Q 3034 994 3034 1497 
Q 3034 2003 2786 2293 
Q 2538 2584 2113 2584 
z
M 3366 4563 
L 3366 3988 
Q 3128 4100 2886 4159 
Q 2644 4219 2406 4219 
Q 1781 4219 1451 3797 
Q 1122 3375 1075 2522 
Q 1259 2794 1537 2939 
Q 1816 3084 2150 3084 
Q 2853 3084 3261 2657 
Q 3669 2231 3669 1497 
Q 3669 778 3244 343 
Q 2819 -91 2113 -91 
Q 1303 -91 875 529 
Q 447 1150 447 2328 
Q 447 3434 972 4092 
Q 1497 4750 2381 4750 
Q 2619 4750 2861 4703 
Q 3103 4656 3366 4563 
z
" transform="scale(0.015625)"/>
       </defs>
       <use xlink:href="#DejaVuSans-36"/>
       <use xlink:href="#DejaVuSans-30" x="63.623047"/>
      </g>
     </g>
    </g>
    <g id="xtick_4">
     <g id="line2d_7">
      <path d="M 327.829752 414.957187 
L 327.829752 26.877187 
" clip-path="url(#pfbb6d06036)" style="fill: none; stroke: #808080; stroke-width: 0.8; stroke-linecap: square"/>
     </g>
     <g id="line2d_8">
      <g>
       <use xlink:href="#mf14e31d1fe" x="327.829752" y="414.957187" style="fill: #808080; stroke: #808080; stroke-width: 0.8"/>
      </g>
     </g>
     <g id="text_4">
      <!-- 65 -->
      <g style="fill: #808080" transform="translate(318.286002 429.854844) scale(0.15 -0.15)">
       <use xlink:href="#DejaVuSans-36"/>
       <use xlink:href="#DejaVuSans-35" x="63.623047"/>
      </g>
     </g>
    </g>
    <g id="xtick_5">
     <g id="line2d_9">
      <path d="M 412.404674 414.957187 
L 412.404674 26.877187 
" clip-path="url(#pfbb6d06036)" style="fill: none; stroke: #808080; stroke-width: 0.8; stroke-linecap: square"/>
     </g>
     <g id="line2d_10">
      <g>
       <use xlink:href="#mf14e31d1fe" x="412.404674" y="414.957187" style="fill: #808080; stroke: #808080; stroke-width: 0.8"/>
      </g>
     </g>
     <g id="text_5">
      <!-- 70 -->
      <g style="fill: #808080" transform="translate(402.860924 429.854844) scale(0.15 -0.15)">
       <defs>
        <path id="DejaVuSans-37" d="M 525 4666 
L 3525 4666 
L 3525 4397 
L 1831 0 
L 1172 0 
L 2766 4134 
L 525 4134 
L 525 4666 
z
" transform="scale(0.015625)"/>
       </defs>
       <use xlink:href="#DejaVuSans-37"/>
       <use xlink:href="#DejaVuSans-30" x="63.623047"/>
      </g>
     </g>
    </g>
    <g id="xtick_6">
     <g id="line2d_11">
      <path d="M 496.979596 414.957187 
L 496.979596 26.877187 
" clip-path="url(#pfbb6d06036)" style="fill: none; stroke: #808080; stroke-width: 0.8; stroke-linecap: square"/>
     </g>
     <g id="line2d_12">
      <g>
       <use xlink:href="#mf14e31d1fe" x="496.979596" y="414.957187" style="fill: #808080; stroke: #808080; stroke-width: 0.8"/>
      </g>
     </g>
     <g id="text_6">
      <!-- 75 -->
      <g style="fill: #808080" transform="translate(487.435846 429.854844) scale(0.15 -0.15)">
       <use xlink:href="#DejaVuSans-37"/>
       <use xlink:href="#DejaVuSans-35" x="63.623047"/>
      </g>
     </g>
    </g>
    <g id="xtick_7">
     <g id="line2d_13">
      <path d="M 581.554518 414.957187 
L 581.554518 26.877187 
" clip-path="url(#pfbb6d06036)" style="fill: none; stroke: #808080; stroke-width: 0.8; stroke-linecap: square"/>
     </g>
     <g id="line2d_14">
      <g>
       <use xlink:href="#mf14e31d1fe" x="581.554518" y="414.957187" style="fill: #808080; stroke: #808080; stroke-width: 0.8"/>
      </g>
     </g>
     <g id="text_7">
      <!-- 80 -->
      <g style="fill: #808080" transform="translate(572.010768 429.854844) scale(0.15 -0.15)">
       <defs>
        <path id="DejaVuSans-38" d="M 2034 2216 
Q 1584 2216 1326 1975 
Q 1069 1734 1069 1313 
Q 1069 891 1326 650 
Q 1584 409 2034 409 
Q 2484 409 2743 651 
Q 3003 894 3003 1313 
Q 3003 1734 2745 1975 
Q 2488 2216 2034 2216 
z
M 1403 2484 
Q 997 2584 770 2862 
Q 544 3141 544 3541 
Q 544 4100 942 4425 
Q 1341 4750 2034 4750 
Q 2731 4750 3128 4425 
Q 3525 4100 3525 3541 
Q 3525 3141 3298 2862 
Q 3072 2584 2669 2484 
Q 3125 2378 3379 2068 
Q 3634 1759 3634 1313 
Q 3634 634 3220 271 
Q 2806 -91 2034 -91 
Q 1263 -91 848 271 
Q 434 634 434 1313 
Q 434 1759 690 2068 
Q 947 2378 1403 2484 
z
M 1172 3481 
Q 1172 3119 1398 2916 
Q 1625 2713 2034 2713 
Q 2441 2713 2670 2916 
Q 2900 3119 2900 3481 
Q 2900 3844 2670 4047 
Q 2441 4250 2034 4250 
Q 1625 4250 1398 4047 
Q 1172 3844 1172 3481 
z
" transform="scale(0.015625)"/>
       </defs>
       <use xlink:href="#DejaVuSans-38"/>
       <use xlink:href="#DejaVuSans-30" x="63.623047"/>
      </g>
     </g>
    </g>
    <g id="text_8">
     <!-- time [s] -->
     <g style="fill: #808080" transform="translate(298.400391 448.372031) scale(0.15 -0.15)">
      <defs>
       <path id="DejaVuSans-74" d="M 1172 4494 
L 1172 3500 
L 2356 3500 
L 2356 3053 
L 1172 3053 
L 1172 1153 
Q 1172 725 1289 603 
Q 1406 481 1766 481 
L 2356 481 
L 2356 0 
L 1766 0 
Q 1100 0 847 248 
Q 594 497 594 1153 
L 594 3053 
L 172 3053 
L 172 3500 
L 594 3500 
L 594 4494 
L 1172 4494 
z
" transform="scale(0.015625)"/>
       <path id="DejaVuSans-69" d="M 603 3500 
L 1178 3500 
L 1178 0 
L 603 0 
L 603 3500 
z
M 603 4863 
L 1178 4863 
L 1178 4134 
L 603 4134 
L 603 4863 
z
" transform="scale(0.015625)"/>
       <path id="DejaVuSans-6d" d="M 3328 2828 
Q 3544 3216 3844 3400 
Q 4144 3584 4550 3584 
Q 5097 3584 5394 3201 
Q 5691 2819 5691 2113 
L 5691 0 
L 5113 0 
L 5113 2094 
Q 5113 2597 4934 2840 
Q 4756 3084 4391 3084 
Q 3944 3084 3684 2787 
Q 3425 2491 3425 1978 
L 3425 0 
L 2847 0 
L 2847 2094 
Q 2847 2600 2669 2842 
Q 2491 3084 2119 3084 
Q 1678 3084 1418 2786 
Q 1159 2488 1159 1978 
L 1159 0 
L 581 0 
L 581 3500 
L 1159 3500 
L 1159 2956 
Q 1356 3278 1631 3431 
Q 1906 3584 2284 3584 
Q 2666 3584 2933 3390 
Q 3200 3197 3328 2828 
z
" transform="scale(0.015625)"/>
       <path id="DejaVuSans-65" d="M 3597 1894 
L 3597 1613 
L 953 1613 
Q 991 1019 1311 708 
Q 1631 397 2203 397 
Q 2534 397 2845 478 
Q 3156 559 3463 722 
L 3463 178 
Q 3153 47 2828 -22 
Q 2503 -91 2169 -91 
Q 1331 -91 842 396 
Q 353 884 353 1716 
Q 353 2575 817 3079 
Q 1281 3584 2069 3584 
Q 2775 3584 3186 3129 
Q 3597 2675 3597 1894 
z
M 3022 2063 
Q 3016 2534 2758 2815 
Q 2500 3097 2075 3097 
Q 1594 3097 1305 2825 
Q 1016 2553 972 2059 
L 3022 2063 
z
" transform="scale(0.015625)"/>
       <path id="DejaVuSans-20" transform="scale(0.015625)"/>
       <path id="DejaVuSans-5b" d="M 550 4863 
L 1875 4863 
L 1875 4416 
L 1125 4416 
L 1125 -397 
L 1875 -397 
L 1875 -844 
L 550 -844 
L 550 4863 
z
" transform="scale(0.015625)"/>
       <path id="DejaVuSans-73" d="M 2834 3397 
L 2834 2853 
Q 2591 2978 2328 3040 
Q 2066 3103 1784 3103 
Q 1356 3103 1142 2972 
Q 928 2841 928 2578 
Q 928 2378 1081 2264 
Q 1234 2150 1697 2047 
L 1894 2003 
Q 2506 1872 2764 1633 
Q 3022 1394 3022 966 
Q 3022 478 2636 193 
Q 2250 -91 1575 -91 
Q 1294 -91 989 -36 
Q 684 19 347 128 
L 347 722 
Q 666 556 975 473 
Q 1284 391 1588 391 
Q 1994 391 2212 530 
Q 2431 669 2431 922 
Q 2431 1156 2273 1281 
Q 2116 1406 1581 1522 
L 1381 1569 
Q 847 1681 609 1914 
Q 372 2147 372 2553 
Q 372 3047 722 3315 
Q 1072 3584 1716 3584 
Q 2034 3584 2315 3537 
Q 2597 3491 2834 3397 
z
" transform="scale(0.015625)"/>
       <path id="DejaVuSans-5d" d="M 1947 4863 
L 1947 -844 
L 622 -844 
L 622 -397 
L 1369 -397 
L 1369 4416 
L 622 4416 
L 622 4863 
L 1947 4863 
z
" transform="scale(0.015625)"/>
      </defs>
      <use xlink:href="#DejaVuSans-74"/>
      <use xlink:href="#DejaVuSans-69" x="39.208984"/>
      <use xlink:href="#DejaVuSans-6d" x="66.992188"/>
      <use xlink:href="#DejaVuSans-65" x="164.404297"/>
      <use xlink:href="#DejaVuSans-20" x="225.927734"/>
      <use xlink:href="#DejaVuSans-5b" x="257.714844"/>
      <use xlink:href="#DejaVuSans-73" x="296.728516"/>
      <use xlink:href="#DejaVuSans-5d" x="348.828125"/>
     </g>
    </g>
   </g>
   <g id="matplotlib.axis_2">
    <g id="ytick_1">
     <g id="line2d_15">
      <path d="M 48.4875 407.672518 
L 606.4875 407.672518 
" clip-path="url(#pfbb6d06036)" style="fill: none; stroke: #808080; stroke-width: 0.8; stroke-linecap: square"/>
     </g>
     <g id="line2d_16">
      <defs>
       <path id="m53cd3e12cb" d="M 0 0 
L 5 0 
" style="stroke: #808080; stroke-width: 0.8"/>
      </defs>
      <g>
       <use xlink:href="#m53cd3e12cb" x="48.4875" y="407.672518" style="fill: #808080; stroke: #808080; stroke-width: 0.8"/>
      </g>
     </g>
     <g id="text_9">
      <!-- 4 -->
      <g style="fill: #808080" transform="translate(35.44375 413.371346) scale(0.15 -0.15)">
       <defs>
        <path id="DejaVuSans-34" d="M 2419 4116 
L 825 1625 
L 2419 1625 
L 2419 4116 
z
M 2253 4666 
L 3047 4666 
L 3047 1625 
L 3713 1625 
L 3713 1100 
L 3047 1100 
L 3047 0 
L 2419 0 
L 2419 1100 
L 313 1100 
L 313 1709 
L 2253 4666 
z
" transform="scale(0.015625)"/>
       </defs>
       <use xlink:href="#DejaVuSans-34"/>
      </g>
     </g>
    </g>
    <g id="ytick_2">
     <g id="line2d_17">
      <path d="M 48.4875 346.673765 
L 606.4875 346.673765 
" clip-path="url(#pfbb6d06036)" style="fill: none; stroke: #808080; stroke-width: 0.8; stroke-linecap: square"/>
     </g>
     <g id="line2d_18">
      <g>
       <use xlink:href="#m53cd3e12cb" x="48.4875" y="346.673765" style="fill: #808080; stroke: #808080; stroke-width: 0.8"/>
      </g>
     </g>
     <g id="text_10">
      <!-- 6 -->
      <g style="fill: #808080" transform="translate(35.44375 352.372593) scale(0.15 -0.15)">
       <use xlink:href="#DejaVuSans-36"/>
      </g>
     </g>
    </g>
    <g id="ytick_3">
     <g id="line2d_19">
      <path d="M 48.4875 285.675011 
L 606.4875 285.675011 
" clip-path="url(#pfbb6d06036)" style="fill: none; stroke: #808080; stroke-width: 0.8; stroke-linecap: square"/>
     </g>
     <g id="line2d_20">
      <g>
       <use xlink:href="#m53cd3e12cb" x="48.4875" y="285.675011" style="fill: #808080; stroke: #808080; stroke-width: 0.8"/>
      </g>
     </g>
     <g id="text_11">
      <!-- 8 -->
      <g style="fill: #808080" transform="translate(35.44375 291.37384) scale(0.15 -0.15)">
       <use xlink:href="#DejaVuSans-38"/>
      </g>
     </g>
    </g>
    <g id="ytick_4">
     <g id="line2d_21">
      <path d="M 48.4875 224.676258 
L 606.4875 224.676258 
" clip-path="url(#pfbb6d06036)" style="fill: none; stroke: #808080; stroke-width: 0.8; stroke-linecap: square"/>
     </g>
     <g id="line2d_22">
      <g>
       <use xlink:href="#m53cd3e12cb" x="48.4875" y="224.676258" style="fill: #808080; stroke: #808080; stroke-width: 0.8"/>
      </g>
     </g>
     <g id="text_12">
      <!-- 10 -->
      <g style="fill: #808080" transform="translate(25.9 230.375086) scale(0.15 -0.15)">
       <defs>
        <path id="DejaVuSans-31" d="M 794 531 
L 1825 531 
L 1825 4091 
L 703 3866 
L 703 4441 
L 1819 4666 
L 2450 4666 
L 2450 531 
L 3481 531 
L 3481 0 
L 794 0 
L 794 531 
z
" transform="scale(0.015625)"/>
       </defs>
       <use xlink:href="#DejaVuSans-31"/>
       <use xlink:href="#DejaVuSans-30" x="63.623047"/>
      </g>
     </g>
    </g>
    <g id="ytick_5">
     <g id="line2d_23">
      <path d="M 48.4875 163.677505 
L 606.4875 163.677505 
" clip-path="url(#pfbb6d06036)" style="fill: none; stroke: #808080; stroke-width: 0.8; stroke-linecap: square"/>
     </g>
     <g id="line2d_24">
      <g>
       <use xlink:href="#m53cd3e12cb" x="48.4875" y="163.677505" style="fill: #808080; stroke: #808080; stroke-width: 0.8"/>
      </g>
     </g>
     <g id="text_13">
      <!-- 12 -->
      <g style="fill: #808080" transform="translate(25.9 169.376333) scale(0.15 -0.15)">
       <defs>
        <path id="DejaVuSans-32" d="M 1228 531 
L 3431 531 
L 3431 0 
L 469 0 
L 469 531 
Q 828 903 1448 1529 
Q 2069 2156 2228 2338 
Q 2531 2678 2651 2914 
Q 2772 3150 2772 3378 
Q 2772 3750 2511 3984 
Q 2250 4219 1831 4219 
Q 1534 4219 1204 4116 
Q 875 4013 500 3803 
L 500 4441 
Q 881 4594 1212 4672 
Q 1544 4750 1819 4750 
Q 2544 4750 2975 4387 
Q 3406 4025 3406 3419 
Q 3406 3131 3298 2873 
Q 3191 2616 2906 2266 
Q 2828 2175 2409 1742 
Q 1991 1309 1228 531 
z
" transform="scale(0.015625)"/>
       </defs>
       <use xlink:href="#DejaVuSans-31"/>
       <use xlink:href="#DejaVuSans-32" x="63.623047"/>
      </g>
     </g>
    </g>
    <g id="ytick_6">
     <g id="line2d_25">
      <path d="M 48.4875 102.678751 
L 606.4875 102.678751 
" clip-path="url(#pfbb6d06036)" style="fill: none; stroke: #808080; stroke-width: 0.8; stroke-linecap: square"/>
     </g>
     <g id="line2d_26">
      <g>
       <use xlink:href="#m53cd3e12cb" x="48.4875" y="102.678751" style="fill: #808080; stroke: #808080; stroke-width: 0.8"/>
      </g>
     </g>
     <g id="text_14">
      <!-- 14 -->
      <g style="fill: #808080" transform="translate(25.9 108.377579) scale(0.15 -0.15)">
       <use xlink:href="#DejaVuSans-31"/>
       <use xlink:href="#DejaVuSans-34" x="63.623047"/>
      </g>
     </g>
    </g>
    <g id="ytick_7">
     <g id="line2d_27">
      <path d="M 48.4875 41.679998 
L 606.4875 41.679998 
" clip-path="url(#pfbb6d06036)" style="fill: none; stroke: #808080; stroke-width: 0.8; stroke-linecap: square"/>
     </g>
     <g id="line2d_28">
      <g>
       <use xlink:href="#m53cd3e12cb" x="48.4875" y="41.679998" style="fill: #808080; stroke: #808080; stroke-width: 0.8"/>
      </g>
     </g>
     <g id="text_15">
      <!-- 16 -->
      <g style="fill: #808080" transform="translate(25.9 47.378826) scale(0.15 -0.15)">
       <use xlink:href="#DejaVuSans-31"/>
       <use xlink:href="#DejaVuSans-36" x="63.623047"/>
      </g>
     </g>
    </g>
    <g id="text_16">
     <!-- $\theta$ [deg] -->
     <g style="fill: #808080" transform="translate(18.75 247.917187) rotate(-90) scale(0.15 -0.15)">
      <defs>
       <path id="DejaVuSans-Oblique-3b8" d="M 2913 2219 
L 925 2219 
Q 791 1284 928 888 
Q 1100 400 1566 400 
Q 2034 400 2391 891 
Q 2703 1322 2913 2219 
z
M 3009 2750 
Q 3094 3638 2984 3950 
Q 2813 4444 2353 4444 
Q 1875 4444 1525 3956 
Q 1250 3563 1034 2750 
L 3009 2750 
z
M 2444 4913 
Q 3194 4913 3494 4250 
Q 3794 3591 3566 2422 
Q 3341 1256 2781 594 
Q 2225 -72 1475 -72 
Q 722 -72 425 594 
Q 128 1256 353 2422 
Q 581 3591 1134 4250 
Q 1691 4913 2444 4913 
z
" transform="scale(0.015625)"/>
       <path id="DejaVuSans-64" d="M 2906 2969 
L 2906 4863 
L 3481 4863 
L 3481 0 
L 2906 0 
L 2906 525 
Q 2725 213 2448 61 
Q 2172 -91 1784 -91 
Q 1150 -91 751 415 
Q 353 922 353 1747 
Q 353 2572 751 3078 
Q 1150 3584 1784 3584 
Q 2172 3584 2448 3432 
Q 2725 3281 2906 2969 
z
M 947 1747 
Q 947 1113 1208 752 
Q 1469 391 1925 391 
Q 2381 391 2643 752 
Q 2906 1113 2906 1747 
Q 2906 2381 2643 2742 
Q 2381 3103 1925 3103 
Q 1469 3103 1208 2742 
Q 947 2381 947 1747 
z
" transform="scale(0.015625)"/>
       <path id="DejaVuSans-67" d="M 2906 1791 
Q 2906 2416 2648 2759 
Q 2391 3103 1925 3103 
Q 1463 3103 1205 2759 
Q 947 2416 947 1791 
Q 947 1169 1205 825 
Q 1463 481 1925 481 
Q 2391 481 2648 825 
Q 2906 1169 2906 1791 
z
M 3481 434 
Q 3481 -459 3084 -895 
Q 2688 -1331 1869 -1331 
Q 1566 -1331 1297 -1286 
Q 1028 -1241 775 -1147 
L 775 -588 
Q 1028 -725 1275 -790 
Q 1522 -856 1778 -856 
Q 2344 -856 2625 -561 
Q 2906 -266 2906 331 
L 2906 616 
Q 2728 306 2450 153 
Q 2172 0 1784 0 
Q 1141 0 747 490 
Q 353 981 353 1791 
Q 353 2603 747 3093 
Q 1141 3584 1784 3584 
Q 2172 3584 2450 3431 
Q 2728 3278 2906 2969 
L 2906 3500 
L 3481 3500 
L 3481 434 
z
" transform="scale(0.015625)"/>
      </defs>
      <use xlink:href="#DejaVuSans-Oblique-3b8" transform="translate(0 0.234375)"/>
      <use xlink:href="#DejaVuSans-20" transform="translate(61.181641 0.234375)"/>
      <use xlink:href="#DejaVuSans-5b" transform="translate(92.96875 0.234375)"/>
      <use xlink:href="#DejaVuSans-64" transform="translate(131.982422 0.234375)"/>
      <use xlink:href="#DejaVuSans-65" transform="translate(195.458984 0.234375)"/>
      <use xlink:href="#DejaVuSans-67" transform="translate(256.982422 0.234375)"/>
      <use xlink:href="#DejaVuSans-5d" transform="translate(320.458984 0.234375)"/>
     </g>
    </g>
   </g>
   <g id="line2d_29">
    <path d="M 73.851136 243.956902 
L 74.01983 248.492492 
L 74.357233 278.51632 
L 74.525943 262.491979 
L 74.863346 294.914328 
L 75.032039 244.790906 
L 75.200749 254.618497 
L 75.538135 302.654039 
L 75.706845 262.154831 
L 76.044249 299.080277 
L 76.212942 261.312735 
L 76.381652 293.874918 
L 76.719055 265.328062 
L 76.887748 299.247114 
L 77.056441 301.876021 
L 77.225151 335.694484 
L 77.393845 305.409317 
L 77.731248 319.220406 
L 77.899958 323.342575 
L 78.068651 313.474573 
L 78.237361 310.556537 
L 78.574764 260.125395 
L 78.743457 261.064538 
L 78.91215 293.171339 
L 79.249554 243.89314 
L 79.586957 293.903337 
L 79.92436 251.398438 
L 80.261763 313.375118 
L 80.430456 272.630595 
L 80.599166 308.867427 
L 80.76786 318.850433 
L 80.93657 258.57008 
L 81.105263 282.739536 
L 81.611359 226.640398 
L 81.780069 238.10333 
L 81.948762 262.160943 
L 82.117472 231.282277 
L 82.286163 286.137169 
L 82.454873 276.188305 
L 82.792277 298.993648 
L 82.96097 298.936485 
L 83.129663 308.871891 
L 83.298373 287.941121 
L 83.467066 249.299662 
L 83.635776 264.283886 
L 83.804469 258.698436 
L 83.973179 261.282402 
L 84.141872 270.138102 
L 84.479276 274.040472 
L 84.816679 305.247519 
L 84.985372 304.530339 
L 85.154082 301.222548 
L 85.491485 287.741392 
L 85.660178 289.953336 
L 85.828871 280.968064 
L 85.997582 348.516861 
L 86.334985 302.29205 
L 86.503678 307.915725 
L 86.672388 282.942318 
L 87.009774 319.037692 
L 87.347177 267.31963 
L 87.515887 273.533824 
L 87.684581 318.182557 
L 87.853291 328.712383 
L 88.021984 273.339267 
L 88.190677 314.79532 
L 88.359387 298.316691 
L 88.52808 336.297828 
L 88.69679 342.497604 
L 88.865483 289.170227 
L 89.034193 283.437913 
L 89.202886 331.18347 
L 89.371597 305.35972 
L 89.54029 320.506327 
L 89.708983 285.676815 
L 89.877693 302.981977 
L 90.046386 275.684907 
L 90.215096 292.487654 
L 90.383789 289.431035 
L 90.552499 262.157689 
L 90.721192 259.597039 
L 90.889886 304.197521 
L 91.058596 286.698989 
L 91.227289 304.554849 
L 91.395999 273.46721 
L 91.564692 300.9779 
L 91.733402 273.239219 
L 91.902095 353.170803 
L 92.408191 242.198108 
L 92.576902 275.747709 
L 92.745595 257.174905 
L 92.914305 299.23144 
L 93.082998 258.641562 
L 93.420401 300.938827 
L 93.589094 321.09771 
L 93.757804 357.081439 
L 93.926497 283.351175 
L 94.095207 313.120862 
L 94.432611 305.508751 
L 94.769997 261.27193 
L 94.938707 280.350019 
L 95.1074 283.432804 
L 95.27611 304.185992 
L 95.444803 268.638077 
L 95.782207 318.712091 
L 95.9509 281.129513 
L 96.11961 300.322589 
L 96.288303 294.713306 
L 96.457013 294.664044 
L 96.625706 298.536254 
L 96.794399 288.180572 
L 96.963109 302.926416 
L 97.300512 271.783459 
L 97.469206 302.872772 
L 97.637916 300.396246 
L 97.806609 313.020761 
L 97.975302 287.391156 
L 98.144012 242.718935 
L 98.312705 275.771569 
L 98.650108 249.106978 
L 98.818818 336.637293 
L 98.987511 308.945028 
L 99.156205 254.93215 
L 99.324915 247.175525 
L 99.493608 293.601605 
L 99.831011 301.581721 
L 99.999721 295.945693 
L 100.168414 264.781655 
L 100.337107 320.296342 
L 100.505817 321.141507 
L 100.843221 293.076654 
L 101.011914 306.237303 
L 101.180607 343.933341 
L 101.686722 293.971122 
L 101.855415 301.882794 
L 102.192819 248.330101 
L 102.530222 298.503712 
L 102.698915 241.662613 
L 102.867625 243.276896 
L 103.036318 291.838819 
L 103.205028 290.078552 
L 103.373721 254.354482 
L 103.542415 285.231164 
L 103.711125 266.090609 
L 103.879818 264.015224 
L 104.048528 254.805053 
L 104.217221 228.162331 
L 104.385914 249.980841 
L 104.554624 226.543371 
L 104.723317 248.361191 
L 104.892027 252.578205 
L 105.06072 236.365166 
L 105.22943 302.381354 
L 105.398124 288.528264 
L 105.566817 284.884595 
L 105.735527 270.861071 
L 105.90422 292.695437 
L 106.07293 273.189983 
L 106.241623 269.728469 
L 106.410316 248.800478 
L 106.579026 287.908778 
L 106.747719 256.835214 
L 106.91643 251.435207 
L 107.085123 283.501205 
L 107.253833 270.201666 
L 107.422526 275.607572 
L 107.591219 255.36899 
L 107.759929 296.745217 
L 107.928622 288.178332 
L 108.097332 257.403054 
L 108.266025 296.619569 
L 108.772122 213.359523 
L 108.940832 231.024168 
L 109.109525 228.497042 
L 109.278235 254.721113 
L 109.446928 301.729412 
L 109.615621 266.399662 
L 109.784331 298.445198 
L 110.121735 261.487537 
L 110.290428 258.60509 
L 110.459138 303.647337 
L 110.627831 269.436787 
L 110.796524 267.171418 
L 110.965234 193.85901 
L 111.302637 284.700511 
L 111.47133 285.00285 
L 111.640024 254.558445 
L 111.808734 255.049712 
L 111.977427 271.5776 
L 112.146137 221.27561 
L 112.483523 286.893332 
L 112.652233 274.805379 
L 112.820926 281.45287 
L 112.989636 274.448916 
L 113.158329 272.287752 
L 113.327023 235.449831 
L 113.495733 322.764334 
L 113.664426 283.414043 
L 113.833136 280.545215 
L 114.001829 243.627938 
L 114.170539 273.093132 
L 114.339232 249.643233 
L 114.507925 242.30852 
L 114.676635 295.837679 
L 114.845329 224.226546 
L 115.014039 247.03256 
L 115.182732 226.490801 
L 115.520135 265.406857 
L 115.857538 222.319078 
L 116.026231 254.606587 
L 116.194924 199.432735 
L 116.363634 198.688631 
L 116.532328 198.714247 
L 116.701038 233.879601 
L 116.869731 210.510248 
L 117.207134 232.147899 
L 117.375827 255.687033 
L 117.544537 198.170968 
L 117.88194 269.273327 
L 118.050633 261.84488 
L 118.219327 195.006959 
L 118.388037 273.051162 
L 118.55673 237.90297 
L 118.72544 283.010979 
L 118.894133 277.9572 
L 119.062826 319.276179 
L 119.231536 296.019455 
L 119.400229 309.874811 
L 119.737633 265.413156 
L 119.906326 223.111804 
L 120.075036 260.576115 
L 120.243729 268.51302 
L 120.581128 215.102417 
L 120.749821 280.139612 
L 120.918531 278.362576 
L 121.087224 262.963783 
L 121.255934 227.764338 
L 121.424627 246.684993 
L 121.593321 251.613377 
L 121.762031 264.591037 
L 121.930724 256.334735 
L 122.099434 301.114637 
L 122.268127 263.199328 
L 122.43682 295.878405 
L 122.60553 258.658632 
L 122.774223 290.285182 
L 122.942933 285.016787 
L 123.111626 289.589309 
L 123.28032 281.583807 
L 123.44903 266.750676 
L 123.617723 279.187322 
L 123.786433 259.210039 
L 123.955126 266.746972 
L 124.123819 241.587181 
L 124.292529 191.433593 
L 124.629932 227.356385 
L 124.798625 221.633713 
L 124.967319 186.211013 
L 125.136029 271.105139 
L 125.304722 239.245992 
L 125.642125 281.295793 
L 125.810818 252.005466 
L 125.979528 273.495023 
L 126.148221 221.722689 
L 126.316931 208.272109 
L 126.485625 243.035357 
L 126.654318 231.03697 
L 126.823028 244.575363 
L 126.991721 190.012752 
L 127.666527 306.03045 
L 127.83522 256.026494 
L 128.00393 255.797763 
L 128.172624 249.315048 
L 128.341317 309.926797 
L 128.510027 269.771784 
L 128.67872 269.28011 
L 128.84743 228.527249 
L 129.184816 267.553613 
L 129.353526 286.000032 
L 129.522219 281.420143 
L 129.69093 270.471449 
L 129.859623 300.344853 
L 130.028316 297.494173 
L 130.365719 217.339244 
L 130.534429 284.704033 
L 130.703122 270.275908 
L 130.871815 315.166185 
L 131.040525 328.682302 
L 131.546622 282.875904 
L 131.715315 292.668053 
L 131.884025 261.815472 
L 132.052718 296.622143 
L 132.221428 267.076661 
L 132.390121 260.803032 
L 132.558814 231.765631 
L 132.727524 234.389179 
L 132.896218 244.75583 
L 133.064911 235.823903 
L 133.233621 233.437083 
L 133.402314 223.480223 
L 133.571024 235.271294 
L 133.739717 213.516384 
L 134.245813 255.870587 
L 134.583217 221.283591 
L 134.75191 255.40249 
L 134.92062 249.132891 
L 135.089313 223.97704 
L 135.258023 293.401227 
L 135.426716 216.888155 
L 135.595409 221.46575 
L 135.764119 256.523737 
L 135.932813 259.614251 
L 136.101523 266.438886 
L 136.270216 292.58193 
L 136.438909 267.064137 
L 136.607619 265.681695 
L 136.776312 270.041901 
L 136.945022 251.423417 
L 137.113715 272.867325 
L 137.282408 271.361371 
L 137.451118 294.000275 
L 137.788505 252.215381 
L 137.957215 264.502705 
L 138.125908 235.377743 
L 138.294618 237.132992 
L 138.463311 269.56722 
L 138.632004 266.529935 
L 138.800714 227.709473 
L 138.969407 288.710368 
L 139.306811 266.559227 
L 139.475504 280.057303 
L 139.644221 272.894722 
L 139.812914 285.070081 
L 139.981607 237.687116 
L 140.150317 252.870522 
L 140.48772 244.825669 
L 140.656413 276.591747 
L 140.825107 265.396854 
L 140.993817 272.270251 
L 141.33122 194.004303 
L 141.837316 310.164955 
L 142.006009 285.259966 
L 142.174719 218.161026 
L 142.512106 277.079338 
L 142.849509 246.067097 
L 143.018202 236.712097 
L 143.186912 240.80899 
L 143.524315 296.294272 
L 143.693008 232.512082 
L 144.030412 245.621101 
L 144.199105 285.892156 
L 144.367798 270.425303 
L 144.536508 310.032166 
L 144.705201 310.180172 
L 145.042604 239.465221 
L 145.211297 247.416225 
L 145.380007 323.150989 
L 145.548701 288.391959 
L 145.717411 295.348378 
L 146.223507 233.609634 
L 146.3922 246.752336 
L 146.560893 222.208644 
L 146.729603 264.038255 
L 146.898296 245.749719 
L 147.067006 256.317468 
L 147.2357 254.720143 
L 147.404393 273.271938 
L 147.573103 241.479143 
L 147.741796 243.33964 
L 148.079199 304.77688 
L 148.247892 289.524803 
L 148.416602 312.788402 
L 148.753989 225.076378 
L 148.922699 210.068902 
L 149.091392 267.756786 
L 149.260102 251.638511 
L 149.428795 257.633607 
L 149.597488 270.231559 
L 149.766198 243.773809 
L 149.934891 271.214519 
L 150.272295 230.980872 
L 150.440988 233.46341 
L 150.609698 249.643049 
L 150.947084 215.841981 
L 151.115794 282.796956 
L 151.45318 220.586056 
L 151.62189 240.782097 
L 151.790584 201.025634 
L 151.959294 195.215902 
L 152.127987 242.562167 
L 152.46539 252.090052 
L 152.634083 247.076499 
L 152.802776 272.818343 
L 152.971486 263.462633 
L 153.140179 237.16927 
L 153.308889 230.146597 
L 153.477583 259.950281 
L 153.646276 231.395602 
L 153.814986 278.252873 
L 154.152372 229.180867 
L 154.321082 206.18958 
L 154.827178 300.107256 
L 154.995872 248.378573 
L 155.164582 260.387045 
L 155.501968 241.401293 
L 155.670678 246.618835 
L 155.839371 244.163672 
L 156.008064 246.50506 
L 156.176774 245.643823 
L 156.345467 230.178697 
L 156.682871 282.810273 
L 156.851564 211.61107 
L 157.020274 227.688795 
L 157.35766 310.906162 
L 157.52637 289.846009 
L 157.695063 220.301023 
L 157.863773 279.121466 
L 158.032467 253.294285 
L 158.20116 263.414276 
L 158.538563 239.884845 
L 158.707256 232.232435 
L 158.875958 245.502051 
L 159.044651 222.467153 
L 159.213361 217.973465 
L 159.382054 277.728448 
L 159.719457 241.080534 
L 159.88815 234.33304 
L 160.056843 286.847821 
L 160.225553 221.553072 
L 160.394247 266.063697 
L 160.562957 225.414315 
L 160.73165 222.370831 
L 160.900343 230.03498 
L 161.069053 257.550546 
L 161.237746 248.226612 
L 161.406439 245.84343 
L 161.575149 218.152696 
L 161.743842 212.395645 
L 161.912536 216.777353 
L 162.249939 282.071061 
L 162.418649 217.336678 
L 162.587342 262.865705 
L 162.756035 212.634098 
L 162.924745 218.832757 
L 163.093438 217.581952 
L 163.262131 250.160732 
L 163.430842 242.38453 
L 163.599535 225.076209 
L 163.768228 242.517648 
L 163.936938 244.580091 
L 164.105631 216.136901 
L 164.443034 239.449009 
L 164.611727 235.983441 
L 164.780437 237.075786 
L 164.949131 243.548246 
L 165.117824 258.964176 
L 165.286534 257.765936 
L 165.455227 246.73 
L 165.62392 243.084475 
L 165.79263 269.818402 
L 165.961323 262.859776 
L 166.298726 279.404507 
L 166.46742 272.084262 
L 166.63613 332.498255 
L 166.973516 275.9751 
L 167.142226 287.117305 
L 167.310919 252.480757 
L 167.479612 263.703933 
L 167.648322 303.386782 
L 167.817015 302.979121 
L 167.985725 301.122785 
L 168.323112 238.087171 
L 168.491822 282.250207 
L 168.660515 274.176662 
L 168.829208 279.778817 
L 168.997918 267.253522 
L 169.166611 296.264113 
L 169.335304 291.089728 
L 169.504014 341.450185 
L 169.672708 286.33306 
L 170.010111 324.677574 
L 170.178804 287.751291 
L 170.347514 299.592169 
L 170.516207 302.406953 
L 170.6849 250.416323 
L 170.85361 317.821714 
L 171.190997 244.877973 
L 171.359707 302.246069 
L 171.5284 302.973041 
L 171.697093 258.458311 
L 171.865803 306.389306 
L 172.034496 273.994444 
L 172.203206 318.481794 
L 172.371899 305.693029 
L 172.540592 305.986966 
L 172.709303 308.823684 
L 172.877996 271.893072 
L 173.046689 280.490523 
L 173.215399 257.137422 
L 173.384092 305.435986 
L 173.552785 291.088326 
L 173.721495 328.0529 
L 173.890188 318.884716 
L 174.058881 285.271435 
L 174.227592 303.663096 
L 174.396285 287.994001 
L 174.564995 319.525438 
L 174.733688 317.700428 
L 174.902381 287.18523 
L 175.071091 303.124601 
L 175.745881 256.434265 
L 176.083284 325.716743 
L 176.42067 222.229913 
L 176.58938 233.093289 
L 176.758073 236.359326 
L 176.926766 214.936466 
L 177.095476 258.234536 
L 177.26417 263.821206 
L 177.43288 257.771533 
L 177.601573 285.089515 
L 177.770266 286.30852 
L 177.938976 290.90799 
L 178.107686 281.98538 
L 178.276379 266.571851 
L 178.445089 280.459527 
L 178.613782 268.166553 
L 178.782475 284.895587 
L 178.951185 288.428678 
L 179.119879 280.791696 
L 179.288572 323.058605 
L 179.457282 313.939885 
L 179.625975 343.626903 
L 179.963378 268.807495 
L 180.132071 284.592886 
L 180.469475 337.084848 
L 180.806878 297.965644 
L 180.975571 304.585081 
L 181.144264 327.094648 
L 181.312974 280.435963 
L 181.65036 384.873431 
L 181.987764 290.326235 
L 182.156457 306.477791 
L 182.325167 362.70729 
L 182.662553 296.460953 
L 183.168649 353.002396 
L 183.506053 265.603032 
L 183.674746 290.631453 
L 183.843456 366.516148 
L 184.012149 356.81535 
L 184.180859 365.529588 
L 184.349552 322.633281 
L 184.518245 362.747724 
L 184.686955 358.51411 
L 184.855648 330.494195 
L 185.024342 332.659888 
L 185.193052 328.65046 
L 185.361745 296.041142 
L 185.530438 295.285493 
L 185.699148 327.599518 
L 185.867841 280.344239 
L 186.036534 268.51787 
L 186.373937 314.31156 
L 186.542631 299.681021 
L 186.711341 321.001481 
L 186.880034 314.265309 
L 187.048727 324.611371 
L 187.217437 310.460007 
L 187.38613 339.425188 
L 187.554823 307.133173 
L 187.723533 319.306581 
L 187.892226 297.514936 
L 188.06092 352.034222 
L 188.22963 342.281216 
L 188.398323 313.860124 
L 188.567016 338.714101 
L 188.735726 298.766819 
L 188.904419 364.646123 
L 189.073129 382.95588 
L 189.241822 361.73419 
L 189.410515 373.102701 
L 189.579225 344.270604 
L 189.747919 363.960558 
L 189.916612 334.389725 
L 190.085322 329.323737 
L 190.254015 397.120069 
L 190.760111 307.979469 
L 190.928804 294.13647 
L 191.097514 315.515391 
L 191.266208 295.784435 
L 191.434901 326.851757 
L 191.603611 304.285753 
L 191.772304 333.600458 
L 191.940997 323.969589 
L 192.109707 304.369105 
L 192.2784 322.329262 
L 192.447093 290.356583 
L 192.615803 284.134867 
L 192.784497 291.667917 
L 192.95319 274.699818 
L 193.1219 316.14386 
L 193.290593 300.647105 
L 193.459286 334.371582 
L 193.627996 332.826534 
L 193.796689 302.180475 
L 193.965382 299.087921 
L 194.134092 317.641877 
L 194.302786 356.867433 
L 194.471479 338.982858 
L 194.808882 366.907134 
L 194.977575 371.124771 
L 195.146285 322.614262 
L 195.483671 312.908421 
L 195.652381 296.160698 
L 195.821075 290.614262 
L 195.989785 275.209965 
L 196.158478 280.915425 
L 196.327171 266.313743 
L 196.495864 266.5762 
L 196.664574 330.085864 
L 197.001977 300.195911 
L 197.339352 255.503324 
L 197.508046 288.823666 
L 197.676756 288.501658 
L 197.845449 308.183226 
L 198.014159 351.082272 
L 198.182852 312.86872 
L 198.688948 287.888116 
L 198.857641 324.663822 
L 199.195045 281.763863 
L 199.363738 306.089103 
L 199.532448 313.44092 
L 199.701141 314.52707 
L 199.869834 307.239019 
L 200.038544 275.052445 
L 200.207237 317.826414 
L 200.54464 244.952825 
L 200.713334 268.095131 
L 200.882027 265.930672 
L 201.050737 239.500422 
L 201.21943 269.013742 
L 201.388123 243.684146 
L 201.556833 251.542684 
L 201.725526 293.061006 
L 201.894219 294.21436 
L 202.231623 267.615244 
L 202.400316 289.985156 
L 202.569026 291.184171 
L 202.737719 273.14803 
L 202.906412 268.128809 
L 203.075122 249.69163 
L 203.243815 260.243974 
L 203.412508 238.779255 
L 203.749912 280.65716 
L 204.087315 226.39479 
L 204.424701 246.031064 
L 204.762104 269.839573 
L 204.930797 270.765019 
L 205.099508 273.260704 
L 205.268201 251.59332 
L 205.436894 295.613625 
L 205.605587 279.435109 
L 205.94299 325.417929 
L 206.111683 313.14289 
L 206.449086 261.255731 
L 206.617797 289.182866 
L 206.955183 234.758561 
L 207.123876 264.453235 
L 207.292586 271.447492 
L 207.461279 255.565678 
L 207.798682 292.232311 
L 207.967375 277.175026 
L 208.136069 250.96194 
L 208.473472 285.312731 
L 208.810875 253.237194 
L 208.979568 258.745058 
L 209.148261 288.299399 
L 209.485664 256.701887 
L 209.654358 267.470424 
L 209.823068 261.766061 
L 209.991761 213.326098 
L 210.160454 303.417339 
L 210.329164 310.300655 
L 210.497857 237.291672 
L 210.66655 262.770943 
L 210.83526 269.736395 
L 211.003953 310.366519 
L 211.172647 277.668015 
L 211.341357 308.305998 
L 211.51005 315.853678 
L 211.678743 263.971467 
L 211.847453 255.929342 
L 212.016146 322.421211 
L 212.353549 286.912346 
L 212.522242 291.620057 
L 212.690936 269.454123 
L 212.859646 267.93266 
L 213.028339 235.172771 
L 213.365742 253.511606 
L 213.534435 281.96637 
L 213.703128 233.680533 
L 213.871821 250.590724 
L 214.040531 297.470508 
L 214.209225 291.894219 
L 214.377918 240.856316 
L 214.546628 276.417649 
L 214.715321 280.651759 
L 214.884014 290.656976 
L 215.052724 236.497388 
L 215.221417 238.692674 
L 215.39011 225.115399 
L 215.55882 222.789533 
L 215.727514 235.472977 
L 215.896207 236.330525 
L 216.064917 216.531891 
L 216.23361 215.366666 
L 216.402295 257.35476 
L 216.571005 233.019932 
L 216.739699 285.582052 
L 217.245795 302.952544 
L 217.414488 324.573206 
L 217.583198 289.416229 
L 217.751891 307.788613 
L 217.920584 231.640307 
L 218.089294 224.488991 
L 218.426681 271.295817 
L 218.595374 246.735837 
L 218.764084 284.141624 
L 218.932777 253.548496 
L 219.10147 262.762782 
L 219.27018 241.741611 
L 219.438873 245.780522 
L 219.607566 227.323163 
L 219.776277 240.367445 
L 219.94497 238.272246 
L 220.113663 247.826204 
L 220.451066 229.430996 
L 220.619759 264.627937 
L 220.788469 219.860696 
L 220.957162 210.393542 
L 221.125855 253.021343 
L 221.294566 246.521152 
L 221.463259 261.800199 
L 221.631952 262.255002 
L 221.800662 235.087045 
L 221.969355 227.212004 
L 222.138048 257.358016 
L 222.306758 236.450517 
L 222.475451 239.352561 
L 222.812838 275.126168 
L 222.981548 245.33349 
L 223.150241 276.885935 
L 223.318934 243.335633 
L 223.487644 250.747291 
L 223.656337 237.55994 
L 223.82503 251.244589 
L 223.99374 302.359558 
L 224.162433 258.206406 
L 224.331127 281.591349 
L 224.66853 285.338285 
L 224.837223 236.134908 
L 225.005933 235.391611 
L 225.174626 258.895139 
L 225.343319 258.958368 
L 225.512012 293.34518 
L 225.680722 302.649778 
L 225.849416 322.350465 
L 226.018109 321.461109 
L 226.186819 310.637335 
L 226.355512 326.575515 
L 226.524205 279.067534 
L 226.692915 277.099612 
L 226.861608 291.074428 
L 227.030301 263.743811 
L 227.199011 270.926551 
L 227.367705 266.007814 
L 227.536398 296.96423 
L 227.705108 289.981315 
L 227.873801 239.871871 
L 228.211187 274.602987 
L 228.379897 276.31373 
L 228.54859 283.256244 
L 228.717284 301.998777 
L 228.885994 305.843998 
L 229.054687 278.670373 
L 229.22338 291.564372 
L 229.560783 257.66223 
L 229.729476 274.659777 
L 229.898186 274.695311 
L 230.066879 272.931031 
L 230.235573 268.276491 
L 230.404283 292.279623 
L 230.572976 255.766325 
L 230.910362 245.341072 
L 231.079072 198.842153 
L 231.247765 226.978716 
L 231.416458 231.478232 
L 231.585168 196.56966 
L 231.753862 236.969812 
L 231.922555 244.533626 
L 232.091265 231.942222 
L 232.259958 270.495537 
L 232.428651 236.209809 
L 232.766054 276.445852 
L 233.103441 264.423504 
L 233.272151 289.579421 
L 233.440844 253.85563 
L 233.609537 284.976422 
L 233.778247 254.171199 
L 233.94694 264.362285 
L 234.115633 234.09243 
L 234.284343 227.256278 
L 234.453036 236.883216 
L 234.62173 228.488617 
L 234.959133 280.295531 
L 235.127826 247.888373 
L 235.296519 256.485424 
L 235.465229 282.511138 
L 235.633939 281.905906 
L 235.802632 249.962293 
L 235.971342 243.041794 
L 236.140035 286.240532 
L 236.308729 274.25242 
L 236.477439 285.940629 
L 236.646132 268.818621 
L 236.983518 328.821214 
L 237.152228 353.995741 
L 237.320921 348.415278 
L 237.658324 263.540944 
L 237.827018 313.22957 
L 238.333114 268.758715 
L 238.501807 274.149756 
L 238.6705 284.79086 
L 238.83921 339.366211 
L 239.176597 295.152214 
L 239.345307 300.324005 
L 239.682693 288.07543 
L 239.851403 298.907211 
L 240.020096 302.277117 
L 240.188789 296.822211 
L 240.357499 245.91639 
L 240.526192 292.03563 
L 240.694886 277.166601 
L 241.200982 297.203701 
L 241.369675 276.430819 
L 241.538385 283.650909 
L 241.707078 296.905132 
L 242.044481 267.468311 
L 242.213175 276.60852 
L 242.381868 266.542836 
L 242.550561 299.294536 
L 242.719271 296.771774 
L 242.887964 247.068987 
L 243.056657 306.062488 
L 243.225367 307.30714 
L 243.731464 255.304573 
L 243.900157 261.510591 
L 244.06885 257.819138 
L 244.237543 227.240366 
L 244.574946 249.274487 
L 244.743639 247.156571 
L 245.081042 314.386662 
L 245.249736 273.672357 
L 245.418429 270.742165 
L 245.587139 285.132037 
L 246.093235 242.589231 
L 246.261928 278.784743 
L 246.430621 285.612722 
L 246.599332 310.835288 
L 246.768025 306.379473 
L 246.936718 288.81833 
L 247.105411 291.637535 
L 247.442814 249.257924 
L 247.611507 276.918352 
L 247.780217 237.315151 
L 247.94891 244.459723 
L 248.117604 261.67929 
L 248.286314 229.516725 
L 248.455007 222.481754 
L 248.6237 225.363662 
L 248.792393 247.824113 
L 248.961103 240.033065 
L 249.129796 199.762046 
L 249.298489 215.463251 
L 249.467199 267.847619 
L 249.635893 242.023584 
L 249.804586 242.707781 
L 249.973279 234.030792 
L 250.141989 244.188015 
L 250.310682 243.985533 
L 250.479375 245.715106 
L 250.648085 265.705171 
L 250.816778 272.417045 
L 250.985472 226.531911 
L 251.154182 226.492017 
L 251.491568 291.700142 
L 251.828971 285.66562 
L 251.997664 274.428021 
L 252.166357 231.061984 
L 252.503761 297.970747 
L 252.672454 242.455848 
L 253.009857 276.291153 
L 253.17855 265.743701 
L 253.347243 274.57735 
L 253.515953 268.083759 
L 253.684646 290.046343 
L 253.853339 253.211998 
L 254.022033 339.913012 
L 254.190743 330.855929 
L 254.359436 338.416715 
L 254.696841 309.468585 
L 254.865534 313.283212 
L 255.034227 293.393932 
L 255.371631 331.51402 
L 255.709017 319.12746 
L 255.877727 324.768867 
L 256.383823 366.042696 
L 256.552516 304.045926 
L 256.721209 313.638318 
L 256.889903 297.993514 
L 257.058613 350.604777 
L 257.227306 354.214012 
L 257.733402 330.330315 
L 258.070788 295.274206 
L 258.239498 300.745164 
L 258.408192 292.53489 
L 258.576885 263.249665 
L 258.745595 266.50827 
L 258.914288 285.550303 
L 259.082981 288.662115 
L 259.251674 280.148622 
L 259.589077 333.418677 
L 259.757771 290.416426 
L 259.926481 334.50808 
L 260.095174 332.104796 
L 260.43256 310.273197 
L 260.60127 308.430609 
L 260.769963 317.586635 
L 260.938656 296.042907 
L 261.107366 334.847391 
L 261.27606 400.360122 
L 261.444753 334.684457 
L 261.613446 347.001199 
L 261.782156 335.020506 
L 261.950849 308.764086 
L 262.119542 319.155965 
L 262.288252 305.14578 
L 262.456945 336.943389 
L 262.625639 300.36749 
L 262.794332 334.082277 
L 262.963042 333.035895 
L 263.131735 323.621561 
L 263.300428 346.64169 
L 263.469138 335.56479 
L 263.637831 338.237951 
L 263.806524 369.371028 
L 263.975217 310.577801 
L 264.143928 335.804005 
L 264.312621 304.03725 
L 264.481314 335.745203 
L 264.650024 341.875715 
L 264.818717 319.350426 
L 265.156103 361.481331 
L 265.493506 342.60439 
L 265.6622 334.390432 
L 265.830893 340.453634 
L 266.168296 307.629206 
L 266.336989 382.744101 
L 266.505699 337.778496 
L 266.674392 329.088668 
L 266.843085 351.325982 
L 267.011779 289.463637 
L 267.180489 319.553495 
L 267.349182 313.913681 
L 267.517875 312.952549 
L 267.855278 356.732481 
L 268.023971 344.113121 
L 268.192664 304.014272 
L 268.361374 332.340809 
L 268.530068 271.767698 
L 268.698761 308.065545 
L 268.867471 281.767554 
L 269.204857 361.350017 
L 269.37355 299.494005 
L 269.54226 282.684194 
L 269.710953 286.003197 
L 269.879647 294.541255 
L 270.04834 351.735167 
L 270.21705 323.878379 
L 270.385743 335.926988 
L 270.554436 358.397534 
L 270.723146 365.930749 
L 271.060532 302.3502 
L 271.397936 333.020635 
L 271.566629 312.558324 
L 271.904032 345.568494 
L 272.241418 323.601865 
L 272.578821 329.718717 
L 272.747514 300.284705 
L 273.084901 363.182554 
L 273.422304 317.519924 
L 273.590997 307.989501 
L 273.759707 284.640792 
L 273.928391 299.175601 
L 274.097084 294.116535 
L 274.265777 334.469758 
L 274.434487 330.976391 
L 274.603181 290.893451 
L 274.771874 356.927432 
L 274.940567 357.407453 
L 275.109277 336.016761 
L 275.27797 331.188552 
L 275.784066 298.779655 
L 275.95276 325.579441 
L 276.121453 307.450791 
L 276.290163 307.748087 
L 276.458856 321.339201 
L 276.627549 354.355413 
L 276.796242 310.223547 
L 276.964952 323.454454 
L 277.133645 365.158851 
L 277.302339 325.86648 
L 277.471049 334.396828 
L 277.639742 308.036304 
L 277.808435 325.581549 
L 277.977128 326.960076 
L 278.145838 322.550325 
L 278.483224 277.136688 
L 278.651917 281.171808 
L 278.820628 311.027853 
L 279.158014 272.351222 
L 279.326724 301.571745 
L 279.495417 285.125871 
L 279.66411 317.962675 
L 279.832803 261.199644 
L 280.001513 269.160802 
L 280.3389 318.236659 
L 280.676303 305.087641 
L 281.013689 224.544517 
L 281.182399 258.3663 
L 281.351092 253.906188 
L 281.519785 285.902403 
L 281.688479 274.761618 
L 281.857189 278.017303 
L 282.025882 310.496338 
L 282.363268 283.613751 
L 282.531978 293.541436 
L 282.869364 240.591607 
L 283.038058 338.522046 
L 283.206768 256.422103 
L 283.375461 260.14181 
L 283.544154 274.325022 
L 283.712864 252.637789 
L 283.881557 298.716999 
L 284.218943 227.035988 
L 284.387653 286.622967 
L 284.556347 284.617046 
L 284.72504 328.884258 
L 284.893733 255.286173 
L 285.062443 282.477272 
L 285.231136 238.351722 
L 285.399829 256.17971 
L 285.568522 250.655898 
L 285.737232 201.266172 
L 285.905925 226.53939 
L 286.074619 231.726644 
L 286.243329 202.894719 
L 286.749408 256.05508 
L 287.086811 268.353905 
L 287.255504 238.316779 
L 287.424198 241.01435 
L 287.592908 318.232532 
L 287.761601 265.044616 
L 287.930294 297.493563 
L 288.098987 242.634275 
L 288.43639 288.148756 
L 288.605083 271.980126 
L 288.773776 274.439402 
L 288.942487 307.075073 
L 289.11118 271.029217 
L 289.448583 348.19689 
L 289.785969 293.277103 
L 289.954662 341.250692 
L 290.123372 302.601324 
L 290.292066 328.058065 
L 290.798162 253.916293 
L 290.966855 284.613604 
L 291.135548 261.998092 
L 291.304241 295.563821 
L 291.472951 260.592559 
L 291.641644 304.482354 
L 291.810338 306.102053 
L 291.979031 273.237122 
L 292.147741 289.667797 
L 292.485127 380.248814 
L 292.65382 351.679532 
L 292.82253 348.474457 
L 292.99122 349.39728 
L 293.328623 233.119583 
L 293.497316 221.700596 
L 293.666009 290.603651 
L 293.834702 284.738955 
L 294.003413 303.589187 
L 294.172106 245.244444 
L 294.340799 294.956204 
L 294.509492 281.951481 
L 294.678202 277.935376 
L 294.846895 307.696838 
L 295.015588 294.716412 
L 295.184281 299.427328 
L 295.352991 331.529836 
L 295.690378 329.836197 
L 295.859071 337.598234 
L 296.027781 311.716354 
L 296.196474 308.103269 
L 296.365167 319.323827 
L 296.53386 290.53981 
L 296.70257 292.400466 
L 296.871264 296.068723 
L 297.039957 264.356249 
L 297.20865 266.134443 
L 297.37736 315.736306 
L 297.546053 330.117835 
L 297.883439 315.7699 
L 298.052149 326.499831 
L 298.220843 319.317681 
L 298.558246 269.276856 
L 298.726939 287.528279 
L 299.064325 267.912575 
L 299.233035 233.362791 
L 299.401728 272.478156 
L 299.570421 271.463021 
L 299.739115 302.072297 
L 299.907825 304.174499 
L 300.076518 253.200812 
L 300.245211 276.110818 
L 300.413904 281.691335 
L 300.751307 337.999251 
L 300.92 307.724709 
L 301.088694 305.38427 
L 301.257404 270.002841 
L 301.763483 230.649373 
L 302.100886 278.605413 
L 302.269579 247.013544 
L 302.438272 295.708326 
L 302.775676 181.304571 
L 302.944369 191.017245 
L 303.113062 219.420208 
L 303.281772 213.496398 
L 303.619158 272.696756 
L 303.787851 292.278985 
L 303.956561 265.974017 
L 304.293948 304.66061 
L 304.462641 298.508903 
L 304.631351 230.919601 
L 304.968737 288.807694 
L 305.13743 339.241947 
L 305.30614 328.996726 
L 305.474834 255.679344 
L 305.643527 279.423269 
L 305.81222 349.348497 
L 305.98093 284.749356 
L 306.149623 319.995743 
L 306.487009 292.060889 
L 306.655719 293.259048 
L 306.824413 315.825389 
L 307.330509 284.827641 
L 307.499202 341.905696 
L 307.667895 251.743605 
L 307.836588 249.989893 
L 308.005298 229.167774 
L 308.342685 305.513483 
L 308.511378 256.47086 
L 308.680088 295.924103 
L 308.848781 277.704102 
L 309.017474 281.226555 
L 309.186167 244.040775 
L 309.52357 261.870083 
L 309.692264 229.333816 
L 309.860957 296.807879 
L 310.029667 315.605549 
L 310.367053 289.362981 
L 310.535746 302.491484 
L 310.704456 225.467991 
L 310.873149 273.644639 
L 311.041843 279.187924 
L 311.210536 306.897168 
L 311.379246 269.723977 
L 311.547939 274.741625 
L 311.716632 252.881161 
L 311.885325 279.149644 
L 312.054035 262.477327 
L 312.22274 265.329482 
L 312.391433 246.187931 
L 312.560127 294.040142 
L 312.728837 297.333989 
L 312.89753 303.14475 
L 313.066223 231.578217 
L 313.234916 220.550494 
L 313.403626 271.747639 
L 313.572319 281.775111 
L 313.741012 244.302115 
L 313.909706 274.208346 
L 314.078416 332.735532 
L 314.415802 317.590163 
L 314.753205 264.273984 
L 314.921898 310.396802 
L 315.090591 288.17128 
L 315.259285 305.128819 
L 315.427995 288.19829 
L 315.596688 214.921199 
L 316.102767 285.994322 
L 316.271477 289.490652 
L 316.608863 229.590144 
L 316.946267 292.264393 
L 317.11496 297.292131 
L 317.283653 266.440621 
L 317.621056 341.691272 
L 317.789749 338.474442 
L 317.958442 332.929998 
L 318.127136 333.554885 
L 318.464539 301.543819 
L 318.633232 368.617764 
L 318.801925 336.907937 
L 318.970635 258.193617 
L 319.476715 280.014302 
L 319.645425 308.008604 
L 319.814118 298.722017 
L 319.982811 322.178022 
L 320.151504 242.630859 
L 320.320197 275.36586 
L 320.488907 282.392433 
L 320.826293 270.730898 
L 320.994987 285.483758 
L 321.163697 310.346575 
L 321.33239 305.68479 
L 321.501083 284.444535 
L 321.838486 315.216198 
L 322.175872 282.384248 
L 322.344566 242.946542 
L 322.513276 306.599378 
L 322.681969 308.545715 
L 322.850662 356.98313 
L 323.188065 279.063549 
L 323.356758 296.051356 
L 323.525451 288.398624 
L 323.694144 355.407968 
L 323.862855 308.717034 
L 324.031548 307.546327 
L 324.200241 323.410024 
L 324.537627 291.821375 
L 324.706337 292.411312 
L 325.043723 333.576378 
L 325.212417 312.904571 
L 325.381127 331.774659 
L 325.54982 328.080736 
L 325.887206 295.973542 
L 326.055916 308.252595 
L 326.224609 343.850993 
L 326.393302 347.155908 
L 326.561996 313.180385 
L 326.730706 311.168253 
L 326.899399 345.431871 
L 327.068092 313.354177 
L 327.236785 302.480507 
L 327.405478 311.039656 
L 327.574188 302.99259 
L 327.911574 322.071546 
L 328.080268 327.154668 
L 328.248978 322.112066 
L 328.417671 298.9709 
L 328.586364 309.425564 
L 328.755057 304.524448 
L 328.923767 312.248044 
L 329.09246 249.034707 
L 329.261153 275.506572 
L 329.598557 251.227213 
L 329.76725 277.411748 
L 329.935943 251.793705 
L 330.104636 323.114104 
L 330.273329 287.908875 
L 330.442039 322.99542 
L 330.610732 264.350993 
L 330.779426 334.142261 
L 330.948119 290.855572 
L 331.116829 300.971836 
L 331.285522 285.358832 
L 331.454211 256.173522 
L 331.622904 299.996671 
L 331.791614 310.596207 
L 331.960307 272.60038 
L 332.129 299.244064 
L 332.297693 299.607063 
L 332.635097 254.5882 
L 332.80379 281.611767 
L 332.972483 280.943775 
L 333.141176 300.055902 
L 333.309886 287.550629 
L 333.478579 294.371688 
L 333.647272 309.998593 
L 333.815965 224.053458 
L 333.984676 280.442422 
L 334.153369 279.166718 
L 334.322062 285.122154 
L 334.490755 263.219304 
L 334.828158 297.000689 
L 334.996851 294.106876 
L 335.165544 300.701683 
L 335.334238 286.969646 
L 335.502948 286.466497 
L 335.671641 277.587948 
L 335.840334 304.835223 
L 336.009027 274.739874 
L 336.177737 269.7837 
L 336.34643 307.806489 
L 336.515123 318.639857 
L 336.683816 311.313853 
L 336.85251 280.85802 
L 337.02122 283.854931 
L 337.358606 309.78333 
L 337.527299 306.856077 
L 337.696009 294.200326 
L 337.864702 317.143822 
L 338.202089 291.963322 
L 338.370782 343.932367 
L 338.708185 249.229045 
L 339.045571 315.28757 
L 339.214281 325.340829 
L 339.382974 321.89599 
L 339.551668 320.957424 
L 339.889054 318.748276 
L 340.057764 353.856042 
L 340.226457 311.758856 
L 340.39515 335.067293 
L 340.563843 328.027699 
L 340.732553 271.090472 
L 341.06994 300.268852 
L 341.238633 322.179523 
L 341.407343 261.797942 
L 341.744729 273.287944 
L 341.913422 254.044167 
L 342.082115 265.374144 
L 342.250825 298.327922 
L 342.419519 277.754218 
L 342.588212 289.814228 
L 342.756905 278.382121 
L 342.925615 322.818266 
L 343.094308 321.379767 
L 343.263001 364.852167 
L 343.431694 345.55342 
L 343.600387 361.589716 
L 344.106484 300.37739 
L 344.275177 296.465726 
L 344.443887 278.772789 
L 344.61258 299.175678 
L 344.781273 275.228399 
L 344.949966 298.167829 
L 345.11866 301.365708 
L 345.456063 359.232924 
L 345.624756 313.458412 
L 345.962159 288.236503 
L 346.130852 252.99052 
L 346.299545 244.610291 
L 346.636932 280.614461 
L 347.143028 334.603547 
L 347.480431 285.134231 
L 347.649124 284.474413 
L 347.817817 293.051708 
L 347.986511 279.358134 
L 348.155204 220.19337 
L 348.6613 301.693366 
L 348.829993 282.698651 
L 348.998686 308.513848 
L 349.167396 266.623775 
L 349.33609 289.468854 
L 349.504783 248.224842 
L 349.842186 304.657299 
L 350.010879 251.228278 
L 350.348265 277.067837 
L 350.685666 301.996211 
L 350.85436 290.36606 
L 351.023053 312.345852 
L 351.191746 312.844619 
L 351.360456 306.065474 
L 351.529149 308.903171 
L 351.697842 314.616263 
L 351.866535 315.00442 
L 352.203939 299.238419 
L 352.372632 330.244488 
L 352.541325 317.541058 
L 352.710018 273.357577 
L 352.878728 270.410065 
L 353.047421 287.289543 
L 353.216114 326.578157 
L 353.384807 284.201991 
L 353.553501 336.31687 
L 353.722211 283.788776 
L 353.890904 293.88444 
L 354.059597 283.431408 
L 354.396983 312.216949 
L 354.565693 331.007352 
L 354.734386 320.150114 
L 354.90308 284.469455 
L 355.240483 342.348863 
L 355.409176 313.56706 
L 355.577869 309.274589 
L 355.746562 351.710376 
L 355.915255 331.414111 
L 356.083965 341.276032 
L 356.252658 301.414409 
L 356.421352 292.324887 
L 356.590045 294.724473 
L 356.758738 313.085384 
L 356.927448 307.787148 
L 357.096141 277.533165 
L 357.264834 315.868489 
L 357.433527 327.74207 
L 357.602237 309.723206 
L 357.770931 319.770729 
L 357.939624 313.022782 
L 358.108317 320.143987 
L 358.44572 301.633554 
L 358.614413 322.503284 
L 358.783106 306.089986 
L 358.951799 303.228359 
L 359.289203 280.354035 
L 359.457896 229.842523 
L 359.626589 252.375155 
L 359.795282 256.153159 
L 360.132685 285.11908 
L 360.301378 322.467345 
L 360.470072 320.0368 
L 360.638765 295.522956 
L 360.807475 309.279661 
L 360.976168 261.402152 
L 361.313554 311.740226 
L 361.482247 317.395494 
L 361.650957 244.609663 
L 361.819651 306.454308 
L 361.988344 320.118702 
L 362.32573 289.698905 
L 362.49444 287.193508 
L 362.663133 322.997855 
L 362.831826 277.096148 
L 363.000519 282.048478 
L 363.169229 309.025836 
L 363.337923 265.956796 
L 363.506616 292.955765 
L 363.675309 258.968993 
L 363.844002 308.547434 
L 364.012712 273.32472 
L 364.350098 290.23602 
L 364.518791 336.223263 
L 364.856195 267.169665 
L 365.024888 284.751192 
L 365.362274 262.42765 
L 365.530967 276.166314 
L 365.699677 278.784249 
L 365.86837 247.859118 
L 366.205757 331.993525 
L 366.37445 275.601421 
L 366.54316 266.832738 
L 366.711853 285.284419 
L 366.880546 267.591226 
L 367.049239 232.633166 
L 367.386643 305.309603 
L 367.555336 274.043632 
L 367.724029 265.374422 
L 367.892722 269.05295 
L 368.061432 254.361607 
L 368.230125 281.119741 
L 368.398818 283.333877 
L 368.567511 287.801399 
L 368.904915 364.542194 
L 369.073608 357.124332 
L 369.410994 377.20336 
L 369.579687 372.936917 
L 369.748391 339.050253 
L 369.917084 359.271783 
L 370.085777 342.69273 
L 370.25447 359.339684 
L 370.423163 341.50309 
L 370.591873 338.861877 
L 370.92926 268.93807 
L 371.097953 366.881226 
L 371.266646 309.465739 
L 371.435356 332.356952 
L 371.604049 315.374201 
L 371.772742 341.252569 
L 371.941435 338.96156 
L 372.110129 330.689926 
L 372.278839 345.190687 
L 372.447532 334.642706 
L 372.616225 302.386413 
L 372.784918 342.564551 
L 372.953611 351.844709 
L 373.122321 294.282367 
L 373.459708 314.917704 
L 373.628401 315.600591 
L 373.797094 330.809496 
L 374.134497 305.821814 
L 374.30319 340.235353 
L 374.471883 307.631623 
L 374.640593 333.137483 
L 374.809286 301.494496 
L 375.146673 327.24476 
L 375.315366 267.602707 
L 375.652769 291.281715 
L 375.821462 286.652938 
L 375.990155 297.532646 
L 376.158849 246.128298 
L 376.327559 305.381464 
L 376.496252 317.006267 
L 376.833638 269.551319 
L 377.002331 290.077593 
L 377.171041 286.5383 
L 377.339734 248.473926 
L 377.508427 287.27704 
L 377.677121 272.855161 
L 377.845814 317.640312 
L 378.014524 324.89231 
L 378.183217 298.293708 
L 378.35191 303.855764 
L 378.520603 261.690507 
L 378.858006 317.142857 
L 379.0267 244.728323 
L 379.195393 247.298904 
L 379.364086 240.999332 
L 379.532779 243.841896 
L 379.701489 271.0856 
L 379.870182 270.828274 
L 380.038875 307.551814 
L 380.207568 269.858204 
L 380.376262 265.154145 
L 380.544955 229.966263 
L 380.713665 237.663629 
L 380.882358 266.431696 
L 381.051051 244.700505 
L 381.219744 237.41039 
L 381.388437 257.224062 
L 381.557147 321.294104 
L 381.894534 309.554186 
L 382.063227 316.589312 
L 382.23192 313.678706 
L 382.40063 341.229133 
L 382.569323 269.02219 
L 383.075403 339.707682 
L 383.244113 281.252189 
L 383.412806 293.022777 
L 383.581499 292.245586 
L 383.750192 325.436974 
L 383.918885 334.424377 
L 384.087595 305.133663 
L 384.256288 304.87188 
L 384.424982 336.410647 
L 384.762368 308.950973 
L 384.931078 318.412538 
L 385.099771 317.957831 
L 385.268464 318.87895 
L 385.437157 325.269675 
L 385.60585 327.180527 
L 385.77456 300.94263 
L 385.943254 244.158658 
L 386.111947 294.082946 
L 386.28064 278.231545 
L 386.449333 303.164462 
L 386.618043 300.473769 
L 386.786736 310.78493 
L 386.955429 298.616516 
L 387.124123 306.53985 
L 387.292816 290.706548 
L 387.461526 294.294542 
L 387.630219 279.976927 
L 387.798912 284.546652 
L 387.967605 281.412731 
L 388.136298 239.36679 
L 388.304991 275.040715 
L 388.473701 286.826002 
L 388.642395 241.559266 
L 388.811088 327.574537 
L 388.979777 293.459335 
L 389.14847 310.83009 
L 389.31718 340.64677 
L 389.485873 295.78031 
L 389.654566 299.933386 
L 389.823259 311.329446 
L 389.991952 299.953458 
L 390.160662 355.044068 
L 390.329356 339.723047 
L 390.498049 287.547224 
L 390.835435 343.363846 
L 391.172838 295.418093 
L 391.341531 354.098709 
L 391.510224 348.306045 
L 391.847611 286.885941 
L 392.016321 365.696903 
L 392.185014 355.609267 
L 392.353707 360.595539 
L 392.5224 341.384582 
L 392.691093 361.145613 
L 392.859803 344.781882 
L 393.19719 354.6092 
L 393.534576 330.786921 
L 393.703286 332.576435 
L 393.871979 322.191058 
L 394.209365 268.216444 
L 394.378059 297.407716 
L 394.546752 297.985485 
L 394.715462 313.692332 
L 394.884155 297.425866 
L 395.052848 326.076087 
L 395.221541 306.703001 
L 395.390234 311.398318 
L 395.558944 372.848752 
L 395.727638 301.350876 
L 395.896331 299.987476 
L 396.065024 325.727309 
L 396.233717 301.351782 
L 396.402427 297.289894 
L 396.57112 284.169137 
L 396.739813 253.388138 
L 396.908506 297.553431 
L 397.0772 287.542612 
L 397.414603 308.165568 
L 397.583296 305.669622 
L 397.751989 268.960349 
L 397.920682 270.725817 
L 398.089375 279.438147 
L 398.258085 321.796972 
L 398.595472 304.597462 
L 398.764165 304.141071 
L 398.932858 309.35709 
L 399.270261 287.33703 
L 399.438954 231.189369 
L 399.607647 285.425352 
L 399.776341 288.205025 
L 400.113744 229.945821 
L 400.45113 302.261994 
L 400.619823 264.23108 
L 400.957226 269.347459 
L 401.12592 279.300291 
L 401.294613 266.925348 
L 401.631999 284.44503 
L 401.800709 284.133517 
L 402.306788 218.892301 
L 402.475482 228.235203 
L 402.644175 275.763918 
L 402.812885 280.655621 
L 402.981578 276.984455 
L 403.150271 233.372706 
L 403.487657 219.678893 
L 403.993754 246.543792 
L 404.33114 296.762119 
L 404.499833 284.492851 
L 404.668543 233.666671 
L 404.837236 231.049218 
L 405.005929 208.391649 
L 405.343316 239.259064 
L 405.512026 238.423189 
L 405.680719 222.490592 
L 405.849412 248.367619 
L 406.018105 204.588873 
L 406.186798 194.501709 
L 406.355491 191.884764 
L 406.692895 252.572587 
L 406.861588 222.412766 
L 407.030281 216.962405 
L 407.367684 196.79152 
L 407.70507 239.154827 
L 407.873764 184.24739 
L 408.211154 148.247322 
L 408.379864 154.277427 
L 408.548557 168.433732 
L 408.71725 196.699251 
L 408.885944 204.400629 
L 409.223347 148.093387 
L 409.39204 206.358594 
L 409.729426 171.28628 
L 409.898119 187.873196 
L 410.235522 172.02093 
L 410.404216 175.305179 
L 410.572909 235.203016 
L 410.741602 241.546249 
L 410.910295 205.821128 
L 411.078988 199.706541 
L 411.247698 203.358313 
L 411.416391 238.875667 
L 411.585084 244.51688 
L 411.753778 230.326117 
L 411.922471 231.654877 
L 412.091181 222.580589 
L 412.259874 235.600257 
L 412.428567 230.082843 
L 412.59726 246.45356 
L 412.934647 162.705779 
L 413.103357 183.508318 
L 413.440743 165.056473 
L 413.609436 186.425461 
L 413.778129 144.48757 
L 413.946822 202.162714 
L 414.115532 200.81947 
L 414.452919 194.867997 
L 414.621612 179.215619 
L 414.790305 187.99225 
L 414.959015 178.777145 
L 415.127708 183.947935 
L 415.296401 165.206267 
L 415.465094 167.00958 
L 415.802481 150.667922 
L 415.971191 169.335153 
L 416.139884 201.128934 
L 416.308577 187.928703 
L 416.47727 150.432171 
L 416.645963 153.423551 
L 416.814656 187.357987 
L 417.15206 132.627342 
L 417.320753 154.795732 
L 417.489446 160.143823 
L 417.658139 185.518024 
L 417.826849 145.975864 
L 417.995542 139.396809 
L 418.332928 162.090781 
L 418.670315 150.841958 
L 418.839025 139.070418 
L 419.345104 157.188759 
L 419.513797 160.959911 
L 419.682491 160.046701 
L 419.851201 151.680024 
L 420.019894 151.462778 
L 420.35728 227.952483 
L 420.525973 190.358309 
L 420.694666 182.982883 
L 420.863376 168.30096 
L 421.032069 166.673967 
L 421.200763 181.080285 
L 421.538149 98.564315 
L 422.044245 175.377701 
L 422.381632 131.430223 
L 422.550325 174.37401 
L 422.719035 166.038904 
L 422.887728 163.450352 
L 423.056421 172.018962 
L 423.393807 146.817154 
L 423.5625 176.465419 
L 423.73121 174.615296 
L 423.899904 156.505479 
L 424.068597 176.998205 
L 424.405983 131.626085 
L 424.574676 160.146727 
L 424.743386 161.294218 
L 424.912079 214.738679 
L 425.080772 158.819341 
L 425.249466 165.244048 
L 425.418159 176.971946 
L 425.586852 128.920917 
L 425.755562 174.778594 
L 425.924255 157.607295 
L 426.092948 163.26916 
L 426.261641 172.820808 
L 426.430335 124.73 
L 426.599028 129.341823 
L 426.767738 94.072538 
L 427.105124 152.11789 
L 427.611227 82.902743 
L 427.94863 110.755687 
L 428.117323 84.142733 
L 428.454709 170.591054 
L 428.623403 117.408116 
L 428.792113 137.737444 
L 428.960806 123.785196 
L 429.129499 123.112661 
L 429.298192 119.982121 
L 429.635578 92.171399 
L 429.804288 35.052714 
L 429.972981 61.208826 
L 430.141675 121.853718 
L 430.310368 123.045941 
L 430.479061 110.397124 
L 430.647754 80.155421 
L 430.816464 159.496944 
L 431.15385 70.204328 
L 431.322543 106.1564 
L 431.491237 86.373395 
L 431.65993 111.585573 
L 431.82864 95.484237 
L 431.997333 93.823875 
L 432.166026 131.283735 
L 432.334719 90.94458 
L 432.503412 106.782727 
L 432.672106 102.408615 
L 432.840816 75.441865 
L 433.009509 26.877187 
L 433.178202 72.425061 
L 433.346895 76.925007 
L 433.515588 84.437989 
L 433.684281 71.746222 
L 433.852991 88.841541 
L 434.021684 68.885559 
L 434.190378 63.420892 
L 434.359071 42.099206 
L 434.527764 68.77173 
L 434.865167 80.618655 
L 435.03386 109.627657 
L 435.202553 92.534348 
L 435.371247 87.254198 
L 435.53994 103.046101 
L 435.708633 83.14614 
L 435.877343 99.812477 
L 436.046036 73.952226 
L 436.214729 101.180255 
L 436.383422 84.888302 
L 436.552115 92.597204 
L 436.720809 117.399787 
L 436.889519 100.611645 
L 437.058212 125.104794 
L 437.226905 175.282644 
L 437.395598 173.597243 
L 437.564291 203.497063 
L 437.732984 173.436172 
L 437.901677 173.884752 
L 438.070387 120.784406 
L 438.239081 132.761418 
L 438.407774 118.123164 
L 438.576467 148.797585 
L 439.082563 119.145956 
L 439.251256 118.431211 
L 439.588643 177.759926 
L 439.757336 179.355505 
L 439.926029 201.660879 
L 440.263432 141.157452 
L 440.600818 195.347749 
L 440.769512 178.188722 
L 440.938205 176.065176 
L 441.275608 188.19808 
L 441.444301 140.398583 
L 441.612994 183.732203 
L 441.781687 178.064632 
L 441.95038 158.805132 
L 442.119074 192.842956 
L 442.287784 186.449217 
L 442.456477 169.72014 
L 442.62517 177.564743 
L 442.962556 222.24564 
L 443.131249 202.479617 
L 443.299959 220.834209 
L 443.468653 196.831272 
L 443.637346 213.210545 
L 443.806039 215.152121 
L 443.974732 251.975054 
L 444.143425 225.822951 
L 444.312135 293.994631 
L 444.480828 237.231483 
L 444.649521 243.507235 
L 444.818215 233.236158 
L 444.986908 271.277732 
L 445.155601 245.168376 
L 445.324311 298.051549 
L 445.493004 237.337827 
L 445.661697 224.858002 
L 445.83039 239.751674 
L 445.999083 195.657825 
L 446.167777 192.446438 
L 446.336441 221.767919 
L 446.505151 164.590448 
L 446.673844 187.501108 
L 446.842537 171.638563 
L 447.01123 167.204697 
L 447.179923 169.354121 
L 447.517327 214.451268 
L 447.68602 191.433147 
L 447.854713 235.822877 
L 448.023406 210.380057 
L 448.192099 218.993513 
L 448.360792 199.431189 
L 448.529485 206.501278 
L 448.698196 245.755043 
L 448.866889 215.0594 
L 449.035582 217.36005 
L 449.372968 246.80643 
L 449.541661 225.71895 
L 449.710371 259.942808 
L 449.879064 271.400911 
L 450.047758 273.000564 
L 450.216451 210.826322 
L 450.385144 215.823497 
L 450.553837 268.476895 
L 450.89124 229.209015 
L 451.059933 245.631527 
L 451.228626 248.331719 
L 451.39732 233.012674 
L 451.566013 270.739256 
L 451.734706 241.905388 
L 451.903416 283.295453 
L 452.072109 276.92402 
L 452.409495 233.617726 
L 452.746882 262.604312 
L 452.915575 233.960715 
L 453.084285 241.087122 
L 453.252978 236.195439 
L 453.421671 217.109372 
L 453.590364 256.235167 
L 453.759057 258.720513 
L 453.927751 281.233149 
L 454.096461 263.25971 
L 454.265154 273.535386 
L 454.433847 243.853384 
L 454.60254 239.181529 
L 454.771233 246.938792 
L 454.939926 278.951644 
L 455.108619 289.852908 
L 455.277329 270.394367 
L 455.446023 280.10614 
L 455.614716 303.517256 
L 455.783409 276.93078 
L 455.952102 290.768893 
L 456.120795 265.003343 
L 456.289488 267.81822 
L 456.626892 292.344419 
L 456.795585 297.287508 
L 456.964278 329.730582 
L 457.132971 317.650334 
L 457.301664 297.369019 
L 457.470374 304.08729 
L 457.639067 346.406029 
L 457.976454 286.098503 
L 458.145147 332.614952 
L 458.31384 323.752973 
L 458.482533 287.342507 
L 458.651243 334.358687 
L 458.819936 338.145476 
L 459.157322 282.158856 
L 459.326016 302.155179 
L 459.494709 300.772711 
L 459.663402 276.491568 
L 459.832112 287.949075 
L 460.000805 290.468458 
L 460.169498 288.151169 
L 460.338191 249.063866 
L 460.506884 274.891349 
L 460.675578 271.446836 
L 460.844288 251.648481 
L 461.012981 287.960434 
L 461.350367 238.018359 
L 461.51906 242.851861 
L 461.687753 254.975716 
L 461.856447 286.817635 
L 462.025157 259.932914 
L 462.19385 271.900408 
L 462.362543 304.505885 
L 462.531236 294.002315 
L 462.699929 319.483176 
L 463.037315 265.94191 
L 463.206025 283.962842 
L 463.374719 328.762272 
L 463.543412 317.928294 
L 463.712105 319.453178 
L 463.880798 378.669819 
L 464.218184 279.560009 
L 464.555587 308.712567 
L 464.724281 268.143837 
L 464.892974 272.569046 
L 465.061667 330.360464 
L 465.23036 327.361444 
L 465.399053 316.403771 
L 465.567767 320.88011 
L 465.73646 303.312412 
L 465.905153 260.271773 
L 466.073846 254.37353 
L 466.242539 304.012034 
L 466.411232 274.651816 
L 466.579926 288.907546 
L 466.748636 339.875098 
L 466.917329 327.782038 
L 467.254715 259.706554 
L 467.423408 279.266809 
L 467.592101 280.854916 
L 467.929505 300.765593 
L 468.098198 290.22198 
L 468.266891 270.82988 
L 468.435584 295.545641 
L 468.604277 257.366089 
L 468.77297 288.567025 
L 468.941663 271.564952 
L 469.110373 232.438197 
L 469.279067 252.152447 
L 469.44776 242.338811 
L 469.616453 240.443018 
L 469.785146 250.414361 
L 469.953839 274.10588 
L 470.122532 260.707153 
L 470.459936 299.073769 
L 470.628629 284.011697 
L 470.966015 237.265038 
L 471.303418 306.505963 
L 471.472111 268.40882 
L 471.640804 265.190879 
L 471.809498 256.131739 
L 472.146884 284.174444 
L 472.315577 310.572468 
L 472.48427 286.498883 
L 472.65298 286.498883 
L 472.821673 261.131852 
L 472.990366 270.007861 
L 473.15906 347.889579 
L 473.327753 346.278986 
L 473.496446 294.415457 
L 473.833849 317.587311 
L 474.002542 306.688363 
L 474.171235 304.708974 
L 474.339928 333.450548 
L 474.508622 313.000855 
L 474.677315 320.501621 
L 474.846008 294.985747 
L 475.014718 311.125593 
L 475.183411 294.105668 
L 475.352104 313.64398 
L 475.520797 299.262819 
L 475.689491 309.025498 
L 475.858184 288.530481 
L 476.026877 305.391144 
L 476.36428 266.720297 
L 476.532973 278.227307 
L 477.039053 215.237081 
L 477.376456 316.42983 
L 477.545149 299.312914 
L 477.713842 262.876884 
L 477.882535 302.115463 
L 478.051228 288.696126 
L 478.219921 287.725005 
L 478.388615 301.429746 
L 478.726018 279.0445 
L 478.894711 230.726867 
L 479.40079 344.220589 
L 479.569483 330.417735 
L 479.906887 227.674585 
L 480.244273 268.936313 
L 480.412966 290.184846 
L 480.581659 228.702043 
L 480.750352 221.432527 
L 480.919046 254.220231 
L 481.087756 262.571837 
L 481.256449 259.396907 
L 481.931221 182.444959 
L 482.268624 327.038183 
L 482.606011 241.641212 
L 482.943397 206.216787 
L 483.11209 261.520184 
L 483.280783 257.217605 
L 483.618186 291.074825 
L 483.78688 253.946228 
L 483.955573 270.245138 
L 484.124266 250.104995 
L 484.292959 193.790908 
L 484.461652 200.450781 
L 484.630345 256.127748 
L 484.799049 249.55257 
L 484.967742 281.371427 
L 485.305128 290.857877 
L 485.473822 244.922433 
L 485.642515 292.334999 
L 485.811208 287.902835 
L 485.979901 260.183797 
L 486.148611 281.213328 
L 486.317304 252.570146 
L 486.485997 242.892209 
L 486.823384 196.769902 
L 486.992077 267.108373 
L 487.16077 231.039805 
L 487.32948 240.689225 
L 487.666866 286.368811 
L 487.835559 277.524339 
L 488.004252 294.446042 
L 488.172946 290.150106 
L 488.341639 304.908284 
L 488.510332 287.168273 
L 488.679042 285.187126 
L 488.847735 286.073118 
L 489.016428 250.219906 
L 489.353814 304.991806 
L 489.522508 303.298885 
L 489.691201 307.227718 
L 489.859911 299.886146 
L 490.028604 297.875666 
L 490.197297 303.14808 
L 490.36599 315.826363 
L 490.534683 290.550804 
L 490.703377 298.401294 
L 490.87207 275.402673 
L 491.040763 291.444159 
L 491.378166 235.611748 
L 491.546859 276.876966 
L 491.715552 227.664408 
L 491.884245 281.591204 
L 492.052939 237.567228 
L 492.221632 236.117043 
L 492.559035 316.214159 
L 492.727728 309.275004 
L 492.896421 262.458982 
L 493.065114 274.404683 
L 493.233807 297.125328 
L 493.402501 238.897459 
L 493.571194 264.516476 
L 493.739887 228.178764 
L 493.908597 299.293505 
L 494.07729 282.511032 
L 494.245983 247.572846 
L 494.414676 298.23229 
L 494.583369 282.24838 
L 494.752063 304.530594 
L 494.920756 349.72419 
L 495.089466 337.448052 
L 495.595545 221.111771 
L 495.764238 273.599877 
L 495.932932 251.590257 
L 496.101625 259.588161 
L 496.270318 306.130251 
L 496.439028 249.377754 
L 496.607721 289.042402 
L 496.776414 255.860441 
L 496.945107 317.594457 
L 497.1138 296.725546 
L 497.282494 301.862421 
L 497.451187 299.392043 
L 497.61988 293.541774 
L 497.78859 267.867721 
L 497.957283 301.562845 
L 498.294669 264.569083 
L 498.463362 223.361872 
L 498.632056 247.165121 
L 498.800749 247.967955 
L 498.969442 285.896107 
L 499.138152 228.51576 
L 499.306845 221.936518 
L 499.475538 253.987805 
L 499.644231 254.418722 
L 499.812924 280.219202 
L 499.981618 261.456561 
L 500.150311 203.050383 
L 500.319004 259.688879 
L 500.656407 255.931604 
L 500.8251 280.88785 
L 500.993793 246.314073 
L 501.162487 259.15438 
L 501.33118 237.665482 
L 501.499873 252.30257 
L 501.668566 295.687909 
L 501.837276 297.976682 
L 502.005969 286.148125 
L 502.174662 249.539312 
L 502.343355 268.52158 
L 502.512049 268.405626 
L 502.680742 291.687027 
L 502.849435 285.535181 
L 503.018128 288.677447 
L 503.355531 225.233994 
L 503.524224 285.466308 
L 503.692917 277.921609 
L 503.86163 291.699613 
L 504.030323 247.690573 
L 504.367709 295.744414 
L 504.705112 262.32867 
L 505.042499 285.543502 
L 505.548578 246.360674 
L 505.717271 316.190119 
L 505.885981 255.977618 
L 506.054674 280.710568 
L 506.223367 232.82325 
L 506.392061 233.726323 
L 506.560754 297.361032 
L 506.729447 242.374979 
L 506.89814 253.673196 
L 507.066833 252.440023 
L 507.235543 245.832869 
L 507.404236 243.590543 
L 507.57293 238.731678 
L 507.741623 256.287796 
L 507.910316 224.338001 
L 508.079009 242.003436 
L 508.416395 216.46695 
L 508.753798 254.458512 
L 508.922492 225.16255 
L 509.091185 247.031266 
L 509.259878 229.72739 
L 509.428571 235.833602 
L 509.597264 224.495192 
L 509.765957 233.861122 
L 509.93465 209.77468 
L 510.10336 231.665831 
L 510.272054 278.208998 
L 510.440747 264.226624 
L 510.60944 226.770346 
L 510.778133 224.14674 
L 510.946826 267.652225 
L 511.115519 244.711118 
L 511.284212 270.654923 
L 511.452906 256.022974 
L 511.621616 257.381587 
L 511.959002 230.594346 
L 512.127695 216.052083 
L 512.296388 217.209789 
L 512.465081 263.729831 
L 512.633774 258.345256 
L 512.802468 209.297494 
L 512.971178 206.728892 
L 513.139871 201.80689 
L 513.308564 207.187273 
L 513.477257 165.991341 
L 513.64595 232.667945 
L 513.814643 225.314844 
L 513.983336 237.572137 
L 514.15203 275.890437 
L 514.320723 273.231363 
L 514.489433 256.044554 
L 514.658126 260.949163 
L 515.164205 208.50154 
L 515.501592 291.042098 
L 515.670285 271.438202 
L 515.838995 284.625346 
L 516.345074 229.956299 
L 516.513767 279.196905 
L 516.682461 294.000646 
L 516.851154 340.877319 
L 517.019847 311.206562 
L 517.18854 322.588183 
L 517.35725 300.913268 
L 517.525943 260.786045 
L 517.694636 292.387259 
L 517.863329 289.006917 
L 518.032023 320.113615 
L 518.200716 277.551807 
L 518.369409 313.306838 
L 518.538102 301.444175 
L 518.706795 278.073529 
L 518.875505 297.18179 
L 519.044198 247.905177 
L 519.212891 241.803112 
L 519.550278 293.546423 
L 519.718971 302.438185 
L 519.887664 297.801101 
L 520.056357 341.639279 
L 520.22505 338.418756 
L 520.39376 306.291942 
L 520.562454 345.721381 
L 520.731147 328.447429 
L 520.89984 279.414312 
L 521.068533 272.785632 
L 521.237226 311.243274 
L 521.405919 305.042407 
L 521.574612 278.142987 
L 521.743305 269.793903 
L 521.912016 253.892901 
L 522.080709 295.275605 
L 522.249402 278.789321 
L 522.418095 340.462302 
L 522.586788 339.822314 
L 522.755481 361.900764 
L 522.924174 275.522307 
L 523.26157 236.798293 
L 523.767649 314.643247 
L 523.936342 295.711835 
L 524.105035 296.834336 
L 524.273729 290.17598 
L 524.442422 250.049232 
L 524.779825 342.777623 
L 524.948518 315.239899 
L 525.117211 320.209215 
L 525.285904 342.878067 
L 525.454598 298.267418 
L 525.623291 325.259525 
L 525.791984 302.034455 
L 525.960677 334.342203 
L 526.12937 275.833484 
L 526.29808 276.936006 
L 526.466773 290.085785 
L 526.635466 293.502804 
L 526.80416 347.041615 
L 526.972853 353.970676 
L 527.310239 322.485441 
L 527.478932 311.182186 
L 527.647625 350.104996 
L 527.816318 354.789179 
L 527.985028 346.933043 
L 528.153722 347.858173 
L 528.491108 354.507375 
L 528.659801 349.192821 
L 528.828494 368.223829 
L 528.997187 414.957188 
L 529.16588 335.910137 
L 529.334574 392.677802 
L 529.671977 334.815888 
L 530.009363 380.590899 
L 530.178056 361.028955 
L 530.346749 361.302002 
L 530.515442 353.335502 
L 530.684136 366.95766 
L 530.852829 354.6316 
L 531.190232 289.516453 
L 531.358925 317.720735 
L 531.527618 267.879613 
L 531.696311 319.87042 
L 531.865005 275.763033 
L 532.033698 296.220479 
L 532.371084 224.968808 
L 532.708487 318.972391 
L 532.87718 322.53545 
L 533.045873 331.762109 
L 533.38326 302.922069 
L 533.551953 293.228733 
L 533.720646 237.106338 
L 534.058049 303.595103 
L 534.226742 302.091017 
L 534.395435 344.132141 
L 534.564129 349.255819 
L 534.732822 310.378988 
L 534.901515 304.428699 
L 535.070208 285.977315 
L 535.407594 368.367448 
L 535.744997 289.903796 
L 535.913691 312.630836 
L 536.082384 358.932947 
L 536.251077 355.838353 
L 536.41977 331.03444 
L 536.757156 333.704697 
L 537.094543 293.513135 
L 537.263253 290.045627 
L 537.431946 279.984106 
L 537.600639 289.676033 
L 537.769332 323.094554 
L 537.938025 285.075121 
L 538.106718 335.845091 
L 538.275411 329.267888 
L 538.444105 338.151941 
L 538.612798 338.619127 
L 538.781491 291.207375 
L 538.950201 299.174921 
L 539.118894 291.615752 
L 539.287587 295.689618 
L 539.45628 332.889315 
L 539.624974 301.933252 
L 539.793667 323.668704 
L 539.96236 323.149422 
L 540.299746 252.720658 
L 540.468439 264.134596 
L 540.637149 294.595469 
L 540.805842 254.305801 
L 540.974536 319.380912 
L 541.143229 299.382516 
L 541.311922 294.590605 
L 541.480615 307.407588 
L 541.818001 342.180148 
L 541.986694 397.846962 
L 542.324095 364.11002 
L 542.492788 355.55708 
L 542.661481 305.401434 
L 542.830174 338.598903 
L 542.998867 309.748723 
L 543.16756 369.817826 
L 543.336254 318.123577 
L 543.504947 319.875253 
L 543.67364 361.513472 
L 543.84235 308.890537 
L 544.011043 318.833485 
L 544.179736 301.382425 
L 544.348429 312.779311 
L 544.517122 349.560476 
L 544.685816 338.565723 
L 544.854509 313.592014 
L 545.023202 310.587586 
L 545.191895 296.39862 
L 545.360588 341.885184 
L 545.529298 316.737355 
L 545.697991 320.548215 
L 545.866684 297.037503 
L 546.035378 345.298715 
L 546.204071 311.809768 
L 546.372764 318.570581 
L 546.541457 357.662884 
L 546.71015 354.187465 
L 546.878843 295.103048 
L 547.047536 300.172116 
L 547.216247 313.446971 
L 547.38494 312.098195 
L 547.553633 285.903677 
L 547.722326 340.48832 
L 547.891019 282.674914 
L 548.059712 304.939644 
L 548.228405 344.995355 
L 548.397098 284.472092 
L 548.565792 383.601581 
L 548.734485 354.831104 
L 548.903195 365.055895 
L 549.071888 350.497372 
L 549.240581 352.418916 
L 549.577967 299.027377 
L 549.915354 376.688375 
L 550.084047 355.816725 
L 550.25274 350.809386 
L 550.421433 268.419917 
L 550.590143 274.617145 
L 550.758836 321.663464 
L 550.927529 312.408737 
L 551.096223 326.312808 
L 551.264916 320.35617 
L 551.602302 364.591677 
L 551.770995 356.077127 
L 551.939688 357.674441 
L 552.108381 320.671413 
L 552.277075 379.144567 
L 552.445785 384.088783 
L 552.614478 329.964263 
L 552.783171 359.727015 
L 552.951864 352.488855 
L 553.28925 297.142106 
L 553.457943 333.726543 
L 553.626637 314.365349 
L 553.79533 330.292271 
L 554.132733 306.028416 
L 554.301426 346.260242 
L 554.470119 307.85626 
L 554.638812 343.747448 
L 554.807505 304.343927 
L 554.976199 342.685284 
L 555.144892 280.802306 
L 555.313585 328.165639 
L 555.482278 306.087766 
L 555.650971 384.229446 
L 555.988374 300.05273 
L 556.157067 297.950705 
L 556.325761 306.322042 
L 556.494454 300.566022 
L 556.663147 314.644547 
L 556.83184 260.910772 
L 557.000533 298.138794 
L 557.169226 263.041499 
L 557.337919 252.306998 
L 557.675323 323.801238 
L 557.844016 333.176817 
L 558.012709 308.124233 
L 558.181402 390.15669 
L 558.350095 390.916218 
L 558.518788 283.058538 
L 558.687482 326.594808 
L 558.856175 312.19702 
L 559.024868 307.72778 
L 559.193561 355.099849 
L 559.530964 349.109958 
L 560.037044 395.52951 
L 560.37443 319.90381 
L 560.711816 304.221842 
L 561.049202 276.681543 
L 561.217896 285.161664 
L 561.386613 324.482725 
L 561.723999 263.756401 
L 561.892692 308.730845 
L 562.061385 312.592793 
L 562.230078 322.074779 
L 562.398772 263.972206 
L 562.567465 271.901299 
L 562.736158 314.546944 
L 562.904851 287.377361 
L 563.073544 290.135297 
L 563.242254 317.638247 
L 563.57964 279.632796 
L 563.748334 292.5397 
L 563.917027 289.587052 
L 564.08572 275.793698 
L 564.254413 304.165766 
L 564.591799 271.573532 
L 564.760492 333.216855 
L 564.929186 296.970098 
L 565.097896 296.837536 
L 565.266589 306.225243 
L 565.435282 303.10944 
L 565.603975 312.491046 
L 565.772668 313.479054 
L 565.941361 345.525303 
L 566.110054 343.7037 
L 566.447441 371.910878 
L 566.616134 313.243061 
L 566.784827 342.86795 
L 566.953537 307.437563 
L 567.12223 357.839844 
L 567.290923 348.834101 
L 567.459616 347.256348 
L 567.797003 291.16023 
L 567.965696 288.926822 
L 568.134389 239.337738 
L 568.303082 277.844449 
L 568.471775 260.915729 
L 568.809162 299.538853 
L 569.146565 352.851482 
L 569.315258 354.26334 
L 569.483951 341.647457 
L 569.652644 315.157545 
L 569.821337 327.791276 
L 569.99003 355.671079 
L 570.158724 300.557263 
L 570.327417 303.485432 
L 570.49611 303.695916 
L 570.664803 306.953985 
L 571.002206 329.806707 
L 571.170899 369.689561 
L 571.339593 359.963891 
L 571.676979 318.769886 
L 571.845672 322.422545 
L 572.014365 306.229573 
L 572.183058 305.467004 
L 572.351751 325.777926 
L 572.520444 364.0712 
L 572.857848 343.609296 
L 573.026541 339.447815 
L 573.195234 311.548337 
L 573.363927 331.428377 
L 573.53262 328.551178 
L 573.870007 382.901787 
L 574.0387 378.308666 
L 574.376086 276.459327 
L 574.713472 335.598271 
L 574.882182 343.868522 
L 575.050875 368.97771 
L 575.219569 335.605802 
L 575.388262 354.027313 
L 575.725648 318.955859 
L 575.894341 356.467559 
L 576.063034 357.327457 
L 576.231727 316.426635 
L 576.400421 336.686622 
L 576.569114 343.09469 
L 576.737807 363.022488 
L 576.906517 364.25892 
L 577.07521 341.698169 
L 577.243903 363.885058 
L 577.581289 302.982804 
L 577.749983 299.647445 
L 578.087369 345.769767 
L 578.256062 281.66199 
L 578.593448 314.764953 
L 578.762141 369.143323 
L 578.930851 344.524583 
L 579.099545 361.566307 
L 579.268238 348.546319 
L 579.436931 344.466214 
L 579.605624 333.031989 
L 579.774317 348.063692 
L 579.94301 320.694601 
L 580.111703 359.436549 
L 580.617767 396.456878 
L 580.78646 391.469088 
L 580.95517 393.528879 
L 581.123864 389.361858 
L 581.123864 389.361858 
" clip-path="url(#pfbb6d06036)" style="fill: none; stroke: #1f77b4; stroke-width: 2; stroke-linecap: square"/>
   </g>
   <g id="patch_3">
    <path d="M 48.4875 414.957188 
L 48.4875 26.877187 
" style="fill: none; stroke: #808080; stroke-width: 2; stroke-linejoin: miter; stroke-linecap: square"/>
   </g>
   <g id="patch_4">
    <path d="M 48.4875 414.957187 
L 606.4875 414.957187 
" style="fill: none; stroke: #808080; stroke-width: 2; stroke-linejoin: miter; stroke-linecap: square"/>
   </g>
   <g id="text_17">
    <!-- Thorb-Nidarosdomen-vinkel -->
    <g style="fill: #808080" transform="translate(203.270625 20.877187) scale(0.18 -0.18)">
     <defs>
      <path id="DejaVuSans-54" d="M -19 4666 
L 3928 4666 
L 3928 4134 
L 2272 4134 
L 2272 0 
L 1638 0 
L 1638 4134 
L -19 4134 
L -19 4666 
z
" transform="scale(0.015625)"/>
      <path id="DejaVuSans-68" d="M 3513 2113 
L 3513 0 
L 2938 0 
L 2938 2094 
Q 2938 2591 2744 2837 
Q 2550 3084 2163 3084 
Q 1697 3084 1428 2787 
Q 1159 2491 1159 1978 
L 1159 0 
L 581 0 
L 581 4863 
L 1159 4863 
L 1159 2956 
Q 1366 3272 1645 3428 
Q 1925 3584 2291 3584 
Q 2894 3584 3203 3211 
Q 3513 2838 3513 2113 
z
" transform="scale(0.015625)"/>
      <path id="DejaVuSans-6f" d="M 1959 3097 
Q 1497 3097 1228 2736 
Q 959 2375 959 1747 
Q 959 1119 1226 758 
Q 1494 397 1959 397 
Q 2419 397 2687 759 
Q 2956 1122 2956 1747 
Q 2956 2369 2687 2733 
Q 2419 3097 1959 3097 
z
M 1959 3584 
Q 2709 3584 3137 3096 
Q 3566 2609 3566 1747 
Q 3566 888 3137 398 
Q 2709 -91 1959 -91 
Q 1206 -91 779 398 
Q 353 888 353 1747 
Q 353 2609 779 3096 
Q 1206 3584 1959 3584 
z
" transform="scale(0.015625)"/>
      <path id="DejaVuSans-72" d="M 2631 2963 
Q 2534 3019 2420 3045 
Q 2306 3072 2169 3072 
Q 1681 3072 1420 2755 
Q 1159 2438 1159 1844 
L 1159 0 
L 581 0 
L 581 3500 
L 1159 3500 
L 1159 2956 
Q 1341 3275 1631 3429 
Q 1922 3584 2338 3584 
Q 2397 3584 2469 3576 
Q 2541 3569 2628 3553 
L 2631 2963 
z
" transform="scale(0.015625)"/>
      <path id="DejaVuSans-62" d="M 3116 1747 
Q 3116 2381 2855 2742 
Q 2594 3103 2138 3103 
Q 1681 3103 1420 2742 
Q 1159 2381 1159 1747 
Q 1159 1113 1420 752 
Q 1681 391 2138 391 
Q 2594 391 2855 752 
Q 3116 1113 3116 1747 
z
M 1159 2969 
Q 1341 3281 1617 3432 
Q 1894 3584 2278 3584 
Q 2916 3584 3314 3078 
Q 3713 2572 3713 1747 
Q 3713 922 3314 415 
Q 2916 -91 2278 -91 
Q 1894 -91 1617 61 
Q 1341 213 1159 525 
L 1159 0 
L 581 0 
L 581 4863 
L 1159 4863 
L 1159 2969 
z
" transform="scale(0.015625)"/>
      <path id="DejaVuSans-2d" d="M 313 2009 
L 1997 2009 
L 1997 1497 
L 313 1497 
L 313 2009 
z
" transform="scale(0.015625)"/>
      <path id="DejaVuSans-4e" d="M 628 4666 
L 1478 4666 
L 3547 763 
L 3547 4666 
L 4159 4666 
L 4159 0 
L 3309 0 
L 1241 3903 
L 1241 0 
L 628 0 
L 628 4666 
z
" transform="scale(0.015625)"/>
      <path id="DejaVuSans-61" d="M 2194 1759 
Q 1497 1759 1228 1600 
Q 959 1441 959 1056 
Q 959 750 1161 570 
Q 1363 391 1709 391 
Q 2188 391 2477 730 
Q 2766 1069 2766 1631 
L 2766 1759 
L 2194 1759 
z
M 3341 1997 
L 3341 0 
L 2766 0 
L 2766 531 
Q 2569 213 2275 61 
Q 1981 -91 1556 -91 
Q 1019 -91 701 211 
Q 384 513 384 1019 
Q 384 1609 779 1909 
Q 1175 2209 1959 2209 
L 2766 2209 
L 2766 2266 
Q 2766 2663 2505 2880 
Q 2244 3097 1772 3097 
Q 1472 3097 1187 3025 
Q 903 2953 641 2809 
L 641 3341 
Q 956 3463 1253 3523 
Q 1550 3584 1831 3584 
Q 2591 3584 2966 3190 
Q 3341 2797 3341 1997 
z
" transform="scale(0.015625)"/>
      <path id="DejaVuSans-6e" d="M 3513 2113 
L 3513 0 
L 2938 0 
L 2938 2094 
Q 2938 2591 2744 2837 
Q 2550 3084 2163 3084 
Q 1697 3084 1428 2787 
Q 1159 2491 1159 1978 
L 1159 0 
L 581 0 
L 581 3500 
L 1159 3500 
L 1159 2956 
Q 1366 3272 1645 3428 
Q 1925 3584 2291 3584 
Q 2894 3584 3203 3211 
Q 3513 2838 3513 2113 
z
" transform="scale(0.015625)"/>
      <path id="DejaVuSans-76" d="M 191 3500 
L 800 3500 
L 1894 563 
L 2988 3500 
L 3597 3500 
L 2284 0 
L 1503 0 
L 191 3500 
z
" transform="scale(0.015625)"/>
      <path id="DejaVuSans-6b" d="M 581 4863 
L 1159 4863 
L 1159 1991 
L 2875 3500 
L 3609 3500 
L 1753 1863 
L 3688 0 
L 2938 0 
L 1159 1709 
L 1159 0 
L 581 0 
L 581 4863 
z
" transform="scale(0.015625)"/>
      <path id="DejaVuSans-6c" d="M 603 4863 
L 1178 4863 
L 1178 0 
L 603 0 
L 603 4863 
z
" transform="scale(0.015625)"/>
     </defs>
     <use xlink:href="#DejaVuSans-54"/>
     <use xlink:href="#DejaVuSans-68" x="61.083984"/>
     <use xlink:href="#DejaVuSans-6f" x="124.462891"/>
     <use xlink:href="#DejaVuSans-72" x="185.644531"/>
     <use xlink:href="#DejaVuSans-62" x="226.757812"/>
     <use xlink:href="#DejaVuSans-2d" x="290.234375"/>
     <use xlink:href="#DejaVuSans-4e" x="326.318359"/>
     <use xlink:href="#DejaVuSans-69" x="401.123047"/>
     <use xlink:href="#DejaVuSans-64" x="428.90625"/>
     <use xlink:href="#DejaVuSans-61" x="492.382812"/>
     <use xlink:href="#DejaVuSans-72" x="553.662109"/>
     <use xlink:href="#DejaVuSans-6f" x="592.525391"/>
     <use xlink:href="#DejaVuSans-73" x="653.707031"/>
     <use xlink:href="#DejaVuSans-64" x="705.806641"/>
     <use xlink:href="#DejaVuSans-6f" x="769.283203"/>
     <use xlink:href="#DejaVuSans-6d" x="830.464844"/>
     <use xlink:href="#DejaVuSans-65" x="927.876953"/>
     <use xlink:href="#DejaVuSans-6e" x="989.400391"/>
     <use xlink:href="#DejaVuSans-2d" x="1052.779297"/>
     <use xlink:href="#DejaVuSans-76" x="1086.238281"/>
     <use xlink:href="#DejaVuSans-69" x="1145.417969"/>
     <use xlink:href="#DejaVuSans-6e" x="1173.201172"/>
     <use xlink:href="#DejaVuSans-6b" x="1236.580078"/>
     <use xlink:href="#DejaVuSans-65" x="1290.865234"/>
     <use xlink:href="#DejaVuSans-6c" x="1352.388672"/>
    </g>
   </g>
   <g id="legend_1">
    <g id="patch_5">
     <path d="M 58.9875 60.894375 
L 314.015625 60.894375 
Q 317.015625 60.894375 317.015625 57.894375 
L 317.015625 37.377187 
Q 317.015625 34.377187 314.015625 34.377187 
L 58.9875 34.377187 
Q 55.9875 34.377187 55.9875 37.377187 
L 55.9875 57.894375 
Q 55.9875 60.894375 58.9875 60.894375 
z
" style="fill: #ffffff; opacity: 0.8; stroke: #cccccc; stroke-linejoin: miter"/>
    </g>
    <g id="line2d_30">
     <path d="M 61.9875 46.524844 
L 76.9875 46.524844 
L 91.9875 46.524844 
" style="fill: none; stroke: #1f77b4; stroke-width: 2; stroke-linecap: square"/>
    </g>
    <g id="text_18">
     <!-- Thorb-Nidarosdomen-vinkel -->
     <g style="fill: #808080" transform="translate(103.9875 51.774844) scale(0.15 -0.15)">
      <use xlink:href="#DejaVuSans-54"/>
      <use xlink:href="#DejaVuSans-68" x="61.083984"/>
      <use xlink:href="#DejaVuSans-6f" x="124.462891"/>
      <use xlink:href="#DejaVuSans-72" x="185.644531"/>
      <use xlink:href="#DejaVuSans-62" x="226.757812"/>
      <use xlink:href="#DejaVuSans-2d" x="290.234375"/>
      <use xlink:href="#DejaVuSans-4e" x="326.318359"/>
      <use xlink:href="#DejaVuSans-69" x="401.123047"/>
      <use xlink:href="#DejaVuSans-64" x="428.90625"/>
      <use xlink:href="#DejaVuSans-61" x="492.382812"/>
      <use xlink:href="#DejaVuSans-72" x="553.662109"/>
      <use xlink:href="#DejaVuSans-6f" x="592.525391"/>
      <use xlink:href="#DejaVuSans-73" x="653.707031"/>
      <use xlink:href="#DejaVuSans-64" x="705.806641"/>
      <use xlink:href="#DejaVuSans-6f" x="769.283203"/>
      <use xlink:href="#DejaVuSans-6d" x="830.464844"/>
      <use xlink:href="#DejaVuSans-65" x="927.876953"/>
      <use xlink:href="#DejaVuSans-6e" x="989.400391"/>
      <use xlink:href="#DejaVuSans-2d" x="1052.779297"/>
      <use xlink:href="#DejaVuSans-76" x="1086.238281"/>
      <use xlink:href="#DejaVuSans-69" x="1145.417969"/>
      <use xlink:href="#DejaVuSans-6e" x="1173.201172"/>
      <use xlink:href="#DejaVuSans-6b" x="1236.580078"/>
      <use xlink:href="#DejaVuSans-65" x="1290.865234"/>
      <use xlink:href="#DejaVuSans-6c" x="1352.388672"/>
     </g>
    </g>
   </g>
  </g>
 </g>
 <defs>
  <clipPath id="pfbb6d06036">
   <rect x="48.4875" y="26.877187" width="558" height="388.08"/>
  </clipPath>
 </defs>
</svg>
