<?xml version="1.0" encoding="utf-8" standalone="no"?>
<!DOCTYPE svg PUBLIC "-//W3C//DTD SVG 1.1//EN"
  "http://www.w3.org/Graphics/SVG/1.1/DTD/svg11.dtd">
<svg xmlns:xlink="http://www.w3.org/1999/xlink" width="460.8pt" height="345.6pt" viewBox="0 0 460.8 345.6" xmlns="http://www.w3.org/2000/svg" version="1.1">
 <metadata>
  <rdf:RDF xmlns:dc="http://purl.org/dc/elements/1.1/" xmlns:cc="http://creativecommons.org/ns#" xmlns:rdf="http://www.w3.org/1999/02/22-rdf-syntax-ns#">
   <cc:Work>
    <dc:type rdf:resource="http://purl.org/dc/dcmitype/StillImage"/>
    <dc:date>2023-04-17T15:21:27.125447</dc:date>
    <dc:format>image/svg+xml</dc:format>
    <dc:creator>
     <cc:Agent>
      <dc:title>Matplotlib v3.7.1, https://matplotlib.org/</dc:title>
     </cc:Agent>
    </dc:creator>
   </cc:Work>
  </rdf:RDF>
 </metadata>
 <defs>
  <style type="text/css">*{stroke-linejoin: round; stroke-linecap: butt}</style>
 </defs>
 <g id="figure_1">
  <g id="patch_1">
   <path d="M 0 345.6 
L 460.8 345.6 
L 460.8 0 
L 0 0 
z
" style="fill: #ffffff"/>
  </g>
  <g id="axes_1">
   <g id="patch_2">
    <path d="M 57.6 307.584 
L 414.72 307.584 
L 414.72 41.472 
L 57.6 41.472 
z
" style="fill: #ffffff"/>
   </g>
   <g id="matplotlib.axis_1">
    <g id="xtick_1">
     <g id="line2d_1">
      <defs>
       <path id="m10845396a9" d="M 0 0 
L 0 3.5 
" style="stroke: #000000; stroke-width: 0.8"/>
      </defs>
      <g>
       <use xlink:href="#m10845396a9" x="73.99519" y="307.584" style="stroke: #000000; stroke-width: 0.8"/>
      </g>
     </g>
     <g id="text_1">
      <!-- 50 -->
      <g transform="translate(67.63269 322.182437) scale(0.1 -0.1)">
       <defs>
        <path id="DejaVuSans-35" d="M 691 4666 
L 3169 4666 
L 3169 4134 
L 1269 4134 
L 1269 2991 
Q 1406 3038 1543 3061 
Q 1681 3084 1819 3084 
Q 2600 3084 3056 2656 
Q 3513 2228 3513 1497 
Q 3513 744 3044 326 
Q 2575 -91 1722 -91 
Q 1428 -91 1123 -41 
Q 819 9 494 109 
L 494 744 
Q 775 591 1075 516 
Q 1375 441 1709 441 
Q 2250 441 2565 725 
Q 2881 1009 2881 1497 
Q 2881 1984 2565 2268 
Q 2250 2553 1709 2553 
Q 1456 2553 1204 2497 
Q 953 2441 691 2322 
L 691 4666 
z
" transform="scale(0.015625)"/>
        <path id="DejaVuSans-30" d="M 2034 4250 
Q 1547 4250 1301 3770 
Q 1056 3291 1056 2328 
Q 1056 1369 1301 889 
Q 1547 409 2034 409 
Q 2525 409 2770 889 
Q 3016 1369 3016 2328 
Q 3016 3291 2770 3770 
Q 2525 4250 2034 4250 
z
M 2034 4750 
Q 2819 4750 3233 4129 
Q 3647 3509 3647 2328 
Q 3647 1150 3233 529 
Q 2819 -91 2034 -91 
Q 1250 -91 836 529 
Q 422 1150 422 2328 
Q 422 3509 836 4129 
Q 1250 4750 2034 4750 
z
" transform="scale(0.015625)"/>
       </defs>
       <use xlink:href="#DejaVuSans-35"/>
       <use xlink:href="#DejaVuSans-30" x="63.623047"/>
      </g>
     </g>
    </g>
    <g id="xtick_2">
     <g id="line2d_2">
      <g>
       <use xlink:href="#m10845396a9" x="128.123141" y="307.584" style="stroke: #000000; stroke-width: 0.8"/>
      </g>
     </g>
     <g id="text_2">
      <!-- 55 -->
      <g transform="translate(121.760641 322.182437) scale(0.1 -0.1)">
       <use xlink:href="#DejaVuSans-35"/>
       <use xlink:href="#DejaVuSans-35" x="63.623047"/>
      </g>
     </g>
    </g>
    <g id="xtick_3">
     <g id="line2d_3">
      <g>
       <use xlink:href="#m10845396a9" x="182.251091" y="307.584" style="stroke: #000000; stroke-width: 0.8"/>
      </g>
     </g>
     <g id="text_3">
      <!-- 60 -->
      <g transform="translate(175.888591 322.182437) scale(0.1 -0.1)">
       <defs>
        <path id="DejaVuSans-36" d="M 2113 2584 
Q 1688 2584 1439 2293 
Q 1191 2003 1191 1497 
Q 1191 994 1439 701 
Q 1688 409 2113 409 
Q 2538 409 2786 701 
Q 3034 994 3034 1497 
Q 3034 2003 2786 2293 
Q 2538 2584 2113 2584 
z
M 3366 4563 
L 3366 3988 
Q 3128 4100 2886 4159 
Q 2644 4219 2406 4219 
Q 1781 4219 1451 3797 
Q 1122 3375 1075 2522 
Q 1259 2794 1537 2939 
Q 1816 3084 2150 3084 
Q 2853 3084 3261 2657 
Q 3669 2231 3669 1497 
Q 3669 778 3244 343 
Q 2819 -91 2113 -91 
Q 1303 -91 875 529 
Q 447 1150 447 2328 
Q 447 3434 972 4092 
Q 1497 4750 2381 4750 
Q 2619 4750 2861 4703 
Q 3103 4656 3366 4563 
z
" transform="scale(0.015625)"/>
       </defs>
       <use xlink:href="#DejaVuSans-36"/>
       <use xlink:href="#DejaVuSans-30" x="63.623047"/>
      </g>
     </g>
    </g>
    <g id="xtick_4">
     <g id="line2d_4">
      <g>
       <use xlink:href="#m10845396a9" x="236.379041" y="307.584" style="stroke: #000000; stroke-width: 0.8"/>
      </g>
     </g>
     <g id="text_4">
      <!-- 65 -->
      <g transform="translate(230.016541 322.182437) scale(0.1 -0.1)">
       <use xlink:href="#DejaVuSans-36"/>
       <use xlink:href="#DejaVuSans-35" x="63.623047"/>
      </g>
     </g>
    </g>
    <g id="xtick_5">
     <g id="line2d_5">
      <g>
       <use xlink:href="#m10845396a9" x="290.506991" y="307.584" style="stroke: #000000; stroke-width: 0.8"/>
      </g>
     </g>
     <g id="text_5">
      <!-- 70 -->
      <g transform="translate(284.144491 322.182437) scale(0.1 -0.1)">
       <defs>
        <path id="DejaVuSans-37" d="M 525 4666 
L 3525 4666 
L 3525 4397 
L 1831 0 
L 1172 0 
L 2766 4134 
L 525 4134 
L 525 4666 
z
" transform="scale(0.015625)"/>
       </defs>
       <use xlink:href="#DejaVuSans-37"/>
       <use xlink:href="#DejaVuSans-30" x="63.623047"/>
      </g>
     </g>
    </g>
    <g id="xtick_6">
     <g id="line2d_6">
      <g>
       <use xlink:href="#m10845396a9" x="344.634942" y="307.584" style="stroke: #000000; stroke-width: 0.8"/>
      </g>
     </g>
     <g id="text_6">
      <!-- 75 -->
      <g transform="translate(338.272442 322.182437) scale(0.1 -0.1)">
       <use xlink:href="#DejaVuSans-37"/>
       <use xlink:href="#DejaVuSans-35" x="63.623047"/>
      </g>
     </g>
    </g>
    <g id="xtick_7">
     <g id="line2d_7">
      <g>
       <use xlink:href="#m10845396a9" x="398.762892" y="307.584" style="stroke: #000000; stroke-width: 0.8"/>
      </g>
     </g>
     <g id="text_7">
      <!-- 80 -->
      <g transform="translate(392.400392 322.182437) scale(0.1 -0.1)">
       <defs>
        <path id="DejaVuSans-38" d="M 2034 2216 
Q 1584 2216 1326 1975 
Q 1069 1734 1069 1313 
Q 1069 891 1326 650 
Q 1584 409 2034 409 
Q 2484 409 2743 651 
Q 3003 894 3003 1313 
Q 3003 1734 2745 1975 
Q 2488 2216 2034 2216 
z
M 1403 2484 
Q 997 2584 770 2862 
Q 544 3141 544 3541 
Q 544 4100 942 4425 
Q 1341 4750 2034 4750 
Q 2731 4750 3128 4425 
Q 3525 4100 3525 3541 
Q 3525 3141 3298 2862 
Q 3072 2584 2669 2484 
Q 3125 2378 3379 2068 
Q 3634 1759 3634 1313 
Q 3634 634 3220 271 
Q 2806 -91 2034 -91 
Q 1263 -91 848 271 
Q 434 634 434 1313 
Q 434 1759 690 2068 
Q 947 2378 1403 2484 
z
M 1172 3481 
Q 1172 3119 1398 2916 
Q 1625 2713 2034 2713 
Q 2441 2713 2670 2916 
Q 2900 3119 2900 3481 
Q 2900 3844 2670 4047 
Q 2441 4250 2034 4250 
Q 1625 4250 1398 4047 
Q 1172 3844 1172 3481 
z
" transform="scale(0.015625)"/>
       </defs>
       <use xlink:href="#DejaVuSans-38"/>
       <use xlink:href="#DejaVuSans-30" x="63.623047"/>
      </g>
     </g>
    </g>
    <g id="text_8">
     <!-- time [s] -->
     <g transform="translate(216.768594 335.860562) scale(0.1 -0.1)">
      <defs>
       <path id="DejaVuSans-74" d="M 1172 4494 
L 1172 3500 
L 2356 3500 
L 2356 3053 
L 1172 3053 
L 1172 1153 
Q 1172 725 1289 603 
Q 1406 481 1766 481 
L 2356 481 
L 2356 0 
L 1766 0 
Q 1100 0 847 248 
Q 594 497 594 1153 
L 594 3053 
L 172 3053 
L 172 3500 
L 594 3500 
L 594 4494 
L 1172 4494 
z
" transform="scale(0.015625)"/>
       <path id="DejaVuSans-69" d="M 603 3500 
L 1178 3500 
L 1178 0 
L 603 0 
L 603 3500 
z
M 603 4863 
L 1178 4863 
L 1178 4134 
L 603 4134 
L 603 4863 
z
" transform="scale(0.015625)"/>
       <path id="DejaVuSans-6d" d="M 3328 2828 
Q 3544 3216 3844 3400 
Q 4144 3584 4550 3584 
Q 5097 3584 5394 3201 
Q 5691 2819 5691 2113 
L 5691 0 
L 5113 0 
L 5113 2094 
Q 5113 2597 4934 2840 
Q 4756 3084 4391 3084 
Q 3944 3084 3684 2787 
Q 3425 2491 3425 1978 
L 3425 0 
L 2847 0 
L 2847 2094 
Q 2847 2600 2669 2842 
Q 2491 3084 2119 3084 
Q 1678 3084 1418 2786 
Q 1159 2488 1159 1978 
L 1159 0 
L 581 0 
L 581 3500 
L 1159 3500 
L 1159 2956 
Q 1356 3278 1631 3431 
Q 1906 3584 2284 3584 
Q 2666 3584 2933 3390 
Q 3200 3197 3328 2828 
z
" transform="scale(0.015625)"/>
       <path id="DejaVuSans-65" d="M 3597 1894 
L 3597 1613 
L 953 1613 
Q 991 1019 1311 708 
Q 1631 397 2203 397 
Q 2534 397 2845 478 
Q 3156 559 3463 722 
L 3463 178 
Q 3153 47 2828 -22 
Q 2503 -91 2169 -91 
Q 1331 -91 842 396 
Q 353 884 353 1716 
Q 353 2575 817 3079 
Q 1281 3584 2069 3584 
Q 2775 3584 3186 3129 
Q 3597 2675 3597 1894 
z
M 3022 2063 
Q 3016 2534 2758 2815 
Q 2500 3097 2075 3097 
Q 1594 3097 1305 2825 
Q 1016 2553 972 2059 
L 3022 2063 
z
" transform="scale(0.015625)"/>
       <path id="DejaVuSans-20" transform="scale(0.015625)"/>
       <path id="DejaVuSans-5b" d="M 550 4863 
L 1875 4863 
L 1875 4416 
L 1125 4416 
L 1125 -397 
L 1875 -397 
L 1875 -844 
L 550 -844 
L 550 4863 
z
" transform="scale(0.015625)"/>
       <path id="DejaVuSans-73" d="M 2834 3397 
L 2834 2853 
Q 2591 2978 2328 3040 
Q 2066 3103 1784 3103 
Q 1356 3103 1142 2972 
Q 928 2841 928 2578 
Q 928 2378 1081 2264 
Q 1234 2150 1697 2047 
L 1894 2003 
Q 2506 1872 2764 1633 
Q 3022 1394 3022 966 
Q 3022 478 2636 193 
Q 2250 -91 1575 -91 
Q 1294 -91 989 -36 
Q 684 19 347 128 
L 347 722 
Q 666 556 975 473 
Q 1284 391 1588 391 
Q 1994 391 2212 530 
Q 2431 669 2431 922 
Q 2431 1156 2273 1281 
Q 2116 1406 1581 1522 
L 1381 1569 
Q 847 1681 609 1914 
Q 372 2147 372 2553 
Q 372 3047 722 3315 
Q 1072 3584 1716 3584 
Q 2034 3584 2315 3537 
Q 2597 3491 2834 3397 
z
" transform="scale(0.015625)"/>
       <path id="DejaVuSans-5d" d="M 1947 4863 
L 1947 -844 
L 622 -844 
L 622 -397 
L 1369 -397 
L 1369 4416 
L 622 4416 
L 622 4863 
L 1947 4863 
z
" transform="scale(0.015625)"/>
      </defs>
      <use xlink:href="#DejaVuSans-74"/>
      <use xlink:href="#DejaVuSans-69" x="39.208984"/>
      <use xlink:href="#DejaVuSans-6d" x="66.992188"/>
      <use xlink:href="#DejaVuSans-65" x="164.404297"/>
      <use xlink:href="#DejaVuSans-20" x="225.927734"/>
      <use xlink:href="#DejaVuSans-5b" x="257.714844"/>
      <use xlink:href="#DejaVuSans-73" x="296.728516"/>
      <use xlink:href="#DejaVuSans-5d" x="348.828125"/>
     </g>
    </g>
   </g>
   <g id="matplotlib.axis_2">
    <g id="ytick_1">
     <g id="line2d_8">
      <defs>
       <path id="m3be9f44fc8" d="M 0 0 
L -3.5 0 
" style="stroke: #000000; stroke-width: 0.8"/>
      </defs>
      <g>
       <use xlink:href="#m3be9f44fc8" x="57.6" y="290.946907" style="stroke: #000000; stroke-width: 0.8"/>
      </g>
     </g>
     <g id="text_9">
      <!-- 4 -->
      <g transform="translate(44.2375 294.746126) scale(0.1 -0.1)">
       <defs>
        <path id="DejaVuSans-34" d="M 2419 4116 
L 825 1625 
L 2419 1625 
L 2419 4116 
z
M 2253 4666 
L 3047 4666 
L 3047 1625 
L 3713 1625 
L 3713 1100 
L 3047 1100 
L 3047 0 
L 2419 0 
L 2419 1100 
L 313 1100 
L 313 1709 
L 2253 4666 
z
" transform="scale(0.015625)"/>
       </defs>
       <use xlink:href="#DejaVuSans-34"/>
      </g>
     </g>
    </g>
    <g id="ytick_2">
     <g id="line2d_9">
      <g>
       <use xlink:href="#m3be9f44fc8" x="57.6" y="252.921711" style="stroke: #000000; stroke-width: 0.8"/>
      </g>
     </g>
     <g id="text_10">
      <!-- 6 -->
      <g transform="translate(44.2375 256.720929) scale(0.1 -0.1)">
       <use xlink:href="#DejaVuSans-36"/>
      </g>
     </g>
    </g>
    <g id="ytick_3">
     <g id="line2d_10">
      <g>
       <use xlink:href="#m3be9f44fc8" x="57.6" y="214.896514" style="stroke: #000000; stroke-width: 0.8"/>
      </g>
     </g>
     <g id="text_11">
      <!-- 8 -->
      <g transform="translate(44.2375 218.695732) scale(0.1 -0.1)">
       <use xlink:href="#DejaVuSans-38"/>
      </g>
     </g>
    </g>
    <g id="ytick_4">
     <g id="line2d_11">
      <g>
       <use xlink:href="#m3be9f44fc8" x="57.6" y="176.871317" style="stroke: #000000; stroke-width: 0.8"/>
      </g>
     </g>
     <g id="text_12">
      <!-- 10 -->
      <g transform="translate(37.875 180.670535) scale(0.1 -0.1)">
       <defs>
        <path id="DejaVuSans-31" d="M 794 531 
L 1825 531 
L 1825 4091 
L 703 3866 
L 703 4441 
L 1819 4666 
L 2450 4666 
L 2450 531 
L 3481 531 
L 3481 0 
L 794 0 
L 794 531 
z
" transform="scale(0.015625)"/>
       </defs>
       <use xlink:href="#DejaVuSans-31"/>
       <use xlink:href="#DejaVuSans-30" x="63.623047"/>
      </g>
     </g>
    </g>
    <g id="ytick_5">
     <g id="line2d_12">
      <g>
       <use xlink:href="#m3be9f44fc8" x="57.6" y="138.84612" style="stroke: #000000; stroke-width: 0.8"/>
      </g>
     </g>
     <g id="text_13">
      <!-- 12 -->
      <g transform="translate(37.875 142.645339) scale(0.1 -0.1)">
       <defs>
        <path id="DejaVuSans-32" d="M 1228 531 
L 3431 531 
L 3431 0 
L 469 0 
L 469 531 
Q 828 903 1448 1529 
Q 2069 2156 2228 2338 
Q 2531 2678 2651 2914 
Q 2772 3150 2772 3378 
Q 2772 3750 2511 3984 
Q 2250 4219 1831 4219 
Q 1534 4219 1204 4116 
Q 875 4013 500 3803 
L 500 4441 
Q 881 4594 1212 4672 
Q 1544 4750 1819 4750 
Q 2544 4750 2975 4387 
Q 3406 4025 3406 3419 
Q 3406 3131 3298 2873 
Q 3191 2616 2906 2266 
Q 2828 2175 2409 1742 
Q 1991 1309 1228 531 
z
" transform="scale(0.015625)"/>
       </defs>
       <use xlink:href="#DejaVuSans-31"/>
       <use xlink:href="#DejaVuSans-32" x="63.623047"/>
      </g>
     </g>
    </g>
    <g id="ytick_6">
     <g id="line2d_13">
      <g>
       <use xlink:href="#m3be9f44fc8" x="57.6" y="100.820923" style="stroke: #000000; stroke-width: 0.8"/>
      </g>
     </g>
     <g id="text_14">
      <!-- 14 -->
      <g transform="translate(37.875 104.620142) scale(0.1 -0.1)">
       <use xlink:href="#DejaVuSans-31"/>
       <use xlink:href="#DejaVuSans-34" x="63.623047"/>
      </g>
     </g>
    </g>
    <g id="ytick_7">
     <g id="line2d_14">
      <g>
       <use xlink:href="#m3be9f44fc8" x="57.6" y="62.795726" style="stroke: #000000; stroke-width: 0.8"/>
      </g>
     </g>
     <g id="text_15">
      <!-- 16 -->
      <g transform="translate(37.875 66.594945) scale(0.1 -0.1)">
       <use xlink:href="#DejaVuSans-31"/>
       <use xlink:href="#DejaVuSans-36" x="63.623047"/>
      </g>
     </g>
    </g>
    <g id="text_16">
     <!-- $\theta$ [deg] -->
     <g transform="translate(31.775 192.528) rotate(-90) scale(0.1 -0.1)">
      <defs>
       <path id="DejaVuSans-Oblique-3b8" d="M 2913 2219 
L 925 2219 
Q 791 1284 928 888 
Q 1100 400 1566 400 
Q 2034 400 2391 891 
Q 2703 1322 2913 2219 
z
M 3009 2750 
Q 3094 3638 2984 3950 
Q 2813 4444 2353 4444 
Q 1875 4444 1525 3956 
Q 1250 3563 1034 2750 
L 3009 2750 
z
M 2444 4913 
Q 3194 4913 3494 4250 
Q 3794 3591 3566 2422 
Q 3341 1256 2781 594 
Q 2225 -72 1475 -72 
Q 722 -72 425 594 
Q 128 1256 353 2422 
Q 581 3591 1134 4250 
Q 1691 4913 2444 4913 
z
" transform="scale(0.015625)"/>
       <path id="DejaVuSans-64" d="M 2906 2969 
L 2906 4863 
L 3481 4863 
L 3481 0 
L 2906 0 
L 2906 525 
Q 2725 213 2448 61 
Q 2172 -91 1784 -91 
Q 1150 -91 751 415 
Q 353 922 353 1747 
Q 353 2572 751 3078 
Q 1150 3584 1784 3584 
Q 2172 3584 2448 3432 
Q 2725 3281 2906 2969 
z
M 947 1747 
Q 947 1113 1208 752 
Q 1469 391 1925 391 
Q 2381 391 2643 752 
Q 2906 1113 2906 1747 
Q 2906 2381 2643 2742 
Q 2381 3103 1925 3103 
Q 1469 3103 1208 2742 
Q 947 2381 947 1747 
z
" transform="scale(0.015625)"/>
       <path id="DejaVuSans-67" d="M 2906 1791 
Q 2906 2416 2648 2759 
Q 2391 3103 1925 3103 
Q 1463 3103 1205 2759 
Q 947 2416 947 1791 
Q 947 1169 1205 825 
Q 1463 481 1925 481 
Q 2391 481 2648 825 
Q 2906 1169 2906 1791 
z
M 3481 434 
Q 3481 -459 3084 -895 
Q 2688 -1331 1869 -1331 
Q 1566 -1331 1297 -1286 
Q 1028 -1241 775 -1147 
L 775 -588 
Q 1028 -725 1275 -790 
Q 1522 -856 1778 -856 
Q 2344 -856 2625 -561 
Q 2906 -266 2906 331 
L 2906 616 
Q 2728 306 2450 153 
Q 2172 0 1784 0 
Q 1141 0 747 490 
Q 353 981 353 1791 
Q 353 2603 747 3093 
Q 1141 3584 1784 3584 
Q 2172 3584 2450 3431 
Q 2728 3278 2906 2969 
L 2906 3500 
L 3481 3500 
L 3481 434 
z
" transform="scale(0.015625)"/>
      </defs>
      <use xlink:href="#DejaVuSans-Oblique-3b8" transform="translate(0 0.234375)"/>
      <use xlink:href="#DejaVuSans-20" transform="translate(61.181641 0.234375)"/>
      <use xlink:href="#DejaVuSans-5b" transform="translate(92.96875 0.234375)"/>
      <use xlink:href="#DejaVuSans-64" transform="translate(131.982422 0.234375)"/>
      <use xlink:href="#DejaVuSans-65" transform="translate(195.458984 0.234375)"/>
      <use xlink:href="#DejaVuSans-67" transform="translate(256.982422 0.234375)"/>
      <use xlink:href="#DejaVuSans-5d" transform="translate(320.458984 0.234375)"/>
     </g>
    </g>
   </g>
   <g id="line2d_15">
    <path d="M 73.832727 188.890419 
L 73.940691 191.7178 
L 74.156629 210.433953 
L 74.264603 200.444753 
L 74.480541 220.656088 
L 74.588505 189.410318 
L 74.696479 195.536609 
L 74.912407 225.480842 
L 75.020381 200.234583 
L 75.236319 223.253043 
L 75.344283 199.70964 
L 75.452257 220.008143 
L 75.668195 202.212701 
L 75.992097 246.077483 
L 76.100061 227.198419 
L 76.423973 238.377592 
L 76.747875 213.812393 
L 76.855849 198.96948 
L 76.963813 199.55492 
L 77.071776 219.569549 
L 77.287714 188.850672 
L 77.503652 220.025859 
L 77.71959 193.529299 
L 77.935528 232.164113 
L 78.043492 206.76493 
L 78.25943 235.577296 
L 78.367405 197.999933 
L 78.475368 213.066607 
L 78.79927 178.095716 
L 78.907244 185.24144 
L 79.015208 200.238393 
L 79.123182 180.989354 
L 79.231145 215.184612 
L 79.339119 208.982723 
L 79.555057 223.19904 
L 79.663021 223.163406 
L 79.770984 229.356906 
L 79.986922 192.220971 
L 80.094897 201.561786 
L 80.20286 198.079947 
L 80.310835 199.690731 
L 80.526762 206.144602 
L 80.634736 207.643814 
L 80.850674 227.097557 
L 80.958638 226.650484 
L 81.066612 224.588485 
L 81.282551 216.184647 
L 81.390514 217.563521 
L 81.498478 211.962313 
L 81.606452 254.070654 
L 81.82239 225.255187 
L 81.930354 228.760855 
L 82.038328 213.193016 
L 82.254255 235.694029 
L 82.470194 203.454198 
L 82.578168 207.327981 
L 82.794106 241.725005 
L 82.90207 207.206699 
L 83.010033 233.049433 
L 83.118008 222.777041 
L 83.333946 250.31839 
L 83.549884 213.501959 
L 83.657847 243.265423 
L 83.765822 227.167501 
L 83.873785 236.609542 
L 83.981749 214.897638 
L 84.089723 225.685271 
L 84.197687 208.668916 
L 84.305661 219.143356 
L 84.413625 217.237931 
L 84.629563 198.640116 
L 84.737527 226.443013 
L 84.845501 215.534838 
L 84.953465 226.665763 
L 85.061439 207.286456 
L 85.169403 224.435977 
L 85.277377 207.144331 
L 85.385341 256.971812 
L 85.709243 187.794028 
L 85.817217 208.708065 
L 85.925181 197.130214 
L 86.033155 223.347274 
L 86.141119 198.044493 
L 86.572995 259.409611 
L 86.680958 213.447888 
L 86.788933 232.005615 
L 87.004871 227.260403 
L 87.220798 199.684203 
L 87.544711 226.435826 
L 87.652674 204.276087 
L 87.868612 235.491057 
L 87.976576 212.062956 
L 88.08455 224.027471 
L 88.300488 220.500067 
L 88.408452 222.913911 
L 88.516415 216.458421 
L 88.62439 225.650636 
L 88.840328 206.236844 
L 88.948292 225.617196 
L 89.056266 224.073387 
L 89.16423 231.943215 
L 89.380168 188.1187 
L 89.488131 208.722939 
L 89.704069 192.100856 
L 89.812044 246.665208 
L 90.135945 190.896833 
L 90.351883 222.181139 
L 90.459847 224.812384 
L 90.567821 221.299017 
L 90.675785 201.872084 
L 90.891723 237.005498 
L 91.107661 219.510524 
L 91.215625 227.714566 
L 91.323588 251.213394 
L 91.971404 191.616569 
L 92.187342 222.893626 
L 92.295306 187.460213 
L 92.40328 188.466519 
L 92.511244 218.738887 
L 92.619218 217.641578 
L 92.727182 195.372027 
L 92.835145 214.61983 
L 93.051083 201.394308 
L 93.159058 195.652903 
L 93.267021 179.044453 
L 93.374985 192.645602 
L 93.482959 178.035231 
L 93.698897 194.264738 
L 93.806861 184.157909 
L 93.914836 225.310857 
L 94.238737 205.66185 
L 94.346701 219.272883 
L 94.670602 191.909792 
L 94.778577 216.288991 
L 94.994515 193.55222 
L 95.102479 213.541414 
L 95.210453 205.250792 
L 95.318417 208.620707 
L 95.42638 196.004448 
L 95.534355 221.797421 
L 95.642318 216.457025 
L 95.750293 197.272436 
L 95.858256 221.719095 
L 96.182158 169.816729 
L 96.290132 180.828456 
L 96.398096 179.253104 
L 96.614034 224.904451 
L 96.721998 202.880712 
L 96.829972 222.85715 
L 97.04591 199.818608 
L 97.153874 198.021758 
L 97.261848 226.100041 
L 97.58575 157.660565 
L 97.909651 214.477504 
L 98.017615 195.499174 
L 98.125589 195.805418 
L 98.233553 206.108517 
L 98.341528 174.751432 
L 98.557455 215.655986 
L 98.665429 208.120639 
L 98.773393 212.264529 
L 98.989331 206.551209 
L 99.097294 183.58731 
L 99.205269 238.01713 
L 99.529171 188.685351 
L 99.637145 207.053264 
L 99.853072 187.862857 
L 99.961047 221.231683 
L 100.06901 176.590977 
L 100.176985 190.807713 
L 100.284948 178.002461 
L 100.500886 202.26182 
L 100.716824 175.401906 
L 100.824788 195.529184 
L 101.040726 160.671238 
L 101.14869 160.687206 
L 101.256664 182.608465 
L 101.364628 168.040557 
L 101.580566 181.528963 
L 101.688529 196.202709 
L 101.796504 160.348538 
L 102.012442 204.672087 
L 102.120405 200.041367 
L 102.228369 158.376169 
L 102.336343 207.027101 
L 102.444307 185.11654 
L 102.552282 213.235818 
L 102.660245 210.085411 
L 102.768209 235.842696 
L 102.876183 221.344998 
L 102.984147 229.982103 
L 103.308048 175.896072 
L 103.523986 204.198129 
L 103.739922 170.903208 
L 103.847885 211.445875 
L 103.95586 210.338113 
L 104.063823 200.738865 
L 104.171798 178.796354 
L 104.387725 193.663287 
L 104.4957 201.753257 
L 104.603663 196.606471 
L 104.711638 224.521215 
L 104.819601 200.885698 
L 104.927565 221.25707 
L 105.035539 198.055134 
L 105.143503 217.770386 
L 105.251477 214.486192 
L 105.359441 217.336595 
L 105.575379 203.099525 
L 105.683343 210.852239 
L 105.791317 198.398868 
L 105.899281 203.097216 
L 106.115219 156.148617 
L 106.331157 178.542045 
L 106.43912 174.974665 
L 106.547084 152.892982 
L 106.655058 205.813996 
L 106.763022 185.953749 
L 106.97896 212.166611 
L 107.086924 193.907706 
L 107.194898 207.303794 
L 107.410836 166.645354 
L 107.5188 188.31595 
L 107.626763 180.836436 
L 107.734738 189.275954 
L 107.842701 155.262898 
L 108.274577 227.585618 
L 108.490516 196.271735 
L 108.598479 192.230563 
L 108.706443 230.01451 
L 109.030355 179.271934 
L 109.354257 215.099124 
L 109.46222 212.244128 
L 109.570195 205.418968 
L 109.678159 224.04135 
L 109.786122 222.264303 
L 110.00206 172.297594 
L 110.110035 214.291228 
L 110.217998 205.297073 
L 110.433936 241.706253 
L 110.757838 213.151615 
L 110.865802 219.255812 
L 110.973776 200.023034 
L 111.08174 221.7207 
L 111.405641 181.290666 
L 111.513616 182.926125 
L 111.621579 189.388453 
L 111.945481 176.125736 
L 112.053455 183.476014 
L 112.161419 169.914512 
L 112.485321 196.317132 
L 112.701259 174.756407 
L 112.809222 196.025332 
L 112.917197 192.11701 
L 113.02516 176.435441 
L 113.133135 219.712856 
L 113.241098 172.016395 
L 113.349062 174.869961 
L 113.565 198.650844 
L 113.672974 202.905163 
L 113.780938 219.202125 
L 113.996876 202.433148 
L 114.10484 205.151198 
L 114.212814 193.54487 
L 114.320778 206.912501 
L 114.428741 205.973725 
L 114.536716 220.086288 
L 114.752643 194.038562 
L 114.860617 201.698193 
L 114.968581 183.542373 
L 115.076555 184.636554 
L 115.184519 204.855293 
L 115.292483 202.96192 
L 115.400457 178.762152 
L 115.508421 216.788684 
L 115.724359 202.980181 
L 115.832322 211.394565 
L 115.940301 206.92958 
L 116.048265 214.519414 
L 116.156229 184.981981 
L 116.264203 194.446962 
L 116.480141 189.431989 
L 116.588105 209.234219 
L 116.696068 202.255584 
L 116.804043 206.540299 
L 117.019981 157.751137 
L 117.343882 230.162972 
L 117.451846 214.637784 
L 117.55982 172.809874 
L 117.775748 209.538172 
L 118.099649 184.374177 
L 118.207624 186.928085 
L 118.423562 221.516313 
L 118.531525 181.755986 
L 118.747463 189.927842 
L 118.855427 215.031876 
L 118.963391 205.390202 
L 119.179329 230.172458 
L 119.395267 186.090411 
L 119.50323 191.04688 
L 119.611205 238.258162 
L 119.719168 216.590195 
L 119.827143 220.926664 
L 120.151044 182.440175 
L 120.259008 190.633028 
L 120.366972 175.333064 
L 120.474946 201.408666 
L 120.58291 190.00802 
L 120.690884 196.595708 
L 120.798848 195.599972 
L 120.906811 207.164728 
L 121.014786 187.345842 
L 121.122749 188.505633 
L 121.338687 226.804172 
L 121.446651 217.296383 
L 121.554625 231.798368 
L 121.770553 177.120742 
L 121.878527 167.765432 
L 121.986491 203.726711 
L 122.094465 193.678955 
L 122.202429 197.416158 
L 122.310392 205.269426 
L 122.418367 188.776283 
L 122.52633 205.882181 
L 122.742269 180.801466 
L 122.850232 182.349022 
L 122.958207 192.435031 
L 123.174134 171.364235 
L 123.282108 213.102401 
L 123.498035 174.32158 
L 123.60601 186.91132 
L 123.821948 158.506419 
L 124.037875 191.464461 
L 124.14585 193.960435 
L 124.253813 190.835103 
L 124.361777 206.881967 
L 124.469751 201.049836 
L 124.685689 180.281398 
L 124.793653 198.860318 
L 124.901616 181.059999 
L 125.009591 210.269726 
L 125.333493 165.347154 
L 125.657394 223.893238 
L 125.765358 191.646786 
L 125.873332 199.132587 
L 126.089259 187.297313 
L 126.197234 190.549806 
L 126.305198 189.019315 
L 126.413161 190.478881 
L 126.521136 189.942006 
L 126.629099 180.301408 
L 126.845037 213.110702 
L 126.953001 168.726784 
L 127.060975 178.749262 
L 127.276902 230.625023 
L 127.384877 217.496616 
L 127.492841 174.143898 
L 127.600815 210.811186 
L 127.708779 194.711126 
L 127.816742 201.019691 
L 128.140644 181.581661 
L 128.248613 189.853629 
L 128.464551 172.692952 
L 128.572515 209.942812 
L 128.788453 187.097359 
L 128.896416 182.891129 
L 129.00438 215.627615 
L 129.112354 174.924396 
L 129.220318 202.671278 
L 129.436256 175.434167 
L 129.544219 180.211818 
L 129.652194 197.36438 
L 129.868121 190.066437 
L 130.084059 169.21587 
L 130.192023 171.947324 
L 130.407961 212.649895 
L 130.515935 172.295994 
L 130.623899 200.677725 
L 130.731862 169.364515 
L 130.839837 173.228615 
L 130.947801 172.448892 
L 131.055764 192.757742 
L 131.163739 187.910239 
L 131.271702 177.120637 
L 131.48764 189.278901 
L 131.595604 171.548081 
L 131.811542 186.080304 
L 131.919505 183.91995 
L 132.02748 184.600893 
L 132.135444 188.635673 
L 132.243407 198.245603 
L 132.351382 197.498648 
L 132.567309 188.346569 
L 132.675283 205.011874 
L 132.783247 200.674029 
L 132.999185 210.987628 
L 133.107148 206.424358 
L 133.215123 244.085029 
L 133.43105 208.849816 
L 133.539025 215.795606 
L 133.646988 194.203992 
L 133.754952 201.200257 
L 133.862926 225.937618 
L 133.97089 225.683491 
L 134.078864 224.526295 
L 134.294792 185.231366 
L 134.402766 212.761571 
L 134.51073 207.728711 
L 134.618693 211.220964 
L 134.726668 203.412988 
L 134.834631 221.497512 
L 134.942595 218.271921 
L 135.050569 249.665453 
L 135.158533 215.306726 
L 135.374471 239.209799 
L 135.482435 216.190818 
L 135.698373 225.326815 
L 135.806336 192.917071 
L 135.914311 234.936016 
L 136.130238 189.464594 
L 136.346176 225.679701 
L 136.454139 197.930259 
L 136.562114 227.809321 
L 136.670078 207.615121 
L 136.778052 235.347495 
L 136.886016 227.375278 
L 136.993979 227.558511 
L 137.101954 229.326855 
L 137.209917 206.305175 
L 137.317881 211.664625 
L 137.425855 197.106847 
L 137.533819 227.215043 
L 137.641782 218.271047 
L 137.749757 241.313898 
L 137.857721 235.598667 
L 137.965684 214.644933 
L 138.073659 226.109865 
L 138.181622 216.342118 
L 138.289597 235.998078 
L 138.39756 234.86041 
L 138.505524 215.837949 
L 138.613498 225.77418 
L 139.045364 196.668516 
L 139.261302 239.857593 
L 139.477229 175.346322 
L 139.693167 184.154268 
L 139.80113 170.799758 
L 140.017068 201.273362 
L 140.125043 197.502138 
L 140.34097 215.291428 
L 140.448945 218.15863 
L 140.664883 202.98805 
L 140.772857 211.645303 
L 140.880821 203.98215 
L 141.096759 216.613085 
L 141.204722 211.852369 
L 141.312686 238.200572 
L 141.42066 232.516175 
L 141.528624 251.022368 
L 141.744562 204.381698 
L 141.9605 234.045782 
L 142.068464 246.944204 
L 142.284402 222.558207 
L 142.392365 226.684609 
L 142.500329 240.716547 
L 142.608303 211.630613 
L 142.824231 276.734489 
L 143.040169 217.795977 
L 143.148132 227.86448 
L 143.256107 262.916635 
L 143.472034 221.620218 
L 143.795936 256.866831 
L 144.011874 202.384111 
L 144.119837 217.986244 
L 144.227812 265.290988 
L 144.335775 259.243738 
L 144.44375 264.67599 
L 144.551713 237.935435 
L 144.659677 262.941841 
L 144.767651 260.302705 
L 144.875615 242.835745 
L 144.983579 244.185787 
L 145.091553 241.686404 
L 145.30748 220.887463 
L 145.415455 241.031271 
L 145.631382 204.201152 
L 145.84732 232.747869 
L 145.955284 223.627532 
L 146.063258 236.918209 
L 146.171222 232.719037 
L 146.279185 239.16853 
L 146.38716 230.346901 
L 146.495123 248.403117 
L 146.603087 228.27303 
L 146.711061 235.861648 
L 146.819025 222.277246 
L 146.926988 256.263294 
L 147.034963 250.183498 
L 147.142927 232.466454 
L 147.25089 247.959842 
L 147.358865 223.05764 
L 147.574803 275.539133 
L 147.682766 262.310028 
L 147.79073 269.396892 
L 147.898704 251.423637 
L 148.006668 263.697893 
L 148.222606 242.106109 
L 148.33057 284.368757 
L 148.762435 220.171189 
L 148.870409 233.498309 
L 148.978373 221.198492 
L 149.086336 240.565134 
L 149.194311 226.498015 
L 149.302275 244.772117 
L 149.410238 238.768458 
L 149.518213 226.549974 
L 149.626176 237.745916 
L 149.842114 213.936424 
L 149.950078 218.632351 
L 150.058041 208.054834 
L 150.166016 233.890081 
L 150.273979 224.229767 
L 150.381943 245.252817 
L 150.489918 244.28967 
L 150.705845 223.257808 
L 150.813819 234.82391 
L 150.921783 259.276205 
L 151.029746 248.127379 
L 151.245684 265.53472 
L 151.353648 268.163896 
L 151.569586 234.408087 
L 151.67755 231.873185 
L 152.001462 208.372848 
L 152.109426 211.929498 
L 152.217389 202.827152 
L 152.325353 202.990761 
L 152.433327 242.581201 
L 152.757222 207.451475 
L 152.865186 196.088189 
L 152.973149 216.859312 
L 153.081124 216.658579 
L 153.189087 228.927608 
L 153.297062 255.669871 
L 153.512989 227.306306 
L 153.728927 216.276111 
L 153.836891 239.201227 
L 154.052829 212.458395 
L 154.268767 232.205132 
L 154.37673 232.882212 
L 154.484694 228.339012 
L 154.592668 208.274654 
L 154.700632 234.938946 
L 154.91657 189.511255 
L 155.024534 203.937627 
L 155.132497 202.588354 
L 155.240472 186.112354 
L 155.348435 204.510268 
L 155.456399 188.72039 
L 155.564373 193.619218 
L 155.7803 220.219744 
L 155.996238 203.638477 
L 156.212177 218.330795 
L 156.536078 192.465315 
L 156.644042 199.0434 
L 156.752005 185.662795 
L 156.967943 211.768502 
L 157.183881 177.942609 
L 157.507783 197.320908 
L 157.72371 205.601973 
L 157.831685 207.157725 
L 157.939648 193.650784 
L 158.047612 221.092013 
L 158.155576 211.006704 
L 158.371514 239.671319 
L 158.479477 232.019347 
L 158.695415 199.674105 
L 158.80339 217.083228 
L 159.019317 183.156389 
L 159.235255 206.027411 
L 159.343219 196.127059 
L 159.559157 218.984181 
L 159.775084 193.257196 
L 159.991022 214.670676 
L 160.20696 194.675537 
L 160.314924 198.10901 
L 160.422887 216.532496 
L 160.638825 196.835345 
L 160.746789 203.5482 
L 160.854763 199.992233 
L 160.962727 169.795892 
L 161.178665 230.247564 
L 161.286629 184.735471 
L 161.61053 230.288622 
L 161.718494 209.905139 
L 161.934432 233.709189 
L 162.15037 196.353758 
L 162.258334 237.803235 
L 162.474272 215.667839 
L 162.582235 218.602516 
L 162.906137 183.414598 
L 163.230038 212.584633 
L 163.338002 182.484371 
L 163.445966 193.025789 
L 163.55394 222.24955 
L 163.661904 218.773422 
L 163.769867 186.957587 
L 163.985805 211.765136 
L 164.093769 218.002154 
L 164.201743 184.240333 
L 164.309707 185.608823 
L 164.525645 175.695176 
L 164.741572 184.136314 
L 164.95751 171.067935 
L 165.065469 197.242331 
L 165.173443 182.072568 
L 165.389371 218.054004 
L 165.605309 225.666924 
L 165.713272 239.144739 
L 165.821247 217.228701 
L 165.92921 228.681616 
L 166.145148 176.754579 
L 166.361076 205.93286 
L 166.469039 190.622743 
L 166.577014 213.940635 
L 166.684977 194.869595 
L 166.792941 200.613566 
L 166.900915 187.509459 
L 167.008879 190.027222 
L 167.116843 178.521336 
L 167.224817 186.652836 
L 167.332781 185.346738 
L 167.440744 191.302452 
L 167.656682 179.835309 
L 167.764646 201.77626 
L 167.980584 167.967805 
L 168.088547 194.54098 
L 168.196522 190.488913 
L 168.412449 200.297027 
L 168.628387 178.452041 
L 168.736351 197.244361 
L 168.844325 184.211115 
L 168.952289 186.020181 
L 169.168216 208.320611 
L 169.276191 189.748552 
L 169.384154 209.417609 
L 169.492118 188.503135 
L 169.600092 193.123389 
L 169.708056 184.902703 
L 169.816019 193.433393 
L 169.923994 225.29727 
L 170.031957 197.773227 
L 170.247895 213.656797 
L 170.355859 214.686606 
L 170.571797 183.551017 
L 170.895688 219.677917 
L 171.003662 225.478187 
L 171.111626 237.759134 
L 171.21959 237.20473 
L 171.327564 230.457443 
L 171.435528 240.392931 
L 171.651466 209.55081 
L 171.759429 218.262384 
L 171.867393 201.225116 
L 171.975367 205.702668 
L 172.083331 202.636442 
L 172.191295 221.933948 
L 172.299269 217.580962 
L 172.407233 186.343907 
L 172.731134 209.060909 
L 172.839098 213.38871 
L 173.055036 227.469389 
L 173.163 210.529986 
L 173.270963 218.567803 
L 173.486901 197.434001 
L 173.702839 208.052025 
L 173.810803 206.952214 
L 173.918766 204.050683 
L 174.026741 219.013674 
L 174.242668 193.794663 
L 174.350632 189.753278 
L 174.458606 160.76694 
L 174.674533 181.111508 
L 174.782508 159.35032 
L 174.998435 189.249936 
L 175.106409 181.400749 
L 175.214373 205.433984 
L 175.322337 184.061063 
L 175.538275 209.143271 
L 175.754202 201.648821 
L 175.862176 217.330432 
L 175.97014 195.061055 
L 176.078104 214.461029 
L 176.186078 195.257774 
L 176.294042 201.610658 
L 176.50998 178.479641 
L 176.617943 184.480849 
L 176.725907 179.247852 
L 176.941845 211.543071 
L 177.049809 191.341207 
L 177.157772 196.700407 
L 177.265747 212.924229 
L 177.373721 212.546941 
L 177.589659 188.319962 
L 177.697623 215.249046 
L 177.805586 207.775937 
L 177.913561 215.062094 
L 178.021524 204.388634 
L 178.345426 257.48606 
L 178.45339 254.007329 
L 178.669328 201.098654 
L 178.777291 232.073381 
L 179.101193 204.35129 
L 179.31712 214.345354 
L 179.425095 248.366352 
L 179.641022 220.80438 
L 179.748996 224.028354 
L 179.964923 216.392878 
L 180.180861 225.245878 
L 180.288825 221.845417 
L 180.3968 190.111919 
L 180.504763 218.861574 
L 180.612727 209.592569 
L 180.936628 222.083229 
L 181.044592 209.1339 
L 181.26053 221.897108 
L 181.476468 203.546882 
L 181.584432 209.244675 
L 181.692395 202.969963 
L 181.800359 223.386607 
L 181.908333 221.813976 
L 182.016297 190.83042 
L 182.232235 228.381477 
L 182.556137 195.964292 
L 182.6641 199.832979 
L 182.772064 197.531814 
L 182.880028 178.469722 
L 183.095966 192.205278 
L 183.203929 190.885018 
L 183.419867 232.794686 
L 183.635794 205.587726 
L 183.743769 214.558036 
L 184.067671 188.037845 
L 184.283598 214.857684 
L 184.391572 230.580842 
L 184.499536 227.803191 
L 184.607499 216.855985 
L 184.715463 218.613411 
L 184.931401 192.194952 
L 185.039365 209.437817 
L 185.147339 184.750107 
L 185.255303 189.203867 
L 185.363266 199.938142 
L 185.579204 175.503314 
L 185.687168 177.299828 
L 185.795132 191.301148 
L 185.903106 186.444391 
L 186.01107 161.340379 
L 186.119033 171.128143 
L 186.227008 203.783334 
L 186.334971 187.685234 
L 186.442935 188.111747 
L 186.550898 182.702715 
L 186.658873 189.03449 
L 186.766837 188.908267 
L 186.8748 189.986443 
L 187.090738 206.631807 
L 187.306676 178.003218 
L 187.522603 218.652439 
L 187.738541 214.89066 
L 187.846505 207.885402 
L 187.954469 180.852029 
L 188.170407 222.561388 
L 188.27837 187.954698 
L 188.494308 209.046836 
L 188.602272 202.471801 
L 188.710236 207.978491 
L 188.81821 203.930538 
L 188.926174 217.6215 
L 189.034137 194.65983 
L 189.142101 248.707215 
L 189.250075 243.061242 
L 189.358039 247.774459 
L 189.789905 219.708308 
L 190.005844 243.47148 
L 190.221771 235.749988 
L 190.329745 239.26671 
L 190.653647 264.995849 
L 190.76161 226.348512 
L 190.869574 232.328185 
L 190.977538 222.57558 
L 191.193476 257.622124 
L 191.625341 230.787482 
L 191.733305 220.880427 
L 191.841279 224.290894 
L 191.949243 219.172801 
L 192.057206 200.917077 
L 192.165181 202.948415 
L 192.381108 216.758604 
L 192.489072 211.451492 
L 192.70501 244.658799 
L 192.812973 217.852201 
L 192.920948 245.337907 
L 193.028911 243.839756 
L 193.244838 230.230447 
L 193.352813 229.081821 
L 193.460776 234.789474 
L 193.56874 221.359617 
L 193.784678 286.38853 
L 193.892642 245.447856 
L 194.000605 253.125826 
L 194.10858 245.657341 
L 194.216543 229.289703 
L 194.324507 235.767757 
L 194.432481 227.034136 
L 194.540445 246.856021 
L 194.648409 224.055461 
L 194.756372 245.072471 
L 194.864347 244.420181 
L 194.97231 238.551506 
L 195.080274 252.901716 
L 195.188248 245.996635 
L 195.296212 247.663021 
L 195.404176 267.070654 
L 195.512139 230.420331 
L 195.620114 246.145756 
L 195.728077 226.343104 
L 195.944015 249.930718 
L 196.051979 235.88898 
L 196.267906 262.152401 
L 196.591808 245.264568 
L 196.699771 249.044226 
L 196.915709 228.582245 
L 197.023673 275.407115 
L 197.239611 241.959572 
L 197.347575 255.821794 
L 197.455538 217.258254 
L 197.563513 236.015568 
L 197.77944 231.900693 
L 197.995378 259.192079 
L 198.103342 251.325465 
L 198.211305 226.32878 
L 198.31928 243.986881 
L 198.427243 206.22702 
L 198.535207 228.854249 
L 198.643181 212.460696 
L 198.859109 262.070543 
L 199.075047 213.032108 
L 199.18301 215.101097 
L 199.290974 220.423522 
L 199.398937 256.07687 
L 199.506912 238.7116 
L 199.830813 264.926064 
L 200.046741 225.291436 
L 200.262679 244.410669 
L 200.370642 231.654942 
L 200.58658 252.23271 
L 200.802508 238.539228 
L 201.018446 242.35233 
L 201.126409 224.003855 
L 201.342336 263.212904 
L 201.558275 234.747888 
L 201.666238 228.806845 
L 201.774213 214.251806 
L 201.88217 223.312465 
L 201.990134 220.158762 
L 202.098098 245.314018 
L 202.206072 243.136335 
L 202.314036 218.149567 
L 202.529963 259.612841 
L 202.745901 243.268591 
L 203.069803 223.065642 
L 203.177766 239.772002 
L 203.28573 228.471026 
L 203.393704 228.656353 
L 203.501668 237.128736 
L 203.609631 257.71027 
L 203.717595 230.199497 
L 203.825569 238.447335 
L 203.933533 264.444881 
L 204.041497 239.950935 
L 204.149471 245.268555 
L 204.257435 228.836021 
L 204.473362 240.632658 
L 204.581336 237.883722 
L 204.797264 209.573922 
L 204.905227 212.089322 
L 205.013202 230.700883 
L 205.229129 206.590775 
L 205.337103 224.806166 
L 205.445067 214.554192 
L 205.55303 235.023888 
L 205.660994 199.639142 
L 205.768969 204.601942 
L 205.984896 235.194684 
L 206.200834 226.997893 
L 206.416761 176.789193 
L 206.524735 197.872901 
L 206.632699 195.092572 
L 206.740663 215.038264 
L 206.848626 208.093359 
L 206.956601 210.122878 
L 207.064564 230.369548 
L 207.280492 213.611572 
L 207.388466 219.800259 
L 207.604393 186.792573 
L 207.712357 247.84012 
L 207.820331 196.660934 
L 207.928295 198.979713 
L 208.036258 207.821195 
L 208.144233 194.301881 
L 208.252197 223.026584 
L 208.468124 178.342317 
L 208.576098 215.487447 
L 208.684062 214.237003 
L 208.792025 241.832148 
L 208.899989 195.952822 
L 209.007963 212.903118 
L 209.115927 185.396281 
L 209.223891 196.509832 
L 209.331854 193.066417 
L 209.439829 162.278016 
L 209.655756 181.266362 
L 209.76373 163.293214 
L 210.087621 196.432141 
L 210.303559 204.098941 
L 210.411523 185.374499 
L 210.519486 187.056101 
L 210.627461 235.192111 
L 210.735424 202.036007 
L 210.843388 222.263922 
L 210.951352 188.065925 
L 211.16729 216.438588 
L 211.275253 206.359442 
L 211.383217 207.892497 
L 211.491191 228.236811 
L 211.599155 205.766668 
L 211.815093 253.871191 
L 212.03102 219.63548 
L 212.138984 249.541094 
L 212.246958 225.447981 
L 212.354922 241.317119 
L 212.678824 195.098871 
L 212.786787 214.234857 
L 212.894751 200.136876 
L 213.002714 221.060967 
L 213.110689 199.260699 
L 213.326616 227.630254 
L 213.43458 207.143024 
L 213.542554 217.385523 
L 213.758481 273.851612 
L 213.974419 254.04422 
L 214.082381 254.619486 
L 214.298319 182.134688 
L 214.406282 175.016358 
L 214.514246 217.968912 
L 214.62221 214.312998 
L 214.730184 226.063792 
L 214.838148 189.693043 
L 214.946111 220.682192 
L 215.162049 210.071806 
L 215.270013 228.624406 
L 215.377976 220.532711 
L 215.48594 223.469386 
L 215.593915 243.481339 
L 215.809842 242.425564 
L 215.917805 247.264237 
L 216.133743 228.877765 
L 216.241707 235.872398 
L 216.349671 217.929115 
L 216.565609 221.37571 
L 216.673572 201.606896 
L 216.781536 202.71538 
L 216.997474 242.601131 
L 217.213401 233.656964 
L 217.321376 240.345752 
L 217.429339 235.868568 
L 217.645277 204.674287 
L 217.753241 216.051798 
L 218.077143 182.286298 
L 218.185106 206.669902 
L 218.29307 206.037091 
L 218.509008 226.428662 
L 218.616971 194.652857 
L 219.048837 247.514222 
L 219.372738 205.126849 
L 219.696629 180.594817 
L 219.912567 210.489491 
L 220.020531 190.795858 
L 220.128494 221.151047 
L 220.344432 149.834421 
L 220.452396 155.889075 
L 220.56036 173.594818 
L 220.668334 169.902054 
L 220.992225 219.013276 
L 221.100199 202.615374 
L 221.316127 226.731692 
L 221.42409 222.896862 
L 221.532065 180.763271 
L 221.747992 216.849355 
L 221.855955 248.288889 
L 221.96393 241.902258 
L 222.071893 196.197916 
L 222.179857 210.999324 
L 222.287821 254.589076 
L 222.395795 214.319481 
L 222.503759 236.291255 
L 222.719686 218.877321 
L 222.82766 219.624224 
L 222.935624 233.691554 
L 223.259526 214.368283 
L 223.367489 249.949408 
L 223.583417 192.651245 
L 223.691391 179.671223 
L 223.907318 227.263353 
L 224.015282 196.691328 
L 224.123256 221.285558 
L 224.23122 209.927635 
L 224.339183 212.12345 
L 224.447147 188.942704 
L 224.663085 200.057078 
L 224.771049 179.774729 
L 224.986987 233.554511 
L 225.202914 217.195507 
L 225.310878 225.37951 
L 225.418852 177.364864 
L 225.634779 210.852615 
L 225.742743 228.12591 
L 225.850717 204.953011 
L 225.958681 208.080896 
L 226.066644 194.453594 
L 226.174608 210.828752 
L 226.282583 200.435619 
L 226.390554 202.213586 
L 226.498517 190.281191 
L 226.714455 222.164448 
L 226.822419 225.78674 
L 227.038346 174.299412 
L 227.254284 212.465407 
L 227.362248 189.105617 
L 227.578186 244.232942 
L 227.68615 238.62831 
L 227.794113 234.791673 
L 228.010051 201.555613 
L 228.118015 230.3075 
L 228.225978 216.452629 
L 228.333942 227.023563 
L 228.441917 216.469467 
L 228.54988 170.790241 
L 228.981745 217.275095 
L 229.197673 179.934518 
L 229.413611 219.00418 
L 229.521574 222.138355 
L 229.629538 202.906244 
L 229.845476 249.815741 
L 230.061403 244.354168 
L 230.169367 244.743708 
L 230.385305 224.788757 
L 230.493268 266.601087 
L 230.601232 246.833922 
L 230.709206 197.765255 
L 231.033097 211.36776 
L 231.141072 228.818753 
L 231.249035 223.029712 
L 231.356999 237.651637 
L 231.464963 188.063795 
L 231.680901 212.850231 
L 231.896828 205.580703 
L 232.112766 230.27619 
L 232.220729 227.370142 
L 232.328693 214.129464 
L 232.544631 233.311799 
L 232.760558 212.845129 
L 232.868522 188.260584 
L 233.08446 229.153575 
L 233.192424 259.348328 
L 233.408362 210.775083 
L 233.516325 221.364884 
L 233.624289 216.59435 
L 233.732252 258.366409 
L 233.948191 228.53058 
L 234.056154 238.419639 
L 234.272081 218.728013 
L 234.380056 219.095766 
L 234.595983 244.757106 
L 234.703947 231.870785 
L 234.811921 243.633956 
L 234.919885 241.331251 
L 235.135812 221.316377 
L 235.243786 228.970852 
L 235.459714 253.222267 
L 235.675652 230.788405 
L 235.783615 252.147543 
L 235.999542 225.372667 
L 236.107506 230.70824 
L 236.21548 225.691887 
L 236.431408 237.585262 
L 236.539371 240.753962 
L 236.647346 237.610521 
L 236.755309 223.18486 
L 236.863273 229.702053 
L 236.971237 226.646812 
L 237.079211 231.461521 
L 237.187175 192.055804 
L 237.295138 208.557746 
L 237.511076 193.422561 
L 237.61904 209.745388 
L 237.727003 193.775699 
L 237.834967 238.235169 
L 237.942931 216.289052 
L 238.050905 238.161184 
L 238.158869 201.603619 
L 238.266832 245.109864 
L 238.374796 218.125954 
L 238.48277 224.432197 
L 238.698695 196.505974 
L 238.914633 230.431804 
L 239.022597 206.746094 
L 239.238524 223.581429 
L 239.454462 195.517722 
L 239.562425 212.363582 
L 239.670389 211.947171 
L 239.778353 223.861225 
L 239.886327 216.06573 
L 239.994291 220.317818 
L 240.102254 230.059266 
L 240.210218 176.483078 
L 240.318192 211.63464 
L 240.426156 210.839396 
L 240.53412 214.551875 
L 240.642083 200.898151 
L 240.858021 221.956676 
L 240.965985 220.152741 
L 241.073948 224.263789 
L 241.289886 215.389907 
L 241.39785 209.855227 
L 241.505814 226.840542 
L 241.721752 204.990241 
L 241.937679 235.446028 
L 242.045643 230.879168 
L 242.153606 211.893714 
L 242.261581 213.761918 
L 242.477508 229.925076 
L 242.585471 228.100295 
L 242.693446 220.210995 
L 242.801409 234.513434 
L 243.017337 218.8165 
L 243.1253 251.212787 
L 243.341238 192.17695 
L 243.66514 239.623257 
L 243.881067 236.890745 
L 244.096994 235.513614 
L 244.204969 257.398974 
L 244.312932 231.156573 
L 244.420896 245.686507 
L 244.52886 241.298189 
L 244.636834 205.804852 
L 244.960725 237.652573 
L 245.068699 200.012107 
L 245.284627 207.174705 
L 245.39259 195.178585 
L 245.500554 202.241427 
L 245.608528 222.784042 
L 245.716492 209.958876 
L 245.824455 217.476804 
L 245.932419 210.350296 
L 246.040394 238.05075 
L 246.148357 237.154023 
L 246.256321 264.253701 
L 246.364284 252.223314 
L 246.472248 262.219966 
L 246.79615 224.061632 
L 246.904113 221.623193 
L 247.012088 210.59383 
L 247.120051 223.312514 
L 247.228015 208.38434 
L 247.65988 260.750797 
L 247.875807 225.233171 
L 247.983782 216.493288 
L 248.199709 189.297727 
L 248.739538 245.397419 
L 248.955476 214.559404 
L 249.06344 214.148088 
L 249.171403 219.494974 
L 249.279367 210.95872 
L 249.38733 174.076789 
L 249.711232 224.881982 
L 249.819196 213.04112 
L 249.927159 229.13371 
L 250.035134 203.020418 
L 250.143097 217.261506 
L 250.251061 191.550954 
L 250.466999 226.729628 
L 250.574963 193.423225 
L 250.898863 216.338073 
L 251.006827 225.070768 
L 251.11479 217.820804 
L 251.330717 231.833412 
L 251.438692 227.607451 
L 251.762583 233.179782 
L 251.978521 223.351625 
L 252.086484 242.680083 
L 252.194448 234.761062 
L 252.410386 205.380703 
L 252.51835 215.902975 
L 252.626313 240.394579 
L 252.734277 213.978267 
L 252.84224 246.465464 
L 252.950215 213.720679 
L 253.058178 220.01408 
L 253.166142 213.497904 
L 253.490044 243.155635 
L 253.598007 236.387487 
L 253.705971 214.144998 
L 253.921909 250.225668 
L 254.137836 229.607939 
L 254.2458 256.061416 
L 254.353763 243.409199 
L 254.461738 249.55689 
L 254.677665 219.04189 
L 254.785629 220.537737 
L 254.893592 231.983499 
L 255.001567 228.680703 
L 255.10953 209.821077 
L 255.325458 241.120135 
L 255.433432 229.887596 
L 255.541396 236.150987 
L 255.649359 231.944474 
L 255.757323 236.383667 
L 255.973261 224.844696 
L 256.081224 237.854398 
L 256.297152 225.83886 
L 256.51309 211.579542 
L 256.621053 180.091845 
L 256.836981 196.493281 
L 257.160882 237.831994 
L 257.268846 236.316849 
L 257.376809 221.035492 
L 257.484784 229.611101 
L 257.592747 199.765381 
L 257.808675 231.144959 
L 257.916638 234.670321 
L 258.024613 189.297335 
L 258.24054 236.367905 
L 258.564442 215.843109 
L 258.672405 238.162702 
L 258.780369 209.54865 
L 258.888332 212.635818 
L 258.996307 229.452872 
L 259.10427 202.604639 
L 259.212234 219.435165 
L 259.320198 198.248606 
L 259.428161 229.154647 
L 259.536136 207.197631 
L 259.752063 217.73974 
L 259.860027 246.407112 
L 260.075965 203.360713 
L 260.183928 214.320626 
L 260.399855 200.404652 
L 260.615793 210.600973 
L 260.723757 191.32297 
L 260.939684 243.770392 
L 261.155622 203.150681 
L 261.263586 214.653027 
L 261.479513 181.831467 
L 261.695451 227.136259 
L 261.911378 202.241601 
L 262.019342 204.534709 
L 262.127316 195.376469 
L 262.343244 213.437105 
L 262.451207 216.222054 
L 262.667145 264.060471 
L 262.775109 259.43635 
L 262.991036 271.953146 
L 263.099 269.293546 
L 263.20697 248.169392 
L 263.314934 260.775021 
L 263.422897 250.440026 
L 263.530861 260.817349 
L 263.854763 221.626091 
L 263.962726 204.463096 
L 264.07069 265.518569 
L 264.178653 229.727097 
L 264.286628 243.996944 
L 264.394591 233.410294 
L 264.502555 249.542264 
L 264.610519 248.114102 
L 264.718482 242.957759 
L 264.826457 251.997194 
L 264.93442 245.42183 
L 265.042384 225.314011 
L 265.258311 256.145157 
L 265.366286 220.262138 
L 265.582213 233.125725 
L 265.690176 233.55142 
L 265.79814 243.032296 
L 266.014078 227.45556 
L 266.122042 248.908155 
L 266.230005 228.583752 
L 266.33798 244.483509 
L 266.445943 224.75801 
L 266.661871 240.810123 
L 266.769834 203.630661 
L 266.985772 218.391602 
L 267.093736 215.50613 
L 267.201699 222.288286 
L 267.309663 190.244017 
L 267.525601 234.427686 
L 267.741528 204.845381 
L 267.849492 217.64098 
L 267.957466 215.434668 
L 268.06543 191.706227 
L 268.173394 215.895181 
L 268.281357 206.904919 
L 268.497295 239.343661 
L 268.605259 222.762714 
L 268.713222 226.22997 
L 268.821186 199.945134 
L 269.037124 234.512833 
L 269.145088 189.371305 
L 269.253051 190.973745 
L 269.361015 187.046739 
L 269.468979 188.818727 
L 269.79288 228.534001 
L 270.116771 180.168982 
L 270.224745 184.96734 
L 270.332709 202.90068 
L 270.548636 184.809477 
L 270.6566 197.160857 
L 270.764574 237.100624 
L 270.980502 229.782233 
L 271.088465 234.167766 
L 271.196429 232.353362 
L 271.304403 249.527654 
L 271.412367 204.515534 
L 271.736258 248.579217 
L 271.844232 212.139429 
L 271.952196 219.476939 
L 272.060159 218.992456 
L 272.276087 245.285728 
L 272.492025 226.863393 
L 272.599988 246.523923 
L 272.815915 229.406204 
L 272.92389 235.304322 
L 273.031853 235.020869 
L 273.139817 235.595073 
L 273.355744 240.770082 
L 273.463719 224.41399 
L 273.571682 189.016189 
L 273.679646 220.137823 
L 273.78761 210.25643 
L 273.895573 225.799028 
L 274.003548 224.121713 
L 274.111511 230.54945 
L 274.219475 222.963945 
L 274.327438 227.903167 
L 274.435402 218.033056 
L 274.543376 220.269727 
L 274.65134 211.344461 
L 274.759304 214.193121 
L 274.867267 212.239508 
L 274.975231 186.029051 
L 275.191169 215.614014 
L 275.299133 187.395789 
L 275.407096 241.015699 
L 275.515057 219.749079 
L 275.730995 249.164623 
L 275.838959 221.195921 
L 275.946922 223.784851 
L 276.054886 230.888888 
L 276.16285 223.797363 
L 276.270824 258.139562 
L 276.378788 248.588796 
L 276.486751 216.063607 
L 276.702678 250.858385 
L 276.918616 220.970123 
L 277.02658 257.550247 
L 277.134544 253.939236 
L 277.350471 215.651379 
L 277.458445 264.78029 
L 277.566409 258.491893 
L 277.674373 261.600219 
L 277.782336 249.624557 
L 277.8903 261.943123 
L 277.998274 251.742355 
L 278.214201 257.868476 
L 278.75403 223.940008 
L 278.861994 204.013251 
L 279.077921 222.570575 
L 279.185896 232.361856 
L 279.293859 222.221722 
L 279.401823 240.081599 
L 279.509786 228.004871 
L 279.61775 230.931821 
L 279.725724 269.238586 
L 279.941652 223.818569 
L 280.049615 239.864179 
L 280.265553 222.13696 
L 280.373517 213.957787 
L 280.481481 194.769631 
L 280.589444 222.301243 
L 280.697408 216.060732 
L 280.913346 228.916601 
L 281.021309 227.360686 
L 281.129273 204.476984 
L 281.237237 205.577535 
L 281.3452 211.008598 
L 281.453175 237.414099 
L 281.669102 226.692327 
L 281.777065 226.407824 
L 281.885029 229.659368 
L 282.100967 215.932577 
L 282.208931 180.931438 
L 282.424858 216.473665 
L 282.640796 180.156239 
L 282.856723 225.236451 
L 282.964687 201.528868 
L 283.180625 204.718299 
L 283.288588 210.922662 
L 283.396552 203.208412 
L 283.612479 214.129772 
L 283.720454 213.935582 
L 284.044345 173.265733 
L 284.152308 179.089879 
L 284.368246 211.767543 
L 284.47621 209.479024 
L 284.692137 177.333695 
L 284.800101 173.756076 
L 285.124002 190.503026 
L 285.33993 221.807957 
L 285.447893 214.159583 
L 285.663831 180.844071 
L 285.771795 166.719872 
L 285.987722 185.961897 
L 286.095696 185.440832 
L 286.20366 175.508823 
L 286.311624 191.639957 
L 286.527551 158.061208 
L 286.635515 156.429866 
L 286.851453 194.261236 
L 287.06738 172.062681 
L 287.283318 159.488623 
L 287.499245 185.896918 
L 287.715175 141.993246 
L 287.823139 129.227305 
L 287.931113 132.986331 
L 288.255004 164.231963 
L 288.470942 129.131345 
L 288.578906 165.452513 
L 288.794833 143.589253 
L 288.902796 153.929148 
L 289.118734 144.047216 
L 289.226698 146.09454 
L 289.442625 187.387675 
L 289.658552 161.305779 
L 289.766527 163.582208 
L 289.982454 189.239497 
L 290.090418 180.393307 
L 290.198381 181.221624 
L 290.306356 175.564925 
L 290.414319 183.681082 
L 290.522283 180.241656 
L 290.630247 190.446778 
L 290.846174 138.240369 
L 290.954148 151.208185 
L 291.170075 139.705736 
L 291.278039 153.026664 
L 291.386003 126.883563 
L 291.493966 162.836899 
L 291.601941 161.999553 
L 291.817868 158.289544 
L 291.925832 148.532217 
L 292.033795 154.003364 
L 292.14177 148.258883 
L 292.249733 151.482232 
L 292.357697 139.799115 
L 292.46566 140.923258 
L 292.681588 130.73625 
L 292.897526 162.192465 
L 293.005489 153.96375 
L 293.113453 130.589288 
L 293.221416 132.454045 
L 293.32938 153.607979 
L 293.545318 119.490174 
L 293.869209 152.460989 
L 294.085147 123.710102 
L 294.301074 137.856994 
L 294.517001 130.84474 
L 294.624976 123.506637 
L 294.948867 134.801187 
L 295.05683 137.152036 
L 295.164794 136.582762 
L 295.380732 131.231745 
L 295.596659 178.913639 
L 295.812586 150.880642 
L 296.028524 140.714044 
L 296.136488 149.694606 
L 296.352415 98.256079 
L 296.676317 146.139749 
L 296.892244 118.743918 
L 297.000208 145.514071 
L 297.216146 138.704518 
L 297.324109 144.04599 
L 297.540037 128.335771 
L 297.648 146.817807 
L 297.755975 145.664483 
L 297.863938 134.375247 
L 297.971902 147.149933 
L 298.187829 118.866014 
L 298.511731 170.676462 
L 298.619694 135.817654 
L 298.835622 147.133563 
L 298.943585 117.179676 
L 299.05156 145.76628 
L 299.159523 135.062093 
L 299.37545 144.545841 
L 299.483414 114.567156 
L 299.591378 117.442059 
L 299.699352 95.456011 
L 299.915279 131.640126 
L 300.239185 88.493022 
L 300.455123 105.855896 
L 300.563087 89.266003 
L 300.779014 143.155865 
L 300.886978 110.002864 
L 300.994952 122.675693 
L 301.210879 113.558945 
L 301.318843 111.607439 
L 301.53477 94.270885 
L 301.642745 58.664432 
L 301.750708 74.969541 
L 301.966635 113.517353 
L 302.074599 105.632376 
L 302.182563 86.780405 
L 302.290537 136.240056 
L 302.506464 80.577126 
L 302.614428 102.988808 
L 302.722391 90.656545 
L 302.830355 106.373228 
L 303.046293 95.301 
L 303.154257 118.652601 
L 303.26222 93.506115 
L 303.370184 103.379245 
L 303.478148 100.652526 
L 303.694086 53.568 
L 303.910013 84.766641 
L 304.017976 89.450058 
L 304.12594 81.538307 
L 304.233914 92.19513 
L 304.557805 63.057051 
L 304.773733 84.822455 
L 304.881707 87.069174 
L 304.989671 105.152708 
L 305.205598 91.205617 
L 305.313561 101.04992 
L 305.421525 88.64475 
L 305.529499 99.034154 
L 305.637463 82.913478 
L 305.745427 99.886795 
L 305.85339 89.730773 
L 305.961354 94.536322 
L 306.069317 109.997673 
L 306.177292 99.532337 
L 306.285256 114.800794 
L 306.393219 146.080492 
L 306.501183 145.029853 
L 306.609146 163.668702 
L 306.933048 112.107565 
L 307.041012 119.573754 
L 307.148975 110.448609 
L 307.256939 129.570326 
L 307.58084 111.086193 
L 307.688804 110.640638 
L 307.904731 147.624772 
L 308.012695 148.619419 
L 308.120659 162.524068 
L 308.336597 124.807646 
L 308.552524 158.58861 
L 308.768451 146.568305 
L 308.984389 154.131673 
L 309.092353 124.334584 
L 309.200316 151.34775 
L 309.30828 147.814718 
L 309.416243 135.808797 
L 309.524207 157.02718 
L 309.632182 153.041473 
L 309.740145 142.612957 
L 309.848109 147.5031 
L 310.064036 175.356126 
L 310.172 163.034449 
L 310.279974 174.476273 
L 310.387938 159.513403 
L 310.711828 193.888748 
L 310.819792 177.586139 
L 310.927767 220.08277 
L 311.03573 184.697951 
L 311.143694 188.610107 
L 311.251657 182.207358 
L 311.359621 205.921586 
L 311.467585 189.645624 
L 311.575559 222.611758 
L 311.791486 176.984612 
L 311.89945 186.268979 
L 312.115377 156.78 
L 312.223322 175.058326 
L 312.331297 139.415227 
L 312.43926 153.697197 
L 312.655187 141.044889 
L 312.763151 142.384789 
L 312.979089 170.497297 
L 313.087053 156.148339 
L 313.195016 183.819858 
L 313.30298 167.959399 
L 313.410943 173.328826 
L 313.518907 161.134131 
L 313.626871 165.541459 
L 313.734845 190.011338 
L 313.842809 170.876392 
L 313.950772 172.310564 
L 314.1667 190.666749 
L 314.274663 177.521306 
L 314.490601 205.998373 
L 314.598565 206.995559 
L 314.706528 168.23759 
L 314.814492 171.352712 
L 314.922456 204.17561 
L 315.138394 179.696931 
L 315.354321 191.617578 
L 315.462285 182.068043 
L 315.570248 205.585913 
L 315.678212 187.611554 
L 315.786186 213.413153 
L 315.89415 209.44135 
L 316.110077 182.445219 
L 316.326004 200.514779 
L 316.433968 182.65903 
L 316.541942 187.101465 
L 316.649906 184.052105 
L 316.75787 172.154297 
L 316.973797 198.093709 
L 317.08176 212.12756 
L 317.189735 200.923338 
L 317.297698 207.328955 
L 317.513626 185.913564 
L 317.621589 190.74926 
L 317.837516 217.500917 
L 317.945491 205.370917 
L 318.053454 211.425009 
L 318.161418 226.018952 
L 318.269382 209.445564 
L 318.377345 218.07192 
L 318.485309 202.010279 
L 318.593273 203.765007 
L 319.025138 242.359727 
L 319.241065 222.186285 
L 319.349039 226.374298 
L 319.457003 252.75481 
L 319.67293 215.160508 
L 319.780894 244.157775 
L 319.888857 238.633425 
L 319.996821 215.935991 
L 320.212759 247.605375 
L 320.428686 212.704625 
L 320.53665 225.169865 
L 320.644614 224.308067 
L 320.752577 209.171769 
L 320.968515 217.884636 
L 321.076479 216.440092 
L 321.184442 192.073981 
L 321.292406 208.174231 
L 321.40037 206.027002 
L 321.508344 193.68517 
L 321.616308 216.321193 
L 321.832235 185.188471 
L 321.940199 188.201563 
L 322.048162 195.75929 
L 322.156126 215.608798 
L 322.2641 198.849492 
L 322.372064 206.309748 
L 322.480027 226.63524 
L 322.587991 220.08756 
L 322.695955 235.971733 
L 322.911882 202.595359 
L 323.019856 213.829187 
L 323.12782 241.756105 
L 323.235784 235.002456 
L 323.343747 235.953033 
L 323.451711 272.867303 
L 323.667638 211.084564 
L 323.883576 229.257587 
L 323.99154 203.967989 
L 324.099503 206.726561 
L 324.207467 242.75238 
L 324.31543 240.882861 
L 324.423394 234.052104 
L 324.531371 236.842549 
L 324.639334 225.891257 
L 324.855262 195.383902 
L 324.963225 226.327385 
L 325.071189 208.024911 
L 325.179152 216.9116 
L 325.287127 248.68358 
L 325.39509 241.14505 
L 325.611018 198.708384 
L 325.826945 211.891779 
L 326.042883 224.303629 
L 326.25881 205.642406 
L 326.366774 221.049633 
L 326.474737 197.249393 
L 326.582701 216.699327 
L 326.690665 206.100632 
L 326.798639 181.709928 
L 326.906603 193.999331 
L 327.12253 186.699946 
L 327.230493 192.915849 
L 327.338457 207.684587 
L 327.446421 199.332134 
L 327.662359 223.248986 
L 327.878286 198.016887 
L 327.98625 184.718868 
L 328.202188 227.882042 
L 328.418115 202.127184 
L 328.526078 196.479928 
L 328.742006 213.961095 
L 328.849969 230.417006 
L 329.173871 199.596882 
L 329.281835 205.129978 
L 329.389798 253.679621 
L 329.497762 252.675615 
L 329.605725 220.345103 
L 329.821663 234.789895 
L 330.037591 226.761841 
L 330.145554 244.678666 
L 330.253518 231.930806 
L 330.361481 236.606608 
L 330.469445 220.700609 
L 330.577419 230.761811 
L 330.685383 220.151988 
L 330.793347 232.331715 
L 330.90131 223.366835 
L 331.009274 229.452661 
L 331.117238 216.676547 
L 331.225201 227.18709 
L 331.441139 203.080588 
L 331.549103 210.253789 
L 331.872994 170.987154 
L 332.088932 234.068348 
L 332.196895 223.398063 
L 332.304859 200.684694 
L 332.412823 225.145107 
L 332.62875 216.174432 
L 332.736713 224.717647 
L 332.952651 210.763208 
L 333.060615 180.643125 
L 333.384506 251.392458 
L 333.492469 242.788081 
L 333.708407 178.740404 
L 334.032298 217.707839 
L 334.248226 174.849251 
L 334.464164 200.494534 
L 334.572127 198.515358 
L 335.003982 150.545312 
L 335.21992 240.681348 
L 335.435847 187.446873 
L 335.651774 165.364114 
L 335.759738 199.838959 
L 335.867701 197.156832 
L 336.083639 218.262631 
L 336.191603 195.117532 
L 336.299567 205.277891 
L 336.40753 192.722997 
L 336.515494 157.618111 
L 336.623457 161.769721 
L 336.731421 196.47744 
L 336.839391 192.378628 
L 337.055319 215.216766 
L 337.163282 218.127391 
L 337.271246 189.492309 
L 337.379209 219.048194 
L 337.487173 216.285287 
L 337.595137 199.005887 
L 337.703111 212.115205 
L 338.027002 175.200233 
L 338.134965 159.475146 
L 338.242929 203.322505 
L 338.350893 180.838203 
L 338.458867 186.853426 
L 338.674794 215.329012 
L 338.782758 209.815575 
L 338.890722 220.364169 
L 338.998685 217.686183 
L 339.106649 226.886086 
L 339.322587 214.592377 
L 339.43055 215.144684 
L 339.538514 192.79463 
L 339.754441 226.938152 
L 339.862405 225.882825 
L 339.970368 228.331967 
L 340.186307 222.502117 
L 340.29427 225.788816 
L 340.402234 233.692162 
L 340.510197 217.935968 
L 340.618161 222.82978 
L 340.726125 208.492978 
L 340.834088 218.492865 
L 341.050026 183.688245 
L 341.15799 209.412018 
L 341.265953 178.73406 
L 341.373917 212.350764 
L 341.589844 184.003235 
L 341.805782 233.933904 
L 341.913746 229.608197 
L 342.02171 200.424183 
L 342.237637 222.034373 
L 342.3456 185.736481 
L 342.453564 201.706777 
L 342.561528 179.054697 
L 342.669502 223.385964 
L 342.777466 212.924163 
L 342.885429 191.144514 
L 342.993393 222.724428 
L 343.101356 212.760432 
L 343.317284 254.823274 
L 343.425258 247.170617 
L 343.749149 174.649299 
L 343.857113 207.369157 
L 343.965076 193.648875 
L 344.07304 198.634581 
L 344.181003 227.647832 
L 344.288978 192.269652 
L 344.396941 216.995666 
L 344.504905 196.310807 
L 344.612869 234.79435 
L 344.720832 221.785158 
L 344.828796 224.987366 
L 344.936759 223.44739 
L 345.044723 219.800469 
L 345.152698 203.795865 
L 345.260661 224.800618 
L 345.476588 201.739571 
L 345.584552 176.051959 
L 345.908443 215.034339 
L 346.124381 175.163427 
L 346.340308 195.412074 
L 346.448272 211.49549 
L 346.556235 199.799298 
L 346.664199 163.390252 
L 346.772162 198.697366 
L 346.880137 197.690036 
L 346.988101 196.355169 
L 347.096064 211.912309 
L 347.204028 190.359825 
L 347.311991 198.364172 
L 347.419955 184.968495 
L 347.527919 194.092914 
L 347.743857 222.565087 
L 347.85182 215.191442 
L 347.959784 192.370364 
L 348.283675 218.644263 
L 348.391638 214.809346 
L 348.499602 216.768161 
L 348.71554 177.218996 
L 348.823504 214.766413 
L 348.931467 210.063224 
L 349.039443 218.652109 
L 349.147407 191.217902 
L 349.363334 221.173544 
L 349.579272 200.34295 
L 349.795199 214.814534 
L 350.11909 190.388875 
L 350.227054 233.918919 
L 350.335028 196.383853 
L 350.442992 211.801795 
L 350.550955 181.949961 
L 350.658919 182.512916 
L 350.766882 222.181306 
L 350.874846 187.904286 
L 350.98281 194.94733 
L 351.090773 194.178599 
L 351.414675 185.633137 
L 351.522638 196.57721 
L 351.630602 176.660455 
L 351.738566 187.672675 
L 351.954493 171.753826 
L 352.170431 195.436878 
L 352.278395 177.17446 
L 352.386358 190.806906 
L 352.494322 180.020074 
L 352.602285 183.826544 
L 352.710249 176.758445 
L 352.818213 182.596946 
L 352.926176 167.582022 
L 353.034151 181.228453 
L 353.142114 210.242376 
L 353.250078 201.526091 
L 353.466005 176.541227 
L 353.573969 203.66153 
L 353.681932 189.36058 
L 353.789896 205.533341 
L 353.89786 196.412127 
L 354.005834 197.259055 
L 354.329725 171.495207 
L 354.437688 172.216894 
L 354.545652 201.216401 
L 354.653616 197.859783 
L 354.869554 165.683348 
L 354.977517 162.615087 
L 355.085481 165.969092 
L 355.193445 140.288511 
L 355.301408 181.853147 
L 355.409372 177.269396 
L 355.517335 184.910306 
L 355.625299 208.797039 
L 355.733263 207.139434 
L 355.841237 196.425579 
L 355.949201 199.482998 
L 356.273091 166.788375 
L 356.489019 218.24223 
L 356.596982 206.02162 
L 356.704957 214.242176 
L 357.028848 180.162771 
L 357.352738 249.308342 
L 357.460702 230.812285 
L 357.568666 237.907322 
L 357.784604 199.381313 
L 357.892567 219.080772 
L 358.000531 216.973545 
L 358.108494 236.364734 
L 358.216458 209.832698 
L 358.324422 232.121548 
L 358.540349 210.157927 
L 358.648323 222.069571 
L 358.864251 187.547797 
L 359.188141 225.346284 
L 359.296105 222.455634 
L 359.404069 249.78333 
L 359.512032 247.775731 
L 359.620007 227.748626 
L 359.72797 252.328016 
L 359.835934 241.559839 
L 360.051861 206.861576 
L 360.159825 230.835171 
L 360.267788 226.969695 
L 360.483716 204.996602 
L 360.59169 195.084289 
L 360.699654 220.881299 
L 360.807617 210.604135 
L 360.915581 249.04963 
L 361.023544 248.650676 
L 361.131508 262.413866 
L 361.34743 199.046491 
L 361.455405 184.42791 
L 361.779296 232.954635 
L 361.887259 221.153235 
L 361.995223 221.852976 
L 362.103186 217.702312 
L 362.21115 192.688236 
L 362.427088 250.492947 
L 362.535052 233.326573 
L 362.643015 236.424329 
L 362.750979 250.555561 
L 362.858942 222.746325 
L 362.966906 239.572574 
L 363.07487 225.094609 
L 363.182833 245.234503 
L 363.290797 208.761535 
L 363.398771 209.448822 
L 363.614699 219.776177 
L 363.830626 257.470435 
L 364.154517 230.79709 
L 364.370444 257.98067 
L 364.478418 253.083338 
L 364.586382 253.660043 
L 364.802309 257.805 
L 364.910273 254.492032 
L 365.018236 266.355517 
L 365.1262 295.488 
L 365.234163 246.211916 
L 365.342127 281.599552 
L 365.558065 245.529788 
L 365.773992 274.064859 
L 365.881956 261.8704 
L 365.98992 262.040611 
L 366.097883 257.074482 
L 366.205847 265.566216 
L 366.31381 257.882439 
L 366.529748 217.291179 
L 366.637712 234.873068 
L 366.745676 203.803278 
L 366.853639 236.213132 
L 366.961603 208.717618 
L 367.069566 221.470312 
L 367.285494 177.053685 
L 367.501432 235.653321 
L 367.609395 237.874449 
L 367.717359 243.626133 
L 367.933286 225.647926 
L 368.04125 219.605327 
L 368.149213 184.619938 
L 368.365151 226.06748 
L 368.473115 225.129868 
L 368.689042 254.531303 
L 368.90497 226.587124 
L 369.012933 215.084963 
L 369.22886 266.445045 
L 369.444798 217.532639 
L 369.552762 231.700144 
L 369.660726 260.563798 
L 369.768689 258.634701 
L 369.876653 243.172521 
L 370.09258 244.837097 
L 370.308507 219.782616 
L 370.416482 217.621053 
L 370.524445 211.348936 
L 370.632409 217.390657 
L 370.740373 238.222982 
L 370.848336 214.522556 
L 370.9563 246.171369 
L 371.064263 242.071294 
L 371.280191 247.900637 
L 371.388154 218.34526 
L 371.496129 223.312042 
L 371.604092 218.599832 
L 371.712056 221.139385 
L 371.820019 244.328807 
L 371.927983 225.031521 
L 372.035947 238.580893 
L 372.14391 238.257185 
L 372.359837 194.35354 
L 372.467801 201.468722 
L 372.575776 220.457318 
L 372.683739 195.341681 
L 372.791703 235.907984 
L 373.00763 220.454286 
L 373.331521 250.120495 
L 373.439484 284.821886 
L 373.655421 263.791065 
L 373.763384 258.459361 
L 373.871348 227.193504 
L 373.979311 247.888031 
L 374.087275 229.903503 
L 374.195239 267.349177 
L 374.303202 235.124191 
L 374.411166 236.216145 
L 374.519129 262.172437 
L 374.627104 229.36853 
L 374.735068 235.566731 
L 374.843031 224.688148 
L 374.950995 231.7927 
L 375.058958 254.721219 
L 375.166922 247.867347 
L 375.382849 230.42643 
L 375.490813 221.581361 
L 375.598776 249.936621 
L 375.706751 234.260052 
L 375.814714 236.635653 
L 375.922678 221.979626 
L 376.030642 252.064536 
L 376.138605 231.18831 
L 376.246569 235.402842 
L 376.354533 259.77207 
L 376.462496 257.605576 
L 376.57046 220.773731 
L 376.678423 223.93367 
L 376.786398 232.208904 
L 376.894361 231.368108 
L 377.002325 215.039059 
L 377.110289 249.065849 
L 377.218252 213.026323 
L 377.434179 251.875429 
L 377.542143 214.146642 
L 377.650107 275.941648 
L 377.75807 258.006805 
L 377.866045 264.380701 
L 377.974008 255.305258 
L 378.081972 256.503104 
L 378.297899 223.220066 
L 378.513826 271.632117 
L 378.729754 255.49976 
L 378.837717 204.140091 
L 378.945692 208.003298 
L 379.053655 237.330874 
L 379.161619 231.561693 
L 379.269582 240.229166 
L 379.377546 236.515937 
L 379.593473 264.091318 
L 379.701437 258.783547 
L 379.8094 259.779275 
L 379.917364 236.712452 
L 380.133302 276.245358 
L 380.241266 242.505398 
L 380.349229 261.058801 
L 380.457193 256.546702 
L 380.67312 222.044832 
L 380.781084 244.850715 
L 380.889047 232.7814 
L 380.997011 242.70987 
L 381.212949 227.58435 
L 381.320913 252.66393 
L 381.428876 228.723785 
L 381.53684 251.097513 
L 381.644803 226.534279 
L 381.752767 250.435385 
L 381.860731 211.858983 
L 381.968694 241.384178 
L 382.076658 227.621347 
L 382.184622 276.333044 
L 382.40056 223.859247 
L 382.508523 222.548894 
L 382.616487 227.76739 
L 382.72445 224.179222 
L 382.832414 232.955445 
L 382.940378 199.459066 
L 383.048341 222.666144 
L 383.264268 194.095674 
L 383.58817 244.508029 
L 383.696134 228.890834 
L 383.912061 280.501422 
L 384.020025 213.265465 
L 384.127988 240.404958 
L 384.343915 228.643694 
L 384.451879 258.174334 
L 384.667817 254.440376 
L 384.991708 283.37724 
L 385.207635 236.233946 
L 385.531526 218.993417 
L 385.63949 209.290196 
L 385.747453 214.576505 
L 385.855432 239.088335 
L 386.071359 201.232964 
L 386.287287 231.676429 
L 386.39525 237.587278 
L 386.503214 201.367492 
L 386.611177 206.310303 
L 386.719141 232.894601 
L 386.827105 215.957719 
L 386.935068 217.676951 
L 387.043043 234.821648 
L 387.25897 211.129938 
L 387.366933 219.1758 
L 387.474897 217.335188 
L 387.582861 208.736734 
L 387.690824 226.423218 
L 387.906752 206.105981 
L 388.014715 244.532987 
L 388.230653 221.854971 
L 388.338617 227.707048 
L 388.44658 225.764729 
L 388.662508 232.228904 
L 388.770471 252.205786 
L 388.878435 251.070241 
L 389.094362 268.653937 
L 389.202326 232.081791 
L 389.310289 250.549255 
L 389.418264 228.462779 
L 389.526227 259.882383 
L 389.742155 253.284879 
L 390.174009 186.010941 
L 390.281973 210.015124 
L 390.389936 199.462156 
L 390.605863 223.538909 
L 390.821801 256.772755 
L 390.929765 257.652874 
L 391.037729 249.788428 
L 391.145692 233.275236 
L 391.253656 241.150809 
L 391.36162 258.530426 
L 391.469583 224.173761 
L 391.793474 228.161328 
L 392.009412 242.407181 
L 392.117376 267.26922 
L 392.225339 261.206465 
L 392.441266 235.527085 
L 392.54923 237.804067 
L 392.765157 227.234379 
L 392.981084 263.766865 
L 393.089048 255.108261 
L 393.304986 248.417222 
L 393.41295 231.02534 
L 393.520913 243.418092 
L 393.628877 241.624514 
L 393.844804 275.505413 
L 393.952768 272.642168 
L 394.168695 209.151671 
L 394.384622 246.017506 
L 394.492597 251.172987 
L 394.60056 266.825468 
L 394.708524 246.022201 
L 394.816487 257.50574 
L 395.032415 235.643016 
L 395.248342 259.562973 
L 395.356306 234.066357 
L 395.680196 263.113122 
L 395.788171 263.883885 
L 395.896134 249.820041 
L 396.004098 263.650828 
L 396.220025 225.685787 
L 396.327989 223.606602 
L 396.543916 252.358179 
L 396.65188 212.39489 
L 396.867807 233.030503 
L 396.975771 266.928708 
L 397.083745 251.581961 
L 397.191709 262.205373 
L 397.515599 244.417747 
L 397.623563 253.788159 
L 397.731527 236.726907 
L 397.947454 268.67706 
L 398.163371 283.95534 
L 398.271335 280.846068 
L 398.379309 282.130093 
L 398.487273 279.53247 
L 398.487273 279.53247 
" clip-path="url(#p948a4e1f33)" style="fill: none; stroke: #1f77b4; stroke-width: 1.5; stroke-linecap: square"/>
   </g>
   <g id="patch_3">
    <path d="M 57.6 307.584 
L 57.6 41.472 
" style="fill: none; stroke: #000000; stroke-width: 0.8; stroke-linejoin: miter; stroke-linecap: square"/>
   </g>
   <g id="patch_4">
    <path d="M 414.72 307.584 
L 414.72 41.472 
" style="fill: none; stroke: #000000; stroke-width: 0.8; stroke-linejoin: miter; stroke-linecap: square"/>
   </g>
   <g id="patch_5">
    <path d="M 57.6 307.584 
L 414.72 307.584 
" style="fill: none; stroke: #000000; stroke-width: 0.8; stroke-linejoin: miter; stroke-linecap: square"/>
   </g>
   <g id="patch_6">
    <path d="M 57.6 41.472 
L 414.72 41.472 
" style="fill: none; stroke: #000000; stroke-width: 0.8; stroke-linejoin: miter; stroke-linecap: square"/>
   </g>
   <g id="text_17">
    <!-- Thorb-Nidarosdomen-vinkel -->
    <g transform="translate(153.34875 35.472) scale(0.12 -0.12)">
     <defs>
      <path id="DejaVuSans-54" d="M -19 4666 
L 3928 4666 
L 3928 4134 
L 2272 4134 
L 2272 0 
L 1638 0 
L 1638 4134 
L -19 4134 
L -19 4666 
z
" transform="scale(0.015625)"/>
      <path id="DejaVuSans-68" d="M 3513 2113 
L 3513 0 
L 2938 0 
L 2938 2094 
Q 2938 2591 2744 2837 
Q 2550 3084 2163 3084 
Q 1697 3084 1428 2787 
Q 1159 2491 1159 1978 
L 1159 0 
L 581 0 
L 581 4863 
L 1159 4863 
L 1159 2956 
Q 1366 3272 1645 3428 
Q 1925 3584 2291 3584 
Q 2894 3584 3203 3211 
Q 3513 2838 3513 2113 
z
" transform="scale(0.015625)"/>
      <path id="DejaVuSans-6f" d="M 1959 3097 
Q 1497 3097 1228 2736 
Q 959 2375 959 1747 
Q 959 1119 1226 758 
Q 1494 397 1959 397 
Q 2419 397 2687 759 
Q 2956 1122 2956 1747 
Q 2956 2369 2687 2733 
Q 2419 3097 1959 3097 
z
M 1959 3584 
Q 2709 3584 3137 3096 
Q 3566 2609 3566 1747 
Q 3566 888 3137 398 
Q 2709 -91 1959 -91 
Q 1206 -91 779 398 
Q 353 888 353 1747 
Q 353 2609 779 3096 
Q 1206 3584 1959 3584 
z
" transform="scale(0.015625)"/>
      <path id="DejaVuSans-72" d="M 2631 2963 
Q 2534 3019 2420 3045 
Q 2306 3072 2169 3072 
Q 1681 3072 1420 2755 
Q 1159 2438 1159 1844 
L 1159 0 
L 581 0 
L 581 3500 
L 1159 3500 
L 1159 2956 
Q 1341 3275 1631 3429 
Q 1922 3584 2338 3584 
Q 2397 3584 2469 3576 
Q 2541 3569 2628 3553 
L 2631 2963 
z
" transform="scale(0.015625)"/>
      <path id="DejaVuSans-62" d="M 3116 1747 
Q 3116 2381 2855 2742 
Q 2594 3103 2138 3103 
Q 1681 3103 1420 2742 
Q 1159 2381 1159 1747 
Q 1159 1113 1420 752 
Q 1681 391 2138 391 
Q 2594 391 2855 752 
Q 3116 1113 3116 1747 
z
M 1159 2969 
Q 1341 3281 1617 3432 
Q 1894 3584 2278 3584 
Q 2916 3584 3314 3078 
Q 3713 2572 3713 1747 
Q 3713 922 3314 415 
Q 2916 -91 2278 -91 
Q 1894 -91 1617 61 
Q 1341 213 1159 525 
L 1159 0 
L 581 0 
L 581 4863 
L 1159 4863 
L 1159 2969 
z
" transform="scale(0.015625)"/>
      <path id="DejaVuSans-2d" d="M 313 2009 
L 1997 2009 
L 1997 1497 
L 313 1497 
L 313 2009 
z
" transform="scale(0.015625)"/>
      <path id="DejaVuSans-4e" d="M 628 4666 
L 1478 4666 
L 3547 763 
L 3547 4666 
L 4159 4666 
L 4159 0 
L 3309 0 
L 1241 3903 
L 1241 0 
L 628 0 
L 628 4666 
z
" transform="scale(0.015625)"/>
      <path id="DejaVuSans-61" d="M 2194 1759 
Q 1497 1759 1228 1600 
Q 959 1441 959 1056 
Q 959 750 1161 570 
Q 1363 391 1709 391 
Q 2188 391 2477 730 
Q 2766 1069 2766 1631 
L 2766 1759 
L 2194 1759 
z
M 3341 1997 
L 3341 0 
L 2766 0 
L 2766 531 
Q 2569 213 2275 61 
Q 1981 -91 1556 -91 
Q 1019 -91 701 211 
Q 384 513 384 1019 
Q 384 1609 779 1909 
Q 1175 2209 1959 2209 
L 2766 2209 
L 2766 2266 
Q 2766 2663 2505 2880 
Q 2244 3097 1772 3097 
Q 1472 3097 1187 3025 
Q 903 2953 641 2809 
L 641 3341 
Q 956 3463 1253 3523 
Q 1550 3584 1831 3584 
Q 2591 3584 2966 3190 
Q 3341 2797 3341 1997 
z
" transform="scale(0.015625)"/>
      <path id="DejaVuSans-6e" d="M 3513 2113 
L 3513 0 
L 2938 0 
L 2938 2094 
Q 2938 2591 2744 2837 
Q 2550 3084 2163 3084 
Q 1697 3084 1428 2787 
Q 1159 2491 1159 1978 
L 1159 0 
L 581 0 
L 581 3500 
L 1159 3500 
L 1159 2956 
Q 1366 3272 1645 3428 
Q 1925 3584 2291 3584 
Q 2894 3584 3203 3211 
Q 3513 2838 3513 2113 
z
" transform="scale(0.015625)"/>
      <path id="DejaVuSans-76" d="M 191 3500 
L 800 3500 
L 1894 563 
L 2988 3500 
L 3597 3500 
L 2284 0 
L 1503 0 
L 191 3500 
z
" transform="scale(0.015625)"/>
      <path id="DejaVuSans-6b" d="M 581 4863 
L 1159 4863 
L 1159 1991 
L 2875 3500 
L 3609 3500 
L 1753 1863 
L 3688 0 
L 2938 0 
L 1159 1709 
L 1159 0 
L 581 0 
L 581 4863 
z
" transform="scale(0.015625)"/>
      <path id="DejaVuSans-6c" d="M 603 4863 
L 1178 4863 
L 1178 0 
L 603 0 
L 603 4863 
z
" transform="scale(0.015625)"/>
     </defs>
     <use xlink:href="#DejaVuSans-54"/>
     <use xlink:href="#DejaVuSans-68" x="61.083984"/>
     <use xlink:href="#DejaVuSans-6f" x="124.462891"/>
     <use xlink:href="#DejaVuSans-72" x="185.644531"/>
     <use xlink:href="#DejaVuSans-62" x="226.757812"/>
     <use xlink:href="#DejaVuSans-2d" x="290.234375"/>
     <use xlink:href="#DejaVuSans-4e" x="326.318359"/>
     <use xlink:href="#DejaVuSans-69" x="401.123047"/>
     <use xlink:href="#DejaVuSans-64" x="428.90625"/>
     <use xlink:href="#DejaVuSans-61" x="492.382812"/>
     <use xlink:href="#DejaVuSans-72" x="553.662109"/>
     <use xlink:href="#DejaVuSans-6f" x="592.525391"/>
     <use xlink:href="#DejaVuSans-73" x="653.707031"/>
     <use xlink:href="#DejaVuSans-64" x="705.806641"/>
     <use xlink:href="#DejaVuSans-6f" x="769.283203"/>
     <use xlink:href="#DejaVuSans-6d" x="830.464844"/>
     <use xlink:href="#DejaVuSans-65" x="927.876953"/>
     <use xlink:href="#DejaVuSans-6e" x="989.400391"/>
     <use xlink:href="#DejaVuSans-2d" x="1052.779297"/>
     <use xlink:href="#DejaVuSans-76" x="1086.238281"/>
     <use xlink:href="#DejaVuSans-69" x="1145.417969"/>
     <use xlink:href="#DejaVuSans-6e" x="1173.201172"/>
     <use xlink:href="#DejaVuSans-6b" x="1236.580078"/>
     <use xlink:href="#DejaVuSans-65" x="1290.865234"/>
     <use xlink:href="#DejaVuSans-6c" x="1352.388672"/>
    </g>
   </g>
   <g id="legend_1">
    <g id="patch_7">
     <path d="M 64.6 64.150125 
L 234.61875 64.150125 
Q 236.61875 64.150125 236.61875 62.150125 
L 236.61875 48.472 
Q 236.61875 46.472 234.61875 46.472 
L 64.6 46.472 
Q 62.6 46.472 62.6 48.472 
L 62.6 62.150125 
Q 62.6 64.150125 64.6 64.150125 
z
" style="fill: #ffffff; opacity: 0.8; stroke: #cccccc; stroke-linejoin: miter"/>
    </g>
    <g id="line2d_16">
     <path d="M 66.6 54.570438 
L 76.6 54.570438 
L 86.6 54.570438 
" style="fill: none; stroke: #1f77b4; stroke-width: 1.5; stroke-linecap: square"/>
    </g>
    <g id="text_18">
     <!-- Thorb-Nidarosdomen-vinkel -->
     <g transform="translate(94.6 58.070438) scale(0.1 -0.1)">
      <use xlink:href="#DejaVuSans-54"/>
      <use xlink:href="#DejaVuSans-68" x="61.083984"/>
      <use xlink:href="#DejaVuSans-6f" x="124.462891"/>
      <use xlink:href="#DejaVuSans-72" x="185.644531"/>
      <use xlink:href="#DejaVuSans-62" x="226.757812"/>
      <use xlink:href="#DejaVuSans-2d" x="290.234375"/>
      <use xlink:href="#DejaVuSans-4e" x="326.318359"/>
      <use xlink:href="#DejaVuSans-69" x="401.123047"/>
      <use xlink:href="#DejaVuSans-64" x="428.90625"/>
      <use xlink:href="#DejaVuSans-61" x="492.382812"/>
      <use xlink:href="#DejaVuSans-72" x="553.662109"/>
      <use xlink:href="#DejaVuSans-6f" x="592.525391"/>
      <use xlink:href="#DejaVuSans-73" x="653.707031"/>
      <use xlink:href="#DejaVuSans-64" x="705.806641"/>
      <use xlink:href="#DejaVuSans-6f" x="769.283203"/>
      <use xlink:href="#DejaVuSans-6d" x="830.464844"/>
      <use xlink:href="#DejaVuSans-65" x="927.876953"/>
      <use xlink:href="#DejaVuSans-6e" x="989.400391"/>
      <use xlink:href="#DejaVuSans-2d" x="1052.779297"/>
      <use xlink:href="#DejaVuSans-76" x="1086.238281"/>
      <use xlink:href="#DejaVuSans-69" x="1145.417969"/>
      <use xlink:href="#DejaVuSans-6e" x="1173.201172"/>
      <use xlink:href="#DejaVuSans-6b" x="1236.580078"/>
      <use xlink:href="#DejaVuSans-65" x="1290.865234"/>
      <use xlink:href="#DejaVuSans-6c" x="1352.388672"/>
     </g>
    </g>
   </g>
  </g>
 </g>
 <defs>
  <clipPath id="p948a4e1f33">
   <rect x="57.6" y="41.472" width="357.12" height="266.112"/>
  </clipPath>
 </defs>
</svg>
