<?xml version="1.0" encoding="utf-8" standalone="no"?>
<!DOCTYPE svg PUBLIC "-//W3C//DTD SVG 1.1//EN"
  "http://www.w3.org/Graphics/SVG/1.1/DTD/svg11.dtd">
<svg xmlns:xlink="http://www.w3.org/1999/xlink" width="460.8pt" height="345.6pt" viewBox="0 0 460.8 345.6" xmlns="http://www.w3.org/2000/svg" version="1.1">
 <metadata>
  <rdf:RDF xmlns:dc="http://purl.org/dc/elements/1.1/" xmlns:cc="http://creativecommons.org/ns#" xmlns:rdf="http://www.w3.org/1999/02/22-rdf-syntax-ns#">
   <cc:Work>
    <dc:type rdf:resource="http://purl.org/dc/dcmitype/StillImage"/>
    <dc:date>2023-04-17T15:21:28.570181</dc:date>
    <dc:format>image/svg+xml</dc:format>
    <dc:creator>
     <cc:Agent>
      <dc:title>Matplotlib v3.7.1, https://matplotlib.org/</dc:title>
     </cc:Agent>
    </dc:creator>
   </cc:Work>
  </rdf:RDF>
 </metadata>
 <defs>
  <style type="text/css">*{stroke-linejoin: round; stroke-linecap: butt}</style>
 </defs>
 <g id="figure_1">
  <g id="patch_1">
   <path d="M 0 345.6 
L 460.8 345.6 
L 460.8 0 
L 0 0 
z
" style="fill: #ffffff"/>
  </g>
  <g id="axes_1">
   <g id="patch_2">
    <path d="M 57.6 307.584 
L 414.72 307.584 
L 414.72 41.472 
L 57.6 41.472 
z
" style="fill: #ffffff"/>
   </g>
   <g id="matplotlib.axis_1">
    <g id="xtick_1">
     <g id="line2d_1">
      <defs>
       <path id="m857651bc9b" d="M 0 0 
L 0 3.5 
" style="stroke: #000000; stroke-width: 0.8"/>
      </defs>
      <g>
       <use xlink:href="#m857651bc9b" x="73.970296" y="307.584" style="stroke: #000000; stroke-width: 0.8"/>
      </g>
     </g>
     <g id="text_1">
      <!-- 50 -->
      <g transform="translate(67.607796 322.182437) scale(0.1 -0.1)">
       <defs>
        <path id="DejaVuSans-35" d="M 691 4666 
L 3169 4666 
L 3169 4134 
L 1269 4134 
L 1269 2991 
Q 1406 3038 1543 3061 
Q 1681 3084 1819 3084 
Q 2600 3084 3056 2656 
Q 3513 2228 3513 1497 
Q 3513 744 3044 326 
Q 2575 -91 1722 -91 
Q 1428 -91 1123 -41 
Q 819 9 494 109 
L 494 744 
Q 775 591 1075 516 
Q 1375 441 1709 441 
Q 2250 441 2565 725 
Q 2881 1009 2881 1497 
Q 2881 1984 2565 2268 
Q 2250 2553 1709 2553 
Q 1456 2553 1204 2497 
Q 953 2441 691 2322 
L 691 4666 
z
" transform="scale(0.015625)"/>
        <path id="DejaVuSans-30" d="M 2034 4250 
Q 1547 4250 1301 3770 
Q 1056 3291 1056 2328 
Q 1056 1369 1301 889 
Q 1547 409 2034 409 
Q 2525 409 2770 889 
Q 3016 1369 3016 2328 
Q 3016 3291 2770 3770 
Q 2525 4250 2034 4250 
z
M 2034 4750 
Q 2819 4750 3233 4129 
Q 3647 3509 3647 2328 
Q 3647 1150 3233 529 
Q 2819 -91 2034 -91 
Q 1250 -91 836 529 
Q 422 1150 422 2328 
Q 422 3509 836 4129 
Q 1250 4750 2034 4750 
z
" transform="scale(0.015625)"/>
       </defs>
       <use xlink:href="#DejaVuSans-35"/>
       <use xlink:href="#DejaVuSans-30" x="63.623047"/>
      </g>
     </g>
    </g>
    <g id="xtick_2">
     <g id="line2d_2">
      <g>
       <use xlink:href="#m857651bc9b" x="114.570299" y="307.584" style="stroke: #000000; stroke-width: 0.8"/>
      </g>
     </g>
     <g id="text_2">
      <!-- 55 -->
      <g transform="translate(108.207799 322.182437) scale(0.1 -0.1)">
       <use xlink:href="#DejaVuSans-35"/>
       <use xlink:href="#DejaVuSans-35" x="63.623047"/>
      </g>
     </g>
    </g>
    <g id="xtick_3">
     <g id="line2d_3">
      <g>
       <use xlink:href="#m857651bc9b" x="155.170302" y="307.584" style="stroke: #000000; stroke-width: 0.8"/>
      </g>
     </g>
     <g id="text_3">
      <!-- 60 -->
      <g transform="translate(148.807802 322.182437) scale(0.1 -0.1)">
       <defs>
        <path id="DejaVuSans-36" d="M 2113 2584 
Q 1688 2584 1439 2293 
Q 1191 2003 1191 1497 
Q 1191 994 1439 701 
Q 1688 409 2113 409 
Q 2538 409 2786 701 
Q 3034 994 3034 1497 
Q 3034 2003 2786 2293 
Q 2538 2584 2113 2584 
z
M 3366 4563 
L 3366 3988 
Q 3128 4100 2886 4159 
Q 2644 4219 2406 4219 
Q 1781 4219 1451 3797 
Q 1122 3375 1075 2522 
Q 1259 2794 1537 2939 
Q 1816 3084 2150 3084 
Q 2853 3084 3261 2657 
Q 3669 2231 3669 1497 
Q 3669 778 3244 343 
Q 2819 -91 2113 -91 
Q 1303 -91 875 529 
Q 447 1150 447 2328 
Q 447 3434 972 4092 
Q 1497 4750 2381 4750 
Q 2619 4750 2861 4703 
Q 3103 4656 3366 4563 
z
" transform="scale(0.015625)"/>
       </defs>
       <use xlink:href="#DejaVuSans-36"/>
       <use xlink:href="#DejaVuSans-30" x="63.623047"/>
      </g>
     </g>
    </g>
    <g id="xtick_4">
     <g id="line2d_4">
      <g>
       <use xlink:href="#m857651bc9b" x="195.770304" y="307.584" style="stroke: #000000; stroke-width: 0.8"/>
      </g>
     </g>
     <g id="text_4">
      <!-- 65 -->
      <g transform="translate(189.407804 322.182437) scale(0.1 -0.1)">
       <use xlink:href="#DejaVuSans-36"/>
       <use xlink:href="#DejaVuSans-35" x="63.623047"/>
      </g>
     </g>
    </g>
    <g id="xtick_5">
     <g id="line2d_5">
      <g>
       <use xlink:href="#m857651bc9b" x="236.370307" y="307.584" style="stroke: #000000; stroke-width: 0.8"/>
      </g>
     </g>
     <g id="text_5">
      <!-- 70 -->
      <g transform="translate(230.007807 322.182437) scale(0.1 -0.1)">
       <defs>
        <path id="DejaVuSans-37" d="M 525 4666 
L 3525 4666 
L 3525 4397 
L 1831 0 
L 1172 0 
L 2766 4134 
L 525 4134 
L 525 4666 
z
" transform="scale(0.015625)"/>
       </defs>
       <use xlink:href="#DejaVuSans-37"/>
       <use xlink:href="#DejaVuSans-30" x="63.623047"/>
      </g>
     </g>
    </g>
    <g id="xtick_6">
     <g id="line2d_6">
      <g>
       <use xlink:href="#m857651bc9b" x="276.97031" y="307.584" style="stroke: #000000; stroke-width: 0.8"/>
      </g>
     </g>
     <g id="text_6">
      <!-- 75 -->
      <g transform="translate(270.60781 322.182437) scale(0.1 -0.1)">
       <use xlink:href="#DejaVuSans-37"/>
       <use xlink:href="#DejaVuSans-35" x="63.623047"/>
      </g>
     </g>
    </g>
    <g id="xtick_7">
     <g id="line2d_7">
      <g>
       <use xlink:href="#m857651bc9b" x="317.570313" y="307.584" style="stroke: #000000; stroke-width: 0.8"/>
      </g>
     </g>
     <g id="text_7">
      <!-- 80 -->
      <g transform="translate(311.207813 322.182437) scale(0.1 -0.1)">
       <defs>
        <path id="DejaVuSans-38" d="M 2034 2216 
Q 1584 2216 1326 1975 
Q 1069 1734 1069 1313 
Q 1069 891 1326 650 
Q 1584 409 2034 409 
Q 2484 409 2743 651 
Q 3003 894 3003 1313 
Q 3003 1734 2745 1975 
Q 2488 2216 2034 2216 
z
M 1403 2484 
Q 997 2584 770 2862 
Q 544 3141 544 3541 
Q 544 4100 942 4425 
Q 1341 4750 2034 4750 
Q 2731 4750 3128 4425 
Q 3525 4100 3525 3541 
Q 3525 3141 3298 2862 
Q 3072 2584 2669 2484 
Q 3125 2378 3379 2068 
Q 3634 1759 3634 1313 
Q 3634 634 3220 271 
Q 2806 -91 2034 -91 
Q 1263 -91 848 271 
Q 434 634 434 1313 
Q 434 1759 690 2068 
Q 947 2378 1403 2484 
z
M 1172 3481 
Q 1172 3119 1398 2916 
Q 1625 2713 2034 2713 
Q 2441 2713 2670 2916 
Q 2900 3119 2900 3481 
Q 2900 3844 2670 4047 
Q 2441 4250 2034 4250 
Q 1625 4250 1398 4047 
Q 1172 3844 1172 3481 
z
" transform="scale(0.015625)"/>
       </defs>
       <use xlink:href="#DejaVuSans-38"/>
       <use xlink:href="#DejaVuSans-30" x="63.623047"/>
      </g>
     </g>
    </g>
    <g id="xtick_8">
     <g id="line2d_8">
      <g>
       <use xlink:href="#m857651bc9b" x="358.170316" y="307.584" style="stroke: #000000; stroke-width: 0.8"/>
      </g>
     </g>
     <g id="text_8">
      <!-- 85 -->
      <g transform="translate(351.807816 322.182437) scale(0.1 -0.1)">
       <use xlink:href="#DejaVuSans-38"/>
       <use xlink:href="#DejaVuSans-35" x="63.623047"/>
      </g>
     </g>
    </g>
    <g id="xtick_9">
     <g id="line2d_9">
      <g>
       <use xlink:href="#m857651bc9b" x="398.770318" y="307.584" style="stroke: #000000; stroke-width: 0.8"/>
      </g>
     </g>
     <g id="text_9">
      <!-- 90 -->
      <g transform="translate(392.407818 322.182437) scale(0.1 -0.1)">
       <defs>
        <path id="DejaVuSans-39" d="M 703 97 
L 703 672 
Q 941 559 1184 500 
Q 1428 441 1663 441 
Q 2288 441 2617 861 
Q 2947 1281 2994 2138 
Q 2813 1869 2534 1725 
Q 2256 1581 1919 1581 
Q 1219 1581 811 2004 
Q 403 2428 403 3163 
Q 403 3881 828 4315 
Q 1253 4750 1959 4750 
Q 2769 4750 3195 4129 
Q 3622 3509 3622 2328 
Q 3622 1225 3098 567 
Q 2575 -91 1691 -91 
Q 1453 -91 1209 -44 
Q 966 3 703 97 
z
M 1959 2075 
Q 2384 2075 2632 2365 
Q 2881 2656 2881 3163 
Q 2881 3666 2632 3958 
Q 2384 4250 1959 4250 
Q 1534 4250 1286 3958 
Q 1038 3666 1038 3163 
Q 1038 2656 1286 2365 
Q 1534 2075 1959 2075 
z
" transform="scale(0.015625)"/>
       </defs>
       <use xlink:href="#DejaVuSans-39"/>
       <use xlink:href="#DejaVuSans-30" x="63.623047"/>
      </g>
     </g>
    </g>
    <g id="text_10">
     <!-- time [s] -->
     <g transform="translate(216.768594 335.860562) scale(0.1 -0.1)">
      <defs>
       <path id="DejaVuSans-74" d="M 1172 4494 
L 1172 3500 
L 2356 3500 
L 2356 3053 
L 1172 3053 
L 1172 1153 
Q 1172 725 1289 603 
Q 1406 481 1766 481 
L 2356 481 
L 2356 0 
L 1766 0 
Q 1100 0 847 248 
Q 594 497 594 1153 
L 594 3053 
L 172 3053 
L 172 3500 
L 594 3500 
L 594 4494 
L 1172 4494 
z
" transform="scale(0.015625)"/>
       <path id="DejaVuSans-69" d="M 603 3500 
L 1178 3500 
L 1178 0 
L 603 0 
L 603 3500 
z
M 603 4863 
L 1178 4863 
L 1178 4134 
L 603 4134 
L 603 4863 
z
" transform="scale(0.015625)"/>
       <path id="DejaVuSans-6d" d="M 3328 2828 
Q 3544 3216 3844 3400 
Q 4144 3584 4550 3584 
Q 5097 3584 5394 3201 
Q 5691 2819 5691 2113 
L 5691 0 
L 5113 0 
L 5113 2094 
Q 5113 2597 4934 2840 
Q 4756 3084 4391 3084 
Q 3944 3084 3684 2787 
Q 3425 2491 3425 1978 
L 3425 0 
L 2847 0 
L 2847 2094 
Q 2847 2600 2669 2842 
Q 2491 3084 2119 3084 
Q 1678 3084 1418 2786 
Q 1159 2488 1159 1978 
L 1159 0 
L 581 0 
L 581 3500 
L 1159 3500 
L 1159 2956 
Q 1356 3278 1631 3431 
Q 1906 3584 2284 3584 
Q 2666 3584 2933 3390 
Q 3200 3197 3328 2828 
z
" transform="scale(0.015625)"/>
       <path id="DejaVuSans-65" d="M 3597 1894 
L 3597 1613 
L 953 1613 
Q 991 1019 1311 708 
Q 1631 397 2203 397 
Q 2534 397 2845 478 
Q 3156 559 3463 722 
L 3463 178 
Q 3153 47 2828 -22 
Q 2503 -91 2169 -91 
Q 1331 -91 842 396 
Q 353 884 353 1716 
Q 353 2575 817 3079 
Q 1281 3584 2069 3584 
Q 2775 3584 3186 3129 
Q 3597 2675 3597 1894 
z
M 3022 2063 
Q 3016 2534 2758 2815 
Q 2500 3097 2075 3097 
Q 1594 3097 1305 2825 
Q 1016 2553 972 2059 
L 3022 2063 
z
" transform="scale(0.015625)"/>
       <path id="DejaVuSans-20" transform="scale(0.015625)"/>
       <path id="DejaVuSans-5b" d="M 550 4863 
L 1875 4863 
L 1875 4416 
L 1125 4416 
L 1125 -397 
L 1875 -397 
L 1875 -844 
L 550 -844 
L 550 4863 
z
" transform="scale(0.015625)"/>
       <path id="DejaVuSans-73" d="M 2834 3397 
L 2834 2853 
Q 2591 2978 2328 3040 
Q 2066 3103 1784 3103 
Q 1356 3103 1142 2972 
Q 928 2841 928 2578 
Q 928 2378 1081 2264 
Q 1234 2150 1697 2047 
L 1894 2003 
Q 2506 1872 2764 1633 
Q 3022 1394 3022 966 
Q 3022 478 2636 193 
Q 2250 -91 1575 -91 
Q 1294 -91 989 -36 
Q 684 19 347 128 
L 347 722 
Q 666 556 975 473 
Q 1284 391 1588 391 
Q 1994 391 2212 530 
Q 2431 669 2431 922 
Q 2431 1156 2273 1281 
Q 2116 1406 1581 1522 
L 1381 1569 
Q 847 1681 609 1914 
Q 372 2147 372 2553 
Q 372 3047 722 3315 
Q 1072 3584 1716 3584 
Q 2034 3584 2315 3537 
Q 2597 3491 2834 3397 
z
" transform="scale(0.015625)"/>
       <path id="DejaVuSans-5d" d="M 1947 4863 
L 1947 -844 
L 622 -844 
L 622 -397 
L 1369 -397 
L 1369 4416 
L 622 4416 
L 622 4863 
L 1947 4863 
z
" transform="scale(0.015625)"/>
      </defs>
      <use xlink:href="#DejaVuSans-74"/>
      <use xlink:href="#DejaVuSans-69" x="39.208984"/>
      <use xlink:href="#DejaVuSans-6d" x="66.992188"/>
      <use xlink:href="#DejaVuSans-65" x="164.404297"/>
      <use xlink:href="#DejaVuSans-20" x="225.927734"/>
      <use xlink:href="#DejaVuSans-5b" x="257.714844"/>
      <use xlink:href="#DejaVuSans-73" x="296.728516"/>
      <use xlink:href="#DejaVuSans-5d" x="348.828125"/>
     </g>
    </g>
   </g>
   <g id="matplotlib.axis_2">
    <g id="ytick_1">
     <g id="line2d_10">
      <defs>
       <path id="m179a692eb6" d="M 0 0 
L -3.5 0 
" style="stroke: #000000; stroke-width: 0.8"/>
      </defs>
      <g>
       <use xlink:href="#m179a692eb6" x="57.6" y="284.091832" style="stroke: #000000; stroke-width: 0.8"/>
      </g>
     </g>
     <g id="text_11">
      <!-- 272 -->
      <g transform="translate(31.5125 287.89105) scale(0.1 -0.1)">
       <defs>
        <path id="DejaVuSans-32" d="M 1228 531 
L 3431 531 
L 3431 0 
L 469 0 
L 469 531 
Q 828 903 1448 1529 
Q 2069 2156 2228 2338 
Q 2531 2678 2651 2914 
Q 2772 3150 2772 3378 
Q 2772 3750 2511 3984 
Q 2250 4219 1831 4219 
Q 1534 4219 1204 4116 
Q 875 4013 500 3803 
L 500 4441 
Q 881 4594 1212 4672 
Q 1544 4750 1819 4750 
Q 2544 4750 2975 4387 
Q 3406 4025 3406 3419 
Q 3406 3131 3298 2873 
Q 3191 2616 2906 2266 
Q 2828 2175 2409 1742 
Q 1991 1309 1228 531 
z
" transform="scale(0.015625)"/>
       </defs>
       <use xlink:href="#DejaVuSans-32"/>
       <use xlink:href="#DejaVuSans-37" x="63.623047"/>
       <use xlink:href="#DejaVuSans-32" x="127.246094"/>
      </g>
     </g>
    </g>
    <g id="ytick_2">
     <g id="line2d_11">
      <g>
       <use xlink:href="#m179a692eb6" x="57.6" y="238.759932" style="stroke: #000000; stroke-width: 0.8"/>
      </g>
     </g>
     <g id="text_12">
      <!-- 273 -->
      <g transform="translate(31.5125 242.559151) scale(0.1 -0.1)">
       <defs>
        <path id="DejaVuSans-33" d="M 2597 2516 
Q 3050 2419 3304 2112 
Q 3559 1806 3559 1356 
Q 3559 666 3084 287 
Q 2609 -91 1734 -91 
Q 1441 -91 1130 -33 
Q 819 25 488 141 
L 488 750 
Q 750 597 1062 519 
Q 1375 441 1716 441 
Q 2309 441 2620 675 
Q 2931 909 2931 1356 
Q 2931 1769 2642 2001 
Q 2353 2234 1838 2234 
L 1294 2234 
L 1294 2753 
L 1863 2753 
Q 2328 2753 2575 2939 
Q 2822 3125 2822 3475 
Q 2822 3834 2567 4026 
Q 2313 4219 1838 4219 
Q 1578 4219 1281 4162 
Q 984 4106 628 3988 
L 628 4550 
Q 988 4650 1302 4700 
Q 1616 4750 1894 4750 
Q 2613 4750 3031 4423 
Q 3450 4097 3450 3541 
Q 3450 3153 3228 2886 
Q 3006 2619 2597 2516 
z
" transform="scale(0.015625)"/>
       </defs>
       <use xlink:href="#DejaVuSans-32"/>
       <use xlink:href="#DejaVuSans-37" x="63.623047"/>
       <use xlink:href="#DejaVuSans-33" x="127.246094"/>
      </g>
     </g>
    </g>
    <g id="ytick_3">
     <g id="line2d_12">
      <g>
       <use xlink:href="#m179a692eb6" x="57.6" y="193.428032" style="stroke: #000000; stroke-width: 0.8"/>
      </g>
     </g>
     <g id="text_13">
      <!-- 274 -->
      <g transform="translate(31.5125 197.227251) scale(0.1 -0.1)">
       <defs>
        <path id="DejaVuSans-34" d="M 2419 4116 
L 825 1625 
L 2419 1625 
L 2419 4116 
z
M 2253 4666 
L 3047 4666 
L 3047 1625 
L 3713 1625 
L 3713 1100 
L 3047 1100 
L 3047 0 
L 2419 0 
L 2419 1100 
L 313 1100 
L 313 1709 
L 2253 4666 
z
" transform="scale(0.015625)"/>
       </defs>
       <use xlink:href="#DejaVuSans-32"/>
       <use xlink:href="#DejaVuSans-37" x="63.623047"/>
       <use xlink:href="#DejaVuSans-34" x="127.246094"/>
      </g>
     </g>
    </g>
    <g id="ytick_4">
     <g id="line2d_13">
      <g>
       <use xlink:href="#m179a692eb6" x="57.6" y="148.096133" style="stroke: #000000; stroke-width: 0.8"/>
      </g>
     </g>
     <g id="text_14">
      <!-- 275 -->
      <g transform="translate(31.5125 151.895352) scale(0.1 -0.1)">
       <use xlink:href="#DejaVuSans-32"/>
       <use xlink:href="#DejaVuSans-37" x="63.623047"/>
       <use xlink:href="#DejaVuSans-35" x="127.246094"/>
      </g>
     </g>
    </g>
    <g id="ytick_5">
     <g id="line2d_14">
      <g>
       <use xlink:href="#m179a692eb6" x="57.6" y="102.764233" style="stroke: #000000; stroke-width: 0.8"/>
      </g>
     </g>
     <g id="text_15">
      <!-- 276 -->
      <g transform="translate(31.5125 106.563452) scale(0.1 -0.1)">
       <use xlink:href="#DejaVuSans-32"/>
       <use xlink:href="#DejaVuSans-37" x="63.623047"/>
       <use xlink:href="#DejaVuSans-36" x="127.246094"/>
      </g>
     </g>
    </g>
    <g id="ytick_6">
     <g id="line2d_15">
      <g>
       <use xlink:href="#m179a692eb6" x="57.6" y="57.432334" style="stroke: #000000; stroke-width: 0.8"/>
      </g>
     </g>
     <g id="text_16">
      <!-- 277 -->
      <g transform="translate(31.5125 61.231552) scale(0.1 -0.1)">
       <use xlink:href="#DejaVuSans-32"/>
       <use xlink:href="#DejaVuSans-37" x="63.623047"/>
       <use xlink:href="#DejaVuSans-37" x="127.246094"/>
      </g>
     </g>
    </g>
    <g id="text_17">
     <!-- $\theta$ [deg] -->
     <g transform="translate(25.4125 192.528) rotate(-90) scale(0.1 -0.1)">
      <defs>
       <path id="DejaVuSans-Oblique-3b8" d="M 2913 2219 
L 925 2219 
Q 791 1284 928 888 
Q 1100 400 1566 400 
Q 2034 400 2391 891 
Q 2703 1322 2913 2219 
z
M 3009 2750 
Q 3094 3638 2984 3950 
Q 2813 4444 2353 4444 
Q 1875 4444 1525 3956 
Q 1250 3563 1034 2750 
L 3009 2750 
z
M 2444 4913 
Q 3194 4913 3494 4250 
Q 3794 3591 3566 2422 
Q 3341 1256 2781 594 
Q 2225 -72 1475 -72 
Q 722 -72 425 594 
Q 128 1256 353 2422 
Q 581 3591 1134 4250 
Q 1691 4913 2444 4913 
z
" transform="scale(0.015625)"/>
       <path id="DejaVuSans-64" d="M 2906 2969 
L 2906 4863 
L 3481 4863 
L 3481 0 
L 2906 0 
L 2906 525 
Q 2725 213 2448 61 
Q 2172 -91 1784 -91 
Q 1150 -91 751 415 
Q 353 922 353 1747 
Q 353 2572 751 3078 
Q 1150 3584 1784 3584 
Q 2172 3584 2448 3432 
Q 2725 3281 2906 2969 
z
M 947 1747 
Q 947 1113 1208 752 
Q 1469 391 1925 391 
Q 2381 391 2643 752 
Q 2906 1113 2906 1747 
Q 2906 2381 2643 2742 
Q 2381 3103 1925 3103 
Q 1469 3103 1208 2742 
Q 947 2381 947 1747 
z
" transform="scale(0.015625)"/>
       <path id="DejaVuSans-67" d="M 2906 1791 
Q 2906 2416 2648 2759 
Q 2391 3103 1925 3103 
Q 1463 3103 1205 2759 
Q 947 2416 947 1791 
Q 947 1169 1205 825 
Q 1463 481 1925 481 
Q 2391 481 2648 825 
Q 2906 1169 2906 1791 
z
M 3481 434 
Q 3481 -459 3084 -895 
Q 2688 -1331 1869 -1331 
Q 1566 -1331 1297 -1286 
Q 1028 -1241 775 -1147 
L 775 -588 
Q 1028 -725 1275 -790 
Q 1522 -856 1778 -856 
Q 2344 -856 2625 -561 
Q 2906 -266 2906 331 
L 2906 616 
Q 2728 306 2450 153 
Q 2172 0 1784 0 
Q 1141 0 747 490 
Q 353 981 353 1791 
Q 353 2603 747 3093 
Q 1141 3584 1784 3584 
Q 2172 3584 2450 3431 
Q 2728 3278 2906 2969 
L 2906 3500 
L 3481 3500 
L 3481 434 
z
" transform="scale(0.015625)"/>
      </defs>
      <use xlink:href="#DejaVuSans-Oblique-3b8" transform="translate(0 0.234375)"/>
      <use xlink:href="#DejaVuSans-20" transform="translate(61.181641 0.234375)"/>
      <use xlink:href="#DejaVuSans-5b" transform="translate(92.96875 0.234375)"/>
      <use xlink:href="#DejaVuSans-64" transform="translate(131.982422 0.234375)"/>
      <use xlink:href="#DejaVuSans-65" transform="translate(195.458984 0.234375)"/>
      <use xlink:href="#DejaVuSans-67" transform="translate(256.982422 0.234375)"/>
      <use xlink:href="#DejaVuSans-5d" transform="translate(320.458984 0.234375)"/>
     </g>
    </g>
   </g>
   <g id="line2d_16">
    <path d="M 73.832727 114.354771 
L 73.913708 116.355165 
L 73.994697 140.179517 
L 74.075678 112.621853 
L 74.156658 141.911768 
L 74.237647 129.576685 
L 74.318628 145.582483 
L 74.480598 116.910746 
L 74.561579 155.094183 
L 74.642559 151.209495 
L 74.723548 156.418185 
L 74.804529 116.052389 
L 75.047479 165.34532 
L 75.12846 139.226826 
L 75.209449 146.341178 
L 75.29043 136.513627 
L 75.371411 136.593936 
L 75.452399 136.137092 
L 75.53338 141.391182 
L 75.614361 112.761404 
L 75.69535 131.478486 
L 75.9383 96.087564 
L 76.181251 137.141325 
L 76.262231 146.609076 
L 76.34322 122.896488 
L 76.667152 185.624308 
L 76.748132 177.345464 
L 76.829121 145.880344 
L 76.910102 178.936198 
L 76.991083 170.57991 
L 77.315022 116.814193 
L 77.396003 127.169641 
L 77.476984 135.369545 
L 77.557972 119.743609 
L 77.719934 153.259745 
L 77.881904 109.605789 
L 77.962884 177.377635 
L 78.043873 164.967082 
L 78.124854 173.912196 
L 78.448785 114.876733 
L 78.529774 127.732502 
L 78.610755 114.159669 
L 78.772724 145.015714 
L 78.853705 141.840516 
L 79.015675 154.585528 
L 79.096656 148.735542 
L 79.177645 119.689892 
L 79.258625 125.377781 
L 79.420595 72.582415 
L 79.582557 142.235293 
L 79.744526 128.384967 
L 79.825507 145.252541 
L 79.906496 128.144086 
L 79.987477 143.715596 
L 80.068457 128.885185 
L 80.149446 169.040717 
L 80.230427 156.617089 
L 80.473377 118.114755 
L 80.554358 131.61679 
L 80.635347 184.686214 
L 80.716328 152.842526 
L 80.797309 152.939402 
L 80.878297 143.745307 
L 80.959278 188.380701 
L 81.040259 134.18899 
L 81.121248 149.0328 
L 81.202229 151.237327 
L 81.283209 149.121588 
L 81.76911 60.408174 
L 81.93108 142.311431 
L 82.012061 128.676826 
L 82.255011 176.002593 
L 82.336 167.25415 
L 82.416981 170.515744 
L 82.57895 155.478558 
L 82.659924 166.34498 
L 82.740905 164.247065 
L 82.902875 131.008529 
L 82.983856 138.29942 
L 83.064844 138.781296 
L 83.388776 173.204951 
L 83.469756 193.385161 
L 83.550745 186.465633 
L 83.712707 154.25888 
L 83.793696 180.66339 
L 83.955657 149.172921 
L 84.117627 181.867242 
L 84.198608 171.798032 
L 84.279597 145.873624 
L 84.360577 179.886867 
L 84.441558 165.944737 
L 84.522547 173.961619 
L 84.603528 172.811249 
L 84.684509 147.809621 
L 84.765497 170.291625 
L 84.927459 113.42864 
L 85.00844 125.408495 
L 85.170409 149.993259 
L 85.41336 87.962931 
L 85.494341 88.936398 
L 85.65631 154.261082 
L 85.737291 139.164902 
L 85.81828 146.583299 
L 85.899261 123.990861 
L 85.980241 125.142615 
L 86.142211 160.204312 
L 86.304181 130.542485 
L 86.385161 153.102958 
L 86.547131 131.036771 
L 86.790082 192.469035 
L 86.871062 147.26254 
L 86.952043 202.02382 
L 87.033032 153.68447 
L 87.114013 174.588007 
L 87.194993 152.385464 
L 87.356963 186.583321 
L 87.437944 154.484941 
L 87.518933 163.154623 
L 87.599914 181.060114 
L 87.680894 163.670439 
L 87.761883 187.637957 
L 87.923845 165.189832 
L 88.004834 164.155136 
L 88.085814 144.3046 
L 88.166795 163.257299 
L 88.247776 135.003285 
L 88.328765 136.731369 
L 88.490726 188.683088 
L 88.571715 135.338146 
L 88.652696 165.590809 
L 88.814666 135.531533 
L 88.895646 156.268188 
L 89.057616 103.40623 
L 89.219578 147.497143 
L 89.300566 159.095845 
L 89.462528 135.295443 
L 89.624498 163.058631 
L 89.705478 129.520175 
L 89.786467 140.367226 
L 89.867448 176.587418 
L 90.029418 130.979047 
L 90.110398 132.215328 
L 90.191379 144.909268 
L 90.27236 126.93403 
L 90.51531 150.731614 
L 90.596299 142.603453 
L 90.67728 157.095186 
L 90.83925 125.96502 
L 90.92023 128.656479 
L 91.0822 182.666176 
L 91.244162 132.339635 
L 91.325151 139.402392 
L 91.406131 132.452091 
L 91.487112 189.130654 
L 91.568101 172.810154 
L 91.649082 132.841663 
L 91.892031 199.062961 
L 92.134981 117.217671 
L 92.296943 132.802648 
L 92.377932 125.289819 
L 92.458912 136.617071 
L 92.539893 167.839063 
L 92.620882 156.750925 
L 92.701863 125.266153 
L 92.782844 134.680034 
L 92.863832 116.242826 
L 93.025794 154.352724 
L 93.106783 149.910655 
L 93.268744 130.742111 
L 93.430714 139.080653 
L 93.511695 136.274159 
L 93.592676 143.443703 
L 93.673664 142.739354 
L 93.754645 120.437954 
L 93.916615 155.336303 
L 94.078576 108.386542 
L 94.240546 178.383124 
L 94.402508 104.372168 
L 94.726447 153.392298 
L 94.807428 144.711788 
L 94.888408 112.264946 
L 94.969397 128.788654 
L 95.131359 73.56761 
L 95.293328 119.074388 
L 95.374309 133.944343 
L 95.455298 95.738844 
L 95.536279 123.485366 
L 95.61726 113.566434 
L 95.69824 123.467472 
L 95.779229 103.526085 
L 95.86021 136.120904 
L 95.941191 93.163954 
L 96.02218 102.695003 
L 96.26513 146.72298 
L 96.427092 118.957558 
L 96.508081 123.71737 
L 96.670042 137.567074 
L 96.832012 97.098252 
L 96.912992 102.860885 
L 96.993973 138.613006 
L 97.074962 110.279666 
L 97.155943 133.870166 
L 97.317913 102.986582 
L 97.398893 76.113817 
L 97.479874 128.333931 
L 97.560855 82.46708 
L 97.641844 130.695074 
L 97.722825 91.754079 
L 97.803805 131.969742 
L 98.046756 78.240445 
L 98.208725 125.421341 
L 98.289706 109.935652 
L 98.370695 112.286363 
L 98.451676 94.643673 
L 98.532657 96.036458 
L 98.694626 134.731188 
L 98.775607 79.286491 
L 98.937577 149.979309 
L 99.180527 130.087177 
L 99.261508 133.001327 
L 99.423469 114.581154 
L 99.504458 124.363146 
L 99.585439 115.12144 
L 99.747409 129.790004 
L 99.990359 84.225169 
L 100.07134 123.117103 
L 100.152321 105.515033 
L 100.233301 136.229777 
L 100.31429 117.759447 
L 100.476252 148.490359 
L 100.557241 143.695718 
L 100.638221 125.072254 
L 100.719202 142.202056 
L 100.881172 113.675523 
L 100.962153 108.32721 
L 101.043137 137.79089 
L 101.124126 100.903042 
L 101.205107 154.383495 
L 101.286088 139.721336 
L 101.367077 145.482192 
L 101.771989 53.568 
L 102.014939 131.61392 
L 102.09592 139.779281 
L 102.176909 169.138283 
L 102.33887 141.456215 
L 102.419851 141.446273 
L 102.50084 99.102331 
L 102.581821 127.426592 
L 102.662801 117.85304 
L 102.824771 143.641698 
L 102.905752 147.103581 
L 102.986741 186.755809 
L 103.067722 129.576526 
L 103.148702 148.147949 
L 103.472633 117.705575 
L 103.553622 144.377727 
L 103.634603 142.884807 
L 103.715584 152.058444 
L 103.796565 150.466637 
L 103.877554 141.175053 
L 103.958534 197.392185 
L 104.282465 122.518502 
L 104.444435 139.207021 
L 104.525416 138.967861 
L 104.606397 139.896929 
L 104.687386 151.505938 
L 104.930336 82.403664 
L 105.011317 106.366039 
L 105.092297 149.914139 
L 105.173278 136.201865 
L 105.254267 129.951059 
L 105.416229 159.026867 
L 105.497218 152.108996 
L 105.578198 135.313467 
L 105.659179 135.404492 
L 105.74016 147.769163 
L 105.821149 179.717633 
L 105.902129 165.357108 
L 105.98311 121.769738 
L 106.064099 127.929689 
L 106.14508 136.543124 
L 106.226061 133.07263 
L 106.469011 96.368681 
L 106.792942 196.705294 
L 106.873931 129.935522 
L 106.954912 149.080838 
L 107.035893 146.007348 
L 107.116873 138.146258 
L 107.197862 104.353929 
L 107.278843 139.996113 
L 107.359824 120.955843 
L 107.440813 124.462998 
L 107.683755 120.204605 
L 107.764744 109.781837 
L 107.845725 138.632458 
L 107.926705 100.510197 
L 108.088675 126.806487 
L 108.250637 128.016747 
L 108.412606 141.83084 
L 108.493587 133.853666 
L 108.574576 153.01205 
L 108.655557 122.287423 
L 108.736537 162.508706 
L 108.817518 130.274456 
L 108.898507 142.189646 
L 108.979488 146.602139 
L 109.141458 119.207789 
L 109.3844 155.796389 
L 109.465389 166.638548 
L 109.54637 153.793975 
L 109.708339 211.880346 
L 109.870301 152.761917 
L 109.951281 158.330731 
L 110.113251 120.711127 
L 110.194232 168.204391 
L 110.275212 154.012732 
L 110.518162 93.779012 
L 110.599151 82.161553 
L 110.761113 128.717707 
L 110.842094 118.123467 
L 111.247014 172.064731 
L 111.327994 125.555335 
L 111.408975 174.25305 
L 111.489964 169.464359 
L 111.570945 161.252907 
L 111.651926 187.750472 
L 111.732914 178.274109 
L 111.894876 129.864427 
L 112.137826 210.519707 
L 112.299788 148.194697 
L 112.380777 164.601071 
L 112.461758 158.001621 
L 112.542738 185.878766 
L 112.623727 166.331513 
L 112.704708 113.586157 
L 112.785689 135.78797 
L 112.86667 134.781594 
L 113.028639 152.927294 
L 113.190609 116.708589 
L 113.27159 96.621064 
L 113.35257 110.359879 
L 113.433551 98.011637 
L 113.676502 162.116066 
L 113.838471 122.199947 
L 113.919452 168.165936 
L 114.081422 103.361029 
L 114.162402 105.689879 
L 114.243383 115.536665 
L 114.324364 97.422038 
L 114.486334 137.92458 
L 114.729284 115.689134 
L 114.810265 149.596427 
L 114.891246 141.294001 
L 115.053215 148.740526 
L 115.134196 160.469071 
L 115.377146 125.20879 
L 115.458127 126.183498 
L 115.539108 150.883857 
L 115.782058 105.70605 
L 115.863047 124.957434 
L 115.944028 89.58554 
L 116.025009 108.288525 
L 116.10599 83.481333 
L 116.429921 135.772826 
L 116.51091 137.782612 
L 116.59189 121.617323 
L 116.753852 146.881012 
L 116.834841 126.601047 
L 116.915822 135.27638 
L 116.996802 182.66394 
L 117.077791 145.084111 
L 117.158772 147.56119 
L 117.401722 180.737303 
L 117.482703 183.52061 
L 117.563684 163.242822 
L 117.644665 186.277481 
L 117.806634 137.629021 
L 117.887615 140.784618 
L 117.968604 136.420121 
L 118.049585 100.1161 
L 118.130565 153.752119 
L 118.211546 140.355348 
L 118.292535 140.929522 
L 118.373516 164.2323 
L 118.535477 133.828464 
L 118.859409 179.036203 
L 119.021378 166.820038 
L 119.345309 92.906284 
L 119.58826 150.965653 
L 119.750221 115.711793 
L 119.912191 138.22663 
L 120.074152 103.99776 
L 120.236122 164.607966 
L 120.560053 123.346111 
L 120.641034 128.841858 
L 120.722023 128.274382 
L 120.803004 123.860601 
L 120.883984 124.46831 
L 120.964965 179.731814 
L 121.045954 148.404581 
L 121.126935 177.568741 
L 121.288896 144.403983 
L 121.369885 179.203276 
L 121.450866 178.209305 
L 121.531847 146.885998 
L 121.693816 183.947936 
L 121.774797 182.446387 
L 121.936759 149.909869 
L 122.017747 167.599872 
L 122.098728 142.740395 
L 122.260698 172.311703 
L 122.341679 151.519662 
L 122.422659 181.322258 
L 122.584629 140.295625 
L 122.66561 140.026019 
L 122.746591 179.501981 
L 122.827571 145.63011 
L 122.90856 181.957977 
L 122.989541 167.189389 
L 123.070522 167.855468 
L 123.151503 208.099476 
L 123.475434 130.644711 
L 123.556423 145.947543 
L 123.637403 145.020737 
L 123.718384 147.187114 
L 123.799365 144.264272 
L 123.880354 166.782255 
L 123.961335 147.887886 
L 124.042315 155.765986 
L 124.123296 134.078778 
L 124.285266 187.6611 
L 124.366247 166.229164 
L 124.447227 173.137119 
L 124.528216 159.61451 
L 124.690178 194.87943 
L 124.852147 154.811819 
L 124.933128 153.574369 
L 125.014109 174.263434 
L 125.176079 131.340065 
L 125.257059 181.587057 
L 125.33804 137.025105 
L 125.50001 198.643136 
L 125.58099 185.119641 
L 125.74296 141.447015 
L 125.823941 172.852187 
L 125.904922 170.328786 
L 125.985902 178.406038 
L 126.066891 163.528524 
L 126.309834 227.408278 
L 126.390822 236.319059 
L 126.552784 181.459252 
L 126.633765 196.151097 
L 126.714754 177.85461 
L 126.957696 216.36199 
L 127.038685 182.822434 
L 127.119666 193.2686 
L 127.200646 192.521235 
L 127.281627 153.198178 
L 127.443597 214.673192 
L 127.524578 173.486124 
L 127.605558 199.98726 
L 127.686547 171.938568 
L 127.767528 182.168273 
L 127.92949 196.214264 
L 128.010478 196.261431 
L 128.17244 135.875527 
L 128.33441 160.018237 
L 128.41539 173.084792 
L 128.496371 152.950657 
L 128.577352 157.099301 
L 128.658339 143.745427 
L 128.73932 161.777239 
L 128.820301 127.453781 
L 129.063251 202.219591 
L 129.306201 148.396297 
L 129.387182 178.909063 
L 129.468163 172.17452 
L 129.549144 187.03183 
L 129.630133 157.950372 
L 129.711113 179.355196 
L 129.792094 161.992072 
L 129.873075 201.718101 
L 130.116025 143.753527 
L 130.277995 198.856044 
L 130.439957 180.413028 
L 130.520937 231.51096 
L 130.682907 161.271931 
L 130.763888 186.210325 
L 130.844868 177.374273 
L 131.006838 149.356732 
L 131.087819 161.794741 
L 131.24978 236.146033 
L 131.330769 179.593005 
L 131.41175 182.819114 
L 131.492731 172.306031 
L 131.573712 201.381841 
L 131.6547 184.750745 
L 131.735681 191.964892 
L 131.816662 229.768265 
L 131.978632 163.56193 
L 132.059612 199.27906 
L 132.140593 194.965151 
L 132.221574 204.270065 
L 132.302563 187.398325 
L 132.383544 190.991716 
L 132.464524 191.842044 
L 132.545505 186.977772 
L 132.626494 226.442723 
L 132.707475 187.246069 
L 132.788456 201.325994 
L 132.869436 198.851775 
L 132.950425 226.63502 
L 133.193367 196.436977 
L 133.274356 196.696395 
L 133.355337 213.34378 
L 133.436318 179.723616 
L 133.517299 211.984221 
L 133.598279 198.470282 
L 133.679268 214.750579 
L 133.760249 174.211547 
L 133.922211 222.096785 
L 134.0032 216.74905 
L 134.08418 175.460167 
L 134.165161 197.749056 
L 134.246142 169.667103 
L 134.327131 171.141869 
L 134.570073 229.013496 
L 134.651062 228.041003 
L 134.732043 202.651149 
L 134.813023 222.160114 
L 134.894004 205.695157 
L 134.974993 208.304689 
L 135.055974 224.086107 
L 135.217935 155.97316 
L 135.379905 211.80199 
L 135.460886 214.979802 
L 135.541867 213.783924 
L 135.622847 216.138591 
L 135.703836 224.815858 
L 135.784817 205.777401 
L 135.865798 157.883545 
L 136.027767 215.761997 
L 136.108748 174.035072 
L 136.189729 184.046304 
L 136.27071 188.556177 
L 136.351699 186.302013 
L 136.432679 168.387751 
L 136.51366 187.172296 
L 136.594641 185.166858 
L 136.675622 173.924637 
L 136.918572 196.259859 
L 137.080542 160.556873 
L 137.161522 188.245292 
L 137.242503 166.286005 
L 137.323484 171.03944 
L 137.404473 181.499193 
L 137.647415 230.19971 
L 137.890369 154.021148 
L 137.971349 170.157002 
L 138.05233 190.519923 
L 138.133319 183.070923 
L 138.2143 186.048416 
L 138.376261 169.841644 
L 138.45725 175.865968 
L 138.538231 173.312392 
L 138.700192 231.236306 
L 138.781173 200.795786 
L 138.862162 232.082294 
L 139.024124 182.344386 
L 139.186093 200.123018 
L 139.267074 215.971544 
L 139.429036 200.094413 
L 139.510024 207.160883 
L 139.833948 146.923992 
L 139.995917 178.508103 
L 140.076898 142.645913 
L 140.157879 165.670613 
L 140.238868 155.922653 
L 140.319848 213.136005 
L 140.400829 202.540712 
L 140.48181 213.806311 
L 140.72476 144.840332 
L 140.805741 145.653282 
L 141.048692 178.292634 
L 141.129672 174.453851 
L 141.210653 143.9089 
L 141.291642 166.637931 
L 141.372623 164.389438 
L 141.453603 152.617008 
L 141.534584 167.831301 
L 141.615573 152.165551 
L 141.696554 159.709253 
L 141.858515 140.233814 
L 142.020485 175.915151 
L 142.101466 165.687442 
L 142.182447 137.379598 
L 142.263427 146.048538 
L 142.344408 141.807533 
L 142.425397 131.387258 
L 142.506378 141.358029 
L 142.587359 178.072198 
L 142.749328 143.533415 
L 142.99227 186.330424 
L 143.15424 138.903452 
L 143.235221 172.477261 
L 143.316202 171.4546 
L 143.397182 138.858632 
L 143.478171 143.63679 
L 143.721114 169.616738 
L 143.802103 129.149304 
L 143.964064 175.107166 
L 144.045045 133.238635 
L 144.126026 145.379199 
L 144.207014 134.186932 
L 144.368976 171.438488 
L 144.449957 166.675236 
L 144.530946 192.668947 
L 144.611926 175.699304 
L 144.692907 178.728455 
L 144.773888 179.872213 
L 144.854869 175.365501 
L 144.935858 185.433523 
L 145.016838 226.251578 
L 145.34077 142.228972 
L 145.42175 139.188588 
L 145.583712 174.857268 
L 145.664701 159.90147 
L 145.826662 176.826717 
L 145.907643 138.383125 
L 146.069613 169.036912 
L 146.312555 154.66647 
L 146.474525 114.947064 
L 146.636486 158.76122 
L 146.798456 129.718791 
L 146.879437 147.97675 
L 146.960417 143.033294 
L 147.122395 164.315741 
L 147.284356 112.930018 
L 147.365337 158.311219 
L 147.446318 116.754844 
L 147.527307 121.306027 
L 147.689268 85.358971 
L 147.770249 116.42509 
L 147.85123 116.322467 
L 148.013199 106.313443 
L 148.175161 135.742103 
L 148.25615 135.723312 
L 148.337131 147.709294 
L 148.580073 109.75315 
L 148.823023 177.424065 
L 148.904004 146.542754 
L 148.984985 167.313597 
L 149.146955 137.417793 
L 149.227935 139.82606 
L 149.389897 173.444732 
L 149.470886 168.09019 
L 149.632847 123.182621 
L 149.794817 149.492363 
L 149.875798 140.890142 
L 150.037759 170.812454 
L 150.199729 149.587377 
L 150.442671 186.165592 
L 150.685622 127.67342 
L 150.847583 199.363928 
L 150.928572 198.143968 
L 151.009553 164.622838 
L 151.090533 165.19041 
L 151.171514 172.535042 
L 151.333484 158.533959 
L 151.414465 206.707173 
L 151.576426 178.654934 
L 151.657407 190.055073 
L 151.738396 185.793189 
L 151.819377 151.99256 
L 151.900357 189.082951 
L 151.981338 153.798974 
L 152.143308 191.963871 
L 152.224289 174.521835 
L 152.305269 125.556384 
L 152.54822 174.082488 
L 152.710181 169.582621 
L 152.872143 197.968469 
L 152.953132 171.258305 
L 153.034112 183.119717 
L 153.115093 182.169084 
L 153.196074 178.634779 
L 153.277063 165.256929 
L 153.520005 196.154012 
L 153.600986 205.174222 
L 153.762956 182.981218 
L 153.843936 182.787583 
L 154.005898 205.918481 
L 154.086887 181.735458 
L 154.248848 207.921157 
L 154.41081 179.478326 
L 154.491799 178.984329 
L 154.572779 190.601622 
L 154.65376 183.614023 
L 154.734741 203.38763 
L 154.815722 183.389627 
L 154.977691 205.035387 
L 155.139653 178.340874 
L 155.220634 215.861999 
L 155.301623 209.09238 
L 155.382603 116.001601 
L 155.544565 192.461117 
L 155.625546 186.021313 
L 155.706535 214.999766 
L 155.949477 177.888588 
L 156.111447 162.64623 
L 156.273402 200.821994 
L 156.354383 192.634745 
L 156.435363 193.091971 
L 156.516352 198.611347 
L 156.597333 188.832158 
L 156.678314 162.307614 
L 156.759295 164.184872 
L 156.840275 189.942986 
L 157.002245 131.653838 
L 157.083226 161.000892 
L 157.164207 131.407802 
L 157.407157 205.897828 
L 157.488138 169.715794 
L 157.569119 183.249497 
L 157.650099 181.935625 
L 157.731088 174.471259 
L 157.812069 196.684605 
L 158.055011 160.950635 
L 158.136 156.694865 
L 158.216981 118.335066 
L 158.540912 206.247352 
L 158.783854 145.627527 
L 158.864835 151.514419 
L 158.945816 113.690184 
L 159.026805 152.091726 
L 159.107786 107.764412 
L 159.188766 120.614139 
L 159.269747 172.28784 
L 159.431717 139.642774 
L 159.512698 142.289899 
L 159.593678 140.174354 
L 159.674659 166.584333 
L 159.836629 127.127445 
L 159.917609 159.169358 
L 159.99859 141.333928 
L 160.079571 145.976744 
L 160.160552 159.425193 
L 160.241541 145.413925 
L 160.403502 172.255044 
L 160.484483 165.212911 
L 160.565464 199.850019 
L 160.808414 143.652418 
L 160.889395 146.403723 
L 160.970376 165.345866 
L 161.051365 134.73941 
L 161.132345 140.362833 
L 161.294307 178.649316 
L 161.375288 175.95887 
L 161.537257 127.172129 
L 161.618238 151.113584 
L 161.7802 133.119626 
L 161.942169 181.370073 
L 162.104131 132.951636 
L 162.185112 179.838289 
L 162.347081 129.10033 
L 162.509043 187.720854 
L 162.671004 137.218492 
L 162.751985 152.004083 
L 162.832974 159.284505 
L 162.913955 131.21592 
L 162.994935 157.691493 
L 163.075916 152.775783 
L 163.156897 124.156362 
L 163.237886 126.372823 
L 163.480828 185.070969 
L 163.561809 188.088535 
L 163.642798 185.775416 
L 163.804759 126.385369 
L 164.047702 182.649002 
L 164.12869 167.423974 
L 164.209671 182.266933 
L 164.290652 157.392346 
L 164.452614 180.591721 
L 164.695564 137.925794 
L 164.857526 203.364499 
L 164.938514 163.563762 
L 165.019495 168.712158 
L 165.100476 163.991934 
L 165.181457 133.757805 
L 165.262437 143.231034 
L 165.343418 152.344755 
L 165.505384 129.51269 
L 165.586365 153.259197 
L 165.667346 146.96318 
L 165.748326 131.64162 
L 165.829315 132.432499 
L 165.910296 137.944116 
L 166.072258 209.039219 
L 166.234219 152.987913 
L 166.47717 189.730297 
L 166.55815 189.776316 
L 166.72012 177.965256 
L 166.801101 163.432798 
L 166.882082 170.496165 
L 167.125024 131.656451 
L 167.286993 169.90609 
L 167.367974 149.894011 
L 167.448955 154.736851 
L 167.529936 168.772491 
L 167.610925 159.253491 
L 167.691905 118.09282 
L 167.772886 124.123102 
L 167.853867 119.243744 
L 167.934848 120.821325 
L 168.096817 167.044026 
L 168.177798 153.227821 
L 168.33976 107.197653 
L 168.42074 170.233813 
L 168.501729 139.128985 
L 168.58271 146.755697 
L 168.744672 174.199507 
L 168.987622 133.972904 
L 169.149584 191.790571 
L 169.311545 159.869759 
L 169.392534 160.987279 
L 169.473515 142.243356 
L 169.554495 146.12198 
L 169.716457 181.897495 
L 169.959407 161.750499 
L 170.040388 202.935325 
L 170.121369 142.652768 
L 170.28333 188.594807 
L 170.364319 170.689873 
L 170.4453 172.122069 
L 170.526281 192.515763 
L 170.769223 158.576891 
L 170.850212 185.710644 
L 170.931193 172.664387 
L 171.012174 120.494875 
L 171.093154 149.934675 
L 171.174135 138.435799 
L 171.255124 142.226846 
L 171.336105 173.077233 
L 171.417086 120.556502 
L 171.498066 139.623795 
L 171.660028 160.003946 
L 171.821998 120.884558 
L 171.902978 157.170269 
L 171.983959 154.814584 
L 172.06494 169.837678 
L 172.145921 134.816025 
L 172.30789 164.443931 
L 172.388871 144.248088 
L 172.550833 210.644329 
L 172.793783 153.494723 
L 172.955744 160.528592 
L 173.117706 130.291434 
L 173.198695 179.956072 
L 173.279676 143.536801 
L 173.360656 194.878754 
L 173.441637 173.796088 
L 173.522618 238.764536 
L 173.765568 134.742977 
L 174.008511 190.022508 
L 174.0895 182.262523 
L 174.17048 200.967215 
L 174.251461 178.949065 
L 174.332442 208.623059 
L 174.494403 156.486579 
L 174.575392 197.930157 
L 174.656373 172.848498 
L 174.737353 193.520001 
L 174.818334 189.59377 
L 174.980296 215.537924 
L 175.061285 195.609524 
L 175.142265 220.81757 
L 175.385208 183.697897 
L 175.466188 213.021094 
L 175.547177 206.620396 
L 175.628158 206.434497 
L 175.79012 186.674859 
L 175.8711 186.790467 
L 175.952081 181.080282 
L 176.03307 167.49282 
L 176.114051 178.721343 
L 176.195032 128.677265 
L 176.356993 184.304305 
L 176.437974 159.255397 
L 176.518963 159.534641 
L 176.599944 173.019217 
L 176.680924 172.849592 
L 176.761905 169.436089 
L 176.923867 129.507251 
L 177.004856 176.114075 
L 177.166817 147.651113 
L 177.247798 157.015595 
L 177.328779 188.771826 
L 177.409759 159.255295 
L 177.571729 178.478764 
L 177.65271 138.237271 
L 177.733691 168.384718 
L 177.814671 165.265734 
L 177.895652 171.041721 
L 178.057622 157.520429 
L 178.219583 187.133089 
L 178.381545 147.368264 
L 178.543514 202.035498 
L 178.624495 200.488248 
L 178.705476 186.511292 
L 178.786457 188.939694 
L 178.867437 211.746394 
L 178.948418 208.39879 
L 179.191369 143.860109 
L 179.35333 187.617794 
L 179.434311 150.035209 
L 179.5153 184.153086 
L 179.596281 183.408371 
L 179.677261 164.4122 
L 179.920204 212.962602 
L 180.082173 145.165549 
L 180.163154 183.47391 
L 180.244135 183.412087 
L 180.325116 172.924502 
L 180.406096 196.15671 
L 180.487077 147.209389 
L 180.568066 159.70548 
L 180.649047 138.532387 
L 180.811008 191.63817 
L 180.891989 181.364766 
L 180.97297 197.668815 
L 181.13494 150.55198 
L 181.21592 168.426777 
L 181.296901 187.464394 
L 181.377882 181.014822 
L 181.458863 173.090879 
L 181.620832 181.852541 
L 181.782794 184.767923 
L 181.863775 183.758308 
L 182.025736 122.070664 
L 182.187706 181.930491 
L 182.268686 181.371532 
L 182.430648 163.566941 
L 182.592618 178.262767 
L 182.754579 128.721587 
L 182.83556 169.475297 
L 182.916541 142.867326 
L 183.159491 209.305471 
L 183.240472 188.817868 
L 183.321453 217.957075 
L 183.483414 147.240383 
L 183.645384 192.431347 
L 183.969307 137.09423 
L 184.050288 141.203962 
L 184.131268 165.435878 
L 184.212257 164.728489 
L 184.293238 174.886386 
L 184.374219 199.907842 
L 184.53618 132.594229 
L 184.698142 210.04048 
L 184.779131 152.106627 
L 184.860112 164.518719 
L 184.941092 182.623701 
L 185.022073 151.718081 
L 185.103054 162.727419 
L 185.184035 171.767707 
L 185.346004 157.141335 
L 185.426985 192.551603 
L 185.507966 158.58585 
L 185.669927 190.834086 
L 185.993859 163.895833 
L 186.074839 159.404461 
L 186.15582 147.129282 
L 186.236801 192.684011 
L 186.317782 189.83805 
L 186.39877 200.770258 
L 186.641713 136.920773 
L 186.965644 185.73355 
L 187.127605 169.056056 
L 187.208586 202.243177 
L 187.370548 143.616165 
L 187.451537 152.879676 
L 187.532517 133.574455 
L 187.694479 168.643071 
L 187.856441 148.677468 
L 188.180372 196.588432 
L 188.261352 147.753841 
L 188.342333 164.187119 
L 188.504295 144.387724 
L 188.585284 148.659825 
L 188.666264 198.788924 
L 188.747245 197.90852 
L 188.828226 190.403732 
L 188.909207 150.519491 
L 188.990187 190.908872 
L 189.152157 137.170623 
L 189.314119 139.637902 
L 189.47608 186.287442 
L 189.557061 172.045455 
L 189.638042 179.364942 
L 189.719031 147.198206 
L 189.800011 172.536804 
L 189.880992 128.981097 
L 189.961973 195.029316 
L 190.123934 139.890445 
L 190.285904 152.597507 
L 190.366885 135.04868 
L 190.690808 223.410232 
L 190.771789 212.051191 
L 190.933758 135.376739 
L 191.09572 191.106923 
L 191.176701 211.031695 
L 191.257681 177.558457 
L 191.338662 192.04764 
L 191.419651 165.609543 
L 191.500632 166.497823 
L 191.581613 202.723392 
L 191.662593 201.097263 
L 191.743574 136.463538 
L 191.824555 154.541524 
L 191.905536 161.333863 
L 191.986525 182.860871 
L 192.067505 150.828519 
L 192.229467 181.20686 
L 192.310448 166.278159 
L 192.391428 173.136942 
L 192.472409 166.770863 
L 192.553398 191.820432 
L 192.634379 184.012584 
L 192.71536 183.466504 
L 192.79634 197.136477 
L 192.958302 153.282458 
L 193.120268 167.479068 
L 193.201257 144.257261 
L 193.282238 146.090146 
L 193.363219 157.581997 
L 193.4442 136.688812 
L 193.606161 169.844507 
L 193.687142 159.90071 
L 193.768131 160.324385 
L 193.930092 126.801126 
L 194.173035 171.403814 
L 194.335004 189.342339 
L 194.496966 168.693082 
L 194.577947 226.171101 
L 194.820889 133.493903 
L 194.982859 184.324741 
L 195.063839 190.433328 
L 195.14482 166.043749 
L 195.225801 198.074736 
L 195.387762 158.630759 
L 195.468743 186.245941 
L 195.549732 162.11308 
L 195.630713 167.592767 
L 195.711694 197.942633 
L 195.873655 186.220936 
L 195.954636 186.220936 
L 196.035617 217.845727 
L 196.197586 148.879194 
L 196.440529 195.213792 
L 196.521509 216.381069 
L 196.683471 191.16331 
L 196.76446 194.22075 
L 196.845441 169.639295 
L 196.926421 181.088842 
L 197.007402 175.043455 
L 197.088383 179.936037 
L 197.250344 146.724886 
L 197.412314 190.217488 
L 197.493295 186.4428 
L 197.574276 166.601678 
L 197.736237 181.039648 
L 197.817218 147.606212 
L 197.898199 158.608937 
L 197.979179 145.912877 
L 198.141149 163.653829 
L 198.384091 180.013921 
L 198.546053 156.409917 
L 198.627042 110.167926 
L 198.708022 141.951233 
L 198.789003 123.075113 
L 198.869984 127.203278 
L 198.950965 147.936966 
L 199.031946 137.032015 
L 199.112926 170.06146 
L 199.193907 138.611826 
L 199.274896 173.840009 
L 199.355877 151.505264 
L 199.436857 165.566398 
L 199.6798 130.944847 
L 199.841769 185.432813 
L 199.92275 150.375611 
L 200.003731 156.771498 
L 200.084712 195.310891 
L 200.246673 140.298139 
L 200.327654 174.223821 
L 200.408635 165.572798 
L 200.489616 139.400461 
L 200.570604 168.585599 
L 200.651585 164.683208 
L 200.813547 190.435044 
L 200.894528 164.417513 
L 201.056489 198.318266 
L 201.218459 167.845994 
L 201.38042 186.557669 
L 201.461401 183.409302 
L 201.623363 201.725444 
L 201.785324 178.272428 
L 201.947294 203.278669 
L 202.190236 156.141482 
L 202.271213 189.859814 
L 202.433174 150.224356 
L 202.514163 214.775558 
L 202.595144 180.96785 
L 202.676125 212.13568 
L 202.757105 196.586551 
L 202.838086 156.385126 
L 202.919067 172.343089 
L 203.000048 167.268722 
L 203.162017 185.662799 
L 203.242998 174.250678 
L 203.323979 193.68823 
L 203.48594 153.880208 
L 203.647902 213.910341 
L 203.728883 205.561985 
L 203.890852 216.355748 
L 204.133795 180.190582 
L 204.214775 199.830324 
L 204.295756 171.321926 
L 204.376737 191.683601 
L 204.457726 177.58095 
L 204.538707 200.868006 
L 204.700668 131.331993 
L 204.86263 179.613687 
L 205.024591 154.212674 
L 205.105572 157.857157 
L 205.267542 144.313984 
L 205.429503 167.823234 
L 205.510484 170.610759 
L 205.672445 131.219412 
L 205.834415 149.495022 
L 205.915396 123.058744 
L 205.996377 135.317619 
L 206.077357 127.224749 
L 206.158338 168.523365 
L 206.239319 161.796506 
L 206.3203 178.140341 
L 206.40128 135.707798 
L 206.482261 189.352363 
L 206.56325 132.452647 
L 206.644231 167.366747 
L 206.725212 158.453672 
L 206.887173 197.255197 
L 206.968154 182.787052 
L 207.130115 208.720151 
L 207.373066 162.507903 
L 207.454047 174.430025 
L 207.535027 158.438275 
L 207.616008 181.478534 
L 207.696989 155.400873 
L 207.77797 164.384637 
L 208.02092 196.428641 
L 208.101901 180.142061 
L 208.182882 188.804946 
L 208.263862 148.331873 
L 208.344843 158.601233 
L 208.425824 195.77877 
L 208.506805 193.113681 
L 208.587786 207.101122 
L 208.749755 163.547916 
L 208.830736 193.822856 
L 209.073678 154.599848 
L 209.23564 166.755188 
L 209.316629 164.030586 
L 209.397609 165.829845 
L 209.47859 198.194779 
L 209.802513 139.239544 
L 209.883494 168.52929 
L 210.045464 136.329138 
L 210.126444 174.806369 
L 210.207425 168.686394 
L 210.288406 124.100073 
L 210.531348 176.801228 
L 210.612329 167.089737 
L 210.69331 178.875613 
L 210.774299 169.773069 
L 210.855279 177.740576 
L 210.93626 209.485255 
L 211.017241 176.99427 
L 211.179202 223.488137 
L 211.341164 172.243443 
L 211.422145 200.705284 
L 211.584112 141.91248 
L 211.665092 142.737592 
L 211.746073 126.117669 
L 211.989015 169.775361 
L 212.069996 171.623159 
L 212.150977 202.172313 
L 212.312947 164.367084 
L 212.555889 208.534767 
L 212.717851 170.980873 
L 212.798831 202.6385 
L 212.879812 196.194204 
L 213.041782 160.182447 
L 213.203743 187.52907 
L 213.284724 177.414571 
L 213.365705 180.150651 
L 213.446686 193.101093 
L 213.527666 167.964586 
L 213.689628 199.953244 
L 213.770617 196.847608 
L 213.932578 157.702506 
L 214.013559 158.943208 
L 214.256501 214.273651 
L 214.418463 190.855913 
L 214.580432 214.521864 
L 214.742394 175.226233 
L 214.823375 196.045669 
L 214.985336 154.907008 
L 215.066317 211.262096 
L 215.309259 151.343145 
L 215.471229 215.102893 
L 215.55221 178.264632 
L 215.633191 200.546799 
L 215.795152 167.763398 
L 215.876133 165.185418 
L 216.119083 185.971507 
L 216.200064 183.377041 
L 216.362026 212.208992 
L 216.443006 169.802605 
L 216.523987 194.491191 
L 216.604968 181.174137 
L 216.685949 209.747036 
L 216.766929 206.728205 
L 216.84791 214.828549 
L 216.928899 198.229388 
L 217.00988 211.277444 
L 217.090861 204.205323 
L 217.171841 171.644104 
L 217.252822 199.451755 
L 217.414784 174.114041 
L 217.657726 153.460677 
L 217.738707 148.326277 
L 217.819696 179.090521 
L 217.900676 173.964571 
L 217.981657 163.340632 
L 218.062638 191.587835 
L 218.143619 175.623473 
L 218.224599 193.106282 
L 218.30558 186.830601 
L 218.386561 123.566259 
L 218.467542 160.18498 
L 218.548522 148.538074 
L 218.629511 135.631531 
L 218.791473 166.271693 
L 218.872454 165.115857 
L 218.953434 161.094336 
L 219.034415 163.927847 
L 219.115396 160.136914 
L 219.196377 130.220594 
L 219.277357 132.582366 
L 219.439327 159.376386 
L 219.601289 127.923928 
L 219.76325 163.758778 
L 219.844231 157.043351 
L 219.925212 160.04614 
L 220.087173 127.328493 
L 220.249135 203.720455 
L 220.330124 206.272416 
L 220.411104 223.074275 
L 220.573066 190.526966 
L 220.654047 202.664664 
L 220.977977 138.400379 
L 221.139946 173.57419 
L 221.220927 166.096335 
L 221.382889 139.219378 
L 221.463869 132.871825 
L 221.706812 194.351978 
L 221.868773 156.868246 
L 222.111724 205.395114 
L 222.273685 213.654048 
L 222.354666 210.308807 
L 222.435647 187.292057 
L 222.516627 195.087698 
L 222.597608 175.531284 
L 222.75957 216.563591 
L 222.921539 170.589462 
L 223.00252 182.385376 
L 223.083501 171.12709 
L 223.164482 183.5999 
L 223.245462 153.014848 
L 223.407424 192.14336 
L 223.650366 109.571454 
L 223.731347 203.48518 
L 223.812336 178.277728 
L 223.893317 232.348105 
L 224.055278 162.106165 
L 224.136259 167.207581 
L 224.21724 161.076354 
L 224.29822 168.21374 
L 224.379201 149.571493 
L 224.460182 196.700578 
L 224.541163 184.167401 
L 224.622144 178.680468 
L 224.703132 135.194333 
L 224.784113 139.244089 
L 224.865094 192.689173 
L 224.946075 144.535057 
L 225.027055 145.555658 
L 225.108036 159.265696 
L 225.189017 150.683728 
L 225.350979 162.730314 
L 225.431959 192.44252 
L 225.593929 170.429883 
L 225.67491 198.163782 
L 225.755891 190.851502 
L 225.836871 184.41786 
L 225.917852 187.130449 
L 225.998833 181.675013 
L 226.160794 203.839843 
L 226.322756 178.881014 
L 226.403737 157.478484 
L 226.484717 164.149399 
L 226.565706 198.083282 
L 226.727668 145.768899 
L 226.808649 153.009928 
L 226.889629 186.384815 
L 227.132572 133.59099 
L 227.213552 138.481625 
L 227.294533 160.703043 
L 227.375514 154.850875 
L 227.456495 123.265644 
L 227.537484 128.383467 
L 227.618464 149.248559 
L 227.699445 144.365965 
L 227.780426 149.157807 
L 227.861407 178.897465 
L 227.942387 86.071415 
L 228.104349 159.004894 
L 228.18533 155.685689 
L 228.26631 197.135848 
L 228.347291 152.395919 
L 228.428272 198.394311 
L 228.590242 157.6582 
L 228.671222 187.358802 
L 228.752203 184.476432 
L 228.914165 176.047721 
L 229.157107 113.569063 
L 229.238088 187.488284 
L 229.319069 178.702244 
L 229.481038 142.873709 
L 229.643 163.669017 
L 229.804961 151.359664 
L 229.885941 183.394265 
L 229.966922 178.296891 
L 230.047903 131.053295 
L 230.128884 135.784686 
L 230.290845 213.735497 
L 230.452807 156.834344 
L 230.533796 170.090203 
L 230.614776 208.783683 
L 230.695757 201.532406 
L 230.857719 124.430539 
L 231.100661 188.099392 
L 231.181642 182.811149 
L 231.262622 196.28166 
L 231.343603 194.997997 
L 231.505565 163.314583 
L 231.667534 202.086345 
L 231.829496 140.518437 
L 231.910477 151.373799 
L 231.991457 182.174181 
L 232.153419 137.722666 
L 232.2344 138.660828 
L 232.315381 162.684971 
L 232.396361 132.603307 
L 232.477342 181.686022 
L 232.558323 120.577679 
L 232.639312 151.256836 
L 232.720292 150.146188 
L 232.882254 126.753386 
L 232.963235 164.290155 
L 233.044216 150.719857 
L 233.125196 130.97937 
L 233.206177 146.863184 
L 233.287158 119.539027 
L 233.368139 125.632979 
L 233.449119 173.101728 
L 233.5301 147.945508 
L 233.611089 161.843103 
L 233.69207 149.53122 
L 233.773051 160.399446 
L 233.935012 124.447471 
L 234.096974 168.874769 
L 234.177954 129.170882 
L 234.339916 154.043252 
L 234.501877 121.189894 
L 234.582858 122.406138 
L 234.663839 127.506818 
L 234.825809 169.437532 
L 234.906789 162.673444 
L 234.98777 125.219162 
L 235.068751 140.285796 
L 235.149732 124.486278 
L 235.230712 125.782305 
L 235.311693 161.289805 
L 235.392674 158.315408 
L 235.473655 156.133019 
L 235.716597 112.711926 
L 235.797578 113.118347 
L 235.878567 148.495059 
L 236.040528 133.487928 
L 236.121509 125.830997 
L 236.364451 167.399954 
L 236.445432 128.450921 
L 236.526413 156.941456 
L 236.607394 122.68716 
L 236.688374 131.214678 
L 236.850336 155.20113 
L 236.931317 170.812885 
L 237.012306 145.030909 
L 237.093286 163.357275 
L 237.174267 143.442504 
L 237.255248 148.410166 
L 237.336229 181.869518 
L 237.579171 90.887894 
L 237.822113 165.540995 
L 237.903094 150.90202 
L 237.984075 143.987656 
L 238.146036 103.258557 
L 238.469967 156.32647 
L 238.550948 125.538645 
L 238.631929 127.406978 
L 239.036833 196.701947 
L 239.117816 184.50192 
L 239.198796 153.436956 
L 239.279777 180.711218 
L 239.441747 142.746439 
L 239.522728 189.23397 
L 239.603708 151.12969 
L 239.684689 186.660932 
L 239.76567 181.581703 
L 240.089593 168.926931 
L 240.170574 137.695388 
L 240.251554 158.543833 
L 240.332535 148.961784 
L 240.494497 192.519361 
L 240.575477 149.451744 
L 240.656466 165.21757 
L 240.899409 119.648542 
L 241.223332 167.688072 
L 241.304312 120.297772 
L 241.385293 172.044448 
L 241.466274 144.574417 
L 241.547255 154.618101 
L 241.709216 203.491913 
L 241.790197 193.586835 
L 241.871178 211.603891 
L 241.952167 207.632105 
L 242.033147 165.257604 
L 242.195109 216.553158 
L 242.438051 140.476705 
L 242.842955 213.780994 
L 242.923936 177.577318 
L 243.004917 198.54577 
L 243.166878 157.433479 
L 243.247867 171.401974 
L 243.328848 126.451708 
L 243.490809 168.861293 
L 243.57179 167.399187 
L 243.733752 192.583965 
L 243.895713 159.265235 
L 243.976694 156.945084 
L 244.219636 168.312557 
L 244.300617 214.565751 
L 244.462579 140.747264 
L 244.543559 155.658398 
L 244.62454 145.962392 
L 244.705529 164.118621 
L 244.867491 126.399277 
L 245.029452 157.413549 
L 245.110433 158.421139 
L 245.191414 169.913991 
L 245.272394 138.651595 
L 245.434356 187.887748 
L 245.515337 201.533831 
L 245.596317 180.120214 
L 245.677298 187.096415 
L 245.758279 191.909041 
L 245.83926 156.97929 
L 245.92024 162.487317 
L 246.163191 199.116925 
L 246.244172 186.76798 
L 246.325152 193.683812 
L 246.406133 143.087265 
L 246.568095 193.330006 
L 246.649075 187.643485 
L 246.730056 195.442428 
L 246.811037 195.327151 
L 246.892018 196.027018 
L 246.972999 165.69564 
L 247.13496 195.559119 
L 247.215941 186.322193 
L 247.377902 202.445795 
L 247.458883 194.891173 
L 247.539864 175.315064 
L 247.701834 210.276149 
L 247.863795 182.579531 
L 247.944776 185.878919 
L 248.025757 177.877357 
L 248.268695 139.69704 
L 248.430656 164.429726 
L 248.511637 131.599116 
L 248.673599 210.638589 
L 248.83556 168.617478 
L 248.916541 201.407953 
L 249.078503 173.262603 
L 249.240472 196.43424 
L 249.321453 165.553648 
L 249.402434 175.972845 
L 249.564395 190.439431 
L 249.645376 195.031331 
L 249.726357 208.086755 
L 249.888318 167.539197 
L 249.969299 166.790295 
L 250.131261 183.835386 
L 250.212241 176.663487 
L 250.374203 222.857554 
L 250.455184 222.066235 
L 250.536164 177.165405 
L 250.617145 179.518459 
L 250.779115 213.276332 
L 250.860096 208.830141 
L 250.941076 200.689814 
L 251.022057 218.867363 
L 251.103038 215.691677 
L 251.184019 183.533882 
L 251.264999 191.876045 
L 251.34598 196.277242 
L 251.426961 195.512762 
L 251.507942 178.484374 
L 251.588922 197.410828 
L 251.831865 127.548587 
L 252.074807 184.755168 
L 252.155788 169.294337 
L 252.236769 172.712772 
L 252.479719 226.95326 
L 252.641681 172.260942 
L 252.803642 195.925683 
L 252.884623 195.072969 
L 252.965604 222.761746 
L 253.046584 217.991963 
L 253.127565 201.262187 
L 253.289527 220.036503 
L 253.370507 221.075875 
L 253.532469 233.737571 
L 253.694431 199.014708 
L 253.775411 205.03717 
L 253.856392 238.176683 
L 254.018354 175.837164 
L 254.099334 195.291742 
L 254.180315 163.259784 
L 254.342285 200.47352 
L 254.423266 208.076469 
L 254.504246 187.825388 
L 254.585227 222.441395 
L 254.666208 219.99383 
L 254.747189 221.279237 
L 254.828169 206.193923 
L 254.90915 229.939732 
L 254.990131 223.332748 
L 255.233073 252.518758 
L 255.314054 200.628157 
L 255.395035 203.737679 
L 255.476015 177.174956 
L 255.556996 198.880943 
L 255.637977 195.977215 
L 255.718958 176.889112 
L 255.880919 222.638632 
L 256.123862 200.399567 
L 256.285831 186.541223 
L 256.366812 187.332882 
L 256.447793 192.614613 
L 256.528774 179.228319 
L 256.609754 201.114702 
L 256.771716 161.406385 
L 256.852697 172.208101 
L 256.933677 198.03384 
L 257.014658 191.850631 
L 257.095639 190.829664 
L 257.17662 205.049849 
L 257.2576 181.694976 
L 257.338581 185.99814 
L 257.419562 203.478979 
L 257.500541 194.387173 
L 257.662503 239.683236 
L 257.986426 151.332499 
L 258.067407 219.343051 
L 258.148388 216.03153 
L 258.229376 210.438549 
L 258.310357 157.298139 
L 258.472319 195.30437 
L 258.553299 203.910166 
L 258.63428 202.877986 
L 258.796242 157.719306 
L 258.877223 191.295113 
L 258.958203 185.917441 
L 259.039184 182.171458 
L 259.201146 207.717804 
L 259.282126 202.371502 
L 259.525069 215.634069 
L 259.606049 156.990228 
L 259.68703 167.206495 
L 259.768011 172.311873 
L 259.848992 211.049221 
L 259.929973 201.277427 
L 260.010953 165.863961 
L 260.091934 166.334787 
L 260.334876 235.481633 
L 260.577827 173.812348 
L 260.739788 229.076355 
L 260.820769 207.723078 
L 260.982731 218.444013 
L 261.063711 188.620302 
L 261.225673 202.228085 
L 261.387634 210.85615 
L 261.468615 199.198196 
L 261.549596 169.314288 
L 261.630577 174.540473 
L 261.792538 223.660078 
L 261.873519 223.354222 
L 262.035481 169.822541 
L 262.116461 205.216438 
L 262.197442 199.947168 
L 262.278423 168.173274 
L 262.359404 173.753374 
L 262.440384 181.384927 
L 262.521365 207.557695 
L 262.602346 205.494849 
L 262.845288 177.778414 
L 263.007258 212.585946 
L 263.088239 150.554759 
L 263.2502 197.13945 
L 263.412162 173.352668 
L 263.493142 188.335393 
L 263.574123 148.351856 
L 263.655104 193.857179 
L 263.736085 162.300104 
L 263.817065 177.556333 
L 264.060008 146.486846 
L 264.30295 172.946121 
L 264.383931 164.90299 
L 264.545892 182.980197 
L 264.626873 193.465168 
L 264.707854 178.574131 
L 264.788835 207.416385 
L 264.950796 182.280577 
L 265.031777 191.909191 
L 265.112758 189.837335 
L 265.193739 173.234932 
L 265.274719 179.245981 
L 265.3557 167.090637 
L 265.436681 188.41516 
L 265.517662 182.272642 
L 265.598642 176.561227 
L 265.679623 197.017523 
L 265.760604 158.706547 
L 265.841593 210.545749 
L 266.003554 143.392322 
L 266.246497 178.511283 
L 266.408458 131.916944 
L 266.489439 175.87102 
L 266.57042 172.328309 
L 266.6514 170.477473 
L 266.732378 188.779031 
L 266.813359 163.743315 
L 266.89434 208.272484 
L 267.056301 177.799393 
L 267.299243 201.80592 
L 267.380224 195.481068 
L 267.461205 202.376963 
L 267.542186 196.185777 
L 267.623167 218.682194 
L 267.785128 167.987525 
L 267.866109 203.508617 
L 268.02807 160.464875 
L 268.109051 214.12352 
L 268.190032 205.224074 
L 268.271013 210.470896 
L 268.513955 160.37082 
L 268.675916 187.861342 
L 268.918859 202.363889 
L 268.99984 196.714299 
L 269.080828 200.34903 
L 269.161801 217.660458 
L 269.404751 168.072607 
L 269.485732 186.729995 
L 269.566713 183.113682 
L 269.647694 182.374269 
L 269.728675 232.852372 
L 269.809655 227.961991 
L 269.971617 180.520336 
L 270.052598 184.263768 
L 270.133578 203.114238 
L 270.214559 195.361602 
L 270.29554 218.181405 
L 270.376521 204.076058 
L 270.619463 222.64402 
L 270.700444 177.785841 
L 270.781424 216.58904 
L 270.862405 163.36775 
L 271.024367 198.259318 
L 271.105348 177.093622 
L 271.267309 216.002284 
L 271.34829 213.136048 
L 271.429271 214.4728 
L 271.510251 188.988972 
L 271.834174 231.739058 
L 271.996136 189.433754 
L 272.077117 185.70379 
L 272.239078 196.707759 
L 272.320059 263.277728 
L 272.482021 183.711201 
L 272.643982 251.073756 
L 272.724963 200.987278 
L 272.886924 255.015111 
L 273.048886 176.298274 
L 273.129867 205.265916 
L 273.210847 198.366117 
L 273.291828 202.784155 
L 273.372809 220.51131 
L 273.45379 215.5831 
L 273.69674 173.227562 
L 273.777721 189.334248 
L 273.858702 186.505619 
L 273.939682 189.003369 
L 274.020663 195.118054 
L 274.101644 177.006853 
L 274.182625 231.046046 
L 274.263606 220.238258 
L 274.344586 207.284842 
L 274.425567 161.073636 
L 274.506548 169.294731 
L 274.587529 162.016517 
L 274.830471 203.060051 
L 274.911452 178.442313 
L 274.992432 187.716492 
L 275.073413 214.346136 
L 275.397336 136.289075 
L 275.478317 161.4473 
L 275.640279 141.791608 
L 275.721259 202.574751 
L 275.80224 178.045018 
L 275.883226 191.968382 
L 275.964207 163.718212 
L 276.126168 206.948227 
L 276.28813 156.024571 
L 276.369111 194.904901 
L 276.450091 149.220553 
L 276.531072 161.469583 
L 276.612053 171.637603 
L 276.693034 224.374588 
L 276.854995 193.850874 
L 276.935976 196.23246 
L 277.016957 217.851575 
L 277.259899 185.684234 
L 277.34088 158.154426 
L 277.502841 189.786281 
L 277.583822 189.278603 
L 277.664803 190.285062 
L 277.745784 221.67996 
L 277.826764 216.908382 
L 277.907745 208.875359 
L 277.988726 214.765587 
L 278.069707 213.950908 
L 278.312649 165.112468 
L 278.39363 190.763825 
L 278.555591 161.872859 
L 278.717553 201.384967 
L 278.798534 156.560768 
L 278.879514 187.178212 
L 278.960495 138.047187 
L 279.041476 148.31328 
L 279.284418 121.023821 
L 279.608341 196.972371 
L 279.689322 160.431514 
L 279.770303 203.640693 
L 279.851283 200.23741 
L 279.932264 190.490757 
L 280.013245 150.633225 
L 280.256187 249.793431 
L 280.337168 235.810458 
L 280.58011 195.616664 
L 280.661091 211.92762 
L 280.742072 177.521425 
L 280.823053 217.349151 
L 280.904033 175.128467 
L 281.065995 204.020574 
L 281.146976 181.720299 
L 281.227956 220.908268 
L 281.308937 207.551024 
L 281.389918 168.594383 
L 281.470899 192.467217 
L 281.55188 187.01817 
L 281.713841 198.107656 
L 281.79483 185.031283 
L 281.875803 211.657263 
L 282.118753 168.282961 
L 282.361687 197.580798 
L 282.442676 199.274499 
L 282.604638 176.914581 
L 282.766599 200.818161 
L 282.84758 180.375702 
L 283.009541 196.493784 
L 283.090522 171.044227 
L 283.171503 197.106166 
L 283.252484 190.813643 
L 283.333465 204.073855 
L 283.414445 187.736159 
L 283.576407 212.066977 
L 283.657388 196.271761 
L 283.819349 231.503574 
L 284.062291 182.969705 
L 284.224253 190.328875 
L 284.305234 207.762347 
L 284.386214 193.509563 
L 284.467195 212.915721 
L 284.710138 187.732846 
L 284.95308 198.689127 
L 285.034061 176.139574 
L 285.115042 200.783199 
L 285.196022 169.32812 
L 285.357984 195.966819 
L 285.600926 162.111844 
L 285.762888 198.929477 
L 285.924849 180.995814 
L 286.248772 216.508244 
L 286.329753 195.065694 
L 286.410734 196.808723 
L 286.572695 245.505837 
L 286.653668 249.264167 
L 286.734657 215.159172 
L 286.81563 282.010836 
L 286.977599 239.488442 
L 287.058572 234.442792 
L 287.220542 190.595028 
L 287.301522 226.385503 
L 287.382503 220.087933 
L 287.463476 221.985675 
L 287.544457 220.078868 
L 287.625437 194.646855 
L 287.706418 219.309639 
L 287.787399 212.120817 
L 287.86838 200.245813 
L 287.94936 205.597751 
L 288.030341 192.669305 
L 288.111322 230.93469 
L 288.192303 187.150624 
L 288.273283 190.406206 
L 288.354264 185.637042 
L 288.435245 199.113265 
L 288.516226 194.688791 
L 288.597206 187.185995 
L 288.678187 223.830045 
L 288.759168 205.79619 
L 288.840149 213.444423 
L 288.92113 205.637787 
L 289.083091 224.48458 
L 289.164072 192.042789 
L 289.245053 253.633684 
L 289.326033 228.404326 
L 289.407014 255.755059 
L 289.568976 206.982254 
L 289.649956 207.670678 
L 289.730937 193.482136 
L 289.892899 259.443591 
L 290.05486 174.04195 
L 290.135841 187.104738 
L 290.297803 221.375889 
L 290.378783 216.302301 
L 290.459764 202.272613 
L 290.540745 229.445786 
L 290.621726 225.459386 
L 290.702706 236.306134 
L 290.864668 192.419098 
L 290.945649 247.714967 
L 291.026629 227.42001 
L 291.10761 177.930257 
L 291.269572 221.09566 
L 291.350553 204.604189 
L 291.431533 224.830097 
L 291.674476 187.108166 
L 291.755456 218.79041 
L 291.836437 213.927606 
L 291.998399 188.810446 
L 292.079379 215.555176 
L 292.16036 206.001954 
L 292.322322 235.706028 
L 292.403302 207.127956 
L 292.484283 216.79503 
L 292.565264 215.327807 
L 292.727226 238.062099 
L 292.808206 239.517228 
L 292.970168 181.24528 
L 293.21311 258.017635 
L 293.294091 225.685966 
L 293.375072 240.228222 
L 293.456052 220.893568 
L 293.537033 263.040894 
L 293.618014 260.057766 
L 293.779975 248.061149 
L 293.860956 213.657015 
L 293.941937 259.366883 
L 294.022918 248.30991 
L 294.26586 190.85783 
L 294.346841 195.610079 
L 294.427822 186.990412 
L 294.589784 244.566696 
L 294.670765 268.336921 
L 294.913707 211.904487 
L 295.075668 232.630427 
L 295.156649 242.998095 
L 295.318611 202.485563 
L 295.399591 201.725041 
L 295.642526 238.363787 
L 295.723506 225.501857 
L 295.804487 248.367185 
L 295.885468 245.798129 
L 296.209391 161.160425 
L 296.290372 189.252333 
L 296.371353 188.584166 
L 296.533314 153.707985 
L 296.857237 228.833564 
L 296.938218 246.040581 
L 297.019199 225.424839 
L 297.18116 240.425326 
L 297.424102 170.586851 
L 297.505083 174.304212 
L 297.667045 224.708042 
L 297.748026 222.677599 
L 297.829006 170.67055 
L 297.990968 205.387724 
L 298.071949 190.596051 
L 298.152929 232.537756 
L 298.23391 212.255762 
L 298.314891 220.817661 
L 298.395872 200.422552 
L 298.476852 204.724345 
L 298.557833 206.603119 
L 298.638814 215.865791 
L 298.719795 200.09237 
L 298.800775 226.481608 
L 298.962737 206.580386 
L 299.043718 237.656498 
L 299.124699 187.883448 
L 299.205679 199.711856 
L 299.448622 236.06975 
L 299.529602 225.167079 
L 299.691564 196.643939 
L 299.772545 217.800256 
L 299.853525 210.899251 
L 299.934506 213.135897 
L 300.015487 229.751828 
L 300.258421 198.491188 
L 300.339402 224.958612 
L 300.420383 216.841203 
L 300.582344 235.339116 
L 300.663325 229.440276 
L 300.825286 243.531607 
L 300.987248 201.939853 
L 301.14921 215.452665 
L 301.23019 205.0619 
L 301.311171 226.365087 
L 301.392152 222.699878 
L 301.554113 243.922906 
L 301.635094 236.826716 
L 301.716075 218.686918 
L 301.797056 238.900311 
L 301.878036 173.889626 
L 301.959017 222.124113 
L 302.039998 212.741773 
L 302.120979 200.064596 
L 302.20196 215.736544 
L 302.28294 195.238282 
L 302.363921 201.138828 
L 302.444902 203.216997 
L 302.525883 186.343565 
L 302.606863 241.013323 
L 302.687844 224.620231 
L 302.768825 219.489336 
L 302.849806 244.485681 
L 302.930786 214.027168 
L 303.011767 240.557488 
L 303.092748 240.374675 
L 303.254709 192.576546 
L 303.497638 231.415051 
L 303.578618 239.342937 
L 303.902541 189.23605 
L 304.145484 214.456268 
L 304.226464 207.151414 
L 304.307445 164.703368 
L 304.550387 231.188983 
L 304.631368 216.713655 
L 304.712349 242.980442 
L 304.874311 202.306882 
L 304.955291 234.259571 
L 305.036272 207.51472 
L 305.198234 240.913082 
L 305.279214 239.609014 
L 305.360195 234.797388 
L 305.441176 258.221808 
L 305.522157 256.524336 
L 305.684118 216.278582 
L 305.765099 188.002132 
L 305.84608 221.094868 
L 305.927061 201.147436 
L 306.008041 207.724741 
L 306.169995 246.995566 
L 306.493918 145.770282 
L 306.574899 179.49754 
L 306.655879 163.629087 
L 306.817841 218.651281 
L 306.898822 183.175676 
L 307.060783 263.442658 
L 307.141764 230.865999 
L 307.222745 208.907331 
L 307.303725 219.376023 
L 307.384706 195.857128 
L 307.465687 209.358834 
L 307.546668 247.436796 
L 307.627648 246.704062 
L 307.78961 186.274554 
L 308.032552 203.822823 
L 308.194514 178.491053 
L 308.356475 198.373995 
L 308.437456 232.047041 
L 308.518437 211.25341 
L 308.599418 215.70216 
L 308.680398 215.877663 
L 308.842352 190.196052 
L 308.923333 187.01384 
L 309.004313 218.555084 
L 309.166275 177.245366 
L 309.409217 256.903697 
L 309.490198 239.563359 
L 309.571179 259.100123 
L 309.814121 195.898391 
L 309.976083 248.052455 
L 310.057063 212.063544 
L 310.138044 214.322425 
L 310.300006 249.492397 
L 310.461967 216.528327 
L 310.623929 251.714594 
L 310.704909 255.671686 
L 310.78589 218.771552 
L 310.866871 221.136924 
L 310.947852 199.27145 
L 311.109805 228.446794 
L 311.190786 220.432548 
L 311.352747 243.082745 
L 311.433728 240.05628 
L 311.59569 203.909567 
L 311.676671 223.633125 
L 311.757651 222.688469 
L 312.081574 265.124358 
L 312.162555 224.357852 
L 312.243536 254.830599 
L 312.324517 222.596549 
L 312.405497 231.738631 
L 312.567459 253.192419 
L 312.729425 235.055028 
L 312.810406 205.390723 
L 312.891386 234.17486 
L 312.972367 199.43471 
L 313.134329 256.860813 
L 313.215309 204.159669 
L 313.296282 238.853448 
L 313.458244 192.161651 
L 313.539224 199.935074 
L 313.620205 207.209243 
L 313.701186 245.895385 
L 313.782167 233.662578 
L 313.944128 207.175865 
L 314.025109 228.780588 
L 314.187071 188.244679 
L 314.268051 181.471096 
L 314.430013 255.817141 
L 314.591974 190.117545 
L 314.672955 197.83514 
L 314.753936 221.182322 
L 314.834917 207.291809 
L 314.915897 224.870534 
L 314.996878 203.704894 
L 315.15884 291.027818 
L 315.239812 238.178645 
L 315.320793 249.01046 
L 315.482755 262.101984 
L 315.563735 214.101869 
L 315.644716 217.040335 
L 315.725697 222.450854 
L 315.887658 194.603371 
L 316.292562 246.839134 
L 316.373543 219.521013 
L 316.454524 241.725363 
L 316.535505 226.501165 
L 316.616485 246.71221 
L 316.697466 218.943357 
L 316.778447 233.635331 
L 316.859428 233.590413 
L 317.021389 206.918447 
L 317.102362 210.996819 
L 317.183343 274.634522 
L 317.345304 195.126848 
L 317.426285 231.049724 
L 317.507266 203.701314 
L 317.588246 227.426595 
L 317.669227 173.500763 
L 317.912169 225.222298 
L 318.074131 204.017683 
L 318.155112 225.380362 
L 318.479035 180.892906 
L 318.560016 185.38143 
L 318.640996 182.232488 
L 318.721977 238.543729 
L 318.802958 190.162477 
L 318.883939 231.055155 
L 318.964911 180.691724 
L 319.126873 244.925092 
L 319.288834 261.970329 
L 319.369815 212.850051 
L 319.450796 234.202045 
L 319.531777 230.949698 
L 319.612757 206.59629 
L 319.693738 237.238026 
L 319.8557 205.826488 
L 319.93668 198.433699 
L 320.017661 221.389168 
L 320.098642 204.873682 
L 320.179623 209.942725 
L 320.260604 232.308017 
L 320.341584 209.206244 
L 320.422565 249.894996 
L 320.584527 205.481749 
L 320.665499 213.280003 
L 320.908442 172.08932 
L 321.070403 211.413555 
L 321.151384 199.579299 
L 321.232365 207.8925 
L 321.313345 239.085928 
L 321.394326 210.987689 
L 321.475307 220.633094 
L 321.556288 212.439114 
L 321.637268 225.990722 
L 321.718249 216.789816 
L 321.961194 255.799874 
L 322.123155 200.008933 
L 322.285117 262.710693 
L 322.44707 205.696775 
L 322.528051 223.229139 
L 322.609032 213.386035 
L 322.690012 256.259296 
L 322.851974 199.468278 
L 323.013935 270.61431 
L 323.094916 264.827229 
L 323.175897 284.421022 
L 323.256878 274.288072 
L 323.337858 204.41127 
L 323.49982 246.843948 
L 323.580801 248.822492 
L 323.661782 260.396745 
L 323.742762 220.210531 
L 323.823743 241.326838 
L 323.985696 195.418015 
L 324.147658 282.193525 
L 324.30962 208.180068 
L 324.471581 246.847535 
L 324.633543 233.157982 
L 324.714523 251.599594 
L 324.795504 234.482206 
L 324.876485 248.980734 
L 324.957466 236.650185 
L 325.038446 248.519307 
L 325.281389 201.257556 
L 325.524323 238.431955 
L 325.605304 238.26874 
L 325.686284 204.078232 
L 325.767265 229.043452 
L 325.848246 187.957493 
L 325.929227 195.111501 
L 326.010207 173.530002 
L 326.091188 198.783052 
L 326.172169 174.255962 
L 326.25315 208.43043 
L 326.334131 157.685262 
L 326.496092 240.013682 
L 326.739034 188.27675 
L 326.981969 233.751997 
L 327.062949 229.740373 
L 327.14393 182.172384 
L 327.224911 185.452478 
L 327.305892 195.304742 
L 327.467853 179.667894 
L 327.548834 203.162205 
L 327.629815 196.346283 
L 327.710795 181.971393 
L 327.872757 205.044462 
L 327.953738 205.002003 
L 328.115699 211.155451 
L 328.439614 176.310634 
L 328.520595 184.211825 
L 328.601576 178.271468 
L 328.682556 219.072915 
L 328.763537 211.178711 
L 328.844518 171.00831 
L 329.00648 199.753211 
L 329.08746 161.633977 
L 329.168441 170.042307 
L 329.330403 192.230008 
L 329.411383 182.678522 
L 329.492364 225.155909 
L 329.573345 214.691039 
L 329.735298 223.568062 
L 330.059221 194.234401 
L 330.140202 200.034843 
L 330.221183 227.911855 
L 330.302164 213.555282 
L 330.383144 213.881729 
L 330.545106 236.008332 
L 330.707068 166.642111 
L 330.95001 240.625775 
L 331.273922 268.07913 
L 331.354903 235.656722 
L 331.435883 261.766629 
L 331.516864 253.446417 
L 331.678826 205.962614 
L 331.759806 226.005245 
L 331.921768 206.946931 
L 332.002749 241.071289 
L 332.083729 236.678145 
L 332.16471 220.562675 
L 332.245691 248.201203 
L 332.326664 215.436389 
L 332.407644 216.563774 
L 332.488625 244.314289 
L 332.569606 239.134862 
L 332.812548 223.258379 
L 332.893529 233.438416 
L 332.97451 231.048543 
L 333.05549 222.63476 
L 333.217452 281.052289 
L 333.298433 245.804364 
L 333.379414 246.127499 
L 333.460394 245.174563 
L 333.541375 241.442372 
L 333.622348 232.415085 
L 333.703328 239.16544 
L 333.86529 220.628756 
L 333.946271 221.326425 
L 334.108232 256.138353 
L 334.189213 249.167823 
L 334.351175 176.455899 
L 334.513136 209.810432 
L 334.594117 265.723753 
L 334.837051 202.407975 
L 334.918032 231.632619 
L 334.999013 172.14684 
L 335.079993 194.289425 
L 335.160974 246.932294 
L 335.241955 240.976747 
L 335.322936 252.61737 
L 335.565878 236.155359 
L 335.727839 271.396759 
L 335.80882 216.663139 
L 335.889801 231.500022 
L 335.970782 241.955445 
L 336.051754 212.333478 
L 336.375677 248.326919 
L 336.456658 256.649454 
L 336.699601 239.498791 
L 336.780581 221.80372 
L 336.861562 228.551511 
L 336.942543 252.602064 
L 337.023524 217.718406 
L 337.185485 252.444927 
L 337.266458 236.1438 
L 337.347439 262.011598 
L 337.590381 211.953536 
L 337.671362 230.804477 
L 337.833323 208.986395 
L 337.995285 234.940914 
L 338.076265 205.894781 
L 338.157246 241.176505 
L 338.238227 209.606076 
L 338.40018 246.603473 
L 338.481161 214.366352 
L 338.562142 237.445372 
L 338.643123 234.417612 
L 338.805084 204.854871 
L 338.886065 248.863085 
L 338.967046 220.847643 
L 339.048027 242.261845 
L 339.129007 220.198259 
L 339.209988 231.549635 
L 339.290969 214.402788 
L 339.37195 217.99796 
L 339.45293 208.857974 
L 339.533903 214.980432 
L 339.614884 208.889347 
L 339.776845 238.280089 
L 339.938807 209.999788 
L 340.019788 210.032316 
L 340.100768 215.069927 
L 340.181749 233.192693 
L 340.343708 217.213737 
L 340.424689 223.06984 
L 340.50567 244.583748 
L 340.748604 194.926315 
L 340.910566 237.332764 
L 340.991546 220.606185 
L 341.072527 239.93009 
L 341.234489 207.761486 
L 341.315469 232.524818 
L 341.39645 220.167142 
L 341.477431 246.074555 
L 341.558412 217.236562 
L 341.639392 251.86204 
L 341.720365 240.804578 
L 342.044288 197.817532 
L 342.368211 235.882234 
L 342.449192 214.886176 
L 342.611153 253.742943 
L 342.854088 221.183206 
L 343.016049 271.08317 
L 343.09703 250.933663 
L 343.258991 222.188637 
L 343.339972 222.294465 
L 343.420953 193.107969 
L 343.582915 247.405753 
L 343.663895 241.206985 
L 343.744876 219.384686 
L 343.906829 249.809387 
L 343.98781 240.996116 
L 344.068791 217.34832 
L 344.149772 223.2641 
L 344.230753 232.912991 
L 344.392714 195.485579 
L 344.554676 211.795875 
L 344.635656 202.180245 
L 344.716637 233.712301 
L 344.797618 223.146629 
L 344.878591 212.958986 
L 345.121533 276.686068 
L 345.202514 252.448099 
L 345.283494 270.008021 
L 345.445456 177.457505 
L 345.607417 257.396081 
L 345.688398 260.370366 
L 345.931332 207.94391 
L 346.012313 238.776047 
L 346.093294 224.494894 
L 346.174275 187.58687 
L 346.255255 190.017751 
L 346.417217 247.254166 
L 346.498198 242.529391 
L 346.579179 257.355589 
L 346.822121 218.945425 
L 346.903102 220.403437 
L 347.065055 257.533423 
L 347.227017 208.530536 
L 347.307997 223.474421 
L 347.63192 194.38601 
L 347.793882 210.310294 
L 347.874863 205.480409 
L 347.955835 221.92258 
L 348.198778 157.441018 
L 348.279758 179.800966 
L 348.44172 198.755666 
L 348.603681 147.973569 
L 348.765643 186.352426 
L 348.846624 142.653656 
L 348.927596 212.10709 
L 349.008577 207.379631 
L 349.089558 199.521316 
L 349.170539 162.876779 
L 349.413481 213.161991 
L 349.494467 215.375107 
L 349.656429 159.720582 
L 349.899363 225.692812 
L 349.980344 211.199443 
L 350.061324 203.899951 
L 350.223286 220.462784 
L 350.304267 223.951168 
L 350.385247 181.167847 
L 350.466228 219.273663 
L 350.547209 202.848183 
L 350.70917 213.981155 
L 350.871124 192.115531 
L 350.952105 196.284878 
L 351.114066 211.410326 
L 351.276028 159.322571 
L 351.437989 209.712988 
L 351.51897 180.679049 
L 351.599951 181.300642 
L 351.680932 213.765234 
L 351.761904 194.938603 
L 351.842885 230.822934 
L 352.004846 170.63301 
L 352.085827 196.152134 
L 352.166808 169.162876 
L 352.247789 182.891999 
L 352.32877 157.835658 
L 352.40975 170.833264 
L 352.571712 223.832573 
L 352.652684 217.552359 
L 352.814646 162.135397 
L 352.895627 173.498814 
L 352.976608 162.978071 
L 353.138569 219.58837 
L 353.381511 173.914294 
L 353.624446 228.688234 
L 353.705426 176.541905 
L 353.786407 207.237194 
L 353.867388 187.066946 
L 354.029349 229.23361 
L 354.11033 197.78259 
L 354.353272 245.089338 
L 354.596207 191.71059 
L 354.677187 204.152328 
L 354.758168 198.716487 
L 354.839149 209.274539 
L 354.92013 177.745915 
L 355.00111 230.0477 
L 355.163072 186.945941 
L 355.244053 200.445807 
L 355.406006 187.244742 
L 355.486987 151.150942 
L 355.648948 202.024355 
L 355.729929 191.789382 
L 355.81091 236.281411 
L 355.891891 224.065118 
L 355.972871 220.690441 
L 356.053852 243.360026 
L 356.134833 231.811787 
L 356.377767 169.037982 
L 356.620709 243.793108 
L 356.70169 186.859477 
L 356.782671 202.254014 
L 356.863652 203.662867 
L 357.025613 263.200053 
L 357.187567 217.46323 
L 357.268547 264.086108 
L 357.349528 220.95524 
L 357.51149 275.211078 
L 357.754432 238.720374 
L 357.835413 257.49906 
L 357.916394 243.742523 
L 357.997366 189.273562 
L 358.159328 247.165793 
L 358.321289 224.972075 
L 358.40227 230.936932 
L 358.483251 248.522559 
L 358.564232 243.377116 
L 358.726189 251.776161 
L 358.807161 203.18529 
L 358.888142 210.640068 
L 358.969123 244.980783 
L 359.050104 211.19885 
L 359.131084 217.007179 
L 359.212065 246.404945 
L 359.293046 241.896112 
L 359.374027 258.310248 
L 359.455008 248.024238 
L 359.535988 248.593233 
L 359.616969 204.006398 
L 359.697942 232.256814 
L 359.778922 227.795942 
L 359.859903 224.014836 
L 359.940884 265.376345 
L 360.021865 250.066598 
L 360.102846 237.925186 
L 360.264807 200.619971 
L 360.345788 224.698797 
L 360.426769 222.767214 
L 360.507741 220.165292 
L 360.750684 251.241325 
L 360.831664 226.268393 
L 360.912645 234.556549 
L 360.993626 210.594573 
L 361.074607 236.811417 
L 361.155587 174.380195 
L 361.236568 238.805655 
L 361.317541 215.273331 
L 361.398522 197.569378 
L 361.479502 202.860368 
L 361.560483 209.323867 
L 361.722445 243.504123 
L 361.803425 243.758203 
L 361.965387 207.15684 
L 362.046368 224.120363 
L 362.12734 266.146673 
L 362.289302 227.280831 
L 362.370283 234.289191 
L 362.451263 212.654221 
L 362.532244 212.844883 
L 362.775186 247.740681 
L 362.856167 214.140893 
L 362.93714 246.190578 
L 363.018121 204.461591 
L 363.180082 252.850259 
L 363.261063 247.008136 
L 363.423024 206.718603 
L 363.584986 224.230481 
L 363.746939 199.803858 
L 363.82792 228.281452 
L 363.908901 188.947814 
L 364.070862 228.559181 
L 364.232824 211.925662 
L 364.313805 235.512163 
L 364.394786 187.747519 
L 364.475766 212.578477 
L 364.556739 186.920673 
L 364.7187 215.180512 
L 364.799681 226.057788 
L 364.880662 259.362198 
L 365.042624 209.466496 
L 365.123604 241.853653 
L 365.204585 216.06372 
L 365.285566 224.39277 
L 365.366538 246.302516 
L 365.5285 218.607214 
L 365.690462 233.264926 
L 365.771442 210.263805 
L 365.933404 253.251745 
L 366.014385 247.632337 
L 366.095357 234.109724 
L 366.176338 173.271362 
L 366.257319 208.586652 
L 366.3383 205.157273 
L 366.41928 206.009284 
L 366.500261 231.433505 
L 366.581242 200.927885 
L 366.743203 267.661012 
L 366.824184 215.570065 
L 366.905157 224.43523 
L 367.067118 204.010455 
L 367.148099 207.291998 
L 367.22908 197.558469 
L 367.391041 250.661876 
L 367.472022 220.6714 
L 367.553003 240.979325 
L 367.633976 238.038445 
L 367.876918 195.161759 
L 368.038882 221.388029 
L 368.524759 160.968329 
L 368.68672 247.568484 
L 368.767701 205.017563 
L 368.848682 218.4422 
L 368.929663 214.489211 
L 369.010644 228.3313 
L 369.091624 224.94291 
L 369.172597 236.948844 
L 369.49652 182.46224 
L 369.577501 224.287994 
L 369.658482 215.784027 
L 369.739462 200.333757 
L 369.820443 224.226356 
L 369.901416 217.285475 
L 369.982396 238.802717 
L 370.063377 237.805478 
L 370.144358 207.800855 
L 370.225339 214.931735 
L 370.30632 197.977836 
L 370.3873 206.425429 
L 370.468281 199.167361 
L 370.549262 241.994053 
L 370.630234 237.295911 
L 370.711215 224.673107 
L 370.792196 242.00982 
L 370.954158 209.845621 
L 371.035138 224.503829 
L 371.116119 217.633762 
L 371.1971 230.913987 
L 371.278081 213.015279 
L 371.359053 263.528999 
L 371.521015 201.578344 
L 371.601996 226.530983 
L 371.763957 212.073151 
L 371.925919 258.488509 
L 372.006899 255.453952 
L 372.168853 217.296293 
L 372.492776 261.962455 
L 372.573757 221.222501 
L 372.654737 232.945054 
L 372.735718 261.683065 
L 372.978652 220.459864 
L 373.059633 247.397677 
L 373.221595 209.659861 
L 373.464537 255.367987 
L 373.545518 225.912845 
L 373.62649 250.119418 
L 373.707471 205.731563 
L 373.788452 219.425374 
L 373.950413 265.763109 
L 374.031394 210.564433 
L 374.112375 226.48552 
L 374.274328 212.144484 
L 374.355309 191.104699 
L 374.43629 225.887837 
L 374.517271 219.655336 
L 374.598251 234.875502 
L 374.679232 234.128938 
L 374.760213 241.125988 
L 374.841194 204.773318 
L 374.922174 212.573198 
L 375.003147 231.655387 
L 375.084128 209.139792 
L 375.246089 246.614203 
L 375.408051 217.657953 
L 375.489032 237.691934 
L 375.650993 217.544043 
L 375.731966 224.747755 
L 376.055889 161.947846 
L 376.13687 200.960381 
L 376.21785 184.974527 
L 376.298831 187.531653 
L 376.379804 180.466764 
L 376.541765 230.053888 
L 376.622746 223.192438 
L 376.703727 190.276627 
L 376.865688 217.065904 
L 376.946669 216.879731 
L 377.02765 213.536441 
L 377.189602 232.83174 
L 377.270583 220.119033 
L 377.432545 233.328218 
L 377.513525 275.424877 
L 377.594506 274.176388 
L 377.675487 224.511969 
L 377.83744 249.371215 
L 377.918421 262.236412 
L 378.161363 192.939426 
L 378.404306 238.536043 
L 378.485278 216.79935 
L 378.566259 263.436015 
L 378.64724 241.632487 
L 378.728221 258.870888 
L 378.809201 204.715883 
L 378.890182 244.394249 
L 379.052144 198.801123 
L 379.133116 201.896584 
L 379.214097 196.129197 
L 379.376059 248.38475 
L 379.619001 190.247364 
L 379.699982 189.617811 
L 379.861935 221.318524 
L 379.942916 259.371824 
L 380.104877 233.983658 
L 380.266839 245.032225 
L 380.34782 269.952053 
L 380.509773 235.547436 
L 380.752715 262.741571 
L 380.833696 248.23372 
L 380.914677 273.830257 
L 380.995658 239.938616 
L 381.076638 244.042304 
L 381.157611 241.040781 
L 381.238592 246.380135 
L 381.400553 219.197185 
L 381.481534 231.57305 
L 381.643496 202.344633 
L 381.724476 212.794529 
L 381.805457 245.134338 
L 381.88643 227.579986 
L 381.967411 231.411987 
L 382.048391 236.046186 
L 382.291334 272.713546 
L 382.372315 261.364838 
L 382.453295 220.943743 
L 382.534268 273.325756 
L 382.696229 230.991639 
L 382.77721 242.560858 
L 382.858191 238.774916 
L 382.939172 238.687238 
L 383.020153 206.241672 
L 383.101133 227.543263 
L 383.182106 222.7665 
L 383.263087 198.334629 
L 383.344067 223.311557 
L 383.425048 210.157419 
L 383.506029 220.328226 
L 383.667991 198.999173 
L 383.748971 216.850949 
L 383.829944 208.057426 
L 384.072886 270.003476 
L 384.234848 213.846825 
L 384.396809 181.018293 
L 384.477782 197.066367 
L 384.558763 201.104186 
L 384.720724 219.344984 
L 384.801705 204.143662 
L 384.882686 205.86148 
L 385.044647 228.57874 
L 385.12562 214.576063 
L 385.206601 239.081801 
L 385.287581 225.916148 
L 385.368562 264.439216 
L 385.449543 224.342068 
L 385.530524 224.558085 
L 385.611505 255.770721 
L 385.692485 234.743225 
L 385.854439 295.488 
L 386.097381 215.052004 
L 386.178362 230.390557 
L 386.259343 267.842944 
L 386.340321 238.803863 
L 386.421294 250.609612 
L 386.502275 241.495702 
L 386.583255 253.491289 
L 386.664236 247.410961 
L 386.745217 229.180366 
L 386.907179 248.944043 
L 386.988159 252.820346 
L 387.393055 212.166809 
L 387.474036 216.39838 
L 387.555017 238.342735 
L 387.797951 194.790636 
L 387.878931 236.904927 
L 387.959912 230.10417 
L 388.040893 243.047478 
L 388.202855 184.005983 
L 388.445789 263.741462 
L 388.688731 196.361921 
L 388.850693 260.434928 
L 389.012646 177.861721 
L 389.093627 187.050288 
L 389.336569 261.066992 
L 389.41755 262.35285 
L 389.498531 249.619038 
L 389.579511 249.838632 
L 389.660484 247.426491 
L 389.741465 255.126826 
L 389.984407 217.056502 
L 390.065388 243.075095 
L 390.227341 214.383234 
L 390.308322 215.936431 
L 390.389303 219.708232 
L 390.470283 215.568474 
L 390.551264 219.742762 
L 390.632245 238.066063 
L 390.713226 234.594416 
L 390.794207 241.07192 
L 390.875179 205.591656 
L 391.037141 223.939756 
L 391.118121 231.347678 
L 391.361064 199.420517 
L 391.442045 253.140711 
L 391.765959 180.227858 
L 391.84694 238.170961 
L 391.927921 215.783014 
L 392.008902 230.437286 
L 392.089874 213.832653 
L 392.170855 225.818467 
L 392.332817 201.379835 
L 392.413797 192.821441 
L 392.494778 220.091857 
L 392.575759 196.002843 
L 392.65674 207.973975 
L 392.737712 253.33744 
L 393.061635 168.730504 
L 393.223597 237.775925 
L 393.30457 212.797778 
L 393.38555 182.790898 
L 393.547512 217.315875 
L 393.628493 200.561238 
L 393.790454 224.442113 
L 393.871435 229.676044 
L 393.952408 222.438882 
L 394.033388 248.59524 
L 394.114369 230.922809 
L 394.276331 250.551411 
L 394.357311 238.78711 
L 394.438292 246.976678 
L 394.681226 222.684516 
L 394.843188 269.102228 
L 394.924169 201.539393 
L 395.00515 217.082465 
L 395.248084 248.665034 
L 395.410045 203.997365 
L 395.491026 203.074976 
L 395.572006 234.198718 
L 395.733959 203.571932 
L 395.81494 191.626026 
L 395.895921 192.789298 
L 396.057882 255.470861 
L 396.219844 246.232436 
L 396.300816 247.974217 
L 396.381797 202.649152 
L 396.462778 231.702583 
L 396.543759 221.906385 
L 396.624739 233.716532 
L 396.70572 221.882655 
L 396.786701 238.057803 
L 396.948654 225.200375 
L 397.029635 242.96543 
L 397.110616 201.059447 
L 397.353558 292.979823 
L 397.434539 255.469574 
L 397.515512 288.029225 
L 397.596492 277.405353 
L 397.677473 247.546118 
L 397.758454 252.692591 
L 397.839435 267.714737 
L 398.001396 220.029493 
L 398.082369 213.164423 
L 398.16335 220.786977 
L 398.406292 178.772749 
L 398.487273 180.462316 
L 398.487273 180.462316 
" clip-path="url(#p788ca63c38)" style="fill: none; stroke: #1f77b4; stroke-width: 1.5; stroke-linecap: square"/>
   </g>
   <g id="patch_3">
    <path d="M 57.6 307.584 
L 57.6 41.472 
" style="fill: none; stroke: #000000; stroke-width: 0.8; stroke-linejoin: miter; stroke-linecap: square"/>
   </g>
   <g id="patch_4">
    <path d="M 414.72 307.584 
L 414.72 41.472 
" style="fill: none; stroke: #000000; stroke-width: 0.8; stroke-linejoin: miter; stroke-linecap: square"/>
   </g>
   <g id="patch_5">
    <path d="M 57.6 307.584 
L 414.72 307.584 
" style="fill: none; stroke: #000000; stroke-width: 0.8; stroke-linejoin: miter; stroke-linecap: square"/>
   </g>
   <g id="patch_6">
    <path d="M 57.6 41.472 
L 414.72 41.472 
" style="fill: none; stroke: #000000; stroke-width: 0.8; stroke-linejoin: miter; stroke-linecap: square"/>
   </g>
   <g id="text_18">
    <!-- Thorb-Tyholt-vinkel -->
    <g transform="translate(179.714063 35.472) scale(0.12 -0.12)">
     <defs>
      <path id="DejaVuSans-54" d="M -19 4666 
L 3928 4666 
L 3928 4134 
L 2272 4134 
L 2272 0 
L 1638 0 
L 1638 4134 
L -19 4134 
L -19 4666 
z
" transform="scale(0.015625)"/>
      <path id="DejaVuSans-68" d="M 3513 2113 
L 3513 0 
L 2938 0 
L 2938 2094 
Q 2938 2591 2744 2837 
Q 2550 3084 2163 3084 
Q 1697 3084 1428 2787 
Q 1159 2491 1159 1978 
L 1159 0 
L 581 0 
L 581 4863 
L 1159 4863 
L 1159 2956 
Q 1366 3272 1645 3428 
Q 1925 3584 2291 3584 
Q 2894 3584 3203 3211 
Q 3513 2838 3513 2113 
z
" transform="scale(0.015625)"/>
      <path id="DejaVuSans-6f" d="M 1959 3097 
Q 1497 3097 1228 2736 
Q 959 2375 959 1747 
Q 959 1119 1226 758 
Q 1494 397 1959 397 
Q 2419 397 2687 759 
Q 2956 1122 2956 1747 
Q 2956 2369 2687 2733 
Q 2419 3097 1959 3097 
z
M 1959 3584 
Q 2709 3584 3137 3096 
Q 3566 2609 3566 1747 
Q 3566 888 3137 398 
Q 2709 -91 1959 -91 
Q 1206 -91 779 398 
Q 353 888 353 1747 
Q 353 2609 779 3096 
Q 1206 3584 1959 3584 
z
" transform="scale(0.015625)"/>
      <path id="DejaVuSans-72" d="M 2631 2963 
Q 2534 3019 2420 3045 
Q 2306 3072 2169 3072 
Q 1681 3072 1420 2755 
Q 1159 2438 1159 1844 
L 1159 0 
L 581 0 
L 581 3500 
L 1159 3500 
L 1159 2956 
Q 1341 3275 1631 3429 
Q 1922 3584 2338 3584 
Q 2397 3584 2469 3576 
Q 2541 3569 2628 3553 
L 2631 2963 
z
" transform="scale(0.015625)"/>
      <path id="DejaVuSans-62" d="M 3116 1747 
Q 3116 2381 2855 2742 
Q 2594 3103 2138 3103 
Q 1681 3103 1420 2742 
Q 1159 2381 1159 1747 
Q 1159 1113 1420 752 
Q 1681 391 2138 391 
Q 2594 391 2855 752 
Q 3116 1113 3116 1747 
z
M 1159 2969 
Q 1341 3281 1617 3432 
Q 1894 3584 2278 3584 
Q 2916 3584 3314 3078 
Q 3713 2572 3713 1747 
Q 3713 922 3314 415 
Q 2916 -91 2278 -91 
Q 1894 -91 1617 61 
Q 1341 213 1159 525 
L 1159 0 
L 581 0 
L 581 4863 
L 1159 4863 
L 1159 2969 
z
" transform="scale(0.015625)"/>
      <path id="DejaVuSans-2d" d="M 313 2009 
L 1997 2009 
L 1997 1497 
L 313 1497 
L 313 2009 
z
" transform="scale(0.015625)"/>
      <path id="DejaVuSans-79" d="M 2059 -325 
Q 1816 -950 1584 -1140 
Q 1353 -1331 966 -1331 
L 506 -1331 
L 506 -850 
L 844 -850 
Q 1081 -850 1212 -737 
Q 1344 -625 1503 -206 
L 1606 56 
L 191 3500 
L 800 3500 
L 1894 763 
L 2988 3500 
L 3597 3500 
L 2059 -325 
z
" transform="scale(0.015625)"/>
      <path id="DejaVuSans-6c" d="M 603 4863 
L 1178 4863 
L 1178 0 
L 603 0 
L 603 4863 
z
" transform="scale(0.015625)"/>
      <path id="DejaVuSans-76" d="M 191 3500 
L 800 3500 
L 1894 563 
L 2988 3500 
L 3597 3500 
L 2284 0 
L 1503 0 
L 191 3500 
z
" transform="scale(0.015625)"/>
      <path id="DejaVuSans-6e" d="M 3513 2113 
L 3513 0 
L 2938 0 
L 2938 2094 
Q 2938 2591 2744 2837 
Q 2550 3084 2163 3084 
Q 1697 3084 1428 2787 
Q 1159 2491 1159 1978 
L 1159 0 
L 581 0 
L 581 3500 
L 1159 3500 
L 1159 2956 
Q 1366 3272 1645 3428 
Q 1925 3584 2291 3584 
Q 2894 3584 3203 3211 
Q 3513 2838 3513 2113 
z
" transform="scale(0.015625)"/>
      <path id="DejaVuSans-6b" d="M 581 4863 
L 1159 4863 
L 1159 1991 
L 2875 3500 
L 3609 3500 
L 1753 1863 
L 3688 0 
L 2938 0 
L 1159 1709 
L 1159 0 
L 581 0 
L 581 4863 
z
" transform="scale(0.015625)"/>
     </defs>
     <use xlink:href="#DejaVuSans-54"/>
     <use xlink:href="#DejaVuSans-68" x="61.083984"/>
     <use xlink:href="#DejaVuSans-6f" x="124.462891"/>
     <use xlink:href="#DejaVuSans-72" x="185.644531"/>
     <use xlink:href="#DejaVuSans-62" x="226.757812"/>
     <use xlink:href="#DejaVuSans-2d" x="290.234375"/>
     <use xlink:href="#DejaVuSans-54" x="317.193359"/>
     <use xlink:href="#DejaVuSans-79" x="362.652344"/>
     <use xlink:href="#DejaVuSans-68" x="421.832031"/>
     <use xlink:href="#DejaVuSans-6f" x="485.210938"/>
     <use xlink:href="#DejaVuSans-6c" x="546.392578"/>
     <use xlink:href="#DejaVuSans-74" x="574.175781"/>
     <use xlink:href="#DejaVuSans-2d" x="613.384766"/>
     <use xlink:href="#DejaVuSans-76" x="646.84375"/>
     <use xlink:href="#DejaVuSans-69" x="706.023438"/>
     <use xlink:href="#DejaVuSans-6e" x="733.806641"/>
     <use xlink:href="#DejaVuSans-6b" x="797.185547"/>
     <use xlink:href="#DejaVuSans-65" x="851.470703"/>
     <use xlink:href="#DejaVuSans-6c" x="912.994141"/>
    </g>
   </g>
   <g id="legend_1">
    <g id="patch_7">
     <path d="M 281.643438 64.150125 
L 407.72 64.150125 
Q 409.72 64.150125 409.72 62.150125 
L 409.72 48.472 
Q 409.72 46.472 407.72 46.472 
L 281.643438 46.472 
Q 279.643438 46.472 279.643438 48.472 
L 279.643438 62.150125 
Q 279.643438 64.150125 281.643438 64.150125 
z
" style="fill: #ffffff; opacity: 0.8; stroke: #cccccc; stroke-linejoin: miter"/>
    </g>
    <g id="line2d_17">
     <path d="M 283.643438 54.570438 
L 293.643438 54.570438 
L 303.643438 54.570438 
" style="fill: none; stroke: #1f77b4; stroke-width: 1.5; stroke-linecap: square"/>
    </g>
    <g id="text_19">
     <!-- Thorb-Tyholt-vinkel -->
     <g transform="translate(311.643438 58.070438) scale(0.1 -0.1)">
      <use xlink:href="#DejaVuSans-54"/>
      <use xlink:href="#DejaVuSans-68" x="61.083984"/>
      <use xlink:href="#DejaVuSans-6f" x="124.462891"/>
      <use xlink:href="#DejaVuSans-72" x="185.644531"/>
      <use xlink:href="#DejaVuSans-62" x="226.757812"/>
      <use xlink:href="#DejaVuSans-2d" x="290.234375"/>
      <use xlink:href="#DejaVuSans-54" x="317.193359"/>
      <use xlink:href="#DejaVuSans-79" x="362.652344"/>
      <use xlink:href="#DejaVuSans-68" x="421.832031"/>
      <use xlink:href="#DejaVuSans-6f" x="485.210938"/>
      <use xlink:href="#DejaVuSans-6c" x="546.392578"/>
      <use xlink:href="#DejaVuSans-74" x="574.175781"/>
      <use xlink:href="#DejaVuSans-2d" x="613.384766"/>
      <use xlink:href="#DejaVuSans-76" x="646.84375"/>
      <use xlink:href="#DejaVuSans-69" x="706.023438"/>
      <use xlink:href="#DejaVuSans-6e" x="733.806641"/>
      <use xlink:href="#DejaVuSans-6b" x="797.185547"/>
      <use xlink:href="#DejaVuSans-65" x="851.470703"/>
      <use xlink:href="#DejaVuSans-6c" x="912.994141"/>
     </g>
    </g>
   </g>
  </g>
 </g>
 <defs>
  <clipPath id="p788ca63c38">
   <rect x="57.6" y="41.472" width="357.12" height="266.112"/>
  </clipPath>
 </defs>
</svg>
