<?xml version="1.0" encoding="utf-8" standalone="no"?>
<!DOCTYPE svg PUBLIC "-//W3C//DTD SVG 1.1//EN"
  "http://www.w3.org/Graphics/SVG/1.1/DTD/svg11.dtd">
<svg xmlns:xlink="http://www.w3.org/1999/xlink" width="623.23125pt" height="458.691562pt" viewBox="0 0 623.23125 458.691562" xmlns="http://www.w3.org/2000/svg" version="1.1">
 <metadata>
  <rdf:RDF xmlns:dc="http://purl.org/dc/elements/1.1/" xmlns:cc="http://creativecommons.org/ns#" xmlns:rdf="http://www.w3.org/1999/02/22-rdf-syntax-ns#">
   <cc:Work>
    <dc:type rdf:resource="http://purl.org/dc/dcmitype/StillImage"/>
    <dc:date>2023-04-10T14:16:16.559674</dc:date>
    <dc:format>image/svg+xml</dc:format>
    <dc:creator>
     <cc:Agent>
      <dc:title>Matplotlib v3.7.1, https://matplotlib.org/</dc:title>
     </cc:Agent>
    </dc:creator>
   </cc:Work>
  </rdf:RDF>
 </metadata>
 <defs>
  <style type="text/css">*{stroke-linejoin: round; stroke-linecap: butt}</style>
 </defs>
 <g id="figure_1">
  <g id="patch_1">
   <path d="M 0 458.691562 
L 623.23125 458.691562 
L 623.23125 0 
L 0 0 
L 0 458.691562 
z
" style="fill: none"/>
  </g>
  <g id="axes_1">
   <g id="patch_2">
    <path d="M 58.03125 414.957187 
L 616.03125 414.957187 
L 616.03125 26.877187 
L 58.03125 26.877187 
L 58.03125 414.957187 
z
" style="fill: none"/>
   </g>
   <g id="matplotlib.axis_1">
    <g id="xtick_1">
     <g id="line2d_1">
      <path d="M 82.956613 414.957187 
L 82.956613 26.877187 
" clip-path="url(#pc71b1cdce2)" style="fill: none; stroke: #808080; stroke-width: 0.8; stroke-linecap: square"/>
     </g>
     <g id="line2d_2">
      <defs>
       <path id="md43f1e04ea" d="M 0 0 
L 0 -5 
" style="stroke: #808080; stroke-width: 0.8"/>
      </defs>
      <g>
       <use xlink:href="#md43f1e04ea" x="82.956613" y="414.957187" style="fill: #808080; stroke: #808080; stroke-width: 0.8"/>
      </g>
     </g>
     <g id="text_1">
      <!-- 20 -->
      <g style="fill: #808080" transform="translate(73.412863 429.854844) scale(0.15 -0.15)">
       <defs>
        <path id="DejaVuSans-32" d="M 1228 531 
L 3431 531 
L 3431 0 
L 469 0 
L 469 531 
Q 828 903 1448 1529 
Q 2069 2156 2228 2338 
Q 2531 2678 2651 2914 
Q 2772 3150 2772 3378 
Q 2772 3750 2511 3984 
Q 2250 4219 1831 4219 
Q 1534 4219 1204 4116 
Q 875 4013 500 3803 
L 500 4441 
Q 881 4594 1212 4672 
Q 1544 4750 1819 4750 
Q 2544 4750 2975 4387 
Q 3406 4025 3406 3419 
Q 3406 3131 3298 2873 
Q 3191 2616 2906 2266 
Q 2828 2175 2409 1742 
Q 1991 1309 1228 531 
z
" transform="scale(0.015625)"/>
        <path id="DejaVuSans-30" d="M 2034 4250 
Q 1547 4250 1301 3770 
Q 1056 3291 1056 2328 
Q 1056 1369 1301 889 
Q 1547 409 2034 409 
Q 2525 409 2770 889 
Q 3016 1369 3016 2328 
Q 3016 3291 2770 3770 
Q 2525 4250 2034 4250 
z
M 2034 4750 
Q 2819 4750 3233 4129 
Q 3647 3509 3647 2328 
Q 3647 1150 3233 529 
Q 2819 -91 2034 -91 
Q 1250 -91 836 529 
Q 422 1150 422 2328 
Q 422 3509 836 4129 
Q 1250 4750 2034 4750 
z
" transform="scale(0.015625)"/>
       </defs>
       <use xlink:href="#DejaVuSans-32"/>
       <use xlink:href="#DejaVuSans-30" x="63.623047"/>
      </g>
     </g>
    </g>
    <g id="xtick_2">
     <g id="line2d_3">
      <path d="M 150.636452 414.957187 
L 150.636452 26.877187 
" clip-path="url(#pc71b1cdce2)" style="fill: none; stroke: #808080; stroke-width: 0.8; stroke-linecap: square"/>
     </g>
     <g id="line2d_4">
      <g>
       <use xlink:href="#md43f1e04ea" x="150.636452" y="414.957187" style="fill: #808080; stroke: #808080; stroke-width: 0.8"/>
      </g>
     </g>
     <g id="text_2">
      <!-- 22 -->
      <g style="fill: #808080" transform="translate(141.092702 429.854844) scale(0.15 -0.15)">
       <use xlink:href="#DejaVuSans-32"/>
       <use xlink:href="#DejaVuSans-32" x="63.623047"/>
      </g>
     </g>
    </g>
    <g id="xtick_3">
     <g id="line2d_5">
      <path d="M 218.316292 414.957187 
L 218.316292 26.877187 
" clip-path="url(#pc71b1cdce2)" style="fill: none; stroke: #808080; stroke-width: 0.8; stroke-linecap: square"/>
     </g>
     <g id="line2d_6">
      <g>
       <use xlink:href="#md43f1e04ea" x="218.316292" y="414.957187" style="fill: #808080; stroke: #808080; stroke-width: 0.8"/>
      </g>
     </g>
     <g id="text_3">
      <!-- 24 -->
      <g style="fill: #808080" transform="translate(208.772542 429.854844) scale(0.15 -0.15)">
       <defs>
        <path id="DejaVuSans-34" d="M 2419 4116 
L 825 1625 
L 2419 1625 
L 2419 4116 
z
M 2253 4666 
L 3047 4666 
L 3047 1625 
L 3713 1625 
L 3713 1100 
L 3047 1100 
L 3047 0 
L 2419 0 
L 2419 1100 
L 313 1100 
L 313 1709 
L 2253 4666 
z
" transform="scale(0.015625)"/>
       </defs>
       <use xlink:href="#DejaVuSans-32"/>
       <use xlink:href="#DejaVuSans-34" x="63.623047"/>
      </g>
     </g>
    </g>
    <g id="xtick_4">
     <g id="line2d_7">
      <path d="M 285.996132 414.957187 
L 285.996132 26.877187 
" clip-path="url(#pc71b1cdce2)" style="fill: none; stroke: #808080; stroke-width: 0.8; stroke-linecap: square"/>
     </g>
     <g id="line2d_8">
      <g>
       <use xlink:href="#md43f1e04ea" x="285.996132" y="414.957187" style="fill: #808080; stroke: #808080; stroke-width: 0.8"/>
      </g>
     </g>
     <g id="text_4">
      <!-- 26 -->
      <g style="fill: #808080" transform="translate(276.452382 429.854844) scale(0.15 -0.15)">
       <defs>
        <path id="DejaVuSans-36" d="M 2113 2584 
Q 1688 2584 1439 2293 
Q 1191 2003 1191 1497 
Q 1191 994 1439 701 
Q 1688 409 2113 409 
Q 2538 409 2786 701 
Q 3034 994 3034 1497 
Q 3034 2003 2786 2293 
Q 2538 2584 2113 2584 
z
M 3366 4563 
L 3366 3988 
Q 3128 4100 2886 4159 
Q 2644 4219 2406 4219 
Q 1781 4219 1451 3797 
Q 1122 3375 1075 2522 
Q 1259 2794 1537 2939 
Q 1816 3084 2150 3084 
Q 2853 3084 3261 2657 
Q 3669 2231 3669 1497 
Q 3669 778 3244 343 
Q 2819 -91 2113 -91 
Q 1303 -91 875 529 
Q 447 1150 447 2328 
Q 447 3434 972 4092 
Q 1497 4750 2381 4750 
Q 2619 4750 2861 4703 
Q 3103 4656 3366 4563 
z
" transform="scale(0.015625)"/>
       </defs>
       <use xlink:href="#DejaVuSans-32"/>
       <use xlink:href="#DejaVuSans-36" x="63.623047"/>
      </g>
     </g>
    </g>
    <g id="xtick_5">
     <g id="line2d_9">
      <path d="M 353.675971 414.957187 
L 353.675971 26.877187 
" clip-path="url(#pc71b1cdce2)" style="fill: none; stroke: #808080; stroke-width: 0.8; stroke-linecap: square"/>
     </g>
     <g id="line2d_10">
      <g>
       <use xlink:href="#md43f1e04ea" x="353.675971" y="414.957187" style="fill: #808080; stroke: #808080; stroke-width: 0.8"/>
      </g>
     </g>
     <g id="text_5">
      <!-- 28 -->
      <g style="fill: #808080" transform="translate(344.132221 429.854844) scale(0.15 -0.15)">
       <defs>
        <path id="DejaVuSans-38" d="M 2034 2216 
Q 1584 2216 1326 1975 
Q 1069 1734 1069 1313 
Q 1069 891 1326 650 
Q 1584 409 2034 409 
Q 2484 409 2743 651 
Q 3003 894 3003 1313 
Q 3003 1734 2745 1975 
Q 2488 2216 2034 2216 
z
M 1403 2484 
Q 997 2584 770 2862 
Q 544 3141 544 3541 
Q 544 4100 942 4425 
Q 1341 4750 2034 4750 
Q 2731 4750 3128 4425 
Q 3525 4100 3525 3541 
Q 3525 3141 3298 2862 
Q 3072 2584 2669 2484 
Q 3125 2378 3379 2068 
Q 3634 1759 3634 1313 
Q 3634 634 3220 271 
Q 2806 -91 2034 -91 
Q 1263 -91 848 271 
Q 434 634 434 1313 
Q 434 1759 690 2068 
Q 947 2378 1403 2484 
z
M 1172 3481 
Q 1172 3119 1398 2916 
Q 1625 2713 2034 2713 
Q 2441 2713 2670 2916 
Q 2900 3119 2900 3481 
Q 2900 3844 2670 4047 
Q 2441 4250 2034 4250 
Q 1625 4250 1398 4047 
Q 1172 3844 1172 3481 
z
" transform="scale(0.015625)"/>
       </defs>
       <use xlink:href="#DejaVuSans-32"/>
       <use xlink:href="#DejaVuSans-38" x="63.623047"/>
      </g>
     </g>
    </g>
    <g id="xtick_6">
     <g id="line2d_11">
      <path d="M 421.355811 414.957187 
L 421.355811 26.877187 
" clip-path="url(#pc71b1cdce2)" style="fill: none; stroke: #808080; stroke-width: 0.8; stroke-linecap: square"/>
     </g>
     <g id="line2d_12">
      <g>
       <use xlink:href="#md43f1e04ea" x="421.355811" y="414.957187" style="fill: #808080; stroke: #808080; stroke-width: 0.8"/>
      </g>
     </g>
     <g id="text_6">
      <!-- 30 -->
      <g style="fill: #808080" transform="translate(411.812061 429.854844) scale(0.15 -0.15)">
       <defs>
        <path id="DejaVuSans-33" d="M 2597 2516 
Q 3050 2419 3304 2112 
Q 3559 1806 3559 1356 
Q 3559 666 3084 287 
Q 2609 -91 1734 -91 
Q 1441 -91 1130 -33 
Q 819 25 488 141 
L 488 750 
Q 750 597 1062 519 
Q 1375 441 1716 441 
Q 2309 441 2620 675 
Q 2931 909 2931 1356 
Q 2931 1769 2642 2001 
Q 2353 2234 1838 2234 
L 1294 2234 
L 1294 2753 
L 1863 2753 
Q 2328 2753 2575 2939 
Q 2822 3125 2822 3475 
Q 2822 3834 2567 4026 
Q 2313 4219 1838 4219 
Q 1578 4219 1281 4162 
Q 984 4106 628 3988 
L 628 4550 
Q 988 4650 1302 4700 
Q 1616 4750 1894 4750 
Q 2613 4750 3031 4423 
Q 3450 4097 3450 3541 
Q 3450 3153 3228 2886 
Q 3006 2619 2597 2516 
z
" transform="scale(0.015625)"/>
       </defs>
       <use xlink:href="#DejaVuSans-33"/>
       <use xlink:href="#DejaVuSans-30" x="63.623047"/>
      </g>
     </g>
    </g>
    <g id="xtick_7">
     <g id="line2d_13">
      <path d="M 489.035651 414.957187 
L 489.035651 26.877187 
" clip-path="url(#pc71b1cdce2)" style="fill: none; stroke: #808080; stroke-width: 0.8; stroke-linecap: square"/>
     </g>
     <g id="line2d_14">
      <g>
       <use xlink:href="#md43f1e04ea" x="489.035651" y="414.957187" style="fill: #808080; stroke: #808080; stroke-width: 0.8"/>
      </g>
     </g>
     <g id="text_7">
      <!-- 32 -->
      <g style="fill: #808080" transform="translate(479.491901 429.854844) scale(0.15 -0.15)">
       <use xlink:href="#DejaVuSans-33"/>
       <use xlink:href="#DejaVuSans-32" x="63.623047"/>
      </g>
     </g>
    </g>
    <g id="xtick_8">
     <g id="line2d_15">
      <path d="M 556.71549 414.957187 
L 556.71549 26.877187 
" clip-path="url(#pc71b1cdce2)" style="fill: none; stroke: #808080; stroke-width: 0.8; stroke-linecap: square"/>
     </g>
     <g id="line2d_16">
      <g>
       <use xlink:href="#md43f1e04ea" x="556.71549" y="414.957187" style="fill: #808080; stroke: #808080; stroke-width: 0.8"/>
      </g>
     </g>
     <g id="text_8">
      <!-- 34 -->
      <g style="fill: #808080" transform="translate(547.17174 429.854844) scale(0.15 -0.15)">
       <use xlink:href="#DejaVuSans-33"/>
       <use xlink:href="#DejaVuSans-34" x="63.623047"/>
      </g>
     </g>
    </g>
    <g id="text_9">
     <!-- time [s] -->
     <g style="fill: #808080" transform="translate(307.944141 448.372031) scale(0.15 -0.15)">
      <defs>
       <path id="DejaVuSans-74" d="M 1172 4494 
L 1172 3500 
L 2356 3500 
L 2356 3053 
L 1172 3053 
L 1172 1153 
Q 1172 725 1289 603 
Q 1406 481 1766 481 
L 2356 481 
L 2356 0 
L 1766 0 
Q 1100 0 847 248 
Q 594 497 594 1153 
L 594 3053 
L 172 3053 
L 172 3500 
L 594 3500 
L 594 4494 
L 1172 4494 
z
" transform="scale(0.015625)"/>
       <path id="DejaVuSans-69" d="M 603 3500 
L 1178 3500 
L 1178 0 
L 603 0 
L 603 3500 
z
M 603 4863 
L 1178 4863 
L 1178 4134 
L 603 4134 
L 603 4863 
z
" transform="scale(0.015625)"/>
       <path id="DejaVuSans-6d" d="M 3328 2828 
Q 3544 3216 3844 3400 
Q 4144 3584 4550 3584 
Q 5097 3584 5394 3201 
Q 5691 2819 5691 2113 
L 5691 0 
L 5113 0 
L 5113 2094 
Q 5113 2597 4934 2840 
Q 4756 3084 4391 3084 
Q 3944 3084 3684 2787 
Q 3425 2491 3425 1978 
L 3425 0 
L 2847 0 
L 2847 2094 
Q 2847 2600 2669 2842 
Q 2491 3084 2119 3084 
Q 1678 3084 1418 2786 
Q 1159 2488 1159 1978 
L 1159 0 
L 581 0 
L 581 3500 
L 1159 3500 
L 1159 2956 
Q 1356 3278 1631 3431 
Q 1906 3584 2284 3584 
Q 2666 3584 2933 3390 
Q 3200 3197 3328 2828 
z
" transform="scale(0.015625)"/>
       <path id="DejaVuSans-65" d="M 3597 1894 
L 3597 1613 
L 953 1613 
Q 991 1019 1311 708 
Q 1631 397 2203 397 
Q 2534 397 2845 478 
Q 3156 559 3463 722 
L 3463 178 
Q 3153 47 2828 -22 
Q 2503 -91 2169 -91 
Q 1331 -91 842 396 
Q 353 884 353 1716 
Q 353 2575 817 3079 
Q 1281 3584 2069 3584 
Q 2775 3584 3186 3129 
Q 3597 2675 3597 1894 
z
M 3022 2063 
Q 3016 2534 2758 2815 
Q 2500 3097 2075 3097 
Q 1594 3097 1305 2825 
Q 1016 2553 972 2059 
L 3022 2063 
z
" transform="scale(0.015625)"/>
       <path id="DejaVuSans-20" transform="scale(0.015625)"/>
       <path id="DejaVuSans-5b" d="M 550 4863 
L 1875 4863 
L 1875 4416 
L 1125 4416 
L 1125 -397 
L 1875 -397 
L 1875 -844 
L 550 -844 
L 550 4863 
z
" transform="scale(0.015625)"/>
       <path id="DejaVuSans-73" d="M 2834 3397 
L 2834 2853 
Q 2591 2978 2328 3040 
Q 2066 3103 1784 3103 
Q 1356 3103 1142 2972 
Q 928 2841 928 2578 
Q 928 2378 1081 2264 
Q 1234 2150 1697 2047 
L 1894 2003 
Q 2506 1872 2764 1633 
Q 3022 1394 3022 966 
Q 3022 478 2636 193 
Q 2250 -91 1575 -91 
Q 1294 -91 989 -36 
Q 684 19 347 128 
L 347 722 
Q 666 556 975 473 
Q 1284 391 1588 391 
Q 1994 391 2212 530 
Q 2431 669 2431 922 
Q 2431 1156 2273 1281 
Q 2116 1406 1581 1522 
L 1381 1569 
Q 847 1681 609 1914 
Q 372 2147 372 2553 
Q 372 3047 722 3315 
Q 1072 3584 1716 3584 
Q 2034 3584 2315 3537 
Q 2597 3491 2834 3397 
z
" transform="scale(0.015625)"/>
       <path id="DejaVuSans-5d" d="M 1947 4863 
L 1947 -844 
L 622 -844 
L 622 -397 
L 1369 -397 
L 1369 4416 
L 622 4416 
L 622 4863 
L 1947 4863 
z
" transform="scale(0.015625)"/>
      </defs>
      <use xlink:href="#DejaVuSans-74"/>
      <use xlink:href="#DejaVuSans-69" x="39.208984"/>
      <use xlink:href="#DejaVuSans-6d" x="66.992188"/>
      <use xlink:href="#DejaVuSans-65" x="164.404297"/>
      <use xlink:href="#DejaVuSans-20" x="225.927734"/>
      <use xlink:href="#DejaVuSans-5b" x="257.714844"/>
      <use xlink:href="#DejaVuSans-73" x="296.728516"/>
      <use xlink:href="#DejaVuSans-5d" x="348.828125"/>
     </g>
    </g>
   </g>
   <g id="matplotlib.axis_2">
    <g id="ytick_1">
     <g id="line2d_17">
      <path d="M 58.03125 361.113196 
L 616.03125 361.113196 
" clip-path="url(#pc71b1cdce2)" style="fill: none; stroke: #808080; stroke-width: 0.8; stroke-linecap: square"/>
     </g>
     <g id="line2d_18">
      <defs>
       <path id="m5db69c9de1" d="M 0 0 
L 5 0 
" style="stroke: #808080; stroke-width: 0.8"/>
      </defs>
      <g>
       <use xlink:href="#m5db69c9de1" x="58.03125" y="361.113196" style="fill: #808080; stroke: #808080; stroke-width: 0.8"/>
      </g>
     </g>
     <g id="text_10">
      <!-- 50 -->
      <g style="fill: #808080" transform="translate(35.44375 366.812024) scale(0.15 -0.15)">
       <defs>
        <path id="DejaVuSans-35" d="M 691 4666 
L 3169 4666 
L 3169 4134 
L 1269 4134 
L 1269 2991 
Q 1406 3038 1543 3061 
Q 1681 3084 1819 3084 
Q 2600 3084 3056 2656 
Q 3513 2228 3513 1497 
Q 3513 744 3044 326 
Q 2575 -91 1722 -91 
Q 1428 -91 1123 -41 
Q 819 9 494 109 
L 494 744 
Q 775 591 1075 516 
Q 1375 441 1709 441 
Q 2250 441 2565 725 
Q 2881 1009 2881 1497 
Q 2881 1984 2565 2268 
Q 2250 2553 1709 2553 
Q 1456 2553 1204 2497 
Q 953 2441 691 2322 
L 691 4666 
z
" transform="scale(0.015625)"/>
       </defs>
       <use xlink:href="#DejaVuSans-35"/>
       <use xlink:href="#DejaVuSans-30" x="63.623047"/>
      </g>
     </g>
    </g>
    <g id="ytick_2">
     <g id="line2d_19">
      <path d="M 58.03125 307.195414 
L 616.03125 307.195414 
" clip-path="url(#pc71b1cdce2)" style="fill: none; stroke: #808080; stroke-width: 0.8; stroke-linecap: square"/>
     </g>
     <g id="line2d_20">
      <g>
       <use xlink:href="#m5db69c9de1" x="58.03125" y="307.195414" style="fill: #808080; stroke: #808080; stroke-width: 0.8"/>
      </g>
     </g>
     <g id="text_11">
      <!-- 100 -->
      <g style="fill: #808080" transform="translate(25.9 312.894242) scale(0.15 -0.15)">
       <defs>
        <path id="DejaVuSans-31" d="M 794 531 
L 1825 531 
L 1825 4091 
L 703 3866 
L 703 4441 
L 1819 4666 
L 2450 4666 
L 2450 531 
L 3481 531 
L 3481 0 
L 794 0 
L 794 531 
z
" transform="scale(0.015625)"/>
       </defs>
       <use xlink:href="#DejaVuSans-31"/>
       <use xlink:href="#DejaVuSans-30" x="63.623047"/>
       <use xlink:href="#DejaVuSans-30" x="127.246094"/>
      </g>
     </g>
    </g>
    <g id="ytick_3">
     <g id="line2d_21">
      <path d="M 58.03125 253.277631 
L 616.03125 253.277631 
" clip-path="url(#pc71b1cdce2)" style="fill: none; stroke: #808080; stroke-width: 0.8; stroke-linecap: square"/>
     </g>
     <g id="line2d_22">
      <g>
       <use xlink:href="#m5db69c9de1" x="58.03125" y="253.277631" style="fill: #808080; stroke: #808080; stroke-width: 0.8"/>
      </g>
     </g>
     <g id="text_12">
      <!-- 150 -->
      <g style="fill: #808080" transform="translate(25.9 258.976459) scale(0.15 -0.15)">
       <use xlink:href="#DejaVuSans-31"/>
       <use xlink:href="#DejaVuSans-35" x="63.623047"/>
       <use xlink:href="#DejaVuSans-30" x="127.246094"/>
      </g>
     </g>
    </g>
    <g id="ytick_4">
     <g id="line2d_23">
      <path d="M 58.03125 199.359849 
L 616.03125 199.359849 
" clip-path="url(#pc71b1cdce2)" style="fill: none; stroke: #808080; stroke-width: 0.8; stroke-linecap: square"/>
     </g>
     <g id="line2d_24">
      <g>
       <use xlink:href="#m5db69c9de1" x="58.03125" y="199.359849" style="fill: #808080; stroke: #808080; stroke-width: 0.8"/>
      </g>
     </g>
     <g id="text_13">
      <!-- 200 -->
      <g style="fill: #808080" transform="translate(25.9 205.058677) scale(0.15 -0.15)">
       <use xlink:href="#DejaVuSans-32"/>
       <use xlink:href="#DejaVuSans-30" x="63.623047"/>
       <use xlink:href="#DejaVuSans-30" x="127.246094"/>
      </g>
     </g>
    </g>
    <g id="ytick_5">
     <g id="line2d_25">
      <path d="M 58.03125 145.442066 
L 616.03125 145.442066 
" clip-path="url(#pc71b1cdce2)" style="fill: none; stroke: #808080; stroke-width: 0.8; stroke-linecap: square"/>
     </g>
     <g id="line2d_26">
      <g>
       <use xlink:href="#m5db69c9de1" x="58.03125" y="145.442066" style="fill: #808080; stroke: #808080; stroke-width: 0.8"/>
      </g>
     </g>
     <g id="text_14">
      <!-- 250 -->
      <g style="fill: #808080" transform="translate(25.9 151.140894) scale(0.15 -0.15)">
       <use xlink:href="#DejaVuSans-32"/>
       <use xlink:href="#DejaVuSans-35" x="63.623047"/>
       <use xlink:href="#DejaVuSans-30" x="127.246094"/>
      </g>
     </g>
    </g>
    <g id="ytick_6">
     <g id="line2d_27">
      <path d="M 58.03125 91.524283 
L 616.03125 91.524283 
" clip-path="url(#pc71b1cdce2)" style="fill: none; stroke: #808080; stroke-width: 0.8; stroke-linecap: square"/>
     </g>
     <g id="line2d_28">
      <g>
       <use xlink:href="#m5db69c9de1" x="58.03125" y="91.524283" style="fill: #808080; stroke: #808080; stroke-width: 0.8"/>
      </g>
     </g>
     <g id="text_15">
      <!-- 300 -->
      <g style="fill: #808080" transform="translate(25.9 97.223112) scale(0.15 -0.15)">
       <use xlink:href="#DejaVuSans-33"/>
       <use xlink:href="#DejaVuSans-30" x="63.623047"/>
       <use xlink:href="#DejaVuSans-30" x="127.246094"/>
      </g>
     </g>
    </g>
    <g id="ytick_7">
     <g id="line2d_29">
      <path d="M 58.03125 37.606501 
L 616.03125 37.606501 
" clip-path="url(#pc71b1cdce2)" style="fill: none; stroke: #808080; stroke-width: 0.8; stroke-linecap: square"/>
     </g>
     <g id="line2d_30">
      <g>
       <use xlink:href="#m5db69c9de1" x="58.03125" y="37.606501" style="fill: #808080; stroke: #808080; stroke-width: 0.8"/>
      </g>
     </g>
     <g id="text_16">
      <!-- 350 -->
      <g style="fill: #808080" transform="translate(25.9 43.305329) scale(0.15 -0.15)">
       <use xlink:href="#DejaVuSans-33"/>
       <use xlink:href="#DejaVuSans-35" x="63.623047"/>
       <use xlink:href="#DejaVuSans-30" x="127.246094"/>
      </g>
     </g>
    </g>
    <g id="text_17">
     <!-- $\theta$ [deg] -->
     <g style="fill: #808080" transform="translate(18.75 247.917187) rotate(-90) scale(0.15 -0.15)">
      <defs>
       <path id="DejaVuSans-Oblique-3b8" d="M 2913 2219 
L 925 2219 
Q 791 1284 928 888 
Q 1100 400 1566 400 
Q 2034 400 2391 891 
Q 2703 1322 2913 2219 
z
M 3009 2750 
Q 3094 3638 2984 3950 
Q 2813 4444 2353 4444 
Q 1875 4444 1525 3956 
Q 1250 3563 1034 2750 
L 3009 2750 
z
M 2444 4913 
Q 3194 4913 3494 4250 
Q 3794 3591 3566 2422 
Q 3341 1256 2781 594 
Q 2225 -72 1475 -72 
Q 722 -72 425 594 
Q 128 1256 353 2422 
Q 581 3591 1134 4250 
Q 1691 4913 2444 4913 
z
" transform="scale(0.015625)"/>
       <path id="DejaVuSans-64" d="M 2906 2969 
L 2906 4863 
L 3481 4863 
L 3481 0 
L 2906 0 
L 2906 525 
Q 2725 213 2448 61 
Q 2172 -91 1784 -91 
Q 1150 -91 751 415 
Q 353 922 353 1747 
Q 353 2572 751 3078 
Q 1150 3584 1784 3584 
Q 2172 3584 2448 3432 
Q 2725 3281 2906 2969 
z
M 947 1747 
Q 947 1113 1208 752 
Q 1469 391 1925 391 
Q 2381 391 2643 752 
Q 2906 1113 2906 1747 
Q 2906 2381 2643 2742 
Q 2381 3103 1925 3103 
Q 1469 3103 1208 2742 
Q 947 2381 947 1747 
z
" transform="scale(0.015625)"/>
       <path id="DejaVuSans-67" d="M 2906 1791 
Q 2906 2416 2648 2759 
Q 2391 3103 1925 3103 
Q 1463 3103 1205 2759 
Q 947 2416 947 1791 
Q 947 1169 1205 825 
Q 1463 481 1925 481 
Q 2391 481 2648 825 
Q 2906 1169 2906 1791 
z
M 3481 434 
Q 3481 -459 3084 -895 
Q 2688 -1331 1869 -1331 
Q 1566 -1331 1297 -1286 
Q 1028 -1241 775 -1147 
L 775 -588 
Q 1028 -725 1275 -790 
Q 1522 -856 1778 -856 
Q 2344 -856 2625 -561 
Q 2906 -266 2906 331 
L 2906 616 
Q 2728 306 2450 153 
Q 2172 0 1784 0 
Q 1141 0 747 490 
Q 353 981 353 1791 
Q 353 2603 747 3093 
Q 1141 3584 1784 3584 
Q 2172 3584 2450 3431 
Q 2728 3278 2906 2969 
L 2906 3500 
L 3481 3500 
L 3481 434 
z
" transform="scale(0.015625)"/>
      </defs>
      <use xlink:href="#DejaVuSans-Oblique-3b8" transform="translate(0 0.234375)"/>
      <use xlink:href="#DejaVuSans-20" transform="translate(61.181641 0.234375)"/>
      <use xlink:href="#DejaVuSans-5b" transform="translate(92.96875 0.234375)"/>
      <use xlink:href="#DejaVuSans-64" transform="translate(131.982422 0.234375)"/>
      <use xlink:href="#DejaVuSans-65" transform="translate(195.458984 0.234375)"/>
      <use xlink:href="#DejaVuSans-67" transform="translate(256.982422 0.234375)"/>
      <use xlink:href="#DejaVuSans-5d" transform="translate(320.458984 0.234375)"/>
     </g>
    </g>
   </g>
   <g id="line2d_31">
    <path d="M 83.394886 87.913131 
L 85.419935 101.56699 
L 87.444983 112.139233 
L 88.457508 115.627807 
L 88.795027 116.11018 
L 89.132546 116.940411 
L 89.470032 116.909751 
L 89.807551 116.672579 
L 90.145071 115.351686 
L 90.820075 111.654864 
L 92.845124 101.095518 
L 93.182643 100.509342 
L 93.857648 98.268619 
L 94.870172 97.438896 
L 95.207692 97.519144 
L 95.882697 97.291559 
L 96.220216 97.682643 
L 96.557735 97.593083 
L 96.895221 97.795516 
L 97.23274 97.480294 
L 97.57026 97.57058 
L 98.920269 96.675787 
L 99.257788 97.051147 
L 99.932793 96.018318 
L 100.270313 95.493842 
L 100.607832 95.639794 
L 100.945318 95.499983 
L 101.282837 95.14784 
L 101.620357 94.499481 
L 101.957842 95.095141 
L 102.632881 94.23171 
L 102.9704 94.656637 
L 103.307886 93.941738 
L 103.645405 93.769235 
L 103.982924 92.996694 
L 104.32041 92.827536 
L 106.007973 88.43886 
L 106.345458 87.526337 
L 107.020497 85.184785 
L 107.357983 84.901737 
L 107.695502 85.555501 
L 108.033021 84.029427 
L 108.370507 83.953506 
L 108.708026 83.155 
L 109.045546 83.226849 
L 109.383031 83.662461 
L 109.72055 83.684459 
L 110.05807 82.839579 
L 110.395555 82.802196 
L 110.733075 83.812837 
L 111.070594 83.83581 
L 111.408113 84.176386 
L 111.745599 85.735334 
L 112.083118 85.545287 
L 112.758123 87.84751 
L 113.095643 87.90644 
L 114.445686 91.941623 
L 115.120691 93.123149 
L 115.795696 96.281137 
L 116.133215 97.084687 
L 116.808275 99.530225 
L 117.145794 100.510347 
L 117.483314 101.902685 
L 117.820799 102.530823 
L 118.158319 104.200394 
L 118.495838 105.142351 
L 118.833323 106.497204 
L 119.170843 107.021612 
L 119.508362 107.793671 
L 119.845882 109.043253 
L 120.183367 109.425968 
L 120.858406 111.210318 
L 121.195891 111.757474 
L 121.533411 113.013147 
L 122.208416 114.236306 
L 122.545935 115.82475 
L 123.22094 115.307155 
L 123.558459 116.086184 
L 123.895979 115.762935 
L 124.233464 116.002024 
L 124.570983 115.999409 
L 124.908503 115.49141 
L 125.245988 115.641056 
L 125.583508 115.661745 
L 125.921027 115.831276 
L 126.258513 115.605348 
L 126.596032 114.911085 
L 126.933551 114.972121 
L 127.271037 114.244498 
L 127.608556 114.438164 
L 127.946075 114.401246 
L 128.283561 114.628695 
L 128.62108 114.717397 
L 128.9586 115.422259 
L 129.296085 115.292186 
L 129.633605 115.510003 
L 129.971124 116.064629 
L 130.308609 116.045215 
L 130.646129 116.35645 
L 131.321134 116.100783 
L 131.658653 115.8036 
L 132.333658 115.556832 
L 132.671177 115.058288 
L 133.008697 115.032493 
L 133.346216 114.4805 
L 133.683702 114.169351 
L 134.021221 114.113808 
L 134.696226 112.841452 
L 135.033745 112.843784 
L 135.371265 112.491665 
L 135.70875 112.718954 
L 136.383789 112.245291 
L 136.721274 112.249323 
L 137.058794 111.79802 
L 138.071318 111.31059 
L 138.408837 110.444715 
L 138.746323 110.157728 
L 139.083842 109.158422 
L 139.421362 109.259409 
L 139.758847 108.62938 
L 140.433886 108.118729 
L 140.771371 108.093315 
L 141.108891 107.825841 
L 141.44641 107.377353 
L 141.783896 107.331314 
L 142.121415 106.858355 
L 142.458934 106.693276 
L 142.79642 105.918103 
L 143.471458 105.086697 
L 144.483983 104.509772 
L 145.496507 102.960969 
L 145.833992 102.996543 
L 147.859041 101.266209 
L 148.19656 100.65551 
L 149.209085 99.870297 
L 149.884089 98.337738 
L 150.221609 98.625476 
L 150.896614 97.309505 
L 151.234133 97.463177 
L 151.571652 96.755743 
L 151.909138 96.931218 
L 152.246657 96.730646 
L 152.584177 96.895697 
L 152.921696 96.632955 
L 153.596701 97.070793 
L 153.934186 97.613385 
L 154.271706 97.588211 
L 154.609194 97.700697 
L 154.946713 98.148993 
L 155.959204 101.321465 
L 156.296723 101.758217 
L 156.634242 103.700019 
L 156.971762 104.567915 
L 159.671815 119.929821 
L 161.021859 127.604884 
L 161.359344 128.302736 
L 161.696864 130.481646 
L 162.034383 131.881862 
L 162.371869 134.361583 
L 162.709388 135.181801 
L 163.384393 139.325697 
L 163.721912 139.898722 
L 164.734436 143.311026 
L 165.071956 144.352547 
L 165.746961 144.384187 
L 166.08448 145.703108 
L 167.097004 142.891579 
L 167.43449 140.798783 
L 167.772009 139.730929 
L 168.447014 132.828394 
L 168.784533 131.365397 
L 169.122053 130.554637 
L 169.459538 127.916429 
L 169.797058 122.524146 
L 170.472062 118.255915 
L 170.809582 117.847923 
L 171.147101 116.085177 
L 171.484587 117.174059 
L 171.822106 114.17826 
L 172.159625 112.645001 
L 172.497111 110.274394 
L 172.83463 109.814075 
L 173.17215 108.075924 
L 173.509635 108.494226 
L 173.847155 106.847722 
L 174.184674 107.018651 
L 174.522159 106.655326 
L 175.197198 107.527805 
L 176.547208 113.783759 
L 177.222247 119.176204 
L 178.572256 126.978278 
L 179.247295 129.806361 
L 179.584781 132.188801 
L 180.934824 136.853749 
L 181.272344 137.413269 
L 181.609829 137.730189 
L 181.947349 138.304926 
L 182.284868 136.894071 
L 182.622353 136.418036 
L 183.297392 133.167406 
L 183.972397 128.74947 
L 184.647402 126.158876 
L 184.984921 125.354001 
L 185.322441 125.986085 
L 185.659926 127.542235 
L 185.997445 129.695236 
L 188.360013 150.873974 
L 188.697499 153.262838 
L 189.035018 156.911873 
L 189.372538 159.273877 
L 190.385062 169.711089 
L 191.735072 187.234901 
L 192.072591 189.770298 
L 192.41011 191.069947 
L 192.747596 190.558906 
L 193.08509 188.791181 
L 193.422609 183.036321 
L 194.097614 164.872716 
L 195.110138 124.103665 
L 195.447658 113.255925 
L 196.460148 94.950672 
L 197.135187 88.762239 
L 197.472706 85.852945 
L 197.810192 84.795667 
L 198.48523 81.52196 
L 199.160235 80.357933 
L 200.172759 79.295735 
L 200.510245 79.294024 
L 201.185284 78.324656 
L 202.197808 77.174918 
L 202.872813 75.688246 
L 203.547818 75.640271 
L 203.885337 75.827467 
L 204.560342 77.017861 
L 204.897861 77.698405 
L 205.910386 82.206811 
L 207.260429 93.541405 
L 208.610439 110.064014 
L 208.947958 113.139567 
L 209.285478 113.237454 
L 209.622963 111.169543 
L 209.960483 107.942081 
L 210.635487 99.115288 
L 211.648012 90.475256 
L 211.985531 88.658862 
L 214.348099 81.906732 
L 215.023104 80.696539 
L 215.360623 79.790532 
L 216.035628 78.934052 
L 216.373147 78.306179 
L 217.048152 78.110304 
L 217.385672 78.214533 
L 217.723157 78.106768 
L 218.735681 79.541919 
L 219.073201 80.558552 
L 219.410686 81.217088 
L 220.42321 84.353252 
L 221.098249 85.457766 
L 221.435735 85.798541 
L 221.773254 86.90322 
L 222.110773 87.091031 
L 222.785778 86.984917 
L 223.123298 86.708858 
L 223.798303 84.979948 
L 224.810827 83.957369 
L 225.148346 82.637073 
L 225.485832 82.591111 
L 226.16087 81.24376 
L 226.498356 79.955743 
L 226.835875 80.132746 
L 227.173395 79.863064 
L 227.51088 79.109165 
L 227.8484 79.028382 
L 228.185919 78.579476 
L 228.523404 78.957383 
L 228.860924 78.992278 
L 229.198443 78.825773 
L 229.535929 79.129574 
L 229.873448 79.124284 
L 230.210967 80.074564 
L 230.548453 80.426892 
L 230.885972 81.012673 
L 231.223458 80.368661 
L 231.560982 81.199061 
L 231.898501 81.023846 
L 232.235986 81.070082 
L 232.911025 79.744855 
L 233.248511 78.467806 
L 233.58603 77.652595 
L 234.261035 74.364398 
L 234.936074 69.869055 
L 237.636127 47.897414 
L 238.311132 41.504234 
L 238.986171 35.435818 
L 239.323656 32.849861 
L 239.998661 29.336988 
L 240.33618 29.029983 
L 241.011185 27.572312 
L 241.686224 28.386586 
L 242.023709 28.844866 
L 243.373753 34.254691 
L 243.711272 36.627177 
L 244.048758 37.728639 
L 244.723797 41.218971 
L 245.398802 43.776001 
L 246.073806 47.750109 
L 247.086331 51.925793 
L 247.42385 53.897222 
L 247.761369 54.008212 
L 248.436374 56.866222 
L 248.77386 57.923411 
L 249.448899 62.102015 
L 250.123903 66.938071 
L 250.798908 71.68 
L 251.473947 78.712516 
L 252.148952 87.399645 
L 254.849005 126.717344 
L 255.52401 134.955118 
L 256.199049 140.998032 
L 258.224097 155.229109 
L 258.899102 158.789391 
L 259.574107 161.158968 
L 259.911626 160.956944 
L 260.249146 160.200559 
L 260.586631 158.626809 
L 261.261636 151.031416 
L 262.949199 126.362458 
L 263.624204 121.170632 
L 264.299209 119.016053 
L 264.636728 118.579638 
L 264.974248 118.771374 
L 265.311733 119.439787 
L 267.336782 128.375982 
L 267.674301 129.154327 
L 268.686825 129.420701 
L 269.024311 128.550032 
L 269.36183 127.986779 
L 269.699358 127.775265 
L 270.711848 123.799453 
L 271.386887 120.296618 
L 272.061892 115.043098 
L 274.42446 93.789297 
L 275.43695 88.10036 
L 276.111989 86.485737 
L 276.449474 86.408571 
L 277.799518 84.4064 
L 279.149562 78.124504 
L 279.487047 77.176826 
L 280.162052 74.171507 
L 280.499571 72.997923 
L 281.174576 71.800484 
L 281.512096 71.430927 
L 281.849615 70.132785 
L 282.187101 70.166553 
L 282.52462 70.314375 
L 282.862139 69.860761 
L 283.87463 69.157032 
L 284.212149 68.450767 
L 284.887154 68.607783 
L 285.224673 69.06304 
L 285.562193 68.171407 
L 285.899678 69.492429 
L 286.237198 69.862975 
L 286.912202 69.197063 
L 287.249722 69.540813 
L 287.587207 69.408952 
L 287.924727 68.897554 
L 288.262246 66.927763 
L 288.599732 66.90565 
L 288.937251 66.39638 
L 289.27477 66.425156 
L 289.612256 64.947994 
L 289.949775 64.582669 
L 290.287294 64.394622 
L 290.62478 63.503106 
L 290.962299 63.277158 
L 291.299785 62.882706 
L 291.637304 63.936826 
L 291.974824 63.004275 
L 292.312309 62.846902 
L 292.649828 63.068552 
L 293.324833 61.734147 
L 293.662353 61.731252 
L 293.999872 60.526048 
L 294.337358 61.369549 
L 294.674877 61.469447 
L 295.349882 61.128823 
L 295.687401 61.217252 
L 296.024887 60.514456 
L 296.362406 60.976818 
L 297.037411 60.73921 
L 297.37493 61.336118 
L 297.71245 61.084425 
L 298.049935 60.693245 
L 298.387455 61.038227 
L 298.72494 60.738978 
L 299.062459 60.918266 
L 299.399979 61.627768 
L 299.737464 60.963214 
L 300.074984 60.852607 
L 300.412503 61.207986 
L 300.749989 61.035041 
L 301.087508 61.138494 
L 301.424993 61.420986 
L 302.437518 62.845252 
L 302.775037 63.768829 
L 303.112556 63.915855 
L 303.450042 65.277615 
L 303.787561 65.947847 
L 304.125081 66.22001 
L 304.800086 67.117411 
L 305.47509 68.468658 
L 306.150095 70.52163 
L 306.487615 70.983036 
L 306.825134 71.669789 
L 307.16262 73.964349 
L 307.500139 75.153472 
L 307.837658 75.46809 
L 308.175148 75.490922 
L 308.850153 76.890557 
L 309.862677 77.596935 
L 310.200196 77.450414 
L 310.537716 78.285361 
L 311.212721 78.965293 
L 312.90025 81.09783 
L 313.237769 80.19957 
L 313.575255 80.208431 
L 313.912774 80.731898 
L 314.587779 79.545176 
L 314.925298 79.940337 
L 315.262784 78.944816 
L 315.600303 78.35394 
L 316.275308 78.885221 
L 316.612827 78.617294 
L 316.950347 79.067532 
L 317.287832 78.579853 
L 317.962837 79.439815 
L 318.637876 78.382011 
L 318.975361 78.428852 
L 319.312881 78.306452 
L 319.6504 78.839141 
L 320.325405 78.383169 
L 320.66289 78.808042 
L 321.00041 79.733289 
L 321.337929 79.571177 
L 321.675415 80.750774 
L 322.012934 80.929931 
L 322.687939 83.128815 
L 323.025458 83.605814 
L 323.362944 84.677098 
L 323.700463 85.042619 
L 324.037983 85.596107 
L 324.375468 85.726475 
L 324.712987 87.17732 
L 326.400517 91.24755 
L 330.113094 105.131808 
L 331.125618 111.333164 
L 331.800623 115.090898 
L 332.475628 119.928158 
L 332.813147 120.641731 
L 333.150667 122.591437 
L 333.825672 124.444779 
L 334.163157 124.899479 
L 334.838196 124.876025 
L 335.85072 122.828785 
L 336.188206 122.345592 
L 337.20073 118.227093 
L 337.538249 117.970261 
L 338.213254 115.172643 
L 340.238303 104.666538 
L 340.575788 103.392575 
L 342.263317 94.674556 
L 342.600837 93.728791 
L 342.938356 91.739352 
L 343.275842 91.013898 
L 343.613361 90.627237 
L 344.288366 89.09839 
L 344.625885 88.300212 
L 345.30089 87.087058 
L 345.638409 87.103769 
L 345.975895 86.437513 
L 346.31341 85.065272 
L 346.650896 84.624503 
L 347.325934 82.970051 
L 348.000939 81.092101 
L 348.675944 78.648548 
L 349.013464 78.252756 
L 349.688468 75.35752 
L 350.025988 74.35551 
L 351.038478 70.647354 
L 351.375998 70.634329 
L 352.051002 69.168413 
L 352.388522 67.556663 
L 352.726041 67.169502 
L 354.076051 63.85327 
L 354.41357 63.203625 
L 354.751056 62.143792 
L 355.088575 61.590251 
L 355.426061 60.371064 
L 355.76358 60.138188 
L 356.101099 58.602826 
L 356.438585 58.451271 
L 357.451109 57.530517 
L 357.788629 57.580876 
L 358.126114 58.305768 
L 358.463633 57.994874 
L 358.801153 58.271987 
L 359.138638 58.404661 
L 359.476158 57.873782 
L 359.813643 57.666388 
L 360.151163 58.103908 
L 360.488682 57.207529 
L 360.826167 57.821908 
L 361.163687 57.440554 
L 361.501206 57.772173 
L 361.838692 58.621658 
L 362.513697 59.384361 
L 362.851216 58.469552 
L 363.526221 58.943497 
L 363.86374 58.772515 
L 364.201226 58.876589 
L 364.538745 58.473413 
L 364.876264 58.925587 
L 365.21375 58.52368 
L 365.551269 58.73281 
L 365.888755 59.801323 
L 366.226274 59.763763 
L 366.563794 60.508794 
L 366.901279 62.188157 
L 367.238798 62.89697 
L 367.913803 66.998034 
L 368.251323 68.42246 
L 368.588808 70.336715 
L 369.601332 77.461258 
L 369.938852 78.992067 
L 370.613857 84.522042 
L 370.951376 85.419954 
L 371.288862 85.222017 
L 371.626381 86.503727 
L 371.9639 87.254003 
L 372.638905 90.519129 
L 372.976391 91.526642 
L 373.988915 96.134973 
L 374.326434 97.2245 
L 374.66392 99.121181 
L 375.001439 99.699869 
L 376.351449 105.462517 
L 376.688968 105.784406 
L 377.026488 107.942193 
L 377.701493 107.192927 
L 378.376497 108.545127 
L 378.714017 108.847546 
L 379.051502 108.794879 
L 380.064027 108.999342 
L 380.401546 109.393874 
L 380.739031 109.158679 
L 381.41407 108.350095 
L 381.751556 109.000626 
L 382.089075 108.745857 
L 382.426561 109.555245 
L 382.76408 107.540822 
L 383.776604 104.725751 
L 384.11409 104.861291 
L 384.451609 103.92211 
L 384.789111 103.480203 
L 385.464116 100.773139 
L 385.801602 99.926948 
L 386.139121 100.388043 
L 386.476641 98.815866 
L 386.814126 98.969399 
L 387.151645 99.367669 
L 387.489165 97.170565 
L 389.176694 92.158124 
L 392.551752 68.491558 
L 392.889238 65.051461 
L 393.226757 63.57206 
L 393.564243 60.972893 
L 393.901762 59.768475 
L 394.576767 55.724738 
L 394.914286 54.987637 
L 395.251772 52.747144 
L 395.589291 49.634104 
L 395.92681 48.553185 
L 396.264296 46.755399 
L 396.601815 46.337474 
L 396.939335 45.312359 
L 397.61434 45.202844 
L 397.951825 43.515133 
L 398.626864 42.365371 
L 398.964349 40.832607 
L 399.301869 40.220733 
L 400.651878 36.41168 
L 401.326883 34.486325 
L 401.664403 34.649831 
L 402.676927 33.236972 
L 403.014412 31.988719 
L 403.689451 31.309799 
L 404.026937 30.698926 
L 404.364456 29.777661 
L 404.701942 29.504263 
L 405.039461 28.104991 
L 405.37698 27.636621 
L 405.714466 414.436827 
L 406.051985 413.532208 
L 406.389471 411.955657 
L 406.72699 411.479597 
L 408.414519 405.655909 
L 408.752039 404.182949 
L 409.089524 401.867721 
L 409.427043 400.401286 
L 410.102048 395.332968 
L 410.777053 390.86359 
L 411.452092 387.753355 
L 411.789577 386.69466 
L 413.477107 384.009502 
L 413.814626 383.295237 
L 414.489631 380.422246 
L 414.82715 379.494324 
L 415.164636 377.990564 
L 415.502155 377.029926 
L 416.514679 376.128664 
L 416.852165 376.331925 
L 417.189684 376.880567 
L 417.52717 376.829548 
L 417.864689 376.362892 
L 418.202208 376.32746 
L 418.539694 376.520662 
L 418.877213 376.97483 
L 419.214699 376.074201 
L 419.552218 376.53652 
L 419.889738 376.636217 
L 420.227223 376.476854 
L 420.564742 377.053002 
L 421.239747 377.350222 
L 421.577267 377.508731 
L 421.914752 376.953813 
L 422.252272 377.898895 
L 422.589757 377.523899 
L 422.927285 376.858653 
L 423.264804 377.033929 
L 423.60229 376.509497 
L 424.277295 374.218556 
L 424.614814 372.395598 
L 425.289819 370.761873 
L 425.627338 369.685458 
L 425.964824 369.305599 
L 426.302343 368.04653 
L 427.314867 365.42015 
L 427.652353 365.048939 
L 428.327392 362.538249 
L 428.664877 362.746175 
L 429.002396 362.593033 
L 429.339916 362.66504 
L 429.677401 361.366309 
L 430.014921 360.906408 
L 430.689926 359.643867 
L 431.36493 358.976912 
L 431.70245 358.814553 
L 432.039935 359.423058 
L 432.71494 360.286584 
L 433.05246 360.927072 
L 433.389979 361.285576 
L 435.077508 368.114699 
L 435.414994 370.050443 
L 435.752513 372.765322 
L 436.090032 374.154548 
L 436.765037 378.091719 
L 437.102523 381.91178 
L 437.440042 383.777193 
L 438.115047 389.481172 
L 438.790052 392.636588 
L 440.140095 397.573045 
L 440.477581 398.314988 
L 440.8151 399.350084 
L 441.15262 400.87553 
L 441.490105 401.222484 
L 442.502629 405.853006 
L 442.840149 407.005667 
L 443.177634 409.020766 
L 443.515154 409.701974 
L 443.852639 411.575033 
L 444.527678 413.568653 
L 444.865163 26.877187 
L 445.202683 28.049189 
L 445.540168 30.485896 
L 445.877688 31.048789 
L 446.215207 32.944163 
L 446.552693 33.9401 
L 446.890212 34.560038 
L 447.227697 35.824433 
L 447.565217 36.113912 
L 447.902736 37.541678 
L 448.240222 37.062234 
L 448.577741 36.95574 
L 448.915227 36.682721 
L 449.252746 36.673534 
L 449.590265 36.508852 
L 449.927751 36.484159 
L 450.26527 35.843628 
L 451.277794 35.062252 
L 451.61528 34.798826 
L 452.290285 34.657715 
L 452.627804 33.900585 
L 452.965324 34.387323 
L 453.302809 33.806245 
L 453.640328 33.451062 
L 453.977814 33.645862 
L 454.315333 33.211598 
L 454.652853 32.579588 
L 454.990338 32.80351 
L 455.327858 32.070579 
L 456.002862 31.451824 
L 456.340382 31.309008 
L 457.690392 30.059317 
L 458.027911 30.403599 
L 458.365396 30.16597 
L 458.702916 30.390343 
L 459.040401 30.4727 
L 461.06545 33.283999 
L 461.740448 34.506412 
L 462.752972 35.371653 
L 463.090491 35.91524 
L 463.427977 36.908106 
L 463.765496 36.678618 
L 464.440501 37.662718 
L 464.77802 37.909605 
L 465.115506 37.98589 
L 465.453025 38.585383 
L 466.12803 38.702106 
L 466.465549 39.356086 
L 466.803035 39.09791 
L 467.140554 39.751717 
L 467.47804 40.082998 
L 467.815559 39.912586 
L 468.828083 39.837751 
L 469.165569 39.721884 
L 469.503088 39.008657 
L 469.840608 38.724072 
L 470.515613 37.599218 
L 470.853098 36.532381 
L 471.190617 35.842672 
L 471.528137 35.481506 
L 471.865622 34.600813 
L 472.203142 34.384248 
L 472.540627 33.655269 
L 473.553151 33.14637 
L 473.890671 32.746138 
L 474.228156 32.921881 
L 474.565676 32.809627 
L 474.903195 33.037889 
L 475.240681 32.837819 
L 475.5782 33.350512 
L 475.915685 32.675959 
L 476.590724 31.988478 
L 476.92821 31.892105 
L 477.265729 31.936384 
L 477.603215 32.528317 
L 477.940734 31.823893 
L 478.278253 31.717366 
L 478.615739 31.934151 
L 478.953258 32.470997 
L 479.965782 32.32143 
L 480.303268 32.756265 
L 480.640787 32.472011 
L 480.978273 32.973205 
L 481.315792 32.391479 
L 481.653312 32.266178 
L 481.990797 32.577395 
L 482.328316 32.450368 
L 482.665802 32.618529 
L 483.340807 31.793337 
L 483.678326 32.178793 
L 484.353331 31.758243 
L 484.69085 30.906574 
L 485.028336 31.222581 
L 485.365855 31.014104 
L 485.703375 31.347878 
L 486.37838 31.175913 
L 486.715899 31.282179 
L 487.053384 30.560515 
L 487.390904 30.245828 
L 487.728389 29.645123 
L 488.065909 29.281595 
L 488.403394 29.799364 
L 488.740914 29.221601 
L 489.078433 29.154043 
L 489.753438 27.824636 
L 490.090923 27.801398 
L 490.428443 27.243377 
L 490.765962 26.952198 
L 491.103448 26.893211 
L 491.440967 414.957187 
L 492.115972 413.821468 
L 492.453491 413.197269 
L 492.790977 413.382376 
L 493.465982 413.32625 
L 493.803501 413.287576 
L 494.14102 413.891606 
L 494.478506 413.779346 
L 494.816025 413.980014 
L 495.153511 414.420342 
L 495.49103 414.310102 
L 495.828549 414.772865 
L 496.166035 26.986931 
L 496.503554 27.283025 
L 497.178559 28.170617 
L 497.516078 29.307273 
L 497.853564 29.686025 
L 498.191083 29.37863 
L 498.528569 29.864182 
L 498.866088 30.700268 
L 499.203608 30.08195 
L 499.541093 30.354207 
L 499.878617 30.258546 
L 500.216102 31.004747 
L 500.553622 30.544662 
L 500.891141 30.531822 
L 501.566146 30.631648 
L 501.903632 30.276728 
L 502.241151 30.292571 
L 502.57867 29.969793 
L 502.916156 29.963196 
L 503.253675 29.30823 
L 503.591161 29.460529 
L 504.603685 28.133447 
L 504.941204 27.233159 
L 505.27869 414.394644 
L 505.616209 413.965074 
L 506.628733 410.365081 
L 506.966219 409.695449 
L 507.303738 407.925108 
L 507.641258 407.432869 
L 507.978743 406.732339 
L 508.653748 403.045193 
L 509.666272 394.234412 
L 510.341277 385.435262 
L 512.028806 361.987117 
L 512.703845 347.215357 
L 513.041331 342.646021 
L 513.716335 330.770309 
L 514.053855 326.040428 
L 514.391374 324.266085 
L 515.066379 315.734276 
L 515.403865 314.573981 
L 515.741384 311.141705 
L 516.078903 311.851229 
L 516.753908 314.698219 
L 517.091394 314.662857 
L 517.428913 316.326738 
L 517.766399 316.445474 
L 518.103918 318.808699 
L 518.778923 318.668345 
L 519.116442 318.09618 
L 519.453928 317.184171 
L 519.791447 315.207806 
L 521.816495 307.905725 
L 522.153981 309.25396 
L 522.4915 307.374673 
L 522.828986 309.629032 
L 523.166505 309.216084 
L 523.84151 310.381023 
L 524.179029 312.146076 
L 524.516515 311.856868 
L 524.854034 313.512332 
L 525.191554 313.239431 
L 525.529039 313.614903 
L 525.866559 317.534072 
L 526.204044 314.429848 
L 526.879083 316.599753 
L 527.216568 316.511325 
L 527.554088 319.240106 
L 527.891573 318.16147 
L 528.229093 315.019726 
L 528.566612 317.354977 
L 528.904097 322.374679 
L 529.241617 320.34484 
L 529.579102 325.062184 
L 529.916622 328.056761 
L 530.254141 333.483112 
L 530.591627 350.17559 
L 530.929146 354.93628 
L 531.266632 354.780356 
L 531.604151 365.714382 
L 532.279156 380.960154 
L 532.616675 384.562638 
L 532.954161 392.236735 
L 533.29168 395.401967 
L 533.629166 394.663744 
L 533.966685 409.097596 
L 534.304204 414.666275 
L 534.64169 37.724035 
L 534.979209 39.859442 
L 535.316695 43.99578 
L 536.329219 67.475053 
L 536.666738 71.032761 
L 537.341743 85.074315 
L 537.679262 87.778505 
L 538.016748 86.502825 
L 538.354275 87.867644 
L 539.02928 93.461623 
L 539.3668 90.392837 
L 539.704285 89.910684 
L 540.37929 86.693732 
L 540.716809 86.091305 
L 541.391815 83.849322 
L 541.729334 81.903056 
L 542.06682 80.702934 
L 542.404339 80.489385 
L 543.079344 78.673147 
L 543.416863 78.818096 
L 543.754349 76.869336 
L 544.091868 78.544691 
L 544.429387 79.013566 
L 544.766873 80.333714 
L 545.104392 79.942832 
L 545.441878 80.360491 
L 545.779397 81.572896 
L 546.116883 81.844544 
L 547.466926 85.488904 
L 547.804412 85.507407 
L 548.141931 86.790182 
L 548.479451 87.070357 
L 549.154455 88.77068 
L 549.82946 90.173946 
L 550.16698 91.062673 
L 550.504465 91.307048 
L 550.841984 91.156847 
L 551.17947 92.001323 
L 551.516989 92.295375 
L 552.191994 91.602712 
L 552.529513 91.793036 
L 552.866999 91.399411 
L 553.204518 92.215278 
L 553.542038 91.703938 
L 553.879523 91.656215 
L 554.217042 90.816965 
L 554.554528 90.83422 
L 554.892048 90.243534 
L 555.567053 88.796295 
L 555.904572 88.059548 
L 556.917062 84.275531 
L 557.929587 80.36392 
L 558.942111 78.666138 
L 559.27963 77.778475 
L 559.617116 77.215788 
L 559.954635 77.337998 
L 560.292121 76.883749 
L 560.967159 76.507766 
L 561.304645 76.275368 
L 561.97965 76.26219 
L 562.654655 77.139233 
L 562.992174 77.569344 
L 563.329693 77.597996 
L 563.667178 77.896625 
L 564.004698 78.436315 
L 564.342183 78.690823 
L 564.679703 78.702103 
L 565.017222 79.041736 
L 565.354708 78.875126 
L 566.029712 78.056362 
L 567.379756 75.429396 
L 568.054761 74.766638 
L 568.392281 74.958765 
L 569.067286 74.328975 
L 569.404771 73.944312 
L 569.74229 74.093004 
L 570.754815 74.049136 
L 571.0923 73.495059 
L 571.42982 74.011553 
L 571.767305 74.324713 
L 572.104824 74.278694 
L 572.442344 74.364658 
L 573.454834 76.986345 
L 573.792354 77.344733 
L 574.467358 78.457549 
L 574.804878 78.481238 
L 575.142363 79.336488 
L 575.479883 79.570445 
L 575.817368 79.947555 
L 576.154888 80.088542 
L 576.829895 80.035772 
L 578.179939 83.333509 
L 578.854944 87.684017 
L 580.204953 102.067288 
L 580.879958 106.289685 
L 581.217478 107.345636 
L 581.554963 108.93679 
L 581.892483 109.295522 
L 582.230002 110.984296 
L 582.567487 111.921135 
L 582.905007 112.034062 
L 583.242492 112.405138 
L 583.917531 108.487189 
L 584.255017 107.232082 
L 584.592536 106.94214 
L 584.930021 107.109973 
L 585.267541 107.049101 
L 585.60506 107.234477 
L 585.942546 107.096878 
L 586.280065 107.659322 
L 586.617551 107.228563 
L 586.95507 107.659938 
L 587.292589 107.827666 
L 587.630075 108.607689 
L 587.967594 106.438872 
L 588.30508 106.675655 
L 588.980085 104.991089 
L 589.655123 103.30707 
L 589.992609 101.496442 
L 590.330128 100.474144 
L 590.667614 101.207245 
L 590.667614 101.207245 
" clip-path="url(#pc71b1cdce2)" style="fill: none; stroke: #1f77b4; stroke-width: 2; stroke-linecap: square"/>
   </g>
   <g id="patch_3">
    <path d="M 58.03125 414.957187 
L 58.03125 26.877187 
" style="fill: none; stroke: #808080; stroke-width: 2; stroke-linejoin: miter; stroke-linecap: square"/>
   </g>
   <g id="patch_4">
    <path d="M 58.03125 414.957187 
L 616.03125 414.957187 
" style="fill: none; stroke: #808080; stroke-width: 2; stroke-linejoin: miter; stroke-linecap: square"/>
   </g>
   <g id="text_18">
    <!-- Thorb-Tyholt_restart-vinkel -->
    <g style="fill: #808080" transform="translate(217.867031 20.877187) scale(0.18 -0.18)">
     <defs>
      <path id="DejaVuSans-54" d="M -19 4666 
L 3928 4666 
L 3928 4134 
L 2272 4134 
L 2272 0 
L 1638 0 
L 1638 4134 
L -19 4134 
L -19 4666 
z
" transform="scale(0.015625)"/>
      <path id="DejaVuSans-68" d="M 3513 2113 
L 3513 0 
L 2938 0 
L 2938 2094 
Q 2938 2591 2744 2837 
Q 2550 3084 2163 3084 
Q 1697 3084 1428 2787 
Q 1159 2491 1159 1978 
L 1159 0 
L 581 0 
L 581 4863 
L 1159 4863 
L 1159 2956 
Q 1366 3272 1645 3428 
Q 1925 3584 2291 3584 
Q 2894 3584 3203 3211 
Q 3513 2838 3513 2113 
z
" transform="scale(0.015625)"/>
      <path id="DejaVuSans-6f" d="M 1959 3097 
Q 1497 3097 1228 2736 
Q 959 2375 959 1747 
Q 959 1119 1226 758 
Q 1494 397 1959 397 
Q 2419 397 2687 759 
Q 2956 1122 2956 1747 
Q 2956 2369 2687 2733 
Q 2419 3097 1959 3097 
z
M 1959 3584 
Q 2709 3584 3137 3096 
Q 3566 2609 3566 1747 
Q 3566 888 3137 398 
Q 2709 -91 1959 -91 
Q 1206 -91 779 398 
Q 353 888 353 1747 
Q 353 2609 779 3096 
Q 1206 3584 1959 3584 
z
" transform="scale(0.015625)"/>
      <path id="DejaVuSans-72" d="M 2631 2963 
Q 2534 3019 2420 3045 
Q 2306 3072 2169 3072 
Q 1681 3072 1420 2755 
Q 1159 2438 1159 1844 
L 1159 0 
L 581 0 
L 581 3500 
L 1159 3500 
L 1159 2956 
Q 1341 3275 1631 3429 
Q 1922 3584 2338 3584 
Q 2397 3584 2469 3576 
Q 2541 3569 2628 3553 
L 2631 2963 
z
" transform="scale(0.015625)"/>
      <path id="DejaVuSans-62" d="M 3116 1747 
Q 3116 2381 2855 2742 
Q 2594 3103 2138 3103 
Q 1681 3103 1420 2742 
Q 1159 2381 1159 1747 
Q 1159 1113 1420 752 
Q 1681 391 2138 391 
Q 2594 391 2855 752 
Q 3116 1113 3116 1747 
z
M 1159 2969 
Q 1341 3281 1617 3432 
Q 1894 3584 2278 3584 
Q 2916 3584 3314 3078 
Q 3713 2572 3713 1747 
Q 3713 922 3314 415 
Q 2916 -91 2278 -91 
Q 1894 -91 1617 61 
Q 1341 213 1159 525 
L 1159 0 
L 581 0 
L 581 4863 
L 1159 4863 
L 1159 2969 
z
" transform="scale(0.015625)"/>
      <path id="DejaVuSans-2d" d="M 313 2009 
L 1997 2009 
L 1997 1497 
L 313 1497 
L 313 2009 
z
" transform="scale(0.015625)"/>
      <path id="DejaVuSans-79" d="M 2059 -325 
Q 1816 -950 1584 -1140 
Q 1353 -1331 966 -1331 
L 506 -1331 
L 506 -850 
L 844 -850 
Q 1081 -850 1212 -737 
Q 1344 -625 1503 -206 
L 1606 56 
L 191 3500 
L 800 3500 
L 1894 763 
L 2988 3500 
L 3597 3500 
L 2059 -325 
z
" transform="scale(0.015625)"/>
      <path id="DejaVuSans-6c" d="M 603 4863 
L 1178 4863 
L 1178 0 
L 603 0 
L 603 4863 
z
" transform="scale(0.015625)"/>
      <path id="DejaVuSans-5f" d="M 3263 -1063 
L 3263 -1509 
L -63 -1509 
L -63 -1063 
L 3263 -1063 
z
" transform="scale(0.015625)"/>
      <path id="DejaVuSans-61" d="M 2194 1759 
Q 1497 1759 1228 1600 
Q 959 1441 959 1056 
Q 959 750 1161 570 
Q 1363 391 1709 391 
Q 2188 391 2477 730 
Q 2766 1069 2766 1631 
L 2766 1759 
L 2194 1759 
z
M 3341 1997 
L 3341 0 
L 2766 0 
L 2766 531 
Q 2569 213 2275 61 
Q 1981 -91 1556 -91 
Q 1019 -91 701 211 
Q 384 513 384 1019 
Q 384 1609 779 1909 
Q 1175 2209 1959 2209 
L 2766 2209 
L 2766 2266 
Q 2766 2663 2505 2880 
Q 2244 3097 1772 3097 
Q 1472 3097 1187 3025 
Q 903 2953 641 2809 
L 641 3341 
Q 956 3463 1253 3523 
Q 1550 3584 1831 3584 
Q 2591 3584 2966 3190 
Q 3341 2797 3341 1997 
z
" transform="scale(0.015625)"/>
      <path id="DejaVuSans-76" d="M 191 3500 
L 800 3500 
L 1894 563 
L 2988 3500 
L 3597 3500 
L 2284 0 
L 1503 0 
L 191 3500 
z
" transform="scale(0.015625)"/>
      <path id="DejaVuSans-6e" d="M 3513 2113 
L 3513 0 
L 2938 0 
L 2938 2094 
Q 2938 2591 2744 2837 
Q 2550 3084 2163 3084 
Q 1697 3084 1428 2787 
Q 1159 2491 1159 1978 
L 1159 0 
L 581 0 
L 581 3500 
L 1159 3500 
L 1159 2956 
Q 1366 3272 1645 3428 
Q 1925 3584 2291 3584 
Q 2894 3584 3203 3211 
Q 3513 2838 3513 2113 
z
" transform="scale(0.015625)"/>
      <path id="DejaVuSans-6b" d="M 581 4863 
L 1159 4863 
L 1159 1991 
L 2875 3500 
L 3609 3500 
L 1753 1863 
L 3688 0 
L 2938 0 
L 1159 1709 
L 1159 0 
L 581 0 
L 581 4863 
z
" transform="scale(0.015625)"/>
     </defs>
     <use xlink:href="#DejaVuSans-54"/>
     <use xlink:href="#DejaVuSans-68" x="61.083984"/>
     <use xlink:href="#DejaVuSans-6f" x="124.462891"/>
     <use xlink:href="#DejaVuSans-72" x="185.644531"/>
     <use xlink:href="#DejaVuSans-62" x="226.757812"/>
     <use xlink:href="#DejaVuSans-2d" x="290.234375"/>
     <use xlink:href="#DejaVuSans-54" x="317.193359"/>
     <use xlink:href="#DejaVuSans-79" x="362.652344"/>
     <use xlink:href="#DejaVuSans-68" x="421.832031"/>
     <use xlink:href="#DejaVuSans-6f" x="485.210938"/>
     <use xlink:href="#DejaVuSans-6c" x="546.392578"/>
     <use xlink:href="#DejaVuSans-74" x="574.175781"/>
     <use xlink:href="#DejaVuSans-5f" x="613.384766"/>
     <use xlink:href="#DejaVuSans-72" x="663.384766"/>
     <use xlink:href="#DejaVuSans-65" x="702.248047"/>
     <use xlink:href="#DejaVuSans-73" x="763.771484"/>
     <use xlink:href="#DejaVuSans-74" x="815.871094"/>
     <use xlink:href="#DejaVuSans-61" x="855.080078"/>
     <use xlink:href="#DejaVuSans-72" x="916.359375"/>
     <use xlink:href="#DejaVuSans-74" x="957.472656"/>
     <use xlink:href="#DejaVuSans-2d" x="996.681641"/>
     <use xlink:href="#DejaVuSans-76" x="1030.140625"/>
     <use xlink:href="#DejaVuSans-69" x="1089.320312"/>
     <use xlink:href="#DejaVuSans-6e" x="1117.103516"/>
     <use xlink:href="#DejaVuSans-6b" x="1180.482422"/>
     <use xlink:href="#DejaVuSans-65" x="1234.767578"/>
     <use xlink:href="#DejaVuSans-6c" x="1296.291016"/>
    </g>
   </g>
   <g id="legend_1">
    <g id="patch_5">
     <path d="M 68.53125 407.457187 
L 315.138281 407.457187 
Q 318.138281 407.457187 318.138281 404.457187 
L 318.138281 383.522812 
Q 318.138281 380.522812 315.138281 380.522812 
L 68.53125 380.522812 
Q 65.53125 380.522812 65.53125 383.522812 
L 65.53125 404.457187 
Q 65.53125 407.457187 68.53125 407.457187 
z
" style="fill: #ffffff; opacity: 0.8; stroke: #cccccc; stroke-linejoin: miter"/>
    </g>
    <g id="line2d_32">
     <path d="M 71.53125 392.670469 
L 86.53125 392.670469 
L 101.53125 392.670469 
" style="fill: none; stroke: #1f77b4; stroke-width: 2; stroke-linecap: square"/>
    </g>
    <g id="text_19">
     <!-- Thorb-Tyholt_restart-vinkel -->
     <g style="fill: #808080" transform="translate(113.53125 397.920469) scale(0.15 -0.15)">
      <use xlink:href="#DejaVuSans-54"/>
      <use xlink:href="#DejaVuSans-68" x="61.083984"/>
      <use xlink:href="#DejaVuSans-6f" x="124.462891"/>
      <use xlink:href="#DejaVuSans-72" x="185.644531"/>
      <use xlink:href="#DejaVuSans-62" x="226.757812"/>
      <use xlink:href="#DejaVuSans-2d" x="290.234375"/>
      <use xlink:href="#DejaVuSans-54" x="317.193359"/>
      <use xlink:href="#DejaVuSans-79" x="362.652344"/>
      <use xlink:href="#DejaVuSans-68" x="421.832031"/>
      <use xlink:href="#DejaVuSans-6f" x="485.210938"/>
      <use xlink:href="#DejaVuSans-6c" x="546.392578"/>
      <use xlink:href="#DejaVuSans-74" x="574.175781"/>
      <use xlink:href="#DejaVuSans-5f" x="613.384766"/>
      <use xlink:href="#DejaVuSans-72" x="663.384766"/>
      <use xlink:href="#DejaVuSans-65" x="702.248047"/>
      <use xlink:href="#DejaVuSans-73" x="763.771484"/>
      <use xlink:href="#DejaVuSans-74" x="815.871094"/>
      <use xlink:href="#DejaVuSans-61" x="855.080078"/>
      <use xlink:href="#DejaVuSans-72" x="916.359375"/>
      <use xlink:href="#DejaVuSans-74" x="957.472656"/>
      <use xlink:href="#DejaVuSans-2d" x="996.681641"/>
      <use xlink:href="#DejaVuSans-76" x="1030.140625"/>
      <use xlink:href="#DejaVuSans-69" x="1089.320312"/>
      <use xlink:href="#DejaVuSans-6e" x="1117.103516"/>
      <use xlink:href="#DejaVuSans-6b" x="1180.482422"/>
      <use xlink:href="#DejaVuSans-65" x="1234.767578"/>
      <use xlink:href="#DejaVuSans-6c" x="1296.291016"/>
     </g>
    </g>
   </g>
  </g>
 </g>
 <defs>
  <clipPath id="pc71b1cdce2">
   <rect x="58.03125" y="26.877187" width="558" height="388.08"/>
  </clipPath>
 </defs>
</svg>
