<?xml version="1.0" encoding="UTF-8" standalone="no"?>
<!-- Created with Inkscape (http://www.inkscape.org/) -->

<svg
   width="210mm"
   height="297mm"
   viewBox="0 0 210 297"
   version="1.1"
   id="svg5"
   inkscape:version="1.2.2 (732a01da63, 2022-12-09)"
   sodipodi:docname="telefon.svg"
   xmlns:inkscape="http://www.inkscape.org/namespaces/inkscape"
   xmlns:sodipodi="http://sodipodi.sourceforge.net/DTD/sodipodi-0.dtd"
   xmlns="http://www.w3.org/2000/svg"
   xmlns:svg="http://www.w3.org/2000/svg">
  <sodipodi:namedview
     id="namedview7"
     pagecolor="#ffffff"
     bordercolor="#000000"
     borderopacity="0.25"
     inkscape:showpageshadow="2"
     inkscape:pageopacity="0.0"
     inkscape:pagecheckerboard="0"
     inkscape:deskcolor="#d1d1d1"
     inkscape:document-units="mm"
     showgrid="false"
     inkscape:zoom="1.0255231"
     inkscape:cx="319.34923"
     inkscape:cy="501.6952"
     inkscape:window-width="1920"
     inkscape:window-height="1001"
     inkscape:window-x="-9"
     inkscape:window-y="-9"
     inkscape:window-maximized="1"
     inkscape:current-layer="layer1" />
  <defs
     id="defs2" />
  <g
     inkscape:label="Lag 1"
     inkscape:groupmode="layer"
     id="layer1">
    <path
       style="fill:#000000;stroke:#000000;stroke-width:0"
       d="m 113.47297,173.12838 46.7027,-52.9054"
       id="path348" />
    <rect
       style="fill:#ffffff;fill-opacity:1;stroke:#000000;stroke-width:2;stroke-dasharray:none"
       id="rect1949"
       width="96.076157"
       height="165.82407"
       x="59.414631"
       y="58.290668"
       ry="15.14046" />
    <path
       style="fill:#ffffff;fill-opacity:1;stroke:#000000;stroke-width:2;stroke-dasharray:none"
       d="M 59.472972,204.32432 H 156.52702"
       id="path6569" />
    <path
       style="fill:#ffffff;fill-opacity:1;stroke:#000000;stroke-width:2;stroke-dasharray:none"
       d="M 59.108106,82.459459 H 155.06757"
       id="path6571" />
    <rect
       style="fill:#ffffff;fill-opacity:1;stroke:#000000;stroke-width:2;stroke-dasharray:none"
       id="rect7358"
       width="55.459457"
       height="6.2027025"
       x="78.445946"
       y="64.216209"
       ry="3.101351" />
    <circle
       style="fill:#ffffff;fill-opacity:1;stroke:#000000;stroke-width:2;stroke-dasharray:none"
       id="path7556"
       cx="107.45271"
       cy="214.72296"
       r="7.4797297" />
    <path
       style="fill:#000000;fill-opacity:1;stroke:#000000;stroke-width:10.4241;stroke-dasharray:none"
       d="m 274.99889,841.91525 c -17.04231,-2.19551 -32.81558,-13.70954 -40.61256,-29.64598 -3.40651,-6.96266 -4.0994,-10.26103 -4.55893,-21.70192 l -0.54188,-13.49138 h 176.83493 176.83493 l -0.54189,13.49138 c -0.45951,11.44089 -1.1524,14.73926 -4.55892,21.70192 -8.05424,16.46227 -23.36894,27.33607 -41.85943,29.72117 -5.0659,0.65346 -34.03302,1.18356 -64.37139,1.17801 -51.08606,-0.009 -54.85508,-0.17092 -51.02362,-2.18725 11.62472,-6.11759 17.73266,-16.25084 17.73917,-29.42981 0.009,-19.04487 -13.15515,-32.20943 -32.21885,-32.21885 -19.0475,-0.009 -32.21442,13.15932 -32.21442,32.21885 0,13.17695 6.10652,23.31038 17.73474,29.42981 3.82643,2.01369 -0.10825,2.16772 -52.40263,2.05155 -31.09683,-0.0691 -60.00449,-0.57195 -64.23925,-1.1175 z"
       id="path11750"
       transform="scale(0.26458333)" />
    <path
       style="fill:#000000;fill-opacity:1;stroke:#000000;stroke-width:10.4241;stroke-dasharray:none"
       d="m 229.8299,285.11173 c 0.44573,-20.77877 0.64149,-22.07714 4.51969,-29.97602 8.11286,-16.52378 23.39319,-27.38042 41.89618,-29.76714 12.01283,-1.54955 247.73653,-1.54955 259.74937,0 18.50298,2.38672 33.78332,13.24336 41.89617,29.76714 3.87819,7.89888 4.07396,9.19725 4.5197,29.97602 l 0.46591,21.71951 H 406.12045 229.36398 Z m 273.75556,-17.70739 c 2.141,-1.58563 4.76886,-5.36087 5.83968,-8.38942 1.76674,-4.99675 1.70292,-6.00639 -0.68951,-10.90721 -5.22312,-10.69948 -0.18607,-10.2234 -108.13125,-10.22001 -92.62678,0.003 -95.98976,0.0933 -100.25652,2.69491 -4.85562,2.96064 -8.68866,9.19649 -8.68065,14.12226 0.008,4.87783 5.07107,12.07442 10.01988,14.24196 3.72417,1.63116 20.32386,1.90104 101.23014,1.64579 95.77357,-0.30216 96.81579,-0.33517 100.66823,-3.18828 z"
       id="path11752"
       transform="scale(0.26458333)" />
    <path
       style="fill:#999999;fill-opacity:1;stroke:#000000;stroke-width:10.4241;stroke-dasharray:none"
       d="m 394.42692,831.8411 c -15.43701,-8.74304 -15.43701,-31.83637 0,-40.57941 20.6641,-11.70351 43.68674,11.31913 31.98324,31.98324 -6.24977,11.03479 -20.78148,14.9405 -31.98324,8.59617 z"
       id="path11823"
       transform="scale(0.26458333)" />
    <path
       style="fill:#999999;fill-opacity:1;stroke:#000000;stroke-width:3.77952761;stroke-dasharray:none"
       d="m 303.4822,259.15666 c -2.76772,-2.76772 -2.76772,-6.68839 0,-9.45612 1.92836,-1.92836 12.70068,-2.16702 97.81169,-2.16702 85.111,0 95.88333,0.23866 97.81169,2.16702 1.19187,1.19187 2.16703,3.31949 2.16703,4.72806 0,1.40857 -0.97516,3.53619 -2.16703,4.72806 -1.92836,1.92836 -12.70069,2.16703 -97.81169,2.16703 -85.11101,0 -95.88333,-0.23867 -97.81169,-2.16703 z"
       id="path11825"
       transform="scale(0.26458333)" />
  </g>
</svg>
