<?xml version="1.0" encoding="utf-8" standalone="no"?>
<!DOCTYPE svg PUBLIC "-//W3C//DTD SVG 1.1//EN"
  "http://www.w3.org/Graphics/SVG/1.1/DTD/svg11.dtd">
<svg xmlns:xlink="http://www.w3.org/1999/xlink" width="460.8pt" height="345.6pt" viewBox="0 0 460.8 345.6" xmlns="http://www.w3.org/2000/svg" version="1.1">
 <metadata>
  <rdf:RDF xmlns:dc="http://purl.org/dc/elements/1.1/" xmlns:cc="http://creativecommons.org/ns#" xmlns:rdf="http://www.w3.org/1999/02/22-rdf-syntax-ns#">
   <cc:Work>
    <dc:type rdf:resource="http://purl.org/dc/dcmitype/StillImage"/>
    <dc:date>2023-04-17T15:21:32.526217</dc:date>
    <dc:format>image/svg+xml</dc:format>
    <dc:creator>
     <cc:Agent>
      <dc:title>Matplotlib v3.7.1, https://matplotlib.org/</dc:title>
     </cc:Agent>
    </dc:creator>
   </cc:Work>
  </rdf:RDF>
 </metadata>
 <defs>
  <style type="text/css">*{stroke-linejoin: round; stroke-linecap: butt}</style>
 </defs>
 <g id="figure_1">
  <g id="patch_1">
   <path d="M 0 345.6 
L 460.8 345.6 
L 460.8 0 
L 0 0 
z
" style="fill: #ffffff"/>
  </g>
  <g id="axes_1">
   <g id="patch_2">
    <path d="M 57.6 307.584 
L 414.72 307.584 
L 414.72 41.472 
L 57.6 41.472 
z
" style="fill: #ffffff"/>
   </g>
   <g id="matplotlib.axis_1">
    <g id="xtick_1">
     <g id="line2d_1">
      <defs>
       <path id="mff6959255c" d="M 0 0 
L 0 3.5 
" style="stroke: #000000; stroke-width: 0.8"/>
      </defs>
      <g>
       <use xlink:href="#mff6959255c" x="74.175241" y="307.584" style="stroke: #000000; stroke-width: 0.8"/>
      </g>
     </g>
     <g id="text_1">
      <!-- 90.0 -->
      <g transform="translate(63.042429 322.182437) scale(0.1 -0.1)">
       <defs>
        <path id="DejaVuSans-39" d="M 703 97 
L 703 672 
Q 941 559 1184 500 
Q 1428 441 1663 441 
Q 2288 441 2617 861 
Q 2947 1281 2994 2138 
Q 2813 1869 2534 1725 
Q 2256 1581 1919 1581 
Q 1219 1581 811 2004 
Q 403 2428 403 3163 
Q 403 3881 828 4315 
Q 1253 4750 1959 4750 
Q 2769 4750 3195 4129 
Q 3622 3509 3622 2328 
Q 3622 1225 3098 567 
Q 2575 -91 1691 -91 
Q 1453 -91 1209 -44 
Q 966 3 703 97 
z
M 1959 2075 
Q 2384 2075 2632 2365 
Q 2881 2656 2881 3163 
Q 2881 3666 2632 3958 
Q 2384 4250 1959 4250 
Q 1534 4250 1286 3958 
Q 1038 3666 1038 3163 
Q 1038 2656 1286 2365 
Q 1534 2075 1959 2075 
z
" transform="scale(0.015625)"/>
        <path id="DejaVuSans-30" d="M 2034 4250 
Q 1547 4250 1301 3770 
Q 1056 3291 1056 2328 
Q 1056 1369 1301 889 
Q 1547 409 2034 409 
Q 2525 409 2770 889 
Q 3016 1369 3016 2328 
Q 3016 3291 2770 3770 
Q 2525 4250 2034 4250 
z
M 2034 4750 
Q 2819 4750 3233 4129 
Q 3647 3509 3647 2328 
Q 3647 1150 3233 529 
Q 2819 -91 2034 -91 
Q 1250 -91 836 529 
Q 422 1150 422 2328 
Q 422 3509 836 4129 
Q 1250 4750 2034 4750 
z
" transform="scale(0.015625)"/>
        <path id="DejaVuSans-2e" d="M 684 794 
L 1344 794 
L 1344 0 
L 684 0 
L 684 794 
z
" transform="scale(0.015625)"/>
       </defs>
       <use xlink:href="#DejaVuSans-39"/>
       <use xlink:href="#DejaVuSans-30" x="63.623047"/>
       <use xlink:href="#DejaVuSans-2e" x="127.246094"/>
       <use xlink:href="#DejaVuSans-30" x="159.033203"/>
      </g>
     </g>
    </g>
    <g id="xtick_2">
     <g id="line2d_2">
      <g>
       <use xlink:href="#mff6959255c" x="114.778606" y="307.584" style="stroke: #000000; stroke-width: 0.8"/>
      </g>
     </g>
     <g id="text_2">
      <!-- 92.5 -->
      <g transform="translate(103.645794 322.182437) scale(0.1 -0.1)">
       <defs>
        <path id="DejaVuSans-32" d="M 1228 531 
L 3431 531 
L 3431 0 
L 469 0 
L 469 531 
Q 828 903 1448 1529 
Q 2069 2156 2228 2338 
Q 2531 2678 2651 2914 
Q 2772 3150 2772 3378 
Q 2772 3750 2511 3984 
Q 2250 4219 1831 4219 
Q 1534 4219 1204 4116 
Q 875 4013 500 3803 
L 500 4441 
Q 881 4594 1212 4672 
Q 1544 4750 1819 4750 
Q 2544 4750 2975 4387 
Q 3406 4025 3406 3419 
Q 3406 3131 3298 2873 
Q 3191 2616 2906 2266 
Q 2828 2175 2409 1742 
Q 1991 1309 1228 531 
z
" transform="scale(0.015625)"/>
        <path id="DejaVuSans-35" d="M 691 4666 
L 3169 4666 
L 3169 4134 
L 1269 4134 
L 1269 2991 
Q 1406 3038 1543 3061 
Q 1681 3084 1819 3084 
Q 2600 3084 3056 2656 
Q 3513 2228 3513 1497 
Q 3513 744 3044 326 
Q 2575 -91 1722 -91 
Q 1428 -91 1123 -41 
Q 819 9 494 109 
L 494 744 
Q 775 591 1075 516 
Q 1375 441 1709 441 
Q 2250 441 2565 725 
Q 2881 1009 2881 1497 
Q 2881 1984 2565 2268 
Q 2250 2553 1709 2553 
Q 1456 2553 1204 2497 
Q 953 2441 691 2322 
L 691 4666 
z
" transform="scale(0.015625)"/>
       </defs>
       <use xlink:href="#DejaVuSans-39"/>
       <use xlink:href="#DejaVuSans-32" x="63.623047"/>
       <use xlink:href="#DejaVuSans-2e" x="127.246094"/>
       <use xlink:href="#DejaVuSans-35" x="159.033203"/>
      </g>
     </g>
    </g>
    <g id="xtick_3">
     <g id="line2d_3">
      <g>
       <use xlink:href="#mff6959255c" x="155.381972" y="307.584" style="stroke: #000000; stroke-width: 0.8"/>
      </g>
     </g>
     <g id="text_3">
      <!-- 95.0 -->
      <g transform="translate(144.249159 322.182437) scale(0.1 -0.1)">
       <use xlink:href="#DejaVuSans-39"/>
       <use xlink:href="#DejaVuSans-35" x="63.623047"/>
       <use xlink:href="#DejaVuSans-2e" x="127.246094"/>
       <use xlink:href="#DejaVuSans-30" x="159.033203"/>
      </g>
     </g>
    </g>
    <g id="xtick_4">
     <g id="line2d_4">
      <g>
       <use xlink:href="#mff6959255c" x="195.985337" y="307.584" style="stroke: #000000; stroke-width: 0.8"/>
      </g>
     </g>
     <g id="text_4">
      <!-- 97.5 -->
      <g transform="translate(184.852525 322.182437) scale(0.1 -0.1)">
       <defs>
        <path id="DejaVuSans-37" d="M 525 4666 
L 3525 4666 
L 3525 4397 
L 1831 0 
L 1172 0 
L 2766 4134 
L 525 4134 
L 525 4666 
z
" transform="scale(0.015625)"/>
       </defs>
       <use xlink:href="#DejaVuSans-39"/>
       <use xlink:href="#DejaVuSans-37" x="63.623047"/>
       <use xlink:href="#DejaVuSans-2e" x="127.246094"/>
       <use xlink:href="#DejaVuSans-35" x="159.033203"/>
      </g>
     </g>
    </g>
    <g id="xtick_5">
     <g id="line2d_5">
      <g>
       <use xlink:href="#mff6959255c" x="236.588703" y="307.584" style="stroke: #000000; stroke-width: 0.8"/>
      </g>
     </g>
     <g id="text_5">
      <!-- 100.0 -->
      <g transform="translate(222.27464 322.182437) scale(0.1 -0.1)">
       <defs>
        <path id="DejaVuSans-31" d="M 794 531 
L 1825 531 
L 1825 4091 
L 703 3866 
L 703 4441 
L 1819 4666 
L 2450 4666 
L 2450 531 
L 3481 531 
L 3481 0 
L 794 0 
L 794 531 
z
" transform="scale(0.015625)"/>
       </defs>
       <use xlink:href="#DejaVuSans-31"/>
       <use xlink:href="#DejaVuSans-30" x="63.623047"/>
       <use xlink:href="#DejaVuSans-30" x="127.246094"/>
       <use xlink:href="#DejaVuSans-2e" x="190.869141"/>
       <use xlink:href="#DejaVuSans-30" x="222.65625"/>
      </g>
     </g>
    </g>
    <g id="xtick_6">
     <g id="line2d_6">
      <g>
       <use xlink:href="#mff6959255c" x="277.192068" y="307.584" style="stroke: #000000; stroke-width: 0.8"/>
      </g>
     </g>
     <g id="text_6">
      <!-- 102.5 -->
      <g transform="translate(262.878005 322.182437) scale(0.1 -0.1)">
       <use xlink:href="#DejaVuSans-31"/>
       <use xlink:href="#DejaVuSans-30" x="63.623047"/>
       <use xlink:href="#DejaVuSans-32" x="127.246094"/>
       <use xlink:href="#DejaVuSans-2e" x="190.869141"/>
       <use xlink:href="#DejaVuSans-35" x="222.65625"/>
      </g>
     </g>
    </g>
    <g id="xtick_7">
     <g id="line2d_7">
      <g>
       <use xlink:href="#mff6959255c" x="317.795433" y="307.584" style="stroke: #000000; stroke-width: 0.8"/>
      </g>
     </g>
     <g id="text_7">
      <!-- 105.0 -->
      <g transform="translate(303.481371 322.182437) scale(0.1 -0.1)">
       <use xlink:href="#DejaVuSans-31"/>
       <use xlink:href="#DejaVuSans-30" x="63.623047"/>
       <use xlink:href="#DejaVuSans-35" x="127.246094"/>
       <use xlink:href="#DejaVuSans-2e" x="190.869141"/>
       <use xlink:href="#DejaVuSans-30" x="222.65625"/>
      </g>
     </g>
    </g>
    <g id="xtick_8">
     <g id="line2d_8">
      <g>
       <use xlink:href="#mff6959255c" x="358.398799" y="307.584" style="stroke: #000000; stroke-width: 0.8"/>
      </g>
     </g>
     <g id="text_8">
      <!-- 107.5 -->
      <g transform="translate(344.084736 322.182437) scale(0.1 -0.1)">
       <use xlink:href="#DejaVuSans-31"/>
       <use xlink:href="#DejaVuSans-30" x="63.623047"/>
       <use xlink:href="#DejaVuSans-37" x="127.246094"/>
       <use xlink:href="#DejaVuSans-2e" x="190.869141"/>
       <use xlink:href="#DejaVuSans-35" x="222.65625"/>
      </g>
     </g>
    </g>
    <g id="xtick_9">
     <g id="line2d_9">
      <g>
       <use xlink:href="#mff6959255c" x="399.002164" y="307.584" style="stroke: #000000; stroke-width: 0.8"/>
      </g>
     </g>
     <g id="text_9">
      <!-- 110.0 -->
      <g transform="translate(384.688102 322.182437) scale(0.1 -0.1)">
       <use xlink:href="#DejaVuSans-31"/>
       <use xlink:href="#DejaVuSans-31" x="63.623047"/>
       <use xlink:href="#DejaVuSans-30" x="127.246094"/>
       <use xlink:href="#DejaVuSans-2e" x="190.869141"/>
       <use xlink:href="#DejaVuSans-30" x="222.65625"/>
      </g>
     </g>
    </g>
    <g id="text_10">
     <!-- time [s] -->
     <g transform="translate(216.768594 335.860562) scale(0.1 -0.1)">
      <defs>
       <path id="DejaVuSans-74" d="M 1172 4494 
L 1172 3500 
L 2356 3500 
L 2356 3053 
L 1172 3053 
L 1172 1153 
Q 1172 725 1289 603 
Q 1406 481 1766 481 
L 2356 481 
L 2356 0 
L 1766 0 
Q 1100 0 847 248 
Q 594 497 594 1153 
L 594 3053 
L 172 3053 
L 172 3500 
L 594 3500 
L 594 4494 
L 1172 4494 
z
" transform="scale(0.015625)"/>
       <path id="DejaVuSans-69" d="M 603 3500 
L 1178 3500 
L 1178 0 
L 603 0 
L 603 3500 
z
M 603 4863 
L 1178 4863 
L 1178 4134 
L 603 4134 
L 603 4863 
z
" transform="scale(0.015625)"/>
       <path id="DejaVuSans-6d" d="M 3328 2828 
Q 3544 3216 3844 3400 
Q 4144 3584 4550 3584 
Q 5097 3584 5394 3201 
Q 5691 2819 5691 2113 
L 5691 0 
L 5113 0 
L 5113 2094 
Q 5113 2597 4934 2840 
Q 4756 3084 4391 3084 
Q 3944 3084 3684 2787 
Q 3425 2491 3425 1978 
L 3425 0 
L 2847 0 
L 2847 2094 
Q 2847 2600 2669 2842 
Q 2491 3084 2119 3084 
Q 1678 3084 1418 2786 
Q 1159 2488 1159 1978 
L 1159 0 
L 581 0 
L 581 3500 
L 1159 3500 
L 1159 2956 
Q 1356 3278 1631 3431 
Q 1906 3584 2284 3584 
Q 2666 3584 2933 3390 
Q 3200 3197 3328 2828 
z
" transform="scale(0.015625)"/>
       <path id="DejaVuSans-65" d="M 3597 1894 
L 3597 1613 
L 953 1613 
Q 991 1019 1311 708 
Q 1631 397 2203 397 
Q 2534 397 2845 478 
Q 3156 559 3463 722 
L 3463 178 
Q 3153 47 2828 -22 
Q 2503 -91 2169 -91 
Q 1331 -91 842 396 
Q 353 884 353 1716 
Q 353 2575 817 3079 
Q 1281 3584 2069 3584 
Q 2775 3584 3186 3129 
Q 3597 2675 3597 1894 
z
M 3022 2063 
Q 3016 2534 2758 2815 
Q 2500 3097 2075 3097 
Q 1594 3097 1305 2825 
Q 1016 2553 972 2059 
L 3022 2063 
z
" transform="scale(0.015625)"/>
       <path id="DejaVuSans-20" transform="scale(0.015625)"/>
       <path id="DejaVuSans-5b" d="M 550 4863 
L 1875 4863 
L 1875 4416 
L 1125 4416 
L 1125 -397 
L 1875 -397 
L 1875 -844 
L 550 -844 
L 550 4863 
z
" transform="scale(0.015625)"/>
       <path id="DejaVuSans-73" d="M 2834 3397 
L 2834 2853 
Q 2591 2978 2328 3040 
Q 2066 3103 1784 3103 
Q 1356 3103 1142 2972 
Q 928 2841 928 2578 
Q 928 2378 1081 2264 
Q 1234 2150 1697 2047 
L 1894 2003 
Q 2506 1872 2764 1633 
Q 3022 1394 3022 966 
Q 3022 478 2636 193 
Q 2250 -91 1575 -91 
Q 1294 -91 989 -36 
Q 684 19 347 128 
L 347 722 
Q 666 556 975 473 
Q 1284 391 1588 391 
Q 1994 391 2212 530 
Q 2431 669 2431 922 
Q 2431 1156 2273 1281 
Q 2116 1406 1581 1522 
L 1381 1569 
Q 847 1681 609 1914 
Q 372 2147 372 2553 
Q 372 3047 722 3315 
Q 1072 3584 1716 3584 
Q 2034 3584 2315 3537 
Q 2597 3491 2834 3397 
z
" transform="scale(0.015625)"/>
       <path id="DejaVuSans-5d" d="M 1947 4863 
L 1947 -844 
L 622 -844 
L 622 -397 
L 1369 -397 
L 1369 4416 
L 622 4416 
L 622 4863 
L 1947 4863 
z
" transform="scale(0.015625)"/>
      </defs>
      <use xlink:href="#DejaVuSans-74"/>
      <use xlink:href="#DejaVuSans-69" x="39.208984"/>
      <use xlink:href="#DejaVuSans-6d" x="66.992188"/>
      <use xlink:href="#DejaVuSans-65" x="164.404297"/>
      <use xlink:href="#DejaVuSans-20" x="225.927734"/>
      <use xlink:href="#DejaVuSans-5b" x="257.714844"/>
      <use xlink:href="#DejaVuSans-73" x="296.728516"/>
      <use xlink:href="#DejaVuSans-5d" x="348.828125"/>
     </g>
    </g>
   </g>
   <g id="matplotlib.axis_2">
    <g id="ytick_1">
     <g id="line2d_10">
      <defs>
       <path id="m9693c8d3d0" d="M 0 0 
L -3.5 0 
" style="stroke: #000000; stroke-width: 0.8"/>
      </defs>
      <g>
       <use xlink:href="#m9693c8d3d0" x="57.6" y="300.432464" style="stroke: #000000; stroke-width: 0.8"/>
      </g>
     </g>
     <g id="text_11">
      <!-- 79.25 -->
      <g transform="translate(21.971875 304.231683) scale(0.1 -0.1)">
       <use xlink:href="#DejaVuSans-37"/>
       <use xlink:href="#DejaVuSans-39" x="63.623047"/>
       <use xlink:href="#DejaVuSans-2e" x="127.246094"/>
       <use xlink:href="#DejaVuSans-32" x="159.033203"/>
       <use xlink:href="#DejaVuSans-35" x="222.65625"/>
      </g>
     </g>
    </g>
    <g id="ytick_2">
     <g id="line2d_11">
      <g>
       <use xlink:href="#m9693c8d3d0" x="57.6" y="267.50079" style="stroke: #000000; stroke-width: 0.8"/>
      </g>
     </g>
     <g id="text_12">
      <!-- 79.50 -->
      <g transform="translate(21.971875 271.300009) scale(0.1 -0.1)">
       <use xlink:href="#DejaVuSans-37"/>
       <use xlink:href="#DejaVuSans-39" x="63.623047"/>
       <use xlink:href="#DejaVuSans-2e" x="127.246094"/>
       <use xlink:href="#DejaVuSans-35" x="159.033203"/>
       <use xlink:href="#DejaVuSans-30" x="222.65625"/>
      </g>
     </g>
    </g>
    <g id="ytick_3">
     <g id="line2d_12">
      <g>
       <use xlink:href="#m9693c8d3d0" x="57.6" y="234.569116" style="stroke: #000000; stroke-width: 0.8"/>
      </g>
     </g>
     <g id="text_13">
      <!-- 79.75 -->
      <g transform="translate(21.971875 238.368335) scale(0.1 -0.1)">
       <use xlink:href="#DejaVuSans-37"/>
       <use xlink:href="#DejaVuSans-39" x="63.623047"/>
       <use xlink:href="#DejaVuSans-2e" x="127.246094"/>
       <use xlink:href="#DejaVuSans-37" x="159.033203"/>
       <use xlink:href="#DejaVuSans-35" x="222.65625"/>
      </g>
     </g>
    </g>
    <g id="ytick_4">
     <g id="line2d_13">
      <g>
       <use xlink:href="#m9693c8d3d0" x="57.6" y="201.637442" style="stroke: #000000; stroke-width: 0.8"/>
      </g>
     </g>
     <g id="text_14">
      <!-- 80.00 -->
      <g transform="translate(21.971875 205.436661) scale(0.1 -0.1)">
       <defs>
        <path id="DejaVuSans-38" d="M 2034 2216 
Q 1584 2216 1326 1975 
Q 1069 1734 1069 1313 
Q 1069 891 1326 650 
Q 1584 409 2034 409 
Q 2484 409 2743 651 
Q 3003 894 3003 1313 
Q 3003 1734 2745 1975 
Q 2488 2216 2034 2216 
z
M 1403 2484 
Q 997 2584 770 2862 
Q 544 3141 544 3541 
Q 544 4100 942 4425 
Q 1341 4750 2034 4750 
Q 2731 4750 3128 4425 
Q 3525 4100 3525 3541 
Q 3525 3141 3298 2862 
Q 3072 2584 2669 2484 
Q 3125 2378 3379 2068 
Q 3634 1759 3634 1313 
Q 3634 634 3220 271 
Q 2806 -91 2034 -91 
Q 1263 -91 848 271 
Q 434 634 434 1313 
Q 434 1759 690 2068 
Q 947 2378 1403 2484 
z
M 1172 3481 
Q 1172 3119 1398 2916 
Q 1625 2713 2034 2713 
Q 2441 2713 2670 2916 
Q 2900 3119 2900 3481 
Q 2900 3844 2670 4047 
Q 2441 4250 2034 4250 
Q 1625 4250 1398 4047 
Q 1172 3844 1172 3481 
z
" transform="scale(0.015625)"/>
       </defs>
       <use xlink:href="#DejaVuSans-38"/>
       <use xlink:href="#DejaVuSans-30" x="63.623047"/>
       <use xlink:href="#DejaVuSans-2e" x="127.246094"/>
       <use xlink:href="#DejaVuSans-30" x="159.033203"/>
       <use xlink:href="#DejaVuSans-30" x="222.65625"/>
      </g>
     </g>
    </g>
    <g id="ytick_5">
     <g id="line2d_14">
      <g>
       <use xlink:href="#m9693c8d3d0" x="57.6" y="168.705768" style="stroke: #000000; stroke-width: 0.8"/>
      </g>
     </g>
     <g id="text_15">
      <!-- 80.25 -->
      <g transform="translate(21.971875 172.504987) scale(0.1 -0.1)">
       <use xlink:href="#DejaVuSans-38"/>
       <use xlink:href="#DejaVuSans-30" x="63.623047"/>
       <use xlink:href="#DejaVuSans-2e" x="127.246094"/>
       <use xlink:href="#DejaVuSans-32" x="159.033203"/>
       <use xlink:href="#DejaVuSans-35" x="222.65625"/>
      </g>
     </g>
    </g>
    <g id="ytick_6">
     <g id="line2d_15">
      <g>
       <use xlink:href="#m9693c8d3d0" x="57.6" y="135.774094" style="stroke: #000000; stroke-width: 0.8"/>
      </g>
     </g>
     <g id="text_16">
      <!-- 80.50 -->
      <g transform="translate(21.971875 139.573313) scale(0.1 -0.1)">
       <use xlink:href="#DejaVuSans-38"/>
       <use xlink:href="#DejaVuSans-30" x="63.623047"/>
       <use xlink:href="#DejaVuSans-2e" x="127.246094"/>
       <use xlink:href="#DejaVuSans-35" x="159.033203"/>
       <use xlink:href="#DejaVuSans-30" x="222.65625"/>
      </g>
     </g>
    </g>
    <g id="ytick_7">
     <g id="line2d_16">
      <g>
       <use xlink:href="#m9693c8d3d0" x="57.6" y="102.84242" style="stroke: #000000; stroke-width: 0.8"/>
      </g>
     </g>
     <g id="text_17">
      <!-- 80.75 -->
      <g transform="translate(21.971875 106.641639) scale(0.1 -0.1)">
       <use xlink:href="#DejaVuSans-38"/>
       <use xlink:href="#DejaVuSans-30" x="63.623047"/>
       <use xlink:href="#DejaVuSans-2e" x="127.246094"/>
       <use xlink:href="#DejaVuSans-37" x="159.033203"/>
       <use xlink:href="#DejaVuSans-35" x="222.65625"/>
      </g>
     </g>
    </g>
    <g id="ytick_8">
     <g id="line2d_17">
      <g>
       <use xlink:href="#m9693c8d3d0" x="57.6" y="69.910746" style="stroke: #000000; stroke-width: 0.8"/>
      </g>
     </g>
     <g id="text_18">
      <!-- 81.00 -->
      <g transform="translate(21.971875 73.709965) scale(0.1 -0.1)">
       <use xlink:href="#DejaVuSans-38"/>
       <use xlink:href="#DejaVuSans-31" x="63.623047"/>
       <use xlink:href="#DejaVuSans-2e" x="127.246094"/>
       <use xlink:href="#DejaVuSans-30" x="159.033203"/>
       <use xlink:href="#DejaVuSans-30" x="222.65625"/>
      </g>
     </g>
    </g>
    <g id="text_19">
     <!-- $\theta$ [deg] -->
     <g transform="translate(15.871875 192.528) rotate(-90) scale(0.1 -0.1)">
      <defs>
       <path id="DejaVuSans-Oblique-3b8" d="M 2913 2219 
L 925 2219 
Q 791 1284 928 888 
Q 1100 400 1566 400 
Q 2034 400 2391 891 
Q 2703 1322 2913 2219 
z
M 3009 2750 
Q 3094 3638 2984 3950 
Q 2813 4444 2353 4444 
Q 1875 4444 1525 3956 
Q 1250 3563 1034 2750 
L 3009 2750 
z
M 2444 4913 
Q 3194 4913 3494 4250 
Q 3794 3591 3566 2422 
Q 3341 1256 2781 594 
Q 2225 -72 1475 -72 
Q 722 -72 425 594 
Q 128 1256 353 2422 
Q 581 3591 1134 4250 
Q 1691 4913 2444 4913 
z
" transform="scale(0.015625)"/>
       <path id="DejaVuSans-64" d="M 2906 2969 
L 2906 4863 
L 3481 4863 
L 3481 0 
L 2906 0 
L 2906 525 
Q 2725 213 2448 61 
Q 2172 -91 1784 -91 
Q 1150 -91 751 415 
Q 353 922 353 1747 
Q 353 2572 751 3078 
Q 1150 3584 1784 3584 
Q 2172 3584 2448 3432 
Q 2725 3281 2906 2969 
z
M 947 1747 
Q 947 1113 1208 752 
Q 1469 391 1925 391 
Q 2381 391 2643 752 
Q 2906 1113 2906 1747 
Q 2906 2381 2643 2742 
Q 2381 3103 1925 3103 
Q 1469 3103 1208 2742 
Q 947 2381 947 1747 
z
" transform="scale(0.015625)"/>
       <path id="DejaVuSans-67" d="M 2906 1791 
Q 2906 2416 2648 2759 
Q 2391 3103 1925 3103 
Q 1463 3103 1205 2759 
Q 947 2416 947 1791 
Q 947 1169 1205 825 
Q 1463 481 1925 481 
Q 2391 481 2648 825 
Q 2906 1169 2906 1791 
z
M 3481 434 
Q 3481 -459 3084 -895 
Q 2688 -1331 1869 -1331 
Q 1566 -1331 1297 -1286 
Q 1028 -1241 775 -1147 
L 775 -588 
Q 1028 -725 1275 -790 
Q 1522 -856 1778 -856 
Q 2344 -856 2625 -561 
Q 2906 -266 2906 331 
L 2906 616 
Q 2728 306 2450 153 
Q 2172 0 1784 0 
Q 1141 0 747 490 
Q 353 981 353 1791 
Q 353 2603 747 3093 
Q 1141 3584 1784 3584 
Q 2172 3584 2450 3431 
Q 2728 3278 2906 2969 
L 2906 3500 
L 3481 3500 
L 3481 434 
z
" transform="scale(0.015625)"/>
      </defs>
      <use xlink:href="#DejaVuSans-Oblique-3b8" transform="translate(0 0.234375)"/>
      <use xlink:href="#DejaVuSans-20" transform="translate(61.181641 0.234375)"/>
      <use xlink:href="#DejaVuSans-5b" transform="translate(92.96875 0.234375)"/>
      <use xlink:href="#DejaVuSans-64" transform="translate(131.982422 0.234375)"/>
      <use xlink:href="#DejaVuSans-65" transform="translate(195.458984 0.234375)"/>
      <use xlink:href="#DejaVuSans-67" transform="translate(256.982422 0.234375)"/>
      <use xlink:href="#DejaVuSans-5d" transform="translate(320.458984 0.234375)"/>
     </g>
    </g>
   </g>
   <g id="line2d_18">
    <path d="M 73.832727 231.549126 
L 73.996034 244.542286 
L 74.322664 219.555918 
L 74.48597 220.43816 
L 74.812584 205.733879 
L 74.975891 245.551726 
L 75.139197 242.118514 
L 75.302504 235.775693 
L 75.465827 236.559524 
L 75.629134 248.127967 
L 75.955747 228.223583 
L 76.282361 206.718375 
L 76.445668 223.186793 
L 76.608974 222.308646 
L 76.772281 216.085927 
L 76.935604 223.809526 
L 77.262217 219.130863 
L 77.425524 212.924538 
L 77.588831 194.418214 
L 77.752138 205.913323 
L 77.915444 206.112956 
L 78.078751 213.075156 
L 78.405374 238.137137 
L 78.568681 225.206546 
L 78.731987 228.901675 
L 78.895294 236.110073 
L 79.058601 234.313714 
L 79.221908 221.946823 
L 79.385214 225.722985 
L 79.548521 243.730171 
L 79.711828 238.657014 
L 79.875151 252.960183 
L 80.038458 234.166273 
L 80.201764 245.393948 
L 80.365071 240.084761 
L 80.528378 257.061311 
L 80.691685 249.555246 
L 80.854991 287.458983 
L 81.181621 256.34787 
L 81.344928 246.293834 
L 81.508234 249.768558 
L 81.671541 255.620916 
L 81.998155 234.001616 
L 82.161461 244.772374 
L 82.324768 223.828808 
L 82.488075 228.316878 
L 82.651398 213.092739 
L 82.978011 238.313486 
L 83.141318 230.988966 
L 83.304625 242.887739 
L 83.467932 237.344943 
L 83.631238 238.828754 
L 83.794545 254.102046 
L 83.957852 254.102046 
L 84.121175 258.189308 
L 84.284481 258.435055 
L 84.447788 250.270577 
L 84.611095 265.361641 
L 84.774402 260.257343 
L 84.937708 250.651828 
L 85.264322 224.08057 
L 85.427629 233.413044 
L 85.590952 262.725513 
L 85.754258 241.770978 
L 85.917565 249.045225 
L 86.080872 247.205085 
L 86.244179 240.12837 
L 86.407485 247.400131 
L 86.734099 244.331299 
L 87.060712 231.155712 
L 87.224035 266.388777 
L 87.387342 260.850566 
L 87.550649 259.62324 
L 87.713955 266.148549 
L 87.877262 264.088506 
L 88.040569 247.490565 
L 88.203876 260.110383 
L 88.367182 257.588792 
L 88.530489 261.644644 
L 88.693812 261.606672 
L 88.857119 265.636511 
L 89.020426 262.436176 
L 89.183732 255.471264 
L 89.347039 240.640761 
L 89.510346 262.955807 
L 89.673652 266.646605 
L 89.836959 256.660599 
L 90.000266 257.011985 
L 90.163589 268.928858 
L 90.326896 252.557643 
L 90.490202 220.365211 
L 90.653509 261.589034 
L 90.816816 246.078689 
L 90.980123 285.022173 
L 91.143429 264.661732 
L 91.306736 269.452104 
L 91.470043 268.331552 
L 91.796672 230.865242 
L 92.123286 253.303631 
L 92.449899 258.829477 
L 92.93982 237.135426 
L 93.103126 261.695705 
L 93.429756 253.516303 
L 93.593063 257.440791 
L 93.75637 255.94885 
L 94.082983 232.55916 
L 94.24629 233.456549 
L 94.409597 220.006081 
L 94.572903 223.734236 
L 94.73623 231.868432 
L 94.899537 232.011912 
L 95.062844 219.480001 
L 95.22615 219.057196 
L 95.552764 250.251727 
L 95.716071 227.895224 
L 96.042684 246.580739 
L 96.205991 245.416129 
L 96.369314 248.655755 
L 96.532621 263.113327 
L 96.695927 255.051993 
L 96.859234 258.722455 
L 97.022541 257.884573 
L 97.185848 236.327648 
L 97.349154 238.874243 
L 97.675768 247.169065 
L 97.839074 244.827653 
L 98.002397 246.707785 
L 98.165704 230.623602 
L 98.329011 230.455275 
L 98.492318 218.85674 
L 98.655624 239.014109 
L 98.818931 234.003868 
L 98.982238 255.887504 
L 99.145545 250.964244 
L 99.308851 256.227002 
L 99.472158 254.963742 
L 99.798788 228.891989 
L 99.962095 245.021712 
L 100.125401 235.177205 
L 100.288708 252.947795 
L 100.615321 224.191419 
L 100.778628 243.726297 
L 100.941935 237.440684 
L 101.105258 241.315625 
L 101.431871 218.418351 
L 101.595178 225.078933 
L 101.758485 225.312526 
L 102.085098 253.571642 
L 102.248405 227.387897 
L 102.411712 231.59706 
L 102.575019 241.871452 
L 102.901648 210.143886 
L 103.391568 248.485689 
L 103.554875 251.416777 
L 103.718182 229.053238 
L 103.881489 229.053238 
L 104.044795 220.321725 
L 104.371409 234.944703 
L 104.534732 222.037954 
L 104.698039 237.908629 
L 104.861345 222.996661 
L 105.024652 245.855505 
L 105.187959 247.754819 
L 105.351266 244.4238 
L 105.514572 218.541229 
L 105.841186 239.699841 
L 106.167815 220.131865 
L 106.494429 251.682039 
L 106.821042 224.018339 
L 106.984349 229.168436 
L 107.147656 225.719178 
L 107.310963 225.780669 
L 107.637576 251.816003 
L 107.800899 236.085616 
L 108.127513 226.90784 
L 108.454126 229.978202 
L 108.617433 244.802953 
L 108.780739 222.796257 
L 108.944046 226.204331 
L 109.107353 238.456976 
L 109.27066 221.000824 
L 109.433983 237.66131 
L 109.597289 225.831792 
L 109.923903 248.371775 
L 110.250516 229.17866 
L 110.413823 239.677937 
L 110.57713 218.406677 
L 110.740437 247.278283 
L 110.903742 240.690156 
L 111.067049 273.941789 
L 111.393678 243.139851 
L 111.556985 248.884912 
L 111.720292 248.337844 
L 111.883599 250.680105 
L 112.046905 255.573616 
L 112.210212 257.049174 
L 112.373519 245.714055 
L 112.536826 215.519633 
L 112.863455 252.300648 
L 113.026762 263.821969 
L 113.190069 262.194122 
L 113.516682 256.92317 
L 113.679989 239.211168 
L 113.843296 235.297676 
L 114.006602 240.30419 
L 114.169909 251.998976 
L 114.333216 254.012466 
L 114.496523 222.365139 
L 114.659846 238.948265 
L 114.823152 225.984359 
L 114.986459 246.022085 
L 115.149766 215.390824 
L 115.313073 232.015544 
L 115.476379 221.466268 
L 115.639686 235.232384 
L 115.802993 229.992063 
L 115.966299 231.93353 
L 116.456236 295.488 
L 116.946156 262.291385 
L 117.109463 266.041736 
L 117.27277 277.79376 
L 117.436076 263.102775 
L 117.599383 273.099981 
L 117.76269 259.956519 
L 117.925997 257.928128 
L 118.089303 246.721985 
L 118.415933 256.936771 
L 118.742546 264.8097 
L 118.905853 265.351717 
L 119.06916 260.793398 
L 119.232467 273.458476 
L 119.395773 257.584027 
L 119.55908 266.781486 
L 119.722387 252.451838 
L 119.885694 276.172641 
L 120.049017 270.947847 
L 120.212323 254.488693 
L 120.538937 280.711218 
L 120.702244 270.346451 
L 120.86555 246.687869 
L 121.028857 265.052795 
L 121.35547 243.71046 
L 121.518777 262.542024 
L 121.682084 253.73566 
L 121.845407 238.5047 
L 122.008714 266.152531 
L 122.17202 257.116266 
L 122.335327 254.712109 
L 122.498634 229.082208 
L 122.661941 230.543184 
L 122.825247 222.327461 
L 122.988554 241.530996 
L 123.151861 232.374243 
L 123.315168 249.421141 
L 123.478474 235.22578 
L 123.641781 260.036105 
L 123.805104 260.036105 
L 123.968411 253.590687 
L 124.131717 257.396857 
L 124.295024 252.193833 
L 124.458331 253.662911 
L 124.784944 231.73299 
L 124.948251 241.443877 
L 125.111558 237.636321 
L 125.274865 227.928078 
L 125.438171 260.927814 
L 125.601494 263.812893 
L 125.764801 268.861941 
L 126.091415 248.769789 
L 126.254721 250.153332 
L 126.418028 270.38555 
L 126.581335 272.890705 
L 126.744641 245.541838 
L 126.907948 237.525727 
L 127.071255 222.274782 
L 127.234558 254.401517 
L 127.561187 251.416994 
L 127.724494 244.264058 
L 127.887801 250.594701 
L 128.051108 262.953631 
L 128.214414 265.135799 
L 128.377721 233.736225 
L 128.704334 221.08259 
L 129.030948 250.302323 
L 129.194255 237.755973 
L 129.357578 238.398024 
L 129.520884 256.471629 
L 129.684191 258.277785 
L 129.847498 242.301722 
L 130.010805 240.69349 
L 130.174111 257.716949 
L 130.337418 250.840965 
L 130.500725 261.222852 
L 130.664032 254.361964 
L 130.827338 252.345121 
L 130.990645 257.966178 
L 131.153952 270.405238 
L 131.480581 249.699715 
L 131.643888 253.613661 
L 131.807195 254.766567 
L 131.970502 262.487416 
L 132.133808 244.484942 
L 132.297115 245.552605 
L 132.460422 250.921632 
L 132.623729 237.800425 
L 132.787035 260.620649 
L 132.950342 233.019522 
L 133.113649 231.330174 
L 133.276972 209.808831 
L 133.440279 233.468495 
L 133.766892 229.051048 
L 133.930199 230.03647 
L 134.256812 222.822479 
L 134.583426 242.590459 
L 134.910039 257.316571 
L 135.073346 247.688336 
L 135.236653 245.457493 
L 135.399976 249.502284 
L 135.563282 217.911994 
L 135.889896 239.979663 
L 136.053203 245.640176 
L 136.216509 237.357044 
L 136.379816 245.758875 
L 136.543123 240.217942 
L 136.70643 241.231725 
L 136.869736 236.166848 
L 137.033043 247.96283 
L 137.19635 222.195089 
L 137.359673 240.111374 
L 137.522979 239.503766 
L 137.686286 247.737505 
L 137.849593 234.532798 
L 138.0129 236.228057 
L 138.176206 225.670458 
L 138.339513 250.861753 
L 138.50282 238.477775 
L 138.829433 256.824245 
L 138.99274 245.290256 
L 139.156047 245.031738 
L 139.80929 213.704868 
L 139.972597 233.777876 
L 140.135903 234.017286 
L 140.29921 226.92762 
L 140.462517 230.301727 
L 140.625824 227.564507 
L 140.78913 231.408052 
L 140.952437 239.414353 
L 141.115744 224.317823 
L 141.279051 228.199867 
L 141.442374 227.03417 
L 141.60568 233.39775 
L 141.768987 246.156247 
L 141.932294 240.155979 
L 142.0956 244.871121 
L 142.258907 232.381982 
L 142.422214 254.502109 
L 142.585521 257.055976 
L 142.748827 250.153803 
L 142.912134 255.410109 
L 143.075441 247.687623 
L 143.238748 251.670684 
L 143.402064 259.601752 
L 143.565387 259.601752 
L 144.218614 231.182381 
L 144.381921 248.847353 
L 144.708535 229.296824 
L 144.871841 245.739412 
L 145.035148 230.456833 
L 145.198455 236.865913 
L 145.361762 220.821766 
L 145.525068 232.737444 
L 145.688391 230.237173 
L 145.851698 239.011171 
L 146.015005 238.391568 
L 146.178311 227.710797 
L 146.341618 206.062456 
L 146.504925 216.447963 
L 146.668232 210.743442 
L 146.994845 221.922535 
L 147.158152 223.584632 
L 147.321459 220.103353 
L 147.484765 221.691151 
L 147.648072 207.787262 
L 147.811379 219.685555 
L 147.974702 220.908886 
L 148.138009 199.428973 
L 148.301315 219.703877 
L 148.464622 214.119585 
L 148.627929 220.757711 
L 148.791235 211.328967 
L 148.954542 211.283043 
L 149.117849 213.499371 
L 149.281156 205.836538 
L 149.444462 210.398369 
L 149.607769 202.869738 
L 149.771076 227.670393 
L 149.934383 232.996675 
L 150.097706 219.514904 
L 150.261012 220.632458 
L 150.587626 233.251759 
L 150.914239 208.104697 
L 151.240853 231.297863 
L 151.404159 217.531317 
L 151.567466 238.464488 
L 151.730773 210.183394 
L 151.89408 226.710778 
L 152.220693 219.202875 
L 152.384016 238.851315 
L 152.547323 230.685743 
L 152.71063 206.986044 
L 152.873936 215.531146 
L 153.037243 211.313422 
L 153.20055 219.062184 
L 153.527163 190.689202 
L 153.69047 195.726667 
L 154.017083 167.188291 
L 154.18039 181.282672 
L 154.343697 184.886844 
L 154.507004 198.37779 
L 154.670327 168.754424 
L 154.833633 194.199995 
L 154.99694 193.726108 
L 155.160247 204.82427 
L 155.323554 195.820507 
L 155.48686 205.589068 
L 155.650167 176.705781 
L 155.813474 188.62858 
L 156.140087 167.418012 
L 156.303394 169.313928 
L 156.630007 183.480545 
L 156.793314 182.048166 
L 156.956637 178.046945 
L 157.119944 169.051375 
L 157.283251 171.710526 
L 157.446557 183.147621 
L 157.609864 161.05208 
L 157.773171 159.287808 
L 157.936478 162.387251 
L 158.099784 179.261568 
L 158.263091 169.774174 
L 158.426398 167.501992 
L 158.589705 180.976529 
L 158.753011 169.86912 
L 158.916318 150.985938 
L 159.242931 167.701594 
L 159.406255 162.664854 
L 159.569561 151.624322 
L 159.896177 167.367155 
L 160.22279 142.03011 
L 160.386097 152.400134 
L 160.549404 148.612216 
L 160.71271 166.552526 
L 160.876017 148.204158 
L 161.039324 145.328415 
L 161.202631 145.791505 
L 161.365937 130.868841 
L 161.529244 141.877009 
L 161.692551 130.829781 
L 161.855874 150.843299 
L 162.019181 152.106283 
L 162.182487 132.766083 
L 162.345794 147.096393 
L 162.509101 146.461503 
L 162.672408 149.12964 
L 162.835714 121.465315 
L 162.999021 131.286306 
L 163.162328 123.586352 
L 163.325634 123.586352 
L 163.488941 135.653642 
L 163.652248 123.084929 
L 163.815555 134.11861 
L 164.305491 139.452485 
L 164.468798 136.58259 
L 164.632105 124.076741 
L 164.795411 126.327455 
L 164.958718 149.220897 
L 165.122025 144.549894 
L 165.285332 147.675169 
L 165.448638 157.933147 
L 165.611945 121.124281 
L 165.938558 126.331558 
L 166.101865 126.853483 
L 166.265172 135.118857 
L 166.428479 126.669268 
L 166.591785 148.408979 
L 166.918415 121.748742 
L 167.081722 130.149899 
L 167.245029 131.406896 
L 167.408335 138.189559 
L 167.571642 114.510078 
L 167.734949 107.079555 
L 167.898256 110.736978 
L 168.061562 121.731699 
L 168.388176 106.923602 
L 168.551482 124.075794 
L 168.714789 93.231224 
L 168.878096 103.256266 
L 169.041403 89.69161 
L 169.204709 119.903271 
L 169.368016 109.358706 
L 169.531339 123.19321 
L 169.694646 123.802723 
L 169.857953 117.214881 
L 170.184566 113.789563 
L 170.347873 120.320178 
L 170.51118 111.168409 
L 170.674486 116.978455 
L 170.837793 113.855888 
L 171.164406 98.346016 
L 171.327713 95.789674 
L 171.654327 113.799787 
L 171.817633 129.63435 
L 172.144263 125.76529 
L 172.30757 109.553279 
L 172.470877 108.14702 
L 172.79749 120.041794 
L 172.960797 108.912134 
L 173.28741 120.193973 
L 173.450717 116.884523 
L 173.614024 103.511651 
L 173.777331 119.034477 
L 173.940637 122.475954 
L 174.103944 129.432887 
L 174.267251 115.772671 
L 174.593864 122.291496 
L 174.757187 119.10785 
L 174.920494 128.49262 
L 175.083801 109.944729 
L 175.247107 110.970681 
L 175.410414 122.13171 
L 175.573721 123.222524 
L 175.737028 112.922386 
L 175.900322 89.032317 
L 176.226936 112.746574 
L 176.390242 109.638416 
L 176.553549 85.516105 
L 176.716856 87.143357 
L 176.880163 114.390649 
L 177.043469 108.102925 
L 177.206776 120.818206 
L 177.370083 104.160453 
L 177.696712 126.921948 
L 177.860019 136.295472 
L 178.023326 116.192036 
L 178.186633 130.359588 
L 178.349939 103.58342 
L 178.513246 97.06971 
L 178.676553 133.990821 
L 178.83986 106.636925 
L 179.003166 106.055742 
L 179.166473 118.608889 
L 179.32978 92.166694 
L 179.493087 114.395264 
L 179.656393 106.900575 
L 179.8197 112.143216 
L 179.983007 99.217031 
L 180.146313 112.667818 
L 180.30962 104.46725 
L 180.472943 113.447588 
L 180.63625 103.940571 
L 180.799557 104.614373 
L 180.962863 117.936134 
L 181.12617 106.910791 
L 181.289477 109.234561 
L 181.61609 130.226053 
L 181.779397 116.184883 
L 181.942704 120.055896 
L 182.106011 137.20027 
L 182.269317 121.432475 
L 182.432624 124.345244 
L 182.595931 121.982269 
L 182.759238 121.9697 
L 182.922544 135.560723 
L 183.085851 127.642561 
L 183.249158 127.642561 
L 183.412464 116.068598 
L 183.575787 87.638692 
L 183.739094 93.007423 
L 184.065708 113.81804 
L 184.229014 112.459168 
L 184.392321 138.658281 
L 184.555628 135.561837 
L 184.718935 109.412385 
L 184.882241 107.398806 
L 185.045548 112.182325 
L 185.208855 123.61918 
L 185.372162 119.202984 
L 185.535468 108.624531 
L 185.698775 123.540172 
L 185.862082 119.387054 
L 186.025388 131.594743 
L 186.352002 103.337516 
L 186.515309 129.721258 
L 187.005245 112.906305 
L 187.331859 137.075768 
L 187.495165 90.644683 
L 187.658472 99.544649 
L 187.821779 76.731712 
L 188.311699 127.795818 
L 188.475006 103.010528 
L 188.638312 99.109933 
L 188.801619 114.985824 
L 188.964926 85.277411 
L 189.128233 104.403334 
L 189.291539 100.209735 
L 189.454846 78.460714 
L 189.78146 101.076364 
L 189.944783 109.702105 
L 190.108089 106.75441 
L 190.271396 122.617071 
L 190.59801 105.390132 
L 190.761316 101.053852 
L 190.924623 80.965649 
L 191.08793 88.5248 
L 191.414543 118.068648 
L 191.57785 102.533063 
L 191.741157 103.131731 
L 191.904463 100.740259 
L 192.06777 102.446031 
L 192.231075 92.554606 
L 192.394382 102.830647 
L 192.720995 93.091065 
L 192.884302 88.625853 
L 193.047625 98.66032 
L 193.210931 99.725792 
L 193.374238 93.959056 
L 193.537545 105.114253 
L 193.700852 93.724949 
L 193.864158 109.344 
L 194.027465 93.847937 
L 194.190772 91.838001 
L 194.354079 116.813649 
L 194.517385 116.850869 
L 194.680692 101.058057 
L 194.843999 115.81671 
L 195.170612 80.367757 
L 195.333919 83.42973 
L 195.660532 77.275385 
L 195.823839 102.408991 
L 195.987146 101.25667 
L 196.150453 95.351147 
L 196.313759 110.546978 
L 196.477082 98.424418 
L 196.640389 100.240464 
L 196.967003 77.897859 
L 197.130309 82.519591 
L 197.783536 112.263865 
L 198.11015 85.146529 
L 198.273456 81.315001 
L 198.436763 89.113012 
L 198.60007 90.12204 
L 198.926683 111.711419 
L 199.253297 92.18517 
L 199.579911 117.690372 
L 199.906524 86.7416 
L 200.559767 119.599014 
L 200.723074 118.998234 
L 200.88638 92.239811 
L 201.212994 111.193341 
L 201.539607 93.974638 
L 201.702914 106.688148 
L 202.029528 77.561749 
L 202.192834 85.847414 
L 202.519448 112.229257 
L 202.682755 90.840783 
L 202.846061 97.812997 
L 203.009368 94.347133 
L 203.172675 94.347133 
L 203.499288 109.106273 
L 203.662595 111.438007 
L 203.825902 100.999416 
L 203.989208 107.901143 
L 204.152532 122.07747 
L 204.479145 102.189005 
L 204.642452 84.571784 
L 204.805758 82.460676 
L 204.969065 84.067318 
L 205.132372 55.948862 
L 205.458985 97.034952 
L 205.622292 88.777602 
L 205.785599 86.166649 
L 205.948906 101.210583 
L 206.112212 93.662473 
L 206.275519 100.023288 
L 206.438826 93.554814 
L 206.602132 105.182409 
L 206.765439 103.381135 
L 207.092053 86.476205 
L 207.255359 85.274732 
L 207.418666 80.93668 
L 207.581973 91.712429 
L 207.74528 78.457825 
L 207.908586 100.703832 
L 208.235216 97.396167 
L 208.398523 110.83937 
L 208.561834 100.354811 
L 208.72514 122.484855 
L 209.051754 105.547104 
L 209.378367 83.276631 
L 209.704981 94.013358 
L 209.868287 108.505368 
L 210.194901 95.273997 
L 210.358208 110.580659 
L 210.521515 114.468414 
L 210.684821 89.151688 
L 210.848128 85.997975 
L 211.174741 102.642263 
L 211.338048 97.84109 
L 211.501355 114.945856 
L 211.664662 100.780045 
L 211.827968 109.9009 
L 211.991275 111.537692 
L 212.154582 118.437516 
L 212.317905 98.265879 
L 212.644518 105.981869 
L 212.807825 99.209141 
L 212.971132 97.110511 
L 213.134439 108.633601 
L 213.297745 95.30182 
L 213.461052 112.111769 
L 213.624359 107.265669 
L 213.787665 107.018171 
L 214.114279 100.401622 
L 214.440892 96.228655 
L 214.604199 93.139215 
L 214.767506 100.370766 
L 214.930813 97.151801 
L 215.094119 116.351766 
L 215.257426 119.651759 
L 215.420733 94.238875 
L 215.584039 111.272086 
L 215.747346 97.943635 
L 215.910653 118.3642 
L 216.07396 116.846176 
L 216.237266 120.903881 
L 216.56388 106.16259 
L 216.890493 127.229552 
L 217.053816 102.131604 
L 217.217123 124.139039 
L 217.38043 112.775463 
L 217.543737 126.83777 
L 217.707043 108.29695 
L 217.87035 117.692643 
L 218.196964 85.194232 
L 218.523577 107.153631 
L 218.686884 102.903907 
L 218.85019 101.572978 
L 219.013497 89.593121 
L 219.176804 106.397483 
L 219.340111 102.977721 
L 219.503417 105.797367 
L 219.666724 114.031231 
L 219.830031 110.011089 
L 220.156644 119.346664 
L 220.483258 127.949298 
L 220.809871 94.578604 
L 221.136485 101.284303 
L 221.299791 93.146115 
L 221.463098 107.077331 
L 221.626405 101.80506 
L 221.953035 75.290782 
L 222.116341 72.303413 
L 222.442955 89.67568 
L 222.606262 94.976834 
L 222.769568 94.768577 
L 222.932875 94.768577 
L 223.096182 101.345235 
L 223.422795 83.570889 
L 223.749409 91.317512 
L 223.912715 92.28907 
L 224.076022 82.564596 
L 224.239329 86.376105 
L 224.402636 79.590923 
L 224.565942 84.3167 
L 224.729248 80.328303 
L 224.892555 89.377564 
L 225.055862 87.72128 
L 225.219169 81.11494 
L 225.709089 117.124867 
L 225.872396 99.03655 
L 226.035702 100.666857 
L 226.362316 107.109008 
L 226.525623 104.47992 
L 226.688929 123.370856 
L 226.852236 117.687887 
L 227.015543 100.811235 
L 227.178866 98.529799 
L 227.342173 86.783012 
L 227.505479 86.353564 
L 227.668786 102.547796 
L 227.832093 94.001761 
L 227.995399 102.241847 
L 228.158706 94.769706 
L 228.48532 114.832236 
L 228.648626 115.800052 
L 228.811933 105.84497 
L 228.97524 112.709282 
L 229.138547 113.828914 
L 229.301853 92.974675 
L 229.46516 109.814117 
L 229.628467 89.41438 
L 229.95508 120.990914 
L 230.281694 88.768033 
L 230.445 98.179645 
L 230.608307 74.803441 
L 230.934921 91.04183 
L 231.098227 99.820737 
L 231.261534 79.519216 
L 231.751454 107.34213 
L 231.914761 132.502513 
L 232.078068 110.76704 
L 232.241375 124.382509 
L 232.404681 127.114515 
L 232.894602 87.570796 
L 233.057908 88.256247 
L 233.221215 101.978808 
L 233.384538 90.615932 
L 233.711151 103.904786 
L 233.874458 110.92961 
L 234.037765 128.441741 
L 234.201072 110.199908 
L 234.364378 113.685551 
L 234.527685 111.268484 
L 234.690992 113.148903 
L 234.854299 124.171826 
L 235.180912 105.356375 
L 235.344219 102.746281 
L 235.507526 113.628072 
L 235.670832 100.2639 
L 235.834139 112.437277 
L 236.160752 95.393035 
L 236.324059 121.111058 
L 236.487366 90.344242 
L 236.650673 109.704831 
L 236.81398 106.155828 
L 236.977286 108.118796 
L 237.140593 105.791881 
L 237.3039 96.670354 
L 237.467207 107.286427 
L 237.630513 103.234439 
L 237.79382 91.971612 
L 237.957127 127.001566 
L 238.120434 121.787901 
L 238.28374 126.228774 
L 238.447047 115.984348 
L 238.610354 96.982114 
L 238.773661 95.684472 
L 238.936967 127.343347 
L 239.100274 117.438662 
L 239.263581 117.763784 
L 239.426887 82.847215 
L 239.916808 128.306553 
L 240.080114 120.360796 
L 240.243421 88.040484 
L 240.406728 107.26896 
L 240.570035 106.527711 
L 240.733341 103.104445 
L 240.896664 106.047317 
L 241.059973 115.849074 
L 241.223279 150.165051 
L 241.386586 122.924467 
L 241.549893 121.677318 
L 241.7132 128.980802 
L 241.876506 143.681324 
L 242.039813 118.719225 
L 242.20312 118.514683 
L 242.366427 108.489145 
L 242.529733 108.489145 
L 242.69304 117.921032 
L 242.856347 105.784725 
L 243.18296 139.632412 
L 243.346267 121.398047 
L 243.509574 127.092448 
L 243.67288 116.472718 
L 243.836187 117.812729 
L 243.999494 108.011244 
L 244.162801 115.513037 
L 244.489414 146.79804 
L 244.652721 151.222606 
L 244.816028 140.521423 
L 244.979334 137.629071 
L 245.142641 114.93498 
L 245.469255 121.737907 
L 245.632561 123.169846 
L 245.795868 134.011 
L 245.959175 122.452362 
L 246.122482 132.492237 
L 246.285788 127.951116 
L 246.449095 129.184829 
L 246.612402 144.371919 
L 246.775708 135.827455 
L 246.939015 137.181244 
L 247.102322 96.636295 
L 247.428935 118.109199 
L 247.592242 124.15673 
L 247.755549 125.700775 
L 247.918856 120.78944 
L 248.082162 108.738102 
L 248.245469 117.082891 
L 248.408776 117.115911 
L 248.572083 114.377429 
L 248.735389 116.742919 
L 248.898696 109.790402 
L 249.062003 151.923539 
L 249.225309 131.496289 
L 249.388616 138.150491 
L 249.551923 138.787794 
L 249.71523 138.0718 
L 249.878536 138.582687 
L 250.041843 133.374566 
L 250.20515 114.133113 
L 250.368457 113.284177 
L 250.531763 138.012941 
L 250.695086 135.569589 
L 250.858393 137.064398 
L 251.185007 109.850818 
L 251.348313 121.760071 
L 251.51162 119.648635 
L 251.838234 86.344932 
L 252.00154 114.300717 
L 252.328154 121.000575 
L 252.49146 121.094813 
L 252.654767 138.635866 
L 252.818074 119.559196 
L 252.981381 141.754072 
L 253.144687 122.808626 
L 253.307994 122.134981 
L 253.471301 120.148738 
L 253.634608 123.502172 
L 253.797914 137.60797 
L 253.961221 132.017252 
L 254.124528 122.050661 
L 254.287835 133.922817 
L 254.451141 130.192881 
L 254.777755 113.963282 
L 254.941061 126.972544 
L 255.104368 102.232611 
L 255.267675 105.426521 
L 255.430982 125.230732 
L 255.594288 119.931624 
L 255.757595 95.473143 
L 255.920902 94.533488 
L 256.084209 97.437534 
L 256.247515 115.412944 
L 256.410822 119.322576 
L 256.574129 111.687994 
L 256.737436 97.132121 
L 256.900742 108.185956 
L 257.064049 85.766915 
L 257.390669 103.347363 
L 257.553976 92.381981 
L 257.880589 93.972441 
L 258.043896 87.756367 
L 258.207203 89.916739 
L 258.533816 115.737558 
L 258.697123 97.805389 
L 258.86043 121.232788 
L 259.023736 101.639089 
L 259.35035 90.069683 
L 259.676963 102.918434 
L 259.84027 104.452815 
L 260.003577 110.803382 
L 260.166884 103.759081 
L 260.33019 118.903218 
L 260.493497 107.611192 
L 260.656804 104.31744 
L 260.82011 96.478919 
L 260.983417 118.089082 
L 261.310031 91.676401 
L 261.473337 93.511757 
L 261.636644 100.850162 
L 261.799951 102.147822 
L 261.963258 124.609921 
L 262.126564 124.609921 
L 262.616485 96.794291 
L 262.943098 105.649508 
L 263.106405 97.676414 
L 263.269711 101.882124 
L 263.596325 92.292873 
L 263.759632 97.286007 
L 263.922938 94.945339 
L 264.086245 100.738687 
L 264.249552 133.123957 
L 264.412859 139.862366 
L 264.576165 117.89313 
L 264.739472 116.356928 
L 264.902779 112.297388 
L 265.066086 125.615513 
L 265.229392 115.430427 
L 265.392699 118.097201 
L 265.719313 90.467397 
L 265.882619 94.856581 
L 266.045926 119.249035 
L 266.209233 123.627699 
L 266.372539 114.751826 
L 266.535846 98.20485 
L 266.699153 114.59813 
L 266.86246 92.31978 
L 267.025766 101.967305 
L 267.189073 101.183635 
L 267.35238 118.766754 
L 267.515687 98.426528 
L 268.005607 127.523416 
L 268.168914 107.489623 
L 268.495527 123.212093 
L 268.658834 96.857266 
L 268.82214 103.764459 
L 268.985447 105.307266 
L 269.148754 101.253112 
L 269.312061 106.07216 
L 269.475367 123.872056 
L 269.638674 129.398986 
L 269.801981 117.814223 
L 269.965288 128.502594 
L 270.291901 106.911096 
L 270.455208 108.773234 
L 270.618515 129.568745 
L 270.781821 122.738631 
L 270.945128 140.533265 
L 271.108435 113.216111 
L 271.271742 126.551773 
L 271.598355 92.202638 
L 271.761662 99.373544 
L 271.924968 89.991332 
L 272.251582 118.016141 
L 272.414889 111.936266 
L 272.578195 129.937522 
L 272.741502 114.334603 
L 272.904809 110.833394 
L 273.068116 115.876851 
L 273.231422 115.185358 
L 273.394729 116.404986 
L 273.558033 110.738728 
L 273.721339 94.661794 
L 274.047953 104.417973 
L 274.21126 118.528781 
L 274.374566 114.405847 
L 275.027793 122.684248 
L 275.1911 118.723712 
L 275.354407 124.329236 
L 275.68102 109.099357 
L 275.844327 112.836572 
L 276.334247 100.47172 
L 276.497554 106.213102 
L 276.660861 104.532474 
L 276.824167 104.230052 
L 276.987474 115.521896 
L 277.150781 111.218152 
L 277.314087 123.626689 
L 277.640701 83.316969 
L 277.804008 87.461082 
L 277.967314 100.806609 
L 278.130621 92.882321 
L 278.293928 102.3615 
L 278.457235 97.649309 
L 278.620541 105.45249 
L 278.947155 93.299763 
L 279.273768 112.008665 
L 279.437075 101.070189 
L 279.600382 100.241936 
L 279.763689 84.54933 
L 279.926995 101.876882 
L 280.090302 104.856769 
L 280.253609 99.391733 
L 280.416915 81.14116 
L 280.580222 97.038426 
L 280.743529 94.491311 
L 280.906836 75.143881 
L 281.070142 84.226466 
L 281.233449 76.919961 
L 281.396756 86.421947 
L 281.560063 86.421947 
L 281.723369 92.93637 
L 281.886676 90.637041 
L 282.21329 91.109395 
L 282.376596 113.790572 
L 282.539903 100.391733 
L 282.70321 100.306308 
L 283.029823 109.478188 
L 283.356437 82.765153 
L 283.519743 116.420949 
L 284.17297 97.918396 
L 284.336277 97.956414 
L 284.499584 119.299911 
L 284.662891 106.596384 
L 284.826197 103.021628 
L 284.989504 104.495558 
L 285.152811 92.810431 
L 285.316118 109.025325 
L 285.479424 97.892172 
L 285.642731 98.723197 
L 285.806038 98.121134 
L 285.969344 98.103798 
L 286.132651 88.851095 
L 286.295958 97.703816 
L 286.459265 96.821046 
L 286.622571 92.574024 
L 286.949185 95.375113 
L 287.112492 93.221014 
L 287.275798 67.822553 
L 287.602412 97.846179 
L 287.765719 95.464094 
L 287.929025 86.017029 
L 288.092332 93.945545 
L 288.255639 90.38798 
L 288.418946 91.35217 
L 288.745559 102.248049 
L 289.072172 84.395892 
L 289.235479 91.61242 
L 289.398786 64.519014 
L 289.562093 75.030955 
L 289.725417 93.049382 
L 289.888724 95.06917 
L 290.052031 90.585673 
L 290.215337 82.17613 
L 290.378644 93.694166 
L 290.541951 95.575279 
L 290.868564 71.301784 
L 291.031871 91.217994 
L 291.195178 93.661365 
L 291.358485 71.785339 
L 291.685098 88.342824 
L 291.848405 87.377161 
L 292.011712 98.317169 
L 292.175018 65.374329 
L 292.338325 95.467015 
L 292.501632 77.257966 
L 292.664939 81.338114 
L 292.991552 108.719672 
L 293.318165 75.73342 
L 293.644779 102.705287 
L 293.971392 96.61963 
L 294.134699 73.53829 
L 294.461313 95.760642 
L 294.624619 95.948294 
L 294.787926 101.275972 
L 294.951233 115.350521 
L 295.11454 108.896322 
L 295.441153 74.150818 
L 295.60446 85.693909 
L 295.767766 85.422505 
L 295.931073 91.008908 
L 296.09438 73.520561 
L 296.257687 80.524887 
L 296.420993 96.428165 
L 296.747607 88.871458 
L 296.910914 79.472794 
L 297.07422 83.230608 
L 297.237527 81.499171 
L 297.400834 95.899286 
L 297.564141 90.957268 
L 297.727447 82.129616 
L 297.890754 102.401049 
L 298.217368 85.402208 
L 298.380674 84.810733 
L 298.707288 94.655598 
L 298.870594 110.5383 
L 299.197208 86.070063 
L 299.687128 129.699832 
L 299.850435 102.731558 
L 300.013742 104.360284 
L 300.177048 90.064465 
L 300.340355 93.007803 
L 300.666969 116.546051 
L 300.830275 99.46361 
L 300.993582 121.754055 
L 301.156889 121.754055 
L 301.810099 103.075262 
L 301.973406 105.264624 
L 302.136713 105.11262 
L 302.463326 100.610456 
L 302.626633 102.96571 
L 302.78994 103.234687 
L 302.953247 118.29678 
L 303.116553 114.170234 
L 303.27986 85.220027 
L 303.443167 88.482844 
L 303.606474 102.096586 
L 303.76978 106.259995 
L 303.933087 100.519155 
L 304.096394 73.593582 
L 304.2597 93.388268 
L 304.423007 91.065262 
L 304.586314 81.929576 
L 304.749621 83.300714 
L 304.912927 76.634031 
L 305.239541 102.356498 
L 305.566154 81.62251 
L 305.729461 92.434061 
L 306.05605 96.937769 
L 306.219357 107.885023 
L 306.382664 93.53933 
L 306.709277 100.756232 
L 306.872584 76.951983 
L 307.035891 95.275448 
L 307.362504 92.498239 
L 307.525811 83.267274 
L 307.689118 93.411244 
L 307.852424 74.189935 
L 308.015731 90.489156 
L 308.179038 89.004187 
L 308.342345 90.690808 
L 308.505651 89.221719 
L 308.668958 96.67314 
L 308.832265 97.803951 
L 308.995571 106.119112 
L 309.158878 108.063583 
L 309.485492 91.818305 
L 309.812105 100.498154 
L 309.975412 73.278038 
L 310.138719 97.980966 
L 310.302025 103.73736 
L 310.465332 91.48196 
L 310.628639 113.066327 
L 310.791946 97.404091 
L 310.955252 106.998415 
L 311.118559 91.72685 
L 311.281866 91.977697 
L 311.445172 119.338678 
L 311.771786 85.41719 
L 311.935093 91.725697 
L 312.098399 114.664576 
L 312.588303 69.763837 
L 312.75161 100.235643 
L 313.078224 69.298024 
L 313.24153 76.852099 
L 313.404837 99.594736 
L 313.568144 70.744313 
L 313.731451 80.201362 
L 313.894757 79.341537 
L 314.058064 88.44363 
L 314.221371 60.839175 
L 314.547984 101.076415 
L 314.711291 84.352895 
L 315.037904 93.180518 
L 315.201211 85.363823 
L 315.364518 91.36284 
L 315.527825 109.819585 
L 315.691131 105.962595 
L 315.854438 89.724775 
L 316.181052 118.372401 
L 316.344358 102.831626 
L 316.507665 104.374683 
L 316.670972 78.332772 
L 316.834279 82.484249 
L 317.160892 102.530232 
L 317.324199 107.013924 
L 317.487505 88.181121 
L 317.650812 107.928584 
L 317.814119 95.842853 
L 317.977426 93.14547 
L 318.140732 94.873699 
L 318.304039 109.656306 
L 318.467346 97.617864 
L 318.630653 96.036103 
L 318.793959 111.437137 
L 318.957266 111.478157 
L 319.120573 108.192681 
L 319.447186 84.272333 
L 319.7738 119.464913 
L 319.937106 99.77797 
L 320.100397 121.239504 
L 320.263704 118.511564 
L 320.42701 96.280638 
L 320.590317 117.991608 
L 320.753624 117.991608 
L 320.916931 115.216054 
L 321.243544 127.813924 
L 321.406851 113.859001 
L 321.570158 124.365054 
L 321.896771 101.68955 
L 322.223393 123.519558 
L 322.713313 105.087568 
L 322.87662 127.905148 
L 323.203233 112.716465 
L 323.36654 131.600493 
L 323.85646 117.154208 
L 324.183073 133.494304 
L 324.34638 130.600805 
L 324.509687 141.43417 
L 324.672994 125.08165 
L 324.8363 137.599628 
L 324.999607 129.05258 
L 325.162914 155.276022 
L 325.489527 158.106287 
L 325.652834 156.610246 
L 326.142754 125.409313 
L 326.306061 131.323367 
L 326.469368 132.023443 
L 326.632658 129.069525 
L 326.795965 145.329262 
L 326.959272 144.053883 
L 327.122578 152.195114 
L 327.285885 149.903527 
L 327.449192 164.273924 
L 327.775805 143.869624 
L 327.939112 135.049622 
L 328.102419 144.664049 
L 328.265726 135.094338 
L 328.592339 139.828439 
L 328.755646 149.351802 
L 328.918953 135.959374 
L 329.082259 155.519597 
L 329.245566 142.344574 
L 329.408873 144.592407 
L 329.735486 137.733501 
L 329.898793 115.702044 
L 330.0621 137.787453 
L 330.225406 142.630444 
L 330.388713 157.482129 
L 330.715327 145.596603 
L 330.878633 145.727774 
L 331.04194 142.817715 
L 331.205247 118.934687 
L 331.53186 131.447696 
L 331.695167 125.988018 
L 331.858474 131.872385 
L 332.021781 130.031497 
L 332.185087 113.228987 
L 332.348394 127.485878 
L 332.511685 130.120802 
L 332.674991 126.144074 
L 332.838298 132.164917 
L 333.001605 110.278695 
L 333.328218 119.902086 
L 333.654832 105.932312 
L 333.818138 108.632395 
L 333.981445 93.7207 
L 334.144752 96.454468 
L 334.308059 84.482532 
L 334.471365 103.6008 
L 334.634672 102.352387 
L 334.797979 112.164039 
L 335.124592 115.090738 
L 335.287899 86.931875 
L 335.451206 80.518629 
L 335.614512 114.445223 
L 335.777819 113.33741 
L 335.941126 118.848047 
L 336.594353 87.612748 
L 336.75766 122.172311 
L 337.084273 106.868898 
L 337.410887 129.056681 
L 337.737484 91.202951 
L 337.900791 88.435429 
L 338.227404 103.819955 
L 338.390711 125.676325 
L 338.717318 93.195809 
L 338.880624 104.712157 
L 339.043931 97.10194 
L 339.207238 100.082513 
L 339.370545 78.458423 
L 339.533851 108.185875 
L 339.697158 102.435348 
L 339.860465 111.629561 
L 340.023772 91.792559 
L 340.187078 94.117078 
L 340.350385 94.117078 
L 340.513692 78.799543 
L 340.676999 109.891764 
L 340.840305 104.968514 
L 341.003612 110.14233 
L 341.166919 95.753565 
L 341.656839 123.002926 
L 341.983452 118.248983 
L 342.146759 123.042932 
L 342.31005 118.982634 
L 342.473356 107.587906 
L 342.636663 109.562804 
L 342.79997 112.968998 
L 342.963277 119.06959 
L 343.28989 93.904639 
L 343.616504 114.717821 
L 343.77981 102.065742 
L 343.943117 120.790332 
L 344.106424 118.132851 
L 344.26973 94.76117 
L 344.596344 137.934666 
L 344.759651 124.099288 
L 344.922957 125.219731 
L 345.249571 132.560846 
L 345.412878 124.486515 
L 345.576184 125.483885 
L 345.739491 125.226901 
L 345.902798 132.798149 
L 346.066105 134.126512 
L 346.392718 116.33276 
L 346.556009 134.416554 
L 346.719315 121.945928 
L 346.882622 123.587221 
L 347.045929 127.072853 
L 347.209235 109.590814 
L 347.372542 114.330187 
L 347.535849 110.179261 
L 347.699156 121.49167 
L 348.025769 107.362803 
L 348.189076 117.735334 
L 348.352383 110.571435 
L 348.678996 119.13613 
L 348.842303 118.990939 
L 349.168916 84.98166 
L 349.332223 104.653297 
L 349.49553 97.664661 
L 349.98545 109.562032 
L 350.148757 104.999775 
L 350.312063 103.801929 
L 350.638661 106.338833 
L 350.801967 113.630891 
L 351.128581 96.495898 
L 351.455194 127.585418 
L 351.618501 110.427517 
L 351.781808 108.160661 
L 351.945115 116.065931 
L 352.108421 105.856386 
L 352.271728 87.266925 
L 352.598342 107.789471 
L 352.761648 109.140789 
L 353.088262 96.514522 
L 353.578182 53.568 
L 353.904795 85.988195 
L 354.231409 97.061858 
L 354.394699 92.329691 
L 354.558006 111.557449 
L 354.721319 90.669416 
L 355.047933 103.662987 
L 355.21124 101.204478 
L 355.374546 92.031455 
L 355.537853 118.346942 
L 355.70116 117.132655 
L 355.864466 105.937439 
L 356.027773 116.843218 
L 356.19108 119.63666 
L 356.354387 113.958431 
L 356.517693 127.028762 
L 356.681 128.903649 
L 357.007614 105.547527 
L 357.17092 129.03911 
L 357.497534 108.432734 
L 357.660841 96.881063 
L 357.824147 118.235838 
L 357.987454 119.591655 
L 358.150745 130.171877 
L 358.314051 121.749895 
L 358.477358 133.753417 
L 358.640665 132.907217 
L 358.803971 149.294387 
L 358.967278 117.222019 
L 359.130585 121.949751 
L 359.457198 112.326243 
L 359.620505 120.07121 
L 359.783812 118.61718 
L 359.947119 130.930639 
L 360.110425 130.930639 
L 360.273732 135.365071 
L 360.437039 130.023444 
L 360.763652 149.022872 
L 360.926959 127.024232 
L 361.090266 130.109919 
L 361.253573 127.572891 
L 361.58017 149.283679 
L 361.743476 146.957445 
L 361.906783 115.54541 
L 362.07009 106.007681 
L 362.233397 83.997495 
L 362.723317 135.052901 
L 362.886624 128.743916 
L 363.04993 132.2375 
L 363.213237 112.132179 
L 363.866464 129.598272 
L 364.193078 118.032359 
L 364.356384 151.518866 
L 364.519691 146.391954 
L 364.682981 132.944392 
L 364.846288 144.440339 
L 365.172902 120.987134 
L 365.336208 122.830283 
L 365.499515 116.485876 
L 365.662822 117.260383 
L 365.826129 124.130305 
L 365.989435 116.047752 
L 366.152742 131.951759 
L 366.316049 109.154969 
L 366.479356 104.390607 
L 366.805969 108.610625 
L 366.969276 103.910671 
L 367.132583 90.520382 
L 367.459196 119.135086 
L 367.622503 110.6495 
L 367.785793 118.376572 
L 367.9491 144.309906 
L 368.112407 124.305858 
L 368.275713 133.179056 
L 368.43902 125.655093 
L 368.602327 109.702116 
L 368.765634 119.184324 
L 369.092247 106.1213 
L 369.255554 120.102818 
L 369.418861 107.440741 
L 369.582167 115.921069 
L 369.745474 113.59332 
L 369.908781 129.264182 
L 370.235394 130.489611 
L 370.398701 114.372689 
L 370.562008 112.809016 
L 370.725314 83.711594 
L 370.888605 110.808505 
L 371.051897 106.226724 
L 371.215204 106.780162 
L 371.378511 108.551417 
L 371.541817 112.977649 
L 371.705124 123.012313 
L 372.195044 97.572032 
L 372.358351 93.988514 
L 372.521658 126.180555 
L 372.848271 82.990731 
L 373.011578 105.894766 
L 373.174885 85.658434 
L 373.338191 116.129921 
L 373.501498 108.779388 
L 373.664789 83.53399 
L 373.828095 103.944507 
L 373.991402 106.786579 
L 374.154709 107.686369 
L 374.318016 102.279713 
L 374.481322 107.07627 
L 374.644629 108.218665 
L 374.807936 113.599498 
L 374.971242 132.223538 
L 375.134549 111.385744 
L 375.297856 114.395796 
L 375.461163 98.715436 
L 375.624469 99.512359 
L 375.787776 94.477735 
L 375.951083 97.360369 
L 376.11439 88.864319 
L 376.277696 72.384711 
L 376.604294 112.565981 
L 376.7676 110.05803 
L 377.094214 98.184192 
L 377.257521 104.327652 
L 377.420827 116.318318 
L 377.584134 105.470914 
L 377.747441 112.258293 
L 378.074054 91.719426 
L 378.237361 89.910084 
L 378.563974 100.967509 
L 378.727281 98.083416 
L 378.890588 108.317225 
L 379.053895 95.12892 
L 379.217185 98.874401 
L 379.380492 112.970034 
L 379.543799 113.165679 
L 379.707105 113.165679 
L 379.870412 95.648351 
L 380.033719 62.889748 
L 380.197026 64.612011 
L 380.686946 106.481124 
L 381.013559 120.922561 
L 381.340173 76.070843 
L 381.503479 68.677828 
L 381.666786 73.753656 
L 381.830077 62.297289 
L 381.993383 73.446438 
L 382.15669 102.270798 
L 382.319997 95.809712 
L 382.483304 74.026455 
L 382.64661 98.335933 
L 382.809917 64.706957 
L 382.973224 88.011543 
L 383.136531 82.988229 
L 383.299837 82.855852 
L 383.463144 88.831937 
L 383.626451 83.900429 
L 383.789757 100.898794 
L 383.953064 76.198746 
L 384.442968 102.327433 
L 384.606275 105.982316 
L 384.769582 98.361484 
L 384.932888 105.36363 
L 385.096195 86.266132 
L 385.259502 98.50286 
L 385.422809 74.465099 
L 385.586115 89.283085 
L 385.749422 90.299629 
L 385.912729 87.593307 
L 386.076036 90.880642 
L 386.239342 74.768836 
L 386.402649 97.465061 
L 386.565956 103.642024 
L 386.729262 83.254956 
L 387.219173 106.14623 
L 387.38248 98.070662 
L 387.545786 104.110752 
L 387.709093 123.18578 
L 388.035707 84.801148 
L 388.199013 99.693539 
L 388.36232 98.233341 
L 388.688934 88.221119 
L 388.85224 106.626131 
L 389.015547 100.018752 
L 389.178854 119.441782 
L 389.342144 106.331625 
L 389.505451 109.075584 
L 389.668758 117.030774 
L 389.832064 97.962021 
L 389.995371 117.76663 
L 390.321985 112.646564 
L 390.485291 98.451786 
L 390.648598 101.064762 
L 390.811905 96.318172 
L 391.138518 75.270445 
L 391.301825 74.630463 
L 391.465132 82.489084 
L 391.628439 103.333749 
L 391.791729 83.154943 
L 391.955036 100.080989 
L 392.118343 97.46524 
L 392.281649 115.69309 
L 392.444956 97.253964 
L 392.608263 96.459683 
L 392.771569 84.156227 
L 392.934876 97.679028 
L 393.098183 92.769336 
L 393.26149 103.362077 
L 393.424796 104.794216 
L 393.588103 110.444875 
L 393.75141 94.224406 
L 393.914717 93.256503 
L 394.241314 96.72546 
L 394.567927 109.210169 
L 394.731234 119.083443 
L 394.894541 119.220298 
L 395.057848 119.143778 
L 395.221154 138.56967 
L 395.384461 120.802792 
L 395.547768 123.502075 
L 395.711074 120.78659 
L 395.874381 113.514035 
L 396.037688 120.18985 
L 396.200995 104.068025 
L 396.364285 102.873733 
L 396.527592 96.50513 
L 396.690899 133.791856 
L 396.854205 131.635523 
L 397.017512 112.930458 
L 397.180819 137.052548 
L 397.344126 131.450086 
L 397.507432 137.999303 
L 397.670739 134.016612 
L 397.997353 107.487875 
L 398.160659 131.645034 
L 398.323966 115.267185 
L 398.487273 125.863184 
L 398.487273 125.863184 
" clip-path="url(#p0d414707f4)" style="fill: none; stroke: #1f77b4; stroke-width: 1.5; stroke-linecap: square"/>
   </g>
   <g id="patch_3">
    <path d="M 57.6 307.584 
L 57.6 41.472 
" style="fill: none; stroke: #000000; stroke-width: 0.8; stroke-linejoin: miter; stroke-linecap: square"/>
   </g>
   <g id="patch_4">
    <path d="M 414.72 307.584 
L 414.72 41.472 
" style="fill: none; stroke: #000000; stroke-width: 0.8; stroke-linejoin: miter; stroke-linecap: square"/>
   </g>
   <g id="patch_5">
    <path d="M 57.6 307.584 
L 414.72 307.584 
" style="fill: none; stroke: #000000; stroke-width: 0.8; stroke-linejoin: miter; stroke-linecap: square"/>
   </g>
   <g id="patch_6">
    <path d="M 57.6 41.472 
L 414.72 41.472 
" style="fill: none; stroke: #000000; stroke-width: 0.8; stroke-linejoin: miter; stroke-linecap: square"/>
   </g>
   <g id="text_20">
    <!-- Vemund-Nidarosdomen-vinkel -->
    <g transform="translate(146.173125 35.472) scale(0.12 -0.12)">
     <defs>
      <path id="DejaVuSans-56" d="M 1831 0 
L 50 4666 
L 709 4666 
L 2188 738 
L 3669 4666 
L 4325 4666 
L 2547 0 
L 1831 0 
z
" transform="scale(0.015625)"/>
      <path id="DejaVuSans-75" d="M 544 1381 
L 544 3500 
L 1119 3500 
L 1119 1403 
Q 1119 906 1312 657 
Q 1506 409 1894 409 
Q 2359 409 2629 706 
Q 2900 1003 2900 1516 
L 2900 3500 
L 3475 3500 
L 3475 0 
L 2900 0 
L 2900 538 
Q 2691 219 2414 64 
Q 2138 -91 1772 -91 
Q 1169 -91 856 284 
Q 544 659 544 1381 
z
M 1991 3584 
L 1991 3584 
z
" transform="scale(0.015625)"/>
      <path id="DejaVuSans-6e" d="M 3513 2113 
L 3513 0 
L 2938 0 
L 2938 2094 
Q 2938 2591 2744 2837 
Q 2550 3084 2163 3084 
Q 1697 3084 1428 2787 
Q 1159 2491 1159 1978 
L 1159 0 
L 581 0 
L 581 3500 
L 1159 3500 
L 1159 2956 
Q 1366 3272 1645 3428 
Q 1925 3584 2291 3584 
Q 2894 3584 3203 3211 
Q 3513 2838 3513 2113 
z
" transform="scale(0.015625)"/>
      <path id="DejaVuSans-2d" d="M 313 2009 
L 1997 2009 
L 1997 1497 
L 313 1497 
L 313 2009 
z
" transform="scale(0.015625)"/>
      <path id="DejaVuSans-4e" d="M 628 4666 
L 1478 4666 
L 3547 763 
L 3547 4666 
L 4159 4666 
L 4159 0 
L 3309 0 
L 1241 3903 
L 1241 0 
L 628 0 
L 628 4666 
z
" transform="scale(0.015625)"/>
      <path id="DejaVuSans-61" d="M 2194 1759 
Q 1497 1759 1228 1600 
Q 959 1441 959 1056 
Q 959 750 1161 570 
Q 1363 391 1709 391 
Q 2188 391 2477 730 
Q 2766 1069 2766 1631 
L 2766 1759 
L 2194 1759 
z
M 3341 1997 
L 3341 0 
L 2766 0 
L 2766 531 
Q 2569 213 2275 61 
Q 1981 -91 1556 -91 
Q 1019 -91 701 211 
Q 384 513 384 1019 
Q 384 1609 779 1909 
Q 1175 2209 1959 2209 
L 2766 2209 
L 2766 2266 
Q 2766 2663 2505 2880 
Q 2244 3097 1772 3097 
Q 1472 3097 1187 3025 
Q 903 2953 641 2809 
L 641 3341 
Q 956 3463 1253 3523 
Q 1550 3584 1831 3584 
Q 2591 3584 2966 3190 
Q 3341 2797 3341 1997 
z
" transform="scale(0.015625)"/>
      <path id="DejaVuSans-72" d="M 2631 2963 
Q 2534 3019 2420 3045 
Q 2306 3072 2169 3072 
Q 1681 3072 1420 2755 
Q 1159 2438 1159 1844 
L 1159 0 
L 581 0 
L 581 3500 
L 1159 3500 
L 1159 2956 
Q 1341 3275 1631 3429 
Q 1922 3584 2338 3584 
Q 2397 3584 2469 3576 
Q 2541 3569 2628 3553 
L 2631 2963 
z
" transform="scale(0.015625)"/>
      <path id="DejaVuSans-6f" d="M 1959 3097 
Q 1497 3097 1228 2736 
Q 959 2375 959 1747 
Q 959 1119 1226 758 
Q 1494 397 1959 397 
Q 2419 397 2687 759 
Q 2956 1122 2956 1747 
Q 2956 2369 2687 2733 
Q 2419 3097 1959 3097 
z
M 1959 3584 
Q 2709 3584 3137 3096 
Q 3566 2609 3566 1747 
Q 3566 888 3137 398 
Q 2709 -91 1959 -91 
Q 1206 -91 779 398 
Q 353 888 353 1747 
Q 353 2609 779 3096 
Q 1206 3584 1959 3584 
z
" transform="scale(0.015625)"/>
      <path id="DejaVuSans-76" d="M 191 3500 
L 800 3500 
L 1894 563 
L 2988 3500 
L 3597 3500 
L 2284 0 
L 1503 0 
L 191 3500 
z
" transform="scale(0.015625)"/>
      <path id="DejaVuSans-6b" d="M 581 4863 
L 1159 4863 
L 1159 1991 
L 2875 3500 
L 3609 3500 
L 1753 1863 
L 3688 0 
L 2938 0 
L 1159 1709 
L 1159 0 
L 581 0 
L 581 4863 
z
" transform="scale(0.015625)"/>
      <path id="DejaVuSans-6c" d="M 603 4863 
L 1178 4863 
L 1178 0 
L 603 0 
L 603 4863 
z
" transform="scale(0.015625)"/>
     </defs>
     <use xlink:href="#DejaVuSans-56"/>
     <use xlink:href="#DejaVuSans-65" x="60.658203"/>
     <use xlink:href="#DejaVuSans-6d" x="122.181641"/>
     <use xlink:href="#DejaVuSans-75" x="219.59375"/>
     <use xlink:href="#DejaVuSans-6e" x="282.972656"/>
     <use xlink:href="#DejaVuSans-64" x="346.351562"/>
     <use xlink:href="#DejaVuSans-2d" x="409.828125"/>
     <use xlink:href="#DejaVuSans-4e" x="445.912109"/>
     <use xlink:href="#DejaVuSans-69" x="520.716797"/>
     <use xlink:href="#DejaVuSans-64" x="548.5"/>
     <use xlink:href="#DejaVuSans-61" x="611.976562"/>
     <use xlink:href="#DejaVuSans-72" x="673.255859"/>
     <use xlink:href="#DejaVuSans-6f" x="712.119141"/>
     <use xlink:href="#DejaVuSans-73" x="773.300781"/>
     <use xlink:href="#DejaVuSans-64" x="825.400391"/>
     <use xlink:href="#DejaVuSans-6f" x="888.876953"/>
     <use xlink:href="#DejaVuSans-6d" x="950.058594"/>
     <use xlink:href="#DejaVuSans-65" x="1047.470703"/>
     <use xlink:href="#DejaVuSans-6e" x="1108.994141"/>
     <use xlink:href="#DejaVuSans-2d" x="1172.373047"/>
     <use xlink:href="#DejaVuSans-76" x="1205.832031"/>
     <use xlink:href="#DejaVuSans-69" x="1265.011719"/>
     <use xlink:href="#DejaVuSans-6e" x="1292.794922"/>
     <use xlink:href="#DejaVuSans-6b" x="1356.173828"/>
     <use xlink:href="#DejaVuSans-65" x="1410.458984"/>
     <use xlink:href="#DejaVuSans-6c" x="1471.982422"/>
    </g>
   </g>
   <g id="legend_1">
    <g id="patch_7">
     <path d="M 225.741875 302.584 
L 407.72 302.584 
Q 409.72 302.584 409.72 300.584 
L 409.72 286.905875 
Q 409.72 284.905875 407.72 284.905875 
L 225.741875 284.905875 
Q 223.741875 284.905875 223.741875 286.905875 
L 223.741875 300.584 
Q 223.741875 302.584 225.741875 302.584 
z
" style="fill: #ffffff; opacity: 0.8; stroke: #cccccc; stroke-linejoin: miter"/>
    </g>
    <g id="line2d_19">
     <path d="M 227.741875 293.004312 
L 237.741875 293.004312 
L 247.741875 293.004312 
" style="fill: none; stroke: #1f77b4; stroke-width: 1.5; stroke-linecap: square"/>
    </g>
    <g id="text_21">
     <!-- Vemund-Nidarosdomen-vinkel -->
     <g transform="translate(255.741875 296.504312) scale(0.1 -0.1)">
      <use xlink:href="#DejaVuSans-56"/>
      <use xlink:href="#DejaVuSans-65" x="60.658203"/>
      <use xlink:href="#DejaVuSans-6d" x="122.181641"/>
      <use xlink:href="#DejaVuSans-75" x="219.59375"/>
      <use xlink:href="#DejaVuSans-6e" x="282.972656"/>
      <use xlink:href="#DejaVuSans-64" x="346.351562"/>
      <use xlink:href="#DejaVuSans-2d" x="409.828125"/>
      <use xlink:href="#DejaVuSans-4e" x="445.912109"/>
      <use xlink:href="#DejaVuSans-69" x="520.716797"/>
      <use xlink:href="#DejaVuSans-64" x="548.5"/>
      <use xlink:href="#DejaVuSans-61" x="611.976562"/>
      <use xlink:href="#DejaVuSans-72" x="673.255859"/>
      <use xlink:href="#DejaVuSans-6f" x="712.119141"/>
      <use xlink:href="#DejaVuSans-73" x="773.300781"/>
      <use xlink:href="#DejaVuSans-64" x="825.400391"/>
      <use xlink:href="#DejaVuSans-6f" x="888.876953"/>
      <use xlink:href="#DejaVuSans-6d" x="950.058594"/>
      <use xlink:href="#DejaVuSans-65" x="1047.470703"/>
      <use xlink:href="#DejaVuSans-6e" x="1108.994141"/>
      <use xlink:href="#DejaVuSans-2d" x="1172.373047"/>
      <use xlink:href="#DejaVuSans-76" x="1205.832031"/>
      <use xlink:href="#DejaVuSans-69" x="1265.011719"/>
      <use xlink:href="#DejaVuSans-6e" x="1292.794922"/>
      <use xlink:href="#DejaVuSans-6b" x="1356.173828"/>
      <use xlink:href="#DejaVuSans-65" x="1410.458984"/>
      <use xlink:href="#DejaVuSans-6c" x="1471.982422"/>
     </g>
    </g>
   </g>
  </g>
 </g>
 <defs>
  <clipPath id="p0d414707f4">
   <rect x="57.6" y="41.472" width="357.12" height="266.112"/>
  </clipPath>
 </defs>
</svg>
