<?xml version="1.0" encoding="utf-8" standalone="no"?>
<!DOCTYPE svg PUBLIC "-//W3C//DTD SVG 1.1//EN"
  "http://www.w3.org/Graphics/SVG/1.1/DTD/svg11.dtd">
<svg xmlns:xlink="http://www.w3.org/1999/xlink" width="460.8pt" height="345.6pt" viewBox="0 0 460.8 345.6" xmlns="http://www.w3.org/2000/svg" version="1.1">
 <metadata>
  <rdf:RDF xmlns:dc="http://purl.org/dc/elements/1.1/" xmlns:cc="http://creativecommons.org/ns#" xmlns:rdf="http://www.w3.org/1999/02/22-rdf-syntax-ns#">
   <cc:Work>
    <dc:type rdf:resource="http://purl.org/dc/dcmitype/StillImage"/>
    <dc:date>2023-04-17T15:21:35.148073</dc:date>
    <dc:format>image/svg+xml</dc:format>
    <dc:creator>
     <cc:Agent>
      <dc:title>Matplotlib v3.7.1, https://matplotlib.org/</dc:title>
     </cc:Agent>
    </dc:creator>
   </cc:Work>
  </rdf:RDF>
 </metadata>
 <defs>
  <style type="text/css">*{stroke-linejoin: round; stroke-linecap: butt}</style>
 </defs>
 <g id="figure_1">
  <g id="patch_1">
   <path d="M 0 345.6 
L 460.8 345.6 
L 460.8 0 
L 0 0 
z
" style="fill: #ffffff"/>
  </g>
  <g id="axes_1">
   <g id="patch_2">
    <path d="M 57.6 307.584 
L 414.72 307.584 
L 414.72 41.472 
L 57.6 41.472 
z
" style="fill: #ffffff"/>
   </g>
   <g id="matplotlib.axis_1">
    <g id="xtick_1">
     <g id="line2d_1">
      <defs>
       <path id="m9b0b273bd7" d="M 0 0 
L 0 3.5 
" style="stroke: #000000; stroke-width: 0.8"/>
      </defs>
      <g>
       <use xlink:href="#m9b0b273bd7" x="74.173415" y="307.584" style="stroke: #000000; stroke-width: 0.8"/>
      </g>
     </g>
     <g id="text_1">
      <!-- 20 -->
      <g transform="translate(67.810915 322.182437) scale(0.1 -0.1)">
       <defs>
        <path id="DejaVuSans-32" d="M 1228 531 
L 3431 531 
L 3431 0 
L 469 0 
L 469 531 
Q 828 903 1448 1529 
Q 2069 2156 2228 2338 
Q 2531 2678 2651 2914 
Q 2772 3150 2772 3378 
Q 2772 3750 2511 3984 
Q 2250 4219 1831 4219 
Q 1534 4219 1204 4116 
Q 875 4013 500 3803 
L 500 4441 
Q 881 4594 1212 4672 
Q 1544 4750 1819 4750 
Q 2544 4750 2975 4387 
Q 3406 4025 3406 3419 
Q 3406 3131 3298 2873 
Q 3191 2616 2906 2266 
Q 2828 2175 2409 1742 
Q 1991 1309 1228 531 
z
" transform="scale(0.015625)"/>
        <path id="DejaVuSans-30" d="M 2034 4250 
Q 1547 4250 1301 3770 
Q 1056 3291 1056 2328 
Q 1056 1369 1301 889 
Q 1547 409 2034 409 
Q 2525 409 2770 889 
Q 3016 1369 3016 2328 
Q 3016 3291 2770 3770 
Q 2525 4250 2034 4250 
z
M 2034 4750 
Q 2819 4750 3233 4129 
Q 3647 3509 3647 2328 
Q 3647 1150 3233 529 
Q 2819 -91 2034 -91 
Q 1250 -91 836 529 
Q 422 1150 422 2328 
Q 422 3509 836 4129 
Q 1250 4750 2034 4750 
z
" transform="scale(0.015625)"/>
       </defs>
       <use xlink:href="#DejaVuSans-32"/>
       <use xlink:href="#DejaVuSans-30" x="63.623047"/>
      </g>
     </g>
    </g>
    <g id="xtick_2">
     <g id="line2d_2">
      <g>
       <use xlink:href="#m9b0b273bd7" x="117.486337" y="307.584" style="stroke: #000000; stroke-width: 0.8"/>
      </g>
     </g>
     <g id="text_2">
      <!-- 22 -->
      <g transform="translate(111.123837 322.182437) scale(0.1 -0.1)">
       <use xlink:href="#DejaVuSans-32"/>
       <use xlink:href="#DejaVuSans-32" x="63.623047"/>
      </g>
     </g>
    </g>
    <g id="xtick_3">
     <g id="line2d_3">
      <g>
       <use xlink:href="#m9b0b273bd7" x="160.799259" y="307.584" style="stroke: #000000; stroke-width: 0.8"/>
      </g>
     </g>
     <g id="text_3">
      <!-- 24 -->
      <g transform="translate(154.436759 322.182437) scale(0.1 -0.1)">
       <defs>
        <path id="DejaVuSans-34" d="M 2419 4116 
L 825 1625 
L 2419 1625 
L 2419 4116 
z
M 2253 4666 
L 3047 4666 
L 3047 1625 
L 3713 1625 
L 3713 1100 
L 3047 1100 
L 3047 0 
L 2419 0 
L 2419 1100 
L 313 1100 
L 313 1709 
L 2253 4666 
z
" transform="scale(0.015625)"/>
       </defs>
       <use xlink:href="#DejaVuSans-32"/>
       <use xlink:href="#DejaVuSans-34" x="63.623047"/>
      </g>
     </g>
    </g>
    <g id="xtick_4">
     <g id="line2d_4">
      <g>
       <use xlink:href="#m9b0b273bd7" x="204.11218" y="307.584" style="stroke: #000000; stroke-width: 0.8"/>
      </g>
     </g>
     <g id="text_4">
      <!-- 26 -->
      <g transform="translate(197.74968 322.182437) scale(0.1 -0.1)">
       <defs>
        <path id="DejaVuSans-36" d="M 2113 2584 
Q 1688 2584 1439 2293 
Q 1191 2003 1191 1497 
Q 1191 994 1439 701 
Q 1688 409 2113 409 
Q 2538 409 2786 701 
Q 3034 994 3034 1497 
Q 3034 2003 2786 2293 
Q 2538 2584 2113 2584 
z
M 3366 4563 
L 3366 3988 
Q 3128 4100 2886 4159 
Q 2644 4219 2406 4219 
Q 1781 4219 1451 3797 
Q 1122 3375 1075 2522 
Q 1259 2794 1537 2939 
Q 1816 3084 2150 3084 
Q 2853 3084 3261 2657 
Q 3669 2231 3669 1497 
Q 3669 778 3244 343 
Q 2819 -91 2113 -91 
Q 1303 -91 875 529 
Q 447 1150 447 2328 
Q 447 3434 972 4092 
Q 1497 4750 2381 4750 
Q 2619 4750 2861 4703 
Q 3103 4656 3366 4563 
z
" transform="scale(0.015625)"/>
       </defs>
       <use xlink:href="#DejaVuSans-32"/>
       <use xlink:href="#DejaVuSans-36" x="63.623047"/>
      </g>
     </g>
    </g>
    <g id="xtick_5">
     <g id="line2d_5">
      <g>
       <use xlink:href="#m9b0b273bd7" x="247.425102" y="307.584" style="stroke: #000000; stroke-width: 0.8"/>
      </g>
     </g>
     <g id="text_5">
      <!-- 28 -->
      <g transform="translate(241.062602 322.182437) scale(0.1 -0.1)">
       <defs>
        <path id="DejaVuSans-38" d="M 2034 2216 
Q 1584 2216 1326 1975 
Q 1069 1734 1069 1313 
Q 1069 891 1326 650 
Q 1584 409 2034 409 
Q 2484 409 2743 651 
Q 3003 894 3003 1313 
Q 3003 1734 2745 1975 
Q 2488 2216 2034 2216 
z
M 1403 2484 
Q 997 2584 770 2862 
Q 544 3141 544 3541 
Q 544 4100 942 4425 
Q 1341 4750 2034 4750 
Q 2731 4750 3128 4425 
Q 3525 4100 3525 3541 
Q 3525 3141 3298 2862 
Q 3072 2584 2669 2484 
Q 3125 2378 3379 2068 
Q 3634 1759 3634 1313 
Q 3634 634 3220 271 
Q 2806 -91 2034 -91 
Q 1263 -91 848 271 
Q 434 634 434 1313 
Q 434 1759 690 2068 
Q 947 2378 1403 2484 
z
M 1172 3481 
Q 1172 3119 1398 2916 
Q 1625 2713 2034 2713 
Q 2441 2713 2670 2916 
Q 2900 3119 2900 3481 
Q 2900 3844 2670 4047 
Q 2441 4250 2034 4250 
Q 1625 4250 1398 4047 
Q 1172 3844 1172 3481 
z
" transform="scale(0.015625)"/>
       </defs>
       <use xlink:href="#DejaVuSans-32"/>
       <use xlink:href="#DejaVuSans-38" x="63.623047"/>
      </g>
     </g>
    </g>
    <g id="xtick_6">
     <g id="line2d_6">
      <g>
       <use xlink:href="#m9b0b273bd7" x="290.738024" y="307.584" style="stroke: #000000; stroke-width: 0.8"/>
      </g>
     </g>
     <g id="text_6">
      <!-- 30 -->
      <g transform="translate(284.375524 322.182437) scale(0.1 -0.1)">
       <defs>
        <path id="DejaVuSans-33" d="M 2597 2516 
Q 3050 2419 3304 2112 
Q 3559 1806 3559 1356 
Q 3559 666 3084 287 
Q 2609 -91 1734 -91 
Q 1441 -91 1130 -33 
Q 819 25 488 141 
L 488 750 
Q 750 597 1062 519 
Q 1375 441 1716 441 
Q 2309 441 2620 675 
Q 2931 909 2931 1356 
Q 2931 1769 2642 2001 
Q 2353 2234 1838 2234 
L 1294 2234 
L 1294 2753 
L 1863 2753 
Q 2328 2753 2575 2939 
Q 2822 3125 2822 3475 
Q 2822 3834 2567 4026 
Q 2313 4219 1838 4219 
Q 1578 4219 1281 4162 
Q 984 4106 628 3988 
L 628 4550 
Q 988 4650 1302 4700 
Q 1616 4750 1894 4750 
Q 2613 4750 3031 4423 
Q 3450 4097 3450 3541 
Q 3450 3153 3228 2886 
Q 3006 2619 2597 2516 
z
" transform="scale(0.015625)"/>
       </defs>
       <use xlink:href="#DejaVuSans-33"/>
       <use xlink:href="#DejaVuSans-30" x="63.623047"/>
      </g>
     </g>
    </g>
    <g id="xtick_7">
     <g id="line2d_7">
      <g>
       <use xlink:href="#m9b0b273bd7" x="334.050946" y="307.584" style="stroke: #000000; stroke-width: 0.8"/>
      </g>
     </g>
     <g id="text_7">
      <!-- 32 -->
      <g transform="translate(327.688446 322.182437) scale(0.1 -0.1)">
       <use xlink:href="#DejaVuSans-33"/>
       <use xlink:href="#DejaVuSans-32" x="63.623047"/>
      </g>
     </g>
    </g>
    <g id="xtick_8">
     <g id="line2d_8">
      <g>
       <use xlink:href="#m9b0b273bd7" x="377.363868" y="307.584" style="stroke: #000000; stroke-width: 0.8"/>
      </g>
     </g>
     <g id="text_8">
      <!-- 34 -->
      <g transform="translate(371.001368 322.182437) scale(0.1 -0.1)">
       <use xlink:href="#DejaVuSans-33"/>
       <use xlink:href="#DejaVuSans-34" x="63.623047"/>
      </g>
     </g>
    </g>
    <g id="text_9">
     <!-- time [s] -->
     <g transform="translate(216.768594 335.860562) scale(0.1 -0.1)">
      <defs>
       <path id="DejaVuSans-74" d="M 1172 4494 
L 1172 3500 
L 2356 3500 
L 2356 3053 
L 1172 3053 
L 1172 1153 
Q 1172 725 1289 603 
Q 1406 481 1766 481 
L 2356 481 
L 2356 0 
L 1766 0 
Q 1100 0 847 248 
Q 594 497 594 1153 
L 594 3053 
L 172 3053 
L 172 3500 
L 594 3500 
L 594 4494 
L 1172 4494 
z
" transform="scale(0.015625)"/>
       <path id="DejaVuSans-69" d="M 603 3500 
L 1178 3500 
L 1178 0 
L 603 0 
L 603 3500 
z
M 603 4863 
L 1178 4863 
L 1178 4134 
L 603 4134 
L 603 4863 
z
" transform="scale(0.015625)"/>
       <path id="DejaVuSans-6d" d="M 3328 2828 
Q 3544 3216 3844 3400 
Q 4144 3584 4550 3584 
Q 5097 3584 5394 3201 
Q 5691 2819 5691 2113 
L 5691 0 
L 5113 0 
L 5113 2094 
Q 5113 2597 4934 2840 
Q 4756 3084 4391 3084 
Q 3944 3084 3684 2787 
Q 3425 2491 3425 1978 
L 3425 0 
L 2847 0 
L 2847 2094 
Q 2847 2600 2669 2842 
Q 2491 3084 2119 3084 
Q 1678 3084 1418 2786 
Q 1159 2488 1159 1978 
L 1159 0 
L 581 0 
L 581 3500 
L 1159 3500 
L 1159 2956 
Q 1356 3278 1631 3431 
Q 1906 3584 2284 3584 
Q 2666 3584 2933 3390 
Q 3200 3197 3328 2828 
z
" transform="scale(0.015625)"/>
       <path id="DejaVuSans-65" d="M 3597 1894 
L 3597 1613 
L 953 1613 
Q 991 1019 1311 708 
Q 1631 397 2203 397 
Q 2534 397 2845 478 
Q 3156 559 3463 722 
L 3463 178 
Q 3153 47 2828 -22 
Q 2503 -91 2169 -91 
Q 1331 -91 842 396 
Q 353 884 353 1716 
Q 353 2575 817 3079 
Q 1281 3584 2069 3584 
Q 2775 3584 3186 3129 
Q 3597 2675 3597 1894 
z
M 3022 2063 
Q 3016 2534 2758 2815 
Q 2500 3097 2075 3097 
Q 1594 3097 1305 2825 
Q 1016 2553 972 2059 
L 3022 2063 
z
" transform="scale(0.015625)"/>
       <path id="DejaVuSans-20" transform="scale(0.015625)"/>
       <path id="DejaVuSans-5b" d="M 550 4863 
L 1875 4863 
L 1875 4416 
L 1125 4416 
L 1125 -397 
L 1875 -397 
L 1875 -844 
L 550 -844 
L 550 4863 
z
" transform="scale(0.015625)"/>
       <path id="DejaVuSans-73" d="M 2834 3397 
L 2834 2853 
Q 2591 2978 2328 3040 
Q 2066 3103 1784 3103 
Q 1356 3103 1142 2972 
Q 928 2841 928 2578 
Q 928 2378 1081 2264 
Q 1234 2150 1697 2047 
L 1894 2003 
Q 2506 1872 2764 1633 
Q 3022 1394 3022 966 
Q 3022 478 2636 193 
Q 2250 -91 1575 -91 
Q 1294 -91 989 -36 
Q 684 19 347 128 
L 347 722 
Q 666 556 975 473 
Q 1284 391 1588 391 
Q 1994 391 2212 530 
Q 2431 669 2431 922 
Q 2431 1156 2273 1281 
Q 2116 1406 1581 1522 
L 1381 1569 
Q 847 1681 609 1914 
Q 372 2147 372 2553 
Q 372 3047 722 3315 
Q 1072 3584 1716 3584 
Q 2034 3584 2315 3537 
Q 2597 3491 2834 3397 
z
" transform="scale(0.015625)"/>
       <path id="DejaVuSans-5d" d="M 1947 4863 
L 1947 -844 
L 622 -844 
L 622 -397 
L 1369 -397 
L 1369 4416 
L 622 4416 
L 622 4863 
L 1947 4863 
z
" transform="scale(0.015625)"/>
      </defs>
      <use xlink:href="#DejaVuSans-74"/>
      <use xlink:href="#DejaVuSans-69" x="39.208984"/>
      <use xlink:href="#DejaVuSans-6d" x="66.992188"/>
      <use xlink:href="#DejaVuSans-65" x="164.404297"/>
      <use xlink:href="#DejaVuSans-20" x="225.927734"/>
      <use xlink:href="#DejaVuSans-5b" x="257.714844"/>
      <use xlink:href="#DejaVuSans-73" x="296.728516"/>
      <use xlink:href="#DejaVuSans-5d" x="348.828125"/>
     </g>
    </g>
   </g>
   <g id="matplotlib.axis_2">
    <g id="ytick_1">
     <g id="line2d_9">
      <defs>
       <path id="m566998be1e" d="M 0 0 
L -3.5 0 
" style="stroke: #000000; stroke-width: 0.8"/>
      </defs>
      <g>
       <use xlink:href="#m566998be1e" x="57.6" y="280.890045" style="stroke: #000000; stroke-width: 0.8"/>
      </g>
     </g>
     <g id="text_10">
      <!-- 63.6 -->
      <g transform="translate(28.334375 284.689263) scale(0.1 -0.1)">
       <defs>
        <path id="DejaVuSans-2e" d="M 684 794 
L 1344 794 
L 1344 0 
L 684 0 
L 684 794 
z
" transform="scale(0.015625)"/>
       </defs>
       <use xlink:href="#DejaVuSans-36"/>
       <use xlink:href="#DejaVuSans-33" x="63.623047"/>
       <use xlink:href="#DejaVuSans-2e" x="127.246094"/>
       <use xlink:href="#DejaVuSans-36" x="159.033203"/>
      </g>
     </g>
    </g>
    <g id="ytick_2">
     <g id="line2d_10">
      <g>
       <use xlink:href="#m566998be1e" x="57.6" y="230.812093" style="stroke: #000000; stroke-width: 0.8"/>
      </g>
     </g>
     <g id="text_11">
      <!-- 63.8 -->
      <g transform="translate(28.334375 234.611312) scale(0.1 -0.1)">
       <use xlink:href="#DejaVuSans-36"/>
       <use xlink:href="#DejaVuSans-33" x="63.623047"/>
       <use xlink:href="#DejaVuSans-2e" x="127.246094"/>
       <use xlink:href="#DejaVuSans-38" x="159.033203"/>
      </g>
     </g>
    </g>
    <g id="ytick_3">
     <g id="line2d_11">
      <g>
       <use xlink:href="#m566998be1e" x="57.6" y="180.734142" style="stroke: #000000; stroke-width: 0.8"/>
      </g>
     </g>
     <g id="text_12">
      <!-- 64.0 -->
      <g transform="translate(28.334375 184.53336) scale(0.1 -0.1)">
       <use xlink:href="#DejaVuSans-36"/>
       <use xlink:href="#DejaVuSans-34" x="63.623047"/>
       <use xlink:href="#DejaVuSans-2e" x="127.246094"/>
       <use xlink:href="#DejaVuSans-30" x="159.033203"/>
      </g>
     </g>
    </g>
    <g id="ytick_4">
     <g id="line2d_12">
      <g>
       <use xlink:href="#m566998be1e" x="57.6" y="130.65619" style="stroke: #000000; stroke-width: 0.8"/>
      </g>
     </g>
     <g id="text_13">
      <!-- 64.2 -->
      <g transform="translate(28.334375 134.455409) scale(0.1 -0.1)">
       <use xlink:href="#DejaVuSans-36"/>
       <use xlink:href="#DejaVuSans-34" x="63.623047"/>
       <use xlink:href="#DejaVuSans-2e" x="127.246094"/>
       <use xlink:href="#DejaVuSans-32" x="159.033203"/>
      </g>
     </g>
    </g>
    <g id="ytick_5">
     <g id="line2d_13">
      <g>
       <use xlink:href="#m566998be1e" x="57.6" y="80.578239" style="stroke: #000000; stroke-width: 0.8"/>
      </g>
     </g>
     <g id="text_14">
      <!-- 64.4 -->
      <g transform="translate(28.334375 84.377457) scale(0.1 -0.1)">
       <use xlink:href="#DejaVuSans-36"/>
       <use xlink:href="#DejaVuSans-34" x="63.623047"/>
       <use xlink:href="#DejaVuSans-2e" x="127.246094"/>
       <use xlink:href="#DejaVuSans-34" x="159.033203"/>
      </g>
     </g>
    </g>
    <g id="text_15">
     <!-- $\theta$ [deg] -->
     <g transform="translate(22.234375 192.528) rotate(-90) scale(0.1 -0.1)">
      <defs>
       <path id="DejaVuSans-Oblique-3b8" d="M 2913 2219 
L 925 2219 
Q 791 1284 928 888 
Q 1100 400 1566 400 
Q 2034 400 2391 891 
Q 2703 1322 2913 2219 
z
M 3009 2750 
Q 3094 3638 2984 3950 
Q 2813 4444 2353 4444 
Q 1875 4444 1525 3956 
Q 1250 3563 1034 2750 
L 3009 2750 
z
M 2444 4913 
Q 3194 4913 3494 4250 
Q 3794 3591 3566 2422 
Q 3341 1256 2781 594 
Q 2225 -72 1475 -72 
Q 722 -72 425 594 
Q 128 1256 353 2422 
Q 581 3591 1134 4250 
Q 1691 4913 2444 4913 
z
" transform="scale(0.015625)"/>
       <path id="DejaVuSans-64" d="M 2906 2969 
L 2906 4863 
L 3481 4863 
L 3481 0 
L 2906 0 
L 2906 525 
Q 2725 213 2448 61 
Q 2172 -91 1784 -91 
Q 1150 -91 751 415 
Q 353 922 353 1747 
Q 353 2572 751 3078 
Q 1150 3584 1784 3584 
Q 2172 3584 2448 3432 
Q 2725 3281 2906 2969 
z
M 947 1747 
Q 947 1113 1208 752 
Q 1469 391 1925 391 
Q 2381 391 2643 752 
Q 2906 1113 2906 1747 
Q 2906 2381 2643 2742 
Q 2381 3103 1925 3103 
Q 1469 3103 1208 2742 
Q 947 2381 947 1747 
z
" transform="scale(0.015625)"/>
       <path id="DejaVuSans-67" d="M 2906 1791 
Q 2906 2416 2648 2759 
Q 2391 3103 1925 3103 
Q 1463 3103 1205 2759 
Q 947 2416 947 1791 
Q 947 1169 1205 825 
Q 1463 481 1925 481 
Q 2391 481 2648 825 
Q 2906 1169 2906 1791 
z
M 3481 434 
Q 3481 -459 3084 -895 
Q 2688 -1331 1869 -1331 
Q 1566 -1331 1297 -1286 
Q 1028 -1241 775 -1147 
L 775 -588 
Q 1028 -725 1275 -790 
Q 1522 -856 1778 -856 
Q 2344 -856 2625 -561 
Q 2906 -266 2906 331 
L 2906 616 
Q 2728 306 2450 153 
Q 2172 0 1784 0 
Q 1141 0 747 490 
Q 353 981 353 1791 
Q 353 2603 747 3093 
Q 1141 3584 1784 3584 
Q 2172 3584 2450 3431 
Q 2728 3278 2906 2969 
L 2906 3500 
L 3481 3500 
L 3481 434 
z
" transform="scale(0.015625)"/>
      </defs>
      <use xlink:href="#DejaVuSans-Oblique-3b8" transform="translate(0 0.234375)"/>
      <use xlink:href="#DejaVuSans-20" transform="translate(61.181641 0.234375)"/>
      <use xlink:href="#DejaVuSans-5b" transform="translate(92.96875 0.234375)"/>
      <use xlink:href="#DejaVuSans-64" transform="translate(131.982422 0.234375)"/>
      <use xlink:href="#DejaVuSans-65" transform="translate(195.458984 0.234375)"/>
      <use xlink:href="#DejaVuSans-67" transform="translate(256.982422 0.234375)"/>
      <use xlink:href="#DejaVuSans-5d" transform="translate(320.458984 0.234375)"/>
     </g>
    </g>
   </g>
   <g id="line2d_14">
    <path d="M 73.832727 80.901679 
L 74.050461 72.9941 
L 74.268217 135.791168 
L 74.485951 141.012385 
L 74.703707 128.480023 
L 74.921441 98.80005 
L 75.139175 118.934966 
L 75.356931 101.246337 
L 75.574665 124.150139 
L 75.79242 97.387738 
L 76.010154 107.054946 
L 76.22791 134.104699 
L 76.445644 121.491052 
L 76.881134 162.09428 
L 77.098868 136.024048 
L 77.316624 162.061166 
L 77.534375 163.247898 
L 77.752109 118.830098 
L 77.969865 119.683222 
L 78.187599 112.189358 
L 78.623089 119.708057 
L 78.840844 129.269652 
L 79.276312 171.246738 
L 79.494068 120.875018 
L 79.711802 176.431056 
L 79.929558 158.564483 
L 80.147292 173.310076 
L 80.365048 168.704327 
L 80.582782 145.496254 
L 80.800516 142.727456 
L 81.018271 146.013651 
L 81.236006 168.322907 
L 81.671495 127.072418 
L 82.106985 172.65181 
L 82.324719 149.571364 
L 82.542475 150.682289 
L 82.760209 195.638422 
L 82.977965 199.40048 
L 83.195699 198.071625 
L 83.413433 188.884412 
L 83.848923 123.594467 
L 84.066678 187.237765 
L 84.284412 160.259059 
L 84.502146 154.913006 
L 84.719902 128.129336 
L 84.937636 142.795456 
L 85.155392 105.797054 
L 85.373126 101.334729 
L 85.590882 104.733779 
L 85.808616 126.727397 
L 86.02635 122.099968 
L 86.244105 127.909217 
L 86.461839 115.509471 
L 86.679595 122.356135 
L 86.897329 107.791071 
L 87.115063 122.235349 
L 87.332819 81.647832 
L 87.550553 118.563393 
L 87.986043 137.863335 
L 88.203799 136.589085 
L 88.421533 129.206198 
L 88.639267 98.816274 
L 88.857022 93.358141 
L 89.292512 132.859081 
L 89.510246 117.832004 
L 89.728002 120.710116 
L 89.945736 92.443118 
L 90.381226 145.080292 
L 90.59896 152.130361 
L 90.816716 149.514677 
L 91.03445 158.069378 
L 91.469939 135.980119 
L 91.687673 132.078362 
L 91.905429 130.711184 
L 92.123163 121.313307 
L 92.558653 125.640824 
L 92.994143 156.190175 
L 93.211877 124.333636 
L 93.429633 141.065502 
L 93.647367 112.950749 
L 93.865122 115.431734 
L 94.082856 86.656159 
L 94.30059 129.939606 
L 94.518346 131.436522 
L 94.73608 123.887817 
L 94.953836 110.7236 
L 95.17157 107.275161 
L 95.389304 98.911262 
L 95.60706 133.076894 
L 95.824794 128.330774 
L 96.04255 146.791663 
L 96.260284 118.385043 
L 96.478039 131.672052 
L 96.695773 105.476338 
L 96.913507 123.692305 
L 97.131263 119.995465 
L 97.566753 125.21572 
L 97.784487 125.21572 
L 98.002221 122.687297 
L 98.219977 158.597833 
L 98.437711 162.353278 
L 98.655466 152.237038 
L 98.873201 150.039525 
L 99.090956 155.650934 
L 99.308671 129.038691 
L 99.526406 140.04875 
L 99.744161 143.367444 
L 99.961895 109.157231 
L 100.179651 103.795153 
L 100.397385 106.28141 
L 100.615141 178.845514 
L 100.832875 157.223067 
L 101.050609 162.220845 
L 101.268365 146.852381 
L 101.486099 168.913938 
L 101.703854 143.743942 
L 101.921588 139.831695 
L 102.139323 121.331117 
L 102.574812 150.235786 
L 102.792568 132.281158 
L 103.010302 146.999618 
L 103.228058 188.449383 
L 103.445792 157.34585 
L 103.663526 172.266403 
L 103.881282 124.303096 
L 104.099016 129.800516 
L 104.316771 138.452113 
L 104.534505 134.491008 
L 104.969995 99.849288 
L 105.405485 134.281878 
L 105.623219 149.530817 
L 105.840975 130.013614 
L 106.058709 121.922129 
L 106.276443 104.065858 
L 106.494199 106.65615 
L 106.711933 114.800889 
L 106.929688 142.362605 
L 107.147422 138.376502 
L 107.365178 129.285276 
L 107.582912 110.638878 
L 107.800646 139.468683 
L 108.018402 119.090806 
L 108.236136 145.007957 
L 108.671626 128.646362 
L 108.88936 96.927275 
L 109.107116 168.525185 
L 109.542605 114.970463 
L 109.760339 158.159644 
L 109.978095 127.804184 
L 110.195829 133.66834 
L 110.631319 81.841814 
L 110.849053 137.128295 
L 111.066809 133.766504 
L 111.284543 142.244599 
L 111.502298 157.988677 
L 111.720033 139.561983 
L 111.937767 142.667196 
L 112.155522 125.476381 
L 112.373256 144.199727 
L 112.591012 150.848343 
L 112.808746 143.6415 
L 113.02648 142.551478 
L 113.244236 151.684795 
L 113.46197 150.16952 
L 113.679726 84.382453 
L 113.89746 118.444468 
L 114.115215 130.521093 
L 114.33295 93.758158 
L 114.768439 132.728099 
L 114.986173 103.491076 
L 115.203929 133.354962 
L 115.421663 135.748129 
L 115.857153 88.893627 
L 116.074887 100.465379 
L 116.292643 88.016924 
L 116.510377 121.472463 
L 116.728132 128.418501 
L 116.945866 110.316643 
L 117.163601 101.829427 
L 117.381356 59.057623 
L 117.59909 53.568 
L 117.816846 100.850173 
L 118.03458 65.709117 
L 118.252314 60.42724 
L 118.47007 78.95904 
L 118.687804 110.282917 
L 118.90556 92.870399 
L 119.123294 109.497796 
L 119.341049 141.654337 
L 119.558783 146.839746 
L 119.776518 175.732244 
L 119.994273 167.530824 
L 120.212007 192.163892 
L 120.429763 194.629672 
L 120.647497 210.445619 
L 120.865225 181.028878 
L 121.082981 197.435868 
L 121.300715 165.278132 
L 121.51847 190.995511 
L 121.736204 161.550754 
L 121.95396 162.403768 
L 122.171694 184.243035 
L 122.389428 163.981568 
L 122.824918 187.016256 
L 123.260408 179.367097 
L 123.478142 179.367097 
L 123.695898 167.687059 
L 124.131387 131.334876 
L 124.349121 114.148223 
L 124.566877 135.842136 
L 124.784611 186.690962 
L 125.002345 122.778021 
L 125.220101 164.258371 
L 125.437835 139.11494 
L 125.655591 130.678108 
L 125.873325 145.551619 
L 126.09108 170.42159 
L 126.308815 164.40004 
L 126.526549 179.114161 
L 126.744304 149.204676 
L 126.962038 168.41654 
L 127.179794 171.883634 
L 127.615262 128.609453 
L 127.833018 116.986938 
L 128.268508 128.475934 
L 128.486242 130.240607 
L 128.703997 192.157553 
L 128.921731 184.090155 
L 129.139466 188.131363 
L 129.357221 157.257808 
L 129.574955 175.017007 
L 129.792711 131.278388 
L 130.010445 117.318418 
L 130.228179 134.29982 
L 130.445935 115.993689 
L 130.663669 121.218643 
L 130.881425 161.902138 
L 131.316914 94.05865 
L 131.534648 82.93802 
L 131.752383 124.582876 
L 131.970138 108.018818 
L 132.187872 127.43389 
L 132.405628 162.362846 
L 132.623362 155.712766 
L 132.841096 161.663916 
L 133.058852 163.263792 
L 133.494342 161.97991 
L 133.712076 122.145458 
L 133.929831 172.260652 
L 134.147565 164.782173 
L 134.3653 161.491872 
L 134.583055 181.620104 
L 134.800789 180.959297 
L 135.018545 157.158112 
L 135.236279 172.342698 
L 135.454013 116.390846 
L 135.671769 141.624946 
L 135.889503 139.934926 
L 136.107259 134.462966 
L 136.324993 123.370265 
L 136.542748 163.010666 
L 136.760482 167.265079 
L 136.978216 190.881466 
L 137.195972 158.650318 
L 137.413706 197.925126 
L 137.631462 214.871801 
L 137.849196 175.854468 
L 138.06693 182.579695 
L 138.284686 200.410824 
L 138.50242 196.60284 
L 138.93791 132.032213 
L 139.155665 125.381752 
L 139.373399 138.332674 
L 139.591133 161.870245 
L 139.808889 163.359551 
L 140.026623 154.369301 
L 140.244379 174.22656 
L 140.462113 157.741435 
L 140.679847 152.47918 
L 140.897603 153.362096 
L 141.115337 149.711961 
L 141.333093 132.488076 
L 141.550827 137.967507 
L 141.768582 150.677294 
L 141.986316 139.992202 
L 142.20405 164.549129 
L 142.421806 127.009645 
L 142.639564 136.756318 
L 142.85732 134.538628 
L 143.075054 90.956821 
L 143.29281 95.725172 
L 143.510544 130.115233 
L 143.728278 120.678265 
L 143.946034 77.127015 
L 144.163768 82.753783 
L 144.381524 122.569729 
L 144.599258 121.220308 
L 144.816992 93.165684 
L 145.252481 171.329582 
L 145.687971 120.175807 
L 145.905705 157.059892 
L 146.123461 156.233472 
L 146.341195 153.544626 
L 146.776685 142.297367 
L 146.994441 171.900902 
L 147.212175 140.846845 
L 147.429909 182.704752 
L 147.647664 165.025956 
L 147.865398 134.565396 
L 148.083154 142.876059 
L 148.518622 183.08136 
L 148.736378 139.566359 
L 148.954112 188.932851 
L 149.171868 188.932851 
L 149.389602 176.818612 
L 149.607358 176.826528 
L 149.825092 141.964267 
L 150.042826 171.828052 
L 150.260581 170.454002 
L 150.478315 157.0394 
L 150.696071 163.673446 
L 150.913805 159.364878 
L 151.131539 128.643395 
L 151.349295 180.435918 
L 151.567029 133.170511 
L 151.784785 144.554609 
L 152.002519 177.711215 
L 152.220274 172.147141 
L 152.655743 179.323767 
L 152.873498 177.443037 
L 153.091232 190.402327 
L 153.308988 192.304406 
L 153.526722 183.543069 
L 153.962212 217.266119 
L 154.179946 200.64851 
L 154.397702 155.844122 
L 154.615436 151.017687 
L 154.83317 180.678287 
L 155.050926 191.011155 
L 155.26866 190.373732 
L 155.486415 214.090083 
L 155.704149 206.759414 
L 155.921905 176.048755 
L 156.139639 185.585234 
L 156.357373 166.131853 
L 156.575129 168.716396 
L 156.792863 182.000322 
L 157.010619 163.473771 
L 157.228353 181.36866 
L 157.446108 165.747053 
L 157.663842 139.774306 
L 157.881577 130.088233 
L 158.099332 156.531696 
L 158.317066 152.678314 
L 158.534822 127.986781 
L 158.752556 137.55941 
L 158.97029 170.169342 
L 159.188046 157.797599 
L 159.40578 191.420212 
L 159.623536 190.109637 
L 159.84127 191.533387 
L 160.059004 207.319894 
L 160.276759 189.993217 
L 160.494494 190.473901 
L 160.929983 215.281053 
L 161.147739 209.552944 
L 161.365473 177.518675 
L 161.583207 197.35552 
L 161.800963 165.922787 
L 162.018697 165.169061 
L 162.236453 155.926673 
L 162.454187 151.886544 
L 162.671921 166.802 
L 162.889676 165.404002 
L 163.107411 152.831033 
L 163.325166 177.070074 
L 163.5429 150.762101 
L 163.760656 208.654465 
L 163.97839 186.699343 
L 164.196114 183.693955 
L 164.631604 181.248859 
L 165.067094 141.946698 
L 165.284828 171.821611 
L 165.502583 185.173797 
L 165.720318 149.592782 
L 165.938073 141.922454 
L 166.155807 165.5142 
L 166.591297 136.88867 
L 166.809031 172.029423 
L 167.026787 163.348213 
L 167.244521 189.27797 
L 167.462277 162.37742 
L 167.680011 151.665723 
L 167.897745 124.574081 
L 168.1155 135.798972 
L 168.333235 136.961993 
L 168.55099 127.716093 
L 168.768724 156.03975 
L 168.986458 106.825154 
L 169.204214 102.830638 
L 169.421948 151.762313 
L 169.639704 128.093131 
L 169.857438 155.718964 
L 170.075194 199.393526 
L 170.292928 169.631924 
L 170.510662 195.124654 
L 170.728417 148.207732 
L 170.946151 145.684625 
L 171.163907 191.814938 
L 171.381641 144.882989 
L 171.817131 182.564936 
L 172.034865 166.313376 
L 172.252621 185.780321 
L 172.470355 119.090907 
L 172.688111 128.706341 
L 172.905845 107.537105 
L 173.123579 128.464957 
L 173.341334 119.471468 
L 173.559068 152.831622 
L 173.776824 151.936993 
L 173.994558 118.984796 
L 174.212292 127.278183 
L 174.430048 152.572492 
L 174.647782 127.610092 
L 174.865538 127.610092 
L 175.083272 123.601805 
L 175.301006 99.863653 
L 175.518762 141.9292 
L 175.736496 153.630551 
L 175.954251 180.057232 
L 176.171985 174.439782 
L 176.389741 174.684226 
L 176.607475 156.369565 
L 176.825209 110.7807 
L 177.478455 173.233106 
L 177.696189 175.839475 
L 177.913923 153.704772 
L 178.131679 149.33771 
L 178.349413 102.166428 
L 178.567168 107.562719 
L 179.002658 147.0914 
L 179.438126 189.005543 
L 179.655882 170.100641 
L 179.873616 194.847423 
L 180.091372 134.744754 
L 180.309106 146.946984 
L 180.52684 112.149982 
L 180.744596 126.128828 
L 180.96233 130.775167 
L 181.180085 151.099038 
L 181.397819 129.991673 
L 181.615553 183.510501 
L 182.051043 148.368814 
L 182.268799 171.387836 
L 182.704289 109.652573 
L 182.922023 115.19433 
L 183.139757 132.952426 
L 183.357513 130.876944 
L 183.575247 120.907944 
L 183.793002 157.157736 
L 184.010736 156.31143 
L 184.22847 148.765614 
L 184.446226 154.905746 
L 184.66396 191.86347 
L 185.09945 119.204232 
L 185.317184 194.26417 
L 185.53494 129.740436 
L 185.752674 154.048743 
L 185.970429 117.239897 
L 186.623652 172.252144 
L 186.841387 159.20636 
L 187.059142 153.486263 
L 187.276876 152.808695 
L 187.494632 124.617632 
L 187.712366 158.665039 
L 187.9301 154.402717 
L 188.36559 131.484359 
L 188.80108 178.754838 
L 189.018814 166.89322 
L 189.236569 196.08184 
L 189.454304 177.168014 
L 189.672059 170.286366 
L 189.889793 172.392365 
L 190.325283 137.525413 
L 190.760773 129.358299 
L 190.978507 152.636595 
L 191.413997 129.731778 
L 191.631731 141.582995 
L 191.849486 179.698519 
L 192.284976 147.745389 
L 192.720466 204.751626 
L 192.9382 216.959433 
L 193.155934 197.140115 
L 193.37369 155.371517 
L 193.591424 179.375519 
L 193.80918 182.623862 
L 194.026914 162.206046 
L 194.244648 183.230443 
L 194.462403 160.411115 
L 194.680137 123.289364 
L 194.897893 136.882448 
L 195.115627 170.427946 
L 195.333361 141.215593 
L 195.551117 140.040748 
L 195.768851 155.505543 
L 195.986607 128.159045 
L 196.422097 186.717667 
L 196.639831 174.92116 
L 196.857565 192.442735 
L 197.07532 199.678321 
L 197.293054 196.393572 
L 197.51081 186.132903 
L 197.728544 185.390519 
L 197.946278 193.487429 
L 198.381768 163.225728 
L 198.599524 163.622758 
L 198.817258 194.831331 
L 199.034992 242.911315 
L 199.252748 237.54469 
L 199.470482 191.62732 
L 199.688237 191.697603 
L 199.905971 160.702111 
L 200.123705 170.165862 
L 200.341461 191.319695 
L 200.559195 191.319695 
L 200.776951 161.548715 
L 200.994685 177.555811 
L 201.212441 212.012365 
L 201.430175 186.535187 
L 201.647909 187.739373 
L 201.865665 166.822604 
L 202.083399 178.822047 
L 202.301154 179.491063 
L 202.518888 189.033233 
L 202.954378 180.402944 
L 203.172112 161.309316 
L 203.389868 168.197194 
L 203.607602 194.069867 
L 203.825336 200.328578 
L 204.043092 199.347452 
L 204.260826 189.895233 
L 204.478582 185.909813 
L 204.696316 171.106608 
L 204.914071 164.444657 
L 205.131805 210.895234 
L 205.567295 229.608052 
L 206.002785 206.719304 
L 206.220519 238.988275 
L 206.438253 189.621235 
L 206.656009 208.132902 
L 206.873743 193.738632 
L 207.309233 253.366335 
L 207.744725 231.799831 
L 207.962459 209.103118 
L 208.180215 209.596872 
L 208.397949 217.52272 
L 208.615705 179.271934 
L 208.833439 203.017484 
L 209.051173 182.511816 
L 209.268929 212.871613 
L 209.486663 209.792879 
L 209.704418 190.240083 
L 209.922152 193.318295 
L 210.139886 193.774454 
L 210.357642 209.090207 
L 210.575376 212.445853 
L 210.793132 241.160358 
L 211.2286 172.010311 
L 211.446356 219.398163 
L 211.66409 234.486113 
L 211.881846 178.43897 
L 212.09958 189.657244 
L 212.535069 143.898292 
L 212.752803 181.649238 
L 212.970559 141.419895 
L 213.188293 168.295291 
L 213.406049 139.41037 
L 213.623783 158.650956 
L 213.841517 151.70745 
L 214.494762 210.091832 
L 214.712497 209.315842 
L 214.930231 140.897445 
L 215.147986 144.88295 
L 215.36572 152.840163 
L 215.583476 150.102233 
L 215.80121 121.583917 
L 216.018944 169.286933 
L 216.454434 106.150156 
L 216.67219 173.361139 
L 216.889924 139.648245 
L 217.107658 177.274551 
L 217.543148 161.958983 
L 217.760903 183.829923 
L 217.978637 156.882389 
L 218.196393 151.173734 
L 218.414127 158.967912 
L 218.849617 191.560881 
L 219.067351 194.505851 
L 219.285107 210.487351 
L 219.502841 216.439375 
L 220.37382 166.360991 
L 220.591554 170.881612 
L 220.809288 157.995616 
L 221.244778 164.572831 
L 221.462534 157.938929 
L 221.680268 136.361124 
L 221.898024 144.415328 
L 222.115758 167.740506 
L 222.333492 151.475169 
L 222.551247 148.877222 
L 222.768982 178.035263 
L 222.986737 165.868675 
L 223.204471 165.457041 
L 223.422205 144.771535 
L 223.639961 183.175958 
L 223.857695 178.991207 
L 224.075451 184.238316 
L 224.293185 167.878935 
L 224.510919 167.304084 
L 224.728675 163.238247 
L 224.946409 171.929383 
L 225.164164 150.556008 
L 225.381899 149.210893 
L 225.599633 188.562728 
L 225.817388 180.142243 
L 226.035122 180.142243 
L 226.252878 176.48739 
L 226.688346 229.405732 
L 226.906102 195.682069 
L 227.123836 219.134423 
L 227.341592 199.051916 
L 227.559326 192.822439 
L 227.777081 176.579039 
L 227.994815 218.339723 
L 228.430305 195.597332 
L 228.648039 176.325994 
L 228.865795 207.1304 
L 229.51902 160.756521 
L 229.736754 182.670481 
L 229.95451 140.856377 
L 230.172244 199.043156 
L 230.389978 174.77421 
L 230.607733 212.136649 
L 230.825467 170.00701 
L 231.043223 183.773358 
L 231.260957 178.750992 
L 231.478691 166.327201 
L 231.696447 146.91413 
L 231.914181 183.90356 
L 232.131937 191.072079 
L 232.349671 137.70806 
L 232.567405 129.410912 
L 232.785161 175.710265 
L 233.002895 183.734971 
L 233.22065 139.993077 
L 233.438384 141.008416 
L 233.65614 129.498946 
L 233.873874 139.910054 
L 234.091608 191.047993 
L 234.527098 167.974537 
L 234.744854 161.764211 
L 234.962588 132.404411 
L 235.398078 182.388263 
L 235.833567 191.820618 
L 236.051301 181.275511 
L 236.269035 190.408367 
L 236.486791 167.217056 
L 236.704525 168.242443 
L 236.922281 197.530339 
L 237.140015 179.187104 
L 237.357749 191.292722 
L 237.575505 175.584814 
L 237.793239 190.847245 
L 238.010994 191.881057 
L 238.228729 186.932443 
L 238.446463 166.711257 
L 238.664218 171.18429 
L 238.881952 205.623781 
L 239.317442 174.073706 
L 239.535198 200.803499 
L 239.752932 178.286144 
L 239.970666 176.431371 
L 240.188422 187.070854 
L 240.406156 182.12054 
L 240.623911 190.934422 
L 240.841646 216.685849 
L 241.05938 176.423661 
L 241.277135 179.067371 
L 241.494869 218.347596 
L 241.712625 182.056473 
L 241.930359 175.65025 
L 242.148093 126.856771 
L 242.365849 128.538103 
L 242.801339 217.770051 
L 243.019073 205.972284 
L 243.236807 154.477256 
L 243.454563 189.406907 
L 243.672297 182.38976 
L 243.890052 186.346656 
L 244.107786 173.020593 
L 244.32552 202.630624 
L 244.543276 216.821411 
L 244.76101 169.078541 
L 245.1965 191.487611 
L 245.414234 186.588047 
L 245.63199 185.568009 
L 246.067479 200.375368 
L 246.285214 205.023537 
L 246.502969 213.304199 
L 246.720703 177.752417 
L 246.938437 184.450284 
L 247.156193 148.631753 
L 247.591683 177.150984 
L 247.809417 153.745094 
L 248.027151 208.225531 
L 248.244907 151.152173 
L 248.462641 183.948533 
L 248.680396 166.778294 
L 248.898131 138.141277 
L 249.115865 161.019388 
L 249.551354 149.348489 
L 249.76911 151.873965 
L 249.986844 197.462081 
L 250.204578 211.1137 
L 250.422334 210.907671 
L 250.640068 189.637583 
L 250.857824 203.758268 
L 251.075557 179.509276 
L 251.511047 191.230046 
L 251.728781 191.230046 
L 252.16427 233.817525 
L 252.382005 166.568222 
L 252.59976 167.60141 
L 252.817494 171.479243 
L 253.03525 171.83069 
L 253.252984 164.786667 
L 253.470718 186.859143 
L 253.688474 191.364318 
L 253.906208 226.841751 
L 254.123964 186.545654 
L 254.341698 188.542006 
L 254.559432 215.404291 
L 254.777187 209.263678 
L 255.212677 181.738456 
L 255.430411 221.542147 
L 255.865901 178.936514 
L 256.519125 220.2563 
L 256.736881 208.058883 
L 256.954615 232.909784 
L 257.172349 203.261782 
L 257.390104 195.526883 
L 257.607838 195.134992 
L 258.043328 163.262448 
L 258.261062 203.844044 
L 258.478818 176.393208 
L 258.696552 173.215521 
L 258.914308 179.842767 
L 259.132042 191.704783 
L 259.349776 180.068168 
L 259.567532 198.856064 
L 260.003021 160.267353 
L 260.220755 170.566048 
L 260.43849 166.330345 
L 260.873979 155.414992 
L 261.091735 173.148412 
L 261.527203 144.130381 
L 261.744959 148.125424 
L 261.962693 124.57845 
L 262.180449 134.277889 
L 262.398183 154.481066 
L 262.833672 139.070887 
L 263.051406 176.222518 
L 263.269162 186.610091 
L 263.486896 209.139203 
L 263.70463 193.435273 
L 263.922386 185.791934 
L 264.14012 164.150878 
L 264.357876 166.478027 
L 264.57561 172.552624 
L 264.793344 184.924609 
L 265.0111 187.561892 
L 265.228834 150.702192 
L 265.446589 173.064886 
L 265.882079 164.999297 
L 266.099813 179.25451 
L 266.535303 138.323088 
L 266.753037 161.93377 
L 266.970793 149.506745 
L 267.188527 198.083575 
L 267.406261 207.594422 
L 267.624017 198.216229 
L 267.841751 223.01531 
L 268.059506 190.556205 
L 268.27724 179.055318 
L 268.494974 194.950511 
L 268.71273 172.798186 
L 268.930464 169.139952 
L 269.14822 200.835043 
L 269.365954 187.613845 
L 269.801444 152.269173 
L 270.019178 193.847624 
L 270.454668 160.069467 
L 270.672402 148.53194 
L 270.890157 169.388774 
L 271.107891 210.675972 
L 271.325647 210.229927 
L 271.543381 188.157195 
L 271.761115 187.156286 
L 271.978871 188.978009 
L 272.196605 227.944559 
L 272.414361 202.671522 
L 272.632092 206.917582 
L 272.849826 207.635492 
L 273.067582 194.974951 
L 273.285316 223.218201 
L 273.503072 199.635949 
L 273.720806 246.814611 
L 274.156295 181.658154 
L 274.374029 169.337182 
L 274.591785 193.621853 
L 274.809519 190.645826 
L 275.027253 201.630457 
L 275.245009 168.631909 
L 275.462743 203.681755 
L 275.680499 206.139748 
L 275.898233 183.604182 
L 276.115967 192.199195 
L 276.333723 164.552429 
L 276.551457 216.462955 
L 276.769212 199.81779 
L 276.986946 199.81779 
L 277.204681 260.506885 
L 277.422436 260.506885 
L 277.857926 176.675334 
L 278.293394 246.405866 
L 278.94664 182.810197 
L 279.164374 170.702601 
L 279.382108 172.095875 
L 279.599863 202.266753 
L 279.817597 175.576284 
L 280.035353 219.498878 
L 280.253087 204.891186 
L 280.470821 210.252905 
L 280.688577 235.345767 
L 280.906311 203.560345 
L 281.124067 222.373582 
L 281.341801 183.104709 
L 281.559535 174.102932 
L 281.777291 203.457713 
L 281.995025 186.821208 
L 282.21278 222.234537 
L 282.430514 194.930758 
L 282.648249 213.933121 
L 282.866004 186.343463 
L 283.301494 223.654471 
L 283.519228 217.166962 
L 283.736962 183.107853 
L 283.954718 168.661584 
L 284.172452 177.097211 
L 284.390208 180.174063 
L 284.607942 221.520957 
L 284.825676 188.450091 
L 285.043431 224.548476 
L 285.261165 190.094841 
L 285.478921 228.680623 
L 285.696655 188.194281 
L 285.914389 191.675998 
L 286.132145 174.450628 
L 286.349879 211.147924 
L 286.567635 184.595874 
L 286.785369 195.689279 
L 287.220859 190.244232 
L 287.438593 207.464638 
L 287.656348 211.653824 
L 287.874082 198.505568 
L 288.091817 224.606211 
L 288.309572 222.718385 
L 288.527306 204.796358 
L 288.745062 202.922032 
L 288.962796 213.770702 
L 289.18053 178.869037 
L 289.398286 171.073985 
L 289.833776 192.812973 
L 290.05151 177.156079 
L 290.269244 198.988395 
L 290.486999 203.104188 
L 290.704734 172.434573 
L 290.922489 175.384643 
L 291.140223 238.438945 
L 291.357957 213.958826 
L 291.575713 216.295006 
L 292.228937 238.296317 
L 292.664427 222.950201 
L 292.882161 240.275923 
L 293.099916 225.314098 
L 293.31765 250.030196 
L 293.535385 201.682747 
L 293.75314 192.699898 
L 293.970874 203.775871 
L 294.18863 208.841506 
L 294.406364 205.464275 
L 294.624098 221.681637 
L 294.841854 186.850604 
L 295.059588 193.781889 
L 295.277344 218.802157 
L 295.495078 204.490023 
L 295.712812 216.153121 
L 295.930567 240.466015 
L 296.148302 238.80058 
L 296.366057 212.453686 
L 296.583791 232.36336 
L 296.801525 232.013754 
L 297.019281 206.038334 
L 297.237015 207.172501 
L 297.454771 221.058085 
L 297.890239 187.124887 
L 298.107995 212.09909 
L 298.325729 195.292131 
L 298.543484 222.337838 
L 298.761218 206.820535 
L 298.978953 230.99524 
L 299.414442 180.931753 
L 299.632198 214.769224 
L 299.849932 226.782897 
L 300.067666 196.987403 
L 300.285422 234.004893 
L 300.503156 204.222111 
L 300.938646 242.353054 
L 301.15638 202.441845 
L 301.374135 212.326415 
L 301.59187 195.126572 
L 301.809625 224.199492 
L 302.245093 204.978357 
L 302.462849 204.642441 
L 302.680583 218.229872 
L 302.898339 218.229872 
L 303.116073 222.383193 
L 303.333807 195.623793 
L 303.551563 182.835616 
L 303.769297 193.782627 
L 303.987052 186.213316 
L 304.204787 207.569687 
L 304.422521 206.561929 
L 304.85801 215.245256 
L 305.075766 233.706008 
L 305.511234 207.613578 
L 305.72899 215.858945 
L 305.946724 235.604893 
L 306.16448 223.010713 
L 306.382214 227.769186 
L 306.599948 205.905719 
L 306.817703 221.750624 
L 307.035438 227.782324 
L 307.470927 205.286549 
L 307.688661 230.134458 
L 307.906417 222.840197 
L 308.341885 248.643746 
L 308.559641 243.032524 
L 308.777375 246.82931 
L 309.212865 196.635157 
L 309.43062 200.812029 
L 309.648355 239.561445 
L 309.866089 215.730681 
L 310.083844 248.009989 
L 310.301578 251.342442 
L 310.519312 209.161426 
L 310.737068 226.108196 
L 310.954802 226.002294 
L 311.172558 220.462643 
L 311.390292 205.249893 
L 311.608026 237.366125 
L 311.825782 239.890958 
L 312.043516 200.22364 
L 312.479006 247.627819 
L 312.69674 271.452028 
L 313.349985 247.321192 
L 313.567719 261.383523 
L 313.785453 259.606166 
L 314.003209 282.222324 
L 314.220943 287.063017 
L 314.438699 287.786678 
L 314.874167 260.35126 
L 315.091923 259.043067 
L 315.309657 281.341104 
L 315.527412 271.275892 
L 315.745146 238.298694 
L 315.962884 236.973492 
L 316.18064 229.078817 
L 316.398374 261.541918 
L 316.61613 254.43848 
L 316.833864 258.343301 
L 317.051598 241.814219 
L 317.269353 203.777096 
L 317.922577 248.463436 
L 318.140311 229.350354 
L 318.358067 227.182088 
L 318.575801 220.652244 
L 318.793535 251.141276 
L 319.229025 229.048591 
L 319.446781 220.571696 
L 319.664515 237.714267 
L 319.882249 196.004883 
L 320.100004 220.607276 
L 320.317739 223.170187 
L 320.535494 241.794837 
L 320.753228 203.61748 
L 320.970962 232.644821 
L 321.188718 215.608142 
L 321.624208 269.549892 
L 321.841942 265.213486 
L 322.059676 264.081053 
L 322.277432 295.488 
L 322.495166 262.497915 
L 323.14839 233.801523 
L 323.366145 206.343822 
L 323.801635 201.860854 
L 324.019369 253.11141 
L 324.237103 225.211537 
L 324.890349 248.938054 
L 325.108083 248.332804 
L 325.325817 228.746264 
L 325.543572 236.175252 
L 325.979041 196.691626 
L 326.196796 241.355423 
L 326.41453 208.676519 
L 326.632286 238.301576 
L 326.85002 224.092629 
L 327.067754 239.143444 
L 327.28551 230.192083 
L 327.503244 247.798842 
L 327.721 251.3416 
L 327.938734 240.219119 
L 328.156468 281.100688 
L 328.374223 281.100688 
L 328.591958 261.340045 
L 328.809713 205.129543 
L 329.027447 245.363763 
L 329.245181 192.503584 
L 329.462937 238.168042 
L 329.680671 227.404021 
L 329.898427 251.549008 
L 330.333895 266.01512 
L 330.551651 237.035972 
L 330.769385 245.14026 
L 330.987119 245.023514 
L 331.204875 239.56034 
L 331.422609 249.278724 
L 331.640364 246.436607 
L 331.858098 214.935167 
L 332.075854 230.483397 
L 332.511322 195.084596 
L 332.729078 192.856472 
L 332.946812 212.531029 
L 333.164546 210.739716 
L 333.382302 212.113543 
L 333.600036 202.897659 
L 333.817792 219.378156 
L 334.25326 203.463163 
L 334.471015 221.903177 
L 334.688749 199.546816 
L 334.906505 210.477646 
L 335.124239 200.800295 
L 335.559729 167.074427 
L 335.777463 171.84777 
L 336.212953 203.213871 
L 336.648443 175.582724 
L 336.866177 164.737973 
L 337.083911 160.319647 
L 337.301666 185.238135 
L 337.5194 184.355895 
L 337.737166 185.922066 
L 337.9549 183.974708 
L 338.172634 160.706924 
L 338.39039 170.079566 
L 338.608124 170.371456 
L 338.82588 178.920959 
L 339.043614 171.409183 
L 339.479104 130.549282 
L 339.914593 180.404422 
L 340.132327 182.050978 
L 340.350061 185.680178 
L 340.567817 183.984436 
L 340.785551 169.845072 
L 341.003307 191.535445 
L 341.438775 133.235502 
L 341.874265 156.217855 
L 342.091999 154.789505 
L 342.309755 179.00519 
L 342.527489 167.504111 
L 342.745244 177.194383 
L 342.962978 126.831741 
L 343.180712 171.346268 
L 343.398468 161.653691 
L 343.616202 139.652472 
L 343.833958 170.066686 
L 344.051692 171.001959 
L 344.269426 194.077045 
L 344.487182 176.672934 
L 344.704916 201.414296 
L 344.922672 204.339215 
L 345.140406 175.506934 
L 345.575895 186.978325 
L 345.793629 166.03997 
L 346.011385 168.265549 
L 346.229119 179.907531 
L 346.446853 169.477297 
L 346.664609 184.191247 
L 346.882343 180.357237 
L 347.100077 213.728692 
L 347.317833 194.175045 
L 347.535567 186.298727 
L 347.753323 194.704069 
L 348.188791 155.557474 
L 348.406546 147.949667 
L 348.62428 135.720656 
L 348.842036 146.445283 
L 349.05977 168.771602 
L 349.277504 170.075371 
L 349.49526 157.851893 
L 349.712994 171.32609 
L 349.93075 160.894918 
L 350.148484 162.849486 
L 350.366218 158.585112 
L 350.583974 173.260278 
L 350.801708 160.789766 
L 351.019442 139.015243 
L 351.237197 191.756218 
L 351.454932 143.232169 
L 351.672687 159.744136 
L 351.890421 159.634811 
L 352.108155 172.48073 
L 352.325911 175.522423 
L 352.543645 143.441164 
L 352.761401 163.141134 
L 352.979135 120.847933 
L 353.196869 123.560047 
L 353.414625 143.071929 
L 353.632359 149.149885 
L 353.850114 176.403614 
L 354.067848 176.403614 
L 354.285583 144.913734 
L 354.503338 138.973961 
L 354.721072 138.916788 
L 355.156562 96.645914 
L 355.374296 115.405398 
L 355.592052 100.003852 
L 355.809786 141.786822 
L 356.02752 136.051622 
L 356.245276 112.59362 
L 356.46301 144.920597 
L 356.680765 157.193141 
L 356.8985 158.52755 
L 357.333989 208.203233 
L 357.551723 206.047632 
L 357.769457 158.781137 
L 357.987213 194.003822 
L 358.204947 199.185931 
L 358.422703 199.939574 
L 358.640437 163.286829 
L 358.858171 200.806553 
L 359.075927 203.808481 
L 359.511415 182.466206 
L 359.729149 180.400008 
L 359.946883 198.672869 
L 360.382372 171.891112 
L 360.600128 206.504577 
L 360.817862 205.743362 
L 361.035596 198.810689 
L 361.253352 202.001125 
L 361.471086 208.625002 
L 361.68882 202.695622 
L 361.906576 208.23003 
L 362.12431 189.695687 
L 362.342066 189.643859 
L 362.5598 185.883018 
L 362.777534 207.856364 
L 362.995289 193.895015 
L 363.213023 188.859264 
L 363.430779 233.064993 
L 363.648513 241.169966 
L 363.866247 195.07638 
L 364.084003 212.226979 
L 364.301737 205.361111 
L 364.519471 226.814129 
L 364.954961 166.506848 
L 365.608185 219.578142 
L 365.82594 191.983959 
L 366.043675 198.929891 
L 366.26143 183.619046 
L 366.479164 183.875178 
L 366.696898 164.000041 
L 367.132388 184.572525 
L 367.350122 202.721915 
L 367.567878 198.820599 
L 367.785612 227.94798 
L 368.003368 217.418363 
L 368.221102 221.4148 
L 368.438836 194.18999 
L 368.656591 191.901895 
L 369.092081 168.26595 
L 369.309815 196.925714 
L 369.527549 202.916536 
L 369.745305 184.5737 
L 369.963039 207.250232 
L 370.180795 149.516264 
L 370.398529 148.80965 
L 370.616263 157.919755 
L 370.834019 161.900332 
L 371.051753 183.652051 
L 371.487243 161.466986 
L 371.704977 181.532186 
L 371.922732 154.011965 
L 372.140466 184.065127 
L 372.3582 176.483142 
L 372.575956 149.783169 
L 372.79369 161.220305 
L 373.011446 138.4502 
L 373.22918 178.240604 
L 373.446914 179.326422 
L 373.66467 149.049409 
L 373.882404 153.276151 
L 374.100138 129.759187 
L 374.317894 122.497487 
L 374.535628 142.294192 
L 374.753383 148.197187 
L 374.971117 145.90191 
L 375.188851 127.435884 
L 375.624341 165.05903 
L 375.842097 125.550668 
L 376.059831 113.445877 
L 376.277565 121.707528 
L 376.495321 137.23292 
L 376.713055 142.871029 
L 377.148545 179.252857 
L 377.366279 141.134434 
L 377.584034 164.766799 
L 377.801768 134.123388 
L 378.019502 155.092371 
L 378.237258 139.947558 
L 378.454992 178.261767 
L 378.672748 185.862698 
L 378.890482 186.657823 
L 379.108216 161.867352 
L 379.325972 180.924507 
L 379.543706 172.096495 
L 379.76144 172.096495 
L 379.979196 164.034539 
L 380.632419 210.714669 
L 380.850154 173.117604 
L 381.067898 183.93088 
L 381.285632 185.254706 
L 381.503367 179.550178 
L 381.721122 210.172595 
L 382.156612 148.517707 
L 382.374346 153.785165 
L 382.59208 172.826122 
L 382.809836 171.962235 
L 383.02757 181.137655 
L 383.245326 177.107389 
L 383.680794 161.716054 
L 383.898549 182.032984 
L 384.334018 134.404747 
L 384.551773 153.768032 
L 384.769507 157.591747 
L 385.204997 121.430595 
L 385.422731 139.585001 
L 385.640487 170.430495 
L 385.858221 163.633642 
L 386.293711 141.593945 
L 386.511445 194.104707 
L 386.7292 173.252917 
L 386.946935 165.466222 
L 387.164669 188.344098 
L 387.382424 194.244232 
L 387.600158 178.733448 
L 387.817914 183.459049 
L 388.035648 178.354379 
L 388.253382 185.366255 
L 388.688872 171.758653 
L 388.906606 152.875079 
L 389.124362 159.641116 
L 389.342096 117.498689 
L 389.559852 180.034291 
L 390.213075 120.468128 
L 390.430809 124.427138 
L 390.648543 120.808413 
L 390.866299 149.642361 
L 391.084033 121.069611 
L 391.301789 135.886111 
L 391.519523 174.035866 
L 391.737257 181.299329 
L 391.955013 154.997657 
L 392.390503 161.833606 
L 392.608237 157.229508 
L 392.825971 171.171683 
L 393.043726 159.938173 
L 393.26146 135.877749 
L 393.479194 127.417332 
L 393.69695 103.44526 
L 393.914684 135.010088 
L 394.13244 148.382186 
L 394.350174 154.870737 
L 394.567908 198.045468 
L 394.785664 153.678697 
L 395.003398 161.621515 
L 395.221132 147.369538 
L 395.438888 162.98392 
L 395.656622 135.212446 
L 395.874377 189.101334 
L 396.092111 180.753984 
L 396.309846 197.928682 
L 396.527601 143.962836 
L 396.963069 179.982016 
L 397.398559 163.364457 
L 397.834049 182.977739 
L 398.051783 210.301634 
L 398.269539 211.928201 
L 398.487273 166.611881 
L 398.487273 166.611881 
" clip-path="url(#p6a1e2dad1f)" style="fill: none; stroke: #1f77b4; stroke-width: 1.5; stroke-linecap: square"/>
   </g>
   <g id="patch_3">
    <path d="M 57.6 307.584 
L 57.6 41.472 
" style="fill: none; stroke: #000000; stroke-width: 0.8; stroke-linejoin: miter; stroke-linecap: square"/>
   </g>
   <g id="patch_4">
    <path d="M 414.72 307.584 
L 414.72 41.472 
" style="fill: none; stroke: #000000; stroke-width: 0.8; stroke-linejoin: miter; stroke-linecap: square"/>
   </g>
   <g id="patch_5">
    <path d="M 57.6 307.584 
L 414.72 307.584 
" style="fill: none; stroke: #000000; stroke-width: 0.8; stroke-linejoin: miter; stroke-linecap: square"/>
   </g>
   <g id="patch_6">
    <path d="M 57.6 41.472 
L 414.72 41.472 
" style="fill: none; stroke: #000000; stroke-width: 0.8; stroke-linejoin: miter; stroke-linecap: square"/>
   </g>
   <g id="text_16">
    <!-- Vemund-Tyholt_restart-vinkel -->
    <g transform="translate(149.541562 35.472) scale(0.12 -0.12)">
     <defs>
      <path id="DejaVuSans-56" d="M 1831 0 
L 50 4666 
L 709 4666 
L 2188 738 
L 3669 4666 
L 4325 4666 
L 2547 0 
L 1831 0 
z
" transform="scale(0.015625)"/>
      <path id="DejaVuSans-75" d="M 544 1381 
L 544 3500 
L 1119 3500 
L 1119 1403 
Q 1119 906 1312 657 
Q 1506 409 1894 409 
Q 2359 409 2629 706 
Q 2900 1003 2900 1516 
L 2900 3500 
L 3475 3500 
L 3475 0 
L 2900 0 
L 2900 538 
Q 2691 219 2414 64 
Q 2138 -91 1772 -91 
Q 1169 -91 856 284 
Q 544 659 544 1381 
z
M 1991 3584 
L 1991 3584 
z
" transform="scale(0.015625)"/>
      <path id="DejaVuSans-6e" d="M 3513 2113 
L 3513 0 
L 2938 0 
L 2938 2094 
Q 2938 2591 2744 2837 
Q 2550 3084 2163 3084 
Q 1697 3084 1428 2787 
Q 1159 2491 1159 1978 
L 1159 0 
L 581 0 
L 581 3500 
L 1159 3500 
L 1159 2956 
Q 1366 3272 1645 3428 
Q 1925 3584 2291 3584 
Q 2894 3584 3203 3211 
Q 3513 2838 3513 2113 
z
" transform="scale(0.015625)"/>
      <path id="DejaVuSans-2d" d="M 313 2009 
L 1997 2009 
L 1997 1497 
L 313 1497 
L 313 2009 
z
" transform="scale(0.015625)"/>
      <path id="DejaVuSans-54" d="M -19 4666 
L 3928 4666 
L 3928 4134 
L 2272 4134 
L 2272 0 
L 1638 0 
L 1638 4134 
L -19 4134 
L -19 4666 
z
" transform="scale(0.015625)"/>
      <path id="DejaVuSans-79" d="M 2059 -325 
Q 1816 -950 1584 -1140 
Q 1353 -1331 966 -1331 
L 506 -1331 
L 506 -850 
L 844 -850 
Q 1081 -850 1212 -737 
Q 1344 -625 1503 -206 
L 1606 56 
L 191 3500 
L 800 3500 
L 1894 763 
L 2988 3500 
L 3597 3500 
L 2059 -325 
z
" transform="scale(0.015625)"/>
      <path id="DejaVuSans-68" d="M 3513 2113 
L 3513 0 
L 2938 0 
L 2938 2094 
Q 2938 2591 2744 2837 
Q 2550 3084 2163 3084 
Q 1697 3084 1428 2787 
Q 1159 2491 1159 1978 
L 1159 0 
L 581 0 
L 581 4863 
L 1159 4863 
L 1159 2956 
Q 1366 3272 1645 3428 
Q 1925 3584 2291 3584 
Q 2894 3584 3203 3211 
Q 3513 2838 3513 2113 
z
" transform="scale(0.015625)"/>
      <path id="DejaVuSans-6f" d="M 1959 3097 
Q 1497 3097 1228 2736 
Q 959 2375 959 1747 
Q 959 1119 1226 758 
Q 1494 397 1959 397 
Q 2419 397 2687 759 
Q 2956 1122 2956 1747 
Q 2956 2369 2687 2733 
Q 2419 3097 1959 3097 
z
M 1959 3584 
Q 2709 3584 3137 3096 
Q 3566 2609 3566 1747 
Q 3566 888 3137 398 
Q 2709 -91 1959 -91 
Q 1206 -91 779 398 
Q 353 888 353 1747 
Q 353 2609 779 3096 
Q 1206 3584 1959 3584 
z
" transform="scale(0.015625)"/>
      <path id="DejaVuSans-6c" d="M 603 4863 
L 1178 4863 
L 1178 0 
L 603 0 
L 603 4863 
z
" transform="scale(0.015625)"/>
      <path id="DejaVuSans-5f" d="M 3263 -1063 
L 3263 -1509 
L -63 -1509 
L -63 -1063 
L 3263 -1063 
z
" transform="scale(0.015625)"/>
      <path id="DejaVuSans-72" d="M 2631 2963 
Q 2534 3019 2420 3045 
Q 2306 3072 2169 3072 
Q 1681 3072 1420 2755 
Q 1159 2438 1159 1844 
L 1159 0 
L 581 0 
L 581 3500 
L 1159 3500 
L 1159 2956 
Q 1341 3275 1631 3429 
Q 1922 3584 2338 3584 
Q 2397 3584 2469 3576 
Q 2541 3569 2628 3553 
L 2631 2963 
z
" transform="scale(0.015625)"/>
      <path id="DejaVuSans-61" d="M 2194 1759 
Q 1497 1759 1228 1600 
Q 959 1441 959 1056 
Q 959 750 1161 570 
Q 1363 391 1709 391 
Q 2188 391 2477 730 
Q 2766 1069 2766 1631 
L 2766 1759 
L 2194 1759 
z
M 3341 1997 
L 3341 0 
L 2766 0 
L 2766 531 
Q 2569 213 2275 61 
Q 1981 -91 1556 -91 
Q 1019 -91 701 211 
Q 384 513 384 1019 
Q 384 1609 779 1909 
Q 1175 2209 1959 2209 
L 2766 2209 
L 2766 2266 
Q 2766 2663 2505 2880 
Q 2244 3097 1772 3097 
Q 1472 3097 1187 3025 
Q 903 2953 641 2809 
L 641 3341 
Q 956 3463 1253 3523 
Q 1550 3584 1831 3584 
Q 2591 3584 2966 3190 
Q 3341 2797 3341 1997 
z
" transform="scale(0.015625)"/>
      <path id="DejaVuSans-76" d="M 191 3500 
L 800 3500 
L 1894 563 
L 2988 3500 
L 3597 3500 
L 2284 0 
L 1503 0 
L 191 3500 
z
" transform="scale(0.015625)"/>
      <path id="DejaVuSans-6b" d="M 581 4863 
L 1159 4863 
L 1159 1991 
L 2875 3500 
L 3609 3500 
L 1753 1863 
L 3688 0 
L 2938 0 
L 1159 1709 
L 1159 0 
L 581 0 
L 581 4863 
z
" transform="scale(0.015625)"/>
     </defs>
     <use xlink:href="#DejaVuSans-56"/>
     <use xlink:href="#DejaVuSans-65" x="60.658203"/>
     <use xlink:href="#DejaVuSans-6d" x="122.181641"/>
     <use xlink:href="#DejaVuSans-75" x="219.59375"/>
     <use xlink:href="#DejaVuSans-6e" x="282.972656"/>
     <use xlink:href="#DejaVuSans-64" x="346.351562"/>
     <use xlink:href="#DejaVuSans-2d" x="409.828125"/>
     <use xlink:href="#DejaVuSans-54" x="436.787109"/>
     <use xlink:href="#DejaVuSans-79" x="482.246094"/>
     <use xlink:href="#DejaVuSans-68" x="541.425781"/>
     <use xlink:href="#DejaVuSans-6f" x="604.804688"/>
     <use xlink:href="#DejaVuSans-6c" x="665.986328"/>
     <use xlink:href="#DejaVuSans-74" x="693.769531"/>
     <use xlink:href="#DejaVuSans-5f" x="732.978516"/>
     <use xlink:href="#DejaVuSans-72" x="782.978516"/>
     <use xlink:href="#DejaVuSans-65" x="821.841797"/>
     <use xlink:href="#DejaVuSans-73" x="883.365234"/>
     <use xlink:href="#DejaVuSans-74" x="935.464844"/>
     <use xlink:href="#DejaVuSans-61" x="974.673828"/>
     <use xlink:href="#DejaVuSans-72" x="1035.953125"/>
     <use xlink:href="#DejaVuSans-74" x="1077.066406"/>
     <use xlink:href="#DejaVuSans-2d" x="1116.275391"/>
     <use xlink:href="#DejaVuSans-76" x="1149.734375"/>
     <use xlink:href="#DejaVuSans-69" x="1208.914062"/>
     <use xlink:href="#DejaVuSans-6e" x="1236.697266"/>
     <use xlink:href="#DejaVuSans-6b" x="1300.076172"/>
     <use xlink:href="#DejaVuSans-65" x="1354.361328"/>
     <use xlink:href="#DejaVuSans-6c" x="1415.884766"/>
    </g>
   </g>
   <g id="legend_1">
    <g id="patch_7">
     <path d="M 231.355937 64.42825 
L 407.72 64.42825 
Q 409.72 64.42825 409.72 62.42825 
L 409.72 48.472 
Q 409.72 46.472 407.72 46.472 
L 231.355937 46.472 
Q 229.355937 46.472 229.355937 48.472 
L 229.355937 62.42825 
Q 229.355937 64.42825 231.355937 64.42825 
z
" style="fill: #ffffff; opacity: 0.8; stroke: #cccccc; stroke-linejoin: miter"/>
    </g>
    <g id="line2d_15">
     <path d="M 233.355937 54.570437 
L 243.355937 54.570437 
L 253.355937 54.570437 
" style="fill: none; stroke: #1f77b4; stroke-width: 1.5; stroke-linecap: square"/>
    </g>
    <g id="text_17">
     <!-- Vemund-Tyholt_restart-vinkel -->
     <g transform="translate(261.355937 58.070437) scale(0.1 -0.1)">
      <use xlink:href="#DejaVuSans-56"/>
      <use xlink:href="#DejaVuSans-65" x="60.658203"/>
      <use xlink:href="#DejaVuSans-6d" x="122.181641"/>
      <use xlink:href="#DejaVuSans-75" x="219.59375"/>
      <use xlink:href="#DejaVuSans-6e" x="282.972656"/>
      <use xlink:href="#DejaVuSans-64" x="346.351562"/>
      <use xlink:href="#DejaVuSans-2d" x="409.828125"/>
      <use xlink:href="#DejaVuSans-54" x="436.787109"/>
      <use xlink:href="#DejaVuSans-79" x="482.246094"/>
      <use xlink:href="#DejaVuSans-68" x="541.425781"/>
      <use xlink:href="#DejaVuSans-6f" x="604.804688"/>
      <use xlink:href="#DejaVuSans-6c" x="665.986328"/>
      <use xlink:href="#DejaVuSans-74" x="693.769531"/>
      <use xlink:href="#DejaVuSans-5f" x="732.978516"/>
      <use xlink:href="#DejaVuSans-72" x="782.978516"/>
      <use xlink:href="#DejaVuSans-65" x="821.841797"/>
      <use xlink:href="#DejaVuSans-73" x="883.365234"/>
      <use xlink:href="#DejaVuSans-74" x="935.464844"/>
      <use xlink:href="#DejaVuSans-61" x="974.673828"/>
      <use xlink:href="#DejaVuSans-72" x="1035.953125"/>
      <use xlink:href="#DejaVuSans-74" x="1077.066406"/>
      <use xlink:href="#DejaVuSans-2d" x="1116.275391"/>
      <use xlink:href="#DejaVuSans-76" x="1149.734375"/>
      <use xlink:href="#DejaVuSans-69" x="1208.914062"/>
      <use xlink:href="#DejaVuSans-6e" x="1236.697266"/>
      <use xlink:href="#DejaVuSans-6b" x="1300.076172"/>
      <use xlink:href="#DejaVuSans-65" x="1354.361328"/>
      <use xlink:href="#DejaVuSans-6c" x="1415.884766"/>
     </g>
    </g>
   </g>
  </g>
 </g>
 <defs>
  <clipPath id="p6a1e2dad1f">
   <rect x="57.6" y="41.472" width="357.12" height="266.112"/>
  </clipPath>
 </defs>
</svg>
