<?xml version="1.0" encoding="utf-8" standalone="no"?>
<!DOCTYPE svg PUBLIC "-//W3C//DTD SVG 1.1//EN"
  "http://www.w3.org/Graphics/SVG/1.1/DTD/svg11.dtd">
<svg xmlns:xlink="http://www.w3.org/1999/xlink" width="627.998438pt" height="458.691562pt" viewBox="0 0 627.998438 458.691562" xmlns="http://www.w3.org/2000/svg" version="1.1">
 <metadata>
  <rdf:RDF xmlns:dc="http://purl.org/dc/elements/1.1/" xmlns:cc="http://creativecommons.org/ns#" xmlns:rdf="http://www.w3.org/1999/02/22-rdf-syntax-ns#">
   <cc:Work>
    <dc:type rdf:resource="http://purl.org/dc/dcmitype/StillImage"/>
    <dc:date>2023-04-10T19:04:26.278383</dc:date>
    <dc:format>image/svg+xml</dc:format>
    <dc:creator>
     <cc:Agent>
      <dc:title>Matplotlib v3.7.1, https://matplotlib.org/</dc:title>
     </cc:Agent>
    </dc:creator>
   </cc:Work>
  </rdf:RDF>
 </metadata>
 <defs>
  <style type="text/css">*{stroke-linejoin: round; stroke-linecap: butt}</style>
 </defs>
 <g id="figure_1">
  <g id="patch_1">
   <path d="M 0 458.691562 
L 627.998438 458.691562 
L 627.998438 0 
L 0 0 
L 0 458.691562 
z
" style="fill: none"/>
  </g>
  <g id="axes_1">
   <g id="patch_2">
    <path d="M 62.798438 414.957187 
L 620.798437 414.957187 
L 620.798437 26.877187 
L 62.798438 26.877187 
L 62.798438 414.957187 
z
" style="fill: none"/>
   </g>
   <g id="matplotlib.axis_1">
    <g id="xtick_1">
     <g id="line2d_1">
      <path d="M 88.694398 414.957187 
L 88.694398 26.877187 
" clip-path="url(#pd0add3d2d5)" style="fill: none; stroke: #808080; stroke-width: 0.8; stroke-linecap: square"/>
     </g>
     <g id="line2d_2">
      <defs>
       <path id="m57047829be" d="M 0 0 
L 0 -5 
" style="stroke: #808080; stroke-width: 0.8"/>
      </defs>
      <g>
       <use xlink:href="#m57047829be" x="88.694398" y="414.957187" style="fill: #808080; stroke: #808080; stroke-width: 0.8"/>
      </g>
     </g>
     <g id="text_1">
      <!-- 20 -->
      <g style="fill: #808080" transform="translate(79.150648 429.854844) scale(0.15 -0.15)">
       <defs>
        <path id="DejaVuSans-32" d="M 1228 531 
L 3431 531 
L 3431 0 
L 469 0 
L 469 531 
Q 828 903 1448 1529 
Q 2069 2156 2228 2338 
Q 2531 2678 2651 2914 
Q 2772 3150 2772 3378 
Q 2772 3750 2511 3984 
Q 2250 4219 1831 4219 
Q 1534 4219 1204 4116 
Q 875 4013 500 3803 
L 500 4441 
Q 881 4594 1212 4672 
Q 1544 4750 1819 4750 
Q 2544 4750 2975 4387 
Q 3406 4025 3406 3419 
Q 3406 3131 3298 2873 
Q 3191 2616 2906 2266 
Q 2828 2175 2409 1742 
Q 1991 1309 1228 531 
z
" transform="scale(0.015625)"/>
        <path id="DejaVuSans-30" d="M 2034 4250 
Q 1547 4250 1301 3770 
Q 1056 3291 1056 2328 
Q 1056 1369 1301 889 
Q 1547 409 2034 409 
Q 2525 409 2770 889 
Q 3016 1369 3016 2328 
Q 3016 3291 2770 3770 
Q 2525 4250 2034 4250 
z
M 2034 4750 
Q 2819 4750 3233 4129 
Q 3647 3509 3647 2328 
Q 3647 1150 3233 529 
Q 2819 -91 2034 -91 
Q 1250 -91 836 529 
Q 422 1150 422 2328 
Q 422 3509 836 4129 
Q 1250 4750 2034 4750 
z
" transform="scale(0.015625)"/>
       </defs>
       <use xlink:href="#DejaVuSans-32"/>
       <use xlink:href="#DejaVuSans-30" x="63.623047"/>
      </g>
     </g>
    </g>
    <g id="xtick_2">
     <g id="line2d_3">
      <path d="M 156.370839 414.957187 
L 156.370839 26.877187 
" clip-path="url(#pd0add3d2d5)" style="fill: none; stroke: #808080; stroke-width: 0.8; stroke-linecap: square"/>
     </g>
     <g id="line2d_4">
      <g>
       <use xlink:href="#m57047829be" x="156.370839" y="414.957187" style="fill: #808080; stroke: #808080; stroke-width: 0.8"/>
      </g>
     </g>
     <g id="text_2">
      <!-- 22 -->
      <g style="fill: #808080" transform="translate(146.827089 429.854844) scale(0.15 -0.15)">
       <use xlink:href="#DejaVuSans-32"/>
       <use xlink:href="#DejaVuSans-32" x="63.623047"/>
      </g>
     </g>
    </g>
    <g id="xtick_3">
     <g id="line2d_5">
      <path d="M 224.047279 414.957187 
L 224.047279 26.877187 
" clip-path="url(#pd0add3d2d5)" style="fill: none; stroke: #808080; stroke-width: 0.8; stroke-linecap: square"/>
     </g>
     <g id="line2d_6">
      <g>
       <use xlink:href="#m57047829be" x="224.047279" y="414.957187" style="fill: #808080; stroke: #808080; stroke-width: 0.8"/>
      </g>
     </g>
     <g id="text_3">
      <!-- 24 -->
      <g style="fill: #808080" transform="translate(214.503529 429.854844) scale(0.15 -0.15)">
       <defs>
        <path id="DejaVuSans-34" d="M 2419 4116 
L 825 1625 
L 2419 1625 
L 2419 4116 
z
M 2253 4666 
L 3047 4666 
L 3047 1625 
L 3713 1625 
L 3713 1100 
L 3047 1100 
L 3047 0 
L 2419 0 
L 2419 1100 
L 313 1100 
L 313 1709 
L 2253 4666 
z
" transform="scale(0.015625)"/>
       </defs>
       <use xlink:href="#DejaVuSans-32"/>
       <use xlink:href="#DejaVuSans-34" x="63.623047"/>
      </g>
     </g>
    </g>
    <g id="xtick_4">
     <g id="line2d_7">
      <path d="M 291.723719 414.957187 
L 291.723719 26.877187 
" clip-path="url(#pd0add3d2d5)" style="fill: none; stroke: #808080; stroke-width: 0.8; stroke-linecap: square"/>
     </g>
     <g id="line2d_8">
      <g>
       <use xlink:href="#m57047829be" x="291.723719" y="414.957187" style="fill: #808080; stroke: #808080; stroke-width: 0.8"/>
      </g>
     </g>
     <g id="text_4">
      <!-- 26 -->
      <g style="fill: #808080" transform="translate(282.179969 429.854844) scale(0.15 -0.15)">
       <defs>
        <path id="DejaVuSans-36" d="M 2113 2584 
Q 1688 2584 1439 2293 
Q 1191 2003 1191 1497 
Q 1191 994 1439 701 
Q 1688 409 2113 409 
Q 2538 409 2786 701 
Q 3034 994 3034 1497 
Q 3034 2003 2786 2293 
Q 2538 2584 2113 2584 
z
M 3366 4563 
L 3366 3988 
Q 3128 4100 2886 4159 
Q 2644 4219 2406 4219 
Q 1781 4219 1451 3797 
Q 1122 3375 1075 2522 
Q 1259 2794 1537 2939 
Q 1816 3084 2150 3084 
Q 2853 3084 3261 2657 
Q 3669 2231 3669 1497 
Q 3669 778 3244 343 
Q 2819 -91 2113 -91 
Q 1303 -91 875 529 
Q 447 1150 447 2328 
Q 447 3434 972 4092 
Q 1497 4750 2381 4750 
Q 2619 4750 2861 4703 
Q 3103 4656 3366 4563 
z
" transform="scale(0.015625)"/>
       </defs>
       <use xlink:href="#DejaVuSans-32"/>
       <use xlink:href="#DejaVuSans-36" x="63.623047"/>
      </g>
     </g>
    </g>
    <g id="xtick_5">
     <g id="line2d_9">
      <path d="M 359.40016 414.957187 
L 359.40016 26.877187 
" clip-path="url(#pd0add3d2d5)" style="fill: none; stroke: #808080; stroke-width: 0.8; stroke-linecap: square"/>
     </g>
     <g id="line2d_10">
      <g>
       <use xlink:href="#m57047829be" x="359.40016" y="414.957187" style="fill: #808080; stroke: #808080; stroke-width: 0.8"/>
      </g>
     </g>
     <g id="text_5">
      <!-- 28 -->
      <g style="fill: #808080" transform="translate(349.85641 429.854844) scale(0.15 -0.15)">
       <defs>
        <path id="DejaVuSans-38" d="M 2034 2216 
Q 1584 2216 1326 1975 
Q 1069 1734 1069 1313 
Q 1069 891 1326 650 
Q 1584 409 2034 409 
Q 2484 409 2743 651 
Q 3003 894 3003 1313 
Q 3003 1734 2745 1975 
Q 2488 2216 2034 2216 
z
M 1403 2484 
Q 997 2584 770 2862 
Q 544 3141 544 3541 
Q 544 4100 942 4425 
Q 1341 4750 2034 4750 
Q 2731 4750 3128 4425 
Q 3525 4100 3525 3541 
Q 3525 3141 3298 2862 
Q 3072 2584 2669 2484 
Q 3125 2378 3379 2068 
Q 3634 1759 3634 1313 
Q 3634 634 3220 271 
Q 2806 -91 2034 -91 
Q 1263 -91 848 271 
Q 434 634 434 1313 
Q 434 1759 690 2068 
Q 947 2378 1403 2484 
z
M 1172 3481 
Q 1172 3119 1398 2916 
Q 1625 2713 2034 2713 
Q 2441 2713 2670 2916 
Q 2900 3119 2900 3481 
Q 2900 3844 2670 4047 
Q 2441 4250 2034 4250 
Q 1625 4250 1398 4047 
Q 1172 3844 1172 3481 
z
" transform="scale(0.015625)"/>
       </defs>
       <use xlink:href="#DejaVuSans-32"/>
       <use xlink:href="#DejaVuSans-38" x="63.623047"/>
      </g>
     </g>
    </g>
    <g id="xtick_6">
     <g id="line2d_11">
      <path d="M 427.0766 414.957187 
L 427.0766 26.877187 
" clip-path="url(#pd0add3d2d5)" style="fill: none; stroke: #808080; stroke-width: 0.8; stroke-linecap: square"/>
     </g>
     <g id="line2d_12">
      <g>
       <use xlink:href="#m57047829be" x="427.0766" y="414.957187" style="fill: #808080; stroke: #808080; stroke-width: 0.8"/>
      </g>
     </g>
     <g id="text_6">
      <!-- 30 -->
      <g style="fill: #808080" transform="translate(417.53285 429.854844) scale(0.15 -0.15)">
       <defs>
        <path id="DejaVuSans-33" d="M 2597 2516 
Q 3050 2419 3304 2112 
Q 3559 1806 3559 1356 
Q 3559 666 3084 287 
Q 2609 -91 1734 -91 
Q 1441 -91 1130 -33 
Q 819 25 488 141 
L 488 750 
Q 750 597 1062 519 
Q 1375 441 1716 441 
Q 2309 441 2620 675 
Q 2931 909 2931 1356 
Q 2931 1769 2642 2001 
Q 2353 2234 1838 2234 
L 1294 2234 
L 1294 2753 
L 1863 2753 
Q 2328 2753 2575 2939 
Q 2822 3125 2822 3475 
Q 2822 3834 2567 4026 
Q 2313 4219 1838 4219 
Q 1578 4219 1281 4162 
Q 984 4106 628 3988 
L 628 4550 
Q 988 4650 1302 4700 
Q 1616 4750 1894 4750 
Q 2613 4750 3031 4423 
Q 3450 4097 3450 3541 
Q 3450 3153 3228 2886 
Q 3006 2619 2597 2516 
z
" transform="scale(0.015625)"/>
       </defs>
       <use xlink:href="#DejaVuSans-33"/>
       <use xlink:href="#DejaVuSans-30" x="63.623047"/>
      </g>
     </g>
    </g>
    <g id="xtick_7">
     <g id="line2d_13">
      <path d="M 494.75304 414.957187 
L 494.75304 26.877187 
" clip-path="url(#pd0add3d2d5)" style="fill: none; stroke: #808080; stroke-width: 0.8; stroke-linecap: square"/>
     </g>
     <g id="line2d_14">
      <g>
       <use xlink:href="#m57047829be" x="494.75304" y="414.957187" style="fill: #808080; stroke: #808080; stroke-width: 0.8"/>
      </g>
     </g>
     <g id="text_7">
      <!-- 32 -->
      <g style="fill: #808080" transform="translate(485.20929 429.854844) scale(0.15 -0.15)">
       <use xlink:href="#DejaVuSans-33"/>
       <use xlink:href="#DejaVuSans-32" x="63.623047"/>
      </g>
     </g>
    </g>
    <g id="xtick_8">
     <g id="line2d_15">
      <path d="M 562.429481 414.957187 
L 562.429481 26.877187 
" clip-path="url(#pd0add3d2d5)" style="fill: none; stroke: #808080; stroke-width: 0.8; stroke-linecap: square"/>
     </g>
     <g id="line2d_16">
      <g>
       <use xlink:href="#m57047829be" x="562.429481" y="414.957187" style="fill: #808080; stroke: #808080; stroke-width: 0.8"/>
      </g>
     </g>
     <g id="text_8">
      <!-- 34 -->
      <g style="fill: #808080" transform="translate(552.885731 429.854844) scale(0.15 -0.15)">
       <use xlink:href="#DejaVuSans-33"/>
       <use xlink:href="#DejaVuSans-34" x="63.623047"/>
      </g>
     </g>
    </g>
    <g id="text_9">
     <!-- time [s] -->
     <g style="fill: #808080" transform="translate(312.711328 448.372031) scale(0.15 -0.15)">
      <defs>
       <path id="DejaVuSans-74" d="M 1172 4494 
L 1172 3500 
L 2356 3500 
L 2356 3053 
L 1172 3053 
L 1172 1153 
Q 1172 725 1289 603 
Q 1406 481 1766 481 
L 2356 481 
L 2356 0 
L 1766 0 
Q 1100 0 847 248 
Q 594 497 594 1153 
L 594 3053 
L 172 3053 
L 172 3500 
L 594 3500 
L 594 4494 
L 1172 4494 
z
" transform="scale(0.015625)"/>
       <path id="DejaVuSans-69" d="M 603 3500 
L 1178 3500 
L 1178 0 
L 603 0 
L 603 3500 
z
M 603 4863 
L 1178 4863 
L 1178 4134 
L 603 4134 
L 603 4863 
z
" transform="scale(0.015625)"/>
       <path id="DejaVuSans-6d" d="M 3328 2828 
Q 3544 3216 3844 3400 
Q 4144 3584 4550 3584 
Q 5097 3584 5394 3201 
Q 5691 2819 5691 2113 
L 5691 0 
L 5113 0 
L 5113 2094 
Q 5113 2597 4934 2840 
Q 4756 3084 4391 3084 
Q 3944 3084 3684 2787 
Q 3425 2491 3425 1978 
L 3425 0 
L 2847 0 
L 2847 2094 
Q 2847 2600 2669 2842 
Q 2491 3084 2119 3084 
Q 1678 3084 1418 2786 
Q 1159 2488 1159 1978 
L 1159 0 
L 581 0 
L 581 3500 
L 1159 3500 
L 1159 2956 
Q 1356 3278 1631 3431 
Q 1906 3584 2284 3584 
Q 2666 3584 2933 3390 
Q 3200 3197 3328 2828 
z
" transform="scale(0.015625)"/>
       <path id="DejaVuSans-65" d="M 3597 1894 
L 3597 1613 
L 953 1613 
Q 991 1019 1311 708 
Q 1631 397 2203 397 
Q 2534 397 2845 478 
Q 3156 559 3463 722 
L 3463 178 
Q 3153 47 2828 -22 
Q 2503 -91 2169 -91 
Q 1331 -91 842 396 
Q 353 884 353 1716 
Q 353 2575 817 3079 
Q 1281 3584 2069 3584 
Q 2775 3584 3186 3129 
Q 3597 2675 3597 1894 
z
M 3022 2063 
Q 3016 2534 2758 2815 
Q 2500 3097 2075 3097 
Q 1594 3097 1305 2825 
Q 1016 2553 972 2059 
L 3022 2063 
z
" transform="scale(0.015625)"/>
       <path id="DejaVuSans-20" transform="scale(0.015625)"/>
       <path id="DejaVuSans-5b" d="M 550 4863 
L 1875 4863 
L 1875 4416 
L 1125 4416 
L 1125 -397 
L 1875 -397 
L 1875 -844 
L 550 -844 
L 550 4863 
z
" transform="scale(0.015625)"/>
       <path id="DejaVuSans-73" d="M 2834 3397 
L 2834 2853 
Q 2591 2978 2328 3040 
Q 2066 3103 1784 3103 
Q 1356 3103 1142 2972 
Q 928 2841 928 2578 
Q 928 2378 1081 2264 
Q 1234 2150 1697 2047 
L 1894 2003 
Q 2506 1872 2764 1633 
Q 3022 1394 3022 966 
Q 3022 478 2636 193 
Q 2250 -91 1575 -91 
Q 1294 -91 989 -36 
Q 684 19 347 128 
L 347 722 
Q 666 556 975 473 
Q 1284 391 1588 391 
Q 1994 391 2212 530 
Q 2431 669 2431 922 
Q 2431 1156 2273 1281 
Q 2116 1406 1581 1522 
L 1381 1569 
Q 847 1681 609 1914 
Q 372 2147 372 2553 
Q 372 3047 722 3315 
Q 1072 3584 1716 3584 
Q 2034 3584 2315 3537 
Q 2597 3491 2834 3397 
z
" transform="scale(0.015625)"/>
       <path id="DejaVuSans-5d" d="M 1947 4863 
L 1947 -844 
L 622 -844 
L 622 -397 
L 1369 -397 
L 1369 4416 
L 622 4416 
L 622 4863 
L 1947 4863 
z
" transform="scale(0.015625)"/>
      </defs>
      <use xlink:href="#DejaVuSans-74"/>
      <use xlink:href="#DejaVuSans-69" x="39.208984"/>
      <use xlink:href="#DejaVuSans-6d" x="66.992188"/>
      <use xlink:href="#DejaVuSans-65" x="164.404297"/>
      <use xlink:href="#DejaVuSans-20" x="225.927734"/>
      <use xlink:href="#DejaVuSans-5b" x="257.714844"/>
      <use xlink:href="#DejaVuSans-73" x="296.728516"/>
      <use xlink:href="#DejaVuSans-5d" x="348.828125"/>
     </g>
    </g>
   </g>
   <g id="matplotlib.axis_2">
    <g id="ytick_1">
     <g id="line2d_17">
      <path d="M 62.798438 391.539634 
L 620.798437 391.539634 
" clip-path="url(#pd0add3d2d5)" style="fill: none; stroke: #808080; stroke-width: 0.8; stroke-linecap: square"/>
     </g>
     <g id="line2d_18">
      <defs>
       <path id="m467fd2e49d" d="M 0 0 
L 5 0 
" style="stroke: #808080; stroke-width: 0.8"/>
      </defs>
      <g>
       <use xlink:href="#m467fd2e49d" x="62.798438" y="391.539634" style="fill: #808080; stroke: #808080; stroke-width: 0.8"/>
      </g>
     </g>
     <g id="text_10">
      <!-- 63.6 -->
      <g style="fill: #808080" transform="translate(25.9 397.238462) scale(0.15 -0.15)">
       <defs>
        <path id="DejaVuSans-2e" d="M 684 794 
L 1344 794 
L 1344 0 
L 684 0 
L 684 794 
z
" transform="scale(0.015625)"/>
       </defs>
       <use xlink:href="#DejaVuSans-36"/>
       <use xlink:href="#DejaVuSans-33" x="63.623047"/>
       <use xlink:href="#DejaVuSans-2e" x="127.246094"/>
       <use xlink:href="#DejaVuSans-36" x="159.033203"/>
      </g>
     </g>
    </g>
    <g id="ytick_2">
     <g id="line2d_19">
      <path d="M 62.798438 311.206254 
L 620.798437 311.206254 
" clip-path="url(#pd0add3d2d5)" style="fill: none; stroke: #808080; stroke-width: 0.8; stroke-linecap: square"/>
     </g>
     <g id="line2d_20">
      <g>
       <use xlink:href="#m467fd2e49d" x="62.798438" y="311.206254" style="fill: #808080; stroke: #808080; stroke-width: 0.8"/>
      </g>
     </g>
     <g id="text_11">
      <!-- 63.8 -->
      <g style="fill: #808080" transform="translate(25.9 316.905082) scale(0.15 -0.15)">
       <use xlink:href="#DejaVuSans-36"/>
       <use xlink:href="#DejaVuSans-33" x="63.623047"/>
       <use xlink:href="#DejaVuSans-2e" x="127.246094"/>
       <use xlink:href="#DejaVuSans-38" x="159.033203"/>
      </g>
     </g>
    </g>
    <g id="ytick_3">
     <g id="line2d_21">
      <path d="M 62.798438 230.872873 
L 620.798437 230.872873 
" clip-path="url(#pd0add3d2d5)" style="fill: none; stroke: #808080; stroke-width: 0.8; stroke-linecap: square"/>
     </g>
     <g id="line2d_22">
      <g>
       <use xlink:href="#m467fd2e49d" x="62.798438" y="230.872873" style="fill: #808080; stroke: #808080; stroke-width: 0.8"/>
      </g>
     </g>
     <g id="text_12">
      <!-- 64.0 -->
      <g style="fill: #808080" transform="translate(25.9 236.571701) scale(0.15 -0.15)">
       <use xlink:href="#DejaVuSans-36"/>
       <use xlink:href="#DejaVuSans-34" x="63.623047"/>
       <use xlink:href="#DejaVuSans-2e" x="127.246094"/>
       <use xlink:href="#DejaVuSans-30" x="159.033203"/>
      </g>
     </g>
    </g>
    <g id="ytick_4">
     <g id="line2d_23">
      <path d="M 62.798438 150.539493 
L 620.798437 150.539493 
" clip-path="url(#pd0add3d2d5)" style="fill: none; stroke: #808080; stroke-width: 0.8; stroke-linecap: square"/>
     </g>
     <g id="line2d_24">
      <g>
       <use xlink:href="#m467fd2e49d" x="62.798438" y="150.539493" style="fill: #808080; stroke: #808080; stroke-width: 0.8"/>
      </g>
     </g>
     <g id="text_13">
      <!-- 64.2 -->
      <g style="fill: #808080" transform="translate(25.9 156.238321) scale(0.15 -0.15)">
       <use xlink:href="#DejaVuSans-36"/>
       <use xlink:href="#DejaVuSans-34" x="63.623047"/>
       <use xlink:href="#DejaVuSans-2e" x="127.246094"/>
       <use xlink:href="#DejaVuSans-32" x="159.033203"/>
      </g>
     </g>
    </g>
    <g id="ytick_5">
     <g id="line2d_25">
      <path d="M 62.798438 70.206112 
L 620.798437 70.206112 
" clip-path="url(#pd0add3d2d5)" style="fill: none; stroke: #808080; stroke-width: 0.8; stroke-linecap: square"/>
     </g>
     <g id="line2d_26">
      <g>
       <use xlink:href="#m467fd2e49d" x="62.798438" y="70.206112" style="fill: #808080; stroke: #808080; stroke-width: 0.8"/>
      </g>
     </g>
     <g id="text_14">
      <!-- 64.4 -->
      <g style="fill: #808080" transform="translate(25.9 75.90494) scale(0.15 -0.15)">
       <use xlink:href="#DejaVuSans-36"/>
       <use xlink:href="#DejaVuSans-34" x="63.623047"/>
       <use xlink:href="#DejaVuSans-2e" x="127.246094"/>
       <use xlink:href="#DejaVuSans-34" x="159.033203"/>
      </g>
     </g>
    </g>
    <g id="text_15">
     <!-- $\theta$ [deg] -->
     <g style="fill: #808080" transform="translate(18.75 247.917187) rotate(-90) scale(0.15 -0.15)">
      <defs>
       <path id="DejaVuSans-Oblique-3b8" d="M 2913 2219 
L 925 2219 
Q 791 1284 928 888 
Q 1100 400 1566 400 
Q 2034 400 2391 891 
Q 2703 1322 2913 2219 
z
M 3009 2750 
Q 3094 3638 2984 3950 
Q 2813 4444 2353 4444 
Q 1875 4444 1525 3956 
Q 1250 3563 1034 2750 
L 3009 2750 
z
M 2444 4913 
Q 3194 4913 3494 4250 
Q 3794 3591 3566 2422 
Q 3341 1256 2781 594 
Q 2225 -72 1475 -72 
Q 722 -72 425 594 
Q 128 1256 353 2422 
Q 581 3591 1134 4250 
Q 1691 4913 2444 4913 
z
" transform="scale(0.015625)"/>
       <path id="DejaVuSans-64" d="M 2906 2969 
L 2906 4863 
L 3481 4863 
L 3481 0 
L 2906 0 
L 2906 525 
Q 2725 213 2448 61 
Q 2172 -91 1784 -91 
Q 1150 -91 751 415 
Q 353 922 353 1747 
Q 353 2572 751 3078 
Q 1150 3584 1784 3584 
Q 2172 3584 2448 3432 
Q 2725 3281 2906 2969 
z
M 947 1747 
Q 947 1113 1208 752 
Q 1469 391 1925 391 
Q 2381 391 2643 752 
Q 2906 1113 2906 1747 
Q 2906 2381 2643 2742 
Q 2381 3103 1925 3103 
Q 1469 3103 1208 2742 
Q 947 2381 947 1747 
z
" transform="scale(0.015625)"/>
       <path id="DejaVuSans-67" d="M 2906 1791 
Q 2906 2416 2648 2759 
Q 2391 3103 1925 3103 
Q 1463 3103 1205 2759 
Q 947 2416 947 1791 
Q 947 1169 1205 825 
Q 1463 481 1925 481 
Q 2391 481 2648 825 
Q 2906 1169 2906 1791 
z
M 3481 434 
Q 3481 -459 3084 -895 
Q 2688 -1331 1869 -1331 
Q 1566 -1331 1297 -1286 
Q 1028 -1241 775 -1147 
L 775 -588 
Q 1028 -725 1275 -790 
Q 1522 -856 1778 -856 
Q 2344 -856 2625 -561 
Q 2906 -266 2906 331 
L 2906 616 
Q 2728 306 2450 153 
Q 2172 0 1784 0 
Q 1141 0 747 490 
Q 353 981 353 1791 
Q 353 2603 747 3093 
Q 1141 3584 1784 3584 
Q 2172 3584 2450 3431 
Q 2728 3278 2906 2969 
L 2906 3500 
L 3481 3500 
L 3481 434 
z
" transform="scale(0.015625)"/>
      </defs>
      <use xlink:href="#DejaVuSans-Oblique-3b8" transform="translate(0 0.234375)"/>
      <use xlink:href="#DejaVuSans-20" transform="translate(61.181641 0.234375)"/>
      <use xlink:href="#DejaVuSans-5b" transform="translate(92.96875 0.234375)"/>
      <use xlink:href="#DejaVuSans-64" transform="translate(131.982422 0.234375)"/>
      <use xlink:href="#DejaVuSans-65" transform="translate(195.458984 0.234375)"/>
      <use xlink:href="#DejaVuSans-67" transform="translate(256.982422 0.234375)"/>
      <use xlink:href="#DejaVuSans-5d" transform="translate(320.458984 0.234375)"/>
     </g>
    </g>
   </g>
   <g id="line2d_27">
    <path d="M 88.162074 70.724965 
L 88.502283 58.03989 
L 88.842527 158.776853 
L 89.182736 167.152554 
L 89.522979 147.048557 
L 89.863189 99.436934 
L 90.203398 131.736696 
L 90.543642 103.361187 
L 90.883851 140.102702 
L 91.224094 97.17135 
L 91.564304 112.679164 
L 91.904547 156.071475 
L 92.244757 135.837083 
L 92.584966 176.93389 
L 92.925209 200.971428 
L 93.265419 159.150431 
L 93.605662 200.918308 
L 93.945898 202.822024 
L 94.286108 131.568469 
L 94.626351 132.937022 
L 94.966561 120.915616 
L 95.647013 132.976862 
L 95.987257 148.315255 
L 96.667676 215.653496 
L 97.007919 134.848863 
L 97.348128 223.970007 
L 97.688372 195.309045 
L 98.028581 218.963435 
L 98.368824 211.575046 
L 98.709034 174.345429 
L 99.049243 169.903815 
L 99.389487 175.175419 
L 99.729696 210.963184 
L 100.410149 144.790525 
L 101.090602 217.907465 
L 101.430811 180.882584 
L 101.771054 182.664693 
L 102.111264 254.781823 
L 102.451507 260.81679 
L 102.791717 258.685086 
L 103.131926 243.947265 
L 103.812379 139.211312 
L 104.152622 241.305768 
L 104.492832 198.027428 
L 104.833041 189.451469 
L 105.173284 146.485997 
L 105.513494 170.012898 
L 105.853737 110.661295 
L 106.193947 103.502981 
L 106.53419 108.955624 
L 106.874399 144.237053 
L 107.214609 136.813886 
L 107.554852 146.13289 
L 107.895062 126.241631 
L 108.235305 137.22482 
L 108.575514 113.86003 
L 108.915724 137.031061 
L 109.255967 71.921918 
L 109.596177 131.14063 
L 110.276629 162.100954 
L 110.616873 160.056845 
L 110.957082 148.213464 
L 111.297292 99.46296 
L 111.637535 90.707205 
L 112.317988 154.073296 
L 112.658197 129.967361 
L 112.998441 134.584332 
L 113.33865 89.239356 
L 114.019103 173.678156 
L 114.359312 184.987642 
L 114.699556 180.791648 
L 115.039765 194.514815 
L 115.379974 172.205697 
L 115.720218 159.079961 
L 116.060427 152.820893 
L 116.400671 150.627711 
L 116.74088 135.55195 
L 117.421333 142.49401 
L 117.761542 172.165057 
L 118.101786 191.50026 
L 118.441995 140.397062 
L 118.782238 167.237764 
L 119.122448 122.137014 
L 119.462691 126.116928 
L 119.802901 79.95611 
L 120.14311 149.389972 
L 120.483353 151.791275 
L 120.823563 139.681893 
L 121.163806 118.564295 
L 121.504016 113.032424 
L 121.844225 99.615337 
L 122.184468 154.422706 
L 122.524678 146.809138 
L 122.864921 176.423481 
L 123.205131 130.854528 
L 123.545374 152.169104 
L 123.885583 110.146813 
L 124.225793 139.36826 
L 124.566036 133.437912 
L 124.906246 138.611525 
L 125.246489 141.812072 
L 125.586698 141.812072 
L 125.926908 137.75606 
L 126.267151 195.362545 
L 126.607361 201.386904 
L 126.947604 185.158769 
L 127.287813 181.633592 
L 127.628057 190.635228 
L 127.968237 147.944755 
L 128.308446 165.606724 
L 128.648689 170.930463 
L 128.988899 116.051579 
L 129.329142 107.449912 
L 129.669352 111.438283 
L 130.009595 227.8432 
L 130.349804 193.157191 
L 130.690014 201.174459 
L 131.030257 176.520882 
L 131.370467 211.911296 
L 131.71071 171.534428 
L 132.050919 165.258531 
L 132.391129 135.580522 
L 133.071582 181.948428 
L 133.411825 153.146212 
L 133.752034 176.757075 
L 134.092278 243.249406 
L 134.432487 193.354155 
L 134.772697 217.28921 
L 135.11294 140.34807 
L 135.453149 149.166849 
L 135.793393 163.045451 
L 136.133602 156.69118 
L 136.814055 101.120087 
L 137.154264 123.230147 
L 137.834717 180.81754 
L 138.174961 149.508694 
L 138.51517 136.528602 
L 138.855379 107.884167 
L 139.195623 112.039428 
L 139.535832 125.104947 
L 139.876076 169.318534 
L 140.216285 162.92416 
L 140.556528 148.340318 
L 140.896738 118.428388 
L 141.236947 164.676199 
L 141.577191 131.986689 
L 141.9174 173.562119 
L 142.257643 156.349209 
L 142.597853 147.315394 
L 142.938062 96.432691 
L 143.278306 211.287672 
L 143.958758 125.376973 
L 144.298968 194.659617 
L 144.639211 145.964399 
L 144.979421 155.371482 
L 145.659873 72.233098 
L 146.000083 160.921827 
L 146.340326 155.528954 
L 146.680536 169.129232 
L 147.020779 194.385357 
L 147.360988 164.825869 
L 147.701198 169.807148 
L 148.041441 142.230215 
L 148.381651 172.265583 
L 148.721894 182.93107 
L 149.062103 171.370094 
L 149.402313 169.621517 
L 149.742556 184.27288 
L 150.082766 181.842126 
L 150.423009 76.308705 
L 150.763218 130.949855 
L 151.103462 150.322774 
L 151.443671 91.348899 
L 152.124124 153.863179 
L 152.464333 106.962122 
L 152.804577 154.868772 
L 153.144786 158.70781 
L 153.825239 83.545381 
L 154.165448 102.1084 
L 154.505692 82.139003 
L 154.845901 135.807263 
L 155.186144 146.949867 
L 155.526354 117.911469 
L 155.866563 104.29656 
L 156.206807 35.683457 
L 156.547016 26.877188 
L 156.887259 102.725674 
L 157.227469 46.353563 
L 157.567678 37.880551 
L 157.907922 67.608647 
L 158.248131 117.857367 
L 158.588374 89.924786 
L 158.928584 116.597901 
L 159.268827 168.182353 
L 159.609037 176.500614 
L 159.949246 222.848995 
L 160.289489 209.692552 
L 160.629699 249.208097 
L 160.969942 253.163619 
L 161.310152 278.535034 
L 161.650351 231.345679 
L 161.990595 257.665226 
L 162.330804 206.078858 
L 162.671047 247.33382 
L 163.011257 200.099522 
L 163.3515 201.467899 
L 163.69171 236.501723 
L 164.031919 203.998953 
L 164.372162 228.486365 
L 164.712372 240.950432 
L 165.052615 233.555261 
L 165.392825 228.679906 
L 165.733034 228.679906 
L 166.073277 209.943179 
L 166.413487 173.161929 
L 167.09394 124.057961 
L 167.434183 158.858614 
L 167.774392 240.428606 
L 168.114602 137.901597 
L 168.454845 204.44299 
L 168.795055 164.108736 
L 169.135298 150.574652 
L 169.475507 174.434242 
L 169.815751 214.329822 
L 170.15596 204.670251 
L 170.49617 228.274153 
L 170.836413 180.294355 
L 171.176622 211.113388 
L 171.516866 216.675184 
L 172.197285 147.256186 
L 172.537528 128.611734 
L 173.217981 147.041998 
L 173.55819 149.872827 
L 173.898433 249.197928 
L 174.238643 236.256478 
L 174.578852 242.739249 
L 174.919096 193.212922 
L 175.259305 221.701636 
L 175.599548 151.537601 
L 175.939758 129.143483 
L 176.279967 156.384482 
L 176.620211 127.018397 
L 176.96042 135.400094 
L 177.300664 200.6632 
L 177.640873 130.743437 
L 177.981116 91.830939 
L 178.321326 73.991594 
L 178.661535 140.796884 
L 179.001779 114.225374 
L 179.341988 145.370385 
L 179.682231 201.402253 
L 180.022441 190.734416 
L 180.36265 200.281052 
L 180.702894 202.84752 
L 181.043103 201.518643 
L 181.383346 200.78796 
L 181.723556 136.886859 
L 182.063799 217.279983 
L 182.404009 205.283257 
L 182.744218 200.005066 
L 183.084461 232.294105 
L 183.424671 231.23406 
L 183.764914 193.052992 
L 184.105124 217.411599 
L 184.445333 127.655503 
L 184.785576 168.135205 
L 185.125786 165.424131 
L 185.466029 156.646195 
L 185.806239 138.851654 
L 186.146482 202.441464 
L 186.486691 209.266252 
L 186.826901 247.150873 
L 187.167144 195.446739 
L 187.507354 258.450078 
L 187.847597 285.635369 
L 188.187806 223.045063 
L 188.528016 233.833448 
L 188.868259 262.437551 
L 189.208469 256.328911 
L 189.888921 152.746863 
L 190.229165 142.078414 
L 190.569374 162.853852 
L 190.909584 200.612039 
L 191.249827 203.001133 
L 191.590036 188.579274 
L 191.93028 220.433627 
L 192.270489 193.988739 
L 192.610699 185.547206 
L 192.950942 186.96355 
L 193.291151 181.108125 
L 193.631395 153.478142 
L 193.971604 162.268063 
L 194.311847 182.65668 
L 194.652057 165.516011 
L 194.992266 204.909415 
L 195.33251 144.689826 
L 195.672757 160.325114 
L 196.013 156.767571 
L 196.35321 86.855089 
L 196.693453 94.504318 
L 197.033663 149.671706 
L 197.373872 134.533237 
L 197.714115 64.669774 
L 198.054325 73.696048 
L 198.394568 137.567461 
L 198.734778 135.402765 
L 199.074987 90.398473 
L 199.75544 215.786392 
L 200.095683 164.39734 
L 200.435893 133.727211 
L 200.776102 192.895431 
L 201.116345 191.569716 
L 201.456555 187.256358 
L 201.796798 176.071234 
L 202.137008 169.21388 
L 202.477251 216.702884 
L 202.81746 166.887002 
L 203.15767 234.03406 
L 203.497913 205.674326 
L 203.838123 156.81051 
L 204.178366 170.142199 
L 204.858785 234.638202 
L 205.199028 164.832888 
L 205.539238 244.024969 
L 205.879481 244.024969 
L 206.21969 224.591711 
L 206.559934 224.604409 
L 206.900143 168.679532 
L 207.240353 216.586021 
L 207.580596 214.381816 
L 207.920805 192.862559 
L 208.261049 203.504673 
L 208.601258 196.593012 
L 208.941468 147.310633 
L 209.281711 230.394473 
L 209.62192 154.572881 
L 209.962164 172.834873 
L 210.302373 226.023594 
L 210.642616 217.097893 
L 211.323035 228.610397 
L 211.663279 225.593393 
L 212.003488 246.382254 
L 212.343731 249.433506 
L 212.683941 235.37886 
L 213.364394 289.476253 
L 213.704603 262.81884 
L 214.044846 190.945133 
L 214.385056 183.202727 
L 214.725265 230.783273 
L 215.065509 247.358916 
L 215.405718 246.336383 
L 215.745961 284.381363 
L 216.086171 272.621747 
L 216.426414 223.356733 
L 216.766624 238.654834 
L 217.106833 207.448369 
L 217.447076 211.594406 
L 217.787286 232.904037 
L 218.127529 203.184362 
L 218.467739 231.890747 
L 218.807982 206.831085 
L 219.148191 165.16647 
L 219.488401 149.628394 
L 219.828644 192.048116 
L 220.168854 185.86665 
L 220.509097 146.257315 
L 220.849306 161.613408 
L 221.189516 213.925173 
L 221.529759 194.078837 
L 221.869969 248.015111 
L 222.210212 245.912731 
L 222.550421 248.196663 
L 222.890631 273.52085 
L 223.230874 245.725974 
L 223.571084 246.497071 
L 223.911327 263.584883 
L 224.251536 286.291877 
L 224.59178 277.103035 
L 224.931989 225.714728 
L 225.272199 257.536335 
L 225.612442 207.112991 
L 225.952651 205.903889 
L 226.292895 191.077558 
L 226.633104 184.596518 
L 226.973314 208.523396 
L 227.313557 206.280775 
L 227.653766 186.111636 
L 227.99401 224.995098 
L 228.334219 182.792724 
L 228.674462 275.661724 
L 229.014672 240.44205 
L 229.354866 235.620907 
L 230.035319 231.698565 
L 230.715771 168.651349 
L 231.055981 216.575689 
L 231.396224 237.99482 
L 231.736434 180.916943 
L 232.076677 168.612457 
L 232.416886 206.45755 
L 233.097339 160.537429 
L 233.437549 216.909054 
L 233.777792 202.982946 
L 234.118001 244.578598 
L 234.458245 201.425632 
L 234.798454 184.242284 
L 235.138664 140.782776 
L 235.478907 158.789372 
L 235.819116 160.655052 
L 236.15936 145.823087 
L 236.499569 191.258954 
L 236.839779 112.310538 
L 237.180022 105.90267 
L 237.520231 184.397231 
L 237.860475 146.427919 
L 238.200684 190.74436 
L 238.540927 260.805635 
L 238.881137 213.063065 
L 239.221346 253.957654 
L 239.56159 178.695091 
L 239.901799 174.647607 
L 240.242042 248.648317 
L 240.582252 173.361648 
L 240.922461 209.534705 
L 241.262705 233.809772 
L 241.602914 207.739561 
L 241.943157 238.967786 
L 242.283367 131.98685 
L 242.62361 147.411609 
L 242.96382 113.452626 
L 243.304029 147.02439 
L 243.644272 132.597334 
L 243.984482 186.112581 
L 244.324725 184.677448 
L 244.664935 131.816631 
L 245.005144 145.120607 
L 245.345387 185.696894 
L 245.685597 145.653044 
L 246.02584 145.653044 
L 246.36605 139.223084 
L 246.706259 101.143131 
L 247.046503 168.623279 
L 247.386712 187.394196 
L 247.726955 229.786997 
L 248.067165 220.775671 
L 248.407408 221.1678 
L 248.747618 191.788032 
L 249.087827 118.655894 
L 250.108523 218.839961 
L 250.448733 223.021011 
L 250.788942 187.51326 
L 251.129185 180.507765 
L 251.469395 104.837166 
L 251.809638 113.493716 
L 252.149848 151.742382 
L 252.8303 208.255605 
L 253.17051 244.14158 
L 253.510753 213.814966 
L 253.850963 253.512928 
L 254.191206 157.098231 
L 254.531415 176.672641 
L 254.871625 120.85245 
L 255.211868 143.276849 
L 255.552078 150.730351 
L 255.892321 183.333227 
L 256.23253 149.473497 
L 256.57274 235.326617 
L 256.912983 212.560831 
L 257.253193 178.953493 
L 257.593436 215.879842 
L 257.933645 156.395501 
L 258.273889 116.84619 
L 258.614098 125.736091 
L 258.954308 154.223038 
L 259.294551 150.893618 
L 259.63476 134.90168 
L 259.975004 193.052389 
L 260.315213 191.694773 
L 260.655423 179.590026 
L 260.995666 189.439821 
L 261.335875 248.72617 
L 262.016328 132.168643 
L 262.356538 252.577293 
L 262.696781 149.07047 
L 263.03699 188.065046 
L 263.377232 129.017522 
L 263.717442 162.262719 
L 264.057685 178.773396 
L 264.397894 217.266335 
L 264.738104 196.338723 
L 265.078347 187.162734 
L 265.418557 186.075802 
L 265.7588 140.852639 
L 266.099009 195.470355 
L 266.439219 188.632879 
L 267.119672 151.868014 
L 267.800124 227.697741 
L 268.140334 208.669727 
L 268.480577 255.49314 
L 268.820787 225.15221 
L 269.16103 214.1129 
L 269.50124 217.491273 
L 270.181692 161.55887 
L 270.521902 156.269604 
L 270.862145 148.457459 
L 271.202355 185.799725 
L 271.882807 149.056582 
L 272.223017 168.067908 
L 272.56326 229.211561 
L 273.243713 177.953415 
L 273.924166 269.400922 
L 274.264375 288.984278 
L 274.604585 257.190789 
L 274.944828 190.186996 
L 275.285037 228.693416 
L 275.625281 233.9043 
L 275.96549 201.15072 
L 276.3057 234.877357 
L 276.645943 198.27135 
L 276.986152 138.721875 
L 277.326396 160.527447 
L 277.666605 214.340017 
L 278.006815 167.478535 
L 278.347058 165.593887 
L 278.687267 190.401996 
L 279.027511 146.533655 
L 279.707963 240.471445 
L 280.048173 221.547881 
L 280.388382 249.655408 
L 280.728626 261.262493 
L 281.068835 255.993209 
L 281.409078 239.533385 
L 281.749288 238.342478 
L 282.089497 251.331271 
L 282.76995 202.78646 
L 283.110193 203.423361 
L 283.450403 253.487115 
L 283.790612 330.615422 
L 284.130856 322.006461 
L 284.471065 248.347347 
L 284.811308 248.460093 
L 285.151518 198.738157 
L 285.491727 213.919591 
L 285.831971 247.853865 
L 286.17218 247.853865 
L 286.512423 200.096251 
L 286.852633 225.774301 
L 287.192876 281.048356 
L 287.533086 240.178717 
L 287.873295 242.110432 
L 288.213538 208.556449 
L 288.553748 227.805555 
L 288.893991 228.878768 
L 289.234201 244.185999 
L 289.914653 230.341577 
L 290.254863 199.712215 
L 290.595106 210.76152 
L 290.935316 252.2656 
L 291.275525 262.305615 
L 291.615768 260.731725 
L 291.955978 245.56879 
L 292.296221 239.175512 
L 292.636431 215.428705 
L 292.976674 204.741825 
L 293.316883 279.256292 
L 293.657093 297.249863 
L 293.997336 309.274771 
L 294.677789 272.557405 
L 295.017998 324.322211 
L 295.358208 245.129251 
L 295.698451 274.82505 
L 296.038661 251.734243 
L 296.719113 347.387017 
L 297.399571 312.790749 
L 297.73978 276.381439 
L 298.080023 277.173504 
L 298.420233 289.887884 
L 298.760476 228.527249 
L 299.100686 266.619068 
L 299.440895 233.72456 
L 299.781138 282.426733 
L 300.121348 277.487931 
L 300.461591 246.121987 
L 300.801801 251.059952 
L 301.14201 251.791708 
L 301.482253 276.360728 
L 301.822463 281.743743 
L 302.162706 327.806595 
L 302.843125 216.878395 
L 303.183368 292.896408 
L 303.523578 317.099994 
L 303.863821 227.191036 
L 304.204031 245.187016 
L 304.884483 171.78203 
L 305.224693 232.34084 
L 305.564936 167.806269 
L 305.905146 210.918883 
L 306.245389 164.582657 
L 306.585598 195.447763 
L 306.925808 184.309221 
L 307.606261 262.532938 
L 307.946504 277.967501 
L 308.286713 276.722685 
L 308.626923 166.968171 
L 308.967166 173.361587 
L 309.307376 186.126282 
L 309.647619 181.734187 
L 309.987828 135.986054 
L 310.328038 212.509642 
L 311.008491 111.227729 
L 311.348734 219.045348 
L 311.688943 164.964248 
L 312.029153 225.323113 
L 312.369396 210.38118 
L 312.709606 200.754389 
L 313.049849 235.839023 
L 313.390058 192.610687 
L 313.730302 183.453053 
L 314.070511 195.956212 
L 314.410721 230.636457 
L 314.750964 248.240767 
L 315.091173 252.96499 
L 315.431417 278.60198 
L 315.771626 288.150018 
L 317.132532 207.815944 
L 317.472741 215.067773 
L 317.812951 194.396488 
L 318.153194 200.914082 
L 318.493403 204.947437 
L 318.833647 194.305553 
L 319.173856 159.691158 
L 319.514099 172.611444 
L 319.854309 210.028916 
L 320.194518 183.936604 
L 320.534762 179.769065 
L 320.874971 226.543422 
L 321.215214 207.026187 
L 321.555424 206.365857 
L 321.895633 173.182859 
L 322.235877 234.789953 
L 322.576086 228.076916 
L 322.916329 236.494153 
L 323.256539 210.250979 
L 323.596748 209.328822 
L 323.936992 202.806542 
L 324.277201 216.748572 
L 324.617444 182.462117 
L 324.957654 180.304328 
L 325.297863 243.43123 
L 325.638107 229.923369 
L 325.978316 229.923369 
L 326.318559 224.060375 
L 326.658769 258.39453 
L 326.998978 308.950216 
L 327.339222 254.85184 
L 327.679431 292.473325 
L 328.019674 260.257636 
L 328.359884 250.264517 
L 328.700127 224.207395 
L 329.040337 291.198493 
L 329.380546 275.676175 
L 329.720789 254.715908 
L 330.060999 223.80147 
L 330.401242 273.216871 
L 331.421906 198.82544 
L 331.762115 233.979083 
L 332.102359 166.902292 
L 332.442568 260.243584 
L 332.782778 221.31215 
L 333.123021 281.247728 
L 333.46323 213.664765 
L 333.803474 235.748282 
L 334.143683 227.691571 
L 334.483893 207.761739 
L 334.824136 176.619937 
L 335.164345 235.957149 
L 335.504589 247.456647 
L 335.844798 161.851866 
L 336.185008 148.54186 
L 336.525251 222.813737 
L 336.86546 235.686703 
L 337.205704 165.517415 
L 337.545913 167.146188 
L 337.886156 148.68308 
L 338.226366 165.384233 
L 338.566575 247.41801 
L 338.906819 224.316253 
L 339.587271 200.441943 
L 339.927481 153.34393 
L 340.26769 202.872608 
L 340.607934 233.52636 
L 341.288386 248.657428 
L 341.628596 231.741321 
L 341.968805 246.391943 
L 342.309049 209.189214 
L 342.649258 210.834107 
L 342.989501 257.816773 
L 343.329711 228.391167 
L 343.66992 247.810596 
L 344.010164 222.612494 
L 344.350373 247.095977 
L 344.690616 248.754382 
L 345.030826 240.815981 
L 345.371035 208.377829 
L 345.711279 215.553319 
L 346.051488 270.800002 
L 346.731941 220.188424 
L 347.072184 263.067467 
L 347.412394 226.945877 
L 347.752603 223.970512 
L 348.092846 241.038016 
L 348.433056 233.096887 
L 348.773299 247.235823 
L 349.113509 288.545404 
L 349.453718 223.958144 
L 349.793961 228.199094 
L 350.134171 291.211122 
L 350.474414 232.994113 
L 350.814624 222.717463 
L 351.154833 144.444591 
L 351.495076 147.141727 
L 351.835286 207.275163 
L 352.175529 290.284645 
L 352.515739 271.35906 
L 352.855948 188.752452 
L 353.196191 244.785433 
L 353.536401 233.528761 
L 353.876644 239.876281 
L 354.216854 218.499055 
L 354.557063 265.998481 
L 354.897306 288.762868 
L 355.237516 212.175347 
L 355.577759 235.856065 
L 355.917969 248.12323 
L 356.258178 240.263513 
L 356.598421 238.627202 
L 356.938631 253.504532 
L 357.619084 269.837112 
L 357.959327 283.120674 
L 358.299536 226.089689 
L 358.639746 236.834185 
L 358.979989 179.375292 
L 359.660442 225.12489 
L 360.000651 187.577942 
L 360.340861 274.973644 
L 360.681104 183.418466 
L 361.021314 236.029293 
L 361.361557 208.485368 
L 361.701766 162.546819 
L 362.041976 199.247122 
L 362.382219 191.714313 
L 362.722429 180.525055 
L 363.062672 184.57634 
L 363.402881 257.707276 
L 363.743091 279.606748 
L 364.083334 279.276243 
L 364.423544 245.155478 
L 364.763787 267.80741 
L 365.103995 228.907985 
L 365.444205 240.340103 
L 365.784448 247.710054 
L 366.124657 247.710054 
L 366.80511 316.027468 
L 367.14532 208.148377 
L 367.485563 209.805783 
L 367.825772 216.026473 
L 368.166016 216.590254 
L 368.506225 205.290466 
L 368.846435 240.698396 
L 369.186678 247.925447 
L 369.526887 304.837163 
L 369.867131 240.195507 
L 370.20734 243.397989 
L 370.54755 286.48957 
L 370.887793 276.639004 
L 371.228002 258.685213 
L 371.568246 232.483961 
L 371.908455 296.335715 
L 372.588908 227.989179 
L 372.929117 251.16267 
L 373.269361 263.290026 
L 373.60957 294.273002 
L 373.949813 274.706312 
L 374.290023 314.5713 
L 374.630232 267.010963 
L 374.970476 254.602896 
L 375.310685 253.974236 
L 375.991138 202.845364 
L 376.331347 267.945008 
L 376.671591 223.909291 
L 377.0118 218.811753 
L 377.352043 229.442959 
L 377.692253 248.47161 
L 378.032462 229.804541 
L 378.372706 259.943457 
L 378.712915 220.638362 
L 379.053158 198.040734 
L 379.393368 214.561555 
L 379.733577 207.766782 
L 380.073821 196.537933 
L 380.41403 190.256738 
L 380.754273 218.704098 
L 381.434692 172.154341 
L 381.774936 178.563055 
L 382.115145 140.789784 
L 382.455388 156.3493 
L 382.795598 188.758565 
L 383.476051 164.038068 
L 383.81626 223.635477 
L 384.156503 240.298874 
L 384.496713 276.439326 
L 384.836922 251.247605 
L 385.177166 238.986416 
L 385.517375 204.270555 
L 385.857618 208.00369 
L 386.197828 217.748354 
L 386.538037 237.595081 
L 386.878281 241.825722 
L 387.21849 182.69662 
L 387.558733 218.570109 
L 388.239186 205.63156 
L 388.579396 228.499297 
L 389.259848 162.838475 
L 389.600058 200.713943 
L 389.940301 180.778925 
L 390.280511 258.704256 
L 390.62072 273.961239 
L 390.960963 258.917055 
L 391.301173 298.698914 
L 391.641416 246.6291 
L 391.981626 228.17976 
L 392.321835 253.678299 
L 392.662078 218.142278 
L 393.002288 212.273861 
L 393.342531 263.118069 
L 393.682741 241.909063 
L 394.363193 185.21032 
L 394.703403 251.909084 
L 395.383856 197.723291 
L 395.724065 179.215175 
L 396.064308 212.673012 
L 396.404518 278.904559 
L 396.744761 278.189029 
L 397.084971 242.780687 
L 397.42518 241.175063 
L 397.765423 244.09741 
L 398.105633 306.606251 
L 398.445876 266.064087 
L 398.786081 272.875475 
L 399.126291 274.027123 
L 399.466534 253.717504 
L 399.806744 299.024386 
L 400.146987 261.194523 
L 400.487196 336.876959 
L 401.167649 232.355143 
L 401.507859 212.59025 
L 401.848102 251.54691 
L 402.188311 246.772867 
L 402.528521 264.394046 
L 402.868764 211.458875 
L 403.208974 267.684669 
L 403.549217 271.6277 
L 403.889426 235.476896 
L 404.229636 249.264729 
L 404.569879 204.914709 
L 404.910089 288.187844 
L 405.250332 261.486225 
L 405.590541 261.486225 
L 405.930751 358.841648 
L 406.270994 358.841648 
L 406.611204 270.252926 
L 406.951447 224.361869 
L 407.291656 297.747884 
L 407.631866 336.221265 
L 407.972109 300.09444 
L 408.312319 280.809283 
L 408.652562 234.203212 
L 408.992771 214.780609 
L 409.332981 217.015654 
L 409.673224 265.41477 
L 410.013434 222.59881 
L 410.353677 293.05797 
L 410.693886 269.624799 
L 411.034096 278.225889 
L 411.374339 318.479021 
L 411.714549 267.489908 
L 412.054792 297.669475 
L 412.395001 234.675658 
L 412.735211 220.235308 
L 413.075454 267.325269 
L 413.415664 240.637542 
L 413.755907 297.446423 
L 414.096116 253.646611 
L 414.436326 284.129569 
L 414.776569 239.871159 
L 415.457022 299.724234 
L 415.797231 289.317189 
L 416.137441 234.680702 
L 416.477684 211.506478 
L 416.817894 225.038629 
L 417.158137 229.974414 
L 417.498346 296.301722 
L 417.838556 243.250542 
L 418.178799 301.158367 
L 418.519009 245.888995 
L 418.859252 307.787021 
L 419.199461 242.84018 
L 419.539671 248.425434 
L 419.879914 220.793071 
L 420.220124 279.661648 
L 420.560367 237.067736 
L 420.900576 254.863406 
L 421.581029 246.128643 
L 421.921239 273.753045 
L 422.261482 280.473198 
L 422.601691 259.381203 
L 422.941901 301.250984 
L 423.282144 298.222597 
L 423.622354 269.472679 
L 423.962597 266.465948 
L 424.302806 283.869021 
L 424.643016 227.880935 
L 424.983259 215.376373 
L 425.663712 250.249331 
L 426.003921 225.133064 
L 426.344131 260.155739 
L 426.684374 266.758156 
L 427.024584 217.558981 
L 427.364827 222.291385 
L 427.705036 323.440995 
L 428.045246 284.170803 
L 428.385489 287.918426 
L 428.725699 301.266845 
L 429.065942 309.691113 
L 429.406151 323.212196 
L 430.086604 298.594468 
L 430.426814 326.387813 
L 430.767057 302.386554 
L 431.107266 342.035294 
L 431.447476 264.477927 
L 431.787719 250.06794 
L 432.127929 267.835647 
L 432.468172 275.96177 
L 432.808381 270.544129 
L 433.148591 296.559481 
L 433.488834 240.684698 
L 433.829044 251.803635 
L 434.169287 291.940314 
L 434.509496 268.981267 
L 434.849706 287.690819 
L 435.189949 326.692753 
L 435.530159 324.021118 
L 435.870402 281.756308 
L 436.210611 313.694744 
L 436.550821 313.133917 
L 436.891064 271.465016 
L 437.231274 273.284407 
L 437.571517 295.559199 
L 438.251936 241.124693 
L 438.592179 281.187478 
L 438.932389 254.226315 
L 439.272632 297.612136 
L 439.612841 272.719795 
L 439.953051 311.500052 
L 440.293294 277.812378 
L 440.633504 231.189875 
L 440.973747 285.470818 
L 441.313956 304.742751 
L 441.654166 256.945813 
L 441.994409 316.328036 
L 442.334619 268.55149 
L 442.674862 294.23139 
L 443.015071 329.719878 
L 443.355281 265.695647 
L 443.695524 281.552145 
L 444.035734 253.96073 
L 444.375977 300.598539 
L 445.056396 269.764636 
L 445.396639 269.225769 
L 445.736849 291.022274 
L 446.077092 291.022274 
L 446.417301 297.684893 
L 446.757511 254.758355 
L 447.097754 234.243988 
L 447.437964 251.804819 
L 447.778207 239.662382 
L 448.118416 273.92156 
L 448.458626 272.304948 
L 448.798869 277.866604 
L 449.139079 286.234453 
L 449.479322 315.848575 
L 450.159741 273.991969 
L 450.499984 287.218912 
L 450.840194 318.894703 
L 451.180437 298.69154 
L 451.520646 306.324924 
L 451.860856 271.252279 
L 452.201099 296.670147 
L 452.541309 306.345999 
L 453.221761 270.259027 
L 453.561971 310.119214 
L 453.902214 298.418004 
L 454.242424 315.984441 
L 454.582633 339.811197 
L 454.922876 330.809861 
L 455.263086 336.900539 
L 455.943539 256.380751 
L 456.283782 263.08115 
L 456.623991 325.241673 
L 456.964201 287.013155 
L 457.304444 338.794546 
L 457.644654 344.140355 
L 457.984863 276.474974 
L 458.325106 303.660418 
L 458.665316 303.490535 
L 459.005559 294.60401 
L 459.345769 270.200223 
L 459.685978 321.720013 
L 460.026221 325.770265 
L 460.366431 262.137277 
L 460.706674 293.409428 
L 461.387093 376.399483 
L 461.727336 364.386817 
L 462.067546 346.925308 
L 462.407789 337.6896 
L 462.747999 360.247923 
L 463.088208 357.396746 
L 463.428451 393.676833 
L 463.768661 401.44211 
L 464.108904 402.602984 
L 464.449114 376.266691 
L 464.789323 358.592 
L 465.129566 356.493441 
L 465.469776 392.263209 
L 465.810019 376.116931 
L 466.150229 323.216008 
L 466.490444 321.090164 
L 466.830687 308.42579 
L 467.170897 360.502014 
L 467.51114 349.106917 
L 467.851349 355.370899 
L 468.191559 328.855497 
L 468.531802 267.837612 
L 469.552464 339.52195 
L 469.892674 308.861381 
L 470.232917 305.38312 
L 470.573127 294.908162 
L 470.913336 343.817652 
L 471.253579 320.249677 
L 471.934032 294.77895 
L 472.274242 322.27849 
L 472.614451 255.369687 
L 472.954694 294.836026 
L 473.294904 298.947363 
L 473.635147 328.824406 
L 473.975357 267.581562 
L 474.315566 314.146254 
L 474.655809 286.816582 
L 474.996019 338.930904 
L 475.336262 373.348139 
L 475.676472 366.391821 
L 476.016681 364.575209 
L 476.356924 414.957188 
L 476.697134 362.035593 
L 477.717796 316.001797 
L 478.058039 271.955068 
L 478.398249 267.636997 
L 478.738492 264.763641 
L 479.078702 346.978074 
L 479.418911 302.222029 
L 479.759154 316.517313 
L 480.099364 336.717116 
L 480.439607 340.283316 
L 480.779817 339.312395 
L 481.120026 307.89232 
L 481.460269 319.809654 
L 482.140688 256.471337 
L 482.480932 328.119512 
L 482.821141 275.697104 
L 483.161384 323.220633 
L 483.501594 300.427114 
L 483.841803 324.571129 
L 484.182047 310.211653 
L 484.522256 338.45583 
L 484.862499 344.139004 
L 485.202709 326.296691 
L 485.542918 391.877541 
L 485.883162 391.877541 
L 486.223371 360.178176 
L 486.563614 270.007163 
L 486.903824 334.549557 
L 487.244033 249.753021 
L 487.584277 323.006421 
L 487.924486 305.739137 
L 488.264729 344.471721 
L 488.604939 358.352952 
L 488.945148 367.677777 
L 489.285392 321.190392 
L 489.625601 334.191021 
L 489.965811 334.003741 
L 490.306054 325.239899 
L 490.646263 340.829808 
L 490.986507 336.270578 
L 491.326716 285.737018 
L 491.666959 310.67897 
L 492.347378 253.893394 
L 492.687622 250.319111 
L 493.027831 281.88038 
L 493.368041 279.006816 
L 493.708284 281.210663 
L 494.048493 266.426848 
L 494.388737 292.864312 
L 494.728946 277.173962 
L 495.069156 267.334011 
L 495.409399 296.914867 
L 495.749608 261.051539 
L 496.089852 278.586411 
L 496.430061 263.062327 
L 497.110514 208.960414 
L 497.450723 216.617652 
L 498.131176 266.934105 
L 498.811629 222.609141 
L 499.151838 205.212353 
L 499.492048 198.124622 
L 499.832291 238.09803 
L 500.172501 236.682769 
L 500.51276 239.195168 
L 500.852969 236.071282 
L 501.193178 198.745878 
L 501.533422 213.781158 
L 501.873631 214.249399 
L 502.213875 227.964226 
L 502.554084 215.914085 
L 503.234537 150.367994 
L 503.91499 230.343948 
L 504.255199 232.985298 
L 504.595408 238.80714 
L 504.935652 236.086887 
L 505.275861 213.404991 
L 505.616105 248.199963 
L 505.956314 188.657413 
L 506.296523 154.677139 
L 506.976976 191.544663 
L 507.317186 189.253352 
L 507.657429 228.099347 
L 507.997638 209.649699 
L 508.337882 225.19451 
L 508.678091 144.404439 
L 509.018301 215.813159 
L 509.358544 200.26465 
L 509.698753 164.971028 
L 510.038997 213.760497 
L 510.379206 215.260831 
L 510.719416 252.277114 
L 511.059659 224.358019 
L 511.399868 264.047287 
L 511.740112 268.739345 
L 512.080321 222.487561 
L 512.760774 240.889584 
L 513.100984 207.300973 
L 513.441227 210.871172 
L 513.781436 229.546851 
L 514.121646 212.815018 
L 514.461889 236.418646 
L 514.802099 230.268255 
L 515.142308 283.801631 
L 515.482551 252.434322 
L 515.822761 239.799395 
L 516.163004 253.282966 
L 516.843423 190.485301 
L 517.183666 178.281111 
L 517.523876 158.66374 
L 517.864119 175.867828 
L 518.204329 211.682966 
L 518.544538 213.774429 
L 518.884781 194.165933 
L 519.224991 215.78079 
L 519.565234 199.047452 
L 519.905444 202.182904 
L 520.245653 195.342137 
L 520.585896 218.88355 
L 520.926106 198.878771 
L 521.266315 163.948807 
L 521.606559 248.55412 
L 521.946768 170.713459 
L 522.287011 197.201406 
L 522.627221 197.02603 
L 522.96743 217.633026 
L 523.307674 222.512407 
L 523.647883 171.048721 
L 523.988126 202.650756 
L 524.328336 134.805413 
L 524.668545 139.156096 
L 525.008789 170.456406 
L 525.348998 180.206462 
L 525.689241 223.925986 
L 526.029451 223.925986 
L 526.36966 173.410969 
L 526.709904 163.882584 
L 527.050113 163.790869 
L 527.730566 95.981341 
L 528.070775 126.07468 
L 528.411019 101.368033 
L 528.751228 168.394881 
L 529.091437 159.194665 
L 529.431681 121.56412 
L 529.77189 173.421978 
L 530.112134 193.109185 
L 530.452343 195.249799 
L 530.792552 227.350161 
L 531.132796 274.937873 
L 531.473005 271.479931 
L 531.813215 195.656595 
L 532.153458 252.159653 
L 532.493667 260.472618 
L 532.833911 261.681588 
L 533.17412 202.884475 
L 533.51433 263.072365 
L 533.854573 267.887958 
L 534.194779 245.538649 
L 534.535023 233.651393 
L 534.875232 230.336867 
L 535.215442 259.649581 
L 535.895894 216.687179 
L 536.236138 272.212946 
L 536.576347 270.991831 
L 536.916557 259.870668 
L 537.2568 264.988659 
L 537.597009 275.614461 
L 537.937219 266.102747 
L 538.277462 274.980861 
L 538.617672 245.248685 
L 538.957915 245.165545 
L 539.298124 239.132529 
L 539.638334 274.381439 
L 539.978577 251.985107 
L 540.318787 243.906923 
L 540.65903 314.82028 
L 540.999239 327.822008 
L 541.339449 253.880214 
L 541.679692 281.392633 
L 542.019902 270.378636 
L 542.360111 304.792852 
L 542.700354 244.011641 
L 543.040564 208.049922 
L 543.380807 237.247119 
L 543.721017 251.779645 
L 544.061226 293.185123 
L 544.401469 248.919456 
L 544.741679 260.061887 
L 545.081922 235.500741 
L 545.422132 235.911618 
L 545.762341 204.028586 
L 546.442794 237.03028 
L 546.783003 266.144925 
L 547.123247 259.886565 
L 547.463456 306.611739 
L 547.803699 289.720479 
L 548.143909 296.131429 
L 548.484118 252.458297 
L 548.824362 248.787811 
L 549.504814 210.871815 
L 549.845024 256.846855 
L 550.185233 266.457131 
L 550.525477 237.032164 
L 550.865686 273.409101 
L 551.205929 180.794194 
L 551.546139 179.660668 
L 551.886348 194.274794 
L 552.226592 200.660304 
L 552.566801 235.553686 
L 552.907011 214.109391 
L 553.247254 199.965144 
L 553.587463 232.153069 
L 553.927707 188.006048 
L 554.267916 236.216329 
L 554.608126 224.053561 
L 554.948369 181.222355 
L 555.288578 199.569426 
L 555.628822 163.042383 
L 555.969031 226.872822 
L 556.309241 228.614657 
L 556.649484 180.045282 
L 556.989693 186.82568 
L 557.329903 149.100551 
L 557.670146 137.451572 
L 558.010356 169.208787 
L 558.350599 178.678176 
L 558.690808 174.996169 
L 559.031018 145.373584 
L 559.711471 205.727382 
L 560.051714 142.349385 
L 560.391923 122.931283 
L 560.732133 136.184347 
L 561.072376 161.089663 
L 561.412586 170.13413 
L 562.093038 228.496646 
L 562.433248 167.348343 
L 562.773491 205.258593 
L 563.113701 156.101456 
L 563.45391 189.7392 
L 563.794153 165.444396 
L 564.134363 226.906772 
L 564.474606 239.099931 
L 564.814816 240.375445 
L 565.155025 200.607398 
L 565.495268 231.17825 
L 565.835478 217.016648 
L 566.175687 217.016648 
L 566.515931 204.083928 
L 566.85614 229.569111 
L 567.196383 244.882838 
L 567.536593 278.966636 
L 567.876802 218.654677 
L 568.217029 236.000974 
L 568.557238 238.124612 
L 568.897448 228.973599 
L 569.237691 278.097058 
L 569.5779 215.312013 
L 569.918144 179.192342 
L 570.258353 187.642223 
L 570.598563 218.187092 
L 570.938806 216.801273 
L 571.279015 231.520175 
L 571.619259 225.054958 
L 572.299678 200.364691 
L 572.639921 232.956433 
L 573.32034 156.552802 
L 573.660583 187.614738 
L 574.000793 193.748614 
L 574.681245 135.7401 
L 575.021455 164.862793 
L 575.361698 214.344107 
L 575.701908 203.440822 
L 576.38236 168.085475 
L 576.72257 252.321488 
L 577.062813 218.871742 
L 577.403023 206.380585 
L 577.743232 243.080512 
L 578.083475 252.545309 
L 578.423685 227.663428 
L 578.763928 235.244079 
L 579.104138 227.055337 
L 579.444347 238.303554 
L 579.78459 225.078514 
L 580.1248 216.474693 
L 580.465009 186.182294 
L 580.805253 197.036144 
L 581.145462 129.432667 
L 581.485705 229.750196 
L 581.825915 195.904402 
L 582.166124 150.609546 
L 582.506368 134.196143 
L 582.846577 140.547055 
L 583.186787 134.742017 
L 583.52703 180.996475 
L 583.867239 135.161021 
L 584.207483 158.929157 
L 584.547692 220.127723 
L 584.887902 231.779528 
L 585.228145 189.587262 
L 585.908598 200.553265 
L 586.248807 193.167523 
L 586.589017 215.533096 
L 586.92926 197.512673 
L 587.269469 158.915743 
L 587.609679 145.343824 
L 587.949922 106.888626 
L 588.290132 157.52387 
L 588.630375 178.974944 
L 588.970584 189.383661 
L 589.310794 258.643126 
L 589.651037 187.471431 
L 589.991247 200.213034 
L 590.331456 177.350489 
L 590.671699 202.398559 
L 591.011909 157.848487 
L 591.352152 244.295244 
L 591.692362 230.904703 
L 592.032571 258.455782 
L 592.372814 171.88557 
L 592.713024 209.665496 
L 593.053233 229.666338 
L 593.393477 212.632796 
L 593.733686 203.009004 
L 594.414139 234.471977 
L 594.754348 278.304059 
L 595.094592 280.913343 
L 595.434801 208.218413 
L 595.434801 208.218413 
" clip-path="url(#pd0add3d2d5)" style="fill: none; stroke: #1f77b4; stroke-width: 2; stroke-linecap: square"/>
   </g>
   <g id="patch_3">
    <path d="M 62.798438 414.957188 
L 62.798438 26.877188 
" style="fill: none; stroke: #808080; stroke-width: 2; stroke-linejoin: miter; stroke-linecap: square"/>
   </g>
   <g id="patch_4">
    <path d="M 62.798438 414.957187 
L 620.798438 414.957187 
" style="fill: none; stroke: #808080; stroke-width: 2; stroke-linejoin: miter; stroke-linecap: square"/>
   </g>
   <g id="text_16">
    <!-- Vemund-Tyholt_restart-vinkel -->
    <g style="fill: #808080" transform="translate(211.870781 20.877187) scale(0.18 -0.18)">
     <defs>
      <path id="DejaVuSans-56" d="M 1831 0 
L 50 4666 
L 709 4666 
L 2188 738 
L 3669 4666 
L 4325 4666 
L 2547 0 
L 1831 0 
z
" transform="scale(0.015625)"/>
      <path id="DejaVuSans-75" d="M 544 1381 
L 544 3500 
L 1119 3500 
L 1119 1403 
Q 1119 906 1312 657 
Q 1506 409 1894 409 
Q 2359 409 2629 706 
Q 2900 1003 2900 1516 
L 2900 3500 
L 3475 3500 
L 3475 0 
L 2900 0 
L 2900 538 
Q 2691 219 2414 64 
Q 2138 -91 1772 -91 
Q 1169 -91 856 284 
Q 544 659 544 1381 
z
M 1991 3584 
L 1991 3584 
z
" transform="scale(0.015625)"/>
      <path id="DejaVuSans-6e" d="M 3513 2113 
L 3513 0 
L 2938 0 
L 2938 2094 
Q 2938 2591 2744 2837 
Q 2550 3084 2163 3084 
Q 1697 3084 1428 2787 
Q 1159 2491 1159 1978 
L 1159 0 
L 581 0 
L 581 3500 
L 1159 3500 
L 1159 2956 
Q 1366 3272 1645 3428 
Q 1925 3584 2291 3584 
Q 2894 3584 3203 3211 
Q 3513 2838 3513 2113 
z
" transform="scale(0.015625)"/>
      <path id="DejaVuSans-2d" d="M 313 2009 
L 1997 2009 
L 1997 1497 
L 313 1497 
L 313 2009 
z
" transform="scale(0.015625)"/>
      <path id="DejaVuSans-54" d="M -19 4666 
L 3928 4666 
L 3928 4134 
L 2272 4134 
L 2272 0 
L 1638 0 
L 1638 4134 
L -19 4134 
L -19 4666 
z
" transform="scale(0.015625)"/>
      <path id="DejaVuSans-79" d="M 2059 -325 
Q 1816 -950 1584 -1140 
Q 1353 -1331 966 -1331 
L 506 -1331 
L 506 -850 
L 844 -850 
Q 1081 -850 1212 -737 
Q 1344 -625 1503 -206 
L 1606 56 
L 191 3500 
L 800 3500 
L 1894 763 
L 2988 3500 
L 3597 3500 
L 2059 -325 
z
" transform="scale(0.015625)"/>
      <path id="DejaVuSans-68" d="M 3513 2113 
L 3513 0 
L 2938 0 
L 2938 2094 
Q 2938 2591 2744 2837 
Q 2550 3084 2163 3084 
Q 1697 3084 1428 2787 
Q 1159 2491 1159 1978 
L 1159 0 
L 581 0 
L 581 4863 
L 1159 4863 
L 1159 2956 
Q 1366 3272 1645 3428 
Q 1925 3584 2291 3584 
Q 2894 3584 3203 3211 
Q 3513 2838 3513 2113 
z
" transform="scale(0.015625)"/>
      <path id="DejaVuSans-6f" d="M 1959 3097 
Q 1497 3097 1228 2736 
Q 959 2375 959 1747 
Q 959 1119 1226 758 
Q 1494 397 1959 397 
Q 2419 397 2687 759 
Q 2956 1122 2956 1747 
Q 2956 2369 2687 2733 
Q 2419 3097 1959 3097 
z
M 1959 3584 
Q 2709 3584 3137 3096 
Q 3566 2609 3566 1747 
Q 3566 888 3137 398 
Q 2709 -91 1959 -91 
Q 1206 -91 779 398 
Q 353 888 353 1747 
Q 353 2609 779 3096 
Q 1206 3584 1959 3584 
z
" transform="scale(0.015625)"/>
      <path id="DejaVuSans-6c" d="M 603 4863 
L 1178 4863 
L 1178 0 
L 603 0 
L 603 4863 
z
" transform="scale(0.015625)"/>
      <path id="DejaVuSans-5f" d="M 3263 -1063 
L 3263 -1509 
L -63 -1509 
L -63 -1063 
L 3263 -1063 
z
" transform="scale(0.015625)"/>
      <path id="DejaVuSans-72" d="M 2631 2963 
Q 2534 3019 2420 3045 
Q 2306 3072 2169 3072 
Q 1681 3072 1420 2755 
Q 1159 2438 1159 1844 
L 1159 0 
L 581 0 
L 581 3500 
L 1159 3500 
L 1159 2956 
Q 1341 3275 1631 3429 
Q 1922 3584 2338 3584 
Q 2397 3584 2469 3576 
Q 2541 3569 2628 3553 
L 2631 2963 
z
" transform="scale(0.015625)"/>
      <path id="DejaVuSans-61" d="M 2194 1759 
Q 1497 1759 1228 1600 
Q 959 1441 959 1056 
Q 959 750 1161 570 
Q 1363 391 1709 391 
Q 2188 391 2477 730 
Q 2766 1069 2766 1631 
L 2766 1759 
L 2194 1759 
z
M 3341 1997 
L 3341 0 
L 2766 0 
L 2766 531 
Q 2569 213 2275 61 
Q 1981 -91 1556 -91 
Q 1019 -91 701 211 
Q 384 513 384 1019 
Q 384 1609 779 1909 
Q 1175 2209 1959 2209 
L 2766 2209 
L 2766 2266 
Q 2766 2663 2505 2880 
Q 2244 3097 1772 3097 
Q 1472 3097 1187 3025 
Q 903 2953 641 2809 
L 641 3341 
Q 956 3463 1253 3523 
Q 1550 3584 1831 3584 
Q 2591 3584 2966 3190 
Q 3341 2797 3341 1997 
z
" transform="scale(0.015625)"/>
      <path id="DejaVuSans-76" d="M 191 3500 
L 800 3500 
L 1894 563 
L 2988 3500 
L 3597 3500 
L 2284 0 
L 1503 0 
L 191 3500 
z
" transform="scale(0.015625)"/>
      <path id="DejaVuSans-6b" d="M 581 4863 
L 1159 4863 
L 1159 1991 
L 2875 3500 
L 3609 3500 
L 1753 1863 
L 3688 0 
L 2938 0 
L 1159 1709 
L 1159 0 
L 581 0 
L 581 4863 
z
" transform="scale(0.015625)"/>
     </defs>
     <use xlink:href="#DejaVuSans-56"/>
     <use xlink:href="#DejaVuSans-65" x="60.658203"/>
     <use xlink:href="#DejaVuSans-6d" x="122.181641"/>
     <use xlink:href="#DejaVuSans-75" x="219.59375"/>
     <use xlink:href="#DejaVuSans-6e" x="282.972656"/>
     <use xlink:href="#DejaVuSans-64" x="346.351562"/>
     <use xlink:href="#DejaVuSans-2d" x="409.828125"/>
     <use xlink:href="#DejaVuSans-54" x="436.787109"/>
     <use xlink:href="#DejaVuSans-79" x="482.246094"/>
     <use xlink:href="#DejaVuSans-68" x="541.425781"/>
     <use xlink:href="#DejaVuSans-6f" x="604.804688"/>
     <use xlink:href="#DejaVuSans-6c" x="665.986328"/>
     <use xlink:href="#DejaVuSans-74" x="693.769531"/>
     <use xlink:href="#DejaVuSans-5f" x="732.978516"/>
     <use xlink:href="#DejaVuSans-72" x="782.978516"/>
     <use xlink:href="#DejaVuSans-65" x="821.841797"/>
     <use xlink:href="#DejaVuSans-73" x="883.365234"/>
     <use xlink:href="#DejaVuSans-74" x="935.464844"/>
     <use xlink:href="#DejaVuSans-61" x="974.673828"/>
     <use xlink:href="#DejaVuSans-72" x="1035.953125"/>
     <use xlink:href="#DejaVuSans-74" x="1077.066406"/>
     <use xlink:href="#DejaVuSans-2d" x="1116.275391"/>
     <use xlink:href="#DejaVuSans-76" x="1149.734375"/>
     <use xlink:href="#DejaVuSans-69" x="1208.914062"/>
     <use xlink:href="#DejaVuSans-6e" x="1236.697266"/>
     <use xlink:href="#DejaVuSans-6b" x="1300.076172"/>
     <use xlink:href="#DejaVuSans-65" x="1354.361328"/>
     <use xlink:href="#DejaVuSans-6c" x="1415.884766"/>
    </g>
   </g>
   <g id="legend_1">
    <g id="patch_5">
     <path d="M 345.752344 61.311562 
L 610.298437 61.311562 
Q 613.298437 61.311562 613.298437 58.311562 
L 613.298437 37.377187 
Q 613.298437 34.377187 610.298437 34.377187 
L 345.752344 34.377187 
Q 342.752344 34.377187 342.752344 37.377187 
L 342.752344 58.311562 
Q 342.752344 61.311562 345.752344 61.311562 
z
" style="fill: #ffffff; opacity: 0.8; stroke: #cccccc; stroke-linejoin: miter"/>
    </g>
    <g id="line2d_28">
     <path d="M 348.752344 46.524844 
L 363.752344 46.524844 
L 378.752344 46.524844 
" style="fill: none; stroke: #1f77b4; stroke-width: 2; stroke-linecap: square"/>
    </g>
    <g id="text_17">
     <!-- Vemund-Tyholt_restart-vinkel -->
     <g style="fill: #808080" transform="translate(390.752344 51.774844) scale(0.15 -0.15)">
      <use xlink:href="#DejaVuSans-56"/>
      <use xlink:href="#DejaVuSans-65" x="60.658203"/>
      <use xlink:href="#DejaVuSans-6d" x="122.181641"/>
      <use xlink:href="#DejaVuSans-75" x="219.59375"/>
      <use xlink:href="#DejaVuSans-6e" x="282.972656"/>
      <use xlink:href="#DejaVuSans-64" x="346.351562"/>
      <use xlink:href="#DejaVuSans-2d" x="409.828125"/>
      <use xlink:href="#DejaVuSans-54" x="436.787109"/>
      <use xlink:href="#DejaVuSans-79" x="482.246094"/>
      <use xlink:href="#DejaVuSans-68" x="541.425781"/>
      <use xlink:href="#DejaVuSans-6f" x="604.804688"/>
      <use xlink:href="#DejaVuSans-6c" x="665.986328"/>
      <use xlink:href="#DejaVuSans-74" x="693.769531"/>
      <use xlink:href="#DejaVuSans-5f" x="732.978516"/>
      <use xlink:href="#DejaVuSans-72" x="782.978516"/>
      <use xlink:href="#DejaVuSans-65" x="821.841797"/>
      <use xlink:href="#DejaVuSans-73" x="883.365234"/>
      <use xlink:href="#DejaVuSans-74" x="935.464844"/>
      <use xlink:href="#DejaVuSans-61" x="974.673828"/>
      <use xlink:href="#DejaVuSans-72" x="1035.953125"/>
      <use xlink:href="#DejaVuSans-74" x="1077.066406"/>
      <use xlink:href="#DejaVuSans-2d" x="1116.275391"/>
      <use xlink:href="#DejaVuSans-76" x="1149.734375"/>
      <use xlink:href="#DejaVuSans-69" x="1208.914062"/>
      <use xlink:href="#DejaVuSans-6e" x="1236.697266"/>
      <use xlink:href="#DejaVuSans-6b" x="1300.076172"/>
      <use xlink:href="#DejaVuSans-65" x="1354.361328"/>
      <use xlink:href="#DejaVuSans-6c" x="1415.884766"/>
     </g>
    </g>
   </g>
  </g>
 </g>
 <defs>
  <clipPath id="pd0add3d2d5">
   <rect x="62.798438" y="26.877187" width="558" height="388.08"/>
  </clipPath>
 </defs>
</svg>
