<?xml version="1.0" encoding="utf-8" standalone="no"?>
<!DOCTYPE svg PUBLIC "-//W3C//DTD SVG 1.1//EN"
  "http://www.w3.org/Graphics/SVG/1.1/DTD/svg11.dtd">
<svg xmlns:xlink="http://www.w3.org/1999/xlink" width="460.8pt" height="345.6pt" viewBox="0 0 460.8 345.6" xmlns="http://www.w3.org/2000/svg" version="1.1">
 <metadata>
  <rdf:RDF xmlns:dc="http://purl.org/dc/elements/1.1/" xmlns:cc="http://creativecommons.org/ns#" xmlns:rdf="http://www.w3.org/1999/02/22-rdf-syntax-ns#">
   <cc:Work>
    <dc:type rdf:resource="http://purl.org/dc/dcmitype/StillImage"/>
    <dc:date>2023-04-17T15:21:33.893771</dc:date>
    <dc:format>image/svg+xml</dc:format>
    <dc:creator>
     <cc:Agent>
      <dc:title>Matplotlib v3.7.1, https://matplotlib.org/</dc:title>
     </cc:Agent>
    </dc:creator>
   </cc:Work>
  </rdf:RDF>
 </metadata>
 <defs>
  <style type="text/css">*{stroke-linejoin: round; stroke-linecap: butt}</style>
 </defs>
 <g id="figure_1">
  <g id="patch_1">
   <path d="M 0 345.6 
L 460.8 345.6 
L 460.8 0 
L 0 0 
z
" style="fill: #ffffff"/>
  </g>
  <g id="axes_1">
   <g id="patch_2">
    <path d="M 57.6 307.584 
L 414.72 307.584 
L 414.72 41.472 
L 57.6 41.472 
z
" style="fill: #ffffff"/>
   </g>
   <g id="matplotlib.axis_1">
    <g id="xtick_1">
     <g id="line2d_1">
      <defs>
       <path id="m490b0f7ca1" d="M 0 0 
L 0 3.5 
" style="stroke: #000000; stroke-width: 0.8"/>
      </defs>
      <g>
       <use xlink:href="#m490b0f7ca1" x="74.059021" y="307.584" style="stroke: #000000; stroke-width: 0.8"/>
      </g>
     </g>
     <g id="text_1">
      <!-- 30 -->
      <g transform="translate(67.696521 322.182437) scale(0.1 -0.1)">
       <defs>
        <path id="DejaVuSans-33" d="M 2597 2516 
Q 3050 2419 3304 2112 
Q 3559 1806 3559 1356 
Q 3559 666 3084 287 
Q 2609 -91 1734 -91 
Q 1441 -91 1130 -33 
Q 819 25 488 141 
L 488 750 
Q 750 597 1062 519 
Q 1375 441 1716 441 
Q 2309 441 2620 675 
Q 2931 909 2931 1356 
Q 2931 1769 2642 2001 
Q 2353 2234 1838 2234 
L 1294 2234 
L 1294 2753 
L 1863 2753 
Q 2328 2753 2575 2939 
Q 2822 3125 2822 3475 
Q 2822 3834 2567 4026 
Q 2313 4219 1838 4219 
Q 1578 4219 1281 4162 
Q 984 4106 628 3988 
L 628 4550 
Q 988 4650 1302 4700 
Q 1616 4750 1894 4750 
Q 2613 4750 3031 4423 
Q 3450 4097 3450 3541 
Q 3450 3153 3228 2886 
Q 3006 2619 2597 2516 
z
" transform="scale(0.015625)"/>
        <path id="DejaVuSans-30" d="M 2034 4250 
Q 1547 4250 1301 3770 
Q 1056 3291 1056 2328 
Q 1056 1369 1301 889 
Q 1547 409 2034 409 
Q 2525 409 2770 889 
Q 3016 1369 3016 2328 
Q 3016 3291 2770 3770 
Q 2525 4250 2034 4250 
z
M 2034 4750 
Q 2819 4750 3233 4129 
Q 3647 3509 3647 2328 
Q 3647 1150 3233 529 
Q 2819 -91 2034 -91 
Q 1250 -91 836 529 
Q 422 1150 422 2328 
Q 422 3509 836 4129 
Q 1250 4750 2034 4750 
z
" transform="scale(0.015625)"/>
       </defs>
       <use xlink:href="#DejaVuSans-33"/>
       <use xlink:href="#DejaVuSans-30" x="63.623047"/>
      </g>
     </g>
    </g>
    <g id="xtick_2">
     <g id="line2d_2">
      <g>
       <use xlink:href="#m490b0f7ca1" x="139.000374" y="307.584" style="stroke: #000000; stroke-width: 0.8"/>
      </g>
     </g>
     <g id="text_2">
      <!-- 35 -->
      <g transform="translate(132.637874 322.182437) scale(0.1 -0.1)">
       <defs>
        <path id="DejaVuSans-35" d="M 691 4666 
L 3169 4666 
L 3169 4134 
L 1269 4134 
L 1269 2991 
Q 1406 3038 1543 3061 
Q 1681 3084 1819 3084 
Q 2600 3084 3056 2656 
Q 3513 2228 3513 1497 
Q 3513 744 3044 326 
Q 2575 -91 1722 -91 
Q 1428 -91 1123 -41 
Q 819 9 494 109 
L 494 744 
Q 775 591 1075 516 
Q 1375 441 1709 441 
Q 2250 441 2565 725 
Q 2881 1009 2881 1497 
Q 2881 1984 2565 2268 
Q 2250 2553 1709 2553 
Q 1456 2553 1204 2497 
Q 953 2441 691 2322 
L 691 4666 
z
" transform="scale(0.015625)"/>
       </defs>
       <use xlink:href="#DejaVuSans-33"/>
       <use xlink:href="#DejaVuSans-35" x="63.623047"/>
      </g>
     </g>
    </g>
    <g id="xtick_3">
     <g id="line2d_3">
      <g>
       <use xlink:href="#m490b0f7ca1" x="203.941727" y="307.584" style="stroke: #000000; stroke-width: 0.8"/>
      </g>
     </g>
     <g id="text_3">
      <!-- 40 -->
      <g transform="translate(197.579227 322.182437) scale(0.1 -0.1)">
       <defs>
        <path id="DejaVuSans-34" d="M 2419 4116 
L 825 1625 
L 2419 1625 
L 2419 4116 
z
M 2253 4666 
L 3047 4666 
L 3047 1625 
L 3713 1625 
L 3713 1100 
L 3047 1100 
L 3047 0 
L 2419 0 
L 2419 1100 
L 313 1100 
L 313 1709 
L 2253 4666 
z
" transform="scale(0.015625)"/>
       </defs>
       <use xlink:href="#DejaVuSans-34"/>
       <use xlink:href="#DejaVuSans-30" x="63.623047"/>
      </g>
     </g>
    </g>
    <g id="xtick_4">
     <g id="line2d_4">
      <g>
       <use xlink:href="#m490b0f7ca1" x="268.88308" y="307.584" style="stroke: #000000; stroke-width: 0.8"/>
      </g>
     </g>
     <g id="text_4">
      <!-- 45 -->
      <g transform="translate(262.52058 322.182437) scale(0.1 -0.1)">
       <use xlink:href="#DejaVuSans-34"/>
       <use xlink:href="#DejaVuSans-35" x="63.623047"/>
      </g>
     </g>
    </g>
    <g id="xtick_5">
     <g id="line2d_5">
      <g>
       <use xlink:href="#m490b0f7ca1" x="333.824433" y="307.584" style="stroke: #000000; stroke-width: 0.8"/>
      </g>
     </g>
     <g id="text_5">
      <!-- 50 -->
      <g transform="translate(327.461933 322.182437) scale(0.1 -0.1)">
       <use xlink:href="#DejaVuSans-35"/>
       <use xlink:href="#DejaVuSans-30" x="63.623047"/>
      </g>
     </g>
    </g>
    <g id="xtick_6">
     <g id="line2d_6">
      <g>
       <use xlink:href="#m490b0f7ca1" x="398.765786" y="307.584" style="stroke: #000000; stroke-width: 0.8"/>
      </g>
     </g>
     <g id="text_6">
      <!-- 55 -->
      <g transform="translate(392.403286 322.182437) scale(0.1 -0.1)">
       <use xlink:href="#DejaVuSans-35"/>
       <use xlink:href="#DejaVuSans-35" x="63.623047"/>
      </g>
     </g>
    </g>
    <g id="text_7">
     <!-- time [s] -->
     <g transform="translate(216.768594 335.860562) scale(0.1 -0.1)">
      <defs>
       <path id="DejaVuSans-74" d="M 1172 4494 
L 1172 3500 
L 2356 3500 
L 2356 3053 
L 1172 3053 
L 1172 1153 
Q 1172 725 1289 603 
Q 1406 481 1766 481 
L 2356 481 
L 2356 0 
L 1766 0 
Q 1100 0 847 248 
Q 594 497 594 1153 
L 594 3053 
L 172 3053 
L 172 3500 
L 594 3500 
L 594 4494 
L 1172 4494 
z
" transform="scale(0.015625)"/>
       <path id="DejaVuSans-69" d="M 603 3500 
L 1178 3500 
L 1178 0 
L 603 0 
L 603 3500 
z
M 603 4863 
L 1178 4863 
L 1178 4134 
L 603 4134 
L 603 4863 
z
" transform="scale(0.015625)"/>
       <path id="DejaVuSans-6d" d="M 3328 2828 
Q 3544 3216 3844 3400 
Q 4144 3584 4550 3584 
Q 5097 3584 5394 3201 
Q 5691 2819 5691 2113 
L 5691 0 
L 5113 0 
L 5113 2094 
Q 5113 2597 4934 2840 
Q 4756 3084 4391 3084 
Q 3944 3084 3684 2787 
Q 3425 2491 3425 1978 
L 3425 0 
L 2847 0 
L 2847 2094 
Q 2847 2600 2669 2842 
Q 2491 3084 2119 3084 
Q 1678 3084 1418 2786 
Q 1159 2488 1159 1978 
L 1159 0 
L 581 0 
L 581 3500 
L 1159 3500 
L 1159 2956 
Q 1356 3278 1631 3431 
Q 1906 3584 2284 3584 
Q 2666 3584 2933 3390 
Q 3200 3197 3328 2828 
z
" transform="scale(0.015625)"/>
       <path id="DejaVuSans-65" d="M 3597 1894 
L 3597 1613 
L 953 1613 
Q 991 1019 1311 708 
Q 1631 397 2203 397 
Q 2534 397 2845 478 
Q 3156 559 3463 722 
L 3463 178 
Q 3153 47 2828 -22 
Q 2503 -91 2169 -91 
Q 1331 -91 842 396 
Q 353 884 353 1716 
Q 353 2575 817 3079 
Q 1281 3584 2069 3584 
Q 2775 3584 3186 3129 
Q 3597 2675 3597 1894 
z
M 3022 2063 
Q 3016 2534 2758 2815 
Q 2500 3097 2075 3097 
Q 1594 3097 1305 2825 
Q 1016 2553 972 2059 
L 3022 2063 
z
" transform="scale(0.015625)"/>
       <path id="DejaVuSans-20" transform="scale(0.015625)"/>
       <path id="DejaVuSans-5b" d="M 550 4863 
L 1875 4863 
L 1875 4416 
L 1125 4416 
L 1125 -397 
L 1875 -397 
L 1875 -844 
L 550 -844 
L 550 4863 
z
" transform="scale(0.015625)"/>
       <path id="DejaVuSans-73" d="M 2834 3397 
L 2834 2853 
Q 2591 2978 2328 3040 
Q 2066 3103 1784 3103 
Q 1356 3103 1142 2972 
Q 928 2841 928 2578 
Q 928 2378 1081 2264 
Q 1234 2150 1697 2047 
L 1894 2003 
Q 2506 1872 2764 1633 
Q 3022 1394 3022 966 
Q 3022 478 2636 193 
Q 2250 -91 1575 -91 
Q 1294 -91 989 -36 
Q 684 19 347 128 
L 347 722 
Q 666 556 975 473 
Q 1284 391 1588 391 
Q 1994 391 2212 530 
Q 2431 669 2431 922 
Q 2431 1156 2273 1281 
Q 2116 1406 1581 1522 
L 1381 1569 
Q 847 1681 609 1914 
Q 372 2147 372 2553 
Q 372 3047 722 3315 
Q 1072 3584 1716 3584 
Q 2034 3584 2315 3537 
Q 2597 3491 2834 3397 
z
" transform="scale(0.015625)"/>
       <path id="DejaVuSans-5d" d="M 1947 4863 
L 1947 -844 
L 622 -844 
L 622 -397 
L 1369 -397 
L 1369 4416 
L 622 4416 
L 622 4863 
L 1947 4863 
z
" transform="scale(0.015625)"/>
      </defs>
      <use xlink:href="#DejaVuSans-74"/>
      <use xlink:href="#DejaVuSans-69" x="39.208984"/>
      <use xlink:href="#DejaVuSans-6d" x="66.992188"/>
      <use xlink:href="#DejaVuSans-65" x="164.404297"/>
      <use xlink:href="#DejaVuSans-20" x="225.927734"/>
      <use xlink:href="#DejaVuSans-5b" x="257.714844"/>
      <use xlink:href="#DejaVuSans-73" x="296.728516"/>
      <use xlink:href="#DejaVuSans-5d" x="348.828125"/>
     </g>
    </g>
   </g>
   <g id="matplotlib.axis_2">
    <g id="ytick_1">
     <g id="line2d_7">
      <defs>
       <path id="mf9d1f91ca2" d="M 0 0 
L -3.5 0 
" style="stroke: #000000; stroke-width: 0.8"/>
      </defs>
      <g>
       <use xlink:href="#mf9d1f91ca2" x="57.6" y="293.589355" style="stroke: #000000; stroke-width: 0.8"/>
      </g>
     </g>
     <g id="text_8">
      <!-- 64.4 -->
      <g transform="translate(28.334375 297.388574) scale(0.1 -0.1)">
       <defs>
        <path id="DejaVuSans-36" d="M 2113 2584 
Q 1688 2584 1439 2293 
Q 1191 2003 1191 1497 
Q 1191 994 1439 701 
Q 1688 409 2113 409 
Q 2538 409 2786 701 
Q 3034 994 3034 1497 
Q 3034 2003 2786 2293 
Q 2538 2584 2113 2584 
z
M 3366 4563 
L 3366 3988 
Q 3128 4100 2886 4159 
Q 2644 4219 2406 4219 
Q 1781 4219 1451 3797 
Q 1122 3375 1075 2522 
Q 1259 2794 1537 2939 
Q 1816 3084 2150 3084 
Q 2853 3084 3261 2657 
Q 3669 2231 3669 1497 
Q 3669 778 3244 343 
Q 2819 -91 2113 -91 
Q 1303 -91 875 529 
Q 447 1150 447 2328 
Q 447 3434 972 4092 
Q 1497 4750 2381 4750 
Q 2619 4750 2861 4703 
Q 3103 4656 3366 4563 
z
" transform="scale(0.015625)"/>
        <path id="DejaVuSans-2e" d="M 684 794 
L 1344 794 
L 1344 0 
L 684 0 
L 684 794 
z
" transform="scale(0.015625)"/>
       </defs>
       <use xlink:href="#DejaVuSans-36"/>
       <use xlink:href="#DejaVuSans-34" x="63.623047"/>
       <use xlink:href="#DejaVuSans-2e" x="127.246094"/>
       <use xlink:href="#DejaVuSans-34" x="159.033203"/>
      </g>
     </g>
    </g>
    <g id="ytick_2">
     <g id="line2d_8">
      <g>
       <use xlink:href="#mf9d1f91ca2" x="57.6" y="241.885104" style="stroke: #000000; stroke-width: 0.8"/>
      </g>
     </g>
     <g id="text_9">
      <!-- 64.6 -->
      <g transform="translate(28.334375 245.684323) scale(0.1 -0.1)">
       <use xlink:href="#DejaVuSans-36"/>
       <use xlink:href="#DejaVuSans-34" x="63.623047"/>
       <use xlink:href="#DejaVuSans-2e" x="127.246094"/>
       <use xlink:href="#DejaVuSans-36" x="159.033203"/>
      </g>
     </g>
    </g>
    <g id="ytick_3">
     <g id="line2d_9">
      <g>
       <use xlink:href="#mf9d1f91ca2" x="57.6" y="190.180853" style="stroke: #000000; stroke-width: 0.8"/>
      </g>
     </g>
     <g id="text_10">
      <!-- 64.8 -->
      <g transform="translate(28.334375 193.980072) scale(0.1 -0.1)">
       <defs>
        <path id="DejaVuSans-38" d="M 2034 2216 
Q 1584 2216 1326 1975 
Q 1069 1734 1069 1313 
Q 1069 891 1326 650 
Q 1584 409 2034 409 
Q 2484 409 2743 651 
Q 3003 894 3003 1313 
Q 3003 1734 2745 1975 
Q 2488 2216 2034 2216 
z
M 1403 2484 
Q 997 2584 770 2862 
Q 544 3141 544 3541 
Q 544 4100 942 4425 
Q 1341 4750 2034 4750 
Q 2731 4750 3128 4425 
Q 3525 4100 3525 3541 
Q 3525 3141 3298 2862 
Q 3072 2584 2669 2484 
Q 3125 2378 3379 2068 
Q 3634 1759 3634 1313 
Q 3634 634 3220 271 
Q 2806 -91 2034 -91 
Q 1263 -91 848 271 
Q 434 634 434 1313 
Q 434 1759 690 2068 
Q 947 2378 1403 2484 
z
M 1172 3481 
Q 1172 3119 1398 2916 
Q 1625 2713 2034 2713 
Q 2441 2713 2670 2916 
Q 2900 3119 2900 3481 
Q 2900 3844 2670 4047 
Q 2441 4250 2034 4250 
Q 1625 4250 1398 4047 
Q 1172 3844 1172 3481 
z
" transform="scale(0.015625)"/>
       </defs>
       <use xlink:href="#DejaVuSans-36"/>
       <use xlink:href="#DejaVuSans-34" x="63.623047"/>
       <use xlink:href="#DejaVuSans-2e" x="127.246094"/>
       <use xlink:href="#DejaVuSans-38" x="159.033203"/>
      </g>
     </g>
    </g>
    <g id="ytick_4">
     <g id="line2d_10">
      <g>
       <use xlink:href="#mf9d1f91ca2" x="57.6" y="138.476602" style="stroke: #000000; stroke-width: 0.8"/>
      </g>
     </g>
     <g id="text_11">
      <!-- 65.0 -->
      <g transform="translate(28.334375 142.275821) scale(0.1 -0.1)">
       <use xlink:href="#DejaVuSans-36"/>
       <use xlink:href="#DejaVuSans-35" x="63.623047"/>
       <use xlink:href="#DejaVuSans-2e" x="127.246094"/>
       <use xlink:href="#DejaVuSans-30" x="159.033203"/>
      </g>
     </g>
    </g>
    <g id="ytick_5">
     <g id="line2d_11">
      <g>
       <use xlink:href="#mf9d1f91ca2" x="57.6" y="86.772351" style="stroke: #000000; stroke-width: 0.8"/>
      </g>
     </g>
     <g id="text_12">
      <!-- 65.2 -->
      <g transform="translate(28.334375 90.571569) scale(0.1 -0.1)">
       <defs>
        <path id="DejaVuSans-32" d="M 1228 531 
L 3431 531 
L 3431 0 
L 469 0 
L 469 531 
Q 828 903 1448 1529 
Q 2069 2156 2228 2338 
Q 2531 2678 2651 2914 
Q 2772 3150 2772 3378 
Q 2772 3750 2511 3984 
Q 2250 4219 1831 4219 
Q 1534 4219 1204 4116 
Q 875 4013 500 3803 
L 500 4441 
Q 881 4594 1212 4672 
Q 1544 4750 1819 4750 
Q 2544 4750 2975 4387 
Q 3406 4025 3406 3419 
Q 3406 3131 3298 2873 
Q 3191 2616 2906 2266 
Q 2828 2175 2409 1742 
Q 1991 1309 1228 531 
z
" transform="scale(0.015625)"/>
       </defs>
       <use xlink:href="#DejaVuSans-36"/>
       <use xlink:href="#DejaVuSans-35" x="63.623047"/>
       <use xlink:href="#DejaVuSans-2e" x="127.246094"/>
       <use xlink:href="#DejaVuSans-32" x="159.033203"/>
      </g>
     </g>
    </g>
    <g id="text_13">
     <!-- $\theta$ [deg] -->
     <g transform="translate(22.234375 192.528) rotate(-90) scale(0.1 -0.1)">
      <defs>
       <path id="DejaVuSans-Oblique-3b8" d="M 2913 2219 
L 925 2219 
Q 791 1284 928 888 
Q 1100 400 1566 400 
Q 2034 400 2391 891 
Q 2703 1322 2913 2219 
z
M 3009 2750 
Q 3094 3638 2984 3950 
Q 2813 4444 2353 4444 
Q 1875 4444 1525 3956 
Q 1250 3563 1034 2750 
L 3009 2750 
z
M 2444 4913 
Q 3194 4913 3494 4250 
Q 3794 3591 3566 2422 
Q 3341 1256 2781 594 
Q 2225 -72 1475 -72 
Q 722 -72 425 594 
Q 128 1256 353 2422 
Q 581 3591 1134 4250 
Q 1691 4913 2444 4913 
z
" transform="scale(0.015625)"/>
       <path id="DejaVuSans-64" d="M 2906 2969 
L 2906 4863 
L 3481 4863 
L 3481 0 
L 2906 0 
L 2906 525 
Q 2725 213 2448 61 
Q 2172 -91 1784 -91 
Q 1150 -91 751 415 
Q 353 922 353 1747 
Q 353 2572 751 3078 
Q 1150 3584 1784 3584 
Q 2172 3584 2448 3432 
Q 2725 3281 2906 2969 
z
M 947 1747 
Q 947 1113 1208 752 
Q 1469 391 1925 391 
Q 2381 391 2643 752 
Q 2906 1113 2906 1747 
Q 2906 2381 2643 2742 
Q 2381 3103 1925 3103 
Q 1469 3103 1208 2742 
Q 947 2381 947 1747 
z
" transform="scale(0.015625)"/>
       <path id="DejaVuSans-67" d="M 2906 1791 
Q 2906 2416 2648 2759 
Q 2391 3103 1925 3103 
Q 1463 3103 1205 2759 
Q 947 2416 947 1791 
Q 947 1169 1205 825 
Q 1463 481 1925 481 
Q 2391 481 2648 825 
Q 2906 1169 2906 1791 
z
M 3481 434 
Q 3481 -459 3084 -895 
Q 2688 -1331 1869 -1331 
Q 1566 -1331 1297 -1286 
Q 1028 -1241 775 -1147 
L 775 -588 
Q 1028 -725 1275 -790 
Q 1522 -856 1778 -856 
Q 2344 -856 2625 -561 
Q 2906 -266 2906 331 
L 2906 616 
Q 2728 306 2450 153 
Q 2172 0 1784 0 
Q 1141 0 747 490 
Q 353 981 353 1791 
Q 353 2603 747 3093 
Q 1141 3584 1784 3584 
Q 2172 3584 2450 3431 
Q 2728 3278 2906 2969 
L 2906 3500 
L 3481 3500 
L 3481 434 
z
" transform="scale(0.015625)"/>
      </defs>
      <use xlink:href="#DejaVuSans-Oblique-3b8" transform="translate(0 0.234375)"/>
      <use xlink:href="#DejaVuSans-20" transform="translate(61.181641 0.234375)"/>
      <use xlink:href="#DejaVuSans-5b" transform="translate(92.96875 0.234375)"/>
      <use xlink:href="#DejaVuSans-64" transform="translate(131.982422 0.234375)"/>
      <use xlink:href="#DejaVuSans-65" transform="translate(195.458984 0.234375)"/>
      <use xlink:href="#DejaVuSans-67" transform="translate(256.982422 0.234375)"/>
      <use xlink:href="#DejaVuSans-5d" transform="translate(320.458984 0.234375)"/>
     </g>
    </g>
   </g>
   <g id="line2d_12">
    <path d="M 73.832727 139.559278 
L 73.963324 138.954618 
L 74.093921 143.885884 
L 74.355116 121.712927 
L 74.616297 104.687546 
L 74.877491 179.475958 
L 75.138685 135.689814 
L 75.269269 144.24246 
L 75.399866 144.464971 
L 75.530463 118.10693 
L 75.791657 121.125041 
L 76.052838 169.678542 
L 76.183435 164.468108 
L 76.314032 126.760817 
L 76.44463 149.438039 
L 76.575227 122.790043 
L 76.705811 134.751588 
L 76.836408 117.540729 
L 76.967005 126.699437 
L 77.097601 164.852483 
L 77.358795 108.74266 
L 77.881171 143.306525 
L 78.142352 102.086923 
L 78.272949 110.103478 
L 78.66474 173.937974 
L 78.925921 143.855904 
L 79.056518 151.826016 
L 79.187115 82.218981 
L 79.317712 110.822652 
L 79.448309 166.626454 
L 79.578894 163.084067 
L 79.840088 138.263277 
L 79.970685 167.638246 
L 80.101282 167.350162 
L 80.231866 210.430353 
L 80.362463 167.364504 
L 80.49306 171.120528 
L 80.623657 151.794996 
L 80.754254 184.058578 
L 80.884851 178.016349 
L 81.015435 143.505157 
L 81.146032 147.56572 
L 81.276629 132.526652 
L 81.407226 186.066463 
L 81.537823 176.936806 
L 81.668408 122.098886 
L 81.799005 119.400623 
L 81.929602 106.705593 
L 82.190796 153.468786 
L 82.32138 130.273114 
L 82.451977 135.335238 
L 82.582574 130.621883 
L 82.713171 107.984948 
L 82.843768 139.574974 
L 82.974352 116.149503 
L 83.104949 144.469038 
L 83.235546 106.820173 
L 83.49674 163.816996 
L 83.757922 187.780418 
L 84.019116 175.839116 
L 84.149713 175.850886 
L 84.410894 139.794297 
L 85.32506 226.429402 
L 85.455657 187.038121 
L 85.586254 198.212358 
L 85.716851 198.212358 
L 85.847436 136.287155 
L 85.978033 146.772048 
L 86.239227 193.714969 
L 86.369824 155.672126 
L 86.500408 166.101587 
L 86.631005 187.880686 
L 86.761602 176.603459 
L 86.892199 176.20207 
L 87.022796 179.021093 
L 87.15338 135.098878 
L 87.414574 154.556442 
L 87.545171 179.953823 
L 87.675768 155.764147 
L 87.806352 179.05345 
L 87.93695 124.161208 
L 88.067547 138.044983 
L 88.198144 130.316342 
L 88.328741 164.757128 
L 88.459325 164.05461 
L 88.589922 161.970923 
L 88.720519 173.612539 
L 88.851116 148.201181 
L 88.981713 184.556659 
L 89.11231 128.083235 
L 89.373491 162.401773 
L 89.504088 159.833803 
L 89.765282 180.284033 
L 89.895867 186.884575 
L 90.157067 153.632303 
L 90.287664 150.538649 
L 90.418261 134.213917 
L 90.548845 102.032448 
L 90.679442 131.769728 
L 90.810039 107.640153 
L 90.940636 106.871483 
L 91.201818 179.456078 
L 91.332415 168.057972 
L 91.463012 166.688677 
L 91.593609 167.889164 
L 91.724206 162.631761 
L 91.85479 136.514103 
L 91.985387 174.379441 
L 92.115984 153.494638 
L 92.246581 152.666105 
L 92.377178 171.706568 
L 92.638359 133.400227 
L 92.768956 128.361326 
L 92.899553 148.012434 
L 93.030151 134.079902 
L 93.160735 132.053722 
L 93.291332 132.501818 
L 93.421929 100.8379 
L 93.552526 157.874248 
L 93.683123 128.760309 
L 93.944304 157.82848 
L 94.074901 140.64414 
L 94.205498 170.980044 
L 94.466692 153.653558 
L 94.727873 221.443685 
L 94.85847 212.757358 
L 94.989067 205.900631 
L 95.250249 240.419155 
L 95.380846 214.029157 
L 95.511443 219.241936 
L 95.64204 183.724095 
L 95.903221 226.469705 
L 96.164415 170.328766 
L 96.295012 176.330163 
L 96.556193 191.597772 
L 96.68679 189.005502 
L 96.947984 147.231487 
L 97.078581 117.230283 
L 97.209166 160.063677 
L 97.339763 134.347967 
L 97.600957 149.611157 
L 97.731554 195.345286 
L 97.862138 184.560245 
L 97.992735 160.011555 
L 98.123332 189.827671 
L 98.253929 147.152821 
L 98.384526 186.996168 
L 98.51511 163.119458 
L 98.645707 166.333611 
L 98.776304 132.163788 
L 98.906901 135.630373 
L 99.037498 144.284217 
L 99.168082 131.984192 
L 99.29868 149.007658 
L 99.429277 145.956541 
L 99.559874 183.555192 
L 99.690471 176.714645 
L 99.821055 126.52646 
L 99.951652 129.937388 
L 100.212846 195.119737 
L 100.343443 174.808545 
L 100.474027 216.45306 
L 100.604624 206.684703 
L 100.735221 159.210417 
L 100.865818 160.584719 
L 100.996415 170.877412 
L 101.126999 170.877412 
L 101.257596 174.837213 
L 101.388194 174.777344 
L 101.518791 157.941224 
L 101.779972 173.66889 
L 102.041166 137.952762 
L 102.171763 153.839026 
L 102.302347 143.622224 
L 102.432944 198.228802 
L 102.563541 162.51542 
L 102.694138 178.682604 
L 102.824735 168.047781 
L 103.216507 233.192929 
L 103.347104 195.574063 
L 103.477701 221.416133 
L 103.608285 160.611157 
L 103.738882 201.049299 
L 103.869479 191.460914 
L 104.000076 210.967042 
L 104.130673 209.220909 
L 104.261257 210.855475 
L 104.391855 176.262536 
L 104.522452 198.373589 
L 104.653049 192.241869 
L 104.783646 208.947087 
L 104.91423 205.879273 
L 105.044827 143.289313 
L 105.175424 145.589254 
L 105.306021 162.142769 
L 105.436618 203.330463 
L 105.697799 169.158476 
L 105.828396 124.966881 
L 106.08959 172.725174 
L 106.220174 144.290904 
L 106.350771 148.596791 
L 106.481369 220.103343 
L 106.611966 192.594408 
L 106.742563 245.063416 
L 107.003744 193.640066 
L 107.134341 197.10972 
L 107.264938 188.275702 
L 107.395535 165.177467 
L 107.526119 182.103705 
L 107.656716 159.249863 
L 107.787313 173.996969 
L 107.91791 166.995542 
L 108.048494 201.851399 
L 108.179091 173.35897 
L 108.309688 232.195949 
L 108.701467 181.781244 
L 108.832064 192.077616 
L 108.962661 166.98747 
L 109.093258 186.042992 
L 109.223855 178.716065 
L 109.354439 182.922984 
L 109.485036 200.741463 
L 109.74623 137.491944 
L 110.007411 171.779264 
L 110.268605 127.746307 
L 110.399202 173.411286 
L 110.529799 130.34618 
L 110.660384 135.336632 
L 110.790981 126.059873 
L 110.921578 172.578344 
L 111.052175 115.055211 
L 111.182759 119.699288 
L 111.313356 119.67396 
L 111.443953 178.383486 
L 111.57455 181.049816 
L 111.705147 164.460327 
L 111.966328 120.921545 
L 112.227522 161.851693 
L 112.358119 138.136048 
L 112.6193 205.37144 
L 112.749898 185.768094 
L 113.011092 219.473347 
L 113.141676 165.639796 
L 113.272273 188.032374 
L 113.40287 144.733385 
L 113.533467 187.571657 
L 113.664051 188.972646 
L 113.794648 191.670901 
L 113.925245 153.373925 
L 114.055842 183.530489 
L 114.317023 117.017113 
L 114.44762 123.886279 
L 114.578217 158.02242 
L 114.708814 160.50407 
L 114.969996 149.358515 
L 115.100593 125.952675 
L 115.361787 202.876876 
L 115.492371 142.312724 
L 115.622968 149.519205 
L 115.753565 147.435599 
L 115.884162 108.653172 
L 116.014759 159.187754 
L 116.145387 150.332149 
L 116.275984 158.08076 
L 116.406581 158.08076 
L 116.537178 135.739416 
L 116.667775 144.636217 
L 116.798359 201.602555 
L 117.059554 155.034542 
L 117.190151 172.469765 
L 117.320748 160.275999 
L 117.451332 160.44507 
L 117.712526 198.301758 
L 117.973707 132.555182 
L 118.104304 155.47855 
L 118.234901 147.607439 
L 118.365498 152.277174 
L 118.496095 183.819393 
L 118.757276 137.17011 
L 118.887873 155.676276 
L 119.279652 103.675048 
L 119.410249 103.964047 
L 119.540846 135.965186 
L 119.671443 137.878387 
L 119.802027 192.288644 
L 119.932624 132.313277 
L 120.063221 135.270549 
L 120.193818 111.700829 
L 120.324415 158.185779 
L 120.585596 90.787983 
L 120.716193 93.328695 
L 120.84679 118.888543 
L 120.977374 101.968522 
L 121.107971 111.463288 
L 121.238569 112.522862 
L 121.630347 141.450048 
L 121.891541 187.890853 
L 122.152722 100.668708 
L 122.283319 105.531785 
L 122.413916 116.70067 
L 122.544513 117.679858 
L 122.67511 150.657841 
L 122.936291 96.181576 
L 123.066888 85.437025 
L 123.328083 130.766608 
L 123.458667 104.290012 
L 123.719861 140.912731 
L 123.850458 130.256069 
L 123.981042 141.342185 
L 124.111639 162.430468 
L 124.242236 119.012674 
L 124.50343 154.294406 
L 124.634014 158.891161 
L 124.895208 142.609189 
L 125.025805 134.51326 
L 125.156389 157.851516 
L 125.286987 152.188504 
L 125.417583 176.976867 
L 125.809362 106.030561 
L 126.070556 135.009946 
L 126.201153 123.509929 
L 126.331737 138.380994 
L 126.462334 98.673887 
L 126.592931 107.14015 
L 126.723528 142.970974 
L 126.854125 113.080888 
L 127.115306 129.392317 
L 127.245903 171.636538 
L 127.376501 171.925977 
L 127.507085 186.808929 
L 127.637682 131.916123 
L 127.768279 199.472229 
L 127.898876 178.246123 
L 128.029473 175.133106 
L 128.160057 167.584188 
L 128.290654 151.006957 
L 128.551848 186.899989 
L 128.813029 170.490058 
L 129.074175 98.962169 
L 129.335356 192.770238 
L 129.59655 185.164416 
L 129.727147 174.094641 
L 129.988328 139.529577 
L 130.118925 150.751647 
L 130.249522 125.175498 
L 130.380119 152.964211 
L 130.510703 111.936677 
L 130.6413 150.585411 
L 130.771897 140.09131 
L 130.902494 166.682296 
L 131.033079 147.488334 
L 131.163676 177.155925 
L 131.294273 158.246271 
L 131.555467 67.26569 
L 131.686051 147.227135 
L 131.816648 143.872606 
L 131.947245 143.872606 
L 132.077842 157.991956 
L 132.339023 113.409484 
L 132.46962 119.085727 
L 132.600217 142.530043 
L 132.730801 99.342287 
L 132.861398 134.237717 
L 132.991996 133.679466 
L 133.122593 125.146433 
L 133.383774 80.785506 
L 133.514371 84.716185 
L 133.906162 210.900123 
L 134.036746 161.773271 
L 134.167343 161.913429 
L 134.29794 161.535031 
L 134.428537 187.534365 
L 134.559121 153.815416 
L 134.689718 196.995231 
L 134.820315 146.757521 
L 134.950913 176.372197 
L 135.081497 172.786259 
L 135.212094 177.012866 
L 135.473288 131.800588 
L 135.603885 140.187631 
L 135.734469 137.597014 
L 135.865066 148.95148 
L 135.995663 118.978179 
L 136.12626 154.374497 
L 136.256844 125.931123 
L 136.387441 176.76737 
L 136.518038 179.121486 
L 136.648635 202.459557 
L 136.779219 179.396135 
L 136.909816 132.817776 
L 137.040414 166.234625 
L 137.171011 166.502522 
L 137.301608 154.904612 
L 137.432192 179.403305 
L 137.562789 161.733102 
L 137.693386 164.748364 
L 137.823983 175.478556 
L 137.954567 163.131652 
L 138.085164 175.728006 
L 138.215761 161.537948 
L 138.346358 176.154425 
L 138.476955 208.232585 
L 138.607539 165.95218 
L 138.738136 188.340815 
L 138.868733 160.12615 
L 138.99933 163.337027 
L 139.129915 135.418031 
L 139.260512 178.447939 
L 139.391109 132.019201 
L 139.65229 162.205242 
L 139.782887 181.054723 
L 139.913484 169.028018 
L 140.044081 169.181842 
L 140.174678 184.361337 
L 140.305262 129.049743 
L 140.435859 135.016118 
L 140.697053 171.998955 
L 140.958234 123.72948 
L 141.088832 127.967017 
L 141.219429 118.629467 
L 141.350013 129.884173 
L 141.48061 154.85318 
L 141.741804 94.884148 
L 141.872401 95.158543 
L 142.133582 149.923719 
L 142.264179 122.063217 
L 142.394776 157.119409 
L 142.655957 99.460652 
L 142.917151 143.820684 
L 143.047735 167.751786 
L 143.178333 167.754186 
L 143.308929 127.296027 
L 143.570111 166.910817 
L 143.700708 140.129894 
L 143.831305 146.722965 
L 143.961902 136.047481 
L 144.223083 167.089155 
L 144.35368 141.802136 
L 144.745458 185.57895 
L 144.876055 162.571609 
L 145.006652 170.447019 
L 145.137249 222.179552 
L 145.267834 191.366971 
L 145.398431 196.940217 
L 145.659625 120.167064 
L 145.790209 147.637913 
L 145.920806 120.269073 
L 146.312597 202.808182 
L 146.443181 174.770339 
L 146.704375 180.679236 
L 146.834972 138.059501 
L 146.965556 175.658007 
L 147.096153 175.658007 
L 147.22675 158.249846 
L 147.357348 95.681409 
L 147.487931 95.681409 
L 147.618529 131.465213 
L 147.749126 114.490536 
L 147.879723 112.771974 
L 148.010307 116.636989 
L 148.140904 105.986056 
L 148.402098 157.391188 
L 148.532695 122.202697 
L 148.663279 141.510046 
L 148.793876 117.313486 
L 148.924473 127.554104 
L 149.05507 154.206573 
L 149.185654 95.474252 
L 149.316252 169.0572 
L 149.446848 165.059339 
L 149.838627 128.407283 
L 149.969224 142.359543 
L 150.099821 122.423625 
L 150.230405 139.723737 
L 150.361002 109.555185 
L 150.491599 128.484943 
L 150.622196 84.83993 
L 150.75278 132.940164 
L 150.883377 139.003526 
L 151.013974 158.583867 
L 151.275168 136.022114 
L 151.405752 146.138931 
L 151.53635 146.000968 
L 151.666947 167.823197 
L 151.797544 167.943039 
L 151.928128 162.5355 
L 152.058725 167.827131 
L 152.189322 163.812644 
L 152.319919 155.468574 
L 152.450503 155.705417 
L 152.5811 122.988964 
L 152.711697 136.08115 
L 152.842294 167.069379 
L 152.972878 147.879529 
L 153.103475 175.773679 
L 153.495254 123.646296 
L 153.625851 161.385424 
L 153.887045 146.787074 
L 154.017629 176.001442 
L 154.148226 173.311023 
L 154.278823 176.671001 
L 154.40942 156.928216 
L 154.540004 119.726268 
L 154.801198 138.616239 
L 154.931795 173.448851 
L 155.062392 165.88215 
L 155.192984 170.969297 
L 155.454179 127.445711 
L 155.584776 129.198618 
L 155.71536 174.61656 
L 155.976554 142.420433 
L 156.107151 153.921732 
L 156.368332 122.206681 
L 156.498929 129.655583 
L 156.629526 190.866674 
L 156.76011 168.404313 
L 156.890707 188.083633 
L 157.282485 167.633074 
L 157.413083 144.532975 
L 157.54368 84.965225 
L 157.674277 133.147907 
L 157.935458 147.757066 
L 158.066055 104.138343 
L 158.196652 110.242076 
L 158.327236 104.763205 
L 158.58843 141.243181 
L 158.719027 140.873148 
L 158.849611 105.325321 
L 158.980208 131.343477 
L 159.110805 92.931836 
L 159.241402 140.651121 
L 159.371986 146.204083 
L 159.763778 182.4006 
L 159.894362 146.440528 
L 160.024959 180.432637 
L 160.155556 128.469727 
L 160.286153 145.264318 
L 160.416737 136.438147 
L 160.547334 146.146414 
L 160.677931 175.050845 
L 160.808528 175.156295 
L 160.939112 150.562119 
L 161.069709 150.956584 
L 161.200306 149.696212 
L 161.592085 191.478291 
L 161.722682 161.703649 
L 161.853279 196.714596 
L 161.983863 171.263316 
L 162.11446 176.665907 
L 162.245057 163.473358 
L 162.506238 117.930147 
L 162.636835 158.961432 
L 162.767432 160.632285 
L 162.898029 179.125712 
L 163.028626 179.125712 
L 163.15921 116.286362 
L 163.289807 127.094249 
L 163.420404 109.169953 
L 163.551001 108.526897 
L 163.681586 83.041583 
L 163.812183 130.752376 
L 163.94278 133.650702 
L 164.073377 151.754041 
L 164.203961 135.014443 
L 164.334558 133.161585 
L 164.465155 126.648315 
L 164.595752 136.600776 
L 164.726336 130.698924 
L 164.856933 110.706127 
L 164.98753 109.335447 
L 165.118127 126.824284 
L 165.248711 107.485538 
L 165.379308 120.850124 
L 165.509905 160.754017 
L 165.640503 165.949735 
L 165.771087 153.696168 
L 165.901684 197.304596 
L 166.032281 158.599021 
L 166.162878 156.868556 
L 166.293462 185.258585 
L 166.424059 136.599435 
L 166.685253 181.171291 
L 166.815837 184.582482 
L 166.946434 191.401308 
L 167.077031 185.671302 
L 167.207628 167.323916 
L 167.338212 169.829995 
L 167.468809 140.101086 
L 167.599406 141.203895 
L 167.730004 140.170732 
L 167.991185 107.106688 
L 168.121774 170.161379 
L 168.252358 138.624138 
L 168.382955 173.767737 
L 168.513552 128.625462 
L 168.644149 176.639189 
L 168.90533 97.650232 
L 169.166524 155.302276 
L 169.297108 135.808984 
L 169.427705 138.62409 
L 169.558302 113.520173 
L 169.688899 127.547422 
L 169.819484 115.769268 
L 169.950081 125.306733 
L 170.080678 144.186082 
L 170.211275 139.346689 
L 170.341859 140.963619 
L 170.472456 164.178234 
L 170.603053 130.237347 
L 170.73365 157.635094 
L 170.994831 112.814056 
L 171.125428 115.802589 
L 171.256025 104.932794 
L 171.386609 155.438603 
L 171.647803 94.476001 
L 171.7784 125.29452 
L 171.908985 119.806618 
L 172.039582 99.785398 
L 172.170179 105.924978 
L 172.300776 80.121033 
L 172.561957 103.625727 
L 172.823151 61.606771 
L 172.953735 59.428089 
L 173.214929 88.14952 
L 173.47611 107.33718 
L 173.737304 147.795713 
L 173.998486 77.732006 
L 174.129082 118.162037 
L 174.25968 101.418398 
L 174.520861 121.059825 
L 174.651458 129.071543 
L 174.782055 114.899548 
L 174.912652 114.954426 
L 175.043236 73.411635 
L 175.173833 102.372073 
L 175.30443 100.388928 
L 175.435027 116.178904 
L 175.565611 107.836223 
L 175.826805 167.257125 
L 175.95739 118.283655 
L 176.087986 124.698861 
L 176.349181 79.701463 
L 176.610362 136.157632 
L 176.740959 115.018287 
L 176.871556 112.486361 
L 177.132737 78.810948 
L 177.263334 81.739793 
L 177.393931 99.64599 
L 177.524515 98.399791 
L 177.785709 139.440865 
L 178.308085 75.462523 
L 178.438682 106.37198 
L 178.569266 106.37198 
L 178.961057 128.457113 
L 179.091641 121.345821 
L 179.222238 124.17679 
L 179.352835 113.840282 
L 179.483419 92.109161 
L 179.614016 134.585457 
L 179.87521 92.553917 
L 180.005794 78.769247 
L 180.397586 126.799206 
L 180.52817 87.547954 
L 180.658767 119.074006 
L 180.789364 107.425154 
L 180.919961 140.083771 
L 181.181152 112.302309 
L 181.311749 128.179348 
L 181.442346 174.938199 
L 181.57293 162.399222 
L 181.703527 162.590472 
L 181.834124 153.20524 
L 181.964721 184.851571 
L 182.095305 146.461497 
L 182.225902 189.780543 
L 182.617681 104.118745 
L 182.878875 133.007406 
L 183.009459 127.097112 
L 183.140056 127.668911 
L 183.270653 131.858385 
L 183.793028 79.955023 
L 183.923625 130.487548 
L 184.054209 106.414855 
L 184.184806 141.117783 
L 184.446 121.489572 
L 184.576584 166.88536 
L 184.707181 135.378568 
L 184.837779 141.366419 
L 184.968363 123.541205 
L 185.229557 153.69569 
L 185.360154 195.956112 
L 185.621335 112.350289 
L 186.013113 173.409773 
L 186.14371 124.991013 
L 186.274307 172.685316 
L 186.404904 175.966142 
L 186.666085 138.832211 
L 186.796683 157.697491 
L 186.927267 159.276004 
L 187.057864 108.645408 
L 187.188461 133.953344 
L 187.449642 87.619154 
L 187.580239 144.947497 
L 187.841433 113.079252 
L 187.972017 133.67819 
L 188.102614 121.166999 
L 188.233211 146.821173 
L 188.363808 149.182162 
L 188.494392 87.73304 
L 188.886171 140.844223 
L 189.016768 75.166346 
L 189.147365 149.801644 
L 189.408546 104.21852 
L 189.539143 131.089698 
L 189.800337 115.449624 
L 189.930921 151.948433 
L 190.061518 116.553844 
L 190.192115 138.050439 
L 190.322712 130.957092 
L 190.71449 165.762168 
L 190.845074 153.46365 
L 190.975672 155.006896 
L 191.236866 139.885052 
L 191.36745 107.142094 
L 191.498047 125.016412 
L 191.628644 67.32296 
L 191.759241 74.431948 
L 192.151019 138.827269 
L 192.4122 153.707604 
L 192.542797 153.215884 
L 192.673394 100.624538 
L 192.934576 137.768034 
L 193.065173 143.460316 
L 193.19577 125.304559 
L 193.326354 126.09015 
L 193.587548 163.726606 
L 193.718145 155.243603 
L 193.848729 158.282906 
L 193.979326 158.282906 
L 194.240497 180.826951 
L 194.371095 180.48224 
L 194.501691 168.749819 
L 194.762873 187.718675 
L 194.89347 150.038632 
L 195.024067 152.095174 
L 195.154664 178.171261 
L 195.546442 153.507025 
L 195.677026 164.631098 
L 195.807623 136.927332 
L 196.068817 145.135611 
L 196.199401 163.986011 
L 196.329998 160.540034 
L 196.460595 169.031711 
L 196.591193 151.27511 
L 196.721777 154.221124 
L 196.982971 133.591719 
L 197.113555 94.962736 
L 197.374749 173.300884 
L 197.897124 121.067958 
L 198.027721 149.161378 
L 198.158305 145.426312 
L 198.288902 162.459592 
L 198.419499 121.995444 
L 198.550084 138.428739 
L 198.811278 97.220174 
L 198.941875 164.458876 
L 199.072459 160.340639 
L 199.203056 188.644154 
L 199.46425 125.67753 
L 199.594834 191.268271 
L 199.725431 157.160387 
L 199.856028 164.303401 
L 199.986612 143.371617 
L 200.117209 198.38701 
L 200.247806 138.090135 
L 200.378403 198.773114 
L 200.508988 154.465856 
L 200.639584 186.632098 
L 200.770182 176.518479 
L 200.900766 231.506004 
L 201.031363 202.356337 
L 201.16196 214.688169 
L 201.292557 184.231473 
L 201.423141 204.920873 
L 201.684335 182.206968 
L 201.814932 207.185864 
L 201.945516 208.077774 
L 202.076113 206.962516 
L 202.337294 139.51597 
L 202.467891 174.683347 
L 202.598488 137.556109 
L 202.729086 190.137183 
L 202.85967 194.885239 
L 202.990267 144.045238 
L 203.120864 158.130155 
L 203.251448 155.750402 
L 203.382045 161.347998 
L 203.643239 117.0252 
L 203.773823 158.040034 
L 204.035017 140.965979 
L 204.165601 158.17657 
L 204.296198 150.148056 
L 204.426795 186.392921 
L 204.557393 157.105404 
L 204.687977 154.920586 
L 204.818574 213.240123 
L 204.949171 206.395034 
L 205.210352 167.59953 
L 205.340949 183.183447 
L 205.471546 164.655597 
L 205.60213 194.069804 
L 205.732727 186.252948 
L 205.863324 215.635179 
L 205.993921 219.925831 
L 206.646881 136.081632 
L 206.777477 132.437862 
L 206.908075 103.401288 
L 207.169261 155.106795 
L 207.430455 117.002151 
L 207.691636 162.262834 
L 207.822233 162.740437 
L 207.952817 138.456643 
L 208.083414 178.521232 
L 208.214011 153.497855 
L 208.344608 154.145716 
L 208.475192 119.995445 
L 208.605789 124.697948 
L 208.736386 118.201856 
L 208.86697 144.233362 
L 208.997567 98.429528 
L 209.258762 87.699759 
L 209.389346 96.288219 
L 209.519943 96.288219 
L 209.65054 87.609386 
L 209.781124 127.870236 
L 209.911721 123.852072 
L 210.042318 150.408352 
L 210.172915 113.335545 
L 210.303499 149.226058 
L 210.434096 142.773416 
L 210.695277 105.816838 
L 210.825874 129.373464 
L 211.087069 72.669536 
L 211.34825 85.075967 
L 211.478847 98.301039 
L 211.609431 145.514122 
L 211.740028 151.250301 
L 212.001222 124.152559 
L 212.131806 142.237452 
L 212.262403 139.153214 
L 212.393 145.506908 
L 212.523597 99.781031 
L 212.784778 166.310769 
L 212.915375 165.758503 
L 213.045959 182.387282 
L 213.307154 167.729373 
L 213.437751 180.467515 
L 213.568335 164.933706 
L 213.698932 176.776894 
L 213.829529 175.206535 
L 213.960113 181.915442 
L 214.09071 194.640777 
L 214.221307 163.053097 
L 214.351904 161.228115 
L 214.482488 172.354323 
L 214.613085 152.829037 
L 214.743682 155.019714 
L 214.874266 160.708821 
L 215.004863 143.316142 
L 215.266058 159.452605 
L 215.396642 165.60614 
L 215.527239 153.097648 
L 215.657836 167.751079 
L 215.78842 164.29942 
L 215.919017 141.444339 
L 216.049614 171.683714 
L 216.180198 170.085851 
L 216.310795 131.422696 
L 216.441392 160.150033 
L 216.571989 154.589616 
L 216.702573 157.502658 
L 216.83317 167.932388 
L 216.963767 103.287014 
L 217.094351 105.982819 
L 217.355546 159.048309 
L 217.486143 187.029273 
L 217.616727 177.113846 
L 217.747324 152.299458 
L 217.877921 150.41892 
L 218.008505 150.920203 
L 218.139102 116.587872 
L 218.269699 145.040143 
L 218.400296 136.087298 
L 218.53088 146.87657 
L 218.661477 113.86579 
L 218.792074 157.408764 
L 218.922658 134.67146 
L 219.183852 160.275878 
L 219.31445 166.744428 
L 219.706228 94.881322 
L 219.836812 158.515633 
L 219.967409 115.976125 
L 220.098001 170.15886 
L 220.228598 158.42238 
L 220.359182 163.040457 
L 220.489779 156.475967 
L 220.75096 125.53865 
L 220.881558 147.723302 
L 221.012155 143.133781 
L 221.142752 166.579746 
L 221.273336 141.813721 
L 221.403933 168.928683 
L 221.53453 124.915476 
L 221.665114 160.219523 
L 221.795711 125.025144 
L 221.926308 148.390169 
L 222.056892 129.743793 
L 222.187489 135.762952 
L 222.318086 132.828573 
L 222.448683 154.55398 
L 222.709864 84.067903 
L 222.840461 93.810329 
L 222.971046 88.604326 
L 223.101643 98.594456 
L 223.23224 129.243974 
L 223.362837 107.97208 
L 223.624018 141.31672 
L 223.754615 127.670425 
L 223.885199 150.282275 
L 224.015796 119.848952 
L 224.146393 157.755269 
L 224.407574 100.078745 
L 224.668768 82.389031 
L 224.799352 82.389031 
L 224.92995 67.729362 
L 225.060547 100.572957 
L 225.191131 100.572957 
L 225.321728 139.813214 
L 225.452325 112.461375 
L 225.582922 135.233934 
L 225.713506 123.09055 
L 225.844103 136.207262 
L 226.105284 83.644062 
L 226.366478 128.162378 
L 226.497075 105.794778 
L 226.627659 116.618278 
L 226.888853 112.813674 
L 227.019437 88.210873 
L 227.280632 113.748869 
L 227.541813 62.85805 
L 227.67241 86.759714 
L 227.803007 150.643147 
L 228.194785 106.474385 
L 228.325369 118.845145 
L 228.455966 87.325873 
L 228.717147 133.163799 
L 228.847744 123.004954 
L 228.978341 131.44996 
L 229.108939 154.550927 
L 229.239523 152.554614 
L 229.37012 135.052749 
L 229.500717 151.305707 
L 229.631301 111.227647 
L 229.761898 148.064157 
L 229.892495 135.617892 
L 230.284273 196.120188 
L 230.545454 156.236418 
L 230.676051 149.331955 
L 230.806648 216.453995 
L 230.937232 175.769151 
L 231.06783 194.205126 
L 231.329011 165.014589 
L 231.459608 141.205834 
L 231.590205 191.131807 
L 231.720802 135.419292 
L 231.851386 158.091085 
L 231.981983 117.134231 
L 232.11258 115.79147 
L 232.243164 111.863508 
L 232.504358 152.158495 
L 232.634955 154.444005 
L 232.765539 134.714445 
L 233.026734 142.397838 
L 233.157322 130.653106 
L 233.287919 132.572589 
L 233.418517 150.775178 
L 233.549101 134.663131 
L 233.679698 175.552314 
L 233.810295 155.010099 
L 234.202073 198.530681 
L 234.463254 183.543579 
L 234.724448 240.507771 
L 234.985629 179.311597 
L 235.116226 180.123484 
L 235.246823 143.994375 
L 235.508005 176.06459 
L 235.638602 180.406767 
L 235.769186 203.037517 
L 235.899783 163.4011 
L 236.03038 195.800941 
L 236.160964 184.148901 
L 236.291561 184.751959 
L 236.552742 148.436712 
L 236.683339 167.800267 
L 236.813936 147.949085 
L 236.944533 172.40186 
L 237.075117 157.021973 
L 237.205714 227.483218 
L 237.336311 126.846954 
L 237.597493 185.079238 
L 237.72809 171.755935 
L 237.858674 182.678955 
L 237.989271 131.517456 
L 238.119868 128.413178 
L 238.250465 190.05803 
L 238.381049 189.40896 
L 238.511646 178.996119 
L 238.642243 148.217294 
L 238.772827 175.172807 
L 238.903424 146.246121 
L 239.034021 177.268559 
L 239.164605 150.749702 
L 239.295202 154.852659 
L 239.425799 187.458617 
L 239.686981 138.406796 
L 239.817578 151.000897 
L 239.948175 152.426061 
L 240.078759 165.45806 
L 240.339953 169.777596 
L 240.470537 97.420749 
L 240.601134 97.420749 
L 240.731731 185.292598 
L 240.862315 188.717428 
L 240.992912 208.450159 
L 241.123509 172.916899 
L 241.254106 172.581148 
L 241.38469 196.104163 
L 241.515287 191.038688 
L 241.645885 179.489275 
L 241.776469 206.628557 
L 241.907066 179.270636 
L 242.037663 197.905271 
L 242.168247 179.72653 
L 242.298844 211.747197 
L 242.429441 207.085633 
L 242.821219 186.439945 
L 242.951816 185.960048 
L 243.0824 193.646491 
L 243.343594 160.938774 
L 243.474178 165.26044 
L 243.604776 200.612284 
L 243.735373 195.965738 
L 243.996554 242.820599 
L 244.257735 184.584874 
L 244.388332 205.797295 
L 244.518929 201.5759 
L 244.649526 158.919515 
L 244.78011 157.099163 
L 244.910707 183.787379 
L 245.041304 156.015545 
L 245.302485 230.194684 
L 245.694264 166.093472 
L 245.824861 159.857733 
L 245.955445 183.724229 
L 246.086042 169.528572 
L 246.216639 185.208932 
L 246.347236 215.109152 
L 246.47782 187.299167 
L 246.608417 209.28351 
L 246.869598 155.39803 
L 247.000195 166.148086 
L 247.130792 157.608939 
L 247.391973 221.508892 
L 247.52257 214.650196 
L 247.653155 211.894362 
L 247.783752 231.340218 
L 248.044946 178.176216 
L 248.17553 207.826275 
L 248.436724 165.198052 
L 248.567308 202.407923 
L 248.697905 149.705857 
L 248.959086 258.87556 
L 249.089683 206.018192 
L 249.22028 223.745133 
L 249.481461 167.088186 
L 249.612058 218.384844 
L 249.742643 183.690933 
L 249.87324 196.43771 
L 250.003837 242.859426 
L 250.134434 193.518806 
L 250.265018 189.987678 
L 250.395615 178.105714 
L 250.526212 236.748072 
L 250.656796 159.771953 
L 251.179171 256.472818 
L 251.440352 199.211633 
L 251.570949 203.31928 
L 251.701547 179.441318 
L 251.832131 206.290924 
L 251.962728 208.624087 
L 252.093325 206.298768 
L 252.354506 140.555544 
L 252.6157 199.60427 
L 252.746284 195.035324 
L 252.876881 167.912049 
L 253.007478 199.685034 
L 253.138062 192.849038 
L 253.399256 169.857542 
L 253.660437 218.056381 
L 253.791035 155.373446 
L 253.921619 151.643957 
L 254.052216 173.984928 
L 254.313397 142.971622 
L 254.443994 158.241674 
L 254.574591 148.438451 
L 254.835772 202.958995 
L 254.966369 153.812263 
L 255.22755 202.050375 
L 255.358147 204.521849 
L 255.488744 196.84149 
L 255.619328 167.333554 
L 255.749926 180.514413 
L 255.880523 146.265194 
L 256.011107 146.265194 
L 256.272301 191.2117 
L 256.402885 133.457835 
L 256.794663 193.783841 
L 256.92526 175.238764 
L 257.055857 180.29717 
L 257.186454 173.944064 
L 257.317038 215.277038 
L 257.447635 156.560912 
L 257.578232 161.357947 
L 257.708816 161.802806 
L 257.839414 152.990212 
L 257.970011 154.866438 
L 258.100595 144.117292 
L 258.361789 194.50976 
L 258.492373 162.646736 
L 258.62297 191.909453 
L 258.753567 155.225022 
L 258.884151 162.379572 
L 259.275929 124.713093 
L 259.406526 159.038121 
L 259.537123 162.170749 
L 259.798305 189.217624 
L 259.928902 216.993515 
L 260.059499 175.41715 
L 260.190083 176.542886 
L 260.32068 180.293687 
L 260.451277 164.674764 
L 260.581861 173.948575 
L 260.712458 197.381895 
L 260.843055 196.407551 
L 261.104236 182.402861 
L 261.365417 204.845658 
L 261.496014 201.895707 
L 261.626611 194.707294 
L 261.757195 135.37184 
L 262.279571 222.347512 
L 262.410168 203.349462 
L 262.540752 205.008577 
L 262.671349 224.713302 
L 262.801946 173.7969 
L 262.93253 176.03223 
L 263.063127 159.27074 
L 263.324321 177.830303 
L 263.454905 206.633195 
L 263.716099 136.55235 
L 263.977281 100.511586 
L 264.238462 169.360052 
L 264.369059 197.274535 
L 264.499656 139.239445 
L 264.63024 146.587077 
L 264.760837 136.716703 
L 264.891434 191.914277 
L 265.152615 170.249331 
L 265.283212 195.471427 
L 265.544393 179.2179 
L 265.67499 149.696915 
L 265.936172 167.557082 
L 266.066769 170.886637 
L 266.197353 151.895931 
L 266.32795 153.456266 
L 266.458547 166.177829 
L 266.589131 146.65209 
L 266.719728 217.368162 
L 267.242103 137.540612 
L 267.372687 148.026355 
L 267.503284 146.149226 
L 267.633881 152.670172 
L 267.895063 176.103292 
L 268.02566 175.314262 
L 268.286841 149.403184 
L 268.417438 177.114151 
L 268.548035 161.389347 
L 268.809216 215.651235 
L 268.939813 220.666332 
L 269.070397 233.983486 
L 269.331591 197.875411 
L 269.462175 204.281028 
L 269.592772 190.104012 
L 269.723369 199.759903 
L 269.853953 162.868363 
L 269.984551 208.607055 
L 270.245732 184.933768 
L 270.376329 182.486558 
L 270.506926 202.722181 
L 270.63751 202.722181 
L 270.768107 213.894647 
L 270.898704 189.574614 
L 271.029288 197.398494 
L 271.159885 221.554956 
L 271.290482 221.554956 
L 271.421066 173.297134 
L 271.551663 187.461215 
L 271.68226 222.412012 
L 271.812844 164.213509 
L 271.943442 201.865118 
L 272.074039 148.414452 
L 272.204618 149.39592 
L 272.335215 163.872828 
L 272.465812 159.49921 
L 272.596397 171.969031 
L 272.726994 202.235608 
L 272.857591 137.85795 
L 273.118772 208.973196 
L 273.249369 205.935628 
L 273.379953 208.717923 
L 273.51055 228.451809 
L 273.641147 194.083829 
L 273.771731 191.007858 
L 274.032925 155.784043 
L 274.163509 166.37145 
L 274.294106 186.147744 
L 274.424703 172.246553 
L 274.555288 198.900707 
L 274.685885 192.948309 
L 274.816482 141.797067 
L 274.947066 166.389862 
L 275.20826 153.771405 
L 275.338844 131.936561 
L 275.469441 160.426525 
L 275.600038 162.532145 
L 275.730622 223.243432 
L 275.991816 189.569178 
L 276.1224 204.637633 
L 276.252997 199.625179 
L 276.514179 148.089256 
L 276.644776 110.635235 
L 276.775373 158.351806 
L 276.905957 161.615241 
L 277.036554 153.890528 
L 277.167151 178.504862 
L 277.297735 232.395818 
L 277.428332 209.771486 
L 277.558929 220.152444 
L 277.82011 181.286436 
L 277.950707 195.079079 
L 278.081291 185.876166 
L 278.342485 153.573579 
L 278.473082 169.429513 
L 278.603667 223.405687 
L 278.734264 188.865965 
L 278.864848 198.928404 
L 278.995445 190.756137 
L 279.126042 209.543262 
L 279.256639 170.24507 
L 279.51782 207.739233 
L 279.648417 187.9117 
L 279.779001 144.487819 
L 280.040195 191.835117 
L 280.170779 175.791839 
L 280.301376 140.32046 
L 280.431973 178.464031 
L 280.562558 177.904251 
L 280.693155 198.978518 
L 280.823752 191.296245 
L 280.954336 197.590133 
L 281.084933 193.97006 
L 281.21553 208.989241 
L 281.346114 210.769478 
L 281.476711 201.721864 
L 281.607308 182.128069 
L 281.737892 181.903924 
L 281.868489 165.391676 
L 281.999086 177.329403 
L 282.12967 176.866157 
L 282.260267 202.931169 
L 282.390864 206.583582 
L 282.521448 249.727303 
L 282.78263 199.768625 
L 282.913227 208.440794 
L 283.043824 206.667468 
L 283.174408 255.509889 
L 283.435602 215.487475 
L 283.566186 228.635139 
L 283.696783 210.17031 
L 283.82738 239.650067 
L 283.957964 238.395952 
L 284.219158 222.150915 
L 284.349742 249.744554 
L 284.480339 247.93216 
L 284.610937 248.488271 
L 284.741521 245.982813 
L 285.002715 211.52659 
L 285.133319 238.808732 
L 285.263916 240.481501 
L 285.394513 220.265527 
L 285.525097 240.850077 
L 285.655695 216.930981 
L 285.786292 246.57215 
L 286.047473 189.117016 
L 286.308654 228.946976 
L 286.439251 208.505983 
L 286.569848 236.471918 
L 286.700432 236.471918 
L 286.831029 226.988033 
L 286.961626 263.907441 
L 287.09221 239.454587 
L 287.222807 269.41108 
L 287.614586 194.291176 
L 287.745183 262.102144 
L 287.875767 255.646037 
L 288.006364 236.21637 
L 288.136961 261.483508 
L 288.528739 221.293809 
L 288.659323 179.664417 
L 288.78992 220.653454 
L 288.920517 224.448463 
L 289.051101 223.218132 
L 289.312295 231.052524 
L 289.442879 243.730536 
L 289.573476 237.150727 
L 289.704074 217.174383 
L 289.834658 218.508199 
L 289.965255 195.070082 
L 290.095852 235.875068 
L 290.226436 173.166114 
L 290.357033 173.712169 
L 290.48763 164.307431 
L 290.879395 219.839136 
L 291.009992 187.097564 
L 291.140589 203.173483 
L 291.271173 244.422485 
L 291.532367 192.844595 
L 291.662952 217.536042 
L 291.793549 214.544978 
L 291.924146 243.260652 
L 292.05473 151.444333 
L 292.185327 181.360094 
L 292.315924 149.351014 
L 292.446508 231.407391 
L 292.577105 164.485846 
L 292.707702 158.598954 
L 292.838286 177.444384 
L 292.968883 222.968119 
L 293.09948 178.023014 
L 293.230064 223.580836 
L 293.491258 196.742428 
L 293.621843 223.348402 
L 293.883037 146.539016 
L 294.013621 172.815483 
L 294.144218 158.979816 
L 294.405399 207.188144 
L 294.535996 211.00397 
L 294.666593 240.416011 
L 294.797177 239.903317 
L 294.927774 260.665753 
L 295.058358 224.115724 
L 295.188955 221.138919 
L 295.319552 182.951245 
L 295.450136 228.729312 
L 295.580733 203.567805 
L 295.841915 241.957693 
L 296.233693 182.366653 
L 296.36429 210.132781 
L 296.494887 207.731516 
L 296.756068 176.567151 
L 296.886665 181.039052 
L 297.017249 264.54924 
L 297.147846 234.644471 
L 297.278443 248.98065 
L 297.409027 214.017567 
L 297.539624 228.623541 
L 297.670222 188.304332 
L 297.800806 231.413508 
L 297.931403 206.05971 
L 298.061987 229.117342 
L 298.192574 274.517997 
L 298.323171 213.802016 
L 298.453755 210.195614 
L 298.584352 211.263996 
L 298.714949 187.05036 
L 298.845533 185.100394 
L 298.97613 188.248926 
L 299.237312 216.654476 
L 299.759687 147.122574 
L 300.020868 204.13868 
L 300.151465 179.488183 
L 300.282062 176.226181 
L 300.412646 198.608835 
L 300.543243 159.428653 
L 300.673827 199.433903 
L 300.804424 196.035924 
L 300.935021 195.990803 
L 301.196203 150.343461 
L 301.457384 213.227908 
L 301.587981 197.87017 
L 301.718578 218.280082 
L 301.849162 194.999606 
L 301.979759 197.224828 
L 302.110356 197.224828 
L 302.24094 156.097336 
L 302.632718 248.481035 
L 302.763315 242.738032 
L 302.893912 212.892571 
L 303.024496 225.465382 
L 303.285678 198.482506 
L 303.546872 182.277821 
L 303.808053 232.911903 
L 303.93865 213.969237 
L 304.069234 236.569768 
L 304.330428 174.690311 
L 304.461012 177.328661 
L 304.722206 243.311047 
L 304.85279 181.160189 
L 304.983387 219.507818 
L 305.113984 167.361777 
L 305.244569 160.472968 
L 305.375166 224.694651 
L 305.50575 179.580524 
L 305.766944 205.477979 
L 306.158722 143.296902 
L 306.289306 161.531619 
L 306.419903 161.628698 
L 306.5505 181.414013 
L 306.681084 135.121617 
L 306.811681 194.104448 
L 306.942278 195.835153 
L 307.072862 171.326373 
L 307.20346 202.014754 
L 307.334044 182.773268 
L 307.464641 217.290597 
L 307.595238 222.397024 
L 307.725822 221.199322 
L 307.856419 212.287562 
L 307.987016 176.756912 
L 308.1176 205.67514 
L 308.248197 208.952918 
L 308.378794 196.83069 
L 308.639975 225.33095 
L 308.901156 221.257222 
L 309.031753 234.959085 
L 309.292935 146.192342 
L 309.423532 197.422511 
L 309.554116 193.334979 
L 309.684713 200.413974 
L 309.81531 237.295148 
L 309.945894 234.865717 
L 310.207088 186.838942 
L 310.337672 200.282383 
L 310.598866 261.669546 
L 310.72945 202.193569 
L 310.860047 213.493227 
L 311.251858 192.0856 
L 311.513039 243.783532 
L 311.643636 241.532363 
L 311.904817 270.15497 
L 312.035414 243.278597 
L 312.296596 235.080735 
L 312.427193 216.044131 
L 312.557777 258.909727 
L 312.688374 245.267337 
L 312.818958 258.540547 
L 313.080152 210.408996 
L 313.210736 249.562977 
L 313.341333 207.757874 
L 313.602514 198.668702 
L 313.863708 174.57129 
L 314.124889 207.010982 
L 314.255486 202.990024 
L 314.386071 206.928318 
L 314.516668 206.023834 
L 314.647252 214.993358 
L 314.777849 161.676389 
L 314.908446 209.568551 
L 315.03903 210.577837 
L 315.169627 215.376966 
L 315.300224 235.209144 
L 315.430808 225.726183 
L 315.561405 245.432144 
L 315.692002 205.790362 
L 315.822586 205.096702 
L 315.953183 189.333847 
L 316.083767 222.7764 
L 316.214364 220.866992 
L 316.344962 184.569407 
L 316.475546 216.864414 
L 316.606143 214.401735 
L 316.73674 259.859111 
L 316.867324 242.460964 
L 316.997921 184.612571 
L 317.259102 203.114835 
L 317.389699 205.581303 
L 317.520283 239.197029 
L 317.65088 239.197029 
L 317.781477 223.916195 
L 317.912061 232.855208 
L 318.173255 265.82966 
L 318.434437 222.809256 
L 318.565034 191.793615 
L 318.826215 236.577492 
L 318.956799 211.032413 
L 319.087396 249.49284 
L 319.217993 221.552023 
L 319.348577 234.943764 
L 319.479174 262.550558 
L 319.609771 261.233644 
L 319.740355 268.454036 
L 319.870952 211.093822 
L 320.001549 241.374138 
L 320.132133 154.783276 
L 320.393315 238.903492 
L 320.523912 216.196218 
L 320.654509 217.105642 
L 320.785093 199.765135 
L 321.046287 233.35886 
L 321.176871 206.696658 
L 321.307468 207.203829 
L 321.438065 165.696304 
L 321.568649 194.193228 
L 321.699246 176.698646 
L 321.960427 246.923096 
L 322.482803 179.797486 
L 322.613387 216.173666 
L 322.743984 209.812446 
L 323.005165 234.713252 
L 323.135762 223.296651 
L 323.266346 232.62473 
L 323.396943 163.537748 
L 323.52754 176.81338 
L 323.658124 156.36099 
L 323.919318 227.006811 
L 324.049902 212.526579 
L 324.180456 136.661613 
L 324.31104 198.693529 
L 324.441637 200.90748 
L 324.572234 161.485279 
L 324.702818 207.548386 
L 324.964012 157.542877 
L 325.094596 168.458718 
L 325.225193 169.065338 
L 325.616971 213.807484 
L 325.747555 215.725465 
L 325.878153 202.828588 
L 326.00875 178.402824 
L 326.139334 178.952933 
L 326.269931 157.539771 
L 326.531112 214.379387 
L 326.792293 197.952572 
L 327.053487 271.926071 
L 327.445265 197.003425 
L 327.575849 175.337968 
L 327.706446 221.189934 
L 327.837043 215.562376 
L 327.967627 196.381676 
L 328.228809 209.503136 
L 328.359406 201.88778 
L 328.490003 246.302922 
L 328.620587 223.202041 
L 328.751184 254.525295 
L 328.881781 218.712517 
L 329.012365 261.052805 
L 329.142962 250.413715 
L 329.273546 229.57021 
L 329.404143 228.04488 
L 329.53474 245.153763 
L 329.665324 230.130456 
L 329.926519 240.190292 
L 330.057103 266.422272 
L 330.1877 265.296678 
L 330.448881 239.216378 
L 330.710062 259.926718 
L 330.840659 264.162025 
L 330.971256 252.611118 
L 331.10184 289.441042 
L 331.232437 276.465848 
L 331.363021 209.17994 
L 331.624215 295.488 
L 331.754799 230.263137 
L 331.885397 276.533738 
L 332.015994 242.726874 
L 332.146578 258.535197 
L 332.277175 183.316704 
L 332.407759 183.316704 
L 332.538356 164.865373 
L 332.668953 207.037842 
L 332.799537 194.838943 
L 332.930134 214.870824 
L 333.060731 214.870824 
L 333.191315 225.676118 
L 333.321912 212.342618 
L 333.452496 257.588792 
L 333.583093 262.762564 
L 333.71369 143.021577 
L 333.844275 213.830744 
L 333.974871 192.512873 
L 334.105469 194.168772 
L 334.36665 149.169443 
L 334.627831 219.967168 
L 334.758428 223.887622 
L 334.889012 170.314848 
L 335.150206 216.524122 
L 335.28079 202.868277 
L 335.411387 229.804334 
L 335.541971 232.678184 
L 335.672568 205.505606 
L 335.803165 238.069365 
L 335.93375 235.55538 
L 336.194944 161.907926 
L 336.325528 219.762889 
L 336.456125 222.615506 
L 336.586709 173.654214 
L 336.717306 214.308896 
L 336.847903 215.408505 
L 337.239685 119.192984 
L 337.370269 180.678007 
L 337.500866 169.62462 
L 337.63145 168.103209 
L 337.762047 141.614746 
L 337.892644 204.092314 
L 338.023228 182.400472 
L 338.153825 189.434011 
L 338.284422 217.376754 
L 338.676188 179.413952 
L 338.806785 228.11036 
L 338.937382 196.77674 
L 339.067966 216.166593 
L 339.198563 207.088787 
L 339.32916 164.115625 
L 339.459744 160.165749 
L 339.590341 172.787061 
L 339.720925 215.049897 
L 339.851522 159.66024 
L 339.982119 198.946933 
L 340.112703 134.96131 
L 340.2433 181.013631 
L 340.89626 135.184775 
L 341.026857 101.993197 
L 341.157441 115.817361 
L 341.288038 108.205364 
L 341.418622 124.313034 
L 341.679816 76.916742 
L 341.8104 147.002955 
L 341.940997 90.524159 
L 342.332776 217.695672 
L 342.46336 172.877559 
L 342.593957 185.641127 
L 342.724554 185.310917 
L 342.855138 168.94275 
L 342.985735 123.537717 
L 343.116319 136.226629 
L 343.246916 113.603323 
L 343.377513 132.324279 
L 343.508097 93.526108 
L 343.638694 92.704105 
L 343.899875 171.77111 
L 344.030472 172.930153 
L 344.161056 139.748022 
L 344.291653 192.176061 
L 344.683432 151.717357 
L 344.814029 154.729272 
L 345.07521 204.768032 
L 345.205794 196.308142 
L 345.466988 148.047269 
L 345.728169 195.162062 
L 345.858753 145.308581 
L 345.98935 139.982644 
L 346.119947 128.263823 
L 346.250531 138.092167 
L 346.511726 181.446718 
L 346.772907 171.432208 
L 346.903491 174.493778 
L 347.034088 166.777277 
L 347.164685 123.209554 
L 347.295269 124.954767 
L 347.425866 146.558047 
L 347.55645 143.861552 
L 347.687047 176.212717 
L 347.817644 136.157441 
L 347.948228 140.733046 
L 348.078825 136.150478 
L 348.209422 135.828554 
L 348.340007 127.496094 
L 348.470604 159.802683 
L 348.601188 159.802683 
L 348.731785 180.149895 
L 348.992966 155.215363 
L 349.123563 166.004816 
L 349.254147 148.038865 
L 349.384744 188.915638 
L 349.515341 147.193167 
L 349.645925 186.787282 
L 349.776522 140.334956 
L 349.907119 144.566954 
L 350.037703 139.552768 
L 350.16834 173.774373 
L 350.298924 157.616995 
L 350.429522 184.19701 
L 350.690703 156.208718 
L 350.8213 151.644523 
L 350.951884 123.500912 
L 351.082481 129.534341 
L 351.213078 158.731511 
L 351.474259 118.904451 
L 351.604843 107.623412 
L 351.73544 111.14265 
L 351.866037 123.604034 
L 351.996621 157.799914 
L 352.127218 156.535854 
L 352.257802 131.473941 
L 352.649581 151.699096 
L 352.780178 139.745792 
L 352.910775 195.425763 
L 353.041359 164.213472 
L 353.171956 160.473112 
L 353.30254 139.781499 
L 353.563734 158.091139 
L 353.694318 150.525578 
L 353.955499 199.802263 
L 354.086096 224.114397 
L 354.347278 169.772772 
L 354.477875 186.98918 
L 354.739056 158.141665 
L 354.869653 152.905605 
L 355.130834 190.910446 
L 355.261431 160.246241 
L 355.392015 177.246889 
L 355.522612 213.079006 
L 355.653196 162.744548 
L 355.783793 211.683762 
L 356.044974 201.949888 
L 356.175571 226.734951 
L 356.306156 192.369132 
L 356.436753 199.285005 
L 356.56735 214.64051 
L 356.697934 192.318649 
L 356.828531 203.825509 
L 356.959115 191.811678 
L 357.220309 230.408429 
L 357.350893 234.390562 
L 357.48149 231.601044 
L 357.612074 260.895458 
L 357.742671 221.155171 
L 357.873268 216.401339 
L 358.134449 227.157857 
L 358.265046 206.529704 
L 358.395631 219.821206 
L 358.656812 184.576846 
L 358.787409 165.983602 
L 359.179187 235.867237 
L 359.309771 186.935924 
L 359.440368 188.50079 
L 359.570965 216.37545 
L 359.701549 212.308615 
L 359.832146 202.671162 
L 359.96273 254.645598 
L 360.093327 201.091438 
L 360.223924 234.161548 
L 360.354509 215.230832 
L 360.485106 250.300933 
L 360.61569 197.640271 
L 360.746287 237.701361 
L 360.876884 230.782832 
L 361.138065 175.461002 
L 361.399246 227.940548 
L 361.529843 223.099701 
L 361.660427 261.122866 
L 361.791024 258.864956 
L 361.921608 196.390228 
L 362.052205 209.1504 
L 362.182802 158.194614 
L 362.443984 159.592623 
L 362.705165 222.775039 
L 362.966346 177.61472 
L 363.096943 218.511854 
L 363.227493 185.425311 
L 363.358091 213.190906 
L 363.488688 163.629122 
L 363.619272 159.959143 
L 363.749869 161.428746 
L 363.880466 161.428746 
L 364.01105 199.606206 
L 364.141647 162.731042 
L 364.272231 169.285248 
L 364.402828 191.038416 
L 364.533425 191.784901 
L 364.664009 188.678612 
L 364.794606 151.821538 
L 364.92519 208.271872 
L 365.186384 175.924042 
L 365.447566 184.537455 
L 365.57815 187.880416 
L 365.708747 185.146567 
L 365.839344 197.692999 
L 365.969928 244.126788 
L 366.100525 213.268139 
L 366.231109 229.173647 
L 366.361706 169.978996 
L 366.492303 214.738477 
L 366.622887 162.452458 
L 366.884068 186.083651 
L 367.145262 170.481768 
L 367.275846 204.787627 
L 367.406444 181.270217 
L 367.537028 200.507477 
L 367.667625 182.279 
L 367.798222 244.85088 
L 367.928806 204.861025 
L 368.059403 240.615974 
L 368.189987 236.511833 
L 368.320584 196.923406 
L 368.451181 220.826094 
L 368.712362 165.185566 
L 368.842946 214.272989 
L 368.973543 192.91655 
L 369.10414 236.798337 
L 369.365322 199.909954 
L 369.495906 149.65637 
L 369.7571 164.154815 
L 369.887684 166.619493 
L 370.018281 159.393389 
L 370.148865 187.24899 
L 370.279462 185.695062 
L 370.410059 222.388785 
L 370.540643 188.016356 
L 370.67124 186.645895 
L 370.801824 146.66014 
L 370.932421 203.429502 
L 371.063018 196.859269 
L 371.3242 177.654192 
L 371.454784 227.45128 
L 371.585381 227.11135 
L 371.846562 228.555231 
L 371.977159 175.018652 
L 372.23834 225.716792 
L 372.630118 165.214248 
L 372.760702 232.313499 
L 373.021883 218.044442 
L 373.283077 241.118161 
L 373.413662 206.008958 
L 373.544259 201.534407 
L 373.674843 152.56577 
L 373.80544 165.0453 
L 373.936037 217.480317 
L 374.066621 174.174116 
L 374.197218 225.171153 
L 374.327802 213.373969 
L 374.458399 215.800816 
L 374.588996 166.109326 
L 374.71958 166.261185 
L 374.850177 169.376068 
L 374.980761 188.92449 
L 375.111358 184.279965 
L 375.241955 198.671382 
L 375.37254 188.201975 
L 375.503137 203.7977 
L 375.764318 172.454056 
L 376.025499 220.372628 
L 376.156093 217.832656 
L 376.286677 180.079197 
L 376.547871 231.824342 
L 376.678455 227.09408 
L 376.939636 197.49603 
L 377.331414 159.049413 
L 377.462011 163.983662 
L 377.723192 224.576972 
L 377.853777 223.063269 
L 378.114971 241.079817 
L 378.245555 176.399925 
L 378.376152 270.884787 
L 378.506736 257.088887 
L 378.637333 226.619314 
L 378.76793 258.31027 
L 378.898514 234.680345 
L 379.029111 170.914319 
L 379.159695 170.914319 
L 379.290292 211.522972 
L 379.420889 195.836912 
L 379.551473 210.81006 
L 379.68207 245.015366 
L 379.943252 172.366759 
L 380.073836 208.575047 
L 380.204433 157.831907 
L 380.33503 194.774054 
L 380.465614 191.606925 
L 380.726795 225.999327 
L 380.857392 231.843812 
L 380.987989 129.772884 
L 381.118573 131.25032 
L 381.24917 128.142128 
L 381.379754 201.236868 
L 381.510351 183.252807 
L 381.640948 181.90383 
L 381.771533 143.48048 
L 382.032714 174.736494 
L 382.163311 168.615014 
L 382.293908 170.490984 
L 382.424492 174.9323 
L 382.555089 190.245556 
L 382.81627 151.99452 
L 383.077451 175.848249 
L 383.338632 131.160113 
L 383.599813 123.88531 
L 383.861008 157.722392 
L 383.991592 184.829269 
L 384.122189 168.787315 
L 384.252773 172.216314 
L 384.38337 202.83063 
L 384.513967 198.661531 
L 384.644551 199.774388 
L 384.775148 192.95117 
L 384.905732 168.349704 
L 385.036329 122.412253 
L 385.166913 187.231198 
L 385.428107 110.09972 
L 385.558691 164.286598 
L 385.689288 168.758067 
L 385.819873 137.148428 
L 385.95047 158.907398 
L 386.081067 207.917849 
L 386.211651 167.321662 
L 386.342248 172.367662 
L 386.472832 159.775738 
L 386.734013 217.193079 
L 386.86461 196.458663 
L 386.995207 210.13432 
L 387.256388 187.51165 
L 387.386972 194.001799 
L 387.517569 248.739043 
L 387.648166 239.590647 
L 387.778751 242.789868 
L 387.909348 157.346749 
L 388.170529 243.979844 
L 388.43171 152.66531 
L 388.562307 159.060012 
L 388.692891 147.960592 
L 388.823488 147.243303 
L 389.084669 199.234608 
L 389.215271 179.066365 
L 389.476452 123.899743 
L 389.607036 177.074843 
L 389.998814 149.803361 
L 390.129412 189.155093 
L 390.259996 183.428168 
L 390.390593 185.117429 
L 390.521177 220.728495 
L 390.651774 167.461006 
L 390.782371 159.561683 
L 391.043552 117.712517 
L 391.174136 129.295336 
L 391.304733 117.759873 
L 391.43533 145.915281 
L 391.565914 110.734243 
L 391.957692 160.988008 
L 392.088277 143.162296 
L 392.349471 202.175862 
L 392.480055 184.861961 
L 392.741236 103.27772 
L 392.871833 111.176315 
L 393.263611 193.531746 
L 393.655376 134.753396 
L 393.785973 133.056194 
L 393.91657 142.804505 
L 394.047154 168.43136 
L 394.177752 117.703595 
L 394.438933 192.03454 
L 394.56953 192.03454 
L 394.700114 200.09268 
L 394.830711 176.210002 
L 394.961295 182.541653 
L 395.091892 197.552161 
L 395.222476 126.695198 
L 395.48367 164.699978 
L 395.614254 132.661433 
L 395.744851 132.650352 
L 395.875435 107.327263 
L 396.006032 155.794985 
L 396.136617 142.794351 
L 396.267214 103.314223 
L 396.528395 158.386893 
L 396.658992 134.616564 
L 396.789576 136.578506 
L 396.920173 112.848768 
L 397.05077 139.123471 
L 397.181354 124.210713 
L 397.311951 77.334685 
L 397.442535 92.628388 
L 397.573132 88.574226 
L 397.703716 147.425841 
L 397.834313 110.351366 
L 397.96491 118.048159 
L 398.226092 100.57649 
L 398.356676 53.568 
L 398.487273 75.459312 
L 398.487273 75.459312 
" clip-path="url(#p840c61914f)" style="fill: none; stroke: #1f77b4; stroke-width: 1.5; stroke-linecap: square"/>
   </g>
   <g id="patch_3">
    <path d="M 57.6 307.584 
L 57.6 41.472 
" style="fill: none; stroke: #000000; stroke-width: 0.8; stroke-linejoin: miter; stroke-linecap: square"/>
   </g>
   <g id="patch_4">
    <path d="M 414.72 307.584 
L 414.72 41.472 
" style="fill: none; stroke: #000000; stroke-width: 0.8; stroke-linejoin: miter; stroke-linecap: square"/>
   </g>
   <g id="patch_5">
    <path d="M 57.6 307.584 
L 414.72 307.584 
" style="fill: none; stroke: #000000; stroke-width: 0.8; stroke-linejoin: miter; stroke-linecap: square"/>
   </g>
   <g id="patch_6">
    <path d="M 57.6 41.472 
L 414.72 41.472 
" style="fill: none; stroke: #000000; stroke-width: 0.8; stroke-linejoin: miter; stroke-linecap: square"/>
   </g>
   <g id="text_14">
    <!-- Vemund-Tyholt-vinkel -->
    <g transform="translate(172.538437 35.472) scale(0.12 -0.12)">
     <defs>
      <path id="DejaVuSans-56" d="M 1831 0 
L 50 4666 
L 709 4666 
L 2188 738 
L 3669 4666 
L 4325 4666 
L 2547 0 
L 1831 0 
z
" transform="scale(0.015625)"/>
      <path id="DejaVuSans-75" d="M 544 1381 
L 544 3500 
L 1119 3500 
L 1119 1403 
Q 1119 906 1312 657 
Q 1506 409 1894 409 
Q 2359 409 2629 706 
Q 2900 1003 2900 1516 
L 2900 3500 
L 3475 3500 
L 3475 0 
L 2900 0 
L 2900 538 
Q 2691 219 2414 64 
Q 2138 -91 1772 -91 
Q 1169 -91 856 284 
Q 544 659 544 1381 
z
M 1991 3584 
L 1991 3584 
z
" transform="scale(0.015625)"/>
      <path id="DejaVuSans-6e" d="M 3513 2113 
L 3513 0 
L 2938 0 
L 2938 2094 
Q 2938 2591 2744 2837 
Q 2550 3084 2163 3084 
Q 1697 3084 1428 2787 
Q 1159 2491 1159 1978 
L 1159 0 
L 581 0 
L 581 3500 
L 1159 3500 
L 1159 2956 
Q 1366 3272 1645 3428 
Q 1925 3584 2291 3584 
Q 2894 3584 3203 3211 
Q 3513 2838 3513 2113 
z
" transform="scale(0.015625)"/>
      <path id="DejaVuSans-2d" d="M 313 2009 
L 1997 2009 
L 1997 1497 
L 313 1497 
L 313 2009 
z
" transform="scale(0.015625)"/>
      <path id="DejaVuSans-54" d="M -19 4666 
L 3928 4666 
L 3928 4134 
L 2272 4134 
L 2272 0 
L 1638 0 
L 1638 4134 
L -19 4134 
L -19 4666 
z
" transform="scale(0.015625)"/>
      <path id="DejaVuSans-79" d="M 2059 -325 
Q 1816 -950 1584 -1140 
Q 1353 -1331 966 -1331 
L 506 -1331 
L 506 -850 
L 844 -850 
Q 1081 -850 1212 -737 
Q 1344 -625 1503 -206 
L 1606 56 
L 191 3500 
L 800 3500 
L 1894 763 
L 2988 3500 
L 3597 3500 
L 2059 -325 
z
" transform="scale(0.015625)"/>
      <path id="DejaVuSans-68" d="M 3513 2113 
L 3513 0 
L 2938 0 
L 2938 2094 
Q 2938 2591 2744 2837 
Q 2550 3084 2163 3084 
Q 1697 3084 1428 2787 
Q 1159 2491 1159 1978 
L 1159 0 
L 581 0 
L 581 4863 
L 1159 4863 
L 1159 2956 
Q 1366 3272 1645 3428 
Q 1925 3584 2291 3584 
Q 2894 3584 3203 3211 
Q 3513 2838 3513 2113 
z
" transform="scale(0.015625)"/>
      <path id="DejaVuSans-6f" d="M 1959 3097 
Q 1497 3097 1228 2736 
Q 959 2375 959 1747 
Q 959 1119 1226 758 
Q 1494 397 1959 397 
Q 2419 397 2687 759 
Q 2956 1122 2956 1747 
Q 2956 2369 2687 2733 
Q 2419 3097 1959 3097 
z
M 1959 3584 
Q 2709 3584 3137 3096 
Q 3566 2609 3566 1747 
Q 3566 888 3137 398 
Q 2709 -91 1959 -91 
Q 1206 -91 779 398 
Q 353 888 353 1747 
Q 353 2609 779 3096 
Q 1206 3584 1959 3584 
z
" transform="scale(0.015625)"/>
      <path id="DejaVuSans-6c" d="M 603 4863 
L 1178 4863 
L 1178 0 
L 603 0 
L 603 4863 
z
" transform="scale(0.015625)"/>
      <path id="DejaVuSans-76" d="M 191 3500 
L 800 3500 
L 1894 563 
L 2988 3500 
L 3597 3500 
L 2284 0 
L 1503 0 
L 191 3500 
z
" transform="scale(0.015625)"/>
      <path id="DejaVuSans-6b" d="M 581 4863 
L 1159 4863 
L 1159 1991 
L 2875 3500 
L 3609 3500 
L 1753 1863 
L 3688 0 
L 2938 0 
L 1159 1709 
L 1159 0 
L 581 0 
L 581 4863 
z
" transform="scale(0.015625)"/>
     </defs>
     <use xlink:href="#DejaVuSans-56"/>
     <use xlink:href="#DejaVuSans-65" x="60.658203"/>
     <use xlink:href="#DejaVuSans-6d" x="122.181641"/>
     <use xlink:href="#DejaVuSans-75" x="219.59375"/>
     <use xlink:href="#DejaVuSans-6e" x="282.972656"/>
     <use xlink:href="#DejaVuSans-64" x="346.351562"/>
     <use xlink:href="#DejaVuSans-2d" x="409.828125"/>
     <use xlink:href="#DejaVuSans-54" x="436.787109"/>
     <use xlink:href="#DejaVuSans-79" x="482.246094"/>
     <use xlink:href="#DejaVuSans-68" x="541.425781"/>
     <use xlink:href="#DejaVuSans-6f" x="604.804688"/>
     <use xlink:href="#DejaVuSans-6c" x="665.986328"/>
     <use xlink:href="#DejaVuSans-74" x="693.769531"/>
     <use xlink:href="#DejaVuSans-2d" x="732.978516"/>
     <use xlink:href="#DejaVuSans-76" x="766.4375"/>
     <use xlink:href="#DejaVuSans-69" x="825.617188"/>
     <use xlink:href="#DejaVuSans-6e" x="853.400391"/>
     <use xlink:href="#DejaVuSans-6b" x="916.779297"/>
     <use xlink:href="#DejaVuSans-65" x="971.064453"/>
     <use xlink:href="#DejaVuSans-6c" x="1032.587891"/>
    </g>
   </g>
   <g id="legend_1">
    <g id="patch_7">
     <path d="M 64.6 302.584 
L 202.635937 302.584 
Q 204.635937 302.584 204.635937 300.584 
L 204.635937 286.905875 
Q 204.635937 284.905875 202.635937 284.905875 
L 64.6 284.905875 
Q 62.6 284.905875 62.6 286.905875 
L 62.6 300.584 
Q 62.6 302.584 64.6 302.584 
z
" style="fill: #ffffff; opacity: 0.8; stroke: #cccccc; stroke-linejoin: miter"/>
    </g>
    <g id="line2d_13">
     <path d="M 66.6 293.004312 
L 76.6 293.004312 
L 86.6 293.004312 
" style="fill: none; stroke: #1f77b4; stroke-width: 1.5; stroke-linecap: square"/>
    </g>
    <g id="text_15">
     <!-- Vemund-Tyholt-vinkel -->
     <g transform="translate(94.6 296.504312) scale(0.1 -0.1)">
      <use xlink:href="#DejaVuSans-56"/>
      <use xlink:href="#DejaVuSans-65" x="60.658203"/>
      <use xlink:href="#DejaVuSans-6d" x="122.181641"/>
      <use xlink:href="#DejaVuSans-75" x="219.59375"/>
      <use xlink:href="#DejaVuSans-6e" x="282.972656"/>
      <use xlink:href="#DejaVuSans-64" x="346.351562"/>
      <use xlink:href="#DejaVuSans-2d" x="409.828125"/>
      <use xlink:href="#DejaVuSans-54" x="436.787109"/>
      <use xlink:href="#DejaVuSans-79" x="482.246094"/>
      <use xlink:href="#DejaVuSans-68" x="541.425781"/>
      <use xlink:href="#DejaVuSans-6f" x="604.804688"/>
      <use xlink:href="#DejaVuSans-6c" x="665.986328"/>
      <use xlink:href="#DejaVuSans-74" x="693.769531"/>
      <use xlink:href="#DejaVuSans-2d" x="732.978516"/>
      <use xlink:href="#DejaVuSans-76" x="766.4375"/>
      <use xlink:href="#DejaVuSans-69" x="825.617188"/>
      <use xlink:href="#DejaVuSans-6e" x="853.400391"/>
      <use xlink:href="#DejaVuSans-6b" x="916.779297"/>
      <use xlink:href="#DejaVuSans-65" x="971.064453"/>
      <use xlink:href="#DejaVuSans-6c" x="1032.587891"/>
     </g>
    </g>
   </g>
  </g>
 </g>
 <defs>
  <clipPath id="p840c61914f">
   <rect x="57.6" y="41.472" width="357.12" height="266.112"/>
  </clipPath>
 </defs>
</svg>
