<?xml version="1.0" encoding="utf-8" standalone="no"?>
<!DOCTYPE svg PUBLIC "-//W3C//DTD SVG 1.1//EN"
  "http://www.w3.org/Graphics/SVG/1.1/DTD/svg11.dtd">
<svg xmlns:xlink="http://www.w3.org/1999/xlink" width="627.998437pt" height="458.691562pt" viewBox="0 0 627.998437 458.691562" xmlns="http://www.w3.org/2000/svg" version="1.1">
 <metadata>
  <rdf:RDF xmlns:dc="http://purl.org/dc/elements/1.1/" xmlns:cc="http://creativecommons.org/ns#" xmlns:rdf="http://www.w3.org/1999/02/22-rdf-syntax-ns#">
   <cc:Work>
    <dc:type rdf:resource="http://purl.org/dc/dcmitype/StillImage"/>
    <dc:date>2023-04-10T19:04:28.274394</dc:date>
    <dc:format>image/svg+xml</dc:format>
    <dc:creator>
     <cc:Agent>
      <dc:title>Matplotlib v3.7.1, https://matplotlib.org/</dc:title>
     </cc:Agent>
    </dc:creator>
   </cc:Work>
  </rdf:RDF>
 </metadata>
 <defs>
  <style type="text/css">*{stroke-linejoin: round; stroke-linecap: butt}</style>
 </defs>
 <g id="figure_1">
  <g id="patch_1">
   <path d="M 0 458.691562 
L 627.998437 458.691562 
L 627.998437 0 
L 0 0 
L 0 458.691562 
z
" style="fill: none"/>
  </g>
  <g id="axes_1">
   <g id="patch_2">
    <path d="M 62.798438 414.957187 
L 620.798437 414.957187 
L 620.798437 26.877187 
L 62.798438 26.877187 
L 62.798438 414.957187 
z
" style="fill: none"/>
   </g>
   <g id="matplotlib.axis_1">
    <g id="xtick_1">
     <g id="line2d_1">
      <path d="M 126.020344 414.957187 
L 126.020344 26.877187 
" clip-path="url(#peca49c8a8b)" style="fill: none; stroke: #808080; stroke-width: 0.8; stroke-linecap: square"/>
     </g>
     <g id="line2d_2">
      <defs>
       <path id="me71e5dc712" d="M 0 0 
L 0 -5 
" style="stroke: #808080; stroke-width: 0.8"/>
      </defs>
      <g>
       <use xlink:href="#me71e5dc712" x="126.020344" y="414.957187" style="fill: #808080; stroke: #808080; stroke-width: 0.8"/>
      </g>
     </g>
     <g id="text_1">
      <!-- 25 -->
      <g style="fill: #808080" transform="translate(116.476594 429.854844) scale(0.15 -0.15)">
       <defs>
        <path id="DejaVuSans-32" d="M 1228 531 
L 3431 531 
L 3431 0 
L 469 0 
L 469 531 
Q 828 903 1448 1529 
Q 2069 2156 2228 2338 
Q 2531 2678 2651 2914 
Q 2772 3150 2772 3378 
Q 2772 3750 2511 3984 
Q 2250 4219 1831 4219 
Q 1534 4219 1204 4116 
Q 875 4013 500 3803 
L 500 4441 
Q 881 4594 1212 4672 
Q 1544 4750 1819 4750 
Q 2544 4750 2975 4387 
Q 3406 4025 3406 3419 
Q 3406 3131 3298 2873 
Q 3191 2616 2906 2266 
Q 2828 2175 2409 1742 
Q 1991 1309 1228 531 
z
" transform="scale(0.015625)"/>
        <path id="DejaVuSans-35" d="M 691 4666 
L 3169 4666 
L 3169 4134 
L 1269 4134 
L 1269 2991 
Q 1406 3038 1543 3061 
Q 1681 3084 1819 3084 
Q 2600 3084 3056 2656 
Q 3513 2228 3513 1497 
Q 3513 744 3044 326 
Q 2575 -91 1722 -91 
Q 1428 -91 1123 -41 
Q 819 9 494 109 
L 494 744 
Q 775 591 1075 516 
Q 1375 441 1709 441 
Q 2250 441 2565 725 
Q 2881 1009 2881 1497 
Q 2881 1984 2565 2268 
Q 2250 2553 1709 2553 
Q 1456 2553 1204 2497 
Q 953 2441 691 2322 
L 691 4666 
z
" transform="scale(0.015625)"/>
       </defs>
       <use xlink:href="#DejaVuSans-32"/>
       <use xlink:href="#DejaVuSans-35" x="63.623047"/>
      </g>
     </g>
    </g>
    <g id="xtick_2">
     <g id="line2d_3">
      <path d="M 219.97468 414.957187 
L 219.97468 26.877187 
" clip-path="url(#peca49c8a8b)" style="fill: none; stroke: #808080; stroke-width: 0.8; stroke-linecap: square"/>
     </g>
     <g id="line2d_4">
      <g>
       <use xlink:href="#me71e5dc712" x="219.97468" y="414.957187" style="fill: #808080; stroke: #808080; stroke-width: 0.8"/>
      </g>
     </g>
     <g id="text_2">
      <!-- 30 -->
      <g style="fill: #808080" transform="translate(210.43093 429.854844) scale(0.15 -0.15)">
       <defs>
        <path id="DejaVuSans-33" d="M 2597 2516 
Q 3050 2419 3304 2112 
Q 3559 1806 3559 1356 
Q 3559 666 3084 287 
Q 2609 -91 1734 -91 
Q 1441 -91 1130 -33 
Q 819 25 488 141 
L 488 750 
Q 750 597 1062 519 
Q 1375 441 1716 441 
Q 2309 441 2620 675 
Q 2931 909 2931 1356 
Q 2931 1769 2642 2001 
Q 2353 2234 1838 2234 
L 1294 2234 
L 1294 2753 
L 1863 2753 
Q 2328 2753 2575 2939 
Q 2822 3125 2822 3475 
Q 2822 3834 2567 4026 
Q 2313 4219 1838 4219 
Q 1578 4219 1281 4162 
Q 984 4106 628 3988 
L 628 4550 
Q 988 4650 1302 4700 
Q 1616 4750 1894 4750 
Q 2613 4750 3031 4423 
Q 3450 4097 3450 3541 
Q 3450 3153 3228 2886 
Q 3006 2619 2597 2516 
z
" transform="scale(0.015625)"/>
        <path id="DejaVuSans-30" d="M 2034 4250 
Q 1547 4250 1301 3770 
Q 1056 3291 1056 2328 
Q 1056 1369 1301 889 
Q 1547 409 2034 409 
Q 2525 409 2770 889 
Q 3016 1369 3016 2328 
Q 3016 3291 2770 3770 
Q 2525 4250 2034 4250 
z
M 2034 4750 
Q 2819 4750 3233 4129 
Q 3647 3509 3647 2328 
Q 3647 1150 3233 529 
Q 2819 -91 2034 -91 
Q 1250 -91 836 529 
Q 422 1150 422 2328 
Q 422 3509 836 4129 
Q 1250 4750 2034 4750 
z
" transform="scale(0.015625)"/>
       </defs>
       <use xlink:href="#DejaVuSans-33"/>
       <use xlink:href="#DejaVuSans-30" x="63.623047"/>
      </g>
     </g>
    </g>
    <g id="xtick_3">
     <g id="line2d_5">
      <path d="M 313.929016 414.957187 
L 313.929016 26.877187 
" clip-path="url(#peca49c8a8b)" style="fill: none; stroke: #808080; stroke-width: 0.8; stroke-linecap: square"/>
     </g>
     <g id="line2d_6">
      <g>
       <use xlink:href="#me71e5dc712" x="313.929016" y="414.957187" style="fill: #808080; stroke: #808080; stroke-width: 0.8"/>
      </g>
     </g>
     <g id="text_3">
      <!-- 35 -->
      <g style="fill: #808080" transform="translate(304.385266 429.854844) scale(0.15 -0.15)">
       <use xlink:href="#DejaVuSans-33"/>
       <use xlink:href="#DejaVuSans-35" x="63.623047"/>
      </g>
     </g>
    </g>
    <g id="xtick_4">
     <g id="line2d_7">
      <path d="M 407.883353 414.957187 
L 407.883353 26.877187 
" clip-path="url(#peca49c8a8b)" style="fill: none; stroke: #808080; stroke-width: 0.8; stroke-linecap: square"/>
     </g>
     <g id="line2d_8">
      <g>
       <use xlink:href="#me71e5dc712" x="407.883353" y="414.957187" style="fill: #808080; stroke: #808080; stroke-width: 0.8"/>
      </g>
     </g>
     <g id="text_4">
      <!-- 40 -->
      <g style="fill: #808080" transform="translate(398.339603 429.854844) scale(0.15 -0.15)">
       <defs>
        <path id="DejaVuSans-34" d="M 2419 4116 
L 825 1625 
L 2419 1625 
L 2419 4116 
z
M 2253 4666 
L 3047 4666 
L 3047 1625 
L 3713 1625 
L 3713 1100 
L 3047 1100 
L 3047 0 
L 2419 0 
L 2419 1100 
L 313 1100 
L 313 1709 
L 2253 4666 
z
" transform="scale(0.015625)"/>
       </defs>
       <use xlink:href="#DejaVuSans-34"/>
       <use xlink:href="#DejaVuSans-30" x="63.623047"/>
      </g>
     </g>
    </g>
    <g id="xtick_5">
     <g id="line2d_9">
      <path d="M 501.837689 414.957187 
L 501.837689 26.877187 
" clip-path="url(#peca49c8a8b)" style="fill: none; stroke: #808080; stroke-width: 0.8; stroke-linecap: square"/>
     </g>
     <g id="line2d_10">
      <g>
       <use xlink:href="#me71e5dc712" x="501.837689" y="414.957187" style="fill: #808080; stroke: #808080; stroke-width: 0.8"/>
      </g>
     </g>
     <g id="text_5">
      <!-- 45 -->
      <g style="fill: #808080" transform="translate(492.293939 429.854844) scale(0.15 -0.15)">
       <use xlink:href="#DejaVuSans-34"/>
       <use xlink:href="#DejaVuSans-35" x="63.623047"/>
      </g>
     </g>
    </g>
    <g id="xtick_6">
     <g id="line2d_11">
      <path d="M 595.792025 414.957187 
L 595.792025 26.877187 
" clip-path="url(#peca49c8a8b)" style="fill: none; stroke: #808080; stroke-width: 0.8; stroke-linecap: square"/>
     </g>
     <g id="line2d_12">
      <g>
       <use xlink:href="#me71e5dc712" x="595.792025" y="414.957187" style="fill: #808080; stroke: #808080; stroke-width: 0.8"/>
      </g>
     </g>
     <g id="text_6">
      <!-- 50 -->
      <g style="fill: #808080" transform="translate(586.248275 429.854844) scale(0.15 -0.15)">
       <use xlink:href="#DejaVuSans-35"/>
       <use xlink:href="#DejaVuSans-30" x="63.623047"/>
      </g>
     </g>
    </g>
    <g id="text_7">
     <!-- time [s] -->
     <g style="fill: #808080" transform="translate(312.711328 448.372031) scale(0.15 -0.15)">
      <defs>
       <path id="DejaVuSans-74" d="M 1172 4494 
L 1172 3500 
L 2356 3500 
L 2356 3053 
L 1172 3053 
L 1172 1153 
Q 1172 725 1289 603 
Q 1406 481 1766 481 
L 2356 481 
L 2356 0 
L 1766 0 
Q 1100 0 847 248 
Q 594 497 594 1153 
L 594 3053 
L 172 3053 
L 172 3500 
L 594 3500 
L 594 4494 
L 1172 4494 
z
" transform="scale(0.015625)"/>
       <path id="DejaVuSans-69" d="M 603 3500 
L 1178 3500 
L 1178 0 
L 603 0 
L 603 3500 
z
M 603 4863 
L 1178 4863 
L 1178 4134 
L 603 4134 
L 603 4863 
z
" transform="scale(0.015625)"/>
       <path id="DejaVuSans-6d" d="M 3328 2828 
Q 3544 3216 3844 3400 
Q 4144 3584 4550 3584 
Q 5097 3584 5394 3201 
Q 5691 2819 5691 2113 
L 5691 0 
L 5113 0 
L 5113 2094 
Q 5113 2597 4934 2840 
Q 4756 3084 4391 3084 
Q 3944 3084 3684 2787 
Q 3425 2491 3425 1978 
L 3425 0 
L 2847 0 
L 2847 2094 
Q 2847 2600 2669 2842 
Q 2491 3084 2119 3084 
Q 1678 3084 1418 2786 
Q 1159 2488 1159 1978 
L 1159 0 
L 581 0 
L 581 3500 
L 1159 3500 
L 1159 2956 
Q 1356 3278 1631 3431 
Q 1906 3584 2284 3584 
Q 2666 3584 2933 3390 
Q 3200 3197 3328 2828 
z
" transform="scale(0.015625)"/>
       <path id="DejaVuSans-65" d="M 3597 1894 
L 3597 1613 
L 953 1613 
Q 991 1019 1311 708 
Q 1631 397 2203 397 
Q 2534 397 2845 478 
Q 3156 559 3463 722 
L 3463 178 
Q 3153 47 2828 -22 
Q 2503 -91 2169 -91 
Q 1331 -91 842 396 
Q 353 884 353 1716 
Q 353 2575 817 3079 
Q 1281 3584 2069 3584 
Q 2775 3584 3186 3129 
Q 3597 2675 3597 1894 
z
M 3022 2063 
Q 3016 2534 2758 2815 
Q 2500 3097 2075 3097 
Q 1594 3097 1305 2825 
Q 1016 2553 972 2059 
L 3022 2063 
z
" transform="scale(0.015625)"/>
       <path id="DejaVuSans-20" transform="scale(0.015625)"/>
       <path id="DejaVuSans-5b" d="M 550 4863 
L 1875 4863 
L 1875 4416 
L 1125 4416 
L 1125 -397 
L 1875 -397 
L 1875 -844 
L 550 -844 
L 550 4863 
z
" transform="scale(0.015625)"/>
       <path id="DejaVuSans-73" d="M 2834 3397 
L 2834 2853 
Q 2591 2978 2328 3040 
Q 2066 3103 1784 3103 
Q 1356 3103 1142 2972 
Q 928 2841 928 2578 
Q 928 2378 1081 2264 
Q 1234 2150 1697 2047 
L 1894 2003 
Q 2506 1872 2764 1633 
Q 3022 1394 3022 966 
Q 3022 478 2636 193 
Q 2250 -91 1575 -91 
Q 1294 -91 989 -36 
Q 684 19 347 128 
L 347 722 
Q 666 556 975 473 
Q 1284 391 1588 391 
Q 1994 391 2212 530 
Q 2431 669 2431 922 
Q 2431 1156 2273 1281 
Q 2116 1406 1581 1522 
L 1381 1569 
Q 847 1681 609 1914 
Q 372 2147 372 2553 
Q 372 3047 722 3315 
Q 1072 3584 1716 3584 
Q 2034 3584 2315 3537 
Q 2597 3491 2834 3397 
z
" transform="scale(0.015625)"/>
       <path id="DejaVuSans-5d" d="M 1947 4863 
L 1947 -844 
L 622 -844 
L 622 -397 
L 1369 -397 
L 1369 4416 
L 622 4416 
L 622 4863 
L 1947 4863 
z
" transform="scale(0.015625)"/>
      </defs>
      <use xlink:href="#DejaVuSans-74"/>
      <use xlink:href="#DejaVuSans-69" x="39.208984"/>
      <use xlink:href="#DejaVuSans-6d" x="66.992188"/>
      <use xlink:href="#DejaVuSans-65" x="164.404297"/>
      <use xlink:href="#DejaVuSans-20" x="225.927734"/>
      <use xlink:href="#DejaVuSans-5b" x="257.714844"/>
      <use xlink:href="#DejaVuSans-73" x="296.728516"/>
      <use xlink:href="#DejaVuSans-5d" x="348.828125"/>
     </g>
    </g>
   </g>
   <g id="matplotlib.axis_2">
    <g id="ytick_1">
     <g id="line2d_13">
      <path d="M 62.798438 354.011511 
L 620.798437 354.011511 
" clip-path="url(#peca49c8a8b)" style="fill: none; stroke: #808080; stroke-width: 0.8; stroke-linecap: square"/>
     </g>
     <g id="line2d_14">
      <defs>
       <path id="ma607c249c7" d="M 0 0 
L 5 0 
" style="stroke: #808080; stroke-width: 0.8"/>
      </defs>
      <g>
       <use xlink:href="#ma607c249c7" x="62.798438" y="354.011511" style="fill: #808080; stroke: #808080; stroke-width: 0.8"/>
      </g>
     </g>
     <g id="text_8">
      <!-- 63.6 -->
      <g style="fill: #808080" transform="translate(25.9 359.710339) scale(0.15 -0.15)">
       <defs>
        <path id="DejaVuSans-36" d="M 2113 2584 
Q 1688 2584 1439 2293 
Q 1191 2003 1191 1497 
Q 1191 994 1439 701 
Q 1688 409 2113 409 
Q 2538 409 2786 701 
Q 3034 994 3034 1497 
Q 3034 2003 2786 2293 
Q 2538 2584 2113 2584 
z
M 3366 4563 
L 3366 3988 
Q 3128 4100 2886 4159 
Q 2644 4219 2406 4219 
Q 1781 4219 1451 3797 
Q 1122 3375 1075 2522 
Q 1259 2794 1537 2939 
Q 1816 3084 2150 3084 
Q 2853 3084 3261 2657 
Q 3669 2231 3669 1497 
Q 3669 778 3244 343 
Q 2819 -91 2113 -91 
Q 1303 -91 875 529 
Q 447 1150 447 2328 
Q 447 3434 972 4092 
Q 1497 4750 2381 4750 
Q 2619 4750 2861 4703 
Q 3103 4656 3366 4563 
z
" transform="scale(0.015625)"/>
        <path id="DejaVuSans-2e" d="M 684 794 
L 1344 794 
L 1344 0 
L 684 0 
L 684 794 
z
" transform="scale(0.015625)"/>
       </defs>
       <use xlink:href="#DejaVuSans-36"/>
       <use xlink:href="#DejaVuSans-33" x="63.623047"/>
       <use xlink:href="#DejaVuSans-2e" x="127.246094"/>
       <use xlink:href="#DejaVuSans-36" x="159.033203"/>
      </g>
     </g>
    </g>
    <g id="ytick_2">
     <g id="line2d_15">
      <path d="M 62.798438 290.525169 
L 620.798437 290.525169 
" clip-path="url(#peca49c8a8b)" style="fill: none; stroke: #808080; stroke-width: 0.8; stroke-linecap: square"/>
     </g>
     <g id="line2d_16">
      <g>
       <use xlink:href="#ma607c249c7" x="62.798438" y="290.525169" style="fill: #808080; stroke: #808080; stroke-width: 0.8"/>
      </g>
     </g>
     <g id="text_9">
      <!-- 63.8 -->
      <g style="fill: #808080" transform="translate(25.9 296.223998) scale(0.15 -0.15)">
       <defs>
        <path id="DejaVuSans-38" d="M 2034 2216 
Q 1584 2216 1326 1975 
Q 1069 1734 1069 1313 
Q 1069 891 1326 650 
Q 1584 409 2034 409 
Q 2484 409 2743 651 
Q 3003 894 3003 1313 
Q 3003 1734 2745 1975 
Q 2488 2216 2034 2216 
z
M 1403 2484 
Q 997 2584 770 2862 
Q 544 3141 544 3541 
Q 544 4100 942 4425 
Q 1341 4750 2034 4750 
Q 2731 4750 3128 4425 
Q 3525 4100 3525 3541 
Q 3525 3141 3298 2862 
Q 3072 2584 2669 2484 
Q 3125 2378 3379 2068 
Q 3634 1759 3634 1313 
Q 3634 634 3220 271 
Q 2806 -91 2034 -91 
Q 1263 -91 848 271 
Q 434 634 434 1313 
Q 434 1759 690 2068 
Q 947 2378 1403 2484 
z
M 1172 3481 
Q 1172 3119 1398 2916 
Q 1625 2713 2034 2713 
Q 2441 2713 2670 2916 
Q 2900 3119 2900 3481 
Q 2900 3844 2670 4047 
Q 2441 4250 2034 4250 
Q 1625 4250 1398 4047 
Q 1172 3844 1172 3481 
z
" transform="scale(0.015625)"/>
       </defs>
       <use xlink:href="#DejaVuSans-36"/>
       <use xlink:href="#DejaVuSans-33" x="63.623047"/>
       <use xlink:href="#DejaVuSans-2e" x="127.246094"/>
       <use xlink:href="#DejaVuSans-38" x="159.033203"/>
      </g>
     </g>
    </g>
    <g id="ytick_3">
     <g id="line2d_17">
      <path d="M 62.798438 227.038828 
L 620.798437 227.038828 
" clip-path="url(#peca49c8a8b)" style="fill: none; stroke: #808080; stroke-width: 0.8; stroke-linecap: square"/>
     </g>
     <g id="line2d_18">
      <g>
       <use xlink:href="#ma607c249c7" x="62.798438" y="227.038828" style="fill: #808080; stroke: #808080; stroke-width: 0.8"/>
      </g>
     </g>
     <g id="text_10">
      <!-- 64.0 -->
      <g style="fill: #808080" transform="translate(25.9 232.737656) scale(0.15 -0.15)">
       <use xlink:href="#DejaVuSans-36"/>
       <use xlink:href="#DejaVuSans-34" x="63.623047"/>
       <use xlink:href="#DejaVuSans-2e" x="127.246094"/>
       <use xlink:href="#DejaVuSans-30" x="159.033203"/>
      </g>
     </g>
    </g>
    <g id="ytick_4">
     <g id="line2d_19">
      <path d="M 62.798438 163.552487 
L 620.798437 163.552487 
" clip-path="url(#peca49c8a8b)" style="fill: none; stroke: #808080; stroke-width: 0.8; stroke-linecap: square"/>
     </g>
     <g id="line2d_20">
      <g>
       <use xlink:href="#ma607c249c7" x="62.798438" y="163.552487" style="fill: #808080; stroke: #808080; stroke-width: 0.8"/>
      </g>
     </g>
     <g id="text_11">
      <!-- 64.2 -->
      <g style="fill: #808080" transform="translate(25.9 169.251315) scale(0.15 -0.15)">
       <use xlink:href="#DejaVuSans-36"/>
       <use xlink:href="#DejaVuSans-34" x="63.623047"/>
       <use xlink:href="#DejaVuSans-2e" x="127.246094"/>
       <use xlink:href="#DejaVuSans-32" x="159.033203"/>
      </g>
     </g>
    </g>
    <g id="ytick_5">
     <g id="line2d_21">
      <path d="M 62.798438 100.066146 
L 620.798437 100.066146 
" clip-path="url(#peca49c8a8b)" style="fill: none; stroke: #808080; stroke-width: 0.8; stroke-linecap: square"/>
     </g>
     <g id="line2d_22">
      <g>
       <use xlink:href="#ma607c249c7" x="62.798438" y="100.066146" style="fill: #808080; stroke: #808080; stroke-width: 0.8"/>
      </g>
     </g>
     <g id="text_12">
      <!-- 64.4 -->
      <g style="fill: #808080" transform="translate(25.9 105.764974) scale(0.15 -0.15)">
       <use xlink:href="#DejaVuSans-36"/>
       <use xlink:href="#DejaVuSans-34" x="63.623047"/>
       <use xlink:href="#DejaVuSans-2e" x="127.246094"/>
       <use xlink:href="#DejaVuSans-34" x="159.033203"/>
      </g>
     </g>
    </g>
    <g id="ytick_6">
     <g id="line2d_23">
      <path d="M 62.798438 36.579805 
L 620.798437 36.579805 
" clip-path="url(#peca49c8a8b)" style="fill: none; stroke: #808080; stroke-width: 0.8; stroke-linecap: square"/>
     </g>
     <g id="line2d_24">
      <g>
       <use xlink:href="#ma607c249c7" x="62.798438" y="36.579805" style="fill: #808080; stroke: #808080; stroke-width: 0.8"/>
      </g>
     </g>
     <g id="text_13">
      <!-- 64.6 -->
      <g style="fill: #808080" transform="translate(25.9 42.278633) scale(0.15 -0.15)">
       <use xlink:href="#DejaVuSans-36"/>
       <use xlink:href="#DejaVuSans-34" x="63.623047"/>
       <use xlink:href="#DejaVuSans-2e" x="127.246094"/>
       <use xlink:href="#DejaVuSans-36" x="159.033203"/>
      </g>
     </g>
    </g>
    <g id="text_14">
     <!-- $\theta$ [deg] -->
     <g style="fill: #808080" transform="translate(18.75 247.917187) rotate(-90) scale(0.15 -0.15)">
      <defs>
       <path id="DejaVuSans-Oblique-3b8" d="M 2913 2219 
L 925 2219 
Q 791 1284 928 888 
Q 1100 400 1566 400 
Q 2034 400 2391 891 
Q 2703 1322 2913 2219 
z
M 3009 2750 
Q 3094 3638 2984 3950 
Q 2813 4444 2353 4444 
Q 1875 4444 1525 3956 
Q 1250 3563 1034 2750 
L 3009 2750 
z
M 2444 4913 
Q 3194 4913 3494 4250 
Q 3794 3591 3566 2422 
Q 3341 1256 2781 594 
Q 2225 -72 1475 -72 
Q 722 -72 425 594 
Q 128 1256 353 2422 
Q 581 3591 1134 4250 
Q 1691 4913 2444 4913 
z
" transform="scale(0.015625)"/>
       <path id="DejaVuSans-64" d="M 2906 2969 
L 2906 4863 
L 3481 4863 
L 3481 0 
L 2906 0 
L 2906 525 
Q 2725 213 2448 61 
Q 2172 -91 1784 -91 
Q 1150 -91 751 415 
Q 353 922 353 1747 
Q 353 2572 751 3078 
Q 1150 3584 1784 3584 
Q 2172 3584 2448 3432 
Q 2725 3281 2906 2969 
z
M 947 1747 
Q 947 1113 1208 752 
Q 1469 391 1925 391 
Q 2381 391 2643 752 
Q 2906 1113 2906 1747 
Q 2906 2381 2643 2742 
Q 2381 3103 1925 3103 
Q 1469 3103 1208 2742 
Q 947 2381 947 1747 
z
" transform="scale(0.015625)"/>
       <path id="DejaVuSans-67" d="M 2906 1791 
Q 2906 2416 2648 2759 
Q 2391 3103 1925 3103 
Q 1463 3103 1205 2759 
Q 947 2416 947 1791 
Q 947 1169 1205 825 
Q 1463 481 1925 481 
Q 2391 481 2648 825 
Q 2906 1169 2906 1791 
z
M 3481 434 
Q 3481 -459 3084 -895 
Q 2688 -1331 1869 -1331 
Q 1566 -1331 1297 -1286 
Q 1028 -1241 775 -1147 
L 775 -588 
Q 1028 -725 1275 -790 
Q 1522 -856 1778 -856 
Q 2344 -856 2625 -561 
Q 2906 -266 2906 331 
L 2906 616 
Q 2728 306 2450 153 
Q 2172 0 1784 0 
Q 1141 0 747 490 
Q 353 981 353 1791 
Q 353 2603 747 3093 
Q 1141 3584 1784 3584 
Q 2172 3584 2450 3431 
Q 2728 3278 2906 2969 
L 2906 3500 
L 3481 3500 
L 3481 434 
z
" transform="scale(0.015625)"/>
      </defs>
      <use xlink:href="#DejaVuSans-Oblique-3b8" transform="translate(0 0.234375)"/>
      <use xlink:href="#DejaVuSans-20" transform="translate(61.181641 0.234375)"/>
      <use xlink:href="#DejaVuSans-5b" transform="translate(92.96875 0.234375)"/>
      <use xlink:href="#DejaVuSans-64" transform="translate(131.982422 0.234375)"/>
      <use xlink:href="#DejaVuSans-65" transform="translate(195.458984 0.234375)"/>
      <use xlink:href="#DejaVuSans-67" transform="translate(256.982422 0.234375)"/>
      <use xlink:href="#DejaVuSans-5d" transform="translate(320.458984 0.234375)"/>
     </g>
    </g>
   </g>
   <g id="line2d_25">
    <path d="M 88.162074 249.618773 
L 88.539939 220.019731 
L 88.728863 232.643757 
L 89.106728 286.692596 
L 89.484573 206.203703 
L 89.862438 213.524764 
L 90.051362 251.461704 
L 90.240304 236.47695 
L 90.429227 242.760119 
L 90.618151 199.528081 
L 90.807093 209.773992 
L 90.996016 213.691037 
L 91.184939 178.705581 
L 91.373882 176.644572 
L 91.562805 199.358216 
L 91.751747 258.299536 
L 92.318536 220.949099 
L 92.507459 228.989505 
L 92.696383 229.285006 
L 92.885325 260.432085 
L 93.074249 257.977554 
L 93.263172 243.21477 
L 93.452114 264.88618 
L 93.641038 269.833649 
L 93.829961 241.069307 
L 94.018903 250.931979 
L 94.207826 212.566099 
L 94.39675 228.657075 
L 94.585692 181.75644 
L 94.774615 218.155729 
L 94.963539 197.322618 
L 95.152481 237.160834 
L 95.530327 167.169997 
L 96.097135 261.87785 
L 96.286059 265.731343 
L 96.474982 217.029791 
L 96.663924 207.146406 
L 96.852848 240.212056 
L 97.041771 235.038588 
L 97.230713 235.079877 
L 97.419636 226.825262 
L 97.60856 206.545095 
L 97.797502 247.446709 
L 98.175349 178.17533 
L 98.364291 161.559636 
L 98.553214 133.258114 
L 98.742138 208.175533 
L 99.120003 179.659268 
L 99.308927 220.402002 
L 99.497869 153.381346 
L 99.686792 219.739294 
L 99.875716 205.803955 
L 100.064658 248.44201 
L 100.253581 214.780715 
L 100.442523 215.087993 
L 100.631447 203.346207 
L 100.82037 242.599473 
L 101.009312 188.62699 
L 101.198236 247.973338 
L 101.387159 209.036812 
L 101.576101 277.163508 
L 101.953948 222.625599 
L 102.14289 260.298052 
L 102.331813 190.277291 
L 102.520737 161.850105 
L 102.709679 208.714494 
L 102.898603 178.912345 
L 103.087526 174.717804 
L 103.276468 187.314865 
L 103.465391 230.347801 
L 103.654315 246.091112 
L 103.843257 222.573103 
L 104.03218 219.873241 
L 104.221104 184.741921 
L 104.410046 242.222432 
L 104.598969 242.656039 
L 104.787893 249.629064 
L 104.976835 211.01493 
L 105.165758 252.697805 
L 105.3547 257.271763 
L 105.921489 158.92123 
L 106.110413 173.026857 
L 106.488278 253.273523 
L 106.677201 252.573848 
L 106.866125 204.267109 
L 107.055067 208.315059 
L 107.24399 219.152972 
L 107.432914 201.009995 
L 107.621856 144.381302 
L 107.81078 144.381302 
L 107.999703 177.824831 
L 108.188638 191.428806 
L 108.377561 167.560684 
L 108.566485 188.3808 
L 108.94435 143.49072 
L 109.133274 141.108155 
L 109.322216 125.022429 
L 109.511139 162.62534 
L 109.700063 106.010806 
L 109.889005 164.392916 
L 110.077928 157.752685 
L 110.266851 163.955818 
L 110.455794 144.127722 
L 110.644717 185.308565 
L 110.83364 195.699583 
L 111.022583 240.346919 
L 111.211506 247.64382 
L 111.400429 209.185239 
L 111.589371 196.21571 
L 111.778295 167.318048 
L 111.967237 171.408623 
L 112.15616 149.79206 
L 112.534026 193.955539 
L 112.722949 204.152394 
L 112.911873 202.336581 
L 113.100815 148.560543 
L 113.289738 153.703687 
L 113.478662 134.104628 
L 113.667604 127.277543 
L 113.856527 147.563161 
L 114.045451 194.378702 
L 114.234393 156.042859 
L 114.423316 145.794802 
L 114.61224 141.886339 
L 114.801182 188.71462 
L 114.990105 175.358226 
L 115.179028 172.336074 
L 115.367971 172.768448 
L 115.556894 204.386842 
L 115.745817 184.084431 
L 115.93476 182.827512 
L 116.123683 163.548387 
L 116.312606 162.53362 
L 116.501548 170.063113 
L 116.690472 203.511762 
L 116.879395 168.418053 
L 117.068337 218.363097 
L 117.257261 223.140329 
L 117.446184 202.504473 
L 117.635126 235.802788 
L 117.82405 218.724151 
L 118.012973 252.267856 
L 118.201915 218.612476 
L 118.390839 251.055593 
L 118.579781 216.747295 
L 118.768704 237.36157 
L 118.957628 187.906167 
L 119.335493 233.801502 
L 119.524416 233.701372 
L 119.713359 223.077079 
L 119.902282 230.581392 
L 120.091205 189.307753 
L 120.469071 238.674378 
L 120.657994 248.740181 
L 120.846937 172.08574 
L 121.03586 204.790892 
L 121.224783 205.462771 
L 121.413725 254.691812 
L 121.602649 176.943709 
L 121.791572 171.929329 
L 121.980514 190.603983 
L 122.169438 150.902986 
L 122.358361 148.503371 
L 122.547303 167.418575 
L 122.92515 154.039767 
L 123.114092 174.54681 
L 123.491939 154.192632 
L 123.680881 181.693157 
L 123.869805 130.734041 
L 124.058728 197.249014 
L 124.24767 202.638762 
L 124.436593 219.638612 
L 124.625517 203.010022 
L 124.814459 204.460362 
L 125.192306 88.680867 
L 125.570171 181.766661 
L 125.759095 183.787346 
L 125.948037 158.424003 
L 126.13696 158.117009 
L 126.325884 195.011091 
L 126.514826 196.856096 
L 126.703749 202.965304 
L 126.892684 202.375205 
L 127.081627 169.06457 
L 127.27055 163.218929 
L 127.459492 204.780428 
L 127.648415 206.029157 
L 127.837339 219.510692 
L 128.026281 215.971933 
L 128.215204 207.980274 
L 128.404128 162.481441 
L 128.59307 163.471995 
L 128.781993 166.508492 
L 128.970917 167.661311 
L 129.159859 219.816711 
L 129.348782 175.082526 
L 129.537705 219.687447 
L 129.726648 180.03534 
L 129.915571 165.887677 
L 130.104495 161.092888 
L 130.293437 189.467132 
L 130.48236 189.467132 
L 130.671284 209.442901 
L 130.860225 207.363714 
L 131.049149 128.411736 
L 131.238072 172.413069 
L 131.427014 163.559419 
L 131.615938 140.898995 
L 131.804861 174.160413 
L 131.993804 153.480503 
L 132.182727 168.333256 
L 132.37165 207.318205 
L 132.560592 131.262921 
L 132.749516 115.599557 
L 132.938439 133.565874 
L 133.127381 132.23054 
L 133.316305 230.879527 
L 133.69417 149.076193 
L 133.883094 163.807908 
L 134.072017 131.790419 
L 135.016672 205.156951 
L 135.205595 188.961696 
L 135.394537 193.719393 
L 135.58346 226.985269 
L 135.772384 234.722763 
L 135.961326 182.560256 
L 136.150249 213.779361 
L 136.339173 162.571755 
L 136.528115 162.166689 
L 136.717038 144.846319 
L 136.905962 175.172161 
L 137.094904 176.478343 
L 137.283827 210.909642 
L 137.661693 159.110597 
L 137.850616 164.269752 
L 138.039539 226.368135 
L 138.417405 152.271753 
L 138.606329 137.610262 
L 138.79527 210.941511 
L 139.173117 161.488659 
L 139.362059 189.999858 
L 139.550983 166.764058 
L 139.739906 169.637766 
L 139.928849 155.903784 
L 140.117772 184.744073 
L 140.306695 119.521517 
L 140.495637 163.474732 
L 140.873484 149.54695 
L 141.062426 125.519206 
L 141.25135 125.011104 
L 141.440273 132.924629 
L 141.629215 148.022943 
L 141.818139 95.777209 
L 142.007062 144.197789 
L 142.384927 159.211977 
L 142.573851 155.800426 
L 142.762793 124.010531 
L 142.951717 120.796467 
L 143.14064 147.120161 
L 143.329582 98.55819 
L 143.518505 155.712075 
L 143.707429 158.45364 
L 143.896371 196.457943 
L 144.085294 211.523808 
L 144.274218 164.602554 
L 144.46316 148.627226 
L 144.652083 151.666693 
L 144.841007 172.58333 
L 145.029949 172.404525 
L 145.218872 171.123304 
L 145.407795 195.601142 
L 145.596738 167.21483 
L 145.785661 171.369041 
L 146.163527 244.180533 
L 146.541374 166.230164 
L 146.730315 192.88447 
L 146.919239 163.096426 
L 147.108162 155.395955 
L 147.297104 208.729848 
L 147.486028 183.000337 
L 147.67497 225.420782 
L 147.863894 159.736508 
L 148.052817 204.24264 
L 148.24174 211.685975 
L 148.997471 164.111705 
L 149.186395 167.140974 
L 149.375318 209.347411 
L 149.56426 149.843944 
L 149.753184 152.004227 
L 149.942107 198.977929 
L 150.131049 102.012604 
L 150.319972 198.553488 
L 150.508896 174.909645 
L 150.697838 168.7793 
L 150.886761 171.046995 
L 151.075685 167.126925 
L 151.264627 144.810776 
L 151.45355 184.769023 
L 151.642474 188.964686 
L 151.831416 219.309769 
L 152.398205 129.771702 
L 152.587128 180.129741 
L 152.776052 186.787463 
L 152.964994 186.787463 
L 153.342841 177.268714 
L 153.720706 90.315917 
L 153.909629 108.310958 
L 154.098572 43.213854 
L 154.476419 148.73961 
L 154.665361 156.89067 
L 154.854284 178.11346 
L 155.043207 126.804207 
L 155.232149 176.849278 
L 155.421073 160.63939 
L 155.609996 196.167061 
L 155.798939 205.929394 
L 155.987862 179.367676 
L 156.176785 183.720545 
L 156.365727 158.473999 
L 156.554651 211.405768 
L 156.743574 153.457576 
L 156.932516 143.199825 
L 157.310363 84.690594 
L 157.499305 66.107297 
L 157.877152 122.773379 
L 158.066094 144.059049 
L 158.255017 100.736787 
L 158.443941 142.382883 
L 158.632883 135.143313 
L 158.821806 121.867131 
L 159.01073 59.0762 
L 159.199672 156.966776 
L 159.388595 125.706297 
L 159.577519 183.246641 
L 159.766461 203.886911 
L 159.955384 125.616725 
L 160.144308 138.20509 
L 160.33325 139.852703 
L 160.900039 158.362033 
L 161.088962 151.695792 
L 161.466828 88.564564 
L 161.844674 149.838341 
L 162.033617 123.118713 
L 162.22254 132.276348 
L 162.600406 165.755962 
L 162.789329 116.391655 
L 162.978252 98.741878 
L 163.167194 130.704396 
L 163.356118 138.587301 
L 163.545041 134.643038 
L 163.733983 87.058983 
L 163.922907 142.862844 
L 164.11183 129.397262 
L 164.300772 188.022994 
L 164.489696 145.283271 
L 164.867564 123.911706 
L 165.056488 151.231701 
L 165.245411 134.567247 
L 165.434353 193.367718 
L 165.8122 97.773464 
L 166.001142 101.889132 
L 166.378989 95.632435 
L 166.567931 117.801459 
L 166.756855 80.444672 
L 166.945778 201.209776 
L 167.323643 146.566452 
L 167.512567 121.339698 
L 167.890432 115.991913 
L 168.079356 103.893082 
L 168.268279 118.354875 
L 168.457221 172.362544 
L 168.646145 126.547318 
L 168.835068 138.694906 
L 169.02401 94.439768 
L 169.212934 96.81659 
L 169.590799 142.837455 
L 169.779723 135.648622 
L 170.346511 182.718128 
L 170.535435 95.900468 
L 170.9133 170.045104 
L 171.102224 139.565169 
L 171.291166 153.455897 
L 171.480089 130.82163 
L 171.669013 141.541838 
L 171.857955 134.726131 
L 172.046878 161.292237 
L 172.235802 118.885562 
L 172.424744 130.701376 
L 172.613667 178.544693 
L 172.802591 148.156115 
L 172.991533 203.450258 
L 173.180456 170.07673 
L 173.36938 179.295205 
L 173.558322 173.359347 
L 173.747245 115.330621 
L 174.125111 99.78234 
L 174.314034 129.233342 
L 174.502957 88.389644 
L 174.6919 103.772672 
L 175.069746 151.025729 
L 175.258688 121.556251 
L 175.447612 121.556251 
L 175.636535 138.563867 
L 175.825477 74.716369 
L 176.014401 83.0021 
L 176.203324 104.983255 
L 176.392266 144.35457 
L 176.58119 143.918456 
L 176.770113 140.552092 
L 176.959055 70.083426 
L 177.147979 118.667942 
L 177.336902 84.623754 
L 177.525825 97.695001 
L 178.092614 192.011386 
L 178.281556 205.158586 
L 178.47048 152.043111 
L 178.659403 133.287517 
L 178.848345 135.23636 
L 179.037269 139.167477 
L 179.226192 128.373061 
L 179.415134 154.201864 
L 179.604058 139.736415 
L 179.792981 155.809277 
L 179.981923 183.196466 
L 180.170847 169.305791 
L 180.35977 164.002363 
L 180.548712 155.090259 
L 180.926559 184.453798 
L 181.115501 84.096248 
L 181.493348 163.809087 
L 181.68229 191.702933 
L 181.871213 149.363411 
L 182.060137 160.318989 
L 182.249079 119.174388 
L 182.438002 134.915355 
L 182.626926 193.233889 
L 182.815868 154.676783 
L 183.004791 195.722569 
L 183.193715 185.823115 
L 183.382656 155.485398 
L 183.571579 173.224043 
L 183.760503 168.128609 
L 183.949445 130.676819 
L 184.327292 182.491306 
L 184.516215 115.470527 
L 185.083004 159.124886 
L 185.271946 205.243945 
L 185.649793 132.98654 
L 185.838735 125.649381 
L 186.216582 148.335884 
L 186.405524 159.127974 
L 186.594447 220.216207 
L 186.783371 207.465542 
L 186.972313 216.599978 
L 187.161236 208.845069 
L 187.35016 136.961892 
L 187.539102 163.03272 
L 187.728025 152.631972 
L 187.916949 151.995754 
L 188.105891 173.105511 
L 188.294814 117.326247 
L 188.67268 142.535001 
L 188.861603 134.900884 
L 189.050527 83.571103 
L 189.428392 145.982606 
L 189.617316 226.062453 
L 189.995181 162.903454 
L 190.184104 199.250738 
L 190.373028 155.899166 
L 190.56197 233.718989 
L 190.939817 147.069406 
L 191.317682 214.12404 
L 191.506606 170.511926 
L 191.695548 191.918261 
L 191.884471 163.096125 
L 192.073395 164.302495 
L 192.262337 141.851115 
L 192.45126 134.505186 
L 192.640184 119.125275 
L 193.018049 165.424444 
L 193.206972 136.568285 
L 193.395915 155.520251 
L 193.584838 115.399451 
L 193.773761 143.082388 
L 193.962704 145.734814 
L 194.34055 183.236129 
L 194.529492 139.400607 
L 194.718416 183.823595 
L 194.907339 180.370686 
L 195.096263 221.906097 
L 195.285205 177.222045 
L 195.663052 158.970809 
L 195.851994 248.583884 
L 196.040917 165.183376 
L 196.22984 171.750727 
L 196.418783 139.210491 
L 196.607706 141.266807 
L 196.796629 130.379619 
L 196.985572 130.970449 
L 197.174495 83.11749 
L 197.552361 210.808834 
L 198.119149 167.636989 
L 198.308073 167.636989 
L 198.496996 200.043582 
L 198.685938 164.319536 
L 198.874862 170.441317 
L 199.063785 150.687357 
L 199.252727 184.818379 
L 199.441651 124.368164 
L 200.00844 163.413901 
L 200.197363 133.654815 
L 200.386286 134.082922 
L 200.575229 104.351027 
L 201.142017 207.652964 
L 201.519864 111.962391 
L 201.708806 171.023486 
L 201.89773 111.124919 
L 202.086653 185.268229 
L 202.275588 177.372027 
L 202.464512 160.194892 
L 202.653435 192.342609 
L 202.842377 192.506335 
L 203.031301 219.28663 
L 203.220224 180.027837 
L 203.409147 211.48329 
L 203.598089 221.533311 
L 203.787013 204.31334 
L 203.975936 174.439034 
L 204.164878 184.570343 
L 204.353802 115.30533 
L 204.542725 181.235746 
L 204.731667 154.740328 
L 204.920591 152.942893 
L 205.109514 116.947017 
L 205.298456 184.883316 
L 205.48738 181.167343 
L 205.676303 228.736012 
L 205.865245 171.861177 
L 206.054169 167.653682 
L 206.243092 218.27701 
L 206.432034 172.072856 
L 206.620958 166.150101 
L 206.809881 185.830992 
L 206.998804 154.890007 
L 207.187746 219.826407 
L 207.37667 226.378721 
L 207.565593 178.734373 
L 207.754535 177.555287 
L 207.943459 195.299355 
L 208.132382 173.128843 
L 208.321324 172.409892 
L 208.699171 131.112724 
L 208.888113 154.071281 
L 209.077037 157.212103 
L 209.26596 154.394101 
L 209.454902 143.56632 
L 209.643826 153.754204 
L 209.832749 182.513035 
L 210.021691 122.404694 
L 210.210614 106.012589 
L 210.588461 97.938515 
L 210.777403 106.560389 
L 210.966327 161.963577 
L 211.15525 144.460908 
L 211.344192 115.539735 
L 211.533116 131.298928 
L 211.722039 118.376871 
L 211.910981 94.324695 
L 212.099905 106.248607 
L 212.288828 136.369896 
L 212.47777 140.958663 
L 212.666694 196.551044 
L 212.855617 156.928707 
L 213.044559 215.396313 
L 213.233483 170.241521 
L 213.611348 135.167831 
L 213.800271 148.530815 
L 213.989195 141.697633 
L 214.178118 205.381425 
L 214.555984 146.478524 
L 214.744907 140.699202 
L 214.933849 171.883165 
L 215.122773 150.816498 
L 215.311696 147.611081 
L 215.500638 175.305906 
L 215.878485 127.776193 
L 216.067427 145.41398 
L 216.256351 152.107856 
L 216.634216 189.245355 
L 216.823139 121.684073 
L 217.200986 174.583443 
L 217.389928 165.816234 
L 217.578852 166.101248 
L 217.767775 126.499345 
L 217.956717 179.360307 
L 218.145641 158.6014 
L 218.334564 111.108781 
L 218.523506 121.427634 
L 218.901353 194.8308 
L 219.090295 199.684998 
L 219.279219 210.132178 
L 219.657084 139.05639 
L 219.846008 197.838941 
L 220.034931 178.65987 
L 220.223873 177.221546 
L 220.412796 208.998526 
L 220.60172 138.341391 
L 220.790643 138.341391 
L 220.979585 113.767693 
L 221.168509 112.914116 
L 221.357432 133.351952 
L 221.546374 131.081682 
L 221.735298 136.147697 
L 221.924221 184.56907 
L 222.113163 199.337557 
L 222.302086 155.61111 
L 222.49101 156.000736 
L 222.679952 127.046102 
L 222.868876 174.525107 
L 223.057799 140.943023 
L 223.246722 154.327189 
L 223.435665 152.76194 
L 223.813511 228.776718 
L 224.002453 240.05353 
L 224.191377 237.837448 
L 224.3803 222.957822 
L 224.569242 145.841569 
L 224.947089 260.366366 
L 225.136031 171.125595 
L 225.324954 188.099409 
L 225.513878 141.99691 
L 225.70282 160.025108 
L 225.891744 123.28315 
L 226.26959 243.174541 
L 226.647456 146.341925 
L 227.025321 201.334149 
L 227.59211 110.541704 
L 227.781034 132.157507 
L 228.158899 66.724238 
L 228.347823 108.973694 
L 228.536746 117.124293 
L 228.725669 130.574409 
L 228.914611 134.419243 
L 229.103535 124.519575 
L 229.292458 140.623539 
L 229.481401 120.052632 
L 229.670324 129.328341 
L 229.859247 128.944167 
L 230.048189 201.772478 
L 230.426036 168.514346 
L 230.614978 153.947742 
L 230.803902 213.308928 
L 230.992825 182.535948 
L 231.181749 190.741932 
L 231.370691 132.112861 
L 231.559614 140.057078 
L 231.748537 162.709819 
L 231.937479 170.334862 
L 232.126403 206.357783 
L 232.315326 194.240962 
L 232.504269 201.063141 
L 232.693192 194.493601 
L 233.071058 141.042357 
L 233.259981 152.991684 
L 233.448904 143.427314 
L 233.637827 141.348452 
L 233.82677 173.748513 
L 234.015693 183.387292 
L 234.204616 221.780071 
L 234.393559 178.811896 
L 234.582482 182.706746 
L 234.771405 143.325245 
L 234.960347 223.460605 
L 235.149271 157.319537 
L 235.338194 151.538758 
L 235.71606 162.474135 
L 235.904983 123.997899 
L 236.093926 163.231707 
L 236.282849 124.937187 
L 236.471772 120.117073 
L 236.660696 170.447605 
L 236.849638 167.355815 
L 237.038561 159.578877 
L 237.227484 172.61966 
L 237.416427 104.46762 
L 237.60535 168.4087 
L 237.794274 162.944773 
L 237.983216 205.755148 
L 238.361062 147.320147 
L 238.550004 137.327819 
L 238.738928 176.329028 
L 238.927851 121.354968 
L 239.116775 142.447834 
L 239.305717 122.212352 
L 239.49464 148.903546 
L 239.683564 106.964395 
L 239.872518 112.222656 
L 240.250365 147.233879 
L 240.439307 187.013475 
L 240.628231 134.145386 
L 240.817154 121.82661 
L 241.006077 153.953688 
L 241.195019 137.162649 
L 241.383943 147.707519 
L 241.572866 144.317586 
L 241.761808 150.976872 
L 241.950732 81.748204 
L 242.139655 128.453456 
L 242.328597 117.317735 
L 242.517521 115.678291 
L 242.706444 81.750034 
L 242.895386 119.294103 
L 243.08431 114.822994 
L 243.273233 114.822994 
L 243.462156 139.86115 
L 243.651099 105.735329 
L 243.840022 106.275104 
L 244.028945 121.484923 
L 244.217888 100.192479 
L 244.406811 101.549973 
L 244.595734 26.877188 
L 244.784676 98.186974 
L 244.9736 123.735528 
L 245.162523 120.99948 
L 245.351465 143.261672 
L 245.540389 123.135031 
L 245.729312 118.730984 
L 245.918236 152.955137 
L 246.107178 158.914397 
L 246.485024 96.461719 
L 246.673967 142.701012 
L 247.051813 120.593543 
L 247.240756 145.3326 
L 247.429679 149.353176 
L 247.618602 113.570501 
L 247.807526 118.184469 
L 247.996468 107.241167 
L 248.185391 110.084125 
L 248.374315 82.292208 
L 248.75218 196.81575 
L 248.941104 146.2269 
L 249.318969 155.138235 
L 249.507892 102.120919 
L 249.696816 117.801265 
L 249.885758 115.850367 
L 250.074681 115.798916 
L 250.263605 113.121539 
L 250.452547 100.068324 
L 250.64147 96.88043 
L 251.019336 150.822694 
L 251.208259 134.888872 
L 251.397183 130.505576 
L 251.586125 188.072462 
L 251.963972 130.3031 
L 252.341837 207.143679 
L 252.53076 197.970926 
L 252.719684 227.856433 
L 252.908626 212.161522 
L 253.097549 178.819281 
L 253.286473 193.448652 
L 253.475415 178.876803 
L 253.664338 188.443681 
L 253.853262 191.839022 
L 254.231127 139.402127 
L 254.420051 192.290436 
L 254.608974 182.270045 
L 254.797916 165.429964 
L 254.98684 203.352101 
L 255.175763 170.099254 
L 255.364686 164.15497 
L 255.553628 152.528473 
L 255.742552 159.924719 
L 255.931475 124.766341 
L 256.309341 218.507033 
L 256.498264 159.454887 
L 256.87613 143.964746 
L 257.065053 200.481746 
L 257.253995 160.680407 
L 257.442919 187.719333 
L 257.820765 170.695378 
L 258.009708 148.480423 
L 258.198631 140.900622 
L 258.387554 118.866067 
L 258.576496 121.517425 
L 258.765419 114.42623 
L 258.954343 135.803355 
L 259.332208 213.278278 
L 259.521131 215.569968 
L 259.898997 129.102682 
L 260.08792 215.219193 
L 260.276844 175.159158 
L 260.843633 131.879434 
L 261.032575 168.138892 
L 261.410422 135.650529 
L 261.599345 165.816105 
L 261.788287 168.898847 
L 261.977211 236.064292 
L 262.166134 193.347568 
L 262.355076 194.599739 
L 262.543999 220.783196 
L 262.732923 231.092048 
L 262.921865 202.107927 
L 263.110788 237.198798 
L 263.299712 235.744024 
L 263.488635 241.477944 
L 263.677577 196.910005 
L 264.055424 159.439957 
L 264.244366 158.265632 
L 264.43329 160.935783 
L 264.811155 153.51751 
L 265.000079 143.780037 
L 265.377925 170.061862 
L 265.944714 122.184808 
L 266.511503 208.158857 
L 266.700427 191.06057 
L 266.889369 160.360545 
L 267.078292 180.559994 
L 267.267215 183.935135 
L 267.645081 123.853789 
L 267.834004 133.509892 
L 268.022947 187.286058 
L 268.21187 122.459351 
L 268.400793 157.458531 
L 268.778659 107.078339 
L 268.967582 146.0512 
L 269.156506 122.804756 
L 269.345448 173.770934 
L 269.534371 178.887988 
L 269.723295 137.865018 
L 269.912237 182.121731 
L 270.10116 155.294198 
L 270.290084 102.984639 
L 270.479007 141.694692 
L 270.667949 105.722524 
L 270.856872 102.600341 
L 271.045796 108.63027 
L 271.234738 100.515008 
L 271.423661 97.280088 
L 271.612585 132.549502 
L 271.801508 125.742207 
L 272.179374 175.817144 
L 272.368297 127.604638 
L 272.557239 169.911021 
L 272.746163 124.589615 
L 272.935086 160.946524 
L 273.124028 143.917547 
L 273.312952 186.721288 
L 273.501875 181.852053 
L 273.690798 192.349636 
L 273.87974 185.486113 
L 274.068664 142.998288 
L 274.257587 143.319669 
L 274.446529 146.762296 
L 274.635453 100.193949 
L 274.824376 154.297291 
L 275.202242 97.00989 
L 275.580088 164.636617 
L 275.769031 169.116773 
L 275.957954 128.474858 
L 276.146877 172.961663 
L 276.713666 214.095309 
L 277.091532 204.915565 
L 277.469379 178.16269 
L 277.847244 204.383115 
L 278.036168 211.749472 
L 278.22511 212.032345 
L 278.602956 169.317925 
L 278.79188 179.724936 
L 278.980822 234.055707 
L 279.169745 254.863479 
L 279.358669 259.180762 
L 279.736534 180.00672 
L 279.925458 223.557465 
L 280.114381 218.266332 
L 280.303323 196.547503 
L 280.492247 203.782602 
L 280.68117 221.493366 
L 280.870112 222.749489 
L 281.059036 228.639282 
L 281.247959 244.704584 
L 281.436882 242.274114 
L 281.625824 248.736472 
L 281.814748 246.919853 
L 282.003671 238.115995 
L 282.192613 168.225685 
L 282.57046 220.155166 
L 282.759402 220.380544 
L 282.948326 216.227392 
L 283.137249 207.689879 
L 283.326172 161.157445 
L 283.515115 157.516669 
L 283.704038 176.384072 
L 283.892961 176.102348 
L 284.081904 202.856245 
L 284.270827 176.61049 
L 284.45975 218.927429 
L 284.648674 233.26294 
L 284.837616 219.406287 
L 285.026539 184.032779 
L 285.215463 213.989753 
L 285.404405 148.860921 
L 285.593328 175.118124 
L 285.782252 219.922281 
L 285.971175 182.298539 
L 286.160117 190.088235 
L 286.349041 245.922954 
L 286.537964 205.137757 
L 286.726906 199.007587 
L 286.915829 201.011705 
L 287.104753 218.419931 
L 287.293695 191.890586 
L 287.482618 212.27473 
L 287.671542 171.098332 
L 287.860465 190.151257 
L 288.049407 188.406819 
L 288.238331 229.298811 
L 288.427254 194.989836 
L 288.616196 194.989836 
L 288.80512 182.835766 
L 288.994043 151.993044 
L 289.182966 193.758654 
L 289.371909 161.257831 
L 289.560832 180.044851 
L 289.749755 156.471324 
L 290.127621 221.061097 
L 290.505468 168.028965 
L 290.69441 223.212958 
L 290.883333 162.629608 
L 291.072257 221.887139 
L 291.261199 240.49186 
L 291.450122 202.302793 
L 291.639045 188.114173 
L 291.827988 221.897952 
L 292.016911 214.973623 
L 292.205834 231.491665 
L 292.394758 214.683192 
L 292.5837 229.796983 
L 292.772623 213.737052 
L 292.961547 220.9681 
L 293.150489 189.615195 
L 293.528336 246.192867 
L 293.717259 213.85844 
L 293.906201 254.548089 
L 294.47299 220.988287 
L 294.661913 171.332161 
L 294.850837 169.797054 
L 295.039779 153.384093 
L 295.228702 183.805115 
L 295.795491 157.090057 
L 295.984415 113.2466 
L 296.173343 116.134508 
L 296.362285 125.451166 
L 296.551208 141.298599 
L 296.740132 183.259021 
L 296.929055 132.779927 
L 297.306921 177.779653 
L 297.495844 177.376747 
L 297.87371 230.569005 
L 298.062633 176.143637 
L 298.251556 185.551861 
L 298.440498 163.589763 
L 298.629422 184.37325 
L 298.818345 232.637989 
L 299.007287 215.057498 
L 299.196211 265.585121 
L 299.385134 153.022814 
L 299.574058 207.859234 
L 299.763 174.793034 
L 299.951923 270.843822 
L 300.140846 228.727625 
L 300.329789 248.050203 
L 300.518712 187.07737 
L 300.707635 250.293366 
L 300.896559 232.239157 
L 301.085501 267.450744 
L 301.274424 241.328808 
L 301.463348 282.375109 
L 301.65229 242.513879 
L 301.841213 237.077338 
L 302.030137 236.754649 
L 302.219079 269.482566 
L 302.408002 236.183591 
L 302.596926 227.6413 
L 302.785849 228.55509 
L 302.974791 259.467887 
L 303.163715 250.053275 
L 303.352638 246.51054 
L 303.54158 263.850978 
L 303.730503 206.850847 
L 303.919427 218.238457 
L 304.10835 243.546941 
L 304.297292 231.980145 
L 304.486216 254.66801 
L 304.864081 236.14641 
L 305.053005 236.434889 
L 305.241928 238.011119 
L 305.619794 184.870852 
L 305.99764 212.621964 
L 306.186583 257.63658 
L 306.375506 209.585738 
L 306.564429 212.340079 
L 306.753353 227.460781 
L 306.942295 220.88431 
L 307.131218 201.716336 
L 307.320142 233.260239 
L 307.509084 224.355472 
L 307.698007 227.025584 
L 307.886931 190.275755 
L 308.075854 186.968805 
L 308.264796 171.894294 
L 308.453719 190.876575 
L 309.020508 275.192378 
L 309.209432 233.724105 
L 309.398355 246.963312 
L 309.587297 243.809792 
L 309.776221 220.415614 
L 309.965144 225.62862 
L 310.154067 238.179113 
L 310.34301 234.825988 
L 310.720856 183.08781 
L 310.909799 188.792621 
L 311.098722 188.792621 
L 311.287645 244.048512 
L 311.476569 240.703254 
L 311.665511 242.313302 
L 311.854434 223.968414 
L 312.043358 232.990719 
L 312.2323 207.261335 
L 312.610147 256.593196 
L 312.79907 180.832065 
L 313.176935 259.102818 
L 313.365859 238.834977 
L 313.554801 233.607287 
L 314.121571 153.625699 
L 314.310513 153.089378 
L 314.68836 203.577097 
L 314.877302 209.685863 
L 315.066219 240.172292 
L 315.255142 199.590269 
L 315.444065 230.352585 
L 315.633008 190.045525 
L 315.821931 230.77635 
L 316.010854 241.168132 
L 316.199778 259.757838 
L 316.38872 229.141542 
L 316.577643 255.559259 
L 316.766567 219.775206 
L 317.144432 269.458107 
L 317.900144 203.65768 
L 318.089068 217.79193 
L 318.27801 203.061816 
L 318.466933 217.625618 
L 318.655857 200.41909 
L 318.84478 199.715465 
L 319.033722 209.909302 
L 319.411569 157.465817 
L 319.600511 181.398652 
L 319.789435 164.636239 
L 320.167281 220.08366 
L 320.356224 217.057593 
L 320.545147 180.873275 
L 320.73407 197.11099 
L 320.922994 194.806001 
L 321.111936 197.759976 
L 321.300859 204.606494 
L 321.678725 193.890014 
L 321.867648 158.638399 
L 322.056572 191.501023 
L 322.245495 175.971326 
L 322.434437 208.72264 
L 322.623361 206.9799 
L 322.812284 201.316766 
L 323.001226 248.714253 
L 323.190149 201.862 
L 323.379073 223.184059 
L 323.567996 223.886432 
L 323.756938 193.597829 
L 323.945862 199.715616 
L 324.134785 210.925998 
L 324.323709 201.862606 
L 324.512651 218.917369 
L 324.890497 204.849608 
L 325.07944 263.67907 
L 325.64621 172.825413 
L 325.835152 166.699072 
L 326.212999 216.862903 
L 326.401941 179.227291 
L 326.590864 205.947474 
L 326.779787 193.794237 
L 326.968711 148.084312 
L 327.346577 202.284479 
L 327.5355 199.80299 
L 327.724423 158.829101 
L 327.913365 152.746034 
L 328.291212 252.228489 
L 328.480154 215.959362 
L 328.669078 221.522355 
L 328.858001 221.058506 
L 329.046925 211.02624 
L 329.235867 268.372015 
L 329.42479 218.277939 
L 329.613713 257.749008 
L 329.991579 129.606343 
L 330.180502 179.615411 
L 330.369426 191.739933 
L 330.558368 219.892312 
L 330.747291 230.766841 
L 330.936215 256.297134 
L 331.125138 242.448056 
L 331.31408 207.557098 
L 331.503003 258.04596 
L 331.691927 230.962774 
L 331.88085 251.744953 
L 332.069792 193.678732 
L 332.447639 254.201739 
L 332.636582 237.571112 
L 332.825505 197.694878 
L 333.014428 227.416679 
L 333.203352 278.810297 
L 333.392294 248.388962 
L 333.581217 248.388962 
L 333.77014 237.371176 
L 333.959081 249.889284 
L 334.148004 201.761427 
L 334.336928 260.997905 
L 334.525851 209.846639 
L 334.714793 266.969044 
L 334.903717 240.785641 
L 335.09264 239.223252 
L 335.281563 257.264372 
L 335.470506 238.418774 
L 335.848352 286.277584 
L 336.226218 242.838011 
L 336.415141 279.713603 
L 336.604065 282.306403 
L 336.793007 236.89202 
L 336.98193 246.514838 
L 337.170854 206.084054 
L 337.359777 286.456698 
L 337.548719 287.304617 
L 337.737643 229.323813 
L 337.926566 211.319124 
L 338.115508 249.464732 
L 338.304432 212.357312 
L 338.493355 258.558549 
L 338.682278 247.273175 
L 338.87122 266.756321 
L 339.060144 270.282526 
L 339.249067 258.942526 
L 339.437991 273.518927 
L 339.626933 202.787022 
L 339.815856 225.840176 
L 340.00478 195.250975 
L 340.193722 227.186803 
L 340.382645 281.830618 
L 340.760492 224.845357 
L 340.949434 227.406394 
L 341.138357 232.007135 
L 341.327281 246.719473 
L 341.516204 195.502189 
L 341.705146 249.936252 
L 341.89407 224.096518 
L 342.082993 251.926914 
L 342.271916 192.394167 
L 342.460859 218.632861 
L 342.649782 213.234214 
L 342.838705 223.52807 
L 343.027648 189.439283 
L 343.216571 232.880031 
L 343.405494 212.19943 
L 343.594418 237.881111 
L 343.78336 213.638942 
L 343.972283 277.000977 
L 344.161207 257.504229 
L 344.539072 204.348081 
L 344.727996 246.061483 
L 344.916919 242.743765 
L 345.105861 236.461131 
L 345.294784 236.658065 
L 345.483708 229.151899 
L 345.672631 175.065804 
L 345.861573 224.383807 
L 346.050497 236.756773 
L 346.23942 187.794071 
L 346.428344 173.067122 
L 346.617286 229.090149 
L 346.806209 218.172694 
L 346.995132 221.006371 
L 347.184056 174.402336 
L 347.372998 203.574725 
L 347.561921 258.185549 
L 347.750845 259.452456 
L 347.939787 263.530851 
L 348.12871 265.14345 
L 348.317634 264.242707 
L 348.695499 190.53526 
L 349.073346 268.305741 
L 349.262269 252.396463 
L 349.451212 274.467559 
L 349.640135 241.010591 
L 350.018 269.731195 
L 350.395847 221.038985 
L 350.584771 237.326962 
L 350.773713 228.507518 
L 350.962636 248.667603 
L 351.529425 208.925405 
L 351.718348 220.793773 
L 352.096195 287.301673 
L 352.285137 266.452905 
L 352.474061 272.316352 
L 352.662986 222.800754 
L 352.851928 284.603245 
L 353.040851 296.089072 
L 353.229775 289.735014 
L 353.418698 349.181389 
L 353.985487 252.959612 
L 354.17441 262.101672 
L 354.552276 296.453216 
L 354.741199 269.042915 
L 355.119065 309.695131 
L 355.307988 289.883174 
L 355.496912 238.63972 
L 355.874777 265.465301 
L 356.063701 242.772789 
L 356.252624 242.772789 
L 356.441566 293.364318 
L 356.630489 268.066759 
L 356.819413 274.619882 
L 357.008336 236.052906 
L 357.197278 272.078998 
L 357.386202 237.260189 
L 357.575125 282.092763 
L 357.764049 239.843527 
L 358.141914 228.724021 
L 358.330837 283.140983 
L 358.51978 164.241086 
L 358.708703 249.536099 
L 358.897626 209.017181 
L 359.08655 240.502026 
L 359.275492 226.307387 
L 359.842262 319.118878 
L 360.031204 255.65411 
L 360.220128 294.018839 
L 360.597974 230.658765 
L 360.786917 249.003946 
L 360.97584 193.515225 
L 361.353687 289.644722 
L 361.542629 265.490799 
L 361.731552 274.77567 
L 361.920476 273.338819 
L 362.109418 327.358859 
L 362.298341 307.434462 
L 362.487265 254.717157 
L 362.676188 276.933224 
L 362.86513 280.664981 
L 363.054054 339.480016 
L 363.242977 280.017159 
L 363.4319 316.018455 
L 363.620842 261.013724 
L 363.809766 294.017048 
L 363.998689 279.859754 
L 364.187612 276.859932 
L 364.376555 300.994907 
L 364.565478 266.367493 
L 364.754402 273.61567 
L 364.943325 261.911783 
L 365.132267 264.03068 
L 365.32119 326.659028 
L 365.510114 286.755141 
L 365.699056 297.313481 
L 365.887979 321.935291 
L 366.076903 313.389646 
L 366.265826 298.706013 
L 366.454768 296.789506 
L 366.643692 259.320215 
L 366.832615 303.861654 
L 367.21048 253.759527 
L 367.399404 246.710248 
L 367.588327 234.902812 
L 367.777251 273.404289 
L 367.966193 246.365361 
L 368.155116 260.217955 
L 368.34404 301.788447 
L 368.910828 200.104238 
L 369.099752 249.339827 
L 369.288694 217.813913 
L 369.477618 234.354604 
L 369.666541 214.990072 
L 369.855464 266.53682 
L 370.422253 190.025578 
L 370.611176 264.385825 
L 370.800119 208.87473 
L 370.989042 204.02508 
L 371.177965 167.097965 
L 371.555819 269.113402 
L 371.744743 231.642458 
L 372.122589 254.154323 
L 372.689378 147.372534 
L 372.878302 246.378161 
L 373.067244 232.286507 
L 373.256167 264.183423 
L 373.445091 263.498095 
L 373.634014 231.422614 
L 374.01188 251.942435 
L 374.200803 249.298806 
L 374.389745 219.51084 
L 374.767592 309.497803 
L 374.956515 292.757427 
L 375.334381 286.709852 
L 375.523304 318.276354 
L 375.712228 305.823902 
L 375.90117 308.585388 
L 376.090093 341.720772 
L 376.279016 304.727681 
L 376.46794 296.447343 
L 376.656882 239.908326 
L 376.845805 248.14404 
L 377.034729 224.475018 
L 377.223652 247.753878 
L 377.412594 295.833783 
L 377.601518 256.195251 
L 377.979364 327.692258 
L 378.168307 253.950096 
L 378.35723 262.333345 
L 378.546153 262.333345 
L 378.735077 238.492691 
L 378.924019 242.225705 
L 379.112942 255.31578 
L 379.301866 296.643508 
L 379.490789 271.659179 
L 379.679731 286.94015 
L 379.868655 256.829397 
L 380.057578 301.769924 
L 380.24652 299.181038 
L 380.435444 276.999566 
L 380.624367 215.775431 
L 380.81329 247.9258 
L 381.002233 240.924721 
L 381.191156 262.04103 
L 381.380079 227.337866 
L 381.569003 270.041589 
L 381.757945 199.96383 
L 381.946868 220.185272 
L 382.135792 263.875162 
L 382.324715 232.462963 
L 382.513657 262.667535 
L 382.702581 259.072983 
L 382.891504 238.513415 
L 383.269369 280.880365 
L 383.458293 259.438148 
L 383.647216 260.1566 
L 384.025082 215.718459 
L 384.402928 221.738634 
L 384.591852 245.967572 
L 384.969717 220.232608 
L 385.158641 218.393057 
L 385.347564 224.578259 
L 385.536506 214.167988 
L 385.72543 269.194121 
L 385.914353 229.9304 
L 386.103276 283.093592 
L 386.481142 215.648952 
L 386.670065 237.02998 
L 386.858989 275.418102 
L 387.047931 207.025524 
L 387.236854 202.778304 
L 387.425778 188.097851 
L 387.614701 248.664235 
L 387.803643 224.972998 
L 387.992567 246.587555 
L 388.18149 252.48821 
L 388.370432 298.785669 
L 388.559356 263.024669 
L 388.748279 295.865215 
L 388.937202 236.346751 
L 389.126145 227.919159 
L 389.315068 238.491381 
L 389.503991 193.022578 
L 390.07078 231.726733 
L 390.259721 308.294272 
L 390.448644 231.641794 
L 390.82651 281.249197 
L 391.015433 219.733442 
L 391.204357 242.588203 
L 391.393299 212.651632 
L 391.582222 222.34348 
L 391.771145 224.906354 
L 392.149011 289.328404 
L 392.337934 293.224428 
L 392.526858 219.048375 
L 392.904723 299.878804 
L 393.093647 278.542087 
L 393.28257 209.571652 
L 393.471493 224.517621 
L 393.660436 209.568277 
L 393.849359 226.592428 
L 394.038282 171.593283 
L 394.227206 180.86522 
L 394.416148 221.970528 
L 394.605071 227.767263 
L 394.793995 199.751638 
L 394.982918 239.214707 
L 395.17186 245.697493 
L 395.360784 184.883872 
L 395.549707 213.655075 
L 395.73863 224.006714 
L 395.927573 241.762782 
L 396.116496 238.710364 
L 396.305419 211.298537 
L 396.494343 233.926322 
L 396.683285 185.422631 
L 396.872208 225.767483 
L 397.250055 175.103952 
L 397.627921 240.055733 
L 397.816844 163.351668 
L 398.005767 198.035457 
L 398.194709 199.188834 
L 398.383633 263.167445 
L 398.572556 276.703865 
L 399.328269 197.098476 
L 399.517192 240.266312 
L 399.706134 226.965794 
L 399.895057 255.00686 
L 400.083981 239.840872 
L 400.272904 236.708802 
L 400.461846 242.396745 
L 400.65077 256.260606 
L 400.839693 252.385774 
L 401.028617 252.385774 
L 401.217559 266.258804 
L 401.406482 160.066896 
L 401.784329 233.026612 
L 401.973271 253.130521 
L 402.162194 215.788797 
L 402.351118 265.09267 
L 402.917907 169.052904 
L 403.10683 180.815338 
L 403.295753 182.321782 
L 403.484696 201.039482 
L 403.673619 184.839129 
L 403.862542 210.868503 
L 404.051466 211.642568 
L 404.240408 183.588128 
L 404.429331 226.596803 
L 404.618255 234.644766 
L 404.807178 219.249132 
L 404.99612 245.167622 
L 405.185044 234.492294 
L 405.373967 207.045574 
L 405.56289 204.691541 
L 405.751833 191.494385 
L 405.940756 260.847426 
L 406.129679 232.075378 
L 406.318603 238.477127 
L 406.696468 185.260102 
L 406.885392 183.893531 
L 407.074315 220.59524 
L 407.263257 283.358996 
L 407.641104 227.302228 
L 407.830027 289.970538 
L 408.018951 278.144775 
L 408.207893 302.329291 
L 408.396816 277.924007 
L 408.58574 288.887785 
L 408.963605 254.479496 
L 409.152537 237.149343 
L 409.530384 281.389688 
L 409.719326 273.244242 
L 409.90825 193.326156 
L 410.097173 219.529309 
L 410.286096 205.497325 
L 410.475038 212.311625 
L 410.663962 260.89647 
L 410.852885 272.861916 
L 411.041809 221.886527 
L 411.230751 238.420404 
L 411.419674 233.17639 
L 411.797521 265.557544 
L 411.986463 269.594716 
L 412.175386 219.413974 
L 412.36431 258.031769 
L 412.553233 261.938023 
L 412.742175 276.094943 
L 412.931099 262.002907 
L 413.120022 302.063043 
L 413.308945 300.098722 
L 413.497887 320.913104 
L 413.686811 262.757935 
L 413.875734 305.739762 
L 414.064658 282.873325 
L 414.2536 328.169247 
L 414.442523 231.00358 
L 414.631447 268.43815 
L 414.82037 258.514054 
L 415.009312 284.963244 
L 415.198235 256.140515 
L 415.387159 269.164195 
L 415.576082 272.239564 
L 415.765024 281.276703 
L 416.142871 209.925105 
L 416.331795 236.769358 
L 416.520737 205.488643 
L 416.70966 212.983967 
L 416.898584 196.648073 
L 417.087507 242.638999 
L 417.27643 211.259878 
L 417.465372 200.746796 
L 417.654296 258.254581 
L 417.843219 249.780276 
L 418.032143 285.363365 
L 418.221085 271.089809 
L 418.410008 281.379418 
L 418.598932 284.885295 
L 418.787855 226.871018 
L 418.976797 215.235958 
L 419.16572 216.281993 
L 419.354644 211.600096 
L 419.543567 182.192026 
L 419.732509 250.278098 
L 419.921433 203.827489 
L 420.110356 222.139689 
L 420.29928 158.1242 
L 420.677145 237.030341 
L 420.866069 264.06958 
L 421.054992 241.440946 
L 421.243934 256.50726 
L 421.432857 245.754358 
L 421.621781 282.21157 
L 421.810704 225.128869 
L 421.999646 253.862166 
L 422.18857 258.948717 
L 422.377493 239.58908 
L 422.566417 245.435691 
L 422.755359 189.445031 
L 422.944282 170.575923 
L 423.133205 220.13257 
L 423.322129 220.13257 
L 423.888918 243.366083 
L 424.077841 214.785061 
L 424.266765 248.902688 
L 424.455707 227.334883 
L 424.64463 183.433537 
L 424.833553 220.639584 
L 425.022477 171.13343 
L 425.211419 162.871924 
L 425.589266 248.704773 
L 425.778189 179.425054 
L 425.967131 178.012971 
L 426.156055 151.835096 
L 426.344978 224.71378 
L 426.533901 172.751003 
L 426.722843 174.795797 
L 426.911767 146.47111 
L 427.10069 172.950833 
L 427.289614 220.252498 
L 427.667479 180.623648 
L 427.856389 166.42439 
L 428.423178 225.767423 
L 428.612101 227.122552 
L 428.801024 203.931418 
L 428.989947 255.230838 
L 429.17889 234.625426 
L 429.367813 261.989819 
L 429.556736 227.571072 
L 429.74566 215.307957 
L 429.934602 238.609148 
L 430.123526 230.434111 
L 430.312449 241.548911 
L 430.501372 265.414967 
L 430.690296 269.685821 
L 431.068161 200.724457 
L 431.257084 239.126106 
L 431.446008 220.792713 
L 431.63495 217.270885 
L 431.823874 220.741633 
L 432.012797 229.089191 
L 432.20172 212.467132 
L 432.390662 215.960629 
L 432.579586 235.408167 
L 432.768509 224.541765 
L 432.957432 223.431707 
L 433.335298 268.510135 
L 433.713145 304.202321 
L 433.902087 249.596469 
L 434.09101 297.373387 
L 434.279934 227.65942 
L 434.468857 276.612954 
L 434.657799 280.10036 
L 434.846723 279.992587 
L 435.035646 265.257009 
L 435.224569 284.750658 
L 435.413493 272.067973 
L 435.602435 317.229219 
L 435.791358 273.778817 
L 435.980282 282.47893 
L 436.169205 284.855994 
L 436.358147 283.847917 
L 436.735994 259.445099 
L 436.924917 271.729596 
L 437.11386 232.2555 
L 437.302783 223.980941 
L 437.491706 224.955178 
L 437.68063 272.373043 
L 437.869572 232.678229 
L 438.058495 247.522508 
L 438.247419 271.613892 
L 438.436342 269.532923 
L 438.625266 291.117878 
L 439.003131 261.054874 
L 439.192054 270.651141 
L 439.380978 208.083986 
L 439.56992 227.432925 
L 439.758843 274.331441 
L 439.947767 263.14275 
L 440.13669 287.004727 
L 440.325632 328.353532 
L 440.703479 267.817146 
L 440.892402 268.573858 
L 441.270268 317.021324 
L 441.837038 222.099538 
L 442.02598 258.245876 
L 442.214903 266.787273 
L 442.59275 365.256733 
L 442.781693 358.647742 
L 443.159539 266.119073 
L 443.348463 286.871483 
L 443.537386 262.026416 
L 443.726328 293.646198 
L 443.915251 290.78084 
L 444.104175 296.707338 
L 444.293098 333.158503 
L 444.48204 331.53438 
L 444.859887 234.846776 
L 445.048811 263.402076 
L 445.237753 231.743584 
L 445.6156 281.748455 
L 445.804523 281.748455 
L 445.993446 260.175358 
L 446.182388 219.74309 
L 446.371312 273.971513 
L 446.560235 264.057675 
L 446.749148 275.856407 
L 446.93809 266.150193 
L 447.127013 246.779115 
L 447.315937 249.454027 
L 447.50486 288.108918 
L 447.693802 286.932435 
L 447.882725 270.754025 
L 448.071649 290.383328 
L 448.260572 263.512527 
L 448.449496 299.35289 
L 448.827361 269.416838 
L 449.016285 296.537984 
L 449.205208 295.752057 
L 449.583073 318.919014 
L 449.771997 269.216401 
L 449.96092 346.755706 
L 450.149862 366.97415 
L 450.338786 352.003963 
L 450.527709 357.239269 
L 450.716633 259.832583 
L 450.905556 241.139805 
L 451.094498 287.915625 
L 451.283421 262.577221 
L 451.472345 265.02569 
L 451.661268 231.111487 
L 451.85021 311.547838 
L 452.039134 311.950913 
L 452.416981 301.514569 
L 452.605923 304.848212 
L 452.794846 250.21246 
L 452.983769 274.197336 
L 453.172693 329.042364 
L 453.739482 261.330548 
L 453.928405 274.513426 
L 454.117329 330.489999 
L 454.495194 281.498963 
L 454.684117 326.041174 
L 454.873041 298.646249 
L 455.061983 287.830309 
L 455.250906 293.022013 
L 455.43983 311.252516 
L 455.628753 285.386951 
L 456.006619 328.562088 
L 456.195542 226.712234 
L 456.384465 304.044752 
L 456.762331 256.285894 
L 456.951254 318.025093 
L 457.140178 274.597608 
L 457.329101 337.87549 
L 457.706967 279.392958 
L 457.89589 279.511291 
L 458.084813 264.948587 
L 458.273737 322.696599 
L 458.462679 343.171723 
L 458.840526 282.193616 
L 459.029449 303.894276 
L 459.218373 292.26048 
L 459.407315 359.754065 
L 459.596238 296.424488 
L 459.974085 323.597952 
L 460.163027 262.953033 
L 460.35195 295.869899 
L 460.729797 313.71086 
L 460.918739 322.099537 
L 461.107663 309.334319 
L 461.296586 335.630909 
L 461.485509 384.726141 
L 461.674433 377.332384 
L 461.863375 356.181052 
L 462.052298 309.409342 
L 462.241222 305.345698 
L 462.430145 370.207034 
L 462.619087 335.039503 
L 462.808011 328.17348 
L 462.996934 327.730846 
L 463.185857 288.83763 
L 463.374781 333.24992 
L 463.563723 348.204323 
L 463.752646 340.704913 
L 464.319435 384.509621 
L 464.508359 414.957188 
L 464.886205 364.423407 
L 465.075129 359.060378 
L 465.453005 333.787919 
L 465.641929 285.89206 
L 465.830852 278.252844 
L 466.208718 296.933618 
L 466.586565 305.724507 
L 466.775488 332.38054 
L 466.96443 307.866954 
L 467.153353 346.694702 
L 467.342277 316.110658 
L 467.5312 312.101479 
L 467.720142 332.797055 
L 467.909066 334.070076 
L 468.097989 350.54985 
L 468.286913 350.54985 
L 468.475836 306.133952 
L 468.664778 302.762989 
L 468.853701 294.077695 
L 469.042625 302.442894 
L 469.231548 268.862016 
L 469.42049 191.135215 
L 469.798337 261.965839 
L 470.176184 304.156418 
L 470.365126 249.372468 
L 470.742973 302.054927 
L 471.120838 293.671934 
L 471.309762 311.376623 
L 471.498685 309.033133 
L 471.687608 356.898432 
L 471.876532 372.184841 
L 472.443321 302.785624 
L 472.632244 300.272278 
L 472.821186 336.679969 
L 473.01011 327.550653 
L 473.199033 291.544197 
L 473.57688 265.596115 
L 473.765822 272.076273 
L 473.954745 269.14509 
L 474.143669 246.377412 
L 474.332592 262.285647 
L 474.521534 268.596875 
L 474.710458 295.746136 
L 474.899381 283.500771 
L 475.088304 245.324936 
L 475.277228 230.393283 
L 475.46617 282.587012 
L 475.655093 285.575462 
L 475.844017 250.689291 
L 476.03294 249.197376 
L 476.221882 307.737659 
L 476.410806 301.663617 
L 476.599729 306.966068 
L 477.166518 257.105826 
L 477.355441 267.636397 
L 477.544365 249.740341 
L 477.733288 282.874414 
L 477.922212 273.681625 
L 478.111154 277.323473 
L 478.300077 253.667232 
L 478.489 305.825332 
L 478.677924 268.091266 
L 478.866866 314.031195 
L 479.244713 274.013194 
L 479.433636 299.944875 
L 479.62256 264.178311 
L 479.811502 270.450504 
L 480.000425 331.783486 
L 480.189348 292.350357 
L 480.378272 313.589405 
L 480.567214 270.247536 
L 480.756137 265.035696 
L 480.945061 220.383154 
L 481.133984 279.324068 
L 481.322908 268.671136 
L 481.51185 302.359944 
L 481.700773 301.340731 
L 481.889696 284.078473 
L 482.07862 304.32416 
L 482.267543 254.374548 
L 482.456485 259.334397 
L 482.645409 273.913703 
L 482.834332 259.195068 
L 483.023256 336.602449 
L 483.212198 313.930425 
L 483.401121 317.854915 
L 483.590044 315.95273 
L 483.778968 356.490812 
L 483.967891 308.813267 
L 484.156833 321.449864 
L 484.345754 297.646167 
L 484.723601 284.863329 
L 485.101467 341.718205 
L 485.29039 356.977875 
L 485.479313 317.464314 
L 485.668237 310.266794 
L 485.857179 314.588151 
L 486.046102 348.85038 
L 486.423949 301.095315 
L 486.612872 320.866538 
L 486.801815 320.221659 
L 486.990738 317.485705 
L 487.179661 323.490767 
L 487.368585 316.793865 
L 487.557508 283.84196 
L 487.74645 330.518832 
L 487.935374 340.283617 
L 488.124297 356.575019 
L 488.31322 307.507989 
L 488.502163 341.899209 
L 488.880009 282.989593 
L 489.068933 300.969012 
L 489.257856 240.511259 
L 489.446798 286.854858 
L 489.635722 274.010332 
L 489.824645 253.160336 
L 490.202492 296.318641 
L 490.391434 292.549828 
L 490.580357 286.378013 
L 490.769281 286.378013 
L 490.958204 317.791495 
L 491.147146 315.284889 
L 491.524993 320.128363 
L 491.713916 327.306978 
L 492.280705 226.760358 
L 492.469629 321.264647 
L 492.658552 315.985576 
L 493.225341 267.684382 
L 493.414264 294.826355 
L 493.603188 301.861669 
L 493.79213 275.032197 
L 493.981053 279.679497 
L 494.169977 268.425847 
L 494.3589 312.615274 
L 494.547823 268.415451 
L 494.736766 324.409924 
L 494.925689 317.399666 
L 495.114612 320.57059 
L 495.303536 293.523316 
L 495.492459 327.878144 
L 495.681401 310.960423 
L 495.870325 316.827147 
L 496.059248 288.085724 
L 496.248171 304.434351 
L 496.437095 277.426633 
L 496.626037 322.873155 
L 496.81496 301.624119 
L 497.003884 331.095571 
L 497.192807 321.679054 
L 497.570673 272.850472 
L 497.759596 233.838665 
L 498.137443 300.21925 
L 498.326385 258.335521 
L 498.515308 306.521158 
L 498.704232 278.033902 
L 498.893155 305.210223 
L 499.082079 307.058501 
L 499.271021 315.773717 
L 499.459944 318.514323 
L 499.837791 302.218332 
L 500.026714 346.910493 
L 500.215656 364.559746 
L 500.782427 227.575222 
L 500.97135 167.557471 
L 501.160292 221.234724 
L 501.349215 238.73336 
L 501.538139 282.462737 
L 501.727062 253.672518 
L 501.916004 305.187957 
L 502.104928 300.854795 
L 502.293851 247.937159 
L 502.482775 250.926371 
L 502.671698 280.528091 
L 502.86064 267.887378 
L 503.049563 239.85812 
L 503.427397 263.369995 
L 503.61632 248.324519 
L 503.994186 302.365387 
L 504.183109 304.69615 
L 504.372033 294.791383 
L 504.560956 252.070149 
L 504.749898 288.658267 
L 504.938821 297.269477 
L 505.127745 275.903611 
L 505.316668 304.717805 
L 505.505592 353.115017 
L 505.883457 307.823664 
L 506.072381 323.310783 
L 506.261304 269.466687 
L 506.450227 290.865817 
L 506.639169 277.711406 
L 506.828093 256.21627 
L 507.20594 295.876379 
L 507.394882 272.631932 
L 507.583805 278.38356 
L 507.772729 293.701203 
L 507.961652 274.877783 
L 508.150575 276.194994 
L 508.339517 262.62191 
L 508.528441 326.002152 
L 508.906288 275.188597 
L 509.095211 273.030393 
L 509.284153 268.347132 
L 509.473077 256.296571 
L 509.662 261.506313 
L 509.850923 245.651629 
L 510.039847 267.644014 
L 510.228789 303.838733 
L 510.417712 225.043052 
L 510.795559 301.888848 
L 510.984482 314.588039 
L 511.362348 236.034418 
L 511.551271 280.272726 
L 511.740195 218.571736 
L 511.929118 218.075092 
L 512.11806 260.16334 
L 512.306984 235.097773 
L 512.495907 265.208095 
L 512.68483 250.562931 
L 512.873754 271.542403 
L 513.062696 271.542403 
L 513.251619 254.779939 
L 513.440543 222.335579 
L 513.629466 275.576946 
L 513.818389 225.307568 
L 514.007332 252.120126 
L 514.196255 308.015568 
L 514.385178 322.872983 
L 514.574102 246.74032 
L 514.763025 268.055641 
L 515.140891 348.236575 
L 515.329814 238.969062 
L 515.518737 318.576307 
L 515.896603 254.263834 
L 516.085526 263.259234 
L 516.27445 240.303409 
L 516.463373 256.199602 
L 516.652296 262.345036 
L 516.841239 257.888025 
L 517.030162 209.337862 
L 517.219085 209.982452 
L 517.408009 137.647031 
L 517.596932 207.565716 
L 517.785874 220.062884 
L 517.974798 253.240583 
L 518.163721 254.930656 
L 518.352644 254.199385 
L 518.541568 230.80438 
L 518.73051 268.680344 
L 518.919433 253.302529 
L 519.108357 204.937531 
L 519.29728 278.595516 
L 519.486204 286.714432 
L 519.675146 287.637477 
L 519.864069 297.912257 
L 520.052992 248.60822 
L 520.241916 229.610387 
L 520.430839 226.550392 
L 520.619781 241.097103 
L 520.808705 224.719923 
L 520.997628 267.804621 
L 521.375475 174.929313 
L 521.564417 182.218331 
L 521.75334 258.883635 
L 521.94228 227.86668 
L 522.131203 286.53981 
L 522.509069 256.203695 
L 522.697992 293.843942 
L 523.075839 226.520929 
L 523.264762 321.994955 
L 523.453704 265.318899 
L 523.642627 258.069159 
L 523.831551 272.592759 
L 524.020474 319.40867 
L 524.209398 243.373004 
L 524.39834 332.75268 
L 524.776187 256.781537 
L 524.96511 254.888597 
L 525.154033 264.598512 
L 525.342975 213.239314 
L 525.531899 205.805492 
L 525.909746 254.959332 
L 526.098669 264.966335 
L 526.287611 259.671629 
L 526.476535 245.159707 
L 526.665458 268.14448 
L 527.043305 227.202764 
L 527.232247 234.547816 
L 527.42117 276.476926 
L 527.610094 252.797069 
L 527.799017 252.008911 
L 527.98794 249.111864 
L 528.176883 232.653808 
L 528.365806 277.904938 
L 528.554729 265.526151 
L 528.743653 236.080543 
L 528.932576 266.42348 
L 529.121518 246.487739 
L 529.310442 276.106354 
L 529.499365 287.655571 
L 529.688288 319.8546 
L 529.877212 219.257418 
L 530.066154 282.660971 
L 530.255077 282.851739 
L 530.632924 308.341166 
L 530.821848 264.0913 
L 531.01079 256.388308 
L 531.199713 169.634385 
L 531.388636 196.288384 
L 531.57756 258.004108 
L 532.333272 207.043965 
L 532.522196 260.327878 
L 532.711119 222.915405 
L 532.900042 256.335679 
L 533.088984 248.266984 
L 533.655754 292.180495 
L 533.844678 234.766346 
L 534.03362 285.441438 
L 534.222544 210.377314 
L 534.411467 235.820457 
L 534.60039 288.144327 
L 534.978256 249.198914 
L 535.167179 272.744323 
L 535.356102 272.744323 
L 535.545026 293.186722 
L 535.733949 271.688039 
L 535.922892 274.327623 
L 536.111815 314.937288 
L 536.300738 277.860897 
L 536.489662 298.25065 
L 536.678585 268.777901 
L 536.867527 321.580989 
L 537.05645 289.331029 
L 537.245374 297.873795 
L 537.434297 236.331935 
L 537.623221 291.582908 
L 537.812163 275.976491 
L 538.001086 282.527359 
L 538.19001 238.532482 
L 538.75678 281.04234 
L 538.945722 248.073327 
L 539.134645 285.331768 
L 539.323569 233.016739 
L 539.512492 250.80274 
L 539.701415 229.069344 
L 539.890358 224.339956 
L 540.079281 206.990863 
L 540.646051 296.56797 
L 540.834998 275.270599 
L 541.023921 295.081017 
L 541.401768 227.990898 
L 541.590692 320.059894 
L 541.779634 285.731467 
L 541.968557 295.204669 
L 542.15748 256.636057 
L 542.346404 263.593681 
L 542.724251 310.2288 
L 542.913193 300.381425 
L 543.102116 322.054902 
L 543.29104 299.696555 
L 543.668886 332.490497 
L 543.857828 238.614155 
L 544.046752 244.635656 
L 544.613522 337.332089 
L 544.802464 236.916333 
L 544.991388 305.190802 
L 545.180311 282.324864 
L 545.369234 236.785707 
L 545.558158 248.070523 
L 545.936023 303.688741 
L 546.124946 305.495202 
L 546.502793 285.250772 
L 546.691717 267.232906 
L 546.880659 271.818599 
L 547.069582 311.474815 
L 547.258506 277.408667 
L 547.447429 274.174699 
L 547.636352 261.115163 
L 548.014218 322.951514 
L 548.203141 280.455093 
L 548.580988 310.321516 
L 548.76993 368.467448 
L 548.958854 315.723174 
L 549.147777 313.982004 
L 549.3367 330.063434 
L 549.525624 288.92977 
L 549.714547 287.32836 
L 549.903489 323.377991 
L 550.092413 320.758393 
L 550.281336 258.354216 
L 550.470259 282.096392 
L 550.659183 289.238036 
L 550.848125 243.245957 
L 551.037048 289.467209 
L 551.225972 291.522401 
L 551.414895 263.325958 
L 551.603819 271.567056 
L 551.792742 253.792045 
L 551.981684 276.950485 
L 552.170607 266.98589 
L 552.359531 246.090112 
L 552.548454 293.027683 
L 552.737378 233.853207 
L 553.115243 280.895544 
L 553.304167 311.697055 
L 553.49309 273.808764 
L 553.682013 267.367467 
L 553.870955 289.182677 
L 554.059879 352.369935 
L 554.248802 360.676731 
L 554.437725 284.752186 
L 554.626649 289.90762 
L 554.815572 283.326743 
L 555.004515 286.210342 
L 555.193438 338.814213 
L 555.382361 312.942307 
L 555.571285 334.51458 
L 555.760208 275.922704 
L 555.94915 268.176339 
L 556.138073 276.720997 
L 556.51592 260.164154 
L 556.704844 302.083041 
L 556.893767 277.721922 
L 557.271633 332.437629 
L 557.460556 337.967683 
L 557.649479 337.967683 
L 557.838403 322.13327 
L 558.027345 324.145064 
L 558.216268 321.540395 
L 558.405192 250.732815 
L 558.594115 270.34805 
L 558.783038 269.615509 
L 558.971962 270.994425 
L 559.160904 309.326712 
L 559.349827 312.980389 
L 559.538741 304.724963 
L 559.727665 333.643675 
L 560.294454 226.114065 
L 560.483377 225.126406 
L 560.672301 263.238641 
L 560.861224 254.594552 
L 561.050166 254.915858 
L 561.239089 266.178944 
L 561.428013 225.147074 
L 561.616936 254.751506 
L 561.805859 257.801522 
L 561.994783 282.037392 
L 562.183725 235.870906 
L 562.372649 258.899176 
L 562.561572 247.032269 
L 562.750495 220.706378 
L 562.939419 221.159197 
L 563.128361 272.624422 
L 563.317284 278.385219 
L 563.506207 275.571745 
L 563.695131 258.989672 
L 563.884054 313.818442 
L 564.26192 267.423801 
L 564.450843 238.608672 
L 564.639767 266.960072 
L 564.82869 228.995032 
L 565.017613 274.681211 
L 565.206537 216.421679 
L 565.395479 253.778305 
L 565.584402 240.06866 
L 565.962249 262.218166 
L 566.151172 293.626588 
L 566.529038 250.750229 
L 566.906885 257.504668 
L 567.095808 233.690619 
L 567.284732 228.757104 
L 567.473674 273.362887 
L 567.662597 228.132845 
L 567.85152 242.99381 
L 568.040444 270.538515 
L 568.229367 234.951238 
L 568.418291 320.265938 
L 568.607233 267.864036 
L 568.796156 259.24801 
L 568.98508 240.473449 
L 569.174003 267.126499 
L 569.551868 237.61426 
L 569.929715 307.200902 
L 570.118638 292.198503 
L 570.307562 252.295154 
L 570.496485 264.231519 
L 570.874351 304.221114 
L 571.063274 299.606516 
L 571.252197 360.364542 
L 571.818986 273.1845 
L 572.00791 315.441031 
L 572.196833 316.82257 
L 572.385757 347.072414 
L 572.57468 315.324991 
L 572.763622 315.618288 
L 572.952546 302.428951 
L 573.141469 334.07908 
L 573.519316 290.853992 
L 573.708239 298.223394 
L 573.897181 333.183165 
L 574.086105 347.087744 
L 574.275028 305.872518 
L 574.463951 311.164228 
L 574.652875 342.731014 
L 574.841817 307.282017 
L 575.03074 316.72603 
L 575.219664 285.200088 
L 575.408587 273.013106 
L 575.597511 244.491295 
L 575.786434 292.318342 
L 575.975376 282.52404 
L 576.164299 318.438302 
L 576.353223 299.50155 
L 576.542146 292.471405 
L 576.73107 249.19866 
L 576.919993 281.253348 
L 577.108935 270.634814 
L 577.297859 343.950844 
L 577.486782 319.338572 
L 577.675705 361.243531 
L 577.864628 304.638857 
L 578.053571 339.80413 
L 578.431415 243.535812 
L 578.620339 224.934812 
L 578.809262 284.533905 
L 578.998185 265.117784 
L 579.187127 303.057457 
L 579.376051 243.951662 
L 579.564974 273.292328 
L 579.753898 257.092423 
L 579.942821 257.092423 
L 580.131744 280.092563 
L 580.320687 251.119169 
L 580.50961 311.739249 
L 580.698533 244.943241 
L 581.265303 305.366923 
L 581.643169 252.193253 
L 581.832092 264.158116 
L 582.021016 287.430826 
L 582.209939 280.219069 
L 582.587805 216.953648 
L 582.776728 225.381929 
L 582.965651 261.283718 
L 583.154575 319.021802 
L 583.343498 262.848399 
L 583.532422 326.182715 
L 583.721364 301.514835 
L 583.910287 355.372288 
L 584.09921 320.983213 
L 584.288134 312.520519 
L 584.477057 334.687284 
L 584.665999 314.722699 
L 584.854923 320.517193 
L 585.23277 295.218567 
L 585.421693 289.31527 
L 585.610616 327.165744 
L 585.799558 289.400968 
L 585.988482 295.339435 
L 586.177405 239.611206 
L 586.555252 300.915367 
L 587.122041 329.627343 
L 587.310964 273.520995 
L 587.499888 275.675662 
L 588.066677 317.996006 
L 588.2556 292.875648 
L 588.444523 326.893487 
L 588.633447 338.572137 
L 588.82237 315.247614 
L 589.011294 254.695912 
L 589.200236 254.791882 
L 589.389159 291.79366 
L 589.578082 250.855992 
L 589.767006 295.826999 
L 589.955929 269.854163 
L 590.144853 282.838738 
L 590.522718 342.896485 
L 590.711641 318.933098 
L 590.900565 317.347304 
L 591.089488 314.821851 
L 591.278412 288.221208 
L 591.467354 309.16555 
L 591.845201 293.048501 
L 592.223047 323.302938 
L 592.411971 320.960432 
L 592.600913 268.331896 
L 592.789836 282.62363 
L 592.97876 266.199422 
L 593.167683 274.271671 
L 593.356606 238.256821 
L 593.54553 250.299469 
L 593.734472 323.333741 
L 593.923395 267.89236 
L 594.112319 247.715894 
L 594.301242 314.996945 
L 594.490165 228.468379 
L 594.679089 297.514664 
L 595.056954 233.597518 
L 595.245878 275.2451 
L 595.434801 264.756306 
L 595.434801 264.756306 
" clip-path="url(#peca49c8a8b)" style="fill: none; stroke: #1f77b4; stroke-width: 2; stroke-linecap: square"/>
   </g>
   <g id="patch_3">
    <path d="M 62.798438 414.957188 
L 62.798438 26.877188 
" style="fill: none; stroke: #808080; stroke-width: 2; stroke-linejoin: miter; stroke-linecap: square"/>
   </g>
   <g id="patch_4">
    <path d="M 62.798437 414.957187 
L 620.798437 414.957187 
" style="fill: none; stroke: #808080; stroke-width: 2; stroke-linejoin: miter; stroke-linecap: square"/>
   </g>
   <g id="text_15">
    <!-- Vemund-Tyholt_flymodus-vinkel -->
    <g style="fill: #808080" transform="translate(200.491406 20.877187) scale(0.18 -0.18)">
     <defs>
      <path id="DejaVuSans-56" d="M 1831 0 
L 50 4666 
L 709 4666 
L 2188 738 
L 3669 4666 
L 4325 4666 
L 2547 0 
L 1831 0 
z
" transform="scale(0.015625)"/>
      <path id="DejaVuSans-75" d="M 544 1381 
L 544 3500 
L 1119 3500 
L 1119 1403 
Q 1119 906 1312 657 
Q 1506 409 1894 409 
Q 2359 409 2629 706 
Q 2900 1003 2900 1516 
L 2900 3500 
L 3475 3500 
L 3475 0 
L 2900 0 
L 2900 538 
Q 2691 219 2414 64 
Q 2138 -91 1772 -91 
Q 1169 -91 856 284 
Q 544 659 544 1381 
z
M 1991 3584 
L 1991 3584 
z
" transform="scale(0.015625)"/>
      <path id="DejaVuSans-6e" d="M 3513 2113 
L 3513 0 
L 2938 0 
L 2938 2094 
Q 2938 2591 2744 2837 
Q 2550 3084 2163 3084 
Q 1697 3084 1428 2787 
Q 1159 2491 1159 1978 
L 1159 0 
L 581 0 
L 581 3500 
L 1159 3500 
L 1159 2956 
Q 1366 3272 1645 3428 
Q 1925 3584 2291 3584 
Q 2894 3584 3203 3211 
Q 3513 2838 3513 2113 
z
" transform="scale(0.015625)"/>
      <path id="DejaVuSans-2d" d="M 313 2009 
L 1997 2009 
L 1997 1497 
L 313 1497 
L 313 2009 
z
" transform="scale(0.015625)"/>
      <path id="DejaVuSans-54" d="M -19 4666 
L 3928 4666 
L 3928 4134 
L 2272 4134 
L 2272 0 
L 1638 0 
L 1638 4134 
L -19 4134 
L -19 4666 
z
" transform="scale(0.015625)"/>
      <path id="DejaVuSans-79" d="M 2059 -325 
Q 1816 -950 1584 -1140 
Q 1353 -1331 966 -1331 
L 506 -1331 
L 506 -850 
L 844 -850 
Q 1081 -850 1212 -737 
Q 1344 -625 1503 -206 
L 1606 56 
L 191 3500 
L 800 3500 
L 1894 763 
L 2988 3500 
L 3597 3500 
L 2059 -325 
z
" transform="scale(0.015625)"/>
      <path id="DejaVuSans-68" d="M 3513 2113 
L 3513 0 
L 2938 0 
L 2938 2094 
Q 2938 2591 2744 2837 
Q 2550 3084 2163 3084 
Q 1697 3084 1428 2787 
Q 1159 2491 1159 1978 
L 1159 0 
L 581 0 
L 581 4863 
L 1159 4863 
L 1159 2956 
Q 1366 3272 1645 3428 
Q 1925 3584 2291 3584 
Q 2894 3584 3203 3211 
Q 3513 2838 3513 2113 
z
" transform="scale(0.015625)"/>
      <path id="DejaVuSans-6f" d="M 1959 3097 
Q 1497 3097 1228 2736 
Q 959 2375 959 1747 
Q 959 1119 1226 758 
Q 1494 397 1959 397 
Q 2419 397 2687 759 
Q 2956 1122 2956 1747 
Q 2956 2369 2687 2733 
Q 2419 3097 1959 3097 
z
M 1959 3584 
Q 2709 3584 3137 3096 
Q 3566 2609 3566 1747 
Q 3566 888 3137 398 
Q 2709 -91 1959 -91 
Q 1206 -91 779 398 
Q 353 888 353 1747 
Q 353 2609 779 3096 
Q 1206 3584 1959 3584 
z
" transform="scale(0.015625)"/>
      <path id="DejaVuSans-6c" d="M 603 4863 
L 1178 4863 
L 1178 0 
L 603 0 
L 603 4863 
z
" transform="scale(0.015625)"/>
      <path id="DejaVuSans-5f" d="M 3263 -1063 
L 3263 -1509 
L -63 -1509 
L -63 -1063 
L 3263 -1063 
z
" transform="scale(0.015625)"/>
      <path id="DejaVuSans-66" d="M 2375 4863 
L 2375 4384 
L 1825 4384 
Q 1516 4384 1395 4259 
Q 1275 4134 1275 3809 
L 1275 3500 
L 2222 3500 
L 2222 3053 
L 1275 3053 
L 1275 0 
L 697 0 
L 697 3053 
L 147 3053 
L 147 3500 
L 697 3500 
L 697 3744 
Q 697 4328 969 4595 
Q 1241 4863 1831 4863 
L 2375 4863 
z
" transform="scale(0.015625)"/>
      <path id="DejaVuSans-76" d="M 191 3500 
L 800 3500 
L 1894 563 
L 2988 3500 
L 3597 3500 
L 2284 0 
L 1503 0 
L 191 3500 
z
" transform="scale(0.015625)"/>
      <path id="DejaVuSans-6b" d="M 581 4863 
L 1159 4863 
L 1159 1991 
L 2875 3500 
L 3609 3500 
L 1753 1863 
L 3688 0 
L 2938 0 
L 1159 1709 
L 1159 0 
L 581 0 
L 581 4863 
z
" transform="scale(0.015625)"/>
     </defs>
     <use xlink:href="#DejaVuSans-56"/>
     <use xlink:href="#DejaVuSans-65" x="60.658203"/>
     <use xlink:href="#DejaVuSans-6d" x="122.181641"/>
     <use xlink:href="#DejaVuSans-75" x="219.59375"/>
     <use xlink:href="#DejaVuSans-6e" x="282.972656"/>
     <use xlink:href="#DejaVuSans-64" x="346.351562"/>
     <use xlink:href="#DejaVuSans-2d" x="409.828125"/>
     <use xlink:href="#DejaVuSans-54" x="436.787109"/>
     <use xlink:href="#DejaVuSans-79" x="482.246094"/>
     <use xlink:href="#DejaVuSans-68" x="541.425781"/>
     <use xlink:href="#DejaVuSans-6f" x="604.804688"/>
     <use xlink:href="#DejaVuSans-6c" x="665.986328"/>
     <use xlink:href="#DejaVuSans-74" x="693.769531"/>
     <use xlink:href="#DejaVuSans-5f" x="732.978516"/>
     <use xlink:href="#DejaVuSans-66" x="782.978516"/>
     <use xlink:href="#DejaVuSans-6c" x="818.183594"/>
     <use xlink:href="#DejaVuSans-79" x="845.966797"/>
     <use xlink:href="#DejaVuSans-6d" x="905.146484"/>
     <use xlink:href="#DejaVuSans-6f" x="1002.558594"/>
     <use xlink:href="#DejaVuSans-64" x="1063.740234"/>
     <use xlink:href="#DejaVuSans-75" x="1127.216797"/>
     <use xlink:href="#DejaVuSans-73" x="1190.595703"/>
     <use xlink:href="#DejaVuSans-2d" x="1242.695312"/>
     <use xlink:href="#DejaVuSans-76" x="1276.154297"/>
     <use xlink:href="#DejaVuSans-69" x="1335.333984"/>
     <use xlink:href="#DejaVuSans-6e" x="1363.117188"/>
     <use xlink:href="#DejaVuSans-6b" x="1426.496094"/>
     <use xlink:href="#DejaVuSans-65" x="1480.78125"/>
     <use xlink:href="#DejaVuSans-6c" x="1542.304688"/>
    </g>
   </g>
   <g id="legend_1">
    <g id="patch_5">
     <path d="M 326.786719 61.311562 
L 610.298437 61.311562 
Q 613.298437 61.311562 613.298437 58.311562 
L 613.298437 37.377187 
Q 613.298437 34.377187 610.298437 34.377187 
L 326.786719 34.377187 
Q 323.786719 34.377187 323.786719 37.377187 
L 323.786719 58.311562 
Q 323.786719 61.311562 326.786719 61.311562 
z
" style="fill: #ffffff; opacity: 0.8; stroke: #cccccc; stroke-linejoin: miter"/>
    </g>
    <g id="line2d_26">
     <path d="M 329.786719 46.524844 
L 344.786719 46.524844 
L 359.786719 46.524844 
" style="fill: none; stroke: #1f77b4; stroke-width: 2; stroke-linecap: square"/>
    </g>
    <g id="text_16">
     <!-- Vemund-Tyholt_flymodus-vinkel -->
     <g style="fill: #808080" transform="translate(371.786719 51.774844) scale(0.15 -0.15)">
      <use xlink:href="#DejaVuSans-56"/>
      <use xlink:href="#DejaVuSans-65" x="60.658203"/>
      <use xlink:href="#DejaVuSans-6d" x="122.181641"/>
      <use xlink:href="#DejaVuSans-75" x="219.59375"/>
      <use xlink:href="#DejaVuSans-6e" x="282.972656"/>
      <use xlink:href="#DejaVuSans-64" x="346.351562"/>
      <use xlink:href="#DejaVuSans-2d" x="409.828125"/>
      <use xlink:href="#DejaVuSans-54" x="436.787109"/>
      <use xlink:href="#DejaVuSans-79" x="482.246094"/>
      <use xlink:href="#DejaVuSans-68" x="541.425781"/>
      <use xlink:href="#DejaVuSans-6f" x="604.804688"/>
      <use xlink:href="#DejaVuSans-6c" x="665.986328"/>
      <use xlink:href="#DejaVuSans-74" x="693.769531"/>
      <use xlink:href="#DejaVuSans-5f" x="732.978516"/>
      <use xlink:href="#DejaVuSans-66" x="782.978516"/>
      <use xlink:href="#DejaVuSans-6c" x="818.183594"/>
      <use xlink:href="#DejaVuSans-79" x="845.966797"/>
      <use xlink:href="#DejaVuSans-6d" x="905.146484"/>
      <use xlink:href="#DejaVuSans-6f" x="1002.558594"/>
      <use xlink:href="#DejaVuSans-64" x="1063.740234"/>
      <use xlink:href="#DejaVuSans-75" x="1127.216797"/>
      <use xlink:href="#DejaVuSans-73" x="1190.595703"/>
      <use xlink:href="#DejaVuSans-2d" x="1242.695312"/>
      <use xlink:href="#DejaVuSans-76" x="1276.154297"/>
      <use xlink:href="#DejaVuSans-69" x="1335.333984"/>
      <use xlink:href="#DejaVuSans-6e" x="1363.117188"/>
      <use xlink:href="#DejaVuSans-6b" x="1426.496094"/>
      <use xlink:href="#DejaVuSans-65" x="1480.78125"/>
      <use xlink:href="#DejaVuSans-6c" x="1542.304688"/>
     </g>
    </g>
   </g>
  </g>
 </g>
 <defs>
  <clipPath id="peca49c8a8b">
   <rect x="62.798438" y="26.877187" width="558" height="388.08"/>
  </clipPath>
 </defs>
</svg>
