<?xml version="1.0" encoding="utf-8" standalone="no"?>
<!DOCTYPE svg PUBLIC "-//W3C//DTD SVG 1.1//EN"
  "http://www.w3.org/Graphics/SVG/1.1/DTD/svg11.dtd">
<svg xmlns:xlink="http://www.w3.org/1999/xlink" width="627.998437pt" height="458.691562pt" viewBox="0 0 627.998437 458.691562" xmlns="http://www.w3.org/2000/svg" version="1.1">
 <metadata>
  <rdf:RDF xmlns:dc="http://purl.org/dc/elements/1.1/" xmlns:cc="http://creativecommons.org/ns#" xmlns:rdf="http://www.w3.org/1999/02/22-rdf-syntax-ns#">
   <cc:Work>
    <dc:type rdf:resource="http://purl.org/dc/dcmitype/StillImage"/>
    <dc:date>2023-04-10T19:04:23.415600</dc:date>
    <dc:format>image/svg+xml</dc:format>
    <dc:creator>
     <cc:Agent>
      <dc:title>Matplotlib v3.7.1, https://matplotlib.org/</dc:title>
     </cc:Agent>
    </dc:creator>
   </cc:Work>
  </rdf:RDF>
 </metadata>
 <defs>
  <style type="text/css">*{stroke-linejoin: round; stroke-linecap: butt}</style>
 </defs>
 <g id="figure_1">
  <g id="patch_1">
   <path d="M 0 458.691562 
L 627.998437 458.691562 
L 627.998437 0 
L 0 0 
L 0 458.691562 
z
" style="fill: none"/>
  </g>
  <g id="axes_1">
   <g id="patch_2">
    <path d="M 62.798438 414.957187 
L 620.798437 414.957187 
L 620.798437 26.877187 
L 62.798438 26.877187 
L 62.798438 414.957187 
z
" style="fill: none"/>
   </g>
   <g id="matplotlib.axis_1">
    <g id="xtick_1">
     <g id="line2d_1">
      <path d="M 88.515658 414.957187 
L 88.515658 26.877187 
" clip-path="url(#p312f24eb03)" style="fill: none; stroke: #808080; stroke-width: 0.8; stroke-linecap: square"/>
     </g>
     <g id="line2d_2">
      <defs>
       <path id="m55e1c86340" d="M 0 0 
L 0 -5 
" style="stroke: #808080; stroke-width: 0.8"/>
      </defs>
      <g>
       <use xlink:href="#m55e1c86340" x="88.515658" y="414.957187" style="fill: #808080; stroke: #808080; stroke-width: 0.8"/>
      </g>
     </g>
     <g id="text_1">
      <!-- 30 -->
      <g style="fill: #808080" transform="translate(78.971908 429.854844) scale(0.15 -0.15)">
       <defs>
        <path id="DejaVuSans-33" d="M 2597 2516 
Q 3050 2419 3304 2112 
Q 3559 1806 3559 1356 
Q 3559 666 3084 287 
Q 2609 -91 1734 -91 
Q 1441 -91 1130 -33 
Q 819 25 488 141 
L 488 750 
Q 750 597 1062 519 
Q 1375 441 1716 441 
Q 2309 441 2620 675 
Q 2931 909 2931 1356 
Q 2931 1769 2642 2001 
Q 2353 2234 1838 2234 
L 1294 2234 
L 1294 2753 
L 1863 2753 
Q 2328 2753 2575 2939 
Q 2822 3125 2822 3475 
Q 2822 3834 2567 4026 
Q 2313 4219 1838 4219 
Q 1578 4219 1281 4162 
Q 984 4106 628 3988 
L 628 4550 
Q 988 4650 1302 4700 
Q 1616 4750 1894 4750 
Q 2613 4750 3031 4423 
Q 3450 4097 3450 3541 
Q 3450 3153 3228 2886 
Q 3006 2619 2597 2516 
z
" transform="scale(0.015625)"/>
        <path id="DejaVuSans-30" d="M 2034 4250 
Q 1547 4250 1301 3770 
Q 1056 3291 1056 2328 
Q 1056 1369 1301 889 
Q 1547 409 2034 409 
Q 2525 409 2770 889 
Q 3016 1369 3016 2328 
Q 3016 3291 2770 3770 
Q 2525 4250 2034 4250 
z
M 2034 4750 
Q 2819 4750 3233 4129 
Q 3647 3509 3647 2328 
Q 3647 1150 3233 529 
Q 2819 -91 2034 -91 
Q 1250 -91 836 529 
Q 422 1150 422 2328 
Q 422 3509 836 4129 
Q 1250 4750 2034 4750 
z
" transform="scale(0.015625)"/>
       </defs>
       <use xlink:href="#DejaVuSans-33"/>
       <use xlink:href="#DejaVuSans-30" x="63.623047"/>
      </g>
     </g>
    </g>
    <g id="xtick_2">
     <g id="line2d_3">
      <path d="M 189.986522 414.957187 
L 189.986522 26.877187 
" clip-path="url(#p312f24eb03)" style="fill: none; stroke: #808080; stroke-width: 0.8; stroke-linecap: square"/>
     </g>
     <g id="line2d_4">
      <g>
       <use xlink:href="#m55e1c86340" x="189.986522" y="414.957187" style="fill: #808080; stroke: #808080; stroke-width: 0.8"/>
      </g>
     </g>
     <g id="text_2">
      <!-- 35 -->
      <g style="fill: #808080" transform="translate(180.442772 429.854844) scale(0.15 -0.15)">
       <defs>
        <path id="DejaVuSans-35" d="M 691 4666 
L 3169 4666 
L 3169 4134 
L 1269 4134 
L 1269 2991 
Q 1406 3038 1543 3061 
Q 1681 3084 1819 3084 
Q 2600 3084 3056 2656 
Q 3513 2228 3513 1497 
Q 3513 744 3044 326 
Q 2575 -91 1722 -91 
Q 1428 -91 1123 -41 
Q 819 9 494 109 
L 494 744 
Q 775 591 1075 516 
Q 1375 441 1709 441 
Q 2250 441 2565 725 
Q 2881 1009 2881 1497 
Q 2881 1984 2565 2268 
Q 2250 2553 1709 2553 
Q 1456 2553 1204 2497 
Q 953 2441 691 2322 
L 691 4666 
z
" transform="scale(0.015625)"/>
       </defs>
       <use xlink:href="#DejaVuSans-33"/>
       <use xlink:href="#DejaVuSans-35" x="63.623047"/>
      </g>
     </g>
    </g>
    <g id="xtick_3">
     <g id="line2d_5">
      <path d="M 291.457386 414.957187 
L 291.457386 26.877187 
" clip-path="url(#p312f24eb03)" style="fill: none; stroke: #808080; stroke-width: 0.8; stroke-linecap: square"/>
     </g>
     <g id="line2d_6">
      <g>
       <use xlink:href="#m55e1c86340" x="291.457386" y="414.957187" style="fill: #808080; stroke: #808080; stroke-width: 0.8"/>
      </g>
     </g>
     <g id="text_3">
      <!-- 40 -->
      <g style="fill: #808080" transform="translate(281.913636 429.854844) scale(0.15 -0.15)">
       <defs>
        <path id="DejaVuSans-34" d="M 2419 4116 
L 825 1625 
L 2419 1625 
L 2419 4116 
z
M 2253 4666 
L 3047 4666 
L 3047 1625 
L 3713 1625 
L 3713 1100 
L 3047 1100 
L 3047 0 
L 2419 0 
L 2419 1100 
L 313 1100 
L 313 1709 
L 2253 4666 
z
" transform="scale(0.015625)"/>
       </defs>
       <use xlink:href="#DejaVuSans-34"/>
       <use xlink:href="#DejaVuSans-30" x="63.623047"/>
      </g>
     </g>
    </g>
    <g id="xtick_4">
     <g id="line2d_7">
      <path d="M 392.92825 414.957187 
L 392.92825 26.877187 
" clip-path="url(#p312f24eb03)" style="fill: none; stroke: #808080; stroke-width: 0.8; stroke-linecap: square"/>
     </g>
     <g id="line2d_8">
      <g>
       <use xlink:href="#m55e1c86340" x="392.92825" y="414.957187" style="fill: #808080; stroke: #808080; stroke-width: 0.8"/>
      </g>
     </g>
     <g id="text_4">
      <!-- 45 -->
      <g style="fill: #808080" transform="translate(383.3845 429.854844) scale(0.15 -0.15)">
       <use xlink:href="#DejaVuSans-34"/>
       <use xlink:href="#DejaVuSans-35" x="63.623047"/>
      </g>
     </g>
    </g>
    <g id="xtick_5">
     <g id="line2d_9">
      <path d="M 494.399114 414.957187 
L 494.399114 26.877187 
" clip-path="url(#p312f24eb03)" style="fill: none; stroke: #808080; stroke-width: 0.8; stroke-linecap: square"/>
     </g>
     <g id="line2d_10">
      <g>
       <use xlink:href="#m55e1c86340" x="494.399114" y="414.957187" style="fill: #808080; stroke: #808080; stroke-width: 0.8"/>
      </g>
     </g>
     <g id="text_5">
      <!-- 50 -->
      <g style="fill: #808080" transform="translate(484.855364 429.854844) scale(0.15 -0.15)">
       <use xlink:href="#DejaVuSans-35"/>
       <use xlink:href="#DejaVuSans-30" x="63.623047"/>
      </g>
     </g>
    </g>
    <g id="xtick_6">
     <g id="line2d_11">
      <path d="M 595.869978 414.957187 
L 595.869978 26.877187 
" clip-path="url(#p312f24eb03)" style="fill: none; stroke: #808080; stroke-width: 0.8; stroke-linecap: square"/>
     </g>
     <g id="line2d_12">
      <g>
       <use xlink:href="#m55e1c86340" x="595.869978" y="414.957187" style="fill: #808080; stroke: #808080; stroke-width: 0.8"/>
      </g>
     </g>
     <g id="text_6">
      <!-- 55 -->
      <g style="fill: #808080" transform="translate(586.326228 429.854844) scale(0.15 -0.15)">
       <use xlink:href="#DejaVuSans-35"/>
       <use xlink:href="#DejaVuSans-35" x="63.623047"/>
      </g>
     </g>
    </g>
    <g id="text_7">
     <!-- time [s] -->
     <g style="fill: #808080" transform="translate(312.711328 448.372031) scale(0.15 -0.15)">
      <defs>
       <path id="DejaVuSans-74" d="M 1172 4494 
L 1172 3500 
L 2356 3500 
L 2356 3053 
L 1172 3053 
L 1172 1153 
Q 1172 725 1289 603 
Q 1406 481 1766 481 
L 2356 481 
L 2356 0 
L 1766 0 
Q 1100 0 847 248 
Q 594 497 594 1153 
L 594 3053 
L 172 3053 
L 172 3500 
L 594 3500 
L 594 4494 
L 1172 4494 
z
" transform="scale(0.015625)"/>
       <path id="DejaVuSans-69" d="M 603 3500 
L 1178 3500 
L 1178 0 
L 603 0 
L 603 3500 
z
M 603 4863 
L 1178 4863 
L 1178 4134 
L 603 4134 
L 603 4863 
z
" transform="scale(0.015625)"/>
       <path id="DejaVuSans-6d" d="M 3328 2828 
Q 3544 3216 3844 3400 
Q 4144 3584 4550 3584 
Q 5097 3584 5394 3201 
Q 5691 2819 5691 2113 
L 5691 0 
L 5113 0 
L 5113 2094 
Q 5113 2597 4934 2840 
Q 4756 3084 4391 3084 
Q 3944 3084 3684 2787 
Q 3425 2491 3425 1978 
L 3425 0 
L 2847 0 
L 2847 2094 
Q 2847 2600 2669 2842 
Q 2491 3084 2119 3084 
Q 1678 3084 1418 2786 
Q 1159 2488 1159 1978 
L 1159 0 
L 581 0 
L 581 3500 
L 1159 3500 
L 1159 2956 
Q 1356 3278 1631 3431 
Q 1906 3584 2284 3584 
Q 2666 3584 2933 3390 
Q 3200 3197 3328 2828 
z
" transform="scale(0.015625)"/>
       <path id="DejaVuSans-65" d="M 3597 1894 
L 3597 1613 
L 953 1613 
Q 991 1019 1311 708 
Q 1631 397 2203 397 
Q 2534 397 2845 478 
Q 3156 559 3463 722 
L 3463 178 
Q 3153 47 2828 -22 
Q 2503 -91 2169 -91 
Q 1331 -91 842 396 
Q 353 884 353 1716 
Q 353 2575 817 3079 
Q 1281 3584 2069 3584 
Q 2775 3584 3186 3129 
Q 3597 2675 3597 1894 
z
M 3022 2063 
Q 3016 2534 2758 2815 
Q 2500 3097 2075 3097 
Q 1594 3097 1305 2825 
Q 1016 2553 972 2059 
L 3022 2063 
z
" transform="scale(0.015625)"/>
       <path id="DejaVuSans-20" transform="scale(0.015625)"/>
       <path id="DejaVuSans-5b" d="M 550 4863 
L 1875 4863 
L 1875 4416 
L 1125 4416 
L 1125 -397 
L 1875 -397 
L 1875 -844 
L 550 -844 
L 550 4863 
z
" transform="scale(0.015625)"/>
       <path id="DejaVuSans-73" d="M 2834 3397 
L 2834 2853 
Q 2591 2978 2328 3040 
Q 2066 3103 1784 3103 
Q 1356 3103 1142 2972 
Q 928 2841 928 2578 
Q 928 2378 1081 2264 
Q 1234 2150 1697 2047 
L 1894 2003 
Q 2506 1872 2764 1633 
Q 3022 1394 3022 966 
Q 3022 478 2636 193 
Q 2250 -91 1575 -91 
Q 1294 -91 989 -36 
Q 684 19 347 128 
L 347 722 
Q 666 556 975 473 
Q 1284 391 1588 391 
Q 1994 391 2212 530 
Q 2431 669 2431 922 
Q 2431 1156 2273 1281 
Q 2116 1406 1581 1522 
L 1381 1569 
Q 847 1681 609 1914 
Q 372 2147 372 2553 
Q 372 3047 722 3315 
Q 1072 3584 1716 3584 
Q 2034 3584 2315 3537 
Q 2597 3491 2834 3397 
z
" transform="scale(0.015625)"/>
       <path id="DejaVuSans-5d" d="M 1947 4863 
L 1947 -844 
L 622 -844 
L 622 -397 
L 1369 -397 
L 1369 4416 
L 622 4416 
L 622 4863 
L 1947 4863 
z
" transform="scale(0.015625)"/>
      </defs>
      <use xlink:href="#DejaVuSans-74"/>
      <use xlink:href="#DejaVuSans-69" x="39.208984"/>
      <use xlink:href="#DejaVuSans-6d" x="66.992188"/>
      <use xlink:href="#DejaVuSans-65" x="164.404297"/>
      <use xlink:href="#DejaVuSans-20" x="225.927734"/>
      <use xlink:href="#DejaVuSans-5b" x="257.714844"/>
      <use xlink:href="#DejaVuSans-73" x="296.728516"/>
      <use xlink:href="#DejaVuSans-5d" x="348.828125"/>
     </g>
    </g>
   </g>
   <g id="matplotlib.axis_2">
    <g id="ytick_1">
     <g id="line2d_13">
      <path d="M 62.798438 411.911445 
L 620.798437 411.911445 
" clip-path="url(#p312f24eb03)" style="fill: none; stroke: #808080; stroke-width: 0.8; stroke-linecap: square"/>
     </g>
     <g id="line2d_14">
      <defs>
       <path id="mdd8eba7f03" d="M 0 0 
L 5 0 
" style="stroke: #808080; stroke-width: 0.8"/>
      </defs>
      <g>
       <use xlink:href="#mdd8eba7f03" x="62.798438" y="411.911445" style="fill: #808080; stroke: #808080; stroke-width: 0.8"/>
      </g>
     </g>
     <g id="text_8">
      <!-- 64.4 -->
      <g style="fill: #808080" transform="translate(25.9 417.610273) scale(0.15 -0.15)">
       <defs>
        <path id="DejaVuSans-36" d="M 2113 2584 
Q 1688 2584 1439 2293 
Q 1191 2003 1191 1497 
Q 1191 994 1439 701 
Q 1688 409 2113 409 
Q 2538 409 2786 701 
Q 3034 994 3034 1497 
Q 3034 2003 2786 2293 
Q 2538 2584 2113 2584 
z
M 3366 4563 
L 3366 3988 
Q 3128 4100 2886 4159 
Q 2644 4219 2406 4219 
Q 1781 4219 1451 3797 
Q 1122 3375 1075 2522 
Q 1259 2794 1537 2939 
Q 1816 3084 2150 3084 
Q 2853 3084 3261 2657 
Q 3669 2231 3669 1497 
Q 3669 778 3244 343 
Q 2819 -91 2113 -91 
Q 1303 -91 875 529 
Q 447 1150 447 2328 
Q 447 3434 972 4092 
Q 1497 4750 2381 4750 
Q 2619 4750 2861 4703 
Q 3103 4656 3366 4563 
z
" transform="scale(0.015625)"/>
        <path id="DejaVuSans-2e" d="M 684 794 
L 1344 794 
L 1344 0 
L 684 0 
L 684 794 
z
" transform="scale(0.015625)"/>
       </defs>
       <use xlink:href="#DejaVuSans-36"/>
       <use xlink:href="#DejaVuSans-34" x="63.623047"/>
       <use xlink:href="#DejaVuSans-2e" x="127.246094"/>
       <use xlink:href="#DejaVuSans-34" x="159.033203"/>
      </g>
     </g>
    </g>
    <g id="ytick_2">
     <g id="line2d_15">
      <path d="M 62.798438 328.969209 
L 620.798437 328.969209 
" clip-path="url(#p312f24eb03)" style="fill: none; stroke: #808080; stroke-width: 0.8; stroke-linecap: square"/>
     </g>
     <g id="line2d_16">
      <g>
       <use xlink:href="#mdd8eba7f03" x="62.798438" y="328.969209" style="fill: #808080; stroke: #808080; stroke-width: 0.8"/>
      </g>
     </g>
     <g id="text_9">
      <!-- 64.6 -->
      <g style="fill: #808080" transform="translate(25.9 334.668037) scale(0.15 -0.15)">
       <use xlink:href="#DejaVuSans-36"/>
       <use xlink:href="#DejaVuSans-34" x="63.623047"/>
       <use xlink:href="#DejaVuSans-2e" x="127.246094"/>
       <use xlink:href="#DejaVuSans-36" x="159.033203"/>
      </g>
     </g>
    </g>
    <g id="ytick_3">
     <g id="line2d_17">
      <path d="M 62.798438 246.026972 
L 620.798437 246.026972 
" clip-path="url(#p312f24eb03)" style="fill: none; stroke: #808080; stroke-width: 0.8; stroke-linecap: square"/>
     </g>
     <g id="line2d_18">
      <g>
       <use xlink:href="#mdd8eba7f03" x="62.798438" y="246.026972" style="fill: #808080; stroke: #808080; stroke-width: 0.8"/>
      </g>
     </g>
     <g id="text_10">
      <!-- 64.8 -->
      <g style="fill: #808080" transform="translate(25.9 251.725801) scale(0.15 -0.15)">
       <defs>
        <path id="DejaVuSans-38" d="M 2034 2216 
Q 1584 2216 1326 1975 
Q 1069 1734 1069 1313 
Q 1069 891 1326 650 
Q 1584 409 2034 409 
Q 2484 409 2743 651 
Q 3003 894 3003 1313 
Q 3003 1734 2745 1975 
Q 2488 2216 2034 2216 
z
M 1403 2484 
Q 997 2584 770 2862 
Q 544 3141 544 3541 
Q 544 4100 942 4425 
Q 1341 4750 2034 4750 
Q 2731 4750 3128 4425 
Q 3525 4100 3525 3541 
Q 3525 3141 3298 2862 
Q 3072 2584 2669 2484 
Q 3125 2378 3379 2068 
Q 3634 1759 3634 1313 
Q 3634 634 3220 271 
Q 2806 -91 2034 -91 
Q 1263 -91 848 271 
Q 434 634 434 1313 
Q 434 1759 690 2068 
Q 947 2378 1403 2484 
z
M 1172 3481 
Q 1172 3119 1398 2916 
Q 1625 2713 2034 2713 
Q 2441 2713 2670 2916 
Q 2900 3119 2900 3481 
Q 2900 3844 2670 4047 
Q 2441 4250 2034 4250 
Q 1625 4250 1398 4047 
Q 1172 3844 1172 3481 
z
" transform="scale(0.015625)"/>
       </defs>
       <use xlink:href="#DejaVuSans-36"/>
       <use xlink:href="#DejaVuSans-34" x="63.623047"/>
       <use xlink:href="#DejaVuSans-2e" x="127.246094"/>
       <use xlink:href="#DejaVuSans-38" x="159.033203"/>
      </g>
     </g>
    </g>
    <g id="ytick_4">
     <g id="line2d_19">
      <path d="M 62.798438 163.084736 
L 620.798437 163.084736 
" clip-path="url(#p312f24eb03)" style="fill: none; stroke: #808080; stroke-width: 0.8; stroke-linecap: square"/>
     </g>
     <g id="line2d_20">
      <g>
       <use xlink:href="#mdd8eba7f03" x="62.798438" y="163.084736" style="fill: #808080; stroke: #808080; stroke-width: 0.8"/>
      </g>
     </g>
     <g id="text_11">
      <!-- 65.0 -->
      <g style="fill: #808080" transform="translate(25.9 168.783564) scale(0.15 -0.15)">
       <use xlink:href="#DejaVuSans-36"/>
       <use xlink:href="#DejaVuSans-35" x="63.623047"/>
       <use xlink:href="#DejaVuSans-2e" x="127.246094"/>
       <use xlink:href="#DejaVuSans-30" x="159.033203"/>
      </g>
     </g>
    </g>
    <g id="ytick_5">
     <g id="line2d_21">
      <path d="M 62.798438 80.1425 
L 620.798437 80.1425 
" clip-path="url(#p312f24eb03)" style="fill: none; stroke: #808080; stroke-width: 0.8; stroke-linecap: square"/>
     </g>
     <g id="line2d_22">
      <g>
       <use xlink:href="#mdd8eba7f03" x="62.798438" y="80.1425" style="fill: #808080; stroke: #808080; stroke-width: 0.8"/>
      </g>
     </g>
     <g id="text_12">
      <!-- 65.2 -->
      <g style="fill: #808080" transform="translate(25.9 85.841328) scale(0.15 -0.15)">
       <defs>
        <path id="DejaVuSans-32" d="M 1228 531 
L 3431 531 
L 3431 0 
L 469 0 
L 469 531 
Q 828 903 1448 1529 
Q 2069 2156 2228 2338 
Q 2531 2678 2651 2914 
Q 2772 3150 2772 3378 
Q 2772 3750 2511 3984 
Q 2250 4219 1831 4219 
Q 1534 4219 1204 4116 
Q 875 4013 500 3803 
L 500 4441 
Q 881 4594 1212 4672 
Q 1544 4750 1819 4750 
Q 2544 4750 2975 4387 
Q 3406 4025 3406 3419 
Q 3406 3131 3298 2873 
Q 3191 2616 2906 2266 
Q 2828 2175 2409 1742 
Q 1991 1309 1228 531 
z
" transform="scale(0.015625)"/>
       </defs>
       <use xlink:href="#DejaVuSans-36"/>
       <use xlink:href="#DejaVuSans-35" x="63.623047"/>
       <use xlink:href="#DejaVuSans-2e" x="127.246094"/>
       <use xlink:href="#DejaVuSans-32" x="159.033203"/>
      </g>
     </g>
    </g>
    <g id="text_13">
     <!-- $\theta$ [deg] -->
     <g style="fill: #808080" transform="translate(18.75 247.917187) rotate(-90) scale(0.15 -0.15)">
      <defs>
       <path id="DejaVuSans-Oblique-3b8" d="M 2913 2219 
L 925 2219 
Q 791 1284 928 888 
Q 1100 400 1566 400 
Q 2034 400 2391 891 
Q 2703 1322 2913 2219 
z
M 3009 2750 
Q 3094 3638 2984 3950 
Q 2813 4444 2353 4444 
Q 1875 4444 1525 3956 
Q 1250 3563 1034 2750 
L 3009 2750 
z
M 2444 4913 
Q 3194 4913 3494 4250 
Q 3794 3591 3566 2422 
Q 3341 1256 2781 594 
Q 2225 -72 1475 -72 
Q 722 -72 425 594 
Q 128 1256 353 2422 
Q 581 3591 1134 4250 
Q 1691 4913 2444 4913 
z
" transform="scale(0.015625)"/>
       <path id="DejaVuSans-64" d="M 2906 2969 
L 2906 4863 
L 3481 4863 
L 3481 0 
L 2906 0 
L 2906 525 
Q 2725 213 2448 61 
Q 2172 -91 1784 -91 
Q 1150 -91 751 415 
Q 353 922 353 1747 
Q 353 2572 751 3078 
Q 1150 3584 1784 3584 
Q 2172 3584 2448 3432 
Q 2725 3281 2906 2969 
z
M 947 1747 
Q 947 1113 1208 752 
Q 1469 391 1925 391 
Q 2381 391 2643 752 
Q 2906 1113 2906 1747 
Q 2906 2381 2643 2742 
Q 2381 3103 1925 3103 
Q 1469 3103 1208 2742 
Q 947 2381 947 1747 
z
" transform="scale(0.015625)"/>
       <path id="DejaVuSans-67" d="M 2906 1791 
Q 2906 2416 2648 2759 
Q 2391 3103 1925 3103 
Q 1463 3103 1205 2759 
Q 947 2416 947 1791 
Q 947 1169 1205 825 
Q 1463 481 1925 481 
Q 2391 481 2648 825 
Q 2906 1169 2906 1791 
z
M 3481 434 
Q 3481 -459 3084 -895 
Q 2688 -1331 1869 -1331 
Q 1566 -1331 1297 -1286 
Q 1028 -1241 775 -1147 
L 775 -588 
Q 1028 -725 1275 -790 
Q 1522 -856 1778 -856 
Q 2344 -856 2625 -561 
Q 2906 -266 2906 331 
L 2906 616 
Q 2728 306 2450 153 
Q 2172 0 1784 0 
Q 1141 0 747 490 
Q 353 981 353 1791 
Q 353 2603 747 3093 
Q 1141 3584 1784 3584 
Q 2172 3584 2450 3431 
Q 2728 3278 2906 2969 
L 2906 3500 
L 3481 3500 
L 3481 434 
z
" transform="scale(0.015625)"/>
      </defs>
      <use xlink:href="#DejaVuSans-Oblique-3b8" transform="translate(0 0.234375)"/>
      <use xlink:href="#DejaVuSans-20" transform="translate(61.181641 0.234375)"/>
      <use xlink:href="#DejaVuSans-5b" transform="translate(92.96875 0.234375)"/>
      <use xlink:href="#DejaVuSans-64" transform="translate(131.982422 0.234375)"/>
      <use xlink:href="#DejaVuSans-65" transform="translate(195.458984 0.234375)"/>
      <use xlink:href="#DejaVuSans-67" transform="translate(256.982422 0.234375)"/>
      <use xlink:href="#DejaVuSans-5d" transform="translate(320.458984 0.234375)"/>
     </g>
    </g>
   </g>
   <g id="line2d_23">
    <path d="M 88.162074 164.821529 
L 88.366132 163.851554 
L 88.57019 171.762126 
L 88.774248 158.994396 
L 89.182363 117.892934 
L 89.386401 108.881459 
L 89.794517 228.854538 
L 90.202633 158.614264 
L 90.40667 172.334133 
L 90.610728 172.691078 
L 90.814786 130.408387 
L 91.018844 133.790322 
L 91.222902 135.249941 
L 91.42696 194.874723 
L 91.630997 213.137849 
L 91.835055 204.779445 
L 92.039113 144.290664 
L 92.243171 180.668709 
L 92.447229 137.920882 
L 92.651267 157.109194 
L 92.855325 129.500107 
L 93.059382 144.192201 
L 93.26344 205.396046 
L 93.671555 115.386539 
L 94.487767 170.832738 
L 94.895862 104.709626 
L 95.09992 117.569517 
L 95.712094 219.970687 
L 95.916152 182.411106 
L 96.120189 171.714034 
L 96.324247 184.499421 
L 96.528305 72.838136 
L 96.732363 118.723191 
L 96.936421 208.241791 
L 97.140459 202.559211 
L 97.548574 162.742527 
L 97.752632 209.864874 
L 97.95669 209.402739 
L 98.160728 278.510545 
L 98.364786 209.425746 
L 98.568844 215.451034 
L 98.772902 184.44966 
L 98.97696 236.205823 
L 99.181017 226.513081 
L 99.385055 171.151377 
L 99.589113 177.665196 
L 99.793171 153.540026 
L 99.997229 239.426805 
L 100.201287 224.781313 
L 100.405324 136.81215 
L 100.609382 132.483687 
L 100.81344 112.118743 
L 101.221556 187.134698 
L 101.425594 149.924975 
L 101.629651 158.045465 
L 101.833709 150.484458 
L 102.037767 114.171042 
L 102.241825 164.846708 
L 102.445863 127.268348 
L 102.649921 172.697602 
L 102.853979 112.302548 
L 103.058036 185.050331 
L 103.262094 203.734952 
L 103.466152 233.492073 
L 103.67019 242.176274 
L 104.078306 223.020436 
L 104.282364 223.039316 
L 104.486422 202.66916 
L 104.690459 165.198539 
L 104.894517 186.701359 
L 105.098575 191.780738 
L 105.302633 244.830424 
L 105.506691 233.658493 
L 105.710728 290.50524 
L 105.914786 304.175686 
L 106.118844 304.175686 
L 106.322902 240.985507 
L 106.52696 258.910845 
L 106.731018 258.910845 
L 106.935056 159.572499 
L 107.139113 176.392015 
L 107.343171 235.02298 
L 107.547229 251.696284 
L 107.751287 190.669222 
L 107.955325 207.399816 
L 108.159383 242.337122 
L 108.363441 224.246569 
L 108.567499 223.602676 
L 108.771556 228.124858 
L 108.975594 157.666305 
L 109.38371 188.87948 
L 109.587768 229.621112 
L 109.791826 190.81684 
L 109.995863 228.176764 
L 110.199921 140.120459 
L 110.403979 162.392348 
L 110.608037 149.99432 
L 110.812095 205.243081 
L 111.016133 204.116125 
L 111.22019 200.773543 
L 111.424248 219.448636 
L 111.628306 178.684582 
L 111.832364 237.004829 
L 112.036422 146.412043 
L 112.444518 201.464698 
L 112.648575 197.345247 
L 113.056691 230.150824 
L 113.260729 240.739193 
L 113.668855 187.397006 
L 113.872913 182.43427 
L 114.076971 156.246679 
L 114.281008 104.622239 
L 114.485066 152.325793 
L 114.689124 113.617933 
L 114.893182 112.384858 
L 115.301278 228.822646 
L 115.505335 210.538185 
L 115.709393 208.341607 
L 115.913451 210.267389 
L 116.117509 201.833637 
L 116.321547 159.936561 
L 116.525605 220.678874 
L 116.729663 187.17617 
L 116.933721 185.847065 
L 117.137778 216.391141 
L 117.341816 172.991687 
L 117.545874 154.941385 
L 117.749932 146.858148 
L 117.95399 178.3818 
L 118.158048 156.031698 
L 118.362085 152.781366 
L 118.566143 153.500187 
L 118.770201 102.705985 
L 118.974259 194.201794 
L 119.178317 147.498183 
L 119.382355 186.891764 
L 119.586412 194.128374 
L 119.79047 166.561828 
L 119.994528 215.225675 
L 120.402644 187.431103 
L 120.81074 296.177765 
L 121.218855 271.244116 
L 121.626951 326.617581 
L 121.831009 284.283627 
L 122.035067 292.645792 
L 122.239125 235.669257 
L 122.64722 304.240339 
L 122.851278 271.716678 
L 123.055336 214.180916 
L 123.259394 223.808157 
L 123.463452 242.832706 
L 123.667489 248.299947 
L 123.871547 244.141514 
L 124.279663 177.129031 
L 124.483721 129.0021 
L 124.687759 197.714003 
L 124.891817 156.461717 
L 125.095874 177.507781 
L 125.299932 180.946418 
L 125.50399 254.311584 
L 125.708028 237.010581 
L 125.912086 197.63039 
L 126.116144 245.460409 
L 126.320202 177.002837 
L 126.52426 240.918208 
L 126.728297 202.615984 
L 126.932355 207.772021 
L 127.136413 152.957932 
L 127.340471 158.518911 
L 127.544529 172.401119 
L 127.748566 152.669829 
L 127.952624 179.978306 
L 128.156682 175.083806 
L 128.36074 235.398308 
L 128.564798 224.424931 
L 128.768836 143.914717 
L 128.972894 149.386415 
L 129.176951 238.94001 
L 129.381009 253.949765 
L 129.585067 221.367228 
L 129.789105 288.171971 
L 129.993163 272.501899 
L 130.197221 196.345232 
L 130.401279 198.549841 
L 130.605336 215.061036 
L 130.809374 215.061036 
L 131.013432 221.413217 
L 131.21749 221.317177 
L 131.421548 194.309234 
L 131.829643 219.539031 
L 132.033701 197.952982 
L 132.237759 162.24441 
L 132.441817 187.728625 
L 132.645855 171.339172 
L 132.849913 258.937224 
L 133.05397 201.647007 
L 133.258028 227.581864 
L 133.462086 210.521836 
L 134.07423 315.025511 
L 134.278287 254.67858 
L 134.482345 296.133567 
L 134.686383 198.592252 
L 134.890441 263.461771 
L 135.094499 248.080404 
L 135.298557 279.371484 
L 135.502615 276.570396 
L 135.706652 279.192512 
L 135.91071 223.699673 
L 136.114768 259.169487 
L 136.318826 249.333186 
L 136.522884 276.13114 
L 136.726922 271.209855 
L 136.930979 170.805126 
L 137.135037 174.494615 
L 137.339095 201.049213 
L 137.543153 267.121139 
L 137.747191 246.368973 
L 137.951249 212.303577 
L 138.155307 141.412893 
L 138.563422 218.025154 
L 138.76746 172.411847 
L 138.971518 179.319207 
L 139.175576 294.027633 
L 139.379634 249.898717 
L 139.583692 334.06775 
L 139.787729 263.453052 
L 139.991787 251.576127 
L 140.195845 257.142031 
L 140.399903 242.970793 
L 140.603961 205.917374 
L 140.807998 233.069882 
L 141.012056 196.40851 
L 141.216114 220.065326 
L 141.420172 208.83387 
L 141.62421 264.748474 
L 141.828268 219.041868 
L 142.032326 313.42619 
L 142.440441 243.518853 
L 142.644479 232.5526 
L 142.848537 249.069697 
L 143.052595 208.820921 
L 143.256653 239.389153 
L 143.460711 227.635542 
L 143.664748 234.384141 
L 143.868806 262.967951 
L 144.072864 224.162047 
L 144.276922 161.505181 
L 144.685018 216.507756 
L 144.889075 162.842127 
L 145.093133 145.871556 
L 145.297191 219.125792 
L 145.501249 150.042184 
L 145.705287 158.047702 
L 145.909345 143.166234 
L 146.113403 217.789614 
L 146.317461 125.512922 
L 146.521498 132.962796 
L 146.725556 132.922165 
L 146.929614 227.102029 
L 147.133672 231.379267 
L 147.33773 204.766962 
L 147.541767 148.437997 
L 147.745825 134.923499 
L 148.153941 200.582278 
L 148.357999 162.538431 
L 148.766095 270.395206 
L 148.970152 238.948172 
L 149.378268 293.017014 
L 149.582306 206.659028 
L 149.786364 242.580454 
L 149.990422 173.121659 
L 150.19448 241.841387 
L 150.398517 244.088807 
L 150.602575 248.417258 
L 150.806633 186.982525 
L 151.010691 235.35868 
L 151.418786 128.66014 
L 151.622844 139.679427 
L 151.826902 194.439487 
L 152.03096 198.420466 
L 152.439056 180.541138 
L 152.643114 142.994271 
L 153.051229 266.393509 
L 153.255267 169.238516 
L 153.459325 180.798911 
L 153.663383 177.456461 
L 153.867441 115.242984 
L 154.071499 196.308876 
L 154.275605 182.103009 
L 154.479663 194.533073 
L 154.683721 194.533073 
L 154.887779 158.693834 
L 155.091836 172.965786 
L 155.295874 264.349286 
L 155.70399 189.646432 
L 155.908048 217.615436 
L 156.112106 198.054603 
L 156.316143 198.325821 
L 156.520201 219.673016 
L 156.724259 259.054257 
L 156.928317 179.774216 
L 157.132354 153.585792 
L 157.336413 190.358695 
L 157.54047 177.732122 
L 157.744528 185.223154 
L 157.948586 235.822131 
L 158.152624 172.889081 
L 158.356682 160.988906 
L 158.56074 190.67588 
L 158.764798 159.257832 
L 158.968835 149.569295 
L 159.172893 107.257243 
L 159.376951 107.720847 
L 159.581009 159.056006 
L 159.785067 162.1251 
L 159.989104 249.408221 
L 160.193162 153.197736 
L 160.39722 157.941693 
L 160.601278 120.131933 
L 160.805336 194.701541 
L 161.213432 86.584243 
L 161.417489 90.65997 
L 161.621547 131.662225 
L 161.825585 104.519691 
L 162.029643 119.750879 
L 162.233701 121.450612 
L 162.437759 137.853871 
L 162.641817 165.725203 
L 162.845854 167.854639 
L 163.25397 242.35343 
L 163.662066 102.434574 
L 163.866123 110.23576 
L 164.070181 128.152512 
L 164.274239 129.723293 
L 164.478297 182.625474 
L 164.682335 108.630889 
L 165.090451 78.000415 
L 165.294509 103.742162 
L 165.498567 150.716622 
L 165.702604 108.243748 
L 166.11072 166.992693 
L 166.314778 149.897632 
L 166.518815 167.68161 
L 166.722873 201.510731 
L 166.926931 131.861352 
L 167.335047 188.45913 
L 167.539085 195.833091 
L 167.743143 174.133342 
L 167.947201 169.714095 
L 168.151258 156.726875 
L 168.355296 194.165328 
L 168.559354 185.080913 
L 168.763412 224.845579 
L 169.171528 115.800631 
L 169.375565 111.035879 
L 169.783681 157.523643 
L 169.987739 139.075699 
L 170.191777 162.931365 
L 170.395835 99.234548 
L 170.599892 112.815845 
L 170.80395 170.294458 
L 171.008008 122.345778 
L 171.416104 148.51203 
L 171.620162 216.2788 
L 171.82422 216.743109 
L 172.028257 240.617845 
L 172.232315 152.560635 
L 172.436373 260.931888 
L 172.640431 226.881677 
L 172.844489 221.887879 
L 173.048526 209.778155 
L 173.252584 183.185514 
L 173.456642 205.526782 
L 173.6607 240.76392 
L 174.068796 214.439655 
L 174.476835 99.697 
L 174.680893 203.883621 
L 174.884931 250.180777 
L 175.293047 237.979772 
L 175.497104 220.222007 
L 175.701142 180.554104 
L 175.9052 164.773884 
L 176.109258 182.775954 
L 176.313316 141.747549 
L 176.517374 186.325275 
L 176.721411 120.510274 
L 176.925469 182.509284 
L 177.129527 165.674997 
L 177.333585 208.331371 
L 177.537623 177.541057 
L 177.741681 225.132817 
L 177.945738 194.798581 
L 178.149797 94.091233 
L 178.353854 48.850565 
L 178.557892 177.12205 
L 178.76195 171.740827 
L 178.966008 171.740827 
L 179.170066 194.390618 
L 179.578161 122.872902 
L 179.782219 131.978542 
L 179.986277 169.587131 
L 180.190315 100.306773 
L 180.394372 156.284859 
L 180.598431 155.389331 
L 180.802488 141.700923 
L 181.006546 116.264236 
L 181.210584 70.538603 
L 181.414642 76.844068 
L 182.026816 279.264135 
L 182.230853 200.456476 
L 182.434911 200.681312 
L 182.638969 200.074299 
L 182.843027 241.781565 
L 183.047065 187.690751 
L 183.251122 256.95837 
L 183.45518 176.368711 
L 183.659238 223.875587 
L 183.863276 218.123145 
L 184.067334 224.903326 
L 184.271392 175.071513 
L 184.47545 152.375298 
L 184.679507 165.829512 
L 184.883545 161.67373 
L 185.087603 179.888186 
L 185.291661 131.806016 
L 185.495719 188.58761 
L 185.699756 142.959698 
L 185.903814 224.509511 
L 186.107872 228.285905 
L 186.31193 265.724061 
L 186.515968 228.726488 
L 186.720026 154.007037 
L 186.924084 207.613231 
L 187.128142 208.042984 
L 187.332199 189.438002 
L 187.536237 228.73799 
L 187.740295 200.392039 
L 187.944353 205.229022 
L 188.148411 222.442038 
L 188.352448 202.635546 
L 188.556506 222.842197 
L 188.760564 200.078979 
L 188.964622 223.526244 
L 189.16868 274.98496 
L 189.372717 207.160143 
L 189.576776 243.075244 
L 189.780833 197.814219 
L 189.984891 202.965001 
L 190.188929 158.17828 
L 190.392987 227.205423 
L 190.597045 152.725989 
L 190.801103 189.635657 
L 191.00514 201.149429 
L 191.209198 231.387139 
L 191.413256 212.0943 
L 191.617314 212.341059 
L 191.821372 236.691499 
L 192.02541 147.962484 
L 192.229467 157.533543 
L 192.433525 205.496419 
L 192.637583 216.860178 
L 193.045679 139.427895 
L 193.249737 146.225611 
L 193.453795 131.246624 
L 193.657832 149.301049 
L 193.86189 189.355497 
L 194.270006 93.155175 
L 194.474064 93.59535 
L 194.882159 181.447819 
L 195.086217 136.754932 
L 195.290275 192.990906 
L 195.698371 100.49665 
L 195.902429 155.359388 
L 196.106486 171.657535 
L 196.310524 210.04701 
L 196.514582 210.050861 
L 196.71864 145.14923 
L 197.126735 208.697957 
L 197.330793 165.736893 
L 197.534851 176.313278 
L 197.738909 159.188022 
L 198.147005 208.98404 
L 198.351063 168.419448 
L 198.963216 238.644752 
L 199.167274 201.737143 
L 199.371332 214.370614 
L 199.57539 297.358219 
L 199.779427 247.929704 
L 199.983485 256.870119 
L 200.391601 133.713186 
L 200.595639 177.781006 
L 200.799697 133.876825 
L 201.41187 266.283312 
L 201.615908 221.30594 
L 201.819966 228.120846 
L 202.024024 230.784795 
L 202.228082 162.415637 
L 202.432119 222.729907 
L 202.636177 222.729907 
L 202.840235 194.804315 
L 203.044293 94.434114 
L 203.24833 94.434114 
L 203.452389 151.8373 
L 203.656446 124.607089 
L 203.860504 121.850229 
L 204.064542 128.050357 
L 204.2686 110.964486 
L 204.676716 193.426885 
L 204.880774 136.97868 
L 205.084811 167.950886 
L 205.288869 129.135571 
L 205.492927 145.563229 
L 205.696985 188.318232 
L 205.901023 94.1018 
L 206.10508 212.141113 
L 206.309138 205.727877 
L 206.513196 190.134888 
L 206.921292 146.931871 
L 207.12535 169.313621 
L 207.329408 137.333087 
L 207.533445 165.085349 
L 207.737503 116.689963 
L 207.941561 147.056451 
L 208.145619 77.042576 
L 208.349657 154.203367 
L 208.553714 163.93001 
L 208.757772 195.34014 
L 208.96183 168.942106 
L 209.165888 159.147328 
L 209.369926 175.376389 
L 209.573984 175.155074 
L 209.778042 210.161566 
L 209.982099 210.353812 
L 210.186137 201.679218 
L 210.390195 210.167877 
L 210.594253 203.72797 
L 210.798311 190.342691 
L 211.002348 190.722627 
L 211.206406 138.239984 
L 211.410464 159.242032 
L 211.614522 208.952317 
L 211.81856 178.168599 
L 212.022618 222.915464 
L 212.634771 139.294454 
L 212.838829 199.834306 
L 213.246945 176.416118 
L 213.450983 223.280834 
L 213.65504 218.964953 
L 213.859098 224.354918 
L 214.063156 192.684201 
L 214.267194 133.006076 
L 214.67531 163.308737 
L 214.879368 219.186052 
L 215.083425 207.047803 
L 215.287476 215.208435 
L 215.491534 158.070135 
L 215.695591 145.389348 
L 215.899649 148.201304 
L 216.103687 221.059252 
L 216.307745 180.779647 
L 216.511803 169.411299 
L 216.715861 187.8613 
L 216.919898 150.127093 
L 217.123956 136.985072 
L 217.328014 148.934352 
L 217.532072 247.127144 
L 217.73611 211.093772 
L 217.940168 242.662683 
L 218.144225 229.037813 
L 218.348283 223.311417 
L 218.552321 209.856576 
L 218.756379 172.800169 
L 218.960437 77.243569 
L 219.164495 154.536622 
L 219.57259 177.972147 
L 219.776648 108.000446 
L 219.980706 117.791851 
L 220.184744 109.002829 
L 220.592859 167.522791 
L 220.796917 166.929196 
L 221.000955 109.904557 
L 221.205013 151.642015 
L 221.409071 90.023341 
L 221.613129 166.573027 
L 221.817166 175.480904 
L 222.225282 229.337881 
L 222.42934 233.54615 
L 222.633378 175.860201 
L 222.837436 230.389209 
L 223.041494 147.032041 
L 223.245551 173.973364 
L 223.449589 159.814715 
L 223.653647 175.388393 
L 223.857705 221.755918 
L 224.061763 221.925078 
L 224.2658 182.471921 
L 224.469858 183.104708 
L 224.673916 181.08286 
L 225.082012 209.409716 
L 225.28607 248.108279 
L 225.490128 200.344791 
L 225.694185 256.508185 
L 225.898223 215.680091 
L 226.102281 224.346747 
L 226.306339 203.183699 
L 226.714434 130.124798 
L 226.918492 195.945818 
L 227.12255 198.626144 
L 227.326608 228.292683 
L 227.530666 228.292683 
L 227.734704 127.487894 
L 227.938762 144.825545 
L 228.142819 116.071986 
L 228.346877 115.040417 
L 228.550915 74.157728 
L 228.754973 150.693791 
L 228.959031 155.343189 
L 229.163089 184.383962 
L 229.367126 157.530856 
L 229.571184 154.558564 
L 229.775242 144.110193 
L 229.9793 160.075599 
L 230.183338 150.608045 
L 230.387396 118.536267 
L 230.591453 116.337467 
L 230.795511 144.392476 
L 230.999549 113.369904 
L 231.203607 134.808927 
L 231.407665 198.821423 
L 231.611723 207.156221 
L 231.81576 187.499456 
L 232.019818 257.454643 
L 232.223876 195.36445 
L 232.427934 192.588497 
L 232.631972 238.130835 
L 232.83603 160.073448 
L 233.040087 214.805569 
L 233.244145 231.574133 
L 233.448183 237.046252 
L 233.652241 247.984785 
L 233.856299 238.792901 
L 234.060357 209.360636 
L 234.264394 213.380804 
L 234.468452 165.69068 
L 234.67251 167.459769 
L 234.876568 165.802403 
L 235.284664 112.762166 
L 235.488709 213.912399 
L 235.692746 163.321409 
L 235.896804 219.697599 
L 236.100862 147.281866 
L 236.30492 224.303887 
L 236.508958 117.953711 
L 236.713016 97.592434 
L 237.121131 190.075921 
L 237.325169 158.805433 
L 237.529227 163.321331 
L 237.733285 123.050466 
L 237.937343 145.55251 
L 238.14138 126.658388 
L 238.345438 141.958071 
L 238.549496 172.243694 
L 238.753554 164.480502 
L 238.957592 167.074326 
L 239.16165 204.314438 
L 239.365708 149.867598 
L 239.569766 193.818151 
L 239.977861 121.917736 
L 240.181919 126.711841 
L 240.385977 109.274877 
L 240.590014 190.294613 
L 240.99813 92.50044 
L 241.202188 141.938481 
L 241.406226 133.13497 
L 241.610284 101.017597 
L 241.814342 110.866507 
L 242.0184 69.472678 
L 242.426495 107.178125 
L 242.834611 39.772716 
L 243.038648 36.277748 
L 243.446764 82.351709 
L 243.650822 93.210855 
L 243.85486 113.131915 
L 244.262975 178.034145 
L 244.467034 136.869533 
L 244.671071 65.64028 
L 244.875129 130.496788 
L 245.079187 103.637201 
L 245.487282 135.145323 
L 245.69134 147.997455 
L 245.895398 125.263212 
L 246.099456 125.351245 
L 246.303494 58.709686 
L 246.507552 105.167054 
L 246.711609 101.98576 
L 246.915668 127.315512 
L 247.119705 113.932463 
L 247.323763 188.303452 
L 247.527821 209.253493 
L 247.731859 130.691884 
L 247.935916 140.982944 
L 248.344032 68.799618 
L 248.752128 159.364722 
L 248.956186 125.453689 
L 249.160243 121.392058 
L 249.568339 67.371083 
L 249.772397 72.069438 
L 249.976455 100.793963 
L 250.180493 98.794851 
L 250.588608 164.631574 
L 250.792666 134.622727 
L 250.996704 126.55918 
L 251.40482 61.999652 
L 251.608878 111.583572 
L 251.812915 111.583572 
L 252.425089 147.011806 
L 252.629126 135.604108 
L 252.833185 140.145454 
L 253.037242 123.563973 
L 253.24128 88.703634 
L 253.445338 156.842692 
L 253.853454 89.417096 
L 254.057491 67.304188 
L 254.261549 90.996236 
L 254.465607 130.00021 
L 254.669665 144.352247 
L 254.873703 81.386697 
L 255.07776 131.959738 
L 255.281819 113.273039 
L 255.485876 165.662904 
L 255.689914 134.88516 
L 255.893987 121.096808 
L 256.098045 146.566225 
L 256.302103 221.575216 
L 256.506141 201.460606 
L 256.710198 201.767404 
L 256.914256 186.711927 
L 257.118314 237.477916 
L 257.322352 175.893839 
L 257.52641 245.384808 
L 257.934505 177.27182 
L 258.138563 107.969007 
L 258.546679 154.311235 
L 258.750717 144.830138 
L 258.954775 145.747399 
L 259.158833 152.468013 
L 259.566928 92.451716 
L 259.770986 94.571716 
L 259.975044 69.20637 
L 260.179102 150.268962 
L 260.383139 111.652351 
L 260.587197 167.321631 
L 260.791255 143.522954 
L 260.995313 135.83471 
L 261.199351 208.657119 
L 261.403408 158.114973 
L 261.607467 167.720485 
L 261.811504 139.12587 
L 262.21962 187.498691 
L 262.423678 255.29145 
L 262.831773 121.173777 
L 263.443927 219.123365 
L 263.647985 141.451603 
L 263.852042 217.961216 
L 264.056101 223.224207 
L 264.260138 179.968592 
L 264.464196 163.655192 
L 264.668254 193.918246 
L 264.872292 196.450444 
L 265.076349 115.230529 
L 265.280407 155.828677 
L 265.688503 81.500914 
L 265.892561 173.465131 
L 266.096619 134.916077 
L 266.300676 122.343154 
L 266.504714 155.387285 
L 266.708772 135.317248 
L 266.91283 176.470819 
L 267.116888 180.258238 
L 267.320926 81.683606 
L 267.524984 115.356526 
L 267.729041 130.23842 
L 267.933079 166.882796 
L 268.137137 61.524534 
L 268.341195 181.251991 
L 268.545253 122.066182 
L 268.74929 108.129063 
L 268.953348 151.234911 
L 269.361464 126.145626 
L 269.565502 184.695799 
L 269.76956 127.916979 
L 269.973618 162.401099 
L 270.177675 151.022189 
L 270.381713 166.106075 
L 270.585771 169.886769 
L 270.789829 206.855332 
L 270.993866 187.126459 
L 271.197924 189.602083 
L 271.401982 180.894769 
L 271.60604 165.344125 
L 271.810078 112.818964 
L 272.014136 141.492349 
L 272.218193 48.942435 
L 272.422252 60.346438 
L 273.034405 163.647266 
L 273.4425 187.517802 
L 273.646558 186.729001 
L 273.850616 102.363717 
L 274.258712 161.948075 
L 274.46277 171.079445 
L 274.666827 141.954585 
L 274.870865 143.214803 
L 275.278981 203.589951 
L 275.483039 189.981801 
L 275.687077 194.857349 
L 275.891134 194.857349 
L 276.095177 224.129765 
L 276.299215 231.021754 
L 276.503273 230.468781 
L 276.70733 211.648022 
L 277.115426 242.077228 
L 277.319484 181.63216 
L 277.523542 184.931195 
L 277.7276 226.761586 
L 277.931637 214.47002 
L 278.135695 192.994461 
L 278.339753 187.196041 
L 278.543791 205.040906 
L 278.747849 160.59945 
L 279.155964 173.766898 
L 279.360002 204.006081 
L 279.56406 198.478159 
L 279.768118 212.100224 
L 279.972176 183.615676 
L 280.176214 188.341574 
L 280.584329 155.24857 
L 280.788367 93.281243 
L 281.196483 218.948689 
L 282.012694 135.15837 
L 282.216752 180.224899 
L 282.42079 174.23323 
L 282.624848 201.557449 
L 282.828905 136.646213 
L 283.032943 163.007956 
L 283.237001 111.722664 
L 283.441059 96.90255 
L 283.645117 204.764634 
L 283.849154 198.158297 
L 284.053212 243.561852 
L 284.461328 142.552891 
L 284.665366 247.771373 
L 284.869424 193.056641 
L 285.073481 204.515226 
L 285.277519 170.937156 
L 285.481577 259.191016 
L 285.685635 162.46478 
L 285.889693 259.810392 
L 286.093731 188.734165 
L 286.297788 240.334178 
L 286.501846 224.110247 
L 286.705884 312.319402 
L 286.909942 265.558479 
L 287.114 285.340793 
L 287.318058 236.483175 
L 287.522095 269.672421 
L 287.930211 233.235532 
L 288.134269 273.305845 
L 288.338307 274.736617 
L 288.542365 272.947556 
L 288.95046 164.752056 
L 289.154518 221.16639 
L 289.358576 161.608112 
L 289.562634 245.956919 
L 289.766671 253.573592 
L 289.970729 172.017756 
L 290.174787 194.612311 
L 290.378825 190.79479 
L 290.582883 199.774268 
L 290.786941 149.639281 
L 290.990999 128.673113 
L 291.195036 194.467742 
L 291.399094 175.648143 
L 291.603152 167.078112 
L 291.80719 194.686769 
L 292.011247 181.807694 
L 292.215305 239.950499 
L 292.419363 192.96844 
L 292.623401 189.463628 
L 292.827459 283.017886 
L 293.031517 272.03722 
L 293.235575 220.276243 
L 293.439612 209.802767 
L 293.64367 234.801966 
L 293.847728 205.080207 
L 294.051765 252.265498 
L 294.255824 239.725957 
L 294.459881 286.859955 
L 294.663939 293.742874 
L 295.684188 159.242806 
L 295.888246 153.397592 
L 296.092304 106.818087 
L 296.500407 189.762338 
L 296.704465 137.850721 
L 296.908523 128.636138 
L 297.112561 185.083453 
L 297.316619 201.241817 
L 297.520676 202.007972 
L 297.724714 163.052719 
L 297.928772 227.322998 
L 298.13283 187.181329 
L 298.336888 188.220606 
L 298.540925 133.43788 
L 298.744983 140.981479 
L 298.949041 130.560664 
L 299.153079 172.319539 
L 299.357137 98.842555 
L 299.765253 81.630218 
L 299.96929 95.407538 
L 300.173348 95.407538 
L 300.377406 81.485244 
L 300.581444 146.070358 
L 300.785501 139.624553 
L 300.989559 182.225252 
L 301.193617 122.75429 
L 301.397655 180.328655 
L 301.601713 169.977542 
L 301.805771 124.014662 
L 302.009808 110.693032 
L 302.213866 148.481786 
L 302.417924 75.421297 
L 302.621982 57.519235 
L 302.82602 64.575445 
L 303.030078 77.421217 
L 303.234135 98.636437 
L 303.438173 174.374091 
L 303.642231 183.575879 
L 304.050347 140.106584 
L 304.254384 169.117767 
L 304.458442 164.170134 
L 304.6625 174.36252 
L 304.866558 101.010591 
L 305.070596 179.538247 
L 305.274654 207.73538 
L 305.478712 206.849453 
L 305.682749 233.524786 
L 305.886807 214.241296 
L 306.090865 210.011057 
L 306.294923 230.445159 
L 306.498961 205.52634 
L 306.703018 224.524789 
L 306.907076 222.005671 
L 307.111114 232.767876 
L 307.315172 253.181433 
L 307.51923 202.509531 
L 307.723288 199.581955 
L 307.927325 217.430247 
L 308.131383 186.108434 
L 308.335441 189.622646 
L 308.539479 198.748922 
L 308.743537 170.848165 
L 308.947595 192.918446 
L 309.151652 196.733741 
L 309.35569 206.605036 
L 309.559748 186.539332 
L 309.763806 210.045876 
L 309.967843 204.508841 
L 310.171901 167.845481 
L 310.375959 216.354479 
L 310.579997 213.791241 
L 310.784055 151.769095 
L 310.988113 197.852533 
L 311.192171 188.932697 
L 311.396208 193.605701 
L 311.600266 210.336726 
L 311.804324 106.634773 
L 312.008362 110.959293 
L 312.21242 141.190554 
L 312.620535 240.971313 
L 312.824573 225.065316 
L 313.028631 185.258901 
L 313.232689 182.242205 
L 313.436726 183.046346 
L 313.640784 127.971565 
L 313.844842 173.61375 
L 314.0489 159.251895 
L 314.252938 176.559685 
L 314.456996 123.604892 
L 314.661054 193.45508 
L 314.865091 156.980654 
L 315.069149 192.16132 
L 315.273207 198.054408 
L 315.477265 208.43104 
L 316.089418 93.150641 
L 316.293456 195.230683 
L 316.497514 126.990221 
L 316.701564 213.908359 
L 316.905622 195.081089 
L 317.10966 202.489255 
L 317.313718 191.958718 
L 317.721813 142.330105 
L 317.925871 177.917984 
L 318.129929 170.555627 
L 318.333987 208.166864 
L 318.538024 168.438031 
L 318.742082 211.93495 
L 318.94614 141.33043 
L 319.150178 197.964006 
L 319.354236 141.506356 
L 319.558294 178.98775 
L 319.762331 149.075855 
L 319.966389 158.73159 
L 320.170447 154.024357 
L 320.374505 188.875531 
L 320.782601 75.804115 
L 320.986658 91.43259 
L 321.190696 83.081294 
L 321.394754 99.107127 
L 321.598812 148.274062 
L 321.80287 114.1504 
L 322.210965 167.640759 
L 322.415023 145.749827 
L 322.619061 182.023003 
L 322.823119 133.202881 
L 323.027177 194.010931 
L 323.435272 101.488174 
L 323.843388 73.110925 
L 324.047426 73.110925 
L 324.251484 49.594372 
L 324.455542 102.280972 
L 324.659579 102.280972 
L 324.863637 165.228885 
L 325.067695 121.351976 
L 325.271753 157.882956 
L 325.47579 138.402944 
L 325.679848 159.444337 
L 325.883906 101.062741 
L 326.087944 75.124203 
L 326.292002 102.76261 
L 326.49606 146.539002 
L 326.700118 110.657645 
L 326.904155 128.020341 
L 327.312271 121.917122 
L 327.516308 82.450129 
L 327.924424 123.417332 
L 328.128462 63.833502 
L 328.33252 41.779977 
L 328.536578 80.122229 
L 328.740636 182.601902 
L 328.944673 159.102426 
L 329.148731 154.271708 
L 329.352789 111.747847 
L 329.556827 131.592607 
L 329.760885 81.030442 
L 329.964942 144.367782 
L 330.16898 154.562115 
L 330.373038 138.265634 
L 330.577096 151.812832 
L 330.781154 188.870633 
L 330.985192 185.668214 
L 331.189249 157.592306 
L 331.393307 183.66476 
L 331.597345 119.372871 
L 331.801403 178.464773 
L 332.005461 158.498889 
L 332.413556 224.653438 
L 332.617614 255.554655 
L 333.02571 191.574442 
L 333.229768 180.498532 
L 333.433826 288.173472 
L 333.637863 222.9082 
L 333.841921 252.482577 
L 334.045979 212.758529 
L 334.250017 205.65609 
L 334.454075 167.46288 
L 334.658132 247.552462 
L 334.86219 158.180301 
L 335.066228 194.549636 
L 335.270286 128.848016 
L 335.474344 126.694004 
L 335.678381 120.392898 
L 336.086497 185.032774 
L 336.290555 188.699113 
L 336.494593 157.049609 
L 336.902709 169.375052 
L 337.106754 150.534546 
L 337.310812 153.613716 
L 337.51487 182.813702 
L 337.718907 156.967294 
L 337.922965 222.560358 
L 338.127023 189.607221 
L 338.739176 259.421488 
L 339.147272 235.379678 
L 339.555388 326.759737 
L 339.759425 243.542364 
L 339.963483 228.590874 
L 340.167541 229.893277 
L 340.371599 171.936163 
L 340.779695 223.382133 
L 340.983752 230.34771 
L 341.18779 266.651204 
L 341.391848 203.067785 
L 341.595906 255.04253 
L 341.799944 236.350717 
L 342.004001 237.318122 
L 342.208059 216.531141 
L 342.412097 179.062413 
L 342.616155 210.124783 
L 342.820213 178.280178 
L 343.024271 217.506505 
L 343.228308 192.834603 
L 343.432366 305.866182 
L 343.636424 144.428842 
L 344.04452 237.843131 
L 344.248578 216.470333 
L 344.452615 233.992677 
L 344.656673 151.921106 
L 344.860731 146.941327 
L 345.064789 245.829944 
L 345.268826 244.788728 
L 345.472884 228.084796 
L 345.676942 178.710429 
L 345.88098 221.951566 
L 346.085038 175.548341 
L 346.289096 225.313501 
L 346.493133 182.772835 
L 346.697191 189.354662 
L 346.901249 241.660052 
L 347.105307 211.218068 
L 347.309345 162.972756 
L 347.513403 183.175793 
L 347.71746 185.461994 
L 347.921498 206.367492 
L 348.329614 213.296747 
L 348.533652 97.224305 
L 348.737709 97.224305 
L 348.941767 238.185397 
L 349.145805 243.679395 
L 349.349863 275.333984 
L 349.553921 218.332713 
L 349.757979 217.794112 
L 349.962016 255.528949 
L 350.166074 247.403082 
L 350.370132 228.875899 
L 350.57417 272.411831 
L 350.778228 228.525167 
L 350.982286 258.418226 
L 351.186323 229.256495 
L 351.390381 280.622982 
L 351.594439 273.145057 
L 352.002534 246.566197 
L 352.206592 240.025933 
L 352.41065 239.256097 
L 352.614688 251.586433 
L 352.818746 214.714806 
L 353.022804 199.117803 
L 353.226841 206.050477 
L 353.430899 262.760726 
L 353.634957 255.306893 
L 354.043053 330.469899 
L 354.451148 237.05009 
L 354.655206 271.078348 
L 354.859264 264.306527 
L 355.063322 195.878575 
L 355.26736 192.958428 
L 355.471417 235.770775 
L 355.675475 191.220125 
L 356.083571 310.215826 
L 356.695724 207.386798 
L 356.899782 197.383634 
L 357.10382 235.669471 
L 357.307878 212.897271 
L 357.511936 238.051182 
L 357.715994 286.016119 
L 357.920031 241.404268 
L 358.124089 276.670818 
L 358.532185 190.229528 
L 358.736242 207.474408 
L 358.9403 193.776194 
L 359.144338 229.759794 
L 359.348396 296.282368 
L 359.552454 285.279877 
L 359.756491 280.85906 
L 359.960549 312.053453 
L 360.368665 226.769534 
L 360.572703 274.333171 
L 360.776761 249.695526 
L 360.980819 205.950396 
L 361.184856 265.641231 
L 361.388914 181.098333 
L 361.592972 330.403926 
L 361.79701 356.224731 
L 362.001068 271.432704 
L 362.205125 299.869671 
L 362.409163 225.055392 
L 362.613221 208.982485 
L 362.817279 291.270875 
L 363.021316 235.616059 
L 363.225374 256.064013 
L 363.429432 330.532184 
L 363.63349 251.381606 
L 363.837528 245.717088 
L 364.041586 226.656437 
L 364.245644 320.728554 
L 364.449681 197.246029 
L 365.265893 352.370332 
L 365.673988 260.513849 
L 365.878046 267.1032 
L 366.082104 228.798969 
L 366.286142 271.870212 
L 366.490199 275.612994 
L 366.694257 271.882795 
L 367.102353 166.419706 
L 367.510469 261.143704 
L 367.714506 253.814353 
L 367.918564 210.304099 
L 368.122622 261.273264 
L 368.32666 250.307186 
L 368.530718 222.046604 
L 368.734776 213.424994 
L 369.142871 290.743965 
L 369.346929 190.19009 
L 369.550967 184.207368 
L 369.755025 220.046009 
L 369.959082 185.116563 
L 370.16312 170.295498 
L 370.367178 194.791206 
L 370.571236 179.065203 
L 370.979331 266.525242 
L 371.183389 187.685693 
L 371.591485 265.067665 
L 371.795543 269.03232 
L 371.999601 256.711745 
L 372.203638 209.376098 
L 372.407696 230.520392 
L 372.611754 175.578936 
L 372.815792 175.578936 
L 373.01985 237.721573 
L 373.223907 247.680623 
L 373.427945 155.033798 
L 374.040099 251.806766 
L 374.244156 222.057372 
L 374.448214 230.171897 
L 374.652272 219.980457 
L 374.85631 286.285435 
L 375.060368 192.094984 
L 375.264426 199.790227 
L 375.468463 200.503856 
L 375.672521 186.366987 
L 375.876579 189.376765 
L 376.080617 172.133343 
L 376.284675 240.207555 
L 376.488733 252.971261 
L 376.69277 201.85766 
L 376.896828 248.799935 
L 377.100886 189.951994 
L 377.304924 201.429084 
L 377.508981 179.727419 
L 377.713039 170.26516 
L 377.917077 141.005775 
L 378.121135 196.06884 
L 378.325193 201.094097 
L 378.733288 244.481792 
L 378.937346 289.038951 
L 379.141404 222.343532 
L 379.345442 224.149401 
L 379.5495 230.166311 
L 379.753558 205.110955 
L 379.957595 219.987693 
L 380.161653 257.578643 
L 380.365711 256.015635 
L 380.773807 233.549777 
L 381.181902 269.551764 
L 381.38596 264.819551 
L 381.590018 253.288139 
L 381.794055 158.104182 
L 382.610267 297.627655 
L 382.814325 267.151616 
L 383.018362 269.813112 
L 383.22242 301.422777 
L 383.426478 219.744381 
L 383.630516 223.330223 
L 383.834574 196.441999 
L 384.242689 226.214631 
L 384.446727 272.419272 
L 384.650785 182.419594 
L 384.854843 159.997916 
L 385.262938 102.182524 
L 385.466996 188.364488 
L 385.671034 212.626937 
L 385.875092 257.406421 
L 386.07915 164.308463 
L 386.283187 176.095291 
L 386.487245 160.261566 
L 386.691303 248.807673 
L 387.099399 214.05349 
L 387.303457 254.513936 
L 387.711552 228.440568 
L 387.91561 181.083989 
L 388.119648 205.282889 
L 388.527763 215.075835 
L 388.731801 184.611577 
L 388.935859 187.114615 
L 389.139917 207.522122 
L 389.343955 176.199582 
L 389.548012 289.639947 
L 390.364224 161.583252 
L 390.568261 178.404131 
L 390.772319 175.392904 
L 390.976377 185.853588 
L 391.384473 223.444219 
L 391.588531 222.178482 
L 391.792589 207.556452 
L 391.996626 180.612795 
L 392.200684 225.065804 
L 392.404742 199.840598 
L 392.812837 286.88571 
L 393.016895 294.930762 
L 393.220933 316.293697 
L 393.629049 258.370326 
L 393.833086 268.646004 
L 394.037144 245.903707 
L 394.241202 261.393365 
L 394.44524 202.213187 
L 394.649298 275.585671 
L 394.853356 245.156004 
L 395.261451 233.684041 
L 395.465509 266.145352 
L 395.669547 266.145352 
L 395.873605 284.067851 
L 396.077663 245.054464 
L 396.2817 257.605271 
L 396.485758 296.356262 
L 396.689816 296.356262 
L 396.893854 218.942673 
L 397.097911 241.664219 
L 397.301969 297.731124 
L 397.506007 204.371025 
L 397.710065 264.77048 
L 397.914123 179.026704 
L 398.118154 180.601142 
L 398.322212 203.824515 
L 398.52627 196.808504 
L 398.730307 216.812175 
L 398.934365 265.364809 
L 399.138423 162.092316 
L 399.342461 241.955023 
L 399.546518 276.173024 
L 399.750576 271.300258 
L 399.954614 275.763523 
L 400.158672 307.419964 
L 400.36273 252.287996 
L 400.566767 247.353627 
L 400.974883 190.848757 
L 401.178921 207.832721 
L 401.382979 239.557194 
L 401.587037 217.257366 
L 401.791074 260.015072 
L 401.995132 250.466434 
L 402.19919 168.411316 
L 402.403228 207.862257 
L 402.607286 193.888873 
L 402.811344 187.62015 
L 403.015381 152.59342 
L 403.219439 198.296071 
L 403.423497 201.673837 
L 403.627535 299.064859 
L 403.831592 256.165261 
L 404.03565 245.045744 
L 404.239688 269.218057 
L 404.443746 261.177246 
L 404.647804 194.317637 
L 404.851841 178.505036 
L 405.055899 118.422544 
L 405.259957 194.967877 
L 405.463995 200.20297 
L 405.668053 187.811244 
L 405.872111 227.296736 
L 406.076148 313.746812 
L 406.280206 277.453613 
L 406.484264 294.1064 
L 406.688322 250.314367 
L 406.89236 231.758845 
L 407.096418 253.884544 
L 407.300455 239.121537 
L 407.708571 187.302805 
L 407.912629 212.738365 
L 408.116666 299.325144 
L 408.320724 243.917674 
L 408.524762 260.059503 
L 408.72882 246.949825 
L 408.932878 277.087504 
L 409.136936 214.046654 
L 409.340973 255.621744 
L 409.545031 274.193541 
L 409.749089 242.386873 
L 409.953127 172.727731 
L 410.157185 232.89488 
L 410.361243 248.680688 
L 410.56528 222.944596 
L 410.769338 166.042593 
L 410.973396 227.231237 
L 411.177434 226.333258 
L 411.381492 260.139894 
L 411.585549 247.816246 
L 411.789587 257.912692 
L 411.993645 252.105492 
L 412.197703 276.198762 
L 412.40174 279.054559 
L 412.605798 264.540677 
L 412.809856 233.108964 
L 413.013894 232.749398 
L 413.217952 206.261001 
L 413.42201 225.411105 
L 413.626047 224.667981 
L 413.830105 266.480605 
L 414.034163 272.339683 
L 414.238201 341.549403 
L 414.646296 261.407357 
L 414.850354 275.31896 
L 415.054412 272.474251 
L 415.25845 350.825634 
L 415.462508 296.325887 
L 415.666566 286.623012 
L 415.870603 307.714057 
L 416.074661 278.093393 
L 416.278719 325.383837 
L 416.482757 323.372028 
L 416.890872 297.312281 
L 417.09491 341.577076 
L 417.298968 338.669694 
L 417.503026 339.56179 
L 417.707063 335.542616 
L 418.115179 280.269093 
L 418.319249 324.034196 
L 418.523307 326.717595 
L 418.727365 294.287804 
L 418.931402 327.308853 
L 419.13546 288.938636 
L 419.339518 336.488011 
L 419.747614 244.320401 
L 420.155709 308.214295 
L 420.359767 275.423536 
L 420.563825 320.285556 
L 420.767863 320.285556 
L 420.971921 305.071823 
L 421.175978 364.296708 
L 421.380016 325.070255 
L 421.584074 373.125462 
L 422.196227 252.620616 
L 422.400285 361.400709 
L 422.604323 351.044039 
L 422.808381 319.875615 
L 423.012439 360.408315 
L 423.624592 295.93734 
L 423.82863 229.156856 
L 424.032688 294.910103 
L 424.236746 300.99793 
L 424.440783 299.024274 
L 424.848899 311.591945 
L 425.052937 331.92959 
L 425.256995 321.374479 
L 425.461052 289.329093 
L 425.66509 291.468756 
L 425.869148 253.87011 
L 426.073206 319.328109 
L 426.277243 218.732496 
L 426.481301 219.608459 
L 426.685359 204.521691 
L 426.889397 228.371168 
L 427.297492 293.603802 
L 427.50155 241.080863 
L 427.705608 266.869317 
L 427.909646 333.03959 
L 428.317762 250.300058 
L 428.521799 289.909255 
L 428.725857 285.11109 
L 428.929915 331.175817 
L 429.133953 183.887138 
L 429.338011 231.877005 
L 429.542069 180.529106 
L 429.746106 312.161211 
L 429.950164 204.807899 
L 430.154222 195.364343 
L 430.35826 225.595553 
L 430.562317 298.623211 
L 430.766375 226.523772 
L 430.970413 299.606111 
L 431.174471 262.622501 
L 431.378529 256.552833 
L 431.582566 299.233249 
L 431.786624 211.981087 
L 431.990682 176.018192 
L 432.19472 218.170024 
L 432.398778 195.975308 
L 432.806873 273.309502 
L 433.010931 279.430722 
L 433.214989 326.612539 
L 433.419027 325.790093 
L 433.623085 359.096499 
L 433.827122 300.464161 
L 434.03118 295.68887 
L 434.235238 234.429476 
L 434.439276 307.865125 
L 434.643334 267.501875 
L 435.051429 329.085654 
L 435.255487 303.087429 
L 435.459545 299.031866 
L 435.663583 233.491693 
L 435.86764 278.03319 
L 436.071698 274.181161 
L 436.275736 235.294087 
L 436.479794 224.188326 
L 436.683852 231.361999 
L 436.887889 365.32626 
L 437.091947 317.354026 
L 437.296005 340.351647 
L 437.500043 284.265035 
L 437.704101 307.695451 
L 437.908159 243.016719 
L 438.112196 312.171023 
L 438.316254 271.499305 
L 438.520292 308.487591 
L 438.724334 381.317807 
L 438.928392 283.919256 
L 439.13243 278.133986 
L 439.336488 279.847848 
L 439.540546 241.005141 
L 439.744583 237.87707 
L 439.948641 242.927839 
L 440.356737 288.495076 
L 440.764853 219.245949 
L 440.96889 219.272043 
L 441.172948 176.954317 
L 441.581044 268.417653 
L 441.785102 228.874148 
L 441.989159 223.641353 
L 442.193197 259.54686 
L 442.397255 196.695319 
L 442.601293 260.870407 
L 442.805351 255.419482 
L 443.009408 255.347101 
L 443.417504 182.121156 
L 443.825599 282.998289 
L 444.029657 258.361918 
L 444.233715 291.102819 
L 444.437753 253.757056 
L 444.641811 257.326682 
L 444.845869 257.326682 
L 445.049906 191.351331 
L 445.253964 235.147228 
L 445.458022 251.13674 
L 445.66206 339.550181 
L 445.866118 330.337447 
L 446.070176 282.460354 
L 446.274213 302.629237 
L 446.478271 265.499909 
L 446.682309 259.344207 
L 447.090425 233.349192 
L 447.49852 314.574699 
L 447.702578 284.187505 
L 447.906616 320.442524 
L 448.314731 221.177562 
L 448.518769 225.409915 
L 448.926885 331.256659 
L 449.130922 231.556324 
L 449.33498 293.072312 
L 449.539038 209.421372 
L 449.743076 198.370574 
L 449.947134 301.392858 
L 450.151171 229.022278 
L 450.355229 263.788875 
L 450.559287 270.566112 
L 450.763325 240.349965 
L 450.967383 192.47337 
L 451.171441 170.817301 
L 451.375478 200.068826 
L 451.579536 200.224558 
L 451.783594 231.9635 
L 451.987632 157.702781 
L 452.19169 252.321072 
L 452.395747 255.097412 
L 452.599785 215.781244 
L 452.803843 265.010522 
L 453.007881 234.143972 
L 453.211939 289.51552 
L 453.415996 297.70708 
L 453.620034 295.785766 
L 453.824092 281.489818 
L 454.02815 224.492733 
L 454.232187 270.882391 
L 454.436245 276.140493 
L 454.640303 256.694419 
L 454.844341 294.670372 
L 455.048399 302.413586 
L 455.456494 295.878648 
L 455.660552 317.85872 
L 455.86459 211.044574 
L 456.068648 175.462069 
L 456.272706 257.643798 
L 456.476743 251.086716 
L 456.680801 262.442603 
L 456.884859 321.606154 
L 457.088897 317.708941 
L 457.497013 240.66599 
L 457.70105 262.23151 
L 458.109166 360.70675 
L 458.313204 265.297372 
L 458.517261 283.423906 
L 459.129466 249.082504 
L 459.333503 310.039463 
L 459.537561 332.014603 
L 459.741619 328.403353 
L 460.149715 374.318785 
L 460.353772 331.204603 
L 460.761868 318.053867 
L 460.965926 287.51598 
L 461.169964 356.279541 
L 461.374021 334.394873 
L 461.578059 355.687314 
L 461.986175 278.476286 
L 462.190212 341.285796 
L 462.39427 274.223444 
L 462.802366 259.642897 
L 463.006424 229.816424 
L 463.210482 220.986632 
L 463.618577 273.025305 
L 463.822635 266.575017 
L 464.026673 272.892698 
L 464.230731 271.441755 
L 464.434768 285.830367 
L 464.638826 200.301062 
L 464.842884 277.128072 
L 465.046922 278.747134 
L 465.25098 286.445738 
L 465.455038 318.259857 
L 465.659075 303.047606 
L 465.863133 334.659253 
L 466.067191 271.067227 
L 466.271229 269.95448 
L 466.475286 244.668234 
L 466.679324 298.315663 
L 466.883382 295.252654 
L 467.08744 237.025278 
L 467.291478 288.831851 
L 467.495535 284.881304 
L 467.699593 357.802511 
L 467.903631 329.892984 
L 468.107689 237.09452 
L 468.311747 258.732137 
L 468.719842 270.731861 
L 468.92388 324.657088 
L 469.127938 324.657088 
L 469.331996 300.144083 
L 469.536033 314.48375 
L 469.944149 367.380268 
L 470.352245 298.368369 
L 470.556303 248.614111 
L 470.964398 320.454915 
L 471.168436 279.47635 
L 471.372494 341.173286 
L 471.576552 296.351558 
L 471.780589 317.834142 
L 471.984647 362.120042 
L 472.188705 360.007491 
L 472.392743 371.590204 
L 472.5968 279.57486 
L 472.800858 328.149534 
L 473.004896 189.243359 
L 473.208954 297.50276 
L 473.412992 324.186206 
L 473.617049 287.759954 
L 473.821107 289.218822 
L 474.025145 261.401758 
L 474.433261 315.291693 
L 474.637298 272.521077 
L 474.841356 273.334663 
L 475.045414 206.749675 
L 475.249452 252.463491 
L 475.45351 224.399266 
L 475.861605 337.050987 
L 476.473759 241.320516 
L 476.677817 229.370322 
L 476.881854 287.723776 
L 477.085912 277.51932 
L 477.494008 317.464362 
L 477.698066 299.150232 
L 477.902103 314.114025 
L 478.106161 203.286991 
L 478.310219 224.583319 
L 478.514257 191.774276 
L 478.718314 233.331028 
L 478.922372 305.101947 
L 479.12641 281.873241 
L 479.330399 160.173191 
L 479.534437 259.682724 
L 479.738495 263.234269 
L 479.942553 199.994489 
L 480.146591 273.88739 
L 480.554706 193.670219 
L 480.758744 211.181048 
L 480.962802 212.154167 
L 481.574955 283.928026 
L 481.778993 287.004787 
L 481.983051 266.316047 
L 482.187109 227.13305 
L 482.391146 228.015517 
L 482.595204 193.665237 
L 483.0033 284.845454 
L 483.411395 258.494104 
L 483.615453 348.783737 
L 483.819511 377.159927 
L 484.023549 326.250052 
L 484.227607 304.192008 
L 484.635702 222.21651 
L 484.83976 295.770707 
L 485.043818 286.743165 
L 485.247855 255.974126 
L 485.451913 271.118751 
L 485.655951 277.023135 
L 485.860009 264.806835 
L 486.064067 336.056124 
L 486.268105 298.998462 
L 486.472162 349.246181 
L 486.67622 291.796517 
L 486.880258 359.717395 
L 487.084316 342.650523 
L 487.288353 309.214065 
L 487.492411 306.767183 
L 487.696469 334.212682 
L 487.900507 310.112794 
L 488.104565 316.23123 
L 488.308623 326.250447 
L 488.51266 368.330916 
L 488.716718 366.525276 
L 489.124814 324.688128 
L 489.328871 353.502165 
L 489.736967 364.705102 
L 489.941025 346.175523 
L 490.145063 405.256859 
L 490.349121 384.442485 
L 490.553158 276.504674 
L 490.961274 414.957188 
L 491.165312 310.325636 
L 491.36937 384.551392 
L 491.573427 330.319549 
L 491.777465 355.678732 
L 491.981523 235.015734 
L 492.18556 235.015734 
L 492.389619 205.416723 
L 492.593676 273.068393 
L 492.797714 253.499324 
L 493.001772 285.633801 
L 493.20583 285.633801 
L 493.409867 302.967294 
L 493.613925 281.578137 
L 493.817963 354.160542 
L 494.022021 362.460134 
L 494.226079 170.375634 
L 494.430116 283.965339 
L 494.634174 249.767922 
L 494.838232 252.42426 
L 495.246328 180.237836 
L 495.654423 293.809186 
L 495.858481 300.098248 
L 496.062519 214.158589 
L 496.470635 288.285967 
L 496.674672 266.379714 
L 496.87873 309.58964 
L 497.082768 314.199775 
L 497.286826 270.61043 
L 497.490884 322.848127 
L 497.694921 318.815276 
L 497.898979 273.528148 
L 498.103037 200.672485 
L 498.307075 293.481488 
L 498.511132 298.057562 
L 498.71517 219.515489 
L 498.919228 284.732374 
L 499.123286 286.496331 
L 499.735445 132.1506 
L 499.939483 230.782824 
L 500.143541 213.051349 
L 500.347578 210.610752 
L 500.551636 168.118843 
L 500.755694 268.343274 
L 500.959732 233.545945 
L 501.16379 244.828914 
L 501.367848 289.65373 
L 501.979981 228.755069 
L 502.184039 306.872223 
L 502.388097 256.607874 
L 502.592134 287.71243 
L 502.796192 273.150117 
L 503.00025 204.214003 
L 503.204288 197.877744 
L 503.408346 218.124432 
L 503.612383 285.921064 
L 503.816441 197.066823 
L 504.020499 260.089226 
L 504.224537 157.445622 
L 504.428594 231.321221 
L 504.83669 197.809808 
L 505.040748 179.140866 
L 505.244786 182.973527 
L 505.448843 157.804097 
L 505.652901 104.559274 
L 505.856939 126.735537 
L 506.060997 114.524625 
L 506.265034 140.364013 
L 506.469092 87.330935 
L 506.67315 64.33246 
L 506.877188 176.762428 
L 507.081246 86.161027 
L 507.285304 166.112004 
L 507.489341 200.685731 
L 507.693399 290.165328 
L 507.897437 218.269605 
L 508.101495 238.744496 
L 508.305553 238.214783 
L 508.50959 211.957515 
L 508.713648 139.120275 
L 508.917686 159.475404 
L 509.121744 123.183852 
L 509.325802 153.215385 
L 509.529839 90.976652 
L 509.733897 89.658023 
L 509.937955 182.04685 
L 510.141993 216.494677 
L 510.346051 218.353974 
L 510.550088 165.124306 
L 510.754146 249.227619 
L 511.366299 184.325115 
L 511.570357 189.156728 
L 511.978453 269.427239 
L 512.182491 255.856165 
L 512.386548 226.91473 
L 512.590606 178.437682 
L 512.794644 235.590247 
L 512.998702 254.017662 
L 513.202739 174.044369 
L 513.406797 165.500678 
L 513.610855 146.701737 
L 513.814893 162.468039 
L 514.223009 232.015964 
L 514.427046 219.625514 
L 514.631104 215.951022 
L 514.835142 220.862289 
L 515.0392 208.483736 
L 515.243258 138.593847 
L 515.447295 141.39346 
L 515.651353 176.048721 
L 515.855391 171.723093 
L 516.059449 223.619754 
L 516.263507 159.364415 
L 516.467544 166.704448 
L 516.671602 159.353246 
L 516.87566 158.836827 
L 517.079698 145.470172 
L 517.283756 197.295325 
L 517.487793 197.295325 
L 517.691851 229.935644 
L 518.099947 189.936499 
L 518.304005 207.24458 
L 518.508042 178.4242 
L 518.7121 243.997356 
L 518.916158 177.06756 
L 519.120196 240.583119 
L 519.324253 166.065846 
L 519.528311 172.854676 
L 519.732349 164.811087 
L 519.936469 219.708244 
L 520.140507 193.789118 
L 520.344565 236.427891 
L 520.548623 197.889155 
L 520.956718 184.208277 
L 521.160756 139.061234 
L 521.364814 148.739859 
L 521.568872 195.576987 
L 521.772909 150.744413 
L 522.181005 113.591078 
L 522.385063 119.236522 
L 522.589121 139.226659 
L 522.793158 194.082549 
L 522.997216 192.054787 
L 523.201254 151.851301 
L 523.813407 184.29582 
L 524.017465 165.120728 
L 524.221523 254.440682 
L 524.425561 204.370966 
L 524.629619 198.370805 
L 524.833656 165.178009 
L 525.241772 194.549723 
L 525.44581 182.413303 
L 525.649868 212.832259 
L 526.057963 300.462032 
L 526.466059 213.289009 
L 526.670117 240.906998 
L 527.078212 194.630776 
L 527.28227 186.231262 
L 527.690365 247.197361 
L 527.894423 198.006865 
L 528.098461 225.278739 
L 528.302519 282.759426 
L 528.506557 202.014567 
L 528.710614 280.521222 
L 528.914672 269.225031 
L 529.11871 264.906467 
L 529.322768 304.665839 
L 529.526805 249.537336 
L 529.730863 260.631549 
L 529.934921 285.26434 
L 530.138959 249.456354 
L 530.343017 267.915275 
L 530.547054 248.643088 
L 530.751112 297.922262 
L 531.159208 316.946714 
L 531.363266 312.471862 
L 531.567303 359.464984 
L 531.771361 295.714942 
L 531.975419 288.089002 
L 532.179457 300.267374 
L 532.383515 305.34425 
L 532.587573 272.253254 
L 532.79161 293.575038 
L 532.995668 253.203329 
L 533.199706 237.037211 
L 533.403764 207.21055 
L 534.015917 319.315548 
L 534.219955 240.821565 
L 534.424013 243.331872 
L 534.628071 288.047472 
L 534.832108 281.52359 
L 535.036166 266.06351 
L 535.240204 349.439167 
L 535.444262 263.529369 
L 535.648319 316.579338 
L 535.852357 286.211313 
L 536.056415 342.469601 
L 536.260453 257.993121 
L 536.464511 322.257787 
L 536.668568 311.159314 
L 537.076664 222.413879 
L 537.280702 282.032533 
L 537.484759 306.599816 
L 537.688817 298.834292 
L 537.892855 359.829785 
L 538.096913 356.207721 
L 538.30095 255.987845 
L 538.505008 276.457288 
L 538.709066 194.715715 
L 539.117162 196.958353 
L 539.525257 298.31348 
L 539.933353 225.868801 
L 540.137411 291.47462 
L 540.341396 238.398291 
L 540.545454 282.938933 
L 540.749512 203.43357 
L 540.953549 197.546313 
L 541.157607 199.903801 
L 541.361665 199.903801 
L 541.565703 261.14681 
L 541.769761 201.992901 
L 541.973798 212.506939 
L 542.177856 247.402647 
L 542.381914 248.600133 
L 542.585952 243.617128 
L 542.79001 184.492238 
L 542.994047 275.047982 
L 543.198105 235.960402 
L 543.402163 223.156671 
L 543.606201 234.501525 
L 543.810259 236.974021 
L 544.014296 242.336687 
L 544.218354 237.951139 
L 544.422412 258.077706 
L 544.62645 332.565243 
L 544.830508 283.062828 
L 545.034545 308.577912 
L 545.238603 213.619827 
L 545.442661 285.421495 
L 545.646699 201.546005 
L 546.054794 239.454378 
L 546.46291 214.426357 
L 546.666948 269.458673 
L 546.871006 231.732828 
L 547.075043 262.592598 
L 547.279101 233.351084 
L 547.483159 333.726807 
L 547.687197 269.576416 
L 547.891254 326.933312 
L 548.095292 320.349586 
L 548.29935 256.843151 
L 548.503408 295.187046 
L 548.911503 205.930366 
L 549.115541 284.674773 
L 549.319599 250.415486 
L 549.523657 320.809187 
L 549.931752 261.634072 
L 550.13579 181.018947 
L 550.339848 199.404369 
L 550.747943 208.230624 
L 550.952001 196.638749 
L 551.156039 241.323776 
L 551.360097 238.831016 
L 551.564155 297.693863 
L 551.768192 242.554758 
L 551.97225 240.356311 
L 552.176288 176.212495 
L 552.380346 267.280014 
L 552.584404 256.740265 
L 552.788441 230.008624 
L 552.992499 225.93212 
L 553.196537 305.814948 
L 553.400595 305.269645 
L 553.80869 307.58587 
L 554.012748 221.704274 
L 554.420844 303.032541 
L 554.624902 270.810236 
L 554.828939 263.915171 
L 555.032997 205.976377 
L 555.237035 313.614759 
L 555.441093 294.275441 
L 555.64513 290.724814 
L 555.849188 316.259258 
L 556.053246 327.738905 
L 556.257284 271.417891 
L 556.461342 264.239966 
L 556.665379 185.68611 
L 556.869437 205.705356 
L 557.073495 289.819863 
L 557.277533 220.349499 
L 557.481591 302.157245 
L 557.685628 283.232596 
L 557.889686 287.125663 
L 558.093744 207.412231 
L 558.297782 207.655839 
L 558.50184 212.65263 
L 558.705877 244.011556 
L 558.909935 236.560964 
L 559.113993 259.647196 
L 559.318031 242.852522 
L 559.522088 267.870665 
L 559.930184 217.590236 
L 560.338279 294.459611 
L 560.542332 290.385073 
L 560.74637 229.822233 
L 560.950428 290.426975 
L 561.154486 312.83007 
L 561.358523 305.241941 
L 561.562581 268.065978 
L 561.766619 257.761736 
L 562.378772 196.086954 
L 562.58283 204.002312 
L 562.990926 301.204081 
L 563.194963 298.775848 
L 563.603079 327.677394 
L 563.807117 223.920067 
L 564.011175 375.489534 
L 564.215212 353.35861 
L 564.41927 304.480336 
L 564.623328 355.317912 
L 564.827366 317.411575 
L 565.031424 215.120241 
L 565.235461 215.120241 
L 565.439519 280.263288 
L 565.643577 255.100235 
L 565.847615 279.119658 
L 566.051673 333.99067 
L 566.25571 233.472913 
L 566.459768 217.450197 
L 566.663806 275.534326 
L 566.867864 194.133871 
L 567.071922 253.395232 
L 567.275959 248.314629 
L 567.684055 303.485775 
L 567.888113 312.861302 
L 568.09217 149.122523 
L 568.296208 151.492576 
L 568.500266 146.506518 
L 568.704304 263.762664 
L 568.908362 234.913231 
L 569.112419 232.749249 
L 569.316457 171.111791 
L 569.520515 207.66765 
L 569.724553 221.251646 
L 569.92861 211.431773 
L 570.132668 214.441141 
L 570.336706 221.565752 
L 570.540764 246.130766 
L 570.744802 193.942086 
L 570.948859 184.76973 
L 571.152897 212.923991 
L 571.356955 223.035087 
L 571.76505 151.347869 
L 571.969108 142.366686 
L 572.173146 139.677873 
L 572.581262 193.958192 
L 572.785299 237.44214 
L 572.989357 211.708171 
L 573.193395 217.208858 
L 573.397453 266.319323 
L 573.601511 259.631394 
L 573.805548 261.416602 
L 574.009606 250.471022 
L 574.213644 211.00617 
L 574.417702 137.314844 
L 574.621739 241.295234 
L 574.825797 193.488349 
L 575.029855 117.563489 
L 575.233893 204.488271 
L 575.437951 211.661253 
L 575.641988 160.954124 
L 575.846046 195.859139 
L 576.050104 274.48007 
L 576.254142 209.357021 
L 576.4582 217.451645 
L 576.662237 197.2521 
L 577.070333 289.359085 
L 577.274391 256.097625 
L 577.478449 278.03566 
L 577.682486 251.613401 
L 577.886544 241.745125 
L 578.090582 252.156406 
L 578.29464 339.964069 
L 578.498698 325.288517 
L 578.702735 330.420601 
L 578.906793 193.355598 
L 579.314889 332.329521 
L 579.518947 219.696453 
L 579.722984 185.845789 
L 579.927042 196.103957 
L 580.13108 178.298637 
L 580.335138 177.147985 
L 580.743233 260.550704 
L 580.947299 228.197482 
L 581.151336 163.254712 
L 581.355394 139.701025 
L 581.559432 225.002749 
L 581.76349 208.416004 
L 581.967547 201.659134 
L 582.171585 181.254746 
L 582.375643 244.381482 
L 582.579681 235.194541 
L 582.783739 237.904396 
L 582.987776 295.030482 
L 583.191834 209.580552 
L 583.395892 196.90872 
L 583.803987 129.775683 
L 584.008025 148.356456 
L 584.212083 129.85165 
L 584.416141 175.017617 
L 584.620179 118.58137 
L 585.232332 199.196783 
L 585.43637 170.601371 
L 585.640427 237.864109 
L 585.844485 265.268966 
L 586.048523 237.494583 
L 586.456619 106.619864 
L 586.660676 119.290526 
L 587.27283 251.402363 
L 587.884963 157.112093 
L 588.089021 154.389499 
L 588.293079 170.027414 
L 588.497116 211.137161 
L 588.701174 129.761371 
L 589.10927 249.000596 
L 589.313328 249.000596 
L 589.517365 261.927196 
L 589.721423 223.615399 
L 589.925461 233.772423 
L 590.129519 257.85178 
L 590.333556 144.185401 
L 590.741672 205.151402 
L 590.94571 153.756236 
L 591.149768 153.738461 
L 591.353805 113.116006 
L 591.557863 190.86631 
L 591.761901 170.011125 
L 591.965959 106.678421 
L 592.170017 169.025578 
L 592.374054 195.024162 
L 592.578112 156.892593 
L 592.78215 160.039875 
L 592.986208 121.973419 
L 593.190266 164.122422 
L 593.394303 140.199873 
L 593.598361 65.002911 
L 593.802399 89.53656 
L 594.006457 83.033008 
L 594.210494 177.440807 
L 594.414552 117.967171 
L 594.61861 130.31411 
L 595.026706 102.28664 
L 595.230743 26.877188 
L 595.434801 61.9945 
L 595.434801 61.9945 
" clip-path="url(#p312f24eb03)" style="fill: none; stroke: #1f77b4; stroke-width: 2; stroke-linecap: square"/>
   </g>
   <g id="patch_3">
    <path d="M 62.798438 414.957188 
L 62.798438 26.877188 
" style="fill: none; stroke: #808080; stroke-width: 2; stroke-linejoin: miter; stroke-linecap: square"/>
   </g>
   <g id="patch_4">
    <path d="M 62.798437 414.957187 
L 620.798437 414.957187 
" style="fill: none; stroke: #808080; stroke-width: 2; stroke-linejoin: miter; stroke-linecap: square"/>
   </g>
   <g id="text_14">
    <!-- Vemund-Tyholt-vinkel -->
    <g style="fill: #808080" transform="translate(246.366094 20.877187) scale(0.18 -0.18)">
     <defs>
      <path id="DejaVuSans-56" d="M 1831 0 
L 50 4666 
L 709 4666 
L 2188 738 
L 3669 4666 
L 4325 4666 
L 2547 0 
L 1831 0 
z
" transform="scale(0.015625)"/>
      <path id="DejaVuSans-75" d="M 544 1381 
L 544 3500 
L 1119 3500 
L 1119 1403 
Q 1119 906 1312 657 
Q 1506 409 1894 409 
Q 2359 409 2629 706 
Q 2900 1003 2900 1516 
L 2900 3500 
L 3475 3500 
L 3475 0 
L 2900 0 
L 2900 538 
Q 2691 219 2414 64 
Q 2138 -91 1772 -91 
Q 1169 -91 856 284 
Q 544 659 544 1381 
z
M 1991 3584 
L 1991 3584 
z
" transform="scale(0.015625)"/>
      <path id="DejaVuSans-6e" d="M 3513 2113 
L 3513 0 
L 2938 0 
L 2938 2094 
Q 2938 2591 2744 2837 
Q 2550 3084 2163 3084 
Q 1697 3084 1428 2787 
Q 1159 2491 1159 1978 
L 1159 0 
L 581 0 
L 581 3500 
L 1159 3500 
L 1159 2956 
Q 1366 3272 1645 3428 
Q 1925 3584 2291 3584 
Q 2894 3584 3203 3211 
Q 3513 2838 3513 2113 
z
" transform="scale(0.015625)"/>
      <path id="DejaVuSans-2d" d="M 313 2009 
L 1997 2009 
L 1997 1497 
L 313 1497 
L 313 2009 
z
" transform="scale(0.015625)"/>
      <path id="DejaVuSans-54" d="M -19 4666 
L 3928 4666 
L 3928 4134 
L 2272 4134 
L 2272 0 
L 1638 0 
L 1638 4134 
L -19 4134 
L -19 4666 
z
" transform="scale(0.015625)"/>
      <path id="DejaVuSans-79" d="M 2059 -325 
Q 1816 -950 1584 -1140 
Q 1353 -1331 966 -1331 
L 506 -1331 
L 506 -850 
L 844 -850 
Q 1081 -850 1212 -737 
Q 1344 -625 1503 -206 
L 1606 56 
L 191 3500 
L 800 3500 
L 1894 763 
L 2988 3500 
L 3597 3500 
L 2059 -325 
z
" transform="scale(0.015625)"/>
      <path id="DejaVuSans-68" d="M 3513 2113 
L 3513 0 
L 2938 0 
L 2938 2094 
Q 2938 2591 2744 2837 
Q 2550 3084 2163 3084 
Q 1697 3084 1428 2787 
Q 1159 2491 1159 1978 
L 1159 0 
L 581 0 
L 581 4863 
L 1159 4863 
L 1159 2956 
Q 1366 3272 1645 3428 
Q 1925 3584 2291 3584 
Q 2894 3584 3203 3211 
Q 3513 2838 3513 2113 
z
" transform="scale(0.015625)"/>
      <path id="DejaVuSans-6f" d="M 1959 3097 
Q 1497 3097 1228 2736 
Q 959 2375 959 1747 
Q 959 1119 1226 758 
Q 1494 397 1959 397 
Q 2419 397 2687 759 
Q 2956 1122 2956 1747 
Q 2956 2369 2687 2733 
Q 2419 3097 1959 3097 
z
M 1959 3584 
Q 2709 3584 3137 3096 
Q 3566 2609 3566 1747 
Q 3566 888 3137 398 
Q 2709 -91 1959 -91 
Q 1206 -91 779 398 
Q 353 888 353 1747 
Q 353 2609 779 3096 
Q 1206 3584 1959 3584 
z
" transform="scale(0.015625)"/>
      <path id="DejaVuSans-6c" d="M 603 4863 
L 1178 4863 
L 1178 0 
L 603 0 
L 603 4863 
z
" transform="scale(0.015625)"/>
      <path id="DejaVuSans-76" d="M 191 3500 
L 800 3500 
L 1894 563 
L 2988 3500 
L 3597 3500 
L 2284 0 
L 1503 0 
L 191 3500 
z
" transform="scale(0.015625)"/>
      <path id="DejaVuSans-6b" d="M 581 4863 
L 1159 4863 
L 1159 1991 
L 2875 3500 
L 3609 3500 
L 1753 1863 
L 3688 0 
L 2938 0 
L 1159 1709 
L 1159 0 
L 581 0 
L 581 4863 
z
" transform="scale(0.015625)"/>
     </defs>
     <use xlink:href="#DejaVuSans-56"/>
     <use xlink:href="#DejaVuSans-65" x="60.658203"/>
     <use xlink:href="#DejaVuSans-6d" x="122.181641"/>
     <use xlink:href="#DejaVuSans-75" x="219.59375"/>
     <use xlink:href="#DejaVuSans-6e" x="282.972656"/>
     <use xlink:href="#DejaVuSans-64" x="346.351562"/>
     <use xlink:href="#DejaVuSans-2d" x="409.828125"/>
     <use xlink:href="#DejaVuSans-54" x="436.787109"/>
     <use xlink:href="#DejaVuSans-79" x="482.246094"/>
     <use xlink:href="#DejaVuSans-68" x="541.425781"/>
     <use xlink:href="#DejaVuSans-6f" x="604.804688"/>
     <use xlink:href="#DejaVuSans-6c" x="665.986328"/>
     <use xlink:href="#DejaVuSans-74" x="693.769531"/>
     <use xlink:href="#DejaVuSans-2d" x="732.978516"/>
     <use xlink:href="#DejaVuSans-76" x="766.4375"/>
     <use xlink:href="#DejaVuSans-69" x="825.617188"/>
     <use xlink:href="#DejaVuSans-6e" x="853.400391"/>
     <use xlink:href="#DejaVuSans-6b" x="916.779297"/>
     <use xlink:href="#DejaVuSans-65" x="971.064453"/>
     <use xlink:href="#DejaVuSans-6c" x="1032.587891"/>
    </g>
   </g>
   <g id="legend_1">
    <g id="patch_5">
     <path d="M 73.298438 407.457187 
L 280.352344 407.457187 
Q 283.352344 407.457187 283.352344 404.457187 
L 283.352344 383.94 
Q 283.352344 380.94 280.352344 380.94 
L 73.298438 380.94 
Q 70.298438 380.94 70.298438 383.94 
L 70.298438 404.457187 
Q 70.298438 407.457187 73.298438 407.457187 
z
" style="fill: #ffffff; opacity: 0.8; stroke: #cccccc; stroke-linejoin: miter"/>
    </g>
    <g id="line2d_24">
     <path d="M 76.298438 393.087656 
L 91.298438 393.087656 
L 106.298438 393.087656 
" style="fill: none; stroke: #1f77b4; stroke-width: 2; stroke-linecap: square"/>
    </g>
    <g id="text_15">
     <!-- Vemund-Tyholt-vinkel -->
     <g style="fill: #808080" transform="translate(118.298438 398.337656) scale(0.15 -0.15)">
      <use xlink:href="#DejaVuSans-56"/>
      <use xlink:href="#DejaVuSans-65" x="60.658203"/>
      <use xlink:href="#DejaVuSans-6d" x="122.181641"/>
      <use xlink:href="#DejaVuSans-75" x="219.59375"/>
      <use xlink:href="#DejaVuSans-6e" x="282.972656"/>
      <use xlink:href="#DejaVuSans-64" x="346.351562"/>
      <use xlink:href="#DejaVuSans-2d" x="409.828125"/>
      <use xlink:href="#DejaVuSans-54" x="436.787109"/>
      <use xlink:href="#DejaVuSans-79" x="482.246094"/>
      <use xlink:href="#DejaVuSans-68" x="541.425781"/>
      <use xlink:href="#DejaVuSans-6f" x="604.804688"/>
      <use xlink:href="#DejaVuSans-6c" x="665.986328"/>
      <use xlink:href="#DejaVuSans-74" x="693.769531"/>
      <use xlink:href="#DejaVuSans-2d" x="732.978516"/>
      <use xlink:href="#DejaVuSans-76" x="766.4375"/>
      <use xlink:href="#DejaVuSans-69" x="825.617188"/>
      <use xlink:href="#DejaVuSans-6e" x="853.400391"/>
      <use xlink:href="#DejaVuSans-6b" x="916.779297"/>
      <use xlink:href="#DejaVuSans-65" x="971.064453"/>
      <use xlink:href="#DejaVuSans-6c" x="1032.587891"/>
     </g>
    </g>
   </g>
  </g>
 </g>
 <defs>
  <clipPath id="p312f24eb03">
   <rect x="62.798438" y="26.877187" width="558" height="388.08"/>
  </clipPath>
 </defs>
</svg>
