<?xml version="1.0" encoding="utf-8" standalone="no"?>
<!DOCTYPE svg PUBLIC "-//W3C//DTD SVG 1.1//EN"
  "http://www.w3.org/Graphics/SVG/1.1/DTD/svg11.dtd">
<svg xmlns:xlink="http://www.w3.org/1999/xlink" width="460.8pt" height="345.6pt" viewBox="0 0 460.8 345.6" xmlns="http://www.w3.org/2000/svg" version="1.1">
 <metadata>
  <rdf:RDF xmlns:dc="http://purl.org/dc/elements/1.1/" xmlns:cc="http://creativecommons.org/ns#" xmlns:rdf="http://www.w3.org/1999/02/22-rdf-syntax-ns#">
   <cc:Work>
    <dc:type rdf:resource="http://purl.org/dc/dcmitype/StillImage"/>
    <dc:date>2023-04-17T15:21:36.341246</dc:date>
    <dc:format>image/svg+xml</dc:format>
    <dc:creator>
     <cc:Agent>
      <dc:title>Matplotlib v3.7.1, https://matplotlib.org/</dc:title>
     </cc:Agent>
    </dc:creator>
   </cc:Work>
  </rdf:RDF>
 </metadata>
 <defs>
  <style type="text/css">*{stroke-linejoin: round; stroke-linecap: butt}</style>
 </defs>
 <g id="figure_1">
  <g id="patch_1">
   <path d="M 0 345.6 
L 460.8 345.6 
L 460.8 0 
L 0 0 
z
" style="fill: #ffffff"/>
  </g>
  <g id="axes_1">
   <g id="patch_2">
    <path d="M 57.6 307.584 
L 414.72 307.584 
L 414.72 41.472 
L 57.6 41.472 
z
" style="fill: #ffffff"/>
   </g>
   <g id="matplotlib.axis_1">
    <g id="xtick_1">
     <g id="line2d_1">
      <defs>
       <path id="m0f1d86b83e" d="M 0 0 
L 0 3.5 
" style="stroke: #000000; stroke-width: 0.8"/>
      </defs>
      <g>
       <use xlink:href="#m0f1d86b83e" x="98.06202" y="307.584" style="stroke: #000000; stroke-width: 0.8"/>
      </g>
     </g>
     <g id="text_1">
      <!-- 25 -->
      <g transform="translate(91.69952 322.182437) scale(0.1 -0.1)">
       <defs>
        <path id="DejaVuSans-32" d="M 1228 531 
L 3431 531 
L 3431 0 
L 469 0 
L 469 531 
Q 828 903 1448 1529 
Q 2069 2156 2228 2338 
Q 2531 2678 2651 2914 
Q 2772 3150 2772 3378 
Q 2772 3750 2511 3984 
Q 2250 4219 1831 4219 
Q 1534 4219 1204 4116 
Q 875 4013 500 3803 
L 500 4441 
Q 881 4594 1212 4672 
Q 1544 4750 1819 4750 
Q 2544 4750 2975 4387 
Q 3406 4025 3406 3419 
Q 3406 3131 3298 2873 
Q 3191 2616 2906 2266 
Q 2828 2175 2409 1742 
Q 1991 1309 1228 531 
z
" transform="scale(0.015625)"/>
        <path id="DejaVuSans-35" d="M 691 4666 
L 3169 4666 
L 3169 4134 
L 1269 4134 
L 1269 2991 
Q 1406 3038 1543 3061 
Q 1681 3084 1819 3084 
Q 2600 3084 3056 2656 
Q 3513 2228 3513 1497 
Q 3513 744 3044 326 
Q 2575 -91 1722 -91 
Q 1428 -91 1123 -41 
Q 819 9 494 109 
L 494 744 
Q 775 591 1075 516 
Q 1375 441 1709 441 
Q 2250 441 2565 725 
Q 2881 1009 2881 1497 
Q 2881 1984 2565 2268 
Q 2250 2553 1709 2553 
Q 1456 2553 1204 2497 
Q 953 2441 691 2322 
L 691 4666 
z
" transform="scale(0.015625)"/>
       </defs>
       <use xlink:href="#DejaVuSans-32"/>
       <use xlink:href="#DejaVuSans-35" x="63.623047"/>
      </g>
     </g>
    </g>
    <g id="xtick_2">
     <g id="line2d_2">
      <g>
       <use xlink:href="#m0f1d86b83e" x="158.192795" y="307.584" style="stroke: #000000; stroke-width: 0.8"/>
      </g>
     </g>
     <g id="text_2">
      <!-- 30 -->
      <g transform="translate(151.830295 322.182437) scale(0.1 -0.1)">
       <defs>
        <path id="DejaVuSans-33" d="M 2597 2516 
Q 3050 2419 3304 2112 
Q 3559 1806 3559 1356 
Q 3559 666 3084 287 
Q 2609 -91 1734 -91 
Q 1441 -91 1130 -33 
Q 819 25 488 141 
L 488 750 
Q 750 597 1062 519 
Q 1375 441 1716 441 
Q 2309 441 2620 675 
Q 2931 909 2931 1356 
Q 2931 1769 2642 2001 
Q 2353 2234 1838 2234 
L 1294 2234 
L 1294 2753 
L 1863 2753 
Q 2328 2753 2575 2939 
Q 2822 3125 2822 3475 
Q 2822 3834 2567 4026 
Q 2313 4219 1838 4219 
Q 1578 4219 1281 4162 
Q 984 4106 628 3988 
L 628 4550 
Q 988 4650 1302 4700 
Q 1616 4750 1894 4750 
Q 2613 4750 3031 4423 
Q 3450 4097 3450 3541 
Q 3450 3153 3228 2886 
Q 3006 2619 2597 2516 
z
" transform="scale(0.015625)"/>
        <path id="DejaVuSans-30" d="M 2034 4250 
Q 1547 4250 1301 3770 
Q 1056 3291 1056 2328 
Q 1056 1369 1301 889 
Q 1547 409 2034 409 
Q 2525 409 2770 889 
Q 3016 1369 3016 2328 
Q 3016 3291 2770 3770 
Q 2525 4250 2034 4250 
z
M 2034 4750 
Q 2819 4750 3233 4129 
Q 3647 3509 3647 2328 
Q 3647 1150 3233 529 
Q 2819 -91 2034 -91 
Q 1250 -91 836 529 
Q 422 1150 422 2328 
Q 422 3509 836 4129 
Q 1250 4750 2034 4750 
z
" transform="scale(0.015625)"/>
       </defs>
       <use xlink:href="#DejaVuSans-33"/>
       <use xlink:href="#DejaVuSans-30" x="63.623047"/>
      </g>
     </g>
    </g>
    <g id="xtick_3">
     <g id="line2d_3">
      <g>
       <use xlink:href="#m0f1d86b83e" x="218.323571" y="307.584" style="stroke: #000000; stroke-width: 0.8"/>
      </g>
     </g>
     <g id="text_3">
      <!-- 35 -->
      <g transform="translate(211.961071 322.182437) scale(0.1 -0.1)">
       <use xlink:href="#DejaVuSans-33"/>
       <use xlink:href="#DejaVuSans-35" x="63.623047"/>
      </g>
     </g>
    </g>
    <g id="xtick_4">
     <g id="line2d_4">
      <g>
       <use xlink:href="#m0f1d86b83e" x="278.454346" y="307.584" style="stroke: #000000; stroke-width: 0.8"/>
      </g>
     </g>
     <g id="text_4">
      <!-- 40 -->
      <g transform="translate(272.091846 322.182437) scale(0.1 -0.1)">
       <defs>
        <path id="DejaVuSans-34" d="M 2419 4116 
L 825 1625 
L 2419 1625 
L 2419 4116 
z
M 2253 4666 
L 3047 4666 
L 3047 1625 
L 3713 1625 
L 3713 1100 
L 3047 1100 
L 3047 0 
L 2419 0 
L 2419 1100 
L 313 1100 
L 313 1709 
L 2253 4666 
z
" transform="scale(0.015625)"/>
       </defs>
       <use xlink:href="#DejaVuSans-34"/>
       <use xlink:href="#DejaVuSans-30" x="63.623047"/>
      </g>
     </g>
    </g>
    <g id="xtick_5">
     <g id="line2d_5">
      <g>
       <use xlink:href="#m0f1d86b83e" x="338.585121" y="307.584" style="stroke: #000000; stroke-width: 0.8"/>
      </g>
     </g>
     <g id="text_5">
      <!-- 45 -->
      <g transform="translate(332.222621 322.182437) scale(0.1 -0.1)">
       <use xlink:href="#DejaVuSans-34"/>
       <use xlink:href="#DejaVuSans-35" x="63.623047"/>
      </g>
     </g>
    </g>
    <g id="xtick_6">
     <g id="line2d_6">
      <g>
       <use xlink:href="#m0f1d86b83e" x="398.715896" y="307.584" style="stroke: #000000; stroke-width: 0.8"/>
      </g>
     </g>
     <g id="text_6">
      <!-- 50 -->
      <g transform="translate(392.353396 322.182437) scale(0.1 -0.1)">
       <use xlink:href="#DejaVuSans-35"/>
       <use xlink:href="#DejaVuSans-30" x="63.623047"/>
      </g>
     </g>
    </g>
    <g id="text_7">
     <!-- time [s] -->
     <g transform="translate(216.768594 335.860562) scale(0.1 -0.1)">
      <defs>
       <path id="DejaVuSans-74" d="M 1172 4494 
L 1172 3500 
L 2356 3500 
L 2356 3053 
L 1172 3053 
L 1172 1153 
Q 1172 725 1289 603 
Q 1406 481 1766 481 
L 2356 481 
L 2356 0 
L 1766 0 
Q 1100 0 847 248 
Q 594 497 594 1153 
L 594 3053 
L 172 3053 
L 172 3500 
L 594 3500 
L 594 4494 
L 1172 4494 
z
" transform="scale(0.015625)"/>
       <path id="DejaVuSans-69" d="M 603 3500 
L 1178 3500 
L 1178 0 
L 603 0 
L 603 3500 
z
M 603 4863 
L 1178 4863 
L 1178 4134 
L 603 4134 
L 603 4863 
z
" transform="scale(0.015625)"/>
       <path id="DejaVuSans-6d" d="M 3328 2828 
Q 3544 3216 3844 3400 
Q 4144 3584 4550 3584 
Q 5097 3584 5394 3201 
Q 5691 2819 5691 2113 
L 5691 0 
L 5113 0 
L 5113 2094 
Q 5113 2597 4934 2840 
Q 4756 3084 4391 3084 
Q 3944 3084 3684 2787 
Q 3425 2491 3425 1978 
L 3425 0 
L 2847 0 
L 2847 2094 
Q 2847 2600 2669 2842 
Q 2491 3084 2119 3084 
Q 1678 3084 1418 2786 
Q 1159 2488 1159 1978 
L 1159 0 
L 581 0 
L 581 3500 
L 1159 3500 
L 1159 2956 
Q 1356 3278 1631 3431 
Q 1906 3584 2284 3584 
Q 2666 3584 2933 3390 
Q 3200 3197 3328 2828 
z
" transform="scale(0.015625)"/>
       <path id="DejaVuSans-65" d="M 3597 1894 
L 3597 1613 
L 953 1613 
Q 991 1019 1311 708 
Q 1631 397 2203 397 
Q 2534 397 2845 478 
Q 3156 559 3463 722 
L 3463 178 
Q 3153 47 2828 -22 
Q 2503 -91 2169 -91 
Q 1331 -91 842 396 
Q 353 884 353 1716 
Q 353 2575 817 3079 
Q 1281 3584 2069 3584 
Q 2775 3584 3186 3129 
Q 3597 2675 3597 1894 
z
M 3022 2063 
Q 3016 2534 2758 2815 
Q 2500 3097 2075 3097 
Q 1594 3097 1305 2825 
Q 1016 2553 972 2059 
L 3022 2063 
z
" transform="scale(0.015625)"/>
       <path id="DejaVuSans-20" transform="scale(0.015625)"/>
       <path id="DejaVuSans-5b" d="M 550 4863 
L 1875 4863 
L 1875 4416 
L 1125 4416 
L 1125 -397 
L 1875 -397 
L 1875 -844 
L 550 -844 
L 550 4863 
z
" transform="scale(0.015625)"/>
       <path id="DejaVuSans-73" d="M 2834 3397 
L 2834 2853 
Q 2591 2978 2328 3040 
Q 2066 3103 1784 3103 
Q 1356 3103 1142 2972 
Q 928 2841 928 2578 
Q 928 2378 1081 2264 
Q 1234 2150 1697 2047 
L 1894 2003 
Q 2506 1872 2764 1633 
Q 3022 1394 3022 966 
Q 3022 478 2636 193 
Q 2250 -91 1575 -91 
Q 1294 -91 989 -36 
Q 684 19 347 128 
L 347 722 
Q 666 556 975 473 
Q 1284 391 1588 391 
Q 1994 391 2212 530 
Q 2431 669 2431 922 
Q 2431 1156 2273 1281 
Q 2116 1406 1581 1522 
L 1381 1569 
Q 847 1681 609 1914 
Q 372 2147 372 2553 
Q 372 3047 722 3315 
Q 1072 3584 1716 3584 
Q 2034 3584 2315 3537 
Q 2597 3491 2834 3397 
z
" transform="scale(0.015625)"/>
       <path id="DejaVuSans-5d" d="M 1947 4863 
L 1947 -844 
L 622 -844 
L 622 -397 
L 1369 -397 
L 1369 4416 
L 622 4416 
L 622 4863 
L 1947 4863 
z
" transform="scale(0.015625)"/>
      </defs>
      <use xlink:href="#DejaVuSans-74"/>
      <use xlink:href="#DejaVuSans-69" x="39.208984"/>
      <use xlink:href="#DejaVuSans-6d" x="66.992188"/>
      <use xlink:href="#DejaVuSans-65" x="164.404297"/>
      <use xlink:href="#DejaVuSans-20" x="225.927734"/>
      <use xlink:href="#DejaVuSans-5b" x="257.714844"/>
      <use xlink:href="#DejaVuSans-73" x="296.728516"/>
      <use xlink:href="#DejaVuSans-5d" x="348.828125"/>
     </g>
    </g>
   </g>
   <g id="matplotlib.axis_2">
    <g id="ytick_1">
     <g id="line2d_7">
      <defs>
       <path id="m55ccd6c506" d="M 0 0 
L -3.5 0 
" style="stroke: #000000; stroke-width: 0.8"/>
      </defs>
      <g>
       <use xlink:href="#m55ccd6c506" x="57.6" y="297.071791" style="stroke: #000000; stroke-width: 0.8"/>
      </g>
     </g>
     <g id="text_8">
      <!-- 63.4 -->
      <g transform="translate(28.334375 300.871009) scale(0.1 -0.1)">
       <defs>
        <path id="DejaVuSans-36" d="M 2113 2584 
Q 1688 2584 1439 2293 
Q 1191 2003 1191 1497 
Q 1191 994 1439 701 
Q 1688 409 2113 409 
Q 2538 409 2786 701 
Q 3034 994 3034 1497 
Q 3034 2003 2786 2293 
Q 2538 2584 2113 2584 
z
M 3366 4563 
L 3366 3988 
Q 3128 4100 2886 4159 
Q 2644 4219 2406 4219 
Q 1781 4219 1451 3797 
Q 1122 3375 1075 2522 
Q 1259 2794 1537 2939 
Q 1816 3084 2150 3084 
Q 2853 3084 3261 2657 
Q 3669 2231 3669 1497 
Q 3669 778 3244 343 
Q 2819 -91 2113 -91 
Q 1303 -91 875 529 
Q 447 1150 447 2328 
Q 447 3434 972 4092 
Q 1497 4750 2381 4750 
Q 2619 4750 2861 4703 
Q 3103 4656 3366 4563 
z
" transform="scale(0.015625)"/>
        <path id="DejaVuSans-2e" d="M 684 794 
L 1344 794 
L 1344 0 
L 684 0 
L 684 794 
z
" transform="scale(0.015625)"/>
       </defs>
       <use xlink:href="#DejaVuSans-36"/>
       <use xlink:href="#DejaVuSans-33" x="63.623047"/>
       <use xlink:href="#DejaVuSans-2e" x="127.246094"/>
       <use xlink:href="#DejaVuSans-34" x="159.033203"/>
      </g>
     </g>
    </g>
    <g id="ytick_2">
     <g id="line2d_8">
      <g>
       <use xlink:href="#m55ccd6c506" x="57.6" y="257.49589" style="stroke: #000000; stroke-width: 0.8"/>
      </g>
     </g>
     <g id="text_9">
      <!-- 63.6 -->
      <g transform="translate(28.334375 261.295108) scale(0.1 -0.1)">
       <use xlink:href="#DejaVuSans-36"/>
       <use xlink:href="#DejaVuSans-33" x="63.623047"/>
       <use xlink:href="#DejaVuSans-2e" x="127.246094"/>
       <use xlink:href="#DejaVuSans-36" x="159.033203"/>
      </g>
     </g>
    </g>
    <g id="ytick_3">
     <g id="line2d_9">
      <g>
       <use xlink:href="#m55ccd6c506" x="57.6" y="217.919989" style="stroke: #000000; stroke-width: 0.8"/>
      </g>
     </g>
     <g id="text_10">
      <!-- 63.8 -->
      <g transform="translate(28.334375 221.719207) scale(0.1 -0.1)">
       <defs>
        <path id="DejaVuSans-38" d="M 2034 2216 
Q 1584 2216 1326 1975 
Q 1069 1734 1069 1313 
Q 1069 891 1326 650 
Q 1584 409 2034 409 
Q 2484 409 2743 651 
Q 3003 894 3003 1313 
Q 3003 1734 2745 1975 
Q 2488 2216 2034 2216 
z
M 1403 2484 
Q 997 2584 770 2862 
Q 544 3141 544 3541 
Q 544 4100 942 4425 
Q 1341 4750 2034 4750 
Q 2731 4750 3128 4425 
Q 3525 4100 3525 3541 
Q 3525 3141 3298 2862 
Q 3072 2584 2669 2484 
Q 3125 2378 3379 2068 
Q 3634 1759 3634 1313 
Q 3634 634 3220 271 
Q 2806 -91 2034 -91 
Q 1263 -91 848 271 
Q 434 634 434 1313 
Q 434 1759 690 2068 
Q 947 2378 1403 2484 
z
M 1172 3481 
Q 1172 3119 1398 2916 
Q 1625 2713 2034 2713 
Q 2441 2713 2670 2916 
Q 2900 3119 2900 3481 
Q 2900 3844 2670 4047 
Q 2441 4250 2034 4250 
Q 1625 4250 1398 4047 
Q 1172 3844 1172 3481 
z
" transform="scale(0.015625)"/>
       </defs>
       <use xlink:href="#DejaVuSans-36"/>
       <use xlink:href="#DejaVuSans-33" x="63.623047"/>
       <use xlink:href="#DejaVuSans-2e" x="127.246094"/>
       <use xlink:href="#DejaVuSans-38" x="159.033203"/>
      </g>
     </g>
    </g>
    <g id="ytick_4">
     <g id="line2d_10">
      <g>
       <use xlink:href="#m55ccd6c506" x="57.6" y="178.344088" style="stroke: #000000; stroke-width: 0.8"/>
      </g>
     </g>
     <g id="text_11">
      <!-- 64.0 -->
      <g transform="translate(28.334375 182.143307) scale(0.1 -0.1)">
       <use xlink:href="#DejaVuSans-36"/>
       <use xlink:href="#DejaVuSans-34" x="63.623047"/>
       <use xlink:href="#DejaVuSans-2e" x="127.246094"/>
       <use xlink:href="#DejaVuSans-30" x="159.033203"/>
      </g>
     </g>
    </g>
    <g id="ytick_5">
     <g id="line2d_11">
      <g>
       <use xlink:href="#m55ccd6c506" x="57.6" y="138.768187" style="stroke: #000000; stroke-width: 0.8"/>
      </g>
     </g>
     <g id="text_12">
      <!-- 64.2 -->
      <g transform="translate(28.334375 142.567406) scale(0.1 -0.1)">
       <use xlink:href="#DejaVuSans-36"/>
       <use xlink:href="#DejaVuSans-34" x="63.623047"/>
       <use xlink:href="#DejaVuSans-2e" x="127.246094"/>
       <use xlink:href="#DejaVuSans-32" x="159.033203"/>
      </g>
     </g>
    </g>
    <g id="ytick_6">
     <g id="line2d_12">
      <g>
       <use xlink:href="#m55ccd6c506" x="57.6" y="99.192286" style="stroke: #000000; stroke-width: 0.8"/>
      </g>
     </g>
     <g id="text_13">
      <!-- 64.4 -->
      <g transform="translate(28.334375 102.991505) scale(0.1 -0.1)">
       <use xlink:href="#DejaVuSans-36"/>
       <use xlink:href="#DejaVuSans-34" x="63.623047"/>
       <use xlink:href="#DejaVuSans-2e" x="127.246094"/>
       <use xlink:href="#DejaVuSans-34" x="159.033203"/>
      </g>
     </g>
    </g>
    <g id="ytick_7">
     <g id="line2d_13">
      <g>
       <use xlink:href="#m55ccd6c506" x="57.6" y="59.616385" style="stroke: #000000; stroke-width: 0.8"/>
      </g>
     </g>
     <g id="text_14">
      <!-- 64.6 -->
      <g transform="translate(28.334375 63.415604) scale(0.1 -0.1)">
       <use xlink:href="#DejaVuSans-36"/>
       <use xlink:href="#DejaVuSans-34" x="63.623047"/>
       <use xlink:href="#DejaVuSans-2e" x="127.246094"/>
       <use xlink:href="#DejaVuSans-36" x="159.033203"/>
      </g>
     </g>
    </g>
    <g id="text_15">
     <!-- $\theta$ [deg] -->
     <g transform="translate(22.234375 192.528) rotate(-90) scale(0.1 -0.1)">
      <defs>
       <path id="DejaVuSans-Oblique-3b8" d="M 2913 2219 
L 925 2219 
Q 791 1284 928 888 
Q 1100 400 1566 400 
Q 2034 400 2391 891 
Q 2703 1322 2913 2219 
z
M 3009 2750 
Q 3094 3638 2984 3950 
Q 2813 4444 2353 4444 
Q 1875 4444 1525 3956 
Q 1250 3563 1034 2750 
L 3009 2750 
z
M 2444 4913 
Q 3194 4913 3494 4250 
Q 3794 3591 3566 2422 
Q 3341 1256 2781 594 
Q 2225 -72 1475 -72 
Q 722 -72 425 594 
Q 128 1256 353 2422 
Q 581 3591 1134 4250 
Q 1691 4913 2444 4913 
z
" transform="scale(0.015625)"/>
       <path id="DejaVuSans-64" d="M 2906 2969 
L 2906 4863 
L 3481 4863 
L 3481 0 
L 2906 0 
L 2906 525 
Q 2725 213 2448 61 
Q 2172 -91 1784 -91 
Q 1150 -91 751 415 
Q 353 922 353 1747 
Q 353 2572 751 3078 
Q 1150 3584 1784 3584 
Q 2172 3584 2448 3432 
Q 2725 3281 2906 2969 
z
M 947 1747 
Q 947 1113 1208 752 
Q 1469 391 1925 391 
Q 2381 391 2643 752 
Q 2906 1113 2906 1747 
Q 2906 2381 2643 2742 
Q 2381 3103 1925 3103 
Q 1469 3103 1208 2742 
Q 947 2381 947 1747 
z
" transform="scale(0.015625)"/>
       <path id="DejaVuSans-67" d="M 2906 1791 
Q 2906 2416 2648 2759 
Q 2391 3103 1925 3103 
Q 1463 3103 1205 2759 
Q 947 2416 947 1791 
Q 947 1169 1205 825 
Q 1463 481 1925 481 
Q 2391 481 2648 825 
Q 2906 1169 2906 1791 
z
M 3481 434 
Q 3481 -459 3084 -895 
Q 2688 -1331 1869 -1331 
Q 1566 -1331 1297 -1286 
Q 1028 -1241 775 -1147 
L 775 -588 
Q 1028 -725 1275 -790 
Q 1522 -856 1778 -856 
Q 2344 -856 2625 -561 
Q 2906 -266 2906 331 
L 2906 616 
Q 2728 306 2450 153 
Q 2172 0 1784 0 
Q 1141 0 747 490 
Q 353 981 353 1791 
Q 353 2603 747 3093 
Q 1141 3584 1784 3584 
Q 2172 3584 2450 3431 
Q 2728 3278 2906 2969 
L 2906 3500 
L 3481 3500 
L 3481 434 
z
" transform="scale(0.015625)"/>
      </defs>
      <use xlink:href="#DejaVuSans-Oblique-3b8" transform="translate(0 0.234375)"/>
      <use xlink:href="#DejaVuSans-20" transform="translate(61.181641 0.234375)"/>
      <use xlink:href="#DejaVuSans-5b" transform="translate(92.96875 0.234375)"/>
      <use xlink:href="#DejaVuSans-64" transform="translate(131.982422 0.234375)"/>
      <use xlink:href="#DejaVuSans-65" transform="translate(195.458984 0.234375)"/>
      <use xlink:href="#DejaVuSans-67" transform="translate(256.982422 0.234375)"/>
      <use xlink:href="#DejaVuSans-5d" transform="translate(320.458984 0.234375)"/>
     </g>
    </g>
   </g>
   <g id="line2d_14">
    <path d="M 73.832727 192.419897 
L 74.074561 173.968546 
L 74.195472 181.838069 
L 74.437306 215.530852 
L 74.679127 165.355958 
L 74.92096 169.919736 
L 75.041872 193.568738 
L 75.162794 184.227592 
L 75.283705 188.144373 
L 75.404616 161.194531 
L 75.64645 170.023386 
L 75.767361 148.214271 
L 75.888284 146.929487 
L 76.009195 161.088641 
L 76.130118 197.831282 
L 76.492863 174.547893 
L 76.613774 179.560094 
L 76.734685 179.744302 
L 76.855608 199.160663 
L 76.976519 197.630566 
L 77.09743 188.427792 
L 77.339264 205.021379 
L 77.460175 187.09036 
L 77.581098 193.238519 
L 77.702009 169.322126 
L 77.82292 179.352865 
L 77.943843 150.116106 
L 78.064754 172.806571 
L 78.185665 159.819697 
L 78.306588 184.65391 
L 78.54841 141.023258 
L 79.032078 202.464097 
L 79.273912 165.943616 
L 79.394823 186.55597 
L 79.515733 183.330951 
L 79.636656 183.35669 
L 79.757567 178.210956 
L 79.878478 165.568774 
L 79.999401 191.065884 
L 80.483057 119.883383 
L 80.603968 166.585151 
L 80.845802 148.808777 
L 80.966713 174.206846 
L 81.087636 132.427735 
L 81.208547 173.793729 
L 81.329458 165.106764 
L 81.450381 191.686331 
L 81.571292 170.702667 
L 81.692215 170.894217 
L 81.813126 163.574662 
L 81.934037 188.04423 
L 82.05496 154.399046 
L 82.175871 191.394171 
L 82.296782 167.122052 
L 82.417705 209.590641 
L 82.659527 175.592984 
L 82.78045 199.077111 
L 83.022272 137.706962 
L 83.143195 166.921126 
L 83.385016 145.728384 
L 83.50594 153.581098 
L 83.747761 190.220836 
L 84.110506 151.977185 
L 84.231429 187.809191 
L 84.35234 188.079492 
L 84.473251 192.426313 
L 84.594174 168.355164 
L 84.836008 197.190592 
L 85.198753 135.881169 
L 85.319664 144.674287 
L 85.561498 194.698183 
L 85.682409 194.262022 
L 85.80332 164.14873 
L 85.924243 166.672128 
L 86.045154 173.428229 
L 86.166065 162.118321 
L 86.286988 126.817318 
L 86.407899 126.817318 
L 86.649728 156.145632 
L 86.770639 141.266803 
L 86.89155 154.245576 
L 87.133384 126.26215 
L 87.254295 124.776915 
L 87.375218 114.749449 
L 87.496129 138.190225 
L 87.61704 102.898048 
L 87.737963 139.29209 
L 87.858874 135.152726 
L 87.979785 139.019614 
L 88.100708 126.659242 
L 88.463453 186.64004 
L 88.584364 191.188758 
L 88.947109 141.115549 
L 89.068032 143.665518 
L 89.188943 130.190258 
L 89.551688 164.07722 
L 89.672599 162.945284 
L 89.793522 129.422559 
L 89.914432 132.628675 
L 90.156266 116.155235 
L 90.277177 128.800815 
L 90.398088 157.984528 
L 90.639922 127.698461 
L 90.760833 125.262017 
L 90.881756 154.453672 
L 91.123578 144.24367 
L 91.244501 144.513202 
L 91.365412 164.223369 
L 91.486323 151.567321 
L 91.607246 150.783787 
L 91.728157 138.765631 
L 91.849068 138.133049 
L 91.969991 142.826759 
L 92.090902 163.677864 
L 92.211813 141.801267 
L 92.453647 175.913855 
L 92.574558 163.049944 
L 92.695481 183.807335 
L 92.816392 173.160912 
L 92.937303 194.071274 
L 93.058226 173.091297 
L 93.179137 193.315577 
L 93.30006 171.928587 
L 93.420971 184.779044 
L 93.541882 153.949702 
L 93.783716 182.55978 
L 93.904627 182.497362 
L 94.02555 175.874426 
L 94.146461 180.552439 
L 94.267371 154.823417 
L 94.630116 191.872204 
L 94.751039 144.087617 
L 94.87195 164.475245 
L 94.992861 164.894078 
L 95.113784 195.582311 
L 95.234695 147.115962 
L 95.355606 143.990114 
L 95.476529 155.631457 
L 95.59744 130.882784 
L 95.718351 129.38692 
L 95.839274 141.178215 
L 96.081096 132.838179 
L 96.202019 145.621791 
L 96.443841 132.933472 
L 96.564764 150.076656 
L 96.685675 118.309935 
L 96.806586 159.773814 
L 96.927509 163.133657 
L 97.04842 173.730966 
L 97.169331 163.365092 
L 97.290254 164.269199 
L 97.532076 92.094969 
L 97.77391 150.122477 
L 97.894821 151.382125 
L 98.015744 135.571209 
L 98.136655 135.379837 
L 98.257566 158.378745 
L 98.378489 159.528878 
L 98.499399 163.337215 
L 98.620318 162.969362 
L 98.862152 138.560254 
L 98.983075 164.468721 
L 99.103986 165.24715 
L 99.224897 173.651223 
L 99.34582 171.445244 
L 99.466731 166.463431 
L 99.587642 138.100521 
L 99.708565 138.71801 
L 99.950387 141.329531 
L 100.07131 173.841989 
L 100.192221 145.955743 
L 100.313131 173.761409 
L 100.554965 140.223889 
L 100.675877 137.23493 
L 100.7968 154.92277 
L 100.91771 154.92277 
L 101.038621 167.375198 
L 101.159544 166.079081 
L 101.280455 116.862264 
L 101.401366 144.291666 
L 101.522289 138.772508 
L 101.6432 124.646529 
L 101.764111 145.38092 
L 101.885034 132.489547 
L 102.005945 141.748406 
L 102.126856 166.050712 
L 102.36869 108.875451 
L 102.489601 120.075233 
L 102.610524 119.242817 
L 102.731435 180.738289 
L 102.973269 129.744003 
L 103.09418 138.92741 
L 103.215091 118.968456 
L 103.81967 164.703437 
L 103.940581 154.607694 
L 104.061504 157.57353 
L 104.303326 183.134073 
L 104.424249 150.617185 
L 104.54516 170.078446 
L 104.666071 138.156821 
L 104.786994 137.904313 
L 104.907904 127.107199 
L 105.028816 146.01162 
L 105.149738 146.825863 
L 105.270649 168.28953 
L 105.512483 135.999216 
L 105.633394 139.215313 
L 105.754305 177.925993 
L 106.11705 122.59641 
L 106.237973 168.309396 
L 106.479795 137.481645 
L 106.600718 155.254859 
L 106.721629 140.770205 
L 106.84254 142.561607 
L 106.963463 134.000164 
L 107.084374 151.978526 
L 107.205285 111.320309 
L 107.326208 138.719716 
L 107.56803 130.037462 
L 107.688953 115.059128 
L 107.809864 114.74239 
L 108.051698 129.087432 
L 108.172609 96.518663 
L 108.414443 131.14537 
L 108.535354 136.062414 
L 108.656265 133.935733 
L 108.898099 112.115083 
L 109.01901 128.524659 
L 109.139932 98.252261 
L 109.260844 133.880657 
L 109.381754 135.589684 
L 109.623588 168.672387 
L 109.865422 129.464128 
L 109.986333 131.358861 
L 110.107244 144.397803 
L 110.228167 144.28634 
L 110.349078 143.487657 
L 110.469989 158.746569 
L 110.590912 141.051206 
L 110.711823 143.640844 
L 110.953657 189.029826 
L 111.195479 140.437388 
L 111.316402 157.053059 
L 111.558224 133.683595 
L 111.679147 166.930698 
L 111.800058 150.891522 
L 111.920981 177.335436 
L 112.041892 136.389394 
L 112.283714 168.773478 
L 112.767382 139.11679 
L 112.888293 141.005166 
L 113.009203 167.315672 
L 113.130126 130.222601 
L 113.251038 131.569271 
L 113.371948 160.851579 
L 113.492872 100.405662 
L 113.613782 160.586993 
L 113.855616 142.02646 
L 113.976527 143.440088 
L 114.097438 140.996408 
L 114.218361 127.085042 
L 114.460183 154.609558 
L 114.581106 173.525973 
L 114.943851 117.710035 
L 115.185673 153.252328 
L 115.306596 153.252328 
L 115.548418 147.318562 
L 115.790252 93.114221 
L 115.911163 104.331909 
L 116.032086 63.751896 
L 116.394831 134.615366 
L 116.515742 147.845157 
L 116.636653 115.860168 
L 116.757576 147.057095 
L 116.878487 136.95223 
L 117.120321 165.18496 
L 117.241232 148.627006 
L 117.362142 151.340482 
L 117.483066 135.602376 
L 117.603976 168.598804 
L 117.84581 126.080813 
L 118.208555 78.023133 
L 118.5713 126.616433 
L 118.692211 99.610348 
L 118.813122 125.57155 
L 119.054956 112.782511 
L 119.175867 73.640111 
L 119.29679 134.662809 
L 119.417701 115.175757 
L 119.659535 163.911724 
L 119.780446 115.119919 
L 120.02228 123.994296 
L 120.385025 135.532579 
L 120.505936 131.377 
L 120.74777 92.022469 
L 120.989592 130.219109 
L 121.110515 113.562717 
L 121.231426 119.271372 
L 121.47326 140.141782 
L 121.715082 98.366768 
L 121.956916 123.205474 
L 122.077826 120.746712 
L 122.198749 91.083924 
L 122.31966 125.870747 
L 122.440571 117.476618 
L 122.561494 154.022529 
L 122.803318 118.767927 
L 122.924241 114.05705 
L 123.045152 131.087696 
L 123.166063 120.699465 
L 123.286986 157.354305 
L 123.528808 97.763082 
L 123.649731 100.328692 
L 123.891553 96.428414 
L 124.012476 110.248066 
L 124.133387 86.960718 
L 124.254298 162.242861 
L 124.617043 112.453721 
L 124.858877 109.120036 
L 124.979788 101.577909 
L 125.100699 110.593052 
L 125.221622 144.26017 
L 125.342533 115.70003 
L 125.463444 123.272552 
L 125.584367 95.684933 
L 125.705278 97.166588 
L 125.947111 125.85492 
L 126.068022 121.37357 
L 126.430767 150.715599 
L 126.551678 96.595499 
L 126.793512 142.815532 
L 126.914423 123.815053 
L 127.035346 132.474208 
L 127.156257 118.364536 
L 127.277168 125.047262 
L 127.398091 120.798511 
L 127.519002 137.3592 
L 127.639913 110.92387 
L 127.760836 118.289572 
L 127.881747 148.113977 
L 128.002658 129.170448 
L 128.123581 163.639524 
L 128.244492 142.835247 
L 128.365403 148.581829 
L 128.486326 144.881554 
L 128.728148 103.01201 
L 128.849071 99.015368 
L 128.969982 117.374434 
L 129.090893 91.913427 
L 129.211816 101.502848 
L 129.453638 130.959299 
L 129.574561 112.588715 
L 129.695472 112.588715 
L 129.816383 123.190865 
L 129.937306 83.389827 
L 130.058217 88.554958 
L 130.30005 126.800654 
L 130.420961 126.528791 
L 130.541872 124.430278 
L 130.662795 80.501759 
L 130.783706 110.78821 
L 130.904617 89.565859 
L 131.025528 97.714169 
L 131.509196 164.704456 
L 131.751018 119.901712 
L 131.871941 121.116575 
L 131.992852 123.567142 
L 132.113763 116.838155 
L 132.234686 132.939227 
L 132.355597 123.921804 
L 132.597431 151.013784 
L 132.839253 139.048629 
L 132.960176 133.493032 
L 133.201998 151.797575 
L 133.322921 89.237025 
L 133.685666 156.316517 
L 133.806577 129.923049 
L 133.927488 136.7525 
L 134.048411 111.103917 
L 134.169322 120.916468 
L 134.290232 157.270879 
L 134.411155 133.23528 
L 134.532066 158.822264 
L 134.652977 152.651175 
L 134.7739 133.739352 
L 134.894811 144.797209 
L 135.015722 141.620834 
L 135.136645 118.274264 
L 135.378467 150.574204 
L 135.499378 108.795017 
L 135.862123 136.008124 
L 135.983046 164.757667 
L 136.224868 119.71409 
L 136.345791 115.140277 
L 136.708535 136.010049 
L 136.829446 174.091025 
L 136.950357 166.142559 
L 137.07128 171.836752 
L 137.192191 167.002524 
L 137.313102 122.192232 
L 137.434025 138.444176 
L 137.554936 131.960593 
L 137.675847 131.563989 
L 137.79677 144.723319 
L 137.917681 109.951829 
L 138.159515 125.666377 
L 138.280426 120.907447 
L 138.401337 88.909662 
L 138.764082 177.735438 
L 139.005916 138.363594 
L 139.126827 161.021642 
L 139.247738 133.997285 
L 139.368661 182.508344 
L 139.610483 128.493019 
L 139.852317 170.293311 
L 139.973228 143.106539 
L 140.094151 156.450747 
L 140.215062 138.483701 
L 140.335973 139.235724 
L 140.577807 120.660778 
L 140.698717 111.073301 
L 140.940551 139.935121 
L 141.061462 121.946866 
L 141.182385 133.761079 
L 141.303296 108.75071 
L 141.54513 127.661066 
L 141.786952 151.038509 
L 141.907875 123.712469 
L 142.028786 151.404722 
L 142.149697 149.252259 
L 142.270608 175.144463 
L 142.512442 139.318072 
L 142.633353 135.912076 
L 142.754276 191.774772 
L 142.875187 139.784845 
L 142.996098 143.878778 
L 143.117021 123.593955 
L 143.237932 124.875815 
L 143.358843 118.088996 
L 143.479766 118.457306 
L 143.600677 88.62689 
L 143.842511 168.226689 
L 144.205256 141.31437 
L 144.326167 141.31437 
L 144.447078 161.515882 
L 144.568001 139.246347 
L 144.688912 143.062522 
L 144.809822 130.748366 
L 144.930745 152.024847 
L 145.051656 114.341596 
L 145.414401 138.681796 
L 145.535312 120.130677 
L 145.656223 120.397549 
L 145.777146 101.863381 
L 146.139891 166.259393 
L 146.381713 106.608127 
L 146.502636 143.425433 
L 146.623547 106.086066 
L 146.744458 152.305273 
L 146.865376 147.382965 
L 146.986288 136.675141 
L 147.107198 156.715276 
L 147.228121 156.817339 
L 147.349032 173.511549 
L 147.469943 149.038535 
L 147.711777 174.912077 
L 147.953599 145.554606 
L 148.074522 151.870227 
L 148.195433 108.692037 
L 148.316344 149.791517 
L 148.437267 133.274893 
L 148.558178 132.154414 
L 148.679089 109.715426 
L 148.800012 152.065327 
L 148.920923 149.748876 
L 149.041834 179.402073 
L 149.162757 143.94763 
L 149.283668 141.324776 
L 149.404579 172.882175 
L 149.646413 140.387479 
L 149.767324 152.656086 
L 149.888235 133.368199 
L 150.130069 177.932592 
L 150.25098 148.232219 
L 150.371903 147.497205 
L 150.492814 158.558442 
L 150.613725 144.737863 
L 150.734648 144.289686 
L 150.97647 118.545997 
L 151.218303 134.81574 
L 151.339214 133.059063 
L 151.460137 126.309278 
L 151.581048 132.660166 
L 151.701959 150.587749 
L 151.943793 102.899159 
L 152.185615 97.86597 
L 152.306538 103.240645 
L 152.427449 137.777697 
L 152.669283 108.838159 
L 152.790194 118.662072 
L 153.032028 95.613199 
L 153.152939 103.046288 
L 153.515684 159.338716 
L 153.636595 134.639077 
L 153.757518 171.086416 
L 153.99934 133.537676 
L 154.120263 121.073855 
L 154.241174 129.404027 
L 154.362085 125.144382 
L 154.482996 164.843369 
L 154.84574 124.521983 
L 154.966664 143.961337 
L 155.208486 128.830687 
L 155.329408 146.094993 
L 155.57123 116.466081 
L 156.054898 154.78452 
L 156.175809 112.668396 
L 156.417631 145.644627 
L 156.538554 140.179354 
L 156.659465 140.357024 
L 156.780376 115.670124 
L 156.901299 148.622412 
L 157.02221 135.681795 
L 157.143121 106.076006 
L 157.264044 112.508538 
L 157.505866 158.266356 
L 157.626789 161.292349 
L 157.7477 167.804877 
L 157.989534 123.497892 
L 158.110445 160.141561 
L 158.231356 148.185776 
L 158.352279 147.289158 
L 158.47319 167.098185 
L 158.594101 123.052179 
L 158.715012 123.052179 
L 158.835935 107.73351 
L 158.956846 107.20141 
L 159.077756 119.941879 
L 159.19868 118.526646 
L 159.31959 121.684681 
L 159.561424 161.075763 
L 159.682335 133.817718 
L 159.803246 134.060601 
L 159.924169 116.01096 
L 160.04508 145.608261 
L 160.165991 124.673976 
L 160.286902 133.017352 
L 160.407825 132.041612 
L 160.649647 179.427447 
L 160.77057 186.457149 
L 160.891481 185.075695 
L 161.012392 175.800084 
L 161.133315 127.727614 
L 161.375137 199.119696 
L 161.49606 143.489085 
L 161.616971 154.070164 
L 161.737882 125.330944 
L 161.858805 136.569301 
L 161.979716 113.665223 
L 162.221538 188.402714 
L 162.463372 128.039525 
L 162.705206 162.320391 
L 163.067951 105.722504 
L 163.188862 119.19729 
L 163.430696 78.40772 
L 163.672517 109.825936 
L 163.914351 120.607203 
L 164.035262 114.435982 
L 164.156173 124.474816 
L 164.277096 111.651394 
L 164.398007 117.433654 
L 164.518918 117.194169 
L 164.639841 162.593636 
L 165.002586 132.780813 
L 165.123497 169.785189 
L 165.244408 150.602032 
L 165.365319 155.717451 
L 165.486242 119.169459 
L 165.607153 124.121698 
L 165.969898 165.452008 
L 166.090809 157.898664 
L 166.211732 162.151452 
L 166.332643 158.056154 
L 166.574477 124.735898 
L 166.695388 132.184829 
L 166.93721 124.926711 
L 167.299954 175.065901 
L 167.420878 148.280546 
L 167.541788 150.708504 
L 167.6627 126.158997 
L 167.783622 176.113507 
L 168.025444 131.279109 
L 168.267278 138.095968 
L 168.388189 114.110781 
L 168.509112 138.56822 
L 168.750934 111.691565 
L 168.871845 143.066442 
L 168.992768 141.139092 
L 169.113679 136.291131 
L 169.23459 144.42045 
L 169.355513 101.936062 
L 169.476424 141.795436 
L 169.597335 138.389352 
L 169.718258 165.076339 
L 170.081003 122.420342 
L 170.201914 146.732784 
L 170.322825 112.46324 
L 170.443736 125.612039 
L 170.564659 112.997713 
L 170.68557 129.636379 
L 170.806481 103.492493 
L 170.927412 106.77037 
L 171.169234 128.595548 
L 171.290157 153.393218 
L 171.531979 112.75725 
L 171.652889 132.78452 
L 171.773812 122.317379 
L 171.894723 128.890804 
L 172.015634 126.777599 
L 172.136557 130.928842 
L 172.257468 87.773309 
L 172.378379 116.888271 
L 172.620213 108.924532 
L 172.741124 87.77445 
L 172.862047 111.178545 
L 172.982958 108.39136 
L 173.103869 108.39136 
L 173.22478 123.999561 
L 173.345703 102.726322 
L 173.466614 103.062805 
L 173.587525 112.544251 
L 173.708448 99.271039 
L 173.829359 100.117269 
L 173.95027 53.568 
L 174.192104 113.947225 
L 174.313015 112.241637 
L 174.433938 126.119367 
L 174.67576 110.827509 
L 174.917594 135.87691 
L 175.159416 96.94537 
L 175.280339 125.769865 
L 175.522161 111.988585 
L 175.763995 129.916668 
L 175.884905 107.610585 
L 176.005816 110.486825 
L 176.126739 103.665026 
L 176.24765 105.43726 
L 176.368561 88.112429 
L 176.610395 159.503727 
L 176.731306 127.967821 
L 176.97314 133.522939 
L 177.094051 100.473183 
L 177.214962 110.247944 
L 177.335885 109.0318 
L 177.456796 108.999727 
L 177.577707 107.330713 
L 177.819541 97.206385 
L 178.061375 130.832731 
L 178.303197 118.167515 
L 178.42412 154.053366 
L 178.665942 118.041296 
L 178.907776 165.941917 
L 179.028687 160.223837 
L 179.149598 178.853763 
L 179.270521 169.069923 
L 179.391432 148.285149 
L 179.512343 157.404757 
L 179.633266 148.321007 
L 179.875087 156.401351 
L 180.116921 123.713417 
L 180.237832 156.682753 
L 180.479666 139.938562 
L 180.600577 163.578336 
L 180.842399 139.143761 
L 180.963322 131.896074 
L 181.084233 136.506721 
L 181.205144 114.58981 
L 181.446978 173.025566 
L 181.688812 131.380388 
L 181.809723 126.557647 
L 181.930634 161.789023 
L 182.051557 136.977799 
L 182.172468 153.833234 
L 182.656124 124.647543 
L 182.777035 110.911717 
L 182.897957 112.564512 
L 183.018868 108.144026 
L 183.139779 121.470026 
L 183.381613 169.766082 
L 183.502524 171.194668 
L 183.744358 117.292983 
L 183.865269 170.976004 
L 184.107103 136.801625 
L 184.348925 119.023946 
L 184.469848 141.627244 
L 184.71167 121.374758 
L 185.074415 183.970351 
L 185.195326 157.341743 
L 185.316249 158.122318 
L 185.558071 180.87077 
L 185.678994 162.802747 
L 185.799905 184.677576 
L 185.920816 183.770703 
L 186.041727 187.345095 
L 186.28356 148.213556 
L 186.404471 136.204532 
L 186.525394 135.472485 
L 186.646305 137.136995 
L 187.00905 126.442504 
L 187.250872 142.825979 
L 187.613617 112.980543 
L 187.976362 166.574755 
L 188.218196 136.778405 
L 188.460018 151.474253 
L 188.701852 114.020946 
L 188.822763 120.040335 
L 188.943686 153.56314 
L 189.064597 113.151686 
L 189.185508 134.969357 
L 189.427342 103.563523 
L 189.548253 127.858293 
L 189.669164 113.367004 
L 189.910998 148.32798 
L 190.031909 122.755219 
L 190.152832 150.343819 
L 190.273742 133.620162 
L 190.394653 101.011606 
L 190.515564 125.142548 
L 190.757398 100.772044 
L 190.878309 104.53096 
L 191.120143 97.455523 
L 191.241054 119.441651 
L 191.361965 115.198142 
L 191.603799 146.413687 
L 191.72471 116.359138 
L 191.845633 142.731948 
L 191.966544 114.479643 
L 192.087455 137.14369 
L 192.208378 126.528224 
L 192.329289 153.211076 
L 192.4502 150.175708 
L 192.571111 156.719656 
L 192.692034 152.441097 
L 192.812945 125.95518 
L 192.933856 126.155521 
L 193.054779 128.301574 
L 193.17569 99.271955 
L 193.296601 132.998714 
L 193.538435 97.287087 
L 193.780257 139.444008 
L 193.90118 142.236833 
L 194.022091 116.901613 
L 194.263925 152.375049 
L 194.384835 156.36399 
L 194.505746 170.2754 
L 194.74758 164.552963 
L 194.989402 147.875846 
L 195.352147 168.813061 
L 195.47307 168.989397 
L 195.714892 142.362226 
L 195.835803 148.849714 
L 196.077637 195.689325 
L 196.198548 198.380618 
L 196.440382 149.025371 
L 196.561293 176.173887 
L 196.682204 172.875519 
L 196.803127 159.336508 
L 196.924038 163.8467 
L 197.044949 174.887176 
L 197.165872 175.670214 
L 197.286783 179.341773 
L 197.407694 189.356507 
L 197.528605 187.841409 
L 197.649528 191.869892 
L 197.770439 190.737454 
L 197.89135 185.249335 
L 198.012273 141.681349 
L 198.375018 174.193469 
L 198.495928 171.604491 
L 198.616839 166.282405 
L 198.73775 137.275173 
L 198.858673 135.005599 
L 198.979584 146.767097 
L 199.100495 146.591477 
L 199.221418 163.26923 
L 199.342329 146.908241 
L 199.584151 182.224053 
L 199.705074 173.58614 
L 199.825985 151.535122 
L 199.946896 170.209599 
L 200.067819 129.609808 
L 200.309641 173.907798 
L 200.430552 150.454037 
L 200.551475 155.309952 
L 200.672386 190.11601 
L 200.91422 160.870067 
L 201.035131 162.119388 
L 201.156042 172.971269 
L 201.276965 156.433495 
L 201.397876 169.140494 
L 201.518787 143.47209 
L 201.639698 155.349238 
L 201.760621 154.261796 
L 201.881532 179.752908 
L 202.002443 158.365495 
L 202.123366 158.365495 
L 202.244277 150.788932 
L 202.365188 131.5623 
L 202.486098 157.598005 
L 202.607021 137.337752 
L 202.727932 149.049141 
L 202.848843 134.353955 
L 203.090677 174.61771 
L 203.332499 141.558719 
L 203.453422 175.95913 
L 203.574333 138.192886 
L 203.816167 186.730393 
L 204.057989 154.079367 
L 204.178912 175.139386 
L 204.299823 170.822921 
L 204.420734 181.119882 
L 204.541645 170.641873 
L 204.662568 180.063457 
L 204.783479 170.052072 
L 204.90439 174.559738 
L 205.025313 155.015069 
L 205.267135 190.284268 
L 205.388046 170.127742 
L 205.508969 195.492718 
L 205.871714 174.572322 
L 205.992625 143.617854 
L 206.113536 142.660904 
L 206.234459 132.429447 
L 206.35537 151.393201 
L 206.718114 134.739659 
L 206.839025 107.408673 
L 206.959939 109.208927 
L 207.201773 124.895633 
L 207.322684 151.052779 
L 207.443595 119.585292 
L 207.685429 147.637069 
L 207.80634 147.385907 
L 208.048174 180.544717 
L 208.169085 146.617215 
L 208.289996 152.482082 
L 208.410919 138.791424 
L 208.53183 151.747363 
L 208.652741 181.834473 
L 208.773664 170.875207 
L 208.894575 202.372946 
L 209.015486 132.204235 
L 209.136397 166.387977 
L 209.25732 145.775281 
L 209.378231 205.651097 
L 209.499142 179.396844 
L 209.620065 191.442088 
L 209.740976 153.433049 
L 209.861887 192.840423 
L 209.982798 181.585851 
L 210.103721 203.535932 
L 210.224632 187.252127 
L 210.345543 212.839431 
L 210.587376 184.60186 
L 210.708287 184.400704 
L 210.82921 204.802522 
L 211.071032 178.719654 
L 211.191943 179.28929 
L 211.312866 198.559605 
L 211.554688 190.482298 
L 211.675611 201.291922 
L 211.796522 165.759372 
L 211.917433 172.858142 
L 212.038344 188.63486 
L 212.159267 181.424389 
L 212.280178 195.567474 
L 212.522012 184.021541 
L 212.642923 184.201372 
L 212.763834 185.183958 
L 213.005668 152.057557 
L 213.24749 169.356951 
L 213.368413 197.418011 
L 213.489324 167.464239 
L 213.610235 169.181231 
L 213.731146 178.607123 
L 213.852069 174.507505 
L 213.97298 162.558638 
L 214.093891 182.22237 
L 214.214814 176.671346 
L 214.335725 178.335831 
L 214.577546 153.365372 
L 214.698469 143.968274 
L 214.940291 174.733299 
L 215.182125 208.361885 
L 215.303036 182.511533 
L 215.423947 190.764545 
L 215.54487 188.798714 
L 215.665781 174.215331 
L 215.786692 177.464997 
L 215.907603 185.288681 
L 216.028526 183.198421 
L 216.270348 150.94605 
L 216.391271 154.502296 
L 216.512182 154.502296 
L 216.633093 188.947527 
L 216.754004 186.862171 
L 216.874927 187.865837 
L 216.995838 176.430064 
L 217.116749 182.054357 
L 217.237672 166.015261 
L 217.479494 196.76759 
L 217.600405 149.539872 
L 217.842239 198.33203 
L 218.204984 163.019532 
L 218.446806 132.580059 
L 218.567729 132.245729 
L 218.80955 163.718593 
L 218.930473 167.526655 
L 219.05138 186.531182 
L 219.172291 161.233297 
L 219.293202 180.409806 
L 219.414125 155.283327 
L 219.655947 187.151965 
L 219.776858 198.740353 
L 219.897781 179.65487 
L 220.018692 196.123058 
L 220.139603 173.816115 
L 220.381437 204.787275 
L 220.865092 163.768827 
L 220.986003 172.579788 
L 221.106926 163.397379 
L 221.227837 172.476112 
L 221.348748 161.749965 
L 221.469659 161.311342 
L 221.590582 167.665941 
L 221.832404 134.973899 
L 221.953327 149.893069 
L 222.074238 139.443773 
L 222.31606 174.008398 
L 222.436983 172.122019 
L 222.557894 149.565561 
L 222.678805 159.687773 
L 222.799716 158.250897 
L 222.920639 160.092336 
L 223.04155 164.360295 
L 223.283384 157.679892 
L 223.404295 135.704859 
L 223.525206 156.190651 
L 223.646117 146.509801 
L 223.76704 166.926204 
L 223.887951 165.839821 
L 224.008862 162.309556 
L 224.129785 191.856041 
L 224.250696 162.649442 
L 224.371607 175.941115 
L 224.492517 176.378957 
L 224.613441 157.497751 
L 224.855262 168.299726 
L 224.976173 162.64982 
L 225.097096 173.28136 
L 225.338918 164.511847 
L 225.459841 201.184758 
L 225.822574 144.548712 
L 225.943497 140.729694 
L 226.185319 172.000654 
L 226.306242 148.539493 
L 226.427153 165.19623 
L 226.548064 157.620187 
L 226.668975 129.125688 
L 226.910809 162.912805 
L 227.03172 161.365903 
L 227.273554 132.031696 
L 227.515376 194.046733 
L 227.636299 171.437407 
L 227.75721 174.905247 
L 227.878121 174.616095 
L 227.999032 168.362215 
L 228.119955 204.11023 
L 228.240866 172.882754 
L 228.361777 197.488096 
L 228.603611 117.606954 
L 228.845433 156.339582 
L 229.208177 196.583032 
L 229.329088 187.94984 
L 229.450011 166.199632 
L 229.570922 197.673209 
L 229.691833 180.790184 
L 229.812744 193.745309 
L 229.933667 157.548183 
L 230.175489 195.276811 
L 230.296412 184.909668 
L 230.417323 160.051755 
L 230.659145 210.617211 
L 230.780068 191.653262 
L 230.900979 191.653262 
L 231.02189 184.785032 
L 231.142812 192.588528 
L 231.263723 162.586747 
L 231.384634 199.513382 
L 231.505545 167.626879 
L 231.626468 203.235651 
L 231.747379 186.913529 
L 231.86829 185.939573 
L 231.989201 197.185985 
L 232.110124 185.43808 
L 232.351946 215.272143 
L 232.59378 188.192929 
L 232.71469 211.180311 
L 232.835601 212.796602 
L 232.956524 184.486337 
L 233.077435 190.484977 
L 233.198346 165.281371 
L 233.319257 215.383799 
L 233.44018 215.912372 
L 233.682002 168.544792 
L 233.802925 192.323872 
L 233.923836 169.191974 
L 234.044747 197.992745 
L 234.165658 190.957706 
L 234.407492 205.301198 
L 234.528403 198.232107 
L 234.649314 207.318695 
L 234.770237 163.226078 
L 234.891148 177.596876 
L 235.012059 158.528283 
L 235.253893 212.500008 
L 235.495715 176.976729 
L 235.737549 181.441214 
L 235.85846 190.612542 
L 235.979371 158.684884 
L 236.100294 192.617807 
L 236.221205 176.50992 
L 236.342116 193.858738 
L 236.463027 156.747416 
L 236.58395 173.104004 
L 236.70486 169.738614 
L 236.825771 176.155563 
L 236.946694 154.90541 
L 237.067605 181.985357 
L 237.188516 169.093554 
L 237.309427 185.102913 
L 237.43035 169.990912 
L 237.551261 209.489324 
L 237.914006 164.199206 
L 238.034917 190.202366 
L 238.276751 184.217731 
L 238.397662 184.340495 
L 238.518573 179.661327 
L 238.639484 145.945319 
L 238.881318 184.402027 
L 239.12314 144.699388 
L 239.244063 179.622833 
L 239.364974 172.817147 
L 239.485885 174.583595 
L 239.606796 145.531729 
L 239.969541 198.549986 
L 240.211375 202.097618 
L 240.332286 201.536116 
L 240.57412 155.588617 
L 240.815941 204.068916 
L 240.936852 194.151445 
L 241.057775 207.91005 
L 241.178686 187.053758 
L 241.42052 204.957511 
L 241.662342 174.603925 
L 241.783253 184.75747 
L 241.904176 179.259635 
L 242.025087 191.826961 
L 242.387832 167.052603 
L 242.508743 174.451066 
L 242.750565 215.910536 
L 242.871488 202.913902 
L 242.992399 206.569038 
L 243.113311 175.702171 
L 243.355145 221.388395 
L 243.476056 217.427424 
L 243.596967 254.484905 
L 243.959712 194.502498 
L 244.080623 200.201445 
L 244.322457 221.615394 
L 244.443368 204.528454 
L 244.685202 229.870095 
L 244.806112 217.519784 
L 244.927023 185.575813 
L 245.168857 202.298253 
L 245.289768 188.152271 
L 245.410679 188.152271 
L 245.531602 219.689848 
L 245.652513 203.919941 
L 245.773424 208.005004 
L 245.894335 183.963253 
L 246.015258 206.421077 
L 246.136169 184.715845 
L 246.25708 212.663424 
L 246.498914 181.572306 
L 246.619825 179.394598 
L 246.740736 213.31686 
L 246.861659 139.197443 
L 246.98257 192.368361 
L 247.103481 167.109814 
L 247.224392 186.73673 
L 247.345315 177.888124 
L 247.708048 235.744638 
L 247.828971 196.182185 
L 247.949882 220.097861 
L 248.191704 180.600672 
L 248.312627 192.036629 
L 248.433537 157.446257 
L 248.67536 217.371138 
L 248.796282 202.314148 
L 248.917193 208.102119 
L 249.038104 207.206419 
L 249.159027 240.88125 
L 249.279938 228.460847 
L 249.400849 195.598111 
L 249.763594 248.437296 
L 249.884505 211.369541 
L 250.005416 233.811907 
L 250.126339 199.523243 
L 250.24725 220.096744 
L 250.489072 209.401399 
L 250.609995 224.446578 
L 250.730906 202.860658 
L 250.851817 207.379002 
L 250.972728 200.083073 
L 251.093651 201.403944 
L 251.214562 240.444992 
L 251.335473 215.569841 
L 251.456396 222.151663 
L 251.577307 237.500324 
L 251.940052 221.825029 
L 252.060963 198.46755 
L 252.181874 226.233642 
L 252.423707 195.001147 
L 252.665529 183.246312 
L 252.78644 207.247232 
L 252.907363 190.391797 
L 253.028274 199.02718 
L 253.149185 224.941253 
L 253.51193 161.553694 
L 253.632841 192.246009 
L 253.753764 172.593491 
L 253.874675 182.904572 
L 253.995586 170.833175 
L 254.116497 202.966212 
L 254.479242 155.270893 
L 254.600153 201.625333 
L 254.841987 163.997855 
L 254.962898 140.978355 
L 255.204724 204.572394 
L 255.325635 181.213883 
L 255.567457 195.247253 
L 255.930202 128.681982 
L 256.051113 190.399775 
L 256.172036 181.615368 
L 256.292947 201.49916 
L 256.413858 201.071942 
L 256.534769 181.076837 
L 256.776603 193.868414 
L 256.897514 192.220438 
L 257.018437 173.651316 
L 257.260259 229.747085 
L 257.502093 217.745567 
L 257.623004 215.541609 
L 257.743915 235.219428 
L 257.864826 227.456861 
L 257.985749 229.178307 
L 258.10666 249.83413 
L 258.469405 186.366632 
L 258.590315 191.500584 
L 258.711226 176.745869 
L 258.832137 191.257366 
L 258.95306 221.229254 
L 259.073971 196.51952 
L 259.315793 241.089083 
L 259.436716 195.119943 
L 259.557627 200.345864 
L 259.678538 200.345864 
L 259.799449 185.484158 
L 259.920372 187.811232 
L 260.041283 195.971278 
L 260.162194 221.734018 
L 260.283105 206.159371 
L 260.404028 215.685171 
L 260.524939 196.914832 
L 260.64585 224.929706 
L 260.766773 223.315855 
L 260.887684 209.488444 
L 261.008595 171.322749 
L 261.129506 191.364538 
L 261.250429 187.000229 
L 261.37134 200.163642 
L 261.492251 178.530501 
L 261.613162 205.151004 
L 261.734085 161.466167 
L 261.854996 174.071741 
L 261.975907 201.306997 
L 262.096818 181.725366 
L 262.217741 200.55419 
L 262.338652 198.313431 
L 262.459562 185.497077 
L 262.701396 211.907643 
L 262.822307 198.541066 
L 262.943218 198.988933 
L 263.185052 171.287234 
L 263.426874 175.040071 
L 263.547785 190.143824 
L 263.91053 172.954516 
L 264.031441 176.810226 
L 264.152364 170.320707 
L 264.273275 204.622712 
L 264.394186 180.146626 
L 264.515097 213.287317 
L 264.756931 171.243905 
L 264.998753 208.502596 
L 265.119676 165.868262 
L 265.240587 163.220644 
L 265.361498 154.069193 
L 265.482409 191.824861 
L 265.603332 177.056297 
L 265.966077 223.069391 
L 266.086988 200.77682 
L 266.207899 221.248848 
L 266.449732 178.892866 
L 266.570643 185.483342 
L 266.691554 157.139152 
L 267.054299 181.266418 
L 267.175221 228.996832 
L 267.296132 181.213469 
L 267.537966 212.137565 
L 267.658877 173.790081 
L 267.779788 188.037204 
L 267.900711 169.375446 
L 268.142533 177.014753 
L 268.384367 217.173953 
L 268.505278 219.602644 
L 268.626189 173.363026 
L 268.868023 223.750826 
L 268.988934 210.450015 
L 269.109845 167.455458 
L 269.230756 176.772426 
L 269.351679 167.453355 
L 269.47259 178.065812 
L 269.593501 143.780631 
L 269.714412 149.560539 
L 269.956246 178.798177 
L 270.077157 161.333892 
L 270.318991 189.975463 
L 270.439902 152.065674 
L 270.681723 176.453939 
L 270.802646 187.522656 
L 270.923557 185.61985 
L 271.044468 168.531958 
L 271.165379 182.63759 
L 271.286302 152.401524 
L 271.407213 177.551561 
L 271.649035 145.9691 
L 271.890869 186.458522 
L 272.01178 138.643001 
L 272.132691 160.264064 
L 272.253614 160.983052 
L 272.495436 209.30411 
L 272.979092 159.679972 
L 273.100003 186.589792 
L 273.220926 178.29856 
L 273.341837 195.778705 
L 273.583659 184.372123 
L 273.704582 187.917854 
L 273.825493 196.560261 
L 273.946404 194.144781 
L 274.067315 194.144781 
L 274.188238 202.792904 
L 274.309149 136.595351 
L 274.55097 182.076732 
L 274.671893 194.609039 
L 274.792804 171.331082 
L 274.913715 202.065963 
L 275.27646 142.197018 
L 275.639205 162.136703 
L 275.760116 152.037782 
L 275.881027 168.263885 
L 276.001938 168.746419 
L 276.122861 151.257937 
L 276.364683 183.085452 
L 276.485594 173.488173 
L 276.606517 189.645154 
L 276.727428 182.990404 
L 276.96925 164.413311 
L 277.090173 156.186513 
L 277.211084 199.419577 
L 277.331995 181.483755 
L 277.452906 185.474456 
L 277.69474 152.300207 
L 277.815651 151.448318 
L 278.057485 213.452764 
L 278.299307 178.508285 
L 278.420217 217.574244 
L 278.541128 210.20234 
L 278.662051 225.278402 
L 278.782962 210.064719 
L 278.903873 216.899281 
L 279.266624 184.646747 
L 279.508446 212.225143 
L 279.629369 207.147462 
L 279.75028 157.328396 
L 279.871191 173.662829 
L 279.992102 164.915618 
L 280.113024 169.163494 
L 280.354846 206.909129 
L 280.475757 175.132264 
L 280.59668 185.439096 
L 280.717591 182.1701 
L 280.959413 202.355755 
L 281.080336 204.872433 
L 281.201247 173.590932 
L 281.443069 200.09943 
L 281.563992 208.924523 
L 281.684903 200.139877 
L 281.805814 225.11243 
L 281.926725 223.887918 
L 282.047648 236.863117 
L 282.168559 200.610544 
L 282.28947 227.40441 
L 282.410381 213.150008 
L 282.531304 241.386426 
L 282.652215 180.815621 
L 282.773126 204.151457 
L 282.894037 197.965008 
L 283.01496 214.452814 
L 283.135871 196.485399 
L 283.377693 206.52117 
L 283.498616 212.154711 
L 283.740438 167.675793 
L 283.861349 184.409873 
L 283.982271 164.910206 
L 284.103182 169.582616 
L 284.224094 159.399202 
L 284.345004 188.068869 
L 284.586838 161.954249 
L 284.707749 197.803258 
L 284.82866 192.520575 
L 284.949571 214.702241 
L 285.070494 205.804439 
L 285.312316 214.404223 
L 285.55415 170.986454 
L 285.675061 171.638528 
L 285.795972 168.719943 
L 285.916883 150.38764 
L 286.037806 192.830905 
L 286.158717 163.874681 
L 286.279628 175.290079 
L 286.400539 135.38432 
L 286.642373 184.572563 
L 286.763284 201.428193 
L 286.884195 187.322032 
L 287.005118 196.714019 
L 287.126029 190.010912 
L 287.24694 212.737485 
L 287.367851 177.153464 
L 287.609685 198.235966 
L 287.730596 186.167621 
L 287.851507 189.812262 
L 288.093341 143.146433 
L 288.214251 174.038888 
L 288.335162 174.038888 
L 288.697907 188.522117 
L 288.818818 170.705376 
L 288.939729 191.973507 
L 289.060652 178.528641 
L 289.181563 151.161568 
L 289.302474 174.354949 
L 289.544308 138.34394 
L 289.78613 191.850131 
L 289.907041 148.662774 
L 290.027964 147.782514 
L 290.148875 131.463839 
L 290.269786 176.894707 
L 290.390697 144.502326 
L 290.51162 145.777003 
L 290.632531 128.120056 
L 290.874353 174.113648 
L 291.237089 140.558464 
L 291.599834 177.551523 
L 291.720744 178.396279 
L 291.841656 163.939469 
L 291.962566 195.918328 
L 292.08349 183.073396 
L 292.2044 200.131718 
L 292.446222 171.031337 
L 292.567145 185.556754 
L 292.688056 180.460627 
L 292.808967 187.389334 
L 293.050789 204.929226 
L 293.292623 161.940324 
L 293.413534 185.879014 
L 293.655368 172.25498 
L 293.776279 174.418563 
L 293.89719 179.622236 
L 294.018101 169.260433 
L 294.139024 171.438197 
L 294.259935 183.561338 
L 294.501757 176.095493 
L 294.864502 219.412448 
L 294.985413 226.446005 
L 295.106336 192.405994 
L 295.227247 222.189008 
L 295.348158 178.73095 
L 295.469069 209.247439 
L 295.589992 211.421406 
L 295.710902 211.354223 
L 295.831814 202.168408 
L 295.952724 214.320293 
L 296.073635 206.414204 
L 296.194558 234.566669 
L 296.315469 207.480704 
L 296.557291 214.385958 
L 296.678214 213.757546 
L 296.920036 198.545399 
L 297.040947 206.203268 
L 297.282781 176.437872 
L 297.403692 177.045189 
L 297.524603 206.604378 
L 297.645526 181.859558 
L 298.12917 218.28947 
L 298.371004 199.548896 
L 298.491915 205.530984 
L 298.612826 166.528082 
L 298.733749 178.589759 
L 298.85466 207.825197 
L 298.975571 200.850429 
L 299.217405 241.501305 
L 299.459227 203.764338 
L 299.580137 204.236054 
L 299.821971 234.437072 
L 300.184704 175.26505 
L 300.66836 264.505899 
L 300.789283 260.386008 
L 301.031105 202.705799 
L 301.152016 215.642366 
L 301.272927 200.154532 
L 301.39385 219.865565 
L 301.514761 218.079368 
L 301.635672 221.773808 
L 301.756583 244.496612 
L 301.877506 243.484172 
L 302.119328 183.21138 
L 302.240239 201.012086 
L 302.361162 181.276922 
L 302.602984 212.44879 
L 302.723895 212.44879 
L 302.965729 173.796095 
L 303.08664 207.600827 
L 303.20755 201.420771 
L 303.328454 208.775825 
L 303.449377 202.725198 
L 303.570288 190.649721 
L 303.691199 192.317199 
L 303.81211 216.413754 
L 303.933033 215.680362 
L 304.053944 205.59512 
L 304.174855 217.831568 
L 304.295766 201.080939 
L 304.416677 223.422983 
L 304.658511 204.761548 
L 304.779422 221.668237 
L 304.900333 221.178308 
L 305.142167 235.620047 
L 305.263078 204.636601 
L 305.504912 265.576496 
L 305.625823 256.244431 
L 305.746734 259.507999 
L 305.988556 187.134307 
L 306.109479 216.29326 
L 306.23039 200.497891 
L 306.351301 202.024209 
L 306.472212 180.882888 
L 306.593135 231.025029 
L 306.714046 231.276296 
L 306.955868 224.770523 
L 307.076791 226.848639 
L 307.197702 192.789988 
L 307.318612 207.741599 
L 307.439523 241.930708 
L 307.802268 199.720744 
L 307.923179 207.938642 
L 308.04409 242.833129 
L 308.285924 212.293263 
L 308.406835 240.059835 
L 308.648669 216.240076 
L 308.76958 219.476462 
L 308.890491 230.840932 
L 309.011402 214.716943 
L 309.253236 241.631315 
L 309.374147 178.140497 
L 309.495058 226.34778 
L 309.736892 196.576025 
L 309.857803 235.062798 
L 309.978714 207.991119 
L 310.099625 247.437072 
L 310.341459 210.980429 
L 310.46237 211.054194 
L 310.583281 201.976145 
L 310.825115 250.73862 
L 311.066936 212.726293 
L 311.187847 226.253977 
L 311.308758 219.001741 
L 311.429681 261.075664 
L 311.550592 221.597486 
L 311.792414 238.536788 
L 311.913337 200.732163 
L 312.155159 228.070617 
L 312.396993 237.602712 
L 312.517904 229.645173 
L 312.759726 276.642673 
L 312.880637 272.033577 
L 313.00156 258.848331 
L 313.243382 227.15876 
L 313.364293 267.591801 
L 313.606127 241.389066 
L 313.727038 241.113138 
L 313.847949 216.868016 
L 314.089783 253.875825 
L 314.210694 249.200868 
L 314.69435 295.488 
L 314.936171 263.986422 
L 315.057082 260.643235 
L 315.298923 244.888976 
L 315.540745 210.269708 
L 315.90349 224.851988 
L 316.024401 227.394901 
L 316.145312 244.011648 
L 316.266235 228.730452 
L 316.387146 252.934762 
L 316.628968 231.370156 
L 316.749891 244.271294 
L 316.870802 245.064865 
L 316.991713 255.337972 
L 317.112624 255.337972 
L 317.233535 227.650139 
L 317.354458 225.548759 
L 317.475369 220.13455 
L 317.59628 225.34922 
L 317.717191 204.415686 
L 317.838114 155.962615 
L 318.200847 213.544169 
L 318.321758 226.41739 
L 318.442681 192.266356 
L 318.684502 225.10737 
L 318.926336 219.881608 
L 319.047248 230.918297 
L 319.168158 229.45742 
L 319.40998 268.824719 
L 319.893636 223.996108 
L 320.014559 246.691812 
L 320.13547 241.00081 
L 320.377292 209.357154 
L 320.498203 202.379799 
L 320.619126 206.419378 
L 320.740037 204.592147 
L 320.860948 190.399309 
L 321.223693 221.174617 
L 321.344604 213.541143 
L 321.586426 180.435176 
L 321.707349 212.971527 
L 321.82826 214.834457 
L 321.949171 193.087234 
L 322.070082 192.157208 
L 322.191005 228.649852 
L 322.311916 224.863437 
L 322.432827 228.16886 
L 322.795572 197.087151 
L 322.916482 203.651663 
L 323.037393 192.49568 
L 323.158304 213.150687 
L 323.279215 207.420117 
L 323.400138 209.69036 
L 323.521049 194.943612 
L 323.64196 227.457752 
L 323.762871 203.935218 
L 323.883794 232.573095 
L 324.125616 207.626809 
L 324.246527 223.792013 
L 324.367438 201.495973 
L 324.488361 205.405912 
L 324.609272 243.639459 
L 324.730183 219.057768 
L 324.851094 232.297694 
L 325.213839 174.195096 
L 325.33475 210.937484 
L 325.455661 204.296695 
L 325.576584 225.29751 
L 325.697495 224.662157 
L 325.818406 213.901269 
L 325.939317 226.521957 
L 326.060228 195.384536 
L 326.181151 198.47639 
L 326.302062 207.564789 
L 326.422973 198.389536 
L 326.543884 246.643488 
L 326.664807 232.510278 
L 326.785717 234.956714 
L 326.906628 233.770936 
L 327.027539 259.041428 
L 327.14845 229.320361 
L 327.269373 237.197721 
L 327.511194 218.738106 
L 327.632105 214.39053 
L 327.99485 259.345052 
L 328.236672 230.226456 
L 328.357595 232.920289 
L 328.478505 254.278562 
L 328.720327 224.50917 
L 328.841238 236.834089 
L 328.962161 236.432086 
L 329.083072 234.726556 
L 329.203983 238.469971 
L 329.324894 234.295279 
L 329.445805 213.753832 
L 329.687639 248.938242 
L 329.80855 259.093921 
L 329.929461 228.506681 
L 330.050384 249.945364 
L 330.292206 213.222486 
L 330.413117 224.430436 
L 330.534028 186.742486 
L 330.654951 215.632002 
L 330.896773 194.627625 
L 331.138595 221.531503 
L 331.50134 215.334748 
L 331.622251 234.917179 
L 331.743174 233.354619 
L 331.984996 236.373928 
L 332.105907 240.848908 
L 332.468651 178.170496 
L 332.589562 237.08226 
L 332.710473 233.791411 
L 333.073218 203.681576 
L 333.31504 224.986897 
L 333.435963 208.262032 
L 333.556874 211.15905 
L 333.677785 204.143788 
L 333.798696 231.690443 
L 333.919607 204.137307 
L 334.04053 239.042952 
L 334.161441 234.672922 
L 334.282352 236.649602 
L 334.403263 219.788964 
L 334.524174 241.20496 
L 334.645097 230.658848 
L 334.766008 234.316026 
L 334.886919 216.399296 
L 335.00783 226.590647 
L 335.128741 209.754668 
L 335.249664 238.084967 
L 335.370575 224.838814 
L 335.491486 243.210629 
L 335.612397 237.340592 
L 335.975142 182.582947 
L 336.216963 223.963052 
L 336.337886 197.853714 
L 336.458797 227.891514 
L 336.579708 210.133225 
L 336.700619 227.074308 
L 336.82153 228.226481 
L 337.063364 235.367773 
L 337.305186 225.209233 
L 337.54702 264.071413 
L 338.030664 141.2648 
L 338.393409 212.894057 
L 338.51432 194.946907 
L 338.635243 227.060428 
L 338.756154 224.359236 
L 338.877065 191.371619 
L 338.997976 193.235023 
L 339.118887 211.688044 
L 339.23981 203.808119 
L 339.360721 186.335335 
L 339.602534 200.992088 
L 339.723445 191.61309 
L 340.08619 226.753847 
L 340.207101 220.579446 
L 340.328012 193.948028 
L 340.569846 222.124233 
L 340.690757 208.805251 
L 340.932579 256.937037 
L 341.174413 228.703466 
L 341.295324 238.357774 
L 341.416235 204.792623 
L 341.537145 218.13234 
L 341.778979 196.532623 
L 342.020801 221.255808 
L 342.141724 206.765763 
L 342.262635 210.351193 
L 342.383546 219.899854 
L 342.504457 208.165774 
L 342.625368 208.986893 
L 342.746291 200.525749 
L 342.867202 240.03551 
L 343.109024 208.359528 
L 343.229935 207.014154 
L 343.350858 204.094719 
L 343.471769 196.58268 
L 343.59268 199.830312 
L 343.713591 189.946873 
L 343.955425 226.219353 
L 344.076336 177.099968 
L 344.318158 225.00384 
L 344.439069 232.920219 
L 344.680903 183.951728 
L 344.801814 211.528855 
L 344.922725 173.0659 
L 345.043636 172.756304 
L 345.164559 198.993134 
L 345.28547 183.367846 
L 345.40638 202.137917 
L 345.527291 193.008463 
L 345.648202 206.086576 
L 345.769125 206.086576 
L 345.890036 195.637248 
L 346.010947 175.412192 
L 346.131858 208.601616 
L 346.252769 177.26486 
L 346.373692 193.979183 
L 346.615514 238.08486 
L 346.736425 190.625537 
L 346.857336 203.91301 
L 347.09917 253.89593 
L 347.220081 185.781117 
L 347.340992 235.406412 
L 347.582826 195.31552 
L 347.703737 200.923042 
L 347.824648 186.612918 
L 348.06647 200.353153 
L 348.187393 197.574756 
L 348.308304 167.309719 
L 348.429215 167.711542 
L 348.550126 122.619331 
L 348.79196 173.995447 
L 348.912871 194.677649 
L 349.033782 195.731201 
L 349.154692 195.275344 
L 349.275603 180.691445 
L 349.396526 204.302435 
L 349.517437 194.716265 
L 349.638348 164.566656 
L 349.88017 215.544464 
L 350.001093 216.119869 
L 350.122004 222.524927 
L 350.363826 179.947137 
L 350.484737 178.039608 
L 350.60566 187.107688 
L 350.726571 176.898537 
L 350.847482 203.75653 
L 351.089304 145.860234 
L 351.210227 150.404037 
L 351.331138 198.195396 
L 351.452059 178.860151 
L 351.57297 215.435609 
L 351.814804 196.524784 
L 351.935715 219.988834 
L 352.177537 178.021241 
L 352.298448 237.537517 
L 352.540282 197.687671 
L 352.661193 206.741343 
L 352.782103 235.925288 
L 352.903015 188.526431 
L 353.023937 244.243632 
L 353.265759 196.884997 
L 353.38667 195.704982 
L 353.507581 201.757916 
L 353.749415 165.107722 
L 353.991237 195.749077 
L 354.112148 201.987209 
L 354.233071 198.686613 
L 354.353982 189.64022 
L 354.474893 203.96839 
L 354.716715 178.446281 
L 354.837638 183.025015 
L 354.958549 209.162642 
L 355.07946 194.401173 
L 355.200371 193.909854 
L 355.321282 192.103902 
L 355.442205 181.844335 
L 355.563116 210.052831 
L 355.684027 202.336185 
L 355.804938 183.980481 
L 355.925849 202.895559 
L 356.046772 190.468084 
L 356.409505 236.20327 
L 356.530416 173.493339 
L 356.651338 213.017631 
L 356.77225 213.136552 
L 357.014071 229.026064 
L 357.376816 142.5595 
L 357.497727 159.17498 
L 357.618638 197.647119 
L 358.102294 165.879757 
L 358.223205 199.095703 
L 358.344116 175.773642 
L 358.465027 196.60706 
L 358.58595 191.577224 
L 358.948683 218.95188 
L 359.069594 183.161242 
L 359.190517 214.750909 
L 359.311428 167.957689 
L 359.432339 183.81835 
L 359.55325 216.435827 
L 359.795084 192.158167 
L 359.915995 206.835824 
L 360.036906 206.835824 
L 360.157817 219.579139 
L 360.278727 206.177362 
L 360.399651 207.822817 
L 360.520562 233.137933 
L 360.641472 210.025377 
L 360.762383 222.735873 
L 360.883294 204.36325 
L 361.004217 237.27946 
L 361.125128 217.175589 
L 361.246039 222.50095 
L 361.36695 184.137193 
L 361.487861 218.579358 
L 361.608784 208.850683 
L 361.729695 212.934341 
L 361.850606 185.508963 
L 362.213339 212.008615 
L 362.334262 191.456502 
L 362.455173 214.682544 
L 362.576084 182.070578 
L 362.696995 193.157955 
L 362.938829 176.661674 
L 363.05974 165.846655 
L 363.422473 221.68693 
L 363.543399 208.410646 
L 363.66431 220.759997 
L 363.906132 178.937586 
L 364.027043 236.331246 
L 364.147965 214.931706 
L 364.268877 220.83708 
L 364.389787 196.794308 
L 364.510698 201.131528 
L 364.75252 230.202772 
L 364.873443 224.064148 
L 364.994354 237.574887 
L 365.115265 223.637216 
L 365.357087 244.080193 
L 365.47801 185.559876 
L 365.598921 189.313538 
L 365.961654 247.098328 
L 366.082577 184.501493 
L 366.203488 227.062201 
L 366.324399 212.80811 
L 366.44531 184.420064 
L 366.566221 191.454755 
L 366.808055 226.125851 
L 366.928966 227.251957 
L 367.291699 203.400136 
L 367.412622 206.25875 
L 367.533533 230.979508 
L 367.775354 207.727488 
L 367.896266 199.586478 
L 368.1381 238.133814 
L 368.25901 211.642538 
L 368.500832 230.260568 
L 368.621755 266.507383 
L 368.742666 233.627836 
L 368.863577 232.542431 
L 368.984488 242.567219 
L 369.105399 216.925454 
L 369.22631 215.927172 
L 369.347233 238.39967 
L 369.468144 236.766674 
L 369.589055 197.865369 
L 369.830877 217.11762 
L 369.9518 188.447233 
L 370.072711 217.260481 
L 370.193622 218.54164 
L 370.314533 200.964636 
L 370.435444 206.101944 
L 370.556355 195.021418 
L 370.677278 209.457848 
L 370.798189 203.246152 
L 370.9191 190.220213 
L 371.040011 219.479997 
L 371.160922 182.592012 
L 371.523667 231.118047 
L 371.765489 203.484018 
L 371.886411 217.08311 
L 372.128233 261.650832 
L 372.249144 214.321246 
L 372.370055 217.535023 
L 372.490966 213.432658 
L 372.611889 215.230226 
L 372.7328 248.022249 
L 372.853711 231.894308 
L 372.974622 245.341959 
L 373.216456 203.98825 
L 373.337367 209.314791 
L 373.579189 198.993642 
L 373.7001 225.124896 
L 373.821011 209.938743 
L 374.183756 247.494542 
L 374.304667 247.494542 
L 374.425578 237.62374 
L 374.546501 238.877845 
L 374.667412 237.254155 
L 374.788323 193.114365 
L 374.909234 205.342044 
L 375.030145 204.885395 
L 375.151056 205.744979 
L 375.39289 231.918048 
L 375.513794 226.771808 
L 375.634705 244.799057 
L 376.118361 177.151928 
L 376.239272 200.910205 
L 376.360183 195.521682 
L 376.481106 195.721976 
L 376.602017 202.743121 
L 376.722928 177.164812 
L 376.96475 197.520832 
L 377.085661 212.628907 
L 377.206584 183.849798 
L 377.327495 198.205084 
L 377.448406 190.807531 
L 377.569317 174.396586 
L 377.690228 174.678863 
L 377.932062 210.352227 
L 378.052973 208.598373 
L 378.173884 198.261497 
L 378.294795 232.440471 
L 378.65754 185.556458 
L 378.778451 203.230058 
L 378.899361 179.563539 
L 379.020273 208.043236 
L 379.141183 171.725605 
L 379.262107 195.012852 
L 379.383017 186.46658 
L 379.624839 200.274064 
L 379.74575 219.853341 
L 379.987584 193.125221 
L 380.229406 197.33578 
L 380.471228 179.415221 
L 380.592151 207.221423 
L 380.713062 179.026072 
L 380.954884 205.460776 
L 381.075795 183.276499 
L 381.196706 236.459689 
L 381.43854 198.422539 
L 381.559451 186.718917 
L 381.680362 203.333805 
L 381.922196 184.936564 
L 382.164018 228.315251 
L 382.284929 218.963106 
L 382.40584 194.088291 
L 382.52675 201.529142 
L 382.768584 226.45772 
L 382.889496 223.581088 
L 383.010406 261.456221 
L 383.373151 207.110221 
L 383.494062 233.451954 
L 383.614973 234.313173 
L 383.735884 253.170219 
L 383.856795 233.379618 
L 383.977718 233.562453 
L 384.098629 225.340528 
L 384.21954 245.070479 
L 384.461362 218.124969 
L 384.582273 222.718882 
L 384.824107 253.179776 
L 384.945018 227.487167 
L 385.065929 230.785896 
L 385.18684 250.463892 
L 385.307763 228.365816 
L 385.428674 234.252993 
L 385.791407 189.223547 
L 385.912318 219.037811 
L 386.033241 212.932271 
L 386.154152 235.320383 
L 386.516885 192.158009 
L 386.637795 212.140152 
L 386.758718 205.520806 
L 386.879629 251.224305 
L 387.00054 235.88159 
L 387.121451 262.004162 
L 387.242362 226.718132 
L 387.363285 248.639341 
L 387.605106 188.627922 
L 387.726017 177.032493 
L 387.846928 214.185175 
L 387.967839 202.081618 
L 388.088762 225.732324 
L 388.209673 188.887153 
L 388.330583 207.177438 
L 388.451494 197.078796 
L 388.572405 197.078796 
L 388.693316 211.416545 
L 388.814239 193.355209 
L 388.93515 231.14435 
L 389.056061 189.50528 
L 389.418794 227.171991 
L 389.660628 194.024768 
L 389.781539 201.483384 
L 389.90245 215.991048 
L 390.023361 211.495407 
L 390.265195 172.057222 
L 390.386106 177.311215 
L 390.627928 235.684123 
L 390.748839 200.666937 
L 390.86975 240.148069 
L 390.990673 224.770689 
L 391.111584 258.344166 
L 391.353406 231.631376 
L 391.474317 245.449619 
L 391.59524 233.004163 
L 391.716151 236.616315 
L 392.078883 217.165765 
L 392.199794 240.760866 
L 392.320717 217.219188 
L 392.441628 220.92109 
L 392.562539 186.181414 
L 392.925272 229.686676 
L 393.167106 242.29537 
L 393.288017 207.319984 
L 393.408928 208.663153 
L 393.771673 235.044666 
L 393.892584 219.385222 
L 394.134406 247.871345 
L 394.255317 233.331383 
L 394.376228 195.584867 
L 394.497151 195.644693 
L 394.618062 218.710736 
L 394.738973 193.191151 
L 394.859884 221.225025 
L 394.980795 205.034167 
L 395.101706 213.128447 
L 395.34354 250.567042 
L 395.464451 235.628827 
L 395.706272 233.065972 
L 395.827183 216.483753 
L 395.948106 229.539967 
L 396.189928 219.492975 
L 396.43175 238.352884 
L 396.552661 236.89262 
L 396.673584 204.085221 
L 396.794495 212.994354 
L 396.915406 202.755886 
L 397.036317 207.787938 
L 397.157228 185.337122 
L 397.278139 192.844228 
L 397.399062 238.372085 
L 397.640884 191.233687 
L 397.761795 233.175122 
L 397.882706 179.235236 
L 398.003617 222.277076 
L 398.245451 182.432621 
L 398.366362 208.394751 
L 398.487273 201.856282 
L 398.487273 201.856282 
" clip-path="url(#p9cdf00e621)" style="fill: none; stroke: #1f77b4; stroke-width: 1.5; stroke-linecap: square"/>
   </g>
   <g id="patch_3">
    <path d="M 57.6 307.584 
L 57.6 41.472 
" style="fill: none; stroke: #000000; stroke-width: 0.8; stroke-linejoin: miter; stroke-linecap: square"/>
   </g>
   <g id="patch_4">
    <path d="M 414.72 307.584 
L 414.72 41.472 
" style="fill: none; stroke: #000000; stroke-width: 0.8; stroke-linejoin: miter; stroke-linecap: square"/>
   </g>
   <g id="patch_5">
    <path d="M 57.6 307.584 
L 414.72 307.584 
" style="fill: none; stroke: #000000; stroke-width: 0.8; stroke-linejoin: miter; stroke-linecap: square"/>
   </g>
   <g id="patch_6">
    <path d="M 57.6 41.472 
L 414.72 41.472 
" style="fill: none; stroke: #000000; stroke-width: 0.8; stroke-linejoin: miter; stroke-linecap: square"/>
   </g>
   <g id="text_16">
    <!-- Vemund-Tyholt_flymodus-vinkel -->
    <g transform="translate(141.955312 35.472) scale(0.12 -0.12)">
     <defs>
      <path id="DejaVuSans-56" d="M 1831 0 
L 50 4666 
L 709 4666 
L 2188 738 
L 3669 4666 
L 4325 4666 
L 2547 0 
L 1831 0 
z
" transform="scale(0.015625)"/>
      <path id="DejaVuSans-75" d="M 544 1381 
L 544 3500 
L 1119 3500 
L 1119 1403 
Q 1119 906 1312 657 
Q 1506 409 1894 409 
Q 2359 409 2629 706 
Q 2900 1003 2900 1516 
L 2900 3500 
L 3475 3500 
L 3475 0 
L 2900 0 
L 2900 538 
Q 2691 219 2414 64 
Q 2138 -91 1772 -91 
Q 1169 -91 856 284 
Q 544 659 544 1381 
z
M 1991 3584 
L 1991 3584 
z
" transform="scale(0.015625)"/>
      <path id="DejaVuSans-6e" d="M 3513 2113 
L 3513 0 
L 2938 0 
L 2938 2094 
Q 2938 2591 2744 2837 
Q 2550 3084 2163 3084 
Q 1697 3084 1428 2787 
Q 1159 2491 1159 1978 
L 1159 0 
L 581 0 
L 581 3500 
L 1159 3500 
L 1159 2956 
Q 1366 3272 1645 3428 
Q 1925 3584 2291 3584 
Q 2894 3584 3203 3211 
Q 3513 2838 3513 2113 
z
" transform="scale(0.015625)"/>
      <path id="DejaVuSans-2d" d="M 313 2009 
L 1997 2009 
L 1997 1497 
L 313 1497 
L 313 2009 
z
" transform="scale(0.015625)"/>
      <path id="DejaVuSans-54" d="M -19 4666 
L 3928 4666 
L 3928 4134 
L 2272 4134 
L 2272 0 
L 1638 0 
L 1638 4134 
L -19 4134 
L -19 4666 
z
" transform="scale(0.015625)"/>
      <path id="DejaVuSans-79" d="M 2059 -325 
Q 1816 -950 1584 -1140 
Q 1353 -1331 966 -1331 
L 506 -1331 
L 506 -850 
L 844 -850 
Q 1081 -850 1212 -737 
Q 1344 -625 1503 -206 
L 1606 56 
L 191 3500 
L 800 3500 
L 1894 763 
L 2988 3500 
L 3597 3500 
L 2059 -325 
z
" transform="scale(0.015625)"/>
      <path id="DejaVuSans-68" d="M 3513 2113 
L 3513 0 
L 2938 0 
L 2938 2094 
Q 2938 2591 2744 2837 
Q 2550 3084 2163 3084 
Q 1697 3084 1428 2787 
Q 1159 2491 1159 1978 
L 1159 0 
L 581 0 
L 581 4863 
L 1159 4863 
L 1159 2956 
Q 1366 3272 1645 3428 
Q 1925 3584 2291 3584 
Q 2894 3584 3203 3211 
Q 3513 2838 3513 2113 
z
" transform="scale(0.015625)"/>
      <path id="DejaVuSans-6f" d="M 1959 3097 
Q 1497 3097 1228 2736 
Q 959 2375 959 1747 
Q 959 1119 1226 758 
Q 1494 397 1959 397 
Q 2419 397 2687 759 
Q 2956 1122 2956 1747 
Q 2956 2369 2687 2733 
Q 2419 3097 1959 3097 
z
M 1959 3584 
Q 2709 3584 3137 3096 
Q 3566 2609 3566 1747 
Q 3566 888 3137 398 
Q 2709 -91 1959 -91 
Q 1206 -91 779 398 
Q 353 888 353 1747 
Q 353 2609 779 3096 
Q 1206 3584 1959 3584 
z
" transform="scale(0.015625)"/>
      <path id="DejaVuSans-6c" d="M 603 4863 
L 1178 4863 
L 1178 0 
L 603 0 
L 603 4863 
z
" transform="scale(0.015625)"/>
      <path id="DejaVuSans-5f" d="M 3263 -1063 
L 3263 -1509 
L -63 -1509 
L -63 -1063 
L 3263 -1063 
z
" transform="scale(0.015625)"/>
      <path id="DejaVuSans-66" d="M 2375 4863 
L 2375 4384 
L 1825 4384 
Q 1516 4384 1395 4259 
Q 1275 4134 1275 3809 
L 1275 3500 
L 2222 3500 
L 2222 3053 
L 1275 3053 
L 1275 0 
L 697 0 
L 697 3053 
L 147 3053 
L 147 3500 
L 697 3500 
L 697 3744 
Q 697 4328 969 4595 
Q 1241 4863 1831 4863 
L 2375 4863 
z
" transform="scale(0.015625)"/>
      <path id="DejaVuSans-76" d="M 191 3500 
L 800 3500 
L 1894 563 
L 2988 3500 
L 3597 3500 
L 2284 0 
L 1503 0 
L 191 3500 
z
" transform="scale(0.015625)"/>
      <path id="DejaVuSans-6b" d="M 581 4863 
L 1159 4863 
L 1159 1991 
L 2875 3500 
L 3609 3500 
L 1753 1863 
L 3688 0 
L 2938 0 
L 1159 1709 
L 1159 0 
L 581 0 
L 581 4863 
z
" transform="scale(0.015625)"/>
     </defs>
     <use xlink:href="#DejaVuSans-56"/>
     <use xlink:href="#DejaVuSans-65" x="60.658203"/>
     <use xlink:href="#DejaVuSans-6d" x="122.181641"/>
     <use xlink:href="#DejaVuSans-75" x="219.59375"/>
     <use xlink:href="#DejaVuSans-6e" x="282.972656"/>
     <use xlink:href="#DejaVuSans-64" x="346.351562"/>
     <use xlink:href="#DejaVuSans-2d" x="409.828125"/>
     <use xlink:href="#DejaVuSans-54" x="436.787109"/>
     <use xlink:href="#DejaVuSans-79" x="482.246094"/>
     <use xlink:href="#DejaVuSans-68" x="541.425781"/>
     <use xlink:href="#DejaVuSans-6f" x="604.804688"/>
     <use xlink:href="#DejaVuSans-6c" x="665.986328"/>
     <use xlink:href="#DejaVuSans-74" x="693.769531"/>
     <use xlink:href="#DejaVuSans-5f" x="732.978516"/>
     <use xlink:href="#DejaVuSans-66" x="782.978516"/>
     <use xlink:href="#DejaVuSans-6c" x="818.183594"/>
     <use xlink:href="#DejaVuSans-79" x="845.966797"/>
     <use xlink:href="#DejaVuSans-6d" x="905.146484"/>
     <use xlink:href="#DejaVuSans-6f" x="1002.558594"/>
     <use xlink:href="#DejaVuSans-64" x="1063.740234"/>
     <use xlink:href="#DejaVuSans-75" x="1127.216797"/>
     <use xlink:href="#DejaVuSans-73" x="1190.595703"/>
     <use xlink:href="#DejaVuSans-2d" x="1242.695312"/>
     <use xlink:href="#DejaVuSans-76" x="1276.154297"/>
     <use xlink:href="#DejaVuSans-69" x="1335.333984"/>
     <use xlink:href="#DejaVuSans-6e" x="1363.117188"/>
     <use xlink:href="#DejaVuSans-6b" x="1426.496094"/>
     <use xlink:href="#DejaVuSans-65" x="1480.78125"/>
     <use xlink:href="#DejaVuSans-6c" x="1542.304688"/>
    </g>
   </g>
   <g id="legend_1">
    <g id="patch_7">
     <path d="M 218.712187 64.42825 
L 407.72 64.42825 
Q 409.72 64.42825 409.72 62.42825 
L 409.72 48.472 
Q 409.72 46.472 407.72 46.472 
L 218.712187 46.472 
Q 216.712187 46.472 216.712187 48.472 
L 216.712187 62.42825 
Q 216.712187 64.42825 218.712187 64.42825 
z
" style="fill: #ffffff; opacity: 0.8; stroke: #cccccc; stroke-linejoin: miter"/>
    </g>
    <g id="line2d_15">
     <path d="M 220.712187 54.570437 
L 230.712187 54.570437 
L 240.712187 54.570437 
" style="fill: none; stroke: #1f77b4; stroke-width: 1.5; stroke-linecap: square"/>
    </g>
    <g id="text_17">
     <!-- Vemund-Tyholt_flymodus-vinkel -->
     <g transform="translate(248.712187 58.070437) scale(0.1 -0.1)">
      <use xlink:href="#DejaVuSans-56"/>
      <use xlink:href="#DejaVuSans-65" x="60.658203"/>
      <use xlink:href="#DejaVuSans-6d" x="122.181641"/>
      <use xlink:href="#DejaVuSans-75" x="219.59375"/>
      <use xlink:href="#DejaVuSans-6e" x="282.972656"/>
      <use xlink:href="#DejaVuSans-64" x="346.351562"/>
      <use xlink:href="#DejaVuSans-2d" x="409.828125"/>
      <use xlink:href="#DejaVuSans-54" x="436.787109"/>
      <use xlink:href="#DejaVuSans-79" x="482.246094"/>
      <use xlink:href="#DejaVuSans-68" x="541.425781"/>
      <use xlink:href="#DejaVuSans-6f" x="604.804688"/>
      <use xlink:href="#DejaVuSans-6c" x="665.986328"/>
      <use xlink:href="#DejaVuSans-74" x="693.769531"/>
      <use xlink:href="#DejaVuSans-5f" x="732.978516"/>
      <use xlink:href="#DejaVuSans-66" x="782.978516"/>
      <use xlink:href="#DejaVuSans-6c" x="818.183594"/>
      <use xlink:href="#DejaVuSans-79" x="845.966797"/>
      <use xlink:href="#DejaVuSans-6d" x="905.146484"/>
      <use xlink:href="#DejaVuSans-6f" x="1002.558594"/>
      <use xlink:href="#DejaVuSans-64" x="1063.740234"/>
      <use xlink:href="#DejaVuSans-75" x="1127.216797"/>
      <use xlink:href="#DejaVuSans-73" x="1190.595703"/>
      <use xlink:href="#DejaVuSans-2d" x="1242.695312"/>
      <use xlink:href="#DejaVuSans-76" x="1276.154297"/>
      <use xlink:href="#DejaVuSans-69" x="1335.333984"/>
      <use xlink:href="#DejaVuSans-6e" x="1363.117188"/>
      <use xlink:href="#DejaVuSans-6b" x="1426.496094"/>
      <use xlink:href="#DejaVuSans-65" x="1480.78125"/>
      <use xlink:href="#DejaVuSans-6c" x="1542.304688"/>
     </g>
    </g>
   </g>
  </g>
 </g>
 <defs>
  <clipPath id="p9cdf00e621">
   <rect x="57.6" y="41.472" width="357.12" height="266.112"/>
  </clipPath>
 </defs>
</svg>
