<?xml version="1.0" encoding="utf-8" standalone="no"?>
<!DOCTYPE svg PUBLIC "-//W3C//DTD SVG 1.1//EN"
  "http://www.w3.org/Graphics/SVG/1.1/DTD/svg11.dtd">
<svg xmlns:xlink="http://www.w3.org/1999/xlink" width="460.8pt" height="345.6pt" viewBox="0 0 460.8 345.6" xmlns="http://www.w3.org/2000/svg" version="1.1">
 <metadata>
  <rdf:RDF xmlns:dc="http://purl.org/dc/elements/1.1/" xmlns:cc="http://creativecommons.org/ns#" xmlns:rdf="http://www.w3.org/1999/02/22-rdf-syntax-ns#">
   <cc:Work>
    <dc:type rdf:resource="http://purl.org/dc/dcmitype/StillImage"/>
    <dc:date>2023-04-17T15:21:28.962559</dc:date>
    <dc:format>image/svg+xml</dc:format>
    <dc:creator>
     <cc:Agent>
      <dc:title>Matplotlib v3.7.1, https://matplotlib.org/</dc:title>
     </cc:Agent>
    </dc:creator>
   </cc:Work>
  </rdf:RDF>
 </metadata>
 <defs>
  <style type="text/css">*{stroke-linejoin: round; stroke-linecap: butt}</style>
 </defs>
 <g id="figure_1">
  <g id="patch_1">
   <path d="M 0 345.6 
L 460.8 345.6 
L 460.8 0 
L 0 0 
z
" style="fill: #ffffff"/>
  </g>
  <g id="axes_1">
   <g id="patch_2">
    <path d="M 57.6 307.584 
L 414.72 307.584 
L 414.72 41.472 
L 57.6 41.472 
z
" style="fill: #ffffff"/>
   </g>
   <g id="matplotlib.axis_1">
    <g id="xtick_1">
     <g id="line2d_1">
      <defs>
       <path id="m6d3b9a2395" d="M 0 0 
L 0 3.5 
" style="stroke: #000000; stroke-width: 0.8"/>
      </defs>
      <g>
       <use xlink:href="#m6d3b9a2395" x="74.059021" y="307.584" style="stroke: #000000; stroke-width: 0.8"/>
      </g>
     </g>
     <g id="text_1">
      <!-- 30 -->
      <g transform="translate(67.696521 322.182437) scale(0.1 -0.1)">
       <defs>
        <path id="DejaVuSans-33" d="M 2597 2516 
Q 3050 2419 3304 2112 
Q 3559 1806 3559 1356 
Q 3559 666 3084 287 
Q 2609 -91 1734 -91 
Q 1441 -91 1130 -33 
Q 819 25 488 141 
L 488 750 
Q 750 597 1062 519 
Q 1375 441 1716 441 
Q 2309 441 2620 675 
Q 2931 909 2931 1356 
Q 2931 1769 2642 2001 
Q 2353 2234 1838 2234 
L 1294 2234 
L 1294 2753 
L 1863 2753 
Q 2328 2753 2575 2939 
Q 2822 3125 2822 3475 
Q 2822 3834 2567 4026 
Q 2313 4219 1838 4219 
Q 1578 4219 1281 4162 
Q 984 4106 628 3988 
L 628 4550 
Q 988 4650 1302 4700 
Q 1616 4750 1894 4750 
Q 2613 4750 3031 4423 
Q 3450 4097 3450 3541 
Q 3450 3153 3228 2886 
Q 3006 2619 2597 2516 
z
" transform="scale(0.015625)"/>
        <path id="DejaVuSans-30" d="M 2034 4250 
Q 1547 4250 1301 3770 
Q 1056 3291 1056 2328 
Q 1056 1369 1301 889 
Q 1547 409 2034 409 
Q 2525 409 2770 889 
Q 3016 1369 3016 2328 
Q 3016 3291 2770 3770 
Q 2525 4250 2034 4250 
z
M 2034 4750 
Q 2819 4750 3233 4129 
Q 3647 3509 3647 2328 
Q 3647 1150 3233 529 
Q 2819 -91 2034 -91 
Q 1250 -91 836 529 
Q 422 1150 422 2328 
Q 422 3509 836 4129 
Q 1250 4750 2034 4750 
z
" transform="scale(0.015625)"/>
       </defs>
       <use xlink:href="#DejaVuSans-33"/>
       <use xlink:href="#DejaVuSans-30" x="63.623047"/>
      </g>
     </g>
    </g>
    <g id="xtick_2">
     <g id="line2d_2">
      <g>
       <use xlink:href="#m6d3b9a2395" x="139.000374" y="307.584" style="stroke: #000000; stroke-width: 0.8"/>
      </g>
     </g>
     <g id="text_2">
      <!-- 35 -->
      <g transform="translate(132.637874 322.182437) scale(0.1 -0.1)">
       <defs>
        <path id="DejaVuSans-35" d="M 691 4666 
L 3169 4666 
L 3169 4134 
L 1269 4134 
L 1269 2991 
Q 1406 3038 1543 3061 
Q 1681 3084 1819 3084 
Q 2600 3084 3056 2656 
Q 3513 2228 3513 1497 
Q 3513 744 3044 326 
Q 2575 -91 1722 -91 
Q 1428 -91 1123 -41 
Q 819 9 494 109 
L 494 744 
Q 775 591 1075 516 
Q 1375 441 1709 441 
Q 2250 441 2565 725 
Q 2881 1009 2881 1497 
Q 2881 1984 2565 2268 
Q 2250 2553 1709 2553 
Q 1456 2553 1204 2497 
Q 953 2441 691 2322 
L 691 4666 
z
" transform="scale(0.015625)"/>
       </defs>
       <use xlink:href="#DejaVuSans-33"/>
       <use xlink:href="#DejaVuSans-35" x="63.623047"/>
      </g>
     </g>
    </g>
    <g id="xtick_3">
     <g id="line2d_3">
      <g>
       <use xlink:href="#m6d3b9a2395" x="203.941727" y="307.584" style="stroke: #000000; stroke-width: 0.8"/>
      </g>
     </g>
     <g id="text_3">
      <!-- 40 -->
      <g transform="translate(197.579227 322.182437) scale(0.1 -0.1)">
       <defs>
        <path id="DejaVuSans-34" d="M 2419 4116 
L 825 1625 
L 2419 1625 
L 2419 4116 
z
M 2253 4666 
L 3047 4666 
L 3047 1625 
L 3713 1625 
L 3713 1100 
L 3047 1100 
L 3047 0 
L 2419 0 
L 2419 1100 
L 313 1100 
L 313 1709 
L 2253 4666 
z
" transform="scale(0.015625)"/>
       </defs>
       <use xlink:href="#DejaVuSans-34"/>
       <use xlink:href="#DejaVuSans-30" x="63.623047"/>
      </g>
     </g>
    </g>
    <g id="xtick_4">
     <g id="line2d_4">
      <g>
       <use xlink:href="#m6d3b9a2395" x="268.88308" y="307.584" style="stroke: #000000; stroke-width: 0.8"/>
      </g>
     </g>
     <g id="text_4">
      <!-- 45 -->
      <g transform="translate(262.52058 322.182437) scale(0.1 -0.1)">
       <use xlink:href="#DejaVuSans-34"/>
       <use xlink:href="#DejaVuSans-35" x="63.623047"/>
      </g>
     </g>
    </g>
    <g id="xtick_5">
     <g id="line2d_5">
      <g>
       <use xlink:href="#m6d3b9a2395" x="333.824433" y="307.584" style="stroke: #000000; stroke-width: 0.8"/>
      </g>
     </g>
     <g id="text_5">
      <!-- 50 -->
      <g transform="translate(327.461933 322.182437) scale(0.1 -0.1)">
       <use xlink:href="#DejaVuSans-35"/>
       <use xlink:href="#DejaVuSans-30" x="63.623047"/>
      </g>
     </g>
    </g>
    <g id="xtick_6">
     <g id="line2d_6">
      <g>
       <use xlink:href="#m6d3b9a2395" x="398.765786" y="307.584" style="stroke: #000000; stroke-width: 0.8"/>
      </g>
     </g>
     <g id="text_6">
      <!-- 55 -->
      <g transform="translate(392.403286 322.182437) scale(0.1 -0.1)">
       <use xlink:href="#DejaVuSans-35"/>
       <use xlink:href="#DejaVuSans-35" x="63.623047"/>
      </g>
     </g>
    </g>
    <g id="text_7">
     <!-- time [s] -->
     <g transform="translate(216.768594 335.860562) scale(0.1 -0.1)">
      <defs>
       <path id="DejaVuSans-74" d="M 1172 4494 
L 1172 3500 
L 2356 3500 
L 2356 3053 
L 1172 3053 
L 1172 1153 
Q 1172 725 1289 603 
Q 1406 481 1766 481 
L 2356 481 
L 2356 0 
L 1766 0 
Q 1100 0 847 248 
Q 594 497 594 1153 
L 594 3053 
L 172 3053 
L 172 3500 
L 594 3500 
L 594 4494 
L 1172 4494 
z
" transform="scale(0.015625)"/>
       <path id="DejaVuSans-69" d="M 603 3500 
L 1178 3500 
L 1178 0 
L 603 0 
L 603 3500 
z
M 603 4863 
L 1178 4863 
L 1178 4134 
L 603 4134 
L 603 4863 
z
" transform="scale(0.015625)"/>
       <path id="DejaVuSans-6d" d="M 3328 2828 
Q 3544 3216 3844 3400 
Q 4144 3584 4550 3584 
Q 5097 3584 5394 3201 
Q 5691 2819 5691 2113 
L 5691 0 
L 5113 0 
L 5113 2094 
Q 5113 2597 4934 2840 
Q 4756 3084 4391 3084 
Q 3944 3084 3684 2787 
Q 3425 2491 3425 1978 
L 3425 0 
L 2847 0 
L 2847 2094 
Q 2847 2600 2669 2842 
Q 2491 3084 2119 3084 
Q 1678 3084 1418 2786 
Q 1159 2488 1159 1978 
L 1159 0 
L 581 0 
L 581 3500 
L 1159 3500 
L 1159 2956 
Q 1356 3278 1631 3431 
Q 1906 3584 2284 3584 
Q 2666 3584 2933 3390 
Q 3200 3197 3328 2828 
z
" transform="scale(0.015625)"/>
       <path id="DejaVuSans-65" d="M 3597 1894 
L 3597 1613 
L 953 1613 
Q 991 1019 1311 708 
Q 1631 397 2203 397 
Q 2534 397 2845 478 
Q 3156 559 3463 722 
L 3463 178 
Q 3153 47 2828 -22 
Q 2503 -91 2169 -91 
Q 1331 -91 842 396 
Q 353 884 353 1716 
Q 353 2575 817 3079 
Q 1281 3584 2069 3584 
Q 2775 3584 3186 3129 
Q 3597 2675 3597 1894 
z
M 3022 2063 
Q 3016 2534 2758 2815 
Q 2500 3097 2075 3097 
Q 1594 3097 1305 2825 
Q 1016 2553 972 2059 
L 3022 2063 
z
" transform="scale(0.015625)"/>
       <path id="DejaVuSans-20" transform="scale(0.015625)"/>
       <path id="DejaVuSans-5b" d="M 550 4863 
L 1875 4863 
L 1875 4416 
L 1125 4416 
L 1125 -397 
L 1875 -397 
L 1875 -844 
L 550 -844 
L 550 4863 
z
" transform="scale(0.015625)"/>
       <path id="DejaVuSans-73" d="M 2834 3397 
L 2834 2853 
Q 2591 2978 2328 3040 
Q 2066 3103 1784 3103 
Q 1356 3103 1142 2972 
Q 928 2841 928 2578 
Q 928 2378 1081 2264 
Q 1234 2150 1697 2047 
L 1894 2003 
Q 2506 1872 2764 1633 
Q 3022 1394 3022 966 
Q 3022 478 2636 193 
Q 2250 -91 1575 -91 
Q 1294 -91 989 -36 
Q 684 19 347 128 
L 347 722 
Q 666 556 975 473 
Q 1284 391 1588 391 
Q 1994 391 2212 530 
Q 2431 669 2431 922 
Q 2431 1156 2273 1281 
Q 2116 1406 1581 1522 
L 1381 1569 
Q 847 1681 609 1914 
Q 372 2147 372 2553 
Q 372 3047 722 3315 
Q 1072 3584 1716 3584 
Q 2034 3584 2315 3537 
Q 2597 3491 2834 3397 
z
" transform="scale(0.015625)"/>
       <path id="DejaVuSans-5d" d="M 1947 4863 
L 1947 -844 
L 622 -844 
L 622 -397 
L 1369 -397 
L 1369 4416 
L 622 4416 
L 622 4863 
L 1947 4863 
z
" transform="scale(0.015625)"/>
      </defs>
      <use xlink:href="#DejaVuSans-74"/>
      <use xlink:href="#DejaVuSans-69" x="39.208984"/>
      <use xlink:href="#DejaVuSans-6d" x="66.992188"/>
      <use xlink:href="#DejaVuSans-65" x="164.404297"/>
      <use xlink:href="#DejaVuSans-20" x="225.927734"/>
      <use xlink:href="#DejaVuSans-5b" x="257.714844"/>
      <use xlink:href="#DejaVuSans-73" x="296.728516"/>
      <use xlink:href="#DejaVuSans-5d" x="348.828125"/>
     </g>
    </g>
   </g>
   <g id="matplotlib.axis_2">
    <g id="ytick_1">
     <g id="line2d_7">
      <defs>
       <path id="mc4c2cefc9f" d="M 0 0 
L -3.5 0 
" style="stroke: #000000; stroke-width: 0.8"/>
      </defs>
      <g>
       <use xlink:href="#mc4c2cefc9f" x="57.6" y="260.836552" style="stroke: #000000; stroke-width: 0.8"/>
      </g>
     </g>
     <g id="text_8">
      <!-- 269.0 -->
      <g transform="translate(21.971875 264.635771) scale(0.1 -0.1)">
       <defs>
        <path id="DejaVuSans-32" d="M 1228 531 
L 3431 531 
L 3431 0 
L 469 0 
L 469 531 
Q 828 903 1448 1529 
Q 2069 2156 2228 2338 
Q 2531 2678 2651 2914 
Q 2772 3150 2772 3378 
Q 2772 3750 2511 3984 
Q 2250 4219 1831 4219 
Q 1534 4219 1204 4116 
Q 875 4013 500 3803 
L 500 4441 
Q 881 4594 1212 4672 
Q 1544 4750 1819 4750 
Q 2544 4750 2975 4387 
Q 3406 4025 3406 3419 
Q 3406 3131 3298 2873 
Q 3191 2616 2906 2266 
Q 2828 2175 2409 1742 
Q 1991 1309 1228 531 
z
" transform="scale(0.015625)"/>
        <path id="DejaVuSans-36" d="M 2113 2584 
Q 1688 2584 1439 2293 
Q 1191 2003 1191 1497 
Q 1191 994 1439 701 
Q 1688 409 2113 409 
Q 2538 409 2786 701 
Q 3034 994 3034 1497 
Q 3034 2003 2786 2293 
Q 2538 2584 2113 2584 
z
M 3366 4563 
L 3366 3988 
Q 3128 4100 2886 4159 
Q 2644 4219 2406 4219 
Q 1781 4219 1451 3797 
Q 1122 3375 1075 2522 
Q 1259 2794 1537 2939 
Q 1816 3084 2150 3084 
Q 2853 3084 3261 2657 
Q 3669 2231 3669 1497 
Q 3669 778 3244 343 
Q 2819 -91 2113 -91 
Q 1303 -91 875 529 
Q 447 1150 447 2328 
Q 447 3434 972 4092 
Q 1497 4750 2381 4750 
Q 2619 4750 2861 4703 
Q 3103 4656 3366 4563 
z
" transform="scale(0.015625)"/>
        <path id="DejaVuSans-39" d="M 703 97 
L 703 672 
Q 941 559 1184 500 
Q 1428 441 1663 441 
Q 2288 441 2617 861 
Q 2947 1281 2994 2138 
Q 2813 1869 2534 1725 
Q 2256 1581 1919 1581 
Q 1219 1581 811 2004 
Q 403 2428 403 3163 
Q 403 3881 828 4315 
Q 1253 4750 1959 4750 
Q 2769 4750 3195 4129 
Q 3622 3509 3622 2328 
Q 3622 1225 3098 567 
Q 2575 -91 1691 -91 
Q 1453 -91 1209 -44 
Q 966 3 703 97 
z
M 1959 2075 
Q 2384 2075 2632 2365 
Q 2881 2656 2881 3163 
Q 2881 3666 2632 3958 
Q 2384 4250 1959 4250 
Q 1534 4250 1286 3958 
Q 1038 3666 1038 3163 
Q 1038 2656 1286 2365 
Q 1534 2075 1959 2075 
z
" transform="scale(0.015625)"/>
        <path id="DejaVuSans-2e" d="M 684 794 
L 1344 794 
L 1344 0 
L 684 0 
L 684 794 
z
" transform="scale(0.015625)"/>
       </defs>
       <use xlink:href="#DejaVuSans-32"/>
       <use xlink:href="#DejaVuSans-36" x="63.623047"/>
       <use xlink:href="#DejaVuSans-39" x="127.246094"/>
       <use xlink:href="#DejaVuSans-2e" x="190.869141"/>
       <use xlink:href="#DejaVuSans-30" x="222.65625"/>
      </g>
     </g>
    </g>
    <g id="ytick_2">
     <g id="line2d_8">
      <g>
       <use xlink:href="#mc4c2cefc9f" x="57.6" y="207.298502" style="stroke: #000000; stroke-width: 0.8"/>
      </g>
     </g>
     <g id="text_9">
      <!-- 269.5 -->
      <g transform="translate(21.971875 211.097721) scale(0.1 -0.1)">
       <use xlink:href="#DejaVuSans-32"/>
       <use xlink:href="#DejaVuSans-36" x="63.623047"/>
       <use xlink:href="#DejaVuSans-39" x="127.246094"/>
       <use xlink:href="#DejaVuSans-2e" x="190.869141"/>
       <use xlink:href="#DejaVuSans-35" x="222.65625"/>
      </g>
     </g>
    </g>
    <g id="ytick_3">
     <g id="line2d_9">
      <g>
       <use xlink:href="#mc4c2cefc9f" x="57.6" y="153.760452" style="stroke: #000000; stroke-width: 0.8"/>
      </g>
     </g>
     <g id="text_10">
      <!-- 270.0 -->
      <g transform="translate(21.971875 157.559671) scale(0.1 -0.1)">
       <defs>
        <path id="DejaVuSans-37" d="M 525 4666 
L 3525 4666 
L 3525 4397 
L 1831 0 
L 1172 0 
L 2766 4134 
L 525 4134 
L 525 4666 
z
" transform="scale(0.015625)"/>
       </defs>
       <use xlink:href="#DejaVuSans-32"/>
       <use xlink:href="#DejaVuSans-37" x="63.623047"/>
       <use xlink:href="#DejaVuSans-30" x="127.246094"/>
       <use xlink:href="#DejaVuSans-2e" x="190.869141"/>
       <use xlink:href="#DejaVuSans-30" x="222.65625"/>
      </g>
     </g>
    </g>
    <g id="ytick_4">
     <g id="line2d_10">
      <g>
       <use xlink:href="#mc4c2cefc9f" x="57.6" y="100.222402" style="stroke: #000000; stroke-width: 0.8"/>
      </g>
     </g>
     <g id="text_11">
      <!-- 270.5 -->
      <g transform="translate(21.971875 104.021621) scale(0.1 -0.1)">
       <use xlink:href="#DejaVuSans-32"/>
       <use xlink:href="#DejaVuSans-37" x="63.623047"/>
       <use xlink:href="#DejaVuSans-30" x="127.246094"/>
       <use xlink:href="#DejaVuSans-2e" x="190.869141"/>
       <use xlink:href="#DejaVuSans-35" x="222.65625"/>
      </g>
     </g>
    </g>
    <g id="ytick_5">
     <g id="line2d_11">
      <g>
       <use xlink:href="#mc4c2cefc9f" x="57.6" y="46.684352" style="stroke: #000000; stroke-width: 0.8"/>
      </g>
     </g>
     <g id="text_12">
      <!-- 271.0 -->
      <g transform="translate(21.971875 50.48357) scale(0.1 -0.1)">
       <defs>
        <path id="DejaVuSans-31" d="M 794 531 
L 1825 531 
L 1825 4091 
L 703 3866 
L 703 4441 
L 1819 4666 
L 2450 4666 
L 2450 531 
L 3481 531 
L 3481 0 
L 794 0 
L 794 531 
z
" transform="scale(0.015625)"/>
       </defs>
       <use xlink:href="#DejaVuSans-32"/>
       <use xlink:href="#DejaVuSans-37" x="63.623047"/>
       <use xlink:href="#DejaVuSans-31" x="127.246094"/>
       <use xlink:href="#DejaVuSans-2e" x="190.869141"/>
       <use xlink:href="#DejaVuSans-30" x="222.65625"/>
      </g>
     </g>
    </g>
    <g id="text_13">
     <!-- $\theta$ [deg] -->
     <g transform="translate(15.871875 192.528) rotate(-90) scale(0.1 -0.1)">
      <defs>
       <path id="DejaVuSans-Oblique-3b8" d="M 2913 2219 
L 925 2219 
Q 791 1284 928 888 
Q 1100 400 1566 400 
Q 2034 400 2391 891 
Q 2703 1322 2913 2219 
z
M 3009 2750 
Q 3094 3638 2984 3950 
Q 2813 4444 2353 4444 
Q 1875 4444 1525 3956 
Q 1250 3563 1034 2750 
L 3009 2750 
z
M 2444 4913 
Q 3194 4913 3494 4250 
Q 3794 3591 3566 2422 
Q 3341 1256 2781 594 
Q 2225 -72 1475 -72 
Q 722 -72 425 594 
Q 128 1256 353 2422 
Q 581 3591 1134 4250 
Q 1691 4913 2444 4913 
z
" transform="scale(0.015625)"/>
       <path id="DejaVuSans-64" d="M 2906 2969 
L 2906 4863 
L 3481 4863 
L 3481 0 
L 2906 0 
L 2906 525 
Q 2725 213 2448 61 
Q 2172 -91 1784 -91 
Q 1150 -91 751 415 
Q 353 922 353 1747 
Q 353 2572 751 3078 
Q 1150 3584 1784 3584 
Q 2172 3584 2448 3432 
Q 2725 3281 2906 2969 
z
M 947 1747 
Q 947 1113 1208 752 
Q 1469 391 1925 391 
Q 2381 391 2643 752 
Q 2906 1113 2906 1747 
Q 2906 2381 2643 2742 
Q 2381 3103 1925 3103 
Q 1469 3103 1208 2742 
Q 947 2381 947 1747 
z
" transform="scale(0.015625)"/>
       <path id="DejaVuSans-67" d="M 2906 1791 
Q 2906 2416 2648 2759 
Q 2391 3103 1925 3103 
Q 1463 3103 1205 2759 
Q 947 2416 947 1791 
Q 947 1169 1205 825 
Q 1463 481 1925 481 
Q 2391 481 2648 825 
Q 2906 1169 2906 1791 
z
M 3481 434 
Q 3481 -459 3084 -895 
Q 2688 -1331 1869 -1331 
Q 1566 -1331 1297 -1286 
Q 1028 -1241 775 -1147 
L 775 -588 
Q 1028 -725 1275 -790 
Q 1522 -856 1778 -856 
Q 2344 -856 2625 -561 
Q 2906 -266 2906 331 
L 2906 616 
Q 2728 306 2450 153 
Q 2172 0 1784 0 
Q 1141 0 747 490 
Q 353 981 353 1791 
Q 353 2603 747 3093 
Q 1141 3584 1784 3584 
Q 2172 3584 2450 3431 
Q 2728 3278 2906 2969 
L 2906 3500 
L 3481 3500 
L 3481 434 
z
" transform="scale(0.015625)"/>
      </defs>
      <use xlink:href="#DejaVuSans-Oblique-3b8" transform="translate(0 0.234375)"/>
      <use xlink:href="#DejaVuSans-20" transform="translate(61.181641 0.234375)"/>
      <use xlink:href="#DejaVuSans-5b" transform="translate(92.96875 0.234375)"/>
      <use xlink:href="#DejaVuSans-64" transform="translate(131.982422 0.234375)"/>
      <use xlink:href="#DejaVuSans-65" transform="translate(195.458984 0.234375)"/>
      <use xlink:href="#DejaVuSans-67" transform="translate(256.982422 0.234375)"/>
      <use xlink:href="#DejaVuSans-5d" transform="translate(320.458984 0.234375)"/>
     </g>
    </g>
   </g>
   <g id="line2d_12">
    <path d="M 73.832727 116.378982 
L 73.963324 104.745838 
L 74.093921 142.63281 
L 74.224518 140.390012 
L 74.355116 136.139386 
L 74.616297 117.217186 
L 74.746894 117.95677 
L 74.877491 157.532107 
L 75.008088 126.199726 
L 75.138685 134.903295 
L 75.399866 122.931905 
L 75.530463 131.093991 
L 75.922254 109.186922 
L 76.052838 162.477416 
L 76.183435 148.443585 
L 76.314032 122.070398 
L 76.44463 157.678127 
L 76.575227 110.242592 
L 76.705811 159.905473 
L 76.836408 125.713111 
L 76.967005 125.89024 
L 77.097601 130.119776 
L 77.228198 112.804893 
L 77.358795 119.043295 
L 77.48938 133.871559 
L 77.619977 124.874472 
L 77.750574 149.98711 
L 78.011768 113.508856 
L 78.142352 117.78494 
L 78.272949 117.259284 
L 78.403546 134.163684 
L 78.534143 132.80575 
L 78.66474 161.153331 
L 78.795337 164.617782 
L 78.925921 147.530689 
L 79.056518 160.476209 
L 79.187115 106.29432 
L 79.317712 152.118567 
L 79.448309 150.126852 
L 79.578894 158.987784 
L 79.709491 120.924242 
L 79.840088 144.170157 
L 79.970685 145.944321 
L 80.231866 193.939712 
L 80.362463 179.617049 
L 80.49306 145.171353 
L 80.623657 152.319454 
L 80.884851 137.502963 
L 81.015435 159.379476 
L 81.276629 94.160991 
L 81.537823 140.455154 
L 81.668408 125.385178 
L 81.799005 153.289933 
L 81.929602 151.491216 
L 82.190796 157.223629 
L 82.32138 110.468212 
L 82.582574 162.12299 
L 82.843768 148.202321 
L 83.104949 162.438754 
L 83.235546 165.671952 
L 83.366143 127.316012 
L 83.49674 134.347315 
L 83.627337 150.780836 
L 83.888519 117.031083 
L 84.019116 163.835932 
L 84.149713 110.335618 
L 84.410894 153.320706 
L 84.541491 115.954217 
L 84.672088 131.470262 
L 84.802685 115.786919 
L 84.933282 130.537836 
L 85.063866 132.184245 
L 85.194463 181.938025 
L 85.32506 181.938025 
L 85.586254 165.878361 
L 85.716851 165.878361 
L 85.847436 136.919118 
L 85.978033 147.546089 
L 86.10863 202.407343 
L 86.239227 206.207164 
L 86.369824 185.934334 
L 86.500408 183.377013 
L 86.631005 185.050126 
L 86.761602 172.591896 
L 86.892199 131.305148 
L 87.022796 203.569545 
L 87.15338 159.341715 
L 87.414574 154.424612 
L 87.806352 194.914625 
L 88.067547 167.215657 
L 88.198144 175.017887 
L 88.328741 161.358574 
L 88.459325 175.652302 
L 88.589922 161.497046 
L 88.720519 165.463551 
L 89.11231 128.323845 
L 89.242894 161.433472 
L 89.504088 129.427501 
L 89.634685 138.815469 
L 89.765282 108.581043 
L 89.895867 165.135459 
L 90.026464 164.282526 
L 90.157067 124.99276 
L 90.287664 130.336405 
L 90.418261 162.266407 
L 90.548845 159.527226 
L 90.679442 149.127177 
L 90.810039 151.216643 
L 90.940636 134.445115 
L 91.071234 150.45478 
L 91.201818 142.087153 
L 91.332415 170.362755 
L 91.463012 144.077341 
L 91.593609 175.732443 
L 91.724206 168.875138 
L 91.85479 177.774065 
L 92.115984 124.987557 
L 92.246581 134.643956 
L 92.377178 185.579335 
L 92.507762 182.066333 
L 92.638359 160.964814 
L 92.768956 165.569805 
L 92.899553 113.258369 
L 93.030151 152.541267 
L 93.160735 146.514776 
L 93.291332 146.077352 
L 93.552526 134.014806 
L 93.683123 188.941624 
L 93.813707 148.982992 
L 93.944304 178.244059 
L 94.074901 163.32682 
L 94.205498 167.502071 
L 94.466692 134.481097 
L 94.597276 138.449153 
L 94.85847 197.46113 
L 94.989067 162.826312 
L 95.119665 214.537157 
L 95.250249 216.8383 
L 95.380846 191.80361 
L 95.511443 229.069386 
L 95.64204 187.055268 
L 95.772637 214.364981 
L 95.903221 201.286179 
L 96.033818 150.489567 
L 96.164415 174.265977 
L 96.295012 151.372591 
L 96.425609 171.361201 
L 96.556193 167.557502 
L 96.68679 125.463421 
L 96.947984 132.626494 
L 97.078581 148.93802 
L 97.209166 182.297337 
L 97.339763 185.336056 
L 97.47036 196.126999 
L 97.600957 219.161876 
L 97.731554 202.460717 
L 97.992735 221.57007 
L 98.123332 226.542484 
L 98.253929 224.088322 
L 98.384526 212.04788 
L 98.51511 171.647321 
L 98.645707 193.488652 
L 98.776304 184.562705 
L 98.906901 165.603039 
L 99.037498 166.32204 
L 99.168082 178.945522 
L 99.29868 226.238413 
L 99.429277 214.689532 
L 99.559874 171.90905 
L 99.690471 168.847482 
L 99.951652 186.579302 
L 100.082249 171.822028 
L 100.212846 217.037571 
L 100.343443 208.09448 
L 100.474027 237.434515 
L 100.604624 237.87187 
L 100.735221 189.30244 
L 100.865818 201.203817 
L 100.996415 195.492912 
L 101.126999 195.492912 
L 101.257596 201.599166 
L 101.388194 216.115806 
L 101.518791 186.972599 
L 101.649388 213.757237 
L 101.910569 187.668783 
L 102.041166 216.493874 
L 102.302347 191.658932 
L 102.432944 146.368196 
L 102.563541 157.954482 
L 102.694138 153.531761 
L 102.824735 164.660238 
L 103.08591 196.157056 
L 103.216507 179.421072 
L 103.347104 189.935424 
L 103.608285 158.990251 
L 103.738882 167.756319 
L 104.000076 210.369865 
L 104.130673 207.808049 
L 104.261257 183.857922 
L 104.522452 218.001475 
L 104.783646 190.34322 
L 104.91423 190.965288 
L 105.044827 193.058968 
L 105.175424 169.420453 
L 105.436618 192.8725 
L 105.697799 168.683354 
L 105.828396 194.095866 
L 106.08959 182.169852 
L 106.220174 185.089574 
L 106.481369 142.338328 
L 106.873147 167.394184 
L 107.003744 164.562277 
L 107.134341 166.302213 
L 107.264938 186.608139 
L 107.395535 161.485868 
L 107.526119 176.069191 
L 107.787313 223.522468 
L 107.91791 232.670607 
L 108.048494 204.17738 
L 108.179091 223.16928 
L 108.440285 200.507296 
L 108.570883 237.987983 
L 108.832064 169.814813 
L 108.962661 185.195545 
L 109.093258 203.872558 
L 109.223855 199.064559 
L 109.354439 185.427796 
L 109.485036 199.427634 
L 109.615633 168.06162 
L 109.876827 192.127145 
L 110.007411 183.595042 
L 110.138008 166.333185 
L 110.268605 203.566993 
L 110.399202 169.125528 
L 110.529799 193.40417 
L 110.660384 174.209252 
L 110.921578 185.912752 
L 111.182759 127.679936 
L 111.313356 144.288301 
L 111.57455 141.362352 
L 111.705147 153.162275 
L 111.966328 137.388801 
L 112.358119 209.479471 
L 112.488703 190.728438 
L 112.6193 148.660659 
L 113.011092 203.348315 
L 113.141676 169.714544 
L 113.272273 180.739793 
L 113.40287 178.063376 
L 113.794648 141.249981 
L 113.925245 175.145431 
L 114.055842 169.823236 
L 114.186439 183.717651 
L 114.317023 183.300206 
L 114.44762 172.413884 
L 114.578217 186.434548 
L 114.708814 224.679132 
L 114.839412 223.10819 
L 114.969996 193.89657 
L 115.100593 218.133039 
L 115.23119 193.818006 
L 115.361787 194.844628 
L 115.622968 180.393709 
L 115.753565 177.547743 
L 116.014759 204.025539 
L 116.145387 152.895563 
L 116.275984 201.832595 
L 116.406581 201.832595 
L 116.667775 183.674685 
L 116.798359 188.89506 
L 116.928956 158.792901 
L 117.059554 169.059992 
L 117.190151 168.3871 
L 117.320748 143.6968 
L 117.451332 161.68553 
L 117.581929 137.771297 
L 117.712526 139.474364 
L 117.843123 164.302714 
L 117.973707 133.205369 
L 118.234901 182.123054 
L 118.365498 160.70009 
L 118.626679 182.172554 
L 118.757276 179.843818 
L 118.887873 169.195335 
L 119.01847 184.482603 
L 119.279652 163.918866 
L 119.410249 182.84089 
L 119.540846 181.254705 
L 119.671443 176.173885 
L 119.802027 200.085951 
L 120.193818 148.094734 
L 120.454999 162.824054 
L 120.716193 160.304396 
L 121.107971 123.142126 
L 121.499763 138.783637 
L 121.760944 169.766369 
L 121.891541 148.914279 
L 122.152722 169.320209 
L 122.283319 163.40501 
L 122.413916 135.499049 
L 122.544513 136.909116 
L 122.805694 172.836442 
L 122.936291 158.200792 
L 123.066888 193.366749 
L 123.328083 115.258036 
L 123.589264 153.925625 
L 123.719861 144.220644 
L 123.850458 155.097949 
L 123.981042 141.924468 
L 124.111639 111.791899 
L 124.242236 114.816254 
L 124.372833 144.760815 
L 124.50343 140.885209 
L 124.634014 144.202306 
L 124.764611 102.392676 
L 124.895208 102.4806 
L 125.025805 109.444059 
L 125.156389 145.688673 
L 125.417583 136.688732 
L 125.548181 130.156576 
L 125.678778 130.563222 
L 125.809362 119.071522 
L 125.939959 121.383901 
L 126.331737 157.88065 
L 126.592931 129.661857 
L 126.723528 160.649274 
L 126.854125 140.643001 
L 126.984709 161.985658 
L 127.115306 160.438586 
L 127.376501 182.835324 
L 127.768279 155.368586 
L 127.898876 185.182781 
L 128.029473 175.586035 
L 128.160057 149.37916 
L 128.421251 171.559172 
L 128.682432 141.573598 
L 128.943626 134.405354 
L 129.204772 130.362977 
L 129.465953 172.624204 
L 129.59655 139.806235 
L 129.727147 135.84389 
L 129.988328 177.706965 
L 130.118925 189.912571 
L 130.249522 182.138822 
L 130.380119 161.520632 
L 130.6413 193.452185 
L 130.771897 167.792529 
L 131.033079 174.010286 
L 131.163676 186.55308 
L 131.294273 185.899716 
L 131.42487 206.479348 
L 131.555467 148.637704 
L 131.686051 146.801202 
L 131.816648 207.252949 
L 131.947245 207.252949 
L 132.077842 202.961295 
L 132.208426 223.67756 
L 132.46962 167.980876 
L 132.600217 195.718805 
L 132.730801 164.552836 
L 132.861398 207.016851 
L 132.991996 202.475857 
L 133.122593 192.466963 
L 133.383774 144.624021 
L 133.644968 164.26082 
L 133.775565 165.920007 
L 134.036746 149.40374 
L 134.167343 155.466549 
L 134.428537 193.736949 
L 134.689718 159.904935 
L 134.820315 173.084337 
L 134.950913 202.118235 
L 135.081497 204.186959 
L 135.212094 183.319926 
L 135.473288 221.824945 
L 135.734469 175.495255 
L 135.865066 180.872238 
L 135.995663 180.438126 
L 136.12626 185.114727 
L 136.256844 149.569078 
L 136.648635 183.941738 
L 136.779219 160.29504 
L 136.909816 167.208307 
L 137.171011 222.799019 
L 137.432192 162.088498 
L 137.562789 140.109893 
L 137.693386 138.392394 
L 137.823983 152.83587 
L 137.954567 127.250268 
L 138.085164 175.291525 
L 138.215761 171.853038 
L 138.346358 184.851891 
L 138.476955 144.467089 
L 138.607539 182.351926 
L 138.738136 179.803416 
L 138.868733 130.134749 
L 138.99933 136.366675 
L 139.129915 170.300534 
L 139.260512 147.477117 
L 139.391109 163.592712 
L 139.521706 196.564191 
L 139.65229 191.872549 
L 139.782887 162.70922 
L 139.913484 180.444024 
L 140.044081 157.398653 
L 140.174678 158.401591 
L 140.305262 147.696999 
L 140.435859 157.306153 
L 140.566456 138.038997 
L 140.697053 136.308721 
L 140.827637 138.212287 
L 140.958234 151.519051 
L 141.088832 110.077967 
L 141.219429 146.88736 
L 141.48061 101.88754 
L 141.611207 137.77892 
L 141.741804 124.51978 
L 141.872401 128.795657 
L 142.002985 90.659353 
L 142.133582 152.014903 
L 142.264179 128.39452 
L 142.394776 142.534279 
L 142.52536 109.69879 
L 142.655957 110.049884 
L 142.917151 142.639932 
L 143.047735 155.643137 
L 143.178333 180.044709 
L 143.308929 149.758719 
L 143.439527 166.342749 
L 143.570111 153.739526 
L 143.700708 161.317102 
L 143.831305 159.412953 
L 143.961902 194.73287 
L 144.092499 175.956926 
L 144.35368 217.324928 
L 144.484277 174.096655 
L 144.614874 192.84597 
L 144.745458 169.562453 
L 144.876055 166.765437 
L 145.006652 167.572168 
L 145.267834 152.475103 
L 145.529028 185.588686 
L 145.659625 185.77627 
L 145.920806 138.728136 
L 146.051403 199.077093 
L 146.312597 157.435497 
L 146.443181 155.181991 
L 146.704375 195.306679 
L 147.096153 141.850373 
L 147.22675 152.906035 
L 147.357348 141.154316 
L 147.487931 141.154316 
L 147.618529 150.577417 
L 147.749126 137.704561 
L 147.879723 174.750667 
L 148.140904 126.410744 
L 148.271501 126.322485 
L 148.532695 169.504764 
L 148.924473 121.907957 
L 149.05507 174.275211 
L 149.185654 134.630672 
L 149.316252 144.95489 
L 149.577446 198.679279 
L 149.838627 158.523242 
L 150.099821 184.468876 
L 150.230405 147.28279 
L 150.622196 187.425875 
L 150.75278 157.656919 
L 150.883377 183.882582 
L 151.013974 173.85735 
L 151.275168 183.592254 
L 151.53635 202.289944 
L 151.797544 167.199493 
L 151.928128 198.009352 
L 152.058725 196.695105 
L 152.189322 176.445992 
L 152.319919 216.115044 
L 152.450503 213.726881 
L 152.711697 237.665031 
L 152.972878 202.65038 
L 153.103475 213.320539 
L 153.234072 236.842736 
L 153.495254 205.661417 
L 153.625851 260.060042 
L 153.756448 238.017469 
L 153.887045 186.267676 
L 154.017629 179.780337 
L 154.148226 145.389352 
L 154.278823 201.544376 
L 154.40942 170.390424 
L 154.540004 175.358579 
L 154.670601 158.495091 
L 155.454179 230.948975 
L 155.584776 207.610059 
L 155.71536 215.329969 
L 155.845957 179.319227 
L 156.237735 205.685113 
L 156.368332 189.201503 
L 156.498929 204.293371 
L 156.629526 203.47801 
L 156.76011 216.013953 
L 156.890707 241.352303 
L 157.021304 235.578013 
L 157.151901 240.99751 
L 157.282485 205.857363 
L 157.413083 208.019619 
L 157.54368 163.863795 
L 157.804861 209.934603 
L 157.935458 199.256682 
L 158.066055 231.112426 
L 158.327236 171.267943 
L 158.457833 209.500104 
L 158.58843 202.895087 
L 158.719027 208.669313 
L 158.849611 197.08947 
L 158.980208 220.415487 
L 159.110805 187.109282 
L 159.241402 232.620082 
L 159.371986 220.620713 
L 159.502584 184.102557 
L 159.633181 190.35165 
L 159.763778 212.036186 
L 159.894362 191.30949 
L 160.024959 221.748689 
L 160.155556 194.961549 
L 160.286153 205.79082 
L 160.677931 178.628065 
L 160.808528 213.530746 
L 160.939112 174.267138 
L 161.069709 179.244817 
L 161.200306 170.767655 
L 161.461487 204.635169 
L 161.592085 164.260897 
L 161.853279 188.962374 
L 161.983863 187.949299 
L 162.11446 183.416267 
L 162.245057 146.242113 
L 162.375654 154.508543 
L 162.506238 170.156435 
L 162.636835 167.92191 
L 162.767432 191.34562 
L 162.898029 175.427769 
L 163.028626 175.427769 
L 163.289807 210.944955 
L 163.551001 184.773214 
L 163.681586 205.397035 
L 163.812183 188.777966 
L 163.94278 205.247524 
L 164.203961 153.901464 
L 164.465155 176.635432 
L 164.595752 132.678769 
L 164.726336 131.538095 
L 164.856933 144.795453 
L 164.98753 170.62546 
L 165.118127 149.245186 
L 165.248711 147.998352 
L 165.509905 210.967028 
L 165.640503 163.146314 
L 165.771087 159.203805 
L 166.032281 164.606015 
L 166.293462 149.215079 
L 166.424059 156.649216 
L 166.554656 190.465031 
L 166.685253 184.04855 
L 166.815837 146.789021 
L 166.946434 151.639231 
L 167.207628 185.785409 
L 167.338212 133.94774 
L 167.860588 208.499338 
L 167.991185 205.854679 
L 168.121774 176.723787 
L 168.252358 172.922237 
L 168.382955 141.968624 
L 168.513552 174.546285 
L 168.644149 178.396532 
L 168.774733 141.759456 
L 168.90533 190.936938 
L 169.035927 145.539774 
L 169.166524 187.597199 
L 169.297108 182.972609 
L 169.427705 160.458457 
L 169.558302 191.269412 
L 169.819484 163.771269 
L 169.950081 174.863766 
L 170.211275 162.804283 
L 170.341859 158.330743 
L 170.472456 147.176349 
L 170.603053 117.004298 
L 170.994831 178.811358 
L 171.125428 169.122968 
L 171.256025 202.766462 
L 171.386609 193.187233 
L 171.517206 150.415098 
L 171.7784 171.195291 
L 171.908985 174.000314 
L 172.039582 133.681427 
L 172.170179 135.333272 
L 172.300776 147.936607 
L 172.43136 184.705138 
L 172.561957 172.635025 
L 172.692554 176.766745 
L 172.823151 151.837088 
L 173.214929 173.403623 
L 173.47611 221.020442 
L 173.606707 207.872517 
L 173.737304 210.951824 
L 173.867901 218.518262 
L 174.129082 205.381583 
L 174.390277 212.999131 
L 174.520861 209.311471 
L 174.912652 182.82852 
L 175.043236 142.472303 
L 175.30443 188.661066 
L 175.435027 177.057974 
L 175.565611 149.119195 
L 175.826805 213.046406 
L 176.087986 190.996601 
L 176.218584 203.680095 
L 176.349181 240.728072 
L 176.610362 205.673482 
L 176.740959 221.280031 
L 177.00214 152.176745 
L 177.132737 153.046183 
L 177.263334 162.639725 
L 177.393931 183.849168 
L 177.524515 186.969112 
L 177.655112 204.620525 
L 177.785709 156.705561 
L 177.916306 182.19103 
L 178.177488 158.317668 
L 178.308085 182.240878 
L 178.438682 157.358519 
L 178.569266 157.358519 
L 178.699863 139.538349 
L 178.83046 146.096872 
L 178.961057 137.192919 
L 179.091641 140.445885 
L 179.222238 152.357788 
L 179.352835 152.944546 
L 179.483419 138.901168 
L 179.614016 151.424434 
L 179.87521 195.895466 
L 180.005794 179.205645 
L 180.136392 176.893074 
L 180.266988 198.402625 
L 180.397586 176.658539 
L 180.52817 177.459532 
L 180.658767 171.914346 
L 180.789364 195.261929 
L 180.919961 167.21553 
L 181.050545 176.656679 
L 181.181152 217.215924 
L 181.442346 175.907917 
L 181.57293 172.529504 
L 181.703527 185.433515 
L 181.964721 166.981831 
L 182.225902 202.880033 
L 182.356499 180.687965 
L 182.487083 214.700624 
L 182.617681 174.72727 
L 182.748278 211.241266 
L 182.878875 175.674243 
L 183.009459 174.107692 
L 183.140056 203.729322 
L 183.40125 186.393046 
L 183.531834 231.189442 
L 183.793028 188.453615 
L 183.923625 187.801796 
L 184.054209 197.520242 
L 184.184806 178.844291 
L 184.315403 198.217651 
L 184.446 184.20287 
L 184.576584 158.168919 
L 184.707181 156.814765 
L 184.837779 143.752271 
L 184.968363 177.383525 
L 185.09896 160.519858 
L 185.229557 211.192805 
L 185.360154 194.934234 
L 185.490738 232.201063 
L 185.621335 191.524853 
L 185.751932 192.511422 
L 185.882529 195.899473 
L 186.013113 192.277695 
L 186.14371 138.613126 
L 186.274307 177.055661 
L 186.404904 144.706172 
L 186.535488 182.286956 
L 186.796683 156.666113 
L 186.927267 204.118857 
L 187.057864 171.297014 
L 187.188461 185.02084 
L 187.319058 171.444618 
L 187.580239 182.807398 
L 187.710836 152.596734 
L 187.841433 203.377713 
L 187.972017 200.419537 
L 188.102614 182.653407 
L 188.233211 187.538777 
L 188.363808 169.79499 
L 188.494392 183.617984 
L 188.624989 184.999423 
L 188.755587 168.592688 
L 188.886171 192.220165 
L 189.016768 189.51345 
L 189.147365 215.70024 
L 189.277962 180.222184 
L 189.408546 200.75593 
L 189.539143 191.578026 
L 189.66974 197.298337 
L 189.930921 123.147575 
L 190.322712 155.220824 
L 190.453296 153.680618 
L 190.583893 158.024646 
L 190.71449 140.467671 
L 190.845074 141.179836 
L 191.106269 207.936852 
L 191.36745 147.354278 
L 191.498047 151.69962 
L 191.628644 181.609426 
L 191.889825 146.305095 
L 192.020422 146.373188 
L 192.281616 211.409792 
L 192.4122 198.522349 
L 192.542797 207.710113 
L 192.673394 202.975967 
L 193.065173 164.673234 
L 193.19577 156.03076 
L 193.326354 138.060022 
L 193.456951 167.445598 
L 193.587548 161.877167 
L 193.718145 118.255094 
L 193.848729 181.294886 
L 193.979326 181.294886 
L 194.109913 172.362169 
L 194.371095 132.21757 
L 194.501691 107.974549 
L 194.762873 150.128362 
L 195.024067 129.182372 
L 195.154664 152.475993 
L 195.285248 145.390152 
L 195.415845 158.422491 
L 195.807623 127.654609 
L 196.068817 164.379669 
L 196.199401 168.230209 
L 196.329998 157.868067 
L 196.460595 157.157499 
L 196.721777 215.914674 
L 196.852374 159.251381 
L 196.982971 158.508096 
L 197.113555 109.916493 
L 197.374749 105.289728 
L 197.505346 113.924758 
L 197.63593 134.396909 
L 197.766527 110.76093 
L 198.027721 152.175645 
L 198.158305 114.007622 
L 198.288902 145.67283 
L 198.550084 128.082393 
L 198.680681 130.224645 
L 198.811278 105.989901 
L 198.941875 119.827089 
L 199.203056 171.00038 
L 199.333653 116.196383 
L 199.594834 128.430631 
L 199.725431 109.151182 
L 199.986612 139.541391 
L 200.247806 115.092384 
L 200.378403 117.553827 
L 200.508988 87.828608 
L 200.639584 99.454518 
L 200.900766 131.926823 
L 201.031363 144.155299 
L 201.16196 103.008222 
L 201.684335 148.019172 
L 201.814932 146.161506 
L 201.945516 165.770009 
L 202.076113 164.027377 
L 202.20671 181.973125 
L 202.337294 158.032947 
L 202.467891 161.965181 
L 202.729086 124.998906 
L 202.990267 169.308733 
L 203.120864 167.106415 
L 203.251448 181.458936 
L 203.382045 145.259638 
L 203.512642 161.999891 
L 203.643239 142.961338 
L 203.773823 150.846364 
L 203.90442 139.864615 
L 204.035017 161.166302 
L 204.165601 134.109141 
L 204.296198 158.761531 
L 204.426795 138.682555 
L 204.557393 175.285862 
L 204.818574 130.674263 
L 204.949171 123.648408 
L 205.079768 124.361612 
L 205.210352 104.393367 
L 205.471546 122.719519 
L 205.60213 115.942326 
L 205.863324 177.524855 
L 205.993921 149.069509 
L 206.124505 146.861372 
L 206.255102 162.185994 
L 206.385699 137.811476 
L 206.516283 89.671558 
L 206.777477 142.025055 
L 206.908075 129.936054 
L 207.038659 105.649991 
L 207.169261 108.419804 
L 207.299858 97.078858 
L 207.430455 102.043412 
L 207.691636 139.787043 
L 207.822233 127.652199 
L 207.952817 102.525963 
L 208.083414 124.241699 
L 208.214011 114.792935 
L 208.344608 146.479911 
L 208.605789 84.352809 
L 208.86697 122.091901 
L 209.128165 64.629995 
L 209.389346 108.375634 
L 209.519943 108.375634 
L 209.65054 57.038309 
L 209.781124 70.049336 
L 210.042318 150.735707 
L 210.172915 153.908802 
L 210.303499 130.002209 
L 210.434096 130.509085 
L 210.695277 94.300805 
L 210.956471 112.321222 
L 211.087069 101.596395 
L 211.34825 123.646776 
L 211.609431 164.500229 
L 211.870625 133.202139 
L 212.001222 150.670207 
L 212.131806 125.742385 
L 212.262403 126.223384 
L 212.393 139.794743 
L 212.523597 133.839757 
L 212.654181 102.741539 
L 212.784778 132.859409 
L 212.915375 103.972874 
L 213.045959 132.009738 
L 213.307154 121.536186 
L 213.437751 133.672413 
L 213.568335 125.425023 
L 213.698932 132.441006 
L 213.829529 125.340345 
L 213.960113 148.142447 
L 214.09071 137.424716 
L 214.351904 91.096882 
L 214.482488 154.441339 
L 214.613085 130.176872 
L 214.743682 151.75379 
L 214.874266 148.95208 
L 215.004863 159.648175 
L 215.135461 133.369665 
L 215.266058 132.809293 
L 215.527239 99.233795 
L 215.657836 129.680463 
L 215.78842 131.381827 
L 215.919017 95.925099 
L 216.049614 119.376676 
L 216.180198 110.983386 
L 216.310795 116.66247 
L 216.441392 83.716248 
L 216.571989 114.032479 
L 216.702573 84.946063 
L 216.83317 92.889081 
L 216.963767 79.385749 
L 217.094351 125.672286 
L 217.224949 97.488569 
L 217.355546 123.976854 
L 217.486143 177.467136 
L 217.616727 113.193679 
L 217.877921 103.525368 
L 218.008505 106.029487 
L 218.139102 127.685672 
L 218.269699 121.841952 
L 218.400296 85.393158 
L 218.53088 110.254755 
L 218.661477 93.413043 
L 218.792074 95.056181 
L 219.053255 130.592364 
L 219.31445 113.384483 
L 219.445034 159.98744 
L 219.575631 138.873318 
L 219.706228 151.078893 
L 219.836812 148.213098 
L 219.967409 130.524257 
L 220.228598 147.123462 
L 220.359182 183.914207 
L 220.620376 119.120097 
L 220.75096 100.233754 
L 220.881558 134.06143 
L 221.012155 103.176799 
L 221.142752 117.189841 
L 221.273336 91.17953 
L 221.403933 123.676401 
L 221.53453 111.008118 
L 221.665114 147.514631 
L 221.795711 143.739438 
L 221.926308 145.085255 
L 222.056892 149.249503 
L 222.187489 124.300018 
L 222.318086 126.696742 
L 222.448683 151.306057 
L 222.709864 100.462111 
L 222.840461 116.18449 
L 222.971046 117.205423 
L 223.101643 114.820782 
L 223.23224 136.354372 
L 223.362837 133.247663 
L 223.493421 143.10363 
L 223.754615 118.809373 
L 223.885199 136.049568 
L 224.015796 106.488058 
L 224.146393 108.338884 
L 224.27699 152.542511 
L 224.407574 86.544121 
L 224.538171 87.667755 
L 224.668768 123.994449 
L 224.799352 123.994449 
L 224.92995 122.829851 
L 225.060547 110.19718 
L 225.191131 110.19718 
L 225.321728 123.417291 
L 225.452325 124.543283 
L 225.582922 137.946926 
L 225.713506 132.874517 
L 225.844103 138.221467 
L 225.9747 163.948867 
L 226.235881 150.424701 
L 226.366478 169.142373 
L 226.627659 118.746033 
L 226.758256 136.186693 
L 226.888853 125.726736 
L 227.019437 130.714376 
L 227.280632 114.206961 
L 227.411216 83.15851 
L 227.933591 175.121472 
L 228.064188 147.523465 
L 228.194785 181.631383 
L 228.325369 162.718489 
L 228.455966 184.423684 
L 228.586563 152.843693 
L 228.847744 162.983845 
L 228.978341 129.518331 
L 229.239523 155.048748 
L 229.37012 169.382922 
L 229.631301 140.796729 
L 229.761898 149.114272 
L 230.023092 187.900497 
L 230.153676 193.017903 
L 230.284273 187.229318 
L 230.41487 202.302092 
L 230.676051 176.192667 
L 230.806648 187.33361 
L 231.06783 160.573077 
L 231.198427 195.644777 
L 231.329011 197.800006 
L 231.459608 193.10923 
L 231.590205 221.897527 
L 231.851386 148.81528 
L 231.981983 181.342739 
L 232.11258 164.933254 
L 232.243164 198.909447 
L 232.373761 183.300177 
L 232.634955 217.610917 
L 232.765539 197.535236 
L 232.896136 200.984071 
L 233.157322 219.630375 
L 233.287919 226.829437 
L 233.418517 175.368966 
L 233.549101 185.862465 
L 233.679698 248.691282 
L 233.810295 197.876639 
L 233.940892 218.340855 
L 234.071476 209.001987 
L 234.202073 224.83289 
L 234.33267 227.050582 
L 234.463254 227.228362 
L 234.593851 243.570476 
L 234.724448 233.466136 
L 234.855032 241.900052 
L 234.985629 195.313693 
L 235.116226 217.412613 
L 235.246823 196.850702 
L 235.377407 217.456784 
L 235.508005 219.556692 
L 235.638602 225.461657 
L 235.769186 221.766063 
L 235.899783 195.685691 
L 236.03038 216.04994 
L 236.160964 202.865975 
L 236.291561 213.516214 
L 236.422158 204.256464 
L 236.683339 237.514352 
L 236.813936 234.106191 
L 236.944533 225.375082 
L 237.075117 189.469911 
L 237.205714 224.456433 
L 237.336311 211.116483 
L 237.466896 247.194612 
L 237.597493 209.940832 
L 237.72809 219.842071 
L 237.858674 268.796347 
L 237.989271 224.603868 
L 238.119868 267.378575 
L 238.250465 242.485409 
L 238.511646 276.42798 
L 238.642243 264.171067 
L 238.772827 270.020896 
L 238.903424 242.26946 
L 239.034021 240.900316 
L 239.295202 208.621077 
L 239.425799 269.821562 
L 239.556397 259.37949 
L 239.686981 268.560977 
L 239.817578 235.526425 
L 240.078759 229.790111 
L 240.209356 251.316767 
L 240.339953 243.282437 
L 240.470537 216.988915 
L 240.601134 216.988915 
L 240.731731 239.126252 
L 240.862315 195.99332 
L 240.992912 210.513697 
L 241.123509 240.981144 
L 241.515287 206.69775 
L 241.645885 201.107432 
L 241.776469 231.458683 
L 242.168247 198.593679 
L 242.298844 206.835776 
L 242.560025 174.954392 
L 242.821219 222.711996 
L 242.951816 236.68493 
L 243.212997 203.057777 
L 243.343594 223.592796 
L 243.474178 217.654003 
L 243.735373 235.431563 
L 243.865957 220.363661 
L 243.996554 235.607433 
L 244.127151 236.751484 
L 244.388332 222.338745 
L 244.518929 211.563981 
L 244.649526 221.91777 
L 244.78011 178.348606 
L 244.910707 193.25391 
L 245.171888 248.815932 
L 245.433082 221.927178 
L 245.563666 259.504165 
L 245.824861 248.453116 
L 245.955445 253.998646 
L 246.086042 295.488 
L 246.216639 288.828574 
L 246.347236 263.335047 
L 246.47782 286.868676 
L 246.608417 278.169031 
L 246.869598 233.989523 
L 247.000195 243.105526 
L 247.130792 267.23999 
L 247.391973 217.177762 
L 247.52257 232.9744 
L 247.783752 221.870121 
L 247.914349 244.378002 
L 248.044946 235.210728 
L 248.17553 206.515295 
L 248.436724 256.929352 
L 248.567308 266.951525 
L 248.697905 248.227457 
L 248.828502 260.358029 
L 249.22028 229.527472 
L 249.350864 229.144561 
L 249.612058 207.995406 
L 249.742643 207.263 
L 249.87324 221.668487 
L 250.003837 257.174913 
L 250.265018 168.917619 
L 250.395615 171.460331 
L 250.526212 218.164076 
L 250.656796 210.338751 
L 250.787393 187.97149 
L 250.91799 228.010353 
L 251.048574 212.288209 
L 251.179171 249.793067 
L 251.309768 212.261627 
L 251.570949 277.401176 
L 251.832131 210.821437 
L 252.093325 217.288819 
L 252.223922 171.630643 
L 252.354506 224.466819 
L 252.485103 225.27817 
L 252.6157 250.968978 
L 252.746284 246.140011 
L 252.876881 229.764082 
L 253.007478 245.091242 
L 253.138062 225.054897 
L 253.268659 226.493584 
L 253.399256 193.484368 
L 253.52984 216.364386 
L 253.791035 200.507007 
L 254.052216 243.09923 
L 254.313397 161.577084 
L 254.443994 151.901555 
L 254.705188 188.720612 
L 254.966369 144.835391 
L 255.22755 182.368161 
L 255.358147 184.32668 
L 255.488744 204.206956 
L 255.619328 169.300055 
L 255.749926 193.098244 
L 255.880523 194.626939 
L 256.011107 194.626939 
L 256.141704 203.607912 
L 256.272301 222.060735 
L 256.402885 199.585804 
L 256.533482 214.781711 
L 256.664079 215.831758 
L 256.794663 205.322708 
L 256.92526 224.681021 
L 257.186454 213.936716 
L 257.317038 211.665588 
L 257.447635 201.368489 
L 257.708816 206.472495 
L 257.839414 214.312637 
L 257.970011 242.930759 
L 258.231192 223.977839 
L 258.361789 241.90933 
L 258.492373 223.1 
L 258.62297 222.914011 
L 258.753567 205.487332 
L 258.884151 244.980552 
L 259.014748 201.264672 
L 259.275929 253.164495 
L 259.406526 226.688341 
L 259.537123 228.850265 
L 259.667707 257.395629 
L 259.798305 253.115488 
L 260.059499 230.659089 
L 260.190083 227.317878 
L 260.451277 255.114308 
L 260.581861 212.183992 
L 260.712458 246.476737 
L 260.843055 209.264491 
L 261.104236 245.582381 
L 261.234833 222.408668 
L 261.365417 249.385884 
L 261.496014 216.420944 
L 261.626611 219.989964 
L 261.757195 189.356081 
L 262.01839 226.709289 
L 262.148974 216.228467 
L 262.279571 186.077876 
L 262.410168 207.45201 
L 262.540752 186.589643 
L 262.801946 217.525754 
L 262.93253 214.461512 
L 263.063127 202.331587 
L 263.193724 209.301088 
L 263.324321 185.992322 
L 263.454905 207.400981 
L 263.585502 177.563724 
L 263.716099 193.209316 
L 264.107878 162.098077 
L 264.238462 189.688551 
L 264.369059 152.153341 
L 264.499656 161.474562 
L 264.63024 200.698012 
L 264.760837 203.1428 
L 265.022018 167.537882 
L 265.152615 174.972115 
L 265.283212 197.804451 
L 265.413796 188.252521 
L 265.544393 164.908182 
L 265.67499 162.188355 
L 265.805574 172.553503 
L 265.936172 166.075185 
L 266.066769 197.420237 
L 266.197353 184.637587 
L 266.32795 187.217636 
L 266.589131 208.543881 
L 266.719728 233.527627 
L 266.850325 184.481291 
L 266.980909 182.0598 
L 267.111506 187.335738 
L 267.242103 157.00199 
L 267.503284 201.428841 
L 267.764465 195.834886 
L 267.895063 182.892824 
L 268.02566 202.420038 
L 268.156257 194.601435 
L 268.286841 197.254295 
L 268.417438 236.287612 
L 268.548035 187.787822 
L 268.678619 198.550721 
L 268.809216 179.952298 
L 268.939813 181.244532 
L 269.200994 146.315768 
L 269.331591 189.384622 
L 269.462175 161.341222 
L 269.592772 176.834479 
L 269.723369 211.256684 
L 269.853953 205.431177 
L 269.984551 220.279765 
L 270.245732 165.991015 
L 270.506926 206.168665 
L 270.63751 206.168665 
L 270.768107 193.370485 
L 270.898704 196.117814 
L 271.029288 191.137228 
L 271.159885 204.132456 
L 271.290482 204.132456 
L 271.421066 211.276587 
L 271.551663 164.047193 
L 271.68226 166.7099 
L 271.812844 144.782882 
L 271.943442 149.264577 
L 272.074039 171.851063 
L 272.335215 136.810015 
L 272.465812 124.540432 
L 272.596397 151.415398 
L 272.726994 144.535775 
L 273.118772 213.455624 
L 273.249369 191.99294 
L 273.379953 200.592271 
L 273.51055 140.984366 
L 273.771731 133.72626 
L 273.902328 138.841703 
L 274.032925 176.31982 
L 274.294106 157.516388 
L 274.424703 175.547624 
L 274.555288 155.217339 
L 274.685885 161.485085 
L 274.816482 177.901657 
L 274.947066 137.938104 
L 275.077663 153.113719 
L 275.469441 111.742781 
L 275.600038 122.922378 
L 275.730622 154.760225 
L 275.861219 125.855086 
L 275.991816 130.473282 
L 276.1224 147.181693 
L 276.252997 144.316346 
L 276.383594 145.757711 
L 276.514179 142.007973 
L 276.644776 123.498374 
L 276.775373 131.050158 
L 276.905957 130.337583 
L 277.036554 156.487736 
L 277.167151 136.21395 
L 277.297735 139.829706 
L 277.428332 118.518068 
L 277.558929 144.554018 
L 277.950707 126.437085 
L 278.081291 133.293873 
L 278.211888 113.737273 
L 278.603667 159.730074 
L 278.864848 109.411615 
L 279.126042 130.136684 
L 279.256639 188.87593 
L 279.387223 104.154201 
L 279.648417 123.823723 
L 279.779001 69.43428 
L 280.040195 134.328012 
L 280.301376 110.272244 
L 280.431973 103.191959 
L 280.562558 114.080773 
L 280.693155 111.067484 
L 280.823752 88.324959 
L 280.954336 99.310661 
L 281.084933 143.026532 
L 281.346114 131.383171 
L 281.476711 142.335318 
L 281.607308 128.603387 
L 281.737892 153.135618 
L 281.868489 139.355714 
L 281.999086 139.124391 
L 282.12967 139.384288 
L 282.260267 139.915653 
L 282.521448 171.260087 
L 282.78263 146.142206 
L 282.913227 148.472207 
L 283.043824 131.337582 
L 283.174408 155.262927 
L 283.305005 127.928308 
L 283.566186 158.623847 
L 283.696783 114.945644 
L 283.82738 118.607678 
L 283.957964 130.067358 
L 284.088561 152.90192 
L 284.219158 136.699623 
L 284.349742 186.107311 
L 284.480339 133.285985 
L 284.610937 129.092002 
L 284.741521 140.932902 
L 284.872118 137.833488 
L 285.002715 138.587412 
L 285.133319 147.050591 
L 285.263916 144.436244 
L 285.394513 146.01797 
L 285.525097 125.005483 
L 285.655695 130.418475 
L 286.17807 177.249004 
L 286.308654 198.887357 
L 286.439251 153.316259 
L 286.569848 150.70625 
L 286.700432 150.70625 
L 286.961626 198.889005 
L 287.222807 178.706407 
L 287.353404 168.798568 
L 287.483988 181.814631 
L 287.614586 207.392031 
L 287.745183 181.101079 
L 288.006364 188.881193 
L 288.136961 190.258392 
L 288.267545 190.018284 
L 288.398142 150.408875 
L 288.659323 199.829583 
L 288.78992 168.488114 
L 288.920517 195.975915 
L 289.312295 180.562809 
L 289.442879 192.13304 
L 289.573476 181.846406 
L 289.704074 226.601759 
L 289.834658 218.249943 
L 289.965255 220.121656 
L 290.095852 210.987689 
L 290.226436 151.672139 
L 290.48763 192.866008 
L 290.618214 222.257145 
L 290.879395 213.658493 
L 291.009992 215.533712 
L 291.40177 184.963481 
L 291.662952 204.161441 
L 291.924146 182.517891 
L 292.185327 189.081323 
L 292.315924 192.449689 
L 292.446508 203.875319 
L 292.577105 252.923648 
L 292.707702 180.761997 
L 292.968883 240.621709 
L 293.09948 246.527862 
L 293.230064 188.880845 
L 293.360661 204.962914 
L 293.621843 195.963422 
L 293.75244 152.890383 
L 293.883037 200.466664 
L 294.144218 115.714563 
L 294.405399 154.825166 
L 294.535996 155.985216 
L 294.666593 200.279822 
L 294.797177 177.354841 
L 294.927774 192.813193 
L 295.058358 178.333849 
L 295.319552 200.680026 
L 295.450136 192.434001 
L 295.580733 149.96192 
L 295.711331 206.928652 
L 295.841915 179.09098 
L 296.103109 199.833745 
L 296.233693 208.068131 
L 296.36429 200.684124 
L 296.494887 208.09264 
L 296.625471 194.545692 
L 296.756068 195.794724 
L 296.886665 216.109995 
L 297.017249 212.288939 
L 297.147846 179.877226 
L 297.278443 200.237264 
L 297.670222 145.56802 
L 297.931403 175.970651 
L 298.061987 177.079931 
L 298.323171 229.858189 
L 298.453755 160.982302 
L 298.584352 188.697286 
L 298.714949 181.525419 
L 298.845533 225.914093 
L 298.97613 166.404358 
L 299.237312 183.811538 
L 299.498506 139.116818 
L 299.62909 146.354092 
L 299.759687 167.24501 
L 299.890284 157.068138 
L 300.020868 161.608386 
L 300.151465 154.36667 
L 300.412646 174.668953 
L 300.673827 149.971586 
L 300.804424 155.709429 
L 300.935021 148.187601 
L 301.065605 147.141031 
L 301.3268 151.8466 
L 301.457384 136.156188 
L 301.587981 148.02524 
L 301.718578 127.807282 
L 301.849162 137.080424 
L 301.979759 133.082468 
L 302.110356 133.082468 
L 302.24094 103.55558 
L 302.371537 124.774677 
L 302.502134 99.162427 
L 302.763315 176.461792 
L 302.893912 152.425559 
L 303.024496 156.964841 
L 303.285678 133.989238 
L 303.546872 163.24244 
L 303.808053 116.732505 
L 303.93865 137.837631 
L 304.069234 138.859315 
L 304.199831 188.994774 
L 304.330428 179.898246 
L 304.591609 148.294258 
L 304.85279 165.673707 
L 304.983387 163.909229 
L 305.113984 132.847623 
L 305.244569 130.702324 
L 305.50575 175.407199 
L 305.636347 157.431222 
L 305.766944 192.308737 
L 305.897528 146.039639 
L 306.028125 181.066311 
L 306.158722 164.780343 
L 306.289306 165.927209 
L 306.419903 170.212136 
L 306.5505 143.655972 
L 306.811681 172.803541 
L 306.942278 172.021411 
L 307.072862 174.720271 
L 307.20346 171.527446 
L 307.334044 161.016472 
L 307.464641 178.812884 
L 307.595238 177.688394 
L 307.856419 204.945388 
L 307.987016 183.507482 
L 308.1176 192.256616 
L 308.248197 162.872388 
L 308.378794 170.427051 
L 308.509378 142.499353 
L 308.639975 188.390277 
L 308.770572 152.439906 
L 308.901156 191.559824 
L 309.031753 149.416944 
L 309.292935 226.664327 
L 309.554116 183.567046 
L 309.684713 176.474111 
L 309.945894 191.286169 
L 310.076491 211.737613 
L 310.468269 181.410635 
L 310.598866 197.024706 
L 310.860047 175.577394 
L 311.121261 223.309577 
L 311.251858 179.071474 
L 311.382442 176.79428 
L 311.513039 203.454135 
L 311.643636 183.426045 
L 311.904817 213.737538 
L 312.035414 171.012066 
L 312.165998 201.351447 
L 312.427193 186.148986 
L 312.557777 188.339727 
L 312.688374 180.333882 
L 312.818958 211.701231 
L 312.949555 147.546165 
L 313.080152 192.198129 
L 313.210736 196.795159 
L 313.47193 141.373328 
L 313.602514 154.582396 
L 313.733111 144.656181 
L 313.863708 179.24817 
L 313.994292 178.08176 
L 314.255486 192.431685 
L 314.386071 176.565784 
L 314.516668 174.848281 
L 314.647252 168.917457 
L 314.777849 152.187143 
L 314.908446 169.193977 
L 315.03903 167.85182 
L 315.169627 184.061509 
L 315.430808 153.590434 
L 315.692002 201.109414 
L 315.822586 220.058645 
L 315.953183 165.982326 
L 316.083767 209.691967 
L 316.214364 183.949158 
L 316.344962 188.060397 
L 316.475546 208.533965 
L 316.606143 202.641515 
L 316.73674 205.590232 
L 316.867324 184.938579 
L 316.997921 183.257737 
L 317.128518 186.098702 
L 317.259102 194.739536 
L 317.65088 161.076646 
L 317.781477 172.770299 
L 317.912061 167.739365 
L 318.042658 190.231362 
L 318.173255 161.145513 
L 318.30384 194.54321 
L 318.565034 160.067304 
L 318.695618 199.03464 
L 318.826215 180.909589 
L 318.956799 200.086493 
L 319.217993 173.432775 
L 319.348577 167.698235 
L 319.479174 175.444144 
L 319.740355 131.358996 
L 319.870952 155.450411 
L 320.001549 141.346799 
L 320.132133 151.032249 
L 320.26273 185.970624 
L 320.393315 168.830932 
L 320.523912 109.587765 
L 320.654509 139.38081 
L 320.785093 139.27603 
L 320.91569 129.192404 
L 321.046287 142.878644 
L 321.176871 144.892915 
L 321.307468 132.086272 
L 321.438065 138.59165 
L 321.568649 124.924654 
L 321.82983 149.199942 
L 322.091024 161.976564 
L 322.352206 128.581597 
L 322.482803 162.090136 
L 322.613387 140.712309 
L 322.743984 185.129346 
L 322.874581 176.435978 
L 323.005165 159.511496 
L 323.135762 179.35255 
L 323.266346 172.032271 
L 323.396943 147.768768 
L 323.52754 149.914623 
L 323.788721 189.620487 
L 324.049902 141.663129 
L 324.180456 164.54409 
L 324.31104 159.459095 
L 324.441637 122.899954 
L 324.702818 149.351584 
L 324.833415 127.133764 
L 325.094596 154.003111 
L 325.35579 179.207999 
L 325.486374 173.258874 
L 325.616971 143.81293 
L 325.878153 186.131853 
L 326.139334 143.591519 
L 326.531112 221.176959 
L 326.661709 197.548298 
L 326.92289 242.474332 
L 327.053487 197.802211 
L 327.184071 217.570114 
L 327.314668 198.596454 
L 327.445265 219.005825 
L 327.575849 218.171678 
L 327.706446 226.4196 
L 327.837043 223.980763 
L 327.967627 228.566098 
L 328.228809 162.999018 
L 328.359406 200.400981 
L 328.490003 199.052745 
L 328.751184 234.868975 
L 328.881781 223.347218 
L 329.012365 251.038662 
L 329.142962 253.299361 
L 329.404143 220.765448 
L 329.53474 221.577594 
L 329.665324 204.014259 
L 329.795921 212.075027 
L 329.926519 238.466166 
L 330.1877 217.891601 
L 330.318284 220.595126 
L 330.448881 185.635135 
L 330.579478 183.977159 
L 330.840659 209.512381 
L 331.10184 196.89286 
L 331.232437 213.894892 
L 331.363021 180.05871 
L 331.493618 184.695332 
L 331.754799 219.393206 
L 331.885397 219.344212 
L 332.015994 220.977009 
L 332.146578 217.895078 
L 332.277175 190.959434 
L 332.407759 190.959434 
L 332.538356 190.763586 
L 332.668953 192.805156 
L 332.799537 212.782582 
L 332.930134 211.917414 
L 333.060731 211.917414 
L 333.191315 171.160863 
L 333.452496 197.715124 
L 333.583093 183.390645 
L 333.71369 196.284635 
L 333.844275 195.118442 
L 333.974871 187.492041 
L 334.105469 214.56029 
L 334.236053 185.920066 
L 334.36665 132.082389 
L 334.497234 125.262715 
L 334.627831 142.563404 
L 334.758428 140.837083 
L 334.889012 135.568102 
L 335.019609 140.921268 
L 335.150206 139.044 
L 335.411387 178.964942 
L 335.541971 193.068162 
L 335.672568 178.406399 
L 335.803165 196.724607 
L 336.194944 159.988827 
L 336.325528 185.981178 
L 336.586709 160.66351 
L 336.717306 198.157186 
L 336.847903 179.616472 
L 336.978487 201.624894 
L 337.239685 176.694925 
L 337.370269 193.563936 
L 337.500866 227.484787 
L 337.63145 192.604863 
L 337.762047 192.219828 
L 337.892644 178.226835 
L 338.023228 182.54971 
L 338.284422 167.599936 
L 338.415007 190.428596 
L 338.545604 164.653739 
L 338.676188 174.551193 
L 338.937382 221.75427 
L 339.198563 198.593138 
L 339.32916 224.204633 
L 339.459744 221.444032 
L 339.720925 186.606338 
L 339.851522 198.590709 
L 339.982119 173.451024 
L 340.2433 225.633797 
L 340.504482 147.837937 
L 340.635079 108.88015 
L 340.89626 178.998113 
L 341.026857 137.01214 
L 341.288038 154.220077 
L 341.549219 135.233346 
L 341.679816 154.695922 
L 341.8104 151.967323 
L 342.071594 173.617474 
L 342.202178 217.006727 
L 342.332776 184.051957 
L 342.593957 200.976434 
L 342.724554 205.980015 
L 342.855138 231.777272 
L 342.985735 183.403242 
L 343.246916 197.236137 
L 343.377513 186.147961 
L 343.508097 200.276975 
L 343.638694 193.823284 
L 343.769291 174.737897 
L 344.030472 198.894621 
L 344.161056 190.361727 
L 344.291653 198.361447 
L 344.422251 174.235111 
L 344.683432 207.735469 
L 344.814029 194.585727 
L 344.944613 216.5754 
L 345.205794 189.155234 
L 345.336391 201.696932 
L 345.466988 176.847783 
L 345.597572 190.736892 
L 345.858753 151.504399 
L 345.98935 149.745151 
L 346.119947 170.895241 
L 346.250531 151.193218 
L 346.64231 168.732187 
L 346.772907 146.130277 
L 346.903491 160.159797 
L 347.034088 133.049911 
L 347.164685 147.314963 
L 347.295269 109.575672 
L 347.55645 125.517464 
L 347.948228 183.328104 
L 348.078825 176.698504 
L 348.209422 147.594652 
L 348.340007 154.555265 
L 348.470604 140.385976 
L 348.601188 140.385976 
L 348.731785 161.311924 
L 348.862382 160.377409 
L 349.123563 194.312528 
L 349.254147 192.366897 
L 349.384744 193.293172 
L 349.645925 173.255855 
L 349.776522 172.461564 
L 349.907119 174.620097 
L 350.037703 172.907277 
L 350.298924 200.815469 
L 350.429522 168.282114 
L 350.560119 172.838889 
L 350.690703 187.641849 
L 350.951884 139.422583 
L 351.082481 135.517336 
L 351.343662 183.269138 
L 351.604843 131.618183 
L 351.73544 137.22991 
L 351.866037 163.082542 
L 351.996621 120.977209 
L 352.127218 151.806745 
L 352.257802 152.658539 
L 352.3884 139.366465 
L 352.518997 191.85874 
L 352.649581 154.000353 
L 352.780178 161.403701 
L 352.910775 209.880616 
L 353.041359 191.885357 
L 353.171956 193.207814 
L 353.30254 210.137437 
L 353.433137 205.143112 
L 353.563734 192.490144 
L 353.694318 234.717487 
L 353.955499 203.786507 
L 354.086096 202.665771 
L 354.477875 160.559663 
L 354.608459 156.257375 
L 354.739056 178.778547 
L 354.869653 166.582033 
L 355.130834 229.820405 
L 355.261431 228.561005 
L 355.392015 192.238278 
L 355.522612 223.992039 
L 355.653196 192.03104 
L 355.783793 206.054453 
L 356.044974 166.216801 
L 356.175571 193.800246 
L 356.306156 151.313568 
L 356.436753 213.535187 
L 356.56735 183.243451 
L 356.828531 215.022587 
L 356.959115 212.165135 
L 357.089712 215.640484 
L 357.220309 225.09604 
L 357.350893 269.926326 
L 357.873268 140.853292 
L 358.265046 195.892239 
L 358.395631 192.201555 
L 358.656812 165.435612 
L 358.787409 170.10926 
L 359.179187 229.781329 
L 359.309771 207.649616 
L 359.440368 223.049916 
L 359.570965 199.792427 
L 359.701549 228.658842 
L 359.832146 213.370427 
L 360.093327 254.188506 
L 360.223924 239.906601 
L 360.354509 248.614286 
L 360.61569 235.457067 
L 360.746287 226.823513 
L 361.007468 194.407986 
L 361.138065 200.821432 
L 361.268649 179.713831 
L 361.529843 191.092773 
L 361.660427 182.839955 
L 361.791024 225.516905 
L 361.921608 217.61564 
L 362.052205 193.207911 
L 362.182802 205.861215 
L 362.443984 185.665365 
L 362.574568 166.924747 
L 362.705165 203.129749 
L 362.966346 158.462679 
L 363.227493 196.787461 
L 363.358091 229.352174 
L 363.619272 190.075487 
L 363.749869 203.116532 
L 363.880466 203.116532 
L 364.01105 201.572768 
L 364.141647 210.352513 
L 364.272231 175.66771 
L 364.402828 182.248926 
L 364.533425 198.684918 
L 364.664009 143.752097 
L 364.92519 149.382761 
L 365.055787 188.839408 
L 365.186384 148.891249 
L 365.447566 163.546408 
L 365.57815 157.377426 
L 365.839344 119.926092 
L 365.969928 146.435004 
L 366.100525 148.640355 
L 366.231109 192.986465 
L 366.361706 160.165252 
L 366.492303 193.783494 
L 366.753484 143.124375 
L 367.145262 157.803996 
L 367.275846 161.43826 
L 367.406444 156.576771 
L 367.667625 174.493995 
L 367.798222 199.097618 
L 367.928806 155.090074 
L 368.189987 140.298082 
L 368.581765 164.695261 
L 368.712362 160.069844 
L 368.842946 178.287759 
L 368.973543 166.129106 
L 369.10414 178.852082 
L 369.626503 126.267637 
L 369.7571 157.416354 
L 369.887684 156.660605 
L 370.018281 181.385266 
L 370.279462 141.508552 
L 370.410059 165.171214 
L 370.540643 164.903342 
L 370.67124 169.53634 
L 370.801824 150.860884 
L 370.932421 161.339879 
L 371.063018 160.358664 
L 371.193602 172.866962 
L 371.3242 213.196117 
L 371.454784 209.28491 
L 371.585381 152.409726 
L 371.715978 167.025688 
L 371.846562 159.941939 
L 371.977159 194.660564 
L 372.107743 194.222447 
L 372.23834 156.462072 
L 372.499521 213.037381 
L 372.630118 212.636786 
L 372.760702 206.054673 
L 372.891299 236.679147 
L 373.15248 181.90658 
L 373.283077 187.861442 
L 373.544259 158.49609 
L 373.674843 151.596305 
L 373.80544 177.772657 
L 373.936037 148.813646 
L 374.066621 180.138548 
L 374.197218 165.336738 
L 374.458399 185.961051 
L 374.588996 178.669081 
L 374.71958 205.108493 
L 374.850177 186.924029 
L 374.980761 196.396319 
L 375.111358 218.937963 
L 375.37254 197.902315 
L 375.503137 155.73943 
L 375.633721 161.765017 
L 375.764318 145.209698 
L 375.894915 164.347926 
L 376.286677 108.947333 
L 376.417274 115.13427 
L 376.547871 131.412743 
L 376.678455 131.629638 
L 376.809052 108.777195 
L 376.939636 112.877217 
L 377.200817 152.606201 
L 377.331414 139.833005 
L 377.462011 162.561817 
L 377.723192 136.999403 
L 377.853777 137.525459 
L 377.984374 152.127815 
L 378.245555 126.750171 
L 378.506736 164.04266 
L 378.637333 146.784957 
L 378.898514 177.033072 
L 379.029111 166.259178 
L 379.159695 166.259178 
L 379.290292 186.151978 
L 379.551473 148.697054 
L 379.68207 179.833885 
L 379.943252 158.332204 
L 380.073836 193.23743 
L 380.204433 162.877221 
L 380.33503 167.117178 
L 380.465614 127.482623 
L 380.596211 168.253199 
L 380.726795 153.474894 
L 380.857392 154.346694 
L 380.987989 134.327911 
L 381.379754 193.446026 
L 381.510351 196.694912 
L 381.640948 213.903146 
L 381.771533 210.423386 
L 381.90213 148.19384 
L 382.032714 172.019027 
L 382.163311 157.600494 
L 382.293908 176.973502 
L 382.424492 165.123705 
L 382.685673 177.632261 
L 382.81627 161.813116 
L 382.946854 163.17513 
L 383.077451 147.112144 
L 383.208048 147.738953 
L 383.338632 136.330281 
L 383.469229 148.921176 
L 383.599813 173.919493 
L 383.73041 146.171687 
L 383.991592 141.738475 
L 384.252773 174.301046 
L 384.38337 159.305476 
L 384.513967 201.637114 
L 384.644551 192.834878 
L 384.775148 201.650447 
L 385.036329 145.452436 
L 385.166913 162.782478 
L 385.29751 135.783731 
L 385.95047 212.61297 
L 386.081067 197.764004 
L 386.211651 201.232001 
L 386.603429 162.72242 
L 386.734013 172.081578 
L 386.86461 142.931943 
L 386.995207 176.442475 
L 387.125791 174.651611 
L 387.386972 190.365051 
L 387.517569 186.891829 
L 387.648166 208.782206 
L 387.778751 155.976102 
L 387.909348 161.127501 
L 388.170529 204.36952 
L 388.301126 196.327637 
L 388.43171 207.567297 
L 388.562307 190.365979 
L 388.692891 249.078802 
L 388.823488 187.771984 
L 388.954072 193.769186 
L 389.084669 182.092482 
L 389.215271 148.471226 
L 389.345855 156.070983 
L 389.476452 190.913677 
L 389.607036 162.763055 
L 389.737633 163.962674 
L 390.129412 193.166548 
L 390.259996 169.792872 
L 390.390593 192.733663 
L 390.651774 182.950915 
L 390.912955 136.786092 
L 391.043552 148.072855 
L 391.174136 145.212599 
L 391.43533 157.176365 
L 391.565914 179.4495 
L 391.696511 170.940361 
L 391.827095 142.251888 
L 391.957692 174.533549 
L 392.088277 171.278002 
L 392.349471 126.087152 
L 392.480055 128.232134 
L 392.610652 156.67765 
L 392.741236 145.599561 
L 393.00243 102.440144 
L 393.263611 178.025131 
L 393.524792 125.363164 
L 393.785973 152.193502 
L 393.91657 143.071015 
L 394.047154 104.82599 
L 394.308336 169.653105 
L 394.438933 154.073437 
L 394.56953 154.073437 
L 394.700114 166.605973 
L 394.830711 145.662224 
L 394.961295 162.233361 
L 395.091892 160.217662 
L 395.222476 152.050468 
L 395.353073 107.165841 
L 395.614254 162.981396 
L 395.744851 149.255812 
L 395.875435 118.609808 
L 396.136617 147.588586 
L 396.267214 114.738552 
L 396.397811 176.987942 
L 396.528395 141.570756 
L 396.789576 161.952661 
L 396.920173 125.350261 
L 397.311951 153.535811 
L 397.442535 141.127687 
L 397.703716 53.568 
L 397.96491 130.716665 
L 398.095495 95.343993 
L 398.226092 95.914808 
L 398.356676 88.111263 
L 398.487273 103.494776 
L 398.487273 103.494776 
" clip-path="url(#p38a60cb1da)" style="fill: none; stroke: #1f77b4; stroke-width: 1.5; stroke-linecap: square"/>
   </g>
   <g id="patch_3">
    <path d="M 57.6 307.584 
L 57.6 41.472 
" style="fill: none; stroke: #000000; stroke-width: 0.8; stroke-linejoin: miter; stroke-linecap: square"/>
   </g>
   <g id="patch_4">
    <path d="M 414.72 307.584 
L 414.72 41.472 
" style="fill: none; stroke: #000000; stroke-width: 0.8; stroke-linejoin: miter; stroke-linecap: square"/>
   </g>
   <g id="patch_5">
    <path d="M 57.6 307.584 
L 414.72 307.584 
" style="fill: none; stroke: #000000; stroke-width: 0.8; stroke-linejoin: miter; stroke-linecap: square"/>
   </g>
   <g id="patch_6">
    <path d="M 57.6 41.472 
L 414.72 41.472 
" style="fill: none; stroke: #000000; stroke-width: 0.8; stroke-linejoin: miter; stroke-linecap: square"/>
   </g>
   <g id="text_14">
    <!-- Vemund-Tyholt-vinkel -->
    <g transform="translate(172.538437 35.472) scale(0.12 -0.12)">
     <defs>
      <path id="DejaVuSans-56" d="M 1831 0 
L 50 4666 
L 709 4666 
L 2188 738 
L 3669 4666 
L 4325 4666 
L 2547 0 
L 1831 0 
z
" transform="scale(0.015625)"/>
      <path id="DejaVuSans-75" d="M 544 1381 
L 544 3500 
L 1119 3500 
L 1119 1403 
Q 1119 906 1312 657 
Q 1506 409 1894 409 
Q 2359 409 2629 706 
Q 2900 1003 2900 1516 
L 2900 3500 
L 3475 3500 
L 3475 0 
L 2900 0 
L 2900 538 
Q 2691 219 2414 64 
Q 2138 -91 1772 -91 
Q 1169 -91 856 284 
Q 544 659 544 1381 
z
M 1991 3584 
L 1991 3584 
z
" transform="scale(0.015625)"/>
      <path id="DejaVuSans-6e" d="M 3513 2113 
L 3513 0 
L 2938 0 
L 2938 2094 
Q 2938 2591 2744 2837 
Q 2550 3084 2163 3084 
Q 1697 3084 1428 2787 
Q 1159 2491 1159 1978 
L 1159 0 
L 581 0 
L 581 3500 
L 1159 3500 
L 1159 2956 
Q 1366 3272 1645 3428 
Q 1925 3584 2291 3584 
Q 2894 3584 3203 3211 
Q 3513 2838 3513 2113 
z
" transform="scale(0.015625)"/>
      <path id="DejaVuSans-2d" d="M 313 2009 
L 1997 2009 
L 1997 1497 
L 313 1497 
L 313 2009 
z
" transform="scale(0.015625)"/>
      <path id="DejaVuSans-54" d="M -19 4666 
L 3928 4666 
L 3928 4134 
L 2272 4134 
L 2272 0 
L 1638 0 
L 1638 4134 
L -19 4134 
L -19 4666 
z
" transform="scale(0.015625)"/>
      <path id="DejaVuSans-79" d="M 2059 -325 
Q 1816 -950 1584 -1140 
Q 1353 -1331 966 -1331 
L 506 -1331 
L 506 -850 
L 844 -850 
Q 1081 -850 1212 -737 
Q 1344 -625 1503 -206 
L 1606 56 
L 191 3500 
L 800 3500 
L 1894 763 
L 2988 3500 
L 3597 3500 
L 2059 -325 
z
" transform="scale(0.015625)"/>
      <path id="DejaVuSans-68" d="M 3513 2113 
L 3513 0 
L 2938 0 
L 2938 2094 
Q 2938 2591 2744 2837 
Q 2550 3084 2163 3084 
Q 1697 3084 1428 2787 
Q 1159 2491 1159 1978 
L 1159 0 
L 581 0 
L 581 4863 
L 1159 4863 
L 1159 2956 
Q 1366 3272 1645 3428 
Q 1925 3584 2291 3584 
Q 2894 3584 3203 3211 
Q 3513 2838 3513 2113 
z
" transform="scale(0.015625)"/>
      <path id="DejaVuSans-6f" d="M 1959 3097 
Q 1497 3097 1228 2736 
Q 959 2375 959 1747 
Q 959 1119 1226 758 
Q 1494 397 1959 397 
Q 2419 397 2687 759 
Q 2956 1122 2956 1747 
Q 2956 2369 2687 2733 
Q 2419 3097 1959 3097 
z
M 1959 3584 
Q 2709 3584 3137 3096 
Q 3566 2609 3566 1747 
Q 3566 888 3137 398 
Q 2709 -91 1959 -91 
Q 1206 -91 779 398 
Q 353 888 353 1747 
Q 353 2609 779 3096 
Q 1206 3584 1959 3584 
z
" transform="scale(0.015625)"/>
      <path id="DejaVuSans-6c" d="M 603 4863 
L 1178 4863 
L 1178 0 
L 603 0 
L 603 4863 
z
" transform="scale(0.015625)"/>
      <path id="DejaVuSans-76" d="M 191 3500 
L 800 3500 
L 1894 563 
L 2988 3500 
L 3597 3500 
L 2284 0 
L 1503 0 
L 191 3500 
z
" transform="scale(0.015625)"/>
      <path id="DejaVuSans-6b" d="M 581 4863 
L 1159 4863 
L 1159 1991 
L 2875 3500 
L 3609 3500 
L 1753 1863 
L 3688 0 
L 2938 0 
L 1159 1709 
L 1159 0 
L 581 0 
L 581 4863 
z
" transform="scale(0.015625)"/>
     </defs>
     <use xlink:href="#DejaVuSans-56"/>
     <use xlink:href="#DejaVuSans-65" x="60.658203"/>
     <use xlink:href="#DejaVuSans-6d" x="122.181641"/>
     <use xlink:href="#DejaVuSans-75" x="219.59375"/>
     <use xlink:href="#DejaVuSans-6e" x="282.972656"/>
     <use xlink:href="#DejaVuSans-64" x="346.351562"/>
     <use xlink:href="#DejaVuSans-2d" x="409.828125"/>
     <use xlink:href="#DejaVuSans-54" x="436.787109"/>
     <use xlink:href="#DejaVuSans-79" x="482.246094"/>
     <use xlink:href="#DejaVuSans-68" x="541.425781"/>
     <use xlink:href="#DejaVuSans-6f" x="604.804688"/>
     <use xlink:href="#DejaVuSans-6c" x="665.986328"/>
     <use xlink:href="#DejaVuSans-74" x="693.769531"/>
     <use xlink:href="#DejaVuSans-2d" x="732.978516"/>
     <use xlink:href="#DejaVuSans-76" x="766.4375"/>
     <use xlink:href="#DejaVuSans-69" x="825.617188"/>
     <use xlink:href="#DejaVuSans-6e" x="853.400391"/>
     <use xlink:href="#DejaVuSans-6b" x="916.779297"/>
     <use xlink:href="#DejaVuSans-65" x="971.064453"/>
     <use xlink:href="#DejaVuSans-6c" x="1032.587891"/>
    </g>
   </g>
   <g id="legend_1">
    <g id="patch_7">
     <path d="M 64.6 64.150125 
L 202.635937 64.150125 
Q 204.635937 64.150125 204.635937 62.150125 
L 204.635937 48.472 
Q 204.635937 46.472 202.635937 46.472 
L 64.6 46.472 
Q 62.6 46.472 62.6 48.472 
L 62.6 62.150125 
Q 62.6 64.150125 64.6 64.150125 
z
" style="fill: #ffffff; opacity: 0.8; stroke: #cccccc; stroke-linejoin: miter"/>
    </g>
    <g id="line2d_13">
     <path d="M 66.6 54.570438 
L 76.6 54.570438 
L 86.6 54.570438 
" style="fill: none; stroke: #1f77b4; stroke-width: 1.5; stroke-linecap: square"/>
    </g>
    <g id="text_15">
     <!-- Vemund-Tyholt-vinkel -->
     <g transform="translate(94.6 58.070438) scale(0.1 -0.1)">
      <use xlink:href="#DejaVuSans-56"/>
      <use xlink:href="#DejaVuSans-65" x="60.658203"/>
      <use xlink:href="#DejaVuSans-6d" x="122.181641"/>
      <use xlink:href="#DejaVuSans-75" x="219.59375"/>
      <use xlink:href="#DejaVuSans-6e" x="282.972656"/>
      <use xlink:href="#DejaVuSans-64" x="346.351562"/>
      <use xlink:href="#DejaVuSans-2d" x="409.828125"/>
      <use xlink:href="#DejaVuSans-54" x="436.787109"/>
      <use xlink:href="#DejaVuSans-79" x="482.246094"/>
      <use xlink:href="#DejaVuSans-68" x="541.425781"/>
      <use xlink:href="#DejaVuSans-6f" x="604.804688"/>
      <use xlink:href="#DejaVuSans-6c" x="665.986328"/>
      <use xlink:href="#DejaVuSans-74" x="693.769531"/>
      <use xlink:href="#DejaVuSans-2d" x="732.978516"/>
      <use xlink:href="#DejaVuSans-76" x="766.4375"/>
      <use xlink:href="#DejaVuSans-69" x="825.617188"/>
      <use xlink:href="#DejaVuSans-6e" x="853.400391"/>
      <use xlink:href="#DejaVuSans-6b" x="916.779297"/>
      <use xlink:href="#DejaVuSans-65" x="971.064453"/>
      <use xlink:href="#DejaVuSans-6c" x="1032.587891"/>
     </g>
    </g>
   </g>
  </g>
 </g>
 <defs>
  <clipPath id="p38a60cb1da">
   <rect x="57.6" y="41.472" width="357.12" height="266.112"/>
  </clipPath>
 </defs>
</svg>
