<?xml version="1.0" encoding="utf-8" standalone="no"?>
<!DOCTYPE svg PUBLIC "-//W3C//DTD SVG 1.1//EN"
  "http://www.w3.org/Graphics/SVG/1.1/DTD/svg11.dtd">
<svg xmlns:xlink="http://www.w3.org/1999/xlink" width="647.085938pt" height="458.691562pt" viewBox="0 0 647.085938 458.691562" xmlns="http://www.w3.org/2000/svg" version="1.1">
 <metadata>
  <rdf:RDF xmlns:dc="http://purl.org/dc/elements/1.1/" xmlns:cc="http://creativecommons.org/ns#" xmlns:rdf="http://www.w3.org/1999/02/22-rdf-syntax-ns#">
   <cc:Work>
    <dc:type rdf:resource="http://purl.org/dc/dcmitype/StillImage"/>
    <dc:date>2023-04-10T19:04:17.617711</dc:date>
    <dc:format>image/svg+xml</dc:format>
    <dc:creator>
     <cc:Agent>
      <dc:title>Matplotlib v3.7.1, https://matplotlib.org/</dc:title>
     </cc:Agent>
    </dc:creator>
   </cc:Work>
  </rdf:RDF>
 </metadata>
 <defs>
  <style type="text/css">*{stroke-linejoin: round; stroke-linecap: butt}</style>
 </defs>
 <g id="figure_1">
  <g id="patch_1">
   <path d="M 0 458.691562 
L 647.085938 458.691562 
L 647.085938 0 
L 0 0 
L 0 458.691562 
z
" style="fill: none"/>
  </g>
  <g id="axes_1">
   <g id="patch_2">
    <path d="M 81.885937 414.957187 
L 639.885937 414.957187 
L 639.885937 26.877187 
L 81.885937 26.877187 
L 81.885937 414.957187 
z
" style="fill: none"/>
   </g>
   <g id="matplotlib.axis_1">
    <g id="xtick_1">
     <g id="line2d_1">
      <path d="M 145.107844 414.957187 
L 145.107844 26.877187 
" clip-path="url(#p019380e8cd)" style="fill: none; stroke: #808080; stroke-width: 0.8; stroke-linecap: square"/>
     </g>
     <g id="line2d_2">
      <defs>
       <path id="mbf80e42691" d="M 0 0 
L 0 -5 
" style="stroke: #808080; stroke-width: 0.8"/>
      </defs>
      <g>
       <use xlink:href="#mbf80e42691" x="145.107844" y="414.957187" style="fill: #808080; stroke: #808080; stroke-width: 0.8"/>
      </g>
     </g>
     <g id="text_1">
      <!-- 25 -->
      <g style="fill: #808080" transform="translate(135.564094 429.854844) scale(0.15 -0.15)">
       <defs>
        <path id="DejaVuSans-32" d="M 1228 531 
L 3431 531 
L 3431 0 
L 469 0 
L 469 531 
Q 828 903 1448 1529 
Q 2069 2156 2228 2338 
Q 2531 2678 2651 2914 
Q 2772 3150 2772 3378 
Q 2772 3750 2511 3984 
Q 2250 4219 1831 4219 
Q 1534 4219 1204 4116 
Q 875 4013 500 3803 
L 500 4441 
Q 881 4594 1212 4672 
Q 1544 4750 1819 4750 
Q 2544 4750 2975 4387 
Q 3406 4025 3406 3419 
Q 3406 3131 3298 2873 
Q 3191 2616 2906 2266 
Q 2828 2175 2409 1742 
Q 1991 1309 1228 531 
z
" transform="scale(0.015625)"/>
        <path id="DejaVuSans-35" d="M 691 4666 
L 3169 4666 
L 3169 4134 
L 1269 4134 
L 1269 2991 
Q 1406 3038 1543 3061 
Q 1681 3084 1819 3084 
Q 2600 3084 3056 2656 
Q 3513 2228 3513 1497 
Q 3513 744 3044 326 
Q 2575 -91 1722 -91 
Q 1428 -91 1123 -41 
Q 819 9 494 109 
L 494 744 
Q 775 591 1075 516 
Q 1375 441 1709 441 
Q 2250 441 2565 725 
Q 2881 1009 2881 1497 
Q 2881 1984 2565 2268 
Q 2250 2553 1709 2553 
Q 1456 2553 1204 2497 
Q 953 2441 691 2322 
L 691 4666 
z
" transform="scale(0.015625)"/>
       </defs>
       <use xlink:href="#DejaVuSans-32"/>
       <use xlink:href="#DejaVuSans-35" x="63.623047"/>
      </g>
     </g>
    </g>
    <g id="xtick_2">
     <g id="line2d_3">
      <path d="M 239.06218 414.957187 
L 239.06218 26.877187 
" clip-path="url(#p019380e8cd)" style="fill: none; stroke: #808080; stroke-width: 0.8; stroke-linecap: square"/>
     </g>
     <g id="line2d_4">
      <g>
       <use xlink:href="#mbf80e42691" x="239.06218" y="414.957187" style="fill: #808080; stroke: #808080; stroke-width: 0.8"/>
      </g>
     </g>
     <g id="text_2">
      <!-- 30 -->
      <g style="fill: #808080" transform="translate(229.51843 429.854844) scale(0.15 -0.15)">
       <defs>
        <path id="DejaVuSans-33" d="M 2597 2516 
Q 3050 2419 3304 2112 
Q 3559 1806 3559 1356 
Q 3559 666 3084 287 
Q 2609 -91 1734 -91 
Q 1441 -91 1130 -33 
Q 819 25 488 141 
L 488 750 
Q 750 597 1062 519 
Q 1375 441 1716 441 
Q 2309 441 2620 675 
Q 2931 909 2931 1356 
Q 2931 1769 2642 2001 
Q 2353 2234 1838 2234 
L 1294 2234 
L 1294 2753 
L 1863 2753 
Q 2328 2753 2575 2939 
Q 2822 3125 2822 3475 
Q 2822 3834 2567 4026 
Q 2313 4219 1838 4219 
Q 1578 4219 1281 4162 
Q 984 4106 628 3988 
L 628 4550 
Q 988 4650 1302 4700 
Q 1616 4750 1894 4750 
Q 2613 4750 3031 4423 
Q 3450 4097 3450 3541 
Q 3450 3153 3228 2886 
Q 3006 2619 2597 2516 
z
" transform="scale(0.015625)"/>
        <path id="DejaVuSans-30" d="M 2034 4250 
Q 1547 4250 1301 3770 
Q 1056 3291 1056 2328 
Q 1056 1369 1301 889 
Q 1547 409 2034 409 
Q 2525 409 2770 889 
Q 3016 1369 3016 2328 
Q 3016 3291 2770 3770 
Q 2525 4250 2034 4250 
z
M 2034 4750 
Q 2819 4750 3233 4129 
Q 3647 3509 3647 2328 
Q 3647 1150 3233 529 
Q 2819 -91 2034 -91 
Q 1250 -91 836 529 
Q 422 1150 422 2328 
Q 422 3509 836 4129 
Q 1250 4750 2034 4750 
z
" transform="scale(0.015625)"/>
       </defs>
       <use xlink:href="#DejaVuSans-33"/>
       <use xlink:href="#DejaVuSans-30" x="63.623047"/>
      </g>
     </g>
    </g>
    <g id="xtick_3">
     <g id="line2d_5">
      <path d="M 333.016516 414.957187 
L 333.016516 26.877187 
" clip-path="url(#p019380e8cd)" style="fill: none; stroke: #808080; stroke-width: 0.8; stroke-linecap: square"/>
     </g>
     <g id="line2d_6">
      <g>
       <use xlink:href="#mbf80e42691" x="333.016516" y="414.957187" style="fill: #808080; stroke: #808080; stroke-width: 0.8"/>
      </g>
     </g>
     <g id="text_3">
      <!-- 35 -->
      <g style="fill: #808080" transform="translate(323.472766 429.854844) scale(0.15 -0.15)">
       <use xlink:href="#DejaVuSans-33"/>
       <use xlink:href="#DejaVuSans-35" x="63.623047"/>
      </g>
     </g>
    </g>
    <g id="xtick_4">
     <g id="line2d_7">
      <path d="M 426.970853 414.957187 
L 426.970853 26.877187 
" clip-path="url(#p019380e8cd)" style="fill: none; stroke: #808080; stroke-width: 0.8; stroke-linecap: square"/>
     </g>
     <g id="line2d_8">
      <g>
       <use xlink:href="#mbf80e42691" x="426.970853" y="414.957187" style="fill: #808080; stroke: #808080; stroke-width: 0.8"/>
      </g>
     </g>
     <g id="text_4">
      <!-- 40 -->
      <g style="fill: #808080" transform="translate(417.427103 429.854844) scale(0.15 -0.15)">
       <defs>
        <path id="DejaVuSans-34" d="M 2419 4116 
L 825 1625 
L 2419 1625 
L 2419 4116 
z
M 2253 4666 
L 3047 4666 
L 3047 1625 
L 3713 1625 
L 3713 1100 
L 3047 1100 
L 3047 0 
L 2419 0 
L 2419 1100 
L 313 1100 
L 313 1709 
L 2253 4666 
z
" transform="scale(0.015625)"/>
       </defs>
       <use xlink:href="#DejaVuSans-34"/>
       <use xlink:href="#DejaVuSans-30" x="63.623047"/>
      </g>
     </g>
    </g>
    <g id="xtick_5">
     <g id="line2d_9">
      <path d="M 520.925189 414.957187 
L 520.925189 26.877187 
" clip-path="url(#p019380e8cd)" style="fill: none; stroke: #808080; stroke-width: 0.8; stroke-linecap: square"/>
     </g>
     <g id="line2d_10">
      <g>
       <use xlink:href="#mbf80e42691" x="520.925189" y="414.957187" style="fill: #808080; stroke: #808080; stroke-width: 0.8"/>
      </g>
     </g>
     <g id="text_5">
      <!-- 45 -->
      <g style="fill: #808080" transform="translate(511.381439 429.854844) scale(0.15 -0.15)">
       <use xlink:href="#DejaVuSans-34"/>
       <use xlink:href="#DejaVuSans-35" x="63.623047"/>
      </g>
     </g>
    </g>
    <g id="xtick_6">
     <g id="line2d_11">
      <path d="M 614.879525 414.957187 
L 614.879525 26.877187 
" clip-path="url(#p019380e8cd)" style="fill: none; stroke: #808080; stroke-width: 0.8; stroke-linecap: square"/>
     </g>
     <g id="line2d_12">
      <g>
       <use xlink:href="#mbf80e42691" x="614.879525" y="414.957187" style="fill: #808080; stroke: #808080; stroke-width: 0.8"/>
      </g>
     </g>
     <g id="text_6">
      <!-- 50 -->
      <g style="fill: #808080" transform="translate(605.335775 429.854844) scale(0.15 -0.15)">
       <use xlink:href="#DejaVuSans-35"/>
       <use xlink:href="#DejaVuSans-30" x="63.623047"/>
      </g>
     </g>
    </g>
    <g id="text_7">
     <!-- time [s] -->
     <g style="fill: #808080" transform="translate(331.798828 448.372031) scale(0.15 -0.15)">
      <defs>
       <path id="DejaVuSans-74" d="M 1172 4494 
L 1172 3500 
L 2356 3500 
L 2356 3053 
L 1172 3053 
L 1172 1153 
Q 1172 725 1289 603 
Q 1406 481 1766 481 
L 2356 481 
L 2356 0 
L 1766 0 
Q 1100 0 847 248 
Q 594 497 594 1153 
L 594 3053 
L 172 3053 
L 172 3500 
L 594 3500 
L 594 4494 
L 1172 4494 
z
" transform="scale(0.015625)"/>
       <path id="DejaVuSans-69" d="M 603 3500 
L 1178 3500 
L 1178 0 
L 603 0 
L 603 3500 
z
M 603 4863 
L 1178 4863 
L 1178 4134 
L 603 4134 
L 603 4863 
z
" transform="scale(0.015625)"/>
       <path id="DejaVuSans-6d" d="M 3328 2828 
Q 3544 3216 3844 3400 
Q 4144 3584 4550 3584 
Q 5097 3584 5394 3201 
Q 5691 2819 5691 2113 
L 5691 0 
L 5113 0 
L 5113 2094 
Q 5113 2597 4934 2840 
Q 4756 3084 4391 3084 
Q 3944 3084 3684 2787 
Q 3425 2491 3425 1978 
L 3425 0 
L 2847 0 
L 2847 2094 
Q 2847 2600 2669 2842 
Q 2491 3084 2119 3084 
Q 1678 3084 1418 2786 
Q 1159 2488 1159 1978 
L 1159 0 
L 581 0 
L 581 3500 
L 1159 3500 
L 1159 2956 
Q 1356 3278 1631 3431 
Q 1906 3584 2284 3584 
Q 2666 3584 2933 3390 
Q 3200 3197 3328 2828 
z
" transform="scale(0.015625)"/>
       <path id="DejaVuSans-65" d="M 3597 1894 
L 3597 1613 
L 953 1613 
Q 991 1019 1311 708 
Q 1631 397 2203 397 
Q 2534 397 2845 478 
Q 3156 559 3463 722 
L 3463 178 
Q 3153 47 2828 -22 
Q 2503 -91 2169 -91 
Q 1331 -91 842 396 
Q 353 884 353 1716 
Q 353 2575 817 3079 
Q 1281 3584 2069 3584 
Q 2775 3584 3186 3129 
Q 3597 2675 3597 1894 
z
M 3022 2063 
Q 3016 2534 2758 2815 
Q 2500 3097 2075 3097 
Q 1594 3097 1305 2825 
Q 1016 2553 972 2059 
L 3022 2063 
z
" transform="scale(0.015625)"/>
       <path id="DejaVuSans-20" transform="scale(0.015625)"/>
       <path id="DejaVuSans-5b" d="M 550 4863 
L 1875 4863 
L 1875 4416 
L 1125 4416 
L 1125 -397 
L 1875 -397 
L 1875 -844 
L 550 -844 
L 550 4863 
z
" transform="scale(0.015625)"/>
       <path id="DejaVuSans-73" d="M 2834 3397 
L 2834 2853 
Q 2591 2978 2328 3040 
Q 2066 3103 1784 3103 
Q 1356 3103 1142 2972 
Q 928 2841 928 2578 
Q 928 2378 1081 2264 
Q 1234 2150 1697 2047 
L 1894 2003 
Q 2506 1872 2764 1633 
Q 3022 1394 3022 966 
Q 3022 478 2636 193 
Q 2250 -91 1575 -91 
Q 1294 -91 989 -36 
Q 684 19 347 128 
L 347 722 
Q 666 556 975 473 
Q 1284 391 1588 391 
Q 1994 391 2212 530 
Q 2431 669 2431 922 
Q 2431 1156 2273 1281 
Q 2116 1406 1581 1522 
L 1381 1569 
Q 847 1681 609 1914 
Q 372 2147 372 2553 
Q 372 3047 722 3315 
Q 1072 3584 1716 3584 
Q 2034 3584 2315 3537 
Q 2597 3491 2834 3397 
z
" transform="scale(0.015625)"/>
       <path id="DejaVuSans-5d" d="M 1947 4863 
L 1947 -844 
L 622 -844 
L 622 -397 
L 1369 -397 
L 1369 4416 
L 622 4416 
L 622 4863 
L 1947 4863 
z
" transform="scale(0.015625)"/>
      </defs>
      <use xlink:href="#DejaVuSans-74"/>
      <use xlink:href="#DejaVuSans-69" x="39.208984"/>
      <use xlink:href="#DejaVuSans-6d" x="66.992188"/>
      <use xlink:href="#DejaVuSans-65" x="164.404297"/>
      <use xlink:href="#DejaVuSans-20" x="225.927734"/>
      <use xlink:href="#DejaVuSans-5b" x="257.714844"/>
      <use xlink:href="#DejaVuSans-73" x="296.728516"/>
      <use xlink:href="#DejaVuSans-5d" x="348.828125"/>
     </g>
    </g>
   </g>
   <g id="matplotlib.axis_2">
    <g id="ytick_1">
     <g id="line2d_13">
      <path d="M 81.885937 371.686754 
L 639.885937 371.686754 
" clip-path="url(#p019380e8cd)" style="fill: none; stroke: #808080; stroke-width: 0.8; stroke-linecap: square"/>
     </g>
     <g id="line2d_14">
      <defs>
       <path id="mf46292b832" d="M 0 0 
L 5 0 
" style="stroke: #808080; stroke-width: 0.8"/>
      </defs>
      <g>
       <use xlink:href="#mf46292b832" x="81.885937" y="371.686754" style="fill: #808080; stroke: #808080; stroke-width: 0.8"/>
      </g>
     </g>
     <g id="text_8">
      <!-- 267.00 -->
      <g style="fill: #808080" transform="translate(25.9 377.385582) scale(0.15 -0.15)">
       <defs>
        <path id="DejaVuSans-36" d="M 2113 2584 
Q 1688 2584 1439 2293 
Q 1191 2003 1191 1497 
Q 1191 994 1439 701 
Q 1688 409 2113 409 
Q 2538 409 2786 701 
Q 3034 994 3034 1497 
Q 3034 2003 2786 2293 
Q 2538 2584 2113 2584 
z
M 3366 4563 
L 3366 3988 
Q 3128 4100 2886 4159 
Q 2644 4219 2406 4219 
Q 1781 4219 1451 3797 
Q 1122 3375 1075 2522 
Q 1259 2794 1537 2939 
Q 1816 3084 2150 3084 
Q 2853 3084 3261 2657 
Q 3669 2231 3669 1497 
Q 3669 778 3244 343 
Q 2819 -91 2113 -91 
Q 1303 -91 875 529 
Q 447 1150 447 2328 
Q 447 3434 972 4092 
Q 1497 4750 2381 4750 
Q 2619 4750 2861 4703 
Q 3103 4656 3366 4563 
z
" transform="scale(0.015625)"/>
        <path id="DejaVuSans-37" d="M 525 4666 
L 3525 4666 
L 3525 4397 
L 1831 0 
L 1172 0 
L 2766 4134 
L 525 4134 
L 525 4666 
z
" transform="scale(0.015625)"/>
        <path id="DejaVuSans-2e" d="M 684 794 
L 1344 794 
L 1344 0 
L 684 0 
L 684 794 
z
" transform="scale(0.015625)"/>
       </defs>
       <use xlink:href="#DejaVuSans-32"/>
       <use xlink:href="#DejaVuSans-36" x="63.623047"/>
       <use xlink:href="#DejaVuSans-37" x="127.246094"/>
       <use xlink:href="#DejaVuSans-2e" x="190.869141"/>
       <use xlink:href="#DejaVuSans-30" x="222.65625"/>
       <use xlink:href="#DejaVuSans-30" x="286.279297"/>
      </g>
     </g>
    </g>
    <g id="ytick_2">
     <g id="line2d_15">
      <path d="M 81.885937 325.682682 
L 639.885937 325.682682 
" clip-path="url(#p019380e8cd)" style="fill: none; stroke: #808080; stroke-width: 0.8; stroke-linecap: square"/>
     </g>
     <g id="line2d_16">
      <g>
       <use xlink:href="#mf46292b832" x="81.885937" y="325.682682" style="fill: #808080; stroke: #808080; stroke-width: 0.8"/>
      </g>
     </g>
     <g id="text_9">
      <!-- 267.25 -->
      <g style="fill: #808080" transform="translate(25.9 331.38151) scale(0.15 -0.15)">
       <use xlink:href="#DejaVuSans-32"/>
       <use xlink:href="#DejaVuSans-36" x="63.623047"/>
       <use xlink:href="#DejaVuSans-37" x="127.246094"/>
       <use xlink:href="#DejaVuSans-2e" x="190.869141"/>
       <use xlink:href="#DejaVuSans-32" x="222.65625"/>
       <use xlink:href="#DejaVuSans-35" x="286.279297"/>
      </g>
     </g>
    </g>
    <g id="ytick_3">
     <g id="line2d_17">
      <path d="M 81.885937 279.67861 
L 639.885937 279.67861 
" clip-path="url(#p019380e8cd)" style="fill: none; stroke: #808080; stroke-width: 0.8; stroke-linecap: square"/>
     </g>
     <g id="line2d_18">
      <g>
       <use xlink:href="#mf46292b832" x="81.885937" y="279.67861" style="fill: #808080; stroke: #808080; stroke-width: 0.8"/>
      </g>
     </g>
     <g id="text_10">
      <!-- 267.50 -->
      <g style="fill: #808080" transform="translate(25.9 285.377438) scale(0.15 -0.15)">
       <use xlink:href="#DejaVuSans-32"/>
       <use xlink:href="#DejaVuSans-36" x="63.623047"/>
       <use xlink:href="#DejaVuSans-37" x="127.246094"/>
       <use xlink:href="#DejaVuSans-2e" x="190.869141"/>
       <use xlink:href="#DejaVuSans-35" x="222.65625"/>
       <use xlink:href="#DejaVuSans-30" x="286.279297"/>
      </g>
     </g>
    </g>
    <g id="ytick_4">
     <g id="line2d_19">
      <path d="M 81.885937 233.674538 
L 639.885937 233.674538 
" clip-path="url(#p019380e8cd)" style="fill: none; stroke: #808080; stroke-width: 0.8; stroke-linecap: square"/>
     </g>
     <g id="line2d_20">
      <g>
       <use xlink:href="#mf46292b832" x="81.885937" y="233.674538" style="fill: #808080; stroke: #808080; stroke-width: 0.8"/>
      </g>
     </g>
     <g id="text_11">
      <!-- 267.75 -->
      <g style="fill: #808080" transform="translate(25.9 239.373367) scale(0.15 -0.15)">
       <use xlink:href="#DejaVuSans-32"/>
       <use xlink:href="#DejaVuSans-36" x="63.623047"/>
       <use xlink:href="#DejaVuSans-37" x="127.246094"/>
       <use xlink:href="#DejaVuSans-2e" x="190.869141"/>
       <use xlink:href="#DejaVuSans-37" x="222.65625"/>
       <use xlink:href="#DejaVuSans-35" x="286.279297"/>
      </g>
     </g>
    </g>
    <g id="ytick_5">
     <g id="line2d_21">
      <path d="M 81.885937 187.670467 
L 639.885937 187.670467 
" clip-path="url(#p019380e8cd)" style="fill: none; stroke: #808080; stroke-width: 0.8; stroke-linecap: square"/>
     </g>
     <g id="line2d_22">
      <g>
       <use xlink:href="#mf46292b832" x="81.885937" y="187.670467" style="fill: #808080; stroke: #808080; stroke-width: 0.8"/>
      </g>
     </g>
     <g id="text_12">
      <!-- 268.00 -->
      <g style="fill: #808080" transform="translate(25.9 193.369295) scale(0.15 -0.15)">
       <defs>
        <path id="DejaVuSans-38" d="M 2034 2216 
Q 1584 2216 1326 1975 
Q 1069 1734 1069 1313 
Q 1069 891 1326 650 
Q 1584 409 2034 409 
Q 2484 409 2743 651 
Q 3003 894 3003 1313 
Q 3003 1734 2745 1975 
Q 2488 2216 2034 2216 
z
M 1403 2484 
Q 997 2584 770 2862 
Q 544 3141 544 3541 
Q 544 4100 942 4425 
Q 1341 4750 2034 4750 
Q 2731 4750 3128 4425 
Q 3525 4100 3525 3541 
Q 3525 3141 3298 2862 
Q 3072 2584 2669 2484 
Q 3125 2378 3379 2068 
Q 3634 1759 3634 1313 
Q 3634 634 3220 271 
Q 2806 -91 2034 -91 
Q 1263 -91 848 271 
Q 434 634 434 1313 
Q 434 1759 690 2068 
Q 947 2378 1403 2484 
z
M 1172 3481 
Q 1172 3119 1398 2916 
Q 1625 2713 2034 2713 
Q 2441 2713 2670 2916 
Q 2900 3119 2900 3481 
Q 2900 3844 2670 4047 
Q 2441 4250 2034 4250 
Q 1625 4250 1398 4047 
Q 1172 3844 1172 3481 
z
" transform="scale(0.015625)"/>
       </defs>
       <use xlink:href="#DejaVuSans-32"/>
       <use xlink:href="#DejaVuSans-36" x="63.623047"/>
       <use xlink:href="#DejaVuSans-38" x="127.246094"/>
       <use xlink:href="#DejaVuSans-2e" x="190.869141"/>
       <use xlink:href="#DejaVuSans-30" x="222.65625"/>
       <use xlink:href="#DejaVuSans-30" x="286.279297"/>
      </g>
     </g>
    </g>
    <g id="ytick_6">
     <g id="line2d_23">
      <path d="M 81.885937 141.666395 
L 639.885937 141.666395 
" clip-path="url(#p019380e8cd)" style="fill: none; stroke: #808080; stroke-width: 0.8; stroke-linecap: square"/>
     </g>
     <g id="line2d_24">
      <g>
       <use xlink:href="#mf46292b832" x="81.885937" y="141.666395" style="fill: #808080; stroke: #808080; stroke-width: 0.8"/>
      </g>
     </g>
     <g id="text_13">
      <!-- 268.25 -->
      <g style="fill: #808080" transform="translate(25.9 147.365223) scale(0.15 -0.15)">
       <use xlink:href="#DejaVuSans-32"/>
       <use xlink:href="#DejaVuSans-36" x="63.623047"/>
       <use xlink:href="#DejaVuSans-38" x="127.246094"/>
       <use xlink:href="#DejaVuSans-2e" x="190.869141"/>
       <use xlink:href="#DejaVuSans-32" x="222.65625"/>
       <use xlink:href="#DejaVuSans-35" x="286.279297"/>
      </g>
     </g>
    </g>
    <g id="ytick_7">
     <g id="line2d_25">
      <path d="M 81.885937 95.662323 
L 639.885937 95.662323 
" clip-path="url(#p019380e8cd)" style="fill: none; stroke: #808080; stroke-width: 0.8; stroke-linecap: square"/>
     </g>
     <g id="line2d_26">
      <g>
       <use xlink:href="#mf46292b832" x="81.885937" y="95.662323" style="fill: #808080; stroke: #808080; stroke-width: 0.8"/>
      </g>
     </g>
     <g id="text_14">
      <!-- 268.50 -->
      <g style="fill: #808080" transform="translate(25.9 101.361151) scale(0.15 -0.15)">
       <use xlink:href="#DejaVuSans-32"/>
       <use xlink:href="#DejaVuSans-36" x="63.623047"/>
       <use xlink:href="#DejaVuSans-38" x="127.246094"/>
       <use xlink:href="#DejaVuSans-2e" x="190.869141"/>
       <use xlink:href="#DejaVuSans-35" x="222.65625"/>
       <use xlink:href="#DejaVuSans-30" x="286.279297"/>
      </g>
     </g>
    </g>
    <g id="ytick_8">
     <g id="line2d_27">
      <path d="M 81.885937 49.658252 
L 639.885937 49.658252 
" clip-path="url(#p019380e8cd)" style="fill: none; stroke: #808080; stroke-width: 0.8; stroke-linecap: square"/>
     </g>
     <g id="line2d_28">
      <g>
       <use xlink:href="#mf46292b832" x="81.885937" y="49.658252" style="fill: #808080; stroke: #808080; stroke-width: 0.8"/>
      </g>
     </g>
     <g id="text_15">
      <!-- 268.75 -->
      <g style="fill: #808080" transform="translate(25.9 55.35708) scale(0.15 -0.15)">
       <use xlink:href="#DejaVuSans-32"/>
       <use xlink:href="#DejaVuSans-36" x="63.623047"/>
       <use xlink:href="#DejaVuSans-38" x="127.246094"/>
       <use xlink:href="#DejaVuSans-2e" x="190.869141"/>
       <use xlink:href="#DejaVuSans-37" x="222.65625"/>
       <use xlink:href="#DejaVuSans-35" x="286.279297"/>
      </g>
     </g>
    </g>
    <g id="text_16">
     <!-- $\theta$ [deg] -->
     <g style="fill: #808080" transform="translate(18.75 247.917187) rotate(-90) scale(0.15 -0.15)">
      <defs>
       <path id="DejaVuSans-Oblique-3b8" d="M 2913 2219 
L 925 2219 
Q 791 1284 928 888 
Q 1100 400 1566 400 
Q 2034 400 2391 891 
Q 2703 1322 2913 2219 
z
M 3009 2750 
Q 3094 3638 2984 3950 
Q 2813 4444 2353 4444 
Q 1875 4444 1525 3956 
Q 1250 3563 1034 2750 
L 3009 2750 
z
M 2444 4913 
Q 3194 4913 3494 4250 
Q 3794 3591 3566 2422 
Q 3341 1256 2781 594 
Q 2225 -72 1475 -72 
Q 722 -72 425 594 
Q 128 1256 353 2422 
Q 581 3591 1134 4250 
Q 1691 4913 2444 4913 
z
" transform="scale(0.015625)"/>
       <path id="DejaVuSans-64" d="M 2906 2969 
L 2906 4863 
L 3481 4863 
L 3481 0 
L 2906 0 
L 2906 525 
Q 2725 213 2448 61 
Q 2172 -91 1784 -91 
Q 1150 -91 751 415 
Q 353 922 353 1747 
Q 353 2572 751 3078 
Q 1150 3584 1784 3584 
Q 2172 3584 2448 3432 
Q 2725 3281 2906 2969 
z
M 947 1747 
Q 947 1113 1208 752 
Q 1469 391 1925 391 
Q 2381 391 2643 752 
Q 2906 1113 2906 1747 
Q 2906 2381 2643 2742 
Q 2381 3103 1925 3103 
Q 1469 3103 1208 2742 
Q 947 2381 947 1747 
z
" transform="scale(0.015625)"/>
       <path id="DejaVuSans-67" d="M 2906 1791 
Q 2906 2416 2648 2759 
Q 2391 3103 1925 3103 
Q 1463 3103 1205 2759 
Q 947 2416 947 1791 
Q 947 1169 1205 825 
Q 1463 481 1925 481 
Q 2391 481 2648 825 
Q 2906 1169 2906 1791 
z
M 3481 434 
Q 3481 -459 3084 -895 
Q 2688 -1331 1869 -1331 
Q 1566 -1331 1297 -1286 
Q 1028 -1241 775 -1147 
L 775 -588 
Q 1028 -725 1275 -790 
Q 1522 -856 1778 -856 
Q 2344 -856 2625 -561 
Q 2906 -266 2906 331 
L 2906 616 
Q 2728 306 2450 153 
Q 2172 0 1784 0 
Q 1141 0 747 490 
Q 353 981 353 1791 
Q 353 2603 747 3093 
Q 1141 3584 1784 3584 
Q 2172 3584 2450 3431 
Q 2728 3278 2906 2969 
L 2906 3500 
L 3481 3500 
L 3481 434 
z
" transform="scale(0.015625)"/>
      </defs>
      <use xlink:href="#DejaVuSans-Oblique-3b8" transform="translate(0 0.234375)"/>
      <use xlink:href="#DejaVuSans-20" transform="translate(61.181641 0.234375)"/>
      <use xlink:href="#DejaVuSans-5b" transform="translate(92.96875 0.234375)"/>
      <use xlink:href="#DejaVuSans-64" transform="translate(131.982422 0.234375)"/>
      <use xlink:href="#DejaVuSans-65" transform="translate(195.458984 0.234375)"/>
      <use xlink:href="#DejaVuSans-67" transform="translate(256.982422 0.234375)"/>
      <use xlink:href="#DejaVuSans-5d" transform="translate(320.458984 0.234375)"/>
     </g>
    </g>
   </g>
   <g id="line2d_29">
    <path d="M 107.249574 221.9737 
L 107.438497 224.804444 
L 108.005286 302.844719 
L 108.383149 239.411218 
L 108.572073 231.166247 
L 108.761015 231.019135 
L 108.949938 227.130597 
L 109.138862 199.968282 
L 109.327804 261.22861 
L 109.516727 251.352189 
L 109.705651 212.48296 
L 109.894593 206.943644 
L 110.083516 216.862856 
L 110.272439 197.246439 
L 110.461382 204.328759 
L 110.650305 204.36295 
L 110.839247 236.805418 
L 111.028171 240.820416 
L 111.406036 174.349288 
L 111.594959 220.341759 
L 111.972825 187.786629 
L 112.161749 199.590495 
L 112.350672 246.811744 
L 112.539614 193.542263 
L 112.728538 220.625725 
L 112.917461 171.359057 
L 113.106403 193.944964 
L 113.295326 155.87984 
L 113.48425 142.615372 
L 113.673192 190.372677 
L 114.051039 128.622278 
L 114.239981 147.637973 
L 114.428904 198.464865 
L 114.617827 143.100341 
L 114.80677 164.455236 
L 114.995693 172.988885 
L 115.184635 219.275664 
L 115.373559 135.413092 
L 115.562482 143.0729 
L 115.751424 184.139169 
L 115.940348 124.961284 
L 116.129271 102.060593 
L 116.318213 205.271794 
L 116.507136 156.313992 
L 116.69606 168.1238 
L 116.885002 153.776769 
L 117.073926 187.238676 
L 117.262849 119.822798 
L 117.451791 178.921553 
L 117.640714 139.1588 
L 117.829638 206.524717 
L 118.01858 202.681446 
L 118.207503 185.655834 
L 118.396427 155.53655 
L 118.585369 168.335601 
L 118.774292 125.984868 
L 118.963216 189.303561 
L 119.341081 178.345981 
L 119.530023 195.218719 
L 119.718947 182.577612 
L 120.096812 258.835394 
L 120.285736 287.857813 
L 120.474659 221.645231 
L 120.663601 248.964124 
L 120.852524 203.778616 
L 121.23039 227.731112 
L 121.419313 166.698578 
L 121.797179 239.174055 
L 121.986103 209.756407 
L 122.175026 151.017016 
L 122.552891 211.913206 
L 122.741815 206.993236 
L 122.930757 196.381428 
L 123.11968 171.844935 
L 123.308604 199.384571 
L 123.497546 194.186719 
L 123.686469 159.733721 
L 123.875393 151.485353 
L 124.064335 205.710262 
L 124.253258 158.789328 
L 124.4422 241.114836 
L 124.631124 185.339545 
L 124.820047 210.479859 
L 125.008989 218.980524 
L 125.197913 153.502126 
L 125.386836 204.021817 
L 125.575778 208.776227 
L 125.764701 220.060088 
L 125.953625 168.450375 
L 126.142567 179.584415 
L 126.33149 137.479731 
L 127.087203 155.621253 
L 127.276138 146.073743 
L 127.465061 207.312609 
L 127.653985 155.558071 
L 127.842927 136.202861 
L 128.03185 144.041165 
L 128.220774 141.747102 
L 128.409716 153.393568 
L 128.598639 147.39309 
L 128.787563 196.020988 
L 128.976505 204.987366 
L 129.165428 192.087587 
L 129.354351 155.660293 
L 129.543294 194.290071 
L 129.732217 169.748967 
L 130.110083 197.952257 
L 130.299006 193.156845 
L 130.487929 255.087798 
L 130.865795 165.340893 
L 131.054737 198.876952 
L 131.24366 204.168066 
L 131.432584 221.529019 
L 131.810449 131.030832 
L 131.999373 179.947814 
L 132.188315 154.093846 
L 132.566162 225.126811 
L 132.755104 232.424348 
L 133.321893 118.303562 
L 133.510816 179.822842 
L 133.888682 230.827899 
L 134.077605 210.456971 
L 134.266528 218.905515 
L 134.455471 170.724315 
L 134.644394 218.867618 
L 134.833317 214.035502 
L 135.02226 212.247247 
L 135.211183 138.894569 
L 135.400106 185.586859 
L 135.589048 192.013259 
L 135.777972 233.487233 
L 135.966895 219.179941 
L 136.155837 265.125654 
L 136.344761 261.176858 
L 136.533684 220.560068 
L 136.722626 230.944081 
L 136.91155 205.98158 
L 137.100473 235.149212 
L 137.289415 205.046704 
L 137.478339 194.692573 
L 137.667281 169.960469 
L 137.856204 239.91857 
L 138.045128 222.438841 
L 138.23407 193.852342 
L 138.422993 230.244857 
L 138.611916 209.907882 
L 138.800859 173.816383 
L 138.989782 168.619389 
L 139.178705 197.97149 
L 139.367648 148.161661 
L 139.556571 190.418467 
L 139.745494 189.025117 
L 139.934437 209.523156 
L 140.12336 284.018176 
L 140.312283 276.180417 
L 140.690149 218.574347 
L 140.879072 237.123285 
L 141.068014 223.666686 
L 141.256938 222.717842 
L 141.634803 244.245392 
L 141.823727 201.513898 
L 142.01265 290.460178 
L 142.201592 251.259478 
L 142.390516 171.594494 
L 142.579439 186.464549 
L 142.768381 167.990546 
L 143.146228 233.750248 
L 143.33517 156.657178 
L 143.524093 207.264998 
L 143.713017 220.34799 
L 143.901959 219.981652 
L 144.090882 213.309445 
L 144.279806 149.668043 
L 144.468748 171.269874 
L 144.657671 208.844657 
L 145.035537 233.27303 
L 145.22446 157.382544 
L 145.413384 184.046646 
L 145.602326 168.214304 
L 145.791249 208.81394 
L 145.980184 213.196224 
L 146.169127 206.317782 
L 146.35805 191.551864 
L 146.735915 250.04819 
L 147.113781 197.533267 
L 147.302704 280.222431 
L 147.68057 189.429944 
L 147.869493 227.006908 
L 148.058417 235.142256 
L 148.247359 184.559969 
L 148.436282 220.913552 
L 148.625205 229.411779 
L 148.814148 253.629633 
L 149.003071 200.787963 
L 149.191995 202.222025 
L 149.380937 201.044343 
L 149.56986 201.044343 
L 149.947725 255.714346 
L 150.136649 181.080585 
L 150.325572 217.513337 
L 150.514514 181.56821 
L 150.703438 210.765619 
L 150.892361 193.47181 
L 151.081304 130.416563 
L 151.270227 200.890665 
L 151.45915 204.34492 
L 151.648092 159.458351 
L 151.837016 197.564978 
L 152.214881 166.169089 
L 152.403805 192.284572 
L 152.592728 257.82126 
L 153.159517 150.461927 
L 153.348459 172.015005 
L 153.537382 180.455129 
L 153.726306 237.814272 
L 153.915248 242.642188 
L 154.104172 262.792554 
L 154.293095 214.62727 
L 154.482037 272.842321 
L 154.859884 254.011753 
L 155.048826 215.12561 
L 155.237749 210.800274 
L 155.426673 223.344277 
L 155.615615 209.760964 
L 155.804538 266.187033 
L 155.993462 257.060546 
L 156.182404 269.945957 
L 156.371327 244.810713 
L 156.749193 157.534163 
L 157.127039 217.273543 
L 157.504905 243.759409 
L 157.693829 189.682643 
L 157.88277 194.673154 
L 158.071694 211.661843 
L 158.260617 204.102875 
L 158.449559 253.268474 
L 158.827406 188.56752 
L 159.016349 259.259304 
L 159.205272 248.046889 
L 159.394195 276.950308 
L 159.583137 265.740102 
L 159.772061 262.892813 
L 159.960984 237.987478 
L 160.149926 258.058259 
L 160.33885 247.453469 
L 160.527773 191.884848 
L 160.716715 209.92041 
L 160.905639 162.049501 
L 161.094562 240.211331 
L 161.283504 201.430089 
L 161.472427 198.299701 
L 161.661351 212.821702 
L 161.850293 269.783004 
L 162.039217 282.20898 
L 162.22814 218.334943 
L 162.417082 274.183421 
L 162.794929 299.440471 
L 162.983871 235.613354 
L 163.361718 204.217966 
L 163.55066 202.179977 
L 163.739583 277.880296 
L 163.928507 300.83002 
L 164.117449 302.330736 
L 164.306372 318.007984 
L 164.495295 265.149605 
L 164.684238 277.371868 
L 164.873161 275.666935 
L 165.062084 231.757986 
L 165.251027 286.019165 
L 165.43995 197.977555 
L 165.628874 178.603656 
L 165.817815 252.558508 
L 166.006739 241.496121 
L 166.195662 191.928453 
L 166.384604 272.626752 
L 166.573528 305.655553 
L 166.76247 243.803132 
L 167.140317 300.674095 
L 167.32924 293.456038 
L 167.518182 261.299333 
L 167.707106 275.512067 
L 167.896048 194.582758 
L 168.084971 212.906497 
L 168.273895 247.071554 
L 168.462818 258.346402 
L 168.65176 200.922908 
L 168.840684 260.181661 
L 169.029607 215.572127 
L 169.407472 199.575687 
L 169.596396 228.941549 
L 169.785338 225.849643 
L 169.974261 197.630771 
L 170.163185 192.593997 
L 170.54105 277.298655 
L 170.729974 218.561546 
L 170.918916 232.716483 
L 171.107839 210.127772 
L 171.296763 201.201034 
L 171.485705 214.320227 
L 171.674628 239.42231 
L 171.863552 244.8952 
L 172.052494 244.8952 
L 172.241417 215.234631 
L 172.430341 226.427986 
L 172.619283 284.767647 
L 172.808206 268.595915 
L 172.997129 241.39253 
L 173.186072 249.505946 
L 173.374995 275.854381 
L 173.563919 252.352291 
L 173.752861 277.060275 
L 173.941784 262.110159 
L 174.130707 238.187645 
L 174.508573 219.868165 
L 174.697496 226.83051 
L 174.886439 263.293247 
L 175.075362 261.005844 
L 175.264285 204.961275 
L 175.453227 190.645092 
L 175.642151 191.261159 
L 175.831074 225.07146 
L 176.020016 212.459236 
L 176.20894 261.09326 
L 176.397863 198.017603 
L 176.586805 243.853228 
L 176.775729 230.805177 
L 176.964652 183.793166 
L 177.342517 247.250007 
L 177.531441 232.645888 
L 177.720383 246.926115 
L 177.909306 225.132685 
L 178.09823 236.132187 
L 178.287172 218.583498 
L 178.476095 183.230072 
L 178.665019 186.234937 
L 178.853961 185.865923 
L 179.231808 240.174573 
L 179.42075 201.449903 
L 179.609673 228.764161 
L 179.798597 212.575448 
L 179.987539 139.506121 
L 180.176462 182.459483 
L 180.365386 159.254301 
L 180.554328 166.192416 
L 180.743251 223.974009 
L 181.121117 136.9921 
L 181.498963 215.663529 
L 181.687906 234.307009 
L 182.065752 101.634538 
L 182.254694 186.977689 
L 182.443618 210.963411 
L 182.632541 210.663576 
L 182.821483 215.174164 
L 183.19933 187.066896 
L 183.388272 218.889334 
L 183.577196 225.235398 
L 183.766122 222.165983 
L 183.955064 257.295865 
L 184.143988 194.079057 
L 184.332911 236.388419 
L 184.521853 235.38531 
L 184.710777 272.757626 
L 184.8997 208.586071 
L 185.088642 198.591227 
L 185.277566 180.544606 
L 185.466489 228.26977 
L 185.655431 204.030157 
L 185.844355 206.342807 
L 186.033278 241.287244 
L 186.22222 201.461584 
L 186.411143 201.998497 
L 186.600067 125.048508 
L 186.789009 106.884451 
L 186.977932 150.49888 
L 187.355779 108.115706 
L 187.544721 160.056149 
L 187.733645 94.081067 
L 188.11151 129.31973 
L 188.300434 78.466836 
L 188.489357 88.101728 
L 188.678299 123.249433 
L 189.056146 232.094551 
L 189.245088 203.25241 
L 189.434011 146.043769 
L 189.622935 157.053934 
L 189.811877 108.471139 
L 190.189724 204.413086 
L 190.378666 165.773387 
L 190.567589 95.386344 
L 190.756513 162.136846 
L 190.945455 163.566229 
L 191.134378 143.990083 
L 191.323302 140.430559 
L 191.512244 205.141529 
L 191.701167 172.280353 
L 191.890091 248.035821 
L 192.267956 195.747418 
L 192.45688 224.93243 
L 192.645822 184.848668 
L 192.834745 179.525188 
L 193.023668 167.152068 
L 193.212611 223.340377 
L 193.401534 189.972118 
L 193.590457 187.448977 
L 193.7794 221.073143 
L 193.968323 222.620006 
L 194.157246 223.014058 
L 194.346188 215.782591 
L 194.535112 215.782591 
L 194.724035 181.220895 
L 195.101901 227.021226 
L 195.290824 225.454334 
L 195.479766 270.475477 
L 195.66869 258.522274 
L 195.857613 214.151714 
L 196.235479 243.09211 
L 196.424402 182.171312 
L 196.613325 181.774032 
L 196.802268 173.185761 
L 196.991191 203.926752 
L 197.180114 166.485947 
L 197.369056 234.390326 
L 197.55798 218.562164 
L 197.746903 147.841167 
L 198.313692 71.804605 
L 198.880481 207.307844 
L 199.069423 175.485271 
L 199.258347 172.299262 
L 199.636212 209.913872 
L 199.825136 172.327527 
L 200.014059 177.631339 
L 200.203001 173.964953 
L 200.391925 173.576924 
L 200.580848 166.842209 
L 200.76979 229.456352 
L 200.958713 217.808785 
L 201.147637 197.885358 
L 201.336579 216.67325 
L 201.525502 265.256551 
L 201.714426 227.21008 
L 201.903368 279.464055 
L 202.092291 217.861333 
L 202.281215 254.171797 
L 202.470156 232.215552 
L 202.659079 235.165053 
L 202.848003 190.609901 
L 203.036945 200.696991 
L 203.225868 183.19594 
L 203.414792 190.095958 
L 203.603715 231.032569 
L 203.792657 157.43362 
L 203.981581 191.61909 
L 204.170504 279.945532 
L 204.54837 184.166656 
L 204.737293 195.951528 
L 204.926235 148.593059 
L 205.115159 181.067353 
L 205.304082 188.391138 
L 205.493024 169.290051 
L 205.681947 229.694405 
L 206.059813 213.446531 
L 206.248736 234.47279 
L 206.43766 167.448339 
L 206.626602 208.632842 
L 206.815525 206.47414 
L 207.004449 214.569333 
L 207.193391 205.299922 
L 207.382314 207.442765 
L 207.571238 194.056521 
L 207.76018 136.741841 
L 207.949103 190.203835 
L 208.138027 196.891332 
L 208.326969 198.380218 
L 208.515892 234.921229 
L 208.704816 232.948447 
L 209.082681 262.022933 
L 209.271604 251.6667 
L 209.460528 214.259741 
L 209.838393 310.971915 
L 210.027317 252.584618 
L 210.216259 331.278709 
L 210.405182 323.652156 
L 210.594106 259.693868 
L 210.783048 250.837531 
L 210.971971 269.106344 
L 211.160895 271.375175 
L 211.53876 319.499901 
L 211.727684 299.792197 
L 211.916626 317.60314 
L 212.105549 302.466088 
L 212.294472 225.710751 
L 212.483415 239.471812 
L 212.672338 228.569407 
L 212.861261 232.407572 
L 213.42805 263.894321 
L 213.616992 228.315713 
L 213.805916 259.972168 
L 213.994839 244.308684 
L 214.372705 233.034749 
L 214.561628 211.177785 
L 214.750552 319.009245 
L 214.939494 362.083305 
L 215.31734 248.278276 
L 215.506283 226.271842 
L 215.695206 222.967428 
L 215.884129 226.778422 
L 216.073072 263.209127 
L 216.261995 203.955441 
L 216.450918 227.786524 
L 216.828784 336.130526 
L 217.017707 264.458089 
L 217.206649 242.010877 
L 217.395573 242.010877 
L 217.584496 253.921863 
L 217.773438 244.623378 
L 217.962362 210.953585 
L 218.151285 206.506466 
L 218.529151 169.467988 
L 218.718074 210.99205 
L 218.906997 189.975746 
L 219.09594 233.67899 
L 219.284863 185.06733 
L 219.662729 285.679565 
L 219.851652 229.633736 
L 220.040575 245.693628 
L 220.229517 225.608244 
L 220.418441 266.016798 
L 220.607364 243.16785 
L 220.796306 242.724014 
L 220.98523 229.363396 
L 221.174153 271.895723 
L 221.552012 218.211834 
L 221.740935 198.598779 
L 221.929877 209.309899 
L 222.118801 257.472968 
L 222.307724 218.912972 
L 222.496647 293.112861 
L 222.685589 252.105975 
L 222.874513 250.448347 
L 223.063436 242.461546 
L 223.252378 274.267266 
L 223.441302 262.490513 
L 223.630225 292.006716 
L 223.819167 239.460362 
L 224.197014 282.098057 
L 224.385956 347.152309 
L 224.57488 352.397041 
L 224.952745 253.131801 
L 225.141669 247.735105 
L 225.330592 268.71824 
L 225.519534 308.461447 
L 225.708458 311.715499 
L 226.086304 244.386081 
L 226.275246 270.751459 
L 226.46417 257.454027 
L 226.653093 307.322347 
L 227.030959 209.563263 
L 227.219882 220.382478 
L 227.597748 280.86677 
L 227.786671 301.2889 
L 227.975613 276.089705 
L 228.164537 268.242501 
L 228.35346 285.392006 
L 228.542402 233.503244 
L 228.731326 266.52322 
L 228.920249 255.102338 
L 229.109191 281.062739 
L 229.298114 222.434721 
L 229.487038 229.897242 
L 229.864903 197.20385 
L 230.053827 208.19775 
L 230.24275 240.610158 
L 230.620616 147.258516 
L 230.998481 285.878386 
L 231.187405 280.404068 
L 231.376328 284.545768 
L 231.56527 259.637869 
L 231.754194 278.163915 
L 231.943117 276.45079 
L 232.132059 264.905206 
L 232.320983 275.390216 
L 232.509906 257.368741 
L 232.698848 279.09041 
L 232.887771 278.387631 
L 233.076695 274.320628 
L 233.45456 258.032345 
L 233.832407 195.729673 
L 234.021349 246.39202 
L 234.210273 242.801541 
L 234.588138 278.078556 
L 234.777062 210.723696 
L 234.965985 201.406925 
L 235.154927 239.410713 
L 235.343851 235.457925 
L 235.532774 291.684517 
L 235.910639 221.036005 
L 236.099563 195.618122 
L 236.288486 185.231808 
L 236.477428 214.662368 
L 236.666352 280.733254 
L 236.855275 247.657227 
L 237.044217 238.160542 
L 237.233141 279.098612 
L 237.422064 294.776697 
L 237.611006 256.359719 
L 237.79993 287.842523 
L 237.988853 351.810319 
L 238.177795 270.9854 
L 238.366719 280.02143 
L 238.555642 344.304779 
L 239.122431 246.790358 
L 239.311373 278.725335 
L 239.68922 281.190797 
L 239.878143 281.190797 
L 240.444932 231.753554 
L 240.633874 226.937969 
L 240.822798 271.586937 
L 241.011721 273.880845 
L 241.200663 260.896298 
L 241.389586 281.232916 
L 241.57851 262.592839 
L 241.767452 281.470465 
L 241.956376 284.42826 
L 242.145299 273.112711 
L 242.334222 243.65221 
L 242.523165 264.22457 
L 242.712088 255.274789 
L 242.901011 257.148406 
L 243.089953 244.379673 
L 243.278877 367.824719 
L 243.4678 299.122629 
L 243.656742 304.791038 
L 243.845666 362.32531 
L 244.034589 288.942899 
L 244.223531 304.368706 
L 244.412454 300.668191 
L 244.601378 299.456194 
L 244.79032 318.632705 
L 245.168167 287.062952 
L 245.35709 304.491339 
L 245.546033 232.558385 
L 245.734956 227.176898 
L 245.923879 207.339032 
L 246.112821 240.699979 
L 246.301745 225.532455 
L 246.490668 178.777513 
L 246.67961 188.79791 
L 246.868534 204.878631 
L 247.057457 203.892599 
L 247.246399 242.687029 
L 247.435323 237.185984 
L 247.624246 248.589726 
L 247.813169 213.306163 
L 248.379958 274.761583 
L 248.568901 274.881347 
L 248.757824 218.770939 
L 248.946747 220.315577 
L 249.135689 361.246707 
L 249.324613 313.76665 
L 249.513536 322.114587 
L 249.702478 295.725387 
L 249.891402 286.747341 
L 250.458191 342.710833 
L 250.647114 326.088955 
L 250.836037 328.527784 
L 251.024979 295.225832 
L 251.213903 289.762832 
L 251.402826 321.776566 
L 251.591769 246.862447 
L 251.780692 274.315593 
L 251.969615 261.469539 
L 252.158558 258.499445 
L 252.536404 261.842125 
L 252.725327 289.586252 
L 252.91427 294.001634 
L 253.103193 284.565835 
L 253.292116 267.529549 
L 253.481059 285.972883 
L 253.669982 230.335333 
L 253.858905 297.99383 
L 254.047847 299.141746 
L 254.236771 272.475455 
L 254.614636 284.951638 
L 254.80356 314.168241 
L 254.992483 324.624073 
L 255.181426 290.974701 
L 255.370349 290.04665 
L 255.559272 265.509232 
L 255.748196 295.888644 
L 255.937138 247.458421 
L 256.126061 269.670142 
L 256.314984 277.182742 
L 256.503927 248.810933 
L 256.881774 289.779498 
L 257.259639 250.864093 
L 257.448562 305.843961 
L 257.637504 283.696614 
L 257.826428 277.029001 
L 258.204275 207.178964 
L 258.393217 216.224758 
L 258.771064 263.364633 
L 258.960018 293.500267 
L 259.148942 243.815515 
L 259.337865 275.882881 
L 259.526807 261.485686 
L 259.715731 230.949041 
L 259.904654 281.414143 
L 260.093577 274.500233 
L 260.282519 272.930356 
L 260.660366 279.230438 
L 260.849308 291.239441 
L 261.227155 231.857628 
L 261.416097 245.181467 
L 261.982886 314.009548 
L 262.17181 301.346471 
L 262.360733 301.346471 
L 262.549656 270.941166 
L 262.738599 269.027108 
L 262.927522 289.427409 
L 263.116445 283.084982 
L 263.305388 205.837208 
L 263.494311 200.521618 
L 263.683234 218.147764 
L 263.872176 262.731234 
L 264.0611 250.513144 
L 264.250023 252.797449 
L 264.438965 237.158977 
L 264.627889 276.852587 
L 264.816812 263.379411 
L 265.194678 202.318434 
L 265.383601 190.347195 
L 265.572524 229.247641 
L 265.761467 202.888302 
L 265.95039 214.08425 
L 266.139313 202.249925 
L 266.328256 211.481287 
L 266.706102 238.561408 
L 266.895026 240.571419 
L 267.083968 241.148154 
L 267.272891 273.25859 
L 267.461815 211.678768 
L 267.83968 246.039682 
L 268.028604 215.673982 
L 268.217546 158.457532 
L 268.406469 224.371652 
L 268.784316 128.369318 
L 268.973258 132.159468 
L 269.351105 196.982596 
L 269.540047 217.074443 
L 269.72897 300.754065 
L 269.917894 217.03808 
L 270.106836 226.169367 
L 270.295759 188.019242 
L 270.484683 122.176725 
L 270.673625 193.58721 
L 270.862548 194.127923 
L 271.051472 197.239682 
L 271.240395 197.371476 
L 271.429337 231.243301 
L 271.61826 198.001388 
L 271.807184 242.922966 
L 272.185049 140.362042 
L 272.373973 191.00562 
L 272.562915 186.111699 
L 272.751838 162.230606 
L 273.129685 231.952926 
L 273.318627 226.920954 
L 273.696474 284.980591 
L 273.885416 156.203028 
L 274.263263 228.906785 
L 274.641128 117.194056 
L 274.830052 142.809647 
L 275.018975 136.353869 
L 275.207917 173.577822 
L 275.396841 137.194847 
L 275.774706 180.468506 
L 275.96363 199.910536 
L 276.341495 275.401449 
L 276.530419 257.93033 
L 276.719342 253.187739 
L 277.097208 172.078362 
L 277.286131 145.842029 
L 277.475054 197.060613 
L 277.663996 189.3773 
L 277.852919 158.900323 
L 278.041843 180.908368 
L 278.230785 156.490233 
L 278.419708 174.174752 
L 278.608631 222.599814 
L 278.797555 190.901237 
L 278.986497 258.204324 
L 279.17542 278.806815 
L 279.364344 202.648978 
L 279.553286 257.41347 
L 279.742209 199.56516 
L 279.931133 212.463234 
L 280.120075 236.678346 
L 280.308998 235.132053 
L 280.497922 180.886088 
L 280.686845 206.166178 
L 280.875787 204.839801 
L 281.064711 205.278006 
L 281.253634 249.767273 
L 281.442576 244.430373 
L 281.631499 258.827633 
L 281.820423 199.986847 
L 282.009365 222.992373 
L 282.198288 215.437688 
L 282.387212 222.347483 
L 282.576135 223.204793 
L 282.765077 222.902712 
L 283.142924 284.331704 
L 283.331866 254.801628 
L 283.52079 264.606329 
L 283.709713 228.201611 
L 283.898655 264.929323 
L 284.087579 245.852681 
L 284.276502 203.281802 
L 284.465425 192.586717 
L 284.654367 207.03735 
L 284.843291 256.23263 
L 285.032214 256.23263 
L 285.221156 232.901827 
L 285.41008 168.182599 
L 285.787927 249.615375 
L 286.165792 210.359783 
L 286.354715 248.478092 
L 286.543658 224.27014 
L 286.732581 232.075275 
L 286.921504 258.418491 
L 287.29937 250.445555 
L 287.488293 214.024706 
L 287.677217 269.707525 
L 288.055082 251.705672 
L 288.244006 206.76369 
L 288.432948 245.439884 
L 288.621871 259.181596 
L 288.999737 202.672902 
L 289.18866 182.07158 
L 289.377584 147.838581 
L 289.566507 209.489716 
L 289.755449 221.811916 
L 289.944372 245.002118 
L 290.133296 199.75277 
L 290.322238 190.220571 
L 290.511161 188.709456 
L 290.700085 182.853752 
L 290.889008 232.617264 
L 291.07795 239.873304 
L 291.266874 226.372849 
L 291.644739 176.351772 
L 291.833663 226.24297 
L 292.400452 148.141982 
L 292.589375 177.409455 
L 292.778298 167.376468 
L 292.96724 204.699355 
L 293.156164 207.708936 
L 293.345087 173.35461 
L 293.534029 167.330295 
L 293.722953 241.812308 
L 293.911876 238.257758 
L 294.1008 225.603254 
L 294.289742 189.707964 
L 294.478665 239.422529 
L 294.856531 262.868597 
L 295.045454 291.408271 
L 295.234377 266.353551 
L 295.42332 220.628614 
L 295.612243 253.152966 
L 295.801166 241.13391 
L 295.99009 265.108251 
L 296.179032 186.709286 
L 296.367955 250.258511 
L 296.556879 268.365917 
L 296.745821 257.058391 
L 296.934744 192.623318 
L 297.123668 176.481323 
L 297.31261 198.386304 
L 297.501533 180.299416 
L 297.690456 235.571529 
L 297.87938 221.636347 
L 298.068322 260.931805 
L 298.257245 226.643189 
L 298.446169 253.10624 
L 298.635111 258.070032 
L 298.824034 229.732905 
L 299.012958 313.113611 
L 299.201881 262.252146 
L 299.390823 262.78117 
L 299.579747 275.593132 
L 299.76867 275.946632 
L 299.957612 305.102753 
L 300.146536 253.025394 
L 300.335459 234.538126 
L 300.524382 248.681148 
L 300.902248 216.630499 
L 301.091171 226.80165 
L 301.280113 248.401584 
L 301.469037 285.661868 
L 301.65796 207.692432 
L 302.035826 256.584044 
L 302.224749 294.667349 
L 302.602615 298.914784 
L 302.791538 263.310757 
L 303.169404 320.888954 
L 303.358327 301.325554 
L 303.54725 238.307948 
L 303.925116 286.750319 
L 304.114039 248.438346 
L 304.302963 299.933848 
L 304.491905 192.274072 
L 304.869752 284.681678 
L 305.058675 221.571078 
L 305.247617 230.709025 
L 305.436541 232.681685 
L 305.625464 231.806128 
L 305.814406 229.896242 
L 306.003329 232.696425 
L 306.192253 202.558169 
L 306.381195 216.230903 
L 306.570118 217.491119 
L 306.759042 251.084703 
L 306.947965 257.586577 
L 307.136907 244.154684 
L 307.325831 180.69777 
L 307.514754 240.073176 
L 307.703696 240.073176 
L 307.89262 254.368719 
L 308.081543 225.617633 
L 308.459409 328.230618 
L 308.837255 237.018123 
L 309.026197 281.821554 
L 309.404044 303.666713 
L 309.592968 266.639727 
L 309.78191 309.402254 
L 309.970833 283.902252 
L 310.159757 306.654757 
L 310.348699 367.120508 
L 310.726545 310.685525 
L 310.915488 305.647285 
L 311.104411 316.633949 
L 311.293334 306.419179 
L 311.482258 243.000857 
L 311.6712 297.237761 
L 311.860123 282.0264 
L 312.049047 295.794425 
L 312.237989 293.219075 
L 312.615836 328.259196 
L 312.804759 301.840022 
L 312.993701 298.067512 
L 313.182625 313.317938 
L 313.371548 305.348994 
L 313.749413 214.210946 
L 313.938337 304.395952 
L 314.127279 307.619025 
L 314.694049 213.542738 
L 314.882991 211.184541 
L 315.071915 285.416399 
L 315.260843 219.892229 
L 315.449785 228.494208 
L 315.638708 201.17469 
L 315.827632 211.523516 
L 316.016555 263.077761 
L 316.205497 260.762554 
L 316.583344 313.129135 
L 316.772286 274.63655 
L 317.150133 315.241123 
L 317.527998 280.893779 
L 317.716922 302.284472 
L 317.905845 305.868518 
L 318.094787 286.014809 
L 318.283711 246.672767 
L 318.472634 244.954802 
L 318.661558 279.800151 
L 318.8505 281.28924 
L 319.039423 317.093475 
L 319.228346 313.552592 
L 319.417289 313.50601 
L 319.606212 324.12655 
L 319.795135 351.197947 
L 319.984059 340.538652 
L 320.361924 305.031466 
L 320.550848 361.533339 
L 320.73979 351.597315 
L 320.928713 283.934695 
L 321.117637 275.559723 
L 321.306579 302.54023 
L 321.684426 231.94246 
L 321.873349 290.269593 
L 322.062291 241.691038 
L 322.251215 279.586329 
L 322.440138 256.978167 
L 322.62908 285.128275 
L 322.818003 275.774392 
L 323.006927 373.453296 
L 323.384792 293.745671 
L 323.573716 291.040112 
L 323.951581 268.425416 
L 324.140505 278.130657 
L 324.329428 217.571703 
L 324.518351 259.942811 
L 324.707294 222.579448 
L 324.896217 227.959133 
L 325.08514 321.405622 
L 325.274083 307.296296 
L 325.463006 224.090932 
L 325.840853 193.945387 
L 326.029795 253.895471 
L 326.218718 216.687671 
L 326.407642 204.080974 
L 326.596584 266.394537 
L 326.785507 261.232054 
L 326.974431 268.288267 
L 327.163354 229.062965 
L 327.352296 271.532301 
L 327.541219 273.374801 
L 327.919085 361.873395 
L 328.296932 246.499111 
L 328.485855 257.0364 
L 328.674797 234.659414 
L 329.052644 309.254388 
L 329.241567 306.421284 
L 329.43051 222.217516 
L 329.619433 267.849312 
L 329.808356 264.482856 
L 329.997299 299.680941 
L 330.186222 299.680941 
L 330.375145 268.917762 
L 330.564069 265.365611 
L 330.941934 209.836907 
L 331.130858 249.641865 
L 331.3198 196.959831 
L 331.508723 261.311146 
L 331.88657 191.654529 
L 332.075512 199.479831 
L 332.453359 264.624157 
L 332.831224 166.049893 
L 333.020148 231.18209 
L 333.209071 200.634549 
L 333.398013 194.331976 
L 333.586937 153.143522 
L 333.77586 248.979967 
L 334.153719 138.522554 
L 334.342642 201.236045 
L 334.531565 207.692842 
L 334.720508 233.851531 
L 334.909431 185.573298 
L 335.098354 183.189058 
L 335.47622 257.686821 
L 335.665143 218.204678 
L 335.854067 266.580823 
L 336.043009 239.991095 
L 336.231932 241.662109 
L 336.420856 177.149605 
L 336.798721 267.130654 
L 336.987644 228.477586 
L 337.176568 268.07293 
L 337.36551 281.237488 
L 337.554433 220.045981 
L 337.743357 195.460064 
L 337.93228 240.459769 
L 338.121222 239.53457 
L 338.310146 236.880516 
L 338.499069 209.843476 
L 338.688011 237.853409 
L 338.876935 219.716401 
L 339.065858 189.527718 
L 339.254781 226.332739 
L 339.443724 207.213563 
L 339.632647 218.01888 
L 339.82157 211.977544 
L 340.010494 253.575371 
L 340.199436 206.820692 
L 340.388359 211.621281 
L 340.577283 199.712718 
L 340.766225 203.982158 
L 340.955148 182.830385 
L 341.144072 217.01096 
L 341.521937 155.086658 
L 341.710861 191.078241 
L 341.899784 171.871055 
L 342.277649 232.637338 
L 342.466573 193.74334 
L 343.033362 230.856734 
L 343.222285 209.734126 
L 343.411209 165.12635 
L 343.600151 174.486224 
L 343.789074 155.024289 
L 343.977997 151.651115 
L 344.16694 209.613182 
L 344.355863 208.288077 
L 344.73371 166.665168 
L 344.922652 181.665907 
L 345.111575 174.543652 
L 345.300499 139.294304 
L 345.489441 172.128885 
L 345.678364 226.322865 
L 346.056211 167.308862 
L 346.245153 137.259745 
L 346.434077 210.172785 
L 346.623 200.950825 
L 346.811923 166.929476 
L 347.000865 227.122385 
L 347.189789 220.802738 
L 347.378712 234.147935 
L 347.756578 207.928116 
L 347.945501 240.727455 
L 348.134425 206.429358 
L 348.323367 203.893689 
L 348.701213 242.367885 
L 349.079079 153.479962 
L 349.268002 123.327196 
L 349.456926 174.561171 
L 349.645868 185.430163 
L 349.834791 220.795119 
L 350.212638 206.628567 
L 350.40158 183.252884 
L 350.590503 216.625934 
L 350.779427 207.974572 
L 350.96835 177.203461 
L 351.157292 220.74762 
L 351.346216 126.058079 
L 351.913005 209.535843 
L 352.101928 211.288791 
L 352.290852 249.630746 
L 352.479794 171.057659 
L 352.668717 171.057659 
L 353.046581 215.333028 
L 353.235504 205.679078 
L 353.424428 247.108751 
L 353.613351 199.447993 
L 353.991217 245.6985 
L 354.18014 230.676346 
L 354.369063 257.329873 
L 354.558006 208.470541 
L 354.746929 303.608039 
L 355.124795 207.484457 
L 355.502641 215.131736 
L 355.691565 236.911968 
L 355.880507 215.253707 
L 356.06943 162.600018 
L 356.258354 193.623785 
L 356.447277 201.824577 
L 356.636219 193.625927 
L 356.825143 229.730356 
L 357.014066 237.510104 
L 357.203008 194.858566 
L 357.391932 195.926131 
L 357.580855 168.08794 
L 357.769778 162.992348 
L 357.95872 178.571752 
L 358.147644 168.198571 
L 358.336567 197.898689 
L 358.525491 179.277314 
L 358.903356 191.157258 
L 359.09228 166.092149 
L 359.281222 162.776808 
L 359.470145 233.017546 
L 359.659068 214.638493 
L 359.847992 212.499582 
L 360.036934 165.256453 
L 360.225857 214.276047 
L 360.414781 200.330557 
L 360.603704 149.02052 
L 360.792646 135.832908 
L 360.98157 132.67889 
L 361.170493 157.211495 
L 361.359416 157.65896 
L 361.548359 140.802533 
L 361.737282 201.259601 
L 361.926205 198.210147 
L 362.115148 178.519812 
L 362.304071 172.827515 
L 362.492994 156.299201 
L 362.681918 155.034507 
L 362.87086 132.131405 
L 363.059783 164.013458 
L 363.248707 160.949572 
L 363.43763 132.810552 
L 363.815496 174.404143 
L 364.004419 216.144257 
L 364.193361 197.115706 
L 364.382284 218.18732 
L 364.571208 177.483842 
L 364.949073 195.540579 
L 365.137997 189.849903 
L 365.515844 218.027454 
L 365.704786 171.673837 
L 366.082632 209.716398 
L 366.271556 150.949661 
L 366.460498 205.469223 
L 366.649421 202.261669 
L 366.838345 187.032621 
L 367.027287 256.838412 
L 367.21621 224.063765 
L 367.405134 214.400546 
L 367.594057 245.654561 
L 367.782999 216.752076 
L 367.971923 242.750657 
L 368.160846 190.209967 
L 368.349769 183.149519 
L 368.538712 200.124723 
L 368.727635 192.927777 
L 368.916558 181.491616 
L 369.1055 203.435052 
L 369.294424 261.184165 
L 369.672271 198.188411 
L 369.861213 186.663991 
L 370.050136 182.353266 
L 370.23906 208.617761 
L 370.427983 177.309842 
L 370.616925 206.09398 
L 370.805848 193.645361 
L 370.994772 192.223541 
L 371.183695 253.148837 
L 371.561561 215.126094 
L 371.750486 239.698674 
L 371.939428 197.203957 
L 372.506198 231.162866 
L 372.69514 209.051748 
L 373.072987 271.339772 
L 373.26191 185.5501 
L 373.450852 257.836554 
L 373.639776 267.468255 
L 374.206565 169.782794 
L 374.395488 294.957962 
L 374.773354 153.907537 
L 374.962277 131.843106 
L 375.151201 188.06293 
L 375.340124 188.06293 
L 375.529066 215.937453 
L 375.906913 169.010624 
L 376.095836 148.162697 
L 376.284778 200.255242 
L 376.473702 201.268364 
L 376.662625 206.852546 
L 376.851549 175.661153 
L 377.040491 168.39852 
L 377.229414 178.08307 
L 377.60728 247.678596 
L 377.796203 191.950109 
L 377.985126 257.189183 
L 378.17405 224.556407 
L 378.362992 214.058843 
L 378.551915 180.046748 
L 378.740839 210.582568 
L 378.929762 177.9403 
L 379.307628 261.997267 
L 379.496551 249.905864 
L 380.06334 188.873461 
L 380.252263 193.91261 
L 380.630129 234.05554 
L 380.819052 204.707703 
L 381.007976 219.356122 
L 381.196918 270.410743 
L 381.385841 224.152506 
L 381.574765 266.205326 
L 381.763688 207.291223 
L 381.95263 215.169499 
L 382.141554 302.885922 
L 382.708342 175.440264 
L 383.086189 202.597197 
L 383.275112 175.871948 
L 383.464055 183.992062 
L 383.652978 171.427166 
L 383.841902 198.888164 
L 384.030825 199.7662 
L 384.219767 186.612815 
L 384.40869 196.505571 
L 384.597614 178.446959 
L 384.975479 241.295518 
L 385.164403 219.576899 
L 385.353326 229.184881 
L 385.542268 228.19055 
L 385.920115 190.497448 
L 386.109038 187.754281 
L 386.29798 210.602638 
L 386.486904 175.081909 
L 386.675827 165.166584 
L 387.053693 205.068517 
L 387.242616 244.985586 
L 387.43154 188.055719 
L 387.620463 187.078392 
L 387.809405 147.640994 
L 388.376194 193.709735 
L 388.565118 232.271679 
L 388.754041 156.792858 
L 388.942964 220.692629 
L 389.32083 176.584329 
L 389.509753 218.384041 
L 389.698676 224.107726 
L 389.887619 246.345725 
L 390.076542 169.315246 
L 390.265465 204.052473 
L 390.454389 173.042926 
L 390.643319 179.723201 
L 390.832243 202.80649 
L 391.021166 188.541137 
L 391.210089 161.498754 
L 391.399032 204.632449 
L 391.587955 194.835247 
L 391.776878 176.349867 
L 391.965802 210.604633 
L 392.154744 221.20645 
L 392.343667 244.02234 
L 392.910456 172.100518 
L 393.09938 179.255198 
L 393.288303 135.183476 
L 393.477245 125.271094 
L 393.666168 94.770198 
L 393.855092 110.344957 
L 394.044015 162.705388 
L 394.421881 181.347745 
L 394.610804 156.542313 
L 394.98867 192.850515 
L 395.177593 170.206524 
L 395.366516 174.882581 
L 395.55544 155.824712 
L 395.744382 154.669749 
L 396.122229 243.287343 
L 396.311152 192.976098 
L 396.500094 275.948567 
L 396.877941 213.695948 
L 397.066864 216.36564 
L 397.255807 191.189571 
L 397.44473 142.119355 
L 397.633653 142.119355 
L 397.822577 208.422134 
L 398.200442 151.419882 
L 398.389366 218.988713 
L 398.767231 145.244196 
L 398.956155 154.236516 
L 399.33402 196.387834 
L 399.522944 126.022914 
L 399.711867 97.397016 
L 399.90079 169.728652 
L 400.089733 81.628218 
L 400.278656 131.286013 
L 400.467579 135.106528 
L 400.656503 174.0103 
L 400.845445 115.724593 
L 401.223292 181.608169 
L 401.412215 127.461595 
L 401.601157 174.100889 
L 401.790081 168.236925 
L 401.979004 177.070772 
L 402.167927 230.694794 
L 402.356869 220.353533 
L 402.545793 217.550739 
L 403.112582 74.229658 
L 403.301505 98.885348 
L 403.490428 103.149062 
L 403.679352 141.630646 
L 403.868294 152.707077 
L 404.057217 140.043816 
L 404.246141 158.570492 
L 404.435064 124.482228 
L 405.001853 205.818593 
L 405.190776 168.429848 
L 405.568642 215.014197 
L 405.946489 115.472976 
L 406.135431 143.760131 
L 406.324354 220.08469 
L 406.513278 115.426433 
L 406.702201 218.463692 
L 407.080067 90.75243 
L 407.457932 164.447884 
L 407.646856 115.155033 
L 407.835779 113.655566 
L 408.024702 96.892882 
L 408.213645 154.267786 
L 408.402568 153.872454 
L 408.591491 93.972986 
L 408.780415 135.034086 
L 408.969338 144.305972 
L 409.15828 84.401435 
L 409.536144 126.33139 
L 409.725086 116.34103 
L 409.91401 91.073835 
L 410.102933 124.672306 
L 410.291857 94.863573 
L 410.858645 139.926406 
L 411.047569 202.588566 
L 411.236511 171.999374 
L 411.425434 114.623308 
L 411.614358 147.102844 
L 411.803281 114.895797 
L 411.992223 135.077708 
L 412.181147 168.555677 
L 412.37007 158.827522 
L 412.747936 167.773964 
L 412.936859 224.927889 
L 413.125782 222.033893 
L 413.314706 141.7182 
L 413.503648 144.947227 
L 413.692571 164.709306 
L 414.070418 150.037041 
L 414.25936 131.882993 
L 414.448284 98.42124 
L 414.637207 143.794612 
L 414.82613 137.844994 
L 415.015073 188.834075 
L 415.203996 120.442875 
L 415.392919 130.018527 
L 415.581843 152.00035 
L 415.770785 131.270718 
L 415.959708 151.077245 
L 416.148632 41.54963 
L 416.337555 26.877188 
L 416.526497 104.516405 
L 416.715421 125.808642 
L 416.904344 134.334624 
L 417.093267 112.109396 
L 417.282209 109.623155 
L 417.471133 157.765089 
L 417.660056 135.468307 
L 417.84898 85.772574 
L 418.037922 118.158757 
L 418.226845 128.528843 
L 418.415769 84.38628 
L 418.604692 147.132237 
L 418.793634 144.689586 
L 418.982557 81.804058 
L 419.171481 148.5205 
L 419.360404 73.955417 
L 419.549346 82.615908 
L 419.927193 120.556035 
L 420.116117 120.556035 
L 420.493982 70.29997 
L 420.871829 117.337766 
L 421.249694 136.182665 
L 421.438618 131.847106 
L 421.627541 110.648165 
L 421.816483 149.276156 
L 422.005407 127.929562 
L 422.19433 90.963409 
L 422.383253 134.419878 
L 422.572196 107.43041 
L 422.950042 159.192209 
L 423.138966 148.674151 
L 423.516831 232.704392 
L 423.705755 208.367667 
L 423.894678 121.82472 
L 424.08362 119.473576 
L 424.272544 178.842973 
L 424.461467 186.946406 
L 424.65039 138.226473 
L 424.839333 136.529846 
L 425.028256 181.964475 
L 425.217179 188.343222 
L 425.595045 140.806474 
L 425.783968 112.421855 
L 425.972892 123.276937 
L 426.161815 117.604321 
L 426.350757 183.429163 
L 426.539681 167.989328 
L 426.728604 169.287333 
L 426.917527 186.691828 
L 427.106451 178.448268 
L 427.295393 188.07403 
L 427.67324 150.514413 
L 427.862163 189.655338 
L 428.051105 123.733559 
L 428.240037 179.741489 
L 428.428961 179.334837 
L 428.617884 159.685218 
L 428.806826 171.071187 
L 428.99575 133.362751 
L 429.184673 167.647536 
L 429.373596 141.789393 
L 429.562538 148.315466 
L 429.940385 191.066591 
L 430.129309 186.699641 
L 430.507174 127.407824 
L 430.696097 178.029973 
L 430.885021 184.568068 
L 431.262886 136.219436 
L 431.45181 174.745819 
L 431.640733 119.682561 
L 431.829675 141.107004 
L 432.018599 184.091591 
L 432.207522 179.57856 
L 432.396445 188.677367 
L 432.585387 173.619788 
L 432.774311 148.956976 
L 432.963234 179.979352 
L 433.152158 168.625151 
L 433.530023 235.507239 
L 433.718947 208.496357 
L 433.90787 231.166004 
L 434.096812 154.598932 
L 434.285735 132.039106 
L 434.474659 184.819591 
L 434.663582 197.36018 
L 435.041448 110.867438 
L 435.230371 120.168818 
L 435.419295 108.106764 
L 435.608237 166.824099 
L 435.79716 128.869323 
L 435.986084 131.330229 
L 436.36393 111.890776 
L 436.741796 193.649184 
L 437.119643 183.048324 
L 437.497508 198.853968 
L 437.686432 243.706438 
L 437.875355 215.725917 
L 438.064297 205.897872 
L 438.25322 223.164994 
L 438.442144 203.740846 
L 438.631067 156.204712 
L 438.820009 155.945515 
L 439.197856 183.203656 
L 439.38678 233.94134 
L 439.575722 232.937581 
L 439.764645 219.152534 
L 439.953569 237.174569 
L 440.142492 271.914735 
L 440.331434 276.920541 
L 440.520357 274.225131 
L 440.709281 185.623334 
L 441.087146 223.62736 
L 441.27607 194.279268 
L 441.464993 227.363248 
L 441.653917 205.790784 
L 441.842859 216.836665 
L 442.031782 234.823218 
L 442.220705 200.175247 
L 442.409629 200.175247 
L 442.598552 211.615345 
L 442.787494 145.043538 
L 442.976418 173.118042 
L 443.165341 168.882255 
L 443.543207 184.211163 
L 443.73213 104.607853 
L 443.921053 109.754017 
L 444.109977 163.651467 
L 444.487842 115.779145 
L 444.865689 174.819764 
L 445.054631 100.48976 
L 445.432478 196.536307 
L 445.621401 128.385811 
L 445.999267 206.629942 
L 446.18819 144.981768 
L 446.377114 176.225357 
L 446.566037 167.270335 
L 446.754979 174.219018 
L 446.943889 206.248301 
L 447.132812 196.722446 
L 447.510678 216.375129 
L 447.699601 176.001422 
L 447.888524 172.702016 
L 448.077447 185.336748 
L 448.26639 166.630036 
L 448.455313 190.027965 
L 448.644236 193.609231 
L 448.83316 251.184337 
L 449.022102 218.974206 
L 449.211026 129.917239 
L 449.399949 134.583272 
L 449.966738 231.34618 
L 450.155661 222.756944 
L 450.344584 174.195598 
L 450.533508 161.443886 
L 450.72245 162.709973 
L 450.911374 198.582586 
L 451.100297 168.652088 
L 451.28922 202.08663 
L 451.856009 111.691941 
L 452.233875 171.622316 
L 452.611721 200.151033 
L 452.800645 168.629726 
L 452.989587 199.492718 
L 453.17851 196.758122 
L 453.367434 180.162141 
L 453.556357 202.623726 
L 453.745299 184.310628 
L 453.934223 196.048706 
L 454.123146 170.267895 
L 454.312069 180.592493 
L 454.500993 132.540989 
L 454.878858 257.920011 
L 455.067782 209.72748 
L 455.256705 234.289354 
L 455.445647 213.995096 
L 455.634571 259.792167 
L 456.012417 191.377832 
L 456.20136 218.048805 
L 456.390283 169.50272 
L 456.579206 164.275478 
L 456.957072 261.00178 
L 457.334919 173.259575 
L 457.523842 177.803588 
L 457.712766 190.203684 
L 457.901708 140.202865 
L 458.090631 242.85578 
L 458.279554 266.258782 
L 458.65742 227.454228 
L 458.846343 211.537278 
L 459.035267 186.083782 
L 459.22419 196.175924 
L 459.413132 225.947983 
L 459.602055 173.735039 
L 459.790979 242.409634 
L 459.979902 228.043359 
L 460.168826 223.426873 
L 460.546691 225.667875 
L 460.735615 201.800701 
L 461.11348 235.807424 
L 461.302403 210.62821 
L 461.491327 247.460181 
L 461.869193 228.224553 
L 462.058116 262.491869 
L 462.247039 205.834019 
L 462.435963 200.013121 
L 463.002751 267.005812 
L 463.191675 235.662815 
L 463.380598 244.803101 
L 463.758464 180.56509 
L 463.947387 175.729218 
L 464.136311 252.905454 
L 464.325253 202.581707 
L 464.514176 250.018595 
L 464.7031 203.653081 
L 464.892023 203.653081 
L 465.080946 223.124298 
L 465.269888 187.637432 
L 465.458812 189.28028 
L 465.647735 244.788907 
L 466.02559 191.996578 
L 466.214513 245.529468 
L 466.403437 222.068517 
L 466.59236 214.597836 
L 466.781302 242.546131 
L 466.970225 253.418962 
L 467.348072 303.281163 
L 467.725938 241.863191 
L 467.914861 180.166257 
L 468.103785 157.494286 
L 468.292708 265.604312 
L 468.48165 258.644169 
L 468.670573 221.417719 
L 468.859497 283.174944 
L 469.04842 276.782833 
L 469.237362 208.250434 
L 469.426286 206.822445 
L 469.615209 202.273803 
L 469.804133 157.858641 
L 469.993056 193.259642 
L 470.181998 260.585351 
L 470.370921 259.486958 
L 470.559845 226.939651 
L 470.93771 273.943159 
L 471.315557 300.622688 
L 471.504481 294.812742 
L 471.693423 220.788 
L 471.882346 236.583888 
L 472.071269 213.074913 
L 472.260193 230.99741 
L 472.449116 212.609582 
L 472.638058 220.889284 
L 472.826982 202.514508 
L 473.015905 213.137516 
L 473.204829 233.997408 
L 473.393771 232.807762 
L 473.582694 310.281002 
L 473.771617 310.122253 
L 473.960541 292.845645 
L 474.338406 277.22025 
L 474.52733 291.072895 
L 474.716253 289.78132 
L 474.905177 210.159805 
L 475.094119 296.909346 
L 475.283042 262.623127 
L 475.471965 280.259036 
L 475.660889 263.358998 
L 475.849831 299.11312 
L 476.038754 288.006478 
L 476.227678 187.792833 
L 476.416601 234.72078 
L 476.605525 238.979728 
L 476.794467 235.080004 
L 477.172313 213.749169 
L 477.361237 213.764396 
L 477.739102 296.674515 
L 477.928026 269.438223 
L 478.116949 315.805147 
L 478.305873 304.355508 
L 478.494815 317.57289 
L 478.683738 273.418972 
L 478.872661 285.177497 
L 479.061585 309.627453 
L 479.250527 237.280903 
L 479.43945 234.325405 
L 479.628374 240.384847 
L 479.817297 238.41642 
L 480.006239 242.205673 
L 480.384086 192.384197 
L 480.573009 272.988565 
L 480.761933 255.350264 
L 480.950875 201.221287 
L 481.328722 212.01918 
L 481.517645 228.841662 
L 481.706587 197.616338 
L 481.895511 187.932287 
L 482.084434 226.247744 
L 482.273357 207.987151 
L 482.462281 209.731817 
L 482.651223 217.974288 
L 482.840146 219.362064 
L 483.02907 282.977271 
L 483.217993 269.025395 
L 483.406935 270.377199 
L 483.595859 268.787994 
L 483.784782 218.553133 
L 483.973705 255.92442 
L 484.162629 249.062977 
L 484.351571 291.452978 
L 484.540505 256.52492 
L 484.729429 257.592628 
L 484.918352 273.147949 
L 485.107294 229.876946 
L 485.296218 219.310371 
L 485.485141 226.988405 
L 485.674065 259.626749 
L 485.862988 222.879277 
L 486.05193 303.402649 
L 486.429777 202.97145 
L 486.6187 214.526294 
L 486.807642 235.399214 
L 487.185489 216.027268 
L 487.374413 216.027268 
L 487.563336 189.193978 
L 487.752278 195.382091 
L 487.941201 227.943625 
L 488.130125 224.775349 
L 488.319048 251.445159 
L 488.50799 192.329416 
L 488.696914 229.207181 
L 488.885837 219.881496 
L 489.074761 176.600039 
L 489.263684 284.38562 
L 489.452626 263.588382 
L 489.641549 267.222293 
L 489.830473 320.32848 
L 490.019396 302.467804 
L 490.208338 314.241529 
L 490.397262 380.209655 
L 490.775108 301.787553 
L 490.964032 286.831243 
L 491.152974 298.271479 
L 491.341897 321.01043 
L 491.719744 262.533073 
L 491.908686 308.46496 
L 492.09761 317.156752 
L 492.475456 256.928586 
L 492.66438 296.509034 
L 493.042245 266.413066 
L 493.231169 214.314768 
L 493.420092 248.113076 
L 493.609034 337.111642 
L 493.797958 313.596454 
L 493.986881 309.23087 
L 494.175804 315.798742 
L 494.364728 236.33069 
L 494.55367 226.718483 
L 494.742593 223.784468 
L 494.931517 246.771287 
L 495.12044 290.113131 
L 495.309382 285.11786 
L 495.498306 291.654824 
L 495.687229 293.783581 
L 495.876152 245.746607 
L 496.065076 228.456593 
L 496.254018 292.304307 
L 496.442941 278.024406 
L 496.820788 213.570866 
L 497.009712 217.945941 
L 497.387577 308.583951 
L 497.765424 339.373048 
L 498.143289 245.703658 
L 498.332213 279.615384 
L 498.521136 275.406985 
L 498.71006 279.040788 
L 498.899002 268.131731 
L 499.087925 268.211654 
L 499.276848 184.104186 
L 499.465772 185.498595 
L 499.654714 144.369686 
L 500.032561 264.551236 
L 500.221484 264.111789 
L 500.59935 242.071653 
L 500.788273 253.994837 
L 500.977196 232.872286 
L 501.16612 338.284029 
L 501.732909 203.50351 
L 501.921832 239.151343 
L 502.110756 295.955685 
L 502.299698 299.664444 
L 502.488621 255.003626 
L 502.677544 241.448931 
L 502.866468 243.02246 
L 503.055391 232.212429 
L 503.244333 198.746165 
L 503.433254 249.1872 
L 503.622178 178.065851 
L 503.811101 216.259765 
L 504.000024 229.737325 
L 504.188967 218.049378 
L 504.37789 241.124943 
L 504.566813 217.571236 
L 504.944679 153.506965 
L 505.133602 237.457185 
L 505.322526 245.375738 
L 505.511449 247.31117 
L 505.700372 246.67577 
L 505.889315 222.305418 
L 506.078238 219.912836 
L 506.267161 246.092395 
L 506.456085 207.120392 
L 506.645008 198.794275 
L 507.022874 209.420575 
L 507.211797 242.345247 
L 507.40072 194.690826 
L 507.589663 243.593367 
L 507.967509 177.474722 
L 508.156433 212.498153 
L 508.345356 205.932655 
L 508.534298 210.209783 
L 508.723222 245.912776 
L 508.912145 240.798831 
L 509.101068 192.249491 
L 509.289992 263.836012 
L 509.667857 218.933836 
L 509.856781 218.933836 
L 510.045704 236.087844 
L 510.234646 265.999587 
L 510.612493 197.553936 
L 510.801416 178.40093 
L 510.99034 228.449254 
L 511.179282 208.200379 
L 511.557129 260.452313 
L 511.746052 248.818747 
L 511.934975 268.772791 
L 512.123918 274.317405 
L 512.501764 233.729958 
L 512.690688 244.347963 
L 512.87963 207.448901 
L 513.068553 192.770748 
L 513.257477 215.468612 
L 513.4464 279.310589 
L 513.635323 258.77864 
L 513.824266 294.734992 
L 514.013189 284.245454 
L 514.202112 267.31305 
L 514.391036 221.811883 
L 514.579959 234.790954 
L 514.768901 236.328492 
L 514.957825 212.253964 
L 515.146748 225.319207 
L 515.335671 261.251083 
L 515.90246 183.706243 
L 516.091384 244.9412 
L 516.280307 211.778485 
L 516.469249 227.904172 
L 516.658173 257.106113 
L 516.847096 267.951681 
L 517.036019 214.474648 
L 517.413885 280.311859 
L 517.791732 171.826443 
L 517.980655 191.224918 
L 518.169579 167.246092 
L 518.547444 191.790652 
L 518.736367 251.642614 
L 518.925291 228.169326 
L 519.114214 218.797111 
L 519.303156 246.803945 
L 519.681003 148.038243 
L 519.869927 217.256971 
L 520.05885 209.126941 
L 520.247792 207.396906 
L 520.625639 218.615919 
L 520.814562 198.109658 
L 521.003504 227.143961 
L 521.192428 227.306643 
L 521.381351 219.934137 
L 521.570275 266.435065 
L 521.759198 252.125622 
L 521.94814 216.825386 
L 522.137063 238.725409 
L 522.325973 216.020204 
L 522.514897 155.549476 
L 522.892762 270.053348 
L 523.081686 201.870523 
L 523.270609 191.760873 
L 523.459533 203.772252 
L 523.648456 225.079931 
L 523.837398 202.246688 
L 524.026321 217.87157 
L 524.215245 192.468312 
L 524.404168 186.164157 
L 524.593092 235.419627 
L 524.782034 203.591332 
L 524.970957 222.166622 
L 525.159881 170.108997 
L 525.348804 228.495621 
L 525.537727 217.933717 
L 525.726669 283.41175 
L 526.104516 205.901366 
L 526.482382 241.296059 
L 526.671305 221.946175 
L 526.860229 284.875252 
L 527.049152 295.994091 
L 527.238075 249.87671 
L 527.427017 250.801677 
L 527.615941 257.516717 
L 527.804864 172.559683 
L 527.993788 198.48828 
L 528.182711 185.471401 
L 528.560577 227.211247 
L 528.7495 204.028753 
L 528.938423 206.049744 
L 529.127347 280.579316 
L 529.316289 208.936495 
L 529.505212 235.86675 
L 529.694136 241.407597 
L 529.883059 213.799913 
L 530.071982 204.736239 
L 530.260925 219.368019 
L 530.449848 266.202457 
L 530.827695 236.790694 
L 531.20556 321.574453 
L 531.583407 215.798531 
L 531.77233 255.567657 
L 531.961254 246.181698 
L 532.150196 246.181698 
L 532.339119 220.207264 
L 532.528043 122.526749 
L 533.094832 191.153546 
L 533.283755 170.577402 
L 533.472678 181.679593 
L 533.661602 120.14427 
L 533.850525 127.778165 
L 534.039467 204.172284 
L 534.228391 181.860646 
L 534.417314 190.731633 
L 534.606237 247.919066 
L 534.79518 199.28613 
L 534.984103 185.084353 
L 535.173026 249.265544 
L 535.36195 239.366263 
L 535.550873 254.329081 
L 535.739796 245.587028 
L 536.306585 161.871142 
L 536.495509 186.974985 
L 536.684432 231.829494 
L 536.873374 200.470448 
L 537.062298 212.582513 
L 537.251221 278.856489 
L 537.440144 224.009385 
L 537.629068 243.70755 
L 537.81801 201.754727 
L 538.195857 247.393093 
L 538.38478 265.650572 
L 538.573704 244.549708 
L 538.762646 309.843779 
L 538.951569 222.670594 
L 539.329416 205.101391 
L 539.707281 274.501954 
L 539.896205 274.01083 
L 540.085128 244.431502 
L 540.274052 272.100809 
L 540.462975 234.559043 
L 540.651917 265.61138 
L 540.84084 199.568882 
L 541.02978 181.628113 
L 541.218703 181.199118 
L 541.407626 248.821558 
L 541.596569 266.698095 
L 541.785492 303.833766 
L 541.974415 286.789096 
L 542.163339 326.131703 
L 542.352262 256.454309 
L 542.541204 255.906671 
L 542.730127 193.046052 
L 542.919051 200.90214 
L 543.107974 273.684768 
L 543.296898 262.132369 
L 543.674763 299.028213 
L 543.863687 292.486568 
L 544.05261 341.026181 
L 544.241533 344.240381 
L 544.430475 270.270516 
L 544.619399 277.371835 
L 544.808322 292.690324 
L 544.997246 291.256596 
L 545.186169 252.59771 
L 545.375111 253.799958 
L 545.564035 288.536157 
L 545.752958 268.037733 
L 545.941881 274.901535 
L 546.319747 230.123352 
L 546.50867 285.026005 
L 546.886517 177.600866 
L 547.07544 179.439891 
L 547.264383 259.480378 
L 547.453306 208.419489 
L 547.642229 249.345455 
L 547.831153 250.026827 
L 548.020076 206.483524 
L 548.209018 250.77588 
L 548.397942 197.238737 
L 548.586865 264.750335 
L 548.775788 276.365481 
L 548.964712 263.8891 
L 549.153654 235.916153 
L 549.342577 170.734641 
L 549.531501 252.199468 
L 549.720424 223.447767 
L 549.909348 168.946461 
L 550.09829 202.034795 
L 550.287213 182.080667 
L 550.476136 187.221203 
L 550.66506 197.504533 
L 550.853983 136.182315 
L 551.042925 186.577517 
L 551.231849 199.661413 
L 551.420772 224.725203 
L 551.609696 288.413492 
L 551.798619 253.11621 
L 551.987542 251.660167 
L 552.176484 236.271302 
L 552.365408 288.281768 
L 552.554331 266.239203 
L 552.743254 265.898476 
L 552.932178 229.193994 
L 553.12112 304.661501 
L 553.310044 212.181091 
L 553.498967 207.19803 
L 553.876814 275.45342 
L 554.065756 233.045291 
L 554.254679 256.574981 
L 554.443602 256.574981 
L 554.821449 286.060085 
L 555.010392 334.791262 
L 555.199315 331.728937 
L 555.388238 269.219384 
L 555.577162 258.104785 
L 555.766085 211.213916 
L 555.955027 259.526275 
L 556.14395 262.791686 
L 556.332874 269.316937 
L 556.521797 271.740635 
L 556.710721 294.817898 
L 556.899663 300.903858 
L 557.27751 207.344685 
L 557.655356 271.784439 
L 557.84428 261.176911 
L 558.033222 189.731166 
L 558.222145 260.955455 
L 558.411069 197.340358 
L 558.599992 199.493309 
L 558.788915 278.749127 
L 558.977858 228.419645 
L 559.166781 224.321812 
L 559.355704 277.31845 
L 559.544628 284.215677 
L 559.733551 209.413617 
L 560.300345 218.472598 
L 560.678192 277.010529 
L 560.867134 268.571046 
L 561.056057 320.365904 
L 561.24498 286.38119 
L 561.433904 224.726756 
L 561.622827 302.101259 
L 561.811751 242.540282 
L 562.000693 249.687377 
L 562.189616 242.860769 
L 562.37854 266.605859 
L 562.567463 268.184248 
L 562.756386 311.598939 
L 562.945328 305.76775 
L 563.134252 275.951589 
L 563.323175 302.54375 
L 563.512098 304.19637 
L 563.701022 298.075273 
L 563.889964 268.633947 
L 564.078888 266.612023 
L 564.456734 232.033807 
L 564.645658 236.261363 
L 564.8346 208.816737 
L 565.023523 217.53684 
L 565.212446 276.702406 
L 565.40137 261.225065 
L 565.590293 232.107555 
L 565.779217 268.265694 
L 565.968159 270.853565 
L 566.346006 249.873692 
L 566.723852 241.932622 
L 567.290641 335.829855 
L 567.479565 302.093291 
L 567.668488 297.117545 
L 567.85743 373.934716 
L 568.235277 271.037207 
L 568.4242 312.340897 
L 568.613124 271.222244 
L 568.802047 373.103865 
L 568.990989 323.918681 
L 569.179913 331.876998 
L 569.368836 349.065051 
L 569.557759 378.18533 
L 569.746683 303.24944 
L 569.935625 296.69895 
L 570.124548 308.930646 
L 570.313472 348.6114 
L 570.502395 338.958514 
L 570.691319 368.184956 
L 570.880242 354.936881 
L 571.069184 378.420328 
L 571.258107 327.113201 
L 571.447031 336.368056 
L 571.635954 332.874934 
L 571.824878 359.453817 
L 572.01382 363.182514 
L 572.202743 336.36864 
L 572.391667 351.763448 
L 572.58059 311.588121 
L 572.769513 314.522446 
L 572.958455 327.97477 
L 573.147379 351.146498 
L 573.525225 287.450743 
L 573.714149 338.587951 
L 573.903072 351.872387 
L 574.092015 339.995226 
L 574.280938 338.705418 
L 574.469861 289.613921 
L 574.658785 333.633008 
L 574.847708 317.774527 
L 575.03665 288.252414 
L 575.225573 343.531342 
L 575.60342 318.710249 
L 575.792344 307.132349 
L 575.981267 349.299655 
L 576.170209 338.895659 
L 576.359133 291.254571 
L 576.548056 283.473478 
L 576.736979 283.473478 
L 576.925903 320.431651 
L 577.114845 318.847297 
L 577.303768 288.806875 
L 577.492692 218.36603 
L 577.681615 270.556515 
L 577.870538 280.246412 
L 578.059462 312.13861 
L 578.248404 379.75303 
L 578.437327 362.280234 
L 578.626241 259.709681 
L 578.815165 235.571995 
L 579.004088 286.460516 
L 579.19303 262.267932 
L 579.570877 249.263825 
L 579.759801 284.194585 
L 579.948724 223.504222 
L 580.137666 247.742349 
L 580.326589 318.06803 
L 580.515513 287.992196 
L 580.704436 317.973758 
L 580.893359 316.200688 
L 581.082283 308.116554 
L 581.271225 315.873568 
L 581.460149 316.204317 
L 581.649072 292.526932 
L 581.837995 312.97753 
L 582.026919 247.385712 
L 582.215861 226.970638 
L 582.404784 275.529457 
L 582.593707 229.065544 
L 582.782631 221.993178 
L 582.971554 240.968759 
L 583.160478 298.267926 
L 583.34942 222.506049 
L 583.538343 256.021279 
L 583.91619 213.187309 
L 584.105113 293.474959 
L 584.294037 221.786285 
L 584.482979 231.834726 
L 584.671902 292.285209 
L 584.860826 196.448504 
L 585.049749 196.32113 
L 585.238672 206.920019 
L 585.616538 264.144201 
L 585.805461 233.181875 
L 585.994385 220.814926 
L 586.372232 128.591533 
L 586.561174 139.668567 
L 586.750097 135.009255 
L 587.127944 170.492695 
L 587.316867 213.961349 
L 587.505791 186.408989 
L 587.694733 224.859766 
L 587.883656 180.709857 
L 588.07258 199.538089 
L 588.261503 189.956797 
L 588.450426 282.068699 
L 588.828292 230.419196 
L 589.017215 229.851941 
L 589.206138 242.38841 
L 589.395062 204.91525 
L 589.583985 208.952931 
L 589.772928 175.459882 
L 589.961851 191.25144 
L 590.150774 265.756376 
L 590.339697 273.787531 
L 590.528621 269.681781 
L 590.717563 273.670707 
L 590.906486 245.623058 
L 591.09541 238.24918 
L 591.284333 269.927937 
L 591.66218 228.947623 
L 591.851122 226.333897 
L 592.040046 226.093156 
L 592.417892 307.673304 
L 592.606816 260.361308 
L 592.795739 259.217347 
L 592.984681 307.994008 
L 593.173605 296.993373 
L 593.362528 247.121215 
L 593.551451 249.626811 
L 593.740375 283.133197 
L 593.929317 281.704108 
L 594.11824 262.354628 
L 594.496087 303.8593 
L 594.685011 268.964186 
L 594.873934 312.369321 
L 595.062876 312.094483 
L 595.251799 327.358639 
L 595.440723 325.588011 
L 595.629646 289.539083 
L 595.81857 313.413406 
L 596.007493 277.128773 
L 596.385359 323.537115 
L 596.952128 338.519413 
L 597.141071 303.009039 
L 597.329994 304.662646 
L 597.518915 331.359538 
L 597.707839 303.356593 
L 597.896762 307.178386 
L 598.085685 346.889441 
L 598.463551 264.949824 
L 598.652474 294.382071 
L 598.841398 251.059327 
L 599.030321 251.059327 
L 599.219244 299.91287 
L 599.408187 267.131928 
L 599.59711 275.725937 
L 600.16388 330.582548 
L 600.352803 314.860727 
L 600.541746 256.745318 
L 600.730669 321.831143 
L 600.919592 337.991224 
L 601.108516 382.966168 
L 601.297439 369.148864 
L 601.675305 256.948308 
L 601.864228 239.816763 
L 602.430998 336.79842 
L 602.619922 293.560048 
L 602.808864 316.181407 
L 602.997787 314.385248 
L 603.375634 392.49131 
L 603.564557 332.88832 
L 603.753499 342.952629 
L 604.131346 400.590309 
L 604.32027 345.644433 
L 604.509193 368.842016 
L 604.698116 414.957188 
L 604.887058 347.867663 
L 605.075982 324.175974 
L 605.264905 319.017012 
L 605.453829 336.668869 
L 605.831675 242.269113 
L 606.020618 251.430604 
L 606.398464 241.449512 
L 606.587388 301.583606 
L 606.776311 317.008757 
L 606.965234 260.141706 
L 607.3431 333.88114 
L 607.532023 296.85246 
L 607.720947 298.879451 
L 607.90987 266.799 
L 608.098794 277.553851 
L 608.287736 259.644091 
L 608.476659 274.168127 
L 608.665582 236.661474 
L 608.854506 264.929668 
L 609.043429 274.967085 
L 609.232353 249.989334 
L 609.421295 294.277765 
L 609.610218 276.973939 
L 609.988065 212.962548 
L 610.176988 194.203276 
L 610.365912 230.50623 
L 610.554854 234.413032 
L 610.743777 199.023402 
L 611.121624 307.917611 
L 611.499471 223.284767 
L 611.688413 245.092145 
L 611.877336 208.846477 
L 612.06626 237.568022 
L 612.255183 240.630639 
L 612.444106 220.02059 
L 612.63303 227.75735 
L 612.821972 287.22723 
L 613.010895 268.19549 
L 613.199819 267.062901 
L 613.577665 298.715025 
L 613.766589 312.983801 
L 613.955531 288.393363 
L 614.144454 227.842976 
L 614.333378 232.661959 
L 614.522301 278.425312 
L 614.522301 278.425312 
" clip-path="url(#p019380e8cd)" style="fill: none; stroke: #1f77b4; stroke-width: 2; stroke-linecap: square"/>
   </g>
   <g id="patch_3">
    <path d="M 81.885937 414.957188 
L 81.885937 26.877188 
" style="fill: none; stroke: #808080; stroke-width: 2; stroke-linejoin: miter; stroke-linecap: square"/>
   </g>
   <g id="patch_4">
    <path d="M 81.885938 414.957187 
L 639.885937 414.957187 
" style="fill: none; stroke: #808080; stroke-width: 2; stroke-linejoin: miter; stroke-linecap: square"/>
   </g>
   <g id="text_17">
    <!-- Vemund-Tyholt_flymodus-vinkel -->
    <g style="fill: #808080" transform="translate(219.578906 20.877187) scale(0.18 -0.18)">
     <defs>
      <path id="DejaVuSans-56" d="M 1831 0 
L 50 4666 
L 709 4666 
L 2188 738 
L 3669 4666 
L 4325 4666 
L 2547 0 
L 1831 0 
z
" transform="scale(0.015625)"/>
      <path id="DejaVuSans-75" d="M 544 1381 
L 544 3500 
L 1119 3500 
L 1119 1403 
Q 1119 906 1312 657 
Q 1506 409 1894 409 
Q 2359 409 2629 706 
Q 2900 1003 2900 1516 
L 2900 3500 
L 3475 3500 
L 3475 0 
L 2900 0 
L 2900 538 
Q 2691 219 2414 64 
Q 2138 -91 1772 -91 
Q 1169 -91 856 284 
Q 544 659 544 1381 
z
M 1991 3584 
L 1991 3584 
z
" transform="scale(0.015625)"/>
      <path id="DejaVuSans-6e" d="M 3513 2113 
L 3513 0 
L 2938 0 
L 2938 2094 
Q 2938 2591 2744 2837 
Q 2550 3084 2163 3084 
Q 1697 3084 1428 2787 
Q 1159 2491 1159 1978 
L 1159 0 
L 581 0 
L 581 3500 
L 1159 3500 
L 1159 2956 
Q 1366 3272 1645 3428 
Q 1925 3584 2291 3584 
Q 2894 3584 3203 3211 
Q 3513 2838 3513 2113 
z
" transform="scale(0.015625)"/>
      <path id="DejaVuSans-2d" d="M 313 2009 
L 1997 2009 
L 1997 1497 
L 313 1497 
L 313 2009 
z
" transform="scale(0.015625)"/>
      <path id="DejaVuSans-54" d="M -19 4666 
L 3928 4666 
L 3928 4134 
L 2272 4134 
L 2272 0 
L 1638 0 
L 1638 4134 
L -19 4134 
L -19 4666 
z
" transform="scale(0.015625)"/>
      <path id="DejaVuSans-79" d="M 2059 -325 
Q 1816 -950 1584 -1140 
Q 1353 -1331 966 -1331 
L 506 -1331 
L 506 -850 
L 844 -850 
Q 1081 -850 1212 -737 
Q 1344 -625 1503 -206 
L 1606 56 
L 191 3500 
L 800 3500 
L 1894 763 
L 2988 3500 
L 3597 3500 
L 2059 -325 
z
" transform="scale(0.015625)"/>
      <path id="DejaVuSans-68" d="M 3513 2113 
L 3513 0 
L 2938 0 
L 2938 2094 
Q 2938 2591 2744 2837 
Q 2550 3084 2163 3084 
Q 1697 3084 1428 2787 
Q 1159 2491 1159 1978 
L 1159 0 
L 581 0 
L 581 4863 
L 1159 4863 
L 1159 2956 
Q 1366 3272 1645 3428 
Q 1925 3584 2291 3584 
Q 2894 3584 3203 3211 
Q 3513 2838 3513 2113 
z
" transform="scale(0.015625)"/>
      <path id="DejaVuSans-6f" d="M 1959 3097 
Q 1497 3097 1228 2736 
Q 959 2375 959 1747 
Q 959 1119 1226 758 
Q 1494 397 1959 397 
Q 2419 397 2687 759 
Q 2956 1122 2956 1747 
Q 2956 2369 2687 2733 
Q 2419 3097 1959 3097 
z
M 1959 3584 
Q 2709 3584 3137 3096 
Q 3566 2609 3566 1747 
Q 3566 888 3137 398 
Q 2709 -91 1959 -91 
Q 1206 -91 779 398 
Q 353 888 353 1747 
Q 353 2609 779 3096 
Q 1206 3584 1959 3584 
z
" transform="scale(0.015625)"/>
      <path id="DejaVuSans-6c" d="M 603 4863 
L 1178 4863 
L 1178 0 
L 603 0 
L 603 4863 
z
" transform="scale(0.015625)"/>
      <path id="DejaVuSans-5f" d="M 3263 -1063 
L 3263 -1509 
L -63 -1509 
L -63 -1063 
L 3263 -1063 
z
" transform="scale(0.015625)"/>
      <path id="DejaVuSans-66" d="M 2375 4863 
L 2375 4384 
L 1825 4384 
Q 1516 4384 1395 4259 
Q 1275 4134 1275 3809 
L 1275 3500 
L 2222 3500 
L 2222 3053 
L 1275 3053 
L 1275 0 
L 697 0 
L 697 3053 
L 147 3053 
L 147 3500 
L 697 3500 
L 697 3744 
Q 697 4328 969 4595 
Q 1241 4863 1831 4863 
L 2375 4863 
z
" transform="scale(0.015625)"/>
      <path id="DejaVuSans-76" d="M 191 3500 
L 800 3500 
L 1894 563 
L 2988 3500 
L 3597 3500 
L 2284 0 
L 1503 0 
L 191 3500 
z
" transform="scale(0.015625)"/>
      <path id="DejaVuSans-6b" d="M 581 4863 
L 1159 4863 
L 1159 1991 
L 2875 3500 
L 3609 3500 
L 1753 1863 
L 3688 0 
L 2938 0 
L 1159 1709 
L 1159 0 
L 581 0 
L 581 4863 
z
" transform="scale(0.015625)"/>
     </defs>
     <use xlink:href="#DejaVuSans-56"/>
     <use xlink:href="#DejaVuSans-65" x="60.658203"/>
     <use xlink:href="#DejaVuSans-6d" x="122.181641"/>
     <use xlink:href="#DejaVuSans-75" x="219.59375"/>
     <use xlink:href="#DejaVuSans-6e" x="282.972656"/>
     <use xlink:href="#DejaVuSans-64" x="346.351562"/>
     <use xlink:href="#DejaVuSans-2d" x="409.828125"/>
     <use xlink:href="#DejaVuSans-54" x="436.787109"/>
     <use xlink:href="#DejaVuSans-79" x="482.246094"/>
     <use xlink:href="#DejaVuSans-68" x="541.425781"/>
     <use xlink:href="#DejaVuSans-6f" x="604.804688"/>
     <use xlink:href="#DejaVuSans-6c" x="665.986328"/>
     <use xlink:href="#DejaVuSans-74" x="693.769531"/>
     <use xlink:href="#DejaVuSans-5f" x="732.978516"/>
     <use xlink:href="#DejaVuSans-66" x="782.978516"/>
     <use xlink:href="#DejaVuSans-6c" x="818.183594"/>
     <use xlink:href="#DejaVuSans-79" x="845.966797"/>
     <use xlink:href="#DejaVuSans-6d" x="905.146484"/>
     <use xlink:href="#DejaVuSans-6f" x="1002.558594"/>
     <use xlink:href="#DejaVuSans-64" x="1063.740234"/>
     <use xlink:href="#DejaVuSans-75" x="1127.216797"/>
     <use xlink:href="#DejaVuSans-73" x="1190.595703"/>
     <use xlink:href="#DejaVuSans-2d" x="1242.695312"/>
     <use xlink:href="#DejaVuSans-76" x="1276.154297"/>
     <use xlink:href="#DejaVuSans-69" x="1335.333984"/>
     <use xlink:href="#DejaVuSans-6e" x="1363.117188"/>
     <use xlink:href="#DejaVuSans-6b" x="1426.496094"/>
     <use xlink:href="#DejaVuSans-65" x="1480.78125"/>
     <use xlink:href="#DejaVuSans-6c" x="1542.304688"/>
    </g>
   </g>
   <g id="legend_1">
    <g id="patch_5">
     <path d="M 92.385937 61.311562 
L 375.897656 61.311562 
Q 378.897656 61.311562 378.897656 58.311562 
L 378.897656 37.377187 
Q 378.897656 34.377187 375.897656 34.377187 
L 92.385937 34.377187 
Q 89.385937 34.377187 89.385937 37.377187 
L 89.385937 58.311562 
Q 89.385937 61.311562 92.385937 61.311562 
z
" style="fill: #ffffff; opacity: 0.8; stroke: #cccccc; stroke-linejoin: miter"/>
    </g>
    <g id="line2d_30">
     <path d="M 95.385937 46.524844 
L 110.385937 46.524844 
L 125.385937 46.524844 
" style="fill: none; stroke: #1f77b4; stroke-width: 2; stroke-linecap: square"/>
    </g>
    <g id="text_18">
     <!-- Vemund-Tyholt_flymodus-vinkel -->
     <g style="fill: #808080" transform="translate(137.385938 51.774844) scale(0.15 -0.15)">
      <use xlink:href="#DejaVuSans-56"/>
      <use xlink:href="#DejaVuSans-65" x="60.658203"/>
      <use xlink:href="#DejaVuSans-6d" x="122.181641"/>
      <use xlink:href="#DejaVuSans-75" x="219.59375"/>
      <use xlink:href="#DejaVuSans-6e" x="282.972656"/>
      <use xlink:href="#DejaVuSans-64" x="346.351562"/>
      <use xlink:href="#DejaVuSans-2d" x="409.828125"/>
      <use xlink:href="#DejaVuSans-54" x="436.787109"/>
      <use xlink:href="#DejaVuSans-79" x="482.246094"/>
      <use xlink:href="#DejaVuSans-68" x="541.425781"/>
      <use xlink:href="#DejaVuSans-6f" x="604.804688"/>
      <use xlink:href="#DejaVuSans-6c" x="665.986328"/>
      <use xlink:href="#DejaVuSans-74" x="693.769531"/>
      <use xlink:href="#DejaVuSans-5f" x="732.978516"/>
      <use xlink:href="#DejaVuSans-66" x="782.978516"/>
      <use xlink:href="#DejaVuSans-6c" x="818.183594"/>
      <use xlink:href="#DejaVuSans-79" x="845.966797"/>
      <use xlink:href="#DejaVuSans-6d" x="905.146484"/>
      <use xlink:href="#DejaVuSans-6f" x="1002.558594"/>
      <use xlink:href="#DejaVuSans-64" x="1063.740234"/>
      <use xlink:href="#DejaVuSans-75" x="1127.216797"/>
      <use xlink:href="#DejaVuSans-73" x="1190.595703"/>
      <use xlink:href="#DejaVuSans-2d" x="1242.695312"/>
      <use xlink:href="#DejaVuSans-76" x="1276.154297"/>
      <use xlink:href="#DejaVuSans-69" x="1335.333984"/>
      <use xlink:href="#DejaVuSans-6e" x="1363.117188"/>
      <use xlink:href="#DejaVuSans-6b" x="1426.496094"/>
      <use xlink:href="#DejaVuSans-65" x="1480.78125"/>
      <use xlink:href="#DejaVuSans-6c" x="1542.304688"/>
     </g>
    </g>
   </g>
  </g>
 </g>
 <defs>
  <clipPath id="p019380e8cd">
   <rect x="81.885937" y="26.877187" width="558" height="388.08"/>
  </clipPath>
 </defs>
</svg>
