<?xml version="1.0" encoding="utf-8" standalone="no"?>
<!DOCTYPE svg PUBLIC "-//W3C//DTD SVG 1.1//EN"
  "http://www.w3.org/Graphics/SVG/1.1/DTD/svg11.dtd">
<svg xmlns:xlink="http://www.w3.org/1999/xlink" width="637.542187pt" height="458.691562pt" viewBox="0 0 637.542187 458.691562" xmlns="http://www.w3.org/2000/svg" version="1.1">
 <metadata>
  <rdf:RDF xmlns:dc="http://purl.org/dc/elements/1.1/" xmlns:cc="http://creativecommons.org/ns#" xmlns:rdf="http://www.w3.org/1999/02/22-rdf-syntax-ns#">
   <cc:Work>
    <dc:type rdf:resource="http://purl.org/dc/dcmitype/StillImage"/>
    <dc:date>2023-03-30T16:04:57.019770</dc:date>
    <dc:format>image/svg+xml</dc:format>
    <dc:creator>
     <cc:Agent>
      <dc:title>Matplotlib v3.7.0, https://matplotlib.org/</dc:title>
     </cc:Agent>
    </dc:creator>
   </cc:Work>
  </rdf:RDF>
 </metadata>
 <defs>
  <style type="text/css">*{stroke-linejoin: round; stroke-linecap: butt}</style>
 </defs>
 <g id="figure_1">
  <g id="patch_1">
   <path d="M 0 458.691562 
L 637.542187 458.691562 
L 637.542187 0 
L 0 0 
L 0 458.691562 
z
" style="fill: none"/>
  </g>
  <g id="axes_1">
   <g id="patch_2">
    <path d="M 72.342187 414.957187 
L 630.342188 414.957187 
L 630.342188 26.877187 
L 72.342187 26.877187 
L 72.342187 414.957187 
z
" style="fill: none"/>
   </g>
   <g id="matplotlib.axis_1">
    <g id="xtick_1">
     <g id="line2d_1">
      <path d="M 97.447131 414.957187 
L 97.447131 26.877187 
" clip-path="url(#p22550a6646)" style="fill: none; stroke: #808080; stroke-width: 0.8; stroke-linecap: square"/>
     </g>
     <g id="line2d_2">
      <defs>
       <path id="m3ee5a8ae4b" d="M 0 0 
L 0 -5 
" style="stroke: #808080; stroke-width: 0.8"/>
      </defs>
      <g>
       <use xlink:href="#m3ee5a8ae4b" x="97.447131" y="414.957187" style="fill: #808080; stroke: #808080; stroke-width: 0.8"/>
      </g>
     </g>
     <g id="text_1">
      <!-- 30 -->
      <g style="fill: #808080" transform="translate(87.903381 429.854844) scale(0.15 -0.15)">
       <defs>
        <path id="DejaVuSans-33" d="M 2597 2516 
Q 3050 2419 3304 2112 
Q 3559 1806 3559 1356 
Q 3559 666 3084 287 
Q 2609 -91 1734 -91 
Q 1441 -91 1130 -33 
Q 819 25 488 141 
L 488 750 
Q 750 597 1062 519 
Q 1375 441 1716 441 
Q 2309 441 2620 675 
Q 2931 909 2931 1356 
Q 2931 1769 2642 2001 
Q 2353 2234 1838 2234 
L 1294 2234 
L 1294 2753 
L 1863 2753 
Q 2328 2753 2575 2939 
Q 2822 3125 2822 3475 
Q 2822 3834 2567 4026 
Q 2313 4219 1838 4219 
Q 1578 4219 1281 4162 
Q 984 4106 628 3988 
L 628 4550 
Q 988 4650 1302 4700 
Q 1616 4750 1894 4750 
Q 2613 4750 3031 4423 
Q 3450 4097 3450 3541 
Q 3450 3153 3228 2886 
Q 3006 2619 2597 2516 
z
" transform="scale(0.015625)"/>
        <path id="DejaVuSans-30" d="M 2034 4250 
Q 1547 4250 1301 3770 
Q 1056 3291 1056 2328 
Q 1056 1369 1301 889 
Q 1547 409 2034 409 
Q 2525 409 2770 889 
Q 3016 1369 3016 2328 
Q 3016 3291 2770 3770 
Q 2525 4250 2034 4250 
z
M 2034 4750 
Q 2819 4750 3233 4129 
Q 3647 3509 3647 2328 
Q 3647 1150 3233 529 
Q 2819 -91 2034 -91 
Q 1250 -91 836 529 
Q 422 1150 422 2328 
Q 422 3509 836 4129 
Q 1250 4750 2034 4750 
z
" transform="scale(0.015625)"/>
       </defs>
       <use xlink:href="#DejaVuSans-33"/>
       <use xlink:href="#DejaVuSans-30" x="63.623047"/>
      </g>
     </g>
    </g>
    <g id="xtick_2">
     <g id="line2d_3">
      <path d="M 198.958833 414.957187 
L 198.958833 26.877187 
" clip-path="url(#p22550a6646)" style="fill: none; stroke: #808080; stroke-width: 0.8; stroke-linecap: square"/>
     </g>
     <g id="line2d_4">
      <g>
       <use xlink:href="#m3ee5a8ae4b" x="198.958833" y="414.957187" style="fill: #808080; stroke: #808080; stroke-width: 0.8"/>
      </g>
     </g>
     <g id="text_2">
      <!-- 35 -->
      <g style="fill: #808080" transform="translate(189.415083 429.854844) scale(0.15 -0.15)">
       <defs>
        <path id="DejaVuSans-35" d="M 691 4666 
L 3169 4666 
L 3169 4134 
L 1269 4134 
L 1269 2991 
Q 1406 3038 1543 3061 
Q 1681 3084 1819 3084 
Q 2600 3084 3056 2656 
Q 3513 2228 3513 1497 
Q 3513 744 3044 326 
Q 2575 -91 1722 -91 
Q 1428 -91 1123 -41 
Q 819 9 494 109 
L 494 744 
Q 775 591 1075 516 
Q 1375 441 1709 441 
Q 2250 441 2565 725 
Q 2881 1009 2881 1497 
Q 2881 1984 2565 2268 
Q 2250 2553 1709 2553 
Q 1456 2553 1204 2497 
Q 953 2441 691 2322 
L 691 4666 
z
" transform="scale(0.015625)"/>
       </defs>
       <use xlink:href="#DejaVuSans-33"/>
       <use xlink:href="#DejaVuSans-35" x="63.623047"/>
      </g>
     </g>
    </g>
    <g id="xtick_3">
     <g id="line2d_5">
      <path d="M 300.470536 414.957187 
L 300.470536 26.877187 
" clip-path="url(#p22550a6646)" style="fill: none; stroke: #808080; stroke-width: 0.8; stroke-linecap: square"/>
     </g>
     <g id="line2d_6">
      <g>
       <use xlink:href="#m3ee5a8ae4b" x="300.470536" y="414.957187" style="fill: #808080; stroke: #808080; stroke-width: 0.8"/>
      </g>
     </g>
     <g id="text_3">
      <!-- 40 -->
      <g style="fill: #808080" transform="translate(290.926786 429.854844) scale(0.15 -0.15)">
       <defs>
        <path id="DejaVuSans-34" d="M 2419 4116 
L 825 1625 
L 2419 1625 
L 2419 4116 
z
M 2253 4666 
L 3047 4666 
L 3047 1625 
L 3713 1625 
L 3713 1100 
L 3047 1100 
L 3047 0 
L 2419 0 
L 2419 1100 
L 313 1100 
L 313 1709 
L 2253 4666 
z
" transform="scale(0.015625)"/>
       </defs>
       <use xlink:href="#DejaVuSans-34"/>
       <use xlink:href="#DejaVuSans-30" x="63.623047"/>
      </g>
     </g>
    </g>
    <g id="xtick_4">
     <g id="line2d_7">
      <path d="M 401.982239 414.957187 
L 401.982239 26.877187 
" clip-path="url(#p22550a6646)" style="fill: none; stroke: #808080; stroke-width: 0.8; stroke-linecap: square"/>
     </g>
     <g id="line2d_8">
      <g>
       <use xlink:href="#m3ee5a8ae4b" x="401.982239" y="414.957187" style="fill: #808080; stroke: #808080; stroke-width: 0.8"/>
      </g>
     </g>
     <g id="text_4">
      <!-- 45 -->
      <g style="fill: #808080" transform="translate(392.438489 429.854844) scale(0.15 -0.15)">
       <use xlink:href="#DejaVuSans-34"/>
       <use xlink:href="#DejaVuSans-35" x="63.623047"/>
      </g>
     </g>
    </g>
    <g id="xtick_5">
     <g id="line2d_9">
      <path d="M 503.493941 414.957187 
L 503.493941 26.877187 
" clip-path="url(#p22550a6646)" style="fill: none; stroke: #808080; stroke-width: 0.8; stroke-linecap: square"/>
     </g>
     <g id="line2d_10">
      <g>
       <use xlink:href="#m3ee5a8ae4b" x="503.493941" y="414.957187" style="fill: #808080; stroke: #808080; stroke-width: 0.8"/>
      </g>
     </g>
     <g id="text_5">
      <!-- 50 -->
      <g style="fill: #808080" transform="translate(493.950191 429.854844) scale(0.15 -0.15)">
       <use xlink:href="#DejaVuSans-35"/>
       <use xlink:href="#DejaVuSans-30" x="63.623047"/>
      </g>
     </g>
    </g>
    <g id="xtick_6">
     <g id="line2d_11">
      <path d="M 605.005644 414.957187 
L 605.005644 26.877187 
" clip-path="url(#p22550a6646)" style="fill: none; stroke: #808080; stroke-width: 0.8; stroke-linecap: square"/>
     </g>
     <g id="line2d_12">
      <g>
       <use xlink:href="#m3ee5a8ae4b" x="605.005644" y="414.957187" style="fill: #808080; stroke: #808080; stroke-width: 0.8"/>
      </g>
     </g>
     <g id="text_6">
      <!-- 55 -->
      <g style="fill: #808080" transform="translate(595.461894 429.854844) scale(0.15 -0.15)">
       <use xlink:href="#DejaVuSans-35"/>
       <use xlink:href="#DejaVuSans-35" x="63.623047"/>
      </g>
     </g>
    </g>
    <g id="text_7">
     <!-- time [s] -->
     <g style="fill: #808080" transform="translate(322.255078 448.372031) scale(0.15 -0.15)">
      <defs>
       <path id="DejaVuSans-74" d="M 1172 4494 
L 1172 3500 
L 2356 3500 
L 2356 3053 
L 1172 3053 
L 1172 1153 
Q 1172 725 1289 603 
Q 1406 481 1766 481 
L 2356 481 
L 2356 0 
L 1766 0 
Q 1100 0 847 248 
Q 594 497 594 1153 
L 594 3053 
L 172 3053 
L 172 3500 
L 594 3500 
L 594 4494 
L 1172 4494 
z
" transform="scale(0.015625)"/>
       <path id="DejaVuSans-69" d="M 603 3500 
L 1178 3500 
L 1178 0 
L 603 0 
L 603 3500 
z
M 603 4863 
L 1178 4863 
L 1178 4134 
L 603 4134 
L 603 4863 
z
" transform="scale(0.015625)"/>
       <path id="DejaVuSans-6d" d="M 3328 2828 
Q 3544 3216 3844 3400 
Q 4144 3584 4550 3584 
Q 5097 3584 5394 3201 
Q 5691 2819 5691 2113 
L 5691 0 
L 5113 0 
L 5113 2094 
Q 5113 2597 4934 2840 
Q 4756 3084 4391 3084 
Q 3944 3084 3684 2787 
Q 3425 2491 3425 1978 
L 3425 0 
L 2847 0 
L 2847 2094 
Q 2847 2600 2669 2842 
Q 2491 3084 2119 3084 
Q 1678 3084 1418 2786 
Q 1159 2488 1159 1978 
L 1159 0 
L 581 0 
L 581 3500 
L 1159 3500 
L 1159 2956 
Q 1356 3278 1631 3431 
Q 1906 3584 2284 3584 
Q 2666 3584 2933 3390 
Q 3200 3197 3328 2828 
z
" transform="scale(0.015625)"/>
       <path id="DejaVuSans-65" d="M 3597 1894 
L 3597 1613 
L 953 1613 
Q 991 1019 1311 708 
Q 1631 397 2203 397 
Q 2534 397 2845 478 
Q 3156 559 3463 722 
L 3463 178 
Q 3153 47 2828 -22 
Q 2503 -91 2169 -91 
Q 1331 -91 842 396 
Q 353 884 353 1716 
Q 353 2575 817 3079 
Q 1281 3584 2069 3584 
Q 2775 3584 3186 3129 
Q 3597 2675 3597 1894 
z
M 3022 2063 
Q 3016 2534 2758 2815 
Q 2500 3097 2075 3097 
Q 1594 3097 1305 2825 
Q 1016 2553 972 2059 
L 3022 2063 
z
" transform="scale(0.015625)"/>
       <path id="DejaVuSans-20" transform="scale(0.015625)"/>
       <path id="DejaVuSans-5b" d="M 550 4863 
L 1875 4863 
L 1875 4416 
L 1125 4416 
L 1125 -397 
L 1875 -397 
L 1875 -844 
L 550 -844 
L 550 4863 
z
" transform="scale(0.015625)"/>
       <path id="DejaVuSans-73" d="M 2834 3397 
L 2834 2853 
Q 2591 2978 2328 3040 
Q 2066 3103 1784 3103 
Q 1356 3103 1142 2972 
Q 928 2841 928 2578 
Q 928 2378 1081 2264 
Q 1234 2150 1697 2047 
L 1894 2003 
Q 2506 1872 2764 1633 
Q 3022 1394 3022 966 
Q 3022 478 2636 193 
Q 2250 -91 1575 -91 
Q 1294 -91 989 -36 
Q 684 19 347 128 
L 347 722 
Q 666 556 975 473 
Q 1284 391 1588 391 
Q 1994 391 2212 530 
Q 2431 669 2431 922 
Q 2431 1156 2273 1281 
Q 2116 1406 1581 1522 
L 1381 1569 
Q 847 1681 609 1914 
Q 372 2147 372 2553 
Q 372 3047 722 3315 
Q 1072 3584 1716 3584 
Q 2034 3584 2315 3537 
Q 2597 3491 2834 3397 
z
" transform="scale(0.015625)"/>
       <path id="DejaVuSans-5d" d="M 1947 4863 
L 1947 -844 
L 622 -844 
L 622 -397 
L 1369 -397 
L 1369 4416 
L 622 4416 
L 622 4863 
L 1947 4863 
z
" transform="scale(0.015625)"/>
      </defs>
      <use xlink:href="#DejaVuSans-74"/>
      <use xlink:href="#DejaVuSans-69" x="39.208984"/>
      <use xlink:href="#DejaVuSans-6d" x="66.992188"/>
      <use xlink:href="#DejaVuSans-65" x="164.404297"/>
      <use xlink:href="#DejaVuSans-20" x="225.927734"/>
      <use xlink:href="#DejaVuSans-5b" x="257.714844"/>
      <use xlink:href="#DejaVuSans-73" x="296.728516"/>
      <use xlink:href="#DejaVuSans-5d" x="348.828125"/>
     </g>
    </g>
   </g>
   <g id="matplotlib.axis_2">
    <g id="ytick_1">
     <g id="line2d_13">
      <path d="M 72.342187 359.37049 
L 630.342188 359.37049 
" clip-path="url(#p22550a6646)" style="fill: none; stroke: #808080; stroke-width: 0.8; stroke-linecap: square"/>
     </g>
     <g id="line2d_14">
      <defs>
       <path id="mfb5f4e3c13" d="M 0 0 
L 5 0 
" style="stroke: #808080; stroke-width: 0.8"/>
      </defs>
      <g>
       <use xlink:href="#mfb5f4e3c13" x="72.342187" y="359.37049" style="fill: #808080; stroke: #808080; stroke-width: 0.8"/>
      </g>
     </g>
     <g id="text_8">
      <!-- 269.0 -->
      <g style="fill: #808080" transform="translate(25.9 365.069318) scale(0.15 -0.15)">
       <defs>
        <path id="DejaVuSans-32" d="M 1228 531 
L 3431 531 
L 3431 0 
L 469 0 
L 469 531 
Q 828 903 1448 1529 
Q 2069 2156 2228 2338 
Q 2531 2678 2651 2914 
Q 2772 3150 2772 3378 
Q 2772 3750 2511 3984 
Q 2250 4219 1831 4219 
Q 1534 4219 1204 4116 
Q 875 4013 500 3803 
L 500 4441 
Q 881 4594 1212 4672 
Q 1544 4750 1819 4750 
Q 2544 4750 2975 4387 
Q 3406 4025 3406 3419 
Q 3406 3131 3298 2873 
Q 3191 2616 2906 2266 
Q 2828 2175 2409 1742 
Q 1991 1309 1228 531 
z
" transform="scale(0.015625)"/>
        <path id="DejaVuSans-36" d="M 2113 2584 
Q 1688 2584 1439 2293 
Q 1191 2003 1191 1497 
Q 1191 994 1439 701 
Q 1688 409 2113 409 
Q 2538 409 2786 701 
Q 3034 994 3034 1497 
Q 3034 2003 2786 2293 
Q 2538 2584 2113 2584 
z
M 3366 4563 
L 3366 3988 
Q 3128 4100 2886 4159 
Q 2644 4219 2406 4219 
Q 1781 4219 1451 3797 
Q 1122 3375 1075 2522 
Q 1259 2794 1537 2939 
Q 1816 3084 2150 3084 
Q 2853 3084 3261 2657 
Q 3669 2231 3669 1497 
Q 3669 778 3244 343 
Q 2819 -91 2113 -91 
Q 1303 -91 875 529 
Q 447 1150 447 2328 
Q 447 3434 972 4092 
Q 1497 4750 2381 4750 
Q 2619 4750 2861 4703 
Q 3103 4656 3366 4563 
z
" transform="scale(0.015625)"/>
        <path id="DejaVuSans-39" d="M 703 97 
L 703 672 
Q 941 559 1184 500 
Q 1428 441 1663 441 
Q 2288 441 2617 861 
Q 2947 1281 2994 2138 
Q 2813 1869 2534 1725 
Q 2256 1581 1919 1581 
Q 1219 1581 811 2004 
Q 403 2428 403 3163 
Q 403 3881 828 4315 
Q 1253 4750 1959 4750 
Q 2769 4750 3195 4129 
Q 3622 3509 3622 2328 
Q 3622 1225 3098 567 
Q 2575 -91 1691 -91 
Q 1453 -91 1209 -44 
Q 966 3 703 97 
z
M 1959 2075 
Q 2384 2075 2632 2365 
Q 2881 2656 2881 3163 
Q 2881 3666 2632 3958 
Q 2384 4250 1959 4250 
Q 1534 4250 1286 3958 
Q 1038 3666 1038 3163 
Q 1038 2656 1286 2365 
Q 1534 2075 1959 2075 
z
" transform="scale(0.015625)"/>
        <path id="DejaVuSans-2e" d="M 684 794 
L 1344 794 
L 1344 0 
L 684 0 
L 684 794 
z
" transform="scale(0.015625)"/>
       </defs>
       <use xlink:href="#DejaVuSans-32"/>
       <use xlink:href="#DejaVuSans-36" x="63.623047"/>
       <use xlink:href="#DejaVuSans-39" x="127.246094"/>
       <use xlink:href="#DejaVuSans-2e" x="190.869141"/>
       <use xlink:href="#DejaVuSans-30" x="222.65625"/>
      </g>
     </g>
    </g>
    <g id="ytick_2">
     <g id="line2d_15">
      <path d="M 72.342187 273.486535 
L 630.342188 273.486535 
" clip-path="url(#p22550a6646)" style="fill: none; stroke: #808080; stroke-width: 0.8; stroke-linecap: square"/>
     </g>
     <g id="line2d_16">
      <g>
       <use xlink:href="#mfb5f4e3c13" x="72.342187" y="273.486535" style="fill: #808080; stroke: #808080; stroke-width: 0.8"/>
      </g>
     </g>
     <g id="text_9">
      <!-- 269.5 -->
      <g style="fill: #808080" transform="translate(25.9 279.185363) scale(0.15 -0.15)">
       <use xlink:href="#DejaVuSans-32"/>
       <use xlink:href="#DejaVuSans-36" x="63.623047"/>
       <use xlink:href="#DejaVuSans-39" x="127.246094"/>
       <use xlink:href="#DejaVuSans-2e" x="190.869141"/>
       <use xlink:href="#DejaVuSans-35" x="222.65625"/>
      </g>
     </g>
    </g>
    <g id="ytick_3">
     <g id="line2d_17">
      <path d="M 72.342187 187.602579 
L 630.342188 187.602579 
" clip-path="url(#p22550a6646)" style="fill: none; stroke: #808080; stroke-width: 0.8; stroke-linecap: square"/>
     </g>
     <g id="line2d_18">
      <g>
       <use xlink:href="#mfb5f4e3c13" x="72.342187" y="187.602579" style="fill: #808080; stroke: #808080; stroke-width: 0.8"/>
      </g>
     </g>
     <g id="text_10">
      <!-- 270.0 -->
      <g style="fill: #808080" transform="translate(25.9 193.301407) scale(0.15 -0.15)">
       <defs>
        <path id="DejaVuSans-37" d="M 525 4666 
L 3525 4666 
L 3525 4397 
L 1831 0 
L 1172 0 
L 2766 4134 
L 525 4134 
L 525 4666 
z
" transform="scale(0.015625)"/>
       </defs>
       <use xlink:href="#DejaVuSans-32"/>
       <use xlink:href="#DejaVuSans-37" x="63.623047"/>
       <use xlink:href="#DejaVuSans-30" x="127.246094"/>
       <use xlink:href="#DejaVuSans-2e" x="190.869141"/>
       <use xlink:href="#DejaVuSans-30" x="222.65625"/>
      </g>
     </g>
    </g>
    <g id="ytick_4">
     <g id="line2d_19">
      <path d="M 72.342187 101.718624 
L 630.342188 101.718624 
" clip-path="url(#p22550a6646)" style="fill: none; stroke: #808080; stroke-width: 0.8; stroke-linecap: square"/>
     </g>
     <g id="line2d_20">
      <g>
       <use xlink:href="#mfb5f4e3c13" x="72.342187" y="101.718624" style="fill: #808080; stroke: #808080; stroke-width: 0.8"/>
      </g>
     </g>
     <g id="text_11">
      <!-- 270.5 -->
      <g style="fill: #808080" transform="translate(25.9 107.417452) scale(0.15 -0.15)">
       <use xlink:href="#DejaVuSans-32"/>
       <use xlink:href="#DejaVuSans-37" x="63.623047"/>
       <use xlink:href="#DejaVuSans-30" x="127.246094"/>
       <use xlink:href="#DejaVuSans-2e" x="190.869141"/>
       <use xlink:href="#DejaVuSans-35" x="222.65625"/>
      </g>
     </g>
    </g>
    <g id="text_12">
     <!-- $\theta$ [deg] -->
     <g style="fill: #808080" transform="translate(18.75 247.917187) rotate(-90) scale(0.15 -0.15)">
      <defs>
       <path id="DejaVuSans-Oblique-3b8" d="M 2913 2219 
L 925 2219 
Q 791 1284 928 888 
Q 1100 400 1566 400 
Q 2034 400 2391 891 
Q 2703 1322 2913 2219 
z
M 3009 2750 
Q 3094 3638 2984 3950 
Q 2813 4444 2353 4444 
Q 1875 4444 1525 3956 
Q 1250 3563 1034 2750 
L 3009 2750 
z
M 2444 4913 
Q 3194 4913 3494 4250 
Q 3794 3591 3566 2422 
Q 3341 1256 2781 594 
Q 2225 -72 1475 -72 
Q 722 -72 425 594 
Q 128 1256 353 2422 
Q 581 3591 1134 4250 
Q 1691 4913 2444 4913 
z
" transform="scale(0.015625)"/>
       <path id="DejaVuSans-64" d="M 2906 2969 
L 2906 4863 
L 3481 4863 
L 3481 0 
L 2906 0 
L 2906 525 
Q 2725 213 2448 61 
Q 2172 -91 1784 -91 
Q 1150 -91 751 415 
Q 353 922 353 1747 
Q 353 2572 751 3078 
Q 1150 3584 1784 3584 
Q 2172 3584 2448 3432 
Q 2725 3281 2906 2969 
z
M 947 1747 
Q 947 1113 1208 752 
Q 1469 391 1925 391 
Q 2381 391 2643 752 
Q 2906 1113 2906 1747 
Q 2906 2381 2643 2742 
Q 2381 3103 1925 3103 
Q 1469 3103 1208 2742 
Q 947 2381 947 1747 
z
" transform="scale(0.015625)"/>
       <path id="DejaVuSans-67" d="M 2906 1791 
Q 2906 2416 2648 2759 
Q 2391 3103 1925 3103 
Q 1463 3103 1205 2759 
Q 947 2416 947 1791 
Q 947 1169 1205 825 
Q 1463 481 1925 481 
Q 2391 481 2648 825 
Q 2906 1169 2906 1791 
z
M 3481 434 
Q 3481 -459 3084 -895 
Q 2688 -1331 1869 -1331 
Q 1566 -1331 1297 -1286 
Q 1028 -1241 775 -1147 
L 775 -588 
Q 1028 -725 1275 -790 
Q 1522 -856 1778 -856 
Q 2344 -856 2625 -561 
Q 2906 -266 2906 331 
L 2906 616 
Q 2728 306 2450 153 
Q 2172 0 1784 0 
Q 1141 0 747 490 
Q 353 981 353 1791 
Q 353 2603 747 3093 
Q 1141 3584 1784 3584 
Q 2172 3584 2450 3431 
Q 2728 3278 2906 2969 
L 2906 3500 
L 3481 3500 
L 3481 434 
z
" transform="scale(0.015625)"/>
      </defs>
      <use xlink:href="#DejaVuSans-Oblique-3b8" transform="translate(0 0.234375)"/>
      <use xlink:href="#DejaVuSans-20" transform="translate(61.181641 0.234375)"/>
      <use xlink:href="#DejaVuSans-5b" transform="translate(92.96875 0.234375)"/>
      <use xlink:href="#DejaVuSans-64" transform="translate(131.982422 0.234375)"/>
      <use xlink:href="#DejaVuSans-65" transform="translate(195.458984 0.234375)"/>
      <use xlink:href="#DejaVuSans-67" transform="translate(256.982422 0.234375)"/>
      <use xlink:href="#DejaVuSans-5d" transform="translate(320.458984 0.234375)"/>
     </g>
    </g>
   </g>
   <g id="line2d_21">
    <path d="M 97.705824 166.154165 
L 97.909964 159.335453 
L 98.114104 135.413297 
L 98.318224 128.981089 
L 98.522364 130.167506 
L 98.726504 193.652942 
L 98.930644 143.390582 
L 99.134784 157.352556 
L 99.543044 138.148451 
L 99.747184 151.241799 
L 100.359604 116.099208 
L 100.563723 201.586042 
L 100.767863 179.073439 
L 100.972004 136.766452 
L 101.176144 193.887183 
L 101.380284 117.792678 
L 101.584403 197.460217 
L 101.788543 142.60997 
L 101.992683 142.894114 
L 102.196823 149.678995 
L 102.400963 121.903036 
L 102.605103 131.910474 
L 102.809222 155.697481 
L 103.013362 141.264652 
L 103.217502 181.549509 
L 103.625783 123.032311 
L 103.829902 129.891862 
L 104.034042 129.048622 
L 104.238182 156.166098 
L 104.442322 153.987745 
L 104.646462 199.461989 
L 104.850602 205.019547 
L 105.054722 177.609 
L 105.258862 198.375772 
L 105.463002 111.458992 
L 105.667142 184.968722 
L 105.871282 181.773679 
L 106.075402 195.98809 
L 106.279542 134.927825 
L 106.483682 172.218147 
L 106.687822 175.064203 
L 107.096082 252.056808 
L 107.300222 229.08087 
L 107.504362 173.824232 
L 107.708502 185.290978 
L 108.116782 161.522857 
L 108.320902 196.616431 
L 108.729182 91.99511 
L 108.933322 154.126727 
L 109.137462 166.258664 
L 109.341582 142.083911 
L 109.545722 186.847788 
L 109.749862 183.962346 
L 109.954002 187.199383 
L 110.158142 193.158093 
L 110.362262 118.154612 
L 110.566402 184.062255 
L 110.770542 201.017484 
L 111.178822 178.68641 
L 111.382941 195.762195 
L 111.791221 206.71061 
L 111.995362 145.18129 
L 112.199502 156.460672 
L 112.403642 182.822779 
L 112.607761 144.936646 
L 112.811901 128.682549 
L 113.016041 203.765329 
L 113.220181 117.941908 
L 113.628441 186.897153 
L 113.832581 126.955078 
L 114.036721 151.8454 
L 114.240861 126.686704 
L 114.445001 150.349633 
L 114.649121 152.990747 
L 114.853261 232.804103 
L 115.057401 232.804103 
L 115.261541 213.201162 
L 115.465681 207.041725 
L 115.669821 207.041725 
L 115.873941 160.586273 
L 116.078081 177.633705 
L 116.282221 265.6403 
L 116.486361 271.735846 
L 116.690501 239.214849 
L 116.894621 235.112479 
L 117.098761 237.796431 
L 117.302901 217.811354 
L 117.507041 151.580529 
L 117.711181 267.504665 
L 117.915301 196.555855 
L 118.119441 189.860385 
L 118.323581 188.668003 
L 118.935981 253.620732 
L 119.140121 221.389036 
L 119.344261 209.186971 
L 119.548401 221.703049 
L 119.752541 199.791233 
L 119.95666 222.720755 
L 120.1608 200.013365 
L 120.36494 206.3763 
L 120.569081 186.72861 
L 120.773221 180.000347 
L 120.977361 146.798023 
L 121.18148 199.911382 
L 121.58976 148.56847 
L 121.7939 163.628335 
L 121.99804 115.127277 
L 122.20216 205.849986 
L 122.4063 204.481739 
L 122.61045 141.454406 
L 122.81459 150.026504 
L 123.01873 201.247549 
L 123.22285 196.853447 
L 123.42699 180.170034 
L 123.63113 183.521886 
L 123.83527 156.61756 
L 124.03941 182.299731 
L 124.24353 168.876662 
L 124.44767 214.235441 
L 124.65181 172.069256 
L 124.85595 222.849315 
L 125.06009 211.849055 
L 125.26421 226.124416 
L 125.67249 141.446061 
L 125.87663 156.936534 
L 126.08077 238.645371 
L 126.28489 233.009929 
L 126.48903 199.159576 
L 126.69317 206.546749 
L 126.89731 122.630487 
L 127.10145 185.646803 
L 127.30557 175.979308 
L 127.50971 175.277607 
L 127.91799 155.927272 
L 128.12213 244.039043 
L 128.32625 179.938737 
L 128.53039 226.878366 
L 128.73453 202.948628 
L 128.93867 209.646426 
L 129.14281 171.342427 
L 129.34695 156.675281 
L 129.551069 163.040704 
L 129.95935 257.70575 
L 130.16349 202.145729 
L 130.36763 285.098543 
L 130.571749 288.78996 
L 130.775889 248.630145 
L 130.980029 308.41066 
L 131.184169 241.013014 
L 131.388309 284.822345 
L 131.592429 263.841766 
L 131.796569 182.355535 
L 132.000709 220.49686 
L 132.204849 183.772052 
L 132.408989 215.837114 
L 132.613109 209.735346 
L 132.817249 142.209425 
L 133.225529 153.700188 
L 133.429669 179.866595 
L 133.633789 233.380499 
L 133.837929 238.25511 
L 134.042069 255.565582 
L 134.246209 292.517364 
L 134.450349 265.725921 
L 134.858609 296.380509 
L 135.062749 304.357089 
L 135.266889 300.420203 
L 135.471029 281.105328 
L 135.675149 216.296098 
L 135.879289 251.333233 
L 136.083429 237.014526 
L 136.287569 206.600063 
L 136.491709 207.75346 
L 136.695829 228.003629 
L 136.899969 303.869309 
L 137.104109 285.342979 
L 137.308249 216.715955 
L 137.512389 211.80469 
L 137.716508 222.577081 
L 137.920648 240.249484 
L 138.124788 216.576358 
L 138.328928 289.109624 
L 138.533069 274.763416 
L 138.737188 321.829722 
L 138.941328 322.531313 
L 139.145468 244.617852 
L 139.349608 263.709644 
L 139.553748 254.5484 
L 139.757868 254.5484 
L 139.962008 264.34385 
L 140.166148 287.63096 
L 140.370288 240.880399 
L 140.574428 283.847422 
L 140.982688 241.997193 
L 141.186828 288.237444 
L 141.595088 248.398057 
L 141.799228 175.744169 
L 142.003368 194.330503 
L 142.207508 187.235721 
L 142.411648 205.087653 
L 142.615768 248.955971 
L 142.819898 255.613799 
L 143.024038 228.76649 
L 143.228178 245.633264 
L 143.636437 195.992049 
L 143.840577 210.054283 
L 144.248857 278.413512 
L 144.452998 274.303933 
L 144.657117 235.883937 
L 145.065397 290.655887 
L 145.473677 246.287437 
L 145.677797 247.285337 
L 145.881937 250.643949 
L 146.086077 212.723831 
L 146.494357 250.344824 
L 146.902617 211.541402 
L 147.106757 252.307306 
L 147.310897 236.886444 
L 147.515037 233.175991 
L 147.719157 237.859712 
L 147.923297 188.76403 
L 148.127437 169.279589 
L 148.331577 179.846138 
L 148.535717 183.695681 
L 148.739837 209.473358 
L 148.943977 204.930506 
L 149.148117 207.721653 
L 149.352257 240.295743 
L 149.556397 199.995434 
L 149.760517 223.389515 
L 149.964657 286.483875 
L 150.372937 314.18762 
L 150.577056 268.479735 
L 150.781196 298.945908 
L 151.189477 262.592308 
L 151.393617 322.717576 
L 151.597736 284.021106 
L 151.801876 213.356449 
L 152.210156 267.990749 
L 152.414296 260.277918 
L 152.618416 238.402276 
L 152.822556 260.86035 
L 153.026696 210.544036 
L 153.230836 239.356935 
L 153.434976 249.149149 
L 153.639096 235.462234 
L 153.843236 207.771339 
L 154.047376 267.500573 
L 154.251516 212.250723 
L 154.455656 251.197711 
L 154.659776 220.405863 
L 155.068056 239.180228 
L 155.476316 145.765084 
L 155.680456 172.407671 
L 156.088736 167.713961 
L 156.292876 186.643004 
L 156.496996 168.048183 
L 156.701136 161.339723 
L 157.313556 276.985173 
L 157.517675 246.905391 
L 157.721816 179.421661 
L 157.925956 208.586036 
L 158.130096 215.045508 
L 158.334236 267.149776 
L 158.538355 213.195601 
L 158.742495 230.881939 
L 158.946635 226.58852 
L 159.150775 208.296824 
L 159.354895 201.507319 
L 159.559035 167.533698 
L 159.763175 221.90765 
L 159.967315 213.369962 
L 160.171455 235.658919 
L 160.375575 234.989268 
L 160.579715 217.525793 
L 160.783855 240.017275 
L 160.987995 301.367962 
L 161.192135 298.847909 
L 161.396255 251.987602 
L 161.600395 290.866938 
L 161.804535 251.861572 
L 162.008675 253.508446 
L 162.212795 237.253415 
L 162.621075 225.761359 
L 163.029355 268.236156 
L 163.233543 186.215153 
L 163.437683 264.718309 
L 163.641823 264.718309 
L 163.845963 242.704944 
L 164.050103 235.589995 
L 164.254223 243.964347 
L 164.458363 195.675466 
L 164.662503 212.145591 
L 164.866643 211.066161 
L 165.070783 171.458804 
L 165.274903 200.315725 
L 165.479043 161.95331 
L 165.683183 164.685313 
L 165.887323 204.514124 
L 166.091443 154.6288 
L 166.499723 233.10092 
L 166.703863 198.734915 
L 167.112123 233.180327 
L 167.316263 229.444646 
L 167.520403 212.362704 
L 167.724543 236.886031 
L 167.928662 210.854324 
L 168.132803 203.898369 
L 168.336943 234.252449 
L 168.541082 231.707944 
L 168.745223 223.557461 
L 168.949342 261.916401 
L 169.153482 238.134791 
L 169.561762 178.513823 
L 169.765902 198.039538 
L 169.970022 202.142107 
L 170.378302 198.100157 
L 170.582442 176.749924 
L 170.786562 167.358245 
L 170.990702 138.485681 
L 171.194842 147.24766 
L 171.398982 148.92754 
L 171.603122 163.577272 
L 172.011382 213.278738 
L 172.215522 179.828509 
L 172.623782 212.563022 
L 172.827922 203.074058 
L 173.032062 158.308245 
L 173.236202 160.570228 
L 173.644462 218.203646 
L 173.848602 194.725625 
L 174.052742 251.137681 
L 174.461022 125.838287 
L 174.665141 148.37715 
L 174.869282 187.867544 
L 175.073422 172.299137 
L 175.277561 189.748148 
L 175.481681 168.615689 
L 175.685821 120.278026 
L 175.889961 125.129595 
L 176.094101 173.165661 
L 176.298241 166.948543 
L 176.502361 172.269719 
L 176.706501 105.200105 
L 176.910641 105.34115 
L 177.114781 116.511698 
L 177.318901 174.654101 
L 177.523041 162.635905 
L 177.727181 160.216694 
L 177.931321 149.738029 
L 178.135461 150.390356 
L 178.339581 131.955754 
L 178.543721 135.665195 
L 178.952001 172.458719 
L 179.156121 194.212064 
L 179.360261 157.688358 
L 179.564401 148.944417 
L 179.768541 198.653399 
L 179.972681 166.560002 
L 180.176801 200.79718 
L 180.380941 198.315419 
L 180.585081 211.471786 
L 180.789221 234.24352 
L 181.401621 190.182294 
L 181.605761 238.009232 
L 181.809901 222.614452 
L 182.01402 180.574257 
L 182.4223 216.154692 
L 182.83056 168.052834 
L 183.0347 159.592047 
L 183.647044 150.06913 
L 184.055304 217.863181 
L 184.259444 165.217689 
L 184.463584 158.861427 
L 184.667704 211.642389 
L 185.075984 245.596603 
L 185.280124 233.126215 
L 185.484264 200.051202 
L 185.688383 218.149368 
L 185.892524 251.274735 
L 186.096664 210.112369 
L 186.504923 220.086688 
L 186.709063 240.20742 
L 186.913203 239.159315 
L 187.117344 272.172474 
L 187.321484 179.384838 
L 187.525603 176.438783 
L 187.729743 273.41346 
L 187.933883 273.41346 
L 188.138023 266.528932 
L 188.342143 299.761273 
L 188.546283 233.09236 
L 188.750423 210.414509 
L 188.954563 254.91077 
L 189.158683 204.915362 
L 189.362823 273.034719 
L 189.566963 265.750208 
L 189.771103 249.694274 
L 189.975243 190.828483 
L 190.179363 172.946221 
L 190.587643 204.44692 
L 190.791783 207.108532 
L 190.995923 186.447039 
L 191.200042 180.613687 
L 191.404183 190.339442 
L 191.608323 236.325748 
L 191.812463 251.731543 
L 192.220723 197.459354 
L 192.424862 218.601311 
L 192.629003 265.176523 
L 192.833122 268.495102 
L 193.037262 235.020903 
L 193.445542 296.789369 
L 193.853802 222.468826 
L 194.057942 231.094403 
L 194.262082 230.398015 
L 194.466222 237.900062 
L 194.670342 180.878917 
L 195.282762 236.018391 
L 195.486882 198.085147 
L 195.691022 209.175179 
L 195.895162 278.37809 
L 196.099302 298.351947 
L 196.507562 200.962153 
L 196.711702 165.704808 
L 196.915842 162.949653 
L 197.119982 186.119395 
L 197.324102 145.075825 
L 197.528242 222.142009 
L 197.732381 216.626103 
L 197.936522 237.478429 
L 198.140662 172.694476 
L 198.344781 233.468068 
L 198.548921 229.379834 
L 198.753062 149.703014 
L 198.957201 159.700061 
L 199.161321 214.135628 
L 199.365461 177.523063 
L 199.569601 203.375162 
L 199.773741 256.26691 
L 199.977861 248.740735 
L 200.182001 201.957894 
L 200.386141 230.407477 
L 200.590281 193.438859 
L 200.794421 195.04774 
L 200.998541 177.87579 
L 201.202681 193.290474 
L 201.406821 162.382745 
L 201.610961 159.607094 
L 201.815081 162.660731 
L 202.019221 184.006998 
L 202.223361 117.528593 
L 202.427501 176.576994 
L 202.835761 104.389783 
L 203.039901 161.965538 
L 203.244041 140.695668 
L 203.448181 147.554887 
L 203.652301 86.377899 
L 203.85644 184.802428 
L 204.060581 146.911397 
L 204.264721 169.593927 
L 204.46884 116.92033 
L 204.67298 117.483543 
L 204.87712 154.642414 
L 205.28538 190.62272 
L 205.48952 229.766907 
L 205.69366 181.183132 
L 205.8978 207.78668 
L 206.10192 187.56901 
L 206.30606 199.724705 
L 206.5102 196.670133 
L 206.71434 253.329166 
L 206.91848 223.209423 
L 207.32674 289.570592 
L 207.53088 220.225239 
L 207.73502 250.302264 
L 207.93914 212.951622 
L 208.14328 208.464743 
L 208.34742 209.758874 
L 208.55156 193.016586 
L 208.75568 185.540665 
L 208.95982 227.825476 
L 209.16396 238.660371 
L 209.3681 238.961287 
L 209.776359 163.488239 
L 209.980499 260.298023 
L 210.38878 193.497964 
L 210.592899 189.882965 
L 211.001179 254.249651 
L 211.205319 222.918732 
L 211.409439 168.496827 
L 211.613579 168.496827 
L 211.817719 186.231952 
L 212.021859 167.380236 
L 212.225979 167.380236 
L 212.430119 182.49646 
L 212.634259 161.846254 
L 212.838399 221.274382 
L 213.246659 143.72909 
L 213.450799 143.587507 
L 213.859079 212.859079 
L 214.471479 136.505868 
L 214.675619 220.511672 
L 214.879738 156.915225 
L 215.083879 173.476991 
L 215.288018 204.198856 
L 215.492159 259.659865 
L 215.900418 195.242888 
L 216.104558 230.263693 
L 216.308698 236.864009 
L 216.512818 177.21133 
L 217.125238 241.607529 
L 217.329358 193.853161 
L 217.533498 235.923496 
L 217.737638 219.841353 
L 218.145918 235.457762 
L 218.350038 259.732388 
L 218.554178 265.451973 
L 218.758318 244.481619 
L 218.962458 209.161041 
L 219.166578 258.58519 
L 219.370718 256.476919 
L 219.574858 223.993966 
L 219.778998 287.629738 
L 219.983118 283.798725 
L 220.391398 322.199508 
L 220.799657 266.030173 
L 221.003797 283.146886 
L 221.207937 320.88041 
L 221.616197 270.860377 
L 221.820337 358.124839 
L 222.024477 322.764877 
L 222.228617 239.749584 
L 222.432737 229.342811 
L 222.636877 174.17394 
L 222.841017 264.255957 
L 223.045157 214.279826 
L 223.249277 222.249575 
L 223.453417 195.197729 
L 223.657557 216.10229 
L 224.065837 264.8708 
L 224.474109 306.912874 
L 224.678249 311.425835 
L 224.882389 273.986323 
L 225.086509 286.370345 
L 225.290649 228.603114 
L 225.903049 270.89839 
L 226.107189 244.455932 
L 226.311329 268.665803 
L 226.515469 267.357828 
L 226.719589 287.467571 
L 226.923729 328.114507 
L 227.127869 318.851584 
L 227.332009 327.54536 
L 227.536129 271.174708 
L 227.740269 274.643326 
L 227.944409 203.810025 
L 228.352668 277.71528 
L 228.556808 260.586115 
L 228.760949 311.688037 
L 229.169208 215.687512 
L 229.373348 277.018271 
L 229.577488 266.422723 
L 229.781628 275.685543 
L 229.985748 257.109546 
L 230.189888 294.528364 
L 230.394028 241.09966 
L 230.598168 314.106569 
L 230.802288 294.857582 
L 231.006428 236.276373 
L 231.210568 246.30096 
L 231.414708 281.08657 
L 231.618828 247.837495 
L 231.822968 296.667043 
L 232.027108 253.696006 
L 232.231248 271.067961 
L 232.843648 227.494375 
L 233.047788 283.484092 
L 233.251907 220.498722 
L 233.456048 228.483749 
L 233.660188 214.884968 
L 234.068447 269.214104 
L 234.272587 204.447043 
L 234.476727 237.054711 
L 234.680867 244.072329 
L 234.884987 242.447188 
L 235.089127 235.175449 
L 235.293267 175.54191 
L 235.497407 188.802641 
L 235.701527 213.904468 
L 235.905667 210.319918 
L 236.109807 247.895453 
L 236.313947 222.360567 
L 236.518087 222.360567 
L 236.722207 266.456853 
L 236.926347 279.336053 
L 237.334627 237.352218 
L 237.538747 270.436264 
L 237.742887 243.776509 
L 237.947027 270.196424 
L 238.355287 187.828786 
L 238.763567 224.29786 
L 238.967707 153.784046 
L 239.171826 151.954215 
L 239.375966 173.221227 
L 239.580106 214.656863 
L 239.784246 180.359341 
L 239.988366 178.359211 
L 240.192506 251.286509 
L 240.396646 279.371462 
L 240.600786 202.659066 
L 240.804906 196.334625 
L 241.009046 202.375922 
L 241.213186 205.00067 
L 241.621446 180.311043 
L 241.825586 192.236638 
L 242.029726 246.482842 
L 242.233866 236.189737 
L 242.437986 176.419243 
L 242.642126 184.199788 
L 243.050406 238.975948 
L 243.254526 155.819688 
L 243.866946 249.973498 
L 244.071065 275.412875 
L 244.275205 271.170402 
L 244.479333 224.439596 
L 244.683453 218.341276 
L 244.887592 168.686522 
L 245.091733 220.94652 
L 245.295873 227.122958 
L 245.499992 168.350982 
L 245.704132 247.239858 
L 245.908272 174.415241 
L 246.112412 241.882362 
L 246.316532 234.463748 
L 246.520672 198.347295 
L 246.724812 247.773202 
L 247.133072 203.661598 
L 247.337212 221.455812 
L 247.541352 205.782036 
L 247.745492 202.110391 
L 247.949612 194.934087 
L 248.153752 177.040581 
L 248.357892 128.639582 
L 248.562032 174.265862 
L 248.766152 189.290238 
L 248.970292 227.788408 
L 249.174432 212.246615 
L 249.378572 266.216386 
L 249.582692 250.849707 
L 249.786832 182.236073 
L 250.195112 215.570967 
L 250.399231 220.070691 
L 250.603371 155.392476 
L 250.807511 158.042311 
L 251.011651 178.260162 
L 251.215771 237.243013 
L 251.419911 217.88054 
L 251.624051 224.508508 
L 251.828191 184.517182 
L 252.440591 219.1135 
L 252.848851 295.498814 
L 253.052991 274.40735 
L 253.257131 279.347072 
L 253.461271 291.4849 
L 253.869531 270.411477 
L 254.073671 279.897471 
L 254.277811 282.631294 
L 254.48193 276.715672 
L 255.09435 234.232605 
L 255.29847 169.494507 
L 255.50261 222.118121 
L 255.70675 243.58898 
L 255.91089 224.975688 
L 256.11501 180.157229 
L 256.52329 282.70713 
L 256.93155 247.335568 
L 257.13569 267.682007 
L 257.33983 327.113136 
L 257.54395 281.957388 
L 257.74809 270.879732 
L 257.95223 295.915238 
L 258.36049 185.06205 
L 258.56463 186.456773 
L 258.76877 201.846413 
L 258.97291 235.869894 
L 259.17703 240.874805 
L 259.38117 269.190613 
L 259.58531 192.327025 
L 259.78945 233.209965 
L 260.197709 194.913113 
L 260.401849 233.28993 
L 260.605989 193.374479 
L 260.810109 193.374479 
L 261.014249 164.787955 
L 261.218389 175.308919 
L 261.422529 161.025495 
L 261.626649 166.243794 
L 261.830789 185.352473 
L 262.034929 186.29373 
L 262.239049 163.765812 
L 262.443189 183.855218 
L 262.647329 242.154322 
L 262.851469 255.194165 
L 263.055589 228.42091 
L 263.259729 224.71116 
L 263.463869 259.216065 
L 263.668009 224.334927 
L 263.872128 225.619853 
L 264.076268 216.724451 
L 264.280409 254.177864 
L 264.484549 209.186767 
L 264.688668 224.331944 
L 264.892824 289.395732 
L 265.096963 240.73198 
L 265.301104 223.130804 
L 265.505223 217.711267 
L 265.709363 238.411451 
L 266.117643 208.811875 
L 266.321763 229.725027 
L 266.525903 266.398573 
L 266.730043 230.798798 
L 266.934163 285.360772 
L 267.138303 221.23685 
L 267.342443 279.811385 
L 267.546583 222.755953 
L 267.750703 220.242944 
L 267.954843 267.760974 
L 268.158983 244.120689 
L 268.363123 239.950698 
L 268.567242 311.811585 
L 268.975523 243.256195 
L 269.179663 242.210569 
L 269.383783 257.800576 
L 269.587923 227.841238 
L 269.792062 258.919336 
L 269.996203 236.437292 
L 270.200322 194.674494 
L 270.404462 192.502206 
L 270.608602 171.547789 
L 270.812722 225.497926 
L 271.016862 198.445793 
L 271.221002 279.733645 
L 271.425142 253.652188 
L 271.629262 313.434393 
L 271.833402 248.182973 
L 272.037542 249.765594 
L 272.241682 255.200591 
L 272.445802 249.390656 
L 272.649942 163.303744 
L 272.854082 224.971976 
L 273.058222 173.078006 
L 273.262342 233.363846 
L 273.670622 192.263744 
L 273.874741 268.385855 
L 274.078881 215.734147 
L 274.283022 237.749452 
L 274.487162 215.970929 
L 274.895421 234.198721 
L 275.099561 185.735781 
L 275.303701 267.196935 
L 275.507821 262.451528 
L 275.711961 233.951695 
L 275.916101 241.788642 
L 276.120241 213.324651 
L 276.324361 235.499038 
L 276.528501 237.715096 
L 276.732641 211.395957 
L 276.936761 249.298369 
L 277.140901 244.956347 
L 277.345041 286.964323 
L 277.549181 230.051608 
L 277.753301 262.991159 
L 277.957441 248.26827 
L 278.161581 257.444603 
L 278.365721 166.539751 
L 278.56984 138.494423 
L 278.97812 189.396091 
L 279.182261 189.945259 
L 279.38638 187.474513 
L 279.59052 194.443058 
L 279.79466 166.278744 
L 279.99878 167.421174 
L 280.40706 274.510555 
L 280.6112 237.648562 
L 280.81532 177.326009 
L 281.01946 184.296661 
L 281.2236 232.276975 
L 281.42774 191.204463 
L 281.63186 175.642944 
L 281.836 175.752177 
L 282.24428 280.081729 
L 282.448399 259.408123 
L 282.65254 274.146827 
L 282.85668 266.552468 
L 283.264939 212.194389 
L 283.469079 205.108501 
L 283.673219 191.244532 
L 283.877339 162.416473 
L 284.081479 209.555834 
L 284.285619 200.623144 
L 284.489759 130.646067 
L 284.693879 231.772401 
L 284.898019 231.772401 
L 285.102144 217.442834 
L 285.306264 168.94889 
L 285.510404 153.044207 
L 285.714543 114.15436 
L 285.918684 161.92641 
L 286.122803 181.776101 
L 286.531083 148.175243 
L 286.735224 185.542094 
L 286.939343 174.175223 
L 287.143483 195.081268 
L 287.347623 172.34443 
L 287.551743 164.792103 
L 287.755883 145.724457 
L 287.960023 194.899403 
L 288.368283 210.814481 
L 288.572423 194.191878 
L 288.776563 193.052009 
L 289.184823 287.30831 
L 289.388963 196.410945 
L 289.593103 195.218591 
L 289.797223 117.269561 
L 290.205503 109.847459 
L 290.409643 123.699486 
L 290.613762 156.540229 
L 290.817902 118.62418 
L 291.226182 185.060285 
L 291.430302 123.832414 
L 291.634442 174.628686 
L 292.042702 146.410692 
L 292.246842 149.847222 
L 292.450982 110.970654 
L 292.655122 133.167809 
L 293.063382 215.258297 
L 293.267522 127.343552 
L 293.471662 143.224673 
L 293.675782 146.969324 
L 293.879922 116.041875 
L 294.288181 164.792836 
L 294.492321 134.847597 
L 294.696461 125.572553 
L 294.900602 129.521118 
L 295.104721 81.836913 
L 295.308861 100.48681 
L 295.513001 143.981266 
L 295.717121 152.577799 
L 295.921261 172.194313 
L 296.125401 106.187544 
L 296.737801 169.989552 
L 296.941941 178.39261 
L 297.146081 175.412603 
L 297.350201 206.86791 
L 297.554341 204.072438 
L 297.758481 232.860409 
L 297.962601 194.456373 
L 298.166741 200.764332 
L 298.575021 141.464266 
L 298.98328 212.544614 
L 299.18742 209.011729 
L 299.39154 232.035564 
L 299.59568 173.965856 
L 299.79982 200.820012 
L 300.00396 170.279001 
L 300.20808 182.927896 
L 300.41222 165.311341 
L 300.61636 199.482796 
L 300.82048 156.078601 
L 301.02462 195.625144 
L 301.22876 163.41512 
L 301.4329 222.132924 
L 301.63702 164.434233 
L 302.0453 139.297843 
L 302.24944 140.44194 
L 302.453559 108.409546 
L 302.86184 137.80775 
L 303.065959 126.936003 
L 303.270099 200.620786 
L 303.474239 225.724642 
L 303.678379 180.077526 
L 303.882499 176.535305 
L 304.086639 201.118553 
L 304.290779 162.017763 
L 304.494899 84.793311 
L 304.699039 117.004492 
L 304.903179 168.777046 
L 305.107319 149.384274 
L 305.311439 110.425381 
L 305.515586 114.868623 
L 305.719726 96.675856 
L 305.923866 104.639827 
L 306.332126 165.186903 
L 306.536266 145.72059 
L 306.740386 105.41392 
L 306.944526 140.249579 
L 307.148666 125.092187 
L 307.352806 175.923379 
L 307.761066 76.261152 
L 308.169326 136.800945 
L 308.577606 44.622472 
L 308.781746 93.044998 
L 308.985865 114.797767 
L 309.190005 114.797767 
L 309.394145 32.444141 
L 309.598265 53.315997 
L 310.006545 182.750384 
L 310.210685 187.840557 
L 310.414805 149.490397 
L 310.618945 150.303511 
L 311.027205 92.219396 
L 311.231345 102.507091 
L 311.435485 121.127148 
L 311.639625 103.922737 
L 311.843745 117.105012 
L 312.252025 163.729632 
L 312.456144 204.830971 
L 312.660284 166.209561 
L 312.864425 154.623619 
L 313.068565 182.64531 
L 313.272684 142.656929 
L 313.476824 143.428533 
L 313.680964 165.199255 
L 313.885104 155.646464 
L 314.089224 105.75974 
L 314.293364 154.073823 
L 314.497504 107.735007 
L 314.701624 152.710809 
L 314.905764 139.46703 
L 315.109904 135.909486 
L 315.314044 155.378016 
L 315.518164 142.147829 
L 315.722304 153.402634 
L 315.926444 142.011991 
L 316.130564 178.590364 
L 316.334704 161.397336 
L 316.742984 87.079769 
L 316.947103 188.694835 
L 317.151243 149.770586 
L 317.355383 184.383558 
L 317.559503 179.88915 
L 317.763643 197.047469 
L 317.967783 154.892359 
L 318.171923 153.993429 
L 318.580183 100.132734 
L 318.784323 148.974264 
L 318.988443 151.703535 
L 319.192583 94.825033 
L 319.396723 132.445272 
L 319.600843 118.981036 
L 319.804983 128.091234 
L 320.009123 75.240002 
L 320.213263 123.872289 
L 320.417382 77.21283 
L 320.621522 89.954756 
L 320.825663 68.29316 
L 321.029782 142.54448 
L 321.233922 97.3331 
L 321.438062 139.824724 
L 321.642202 225.632051 
L 321.846322 122.526715 
L 322.050462 111.566314 
L 322.254602 107.017132 
L 322.458722 111.034157 
L 322.662862 145.774287 
L 322.867002 136.399985 
L 323.071142 77.930044 
L 323.275262 117.81219 
L 323.479402 90.795278 
L 323.683542 93.431145 
L 323.887662 141.097687 
L 324.091802 150.437105 
L 324.500082 122.832796 
L 324.704201 197.591707 
L 324.908341 163.721136 
L 325.112481 183.300912 
L 325.316601 178.703699 
L 325.520741 150.327849 
L 325.724874 169.180476 
L 325.929014 176.955741 
L 326.133133 235.974229 
L 326.337273 148.358134 
L 326.541414 132.033677 
L 326.745533 101.736835 
L 326.949673 156.002065 
L 327.153813 106.457969 
L 327.357953 128.937225 
L 327.562073 87.212351 
L 327.766213 139.342748 
L 327.970353 119.020711 
L 328.174473 177.583241 
L 328.378613 171.527203 
L 328.582753 173.686118 
L 328.786872 180.366265 
L 328.991013 140.343132 
L 329.195153 144.187878 
L 329.399293 183.665321 
L 329.807553 102.103157 
L 330.011692 127.324474 
L 330.215812 128.962221 
L 330.419952 125.136859 
L 330.624092 159.680326 
L 330.828232 154.696646 
L 331.032352 170.50726 
L 331.440632 131.535223 
L 331.644752 159.19137 
L 331.848892 111.769781 
L 332.053032 114.738814 
L 332.257172 185.648799 
L 332.461292 79.776381 
L 332.665432 81.578878 
L 332.869572 139.85295 
L 333.073692 139.85295 
L 333.277832 137.98474 
L 333.481972 117.71983 
L 333.686091 117.71983 
L 333.890231 138.927092 
L 334.094371 140.733371 
L 334.298511 162.235048 
L 334.502631 154.098059 
L 334.706771 162.675458 
L 334.910911 203.946495 
L 335.115031 185.794444 
L 335.319171 182.251479 
L 335.523311 212.277744 
L 335.931571 131.433616 
L 336.135711 159.411341 
L 336.339851 142.631827 
L 336.54397 150.632832 
L 336.748111 141.336754 
L 336.952251 124.152188 
L 337.15637 74.345297 
L 337.36051 113.230383 
L 337.76879 208.815446 
L 337.97291 221.869216 
L 338.17705 177.597413 
L 338.38119 232.312197 
L 338.58531 201.972764 
L 338.78945 236.791514 
L 338.99359 186.131945 
L 339.19771 197.500463 
L 339.40185 202.398439 
L 339.60599 148.714177 
L 339.81013 181.599091 
L 340.01425 189.669221 
L 340.21839 212.663625 
L 340.42253 176.780595 
L 340.62665 166.806607 
L 340.830789 180.149332 
L 341.23907 242.368901 
L 341.443189 250.578074 
L 341.647329 241.292218 
L 341.851469 265.471461 
L 342.055589 230.564234 
L 342.259729 223.58759 
L 342.463869 241.459521 
L 342.872129 198.531166 
L 343.076269 254.792017 
L 343.280389 258.249363 
L 343.484529 250.724578 
L 343.688669 296.905803 
L 344.096929 179.669699 
L 344.301068 231.849164 
L 344.505209 205.525616 
L 344.709328 260.029092 
L 344.913468 234.989221 
L 345.321748 290.029366 
L 345.525868 257.824629 
L 345.730008 263.357135 
L 345.934148 287.223988 
L 346.138276 293.268914 
L 346.342416 304.817409 
L 346.546556 222.266238 
L 346.750675 239.099559 
L 346.954815 339.887453 
L 347.158955 258.372296 
L 347.363095 291.200308 
L 347.567215 276.219208 
L 347.771355 301.614615 
L 347.975495 305.172163 
L 348.179615 305.457351 
L 348.383755 331.672827 
L 348.587895 315.463781 
L 348.792015 328.993187 
L 348.996155 254.260904 
L 349.200295 289.711254 
L 349.404435 256.726522 
L 349.608555 289.782112 
L 349.812695 293.150715 
L 350.016835 302.623263 
L 350.220954 296.694914 
L 350.425094 254.85765 
L 350.629234 287.5253 
L 350.833354 266.376023 
L 351.037494 283.460782 
L 351.241634 268.606598 
L 351.445754 311.175032 
L 351.649894 321.957794 
L 351.854034 316.490536 
L 352.058174 302.484382 
L 352.262294 244.886503 
L 352.466434 301.010715 
L 352.670574 279.611213 
L 352.874694 337.486544 
L 353.078834 277.725273 
L 353.282974 293.60851 
L 353.487093 372.139327 
L 353.691233 301.247226 
L 353.895374 369.864984 
L 354.099514 329.932198 
L 354.303633 368.59182 
L 354.507773 384.381739 
L 354.711913 364.719608 
L 354.916033 374.103709 
L 355.120173 329.585779 
L 355.324313 327.389444 
L 355.732573 275.608166 
L 355.936713 373.783943 
L 356.140853 357.033119 
L 356.344973 371.761755 
L 356.549113 318.768827 
L 356.957373 309.566823 
L 357.161513 344.099167 
L 357.365653 331.210764 
L 357.569772 289.031573 
L 357.773912 289.031573 
L 357.978052 324.543549 
L 358.182172 255.351138 
L 358.386312 278.644244 
L 358.590452 327.519106 
L 358.998712 283.415758 
L 359.406992 263.555026 
L 359.611112 312.243492 
L 360.223512 259.522548 
L 360.427652 272.744245 
L 360.631792 229.375772 
L 360.835911 221.601191 
L 361.040051 277.010169 
L 361.448331 320.627263 
L 361.652451 280.676561 
L 361.856591 266.683705 
L 362.060731 299.625298 
L 362.264851 290.098484 
L 362.468991 301.143391 
L 362.673131 318.616654 
L 362.877251 294.445227 
L 363.081391 318.898778 
L 363.285531 320.734026 
L 363.489651 301.923968 
L 363.693791 297.613591 
L 363.897931 280.329074 
L 364.102071 296.938278 
L 364.30619 227.046076 
L 364.51033 250.956668 
L 364.71447 323.559446 
L 364.91859 340.087412 
L 365.12273 323.371228 
L 365.32687 296.953368 
L 365.53099 357.233119 
L 365.93927 339.505395 
L 366.14339 348.401349 
L 366.34753 414.957187 
L 366.55167 404.274359 
L 366.75581 363.378491 
L 366.95993 401.130355 
L 367.16407 387.174675 
L 367.572329 316.30338 
L 367.776469 330.926969 
L 367.98061 369.642672 
L 368.388869 289.334515 
L 368.593009 314.674954 
L 368.797129 299.599283 
L 369.001269 296.86184 
L 369.205409 332.968232 
L 369.409549 318.262397 
L 369.613669 272.23014 
L 370.021949 353.10269 
L 370.226069 369.179925 
L 370.430209 339.1434 
L 370.634349 358.602859 
L 370.838468 342.090256 
L 371.042608 338.451677 
L 371.246749 309.145508 
L 371.450868 308.531254 
L 371.655008 280.72595 
L 371.859148 274.604485 
L 372.063268 273.429584 
L 372.267408 296.538386 
L 372.471548 353.49661 
L 372.675688 249.88869 
L 372.879808 211.917202 
L 373.083948 215.996135 
L 373.288088 290.916727 
L 373.492208 278.363601 
L 373.696348 242.482786 
L 373.900488 306.711795 
L 374.104607 281.490857 
L 374.308748 341.654899 
L 374.512888 281.448213 
L 374.717007 321.359469 
L 374.921147 385.942907 
L 375.329407 279.137909 
L 375.533547 287.833487 
L 375.737687 289.512668 
L 375.941827 216.269344 
L 376.145947 301.027377 
L 376.350087 302.328918 
L 376.554227 343.541256 
L 376.758347 335.794788 
L 376.962487 309.525069 
L 377.166627 334.112388 
L 377.370747 301.970751 
L 377.574887 304.278645 
L 377.779027 251.326362 
L 377.983146 288.029723 
L 378.391426 262.591844 
L 378.799686 330.916869 
L 379.003826 225.32925 
L 379.412086 184.620598 
L 379.616226 232.844229 
L 379.820366 243.684502 
L 380.024486 216.425175 
L 380.228626 173.285295 
L 380.432766 214.988304 
L 380.636886 233.494112 
L 380.841026 236.635903 
L 381.045166 268.527179 
L 381.249285 212.530692 
L 381.453425 250.706954 
L 381.657565 253.159235 
L 381.861685 253.159235 
L 382.065825 267.566213 
L 382.269965 297.167617 
L 382.474085 261.114082 
L 382.678225 285.49085 
L 382.882365 287.175299 
L 383.086485 270.317031 
L 383.290625 301.370992 
L 383.494765 288.951464 
L 383.903025 280.492069 
L 384.107165 263.973806 
L 384.515424 272.161481 
L 384.719564 284.738376 
L 384.923704 330.646614 
L 385.331964 300.242972 
L 385.536104 329.008071 
L 385.740224 298.83477 
L 385.944364 298.536413 
L 386.148504 270.581116 
L 386.352624 333.934824 
L 386.556764 263.807266 
L 386.965024 347.063231 
L 387.169164 304.591068 
L 387.373304 308.059155 
L 387.577423 353.850676 
L 387.781563 346.984616 
L 388.189843 310.960809 
L 388.393963 305.60095 
L 388.802243 350.191057 
L 389.006363 281.323675 
L 389.210503 336.334954 
L 389.414643 276.640309 
L 389.618763 319.98742 
L 389.822903 334.900257 
L 390.027043 297.725759 
L 390.231163 341.001709 
L 390.435303 288.120452 
L 390.639443 293.845754 
L 390.843562 244.703901 
L 391.047702 286.035694 
L 391.251842 304.624671 
L 391.455962 287.811686 
L 391.660102 239.445114 
L 391.864242 273.732787 
L 392.068362 240.266073 
L 392.272502 259.722377 
L 392.476642 289.892751 
L 392.680762 284.977197 
L 392.884902 265.518775 
L 393.089042 276.699016 
L 393.293182 239.30787 
L 393.497302 273.650929 
L 393.701442 225.786995 
L 393.905582 250.885132 
L 394.109701 232.451022 
L 394.313841 228.338055 
L 394.517982 200.97752 
L 394.722101 245.237238 
L 394.926241 185.024505 
L 395.130381 199.977297 
L 395.334501 262.898249 
L 395.538641 266.820095 
L 395.946901 209.703873 
L 396.151041 221.629622 
L 396.355181 258.256494 
L 396.559301 242.933606 
L 396.763441 205.485397 
L 396.967581 201.122341 
L 397.1717 217.749765 
L 397.37584 207.357463 
L 397.579981 257.64015 
L 397.7841 237.13465 
L 397.98824 241.273478 
L 398.3965 275.484329 
L 398.60064 315.562423 
L 398.80478 236.883924 
L 399.0089 232.99945 
L 399.21304 241.462934 
L 399.41718 192.802547 
L 399.82544 264.07062 
L 400.02958 257.822924 
L 400.233699 255.096983 
L 400.437839 234.33576 
L 400.64198 265.660664 
L 400.84612 253.118322 
L 401.050239 257.373952 
L 401.254379 319.989899 
L 401.458519 242.188152 
L 401.662639 259.453636 
L 401.866779 229.618665 
L 402.070919 231.691624 
L 402.479179 175.660066 
L 402.683319 244.749686 
L 402.887439 199.763399 
L 403.091579 224.617165 
L 403.295719 279.836118 
L 403.499838 270.491034 
L 403.703979 294.310643 
L 403.908119 261.944694 
L 404.112238 207.222441 
L 404.316378 252.64641 
L 404.520518 271.674088 
L 404.724638 271.674088 
L 404.928778 251.143674 
L 405.132918 255.550848 
L 405.337038 247.561157 
L 405.541178 268.407669 
L 405.745318 268.407669 
L 405.949438 279.868045 
L 406.153578 204.104226 
L 406.357718 208.375651 
L 406.561837 173.201061 
L 406.765978 180.390447 
L 406.970118 216.622934 
L 407.174231 168.854485 
L 407.378371 160.411253 
L 407.582511 140.728796 
L 407.78663 183.840722 
L 407.99077 172.80466 
L 408.39903 249.086558 
L 408.60317 283.363585 
L 408.80731 248.933862 
L 409.01143 262.728622 
L 409.21557 167.107608 
L 409.62383 155.464396 
L 409.82797 163.670419 
L 410.03211 223.791566 
L 410.44037 193.627727 
L 410.64451 222.552835 
L 410.848629 189.939668 
L 411.052769 199.994178 
L 411.256909 226.329095 
L 411.461029 162.220896 
L 411.665169 186.565111 
L 412.073429 125.770131 
L 412.277569 120.199232 
L 412.481709 138.133169 
L 412.685829 189.206382 
L 412.889969 142.837721 
L 413.094109 150.246077 
L 413.298229 177.049154 
L 413.502369 172.452659 
L 413.706509 174.764848 
L 413.910628 168.749644 
L 414.114768 139.057163 
L 414.318908 151.171483 
L 414.523028 150.028393 
L 414.727168 191.977597 
L 414.931308 159.455066 
L 415.135428 165.255341 
L 415.339568 131.067921 
L 415.543708 172.833924 
L 416.156108 143.771344 
L 416.360228 154.770775 
L 416.564368 123.39873 
L 416.768508 143.144124 
L 417.176767 197.178847 
L 417.380907 130.209143 
L 417.585027 116.459653 
L 417.789167 139.677367 
L 417.993307 149.706118 
L 418.197447 243.933658 
L 418.401567 108.025886 
L 418.809847 139.579076 
L 419.013967 52.329345 
L 419.422247 156.429706 
L 419.626367 125.399474 
L 420.034647 106.482288 
L 420.238766 123.949761 
L 420.442906 119.115943 
L 420.647046 82.633143 
L 420.851166 100.25604 
L 421.055306 170.383583 
L 421.463566 151.70569 
L 421.667706 169.27476 
L 421.871846 147.246454 
L 422.075966 186.600241 
L 422.280106 164.494979 
L 422.484246 164.123898 
L 422.688366 164.540816 
L 422.892506 165.393214 
L 423.300765 215.674911 
L 423.504905 184.324314 
L 423.709025 175.381644 
L 423.913165 179.119353 
L 424.117305 151.632558 
L 424.321425 190.0128 
L 424.525565 146.163514 
L 424.933825 195.404275 
L 425.137965 125.337157 
L 425.342105 131.21167 
L 425.546225 149.594908 
L 425.750365 186.225352 
L 425.954505 160.234166 
L 426.158624 239.492332 
L 426.362764 154.758122 
L 426.566904 148.030274 
L 426.771024 167.025051 
L 426.975164 162.053074 
L 427.179304 163.262494 
L 427.383456 176.838845 
L 427.587596 172.644995 
L 427.791736 175.182348 
L 427.995856 141.474817 
L 428.199996 150.158158 
L 428.404136 167.056924 
L 428.608256 172.444802 
L 428.812396 214.388594 
L 429.016536 225.282132 
L 429.220655 259.993656 
L 429.424795 186.890019 
L 429.628936 182.703131 
L 429.833055 182.703131 
L 430.037195 248.888825 
L 430.241335 259.9963 
L 430.445455 234.85249 
L 430.649595 227.620049 
L 430.853735 211.726224 
L 431.057855 232.606158 
L 431.261995 273.636571 
L 431.466135 231.461501 
L 431.874395 243.942101 
L 432.078535 246.151357 
L 432.282654 245.766185 
L 432.486794 182.226091 
L 432.895054 261.505144 
L 433.099194 211.228203 
L 433.303334 255.323218 
L 433.915734 230.598026 
L 434.119854 249.158606 
L 434.323994 232.65713 
L 434.528134 304.452175 
L 434.732254 291.054472 
L 434.936394 294.05701 
L 435.140534 279.404605 
L 435.344653 184.252577 
L 435.548793 238.761804 
L 435.752934 250.334409 
L 435.957053 297.482691 
L 436.161193 292.163865 
L 436.365313 283.689021 
L 436.569453 286.697184 
L 437.181853 237.657438 
L 437.590113 268.454166 
L 437.794253 239.187756 
L 437.998393 233.734304 
L 438.202512 237.470292 
L 438.610792 249.666563 
L 438.814912 267.995178 
L 439.019052 346.676873 
L 439.223192 230.917558 
L 439.631452 326.942512 
L 439.835592 336.416966 
L 440.039712 243.941542 
L 440.243852 269.739862 
L 440.447992 257.724618 
L 440.652112 255.303177 
L 440.856252 186.206844 
L 441.060392 262.527128 
L 441.468651 126.570633 
L 441.876911 189.310558 
L 442.081051 191.171472 
L 442.285191 262.227401 
L 442.489311 225.451912 
L 442.693451 250.249685 
L 442.897571 227.022403 
L 443.305851 262.869397 
L 443.509971 249.641398 
L 443.714111 181.509101 
L 443.918251 272.893233 
L 444.12237 228.236968 
L 444.32651 253.343979 
L 444.53065 261.51182 
L 444.73477 274.721148 
L 444.93891 262.875969 
L 445.14305 274.760464 
L 445.34717 253.028902 
L 445.55131 255.032557 
L 445.75545 287.621639 
L 445.95957 281.492026 
L 446.16371 229.498237 
L 446.36785 262.159132 
L 446.98025 174.460553 
L 447.184369 210.320698 
L 447.388509 223.23144 
L 447.592629 225.010909 
L 448.000894 309.676032 
L 448.205014 199.18763 
L 448.409154 243.647084 
L 448.613294 232.142214 
L 448.817414 303.349044 
L 449.021554 207.885512 
L 449.429813 235.80953 
L 449.633953 209.973666 
L 449.838093 164.11175 
L 450.042213 175.721543 
L 450.246353 209.234058 
L 450.450493 192.908659 
L 450.654613 200.191973 
L 450.858753 188.575054 
L 451.267013 221.1433 
L 451.471153 189.18977 
L 451.675272 181.524606 
L 451.879413 190.729064 
L 452.083553 178.662798 
L 452.287672 176.983925 
L 452.491812 182.588952 
L 452.695952 184.532441 
L 452.900072 159.362405 
L 453.104212 178.402343 
L 453.308352 145.969369 
L 453.512472 160.845035 
L 453.716612 154.431646 
L 453.920752 154.431646 
L 454.124872 107.065597 
L 454.329012 141.104564 
L 454.533152 100.018248 
L 454.737271 200.275906 
L 454.941412 224.019312 
L 455.145552 185.461188 
L 455.349671 192.742953 
L 455.553811 164.725214 
L 455.757931 155.886256 
L 455.962071 195.358629 
L 456.166211 202.813268 
L 456.574471 128.203581 
L 456.778611 162.059721 
L 456.982731 163.698672 
L 457.186871 244.124304 
L 457.391011 229.531957 
L 457.59513 192.141874 
L 457.79927 178.833893 
L 458.20753 206.713427 
L 458.41167 203.882909 
L 458.61581 154.054916 
L 458.81993 150.613499 
L 459.22819 222.327569 
L 459.43233 193.491106 
L 459.63647 249.440453 
L 459.84059 175.217109 
L 460.04473 231.405729 
L 460.24887 205.280321 
L 460.452989 207.120086 
L 460.657129 213.993823 
L 460.861269 171.393309 
L 461.065389 211.984909 
L 461.269529 218.150868 
L 461.473669 216.896201 
L 461.677789 221.225622 
L 461.881929 216.103799 
L 462.086049 199.242444 
L 462.290189 227.790855 
L 462.494329 225.986986 
L 462.902589 269.711747 
L 463.106729 235.321773 
L 463.310848 249.356843 
L 463.514988 202.219644 
L 463.719128 214.338582 
L 463.923248 169.5379 
L 464.127388 243.154591 
L 464.331528 185.484204 
L 464.535648 248.239072 
L 464.739788 180.634869 
L 465.148048 304.552546 
L 465.352188 254.02688 
L 465.760448 224.039073 
L 466.168707 247.800084 
L 466.372847 280.607608 
L 466.781107 234.5984 
L 466.985247 231.958081 
L 467.189387 257.005654 
L 467.597647 222.600591 
L 468.005957 299.170968 
L 468.210098 228.205677 
L 468.414217 224.552678 
L 468.618357 267.31953 
L 468.822497 235.191134 
L 469.230757 283.815822 
L 469.434897 215.277044 
L 469.639017 263.946468 
L 470.047297 239.559186 
L 470.251417 243.073499 
L 470.455557 230.230789 
L 470.659676 280.549245 
L 470.863816 177.633828 
L 471.067956 249.263019 
L 471.272076 256.637421 
L 471.680356 167.731569 
L 471.884476 188.921114 
L 472.088616 172.997812 
L 472.292756 228.489127 
L 472.496876 226.618011 
L 472.905156 249.637682 
L 473.109276 224.186133 
L 473.313416 221.430972 
L 473.517535 211.916942 
L 473.721675 185.07873 
L 473.925815 212.360526 
L 474.129935 210.207482 
L 474.334075 236.210525 
L 474.538215 199.099532 
L 474.742335 187.329842 
L 475.150615 263.558206 
L 475.354735 293.95593 
L 475.558875 207.208502 
L 475.762995 277.326052 
L 475.967135 236.030295 
L 476.171275 242.625407 
L 476.375394 275.468424 
L 476.579534 266.015951 
L 476.783674 270.746184 
L 476.987794 237.617491 
L 477.191934 234.92114 
L 477.396074 239.478521 
L 477.600194 253.33986 
L 477.804334 232.178956 
L 478.008454 199.338973 
L 478.212594 199.338973 
L 478.416734 218.097542 
L 478.620854 210.027086 
L 478.824994 246.107997 
L 479.029134 199.449448 
L 479.233253 253.02492 
L 479.641533 197.719821 
L 479.845653 260.229922 
L 480.049793 231.15432 
L 480.253913 261.91727 
L 480.662193 219.160264 
L 480.866313 209.961106 
L 481.070453 222.386836 
L 481.478712 151.66691 
L 481.682853 190.313555 
L 481.886993 167.689011 
L 482.091112 183.226087 
L 482.295252 239.273064 
L 482.499372 211.778141 
L 482.703512 116.742228 
L 482.907652 164.535236 
L 483.111772 164.367153 
L 483.315912 148.191336 
L 483.520052 170.146346 
L 483.724172 173.377572 
L 483.928312 152.833583 
L 484.132452 163.269293 
L 484.336571 141.345153 
L 484.744831 180.286761 
L 485.153111 200.782592 
L 485.561371 147.2115 
L 485.765511 200.96478 
L 485.969631 166.671183 
L 486.173771 237.923513 
L 486.377911 223.977902 
L 486.582031 196.828213 
L 486.786171 228.656569 
L 486.99029 216.913622 
L 487.19443 177.990919 
L 487.39857 181.433228 
L 487.60269 206.314087 
L 487.80683 245.128052 
L 488.21509 168.196457 
L 488.419161 204.901332 
L 488.623281 196.744152 
L 488.827421 138.097198 
L 489.031561 174.290381 
L 489.235681 180.530021 
L 489.439821 144.888934 
L 489.848081 187.991844 
L 490.052221 220.821091 
L 490.256361 228.424686 
L 490.460481 218.881298 
L 490.664621 171.645096 
L 491.072881 239.531702 
L 491.277021 192.607562 
L 491.48114 171.289916 
L 491.88942 286.392214 
L 492.09354 295.749893 
L 492.29768 257.845582 
L 492.70594 329.914428 
L 492.91008 258.252901 
L 493.114199 289.963912 
L 493.31834 259.526999 
L 493.52248 292.267031 
L 493.726599 290.928921 
L 493.930739 304.159962 
L 494.13488 300.247661 
L 494.338999 307.603303 
L 494.543139 221.707764 
L 494.747259 202.42278 
L 494.951399 262.421762 
L 495.155539 260.258966 
L 495.359659 281.162942 
L 495.563799 317.714169 
L 495.767939 299.23135 
L 495.972059 343.653041 
L 496.176199 347.279578 
L 496.584458 295.08976 
L 496.788598 296.392579 
L 496.992718 268.218061 
L 497.196858 281.148877 
L 497.400998 323.484662 
L 497.809258 290.479631 
L 498.013378 294.816536 
L 498.217518 238.734884 
L 498.421658 236.075213 
L 498.625778 265.623231 
L 498.829918 277.037966 
L 499.238177 256.79415 
L 499.442317 284.068243 
L 499.646437 229.789368 
L 499.850577 237.227283 
L 500.258837 292.888455 
L 500.462977 292.809861 
L 500.667117 295.42914 
L 500.871237 290.485208 
L 501.075377 247.275946 
L 501.279496 247.275946 
L 501.483636 246.961774 
L 501.687777 250.236792 
L 501.891896 282.283913 
L 502.096036 280.896039 
L 502.300176 280.896039 
L 502.504296 215.515739 
L 502.708436 251.79653 
L 502.912556 258.113198 
L 503.116696 235.134348 
L 503.320836 255.818457 
L 503.524956 253.947688 
L 503.729095 241.71367 
L 503.933236 285.135653 
L 504.137355 239.19196 
L 504.341495 152.827353 
L 504.545615 141.887459 
L 504.749755 169.640648 
L 504.953895 166.871342 
L 505.158015 158.419018 
L 505.362155 167.006388 
L 505.566295 163.994938 
L 505.770415 213.046454 
L 506.178675 250.658698 
L 506.382815 227.138787 
L 506.586955 256.524244 
L 507.199354 197.59393 
L 507.403474 239.289994 
L 507.607614 207.804436 
L 507.811734 198.676235 
L 508.015874 258.822339 
L 508.220014 229.079944 
L 508.424134 264.385122 
L 508.83242 224.393296 
L 509.036539 251.454001 
L 509.240679 305.868699 
L 509.444799 249.915488 
L 509.648939 249.297828 
L 509.853079 226.850736 
L 510.057199 233.785347 
L 510.465479 209.803418 
L 510.669599 246.424393 
L 510.873739 205.077227 
L 511.077859 220.954393 
L 511.281999 274.084492 
L 511.486139 296.675995 
L 511.894398 259.52168 
L 512.098538 300.606787 
L 512.302658 296.178323 
L 512.506798 252.195871 
L 512.710918 240.292855 
L 512.915058 259.517783 
L 513.119198 219.189539 
L 513.527458 302.899403 
L 513.731577 214.864513 
L 513.935718 178.101878 
L 514.139858 115.607095 
L 514.343977 194.513537 
L 514.548117 228.087994 
L 514.752257 160.735496 
L 515.160517 188.339894 
L 515.568777 157.882013 
L 515.772917 189.10323 
L 515.977037 184.726102 
L 516.385317 219.456552 
L 516.589436 289.060146 
L 516.793576 236.195202 
L 516.997696 256.883061 
L 517.405976 271.371461 
L 517.610096 312.754562 
L 517.814236 235.154554 
L 518.222496 257.344824 
L 518.426636 239.557541 
L 518.630756 262.222835 
L 518.834896 251.870038 
L 519.039036 221.253898 
L 519.447295 260.005309 
L 519.651415 246.317125 
L 519.855555 259.150008 
L 520.059695 220.447345 
L 520.467955 274.187502 
L 520.672095 253.093124 
L 520.876215 288.368224 
L 521.284474 244.381708 
L 521.488615 264.500682 
L 521.692755 224.638506 
L 521.896874 246.918951 
L 522.101014 192.316294 
L 522.305134 183.983494 
L 522.509274 181.161366 
L 522.713414 215.089636 
L 522.917534 183.484309 
L 523.529934 211.619738 
L 523.734074 175.362507 
L 523.938193 197.868196 
L 524.142333 154.37942 
L 524.346473 177.262941 
L 524.550593 116.722827 
L 524.754733 126.119836 
L 524.958853 142.296119 
L 525.367133 203.767425 
L 525.571253 235.034022 
L 525.775393 224.399038 
L 525.979533 177.711609 
L 526.183653 188.877592 
L 526.387793 166.147691 
L 526.591912 166.147691 
L 526.796052 199.716399 
L 527.000192 198.217281 
L 527.204312 236.49368 
L 527.408452 252.654868 
L 527.612572 249.533752 
L 527.816712 251.01965 
L 528.224972 218.876454 
L 528.429112 217.60228 
L 528.633252 221.064926 
L 528.837372 218.317278 
L 529.245694 263.086669 
L 529.449834 210.897745 
L 529.653974 218.207572 
L 529.858094 241.953987 
L 530.266353 164.602248 
L 530.470493 158.337581 
L 530.878753 234.939429 
L 531.082893 177.637289 
L 531.287013 152.082689 
L 531.491153 161.084834 
L 531.695293 202.556765 
L 531.899413 135.012794 
L 532.103553 184.468507 
L 532.307673 185.834927 
L 532.511813 164.512225 
L 532.715953 248.718583 
L 532.920072 187.987421 
L 533.124212 199.863624 
L 533.328352 277.628676 
L 533.532472 248.761281 
L 533.736612 250.882722 
L 533.940732 278.040659 
L 534.144872 270.028929 
L 534.349012 249.731461 
L 534.553132 317.471156 
L 534.961391 267.852709 
L 535.165531 266.054862 
L 535.573791 208.055317 
L 535.982051 191.60806 
L 536.186191 227.735773 
L 536.390331 208.170532 
L 536.798591 309.61542 
L 537.002731 307.595133 
L 537.206851 249.327425 
L 537.410991 300.26575 
L 537.61511 248.994981 
L 537.81925 271.490873 
L 538.22751 207.584639 
L 538.43165 251.833081 
L 538.63577 183.677369 
L 538.83991 283.491216 
L 539.04405 234.898224 
L 539.45231 285.877255 
L 539.65643 281.293424 
L 539.86057 286.868464 
L 540.06471 302.036752 
L 540.268829 373.952003 
L 541.085369 166.897344 
L 541.493629 234.930586 
L 541.697769 255.188988 
L 541.901889 249.268515 
L 542.310148 206.331482 
L 542.514288 213.828792 
L 542.922548 273.251675 
L 543.126688 309.552736 
L 543.330808 274.049779 
L 543.534948 298.754428 
L 543.739088 261.445539 
L 543.943208 307.752079 
L 544.147348 283.226914 
L 544.555608 348.705915 
L 544.759748 325.795359 
L 544.963867 339.763937 
L 545.168007 332.257496 
L 545.576267 304.807906 
L 545.984527 252.807999 
L 546.188667 263.096234 
L 546.392787 229.236125 
L 546.596927 244.456714 
L 546.801067 247.489845 
L 547.005186 234.250948 
L 547.209327 302.71189 
L 547.413446 290.036944 
L 547.617586 250.882877 
L 547.821726 271.180887 
L 548.025846 259.34489 
L 548.434106 208.720302 
L 548.638246 266.79916 
L 548.842386 208.319665 
L 549.046506 195.145735 
L 549.454713 256.625073 
L 549.658853 308.8643 
L 549.862993 259.141005 
L 550.067113 245.857948 
L 550.271253 266.777958 
L 550.475393 266.777958 
L 550.679513 264.301502 
L 550.883653 278.385677 
L 551.087772 222.745473 
L 551.291912 233.30284 
L 551.496052 259.668909 
L 551.700172 171.54751 
L 551.904312 174.867257 
L 552.108432 180.580033 
L 552.312572 243.875072 
L 552.516712 179.791567 
L 552.924972 203.300884 
L 553.129092 193.404809 
L 553.333232 151.631838 
L 553.537372 133.326627 
L 553.741491 175.85134 
L 553.945631 179.38909 
L 554.149751 250.527641 
L 554.353891 197.876946 
L 554.558031 251.806209 
L 554.966291 170.540539 
L 555.374551 189.752636 
L 555.78281 199.919064 
L 555.98695 192.120424 
L 556.39521 220.862637 
L 556.59935 260.33095 
L 556.80347 189.735514 
L 557.21173 166.006694 
L 557.41587 179.071922 
L 557.62001 181.436253 
L 557.82413 205.143835 
L 558.02827 197.723895 
L 558.232389 226.948468 
L 558.436529 207.443962 
L 558.640669 227.853735 
L 559.048929 182.18852 
L 559.253049 168.753201 
L 559.457189 143.499522 
L 559.661329 193.467255 
L 559.865449 192.254908 
L 560.069589 231.917385 
L 560.273708 176.489637 
L 560.477848 167.94849 
L 560.681989 205.907344 
L 560.886108 205.477632 
L 561.090248 212.909733 
L 561.294368 182.951189 
L 561.498508 199.761243 
L 561.702648 198.187211 
L 561.906768 218.252606 
L 562.110908 282.947292 
L 562.315028 276.673063 
L 562.519168 185.435789 
L 562.723308 208.882229 
L 562.927427 197.518714 
L 563.131567 253.213176 
L 563.335687 252.510363 
L 563.539827 191.936428 
L 563.743967 262.088902 
L 563.948087 282.692653 
L 564.152227 282.050031 
L 564.356347 271.491225 
L 564.560487 320.617986 
L 564.764606 256.278883 
L 564.968747 232.75366 
L 565.172887 242.306251 
L 565.377006 206.868977 
L 565.785266 184.130927 
L 565.989406 226.122158 
L 566.193546 179.667078 
L 566.397666 229.917441 
L 566.601806 206.172872 
L 567.010066 239.257706 
L 567.214206 227.560171 
L 567.418325 269.973395 
L 567.622465 240.802484 
L 567.826585 255.997616 
L 568.030725 292.158169 
L 568.438985 258.413484 
L 568.643125 190.77719 
L 568.847245 200.443236 
L 569.051385 173.885745 
L 569.255525 204.586653 
L 569.867899 115.714868 
L 570.072039 125.639745 
L 570.276179 151.753129 
L 570.480299 152.101066 
L 570.684439 115.441938 
L 570.888559 122.019056 
L 571.296819 185.750968 
L 571.500959 165.260633 
L 571.705099 201.721436 
L 571.909218 171.505368 
L 572.113358 160.715064 
L 572.317478 161.558944 
L 572.521618 184.983557 
L 572.929878 144.273587 
L 573.134018 187.082047 
L 573.338138 204.096955 
L 573.542278 176.412723 
L 573.746418 193.465165 
L 573.950538 224.93574 
L 574.154678 207.652619 
L 574.358797 207.652619 
L 574.562937 239.563985 
L 574.971197 179.480046 
L 575.175337 229.428711 
L 575.379457 216.03747 
L 575.583597 194.936431 
L 575.787717 250.930231 
L 575.991857 202.227396 
L 576.195997 209.028994 
L 576.400116 145.448563 
L 576.604256 210.851361 
L 576.808376 187.144497 
L 577.012516 188.543009 
L 577.216656 156.429545 
L 577.420776 195.579965 
L 577.624916 204.66914 
L 577.829036 251.264854 
L 578.033176 256.476608 
L 578.237316 284.081484 
L 578.441436 278.49937 
L 578.645576 178.672805 
L 578.849695 216.892377 
L 579.053835 193.762647 
L 579.257975 224.840181 
L 579.462095 205.831131 
L 579.870355 225.896939 
L 580.074495 200.520395 
L 580.278615 202.705292 
L 580.482755 176.937586 
L 580.686895 177.943091 
L 580.891014 159.64168 
L 581.095154 179.839574 
L 581.299274 219.941042 
L 581.503414 175.428936 
L 581.707554 170.213234 
L 581.911674 168.317324 
L 582.115814 187.677004 
L 582.319934 220.553116 
L 582.524074 196.497722 
L 582.728214 264.404724 
L 582.932334 250.284471 
L 583.136474 264.426112 
L 583.544733 174.275137 
L 583.748853 202.075413 
L 583.952993 158.764923 
L 584.361253 222.480542 
L 584.565393 222.688906 
L 584.769513 275.360716 
L 584.973653 282.011827 
L 585.177793 258.19161 
L 585.381912 263.754855 
L 585.790172 208.586954 
L 585.994312 201.979069 
L 586.198432 216.992719 
L 586.402572 170.231847 
L 586.606712 223.988325 
L 586.810832 221.115481 
L 587.014972 239.48395 
L 587.219092 246.322457 
L 587.423232 240.75083 
L 587.627372 275.866642 
L 587.831491 191.156851 
L 588.035631 199.420553 
L 588.239751 224.132003 
L 588.443891 268.787959 
L 588.648031 255.887438 
L 588.852151 273.917726 
L 589.056291 246.323946 
L 589.260411 340.509099 
L 589.464551 242.162746 
L 589.66867 251.783257 
L 589.87281 233.051878 
L 590.076958 179.11778 
L 590.281078 191.309055 
L 590.485218 247.202544 
L 590.689338 202.044254 
L 590.893478 203.968644 
L 591.097618 216.94253 
L 591.301737 221.040643 
L 591.505877 250.816525 
L 591.709997 213.321253 
L 591.914137 250.122105 
L 592.118257 238.62939 
L 592.322397 234.428946 
L 592.730657 160.372877 
L 592.934797 178.478726 
L 593.138916 173.890398 
L 593.547196 193.082274 
L 593.751316 228.812093 
L 593.955456 215.162016 
L 594.159576 169.140925 
L 594.363716 220.926089 
L 594.567836 215.703649 
L 594.771976 164.391741 
L 594.976116 143.209993 
L 595.180236 146.650902 
L 595.384376 192.282251 
L 595.588495 174.51115 
L 595.996775 105.276251 
L 596.405035 226.527169 
L 596.813295 142.048596 
L 597.221555 185.08893 
L 597.425695 170.454941 
L 597.629814 109.103547 
L 598.038074 213.097044 
L 598.242214 188.10466 
L 598.446354 188.10466 
L 598.650474 208.208935 
L 598.854614 174.611672 
L 599.058734 201.194538 
L 599.262874 197.96102 
L 599.466994 184.85948 
L 599.671134 112.857057 
L 600.079393 202.39451 
L 600.283533 180.376386 
L 600.487653 131.215088 
L 600.691793 167.08603 
L 600.895913 177.701877 
L 601.100053 125.004948 
L 601.304193 224.863344 
L 601.508313 168.048275 
L 601.712453 180.698938 
L 601.916572 200.744249 
L 602.120712 142.027898 
L 602.733112 187.242218 
L 602.937232 167.337518 
L 603.345492 26.877187 
L 603.753772 150.636504 
L 603.957892 93.892842 
L 604.162032 94.808526 
L 604.366151 82.290339 
L 604.570291 106.968057 
L 604.774411 81.934464 
L 604.978551 148.755124 
L 604.978551 148.755124 
" clip-path="url(#p22550a6646)" style="fill: none; stroke: #1f77b4; stroke-width: 2; stroke-linecap: square"/>
   </g>
   <g id="patch_3">
    <path d="M 72.342187 414.957187 
L 72.342187 26.877187 
" style="fill: none; stroke: #808080; stroke-width: 2; stroke-linejoin: miter; stroke-linecap: square"/>
   </g>
   <g id="patch_4">
    <path d="M 72.342188 414.957187 
L 630.342188 414.957187 
" style="fill: none; stroke: #808080; stroke-width: 2; stroke-linejoin: miter; stroke-linecap: square"/>
   </g>
   <g id="text_13">
    <!-- Vemund-Tyholt-vinkel -->
    <g style="fill: #808080" transform="translate(255.909844 20.877187) scale(0.18 -0.18)">
     <defs>
      <path id="DejaVuSans-56" d="M 1831 0 
L 50 4666 
L 709 4666 
L 2188 738 
L 3669 4666 
L 4325 4666 
L 2547 0 
L 1831 0 
z
" transform="scale(0.015625)"/>
      <path id="DejaVuSans-75" d="M 544 1381 
L 544 3500 
L 1119 3500 
L 1119 1403 
Q 1119 906 1312 657 
Q 1506 409 1894 409 
Q 2359 409 2629 706 
Q 2900 1003 2900 1516 
L 2900 3500 
L 3475 3500 
L 3475 0 
L 2900 0 
L 2900 538 
Q 2691 219 2414 64 
Q 2138 -91 1772 -91 
Q 1169 -91 856 284 
Q 544 659 544 1381 
z
M 1991 3584 
L 1991 3584 
z
" transform="scale(0.015625)"/>
      <path id="DejaVuSans-6e" d="M 3513 2113 
L 3513 0 
L 2938 0 
L 2938 2094 
Q 2938 2591 2744 2837 
Q 2550 3084 2163 3084 
Q 1697 3084 1428 2787 
Q 1159 2491 1159 1978 
L 1159 0 
L 581 0 
L 581 3500 
L 1159 3500 
L 1159 2956 
Q 1366 3272 1645 3428 
Q 1925 3584 2291 3584 
Q 2894 3584 3203 3211 
Q 3513 2838 3513 2113 
z
" transform="scale(0.015625)"/>
      <path id="DejaVuSans-2d" d="M 313 2009 
L 1997 2009 
L 1997 1497 
L 313 1497 
L 313 2009 
z
" transform="scale(0.015625)"/>
      <path id="DejaVuSans-54" d="M -19 4666 
L 3928 4666 
L 3928 4134 
L 2272 4134 
L 2272 0 
L 1638 0 
L 1638 4134 
L -19 4134 
L -19 4666 
z
" transform="scale(0.015625)"/>
      <path id="DejaVuSans-79" d="M 2059 -325 
Q 1816 -950 1584 -1140 
Q 1353 -1331 966 -1331 
L 506 -1331 
L 506 -850 
L 844 -850 
Q 1081 -850 1212 -737 
Q 1344 -625 1503 -206 
L 1606 56 
L 191 3500 
L 800 3500 
L 1894 763 
L 2988 3500 
L 3597 3500 
L 2059 -325 
z
" transform="scale(0.015625)"/>
      <path id="DejaVuSans-68" d="M 3513 2113 
L 3513 0 
L 2938 0 
L 2938 2094 
Q 2938 2591 2744 2837 
Q 2550 3084 2163 3084 
Q 1697 3084 1428 2787 
Q 1159 2491 1159 1978 
L 1159 0 
L 581 0 
L 581 4863 
L 1159 4863 
L 1159 2956 
Q 1366 3272 1645 3428 
Q 1925 3584 2291 3584 
Q 2894 3584 3203 3211 
Q 3513 2838 3513 2113 
z
" transform="scale(0.015625)"/>
      <path id="DejaVuSans-6f" d="M 1959 3097 
Q 1497 3097 1228 2736 
Q 959 2375 959 1747 
Q 959 1119 1226 758 
Q 1494 397 1959 397 
Q 2419 397 2687 759 
Q 2956 1122 2956 1747 
Q 2956 2369 2687 2733 
Q 2419 3097 1959 3097 
z
M 1959 3584 
Q 2709 3584 3137 3096 
Q 3566 2609 3566 1747 
Q 3566 888 3137 398 
Q 2709 -91 1959 -91 
Q 1206 -91 779 398 
Q 353 888 353 1747 
Q 353 2609 779 3096 
Q 1206 3584 1959 3584 
z
" transform="scale(0.015625)"/>
      <path id="DejaVuSans-6c" d="M 603 4863 
L 1178 4863 
L 1178 0 
L 603 0 
L 603 4863 
z
" transform="scale(0.015625)"/>
      <path id="DejaVuSans-76" d="M 191 3500 
L 800 3500 
L 1894 563 
L 2988 3500 
L 3597 3500 
L 2284 0 
L 1503 0 
L 191 3500 
z
" transform="scale(0.015625)"/>
      <path id="DejaVuSans-6b" d="M 581 4863 
L 1159 4863 
L 1159 1991 
L 2875 3500 
L 3609 3500 
L 1753 1863 
L 3688 0 
L 2938 0 
L 1159 1709 
L 1159 0 
L 581 0 
L 581 4863 
z
" transform="scale(0.015625)"/>
     </defs>
     <use xlink:href="#DejaVuSans-56"/>
     <use xlink:href="#DejaVuSans-65" x="60.658203"/>
     <use xlink:href="#DejaVuSans-6d" x="122.181641"/>
     <use xlink:href="#DejaVuSans-75" x="219.59375"/>
     <use xlink:href="#DejaVuSans-6e" x="282.972656"/>
     <use xlink:href="#DejaVuSans-64" x="346.351562"/>
     <use xlink:href="#DejaVuSans-2d" x="409.828125"/>
     <use xlink:href="#DejaVuSans-54" x="436.787109"/>
     <use xlink:href="#DejaVuSans-79" x="482.246094"/>
     <use xlink:href="#DejaVuSans-68" x="541.425781"/>
     <use xlink:href="#DejaVuSans-6f" x="604.804688"/>
     <use xlink:href="#DejaVuSans-6c" x="665.986328"/>
     <use xlink:href="#DejaVuSans-74" x="693.769531"/>
     <use xlink:href="#DejaVuSans-2d" x="732.978516"/>
     <use xlink:href="#DejaVuSans-76" x="766.4375"/>
     <use xlink:href="#DejaVuSans-69" x="825.617188"/>
     <use xlink:href="#DejaVuSans-6e" x="853.400391"/>
     <use xlink:href="#DejaVuSans-6b" x="916.779297"/>
     <use xlink:href="#DejaVuSans-65" x="971.064453"/>
     <use xlink:href="#DejaVuSans-6c" x="1032.587891"/>
    </g>
   </g>
   <g id="legend_1">
    <g id="patch_5">
     <path d="M 82.842187 60.894375 
L 289.896094 60.894375 
Q 292.896094 60.894375 292.896094 57.894375 
L 292.896094 37.377187 
Q 292.896094 34.377187 289.896094 34.377187 
L 82.842187 34.377187 
Q 79.842187 34.377187 79.842187 37.377187 
L 79.842187 57.894375 
Q 79.842187 60.894375 82.842187 60.894375 
z
" style="fill: #ffffff; opacity: 0.8; stroke: #cccccc; stroke-linejoin: miter"/>
    </g>
    <g id="line2d_22">
     <path d="M 85.842187 46.524844 
L 100.842187 46.524844 
L 115.842187 46.524844 
" style="fill: none; stroke: #1f77b4; stroke-width: 2; stroke-linecap: square"/>
    </g>
    <g id="text_14">
     <!-- Vemund-Tyholt-vinkel -->
     <g style="fill: #808080" transform="translate(127.842187 51.774844) scale(0.15 -0.15)">
      <use xlink:href="#DejaVuSans-56"/>
      <use xlink:href="#DejaVuSans-65" x="60.658203"/>
      <use xlink:href="#DejaVuSans-6d" x="122.181641"/>
      <use xlink:href="#DejaVuSans-75" x="219.59375"/>
      <use xlink:href="#DejaVuSans-6e" x="282.972656"/>
      <use xlink:href="#DejaVuSans-64" x="346.351562"/>
      <use xlink:href="#DejaVuSans-2d" x="409.828125"/>
      <use xlink:href="#DejaVuSans-54" x="436.787109"/>
      <use xlink:href="#DejaVuSans-79" x="482.246094"/>
      <use xlink:href="#DejaVuSans-68" x="541.425781"/>
      <use xlink:href="#DejaVuSans-6f" x="604.804688"/>
      <use xlink:href="#DejaVuSans-6c" x="665.986328"/>
      <use xlink:href="#DejaVuSans-74" x="693.769531"/>
      <use xlink:href="#DejaVuSans-2d" x="732.978516"/>
      <use xlink:href="#DejaVuSans-76" x="766.4375"/>
      <use xlink:href="#DejaVuSans-69" x="825.617188"/>
      <use xlink:href="#DejaVuSans-6e" x="853.400391"/>
      <use xlink:href="#DejaVuSans-6b" x="916.779297"/>
      <use xlink:href="#DejaVuSans-65" x="971.064453"/>
      <use xlink:href="#DejaVuSans-6c" x="1032.587891"/>
     </g>
    </g>
   </g>
  </g>
 </g>
 <defs>
  <clipPath id="p22550a6646">
   <rect x="72.342187" y="26.877187" width="558" height="388.08"/>
  </clipPath>
 </defs>
</svg>
