<?xml version="1.0" encoding="utf-8" standalone="no"?>
<!DOCTYPE svg PUBLIC "-//W3C//DTD SVG 1.1//EN"
  "http://www.w3.org/Graphics/SVG/1.1/DTD/svg11.dtd">
<svg xmlns:xlink="http://www.w3.org/1999/xlink" width="637.542188pt" height="458.691562pt" viewBox="0 0 637.542188 458.691562" xmlns="http://www.w3.org/2000/svg" version="1.1">
 <metadata>
  <rdf:RDF xmlns:dc="http://purl.org/dc/elements/1.1/" xmlns:cc="http://creativecommons.org/ns#" xmlns:rdf="http://www.w3.org/1999/02/22-rdf-syntax-ns#">
   <cc:Work>
    <dc:type rdf:resource="http://purl.org/dc/dcmitype/StillImage"/>
    <dc:date>2023-04-10T19:04:15.406887</dc:date>
    <dc:format>image/svg+xml</dc:format>
    <dc:creator>
     <cc:Agent>
      <dc:title>Matplotlib v3.7.1, https://matplotlib.org/</dc:title>
     </cc:Agent>
    </dc:creator>
   </cc:Work>
  </rdf:RDF>
 </metadata>
 <defs>
  <style type="text/css">*{stroke-linejoin: round; stroke-linecap: butt}</style>
 </defs>
 <g id="figure_1">
  <g id="patch_1">
   <path d="M 0 458.691562 
L 637.542188 458.691562 
L 637.542188 0 
L 0 0 
L 0 458.691562 
z
" style="fill: none"/>
  </g>
  <g id="axes_1">
   <g id="patch_2">
    <path d="M 72.342187 414.957187 
L 630.342188 414.957187 
L 630.342188 26.877187 
L 72.342187 26.877187 
L 72.342187 414.957187 
z
" style="fill: none"/>
   </g>
   <g id="matplotlib.axis_1">
    <g id="xtick_1">
     <g id="line2d_1">
      <path d="M 98.238148 414.957187 
L 98.238148 26.877187 
" clip-path="url(#p7f759e48ad)" style="fill: none; stroke: #808080; stroke-width: 0.8; stroke-linecap: square"/>
     </g>
     <g id="line2d_2">
      <defs>
       <path id="m13229a438c" d="M 0 0 
L 0 -5 
" style="stroke: #808080; stroke-width: 0.8"/>
      </defs>
      <g>
       <use xlink:href="#m13229a438c" x="98.238148" y="414.957187" style="fill: #808080; stroke: #808080; stroke-width: 0.8"/>
      </g>
     </g>
     <g id="text_1">
      <!-- 20 -->
      <g style="fill: #808080" transform="translate(88.694398 429.854844) scale(0.15 -0.15)">
       <defs>
        <path id="DejaVuSans-32" d="M 1228 531 
L 3431 531 
L 3431 0 
L 469 0 
L 469 531 
Q 828 903 1448 1529 
Q 2069 2156 2228 2338 
Q 2531 2678 2651 2914 
Q 2772 3150 2772 3378 
Q 2772 3750 2511 3984 
Q 2250 4219 1831 4219 
Q 1534 4219 1204 4116 
Q 875 4013 500 3803 
L 500 4441 
Q 881 4594 1212 4672 
Q 1544 4750 1819 4750 
Q 2544 4750 2975 4387 
Q 3406 4025 3406 3419 
Q 3406 3131 3298 2873 
Q 3191 2616 2906 2266 
Q 2828 2175 2409 1742 
Q 1991 1309 1228 531 
z
" transform="scale(0.015625)"/>
        <path id="DejaVuSans-30" d="M 2034 4250 
Q 1547 4250 1301 3770 
Q 1056 3291 1056 2328 
Q 1056 1369 1301 889 
Q 1547 409 2034 409 
Q 2525 409 2770 889 
Q 3016 1369 3016 2328 
Q 3016 3291 2770 3770 
Q 2525 4250 2034 4250 
z
M 2034 4750 
Q 2819 4750 3233 4129 
Q 3647 3509 3647 2328 
Q 3647 1150 3233 529 
Q 2819 -91 2034 -91 
Q 1250 -91 836 529 
Q 422 1150 422 2328 
Q 422 3509 836 4129 
Q 1250 4750 2034 4750 
z
" transform="scale(0.015625)"/>
       </defs>
       <use xlink:href="#DejaVuSans-32"/>
       <use xlink:href="#DejaVuSans-30" x="63.623047"/>
      </g>
     </g>
    </g>
    <g id="xtick_2">
     <g id="line2d_3">
      <path d="M 165.914589 414.957187 
L 165.914589 26.877187 
" clip-path="url(#p7f759e48ad)" style="fill: none; stroke: #808080; stroke-width: 0.8; stroke-linecap: square"/>
     </g>
     <g id="line2d_4">
      <g>
       <use xlink:href="#m13229a438c" x="165.914589" y="414.957187" style="fill: #808080; stroke: #808080; stroke-width: 0.8"/>
      </g>
     </g>
     <g id="text_2">
      <!-- 22 -->
      <g style="fill: #808080" transform="translate(156.370839 429.854844) scale(0.15 -0.15)">
       <use xlink:href="#DejaVuSans-32"/>
       <use xlink:href="#DejaVuSans-32" x="63.623047"/>
      </g>
     </g>
    </g>
    <g id="xtick_3">
     <g id="line2d_5">
      <path d="M 233.591029 414.957187 
L 233.591029 26.877187 
" clip-path="url(#p7f759e48ad)" style="fill: none; stroke: #808080; stroke-width: 0.8; stroke-linecap: square"/>
     </g>
     <g id="line2d_6">
      <g>
       <use xlink:href="#m13229a438c" x="233.591029" y="414.957187" style="fill: #808080; stroke: #808080; stroke-width: 0.8"/>
      </g>
     </g>
     <g id="text_3">
      <!-- 24 -->
      <g style="fill: #808080" transform="translate(224.047279 429.854844) scale(0.15 -0.15)">
       <defs>
        <path id="DejaVuSans-34" d="M 2419 4116 
L 825 1625 
L 2419 1625 
L 2419 4116 
z
M 2253 4666 
L 3047 4666 
L 3047 1625 
L 3713 1625 
L 3713 1100 
L 3047 1100 
L 3047 0 
L 2419 0 
L 2419 1100 
L 313 1100 
L 313 1709 
L 2253 4666 
z
" transform="scale(0.015625)"/>
       </defs>
       <use xlink:href="#DejaVuSans-32"/>
       <use xlink:href="#DejaVuSans-34" x="63.623047"/>
      </g>
     </g>
    </g>
    <g id="xtick_4">
     <g id="line2d_7">
      <path d="M 301.267469 414.957187 
L 301.267469 26.877187 
" clip-path="url(#p7f759e48ad)" style="fill: none; stroke: #808080; stroke-width: 0.8; stroke-linecap: square"/>
     </g>
     <g id="line2d_8">
      <g>
       <use xlink:href="#m13229a438c" x="301.267469" y="414.957187" style="fill: #808080; stroke: #808080; stroke-width: 0.8"/>
      </g>
     </g>
     <g id="text_4">
      <!-- 26 -->
      <g style="fill: #808080" transform="translate(291.723719 429.854844) scale(0.15 -0.15)">
       <defs>
        <path id="DejaVuSans-36" d="M 2113 2584 
Q 1688 2584 1439 2293 
Q 1191 2003 1191 1497 
Q 1191 994 1439 701 
Q 1688 409 2113 409 
Q 2538 409 2786 701 
Q 3034 994 3034 1497 
Q 3034 2003 2786 2293 
Q 2538 2584 2113 2584 
z
M 3366 4563 
L 3366 3988 
Q 3128 4100 2886 4159 
Q 2644 4219 2406 4219 
Q 1781 4219 1451 3797 
Q 1122 3375 1075 2522 
Q 1259 2794 1537 2939 
Q 1816 3084 2150 3084 
Q 2853 3084 3261 2657 
Q 3669 2231 3669 1497 
Q 3669 778 3244 343 
Q 2819 -91 2113 -91 
Q 1303 -91 875 529 
Q 447 1150 447 2328 
Q 447 3434 972 4092 
Q 1497 4750 2381 4750 
Q 2619 4750 2861 4703 
Q 3103 4656 3366 4563 
z
" transform="scale(0.015625)"/>
       </defs>
       <use xlink:href="#DejaVuSans-32"/>
       <use xlink:href="#DejaVuSans-36" x="63.623047"/>
      </g>
     </g>
    </g>
    <g id="xtick_5">
     <g id="line2d_9">
      <path d="M 368.94391 414.957187 
L 368.94391 26.877187 
" clip-path="url(#p7f759e48ad)" style="fill: none; stroke: #808080; stroke-width: 0.8; stroke-linecap: square"/>
     </g>
     <g id="line2d_10">
      <g>
       <use xlink:href="#m13229a438c" x="368.94391" y="414.957187" style="fill: #808080; stroke: #808080; stroke-width: 0.8"/>
      </g>
     </g>
     <g id="text_5">
      <!-- 28 -->
      <g style="fill: #808080" transform="translate(359.40016 429.854844) scale(0.15 -0.15)">
       <defs>
        <path id="DejaVuSans-38" d="M 2034 2216 
Q 1584 2216 1326 1975 
Q 1069 1734 1069 1313 
Q 1069 891 1326 650 
Q 1584 409 2034 409 
Q 2484 409 2743 651 
Q 3003 894 3003 1313 
Q 3003 1734 2745 1975 
Q 2488 2216 2034 2216 
z
M 1403 2484 
Q 997 2584 770 2862 
Q 544 3141 544 3541 
Q 544 4100 942 4425 
Q 1341 4750 2034 4750 
Q 2731 4750 3128 4425 
Q 3525 4100 3525 3541 
Q 3525 3141 3298 2862 
Q 3072 2584 2669 2484 
Q 3125 2378 3379 2068 
Q 3634 1759 3634 1313 
Q 3634 634 3220 271 
Q 2806 -91 2034 -91 
Q 1263 -91 848 271 
Q 434 634 434 1313 
Q 434 1759 690 2068 
Q 947 2378 1403 2484 
z
M 1172 3481 
Q 1172 3119 1398 2916 
Q 1625 2713 2034 2713 
Q 2441 2713 2670 2916 
Q 2900 3119 2900 3481 
Q 2900 3844 2670 4047 
Q 2441 4250 2034 4250 
Q 1625 4250 1398 4047 
Q 1172 3844 1172 3481 
z
" transform="scale(0.015625)"/>
       </defs>
       <use xlink:href="#DejaVuSans-32"/>
       <use xlink:href="#DejaVuSans-38" x="63.623047"/>
      </g>
     </g>
    </g>
    <g id="xtick_6">
     <g id="line2d_11">
      <path d="M 436.62035 414.957187 
L 436.62035 26.877187 
" clip-path="url(#p7f759e48ad)" style="fill: none; stroke: #808080; stroke-width: 0.8; stroke-linecap: square"/>
     </g>
     <g id="line2d_12">
      <g>
       <use xlink:href="#m13229a438c" x="436.62035" y="414.957187" style="fill: #808080; stroke: #808080; stroke-width: 0.8"/>
      </g>
     </g>
     <g id="text_6">
      <!-- 30 -->
      <g style="fill: #808080" transform="translate(427.0766 429.854844) scale(0.15 -0.15)">
       <defs>
        <path id="DejaVuSans-33" d="M 2597 2516 
Q 3050 2419 3304 2112 
Q 3559 1806 3559 1356 
Q 3559 666 3084 287 
Q 2609 -91 1734 -91 
Q 1441 -91 1130 -33 
Q 819 25 488 141 
L 488 750 
Q 750 597 1062 519 
Q 1375 441 1716 441 
Q 2309 441 2620 675 
Q 2931 909 2931 1356 
Q 2931 1769 2642 2001 
Q 2353 2234 1838 2234 
L 1294 2234 
L 1294 2753 
L 1863 2753 
Q 2328 2753 2575 2939 
Q 2822 3125 2822 3475 
Q 2822 3834 2567 4026 
Q 2313 4219 1838 4219 
Q 1578 4219 1281 4162 
Q 984 4106 628 3988 
L 628 4550 
Q 988 4650 1302 4700 
Q 1616 4750 1894 4750 
Q 2613 4750 3031 4423 
Q 3450 4097 3450 3541 
Q 3450 3153 3228 2886 
Q 3006 2619 2597 2516 
z
" transform="scale(0.015625)"/>
       </defs>
       <use xlink:href="#DejaVuSans-33"/>
       <use xlink:href="#DejaVuSans-30" x="63.623047"/>
      </g>
     </g>
    </g>
    <g id="xtick_7">
     <g id="line2d_13">
      <path d="M 504.29679 414.957187 
L 504.29679 26.877187 
" clip-path="url(#p7f759e48ad)" style="fill: none; stroke: #808080; stroke-width: 0.8; stroke-linecap: square"/>
     </g>
     <g id="line2d_14">
      <g>
       <use xlink:href="#m13229a438c" x="504.29679" y="414.957187" style="fill: #808080; stroke: #808080; stroke-width: 0.8"/>
      </g>
     </g>
     <g id="text_7">
      <!-- 32 -->
      <g style="fill: #808080" transform="translate(494.75304 429.854844) scale(0.15 -0.15)">
       <use xlink:href="#DejaVuSans-33"/>
       <use xlink:href="#DejaVuSans-32" x="63.623047"/>
      </g>
     </g>
    </g>
    <g id="xtick_8">
     <g id="line2d_15">
      <path d="M 571.973231 414.957187 
L 571.973231 26.877187 
" clip-path="url(#p7f759e48ad)" style="fill: none; stroke: #808080; stroke-width: 0.8; stroke-linecap: square"/>
     </g>
     <g id="line2d_16">
      <g>
       <use xlink:href="#m13229a438c" x="571.973231" y="414.957187" style="fill: #808080; stroke: #808080; stroke-width: 0.8"/>
      </g>
     </g>
     <g id="text_8">
      <!-- 34 -->
      <g style="fill: #808080" transform="translate(562.429481 429.854844) scale(0.15 -0.15)">
       <use xlink:href="#DejaVuSans-33"/>
       <use xlink:href="#DejaVuSans-34" x="63.623047"/>
      </g>
     </g>
    </g>
    <g id="text_9">
     <!-- time [s] -->
     <g style="fill: #808080" transform="translate(322.255078 448.372031) scale(0.15 -0.15)">
      <defs>
       <path id="DejaVuSans-74" d="M 1172 4494 
L 1172 3500 
L 2356 3500 
L 2356 3053 
L 1172 3053 
L 1172 1153 
Q 1172 725 1289 603 
Q 1406 481 1766 481 
L 2356 481 
L 2356 0 
L 1766 0 
Q 1100 0 847 248 
Q 594 497 594 1153 
L 594 3053 
L 172 3053 
L 172 3500 
L 594 3500 
L 594 4494 
L 1172 4494 
z
" transform="scale(0.015625)"/>
       <path id="DejaVuSans-69" d="M 603 3500 
L 1178 3500 
L 1178 0 
L 603 0 
L 603 3500 
z
M 603 4863 
L 1178 4863 
L 1178 4134 
L 603 4134 
L 603 4863 
z
" transform="scale(0.015625)"/>
       <path id="DejaVuSans-6d" d="M 3328 2828 
Q 3544 3216 3844 3400 
Q 4144 3584 4550 3584 
Q 5097 3584 5394 3201 
Q 5691 2819 5691 2113 
L 5691 0 
L 5113 0 
L 5113 2094 
Q 5113 2597 4934 2840 
Q 4756 3084 4391 3084 
Q 3944 3084 3684 2787 
Q 3425 2491 3425 1978 
L 3425 0 
L 2847 0 
L 2847 2094 
Q 2847 2600 2669 2842 
Q 2491 3084 2119 3084 
Q 1678 3084 1418 2786 
Q 1159 2488 1159 1978 
L 1159 0 
L 581 0 
L 581 3500 
L 1159 3500 
L 1159 2956 
Q 1356 3278 1631 3431 
Q 1906 3584 2284 3584 
Q 2666 3584 2933 3390 
Q 3200 3197 3328 2828 
z
" transform="scale(0.015625)"/>
       <path id="DejaVuSans-65" d="M 3597 1894 
L 3597 1613 
L 953 1613 
Q 991 1019 1311 708 
Q 1631 397 2203 397 
Q 2534 397 2845 478 
Q 3156 559 3463 722 
L 3463 178 
Q 3153 47 2828 -22 
Q 2503 -91 2169 -91 
Q 1331 -91 842 396 
Q 353 884 353 1716 
Q 353 2575 817 3079 
Q 1281 3584 2069 3584 
Q 2775 3584 3186 3129 
Q 3597 2675 3597 1894 
z
M 3022 2063 
Q 3016 2534 2758 2815 
Q 2500 3097 2075 3097 
Q 1594 3097 1305 2825 
Q 1016 2553 972 2059 
L 3022 2063 
z
" transform="scale(0.015625)"/>
       <path id="DejaVuSans-20" transform="scale(0.015625)"/>
       <path id="DejaVuSans-5b" d="M 550 4863 
L 1875 4863 
L 1875 4416 
L 1125 4416 
L 1125 -397 
L 1875 -397 
L 1875 -844 
L 550 -844 
L 550 4863 
z
" transform="scale(0.015625)"/>
       <path id="DejaVuSans-73" d="M 2834 3397 
L 2834 2853 
Q 2591 2978 2328 3040 
Q 2066 3103 1784 3103 
Q 1356 3103 1142 2972 
Q 928 2841 928 2578 
Q 928 2378 1081 2264 
Q 1234 2150 1697 2047 
L 1894 2003 
Q 2506 1872 2764 1633 
Q 3022 1394 3022 966 
Q 3022 478 2636 193 
Q 2250 -91 1575 -91 
Q 1294 -91 989 -36 
Q 684 19 347 128 
L 347 722 
Q 666 556 975 473 
Q 1284 391 1588 391 
Q 1994 391 2212 530 
Q 2431 669 2431 922 
Q 2431 1156 2273 1281 
Q 2116 1406 1581 1522 
L 1381 1569 
Q 847 1681 609 1914 
Q 372 2147 372 2553 
Q 372 3047 722 3315 
Q 1072 3584 1716 3584 
Q 2034 3584 2315 3537 
Q 2597 3491 2834 3397 
z
" transform="scale(0.015625)"/>
       <path id="DejaVuSans-5d" d="M 1947 4863 
L 1947 -844 
L 622 -844 
L 622 -397 
L 1369 -397 
L 1369 4416 
L 622 4416 
L 622 4863 
L 1947 4863 
z
" transform="scale(0.015625)"/>
      </defs>
      <use xlink:href="#DejaVuSans-74"/>
      <use xlink:href="#DejaVuSans-69" x="39.208984"/>
      <use xlink:href="#DejaVuSans-6d" x="66.992188"/>
      <use xlink:href="#DejaVuSans-65" x="164.404297"/>
      <use xlink:href="#DejaVuSans-20" x="225.927734"/>
      <use xlink:href="#DejaVuSans-5b" x="257.714844"/>
      <use xlink:href="#DejaVuSans-73" x="296.728516"/>
      <use xlink:href="#DejaVuSans-5d" x="348.828125"/>
     </g>
    </g>
   </g>
   <g id="matplotlib.axis_2">
    <g id="ytick_1">
     <g id="line2d_17">
      <path d="M 72.342187 404.351076 
L 630.342188 404.351076 
" clip-path="url(#p7f759e48ad)" style="fill: none; stroke: #808080; stroke-width: 0.8; stroke-linecap: square"/>
     </g>
     <g id="line2d_18">
      <defs>
       <path id="m86474d164a" d="M 0 0 
L 5 0 
" style="stroke: #808080; stroke-width: 0.8"/>
      </defs>
      <g>
       <use xlink:href="#m86474d164a" x="72.342187" y="404.351076" style="fill: #808080; stroke: #808080; stroke-width: 0.8"/>
      </g>
     </g>
     <g id="text_10">
      <!-- 267.8 -->
      <g style="fill: #808080" transform="translate(25.9 410.049904) scale(0.15 -0.15)">
       <defs>
        <path id="DejaVuSans-37" d="M 525 4666 
L 3525 4666 
L 3525 4397 
L 1831 0 
L 1172 0 
L 2766 4134 
L 525 4134 
L 525 4666 
z
" transform="scale(0.015625)"/>
        <path id="DejaVuSans-2e" d="M 684 794 
L 1344 794 
L 1344 0 
L 684 0 
L 684 794 
z
" transform="scale(0.015625)"/>
       </defs>
       <use xlink:href="#DejaVuSans-32"/>
       <use xlink:href="#DejaVuSans-36" x="63.623047"/>
       <use xlink:href="#DejaVuSans-37" x="127.246094"/>
       <use xlink:href="#DejaVuSans-2e" x="190.869141"/>
       <use xlink:href="#DejaVuSans-38" x="222.65625"/>
      </g>
     </g>
    </g>
    <g id="ytick_2">
     <g id="line2d_19">
      <path d="M 72.342187 354.050512 
L 630.342188 354.050512 
" clip-path="url(#p7f759e48ad)" style="fill: none; stroke: #808080; stroke-width: 0.8; stroke-linecap: square"/>
     </g>
     <g id="line2d_20">
      <g>
       <use xlink:href="#m86474d164a" x="72.342187" y="354.050512" style="fill: #808080; stroke: #808080; stroke-width: 0.8"/>
      </g>
     </g>
     <g id="text_11">
      <!-- 268.0 -->
      <g style="fill: #808080" transform="translate(25.9 359.74934) scale(0.15 -0.15)">
       <use xlink:href="#DejaVuSans-32"/>
       <use xlink:href="#DejaVuSans-36" x="63.623047"/>
       <use xlink:href="#DejaVuSans-38" x="127.246094"/>
       <use xlink:href="#DejaVuSans-2e" x="190.869141"/>
       <use xlink:href="#DejaVuSans-30" x="222.65625"/>
      </g>
     </g>
    </g>
    <g id="ytick_3">
     <g id="line2d_21">
      <path d="M 72.342187 303.749949 
L 630.342188 303.749949 
" clip-path="url(#p7f759e48ad)" style="fill: none; stroke: #808080; stroke-width: 0.8; stroke-linecap: square"/>
     </g>
     <g id="line2d_22">
      <g>
       <use xlink:href="#m86474d164a" x="72.342187" y="303.749949" style="fill: #808080; stroke: #808080; stroke-width: 0.8"/>
      </g>
     </g>
     <g id="text_12">
      <!-- 268.2 -->
      <g style="fill: #808080" transform="translate(25.9 309.448777) scale(0.15 -0.15)">
       <use xlink:href="#DejaVuSans-32"/>
       <use xlink:href="#DejaVuSans-36" x="63.623047"/>
       <use xlink:href="#DejaVuSans-38" x="127.246094"/>
       <use xlink:href="#DejaVuSans-2e" x="190.869141"/>
       <use xlink:href="#DejaVuSans-32" x="222.65625"/>
      </g>
     </g>
    </g>
    <g id="ytick_4">
     <g id="line2d_23">
      <path d="M 72.342187 253.449386 
L 630.342188 253.449386 
" clip-path="url(#p7f759e48ad)" style="fill: none; stroke: #808080; stroke-width: 0.8; stroke-linecap: square"/>
     </g>
     <g id="line2d_24">
      <g>
       <use xlink:href="#m86474d164a" x="72.342187" y="253.449386" style="fill: #808080; stroke: #808080; stroke-width: 0.8"/>
      </g>
     </g>
     <g id="text_13">
      <!-- 268.4 -->
      <g style="fill: #808080" transform="translate(25.9 259.148214) scale(0.15 -0.15)">
       <use xlink:href="#DejaVuSans-32"/>
       <use xlink:href="#DejaVuSans-36" x="63.623047"/>
       <use xlink:href="#DejaVuSans-38" x="127.246094"/>
       <use xlink:href="#DejaVuSans-2e" x="190.869141"/>
       <use xlink:href="#DejaVuSans-34" x="222.65625"/>
      </g>
     </g>
    </g>
    <g id="ytick_5">
     <g id="line2d_25">
      <path d="M 72.342187 203.148822 
L 630.342188 203.148822 
" clip-path="url(#p7f759e48ad)" style="fill: none; stroke: #808080; stroke-width: 0.8; stroke-linecap: square"/>
     </g>
     <g id="line2d_26">
      <g>
       <use xlink:href="#m86474d164a" x="72.342187" y="203.148822" style="fill: #808080; stroke: #808080; stroke-width: 0.8"/>
      </g>
     </g>
     <g id="text_14">
      <!-- 268.6 -->
      <g style="fill: #808080" transform="translate(25.9 208.84765) scale(0.15 -0.15)">
       <use xlink:href="#DejaVuSans-32"/>
       <use xlink:href="#DejaVuSans-36" x="63.623047"/>
       <use xlink:href="#DejaVuSans-38" x="127.246094"/>
       <use xlink:href="#DejaVuSans-2e" x="190.869141"/>
       <use xlink:href="#DejaVuSans-36" x="222.65625"/>
      </g>
     </g>
    </g>
    <g id="ytick_6">
     <g id="line2d_27">
      <path d="M 72.342187 152.848259 
L 630.342188 152.848259 
" clip-path="url(#p7f759e48ad)" style="fill: none; stroke: #808080; stroke-width: 0.8; stroke-linecap: square"/>
     </g>
     <g id="line2d_28">
      <g>
       <use xlink:href="#m86474d164a" x="72.342187" y="152.848259" style="fill: #808080; stroke: #808080; stroke-width: 0.8"/>
      </g>
     </g>
     <g id="text_15">
      <!-- 268.8 -->
      <g style="fill: #808080" transform="translate(25.9 158.547087) scale(0.15 -0.15)">
       <use xlink:href="#DejaVuSans-32"/>
       <use xlink:href="#DejaVuSans-36" x="63.623047"/>
       <use xlink:href="#DejaVuSans-38" x="127.246094"/>
       <use xlink:href="#DejaVuSans-2e" x="190.869141"/>
       <use xlink:href="#DejaVuSans-38" x="222.65625"/>
      </g>
     </g>
    </g>
    <g id="ytick_7">
     <g id="line2d_29">
      <path d="M 72.342187 102.547695 
L 630.342188 102.547695 
" clip-path="url(#p7f759e48ad)" style="fill: none; stroke: #808080; stroke-width: 0.8; stroke-linecap: square"/>
     </g>
     <g id="line2d_30">
      <g>
       <use xlink:href="#m86474d164a" x="72.342187" y="102.547695" style="fill: #808080; stroke: #808080; stroke-width: 0.8"/>
      </g>
     </g>
     <g id="text_16">
      <!-- 269.0 -->
      <g style="fill: #808080" transform="translate(25.9 108.246524) scale(0.15 -0.15)">
       <defs>
        <path id="DejaVuSans-39" d="M 703 97 
L 703 672 
Q 941 559 1184 500 
Q 1428 441 1663 441 
Q 2288 441 2617 861 
Q 2947 1281 2994 2138 
Q 2813 1869 2534 1725 
Q 2256 1581 1919 1581 
Q 1219 1581 811 2004 
Q 403 2428 403 3163 
Q 403 3881 828 4315 
Q 1253 4750 1959 4750 
Q 2769 4750 3195 4129 
Q 3622 3509 3622 2328 
Q 3622 1225 3098 567 
Q 2575 -91 1691 -91 
Q 1453 -91 1209 -44 
Q 966 3 703 97 
z
M 1959 2075 
Q 2384 2075 2632 2365 
Q 2881 2656 2881 3163 
Q 2881 3666 2632 3958 
Q 2384 4250 1959 4250 
Q 1534 4250 1286 3958 
Q 1038 3666 1038 3163 
Q 1038 2656 1286 2365 
Q 1534 2075 1959 2075 
z
" transform="scale(0.015625)"/>
       </defs>
       <use xlink:href="#DejaVuSans-32"/>
       <use xlink:href="#DejaVuSans-36" x="63.623047"/>
       <use xlink:href="#DejaVuSans-39" x="127.246094"/>
       <use xlink:href="#DejaVuSans-2e" x="190.869141"/>
       <use xlink:href="#DejaVuSans-30" x="222.65625"/>
      </g>
     </g>
    </g>
    <g id="ytick_8">
     <g id="line2d_31">
      <path d="M 72.342187 52.247132 
L 630.342188 52.247132 
" clip-path="url(#p7f759e48ad)" style="fill: none; stroke: #808080; stroke-width: 0.8; stroke-linecap: square"/>
     </g>
     <g id="line2d_32">
      <g>
       <use xlink:href="#m86474d164a" x="72.342187" y="52.247132" style="fill: #808080; stroke: #808080; stroke-width: 0.8"/>
      </g>
     </g>
     <g id="text_17">
      <!-- 269.2 -->
      <g style="fill: #808080" transform="translate(25.9 57.94596) scale(0.15 -0.15)">
       <use xlink:href="#DejaVuSans-32"/>
       <use xlink:href="#DejaVuSans-36" x="63.623047"/>
       <use xlink:href="#DejaVuSans-39" x="127.246094"/>
       <use xlink:href="#DejaVuSans-2e" x="190.869141"/>
       <use xlink:href="#DejaVuSans-32" x="222.65625"/>
      </g>
     </g>
    </g>
    <g id="text_18">
     <!-- $\theta$ [deg] -->
     <g style="fill: #808080" transform="translate(18.75 247.917187) rotate(-90) scale(0.15 -0.15)">
      <defs>
       <path id="DejaVuSans-Oblique-3b8" d="M 2913 2219 
L 925 2219 
Q 791 1284 928 888 
Q 1100 400 1566 400 
Q 2034 400 2391 891 
Q 2703 1322 2913 2219 
z
M 3009 2750 
Q 3094 3638 2984 3950 
Q 2813 4444 2353 4444 
Q 1875 4444 1525 3956 
Q 1250 3563 1034 2750 
L 3009 2750 
z
M 2444 4913 
Q 3194 4913 3494 4250 
Q 3794 3591 3566 2422 
Q 3341 1256 2781 594 
Q 2225 -72 1475 -72 
Q 722 -72 425 594 
Q 128 1256 353 2422 
Q 581 3591 1134 4250 
Q 1691 4913 2444 4913 
z
" transform="scale(0.015625)"/>
       <path id="DejaVuSans-64" d="M 2906 2969 
L 2906 4863 
L 3481 4863 
L 3481 0 
L 2906 0 
L 2906 525 
Q 2725 213 2448 61 
Q 2172 -91 1784 -91 
Q 1150 -91 751 415 
Q 353 922 353 1747 
Q 353 2572 751 3078 
Q 1150 3584 1784 3584 
Q 2172 3584 2448 3432 
Q 2725 3281 2906 2969 
z
M 947 1747 
Q 947 1113 1208 752 
Q 1469 391 1925 391 
Q 2381 391 2643 752 
Q 2906 1113 2906 1747 
Q 2906 2381 2643 2742 
Q 2381 3103 1925 3103 
Q 1469 3103 1208 2742 
Q 947 2381 947 1747 
z
" transform="scale(0.015625)"/>
       <path id="DejaVuSans-67" d="M 2906 1791 
Q 2906 2416 2648 2759 
Q 2391 3103 1925 3103 
Q 1463 3103 1205 2759 
Q 947 2416 947 1791 
Q 947 1169 1205 825 
Q 1463 481 1925 481 
Q 2391 481 2648 825 
Q 2906 1169 2906 1791 
z
M 3481 434 
Q 3481 -459 3084 -895 
Q 2688 -1331 1869 -1331 
Q 1566 -1331 1297 -1286 
Q 1028 -1241 775 -1147 
L 775 -588 
Q 1028 -725 1275 -790 
Q 1522 -856 1778 -856 
Q 2344 -856 2625 -561 
Q 2906 -266 2906 331 
L 2906 616 
Q 2728 306 2450 153 
Q 2172 0 1784 0 
Q 1141 0 747 490 
Q 353 981 353 1791 
Q 353 2603 747 3093 
Q 1141 3584 1784 3584 
Q 2172 3584 2450 3431 
Q 2728 3278 2906 2969 
L 2906 3500 
L 3481 3500 
L 3481 434 
z
" transform="scale(0.015625)"/>
      </defs>
      <use xlink:href="#DejaVuSans-Oblique-3b8" transform="translate(0 0.234375)"/>
      <use xlink:href="#DejaVuSans-20" transform="translate(61.181641 0.234375)"/>
      <use xlink:href="#DejaVuSans-5b" transform="translate(92.96875 0.234375)"/>
      <use xlink:href="#DejaVuSans-64" transform="translate(131.982422 0.234375)"/>
      <use xlink:href="#DejaVuSans-65" transform="translate(195.458984 0.234375)"/>
      <use xlink:href="#DejaVuSans-67" transform="translate(256.982422 0.234375)"/>
      <use xlink:href="#DejaVuSans-5d" transform="translate(320.458984 0.234375)"/>
     </g>
    </g>
   </g>
   <g id="line2d_33">
    <path d="M 97.705824 211.002769 
L 98.046033 174.566305 
L 98.386277 212.479083 
L 98.726486 183.116936 
L 99.066729 233.378545 
L 99.406939 246.121354 
L 99.747148 154.191609 
L 100.087392 195.003009 
L 100.427601 123.810005 
L 101.108054 229.162464 
L 101.448297 242.610621 
L 101.788507 167.729534 
L 102.128716 130.646074 
L 102.468959 221.674139 
L 102.809169 245.426115 
L 103.149412 233.00331 
L 103.489648 249.570774 
L 103.829858 171.951883 
L 104.170101 180.483923 
L 104.510311 203.437911 
L 104.850554 186.475169 
L 105.190763 200.232571 
L 105.531007 200.628453 
L 105.871216 297.076007 
L 106.211426 289.645458 
L 106.551669 370.152754 
L 106.891878 250.181407 
L 107.572331 365.390716 
L 107.912574 279.426552 
L 108.252784 240.099705 
L 108.933237 296.069566 
L 109.273446 296.309613 
L 109.613689 326.589209 
L 109.953899 307.696969 
L 110.294108 245.033568 
L 110.634352 220.041424 
L 110.974561 148.521573 
L 111.314804 189.543158 
L 111.655014 204.924262 
L 111.995257 320.721722 
L 112.335467 260.734254 
L 112.675676 228.788458 
L 113.015919 270.608765 
L 113.356129 200.227697 
L 113.696372 227.180051 
L 114.036582 203.491422 
L 114.376791 193.784426 
L 114.717034 221.425326 
L 115.057244 300.076437 
L 115.397487 296.985839 
L 115.737697 247.148592 
L 116.07794 277.612494 
L 116.418149 237.870118 
L 116.758359 233.055314 
L 117.098602 267.021115 
L 117.438812 236.407231 
L 117.779055 267.352993 
L 118.119264 214.497151 
L 118.459474 276.025192 
L 118.799717 257.756577 
L 119.139927 216.681095 
L 119.48017 279.13313 
L 119.820379 237.490471 
L 120.160623 295.200759 
L 120.841042 242.505572 
L 121.861738 371.324363 
L 122.201947 286.702367 
L 122.8824 362.70315 
L 123.222609 302.238208 
L 123.562853 283.391005 
L 124.243306 329.111977 
L 124.583515 350.417777 
L 124.923724 339.753645 
L 125.263968 342.484139 
L 125.604177 305.745623 
L 125.944421 330.966116 
L 126.28463 320.464018 
L 126.624873 223.646889 
L 127.305292 384.963613 
L 127.645536 328.722392 
L 127.985745 352.832701 
L 128.325988 348.546912 
L 128.666198 334.124949 
L 129.346651 218.977531 
L 129.68686 292.759361 
L 130.027103 218.470612 
L 130.367313 258.478459 
L 130.707556 344.525539 
L 131.047766 295.785897 
L 131.387975 326.459217 
L 131.728218 326.504023 
L 132.068428 332.307426 
L 132.408671 395.727381 
L 132.748881 324.776775 
L 133.089124 281.106397 
L 133.429333 298.149263 
L 133.769543 329.474953 
L 134.109786 255.448908 
L 134.449996 266.771969 
L 134.790239 377.435004 
L 135.130448 377.435004 
L 135.470658 319.98133 
L 135.810901 391.105244 
L 136.151111 342.424027 
L 136.491354 408.907238 
L 136.831563 353.333123 
L 137.171807 271.914237 
L 137.511987 276.292122 
L 137.852196 269.157192 
L 138.192439 290.87474 
L 138.532649 240.953623 
L 138.872892 274.827153 
L 139.213102 325.224007 
L 139.553345 273.955667 
L 139.893554 306.287043 
L 140.233764 243.609421 
L 140.574007 235.692519 
L 140.914217 290.21596 
L 141.25446 257.196181 
L 141.594669 246.573102 
L 141.934879 158.51431 
L 142.275122 226.55253 
L 142.615332 236.495701 
L 142.955575 230.896901 
L 143.295784 184.126481 
L 143.636028 200.479943 
L 143.976237 230.182198 
L 144.316447 216.351194 
L 144.65669 208.041221 
L 144.996899 236.812218 
L 145.337143 204.730293 
L 146.017596 97.935226 
L 147.038258 222.54781 
L 147.378467 190.995908 
L 148.05892 270.187133 
L 148.399129 213.67516 
L 148.739373 250.640717 
L 149.079582 262.374688 
L 149.419826 307.452294 
L 149.760035 285.498965 
L 150.100278 295.36572 
L 150.440488 246.492053 
L 150.780697 289.065309 
L 151.46115 230.106948 
L 152.141603 357.93321 
L 152.481812 333.049784 
L 152.822056 337.726277 
L 153.162265 337.795697 
L 153.502508 372.901999 
L 153.842718 286.756179 
L 154.182961 340.311679 
L 154.523171 316.893908 
L 154.86338 347.899202 
L 155.203623 348.47946 
L 155.543833 358.885297 
L 155.884076 353.575758 
L 156.224286 355.414741 
L 156.564529 359.256771 
L 157.244948 286.054145 
L 157.585191 242.7246 
L 157.925401 308.589564 
L 158.265644 298.253659 
L 158.605853 329.444511 
L 158.946063 338.484821 
L 159.286306 248.502385 
L 159.626516 326.566237 
L 159.966759 274.803325 
L 160.647212 306.175113 
L 160.987421 249.124895 
L 161.327631 324.313956 
L 162.008083 181.80124 
L 162.348327 296.946018 
L 162.688536 307.997327 
L 163.368989 165.901767 
L 163.709198 184.127856 
L 164.049442 123.700326 
L 164.389651 223.280863 
L 164.729894 227.094041 
L 165.070104 207.566816 
L 165.410313 234.107998 
L 165.750557 143.497848 
L 166.090766 121.19507 
L 166.431009 135.777252 
L 166.771219 115.943002 
L 167.111428 152.387754 
L 167.451672 167.246757 
L 167.791881 145.293742 
L 168.132124 130.569154 
L 168.472334 206.670091 
L 168.812577 209.439492 
L 169.152787 154.306423 
L 169.492996 256.490602 
L 169.833239 232.942516 
L 170.173449 253.441834 
L 170.513692 132.456517 
L 170.853902 156.154017 
L 171.194101 196.470767 
L 171.534345 202.594999 
L 171.874554 225.395341 
L 172.214797 288.306851 
L 172.555007 313.326722 
L 173.23546 247.586534 
L 173.575669 258.364121 
L 173.915912 288.087353 
L 174.256122 248.762549 
L 174.596365 255.017682 
L 174.936575 275.282741 
L 175.276784 275.282741 
L 175.617027 320.83631 
L 175.957237 219.027744 
L 176.29748 232.146815 
L 176.63769 253.632964 
L 176.977933 240.083867 
L 177.318142 332.436557 
L 177.658352 300.416742 
L 177.998595 334.16107 
L 178.338805 320.505005 
L 178.679048 282.587 
L 179.019257 300.175625 
L 179.359501 269.062508 
L 179.69971 261.901291 
L 180.03992 258.63101 
L 180.380163 261.560966 
L 180.720372 296.097459 
L 181.060616 359.016452 
L 181.400825 318.146804 
L 181.741035 245.093788 
L 182.081278 205.280329 
L 182.421487 204.668732 
L 182.761731 267.905238 
L 183.10194 207.225671 
L 183.442183 213.64236 
L 183.782393 291.598548 
L 184.122602 232.5504 
L 184.462846 219.730663 
L 184.803055 222.441465 
L 185.143298 258.066144 
L 185.483508 217.859654 
L 185.823717 288.687308 
L 186.163961 247.318078 
L 186.50417 254.409055 
L 186.844414 271.604306 
L 187.184623 236.438849 
L 187.524866 222.445484 
L 187.865076 220.125344 
L 188.205285 251.117642 
L 188.545529 219.693493 
L 188.885738 252.682608 
L 189.566191 295.99402 
L 189.9064 255.495647 
L 190.246644 261.327379 
L 190.586853 248.691529 
L 190.927096 205.157511 
L 191.267306 200.053085 
L 191.607549 261.662211 
L 191.947759 238.238043 
L 192.287968 256.658158 
L 192.628211 264.702729 
L 192.968421 200.154801 
L 193.308664 229.529877 
L 193.648874 299.195359 
L 193.989083 296.64775 
L 194.329326 329.917901 
L 194.669536 239.670737 
L 195.009779 253.186743 
L 195.349989 259.416262 
L 195.690232 257.844915 
L 196.030441 296.527328 
L 196.370651 273.613968 
L 196.710894 238.270655 
L 197.051104 227.435018 
L 197.391347 337.304385 
L 197.731556 303.499194 
L 198.752219 239.705729 
L 199.092462 247.131159 
L 199.432671 196.079732 
L 199.772915 241.128392 
L 200.113124 241.256923 
L 200.453334 207.723964 
L 200.793577 269.805089 
L 201.133786 233.969795 
L 201.47403 238.294634 
L 201.814239 230.726231 
L 202.154449 183.995233 
L 202.834901 140.827096 
L 203.175145 200.192371 
L 203.515354 180.892156 
L 203.855597 216.851362 
L 204.195807 198.230145 
L 204.536016 251.231219 
L 204.87626 225.214408 
L 205.216507 167.931764 
L 205.55675 189.584734 
L 205.89696 203.648159 
L 206.237203 201.310243 
L 206.917622 144.699359 
L 207.257865 190.528576 
L 207.598075 220.209893 
L 207.938318 213.133424 
L 208.278528 183.345433 
L 208.618737 222.945782 
L 208.95898 283.156355 
L 209.29919 266.846596 
L 209.639433 180.942122 
L 210.319852 259.061163 
L 210.660095 348.380448 
L 211.340548 188.54927 
L 211.680758 188.005828 
L 212.021001 258.437926 
L 212.36121 270.853177 
L 212.70142 301.639313 
L 213.041663 313.77981 
L 213.381873 260.180448 
L 213.722116 229.695368 
L 214.062325 239.341951 
L 214.742778 290.471935 
L 215.082988 234.50977 
L 215.423231 234.50977 
L 215.76344 252.161558 
L 216.103684 282.153461 
L 216.443893 281.96112 
L 216.784103 253.997405 
L 217.124346 257.165127 
L 217.464555 309.984936 
L 217.804799 289.197612 
L 218.145008 389.474725 
L 218.485218 364.345519 
L 218.825461 301.000692 
L 219.16567 270.138031 
L 219.505914 257.587055 
L 219.846123 283.970995 
L 220.186366 277.350473 
L 220.526576 266.77339 
L 220.866785 244.66442 
L 221.207029 308.351778 
L 221.547238 281.816417 
L 221.887481 276.752935 
L 222.227691 289.342537 
L 222.5679 196.083279 
L 222.908144 232.498577 
L 223.248353 198.802148 
L 223.588596 239.817476 
L 223.928806 129.043762 
L 224.609259 301.635569 
L 225.629921 231.54017 
L 225.970164 238.567686 
L 226.310374 279.22928 
L 226.650583 262.847032 
L 226.990826 256.111011 
L 227.331036 251.633323 
L 227.671279 202.506777 
L 228.011489 264.033896 
L 228.351732 230.809703 
L 228.691941 182.08759 
L 229.032151 264.183459 
L 229.372394 250.584295 
L 229.712604 268.196515 
L 230.052847 210.546275 
L 230.393056 204.059818 
L 231.073509 294.150171 
L 231.413719 243.023101 
L 231.753962 254.258275 
L 232.094171 280.066331 
L 232.434381 291.068397 
L 232.774624 284.926583 
L 233.114834 236.83599 
L 233.455077 282.731495 
L 233.795286 346.111333 
L 234.475739 286.605788 
L 234.815949 349.074545 
L 235.156192 294.389403 
L 235.496401 270.066565 
L 235.836645 301.175266 
L 236.176854 288.213685 
L 236.517064 264.398406 
L 236.857307 279.466596 
L 237.197516 279.568768 
L 237.53776 256.481115 
L 238.218212 303.413579 
L 238.558422 269.089582 
L 238.898616 263.012021 
L 239.238859 195.628755 
L 239.579069 175.305984 
L 239.919312 202.554979 
L 240.259521 183.257602 
L 240.599731 178.875293 
L 240.939974 232.282924 
L 241.280184 217.963811 
L 241.960636 211.741577 
L 242.30088 172.054448 
L 242.641089 100.688009 
L 243.321542 260.215743 
L 243.661751 204.596857 
L 244.001995 245.931269 
L 244.342204 162.786908 
L 244.682414 156.903133 
L 245.022657 114.806049 
L 245.362866 211.722947 
L 245.70311 201.767137 
L 246.043319 145.043909 
L 246.383529 216.158531 
L 246.723772 209.227846 
L 247.063981 236.985608 
L 247.404225 204.894154 
L 247.744434 151.817606 
L 248.084677 255.576101 
L 248.424887 190.95547 
L 248.765096 226.119233 
L 249.10534 204.203126 
L 249.445549 168.208693 
L 249.785792 230.96708 
L 250.126002 192.726677 
L 250.466211 209.025984 
L 250.806455 201.209452 
L 251.146664 218.275249 
L 251.486907 220.557256 
L 251.827117 216.707177 
L 252.16736 197.206917 
L 252.50757 238.483018 
L 252.847779 214.937364 
L 253.188022 176.62503 
L 253.528232 290.611185 
L 253.868475 328.287901 
L 254.208685 307.022587 
L 254.548894 304.143024 
L 254.889137 260.976189 
L 255.229347 246.41454 
L 255.56959 246.41454 
L 255.9098 292.155756 
L 256.250009 288.228133 
L 256.590253 240.79886 
L 256.930462 274.397185 
L 257.270705 324.071323 
L 257.610915 247.631271 
L 257.951158 264.05929 
L 258.291368 194.917727 
L 258.631577 213.113038 
L 258.97182 304.447976 
L 259.31203 328.601773 
L 259.992483 238.500029 
L 260.332692 272.214352 
L 260.672935 246.29923 
L 261.013145 204.424588 
L 262.033841 234.709229 
L 262.37405 150.716814 
L 262.71426 124.153365 
L 263.054503 195.662345 
L 263.394713 145.910067 
L 263.734956 191.137 
L 264.075165 274.562953 
L 264.415375 250.205302 
L 264.755618 181.838653 
L 265.095828 194.229575 
L 265.436071 184.270721 
L 265.77628 238.088956 
L 266.11649 218.178684 
L 266.456733 217.21201 
L 266.796943 254.25159 
L 267.137186 177.314778 
L 267.477395 145.81616 
L 267.817639 187.716011 
L 268.157848 206.934197 
L 268.498058 186.283999 
L 268.838301 189.035726 
L 269.17851 246.750833 
L 269.518754 231.068804 
L 269.858963 248.09701 
L 270.199173 156.037816 
L 270.539416 208.50417 
L 270.879625 142.632672 
L 271.219869 213.81656 
L 271.560078 128.937913 
L 271.900288 152.123322 
L 272.240531 223.349985 
L 272.58074 155.940997 
L 272.920982 139.000294 
L 273.261192 194.952707 
L 273.601435 122.903307 
L 273.941644 204.136835 
L 274.281854 127.483495 
L 274.622097 148.546542 
L 274.962307 219.010986 
L 275.30255 115.914494 
L 275.642759 165.294605 
L 275.982969 151.250646 
L 276.323212 164.461351 
L 276.663422 148.545656 
L 277.003665 219.119512 
L 277.343874 239.705469 
L 277.684084 288.149479 
L 278.024327 242.986781 
L 278.364537 367.479037 
L 278.70478 252.285632 
L 279.04499 292.485775 
L 279.385233 358.50423 
L 279.725442 361.716447 
L 280.065652 264.252901 
L 280.405895 249.833447 
L 280.746105 272.853902 
L 281.086348 224.88849 
L 281.426557 130.573422 
L 282.10701 262.977338 
L 282.44722 172.306975 
L 282.787463 215.588061 
L 283.127672 242.445096 
L 283.467916 201.026409 
L 283.808125 202.988142 
L 284.148335 228.539231 
L 284.488578 215.452632 
L 284.828787 215.18788 
L 285.169031 298.421382 
L 285.50924 223.424186 
L 285.84945 221.191239 
L 286.189693 204.029235 
L 286.529902 195.160369 
L 286.870146 264.242271 
L 287.210355 228.613323 
L 287.890808 304.98782 
L 288.571261 172.432573 
L 288.91147 190.064546 
L 289.251713 264.955577 
L 289.591923 274.450404 
L 289.932132 288.429852 
L 290.272376 320.622485 
L 290.612585 310.003018 
L 290.952828 206.836202 
L 291.293038 281.735504 
L 291.633247 217.287281 
L 291.973491 187.24164 
L 292.3137 197.270959 
L 292.653943 218.705998 
L 292.994153 212.690532 
L 293.674606 223.368296 
L 294.014815 236.435527 
L 294.355058 213.199313 
L 294.695268 244.982619 
L 295.035477 210.776072 
L 295.375721 221.470439 
L 295.71593 221.470439 
L 296.056173 204.925824 
L 296.396383 302.610339 
L 296.736626 258.371983 
L 297.076836 191.385768 
L 297.417045 189.244615 
L 297.757288 282.427708 
L 298.097498 256.408023 
L 298.437741 241.346218 
L 298.777951 268.021678 
L 299.11816 232.383342 
L 299.458403 344.885438 
L 299.798613 266.653531 
L 300.138856 315.465093 
L 300.819275 261.774846 
L 301.159518 293.494897 
L 301.499728 231.310737 
L 301.839971 230.012112 
L 302.180181 182.184601 
L 302.520424 171.8127 
L 302.860633 220.014087 
L 303.200843 226.47812 
L 303.541086 266.701763 
L 303.881296 229.174856 
L 304.221539 227.51751 
L 304.561748 234.582085 
L 304.901958 235.347813 
L 305.242201 326.285892 
L 305.582411 315.852176 
L 305.922654 171.364895 
L 306.262863 250.017912 
L 306.603077 217.289193 
L 306.943321 216.156493 
L 307.28353 294.904269 
L 307.963983 187.877437 
L 308.304226 268.450478 
L 308.644436 241.432416 
L 308.984645 204.25166 
L 309.324888 293.858758 
L 309.665098 174.006443 
L 310.005341 216.575066 
L 310.345551 207.008413 
L 310.68576 175.488044 
L 311.026003 248.758705 
L 311.366213 210.761241 
L 311.706456 233.929822 
L 312.046666 215.457589 
L 312.386875 287.751867 
L 312.727118 220.201963 
L 313.067328 245.871351 
L 313.407571 185.913765 
L 313.747781 267.490119 
L 314.08799 295.659162 
L 314.428233 258.526299 
L 314.768443 245.201563 
L 315.448896 186.111162 
L 315.789139 182.931629 
L 316.129348 249.741908 
L 316.469558 234.387877 
L 316.809801 232.909489 
L 317.150011 335.940595 
L 317.490254 332.526469 
L 317.830463 184.443699 
L 318.170673 182.080305 
L 318.510916 170.004092 
L 318.851126 225.150035 
L 319.191369 240.363281 
L 319.531578 271.650309 
L 319.871788 269.600809 
L 320.212031 199.003904 
L 320.552241 195.581356 
L 320.892484 200.147836 
L 321.232693 198.016797 
L 321.913146 230.413584 
L 322.253356 254.867042 
L 322.593599 269.93703 
L 322.933808 235.358013 
L 323.274052 187.423749 
L 323.614261 215.791426 
L 323.954471 225.745637 
L 324.294714 229.234219 
L 324.634923 268.915636 
L 325.315376 210.810511 
L 325.655586 288.497226 
L 325.995829 232.867504 
L 326.336038 199.929944 
L 326.676282 218.82811 
L 327.016491 264.174142 
L 327.356701 269.184031 
L 327.696944 226.444485 
L 328.037153 243.290769 
L 328.377397 178.334821 
L 328.717606 175.906233 
L 329.057849 209.069234 
L 330.418721 275.078992 
L 330.758964 230.842961 
L 331.099174 276.93797 
L 331.439383 251.55324 
L 331.779627 281.117328 
L 332.119836 299.942685 
L 332.460079 272.709389 
L 332.800289 316.502887 
L 333.140498 284.655716 
L 333.480742 330.429715 
L 334.161194 291.51543 
L 334.501404 287.096762 
L 334.841613 212.06911 
L 335.181857 301.729863 
L 335.522066 301.729863 
L 335.862309 245.608093 
L 336.202519 221.57035 
L 336.542728 279.520295 
L 336.882972 248.922447 
L 337.223181 263.355492 
L 337.563424 197.51735 
L 337.903634 200.902967 
L 338.243877 198.379452 
L 338.584087 202.000245 
L 338.924296 232.239691 
L 339.604749 327.494997 
L 339.944992 227.03229 
L 340.285202 332.874643 
L 340.625413 254.191275 
L 340.965656 283.051525 
L 341.305865 236.019344 
L 341.646109 275.097747 
L 341.986318 274.735934 
L 342.326528 289.568744 
L 342.666771 201.53648 
L 343.00698 236.792252 
L 343.347224 205.499383 
L 343.687433 211.954213 
L 344.027643 178.836821 
L 344.367886 196.036522 
L 344.708095 127.576596 
L 345.048339 122.28247 
L 345.388548 201.988341 
L 345.728758 150.072413 
L 346.069001 266.808665 
L 346.40921 241.862583 
L 346.749454 160.315862 
L 347.089663 238.512473 
L 347.429906 240.30665 
L 347.770116 244.755483 
L 348.110325 218.524136 
L 348.450569 210.673289 
L 348.790778 292.456332 
L 349.131021 248.781669 
L 349.471231 183.756579 
L 349.81144 257.315985 
L 350.491893 307.155374 
L 350.832136 278.957892 
L 351.172346 264.005227 
L 351.512555 374.993453 
L 351.852799 292.379275 
L 352.193008 305.962653 
L 352.533251 296.065079 
L 352.873461 262.896648 
L 353.21367 202.666806 
L 353.553914 264.180827 
L 353.894123 235.590663 
L 354.234366 262.776861 
L 354.574576 259.806371 
L 354.914785 201.099031 
L 355.255029 259.573611 
L 355.595238 203.771383 
L 355.935481 235.504585 
L 356.275691 246.365504 
L 356.615934 239.356412 
L 356.956144 295.315935 
L 357.296353 165.831365 
L 357.636596 262.31752 
L 357.976806 286.734298 
L 358.657259 201.268367 
L 358.997468 228.620378 
L 359.337711 217.053141 
L 360.018164 311.528441 
L 360.358374 300.084756 
L 360.698583 271.99119 
L 361.038826 292.624 
L 361.379036 252.688115 
L 361.719279 249.207707 
L 362.059489 298.780981 
L 362.399698 287.389914 
L 362.739941 324.374625 
L 363.080151 334.496182 
L 363.420394 330.953424 
L 363.760604 325.164131 
L 364.100813 323.605567 
L 364.441056 331.168947 
L 364.781266 251.765039 
L 365.121509 300.338874 
L 365.461719 316.45494 
L 365.801928 305.217271 
L 366.142171 322.384041 
L 366.482381 269.011715 
L 366.822624 264.336565 
L 367.162834 351.953083 
L 367.503077 262.262449 
L 367.843286 308.236944 
L 368.183496 255.851746 
L 368.523739 313.943466 
L 368.863949 260.719547 
L 369.204192 338.182807 
L 369.544401 311.606921 
L 369.884611 233.811573 
L 370.224854 229.129752 
L 370.565064 213.962676 
L 371.245516 246.20536 
L 371.585726 286.765783 
L 371.925969 258.139212 
L 372.266179 174.662062 
L 372.606422 233.439797 
L 372.946631 263.655679 
L 373.286841 209.686619 
L 373.627084 261.374685 
L 373.967294 213.606788 
L 374.307537 265.092556 
L 374.647745 228.003989 
L 374.987955 239.490876 
L 375.328198 158.600994 
L 375.668407 158.600994 
L 376.008651 244.34821 
L 376.34886 238.811917 
L 376.68907 252.714126 
L 377.029313 281.634984 
L 377.369522 194.457256 
L 377.709766 233.200755 
L 378.049975 220.061913 
L 378.390185 261.570801 
L 378.730428 281.193386 
L 379.070637 260.009554 
L 379.410881 276.306134 
L 379.75109 255.801982 
L 380.0913 296.308965 
L 380.431543 293.138882 
L 380.771752 303.994025 
L 381.111996 292.25964 
L 381.452205 262.779999 
L 381.792448 159.455294 
L 382.132658 224.502495 
L 382.472867 264.91894 
L 382.813111 247.836702 
L 383.15332 267.993195 
L 383.493563 241.336475 
L 383.833773 264.351823 
L 384.173982 224.500777 
L 384.514226 266.711965 
L 384.854435 251.382605 
L 385.194678 286.675037 
L 385.534888 246.896347 
L 385.875097 250.473727 
L 386.215341 228.004004 
L 386.55555 215.400799 
L 386.895793 241.231221 
L 387.236003 185.284148 
L 387.576212 205.139689 
L 387.916456 250.398013 
L 388.256665 194.239873 
L 388.596908 176.39755 
L 388.937118 202.189294 
L 389.277327 212.483408 
L 389.617571 214.625353 
L 389.95778 197.3555 
L 390.298023 260.113918 
L 390.638233 282.771738 
L 390.978442 218.31248 
L 391.318686 256.154549 
L 391.658895 162.00606 
L 391.999138 141.655982 
L 392.339348 183.840731 
L 392.679557 161.425057 
L 393.019801 166.362005 
L 393.36001 250.168547 
L 393.700253 251.157772 
L 394.040463 250.512803 
L 394.380672 249.591863 
L 394.720916 269.410459 
L 395.061125 295.922047 
L 395.401368 236.267078 
L 395.741578 268.959048 
L 396.081787 170.931751 
L 396.422031 246.700489 
L 396.76224 265.604635 
L 397.102483 318.023981 
L 397.442693 146.93602 
L 397.782936 235.530317 
L 398.123146 207.09117 
L 398.463355 270.904595 
L 398.803598 234.141571 
L 399.143808 176.469496 
L 399.484051 239.342789 
L 399.824261 179.774763 
L 400.16447 218.274307 
L 400.504713 287.326486 
L 400.844923 318.855711 
L 401.185166 301.914369 
L 402.205828 190.828726 
L 402.546038 234.644659 
L 402.886281 305.523295 
L 403.226491 243.581065 
L 403.5667 218.337378 
L 403.906943 245.420896 
L 404.247153 251.663272 
L 404.587396 235.977521 
L 404.927606 266.072187 
L 405.267815 255.142061 
L 405.608058 251.75709 
L 405.948268 127.94062 
L 406.288511 216.285603 
L 406.628721 218.997664 
L 406.96893 208.318197 
L 407.309173 222.647433 
L 407.649383 228.556376 
L 407.989626 245.474736 
L 408.329831 236.639813 
L 408.670041 247.772195 
L 409.010284 302.898416 
L 409.350494 241.767556 
L 409.690737 256.504394 
L 410.030946 326.202879 
L 410.371156 276.585157 
L 410.711399 282.085574 
L 411.051609 308.530286 
L 411.391852 278.797673 
L 411.732061 276.997215 
L 412.072271 272.74145 
L 412.412514 254.787442 
L 412.752724 277.415526 
L 413.092967 270.60649 
L 413.433176 272.560367 
L 413.773386 285.478002 
L 414.113629 194.012069 
L 414.453839 199.071004 
L 414.794082 307.171839 
L 415.134291 307.171839 
L 415.474501 321.694675 
L 415.814744 321.694675 
L 416.154954 243.694421 
L 416.495197 236.298643 
L 416.835406 292.134329 
L 417.175616 384.267607 
L 417.515859 319.794392 
L 417.856069 320.998048 
L 418.196312 186.977366 
L 418.536521 103.38756 
L 418.876731 111.505587 
L 419.216974 173.779031 
L 419.557184 189.072861 
L 419.897427 185.445498 
L 420.237636 218.90078 
L 420.577846 180.439004 
L 420.918089 213.130746 
L 421.258299 259.33507 
L 421.598542 194.31363 
L 421.938751 227.255557 
L 422.278961 161.39921 
L 422.619204 191.412248 
L 423.299657 323.493326 
L 423.639866 196.624514 
L 423.980076 213.016394 
L 424.320319 215.919168 
L 424.660529 230.556615 
L 425.000772 291.204007 
L 425.340981 258.188912 
L 425.681191 195.987559 
L 426.021434 200.053296 
L 426.361644 227.566597 
L 426.701887 235.081142 
L 427.042096 214.056752 
L 427.382306 271.035757 
L 427.722549 250.832545 
L 428.062759 221.855083 
L 428.403002 207.22214 
L 428.743211 179.492068 
L 429.083421 222.189021 
L 429.423664 158.392372 
L 429.763874 250.971332 
L 430.104117 156.520715 
L 430.444326 245.400489 
L 430.784536 246.924785 
L 431.124779 235.942719 
L 431.464989 275.699996 
L 431.805232 226.585603 
L 432.145441 210.636583 
L 432.485651 292.008992 
L 432.825894 293.839691 
L 433.506347 224.39509 
L 433.846556 238.314718 
L 434.527009 214.616845 
L 435.207462 174.209355 
L 435.547671 238.824291 
L 435.887881 246.836368 
L 436.228124 274.315035 
L 436.568334 282.230661 
L 436.908577 223.617684 
L 437.248786 282.718139 
L 437.588996 257.007302 
L 437.929239 213.203834 
L 438.269449 192.30979 
L 438.609692 273.074605 
L 438.949901 290.221542 
L 439.290111 379.882318 
L 439.970564 276.555307 
L 440.310807 270.950426 
L 440.651016 274.062626 
L 441.331469 190.236155 
L 441.671679 257.172423 
L 442.011922 221.674603 
L 442.352131 266.130963 
L 442.692341 259.601463 
L 443.032584 316.242724 
L 443.713037 265.102421 
L 444.053246 202.157491 
L 444.393456 287.64822 
L 444.733699 242.555177 
L 445.073909 298.351005 
L 445.414152 284.239898 
L 445.754361 302.389364 
L 446.094571 276.307746 
L 446.434814 259.134384 
L 446.775024 285.733815 
L 447.115267 223.602283 
L 447.455476 277.840943 
L 447.795686 212.950741 
L 448.135929 228.299289 
L 448.476139 192.457465 
L 448.816382 318.981918 
L 449.156591 281.337079 
L 449.496801 344.536117 
L 449.837044 319.417369 
L 450.177254 283.186326 
L 450.517497 294.723304 
L 450.857706 310.870341 
L 451.197916 288.17153 
L 451.538159 291.418766 
L 452.218612 233.484668 
L 452.558821 311.088396 
L 452.899031 353.988588 
L 453.239274 315.855046 
L 453.579484 340.319763 
L 453.919727 302.894055 
L 454.259936 244.413641 
L 454.600146 227.479973 
L 454.940389 247.437064 
L 455.280599 209.810982 
L 455.620842 209.810982 
L 455.961051 203.415452 
L 456.301261 193.055784 
L 456.641504 158.958976 
L 456.981714 254.349569 
L 457.321957 248.944817 
L 457.662166 272.240624 
L 458.002376 283.529949 
L 458.342619 308.399032 
L 459.023072 282.700564 
L 459.363281 251.755089 
L 459.703491 240.733875 
L 460.043734 337.765595 
L 460.383944 314.833649 
L 460.724187 271.982511 
L 461.064396 257.531686 
L 461.404606 256.945376 
L 461.744849 261.798515 
L 462.085059 193.791642 
L 462.425302 252.344711 
L 462.765511 255.472405 
L 463.105721 336.763172 
L 463.445964 242.359792 
L 463.786174 307.350582 
L 464.126383 243.397087 
L 464.466626 213.640423 
L 464.806836 327.603975 
L 465.147079 248.266258 
L 465.487289 298.216105 
L 465.827532 303.68614 
L 466.167741 244.504581 
L 466.507951 224.330771 
L 466.848194 272.210637 
L 467.188404 256.76167 
L 467.528613 226.818573 
L 467.868856 220.194361 
L 468.209066 344.060154 
L 468.549309 289.67757 
L 468.889519 281.719871 
L 469.229728 358.071406 
L 469.569971 364.814924 
L 469.910181 276.462187 
L 470.250424 318.09709 
L 470.590634 393.686741 
L 470.930843 395.654255 
L 471.271086 414.957187 
L 471.611296 304.683289 
L 471.951539 338.925444 
L 472.291749 309.812483 
L 472.631958 300.978535 
L 472.972201 344.876413 
L 473.312411 318.11609 
L 473.652654 279.094379 
L 473.992864 338.407215 
L 474.333073 316.946649 
L 474.673316 308.124581 
L 475.013526 315.778941 
L 475.353769 306.756745 
L 475.693979 313.19266 
L 476.034194 312.405546 
L 476.374437 204.918054 
L 477.05489 307.508176 
L 477.395099 207.872319 
L 477.735309 252.718417 
L 478.075552 197.116601 
L 478.415762 216.440034 
L 478.756005 264.987816 
L 479.096214 213.145541 
L 479.436424 289.7047 
L 479.776667 260.000016 
L 480.116877 255.757659 
L 480.457086 232.161863 
L 481.137539 303.674731 
L 481.477782 294.802017 
L 481.817992 267.096356 
L 482.498444 349.446003 
L 482.838654 245.987973 
L 483.178897 202.801546 
L 483.519107 208.395896 
L 483.859316 206.230051 
L 484.199559 236.920485 
L 484.539769 182.40319 
L 484.880012 229.400038 
L 485.220222 303.952259 
L 485.560431 316.248021 
L 485.900674 266.740086 
L 486.240884 310.75972 
L 486.581127 242.352534 
L 486.921337 221.982744 
L 487.261546 187.394733 
L 487.601789 185.078183 
L 487.941999 236.267038 
L 488.282242 193.400031 
L 488.622452 183.180256 
L 488.962661 270.754479 
L 489.302904 265.60642 
L 489.643114 255.218306 
L 489.983357 259.650601 
L 490.323567 164.993249 
L 490.663776 271.435919 
L 491.004019 189.213534 
L 491.344229 265.608942 
L 491.684438 223.433191 
L 492.024682 229.698598 
L 492.364891 270.910276 
L 492.705134 244.011703 
L 493.045344 203.841608 
L 493.385553 227.404878 
L 493.725797 215.185735 
L 494.066006 232.279502 
L 494.406249 172.153331 
L 494.746459 184.595141 
L 495.086668 221.986682 
L 495.426912 221.986682 
L 495.767121 175.936831 
L 496.107364 171.571314 
L 496.447574 198.756639 
L 496.787783 237.297306 
L 497.128027 220.256211 
L 497.468236 187.386371 
L 497.808479 267.232764 
L 498.148689 203.70232 
L 498.488898 251.154433 
L 498.829142 278.609986 
L 499.169351 286.105264 
L 499.849804 267.383416 
L 500.190013 221.47997 
L 500.530257 320.814515 
L 500.870466 275.581602 
L 501.210709 213.037278 
L 501.550919 248.831167 
L 501.891128 187.315909 
L 502.231372 281.069331 
L 502.571581 233.673275 
L 502.911791 247.541219 
L 503.252034 245.339208 
L 503.932487 356.927298 
L 504.272696 284.66837 
L 504.612906 339.015023 
L 504.953149 305.45672 
L 505.293358 228.729651 
L 505.633602 223.098305 
L 505.973811 140.026386 
L 506.314021 134.526122 
L 506.654264 154.308917 
L 506.994473 145.332706 
L 507.334717 211.972231 
L 507.674926 217.838988 
L 508.015136 226.271684 
L 508.355379 174.474686 
L 508.695588 251.546679 
L 509.035798 157.747074 
L 509.376041 193.724874 
L 509.716251 161.051813 
L 510.05651 260.241958 
L 510.396719 134.317946 
L 510.736928 111.137489 
L 511.077172 208.181323 
L 511.417381 228.132059 
L 511.757625 207.702543 
L 512.097834 153.422479 
L 512.438043 225.043137 
L 512.778287 162.837568 
L 513.118496 190.528658 
L 513.45874 206.884842 
L 513.798949 203.996713 
L 514.139158 186.187353 
L 514.479402 230.28084 
L 514.819611 240.424265 
L 515.159855 178.05901 
L 515.500064 184.877288 
L 515.840273 178.39935 
L 516.180517 202.137251 
L 516.520726 203.249523 
L 516.860936 251.643253 
L 517.201179 283.207396 
L 517.541388 203.241419 
L 517.881632 278.295998 
L 518.221841 235.841254 
L 518.902294 287.892602 
L 519.242503 261.396798 
L 519.582747 277.316442 
L 519.922956 153.307096 
L 520.263166 163.230439 
L 520.603409 256.732749 
L 521.283862 145.166007 
L 521.624071 107.63344 
L 521.964281 153.8183 
L 523.325186 224.295743 
L 523.665396 190.882042 
L 524.005639 191.758983 
L 524.345849 144.60451 
L 524.686058 237.293983 
L 525.026301 182.517599 
L 525.366511 104.925264 
L 525.706754 162.533655 
L 526.046964 127.139897 
L 526.387173 167.485288 
L 526.727416 244.292687 
L 527.067626 201.952947 
L 527.407869 236.032841 
L 527.748079 247.54683 
L 528.088288 299.060228 
L 528.428531 284.698102 
L 528.768741 249.061151 
L 529.108984 197.350676 
L 529.449194 173.500647 
L 529.789403 134.918654 
L 530.129646 171.536594 
L 530.469856 179.706542 
L 530.810065 117.30657 
L 531.150309 127.153456 
L 531.490518 158.807527 
L 531.830761 176.081223 
L 532.170971 180.97024 
L 532.51118 164.420946 
L 533.191633 102.869386 
L 533.531876 97.207964 
L 533.872086 26.877188 
L 534.212295 63.938824 
L 534.552539 140.207841 
L 534.892748 160.549385 
L 535.232991 223.496373 
L 535.573201 223.496373 
L 536.253654 123.991909 
L 536.593863 110.711754 
L 536.934072 117.825942 
L 537.274316 63.350271 
L 537.614525 57.828583 
L 537.954769 67.067285 
L 538.294978 173.598708 
L 538.635187 144.53824 
L 538.975431 147.201719 
L 539.655884 95.451784 
L 540.336302 211.571749 
L 541.016755 272.205092 
L 541.356965 278.819909 
L 541.697208 252.760161 
L 542.037417 250.932176 
L 542.377661 164.773082 
L 542.71787 134.004124 
L 543.05808 218.840217 
L 543.398323 257.530664 
L 543.738529 213.411196 
L 544.078773 238.030422 
L 544.418982 188.31114 
L 544.759192 220.038812 
L 545.099435 179.360614 
L 545.439644 208.095331 
L 545.779888 147.256183 
L 546.120097 135.495269 
L 546.460307 197.233061 
L 546.80055 307.974194 
L 547.140759 308.252396 
L 547.480969 240.955645 
L 547.821212 216.925819 
L 548.161422 135.516857 
L 548.501665 123.44204 
L 548.841874 105.536882 
L 549.182084 112.510833 
L 549.522327 133.628308 
L 549.862537 202.425275 
L 550.20278 239.697096 
L 550.542989 184.233168 
L 550.883199 194.868783 
L 551.223442 211.10948 
L 551.563652 176.087498 
L 551.903861 199.502925 
L 552.244104 167.405428 
L 552.584314 161.867619 
L 552.924557 184.813031 
L 553.264767 232.195542 
L 553.604976 157.9663 
L 553.945219 109.479178 
L 554.965882 275.312887 
L 555.306091 243.457865 
L 555.646334 193.215837 
L 555.986544 183.340273 
L 556.326753 242.10896 
L 556.666997 210.956427 
L 557.007206 195.836357 
L 557.347449 133.688738 
L 557.687659 190.225936 
L 558.027868 124.142868 
L 558.368112 196.777143 
L 558.708321 186.141167 
L 559.048564 148.669677 
L 559.388774 187.596198 
L 559.728983 177.423281 
L 560.069227 113.724715 
L 560.409436 152.463735 
L 560.749679 78.484813 
L 561.089889 80.533286 
L 561.430098 125.121118 
L 561.770342 216.767909 
L 562.110551 162.505746 
L 562.450761 192.968371 
L 562.791004 192.378571 
L 563.131213 169.445739 
L 563.471457 116.861784 
L 563.811666 240.713151 
L 564.492119 82.556697 
L 564.832328 153.041251 
L 565.172572 167.180017 
L 565.512781 85.712236 
L 565.852991 114.603314 
L 566.193234 106.983501 
L 566.533443 92.103002 
L 566.873653 71.527883 
L 567.213896 123.810811 
L 567.554106 202.167119 
L 567.894349 185.383379 
L 568.234558 121.362385 
L 568.574768 126.728571 
L 568.915011 55.703183 
L 569.255221 53.115058 
L 569.595464 58.362227 
L 569.935673 123.864995 
L 570.275883 93.500526 
L 570.616126 135.843406 
L 570.956336 106.81379 
L 571.296545 109.009973 
L 571.636788 124.438364 
L 571.976998 90.89874 
L 572.317241 77.422403 
L 572.99766 181.402838 
L 573.337903 105.102139 
L 573.678113 111.782672 
L 574.018356 101.769784 
L 574.698775 225.679088 
L 575.039018 151.631603 
L 575.379228 108.06137 
L 575.719437 108.06137 
L 576.059681 91.832091 
L 576.39989 206.530693 
L 576.740133 176.014936 
L 577.420552 255.405973 
L 577.760779 193.015148 
L 578.100988 197.249702 
L 578.441198 288.147123 
L 578.781441 225.867651 
L 579.12165 185.831385 
L 579.461894 174.016219 
L 579.802103 189.262154 
L 580.142313 210.100567 
L 580.482556 181.586294 
L 580.822765 224.528648 
L 581.163009 241.193427 
L 581.503218 234.882552 
L 581.843428 251.863951 
L 582.183671 249.511425 
L 582.52388 167.640783 
L 582.86409 145.312416 
L 583.204333 157.327814 
L 583.544543 127.66519 
L 583.884786 113.327253 
L 584.224995 56.020604 
L 584.905448 174.328308 
L 585.245658 140.187711 
L 585.585867 131.36762 
L 585.92611 106.055503 
L 586.26632 96.966517 
L 586.606563 161.29515 
L 586.946773 75.98979 
L 587.286982 130.999551 
L 587.627225 153.73141 
L 587.967435 157.625881 
L 588.307678 274.099499 
L 588.647888 241.804289 
L 589.32834 205.651577 
L 589.66855 191.748911 
L 590.008759 188.387908 
L 590.349003 169.097501 
L 590.689212 173.546516 
L 591.029455 143.198803 
L 591.369665 248.635781 
L 591.709874 160.647821 
L 592.050118 154.924748 
L 592.390327 183.196785 
L 592.730537 200.094388 
L 593.410989 106.481777 
L 593.751233 126.508702 
L 594.431652 207.276357 
L 595.112104 136.951352 
L 595.452348 206.407385 
L 595.792557 243.724738 
L 596.132767 218.03985 
L 596.47301 239.287964 
L 597.153429 181.916827 
L 597.493672 212.399731 
L 597.833882 182.658616 
L 598.174125 228.318596 
L 598.514334 226.915752 
L 598.854544 229.403482 
L 599.194787 222.213287 
L 599.534997 261.284323 
L 599.875206 176.354226 
L 600.215449 172.854667 
L 600.555659 212.028643 
L 600.895902 267.58637 
L 601.236112 265.361774 
L 601.576321 225.017024 
L 601.916564 218.82619 
L 602.256774 188.385379 
L 602.596983 186.34918 
L 602.937227 121.240296 
L 603.277436 177.985897 
L 603.617679 158.138835 
L 603.957889 188.75958 
L 604.298098 200.633525 
L 604.638342 202.493392 
L 604.978551 193.601833 
L 604.978551 193.601833 
" clip-path="url(#p7f759e48ad)" style="fill: none; stroke: #1f77b4; stroke-width: 2; stroke-linecap: square"/>
   </g>
   <g id="patch_3">
    <path d="M 72.342187 414.957187 
L 72.342187 26.877188 
" style="fill: none; stroke: #808080; stroke-width: 2; stroke-linejoin: miter; stroke-linecap: square"/>
   </g>
   <g id="patch_4">
    <path d="M 72.342188 414.957187 
L 630.342188 414.957187 
" style="fill: none; stroke: #808080; stroke-width: 2; stroke-linejoin: miter; stroke-linecap: square"/>
   </g>
   <g id="text_19">
    <!-- Vemund-Tyholt_restart-vinkel -->
    <g style="fill: #808080" transform="translate(221.414531 20.877187) scale(0.18 -0.18)">
     <defs>
      <path id="DejaVuSans-56" d="M 1831 0 
L 50 4666 
L 709 4666 
L 2188 738 
L 3669 4666 
L 4325 4666 
L 2547 0 
L 1831 0 
z
" transform="scale(0.015625)"/>
      <path id="DejaVuSans-75" d="M 544 1381 
L 544 3500 
L 1119 3500 
L 1119 1403 
Q 1119 906 1312 657 
Q 1506 409 1894 409 
Q 2359 409 2629 706 
Q 2900 1003 2900 1516 
L 2900 3500 
L 3475 3500 
L 3475 0 
L 2900 0 
L 2900 538 
Q 2691 219 2414 64 
Q 2138 -91 1772 -91 
Q 1169 -91 856 284 
Q 544 659 544 1381 
z
M 1991 3584 
L 1991 3584 
z
" transform="scale(0.015625)"/>
      <path id="DejaVuSans-6e" d="M 3513 2113 
L 3513 0 
L 2938 0 
L 2938 2094 
Q 2938 2591 2744 2837 
Q 2550 3084 2163 3084 
Q 1697 3084 1428 2787 
Q 1159 2491 1159 1978 
L 1159 0 
L 581 0 
L 581 3500 
L 1159 3500 
L 1159 2956 
Q 1366 3272 1645 3428 
Q 1925 3584 2291 3584 
Q 2894 3584 3203 3211 
Q 3513 2838 3513 2113 
z
" transform="scale(0.015625)"/>
      <path id="DejaVuSans-2d" d="M 313 2009 
L 1997 2009 
L 1997 1497 
L 313 1497 
L 313 2009 
z
" transform="scale(0.015625)"/>
      <path id="DejaVuSans-54" d="M -19 4666 
L 3928 4666 
L 3928 4134 
L 2272 4134 
L 2272 0 
L 1638 0 
L 1638 4134 
L -19 4134 
L -19 4666 
z
" transform="scale(0.015625)"/>
      <path id="DejaVuSans-79" d="M 2059 -325 
Q 1816 -950 1584 -1140 
Q 1353 -1331 966 -1331 
L 506 -1331 
L 506 -850 
L 844 -850 
Q 1081 -850 1212 -737 
Q 1344 -625 1503 -206 
L 1606 56 
L 191 3500 
L 800 3500 
L 1894 763 
L 2988 3500 
L 3597 3500 
L 2059 -325 
z
" transform="scale(0.015625)"/>
      <path id="DejaVuSans-68" d="M 3513 2113 
L 3513 0 
L 2938 0 
L 2938 2094 
Q 2938 2591 2744 2837 
Q 2550 3084 2163 3084 
Q 1697 3084 1428 2787 
Q 1159 2491 1159 1978 
L 1159 0 
L 581 0 
L 581 4863 
L 1159 4863 
L 1159 2956 
Q 1366 3272 1645 3428 
Q 1925 3584 2291 3584 
Q 2894 3584 3203 3211 
Q 3513 2838 3513 2113 
z
" transform="scale(0.015625)"/>
      <path id="DejaVuSans-6f" d="M 1959 3097 
Q 1497 3097 1228 2736 
Q 959 2375 959 1747 
Q 959 1119 1226 758 
Q 1494 397 1959 397 
Q 2419 397 2687 759 
Q 2956 1122 2956 1747 
Q 2956 2369 2687 2733 
Q 2419 3097 1959 3097 
z
M 1959 3584 
Q 2709 3584 3137 3096 
Q 3566 2609 3566 1747 
Q 3566 888 3137 398 
Q 2709 -91 1959 -91 
Q 1206 -91 779 398 
Q 353 888 353 1747 
Q 353 2609 779 3096 
Q 1206 3584 1959 3584 
z
" transform="scale(0.015625)"/>
      <path id="DejaVuSans-6c" d="M 603 4863 
L 1178 4863 
L 1178 0 
L 603 0 
L 603 4863 
z
" transform="scale(0.015625)"/>
      <path id="DejaVuSans-5f" d="M 3263 -1063 
L 3263 -1509 
L -63 -1509 
L -63 -1063 
L 3263 -1063 
z
" transform="scale(0.015625)"/>
      <path id="DejaVuSans-72" d="M 2631 2963 
Q 2534 3019 2420 3045 
Q 2306 3072 2169 3072 
Q 1681 3072 1420 2755 
Q 1159 2438 1159 1844 
L 1159 0 
L 581 0 
L 581 3500 
L 1159 3500 
L 1159 2956 
Q 1341 3275 1631 3429 
Q 1922 3584 2338 3584 
Q 2397 3584 2469 3576 
Q 2541 3569 2628 3553 
L 2631 2963 
z
" transform="scale(0.015625)"/>
      <path id="DejaVuSans-61" d="M 2194 1759 
Q 1497 1759 1228 1600 
Q 959 1441 959 1056 
Q 959 750 1161 570 
Q 1363 391 1709 391 
Q 2188 391 2477 730 
Q 2766 1069 2766 1631 
L 2766 1759 
L 2194 1759 
z
M 3341 1997 
L 3341 0 
L 2766 0 
L 2766 531 
Q 2569 213 2275 61 
Q 1981 -91 1556 -91 
Q 1019 -91 701 211 
Q 384 513 384 1019 
Q 384 1609 779 1909 
Q 1175 2209 1959 2209 
L 2766 2209 
L 2766 2266 
Q 2766 2663 2505 2880 
Q 2244 3097 1772 3097 
Q 1472 3097 1187 3025 
Q 903 2953 641 2809 
L 641 3341 
Q 956 3463 1253 3523 
Q 1550 3584 1831 3584 
Q 2591 3584 2966 3190 
Q 3341 2797 3341 1997 
z
" transform="scale(0.015625)"/>
      <path id="DejaVuSans-76" d="M 191 3500 
L 800 3500 
L 1894 563 
L 2988 3500 
L 3597 3500 
L 2284 0 
L 1503 0 
L 191 3500 
z
" transform="scale(0.015625)"/>
      <path id="DejaVuSans-6b" d="M 581 4863 
L 1159 4863 
L 1159 1991 
L 2875 3500 
L 3609 3500 
L 1753 1863 
L 3688 0 
L 2938 0 
L 1159 1709 
L 1159 0 
L 581 0 
L 581 4863 
z
" transform="scale(0.015625)"/>
     </defs>
     <use xlink:href="#DejaVuSans-56"/>
     <use xlink:href="#DejaVuSans-65" x="60.658203"/>
     <use xlink:href="#DejaVuSans-6d" x="122.181641"/>
     <use xlink:href="#DejaVuSans-75" x="219.59375"/>
     <use xlink:href="#DejaVuSans-6e" x="282.972656"/>
     <use xlink:href="#DejaVuSans-64" x="346.351562"/>
     <use xlink:href="#DejaVuSans-2d" x="409.828125"/>
     <use xlink:href="#DejaVuSans-54" x="436.787109"/>
     <use xlink:href="#DejaVuSans-79" x="482.246094"/>
     <use xlink:href="#DejaVuSans-68" x="541.425781"/>
     <use xlink:href="#DejaVuSans-6f" x="604.804688"/>
     <use xlink:href="#DejaVuSans-6c" x="665.986328"/>
     <use xlink:href="#DejaVuSans-74" x="693.769531"/>
     <use xlink:href="#DejaVuSans-5f" x="732.978516"/>
     <use xlink:href="#DejaVuSans-72" x="782.978516"/>
     <use xlink:href="#DejaVuSans-65" x="821.841797"/>
     <use xlink:href="#DejaVuSans-73" x="883.365234"/>
     <use xlink:href="#DejaVuSans-74" x="935.464844"/>
     <use xlink:href="#DejaVuSans-61" x="974.673828"/>
     <use xlink:href="#DejaVuSans-72" x="1035.953125"/>
     <use xlink:href="#DejaVuSans-74" x="1077.066406"/>
     <use xlink:href="#DejaVuSans-2d" x="1116.275391"/>
     <use xlink:href="#DejaVuSans-76" x="1149.734375"/>
     <use xlink:href="#DejaVuSans-69" x="1208.914062"/>
     <use xlink:href="#DejaVuSans-6e" x="1236.697266"/>
     <use xlink:href="#DejaVuSans-6b" x="1300.076172"/>
     <use xlink:href="#DejaVuSans-65" x="1354.361328"/>
     <use xlink:href="#DejaVuSans-6c" x="1415.884766"/>
    </g>
   </g>
   <g id="legend_1">
    <g id="patch_5">
     <path d="M 82.842187 61.311562 
L 347.388281 61.311562 
Q 350.388281 61.311562 350.388281 58.311562 
L 350.388281 37.377187 
Q 350.388281 34.377187 347.388281 34.377187 
L 82.842187 34.377187 
Q 79.842187 34.377187 79.842187 37.377187 
L 79.842187 58.311562 
Q 79.842187 61.311562 82.842187 61.311562 
z
" style="fill: #ffffff; opacity: 0.8; stroke: #cccccc; stroke-linejoin: miter"/>
    </g>
    <g id="line2d_34">
     <path d="M 85.842187 46.524844 
L 100.842187 46.524844 
L 115.842187 46.524844 
" style="fill: none; stroke: #1f77b4; stroke-width: 2; stroke-linecap: square"/>
    </g>
    <g id="text_20">
     <!-- Vemund-Tyholt_restart-vinkel -->
     <g style="fill: #808080" transform="translate(127.842187 51.774844) scale(0.15 -0.15)">
      <use xlink:href="#DejaVuSans-56"/>
      <use xlink:href="#DejaVuSans-65" x="60.658203"/>
      <use xlink:href="#DejaVuSans-6d" x="122.181641"/>
      <use xlink:href="#DejaVuSans-75" x="219.59375"/>
      <use xlink:href="#DejaVuSans-6e" x="282.972656"/>
      <use xlink:href="#DejaVuSans-64" x="346.351562"/>
      <use xlink:href="#DejaVuSans-2d" x="409.828125"/>
      <use xlink:href="#DejaVuSans-54" x="436.787109"/>
      <use xlink:href="#DejaVuSans-79" x="482.246094"/>
      <use xlink:href="#DejaVuSans-68" x="541.425781"/>
      <use xlink:href="#DejaVuSans-6f" x="604.804688"/>
      <use xlink:href="#DejaVuSans-6c" x="665.986328"/>
      <use xlink:href="#DejaVuSans-74" x="693.769531"/>
      <use xlink:href="#DejaVuSans-5f" x="732.978516"/>
      <use xlink:href="#DejaVuSans-72" x="782.978516"/>
      <use xlink:href="#DejaVuSans-65" x="821.841797"/>
      <use xlink:href="#DejaVuSans-73" x="883.365234"/>
      <use xlink:href="#DejaVuSans-74" x="935.464844"/>
      <use xlink:href="#DejaVuSans-61" x="974.673828"/>
      <use xlink:href="#DejaVuSans-72" x="1035.953125"/>
      <use xlink:href="#DejaVuSans-74" x="1077.066406"/>
      <use xlink:href="#DejaVuSans-2d" x="1116.275391"/>
      <use xlink:href="#DejaVuSans-76" x="1149.734375"/>
      <use xlink:href="#DejaVuSans-69" x="1208.914062"/>
      <use xlink:href="#DejaVuSans-6e" x="1236.697266"/>
      <use xlink:href="#DejaVuSans-6b" x="1300.076172"/>
      <use xlink:href="#DejaVuSans-65" x="1354.361328"/>
      <use xlink:href="#DejaVuSans-6c" x="1415.884766"/>
     </g>
    </g>
   </g>
  </g>
 </g>
 <defs>
  <clipPath id="p7f759e48ad">
   <rect x="72.342187" y="26.877187" width="558" height="388.08"/>
  </clipPath>
 </defs>
</svg>
