<?xml version="1.0" encoding="utf-8" standalone="no"?>
<!DOCTYPE svg PUBLIC "-//W3C//DTD SVG 1.1//EN"
  "http://www.w3.org/Graphics/SVG/1.1/DTD/svg11.dtd">
<svg xmlns:xlink="http://www.w3.org/1999/xlink" width="637.542187pt" height="458.691562pt" viewBox="0 0 637.542187 458.691562" xmlns="http://www.w3.org/2000/svg" version="1.1">
 <metadata>
  <rdf:RDF xmlns:dc="http://purl.org/dc/elements/1.1/" xmlns:cc="http://creativecommons.org/ns#" xmlns:rdf="http://www.w3.org/1999/02/22-rdf-syntax-ns#">
   <cc:Work>
    <dc:type rdf:resource="http://purl.org/dc/dcmitype/StillImage"/>
    <dc:date>2023-04-10T14:16:17.408030</dc:date>
    <dc:format>image/svg+xml</dc:format>
    <dc:creator>
     <cc:Agent>
      <dc:title>Matplotlib v3.7.1, https://matplotlib.org/</dc:title>
     </cc:Agent>
    </dc:creator>
   </cc:Work>
  </rdf:RDF>
 </metadata>
 <defs>
  <style type="text/css">*{stroke-linejoin: round; stroke-linecap: butt}</style>
 </defs>
 <g id="figure_1">
  <g id="patch_1">
   <path d="M 0 458.691562 
L 637.542187 458.691562 
L 637.542187 0 
L 0 0 
L 0 458.691562 
z
" style="fill: none"/>
  </g>
  <g id="axes_1">
   <g id="patch_2">
    <path d="M 72.342187 414.957187 
L 630.342188 414.957187 
L 630.342188 26.877187 
L 72.342187 26.877187 
L 72.342187 414.957187 
z
" style="fill: none"/>
   </g>
   <g id="matplotlib.axis_1">
    <g id="xtick_1">
     <g id="line2d_1">
      <path d="M 97.557596 414.957187 
L 97.557596 26.877187 
" clip-path="url(#p34406bfa50)" style="fill: none; stroke: #808080; stroke-width: 0.8; stroke-linecap: square"/>
     </g>
     <g id="line2d_2">
      <defs>
       <path id="mcad06896a0" d="M 0 0 
L 0 -5 
" style="stroke: #808080; stroke-width: 0.8"/>
      </defs>
      <g>
       <use xlink:href="#mcad06896a0" x="97.557596" y="414.957187" style="fill: #808080; stroke: #808080; stroke-width: 0.8"/>
      </g>
     </g>
     <g id="text_1">
      <!-- 20 -->
      <g style="fill: #808080" transform="translate(88.013846 429.854844) scale(0.15 -0.15)">
       <defs>
        <path id="DejaVuSans-32" d="M 1228 531 
L 3431 531 
L 3431 0 
L 469 0 
L 469 531 
Q 828 903 1448 1529 
Q 2069 2156 2228 2338 
Q 2531 2678 2651 2914 
Q 2772 3150 2772 3378 
Q 2772 3750 2511 3984 
Q 2250 4219 1831 4219 
Q 1534 4219 1204 4116 
Q 875 4013 500 3803 
L 500 4441 
Q 881 4594 1212 4672 
Q 1544 4750 1819 4750 
Q 2544 4750 2975 4387 
Q 3406 4025 3406 3419 
Q 3406 3131 3298 2873 
Q 3191 2616 2906 2266 
Q 2828 2175 2409 1742 
Q 1991 1309 1228 531 
z
" transform="scale(0.015625)"/>
        <path id="DejaVuSans-30" d="M 2034 4250 
Q 1547 4250 1301 3770 
Q 1056 3291 1056 2328 
Q 1056 1369 1301 889 
Q 1547 409 2034 409 
Q 2525 409 2770 889 
Q 3016 1369 3016 2328 
Q 3016 3291 2770 3770 
Q 2525 4250 2034 4250 
z
M 2034 4750 
Q 2819 4750 3233 4129 
Q 3647 3509 3647 2328 
Q 3647 1150 3233 529 
Q 2819 -91 2034 -91 
Q 1250 -91 836 529 
Q 422 1150 422 2328 
Q 422 3509 836 4129 
Q 1250 4750 2034 4750 
z
" transform="scale(0.015625)"/>
       </defs>
       <use xlink:href="#DejaVuSans-32"/>
       <use xlink:href="#DejaVuSans-30" x="63.623047"/>
      </g>
     </g>
    </g>
    <g id="xtick_2">
     <g id="line2d_3">
      <path d="M 165.279455 414.957187 
L 165.279455 26.877187 
" clip-path="url(#p34406bfa50)" style="fill: none; stroke: #808080; stroke-width: 0.8; stroke-linecap: square"/>
     </g>
     <g id="line2d_4">
      <g>
       <use xlink:href="#mcad06896a0" x="165.279455" y="414.957187" style="fill: #808080; stroke: #808080; stroke-width: 0.8"/>
      </g>
     </g>
     <g id="text_2">
      <!-- 22 -->
      <g style="fill: #808080" transform="translate(155.735705 429.854844) scale(0.15 -0.15)">
       <use xlink:href="#DejaVuSans-32"/>
       <use xlink:href="#DejaVuSans-32" x="63.623047"/>
      </g>
     </g>
    </g>
    <g id="xtick_3">
     <g id="line2d_5">
      <path d="M 233.001314 414.957187 
L 233.001314 26.877187 
" clip-path="url(#p34406bfa50)" style="fill: none; stroke: #808080; stroke-width: 0.8; stroke-linecap: square"/>
     </g>
     <g id="line2d_6">
      <g>
       <use xlink:href="#mcad06896a0" x="233.001314" y="414.957187" style="fill: #808080; stroke: #808080; stroke-width: 0.8"/>
      </g>
     </g>
     <g id="text_3">
      <!-- 24 -->
      <g style="fill: #808080" transform="translate(223.457564 429.854844) scale(0.15 -0.15)">
       <defs>
        <path id="DejaVuSans-34" d="M 2419 4116 
L 825 1625 
L 2419 1625 
L 2419 4116 
z
M 2253 4666 
L 3047 4666 
L 3047 1625 
L 3713 1625 
L 3713 1100 
L 3047 1100 
L 3047 0 
L 2419 0 
L 2419 1100 
L 313 1100 
L 313 1709 
L 2253 4666 
z
" transform="scale(0.015625)"/>
       </defs>
       <use xlink:href="#DejaVuSans-32"/>
       <use xlink:href="#DejaVuSans-34" x="63.623047"/>
      </g>
     </g>
    </g>
    <g id="xtick_4">
     <g id="line2d_7">
      <path d="M 300.723173 414.957187 
L 300.723173 26.877187 
" clip-path="url(#p34406bfa50)" style="fill: none; stroke: #808080; stroke-width: 0.8; stroke-linecap: square"/>
     </g>
     <g id="line2d_8">
      <g>
       <use xlink:href="#mcad06896a0" x="300.723173" y="414.957187" style="fill: #808080; stroke: #808080; stroke-width: 0.8"/>
      </g>
     </g>
     <g id="text_4">
      <!-- 26 -->
      <g style="fill: #808080" transform="translate(291.179423 429.854844) scale(0.15 -0.15)">
       <defs>
        <path id="DejaVuSans-36" d="M 2113 2584 
Q 1688 2584 1439 2293 
Q 1191 2003 1191 1497 
Q 1191 994 1439 701 
Q 1688 409 2113 409 
Q 2538 409 2786 701 
Q 3034 994 3034 1497 
Q 3034 2003 2786 2293 
Q 2538 2584 2113 2584 
z
M 3366 4563 
L 3366 3988 
Q 3128 4100 2886 4159 
Q 2644 4219 2406 4219 
Q 1781 4219 1451 3797 
Q 1122 3375 1075 2522 
Q 1259 2794 1537 2939 
Q 1816 3084 2150 3084 
Q 2853 3084 3261 2657 
Q 3669 2231 3669 1497 
Q 3669 778 3244 343 
Q 2819 -91 2113 -91 
Q 1303 -91 875 529 
Q 447 1150 447 2328 
Q 447 3434 972 4092 
Q 1497 4750 2381 4750 
Q 2619 4750 2861 4703 
Q 3103 4656 3366 4563 
z
" transform="scale(0.015625)"/>
       </defs>
       <use xlink:href="#DejaVuSans-32"/>
       <use xlink:href="#DejaVuSans-36" x="63.623047"/>
      </g>
     </g>
    </g>
    <g id="xtick_5">
     <g id="line2d_9">
      <path d="M 368.445032 414.957187 
L 368.445032 26.877187 
" clip-path="url(#p34406bfa50)" style="fill: none; stroke: #808080; stroke-width: 0.8; stroke-linecap: square"/>
     </g>
     <g id="line2d_10">
      <g>
       <use xlink:href="#mcad06896a0" x="368.445032" y="414.957187" style="fill: #808080; stroke: #808080; stroke-width: 0.8"/>
      </g>
     </g>
     <g id="text_5">
      <!-- 28 -->
      <g style="fill: #808080" transform="translate(358.901282 429.854844) scale(0.15 -0.15)">
       <defs>
        <path id="DejaVuSans-38" d="M 2034 2216 
Q 1584 2216 1326 1975 
Q 1069 1734 1069 1313 
Q 1069 891 1326 650 
Q 1584 409 2034 409 
Q 2484 409 2743 651 
Q 3003 894 3003 1313 
Q 3003 1734 2745 1975 
Q 2488 2216 2034 2216 
z
M 1403 2484 
Q 997 2584 770 2862 
Q 544 3141 544 3541 
Q 544 4100 942 4425 
Q 1341 4750 2034 4750 
Q 2731 4750 3128 4425 
Q 3525 4100 3525 3541 
Q 3525 3141 3298 2862 
Q 3072 2584 2669 2484 
Q 3125 2378 3379 2068 
Q 3634 1759 3634 1313 
Q 3634 634 3220 271 
Q 2806 -91 2034 -91 
Q 1263 -91 848 271 
Q 434 634 434 1313 
Q 434 1759 690 2068 
Q 947 2378 1403 2484 
z
M 1172 3481 
Q 1172 3119 1398 2916 
Q 1625 2713 2034 2713 
Q 2441 2713 2670 2916 
Q 2900 3119 2900 3481 
Q 2900 3844 2670 4047 
Q 2441 4250 2034 4250 
Q 1625 4250 1398 4047 
Q 1172 3844 1172 3481 
z
" transform="scale(0.015625)"/>
       </defs>
       <use xlink:href="#DejaVuSans-32"/>
       <use xlink:href="#DejaVuSans-38" x="63.623047"/>
      </g>
     </g>
    </g>
    <g id="xtick_6">
     <g id="line2d_11">
      <path d="M 436.166891 414.957187 
L 436.166891 26.877187 
" clip-path="url(#p34406bfa50)" style="fill: none; stroke: #808080; stroke-width: 0.8; stroke-linecap: square"/>
     </g>
     <g id="line2d_12">
      <g>
       <use xlink:href="#mcad06896a0" x="436.166891" y="414.957187" style="fill: #808080; stroke: #808080; stroke-width: 0.8"/>
      </g>
     </g>
     <g id="text_6">
      <!-- 30 -->
      <g style="fill: #808080" transform="translate(426.623141 429.854844) scale(0.15 -0.15)">
       <defs>
        <path id="DejaVuSans-33" d="M 2597 2516 
Q 3050 2419 3304 2112 
Q 3559 1806 3559 1356 
Q 3559 666 3084 287 
Q 2609 -91 1734 -91 
Q 1441 -91 1130 -33 
Q 819 25 488 141 
L 488 750 
Q 750 597 1062 519 
Q 1375 441 1716 441 
Q 2309 441 2620 675 
Q 2931 909 2931 1356 
Q 2931 1769 2642 2001 
Q 2353 2234 1838 2234 
L 1294 2234 
L 1294 2753 
L 1863 2753 
Q 2328 2753 2575 2939 
Q 2822 3125 2822 3475 
Q 2822 3834 2567 4026 
Q 2313 4219 1838 4219 
Q 1578 4219 1281 4162 
Q 984 4106 628 3988 
L 628 4550 
Q 988 4650 1302 4700 
Q 1616 4750 1894 4750 
Q 2613 4750 3031 4423 
Q 3450 4097 3450 3541 
Q 3450 3153 3228 2886 
Q 3006 2619 2597 2516 
z
" transform="scale(0.015625)"/>
       </defs>
       <use xlink:href="#DejaVuSans-33"/>
       <use xlink:href="#DejaVuSans-30" x="63.623047"/>
      </g>
     </g>
    </g>
    <g id="xtick_7">
     <g id="line2d_13">
      <path d="M 503.88875 414.957187 
L 503.88875 26.877187 
" clip-path="url(#p34406bfa50)" style="fill: none; stroke: #808080; stroke-width: 0.8; stroke-linecap: square"/>
     </g>
     <g id="line2d_14">
      <g>
       <use xlink:href="#mcad06896a0" x="503.88875" y="414.957187" style="fill: #808080; stroke: #808080; stroke-width: 0.8"/>
      </g>
     </g>
     <g id="text_7">
      <!-- 32 -->
      <g style="fill: #808080" transform="translate(494.345 429.854844) scale(0.15 -0.15)">
       <use xlink:href="#DejaVuSans-33"/>
       <use xlink:href="#DejaVuSans-32" x="63.623047"/>
      </g>
     </g>
    </g>
    <g id="xtick_8">
     <g id="line2d_15">
      <path d="M 571.610609 414.957187 
L 571.610609 26.877187 
" clip-path="url(#p34406bfa50)" style="fill: none; stroke: #808080; stroke-width: 0.8; stroke-linecap: square"/>
     </g>
     <g id="line2d_16">
      <g>
       <use xlink:href="#mcad06896a0" x="571.610609" y="414.957187" style="fill: #808080; stroke: #808080; stroke-width: 0.8"/>
      </g>
     </g>
     <g id="text_8">
      <!-- 34 -->
      <g style="fill: #808080" transform="translate(562.066859 429.854844) scale(0.15 -0.15)">
       <use xlink:href="#DejaVuSans-33"/>
       <use xlink:href="#DejaVuSans-34" x="63.623047"/>
      </g>
     </g>
    </g>
    <g id="text_9">
     <!-- time [s] -->
     <g style="fill: #808080" transform="translate(322.255078 448.372031) scale(0.15 -0.15)">
      <defs>
       <path id="DejaVuSans-74" d="M 1172 4494 
L 1172 3500 
L 2356 3500 
L 2356 3053 
L 1172 3053 
L 1172 1153 
Q 1172 725 1289 603 
Q 1406 481 1766 481 
L 2356 481 
L 2356 0 
L 1766 0 
Q 1100 0 847 248 
Q 594 497 594 1153 
L 594 3053 
L 172 3053 
L 172 3500 
L 594 3500 
L 594 4494 
L 1172 4494 
z
" transform="scale(0.015625)"/>
       <path id="DejaVuSans-69" d="M 603 3500 
L 1178 3500 
L 1178 0 
L 603 0 
L 603 3500 
z
M 603 4863 
L 1178 4863 
L 1178 4134 
L 603 4134 
L 603 4863 
z
" transform="scale(0.015625)"/>
       <path id="DejaVuSans-6d" d="M 3328 2828 
Q 3544 3216 3844 3400 
Q 4144 3584 4550 3584 
Q 5097 3584 5394 3201 
Q 5691 2819 5691 2113 
L 5691 0 
L 5113 0 
L 5113 2094 
Q 5113 2597 4934 2840 
Q 4756 3084 4391 3084 
Q 3944 3084 3684 2787 
Q 3425 2491 3425 1978 
L 3425 0 
L 2847 0 
L 2847 2094 
Q 2847 2600 2669 2842 
Q 2491 3084 2119 3084 
Q 1678 3084 1418 2786 
Q 1159 2488 1159 1978 
L 1159 0 
L 581 0 
L 581 3500 
L 1159 3500 
L 1159 2956 
Q 1356 3278 1631 3431 
Q 1906 3584 2284 3584 
Q 2666 3584 2933 3390 
Q 3200 3197 3328 2828 
z
" transform="scale(0.015625)"/>
       <path id="DejaVuSans-65" d="M 3597 1894 
L 3597 1613 
L 953 1613 
Q 991 1019 1311 708 
Q 1631 397 2203 397 
Q 2534 397 2845 478 
Q 3156 559 3463 722 
L 3463 178 
Q 3153 47 2828 -22 
Q 2503 -91 2169 -91 
Q 1331 -91 842 396 
Q 353 884 353 1716 
Q 353 2575 817 3079 
Q 1281 3584 2069 3584 
Q 2775 3584 3186 3129 
Q 3597 2675 3597 1894 
z
M 3022 2063 
Q 3016 2534 2758 2815 
Q 2500 3097 2075 3097 
Q 1594 3097 1305 2825 
Q 1016 2553 972 2059 
L 3022 2063 
z
" transform="scale(0.015625)"/>
       <path id="DejaVuSans-20" transform="scale(0.015625)"/>
       <path id="DejaVuSans-5b" d="M 550 4863 
L 1875 4863 
L 1875 4416 
L 1125 4416 
L 1125 -397 
L 1875 -397 
L 1875 -844 
L 550 -844 
L 550 4863 
z
" transform="scale(0.015625)"/>
       <path id="DejaVuSans-73" d="M 2834 3397 
L 2834 2853 
Q 2591 2978 2328 3040 
Q 2066 3103 1784 3103 
Q 1356 3103 1142 2972 
Q 928 2841 928 2578 
Q 928 2378 1081 2264 
Q 1234 2150 1697 2047 
L 1894 2003 
Q 2506 1872 2764 1633 
Q 3022 1394 3022 966 
Q 3022 478 2636 193 
Q 2250 -91 1575 -91 
Q 1294 -91 989 -36 
Q 684 19 347 128 
L 347 722 
Q 666 556 975 473 
Q 1284 391 1588 391 
Q 1994 391 2212 530 
Q 2431 669 2431 922 
Q 2431 1156 2273 1281 
Q 2116 1406 1581 1522 
L 1381 1569 
Q 847 1681 609 1914 
Q 372 2147 372 2553 
Q 372 3047 722 3315 
Q 1072 3584 1716 3584 
Q 2034 3584 2315 3537 
Q 2597 3491 2834 3397 
z
" transform="scale(0.015625)"/>
       <path id="DejaVuSans-5d" d="M 1947 4863 
L 1947 -844 
L 622 -844 
L 622 -397 
L 1369 -397 
L 1369 4416 
L 622 4416 
L 622 4863 
L 1947 4863 
z
" transform="scale(0.015625)"/>
      </defs>
      <use xlink:href="#DejaVuSans-74"/>
      <use xlink:href="#DejaVuSans-69" x="39.208984"/>
      <use xlink:href="#DejaVuSans-6d" x="66.992188"/>
      <use xlink:href="#DejaVuSans-65" x="164.404297"/>
      <use xlink:href="#DejaVuSans-20" x="225.927734"/>
      <use xlink:href="#DejaVuSans-5b" x="257.714844"/>
      <use xlink:href="#DejaVuSans-73" x="296.728516"/>
      <use xlink:href="#DejaVuSans-5d" x="348.828125"/>
     </g>
    </g>
   </g>
   <g id="matplotlib.axis_2">
    <g id="ytick_1">
     <g id="line2d_17">
      <path d="M 72.342187 404.351076 
L 630.342188 404.351076 
" clip-path="url(#p34406bfa50)" style="fill: none; stroke: #808080; stroke-width: 0.8; stroke-linecap: square"/>
     </g>
     <g id="line2d_18">
      <defs>
       <path id="m455d787743" d="M 0 0 
L 5 0 
" style="stroke: #808080; stroke-width: 0.8"/>
      </defs>
      <g>
       <use xlink:href="#m455d787743" x="72.342187" y="404.351076" style="fill: #808080; stroke: #808080; stroke-width: 0.8"/>
      </g>
     </g>
     <g id="text_10">
      <!-- 267.8 -->
      <g style="fill: #808080" transform="translate(25.9 410.049904) scale(0.15 -0.15)">
       <defs>
        <path id="DejaVuSans-37" d="M 525 4666 
L 3525 4666 
L 3525 4397 
L 1831 0 
L 1172 0 
L 2766 4134 
L 525 4134 
L 525 4666 
z
" transform="scale(0.015625)"/>
        <path id="DejaVuSans-2e" d="M 684 794 
L 1344 794 
L 1344 0 
L 684 0 
L 684 794 
z
" transform="scale(0.015625)"/>
       </defs>
       <use xlink:href="#DejaVuSans-32"/>
       <use xlink:href="#DejaVuSans-36" x="63.623047"/>
       <use xlink:href="#DejaVuSans-37" x="127.246094"/>
       <use xlink:href="#DejaVuSans-2e" x="190.869141"/>
       <use xlink:href="#DejaVuSans-38" x="222.65625"/>
      </g>
     </g>
    </g>
    <g id="ytick_2">
     <g id="line2d_19">
      <path d="M 72.342187 354.050512 
L 630.342188 354.050512 
" clip-path="url(#p34406bfa50)" style="fill: none; stroke: #808080; stroke-width: 0.8; stroke-linecap: square"/>
     </g>
     <g id="line2d_20">
      <g>
       <use xlink:href="#m455d787743" x="72.342187" y="354.050512" style="fill: #808080; stroke: #808080; stroke-width: 0.8"/>
      </g>
     </g>
     <g id="text_11">
      <!-- 268.0 -->
      <g style="fill: #808080" transform="translate(25.9 359.74934) scale(0.15 -0.15)">
       <use xlink:href="#DejaVuSans-32"/>
       <use xlink:href="#DejaVuSans-36" x="63.623047"/>
       <use xlink:href="#DejaVuSans-38" x="127.246094"/>
       <use xlink:href="#DejaVuSans-2e" x="190.869141"/>
       <use xlink:href="#DejaVuSans-30" x="222.65625"/>
      </g>
     </g>
    </g>
    <g id="ytick_3">
     <g id="line2d_21">
      <path d="M 72.342187 303.749949 
L 630.342188 303.749949 
" clip-path="url(#p34406bfa50)" style="fill: none; stroke: #808080; stroke-width: 0.8; stroke-linecap: square"/>
     </g>
     <g id="line2d_22">
      <g>
       <use xlink:href="#m455d787743" x="72.342187" y="303.749949" style="fill: #808080; stroke: #808080; stroke-width: 0.8"/>
      </g>
     </g>
     <g id="text_12">
      <!-- 268.2 -->
      <g style="fill: #808080" transform="translate(25.9 309.448777) scale(0.15 -0.15)">
       <use xlink:href="#DejaVuSans-32"/>
       <use xlink:href="#DejaVuSans-36" x="63.623047"/>
       <use xlink:href="#DejaVuSans-38" x="127.246094"/>
       <use xlink:href="#DejaVuSans-2e" x="190.869141"/>
       <use xlink:href="#DejaVuSans-32" x="222.65625"/>
      </g>
     </g>
    </g>
    <g id="ytick_4">
     <g id="line2d_23">
      <path d="M 72.342187 253.449386 
L 630.342188 253.449386 
" clip-path="url(#p34406bfa50)" style="fill: none; stroke: #808080; stroke-width: 0.8; stroke-linecap: square"/>
     </g>
     <g id="line2d_24">
      <g>
       <use xlink:href="#m455d787743" x="72.342187" y="253.449386" style="fill: #808080; stroke: #808080; stroke-width: 0.8"/>
      </g>
     </g>
     <g id="text_13">
      <!-- 268.4 -->
      <g style="fill: #808080" transform="translate(25.9 259.148214) scale(0.15 -0.15)">
       <use xlink:href="#DejaVuSans-32"/>
       <use xlink:href="#DejaVuSans-36" x="63.623047"/>
       <use xlink:href="#DejaVuSans-38" x="127.246094"/>
       <use xlink:href="#DejaVuSans-2e" x="190.869141"/>
       <use xlink:href="#DejaVuSans-34" x="222.65625"/>
      </g>
     </g>
    </g>
    <g id="ytick_5">
     <g id="line2d_25">
      <path d="M 72.342187 203.148822 
L 630.342188 203.148822 
" clip-path="url(#p34406bfa50)" style="fill: none; stroke: #808080; stroke-width: 0.8; stroke-linecap: square"/>
     </g>
     <g id="line2d_26">
      <g>
       <use xlink:href="#m455d787743" x="72.342187" y="203.148822" style="fill: #808080; stroke: #808080; stroke-width: 0.8"/>
      </g>
     </g>
     <g id="text_14">
      <!-- 268.6 -->
      <g style="fill: #808080" transform="translate(25.9 208.84765) scale(0.15 -0.15)">
       <use xlink:href="#DejaVuSans-32"/>
       <use xlink:href="#DejaVuSans-36" x="63.623047"/>
       <use xlink:href="#DejaVuSans-38" x="127.246094"/>
       <use xlink:href="#DejaVuSans-2e" x="190.869141"/>
       <use xlink:href="#DejaVuSans-36" x="222.65625"/>
      </g>
     </g>
    </g>
    <g id="ytick_6">
     <g id="line2d_27">
      <path d="M 72.342187 152.848259 
L 630.342188 152.848259 
" clip-path="url(#p34406bfa50)" style="fill: none; stroke: #808080; stroke-width: 0.8; stroke-linecap: square"/>
     </g>
     <g id="line2d_28">
      <g>
       <use xlink:href="#m455d787743" x="72.342187" y="152.848259" style="fill: #808080; stroke: #808080; stroke-width: 0.8"/>
      </g>
     </g>
     <g id="text_15">
      <!-- 268.8 -->
      <g style="fill: #808080" transform="translate(25.9 158.547087) scale(0.15 -0.15)">
       <use xlink:href="#DejaVuSans-32"/>
       <use xlink:href="#DejaVuSans-36" x="63.623047"/>
       <use xlink:href="#DejaVuSans-38" x="127.246094"/>
       <use xlink:href="#DejaVuSans-2e" x="190.869141"/>
       <use xlink:href="#DejaVuSans-38" x="222.65625"/>
      </g>
     </g>
    </g>
    <g id="ytick_7">
     <g id="line2d_29">
      <path d="M 72.342187 102.547695 
L 630.342188 102.547695 
" clip-path="url(#p34406bfa50)" style="fill: none; stroke: #808080; stroke-width: 0.8; stroke-linecap: square"/>
     </g>
     <g id="line2d_30">
      <g>
       <use xlink:href="#m455d787743" x="72.342187" y="102.547695" style="fill: #808080; stroke: #808080; stroke-width: 0.8"/>
      </g>
     </g>
     <g id="text_16">
      <!-- 269.0 -->
      <g style="fill: #808080" transform="translate(25.9 108.246524) scale(0.15 -0.15)">
       <defs>
        <path id="DejaVuSans-39" d="M 703 97 
L 703 672 
Q 941 559 1184 500 
Q 1428 441 1663 441 
Q 2288 441 2617 861 
Q 2947 1281 2994 2138 
Q 2813 1869 2534 1725 
Q 2256 1581 1919 1581 
Q 1219 1581 811 2004 
Q 403 2428 403 3163 
Q 403 3881 828 4315 
Q 1253 4750 1959 4750 
Q 2769 4750 3195 4129 
Q 3622 3509 3622 2328 
Q 3622 1225 3098 567 
Q 2575 -91 1691 -91 
Q 1453 -91 1209 -44 
Q 966 3 703 97 
z
M 1959 2075 
Q 2384 2075 2632 2365 
Q 2881 2656 2881 3163 
Q 2881 3666 2632 3958 
Q 2384 4250 1959 4250 
Q 1534 4250 1286 3958 
Q 1038 3666 1038 3163 
Q 1038 2656 1286 2365 
Q 1534 2075 1959 2075 
z
" transform="scale(0.015625)"/>
       </defs>
       <use xlink:href="#DejaVuSans-32"/>
       <use xlink:href="#DejaVuSans-36" x="63.623047"/>
       <use xlink:href="#DejaVuSans-39" x="127.246094"/>
       <use xlink:href="#DejaVuSans-2e" x="190.869141"/>
       <use xlink:href="#DejaVuSans-30" x="222.65625"/>
      </g>
     </g>
    </g>
    <g id="ytick_8">
     <g id="line2d_31">
      <path d="M 72.342187 52.247132 
L 630.342188 52.247132 
" clip-path="url(#p34406bfa50)" style="fill: none; stroke: #808080; stroke-width: 0.8; stroke-linecap: square"/>
     </g>
     <g id="line2d_32">
      <g>
       <use xlink:href="#m455d787743" x="72.342187" y="52.247132" style="fill: #808080; stroke: #808080; stroke-width: 0.8"/>
      </g>
     </g>
     <g id="text_17">
      <!-- 269.2 -->
      <g style="fill: #808080" transform="translate(25.9 57.94596) scale(0.15 -0.15)">
       <use xlink:href="#DejaVuSans-32"/>
       <use xlink:href="#DejaVuSans-36" x="63.623047"/>
       <use xlink:href="#DejaVuSans-39" x="127.246094"/>
       <use xlink:href="#DejaVuSans-2e" x="190.869141"/>
       <use xlink:href="#DejaVuSans-32" x="222.65625"/>
      </g>
     </g>
    </g>
    <g id="text_18">
     <!-- $\theta$ [deg] -->
     <g style="fill: #808080" transform="translate(18.75 247.917187) rotate(-90) scale(0.15 -0.15)">
      <defs>
       <path id="DejaVuSans-Oblique-3b8" d="M 2913 2219 
L 925 2219 
Q 791 1284 928 888 
Q 1100 400 1566 400 
Q 2034 400 2391 891 
Q 2703 1322 2913 2219 
z
M 3009 2750 
Q 3094 3638 2984 3950 
Q 2813 4444 2353 4444 
Q 1875 4444 1525 3956 
Q 1250 3563 1034 2750 
L 3009 2750 
z
M 2444 4913 
Q 3194 4913 3494 4250 
Q 3794 3591 3566 2422 
Q 3341 1256 2781 594 
Q 2225 -72 1475 -72 
Q 722 -72 425 594 
Q 128 1256 353 2422 
Q 581 3591 1134 4250 
Q 1691 4913 2444 4913 
z
" transform="scale(0.015625)"/>
       <path id="DejaVuSans-64" d="M 2906 2969 
L 2906 4863 
L 3481 4863 
L 3481 0 
L 2906 0 
L 2906 525 
Q 2725 213 2448 61 
Q 2172 -91 1784 -91 
Q 1150 -91 751 415 
Q 353 922 353 1747 
Q 353 2572 751 3078 
Q 1150 3584 1784 3584 
Q 2172 3584 2448 3432 
Q 2725 3281 2906 2969 
z
M 947 1747 
Q 947 1113 1208 752 
Q 1469 391 1925 391 
Q 2381 391 2643 752 
Q 2906 1113 2906 1747 
Q 2906 2381 2643 2742 
Q 2381 3103 1925 3103 
Q 1469 3103 1208 2742 
Q 947 2381 947 1747 
z
" transform="scale(0.015625)"/>
       <path id="DejaVuSans-67" d="M 2906 1791 
Q 2906 2416 2648 2759 
Q 2391 3103 1925 3103 
Q 1463 3103 1205 2759 
Q 947 2416 947 1791 
Q 947 1169 1205 825 
Q 1463 481 1925 481 
Q 2391 481 2648 825 
Q 2906 1169 2906 1791 
z
M 3481 434 
Q 3481 -459 3084 -895 
Q 2688 -1331 1869 -1331 
Q 1566 -1331 1297 -1286 
Q 1028 -1241 775 -1147 
L 775 -588 
Q 1028 -725 1275 -790 
Q 1522 -856 1778 -856 
Q 2344 -856 2625 -561 
Q 2906 -266 2906 331 
L 2906 616 
Q 2728 306 2450 153 
Q 2172 0 1784 0 
Q 1141 0 747 490 
Q 353 981 353 1791 
Q 353 2603 747 3093 
Q 1141 3584 1784 3584 
Q 2172 3584 2450 3431 
Q 2728 3278 2906 2969 
L 2906 3500 
L 3481 3500 
L 3481 434 
z
" transform="scale(0.015625)"/>
      </defs>
      <use xlink:href="#DejaVuSans-Oblique-3b8" transform="translate(0 0.234375)"/>
      <use xlink:href="#DejaVuSans-20" transform="translate(61.181641 0.234375)"/>
      <use xlink:href="#DejaVuSans-5b" transform="translate(92.96875 0.234375)"/>
      <use xlink:href="#DejaVuSans-64" transform="translate(131.982422 0.234375)"/>
      <use xlink:href="#DejaVuSans-65" transform="translate(195.458984 0.234375)"/>
      <use xlink:href="#DejaVuSans-67" transform="translate(256.982422 0.234375)"/>
      <use xlink:href="#DejaVuSans-5d" transform="translate(320.458984 0.234375)"/>
     </g>
    </g>
   </g>
   <g id="line2d_33">
    <path d="M 97.705824 212.479083 
L 98.046262 183.116936 
L 98.386733 233.378545 
L 98.727171 246.121354 
L 99.067609 154.191609 
L 99.408081 195.003009 
L 99.748518 123.810005 
L 100.429428 229.162464 
L 100.769899 242.610621 
L 101.110337 167.729534 
L 101.450775 130.646074 
L 101.791247 221.674139 
L 102.131684 245.426115 
L 102.472156 233.00331 
L 102.812621 249.570774 
L 103.153058 171.951883 
L 103.49353 180.483923 
L 103.833968 203.437911 
L 104.174439 186.475169 
L 104.514877 200.232571 
L 104.855349 200.628453 
L 105.195787 297.076007 
L 105.536224 289.645458 
L 105.876696 370.152754 
L 106.217134 250.181407 
L 106.898043 365.390716 
L 107.238515 279.426552 
L 107.578953 240.099705 
L 108.259862 296.069566 
L 108.6003 296.309613 
L 108.940772 326.589209 
L 109.281209 307.696969 
L 109.621647 245.033568 
L 109.962119 220.041424 
L 110.302557 148.521573 
L 110.643028 189.543158 
L 110.983466 204.924262 
L 111.323938 320.721722 
L 111.664375 260.734254 
L 112.004813 228.788458 
L 112.345285 270.608765 
L 112.685723 200.227697 
L 113.026194 227.180051 
L 113.366632 203.491422 
L 113.70707 193.784426 
L 114.047542 221.425326 
L 114.387979 300.076437 
L 114.728451 296.985839 
L 115.068889 247.148592 
L 115.40936 277.612494 
L 115.749798 237.870118 
L 116.090236 233.055314 
L 116.430708 267.021115 
L 116.771145 236.407231 
L 117.111617 267.352993 
L 117.452055 214.497151 
L 117.792493 276.025192 
L 118.132964 257.756577 
L 118.473402 216.681095 
L 118.813874 279.13313 
L 119.154311 237.490471 
L 119.494783 295.200759 
L 120.175659 242.505572 
L 121.19704 371.324363 
L 121.537478 286.702367 
L 122.218387 362.70315 
L 122.558825 302.238208 
L 122.899296 283.391005 
L 123.580206 329.111977 
L 123.920644 350.417777 
L 124.261081 339.753645 
L 124.601553 342.484139 
L 124.941991 305.745623 
L 125.282462 330.966116 
L 125.6229 320.464018 
L 125.963372 223.646889 
L 126.644247 384.963613 
L 126.984719 328.722392 
L 127.325157 352.832701 
L 127.665629 348.546912 
L 128.006066 334.124949 
L 128.686976 218.977531 
L 129.027414 292.759361 
L 129.367885 218.470612 
L 129.708323 258.478459 
L 130.048795 344.525539 
L 130.389232 295.785897 
L 130.72967 326.459217 
L 131.070142 326.504023 
L 131.41058 332.307426 
L 131.751051 395.727381 
L 132.091489 324.776775 
L 132.431961 281.106397 
L 132.772398 298.149263 
L 133.112836 329.474953 
L 133.453308 255.448908 
L 133.793746 266.771969 
L 134.134217 377.435004 
L 134.474655 377.435004 
L 134.815093 319.98133 
L 135.155565 391.105244 
L 135.496002 342.424027 
L 135.836474 408.907238 
L 136.176912 353.333123 
L 136.517383 271.914237 
L 136.857792 276.292122 
L 137.19823 269.157192 
L 137.538701 290.87474 
L 137.879139 240.953623 
L 138.219611 274.827153 
L 138.560048 325.224007 
L 138.90052 273.955667 
L 139.240958 306.287043 
L 139.581396 243.609421 
L 139.921867 235.692519 
L 140.262305 290.21596 
L 140.602777 257.196181 
L 140.943214 246.573102 
L 141.283652 158.51431 
L 141.624124 226.55253 
L 141.964562 236.495701 
L 142.305033 230.896901 
L 142.645471 184.126481 
L 142.985943 200.479943 
L 143.326381 230.182198 
L 143.666818 216.351194 
L 144.00729 208.041221 
L 144.347728 236.812218 
L 144.688199 204.730293 
L 145.369109 97.935226 
L 146.390456 222.54781 
L 146.730894 190.995908 
L 147.411803 270.187133 
L 147.752241 213.67516 
L 148.092713 250.640717 
L 148.43315 262.374688 
L 148.773622 307.452294 
L 149.11406 285.498965 
L 149.454532 295.36572 
L 149.794969 246.492053 
L 150.135407 289.065309 
L 150.816317 230.106948 
L 151.497226 357.93321 
L 151.837664 333.049784 
L 152.178135 337.726277 
L 152.518573 337.795697 
L 152.859045 372.901999 
L 153.199483 286.756179 
L 153.539954 340.311679 
L 153.880392 316.893908 
L 154.22083 347.899202 
L 154.561301 348.47946 
L 154.901739 358.885297 
L 155.242211 353.575758 
L 155.582649 355.414741 
L 155.92312 359.256771 
L 156.603996 286.054145 
L 156.944468 242.7246 
L 157.284905 308.589564 
L 157.625377 298.253659 
L 157.965815 329.444511 
L 158.306253 338.484821 
L 158.646724 248.502385 
L 158.987162 326.566237 
L 159.327634 274.803325 
L 160.008543 306.175113 
L 160.348981 249.124895 
L 160.689419 324.313956 
L 161.370328 181.80124 
L 161.7108 296.946018 
L 162.051237 307.997327 
L 162.732147 165.901767 
L 163.072585 184.127856 
L 163.413056 123.700326 
L 163.753494 223.280863 
L 164.093966 227.094041 
L 164.434404 207.566816 
L 164.774841 234.107998 
L 165.115313 143.497848 
L 165.455751 121.19507 
L 165.796222 135.777252 
L 166.13666 115.943002 
L 166.477098 152.387754 
L 166.81757 167.246757 
L 167.158007 145.293742 
L 167.498479 130.569154 
L 167.838917 206.670091 
L 168.179389 209.439492 
L 168.519826 154.306423 
L 168.860264 256.490602 
L 169.200736 232.942516 
L 169.541174 253.441834 
L 169.881645 132.456517 
L 170.222083 156.154017 
L 170.562511 196.470767 
L 170.902983 202.594999 
L 171.24342 225.395341 
L 171.583892 288.306851 
L 171.92433 313.326722 
L 172.605239 247.586534 
L 172.945677 258.364121 
L 173.286149 288.087353 
L 173.626586 248.762549 
L 173.967058 255.017682 
L 174.307496 275.282741 
L 174.647934 275.282741 
L 174.988405 320.83631 
L 175.328843 219.027744 
L 175.669315 232.146815 
L 176.009752 253.632964 
L 176.350224 240.083867 
L 176.690662 332.436557 
L 177.0311 300.416742 
L 177.371571 334.16107 
L 177.712009 320.505005 
L 178.052481 282.587 
L 178.392919 300.175625 
L 178.73339 269.062508 
L 179.073828 261.901291 
L 179.414266 258.63101 
L 179.754737 261.560966 
L 180.095175 296.097459 
L 180.435647 359.016452 
L 180.776085 318.146804 
L 181.116522 245.093788 
L 181.456994 205.280329 
L 181.797432 204.668732 
L 182.137903 267.905238 
L 182.478341 207.225671 
L 182.818813 213.64236 
L 183.159251 291.598548 
L 183.499688 232.5504 
L 183.84016 219.730663 
L 184.180598 222.441465 
L 184.52107 258.066144 
L 184.861507 217.859654 
L 185.201945 288.687308 
L 185.542417 247.318078 
L 185.882855 254.409055 
L 186.223326 271.604306 
L 186.563764 236.438849 
L 186.904236 222.445484 
L 187.244673 220.125344 
L 187.585111 251.117642 
L 187.925583 219.693493 
L 188.266021 252.682608 
L 188.94693 295.99402 
L 189.287368 255.495647 
L 189.62784 261.327379 
L 189.968277 248.691529 
L 190.308749 205.157511 
L 190.649187 200.053085 
L 190.989658 261.662211 
L 191.330096 238.238043 
L 191.670534 256.658158 
L 192.011006 264.702729 
L 192.351443 200.154801 
L 192.691915 229.529877 
L 193.032353 299.195359 
L 193.372791 296.64775 
L 193.713262 329.917901 
L 194.0537 239.670737 
L 194.394172 253.186743 
L 194.734609 259.416262 
L 195.075081 257.844915 
L 195.415519 296.527328 
L 195.755957 273.613968 
L 196.096428 238.270655 
L 196.436866 227.435018 
L 196.777338 337.304385 
L 197.117776 303.499194 
L 198.139123 239.705729 
L 198.479594 247.131159 
L 198.820032 196.079732 
L 199.160504 241.128392 
L 199.500942 241.256923 
L 199.841379 207.723964 
L 200.181851 269.805089 
L 200.522289 233.969795 
L 200.86276 238.294634 
L 201.203198 230.726231 
L 201.543636 183.995233 
L 202.224545 140.827096 
L 202.565017 200.192371 
L 202.905455 180.892156 
L 203.245927 216.851362 
L 203.586364 198.230145 
L 203.926802 251.231219 
L 204.267274 225.214408 
L 204.607749 167.931764 
L 204.948221 189.584734 
L 205.288659 203.648159 
L 205.629131 201.310243 
L 206.310006 144.699359 
L 206.650478 190.528576 
L 206.990916 220.209893 
L 207.331387 213.133424 
L 207.671825 183.345433 
L 208.012263 222.945782 
L 208.352734 283.156355 
L 208.693172 266.846596 
L 209.033644 180.942122 
L 209.714519 259.061163 
L 210.054991 348.380448 
L 210.7359 188.54927 
L 211.076338 188.005828 
L 211.41681 258.437926 
L 211.757248 270.853177 
L 212.097685 301.639313 
L 212.438157 313.77981 
L 212.778595 260.180448 
L 213.119067 229.695368 
L 213.459504 239.341951 
L 214.140414 290.471935 
L 214.480852 234.50977 
L 214.821323 234.50977 
L 215.161761 252.161558 
L 215.502233 282.153461 
L 215.84267 281.96112 
L 216.183108 253.997405 
L 216.52358 257.165127 
L 216.864018 309.984936 
L 217.204489 289.197612 
L 217.544927 389.474725 
L 217.885365 364.345519 
L 218.225836 301.000692 
L 218.566274 270.138031 
L 218.906746 257.587055 
L 219.247184 283.970995 
L 219.587655 277.350473 
L 219.928093 266.77339 
L 220.268531 244.66442 
L 220.609003 308.351778 
L 220.94944 281.816417 
L 221.289912 276.752935 
L 221.63035 289.342537 
L 221.970788 196.083279 
L 222.311259 232.498577 
L 222.651697 198.802148 
L 222.992169 239.817476 
L 223.332606 129.043762 
L 224.013516 301.635569 
L 225.034863 231.54017 
L 225.375335 238.567686 
L 225.715773 279.22928 
L 226.05621 262.847032 
L 226.396682 256.111011 
L 226.73712 251.633323 
L 227.077591 202.506777 
L 227.418029 264.033896 
L 227.758501 230.809703 
L 228.098939 182.08759 
L 228.439376 264.183459 
L 228.779848 250.584295 
L 229.120286 268.196515 
L 229.460757 210.546275 
L 229.801195 204.059818 
L 230.482105 294.150171 
L 230.822542 243.023101 
L 231.163014 254.258275 
L 231.503452 280.066331 
L 231.84389 291.068397 
L 232.184361 284.926583 
L 232.524799 236.83599 
L 232.865271 282.731495 
L 233.205709 346.111333 
L 233.886618 286.605788 
L 234.227056 349.074545 
L 234.567527 294.389403 
L 234.907965 270.066565 
L 235.248437 301.175266 
L 235.588875 288.213685 
L 235.929312 264.398406 
L 236.269784 279.466596 
L 236.610222 279.568768 
L 236.950693 256.481115 
L 237.631603 303.413579 
L 237.972041 269.089582 
L 238.312463 263.012021 
L 238.652935 195.628755 
L 238.993372 175.305984 
L 239.333844 202.554979 
L 239.674282 183.257602 
L 240.01472 178.875293 
L 240.355191 232.282924 
L 240.695629 217.963811 
L 241.376538 211.741577 
L 241.71701 172.054448 
L 242.057448 100.688009 
L 242.738357 260.215743 
L 243.078795 204.596857 
L 243.419267 245.931269 
L 243.759704 162.786908 
L 244.100142 156.903133 
L 244.440614 114.806049 
L 244.781052 211.722947 
L 245.121523 201.767137 
L 245.461961 145.043909 
L 245.802399 216.158531 
L 246.142871 209.227846 
L 246.483308 236.985608 
L 246.82378 204.894154 
L 247.164218 151.817606 
L 247.504689 255.576101 
L 247.845127 190.95547 
L 248.185565 226.119233 
L 248.526037 204.203126 
L 248.866474 168.208693 
L 249.206946 230.96708 
L 249.547384 192.726677 
L 249.887822 209.025984 
L 250.228293 201.209452 
L 250.568731 218.275249 
L 250.909203 220.557256 
L 251.24964 216.707177 
L 251.590112 197.206917 
L 251.93055 238.483018 
L 252.270988 214.937364 
L 252.611459 176.62503 
L 252.951897 290.611185 
L 253.292369 328.287901 
L 253.632807 307.022587 
L 253.973244 304.143024 
L 254.313716 260.976189 
L 254.654154 246.41454 
L 254.994625 246.41454 
L 255.335063 292.155756 
L 255.675501 288.228133 
L 256.015973 240.79886 
L 256.35641 274.397185 
L 256.696882 324.071323 
L 257.03732 247.631271 
L 257.377791 264.05929 
L 257.718229 194.917727 
L 258.058667 213.113038 
L 258.399139 304.447976 
L 258.739576 328.601773 
L 259.420486 238.500029 
L 259.760924 272.214352 
L 260.101395 246.29923 
L 260.441833 204.424588 
L 261.463214 234.709229 
L 261.803652 150.716814 
L 262.14409 124.153365 
L 262.484561 195.662345 
L 262.824999 145.910067 
L 263.165471 191.137 
L 263.505909 274.562953 
L 263.846346 250.205302 
L 264.186818 181.838653 
L 264.527256 194.229575 
L 264.867727 184.270721 
L 265.208165 238.088956 
L 265.548603 218.178684 
L 265.889075 217.21201 
L 266.229512 254.25159 
L 266.569984 177.314778 
L 266.910422 145.81616 
L 267.250894 187.716011 
L 267.591331 206.934197 
L 267.931769 186.283999 
L 268.272241 189.035726 
L 268.612679 246.750833 
L 268.95315 231.068804 
L 269.293588 248.09701 
L 269.634026 156.037816 
L 269.974497 208.50417 
L 270.314935 142.632672 
L 270.655407 213.81656 
L 270.995845 128.937913 
L 271.336282 152.123322 
L 271.676754 223.349985 
L 272.017192 155.940997 
L 272.357662 139.000294 
L 272.6981 194.952707 
L 273.038572 122.903307 
L 273.379009 204.136835 
L 273.719447 127.483495 
L 274.059919 148.546542 
L 274.400357 219.010986 
L 274.740828 115.914494 
L 275.081266 165.294605 
L 275.421704 151.250646 
L 275.762175 164.461351 
L 276.102613 148.545656 
L 276.443085 219.119512 
L 276.783523 239.705469 
L 277.12396 288.149479 
L 277.464432 242.986781 
L 277.80487 367.479037 
L 278.145342 252.285632 
L 278.485779 292.485775 
L 278.826251 358.50423 
L 279.166689 361.716447 
L 279.507127 264.252901 
L 279.847598 249.833447 
L 280.188036 272.853902 
L 280.528508 224.88849 
L 280.868945 130.573422 
L 281.549855 262.977338 
L 281.890293 172.306975 
L 282.230764 215.588061 
L 282.571202 242.445096 
L 282.911674 201.026409 
L 283.252111 202.988142 
L 283.592549 228.539231 
L 283.933021 215.452632 
L 284.273459 215.18788 
L 284.61393 298.421382 
L 284.954368 223.424186 
L 285.294806 221.191239 
L 285.635278 204.029235 
L 285.975715 195.160369 
L 286.316187 264.242271 
L 286.656625 228.613323 
L 287.337534 304.98782 
L 288.018444 172.432573 
L 288.358881 190.064546 
L 288.699353 264.955577 
L 289.039791 274.450404 
L 289.380229 288.429852 
L 289.7207 320.622485 
L 290.061138 310.003018 
L 290.40161 206.836202 
L 290.742047 281.735504 
L 291.082485 217.287281 
L 291.422957 187.24164 
L 291.763395 197.270959 
L 292.103866 218.705998 
L 292.444304 212.690532 
L 293.125214 223.368296 
L 293.465651 236.435527 
L 293.806123 213.199313 
L 294.146561 244.982619 
L 294.486999 210.776072 
L 294.82747 221.470439 
L 295.167908 221.470439 
L 295.50838 204.925824 
L 295.848817 302.610339 
L 296.189289 258.371983 
L 296.529727 191.385768 
L 296.870165 189.244615 
L 297.210636 282.427708 
L 297.551074 256.408023 
L 297.891546 241.346218 
L 298.231983 268.021678 
L 298.572421 232.383342 
L 298.912893 344.885438 
L 299.253331 266.653531 
L 299.593802 315.465093 
L 300.274678 261.774846 
L 300.61515 293.494897 
L 300.955587 231.310737 
L 301.296059 230.012112 
L 301.636497 182.184601 
L 301.976968 171.8127 
L 302.317406 220.014087 
L 302.657844 226.47812 
L 302.998316 266.701763 
L 303.338753 229.174856 
L 303.679225 227.51751 
L 304.019663 234.582085 
L 304.360101 235.347813 
L 304.700572 326.285892 
L 305.04101 315.852176 
L 305.381482 171.364895 
L 305.72192 250.017912 
L 306.062362 217.289193 
L 306.402833 216.156493 
L 306.743271 294.904269 
L 307.424181 187.877437 
L 307.764652 268.450478 
L 308.10509 241.432416 
L 308.445528 204.25166 
L 308.785999 293.858758 
L 309.126437 174.006443 
L 309.466909 216.575066 
L 309.807347 207.008413 
L 310.147784 175.488044 
L 310.488256 248.758705 
L 310.828694 210.761241 
L 311.169165 233.929822 
L 311.509603 215.457589 
L 311.850041 287.751867 
L 312.190513 220.201963 
L 312.53095 245.871351 
L 312.871422 185.913765 
L 313.21186 267.490119 
L 313.552298 295.659162 
L 313.892769 258.526299 
L 314.233207 245.201563 
L 314.914117 186.111162 
L 315.254588 182.931629 
L 315.595026 249.741908 
L 315.935464 234.387877 
L 316.275935 232.909489 
L 316.616373 335.940595 
L 316.956845 332.526469 
L 317.297283 184.443699 
L 317.63772 182.080305 
L 317.978192 170.004092 
L 318.31863 225.150035 
L 318.659101 240.363281 
L 318.999539 271.650309 
L 319.339977 269.600809 
L 319.680449 199.003904 
L 320.020886 195.581356 
L 320.361358 200.147836 
L 320.701796 198.016797 
L 321.382705 230.413584 
L 321.723143 254.867042 
L 322.063615 269.93703 
L 322.404053 235.358013 
L 322.744524 187.423749 
L 323.084962 215.791426 
L 323.4254 225.745637 
L 323.765871 229.234219 
L 324.106309 268.915636 
L 324.787219 210.810511 
L 325.127656 288.497226 
L 325.468128 232.867504 
L 325.808566 199.929944 
L 326.149038 218.82811 
L 326.489475 264.174142 
L 326.829913 269.184031 
L 327.170385 226.444485 
L 327.510823 243.290769 
L 327.851294 178.334821 
L 328.191732 175.906233 
L 328.532204 209.069234 
L 329.893989 275.078992 
L 330.23446 230.842961 
L 330.574898 276.93797 
L 330.915336 251.55324 
L 331.255807 281.117328 
L 331.596245 299.942685 
L 331.936717 272.709389 
L 332.277155 316.502887 
L 332.617592 284.655716 
L 332.958064 330.429715 
L 333.638974 291.51543 
L 333.979411 287.096762 
L 334.319849 212.06911 
L 334.660321 301.729863 
L 335.000759 301.729863 
L 335.34123 245.608093 
L 335.681668 221.57035 
L 336.022106 279.520295 
L 336.362577 248.922447 
L 336.703015 263.355492 
L 337.043487 197.51735 
L 337.383925 200.902967 
L 337.724396 198.379452 
L 338.064834 202.000245 
L 338.405272 232.239691 
L 339.086181 327.494997 
L 339.426653 227.03229 
L 339.767091 332.874643 
L 340.10753 254.191275 
L 340.448001 283.051525 
L 340.788439 236.019344 
L 341.128911 275.097747 
L 341.469349 274.735934 
L 341.809786 289.568744 
L 342.150258 201.53648 
L 342.490696 236.792252 
L 342.831168 205.499383 
L 343.171605 211.954213 
L 343.512043 178.836821 
L 343.852515 196.036522 
L 344.192953 127.576596 
L 344.533424 122.28247 
L 344.873862 201.988341 
L 345.2143 150.072413 
L 345.554771 266.808665 
L 345.895209 241.862583 
L 346.235681 160.315862 
L 346.576119 238.512473 
L 346.91659 240.30665 
L 347.257028 244.755483 
L 347.597466 218.524136 
L 347.937937 210.673289 
L 348.278375 292.456332 
L 348.618847 248.781669 
L 348.959285 183.756579 
L 349.299722 257.315985 
L 349.980632 307.155374 
L 350.321104 278.957892 
L 350.661541 264.005227 
L 351.001979 374.993453 
L 351.342451 292.379275 
L 351.682889 305.962653 
L 352.02336 296.065079 
L 352.363798 262.896648 
L 352.704236 202.666806 
L 353.044707 264.180827 
L 353.385145 235.590663 
L 353.725617 262.776861 
L 354.066055 259.806371 
L 354.406492 201.099031 
L 354.746964 259.573611 
L 355.087402 203.771383 
L 355.427873 235.504585 
L 355.768311 246.365504 
L 356.108783 239.356412 
L 356.449221 295.315935 
L 356.789658 165.831365 
L 357.13013 262.31752 
L 357.470568 286.734298 
L 358.151477 201.268367 
L 358.491915 228.620378 
L 358.832387 217.053141 
L 359.513296 311.528441 
L 359.853734 300.084756 
L 360.194172 271.99119 
L 360.534643 292.624 
L 360.875081 252.688115 
L 361.215553 249.207707 
L 361.555991 298.780981 
L 361.896428 287.389914 
L 362.2369 324.374625 
L 362.577338 334.496182 
L 362.91781 330.953424 
L 363.258247 325.164131 
L 363.598685 323.605567 
L 363.939157 331.168947 
L 364.279595 251.765039 
L 364.620066 300.338874 
L 364.960504 316.45494 
L 365.300942 305.217271 
L 365.641413 322.384041 
L 365.981851 269.011715 
L 366.322323 264.336565 
L 366.662761 351.953083 
L 367.003232 262.262449 
L 367.34367 308.236944 
L 367.684108 255.851746 
L 368.024579 313.943466 
L 368.365017 260.719547 
L 368.705489 338.182807 
L 369.045927 311.606921 
L 369.386364 233.811573 
L 369.726836 229.129752 
L 370.067274 213.962676 
L 370.748183 246.20536 
L 371.088621 286.765783 
L 371.429093 258.139212 
L 371.769531 174.662062 
L 372.110002 233.439797 
L 372.45044 263.655679 
L 372.790878 209.686619 
L 373.131349 261.374685 
L 373.471787 213.606788 
L 373.812259 265.092556 
L 374.152695 228.003989 
L 374.493133 239.490876 
L 374.833605 158.600994 
L 375.174042 158.600994 
L 375.514514 244.34821 
L 375.854952 238.811917 
L 376.19539 252.714126 
L 376.535861 281.634984 
L 376.876299 194.457256 
L 377.216771 233.200755 
L 377.557209 220.061913 
L 377.897646 261.570801 
L 378.238118 281.193386 
L 378.578556 260.009554 
L 378.919027 276.306134 
L 379.259465 255.801982 
L 379.599903 296.308965 
L 379.940375 293.138882 
L 380.280812 303.994025 
L 380.621284 292.25964 
L 380.961722 262.779999 
L 381.302193 159.455294 
L 381.642631 224.502495 
L 381.983069 264.91894 
L 382.323541 247.836702 
L 382.663978 267.993195 
L 383.00445 241.336475 
L 383.344888 264.351823 
L 383.685326 224.500777 
L 384.025797 266.711965 
L 384.366235 251.382605 
L 384.706707 286.675037 
L 385.047145 246.896347 
L 385.387582 250.473727 
L 385.728054 228.004004 
L 386.068492 215.400799 
L 386.408963 241.231221 
L 386.749401 185.284148 
L 387.089839 205.139689 
L 387.430311 250.398013 
L 387.770748 194.239873 
L 388.11122 176.39755 
L 388.451658 202.189294 
L 388.792096 212.483408 
L 389.132567 214.625353 
L 389.473005 197.3555 
L 389.813477 260.113918 
L 390.153914 282.771738 
L 390.494352 218.31248 
L 390.834824 256.154549 
L 391.175262 162.00606 
L 391.515733 141.655982 
L 391.856171 183.840731 
L 392.196609 161.425057 
L 392.537081 166.362005 
L 392.877518 250.168547 
L 393.21799 251.157772 
L 393.558428 250.512803 
L 393.898866 249.591863 
L 394.239337 269.410459 
L 394.579775 295.922047 
L 394.920247 236.267078 
L 395.260684 268.959048 
L 395.601122 170.931751 
L 395.941594 246.700489 
L 396.282032 265.604635 
L 396.622503 318.023981 
L 396.962941 146.93602 
L 397.303413 235.530317 
L 397.64385 207.09117 
L 397.984288 270.904595 
L 398.32476 234.141571 
L 398.665198 176.469496 
L 399.005669 239.342789 
L 399.346107 179.774763 
L 399.686545 218.274307 
L 400.027017 287.326486 
L 400.367454 318.855711 
L 400.707926 301.914369 
L 401.729273 190.828726 
L 402.069711 234.644659 
L 402.410183 305.523295 
L 402.75062 243.581065 
L 403.091058 218.337378 
L 403.43153 245.420896 
L 403.771968 251.663272 
L 404.112439 235.977521 
L 404.452877 266.072187 
L 404.793315 255.142061 
L 405.133787 251.75709 
L 405.474224 127.94062 
L 405.814696 216.285603 
L 406.155134 218.997664 
L 406.495572 208.318197 
L 406.836043 222.647433 
L 407.176481 228.556376 
L 407.516953 245.474736 
L 407.857386 236.639813 
L 408.197824 247.772195 
L 408.538295 302.898416 
L 408.878733 241.767556 
L 409.219205 256.504394 
L 409.559643 326.202879 
L 409.90008 276.585157 
L 410.240552 282.085574 
L 410.58099 308.530286 
L 410.921461 278.797673 
L 411.261899 276.997215 
L 411.602337 272.74145 
L 411.942809 254.787442 
L 412.283246 277.415526 
L 412.623718 270.60649 
L 412.964156 272.560367 
L 413.304594 285.478002 
L 413.645065 194.012069 
L 413.985503 199.071004 
L 414.325975 307.171839 
L 414.666413 307.171839 
L 415.00685 321.694675 
L 415.347322 321.694675 
L 415.68776 243.694421 
L 416.028231 236.298643 
L 416.368669 292.134329 
L 416.709107 384.267607 
L 417.049579 319.794392 
L 417.390016 320.998048 
L 417.730488 186.977366 
L 418.070926 103.38756 
L 418.411364 111.505587 
L 418.751835 173.779031 
L 419.092273 189.072861 
L 419.432745 185.445498 
L 419.773182 218.90078 
L 420.11362 180.439004 
L 420.454092 213.130746 
L 420.79453 259.33507 
L 421.135001 194.31363 
L 421.475439 227.255557 
L 421.815877 161.39921 
L 422.156349 191.412248 
L 422.837258 323.493326 
L 423.177696 196.624514 
L 423.518134 213.016394 
L 423.858605 215.919168 
L 424.199043 230.556615 
L 424.539515 291.204007 
L 424.879952 258.188912 
L 425.22039 195.987559 
L 425.560862 200.053296 
L 425.9013 227.566597 
L 426.241771 235.081142 
L 426.582209 214.056752 
L 426.922647 271.035757 
L 427.263119 250.832545 
L 427.603556 221.855083 
L 427.944028 207.22214 
L 428.284466 179.492068 
L 428.624904 222.189021 
L 428.965375 158.392372 
L 429.305813 250.971332 
L 429.646285 156.520715 
L 429.986722 245.400489 
L 430.32716 246.924785 
L 430.667632 235.942719 
L 431.00807 275.699996 
L 431.348541 226.585603 
L 431.688979 210.636583 
L 432.029417 292.008992 
L 432.369888 293.839691 
L 433.050798 224.39509 
L 433.391236 238.314718 
L 434.072145 214.616845 
L 434.753055 174.209355 
L 435.093492 238.824291 
L 435.43393 246.836368 
L 435.774402 274.315035 
L 436.11484 282.230661 
L 436.455311 223.617684 
L 436.795749 282.718139 
L 437.136187 257.007302 
L 437.476658 213.203834 
L 437.817096 192.30979 
L 438.157568 273.074605 
L 438.498006 290.221542 
L 438.838443 379.882318 
L 439.519353 276.555307 
L 439.859824 270.950426 
L 440.200262 274.062626 
L 440.881172 190.236155 
L 441.221609 257.172423 
L 441.562081 221.674603 
L 441.902519 266.130963 
L 442.242957 259.601463 
L 442.583428 316.242724 
L 443.264338 265.102421 
L 443.604776 202.157491 
L 443.945213 287.64822 
L 444.285685 242.555177 
L 444.626123 298.351005 
L 444.966594 284.239898 
L 445.307032 302.389364 
L 445.64747 276.307746 
L 445.987942 259.134384 
L 446.328379 285.733815 
L 446.668851 223.602283 
L 447.009289 277.840943 
L 447.349727 212.950741 
L 447.690198 228.299289 
L 448.030636 192.457465 
L 448.371108 318.981918 
L 448.711545 281.337079 
L 449.051983 344.536117 
L 449.392455 319.417369 
L 449.732893 283.186326 
L 450.073364 294.723304 
L 450.413802 310.870341 
L 450.75424 288.17153 
L 451.094712 291.418766 
L 451.775621 233.484668 
L 452.116059 311.088396 
L 452.456497 353.988588 
L 452.796968 315.855046 
L 453.137406 340.319763 
L 453.477878 302.894055 
L 453.818315 244.413641 
L 454.158753 227.479973 
L 454.499225 247.437064 
L 454.839663 209.810982 
L 455.180134 209.810982 
L 455.520572 203.415452 
L 455.86101 193.055784 
L 456.201481 158.958976 
L 456.541919 254.349569 
L 456.882391 248.944817 
L 457.222829 272.240624 
L 457.563266 283.529949 
L 457.903738 308.399032 
L 458.584648 282.700564 
L 458.925085 251.755089 
L 459.265523 240.733875 
L 459.605995 337.765595 
L 459.946433 314.833649 
L 460.286904 271.982511 
L 460.627342 257.531686 
L 460.96778 256.945376 
L 461.308251 261.798515 
L 461.648689 193.791642 
L 461.989161 252.344711 
L 462.329599 255.472405 
L 462.670036 336.763172 
L 463.010508 242.359792 
L 463.350946 307.350582 
L 463.691384 243.397087 
L 464.031855 213.640423 
L 464.372293 327.603975 
L 464.712765 248.266258 
L 465.053202 298.216105 
L 465.393674 303.68614 
L 465.734112 244.504581 
L 466.07455 224.330771 
L 466.415021 272.210637 
L 466.755459 256.76167 
L 467.095897 226.818573 
L 467.436369 220.194361 
L 467.776806 344.060154 
L 468.117278 289.67757 
L 468.457716 281.719871 
L 468.798154 358.071406 
L 469.138625 364.814924 
L 469.479063 276.462187 
L 469.819535 318.09709 
L 470.159972 393.686741 
L 470.50041 395.654255 
L 470.840882 414.957187 
L 471.18132 304.683289 
L 471.521791 338.925444 
L 471.862229 309.812483 
L 472.202667 300.978535 
L 472.543139 344.876413 
L 472.883576 318.11609 
L 473.224048 279.094379 
L 473.564486 338.407215 
L 473.904924 316.946649 
L 474.245395 308.124581 
L 474.585833 315.778941 
L 474.926305 306.756745 
L 475.266742 313.19266 
L 475.607186 312.405546 
L 475.947658 204.918054 
L 476.628567 307.508176 
L 476.969005 207.872319 
L 477.309443 252.718417 
L 477.649914 197.116601 
L 477.990352 216.440034 
L 478.330824 264.987816 
L 478.671261 213.145541 
L 479.011699 289.7047 
L 479.352171 260.000016 
L 479.692609 255.757659 
L 480.033046 232.161863 
L 480.713956 303.674731 
L 481.054427 294.802017 
L 481.394865 267.096356 
L 482.075775 349.446003 
L 482.416212 245.987973 
L 482.756684 202.801546 
L 483.097122 208.395896 
L 483.43756 206.230051 
L 483.778031 236.920485 
L 484.118469 182.40319 
L 484.458941 229.400038 
L 484.799379 303.952259 
L 485.139816 316.248021 
L 485.480288 266.740086 
L 485.820726 310.75972 
L 486.161197 242.352534 
L 486.501635 221.982744 
L 486.842073 187.394733 
L 487.182545 185.078183 
L 487.522982 236.267038 
L 487.863454 193.400031 
L 488.203892 183.180256 
L 488.54433 270.754479 
L 488.884801 265.60642 
L 489.225239 255.218306 
L 489.565711 259.650601 
L 489.906149 164.993249 
L 490.246586 271.435919 
L 490.587058 189.213534 
L 490.927496 265.608942 
L 491.267934 223.433191 
L 491.608405 229.698598 
L 491.948843 270.910276 
L 492.289315 244.011703 
L 492.629752 203.841608 
L 492.97019 227.404878 
L 493.310662 215.185735 
L 493.6511 232.279502 
L 493.991571 172.153331 
L 494.332009 184.595141 
L 494.672447 221.986682 
L 495.012918 221.986682 
L 495.353356 175.936831 
L 495.693828 171.571314 
L 496.034266 198.756639 
L 496.374703 237.297306 
L 496.715175 220.256211 
L 497.055613 187.386371 
L 497.396085 267.232764 
L 497.736522 203.70232 
L 498.07696 251.154433 
L 498.417432 278.609986 
L 498.75787 286.105264 
L 499.438779 267.383416 
L 499.779217 221.47997 
L 500.119688 320.814515 
L 500.460126 275.581602 
L 500.800598 213.037278 
L 501.141036 248.831167 
L 501.481473 187.315909 
L 501.821945 281.069331 
L 502.162383 233.673275 
L 502.502821 247.541219 
L 502.843292 245.339208 
L 503.524202 356.927298 
L 503.864639 284.66837 
L 504.205077 339.015023 
L 504.545549 305.45672 
L 504.885987 228.729651 
L 505.226458 223.098305 
L 505.566896 140.026386 
L 505.907334 134.526122 
L 506.247806 154.308917 
L 506.588243 145.332706 
L 506.928715 211.972231 
L 507.269153 217.838988 
L 507.609591 226.271684 
L 507.950062 174.474686 
L 508.2905 251.546679 
L 508.630938 157.747074 
L 508.971409 193.724874 
L 509.311847 161.051813 
L 509.652334 260.241958 
L 509.992772 134.317946 
L 510.33321 111.137489 
L 510.673682 208.181323 
L 511.014119 228.132059 
L 511.354591 207.702543 
L 511.695029 153.422479 
L 512.035467 225.043137 
L 512.375938 162.837568 
L 512.716376 190.528658 
L 513.056848 206.884842 
L 513.397285 203.996713 
L 513.737723 186.187353 
L 514.078195 230.28084 
L 514.418633 240.424265 
L 514.759104 178.05901 
L 515.099542 184.877288 
L 515.43998 178.39935 
L 515.780452 202.137251 
L 516.120889 203.249523 
L 516.461327 251.643253 
L 516.801799 283.207396 
L 517.142237 203.241419 
L 517.482708 278.295998 
L 517.823146 235.841254 
L 518.504055 287.892602 
L 518.844493 261.396798 
L 519.184965 277.316442 
L 519.525403 153.307096 
L 519.86584 163.230439 
L 520.206312 256.732749 
L 520.887221 145.166007 
L 521.227659 107.63344 
L 521.568097 153.8183 
L 522.929916 224.295743 
L 523.270354 190.882042 
L 523.610825 191.758983 
L 523.951263 144.60451 
L 524.291701 237.293983 
L 524.632173 182.517599 
L 524.97261 104.925264 
L 525.313082 162.533655 
L 525.65352 127.139897 
L 525.993958 167.485288 
L 526.334429 244.292687 
L 526.674867 201.952947 
L 527.015339 236.032841 
L 527.355776 247.54683 
L 527.696214 299.060228 
L 528.036686 284.698102 
L 528.377124 249.061151 
L 528.717595 197.350676 
L 529.058033 173.500647 
L 529.398471 134.918654 
L 529.738943 171.536594 
L 530.07938 179.706542 
L 530.419818 117.30657 
L 530.76029 127.153456 
L 531.100728 158.807527 
L 531.441199 176.081223 
L 531.781637 180.97024 
L 532.122075 164.420946 
L 532.802984 102.869386 
L 533.143456 97.207964 
L 533.483894 26.877188 
L 533.824331 63.938824 
L 534.164803 140.207841 
L 534.505241 160.549385 
L 534.845712 223.496373 
L 535.18615 223.496373 
L 535.86706 123.991909 
L 536.207497 110.711754 
L 536.547935 117.825942 
L 536.888407 63.350271 
L 537.228845 57.828583 
L 537.569316 67.067285 
L 537.909754 173.598708 
L 538.250192 144.53824 
L 538.590664 147.201719 
L 539.271573 95.451784 
L 539.952449 211.571749 
L 540.633358 272.205092 
L 540.973796 278.819909 
L 541.314267 252.760161 
L 541.654705 250.932176 
L 541.995177 164.773082 
L 542.335615 134.004124 
L 542.676052 218.840217 
L 543.016524 257.530664 
L 543.356959 213.411196 
L 543.69743 238.030422 
L 544.037868 188.31114 
L 544.378306 220.038812 
L 544.718778 179.360614 
L 545.059215 208.095331 
L 545.399687 147.256183 
L 545.740125 135.495269 
L 546.080563 197.233061 
L 546.421034 307.974194 
L 546.761472 308.252396 
L 547.10191 240.955645 
L 547.442381 216.925819 
L 547.782819 135.516857 
L 548.123291 123.44204 
L 548.463729 105.536882 
L 548.804166 112.510833 
L 549.144638 133.628308 
L 549.485076 202.425275 
L 549.825548 239.697096 
L 550.165985 184.233168 
L 550.506423 194.868783 
L 550.846895 211.10948 
L 551.187333 176.087498 
L 551.52777 199.502925 
L 551.868242 167.405428 
L 552.20868 161.867619 
L 552.549151 184.813031 
L 552.889589 232.195542 
L 553.230027 157.9663 
L 553.570499 109.479178 
L 554.591846 275.312887 
L 554.932284 243.457865 
L 555.272755 193.215837 
L 555.613193 183.340273 
L 555.953631 242.10896 
L 556.294102 210.956427 
L 556.63454 195.836357 
L 556.975012 133.688738 
L 557.31545 190.225936 
L 557.655887 124.142868 
L 557.996359 196.777143 
L 558.336797 186.141167 
L 558.677269 148.669677 
L 559.017706 187.596198 
L 559.358144 177.423281 
L 559.698616 113.724715 
L 560.039054 152.463735 
L 560.379525 78.484813 
L 560.719963 80.533286 
L 561.060401 125.121118 
L 561.400872 216.767909 
L 561.74131 162.505746 
L 562.081748 192.968371 
L 562.42222 192.378571 
L 562.762657 169.445739 
L 563.103129 116.861784 
L 563.443567 240.713151 
L 564.124476 82.556697 
L 564.464914 153.041251 
L 564.805386 167.180017 
L 565.145824 85.712236 
L 565.486261 114.603314 
L 565.826733 106.983501 
L 566.167171 92.103002 
L 566.507609 71.527883 
L 566.84808 123.810811 
L 567.188518 202.167119 
L 567.52899 185.383379 
L 567.869427 121.362385 
L 568.209865 126.728571 
L 568.550337 55.703183 
L 568.890775 53.115058 
L 569.231246 58.362227 
L 569.571684 123.864995 
L 569.912122 93.500526 
L 570.252593 135.843406 
L 570.593031 106.81379 
L 570.933469 109.009973 
L 571.273941 124.438364 
L 571.614378 90.89874 
L 571.95485 77.422403 
L 572.635726 181.402838 
L 572.976197 105.102139 
L 573.316635 111.782672 
L 573.657107 101.769784 
L 574.337982 225.679088 
L 574.678454 151.631603 
L 575.018892 108.06137 
L 575.35933 108.06137 
L 575.699801 91.832091 
L 576.040239 206.530693 
L 576.380711 176.014936 
L 577.061586 255.405973 
L 577.402041 193.015148 
L 577.742479 197.249702 
L 578.082916 288.147123 
L 578.423388 225.867651 
L 578.763826 185.831385 
L 579.104298 174.016219 
L 579.444735 189.262154 
L 579.785173 210.100567 
L 580.125645 181.586294 
L 580.466083 224.528648 
L 580.806554 241.193427 
L 581.146992 234.882552 
L 581.48743 251.863951 
L 581.827901 249.511425 
L 582.168339 167.640783 
L 582.508777 145.312416 
L 582.849249 157.327814 
L 583.189686 127.66519 
L 583.530158 113.327253 
L 583.870596 56.020604 
L 584.551505 174.328308 
L 584.891943 140.187711 
L 585.232381 131.36762 
L 585.572852 106.055503 
L 585.91329 96.966517 
L 586.253762 161.29515 
L 586.5942 75.98979 
L 586.934637 130.999551 
L 587.275109 153.73141 
L 587.615547 157.625881 
L 587.956019 274.099499 
L 588.296456 241.804289 
L 588.977366 205.651577 
L 589.317804 191.748911 
L 589.658241 188.387908 
L 589.998713 169.097501 
L 590.339151 173.546516 
L 590.679622 143.198803 
L 591.02006 248.635781 
L 591.360498 160.647821 
L 591.70097 154.924748 
L 592.041407 183.196785 
L 592.381845 200.094388 
L 593.062755 106.481777 
L 593.403226 126.508702 
L 594.084102 207.276357 
L 594.765011 136.951352 
L 595.105483 206.407385 
L 595.445921 243.724738 
L 595.786358 218.03985 
L 596.12683 239.287964 
L 596.807706 181.916827 
L 597.148177 212.399731 
L 597.488615 182.658616 
L 597.829087 228.318596 
L 598.169525 226.915752 
L 598.509962 229.403482 
L 598.850434 222.213287 
L 599.190872 261.284323 
L 599.53131 176.354226 
L 599.871781 172.854667 
L 600.212219 212.028643 
L 600.552691 267.58637 
L 600.893128 265.361774 
L 601.233566 225.017024 
L 601.574038 218.82619 
L 601.914476 188.385379 
L 602.254913 186.34918 
L 602.595385 121.240296 
L 602.935823 177.985897 
L 603.276294 158.138835 
L 603.616732 188.75958 
L 603.95717 200.633525 
L 604.297642 202.493392 
L 604.638079 193.601833 
L 604.978551 208.181916 
L 604.978551 208.181916 
" clip-path="url(#p34406bfa50)" style="fill: none; stroke: #1f77b4; stroke-width: 2; stroke-linecap: square"/>
   </g>
   <g id="patch_3">
    <path d="M 72.342187 414.957187 
L 72.342187 26.877188 
" style="fill: none; stroke: #808080; stroke-width: 2; stroke-linejoin: miter; stroke-linecap: square"/>
   </g>
   <g id="patch_4">
    <path d="M 72.342188 414.957187 
L 630.342187 414.957187 
" style="fill: none; stroke: #808080; stroke-width: 2; stroke-linejoin: miter; stroke-linecap: square"/>
   </g>
   <g id="text_19">
    <!-- Vemund-Tyholt_restart-vinkel -->
    <g style="fill: #808080" transform="translate(221.414531 20.877187) scale(0.18 -0.18)">
     <defs>
      <path id="DejaVuSans-56" d="M 1831 0 
L 50 4666 
L 709 4666 
L 2188 738 
L 3669 4666 
L 4325 4666 
L 2547 0 
L 1831 0 
z
" transform="scale(0.015625)"/>
      <path id="DejaVuSans-75" d="M 544 1381 
L 544 3500 
L 1119 3500 
L 1119 1403 
Q 1119 906 1312 657 
Q 1506 409 1894 409 
Q 2359 409 2629 706 
Q 2900 1003 2900 1516 
L 2900 3500 
L 3475 3500 
L 3475 0 
L 2900 0 
L 2900 538 
Q 2691 219 2414 64 
Q 2138 -91 1772 -91 
Q 1169 -91 856 284 
Q 544 659 544 1381 
z
M 1991 3584 
L 1991 3584 
z
" transform="scale(0.015625)"/>
      <path id="DejaVuSans-6e" d="M 3513 2113 
L 3513 0 
L 2938 0 
L 2938 2094 
Q 2938 2591 2744 2837 
Q 2550 3084 2163 3084 
Q 1697 3084 1428 2787 
Q 1159 2491 1159 1978 
L 1159 0 
L 581 0 
L 581 3500 
L 1159 3500 
L 1159 2956 
Q 1366 3272 1645 3428 
Q 1925 3584 2291 3584 
Q 2894 3584 3203 3211 
Q 3513 2838 3513 2113 
z
" transform="scale(0.015625)"/>
      <path id="DejaVuSans-2d" d="M 313 2009 
L 1997 2009 
L 1997 1497 
L 313 1497 
L 313 2009 
z
" transform="scale(0.015625)"/>
      <path id="DejaVuSans-54" d="M -19 4666 
L 3928 4666 
L 3928 4134 
L 2272 4134 
L 2272 0 
L 1638 0 
L 1638 4134 
L -19 4134 
L -19 4666 
z
" transform="scale(0.015625)"/>
      <path id="DejaVuSans-79" d="M 2059 -325 
Q 1816 -950 1584 -1140 
Q 1353 -1331 966 -1331 
L 506 -1331 
L 506 -850 
L 844 -850 
Q 1081 -850 1212 -737 
Q 1344 -625 1503 -206 
L 1606 56 
L 191 3500 
L 800 3500 
L 1894 763 
L 2988 3500 
L 3597 3500 
L 2059 -325 
z
" transform="scale(0.015625)"/>
      <path id="DejaVuSans-68" d="M 3513 2113 
L 3513 0 
L 2938 0 
L 2938 2094 
Q 2938 2591 2744 2837 
Q 2550 3084 2163 3084 
Q 1697 3084 1428 2787 
Q 1159 2491 1159 1978 
L 1159 0 
L 581 0 
L 581 4863 
L 1159 4863 
L 1159 2956 
Q 1366 3272 1645 3428 
Q 1925 3584 2291 3584 
Q 2894 3584 3203 3211 
Q 3513 2838 3513 2113 
z
" transform="scale(0.015625)"/>
      <path id="DejaVuSans-6f" d="M 1959 3097 
Q 1497 3097 1228 2736 
Q 959 2375 959 1747 
Q 959 1119 1226 758 
Q 1494 397 1959 397 
Q 2419 397 2687 759 
Q 2956 1122 2956 1747 
Q 2956 2369 2687 2733 
Q 2419 3097 1959 3097 
z
M 1959 3584 
Q 2709 3584 3137 3096 
Q 3566 2609 3566 1747 
Q 3566 888 3137 398 
Q 2709 -91 1959 -91 
Q 1206 -91 779 398 
Q 353 888 353 1747 
Q 353 2609 779 3096 
Q 1206 3584 1959 3584 
z
" transform="scale(0.015625)"/>
      <path id="DejaVuSans-6c" d="M 603 4863 
L 1178 4863 
L 1178 0 
L 603 0 
L 603 4863 
z
" transform="scale(0.015625)"/>
      <path id="DejaVuSans-5f" d="M 3263 -1063 
L 3263 -1509 
L -63 -1509 
L -63 -1063 
L 3263 -1063 
z
" transform="scale(0.015625)"/>
      <path id="DejaVuSans-72" d="M 2631 2963 
Q 2534 3019 2420 3045 
Q 2306 3072 2169 3072 
Q 1681 3072 1420 2755 
Q 1159 2438 1159 1844 
L 1159 0 
L 581 0 
L 581 3500 
L 1159 3500 
L 1159 2956 
Q 1341 3275 1631 3429 
Q 1922 3584 2338 3584 
Q 2397 3584 2469 3576 
Q 2541 3569 2628 3553 
L 2631 2963 
z
" transform="scale(0.015625)"/>
      <path id="DejaVuSans-61" d="M 2194 1759 
Q 1497 1759 1228 1600 
Q 959 1441 959 1056 
Q 959 750 1161 570 
Q 1363 391 1709 391 
Q 2188 391 2477 730 
Q 2766 1069 2766 1631 
L 2766 1759 
L 2194 1759 
z
M 3341 1997 
L 3341 0 
L 2766 0 
L 2766 531 
Q 2569 213 2275 61 
Q 1981 -91 1556 -91 
Q 1019 -91 701 211 
Q 384 513 384 1019 
Q 384 1609 779 1909 
Q 1175 2209 1959 2209 
L 2766 2209 
L 2766 2266 
Q 2766 2663 2505 2880 
Q 2244 3097 1772 3097 
Q 1472 3097 1187 3025 
Q 903 2953 641 2809 
L 641 3341 
Q 956 3463 1253 3523 
Q 1550 3584 1831 3584 
Q 2591 3584 2966 3190 
Q 3341 2797 3341 1997 
z
" transform="scale(0.015625)"/>
      <path id="DejaVuSans-76" d="M 191 3500 
L 800 3500 
L 1894 563 
L 2988 3500 
L 3597 3500 
L 2284 0 
L 1503 0 
L 191 3500 
z
" transform="scale(0.015625)"/>
      <path id="DejaVuSans-6b" d="M 581 4863 
L 1159 4863 
L 1159 1991 
L 2875 3500 
L 3609 3500 
L 1753 1863 
L 3688 0 
L 2938 0 
L 1159 1709 
L 1159 0 
L 581 0 
L 581 4863 
z
" transform="scale(0.015625)"/>
     </defs>
     <use xlink:href="#DejaVuSans-56"/>
     <use xlink:href="#DejaVuSans-65" x="60.658203"/>
     <use xlink:href="#DejaVuSans-6d" x="122.181641"/>
     <use xlink:href="#DejaVuSans-75" x="219.59375"/>
     <use xlink:href="#DejaVuSans-6e" x="282.972656"/>
     <use xlink:href="#DejaVuSans-64" x="346.351562"/>
     <use xlink:href="#DejaVuSans-2d" x="409.828125"/>
     <use xlink:href="#DejaVuSans-54" x="436.787109"/>
     <use xlink:href="#DejaVuSans-79" x="482.246094"/>
     <use xlink:href="#DejaVuSans-68" x="541.425781"/>
     <use xlink:href="#DejaVuSans-6f" x="604.804688"/>
     <use xlink:href="#DejaVuSans-6c" x="665.986328"/>
     <use xlink:href="#DejaVuSans-74" x="693.769531"/>
     <use xlink:href="#DejaVuSans-5f" x="732.978516"/>
     <use xlink:href="#DejaVuSans-72" x="782.978516"/>
     <use xlink:href="#DejaVuSans-65" x="821.841797"/>
     <use xlink:href="#DejaVuSans-73" x="883.365234"/>
     <use xlink:href="#DejaVuSans-74" x="935.464844"/>
     <use xlink:href="#DejaVuSans-61" x="974.673828"/>
     <use xlink:href="#DejaVuSans-72" x="1035.953125"/>
     <use xlink:href="#DejaVuSans-74" x="1077.066406"/>
     <use xlink:href="#DejaVuSans-2d" x="1116.275391"/>
     <use xlink:href="#DejaVuSans-76" x="1149.734375"/>
     <use xlink:href="#DejaVuSans-69" x="1208.914062"/>
     <use xlink:href="#DejaVuSans-6e" x="1236.697266"/>
     <use xlink:href="#DejaVuSans-6b" x="1300.076172"/>
     <use xlink:href="#DejaVuSans-65" x="1354.361328"/>
     <use xlink:href="#DejaVuSans-6c" x="1415.884766"/>
    </g>
   </g>
   <g id="legend_1">
    <g id="patch_5">
     <path d="M 82.842187 61.311562 
L 347.388281 61.311562 
Q 350.388281 61.311562 350.388281 58.311562 
L 350.388281 37.377187 
Q 350.388281 34.377187 347.388281 34.377187 
L 82.842187 34.377187 
Q 79.842187 34.377187 79.842187 37.377187 
L 79.842187 58.311562 
Q 79.842187 61.311562 82.842187 61.311562 
z
" style="fill: #ffffff; opacity: 0.8; stroke: #cccccc; stroke-linejoin: miter"/>
    </g>
    <g id="line2d_34">
     <path d="M 85.842187 46.524844 
L 100.842187 46.524844 
L 115.842187 46.524844 
" style="fill: none; stroke: #1f77b4; stroke-width: 2; stroke-linecap: square"/>
    </g>
    <g id="text_20">
     <!-- Vemund-Tyholt_restart-vinkel -->
     <g style="fill: #808080" transform="translate(127.842187 51.774844) scale(0.15 -0.15)">
      <use xlink:href="#DejaVuSans-56"/>
      <use xlink:href="#DejaVuSans-65" x="60.658203"/>
      <use xlink:href="#DejaVuSans-6d" x="122.181641"/>
      <use xlink:href="#DejaVuSans-75" x="219.59375"/>
      <use xlink:href="#DejaVuSans-6e" x="282.972656"/>
      <use xlink:href="#DejaVuSans-64" x="346.351562"/>
      <use xlink:href="#DejaVuSans-2d" x="409.828125"/>
      <use xlink:href="#DejaVuSans-54" x="436.787109"/>
      <use xlink:href="#DejaVuSans-79" x="482.246094"/>
      <use xlink:href="#DejaVuSans-68" x="541.425781"/>
      <use xlink:href="#DejaVuSans-6f" x="604.804688"/>
      <use xlink:href="#DejaVuSans-6c" x="665.986328"/>
      <use xlink:href="#DejaVuSans-74" x="693.769531"/>
      <use xlink:href="#DejaVuSans-5f" x="732.978516"/>
      <use xlink:href="#DejaVuSans-72" x="782.978516"/>
      <use xlink:href="#DejaVuSans-65" x="821.841797"/>
      <use xlink:href="#DejaVuSans-73" x="883.365234"/>
      <use xlink:href="#DejaVuSans-74" x="935.464844"/>
      <use xlink:href="#DejaVuSans-61" x="974.673828"/>
      <use xlink:href="#DejaVuSans-72" x="1035.953125"/>
      <use xlink:href="#DejaVuSans-74" x="1077.066406"/>
      <use xlink:href="#DejaVuSans-2d" x="1116.275391"/>
      <use xlink:href="#DejaVuSans-76" x="1149.734375"/>
      <use xlink:href="#DejaVuSans-69" x="1208.914062"/>
      <use xlink:href="#DejaVuSans-6e" x="1236.697266"/>
      <use xlink:href="#DejaVuSans-6b" x="1300.076172"/>
      <use xlink:href="#DejaVuSans-65" x="1354.361328"/>
      <use xlink:href="#DejaVuSans-6c" x="1415.884766"/>
     </g>
    </g>
   </g>
  </g>
 </g>
 <defs>
  <clipPath id="p34406bfa50">
   <rect x="72.342187" y="26.877187" width="558" height="388.08"/>
  </clipPath>
 </defs>
</svg>
