<?xml version="1.0" encoding="utf-8" standalone="no"?>
<!DOCTYPE svg PUBLIC "-//W3C//DTD SVG 1.1//EN"
  "http://www.w3.org/Graphics/SVG/1.1/DTD/svg11.dtd">
<svg xmlns:xlink="http://www.w3.org/1999/xlink" width="460.8pt" height="345.6pt" viewBox="0 0 460.8 345.6" xmlns="http://www.w3.org/2000/svg" version="1.1">
 <metadata>
  <rdf:RDF xmlns:dc="http://purl.org/dc/elements/1.1/" xmlns:cc="http://creativecommons.org/ns#" xmlns:rdf="http://www.w3.org/1999/02/22-rdf-syntax-ns#">
   <cc:Work>
    <dc:type rdf:resource="http://purl.org/dc/dcmitype/StillImage"/>
    <dc:date>2023-04-17T15:21:30.246593</dc:date>
    <dc:format>image/svg+xml</dc:format>
    <dc:creator>
     <cc:Agent>
      <dc:title>Matplotlib v3.7.1, https://matplotlib.org/</dc:title>
     </cc:Agent>
    </dc:creator>
   </cc:Work>
  </rdf:RDF>
 </metadata>
 <defs>
  <style type="text/css">*{stroke-linejoin: round; stroke-linecap: butt}</style>
 </defs>
 <g id="figure_1">
  <g id="patch_1">
   <path d="M 0 345.6 
L 460.8 345.6 
L 460.8 0 
L 0 0 
z
" style="fill: #ffffff"/>
  </g>
  <g id="axes_1">
   <g id="patch_2">
    <path d="M 57.6 307.584 
L 414.72 307.584 
L 414.72 41.472 
L 57.6 41.472 
z
" style="fill: #ffffff"/>
   </g>
   <g id="matplotlib.axis_1">
    <g id="xtick_1">
     <g id="line2d_1">
      <defs>
       <path id="m68cf17ffc5" d="M 0 0 
L 0 3.5 
" style="stroke: #000000; stroke-width: 0.8"/>
      </defs>
      <g>
       <use xlink:href="#m68cf17ffc5" x="74.173415" y="307.584" style="stroke: #000000; stroke-width: 0.8"/>
      </g>
     </g>
     <g id="text_1">
      <!-- 20 -->
      <g transform="translate(67.810915 322.182437) scale(0.1 -0.1)">
       <defs>
        <path id="DejaVuSans-32" d="M 1228 531 
L 3431 531 
L 3431 0 
L 469 0 
L 469 531 
Q 828 903 1448 1529 
Q 2069 2156 2228 2338 
Q 2531 2678 2651 2914 
Q 2772 3150 2772 3378 
Q 2772 3750 2511 3984 
Q 2250 4219 1831 4219 
Q 1534 4219 1204 4116 
Q 875 4013 500 3803 
L 500 4441 
Q 881 4594 1212 4672 
Q 1544 4750 1819 4750 
Q 2544 4750 2975 4387 
Q 3406 4025 3406 3419 
Q 3406 3131 3298 2873 
Q 3191 2616 2906 2266 
Q 2828 2175 2409 1742 
Q 1991 1309 1228 531 
z
" transform="scale(0.015625)"/>
        <path id="DejaVuSans-30" d="M 2034 4250 
Q 1547 4250 1301 3770 
Q 1056 3291 1056 2328 
Q 1056 1369 1301 889 
Q 1547 409 2034 409 
Q 2525 409 2770 889 
Q 3016 1369 3016 2328 
Q 3016 3291 2770 3770 
Q 2525 4250 2034 4250 
z
M 2034 4750 
Q 2819 4750 3233 4129 
Q 3647 3509 3647 2328 
Q 3647 1150 3233 529 
Q 2819 -91 2034 -91 
Q 1250 -91 836 529 
Q 422 1150 422 2328 
Q 422 3509 836 4129 
Q 1250 4750 2034 4750 
z
" transform="scale(0.015625)"/>
       </defs>
       <use xlink:href="#DejaVuSans-32"/>
       <use xlink:href="#DejaVuSans-30" x="63.623047"/>
      </g>
     </g>
    </g>
    <g id="xtick_2">
     <g id="line2d_2">
      <g>
       <use xlink:href="#m68cf17ffc5" x="117.486337" y="307.584" style="stroke: #000000; stroke-width: 0.8"/>
      </g>
     </g>
     <g id="text_2">
      <!-- 22 -->
      <g transform="translate(111.123837 322.182437) scale(0.1 -0.1)">
       <use xlink:href="#DejaVuSans-32"/>
       <use xlink:href="#DejaVuSans-32" x="63.623047"/>
      </g>
     </g>
    </g>
    <g id="xtick_3">
     <g id="line2d_3">
      <g>
       <use xlink:href="#m68cf17ffc5" x="160.799259" y="307.584" style="stroke: #000000; stroke-width: 0.8"/>
      </g>
     </g>
     <g id="text_3">
      <!-- 24 -->
      <g transform="translate(154.436759 322.182437) scale(0.1 -0.1)">
       <defs>
        <path id="DejaVuSans-34" d="M 2419 4116 
L 825 1625 
L 2419 1625 
L 2419 4116 
z
M 2253 4666 
L 3047 4666 
L 3047 1625 
L 3713 1625 
L 3713 1100 
L 3047 1100 
L 3047 0 
L 2419 0 
L 2419 1100 
L 313 1100 
L 313 1709 
L 2253 4666 
z
" transform="scale(0.015625)"/>
       </defs>
       <use xlink:href="#DejaVuSans-32"/>
       <use xlink:href="#DejaVuSans-34" x="63.623047"/>
      </g>
     </g>
    </g>
    <g id="xtick_4">
     <g id="line2d_4">
      <g>
       <use xlink:href="#m68cf17ffc5" x="204.11218" y="307.584" style="stroke: #000000; stroke-width: 0.8"/>
      </g>
     </g>
     <g id="text_4">
      <!-- 26 -->
      <g transform="translate(197.74968 322.182437) scale(0.1 -0.1)">
       <defs>
        <path id="DejaVuSans-36" d="M 2113 2584 
Q 1688 2584 1439 2293 
Q 1191 2003 1191 1497 
Q 1191 994 1439 701 
Q 1688 409 2113 409 
Q 2538 409 2786 701 
Q 3034 994 3034 1497 
Q 3034 2003 2786 2293 
Q 2538 2584 2113 2584 
z
M 3366 4563 
L 3366 3988 
Q 3128 4100 2886 4159 
Q 2644 4219 2406 4219 
Q 1781 4219 1451 3797 
Q 1122 3375 1075 2522 
Q 1259 2794 1537 2939 
Q 1816 3084 2150 3084 
Q 2853 3084 3261 2657 
Q 3669 2231 3669 1497 
Q 3669 778 3244 343 
Q 2819 -91 2113 -91 
Q 1303 -91 875 529 
Q 447 1150 447 2328 
Q 447 3434 972 4092 
Q 1497 4750 2381 4750 
Q 2619 4750 2861 4703 
Q 3103 4656 3366 4563 
z
" transform="scale(0.015625)"/>
       </defs>
       <use xlink:href="#DejaVuSans-32"/>
       <use xlink:href="#DejaVuSans-36" x="63.623047"/>
      </g>
     </g>
    </g>
    <g id="xtick_5">
     <g id="line2d_5">
      <g>
       <use xlink:href="#m68cf17ffc5" x="247.425102" y="307.584" style="stroke: #000000; stroke-width: 0.8"/>
      </g>
     </g>
     <g id="text_5">
      <!-- 28 -->
      <g transform="translate(241.062602 322.182437) scale(0.1 -0.1)">
       <defs>
        <path id="DejaVuSans-38" d="M 2034 2216 
Q 1584 2216 1326 1975 
Q 1069 1734 1069 1313 
Q 1069 891 1326 650 
Q 1584 409 2034 409 
Q 2484 409 2743 651 
Q 3003 894 3003 1313 
Q 3003 1734 2745 1975 
Q 2488 2216 2034 2216 
z
M 1403 2484 
Q 997 2584 770 2862 
Q 544 3141 544 3541 
Q 544 4100 942 4425 
Q 1341 4750 2034 4750 
Q 2731 4750 3128 4425 
Q 3525 4100 3525 3541 
Q 3525 3141 3298 2862 
Q 3072 2584 2669 2484 
Q 3125 2378 3379 2068 
Q 3634 1759 3634 1313 
Q 3634 634 3220 271 
Q 2806 -91 2034 -91 
Q 1263 -91 848 271 
Q 434 634 434 1313 
Q 434 1759 690 2068 
Q 947 2378 1403 2484 
z
M 1172 3481 
Q 1172 3119 1398 2916 
Q 1625 2713 2034 2713 
Q 2441 2713 2670 2916 
Q 2900 3119 2900 3481 
Q 2900 3844 2670 4047 
Q 2441 4250 2034 4250 
Q 1625 4250 1398 4047 
Q 1172 3844 1172 3481 
z
" transform="scale(0.015625)"/>
       </defs>
       <use xlink:href="#DejaVuSans-32"/>
       <use xlink:href="#DejaVuSans-38" x="63.623047"/>
      </g>
     </g>
    </g>
    <g id="xtick_6">
     <g id="line2d_6">
      <g>
       <use xlink:href="#m68cf17ffc5" x="290.738024" y="307.584" style="stroke: #000000; stroke-width: 0.8"/>
      </g>
     </g>
     <g id="text_6">
      <!-- 30 -->
      <g transform="translate(284.375524 322.182437) scale(0.1 -0.1)">
       <defs>
        <path id="DejaVuSans-33" d="M 2597 2516 
Q 3050 2419 3304 2112 
Q 3559 1806 3559 1356 
Q 3559 666 3084 287 
Q 2609 -91 1734 -91 
Q 1441 -91 1130 -33 
Q 819 25 488 141 
L 488 750 
Q 750 597 1062 519 
Q 1375 441 1716 441 
Q 2309 441 2620 675 
Q 2931 909 2931 1356 
Q 2931 1769 2642 2001 
Q 2353 2234 1838 2234 
L 1294 2234 
L 1294 2753 
L 1863 2753 
Q 2328 2753 2575 2939 
Q 2822 3125 2822 3475 
Q 2822 3834 2567 4026 
Q 2313 4219 1838 4219 
Q 1578 4219 1281 4162 
Q 984 4106 628 3988 
L 628 4550 
Q 988 4650 1302 4700 
Q 1616 4750 1894 4750 
Q 2613 4750 3031 4423 
Q 3450 4097 3450 3541 
Q 3450 3153 3228 2886 
Q 3006 2619 2597 2516 
z
" transform="scale(0.015625)"/>
       </defs>
       <use xlink:href="#DejaVuSans-33"/>
       <use xlink:href="#DejaVuSans-30" x="63.623047"/>
      </g>
     </g>
    </g>
    <g id="xtick_7">
     <g id="line2d_7">
      <g>
       <use xlink:href="#m68cf17ffc5" x="334.050946" y="307.584" style="stroke: #000000; stroke-width: 0.8"/>
      </g>
     </g>
     <g id="text_7">
      <!-- 32 -->
      <g transform="translate(327.688446 322.182437) scale(0.1 -0.1)">
       <use xlink:href="#DejaVuSans-33"/>
       <use xlink:href="#DejaVuSans-32" x="63.623047"/>
      </g>
     </g>
    </g>
    <g id="xtick_8">
     <g id="line2d_8">
      <g>
       <use xlink:href="#m68cf17ffc5" x="377.363868" y="307.584" style="stroke: #000000; stroke-width: 0.8"/>
      </g>
     </g>
     <g id="text_8">
      <!-- 34 -->
      <g transform="translate(371.001368 322.182437) scale(0.1 -0.1)">
       <use xlink:href="#DejaVuSans-33"/>
       <use xlink:href="#DejaVuSans-34" x="63.623047"/>
      </g>
     </g>
    </g>
    <g id="text_9">
     <!-- time [s] -->
     <g transform="translate(216.768594 335.860562) scale(0.1 -0.1)">
      <defs>
       <path id="DejaVuSans-74" d="M 1172 4494 
L 1172 3500 
L 2356 3500 
L 2356 3053 
L 1172 3053 
L 1172 1153 
Q 1172 725 1289 603 
Q 1406 481 1766 481 
L 2356 481 
L 2356 0 
L 1766 0 
Q 1100 0 847 248 
Q 594 497 594 1153 
L 594 3053 
L 172 3053 
L 172 3500 
L 594 3500 
L 594 4494 
L 1172 4494 
z
" transform="scale(0.015625)"/>
       <path id="DejaVuSans-69" d="M 603 3500 
L 1178 3500 
L 1178 0 
L 603 0 
L 603 3500 
z
M 603 4863 
L 1178 4863 
L 1178 4134 
L 603 4134 
L 603 4863 
z
" transform="scale(0.015625)"/>
       <path id="DejaVuSans-6d" d="M 3328 2828 
Q 3544 3216 3844 3400 
Q 4144 3584 4550 3584 
Q 5097 3584 5394 3201 
Q 5691 2819 5691 2113 
L 5691 0 
L 5113 0 
L 5113 2094 
Q 5113 2597 4934 2840 
Q 4756 3084 4391 3084 
Q 3944 3084 3684 2787 
Q 3425 2491 3425 1978 
L 3425 0 
L 2847 0 
L 2847 2094 
Q 2847 2600 2669 2842 
Q 2491 3084 2119 3084 
Q 1678 3084 1418 2786 
Q 1159 2488 1159 1978 
L 1159 0 
L 581 0 
L 581 3500 
L 1159 3500 
L 1159 2956 
Q 1356 3278 1631 3431 
Q 1906 3584 2284 3584 
Q 2666 3584 2933 3390 
Q 3200 3197 3328 2828 
z
" transform="scale(0.015625)"/>
       <path id="DejaVuSans-65" d="M 3597 1894 
L 3597 1613 
L 953 1613 
Q 991 1019 1311 708 
Q 1631 397 2203 397 
Q 2534 397 2845 478 
Q 3156 559 3463 722 
L 3463 178 
Q 3153 47 2828 -22 
Q 2503 -91 2169 -91 
Q 1331 -91 842 396 
Q 353 884 353 1716 
Q 353 2575 817 3079 
Q 1281 3584 2069 3584 
Q 2775 3584 3186 3129 
Q 3597 2675 3597 1894 
z
M 3022 2063 
Q 3016 2534 2758 2815 
Q 2500 3097 2075 3097 
Q 1594 3097 1305 2825 
Q 1016 2553 972 2059 
L 3022 2063 
z
" transform="scale(0.015625)"/>
       <path id="DejaVuSans-20" transform="scale(0.015625)"/>
       <path id="DejaVuSans-5b" d="M 550 4863 
L 1875 4863 
L 1875 4416 
L 1125 4416 
L 1125 -397 
L 1875 -397 
L 1875 -844 
L 550 -844 
L 550 4863 
z
" transform="scale(0.015625)"/>
       <path id="DejaVuSans-73" d="M 2834 3397 
L 2834 2853 
Q 2591 2978 2328 3040 
Q 2066 3103 1784 3103 
Q 1356 3103 1142 2972 
Q 928 2841 928 2578 
Q 928 2378 1081 2264 
Q 1234 2150 1697 2047 
L 1894 2003 
Q 2506 1872 2764 1633 
Q 3022 1394 3022 966 
Q 3022 478 2636 193 
Q 2250 -91 1575 -91 
Q 1294 -91 989 -36 
Q 684 19 347 128 
L 347 722 
Q 666 556 975 473 
Q 1284 391 1588 391 
Q 1994 391 2212 530 
Q 2431 669 2431 922 
Q 2431 1156 2273 1281 
Q 2116 1406 1581 1522 
L 1381 1569 
Q 847 1681 609 1914 
Q 372 2147 372 2553 
Q 372 3047 722 3315 
Q 1072 3584 1716 3584 
Q 2034 3584 2315 3537 
Q 2597 3491 2834 3397 
z
" transform="scale(0.015625)"/>
       <path id="DejaVuSans-5d" d="M 1947 4863 
L 1947 -844 
L 622 -844 
L 622 -397 
L 1369 -397 
L 1369 4416 
L 622 4416 
L 622 4863 
L 1947 4863 
z
" transform="scale(0.015625)"/>
      </defs>
      <use xlink:href="#DejaVuSans-74"/>
      <use xlink:href="#DejaVuSans-69" x="39.208984"/>
      <use xlink:href="#DejaVuSans-6d" x="66.992188"/>
      <use xlink:href="#DejaVuSans-65" x="164.404297"/>
      <use xlink:href="#DejaVuSans-20" x="225.927734"/>
      <use xlink:href="#DejaVuSans-5b" x="257.714844"/>
      <use xlink:href="#DejaVuSans-73" x="296.728516"/>
      <use xlink:href="#DejaVuSans-5d" x="348.828125"/>
     </g>
    </g>
   </g>
   <g id="matplotlib.axis_2">
    <g id="ytick_1">
     <g id="line2d_9">
      <defs>
       <path id="m39d5978c0c" d="M 0 0 
L -3.5 0 
" style="stroke: #000000; stroke-width: 0.8"/>
      </defs>
      <g>
       <use xlink:href="#m39d5978c0c" x="57.6" y="288.876398" style="stroke: #000000; stroke-width: 0.8"/>
      </g>
     </g>
     <g id="text_10">
      <!-- 267.8 -->
      <g transform="translate(21.971875 292.675617) scale(0.1 -0.1)">
       <defs>
        <path id="DejaVuSans-37" d="M 525 4666 
L 3525 4666 
L 3525 4397 
L 1831 0 
L 1172 0 
L 2766 4134 
L 525 4134 
L 525 4666 
z
" transform="scale(0.015625)"/>
        <path id="DejaVuSans-2e" d="M 684 794 
L 1344 794 
L 1344 0 
L 684 0 
L 684 794 
z
" transform="scale(0.015625)"/>
       </defs>
       <use xlink:href="#DejaVuSans-32"/>
       <use xlink:href="#DejaVuSans-36" x="63.623047"/>
       <use xlink:href="#DejaVuSans-37" x="127.246094"/>
       <use xlink:href="#DejaVuSans-2e" x="190.869141"/>
       <use xlink:href="#DejaVuSans-38" x="222.65625"/>
      </g>
     </g>
    </g>
    <g id="ytick_2">
     <g id="line2d_10">
      <g>
       <use xlink:href="#m39d5978c0c" x="57.6" y="257.520203" style="stroke: #000000; stroke-width: 0.8"/>
      </g>
     </g>
     <g id="text_11">
      <!-- 268.0 -->
      <g transform="translate(21.971875 261.319421) scale(0.1 -0.1)">
       <use xlink:href="#DejaVuSans-32"/>
       <use xlink:href="#DejaVuSans-36" x="63.623047"/>
       <use xlink:href="#DejaVuSans-38" x="127.246094"/>
       <use xlink:href="#DejaVuSans-2e" x="190.869141"/>
       <use xlink:href="#DejaVuSans-30" x="222.65625"/>
      </g>
     </g>
    </g>
    <g id="ytick_3">
     <g id="line2d_11">
      <g>
       <use xlink:href="#m39d5978c0c" x="57.6" y="226.164007" style="stroke: #000000; stroke-width: 0.8"/>
      </g>
     </g>
     <g id="text_12">
      <!-- 268.2 -->
      <g transform="translate(21.971875 229.963226) scale(0.1 -0.1)">
       <use xlink:href="#DejaVuSans-32"/>
       <use xlink:href="#DejaVuSans-36" x="63.623047"/>
       <use xlink:href="#DejaVuSans-38" x="127.246094"/>
       <use xlink:href="#DejaVuSans-2e" x="190.869141"/>
       <use xlink:href="#DejaVuSans-32" x="222.65625"/>
      </g>
     </g>
    </g>
    <g id="ytick_4">
     <g id="line2d_12">
      <g>
       <use xlink:href="#m39d5978c0c" x="57.6" y="194.807812" style="stroke: #000000; stroke-width: 0.8"/>
      </g>
     </g>
     <g id="text_13">
      <!-- 268.4 -->
      <g transform="translate(21.971875 198.607031) scale(0.1 -0.1)">
       <use xlink:href="#DejaVuSans-32"/>
       <use xlink:href="#DejaVuSans-36" x="63.623047"/>
       <use xlink:href="#DejaVuSans-38" x="127.246094"/>
       <use xlink:href="#DejaVuSans-2e" x="190.869141"/>
       <use xlink:href="#DejaVuSans-34" x="222.65625"/>
      </g>
     </g>
    </g>
    <g id="ytick_5">
     <g id="line2d_13">
      <g>
       <use xlink:href="#m39d5978c0c" x="57.6" y="163.451616" style="stroke: #000000; stroke-width: 0.8"/>
      </g>
     </g>
     <g id="text_14">
      <!-- 268.6 -->
      <g transform="translate(21.971875 167.250835) scale(0.1 -0.1)">
       <use xlink:href="#DejaVuSans-32"/>
       <use xlink:href="#DejaVuSans-36" x="63.623047"/>
       <use xlink:href="#DejaVuSans-38" x="127.246094"/>
       <use xlink:href="#DejaVuSans-2e" x="190.869141"/>
       <use xlink:href="#DejaVuSans-36" x="222.65625"/>
      </g>
     </g>
    </g>
    <g id="ytick_6">
     <g id="line2d_14">
      <g>
       <use xlink:href="#m39d5978c0c" x="57.6" y="132.095421" style="stroke: #000000; stroke-width: 0.8"/>
      </g>
     </g>
     <g id="text_15">
      <!-- 268.8 -->
      <g transform="translate(21.971875 135.89464) scale(0.1 -0.1)">
       <use xlink:href="#DejaVuSans-32"/>
       <use xlink:href="#DejaVuSans-36" x="63.623047"/>
       <use xlink:href="#DejaVuSans-38" x="127.246094"/>
       <use xlink:href="#DejaVuSans-2e" x="190.869141"/>
       <use xlink:href="#DejaVuSans-38" x="222.65625"/>
      </g>
     </g>
    </g>
    <g id="ytick_7">
     <g id="line2d_15">
      <g>
       <use xlink:href="#m39d5978c0c" x="57.6" y="100.739226" style="stroke: #000000; stroke-width: 0.8"/>
      </g>
     </g>
     <g id="text_16">
      <!-- 269.0 -->
      <g transform="translate(21.971875 104.538444) scale(0.1 -0.1)">
       <defs>
        <path id="DejaVuSans-39" d="M 703 97 
L 703 672 
Q 941 559 1184 500 
Q 1428 441 1663 441 
Q 2288 441 2617 861 
Q 2947 1281 2994 2138 
Q 2813 1869 2534 1725 
Q 2256 1581 1919 1581 
Q 1219 1581 811 2004 
Q 403 2428 403 3163 
Q 403 3881 828 4315 
Q 1253 4750 1959 4750 
Q 2769 4750 3195 4129 
Q 3622 3509 3622 2328 
Q 3622 1225 3098 567 
Q 2575 -91 1691 -91 
Q 1453 -91 1209 -44 
Q 966 3 703 97 
z
M 1959 2075 
Q 2384 2075 2632 2365 
Q 2881 2656 2881 3163 
Q 2881 3666 2632 3958 
Q 2384 4250 1959 4250 
Q 1534 4250 1286 3958 
Q 1038 3666 1038 3163 
Q 1038 2656 1286 2365 
Q 1534 2075 1959 2075 
z
" transform="scale(0.015625)"/>
       </defs>
       <use xlink:href="#DejaVuSans-32"/>
       <use xlink:href="#DejaVuSans-36" x="63.623047"/>
       <use xlink:href="#DejaVuSans-39" x="127.246094"/>
       <use xlink:href="#DejaVuSans-2e" x="190.869141"/>
       <use xlink:href="#DejaVuSans-30" x="222.65625"/>
      </g>
     </g>
    </g>
    <g id="ytick_8">
     <g id="line2d_16">
      <g>
       <use xlink:href="#m39d5978c0c" x="57.6" y="69.38303" style="stroke: #000000; stroke-width: 0.8"/>
      </g>
     </g>
     <g id="text_17">
      <!-- 269.2 -->
      <g transform="translate(21.971875 73.182249) scale(0.1 -0.1)">
       <use xlink:href="#DejaVuSans-32"/>
       <use xlink:href="#DejaVuSans-36" x="63.623047"/>
       <use xlink:href="#DejaVuSans-39" x="127.246094"/>
       <use xlink:href="#DejaVuSans-2e" x="190.869141"/>
       <use xlink:href="#DejaVuSans-32" x="222.65625"/>
      </g>
     </g>
    </g>
    <g id="text_18">
     <!-- $\theta$ [deg] -->
     <g transform="translate(15.871875 192.528) rotate(-90) scale(0.1 -0.1)">
      <defs>
       <path id="DejaVuSans-Oblique-3b8" d="M 2913 2219 
L 925 2219 
Q 791 1284 928 888 
Q 1100 400 1566 400 
Q 2034 400 2391 891 
Q 2703 1322 2913 2219 
z
M 3009 2750 
Q 3094 3638 2984 3950 
Q 2813 4444 2353 4444 
Q 1875 4444 1525 3956 
Q 1250 3563 1034 2750 
L 3009 2750 
z
M 2444 4913 
Q 3194 4913 3494 4250 
Q 3794 3591 3566 2422 
Q 3341 1256 2781 594 
Q 2225 -72 1475 -72 
Q 722 -72 425 594 
Q 128 1256 353 2422 
Q 581 3591 1134 4250 
Q 1691 4913 2444 4913 
z
" transform="scale(0.015625)"/>
       <path id="DejaVuSans-64" d="M 2906 2969 
L 2906 4863 
L 3481 4863 
L 3481 0 
L 2906 0 
L 2906 525 
Q 2725 213 2448 61 
Q 2172 -91 1784 -91 
Q 1150 -91 751 415 
Q 353 922 353 1747 
Q 353 2572 751 3078 
Q 1150 3584 1784 3584 
Q 2172 3584 2448 3432 
Q 2725 3281 2906 2969 
z
M 947 1747 
Q 947 1113 1208 752 
Q 1469 391 1925 391 
Q 2381 391 2643 752 
Q 2906 1113 2906 1747 
Q 2906 2381 2643 2742 
Q 2381 3103 1925 3103 
Q 1469 3103 1208 2742 
Q 947 2381 947 1747 
z
" transform="scale(0.015625)"/>
       <path id="DejaVuSans-67" d="M 2906 1791 
Q 2906 2416 2648 2759 
Q 2391 3103 1925 3103 
Q 1463 3103 1205 2759 
Q 947 2416 947 1791 
Q 947 1169 1205 825 
Q 1463 481 1925 481 
Q 2391 481 2648 825 
Q 2906 1169 2906 1791 
z
M 3481 434 
Q 3481 -459 3084 -895 
Q 2688 -1331 1869 -1331 
Q 1566 -1331 1297 -1286 
Q 1028 -1241 775 -1147 
L 775 -588 
Q 1028 -725 1275 -790 
Q 1522 -856 1778 -856 
Q 2344 -856 2625 -561 
Q 2906 -266 2906 331 
L 2906 616 
Q 2728 306 2450 153 
Q 2172 0 1784 0 
Q 1141 0 747 490 
Q 353 981 353 1791 
Q 353 2603 747 3093 
Q 1141 3584 1784 3584 
Q 2172 3584 2450 3431 
Q 2728 3278 2906 2969 
L 2906 3500 
L 3481 3500 
L 3481 434 
z
" transform="scale(0.015625)"/>
      </defs>
      <use xlink:href="#DejaVuSans-Oblique-3b8" transform="translate(0 0.234375)"/>
      <use xlink:href="#DejaVuSans-20" transform="translate(61.181641 0.234375)"/>
      <use xlink:href="#DejaVuSans-5b" transform="translate(92.96875 0.234375)"/>
      <use xlink:href="#DejaVuSans-64" transform="translate(131.982422 0.234375)"/>
      <use xlink:href="#DejaVuSans-65" transform="translate(195.458984 0.234375)"/>
      <use xlink:href="#DejaVuSans-67" transform="translate(256.982422 0.234375)"/>
      <use xlink:href="#DejaVuSans-5d" transform="translate(320.458984 0.234375)"/>
     </g>
    </g>
   </g>
   <g id="line2d_17">
    <path d="M 73.832727 168.347583 
L 74.050461 145.633943 
L 74.268217 169.267883 
L 74.485951 150.964207 
L 74.703707 182.296119 
L 74.921441 190.239688 
L 75.139175 132.932834 
L 75.356931 158.373707 
L 75.574665 113.993652 
L 76.010154 179.667913 
L 76.22791 188.051179 
L 76.663378 118.255098 
L 76.881134 174.999866 
L 77.098868 189.806292 
L 77.316624 182.062206 
L 77.534375 192.389976 
L 77.752109 144.004174 
L 77.969865 149.322848 
L 78.187599 163.631828 
L 78.405355 153.057651 
L 78.623089 161.633694 
L 78.840844 161.880477 
L 79.058578 222.003628 
L 79.276312 217.371597 
L 79.494068 267.557963 
L 79.711802 192.77063 
L 80.147292 264.589421 
L 80.365048 211.00137 
L 80.582782 186.485933 
L 81.018271 221.376236 
L 81.236006 221.525876 
L 81.453761 240.401468 
L 81.671495 228.624487 
L 81.889229 189.561588 
L 82.106985 173.98207 
L 82.324719 129.398266 
L 82.542475 154.970164 
L 82.760209 164.558384 
L 82.977965 236.743814 
L 83.413433 179.434766 
L 83.631188 205.504568 
L 83.848923 161.630655 
L 84.066678 178.432123 
L 84.284412 163.665185 
L 84.502146 157.614071 
L 84.719902 174.844762 
L 84.937636 223.874026 
L 85.155392 221.947419 
L 85.373126 190.880045 
L 85.590882 209.870529 
L 85.808616 185.096061 
L 86.02635 182.094625 
L 86.244105 203.268111 
L 86.461839 184.184131 
L 86.679595 203.474996 
L 86.897329 170.525899 
L 87.115063 208.881042 
L 87.332819 197.492814 
L 87.550553 171.887319 
L 87.768309 210.818458 
L 87.986043 184.859398 
L 88.203799 220.834642 
L 88.639267 187.985694 
L 89.292512 268.288317 
L 89.510246 215.536943 
L 89.945736 262.914055 
L 90.16347 225.221623 
L 90.381226 213.472718 
L 91.03445 255.25564 
L 91.252184 248.60787 
L 91.469939 250.309996 
L 91.687673 227.408064 
L 91.905429 243.12993 
L 92.123163 236.583167 
L 92.340919 176.229632 
L 92.776387 276.790707 
L 92.994143 241.731245 
L 93.211877 256.761047 
L 93.429633 254.089387 
L 93.647367 245.099072 
L 94.082856 173.318864 
L 94.30059 219.312732 
L 94.518346 173.002862 
L 94.73608 197.942819 
L 94.953836 251.582557 
L 95.17157 221.199403 
L 95.389304 240.320434 
L 95.60706 240.348365 
L 95.824794 243.96607 
L 96.04255 283.500588 
L 96.478039 212.048546 
L 96.695773 222.672671 
L 96.913507 242.200373 
L 97.131263 196.054268 
L 97.348997 203.112799 
L 97.566753 272.097548 
L 97.784487 272.097548 
L 98.002221 236.28227 
L 98.219977 280.619256 
L 98.437711 250.272523 
L 98.655466 291.716603 
L 99.090956 206.318369 
L 99.308671 209.04744 
L 99.526406 204.599691 
L 99.744161 218.137903 
L 99.961895 187.018246 
L 100.397385 239.550433 
L 100.615141 207.590948 
L 100.832875 227.745572 
L 101.050609 188.673808 
L 101.268365 183.738596 
L 101.486099 217.727235 
L 101.703854 197.143476 
L 101.921588 190.521297 
L 102.139323 135.627505 
L 102.357078 178.040941 
L 102.574812 184.239281 
L 102.792568 180.74912 
L 103.010302 151.593533 
L 103.228058 161.787899 
L 103.445792 180.303591 
L 103.881282 166.501424 
L 104.099016 184.43659 
L 104.316771 164.437469 
L 104.752261 97.86392 
L 105.405485 175.544492 
L 105.623219 155.875774 
L 106.058709 205.241732 
L 106.276443 170.013489 
L 106.494199 193.056953 
L 106.711933 200.371637 
L 106.929688 228.471963 
L 107.147422 214.78677 
L 107.365178 220.937475 
L 107.582912 190.470773 
L 107.800646 217.009946 
L 108.236136 180.256682 
L 108.671626 259.940585 
L 108.88936 244.42884 
L 109.107116 247.344056 
L 109.32485 247.38733 
L 109.542605 269.271779 
L 109.760339 215.570488 
L 109.978095 248.955735 
L 110.195829 234.357644 
L 110.413563 253.68562 
L 110.631319 254.047339 
L 110.849053 260.534094 
L 111.066809 257.224252 
L 111.284543 258.370631 
L 111.502298 260.765662 
L 111.937767 215.132857 
L 112.155522 188.122231 
L 112.373256 229.18091 
L 112.591012 222.737749 
L 112.808746 242.181397 
L 113.02648 247.816914 
L 113.244236 191.723967 
L 113.46197 240.387148 
L 113.679726 208.119358 
L 114.115215 227.675797 
L 114.33295 192.112025 
L 114.550684 238.983129 
L 114.986173 150.144033 
L 115.203929 221.922596 
L 115.421663 228.811723 
L 115.857153 140.232673 
L 116.074887 151.594391 
L 116.292643 113.925281 
L 116.510377 176.00146 
L 116.728132 178.378506 
L 116.945866 166.20569 
L 117.163601 182.750843 
L 117.381356 126.266593 
L 117.59909 112.363563 
L 117.816846 121.453755 
L 118.03458 109.089547 
L 118.252314 131.808353 
L 118.47007 141.071108 
L 118.90556 118.207148 
L 119.123294 165.646693 
L 119.341049 167.373073 
L 119.558783 133.004407 
L 119.776518 196.703635 
L 119.994273 182.024309 
L 120.212007 194.803104 
L 120.429763 119.383686 
L 120.647497 134.156153 
L 120.865225 159.288673 
L 121.082981 163.106376 
L 121.300715 177.319576 
L 121.51847 216.537141 
L 121.736204 232.133944 
L 122.171694 191.153047 
L 122.389428 197.871543 
L 122.607184 216.400311 
L 122.824918 191.886148 
L 123.042674 195.785451 
L 123.260408 208.418215 
L 123.478142 208.418215 
L 123.695898 236.815245 
L 123.913632 173.350165 
L 124.131387 181.528287 
L 124.349121 194.92225 
L 124.566877 186.47606 
L 124.784611 244.046568 
L 125.002345 224.086164 
L 125.220101 245.121589 
L 125.437835 236.608717 
L 125.655591 212.971519 
L 125.873325 223.935857 
L 126.09108 204.540668 
L 126.308815 200.076532 
L 126.526549 198.037915 
L 126.744304 199.864381 
L 126.962038 221.393624 
L 127.179794 260.615853 
L 127.397528 235.13867 
L 127.833018 164.780348 
L 128.050752 164.399093 
L 128.268508 203.819252 
L 128.486242 165.993029 
L 128.703997 169.993043 
L 128.921731 218.589108 
L 129.139466 181.779873 
L 129.357221 173.788349 
L 129.574955 175.478199 
L 129.792711 197.685791 
L 130.010445 172.622005 
L 130.228179 216.774309 
L 130.445935 190.985698 
L 130.663669 195.406047 
L 130.881425 206.125165 
L 131.099159 184.203841 
L 131.316914 175.480704 
L 131.534648 174.034383 
L 131.752383 193.354257 
L 131.970138 173.765177 
L 132.405628 207.538006 
L 132.623362 221.329142 
L 132.841096 196.083403 
L 133.058852 199.718769 
L 133.276586 191.841875 
L 133.494342 164.703786 
L 133.712076 161.521806 
L 133.929831 199.927495 
L 134.147565 185.325416 
L 134.3653 196.808086 
L 134.583055 201.822883 
L 134.800789 161.585214 
L 135.018545 179.896949 
L 135.236279 223.324782 
L 135.454013 221.736662 
L 135.671769 242.476497 
L 135.889503 186.218524 
L 136.107259 194.644086 
L 136.324993 198.527423 
L 136.542748 197.547882 
L 136.760482 221.661594 
L 136.978216 207.377941 
L 137.195972 185.345746 
L 137.413706 178.591063 
L 137.631462 247.081058 
L 138.06693 212.065599 
L 138.50242 186.240338 
L 138.720176 190.869177 
L 138.93791 159.044911 
L 139.155665 187.127193 
L 139.373399 187.207316 
L 139.591133 166.303653 
L 139.808889 205.003575 
L 140.026623 182.66469 
L 140.244379 185.360694 
L 140.462113 180.642728 
L 140.897603 135.839452 
L 141.115337 124.601709 
L 141.333093 161.608634 
L 141.550827 149.577331 
L 141.768582 171.99346 
L 141.986316 160.385428 
L 142.20405 193.425058 
L 142.421806 177.206787 
L 142.639564 141.498126 
L 143.075054 163.762891 
L 143.29281 162.305489 
L 143.728278 127.015587 
L 144.163768 174.087089 
L 144.381524 169.675784 
L 144.599258 151.106647 
L 144.816992 175.792578 
L 145.034747 213.326442 
L 145.252481 203.159319 
L 145.470237 149.608479 
L 145.905705 198.306063 
L 146.123461 253.985617 
L 146.558951 154.350597 
L 146.776685 154.011828 
L 146.994441 197.917551 
L 147.212175 205.656928 
L 147.429909 224.848286 
L 147.647664 232.416388 
L 148.083154 180.000112 
L 148.300888 186.013567 
L 148.736378 217.886804 
L 148.954112 183.001298 
L 149.171868 183.001298 
L 149.389602 194.00501 
L 149.607358 212.701261 
L 149.825092 212.58136 
L 150.042826 195.149434 
L 150.260581 197.124118 
L 150.478315 230.050752 
L 150.696071 217.09242 
L 150.913805 279.602829 
L 151.131539 263.937869 
L 151.349295 224.450185 
L 151.567029 205.211123 
L 151.784785 197.387138 
L 152.002519 213.83427 
L 152.220274 209.707191 
L 152.438009 203.113685 
L 152.655743 189.331469 
L 152.873498 229.03268 
L 153.091232 212.491156 
L 153.308988 209.3347 
L 153.526722 217.182763 
L 153.744456 159.047122 
L 153.962212 181.747567 
L 154.179946 160.742001 
L 154.397702 186.309998 
L 154.615436 117.256254 
L 155.050926 224.845952 
L 155.704149 181.150119 
L 155.921905 185.530908 
L 156.139639 210.878395 
L 156.357373 200.666085 
L 156.792863 193.675721 
L 157.010619 163.05138 
L 157.228353 201.405948 
L 157.663842 150.322537 
L 157.881577 201.499182 
L 158.099332 193.021781 
L 158.317066 204.000827 
L 158.534822 168.063016 
L 158.752556 164.01951 
L 159.188046 220.17973 
L 159.40578 188.30831 
L 159.623536 195.312055 
L 159.84127 211.400194 
L 160.059004 218.258624 
L 160.276759 214.429961 
L 160.494494 184.451409 
L 160.929983 252.571104 
L 161.365473 215.476738 
L 161.583207 254.418301 
L 161.800963 220.328862 
L 162.018697 205.166573 
L 162.236453 224.55901 
L 162.454187 216.479063 
L 162.671921 201.633175 
L 162.889676 211.026333 
L 163.107411 211.090024 
L 163.325166 196.697721 
L 163.760656 225.954322 
L 163.97839 204.557544 
L 164.196114 200.768935 
L 164.41387 158.763783 
L 164.631604 146.095042 
L 164.84936 163.081428 
L 165.067094 151.051895 
L 165.284828 148.320066 
L 165.502583 181.613134 
L 165.720318 172.686934 
L 166.155807 168.808139 
L 166.373563 144.06811 
L 166.591297 99.579941 
L 167.026787 199.025801 
L 167.244521 164.354287 
L 167.462277 190.121193 
L 167.680011 138.290943 
L 167.897745 134.623135 
L 168.1155 108.380797 
L 168.333235 168.796526 
L 168.55099 162.590306 
L 168.768724 127.230372 
L 168.986458 171.561565 
L 169.204214 167.241138 
L 169.421948 184.544677 
L 169.639704 164.539616 
L 169.857438 131.452936 
L 170.075194 196.133557 
L 170.292928 155.850566 
L 170.510662 177.770833 
L 170.728417 164.108845 
L 170.946151 141.670757 
L 171.163907 180.792868 
L 171.381641 156.954695 
L 171.599375 167.115302 
L 171.817131 162.242658 
L 172.034865 172.881077 
L 172.252621 174.303627 
L 172.470355 171.903578 
L 172.688111 159.747572 
L 172.905845 185.478128 
L 173.123579 170.800318 
L 173.341334 146.917304 
L 173.559068 217.973609 
L 173.776824 241.460393 
L 173.994558 228.204093 
L 174.212292 226.409041 
L 174.430048 199.499845 
L 174.647782 190.422454 
L 174.865538 190.422454 
L 175.083272 218.936458 
L 175.301006 216.48807 
L 175.518762 186.92177 
L 175.954251 238.831876 
L 176.171985 191.180935 
L 176.389741 201.421778 
L 176.607475 158.320544 
L 176.825209 169.663075 
L 177.042965 226.599141 
L 177.260699 241.656053 
L 177.696189 185.488732 
L 177.913923 206.505453 
L 178.131679 190.350572 
L 178.349413 164.246899 
L 179.002658 183.125636 
L 179.220392 130.766728 
L 179.438126 114.207695 
L 179.655882 158.784722 
L 179.873616 127.770314 
L 180.091372 155.963727 
L 180.309106 207.969516 
L 180.52684 192.785526 
L 180.744596 150.167355 
L 180.96233 157.891566 
L 181.180085 151.68345 
L 181.397819 185.232479 
L 181.615553 172.820881 
L 181.833309 172.218279 
L 182.051043 195.307887 
L 182.268799 147.347277 
L 182.486533 127.711775 
L 182.704289 153.831163 
L 182.922023 165.811331 
L 183.139757 152.93848 
L 183.357513 154.653842 
L 183.575247 190.63209 
L 183.793002 180.856281 
L 184.010736 191.471266 
L 184.22847 134.083717 
L 184.446226 166.790015 
L 184.66396 125.727263 
L 184.881716 170.101635 
L 185.09945 117.19027 
L 185.317184 131.643512 
L 185.53494 176.044549 
L 185.752674 134.023362 
L 185.970429 123.462924 
L 186.188163 158.34235 
L 186.405918 113.428438 
L 186.623652 164.067521 
L 186.841387 116.28362 
L 187.059142 129.413831 
L 187.276876 173.339719 
L 187.494632 109.071775 
L 187.712366 139.854183 
L 187.9301 131.099507 
L 188.147856 139.334752 
L 188.36559 129.413279 
L 188.583346 173.407371 
L 188.80108 186.240176 
L 189.018814 216.439039 
L 189.236569 188.285668 
L 189.454304 265.891231 
L 189.672059 194.082355 
L 189.889793 219.142184 
L 190.107549 260.296546 
L 190.325283 262.298967 
L 190.543017 201.542471 
L 190.760773 192.553721 
L 190.978507 206.904134 
L 191.196263 177.003617 
L 191.413997 118.209808 
L 191.849486 200.747315 
L 192.06722 144.22553 
L 192.50271 187.947995 
L 192.720466 162.128553 
L 192.9382 163.351452 
L 193.155934 179.279404 
L 193.37369 171.121524 
L 193.591424 170.956484 
L 193.80918 222.842303 
L 194.026914 176.090804 
L 194.244648 174.698837 
L 194.680137 158.471801 
L 194.897893 201.535844 
L 195.115627 179.325591 
L 195.551117 226.935667 
L 195.986607 144.303825 
L 196.204341 155.295184 
L 196.422097 201.980502 
L 196.857565 216.613817 
L 197.07532 236.681951 
L 197.293054 230.062024 
L 197.51081 165.750243 
L 197.728544 212.440717 
L 197.946278 172.265201 
L 198.164034 153.535451 
L 198.381768 159.787494 
L 198.599524 173.149596 
L 198.817258 169.399695 
L 199.252748 176.055964 
L 199.470482 184.20177 
L 199.688237 169.716857 
L 199.905971 189.529828 
L 200.123705 168.206265 
L 200.341461 174.872884 
L 200.559195 174.872884 
L 200.776951 164.559358 
L 200.994685 225.453601 
L 201.212441 197.876444 
L 201.430175 156.118804 
L 201.647909 154.784059 
L 201.865665 212.872221 
L 202.301154 187.26298 
L 202.518888 203.891838 
L 202.736622 181.675732 
L 202.954378 251.806909 
L 203.172112 203.038967 
L 203.389868 233.466954 
L 203.825336 199.997709 
L 204.043092 219.771247 
L 204.260826 181.007096 
L 204.478582 180.197563 
L 204.696316 150.383011 
L 204.914071 143.917411 
L 205.131805 173.965028 
L 205.349539 177.994555 
L 205.567295 203.069034 
L 205.785029 179.675637 
L 206.002785 178.642487 
L 206.220519 183.046378 
L 206.438253 183.523715 
L 206.656009 240.212387 
L 206.873743 233.708253 
L 207.091499 143.638259 
L 207.309233 192.668711 
L 207.526969 172.266393 
L 207.744725 171.560294 
L 207.962459 220.649817 
L 208.397949 153.931792 
L 208.615705 204.159142 
L 209.051173 164.1391 
L 209.268929 219.99807 
L 209.486663 145.284939 
L 209.704418 171.821223 
L 209.922152 165.857595 
L 210.139886 146.208534 
L 210.357642 191.883751 
L 210.575376 168.19702 
L 210.793132 182.639772 
L 211.010866 171.124614 
L 211.2286 216.191177 
L 211.446356 174.082146 
L 211.66409 190.083842 
L 211.881846 152.707685 
L 212.09958 203.560477 
L 212.317314 221.1204 
L 212.535069 197.972641 
L 212.752803 189.666312 
L 213.188293 152.830737 
L 213.406049 150.848691 
L 213.623783 192.496657 
L 213.841517 182.925313 
L 214.059273 182.00372 
L 214.277007 246.230903 
L 214.494762 244.102617 
L 214.712497 151.79128 
L 214.930231 150.317995 
L 215.147986 142.789966 
L 215.36572 177.166658 
L 215.583476 186.65024 
L 215.80121 206.153842 
L 216.018944 204.876232 
L 216.2367 160.867771 
L 216.454434 158.734235 
L 216.67219 161.580872 
L 216.889924 160.252432 
L 217.325414 180.447832 
L 217.760903 205.085824 
L 218.196393 153.648973 
L 218.414127 171.33272 
L 218.631861 177.537942 
L 218.849617 179.712643 
L 219.067351 204.449111 
L 219.502841 168.227734 
L 219.720575 216.655816 
L 220.156065 161.445043 
L 220.37382 173.225718 
L 220.591554 201.493375 
L 220.809288 204.616422 
L 221.027044 177.973588 
L 221.244778 188.475168 
L 221.462534 147.983148 
L 221.680268 146.469223 
L 222.115758 177.860979 
L 222.768982 208.291203 
L 222.986737 180.715495 
L 223.204471 209.450046 
L 223.422205 193.625799 
L 223.857695 223.790648 
L 224.075451 206.814048 
L 224.293185 234.113891 
L 224.510919 214.261108 
L 224.728675 242.79555 
L 225.164164 218.537294 
L 225.381899 215.7828 
L 225.599633 169.012315 
L 225.817388 224.904733 
L 226.035122 224.904733 
L 226.252878 189.919733 
L 226.470612 174.935166 
L 226.688346 211.059807 
L 226.906102 191.985824 
L 227.123836 200.983047 
L 227.341592 159.941088 
L 227.559326 162.051603 
L 227.777081 160.478502 
L 227.994815 162.73562 
L 228.430305 207.26757 
L 228.648039 240.966115 
L 228.865795 178.340012 
L 229.083529 244.319661 
L 229.301264 195.270288 
L 229.51902 213.261093 
L 229.736754 183.942332 
L 229.95451 208.302894 
L 230.172244 208.077349 
L 230.389978 217.323775 
L 230.607733 162.44652 
L 230.825467 184.424144 
L 231.043223 164.916901 
L 231.260957 168.940692 
L 231.478691 148.296083 
L 231.696447 159.017975 
L 231.914181 116.341657 
L 232.131937 113.041423 
L 232.349671 162.7282 
L 232.567405 130.365024 
L 232.785161 203.135674 
L 233.002895 187.58487 
L 233.22065 136.750551 
L 233.438384 185.49649 
L 233.65614 186.614938 
L 233.873874 189.388236 
L 234.091608 173.036227 
L 234.309364 168.142193 
L 234.527098 219.12383 
L 234.962588 151.362946 
L 235.180322 197.21816 
L 235.615812 228.286869 
L 236.051301 201.388077 
L 236.269035 270.575542 
L 236.486791 219.075795 
L 236.704525 227.543355 
L 236.922281 221.373439 
L 237.140015 200.697015 
L 237.357749 163.151139 
L 237.575505 201.497542 
L 237.793239 183.675102 
L 238.010994 200.622342 
L 238.228729 198.770608 
L 238.446463 162.173824 
L 238.664218 198.625511 
L 238.881952 163.839706 
L 239.099708 183.621443 
L 239.317442 190.391886 
L 239.535198 186.022581 
L 239.752932 220.90644 
L 239.970666 140.188786 
L 240.188422 200.336 
L 240.406156 215.556848 
L 240.841646 162.279384 
L 241.05938 179.329989 
L 241.277135 172.119244 
L 241.712625 231.012937 
L 241.930359 223.879212 
L 242.148093 206.366339 
L 242.365849 219.228351 
L 242.583583 194.333254 
L 242.801339 192.163648 
L 243.019073 223.066469 
L 243.236807 215.965544 
L 243.454563 239.020948 
L 243.672297 245.33049 
L 243.890052 243.122018 
L 244.107786 239.513108 
L 244.32552 238.541535 
L 244.543276 243.25637 
L 244.76101 193.75783 
L 244.978766 224.037623 
L 245.1965 234.084001 
L 245.414234 227.078702 
L 245.63199 237.780064 
L 245.849724 204.509004 
L 246.067479 201.594625 
L 246.285214 256.212714 
L 246.502969 200.301669 
L 246.720703 228.961095 
L 246.938437 196.305387 
L 247.156193 232.518408 
L 247.373927 199.33986 
L 247.591683 247.628646 
L 247.809417 231.06186 
L 248.027151 182.566058 
L 248.244907 179.647521 
L 248.462641 170.19272 
L 248.898131 190.292056 
L 249.115865 215.576475 
L 249.33362 197.73134 
L 249.551354 145.693636 
L 249.986844 201.170176 
L 250.204578 167.527126 
L 250.422334 199.748258 
L 250.640068 169.970868 
L 250.857824 202.065892 
L 251.075557 178.945746 
L 251.293291 186.106403 
L 251.511047 135.681542 
L 251.728781 135.681542 
L 251.946536 189.134351 
L 252.16427 185.683156 
L 252.382005 194.349468 
L 252.59976 212.378055 
L 252.817494 158.033497 
L 253.03525 182.185289 
L 253.252984 173.994842 
L 253.470718 199.870512 
L 253.688474 212.102773 
L 253.906208 198.897267 
L 254.123964 209.056175 
L 254.341698 196.274365 
L 254.559432 221.525472 
L 254.777187 219.549316 
L 254.994921 226.316158 
L 255.212677 219.001217 
L 255.430411 200.624298 
L 255.648167 136.214092 
L 256.083635 201.957664 
L 256.301391 191.308996 
L 256.519125 203.874082 
L 256.736881 187.256907 
L 256.954615 201.604137 
L 257.172349 176.761926 
L 257.390104 203.075394 
L 257.607838 193.519429 
L 257.825594 215.519906 
L 258.043328 190.722801 
L 258.261062 192.952856 
L 258.696552 171.089212 
L 258.914308 187.191293 
L 259.132042 152.315196 
L 259.349776 164.692676 
L 259.567532 192.905658 
L 259.785266 157.897985 
L 260.003021 146.775499 
L 260.220755 162.853469 
L 260.43849 169.270579 
L 260.656245 170.605817 
L 260.873979 159.840195 
L 261.091735 198.962325 
L 261.309469 213.086681 
L 261.527203 172.904286 
L 261.744959 196.494147 
L 261.962693 137.80418 
L 262.180449 125.118418 
L 262.398183 151.415404 
L 262.615917 137.441997 
L 262.833672 140.519575 
L 263.051406 192.762614 
L 263.269162 193.379273 
L 263.70463 192.403122 
L 264.14012 221.284276 
L 264.357876 184.096763 
L 264.57561 204.476173 
L 264.793344 143.368248 
L 265.0111 190.600708 
L 265.228834 202.38511 
L 265.446589 235.062105 
L 265.664323 128.40987 
L 265.882079 183.637483 
L 266.099813 165.909184 
L 266.317547 205.688981 
L 266.535303 182.771771 
L 266.753037 146.820348 
L 266.970793 186.014089 
L 267.188527 148.880774 
L 267.406261 172.88049 
L 267.624017 215.926005 
L 267.841751 235.580586 
L 268.059506 225.019749 
L 268.71273 155.771557 
L 268.930464 183.085385 
L 269.14822 227.26947 
L 269.365954 188.656131 
L 269.583688 172.919807 
L 269.801444 189.803039 
L 270.019178 193.69439 
L 270.236934 183.91626 
L 270.454668 202.676571 
L 270.672402 195.862986 
L 270.890157 193.752874 
L 271.107891 116.568581 
L 271.325647 171.640779 
L 271.543381 173.331414 
L 271.761115 166.674084 
L 271.978871 175.606594 
L 272.196605 179.290092 
L 272.414361 189.836602 
L 272.632092 184.329117 
L 272.849826 191.268784 
L 273.067582 225.633182 
L 273.285316 187.525632 
L 273.503072 196.712233 
L 273.720806 240.160639 
L 273.93854 209.230111 
L 274.156295 212.658942 
L 274.374029 229.143957 
L 274.591785 210.609341 
L 274.809519 209.486978 
L 275.027253 206.834034 
L 275.245009 195.641925 
L 275.462743 209.747744 
L 275.680499 205.503149 
L 275.898233 206.721151 
L 276.115967 214.773703 
L 276.333723 157.755978 
L 276.551457 160.9096 
L 276.769212 228.297133 
L 276.986946 228.297133 
L 277.204681 237.35033 
L 277.422436 237.35033 
L 277.64017 188.726795 
L 277.857926 184.11644 
L 278.07566 218.923101 
L 278.293394 276.356833 
L 278.51115 236.165738 
L 278.728884 236.916069 
L 279.164374 101.262778 
L 279.382108 106.323366 
L 279.599863 145.143175 
L 279.817597 154.676991 
L 280.035353 152.415778 
L 280.253087 173.271019 
L 280.470821 149.294846 
L 280.906311 198.47681 
L 281.124067 157.943964 
L 281.341801 178.479191 
L 281.559535 137.425884 
L 281.777291 156.135311 
L 282.21278 238.471567 
L 282.430514 159.384515 
L 282.648249 169.60283 
L 282.866004 171.412352 
L 283.083738 180.536994 
L 283.301494 218.34316 
L 283.519228 197.762321 
L 283.736962 158.987452 
L 283.954718 161.521938 
L 284.172452 178.673087 
L 284.390208 183.357478 
L 284.607942 170.251365 
L 284.825676 205.770745 
L 285.478921 165.990828 
L 285.696655 148.704549 
L 285.914389 175.320831 
L 286.132145 135.551492 
L 286.349879 193.263051 
L 286.567635 134.384744 
L 286.785369 189.790318 
L 287.003103 190.740528 
L 287.220859 183.894565 
L 287.438593 208.678322 
L 287.656348 178.061557 
L 287.874082 168.119311 
L 288.091817 218.844969 
L 288.309572 219.986184 
L 288.745062 176.696043 
L 288.962796 185.373214 
L 289.61602 157.262915 
L 289.833776 145.411429 
L 290.05151 185.69087 
L 290.269244 190.685411 
L 290.486999 207.81497 
L 290.704734 212.749386 
L 290.922489 176.211426 
L 291.140223 213.053268 
L 291.357957 197.025734 
L 291.575713 169.719676 
L 291.793447 156.694817 
L 292.011203 207.041715 
L 292.228937 217.730714 
L 292.446671 273.623146 
L 292.882161 209.211503 
L 293.099916 205.717551 
L 293.31765 207.657624 
L 293.75314 155.402161 
L 293.970874 197.128666 
L 294.18863 175.000155 
L 294.406364 202.713211 
L 294.624098 198.642873 
L 294.841854 233.951711 
L 295.277344 202.072042 
L 295.495078 162.833644 
L 295.712812 216.126566 
L 295.930567 188.016617 
L 296.148302 222.798432 
L 296.366057 214.001898 
L 296.583791 225.31585 
L 297.019281 198.351707 
L 297.237015 214.93317 
L 297.454771 176.201826 
L 297.672505 210.012938 
L 297.890239 169.561903 
L 298.107995 179.12983 
L 298.325729 156.786874 
L 298.543484 235.65926 
L 298.761218 212.192348 
L 298.978953 251.589151 
L 299.414442 213.345125 
L 299.849932 230.602693 
L 300.067666 216.452785 
L 300.285422 218.477036 
L 300.720912 182.362273 
L 301.15638 257.4816 
L 301.374135 233.710041 
L 301.59187 248.960774 
L 301.809625 225.630463 
L 302.027359 189.17514 
L 302.245093 178.619087 
L 302.462849 191.059871 
L 302.680583 167.604651 
L 302.898339 167.604651 
L 303.116073 163.617827 
L 303.333807 157.159853 
L 303.551563 135.904699 
L 303.769297 195.368965 
L 303.987052 191.999769 
L 304.204787 206.521831 
L 304.422521 213.559332 
L 304.640276 229.062137 
L 305.075766 213.042313 
L 305.2935 193.751627 
L 305.511234 186.88126 
L 305.72899 247.368566 
L 305.946724 233.073327 
L 306.16448 206.360929 
L 306.382214 197.352622 
L 306.599948 196.987131 
L 306.817703 200.012464 
L 307.035438 157.618569 
L 307.253193 194.119183 
L 307.470927 196.068915 
L 307.688661 246.743678 
L 307.906417 187.894818 
L 308.124151 228.408558 
L 308.341885 188.541444 
L 308.559641 169.991835 
L 308.777375 241.034049 
L 308.995131 191.576771 
L 309.212865 222.714338 
L 309.43062 226.12423 
L 309.648355 189.23183 
L 309.866089 176.655948 
L 310.083844 206.503137 
L 310.301578 196.872612 
L 310.519312 178.206786 
L 310.737068 174.077407 
L 310.954802 251.292446 
L 311.172558 217.391615 
L 311.390292 212.430972 
L 311.608026 260.026734 
L 311.825782 264.230485 
L 312.043516 209.153455 
L 312.261271 235.10768 
L 312.479006 282.228501 
L 312.69674 283.455003 
L 312.914495 295.488 
L 313.132229 226.74583 
L 313.349985 248.091588 
L 313.567719 229.943249 
L 313.785453 224.436373 
L 314.003209 251.801283 
L 314.438699 210.794301 
L 314.656433 247.768537 
L 314.874167 234.390521 
L 315.091923 228.891051 
L 315.309657 233.6626 
L 315.527412 228.038374 
L 315.745146 232.050373 
L 315.962884 231.559704 
L 316.18064 164.554514 
L 316.61613 228.506798 
L 316.833864 166.396134 
L 317.051598 194.352143 
L 317.269353 159.691271 
L 317.487087 171.737047 
L 317.704843 202.000599 
L 317.922577 169.683337 
L 318.140311 217.408527 
L 318.358067 198.891322 
L 318.575801 196.246736 
L 318.793535 181.537668 
L 319.229025 226.117118 
L 319.446781 220.586076 
L 319.664515 203.315014 
L 320.100004 254.649859 
L 320.317739 190.156542 
L 320.535494 163.235133 
L 320.753228 166.722519 
L 320.970962 165.372382 
L 321.188718 184.504081 
L 321.406452 150.519274 
L 321.624208 179.81601 
L 321.841942 226.290122 
L 322.059676 233.955013 
L 322.277432 203.092923 
L 322.495166 230.533735 
L 322.712921 187.890294 
L 322.930655 175.192243 
L 323.14839 153.630886 
L 323.366145 152.186802 
L 323.583879 184.096738 
L 323.801635 157.374448 
L 324.019369 151.003679 
L 324.237103 205.595402 
L 324.454859 202.386223 
L 324.672593 195.910516 
L 324.890349 198.673505 
L 325.108083 139.666324 
L 325.325817 206.020196 
L 325.543572 154.764684 
L 325.761307 202.387795 
L 325.979041 176.096418 
L 326.196796 180.002126 
L 326.41453 205.692523 
L 326.85002 163.883483 
L 327.067754 178.572275 
L 327.28551 170.955146 
L 327.503244 181.611001 
L 327.721 144.129752 
L 327.938734 151.885686 
L 328.156468 175.194698 
L 328.374223 175.194698 
L 328.591958 146.488297 
L 328.809713 143.766936 
L 329.245181 184.738983 
L 329.462937 174.115963 
L 329.680671 153.625673 
L 329.898427 203.400048 
L 330.116161 163.796654 
L 330.551651 210.492342 
L 330.769385 215.164723 
L 331.204875 203.493961 
L 331.422609 174.878825 
L 331.640364 236.801658 
L 332.075854 169.615849 
L 332.293588 191.928922 
L 332.511322 153.581748 
L 332.729078 212.02544 
L 332.946812 182.479847 
L 333.164546 191.124799 
L 333.382302 189.752117 
L 333.817792 259.313524 
L 334.035526 214.268997 
L 334.25326 248.14743 
L 334.471015 227.227968 
L 334.688749 179.398107 
L 334.906505 175.887658 
L 335.124239 124.102565 
L 335.341973 120.673829 
L 335.559729 133.005961 
L 335.777463 127.410401 
L 335.995219 168.951923 
L 336.430687 177.865868 
L 336.648443 145.57683 
L 336.866177 193.621709 
L 337.083911 135.149228 
L 337.301666 157.576947 
L 337.5194 137.209325 
L 337.737166 199.042143 
L 337.9549 120.544057 
L 338.172634 106.093902 
L 338.39039 166.58876 
L 338.608124 179.025582 
L 338.82588 166.290299 
L 339.043614 132.453377 
L 339.261348 177.100021 
L 339.479104 138.322523 
L 339.914593 165.780564 
L 340.132327 163.980172 
L 340.350061 152.878233 
L 340.567817 180.365082 
L 340.785551 186.688256 
L 341.003307 147.811214 
L 341.221041 152.061569 
L 341.438775 148.023374 
L 341.656531 162.821026 
L 341.874265 163.514391 
L 342.309755 213.35826 
L 342.527489 163.509339 
L 342.745244 210.296609 
L 342.962978 183.831314 
L 343.398468 216.278908 
L 343.616202 199.762043 
L 343.833958 209.685977 
L 344.051692 132.381449 
L 344.269426 138.567429 
L 344.487182 196.854584 
L 344.922672 127.306485 
L 345.140406 103.90956 
L 345.35814 132.700122 
L 346.229119 176.634112 
L 346.446853 155.804792 
L 346.664609 156.351457 
L 346.882343 126.956461 
L 347.100077 184.736912 
L 347.535567 102.221346 
L 347.753323 138.133071 
L 347.971057 116.069429 
L 348.188791 141.219803 
L 348.406546 189.09974 
L 348.62428 162.706135 
L 348.842036 183.950745 
L 349.05977 191.128297 
L 349.277504 223.240544 
L 349.49526 214.287531 
L 350.366218 120.918525 
L 350.583974 143.745292 
L 350.801708 148.838247 
L 351.019442 109.939563 
L 351.237197 116.077882 
L 351.672687 146.578308 
L 351.890421 149.626007 
L 352.108155 139.309564 
L 352.543645 100.93976 
L 352.761401 97.410562 
L 352.979135 53.568 
L 353.196869 76.671358 
L 353.414625 124.21568 
L 353.632359 136.896123 
L 353.850114 176.135804 
L 354.067848 176.135804 
L 354.503338 114.107047 
L 354.721072 105.828509 
L 354.938806 110.263328 
L 355.156562 76.304468 
L 355.374296 72.862376 
L 355.592052 78.621567 
L 355.809786 145.030766 
L 356.02752 126.915149 
L 356.245276 128.5755 
L 356.680765 96.315801 
L 357.116234 168.702272 
L 357.769457 210.623203 
L 357.987213 194.378165 
L 358.204947 193.238642 
L 358.422703 139.529077 
L 358.640437 120.348428 
L 358.858171 173.233265 
L 359.075927 197.351985 
L 359.293659 169.84894 
L 359.511415 185.19599 
L 359.729149 154.202152 
L 359.946883 173.980442 
L 360.164638 148.622603 
L 360.382372 166.535155 
L 360.600128 128.609452 
L 360.817862 121.277973 
L 361.035596 159.763869 
L 361.253352 228.797303 
L 361.471086 228.970727 
L 361.68882 187.019506 
L 361.906576 172.039874 
L 362.12431 121.29143 
L 362.5598 102.602615 
L 362.777534 106.950013 
L 362.995289 120.114153 
L 363.430779 186.234956 
L 363.648513 151.66004 
L 363.866247 158.290033 
L 364.084003 168.414104 
L 364.301737 146.58222 
L 364.519471 161.178849 
L 364.737227 141.17002 
L 364.954961 137.717879 
L 365.172717 152.021513 
L 365.390451 181.558662 
L 365.82594 105.06015 
L 366.479164 208.437008 
L 366.696898 188.579331 
L 366.914654 157.259625 
L 367.132388 151.10343 
L 367.350122 187.738455 
L 367.567878 168.318695 
L 367.785612 158.893196 
L 368.003368 120.151823 
L 368.221102 155.395791 
L 368.438836 114.201151 
L 368.656591 159.479661 
L 368.874326 152.849442 
L 369.092081 129.490591 
L 369.309815 153.756474 
L 369.527549 147.414916 
L 369.745305 107.706718 
L 369.963039 131.855718 
L 370.180795 85.738987 
L 370.398529 87.015958 
L 370.616263 114.81097 
L 370.834019 171.941437 
L 371.051753 138.115673 
L 371.269487 157.105361 
L 371.487243 156.737694 
L 371.704977 142.441902 
L 371.922732 109.662294 
L 372.140466 186.868341 
L 372.575956 88.277304 
L 372.79369 132.215728 
L 373.011446 141.029504 
L 373.22918 90.244394 
L 373.446914 108.254417 
L 373.66467 103.504403 
L 374.100138 81.4022 
L 374.535628 162.839646 
L 374.753383 152.377055 
L 374.971117 112.467863 
L 375.188851 115.813019 
L 375.406607 71.537452 
L 375.624341 69.924075 
L 375.842097 73.195038 
L 376.059831 114.027932 
L 376.277565 95.099432 
L 376.495321 121.494993 
L 376.713055 103.39861 
L 376.930789 104.767658 
L 377.148545 114.385357 
L 377.366279 93.477539 
L 377.584034 85.076706 
L 378.019502 149.895678 
L 378.237258 102.331606 
L 378.454992 106.496094 
L 378.672748 100.254294 
L 379.108216 177.496458 
L 379.543706 104.176322 
L 379.76144 104.176322 
L 379.979196 94.059368 
L 380.19693 165.559796 
L 380.414685 146.536986 
L 380.850154 196.027503 
L 381.067898 157.134521 
L 381.285632 159.774243 
L 381.503367 216.43757 
L 381.938856 152.656331 
L 382.156612 145.291033 
L 382.59208 167.785172 
L 382.809836 150.01004 
L 383.02757 176.7793 
L 383.245326 187.167734 
L 383.46306 183.233682 
L 383.680794 193.819489 
L 383.898549 192.352979 
L 384.116283 141.316735 
L 384.334018 127.397753 
L 384.551773 134.887871 
L 384.769507 116.396885 
L 384.987263 107.45895 
L 385.204997 71.735325 
L 385.640487 145.485582 
L 385.858221 124.203132 
L 386.075955 118.704893 
L 386.293711 102.925911 
L 386.511445 97.260049 
L 386.7292 137.361016 
L 386.946935 84.183649 
L 387.164669 118.475448 
L 387.382424 132.645957 
L 387.600158 135.073679 
L 387.817914 207.68061 
L 388.253382 174.170717 
L 388.688872 156.345178 
L 388.906606 154.250007 
L 389.124362 142.224819 
L 389.342096 144.998231 
L 389.559852 126.080176 
L 389.777586 191.807123 
L 389.99532 136.957486 
L 390.213075 133.389856 
L 390.648543 161.547554 
L 391.084033 103.19164 
L 391.301789 115.675957 
L 391.737257 166.024625 
L 392.172747 122.185661 
L 392.608237 188.745694 
L 392.825971 172.734335 
L 393.043726 185.979912 
L 393.479194 150.216087 
L 393.69695 169.218416 
L 393.914684 150.678501 
L 394.13244 179.141865 
L 394.350174 178.267365 
L 394.567908 179.818158 
L 394.785664 175.335958 
L 395.003398 199.691929 
L 395.221132 146.748491 
L 395.438888 144.566948 
L 395.874377 203.620478 
L 396.092111 202.233716 
L 396.309846 177.083742 
L 396.527601 173.224521 
L 396.745335 154.248431 
L 396.963069 152.979112 
L 397.180825 112.391756 
L 397.398559 147.765637 
L 397.616315 135.393443 
L 397.834049 154.481699 
L 398.051783 161.883639 
L 398.269539 163.043036 
L 398.487273 157.500246 
L 398.487273 157.500246 
" clip-path="url(#pc0147a4a26)" style="fill: none; stroke: #1f77b4; stroke-width: 1.5; stroke-linecap: square"/>
   </g>
   <g id="patch_3">
    <path d="M 57.6 307.584 
L 57.6 41.472 
" style="fill: none; stroke: #000000; stroke-width: 0.8; stroke-linejoin: miter; stroke-linecap: square"/>
   </g>
   <g id="patch_4">
    <path d="M 414.72 307.584 
L 414.72 41.472 
" style="fill: none; stroke: #000000; stroke-width: 0.8; stroke-linejoin: miter; stroke-linecap: square"/>
   </g>
   <g id="patch_5">
    <path d="M 57.6 307.584 
L 414.72 307.584 
" style="fill: none; stroke: #000000; stroke-width: 0.8; stroke-linejoin: miter; stroke-linecap: square"/>
   </g>
   <g id="patch_6">
    <path d="M 57.6 41.472 
L 414.72 41.472 
" style="fill: none; stroke: #000000; stroke-width: 0.8; stroke-linejoin: miter; stroke-linecap: square"/>
   </g>
   <g id="text_19">
    <!-- Vemund-Tyholt_restart-vinkel -->
    <g transform="translate(149.541562 35.472) scale(0.12 -0.12)">
     <defs>
      <path id="DejaVuSans-56" d="M 1831 0 
L 50 4666 
L 709 4666 
L 2188 738 
L 3669 4666 
L 4325 4666 
L 2547 0 
L 1831 0 
z
" transform="scale(0.015625)"/>
      <path id="DejaVuSans-75" d="M 544 1381 
L 544 3500 
L 1119 3500 
L 1119 1403 
Q 1119 906 1312 657 
Q 1506 409 1894 409 
Q 2359 409 2629 706 
Q 2900 1003 2900 1516 
L 2900 3500 
L 3475 3500 
L 3475 0 
L 2900 0 
L 2900 538 
Q 2691 219 2414 64 
Q 2138 -91 1772 -91 
Q 1169 -91 856 284 
Q 544 659 544 1381 
z
M 1991 3584 
L 1991 3584 
z
" transform="scale(0.015625)"/>
      <path id="DejaVuSans-6e" d="M 3513 2113 
L 3513 0 
L 2938 0 
L 2938 2094 
Q 2938 2591 2744 2837 
Q 2550 3084 2163 3084 
Q 1697 3084 1428 2787 
Q 1159 2491 1159 1978 
L 1159 0 
L 581 0 
L 581 3500 
L 1159 3500 
L 1159 2956 
Q 1366 3272 1645 3428 
Q 1925 3584 2291 3584 
Q 2894 3584 3203 3211 
Q 3513 2838 3513 2113 
z
" transform="scale(0.015625)"/>
      <path id="DejaVuSans-2d" d="M 313 2009 
L 1997 2009 
L 1997 1497 
L 313 1497 
L 313 2009 
z
" transform="scale(0.015625)"/>
      <path id="DejaVuSans-54" d="M -19 4666 
L 3928 4666 
L 3928 4134 
L 2272 4134 
L 2272 0 
L 1638 0 
L 1638 4134 
L -19 4134 
L -19 4666 
z
" transform="scale(0.015625)"/>
      <path id="DejaVuSans-79" d="M 2059 -325 
Q 1816 -950 1584 -1140 
Q 1353 -1331 966 -1331 
L 506 -1331 
L 506 -850 
L 844 -850 
Q 1081 -850 1212 -737 
Q 1344 -625 1503 -206 
L 1606 56 
L 191 3500 
L 800 3500 
L 1894 763 
L 2988 3500 
L 3597 3500 
L 2059 -325 
z
" transform="scale(0.015625)"/>
      <path id="DejaVuSans-68" d="M 3513 2113 
L 3513 0 
L 2938 0 
L 2938 2094 
Q 2938 2591 2744 2837 
Q 2550 3084 2163 3084 
Q 1697 3084 1428 2787 
Q 1159 2491 1159 1978 
L 1159 0 
L 581 0 
L 581 4863 
L 1159 4863 
L 1159 2956 
Q 1366 3272 1645 3428 
Q 1925 3584 2291 3584 
Q 2894 3584 3203 3211 
Q 3513 2838 3513 2113 
z
" transform="scale(0.015625)"/>
      <path id="DejaVuSans-6f" d="M 1959 3097 
Q 1497 3097 1228 2736 
Q 959 2375 959 1747 
Q 959 1119 1226 758 
Q 1494 397 1959 397 
Q 2419 397 2687 759 
Q 2956 1122 2956 1747 
Q 2956 2369 2687 2733 
Q 2419 3097 1959 3097 
z
M 1959 3584 
Q 2709 3584 3137 3096 
Q 3566 2609 3566 1747 
Q 3566 888 3137 398 
Q 2709 -91 1959 -91 
Q 1206 -91 779 398 
Q 353 888 353 1747 
Q 353 2609 779 3096 
Q 1206 3584 1959 3584 
z
" transform="scale(0.015625)"/>
      <path id="DejaVuSans-6c" d="M 603 4863 
L 1178 4863 
L 1178 0 
L 603 0 
L 603 4863 
z
" transform="scale(0.015625)"/>
      <path id="DejaVuSans-5f" d="M 3263 -1063 
L 3263 -1509 
L -63 -1509 
L -63 -1063 
L 3263 -1063 
z
" transform="scale(0.015625)"/>
      <path id="DejaVuSans-72" d="M 2631 2963 
Q 2534 3019 2420 3045 
Q 2306 3072 2169 3072 
Q 1681 3072 1420 2755 
Q 1159 2438 1159 1844 
L 1159 0 
L 581 0 
L 581 3500 
L 1159 3500 
L 1159 2956 
Q 1341 3275 1631 3429 
Q 1922 3584 2338 3584 
Q 2397 3584 2469 3576 
Q 2541 3569 2628 3553 
L 2631 2963 
z
" transform="scale(0.015625)"/>
      <path id="DejaVuSans-61" d="M 2194 1759 
Q 1497 1759 1228 1600 
Q 959 1441 959 1056 
Q 959 750 1161 570 
Q 1363 391 1709 391 
Q 2188 391 2477 730 
Q 2766 1069 2766 1631 
L 2766 1759 
L 2194 1759 
z
M 3341 1997 
L 3341 0 
L 2766 0 
L 2766 531 
Q 2569 213 2275 61 
Q 1981 -91 1556 -91 
Q 1019 -91 701 211 
Q 384 513 384 1019 
Q 384 1609 779 1909 
Q 1175 2209 1959 2209 
L 2766 2209 
L 2766 2266 
Q 2766 2663 2505 2880 
Q 2244 3097 1772 3097 
Q 1472 3097 1187 3025 
Q 903 2953 641 2809 
L 641 3341 
Q 956 3463 1253 3523 
Q 1550 3584 1831 3584 
Q 2591 3584 2966 3190 
Q 3341 2797 3341 1997 
z
" transform="scale(0.015625)"/>
      <path id="DejaVuSans-76" d="M 191 3500 
L 800 3500 
L 1894 563 
L 2988 3500 
L 3597 3500 
L 2284 0 
L 1503 0 
L 191 3500 
z
" transform="scale(0.015625)"/>
      <path id="DejaVuSans-6b" d="M 581 4863 
L 1159 4863 
L 1159 1991 
L 2875 3500 
L 3609 3500 
L 1753 1863 
L 3688 0 
L 2938 0 
L 1159 1709 
L 1159 0 
L 581 0 
L 581 4863 
z
" transform="scale(0.015625)"/>
     </defs>
     <use xlink:href="#DejaVuSans-56"/>
     <use xlink:href="#DejaVuSans-65" x="60.658203"/>
     <use xlink:href="#DejaVuSans-6d" x="122.181641"/>
     <use xlink:href="#DejaVuSans-75" x="219.59375"/>
     <use xlink:href="#DejaVuSans-6e" x="282.972656"/>
     <use xlink:href="#DejaVuSans-64" x="346.351562"/>
     <use xlink:href="#DejaVuSans-2d" x="409.828125"/>
     <use xlink:href="#DejaVuSans-54" x="436.787109"/>
     <use xlink:href="#DejaVuSans-79" x="482.246094"/>
     <use xlink:href="#DejaVuSans-68" x="541.425781"/>
     <use xlink:href="#DejaVuSans-6f" x="604.804688"/>
     <use xlink:href="#DejaVuSans-6c" x="665.986328"/>
     <use xlink:href="#DejaVuSans-74" x="693.769531"/>
     <use xlink:href="#DejaVuSans-5f" x="732.978516"/>
     <use xlink:href="#DejaVuSans-72" x="782.978516"/>
     <use xlink:href="#DejaVuSans-65" x="821.841797"/>
     <use xlink:href="#DejaVuSans-73" x="883.365234"/>
     <use xlink:href="#DejaVuSans-74" x="935.464844"/>
     <use xlink:href="#DejaVuSans-61" x="974.673828"/>
     <use xlink:href="#DejaVuSans-72" x="1035.953125"/>
     <use xlink:href="#DejaVuSans-74" x="1077.066406"/>
     <use xlink:href="#DejaVuSans-2d" x="1116.275391"/>
     <use xlink:href="#DejaVuSans-76" x="1149.734375"/>
     <use xlink:href="#DejaVuSans-69" x="1208.914062"/>
     <use xlink:href="#DejaVuSans-6e" x="1236.697266"/>
     <use xlink:href="#DejaVuSans-6b" x="1300.076172"/>
     <use xlink:href="#DejaVuSans-65" x="1354.361328"/>
     <use xlink:href="#DejaVuSans-6c" x="1415.884766"/>
    </g>
   </g>
   <g id="legend_1">
    <g id="patch_7">
     <path d="M 64.6 64.42825 
L 240.964063 64.42825 
Q 242.964063 64.42825 242.964063 62.42825 
L 242.964063 48.472 
Q 242.964063 46.472 240.964063 46.472 
L 64.6 46.472 
Q 62.6 46.472 62.6 48.472 
L 62.6 62.42825 
Q 62.6 64.42825 64.6 64.42825 
z
" style="fill: #ffffff; opacity: 0.8; stroke: #cccccc; stroke-linejoin: miter"/>
    </g>
    <g id="line2d_18">
     <path d="M 66.6 54.570437 
L 76.6 54.570437 
L 86.6 54.570437 
" style="fill: none; stroke: #1f77b4; stroke-width: 1.5; stroke-linecap: square"/>
    </g>
    <g id="text_20">
     <!-- Vemund-Tyholt_restart-vinkel -->
     <g transform="translate(94.6 58.070437) scale(0.1 -0.1)">
      <use xlink:href="#DejaVuSans-56"/>
      <use xlink:href="#DejaVuSans-65" x="60.658203"/>
      <use xlink:href="#DejaVuSans-6d" x="122.181641"/>
      <use xlink:href="#DejaVuSans-75" x="219.59375"/>
      <use xlink:href="#DejaVuSans-6e" x="282.972656"/>
      <use xlink:href="#DejaVuSans-64" x="346.351562"/>
      <use xlink:href="#DejaVuSans-2d" x="409.828125"/>
      <use xlink:href="#DejaVuSans-54" x="436.787109"/>
      <use xlink:href="#DejaVuSans-79" x="482.246094"/>
      <use xlink:href="#DejaVuSans-68" x="541.425781"/>
      <use xlink:href="#DejaVuSans-6f" x="604.804688"/>
      <use xlink:href="#DejaVuSans-6c" x="665.986328"/>
      <use xlink:href="#DejaVuSans-74" x="693.769531"/>
      <use xlink:href="#DejaVuSans-5f" x="732.978516"/>
      <use xlink:href="#DejaVuSans-72" x="782.978516"/>
      <use xlink:href="#DejaVuSans-65" x="821.841797"/>
      <use xlink:href="#DejaVuSans-73" x="883.365234"/>
      <use xlink:href="#DejaVuSans-74" x="935.464844"/>
      <use xlink:href="#DejaVuSans-61" x="974.673828"/>
      <use xlink:href="#DejaVuSans-72" x="1035.953125"/>
      <use xlink:href="#DejaVuSans-74" x="1077.066406"/>
      <use xlink:href="#DejaVuSans-2d" x="1116.275391"/>
      <use xlink:href="#DejaVuSans-76" x="1149.734375"/>
      <use xlink:href="#DejaVuSans-69" x="1208.914062"/>
      <use xlink:href="#DejaVuSans-6e" x="1236.697266"/>
      <use xlink:href="#DejaVuSans-6b" x="1300.076172"/>
      <use xlink:href="#DejaVuSans-65" x="1354.361328"/>
      <use xlink:href="#DejaVuSans-6c" x="1415.884766"/>
     </g>
    </g>
   </g>
  </g>
 </g>
 <defs>
  <clipPath id="pc0147a4a26">
   <rect x="57.6" y="41.472" width="357.12" height="266.112"/>
  </clipPath>
 </defs>
</svg>
