<?xml version="1.0" encoding="utf-8" standalone="no"?>
<!DOCTYPE svg PUBLIC "-//W3C//DTD SVG 1.1//EN"
  "http://www.w3.org/Graphics/SVG/1.1/DTD/svg11.dtd">
<svg xmlns:xlink="http://www.w3.org/1999/xlink" width="460.8pt" height="345.6pt" viewBox="0 0 460.8 345.6" xmlns="http://www.w3.org/2000/svg" version="1.1">
 <metadata>
  <rdf:RDF xmlns:dc="http://purl.org/dc/elements/1.1/" xmlns:cc="http://creativecommons.org/ns#" xmlns:rdf="http://www.w3.org/1999/02/22-rdf-syntax-ns#">
   <cc:Work>
    <dc:type rdf:resource="http://purl.org/dc/dcmitype/StillImage"/>
    <dc:date>2023-04-17T15:21:31.230441</dc:date>
    <dc:format>image/svg+xml</dc:format>
    <dc:creator>
     <cc:Agent>
      <dc:title>Matplotlib v3.7.1, https://matplotlib.org/</dc:title>
     </cc:Agent>
    </dc:creator>
   </cc:Work>
  </rdf:RDF>
 </metadata>
 <defs>
  <style type="text/css">*{stroke-linejoin: round; stroke-linecap: butt}</style>
 </defs>
 <g id="figure_1">
  <g id="patch_1">
   <path d="M 0 345.6 
L 460.8 345.6 
L 460.8 0 
L 0 0 
z
" style="fill: #ffffff"/>
  </g>
  <g id="axes_1">
   <g id="patch_2">
    <path d="M 57.6 307.584 
L 414.72 307.584 
L 414.72 41.472 
L 57.6 41.472 
z
" style="fill: #ffffff"/>
   </g>
   <g id="matplotlib.axis_1">
    <g id="xtick_1">
     <g id="line2d_1">
      <defs>
       <path id="m66da2e5411" d="M 0 0 
L 0 3.5 
" style="stroke: #000000; stroke-width: 0.8"/>
      </defs>
      <g>
       <use xlink:href="#m66da2e5411" x="98.06202" y="307.584" style="stroke: #000000; stroke-width: 0.8"/>
      </g>
     </g>
     <g id="text_1">
      <!-- 25 -->
      <g transform="translate(91.69952 322.182437) scale(0.1 -0.1)">
       <defs>
        <path id="DejaVuSans-32" d="M 1228 531 
L 3431 531 
L 3431 0 
L 469 0 
L 469 531 
Q 828 903 1448 1529 
Q 2069 2156 2228 2338 
Q 2531 2678 2651 2914 
Q 2772 3150 2772 3378 
Q 2772 3750 2511 3984 
Q 2250 4219 1831 4219 
Q 1534 4219 1204 4116 
Q 875 4013 500 3803 
L 500 4441 
Q 881 4594 1212 4672 
Q 1544 4750 1819 4750 
Q 2544 4750 2975 4387 
Q 3406 4025 3406 3419 
Q 3406 3131 3298 2873 
Q 3191 2616 2906 2266 
Q 2828 2175 2409 1742 
Q 1991 1309 1228 531 
z
" transform="scale(0.015625)"/>
        <path id="DejaVuSans-35" d="M 691 4666 
L 3169 4666 
L 3169 4134 
L 1269 4134 
L 1269 2991 
Q 1406 3038 1543 3061 
Q 1681 3084 1819 3084 
Q 2600 3084 3056 2656 
Q 3513 2228 3513 1497 
Q 3513 744 3044 326 
Q 2575 -91 1722 -91 
Q 1428 -91 1123 -41 
Q 819 9 494 109 
L 494 744 
Q 775 591 1075 516 
Q 1375 441 1709 441 
Q 2250 441 2565 725 
Q 2881 1009 2881 1497 
Q 2881 1984 2565 2268 
Q 2250 2553 1709 2553 
Q 1456 2553 1204 2497 
Q 953 2441 691 2322 
L 691 4666 
z
" transform="scale(0.015625)"/>
       </defs>
       <use xlink:href="#DejaVuSans-32"/>
       <use xlink:href="#DejaVuSans-35" x="63.623047"/>
      </g>
     </g>
    </g>
    <g id="xtick_2">
     <g id="line2d_2">
      <g>
       <use xlink:href="#m66da2e5411" x="158.192795" y="307.584" style="stroke: #000000; stroke-width: 0.8"/>
      </g>
     </g>
     <g id="text_2">
      <!-- 30 -->
      <g transform="translate(151.830295 322.182437) scale(0.1 -0.1)">
       <defs>
        <path id="DejaVuSans-33" d="M 2597 2516 
Q 3050 2419 3304 2112 
Q 3559 1806 3559 1356 
Q 3559 666 3084 287 
Q 2609 -91 1734 -91 
Q 1441 -91 1130 -33 
Q 819 25 488 141 
L 488 750 
Q 750 597 1062 519 
Q 1375 441 1716 441 
Q 2309 441 2620 675 
Q 2931 909 2931 1356 
Q 2931 1769 2642 2001 
Q 2353 2234 1838 2234 
L 1294 2234 
L 1294 2753 
L 1863 2753 
Q 2328 2753 2575 2939 
Q 2822 3125 2822 3475 
Q 2822 3834 2567 4026 
Q 2313 4219 1838 4219 
Q 1578 4219 1281 4162 
Q 984 4106 628 3988 
L 628 4550 
Q 988 4650 1302 4700 
Q 1616 4750 1894 4750 
Q 2613 4750 3031 4423 
Q 3450 4097 3450 3541 
Q 3450 3153 3228 2886 
Q 3006 2619 2597 2516 
z
" transform="scale(0.015625)"/>
        <path id="DejaVuSans-30" d="M 2034 4250 
Q 1547 4250 1301 3770 
Q 1056 3291 1056 2328 
Q 1056 1369 1301 889 
Q 1547 409 2034 409 
Q 2525 409 2770 889 
Q 3016 1369 3016 2328 
Q 3016 3291 2770 3770 
Q 2525 4250 2034 4250 
z
M 2034 4750 
Q 2819 4750 3233 4129 
Q 3647 3509 3647 2328 
Q 3647 1150 3233 529 
Q 2819 -91 2034 -91 
Q 1250 -91 836 529 
Q 422 1150 422 2328 
Q 422 3509 836 4129 
Q 1250 4750 2034 4750 
z
" transform="scale(0.015625)"/>
       </defs>
       <use xlink:href="#DejaVuSans-33"/>
       <use xlink:href="#DejaVuSans-30" x="63.623047"/>
      </g>
     </g>
    </g>
    <g id="xtick_3">
     <g id="line2d_3">
      <g>
       <use xlink:href="#m66da2e5411" x="218.323571" y="307.584" style="stroke: #000000; stroke-width: 0.8"/>
      </g>
     </g>
     <g id="text_3">
      <!-- 35 -->
      <g transform="translate(211.961071 322.182437) scale(0.1 -0.1)">
       <use xlink:href="#DejaVuSans-33"/>
       <use xlink:href="#DejaVuSans-35" x="63.623047"/>
      </g>
     </g>
    </g>
    <g id="xtick_4">
     <g id="line2d_4">
      <g>
       <use xlink:href="#m66da2e5411" x="278.454346" y="307.584" style="stroke: #000000; stroke-width: 0.8"/>
      </g>
     </g>
     <g id="text_4">
      <!-- 40 -->
      <g transform="translate(272.091846 322.182437) scale(0.1 -0.1)">
       <defs>
        <path id="DejaVuSans-34" d="M 2419 4116 
L 825 1625 
L 2419 1625 
L 2419 4116 
z
M 2253 4666 
L 3047 4666 
L 3047 1625 
L 3713 1625 
L 3713 1100 
L 3047 1100 
L 3047 0 
L 2419 0 
L 2419 1100 
L 313 1100 
L 313 1709 
L 2253 4666 
z
" transform="scale(0.015625)"/>
       </defs>
       <use xlink:href="#DejaVuSans-34"/>
       <use xlink:href="#DejaVuSans-30" x="63.623047"/>
      </g>
     </g>
    </g>
    <g id="xtick_5">
     <g id="line2d_5">
      <g>
       <use xlink:href="#m66da2e5411" x="338.585121" y="307.584" style="stroke: #000000; stroke-width: 0.8"/>
      </g>
     </g>
     <g id="text_5">
      <!-- 45 -->
      <g transform="translate(332.222621 322.182437) scale(0.1 -0.1)">
       <use xlink:href="#DejaVuSans-34"/>
       <use xlink:href="#DejaVuSans-35" x="63.623047"/>
      </g>
     </g>
    </g>
    <g id="xtick_6">
     <g id="line2d_6">
      <g>
       <use xlink:href="#m66da2e5411" x="398.715896" y="307.584" style="stroke: #000000; stroke-width: 0.8"/>
      </g>
     </g>
     <g id="text_6">
      <!-- 50 -->
      <g transform="translate(392.353396 322.182437) scale(0.1 -0.1)">
       <use xlink:href="#DejaVuSans-35"/>
       <use xlink:href="#DejaVuSans-30" x="63.623047"/>
      </g>
     </g>
    </g>
    <g id="text_7">
     <!-- time [s] -->
     <g transform="translate(216.768594 335.860562) scale(0.1 -0.1)">
      <defs>
       <path id="DejaVuSans-74" d="M 1172 4494 
L 1172 3500 
L 2356 3500 
L 2356 3053 
L 1172 3053 
L 1172 1153 
Q 1172 725 1289 603 
Q 1406 481 1766 481 
L 2356 481 
L 2356 0 
L 1766 0 
Q 1100 0 847 248 
Q 594 497 594 1153 
L 594 3053 
L 172 3053 
L 172 3500 
L 594 3500 
L 594 4494 
L 1172 4494 
z
" transform="scale(0.015625)"/>
       <path id="DejaVuSans-69" d="M 603 3500 
L 1178 3500 
L 1178 0 
L 603 0 
L 603 3500 
z
M 603 4863 
L 1178 4863 
L 1178 4134 
L 603 4134 
L 603 4863 
z
" transform="scale(0.015625)"/>
       <path id="DejaVuSans-6d" d="M 3328 2828 
Q 3544 3216 3844 3400 
Q 4144 3584 4550 3584 
Q 5097 3584 5394 3201 
Q 5691 2819 5691 2113 
L 5691 0 
L 5113 0 
L 5113 2094 
Q 5113 2597 4934 2840 
Q 4756 3084 4391 3084 
Q 3944 3084 3684 2787 
Q 3425 2491 3425 1978 
L 3425 0 
L 2847 0 
L 2847 2094 
Q 2847 2600 2669 2842 
Q 2491 3084 2119 3084 
Q 1678 3084 1418 2786 
Q 1159 2488 1159 1978 
L 1159 0 
L 581 0 
L 581 3500 
L 1159 3500 
L 1159 2956 
Q 1356 3278 1631 3431 
Q 1906 3584 2284 3584 
Q 2666 3584 2933 3390 
Q 3200 3197 3328 2828 
z
" transform="scale(0.015625)"/>
       <path id="DejaVuSans-65" d="M 3597 1894 
L 3597 1613 
L 953 1613 
Q 991 1019 1311 708 
Q 1631 397 2203 397 
Q 2534 397 2845 478 
Q 3156 559 3463 722 
L 3463 178 
Q 3153 47 2828 -22 
Q 2503 -91 2169 -91 
Q 1331 -91 842 396 
Q 353 884 353 1716 
Q 353 2575 817 3079 
Q 1281 3584 2069 3584 
Q 2775 3584 3186 3129 
Q 3597 2675 3597 1894 
z
M 3022 2063 
Q 3016 2534 2758 2815 
Q 2500 3097 2075 3097 
Q 1594 3097 1305 2825 
Q 1016 2553 972 2059 
L 3022 2063 
z
" transform="scale(0.015625)"/>
       <path id="DejaVuSans-20" transform="scale(0.015625)"/>
       <path id="DejaVuSans-5b" d="M 550 4863 
L 1875 4863 
L 1875 4416 
L 1125 4416 
L 1125 -397 
L 1875 -397 
L 1875 -844 
L 550 -844 
L 550 4863 
z
" transform="scale(0.015625)"/>
       <path id="DejaVuSans-73" d="M 2834 3397 
L 2834 2853 
Q 2591 2978 2328 3040 
Q 2066 3103 1784 3103 
Q 1356 3103 1142 2972 
Q 928 2841 928 2578 
Q 928 2378 1081 2264 
Q 1234 2150 1697 2047 
L 1894 2003 
Q 2506 1872 2764 1633 
Q 3022 1394 3022 966 
Q 3022 478 2636 193 
Q 2250 -91 1575 -91 
Q 1294 -91 989 -36 
Q 684 19 347 128 
L 347 722 
Q 666 556 975 473 
Q 1284 391 1588 391 
Q 1994 391 2212 530 
Q 2431 669 2431 922 
Q 2431 1156 2273 1281 
Q 2116 1406 1581 1522 
L 1381 1569 
Q 847 1681 609 1914 
Q 372 2147 372 2553 
Q 372 3047 722 3315 
Q 1072 3584 1716 3584 
Q 2034 3584 2315 3537 
Q 2597 3491 2834 3397 
z
" transform="scale(0.015625)"/>
       <path id="DejaVuSans-5d" d="M 1947 4863 
L 1947 -844 
L 622 -844 
L 622 -397 
L 1369 -397 
L 1369 4416 
L 622 4416 
L 622 4863 
L 1947 4863 
z
" transform="scale(0.015625)"/>
      </defs>
      <use xlink:href="#DejaVuSans-74"/>
      <use xlink:href="#DejaVuSans-69" x="39.208984"/>
      <use xlink:href="#DejaVuSans-6d" x="66.992188"/>
      <use xlink:href="#DejaVuSans-65" x="164.404297"/>
      <use xlink:href="#DejaVuSans-20" x="225.927734"/>
      <use xlink:href="#DejaVuSans-5b" x="257.714844"/>
      <use xlink:href="#DejaVuSans-73" x="296.728516"/>
      <use xlink:href="#DejaVuSans-5d" x="348.828125"/>
     </g>
    </g>
   </g>
   <g id="matplotlib.axis_2">
    <g id="ytick_1">
     <g id="line2d_7">
      <defs>
       <path id="m16bc187d11" d="M 0 0 
L -3.5 0 
" style="stroke: #000000; stroke-width: 0.8"/>
      </defs>
      <g>
       <use xlink:href="#m16bc187d11" x="57.6" y="268.514223" style="stroke: #000000; stroke-width: 0.8"/>
      </g>
     </g>
     <g id="text_8">
      <!-- 267.0 -->
      <g transform="translate(21.971875 272.313442) scale(0.1 -0.1)">
       <defs>
        <path id="DejaVuSans-36" d="M 2113 2584 
Q 1688 2584 1439 2293 
Q 1191 2003 1191 1497 
Q 1191 994 1439 701 
Q 1688 409 2113 409 
Q 2538 409 2786 701 
Q 3034 994 3034 1497 
Q 3034 2003 2786 2293 
Q 2538 2584 2113 2584 
z
M 3366 4563 
L 3366 3988 
Q 3128 4100 2886 4159 
Q 2644 4219 2406 4219 
Q 1781 4219 1451 3797 
Q 1122 3375 1075 2522 
Q 1259 2794 1537 2939 
Q 1816 3084 2150 3084 
Q 2853 3084 3261 2657 
Q 3669 2231 3669 1497 
Q 3669 778 3244 343 
Q 2819 -91 2113 -91 
Q 1303 -91 875 529 
Q 447 1150 447 2328 
Q 447 3434 972 4092 
Q 1497 4750 2381 4750 
Q 2619 4750 2861 4703 
Q 3103 4656 3366 4563 
z
" transform="scale(0.015625)"/>
        <path id="DejaVuSans-37" d="M 525 4666 
L 3525 4666 
L 3525 4397 
L 1831 0 
L 1172 0 
L 2766 4134 
L 525 4134 
L 525 4666 
z
" transform="scale(0.015625)"/>
        <path id="DejaVuSans-2e" d="M 684 794 
L 1344 794 
L 1344 0 
L 684 0 
L 684 794 
z
" transform="scale(0.015625)"/>
       </defs>
       <use xlink:href="#DejaVuSans-32"/>
       <use xlink:href="#DejaVuSans-36" x="63.623047"/>
       <use xlink:href="#DejaVuSans-37" x="127.246094"/>
       <use xlink:href="#DejaVuSans-2e" x="190.869141"/>
       <use xlink:href="#DejaVuSans-30" x="222.65625"/>
      </g>
     </g>
    </g>
    <g id="ytick_2">
     <g id="line2d_8">
      <g>
       <use xlink:href="#m16bc187d11" x="57.6" y="211.158497" style="stroke: #000000; stroke-width: 0.8"/>
      </g>
     </g>
     <g id="text_9">
      <!-- 267.5 -->
      <g transform="translate(21.971875 214.957716) scale(0.1 -0.1)">
       <use xlink:href="#DejaVuSans-32"/>
       <use xlink:href="#DejaVuSans-36" x="63.623047"/>
       <use xlink:href="#DejaVuSans-37" x="127.246094"/>
       <use xlink:href="#DejaVuSans-2e" x="190.869141"/>
       <use xlink:href="#DejaVuSans-35" x="222.65625"/>
      </g>
     </g>
    </g>
    <g id="ytick_3">
     <g id="line2d_9">
      <g>
       <use xlink:href="#m16bc187d11" x="57.6" y="153.802771" style="stroke: #000000; stroke-width: 0.8"/>
      </g>
     </g>
     <g id="text_10">
      <!-- 268.0 -->
      <g transform="translate(21.971875 157.60199) scale(0.1 -0.1)">
       <defs>
        <path id="DejaVuSans-38" d="M 2034 2216 
Q 1584 2216 1326 1975 
Q 1069 1734 1069 1313 
Q 1069 891 1326 650 
Q 1584 409 2034 409 
Q 2484 409 2743 651 
Q 3003 894 3003 1313 
Q 3003 1734 2745 1975 
Q 2488 2216 2034 2216 
z
M 1403 2484 
Q 997 2584 770 2862 
Q 544 3141 544 3541 
Q 544 4100 942 4425 
Q 1341 4750 2034 4750 
Q 2731 4750 3128 4425 
Q 3525 4100 3525 3541 
Q 3525 3141 3298 2862 
Q 3072 2584 2669 2484 
Q 3125 2378 3379 2068 
Q 3634 1759 3634 1313 
Q 3634 634 3220 271 
Q 2806 -91 2034 -91 
Q 1263 -91 848 271 
Q 434 634 434 1313 
Q 434 1759 690 2068 
Q 947 2378 1403 2484 
z
M 1172 3481 
Q 1172 3119 1398 2916 
Q 1625 2713 2034 2713 
Q 2441 2713 2670 2916 
Q 2900 3119 2900 3481 
Q 2900 3844 2670 4047 
Q 2441 4250 2034 4250 
Q 1625 4250 1398 4047 
Q 1172 3844 1172 3481 
z
" transform="scale(0.015625)"/>
       </defs>
       <use xlink:href="#DejaVuSans-32"/>
       <use xlink:href="#DejaVuSans-36" x="63.623047"/>
       <use xlink:href="#DejaVuSans-38" x="127.246094"/>
       <use xlink:href="#DejaVuSans-2e" x="190.869141"/>
       <use xlink:href="#DejaVuSans-30" x="222.65625"/>
      </g>
     </g>
    </g>
    <g id="ytick_4">
     <g id="line2d_10">
      <g>
       <use xlink:href="#m16bc187d11" x="57.6" y="96.447046" style="stroke: #000000; stroke-width: 0.8"/>
      </g>
     </g>
     <g id="text_11">
      <!-- 268.5 -->
      <g transform="translate(21.971875 100.246264) scale(0.1 -0.1)">
       <use xlink:href="#DejaVuSans-32"/>
       <use xlink:href="#DejaVuSans-36" x="63.623047"/>
       <use xlink:href="#DejaVuSans-38" x="127.246094"/>
       <use xlink:href="#DejaVuSans-2e" x="190.869141"/>
       <use xlink:href="#DejaVuSans-35" x="222.65625"/>
      </g>
     </g>
    </g>
    <g id="text_12">
     <!-- $\theta$ [deg] -->
     <g transform="translate(15.871875 192.528) rotate(-90) scale(0.1 -0.1)">
      <defs>
       <path id="DejaVuSans-Oblique-3b8" d="M 2913 2219 
L 925 2219 
Q 791 1284 928 888 
Q 1100 400 1566 400 
Q 2034 400 2391 891 
Q 2703 1322 2913 2219 
z
M 3009 2750 
Q 3094 3638 2984 3950 
Q 2813 4444 2353 4444 
Q 1875 4444 1525 3956 
Q 1250 3563 1034 2750 
L 3009 2750 
z
M 2444 4913 
Q 3194 4913 3494 4250 
Q 3794 3591 3566 2422 
Q 3341 1256 2781 594 
Q 2225 -72 1475 -72 
Q 722 -72 425 594 
Q 128 1256 353 2422 
Q 581 3591 1134 4250 
Q 1691 4913 2444 4913 
z
" transform="scale(0.015625)"/>
       <path id="DejaVuSans-64" d="M 2906 2969 
L 2906 4863 
L 3481 4863 
L 3481 0 
L 2906 0 
L 2906 525 
Q 2725 213 2448 61 
Q 2172 -91 1784 -91 
Q 1150 -91 751 415 
Q 353 922 353 1747 
Q 353 2572 751 3078 
Q 1150 3584 1784 3584 
Q 2172 3584 2448 3432 
Q 2725 3281 2906 2969 
z
M 947 1747 
Q 947 1113 1208 752 
Q 1469 391 1925 391 
Q 2381 391 2643 752 
Q 2906 1113 2906 1747 
Q 2906 2381 2643 2742 
Q 2381 3103 1925 3103 
Q 1469 3103 1208 2742 
Q 947 2381 947 1747 
z
" transform="scale(0.015625)"/>
       <path id="DejaVuSans-67" d="M 2906 1791 
Q 2906 2416 2648 2759 
Q 2391 3103 1925 3103 
Q 1463 3103 1205 2759 
Q 947 2416 947 1791 
Q 947 1169 1205 825 
Q 1463 481 1925 481 
Q 2391 481 2648 825 
Q 2906 1169 2906 1791 
z
M 3481 434 
Q 3481 -459 3084 -895 
Q 2688 -1331 1869 -1331 
Q 1566 -1331 1297 -1286 
Q 1028 -1241 775 -1147 
L 775 -588 
Q 1028 -725 1275 -790 
Q 1522 -856 1778 -856 
Q 2344 -856 2625 -561 
Q 2906 -266 2906 331 
L 2906 616 
Q 2728 306 2450 153 
Q 2172 0 1784 0 
Q 1141 0 747 490 
Q 353 981 353 1791 
Q 353 2603 747 3093 
Q 1141 3584 1784 3584 
Q 2172 3584 2450 3431 
Q 2728 3278 2906 2969 
L 2906 3500 
L 3481 3500 
L 3481 434 
z
" transform="scale(0.015625)"/>
      </defs>
      <use xlink:href="#DejaVuSans-Oblique-3b8" transform="translate(0 0.234375)"/>
      <use xlink:href="#DejaVuSans-20" transform="translate(61.181641 0.234375)"/>
      <use xlink:href="#DejaVuSans-5b" transform="translate(92.96875 0.234375)"/>
      <use xlink:href="#DejaVuSans-64" transform="translate(131.982422 0.234375)"/>
      <use xlink:href="#DejaVuSans-65" transform="translate(195.458984 0.234375)"/>
      <use xlink:href="#DejaVuSans-67" transform="translate(256.982422 0.234375)"/>
      <use xlink:href="#DejaVuSans-5d" transform="translate(320.458984 0.234375)"/>
     </g>
    </g>
   </g>
   <g id="line2d_11">
    <path d="M 73.832727 175.186605 
L 73.953638 176.951225 
L 74.316383 225.599708 
L 74.558216 186.056746 
L 74.679127 180.917024 
L 74.80005 180.825318 
L 74.92096 178.401295 
L 75.041872 161.468942 
L 75.162794 199.657198 
L 75.283705 193.500468 
L 75.525539 165.81722 
L 75.64645 172.000625 
L 75.767361 159.772209 
L 75.888284 164.187161 
L 76.009195 164.208475 
L 76.251029 186.935207 
L 76.492863 145.49866 
L 76.613774 174.169291 
L 76.855608 153.875184 
L 76.976519 161.233439 
L 77.09743 190.670061 
L 77.218353 157.463112 
L 77.339264 174.346309 
L 77.460175 143.63462 
L 77.581098 157.714146 
L 77.82292 125.716479 
L 77.943843 155.487266 
L 78.185665 116.993511 
L 78.306588 128.847451 
L 78.427499 160.531747 
L 78.54841 126.018797 
L 78.911167 173.504712 
L 79.032078 121.226746 
L 79.152988 126.001691 
L 79.273912 151.601443 
L 79.515733 100.435577 
L 79.636656 164.775028 
L 79.757567 134.255878 
L 79.878478 141.617836 
L 79.999401 132.674233 
L 80.120312 153.533603 
L 80.241223 111.508121 
L 80.362146 148.348903 
L 80.483057 123.561732 
L 80.603968 165.55607 
L 80.724891 163.160265 
L 80.966713 133.771239 
L 81.087636 141.749868 
L 81.208547 115.349411 
L 81.329458 154.820804 
L 81.571292 147.990105 
L 81.692215 158.508176 
L 81.813126 150.628005 
L 82.175871 216.257221 
L 82.296782 174.981845 
L 82.417705 192.011805 
L 82.538616 163.844215 
L 82.78045 178.775641 
L 82.901361 140.729386 
L 83.143195 185.908904 
L 83.264106 167.57063 
L 83.385016 130.953867 
L 83.626851 168.915128 
L 83.747761 165.848134 
L 83.868684 159.232981 
L 83.989595 143.937505 
L 84.110506 161.10507 
L 84.231429 157.864851 
L 84.473251 131.245817 
L 84.594174 165.048358 
L 84.715085 135.798945 
L 84.836008 187.118742 
L 84.956919 152.349729 
L 85.198753 173.320729 
L 85.319664 132.503027 
L 85.561498 166.959609 
L 85.682409 173.993704 
L 85.80332 141.821416 
L 85.924243 148.762116 
L 86.045154 122.51504 
L 86.52881 133.824041 
L 86.649728 127.872347 
L 86.770639 166.047224 
L 87.012473 121.719069 
L 87.133384 126.605285 
L 87.254295 125.175219 
L 87.375218 132.435354 
L 87.496129 128.694796 
L 87.737963 164.597722 
L 87.858874 156.556301 
L 87.979785 133.848377 
L 88.100708 157.929278 
L 88.221619 142.630928 
L 88.463453 160.212199 
L 88.584364 157.222851 
L 88.705275 195.82916 
L 88.947109 139.883037 
L 89.188943 164.086989 
L 89.309854 174.909402 
L 89.551688 118.494947 
L 89.672599 148.98865 
L 89.793522 132.871891 
L 90.035343 177.152181 
L 90.156266 181.701295 
L 90.519011 110.561065 
L 90.760833 162.667243 
L 90.881756 180.706106 
L 91.002667 168.007346 
L 91.123578 173.273971 
L 91.244501 143.238937 
L 91.365412 173.250346 
L 91.607246 169.123362 
L 91.728157 123.397017 
L 91.969991 156.509966 
L 92.090902 182.363873 
L 92.211813 173.445041 
L 92.332736 202.086525 
L 92.453647 199.624937 
L 92.574558 174.30538 
L 92.695481 180.778531 
L 92.816392 165.217492 
L 92.937303 183.399911 
L 93.30006 142.762773 
L 93.420971 186.373018 
L 93.662805 157.656408 
L 93.783716 180.342651 
L 94.146461 141.926775 
L 94.267371 160.224188 
L 94.388294 129.173905 
L 94.509205 155.515811 
L 94.630116 154.647229 
L 94.751039 167.425227 
L 94.87195 213.863681 
L 94.992861 208.977806 
L 95.234695 173.067528 
L 95.355606 184.630502 
L 95.476529 176.241973 
L 95.59744 175.650486 
L 95.839274 189.070257 
L 95.960185 162.432443 
L 96.081096 217.879474 
L 96.202019 193.442675 
L 96.32293 143.781386 
L 96.443841 153.05103 
L 96.564764 141.534769 
L 96.806586 182.52783 
L 96.927509 134.469812 
L 97.169331 174.173175 
L 97.290254 173.944809 
L 97.411165 169.785511 
L 97.532076 130.112949 
L 98.015744 182.230343 
L 98.136655 134.921988 
L 98.257566 151.543766 
L 98.378489 141.674255 
L 98.620318 169.714932 
L 98.741241 165.427072 
L 98.862152 156.222344 
L 99.103986 192.687586 
L 99.34582 159.95101 
L 99.466731 211.497502 
L 99.708565 154.899588 
L 99.950387 183.395575 
L 100.07131 151.86376 
L 100.313131 179.82333 
L 100.434055 194.920174 
L 100.554965 161.979912 
L 100.675877 162.873873 
L 100.7968 162.139733 
L 100.91771 162.139733 
L 101.159544 196.219735 
L 101.280455 149.694793 
L 101.401366 172.406119 
L 101.522289 149.998767 
L 101.6432 168.19975 
L 101.764111 157.419193 
L 101.885034 118.112026 
L 102.005945 162.043934 
L 102.126856 164.197236 
L 102.247779 136.215998 
L 102.36869 159.970779 
L 102.610524 140.399315 
L 102.731435 156.679097 
L 102.852346 197.533136 
L 103.215091 130.607837 
L 103.456925 149.304899 
L 103.698759 188.070857 
L 103.81967 200.632124 
L 103.940581 170.607012 
L 104.061504 206.896914 
L 104.303326 195.158379 
L 104.54516 168.221352 
L 104.666071 176.040991 
L 104.786994 167.573471 
L 104.907904 202.748163 
L 105.028816 197.058925 
L 105.149738 205.091389 
L 105.270649 189.422665 
L 105.512483 135.016504 
L 105.754305 172.256637 
L 105.996139 188.767307 
L 106.11705 155.057115 
L 106.237973 158.168083 
L 106.358884 168.758434 
L 106.479795 164.04635 
L 106.600718 194.695036 
L 106.84254 154.361974 
L 106.963463 198.429579 
L 107.084374 191.440022 
L 107.205285 209.457738 
L 107.56803 185.16922 
L 107.688953 197.680876 
L 107.809864 191.070098 
L 107.930775 156.429918 
L 108.051698 167.672866 
L 108.172609 137.831261 
L 108.29352 186.555518 
L 108.414443 162.380198 
L 108.535354 160.428787 
L 108.656265 169.481463 
L 108.898099 212.735871 
L 109.01901 172.918289 
L 109.260844 215.161134 
L 109.381754 223.47758 
L 109.623588 174.053332 
L 109.865422 162.847661 
L 110.107244 224.343792 
L 110.228167 225.279303 
L 110.349078 235.052133 
L 110.469989 202.101455 
L 110.590912 209.720528 
L 110.711823 208.657713 
L 110.832734 181.285901 
L 110.953657 215.111051 
L 111.195479 148.150734 
L 111.316402 194.25246 
L 111.437313 187.356426 
L 111.558224 156.457101 
L 111.800058 227.351916 
L 111.920981 188.794563 
L 112.162803 224.246592 
L 112.283714 219.747024 
L 112.404637 199.701285 
L 112.525548 208.561171 
L 112.646471 158.111732 
L 113.009203 197.860497 
L 113.130126 162.064033 
L 113.251038 199.004555 
L 113.492872 165.425782 
L 113.613782 161.224208 
L 113.734693 179.530199 
L 113.855616 177.602777 
L 114.097438 156.871985 
L 114.339272 209.674889 
L 114.460183 173.059548 
L 114.581106 181.883405 
L 114.822928 162.237411 
L 115.306596 189.475333 
L 115.427507 170.985627 
L 115.548418 177.963303 
L 115.669341 214.330884 
L 115.911163 187.29185 
L 116.032086 192.349564 
L 116.152997 208.774562 
L 116.273908 194.123909 
L 116.394831 209.526288 
L 116.878487 173.874064 
L 116.999398 178.214227 
L 117.120321 200.944245 
L 117.241232 199.518331 
L 117.483066 155.657083 
L 117.603976 156.041125 
L 117.724887 177.117676 
L 117.84581 169.255511 
L 117.966721 199.572824 
L 118.087632 160.252934 
L 118.208555 188.825791 
L 118.329466 180.691941 
L 118.450377 151.385753 
L 118.692211 190.943264 
L 118.813122 181.839398 
L 118.934045 190.741357 
L 119.054956 177.155842 
L 119.175867 184.012675 
L 119.29679 173.073232 
L 119.417701 151.034733 
L 119.538612 152.907896 
L 119.659535 152.677861 
L 119.901357 186.532604 
L 120.02228 162.39255 
L 120.143191 179.41962 
L 120.264102 169.327955 
L 120.385025 123.778245 
L 120.505936 150.554366 
L 120.626847 136.088798 
L 120.74777 140.413857 
L 120.868681 176.433551 
L 121.110515 122.211062 
L 121.352337 171.252992 
L 121.47326 182.874902 
L 121.715082 100.169985 
L 121.956916 168.323049 
L 122.077826 168.136138 
L 122.198749 170.947934 
L 122.440571 153.426519 
L 122.682405 177.219872 
L 122.803318 175.30647 
L 122.924241 197.205617 
L 123.045152 157.797737 
L 123.166063 184.172404 
L 123.286986 183.547089 
L 123.407897 206.844118 
L 123.649731 160.610518 
L 123.770642 149.360677 
L 123.891553 179.111428 
L 124.012476 164.00102 
L 124.133387 165.442672 
L 124.254298 187.226217 
L 124.375221 162.399832 
L 124.496132 162.734531 
L 124.737966 103.442658 
L 124.858877 130.630873 
L 125.100699 104.210193 
L 125.221622 136.588651 
L 125.342533 95.461328 
L 125.584367 117.428286 
L 125.705278 85.727781 
L 125.826188 91.733947 
L 126.068022 152.078342 
L 126.188933 181.495707 
L 126.309856 163.516191 
L 126.430767 127.853661 
L 126.551678 134.717141 
L 126.672601 104.431762 
L 126.914423 164.239729 
L 127.156257 96.275006 
L 127.277168 137.885709 
L 127.398091 138.776753 
L 127.639913 124.354517 
L 127.760836 164.693823 
L 127.881747 144.208935 
L 128.002658 191.433122 
L 128.244492 158.837754 
L 128.365403 177.031009 
L 128.607237 148.725195 
L 128.728148 141.012081 
L 128.849071 176.03856 
L 128.969982 155.237567 
L 129.090893 153.6647 
L 129.211816 174.625219 
L 129.453638 175.83514 
L 129.574561 171.327213 
L 129.695472 171.327213 
L 129.816383 149.782259 
L 130.058217 178.333115 
L 130.179127 177.356351 
L 130.30005 205.421479 
L 130.420961 197.970132 
L 130.541872 170.310562 
L 130.783706 188.351328 
L 130.904617 150.374727 
L 131.025528 150.127072 
L 131.146451 144.773344 
L 131.267362 163.936559 
L 131.388273 140.596837 
L 131.509196 182.926839 
L 131.630107 173.059933 
L 131.871941 114.360855 
L 132.113763 81.574702 
L 132.476508 166.044254 
L 132.718342 144.220722 
L 132.960176 167.66879 
L 133.081087 144.238342 
L 133.201998 147.544614 
L 133.564743 140.818922 
L 133.685666 179.851116 
L 133.927488 160.170496 
L 134.048411 171.882429 
L 134.169322 202.168123 
L 134.290232 178.450842 
L 134.411155 211.024749 
L 134.532066 172.623052 
L 134.652977 195.258146 
L 134.7739 181.571136 
L 134.894811 183.409787 
L 135.015722 155.635146 
L 135.136645 161.923202 
L 135.257556 151.013456 
L 135.378467 155.314766 
L 135.499378 180.833693 
L 135.620301 134.953828 
L 135.741212 156.264251 
L 135.862123 211.32489 
L 136.345791 129.442829 
L 136.587612 154.252021 
L 136.708535 142.34485 
L 136.829446 179.999512 
L 137.07128 169.870967 
L 137.192191 182.978246 
L 137.313102 141.19677 
L 137.434025 166.870226 
L 137.554936 165.524542 
L 137.675847 170.570896 
L 137.79677 164.792562 
L 137.917681 166.12836 
L 138.038592 157.783689 
L 138.159515 122.055057 
L 138.401337 159.550844 
L 138.52226 160.47898 
L 138.643171 183.257792 
L 138.764082 182.028006 
L 139.005916 200.152361 
L 139.126827 193.696527 
L 139.247738 170.377904 
L 139.489572 230.666012 
L 139.610483 194.268736 
L 139.731406 243.324793 
L 139.852317 238.570578 
L 140.094151 193.179643 
L 140.577807 235.982159 
L 140.698717 223.696837 
L 140.81964 234.799762 
L 140.940551 225.363678 
L 141.061462 177.516195 
L 141.182385 186.094519 
L 141.303296 179.298215 
L 141.424207 181.690837 
L 141.786952 201.318941 
L 141.907875 179.140068 
L 142.028786 198.873962 
L 142.270608 186.025685 
L 142.391531 182.081804 
L 142.512442 168.456684 
L 142.754276 262.527658 
L 143.117021 177.865967 
L 143.237932 175.806072 
L 143.358843 178.181757 
L 143.479766 200.891807 
L 143.600677 163.954444 
L 143.721588 178.810184 
L 143.963422 246.349302 
L 144.205256 187.677313 
L 144.326167 187.677313 
L 144.447078 195.102343 
L 144.568001 189.305885 
L 144.809822 165.544693 
L 145.051656 142.455772 
L 145.172567 168.340902 
L 145.293478 155.239829 
L 145.414401 182.483409 
L 145.535312 152.180037 
L 145.777146 214.899352 
L 145.898057 179.961693 
L 146.018968 189.973054 
L 146.139891 177.452295 
L 146.260802 202.642043 
L 146.381713 188.398543 
L 146.502636 188.121866 
L 146.623547 179.793169 
L 146.744458 206.306827 
L 146.986288 172.841546 
L 147.107198 160.615226 
L 147.228121 167.292288 
L 147.349032 197.316019 
L 147.469943 173.278619 
L 147.590854 219.533095 
L 147.711777 193.970361 
L 147.832688 192.937035 
L 147.953599 187.95825 
L 148.074522 207.785192 
L 148.195433 200.44384 
L 148.316344 218.84355 
L 148.437267 186.087381 
L 148.679089 212.666724 
L 148.800012 253.220024 
L 148.920923 256.489467 
L 149.162757 194.609837 
L 149.283668 191.245663 
L 149.646413 231.129545 
L 149.888235 189.15796 
L 150.009158 205.59352 
L 150.130069 197.304212 
L 150.25098 228.390957 
L 150.492814 167.450229 
L 150.613725 174.194674 
L 150.97647 224.629847 
L 151.218303 204.029494 
L 151.339214 214.720095 
L 151.460137 182.373854 
L 151.581048 202.957735 
L 151.701959 195.838224 
L 151.822882 212.021331 
L 151.943793 175.473995 
L 152.064704 180.125956 
L 152.306538 159.74566 
L 152.427449 166.599 
L 152.54836 186.804137 
L 152.790194 128.610906 
L 153.032028 215.023292 
L 153.152939 211.610731 
L 153.27385 214.19257 
L 153.394773 198.665568 
L 153.515684 210.214272 
L 153.636595 209.14635 
L 153.757518 201.949102 
L 153.878429 208.485213 
L 153.99934 197.251046 
L 154.120263 210.791827 
L 154.241174 210.353731 
L 154.362085 207.818457 
L 154.603919 197.664721 
L 154.84574 158.826693 
L 154.966664 190.408415 
L 155.087574 188.170195 
L 155.329408 210.161061 
L 155.57123 162.365758 
L 155.692153 186.056432 
L 155.813064 183.592356 
L 155.933975 218.642699 
L 156.29672 158.757154 
L 156.417631 152.282568 
L 156.538554 170.628892 
L 156.659465 211.815938 
L 156.901299 185.277104 
L 157.143121 220.570292 
L 157.264044 196.622045 
L 157.384955 216.247689 
L 157.505866 256.123718 
L 157.626789 205.739353 
L 157.7477 211.372203 
L 157.868611 251.44494 
L 158.231356 190.65673 
L 158.352279 210.564248 
L 158.594101 212.101159 
L 158.715012 212.101159 
L 159.077756 181.283138 
L 159.19868 178.281215 
L 159.31959 206.114338 
L 159.440502 207.544306 
L 159.561424 199.450043 
L 159.682335 212.127415 
L 159.803246 200.507627 
L 160.04508 214.119318 
L 160.165991 207.065469 
L 160.286902 188.700482 
L 160.407825 201.52481 
L 160.528736 195.945726 
L 160.649647 197.113695 
L 160.77057 189.153965 
L 160.891481 266.106721 
L 161.012392 223.279444 
L 161.133315 226.812997 
L 161.254226 262.678518 
L 161.375137 216.933638 
L 161.49606 226.549726 
L 161.737882 223.48738 
L 161.858805 235.44157 
L 162.100627 215.761723 
L 162.221538 226.626173 
L 162.342461 181.78485 
L 162.463372 178.430157 
L 162.584283 166.063695 
L 162.705206 186.86013 
L 162.826117 177.40505 
L 162.947028 148.259112 
L 163.188862 164.529939 
L 163.309772 163.915269 
L 163.430696 188.09881 
L 163.551606 184.669588 
L 163.672517 191.778413 
L 163.793428 169.783465 
L 164.156173 208.093338 
L 164.277096 208.167996 
L 164.398007 173.190079 
L 164.518918 174.15297 
L 164.639841 262.006142 
L 164.760752 232.408184 
L 164.881663 237.612093 
L 165.123497 215.564979 
L 165.486242 250.451311 
L 165.607153 240.089621 
L 165.728064 241.60993 
L 165.969898 217.444766 
L 166.090809 237.401379 
L 166.211732 190.701668 
L 166.332643 207.815318 
L 166.574477 197.955901 
L 166.816299 200.03965 
L 167.058133 220.087136 
L 167.299954 203.585056 
L 167.420878 215.0822 
L 167.541788 180.399052 
L 167.6627 222.575777 
L 167.783622 223.291361 
L 167.904533 206.668219 
L 168.146367 214.445579 
L 168.388189 239.176448 
L 168.509112 218.200216 
L 168.630023 217.621691 
L 168.750934 202.325638 
L 168.871845 221.263453 
L 168.992768 191.073185 
L 169.23459 209.602632 
L 169.355513 191.916309 
L 169.597335 217.455155 
L 169.839169 193.196201 
L 169.96008 227.469365 
L 170.443736 165.963913 
L 170.564659 171.602849 
L 170.806481 200.988745 
L 170.927412 219.774595 
L 171.048323 188.802282 
L 171.169234 208.792328 
L 171.290157 199.817454 
L 171.411068 180.781623 
L 171.531979 212.240388 
L 171.773812 206.951793 
L 172.015634 210.879117 
L 172.136557 218.365249 
L 172.378379 181.348015 
L 172.499302 189.653785 
L 172.862047 232.559601 
L 172.982958 224.665735 
L 173.103869 224.665735 
L 173.22478 205.711779 
L 173.345703 204.5186 
L 173.466614 217.235671 
L 173.587525 213.28195 
L 173.708448 165.127493 
L 173.829359 161.813879 
L 173.95027 172.801606 
L 174.071193 200.593899 
L 174.192104 192.977428 
L 174.313015 194.40141 
L 174.433938 184.652752 
L 174.554849 209.396821 
L 174.67576 200.997957 
L 175.038505 155.471382 
L 175.159416 179.72101 
L 175.280339 163.289214 
L 175.40125 170.268506 
L 175.522161 162.891265 
L 175.643084 168.64588 
L 175.884905 185.526995 
L 176.126739 187.139511 
L 176.24765 207.156407 
L 176.368561 168.768985 
L 176.610395 190.188776 
L 176.852229 135.592111 
L 176.97314 176.681433 
L 177.214962 116.835821 
L 177.335885 119.198512 
L 177.577707 159.607735 
L 177.69863 172.132523 
L 177.819541 224.296443 
L 177.940452 172.109855 
L 178.061375 177.802086 
L 178.303197 112.975504 
L 178.42412 157.491131 
L 178.545031 157.828199 
L 178.665942 159.767997 
L 178.786853 159.850154 
L 178.907776 180.965058 
L 179.028687 160.242826 
L 179.149598 188.245888 
L 179.391432 124.311806 
L 179.512343 155.881828 
L 179.633266 152.831072 
L 179.754177 137.944157 
L 179.995998 181.407421 
L 180.116921 178.270608 
L 180.358743 214.463628 
L 180.479666 134.186706 
L 180.721488 179.508528 
L 180.963322 109.869424 
L 181.084233 125.837585 
L 181.205144 121.813204 
L 181.326067 145.017746 
L 181.446978 122.33745 
L 182.051557 208.492215 
L 182.293379 194.644708 
L 182.535213 144.083018 
L 182.656124 127.727901 
L 182.777035 159.656369 
L 182.897957 154.866771 
L 183.018868 135.868137 
L 183.139779 149.587437 
L 183.260702 134.365743 
L 183.381613 145.389858 
L 183.502524 175.57691 
L 183.623435 155.816758 
L 183.865269 210.61504 
L 183.98618 163.140025 
L 184.107103 197.278929 
L 184.228014 161.217645 
L 184.469848 184.353138 
L 184.590759 183.389215 
L 184.71167 149.573548 
L 184.832581 165.332565 
L 184.953504 164.505733 
L 185.074415 164.7789 
L 185.195326 192.512469 
L 185.316249 189.18557 
L 185.43716 198.160486 
L 185.558071 161.480515 
L 185.678994 175.821622 
L 185.799905 171.112208 
L 186.041727 175.95404 
L 186.162649 175.76573 
L 186.404471 214.059127 
L 186.525394 195.650768 
L 186.646305 201.76279 
L 186.767216 179.068939 
L 186.888139 201.964136 
L 187.00905 190.072204 
L 187.250872 156.867447 
L 187.371795 165.875634 
L 187.492706 196.542821 
L 187.613617 196.542821 
L 187.73454 181.998944 
L 187.855451 141.65449 
L 188.097273 192.417779 
L 188.339107 167.946761 
L 188.460018 191.708824 
L 188.580941 176.618152 
L 188.701852 181.483691 
L 188.822763 197.905436 
L 189.064597 192.935294 
L 189.185508 170.231388 
L 189.306419 204.942756 
L 189.548253 193.720821 
L 189.669164 165.705041 
L 189.910998 198.381138 
L 190.394653 128.972505 
L 190.636487 175.085753 
L 190.757398 189.541982 
L 190.999232 155.392447 
L 191.120143 154.450453 
L 191.241054 150.800144 
L 191.482888 186.3448 
L 191.603799 177.928932 
L 191.845633 146.746962 
L 191.966544 177.847968 
L 192.329289 129.161638 
L 192.4502 147.406297 
L 192.571111 141.151967 
L 192.692034 164.418182 
L 192.812945 166.294285 
L 193.054779 141.123184 
L 193.17569 187.553529 
L 193.296601 185.337706 
L 193.417512 177.449185 
L 193.538435 155.0729 
L 193.780257 194.156441 
L 193.90118 200.679528 
L 194.022091 218.470494 
L 194.263925 174.34811 
L 194.384835 194.623031 
L 194.505746 187.130632 
L 194.626657 202.075676 
L 194.74758 153.203594 
L 194.989402 204.106429 
L 195.110325 197.057581 
L 195.352147 146.827721 
L 195.47307 160.482774 
L 195.593981 149.207831 
L 195.714892 183.663174 
L 195.835803 174.976307 
L 195.956726 199.472177 
L 196.077637 178.097455 
L 196.319471 197.688215 
L 196.440382 180.023512 
L 196.561293 232.001095 
L 196.682204 200.295247 
L 196.803127 200.625028 
L 196.924038 208.611706 
L 197.044949 208.832069 
L 197.165872 227.007314 
L 197.407694 183.018975 
L 197.528605 191.835404 
L 197.770439 171.855779 
L 197.89135 178.196236 
L 198.133184 214.888321 
L 198.254095 166.283997 
L 198.858673 223.149878 
L 198.979584 200.95516 
L 199.221418 236.848062 
L 199.342329 224.652696 
L 199.46324 185.368994 
L 199.705074 215.566835 
L 199.825985 191.684047 
L 199.946896 223.785139 
L 200.067819 156.672551 
L 200.309641 214.277293 
L 200.430552 174.93562 
L 200.672386 181.861713 
L 200.793297 181.315911 
L 200.91422 180.125333 
L 201.035131 181.870901 
L 201.156042 163.083417 
L 201.639698 197.38684 
L 201.760621 189.013712 
L 201.881532 149.456155 
L 202.002443 186.469396 
L 202.123366 186.469396 
L 202.244277 195.380903 
L 202.365188 177.458148 
L 202.607021 241.424684 
L 202.848843 184.564947 
L 203.090677 217.809311 
L 203.211588 226.11212 
L 203.332499 203.030362 
L 203.453422 229.687522 
L 203.574333 213.791417 
L 203.695244 227.974796 
L 203.816167 265.667732 
L 204.057989 230.487483 
L 204.178912 227.346762 
L 204.299823 234.195592 
L 204.420734 227.827943 
L 204.541645 188.294443 
L 204.662568 222.104461 
L 204.783479 212.622055 
L 204.90439 221.20472 
L 205.025313 219.599306 
L 205.267135 241.442499 
L 205.508969 222.621709 
L 205.62988 232.128468 
L 205.750791 227.160814 
L 205.992625 170.347486 
L 206.113536 226.56671 
L 206.234459 228.575899 
L 206.597191 169.930941 
L 206.718114 168.460896 
L 206.839025 214.735301 
L 206.959939 173.889065 
L 207.080862 179.251338 
L 207.201773 162.220988 
L 207.322684 168.672205 
L 207.443595 200.809916 
L 207.564518 199.36667 
L 207.80634 232.010773 
L 207.927263 208.015394 
L 208.169085 233.327336 
L 208.410919 211.916005 
L 208.652741 227.484674 
L 208.773664 215.108336 
L 208.894575 190.583426 
L 209.015486 189.512487 
L 209.136397 211.234263 
L 209.25732 212.162526 
L 209.378231 234.482049 
L 209.499142 232.274746 
L 209.620065 232.245708 
L 209.740976 238.866304 
L 209.861887 255.74198 
L 210.103721 237.520759 
L 210.224632 226.962875 
L 210.345543 262.184822 
L 210.466466 255.990937 
L 210.708287 208.590879 
L 210.82921 225.409897 
L 211.071032 181.400897 
L 211.191943 217.760668 
L 211.312866 187.477933 
L 211.433777 211.100972 
L 211.554688 197.007572 
L 211.675611 214.555691 
L 211.796522 208.724699 
L 211.917433 269.615444 
L 212.159267 219.927574 
L 212.280178 218.240992 
L 212.522012 204.143519 
L 212.642923 210.193539 
L 212.763834 172.442503 
L 212.884745 198.855662 
L 213.005668 175.564214 
L 213.126579 178.917784 
L 213.24749 237.170141 
L 213.368413 228.374717 
L 213.610235 164.522587 
L 213.731146 157.71441 
L 213.852069 195.085891 
L 214.093891 164.032698 
L 214.214814 202.877516 
L 214.335725 199.659345 
L 214.456636 204.058024 
L 214.577546 179.605887 
L 214.698469 206.080279 
L 214.81938 207.22885 
L 215.061214 262.396804 
L 215.303036 190.475173 
L 215.423947 197.043873 
L 215.54487 183.094583 
L 215.786692 229.595346 
L 215.907603 227.829255 
L 216.028526 175.338594 
L 216.149437 203.784389 
L 216.270348 201.68582 
L 216.391271 223.627483 
L 216.512182 223.627483 
L 216.874927 178.482056 
L 216.995838 167.620812 
L 217.116749 192.434292 
L 217.237672 159.593544 
L 217.358583 199.708649 
L 217.600405 156.286343 
L 217.721328 161.164453 
L 217.96315 201.773903 
L 218.204984 140.325011 
L 218.325895 180.9269 
L 218.688639 132.279482 
L 218.80955 192.021681 
L 219.05138 123.165112 
L 219.293202 166.284252 
L 219.414125 182.590967 
L 219.535036 152.495446 
L 219.655947 151.009166 
L 219.897781 197.44933 
L 220.018692 172.837085 
L 220.139603 202.993643 
L 220.260526 186.418228 
L 220.381437 187.459899 
L 220.502348 147.244312 
L 220.744182 203.336395 
L 220.865092 179.240975 
L 221.106926 212.130265 
L 221.348748 158.658624 
L 221.469659 186.710388 
L 221.590582 186.133641 
L 221.711493 184.479166 
L 221.832404 167.624907 
L 221.953327 185.085644 
L 222.195149 154.960539 
L 222.31606 177.903928 
L 222.436983 165.985481 
L 222.557894 172.721263 
L 222.678805 168.955235 
L 222.799716 194.886348 
L 222.920639 165.740574 
L 223.04155 168.733149 
L 223.162461 161.30963 
L 223.283384 163.971099 
L 223.404295 150.785578 
L 223.525206 172.092949 
L 223.76704 133.490787 
L 223.887951 155.927098 
L 224.008862 143.953788 
L 224.250696 181.834068 
L 224.371607 157.588459 
L 224.734352 180.724081 
L 224.855262 167.556741 
L 224.976173 139.749296 
L 225.097096 145.584023 
L 225.338918 131.349149 
L 225.459841 167.481347 
L 225.580752 166.655308 
L 225.822574 140.708559 
L 225.943497 150.059669 
L 226.064408 145.619822 
L 226.185319 123.646203 
L 226.427153 177.897773 
L 226.789898 122.377906 
L 226.910809 167.83019 
L 227.03172 162.081436 
L 227.152631 140.873323 
L 227.273554 178.396175 
L 227.394465 174.456655 
L 227.515376 182.775739 
L 227.75721 166.430916 
L 227.878121 186.877258 
L 227.999032 165.496626 
L 228.119955 163.915949 
L 228.361777 187.899864 
L 228.724521 113.69268 
L 228.966355 152.406219 
L 229.087266 174.451906 
L 229.329088 165.620808 
L 229.450011 151.048954 
L 229.570922 171.852933 
L 229.691833 166.459876 
L 229.812744 147.277885 
L 229.933667 174.422296 
L 230.054578 115.395049 
L 230.659145 192.427361 
L 230.780068 143.446735 
L 230.900979 143.446735 
L 231.142812 171.046965 
L 231.263723 165.028919 
L 231.384634 190.855209 
L 231.505545 161.144606 
L 231.747379 189.976091 
L 231.86829 180.611632 
L 231.989201 197.226817 
L 232.110124 166.769051 
L 232.231035 226.075544 
L 232.472869 166.15435 
L 232.71469 170.921485 
L 232.835601 184.498772 
L 232.956524 170.997519 
L 233.077435 138.17444 
L 233.319257 162.626113 
L 233.44018 157.515266 
L 233.682002 184.871636 
L 233.802925 158.283664 
L 233.923836 158.949159 
L 234.165658 138.419009 
L 234.286581 148.130846 
L 234.407492 141.664447 
L 234.528403 160.178806 
L 234.649314 148.570676 
L 234.891148 155.976356 
L 235.132982 138.284647 
L 235.253893 182.071081 
L 235.616638 139.830399 
L 235.737549 170.388068 
L 235.85846 161.694776 
L 236.100294 121.488449 
L 236.221205 119.522308 
L 236.342116 134.815361 
L 236.463027 135.0943 
L 236.58395 124.586397 
L 236.70486 162.27392 
L 236.825771 160.372961 
L 237.188516 134.246658 
L 237.309427 133.458277 
L 237.43035 119.181019 
L 237.551261 139.055545 
L 237.672172 137.14559 
L 237.793083 119.604383 
L 238.034917 145.532856 
L 238.155828 171.552667 
L 238.276751 159.690713 
L 238.397662 172.826265 
L 238.518573 147.452668 
L 238.760407 158.708815 
L 238.881318 155.161381 
L 239.12314 172.726608 
L 239.244063 143.830846 
L 239.485885 167.54569 
L 239.606796 130.911879 
L 239.727719 164.8981 
L 239.84863 162.898586 
L 239.969541 153.405154 
L 240.090464 196.920452 
L 240.332286 170.465678 
L 240.453197 189.9487 
L 240.57412 171.931567 
L 240.69503 188.138475 
L 240.936852 150.984518 
L 241.057775 161.566463 
L 241.299597 149.951021 
L 241.42052 163.630045 
L 241.541431 199.629492 
L 241.904176 153.175358 
L 242.025087 150.488153 
L 242.145998 166.860825 
L 242.266909 147.3442 
L 242.387832 165.287559 
L 242.629654 156.641051 
L 242.750565 194.620457 
L 242.992399 170.917967 
L 243.113311 186.23594 
L 243.234234 159.745727 
L 243.596967 180.914917 
L 243.71789 167.131362 
L 243.959712 205.96026 
L 244.080623 152.480984 
L 244.322457 203.546847 
L 244.685202 142.652015 
L 244.806112 220.683288 
L 245.047946 132.75575 
L 245.168857 119.0013 
L 245.289768 154.047424 
L 245.410679 154.047424 
L 245.531602 171.42375 
L 245.773424 142.170662 
L 245.894335 129.174551 
L 246.015258 161.647826 
L 246.136169 162.279383 
L 246.25708 165.760431 
L 246.498914 141.789091 
L 246.619825 147.826212 
L 246.861659 191.210437 
L 246.98257 156.4706 
L 247.103481 197.139114 
L 247.466226 149.050323 
L 247.587137 168.08564 
L 247.708048 147.737213 
L 247.949882 200.136361 
L 248.070793 192.598863 
L 248.433537 154.55269 
L 248.554449 157.693978 
L 248.796282 182.718142 
L 248.917193 164.423386 
L 249.038104 173.554868 
L 249.159027 205.381125 
L 249.279938 176.544822 
L 249.400849 202.759567 
L 249.52176 166.033892 
L 249.642683 170.945025 
L 249.763594 225.625393 
L 250.126339 146.178749 
L 250.368161 163.107746 
L 250.489072 146.447851 
L 250.609995 151.50974 
L 250.730906 143.677077 
L 250.851817 160.795622 
L 250.972728 161.342969 
L 251.093651 153.143456 
L 251.214562 159.310369 
L 251.335473 148.053053 
L 251.577307 187.231375 
L 251.698218 173.692495 
L 251.819129 179.681887 
L 251.940052 179.062044 
L 252.181874 155.565046 
L 252.302785 153.855019 
L 252.423707 168.098151 
L 252.665529 139.774377 
L 252.907363 164.648309 
L 253.028274 189.531677 
L 253.149185 154.042929 
L 253.270096 153.433686 
L 253.391019 128.849334 
L 253.753764 157.56751 
L 253.874675 181.606124 
L 253.995586 134.554392 
L 254.116497 174.388015 
L 254.358331 146.891932 
L 254.600153 176.516907 
L 254.721076 190.379556 
L 254.841987 142.360556 
L 254.962898 164.014931 
L 255.083809 144.684305 
L 255.204724 148.848632 
L 255.325635 163.238215 
L 255.567457 137.487938 
L 255.68838 164.376475 
L 255.930202 146.745774 
L 256.172036 174.70832 
L 256.292947 188.931212 
L 256.655692 144.096829 
L 256.776603 148.556889 
L 257.018437 114.904461 
L 257.139348 95.890916 
L 257.260259 105.599856 
L 257.502093 142.809579 
L 257.623004 149.861334 
L 257.743915 134.398208 
L 257.985749 157.031893 
L 258.10666 142.916158 
L 258.227571 145.831102 
L 258.348482 133.950872 
L 258.469405 133.230895 
L 258.711226 188.473032 
L 258.832137 157.110178 
L 258.95306 208.833275 
L 259.194882 170.026448 
L 259.315793 171.690672 
L 259.436716 155.996499 
L 259.557627 125.407273 
L 259.678538 125.407273 
L 259.799449 166.738876 
L 260.041283 131.205005 
L 260.162194 173.325834 
L 260.404028 127.355226 
L 260.524939 132.960828 
L 260.766773 159.236974 
L 261.008595 97.528412 
L 261.129506 142.618264 
L 261.250429 87.698512 
L 261.37134 118.654021 
L 261.492251 121.035641 
L 261.613162 145.287343 
L 261.734085 108.953396 
L 261.975907 150.023677 
L 262.096818 116.269968 
L 262.217741 145.343814 
L 262.338652 141.688356 
L 262.459562 147.19517 
L 262.580473 180.623131 
L 262.822307 172.429435 
L 263.185052 83.086423 
L 263.668708 132.007411 
L 263.789619 124.11343 
L 263.91053 135.662528 
L 264.031441 114.412701 
L 264.394186 165.115889 
L 264.515097 141.80862 
L 264.756931 170.848214 
L 264.998753 108.796544 
L 265.119676 126.430095 
L 265.240587 174.009041 
L 265.361498 108.767529 
L 265.482409 172.998548 
L 265.724243 93.386333 
L 265.966077 139.326356 
L 266.086988 108.598346 
L 266.207899 107.663613 
L 266.328809 97.214147 
L 266.449732 132.980321 
L 266.570643 132.73388 
L 266.691554 95.393953 
L 266.933376 126.770359 
L 267.054299 89.427271 
L 267.296132 115.565425 
L 267.417055 109.337668 
L 267.537966 93.586689 
L 267.658877 114.531191 
L 267.779788 95.949124 
L 268.142533 124.04024 
L 268.263444 163.102366 
L 268.505278 108.266881 
L 268.626189 128.513864 
L 268.7471 108.436744 
L 268.988934 141.887059 
L 269.109845 135.822754 
L 269.351679 141.399756 
L 269.47259 177.028178 
L 269.593501 175.224128 
L 269.714412 125.157203 
L 269.835335 127.170102 
L 269.956246 139.48932 
L 270.198068 130.342973 
L 270.439902 98.16689 
L 270.560812 126.451589 
L 270.681723 122.742736 
L 270.802646 154.528138 
L 270.923557 111.894662 
L 271.044468 117.8639 
L 271.165379 131.566854 
L 271.286302 118.644487 
L 271.407213 130.991412 
L 271.649035 53.568 
L 271.890869 115.239556 
L 272.01178 120.554454 
L 272.253614 105.149902 
L 272.374525 135.160458 
L 272.495436 121.261165 
L 272.616347 90.282007 
L 272.858181 116.935265 
L 272.979092 89.417824 
L 273.100003 128.532186 
L 273.220926 127.009495 
L 273.341837 87.808127 
L 273.462748 129.397598 
L 273.583659 82.915468 
L 273.704582 88.314215 
L 273.946404 111.965203 
L 274.067315 111.965203 
L 274.309149 80.636748 
L 274.55097 109.95901 
L 274.792804 121.70648 
L 274.913715 119.003793 
L 275.034626 105.788869 
L 275.155549 129.868655 
L 275.397371 93.517852 
L 275.518282 120.607599 
L 275.639205 103.782996 
L 275.881027 136.050091 
L 276.001938 129.49338 
L 276.243772 181.875868 
L 276.364683 166.704923 
L 276.485594 112.756072 
L 276.606517 111.290424 
L 276.848339 153.351409 
L 276.96925 122.980542 
L 277.090173 121.922904 
L 277.331995 154.222152 
L 277.69474 106.894546 
L 277.815651 113.66135 
L 277.936562 110.125174 
L 278.057485 151.158842 
L 278.178396 141.53401 
L 278.299307 142.343155 
L 278.420217 153.192711 
L 278.541128 148.053869 
L 278.662051 154.054343 
L 278.903873 130.640556 
L 279.024784 155.040094 
L 279.145707 113.945998 
L 279.266624 148.860032 
L 279.387535 148.606535 
L 279.508446 136.357421 
L 279.629369 143.455168 
L 279.75028 119.948611 
L 279.871191 141.320944 
L 279.992102 125.201583 
L 280.113024 129.269784 
L 280.354846 155.919836 
L 280.475757 153.197581 
L 280.717591 116.236449 
L 280.959413 151.868809 
L 281.201247 121.729402 
L 281.322158 145.745848 
L 281.443069 111.4207 
L 281.563992 124.776198 
L 281.684903 151.571784 
L 281.805814 148.758466 
L 281.926725 154.43045 
L 282.168559 129.669686 
L 282.28947 149.00831 
L 282.410381 141.930367 
L 282.652215 183.623097 
L 282.773126 166.785145 
L 282.894037 180.916873 
L 283.135871 119.123482 
L 283.377693 159.843112 
L 283.619527 105.925558 
L 283.740438 111.723822 
L 283.861349 104.204619 
L 283.982271 140.807633 
L 284.103182 117.147513 
L 284.224094 118.681585 
L 284.465915 106.563484 
L 284.707749 157.529764 
L 284.949571 150.921436 
L 285.191405 160.774305 
L 285.312316 188.734286 
L 285.55415 165.16531 
L 285.675061 175.92923 
L 285.795972 163.82067 
L 285.916883 134.187755 
L 286.037806 134.026178 
L 286.279628 151.018266 
L 286.400539 182.646952 
L 286.521462 182.021233 
L 286.642373 173.427956 
L 286.763284 184.662471 
L 287.005118 209.439182 
L 287.126029 207.758926 
L 287.24694 152.526637 
L 287.488774 176.217458 
L 287.609685 157.922544 
L 287.730596 178.546324 
L 287.851507 165.098554 
L 288.093341 183.196694 
L 288.214251 161.597959 
L 288.335162 161.597959 
L 288.456073 168.729449 
L 288.576996 127.23014 
L 288.697907 144.73113 
L 288.818818 142.090639 
L 289.060652 151.646322 
L 289.181563 102.02348 
L 289.302474 105.231478 
L 289.423385 138.829888 
L 289.665219 108.987402 
L 289.907041 145.791944 
L 290.027964 99.456357 
L 290.269786 159.329529 
L 290.390697 116.846103 
L 290.632531 165.621665 
L 290.753442 127.191635 
L 290.874353 146.668158 
L 290.995264 141.085806 
L 291.116187 145.417453 
L 291.237089 165.383759 
L 291.358 159.445564 
L 291.599834 171.696587 
L 291.841656 144.471789 
L 291.962566 152.347985 
L 292.08349 140.686658 
L 292.446222 193.395834 
L 292.567145 173.316791 
L 292.688056 117.800759 
L 292.808967 120.709455 
L 293.171712 181.02919 
L 293.292623 175.674861 
L 293.534445 137.453734 
L 293.655368 138.242983 
L 293.776279 160.605132 
L 293.89719 141.947159 
L 294.018101 162.789471 
L 294.380846 106.439535 
L 294.62268 143.798729 
L 294.864502 161.582865 
L 294.985413 141.933219 
L 295.106336 161.172487 
L 295.227247 159.467803 
L 295.348158 149.122257 
L 295.469069 163.124284 
L 295.589992 151.708327 
L 295.710902 159.02557 
L 295.831814 142.954415 
L 295.952724 149.390528 
L 296.073635 119.436344 
L 296.315469 197.594695 
L 296.43638 167.552598 
L 296.557291 182.863896 
L 296.678214 170.21293 
L 296.799125 198.761754 
L 297.040947 156.113856 
L 297.16187 172.739918 
L 297.403692 139.218883 
L 297.645526 199.515798 
L 297.887348 144.819359 
L 298.008259 147.65199 
L 298.12917 155.38192 
L 298.250093 124.212578 
L 298.491915 202.79289 
L 298.975571 152.813669 
L 299.096482 159.104875 
L 299.217405 177.664081 
L 299.338316 145.115751 
L 299.459227 187.925889 
L 299.701049 176.09248 
L 299.942882 177.489468 
L 300.063793 162.611229 
L 300.305627 183.810226 
L 300.426538 168.114092 
L 300.547449 191.074282 
L 300.789283 179.083241 
L 300.910194 200.444685 
L 301.152016 161.496893 
L 301.514761 203.258571 
L 301.635672 183.72008 
L 301.756583 189.41792 
L 302.119328 146.358876 
L 302.240239 194.468738 
L 302.361162 163.09809 
L 302.482073 192.669137 
L 302.602984 163.76596 
L 302.723895 163.76596 
L 302.844806 175.903861 
L 302.965729 153.782179 
L 303.08664 154.806291 
L 303.20755 189.409072 
L 303.449377 156.499568 
L 303.570288 189.87072 
L 303.81211 170.588664 
L 304.295766 225.871777 
L 304.779422 134.991646 
L 304.900333 202.384909 
L 305.021256 198.046118 
L 305.142167 174.84002 
L 305.263078 213.33803 
L 305.383989 209.353337 
L 305.504912 166.631842 
L 305.625823 165.741667 
L 305.746734 162.90615 
L 305.867645 135.218777 
L 306.109479 199.256206 
L 306.23039 198.571493 
L 306.351301 178.282263 
L 306.593135 207.583151 
L 306.834957 224.214546 
L 306.955868 220.592762 
L 307.076791 174.447467 
L 307.197702 184.294255 
L 307.318612 169.639309 
L 307.439523 180.811775 
L 307.560434 169.349233 
L 307.681357 174.510606 
L 307.802268 163.0562 
L 307.923179 169.678335 
L 308.04409 182.681904 
L 308.165013 181.940306 
L 308.285924 230.235313 
L 308.406835 230.136352 
L 308.648669 215.531795 
L 308.76958 209.626013 
L 308.890491 218.261428 
L 309.011402 217.456291 
L 309.132313 167.822099 
L 309.253236 221.899735 
L 309.374147 200.526508 
L 309.495058 211.520321 
L 309.615969 200.985232 
L 309.736892 223.273516 
L 309.857803 216.349895 
L 309.978714 153.879052 
L 310.220536 185.787765 
L 310.341459 183.356769 
L 310.583281 170.059625 
L 310.704192 170.069117 
L 310.946026 221.753347 
L 311.066936 204.774879 
L 311.187847 233.678936 
L 311.308758 226.541498 
L 311.429681 234.780905 
L 311.550592 207.256385 
L 311.671503 214.586375 
L 311.792414 229.827906 
L 311.913337 184.728758 
L 312.034248 182.88637 
L 312.155159 186.663684 
L 312.27607 185.436612 
L 312.396993 187.798744 
L 312.638815 156.741201 
L 312.759726 206.98808 
L 312.880637 195.992775 
L 313.00156 162.250036 
L 313.243382 168.98119 
L 313.364293 179.467932 
L 313.606127 153.965984 
L 313.727038 177.850944 
L 313.847949 166.467717 
L 313.96886 167.555301 
L 314.210694 173.558573 
L 314.331605 213.214805 
L 314.452516 204.517532 
L 314.573439 205.360215 
L 314.69435 204.369541 
L 314.815261 173.054304 
L 314.936171 196.35069 
L 315.057082 192.073427 
L 315.178005 218.498363 
L 315.298923 196.725028 
L 315.419834 197.390612 
L 315.540745 207.087436 
L 315.782579 173.526348 
L 315.90349 178.312655 
L 316.024401 198.658636 
L 316.145312 175.751121 
L 316.266235 225.947508 
L 316.508057 163.341047 
L 316.749891 183.555756 
L 316.991713 171.479738 
L 317.112624 171.479738 
L 317.233535 154.752493 
L 317.354458 158.610018 
L 317.475369 178.908117 
L 317.59628 176.933088 
L 317.717191 193.558424 
L 317.838114 156.707052 
L 317.959025 179.695788 
L 318.079936 173.882374 
L 318.200847 146.901725 
L 318.321758 214.092737 
L 318.442681 201.128225 
L 318.563592 203.39352 
L 318.684502 236.498676 
L 318.805414 225.364748 
L 318.926336 232.704213 
L 319.047248 273.827201 
L 319.40998 215.617281 
L 319.530903 222.748857 
L 319.651814 236.923787 
L 319.893636 200.47037 
L 320.13547 234.521495 
L 320.377292 196.976664 
L 320.498203 221.65019 
L 320.740037 202.889067 
L 320.860948 170.412206 
L 320.981859 191.481281 
L 321.102782 246.960907 
L 321.344604 229.580685 
L 321.465515 233.674943 
L 321.707349 178.144392 
L 321.82826 176.315395 
L 322.070082 217.663134 
L 322.191005 214.549199 
L 322.432827 219.951206 
L 322.674649 179.227889 
L 322.795572 219.029062 
L 323.037393 193.566108 
L 323.158304 169.948475 
L 323.279215 172.675794 
L 323.521049 229.177411 
L 323.762871 248.370614 
L 324.004705 189.979306 
L 324.125616 211.119083 
L 324.246527 208.495666 
L 324.367438 210.760894 
L 324.488361 203.960443 
L 324.609272 204.010265 
L 324.730183 151.579635 
L 324.851094 152.448877 
L 324.972017 126.810077 
L 325.213839 201.728446 
L 325.33475 201.454505 
L 325.576584 187.715199 
L 325.697495 195.147833 
L 325.818406 181.980529 
L 325.939317 247.691745 
L 326.302062 163.67272 
L 326.664807 223.617199 
L 326.906628 187.327009 
L 327.027539 188.30791 
L 327.14845 181.569189 
L 327.269373 160.707103 
L 327.390283 192.150865 
L 327.511194 147.815479 
L 327.753016 180.026268 
L 327.873939 172.740275 
L 327.99485 187.125043 
L 328.357595 132.506043 
L 328.599416 189.774889 
L 328.720327 190.981392 
L 328.841238 190.585298 
L 329.083072 173.901911 
L 329.203983 190.221636 
L 329.445805 160.737093 
L 329.687639 167.361281 
L 329.80855 187.885751 
L 329.929461 158.179099 
L 330.050384 188.6638 
L 330.292206 147.446983 
L 330.413117 169.27977 
L 330.534028 165.186993 
L 330.654951 167.853254 
L 330.775862 190.109666 
L 330.896773 186.921752 
L 331.017684 156.657228 
L 331.138595 201.282592 
L 331.380429 173.291625 
L 331.50134 173.291625 
L 331.743174 202.631314 
L 331.984996 159.963895 
L 332.105907 148.024359 
L 332.226817 179.223314 
L 332.34774 166.600639 
L 332.589562 199.173273 
L 332.710473 191.92118 
L 332.952307 207.816447 
L 333.194129 182.515182 
L 333.31504 189.134198 
L 333.556874 156.982168 
L 333.677785 171.131485 
L 333.798696 210.929081 
L 333.919607 198.129944 
L 334.04053 220.544294 
L 334.282352 203.450096 
L 334.403263 175.085732 
L 334.645097 184.135047 
L 334.766008 169.127549 
L 334.886919 177.272116 
L 335.00783 199.671208 
L 335.370575 151.331567 
L 335.491486 189.504008 
L 335.612397 168.831147 
L 335.975142 203.848204 
L 336.096052 170.511872 
L 336.337886 211.55325 
L 336.579708 143.925978 
L 336.700619 156.018533 
L 336.82153 141.070694 
L 337.063364 156.371199 
L 337.184275 193.681512 
L 337.426097 173.206394 
L 337.54702 190.6652 
L 337.788842 129.096969 
L 337.909753 172.246307 
L 338.151587 166.099773 
L 338.393409 173.093443 
L 338.51432 160.310319 
L 338.635243 178.409625 
L 338.756154 178.511037 
L 338.877065 173.915189 
L 338.997976 202.902781 
L 339.118887 193.982609 
L 339.23981 171.977267 
L 339.360721 185.629229 
L 339.481623 171.475335 
L 339.602534 133.779297 
L 339.844368 205.158334 
L 340.08619 156.352635 
L 340.328012 177.122957 
L 340.448935 162.889247 
L 340.569846 172.629433 
L 340.811668 152.863773 
L 340.932579 183.568482 
L 341.053502 163.727467 
L 341.174413 175.306868 
L 341.295324 142.855362 
L 341.416235 179.252218 
L 341.537145 172.668174 
L 341.658068 213.485649 
L 341.89989 165.167488 
L 342.141724 187.231712 
L 342.262635 175.169446 
L 342.504457 221.329186 
L 342.625368 192.580689 
L 342.746291 193.157292 
L 342.867202 197.343291 
L 342.988113 144.383062 
L 343.109024 160.546343 
L 343.229935 152.431925 
L 343.471769 178.45157 
L 343.59268 164.000145 
L 343.713591 165.259983 
L 343.834502 211.719977 
L 343.955425 167.059516 
L 344.197247 187.301242 
L 344.439069 164.441175 
L 344.559992 173.562284 
L 344.680903 202.757778 
L 344.922725 184.423173 
L 345.164559 237.275386 
L 345.40638 171.337149 
L 345.527291 196.128293 
L 345.648202 190.277306 
L 345.769125 190.277306 
L 345.890036 174.08545 
L 346.010947 113.193701 
L 346.373692 155.974042 
L 346.494603 143.147355 
L 346.615514 150.068201 
L 346.736425 111.708519 
L 346.857336 116.467311 
L 346.978259 164.089618 
L 347.09917 150.181065 
L 347.220081 155.711031 
L 347.340992 191.36034 
L 347.582826 152.190649 
L 347.703737 192.199703 
L 347.824648 186.028722 
L 347.945559 195.356193 
L 348.06647 189.906602 
L 348.429215 137.720076 
L 348.671037 181.330477 
L 348.79196 161.781981 
L 348.912871 169.332359 
L 349.033782 210.646006 
L 349.154692 176.455604 
L 349.275603 188.734979 
L 349.396526 162.58257 
L 349.638348 191.03246 
L 349.759259 202.413746 
L 349.88017 189.259961 
L 350.001093 229.962759 
L 350.242915 168.677742 
L 350.363826 164.668802 
L 350.60566 207.931491 
L 350.726571 207.625336 
L 350.847482 189.186274 
L 350.968393 206.434673 
L 351.089304 183.032014 
L 351.210227 202.389315 
L 351.452059 150.036109 
L 351.57297 149.768684 
L 351.814804 203.066748 
L 351.935715 226.216257 
L 352.056626 215.591008 
L 352.177537 240.116269 
L 352.298448 196.681011 
L 352.419371 196.339626 
L 352.540282 157.153786 
L 352.661193 162.051087 
L 352.782103 207.422076 
L 352.903015 200.220581 
L 353.144849 223.220587 
L 353.265759 219.142678 
L 353.38667 249.401139 
L 353.507581 251.404796 
L 353.628504 205.293711 
L 353.749415 209.720508 
L 353.870326 219.269695 
L 353.991237 218.375943 
L 354.112148 194.276897 
L 354.233071 195.02635 
L 354.353982 216.680085 
L 354.474893 203.901847 
L 354.595804 208.18058 
L 354.837638 180.266908 
L 354.958549 214.491938 
L 355.200371 147.525618 
L 355.321282 148.672023 
L 355.442205 198.567392 
L 355.563116 166.737227 
L 355.684027 192.249517 
L 355.804938 192.674269 
L 355.925849 165.530392 
L 356.046772 193.141211 
L 356.167683 159.767408 
L 356.409505 209.09317 
L 356.530416 201.315685 
L 356.651338 183.878004 
L 356.77225 143.245374 
L 356.893161 194.028642 
L 357.134982 142.130664 
L 357.255905 162.757158 
L 357.376816 150.318221 
L 357.497727 153.522711 
L 357.618638 159.933098 
L 357.739549 121.706261 
L 357.981383 161.277647 
L 358.102294 176.901828 
L 358.223205 216.603618 
L 358.344116 194.600118 
L 358.465027 193.692455 
L 358.58595 184.099396 
L 358.706861 216.521504 
L 358.827772 202.780685 
L 358.948683 202.568284 
L 359.069594 179.687567 
L 359.190517 226.732247 
L 359.311428 169.082122 
L 359.432339 165.975798 
L 359.674161 208.524612 
L 359.795084 182.088376 
L 359.915995 196.756235 
L 360.036906 196.756235 
L 360.399651 245.514436 
L 360.520562 243.605454 
L 360.762383 197.709879 
L 360.883294 168.479208 
L 361.004217 198.596002 
L 361.125128 200.631584 
L 361.36695 206.210149 
L 361.608784 224.389821 
L 361.850606 166.067219 
L 362.092428 206.237455 
L 362.213339 199.62497 
L 362.334262 155.087363 
L 362.455173 199.48692 
L 362.576084 159.830756 
L 362.696995 161.172855 
L 362.817906 210.579079 
L 363.05974 176.650363 
L 363.301562 213.986799 
L 363.422473 167.356943 
L 363.785221 173.0041 
L 364.027043 209.495278 
L 364.147965 204.234301 
L 364.268877 236.522005 
L 364.510698 176.902796 
L 364.631609 225.136253 
L 364.75252 188.007332 
L 364.873443 192.462664 
L 364.994354 188.207115 
L 365.115265 203.00925 
L 365.236176 203.993181 
L 365.357087 231.056884 
L 365.47801 227.421857 
L 365.598921 208.835159 
L 365.719832 225.412091 
L 365.840743 226.442296 
L 365.961654 222.626547 
L 366.082577 204.273512 
L 366.203488 203.013092 
L 366.44531 181.457841 
L 366.566221 184.0932 
L 366.687144 166.984862 
L 366.808055 172.42077 
L 366.928966 209.303201 
L 367.170788 181.503813 
L 367.291699 204.043952 
L 367.412622 205.65717 
L 367.775354 189.352366 
L 367.896266 187.628531 
L 368.25901 246.161871 
L 368.500832 222.029521 
L 368.621755 269.91555 
L 368.863577 205.771649 
L 368.984488 231.519403 
L 369.105399 205.886996 
L 369.22631 269.397617 
L 369.347233 238.736723 
L 369.468144 243.697752 
L 369.709966 272.565284 
L 369.9518 221.768579 
L 370.072711 229.393533 
L 370.193622 254.129587 
L 370.314533 248.112203 
L 370.435444 266.331284 
L 370.556355 258.072744 
L 370.677278 272.711776 
L 370.798189 240.728112 
L 370.9191 246.497373 
L 371.040011 244.319842 
L 371.281845 263.212879 
L 371.402756 246.497736 
L 371.523667 256.0945 
L 371.644577 231.050141 
L 371.765489 232.87933 
L 372.007322 255.709908 
L 372.249144 216.003463 
L 372.490966 256.16241 
L 372.7328 247.954429 
L 372.853711 217.351938 
L 372.974622 244.792408 
L 373.216456 216.503206 
L 373.337367 250.962798 
L 373.7001 228.272516 
L 373.821011 254.558629 
L 373.941934 248.073021 
L 374.183756 213.524129 
L 374.304667 213.524129 
L 374.425578 236.56299 
L 374.546501 235.575341 
L 374.667412 216.848844 
L 374.788323 172.937668 
L 375.030145 211.512452 
L 375.151056 231.393302 
L 375.271978 273.542551 
L 375.39289 262.650419 
L 375.634705 183.663464 
L 375.755616 215.386179 
L 375.99745 196.195338 
L 376.118361 192.198631 
L 376.239272 213.97365 
L 376.360183 176.140697 
L 376.481106 191.250178 
L 376.602017 235.089564 
L 376.722928 216.340992 
L 376.843839 235.030797 
L 376.96475 233.925507 
L 377.085661 228.886047 
L 377.206584 233.721588 
L 377.327495 233.927769 
L 377.448406 219.16784 
L 377.569317 231.916265 
L 377.811151 178.30158 
L 377.932062 208.572012 
L 378.173884 175.198747 
L 378.294795 187.027681 
L 378.415706 222.746642 
L 378.536629 175.518459 
L 378.65754 196.41107 
L 378.899361 169.709374 
L 379.020273 219.758819 
L 379.141183 175.069775 
L 379.262107 181.333738 
L 379.383017 219.017156 
L 379.503928 159.274795 
L 379.624839 159.195393 
L 379.74575 165.802492 
L 379.987584 201.47471 
L 380.471228 116.974345 
L 380.592151 123.87951 
L 380.713062 120.975003 
L 380.954884 143.09455 
L 381.075795 170.191893 
L 381.196706 153.016396 
L 381.317629 176.985711 
L 381.43854 149.46369 
L 381.559451 161.20077 
L 381.680362 155.228016 
L 381.801273 212.648423 
L 382.043107 180.45133 
L 382.164018 180.097716 
L 382.284929 187.912658 
L 382.40584 164.552766 
L 382.52675 167.069762 
L 382.647674 146.190978 
L 382.768584 156.035066 
L 383.010406 207.486136 
L 383.131317 204.926708 
L 383.25224 207.413311 
L 383.494062 185.332359 
L 383.614973 205.080156 
L 383.856795 179.533986 
L 384.098629 177.754578 
L 384.340451 228.609735 
L 384.461362 199.116543 
L 384.582273 198.403424 
L 384.703196 228.809654 
L 384.824107 221.952116 
L 384.945018 190.862978 
L 385.065929 192.424908 
L 385.18684 213.312006 
L 385.307763 212.421145 
L 385.428674 200.359132 
L 385.670496 226.232174 
L 385.791407 204.479376 
L 385.912318 231.537122 
L 386.033241 231.365794 
L 386.154152 240.881113 
L 386.275063 239.777344 
L 386.395973 217.305286 
L 386.516885 232.18798 
L 386.637795 209.568988 
L 386.879629 238.498864 
L 387.242362 247.838478 
L 387.363285 225.702141 
L 387.484196 226.732961 
L 387.605106 243.375179 
L 387.726017 225.918798 
L 387.846928 228.301214 
L 387.967839 253.056158 
L 388.209673 201.976916 
L 388.330583 220.324291 
L 388.451494 193.317905 
L 388.572405 193.317905 
L 388.693316 223.772062 
L 388.814239 203.337189 
L 388.93515 208.694493 
L 389.297883 242.890822 
L 389.418794 233.090206 
L 389.539717 196.862419 
L 389.781539 247.509217 
L 389.90245 275.545546 
L 390.023361 266.932162 
L 390.386106 186.309554 
L 390.748839 246.765651 
L 390.86975 219.811861 
L 390.990673 233.913487 
L 391.111584 232.793804 
L 391.353406 281.483297 
L 391.474317 244.328186 
L 391.59524 250.602041 
L 391.837062 286.532024 
L 391.957973 252.280049 
L 392.078883 266.74088 
L 392.199794 295.488 
L 392.441628 238.897114 
L 392.562539 235.681137 
L 392.68345 246.684892 
L 392.925272 187.838291 
L 393.046195 193.54935 
L 393.288017 187.327371 
L 393.529839 234.429238 
L 393.65075 198.979648 
L 393.892584 244.947087 
L 394.013495 221.864274 
L 394.134406 223.127852 
L 394.255317 203.12965 
L 394.376228 209.833972 
L 394.497151 198.669446 
L 394.618062 207.723391 
L 394.738973 184.34262 
L 394.980795 208.221442 
L 395.101706 192.650896 
L 395.222629 220.259269 
L 395.34354 209.472469 
L 395.706272 157.875172 
L 395.948106 182.940994 
L 396.069017 160.879926 
L 396.310839 228.76203 
L 396.552661 176.003894 
L 396.673584 189.598104 
L 396.794495 167.003401 
L 397.036317 186.816905 
L 397.157228 173.969082 
L 397.278139 178.791998 
L 397.399062 215.864131 
L 397.519973 204.000189 
L 397.640884 203.294159 
L 398.003617 231.920175 
L 398.12454 216.591071 
L 398.245451 178.845375 
L 398.366362 181.849416 
L 398.487273 210.37722 
L 398.487273 210.37722 
" clip-path="url(#pca86620066)" style="fill: none; stroke: #1f77b4; stroke-width: 1.5; stroke-linecap: square"/>
   </g>
   <g id="patch_3">
    <path d="M 57.6 307.584 
L 57.6 41.472 
" style="fill: none; stroke: #000000; stroke-width: 0.8; stroke-linejoin: miter; stroke-linecap: square"/>
   </g>
   <g id="patch_4">
    <path d="M 414.72 307.584 
L 414.72 41.472 
" style="fill: none; stroke: #000000; stroke-width: 0.8; stroke-linejoin: miter; stroke-linecap: square"/>
   </g>
   <g id="patch_5">
    <path d="M 57.6 307.584 
L 414.72 307.584 
" style="fill: none; stroke: #000000; stroke-width: 0.8; stroke-linejoin: miter; stroke-linecap: square"/>
   </g>
   <g id="patch_6">
    <path d="M 57.6 41.472 
L 414.72 41.472 
" style="fill: none; stroke: #000000; stroke-width: 0.8; stroke-linejoin: miter; stroke-linecap: square"/>
   </g>
   <g id="text_13">
    <!-- Vemund-Tyholt_flymodus-vinkel -->
    <g transform="translate(141.955312 35.472) scale(0.12 -0.12)">
     <defs>
      <path id="DejaVuSans-56" d="M 1831 0 
L 50 4666 
L 709 4666 
L 2188 738 
L 3669 4666 
L 4325 4666 
L 2547 0 
L 1831 0 
z
" transform="scale(0.015625)"/>
      <path id="DejaVuSans-75" d="M 544 1381 
L 544 3500 
L 1119 3500 
L 1119 1403 
Q 1119 906 1312 657 
Q 1506 409 1894 409 
Q 2359 409 2629 706 
Q 2900 1003 2900 1516 
L 2900 3500 
L 3475 3500 
L 3475 0 
L 2900 0 
L 2900 538 
Q 2691 219 2414 64 
Q 2138 -91 1772 -91 
Q 1169 -91 856 284 
Q 544 659 544 1381 
z
M 1991 3584 
L 1991 3584 
z
" transform="scale(0.015625)"/>
      <path id="DejaVuSans-6e" d="M 3513 2113 
L 3513 0 
L 2938 0 
L 2938 2094 
Q 2938 2591 2744 2837 
Q 2550 3084 2163 3084 
Q 1697 3084 1428 2787 
Q 1159 2491 1159 1978 
L 1159 0 
L 581 0 
L 581 3500 
L 1159 3500 
L 1159 2956 
Q 1366 3272 1645 3428 
Q 1925 3584 2291 3584 
Q 2894 3584 3203 3211 
Q 3513 2838 3513 2113 
z
" transform="scale(0.015625)"/>
      <path id="DejaVuSans-2d" d="M 313 2009 
L 1997 2009 
L 1997 1497 
L 313 1497 
L 313 2009 
z
" transform="scale(0.015625)"/>
      <path id="DejaVuSans-54" d="M -19 4666 
L 3928 4666 
L 3928 4134 
L 2272 4134 
L 2272 0 
L 1638 0 
L 1638 4134 
L -19 4134 
L -19 4666 
z
" transform="scale(0.015625)"/>
      <path id="DejaVuSans-79" d="M 2059 -325 
Q 1816 -950 1584 -1140 
Q 1353 -1331 966 -1331 
L 506 -1331 
L 506 -850 
L 844 -850 
Q 1081 -850 1212 -737 
Q 1344 -625 1503 -206 
L 1606 56 
L 191 3500 
L 800 3500 
L 1894 763 
L 2988 3500 
L 3597 3500 
L 2059 -325 
z
" transform="scale(0.015625)"/>
      <path id="DejaVuSans-68" d="M 3513 2113 
L 3513 0 
L 2938 0 
L 2938 2094 
Q 2938 2591 2744 2837 
Q 2550 3084 2163 3084 
Q 1697 3084 1428 2787 
Q 1159 2491 1159 1978 
L 1159 0 
L 581 0 
L 581 4863 
L 1159 4863 
L 1159 2956 
Q 1366 3272 1645 3428 
Q 1925 3584 2291 3584 
Q 2894 3584 3203 3211 
Q 3513 2838 3513 2113 
z
" transform="scale(0.015625)"/>
      <path id="DejaVuSans-6f" d="M 1959 3097 
Q 1497 3097 1228 2736 
Q 959 2375 959 1747 
Q 959 1119 1226 758 
Q 1494 397 1959 397 
Q 2419 397 2687 759 
Q 2956 1122 2956 1747 
Q 2956 2369 2687 2733 
Q 2419 3097 1959 3097 
z
M 1959 3584 
Q 2709 3584 3137 3096 
Q 3566 2609 3566 1747 
Q 3566 888 3137 398 
Q 2709 -91 1959 -91 
Q 1206 -91 779 398 
Q 353 888 353 1747 
Q 353 2609 779 3096 
Q 1206 3584 1959 3584 
z
" transform="scale(0.015625)"/>
      <path id="DejaVuSans-6c" d="M 603 4863 
L 1178 4863 
L 1178 0 
L 603 0 
L 603 4863 
z
" transform="scale(0.015625)"/>
      <path id="DejaVuSans-5f" d="M 3263 -1063 
L 3263 -1509 
L -63 -1509 
L -63 -1063 
L 3263 -1063 
z
" transform="scale(0.015625)"/>
      <path id="DejaVuSans-66" d="M 2375 4863 
L 2375 4384 
L 1825 4384 
Q 1516 4384 1395 4259 
Q 1275 4134 1275 3809 
L 1275 3500 
L 2222 3500 
L 2222 3053 
L 1275 3053 
L 1275 0 
L 697 0 
L 697 3053 
L 147 3053 
L 147 3500 
L 697 3500 
L 697 3744 
Q 697 4328 969 4595 
Q 1241 4863 1831 4863 
L 2375 4863 
z
" transform="scale(0.015625)"/>
      <path id="DejaVuSans-76" d="M 191 3500 
L 800 3500 
L 1894 563 
L 2988 3500 
L 3597 3500 
L 2284 0 
L 1503 0 
L 191 3500 
z
" transform="scale(0.015625)"/>
      <path id="DejaVuSans-6b" d="M 581 4863 
L 1159 4863 
L 1159 1991 
L 2875 3500 
L 3609 3500 
L 1753 1863 
L 3688 0 
L 2938 0 
L 1159 1709 
L 1159 0 
L 581 0 
L 581 4863 
z
" transform="scale(0.015625)"/>
     </defs>
     <use xlink:href="#DejaVuSans-56"/>
     <use xlink:href="#DejaVuSans-65" x="60.658203"/>
     <use xlink:href="#DejaVuSans-6d" x="122.181641"/>
     <use xlink:href="#DejaVuSans-75" x="219.59375"/>
     <use xlink:href="#DejaVuSans-6e" x="282.972656"/>
     <use xlink:href="#DejaVuSans-64" x="346.351562"/>
     <use xlink:href="#DejaVuSans-2d" x="409.828125"/>
     <use xlink:href="#DejaVuSans-54" x="436.787109"/>
     <use xlink:href="#DejaVuSans-79" x="482.246094"/>
     <use xlink:href="#DejaVuSans-68" x="541.425781"/>
     <use xlink:href="#DejaVuSans-6f" x="604.804688"/>
     <use xlink:href="#DejaVuSans-6c" x="665.986328"/>
     <use xlink:href="#DejaVuSans-74" x="693.769531"/>
     <use xlink:href="#DejaVuSans-5f" x="732.978516"/>
     <use xlink:href="#DejaVuSans-66" x="782.978516"/>
     <use xlink:href="#DejaVuSans-6c" x="818.183594"/>
     <use xlink:href="#DejaVuSans-79" x="845.966797"/>
     <use xlink:href="#DejaVuSans-6d" x="905.146484"/>
     <use xlink:href="#DejaVuSans-6f" x="1002.558594"/>
     <use xlink:href="#DejaVuSans-64" x="1063.740234"/>
     <use xlink:href="#DejaVuSans-75" x="1127.216797"/>
     <use xlink:href="#DejaVuSans-73" x="1190.595703"/>
     <use xlink:href="#DejaVuSans-2d" x="1242.695312"/>
     <use xlink:href="#DejaVuSans-76" x="1276.154297"/>
     <use xlink:href="#DejaVuSans-69" x="1335.333984"/>
     <use xlink:href="#DejaVuSans-6e" x="1363.117188"/>
     <use xlink:href="#DejaVuSans-6b" x="1426.496094"/>
     <use xlink:href="#DejaVuSans-65" x="1480.78125"/>
     <use xlink:href="#DejaVuSans-6c" x="1542.304688"/>
    </g>
   </g>
   <g id="legend_1">
    <g id="patch_7">
     <path d="M 64.6 64.42825 
L 253.607812 64.42825 
Q 255.607812 64.42825 255.607812 62.42825 
L 255.607812 48.472 
Q 255.607812 46.472 253.607812 46.472 
L 64.6 46.472 
Q 62.6 46.472 62.6 48.472 
L 62.6 62.42825 
Q 62.6 64.42825 64.6 64.42825 
z
" style="fill: #ffffff; opacity: 0.8; stroke: #cccccc; stroke-linejoin: miter"/>
    </g>
    <g id="line2d_12">
     <path d="M 66.6 54.570437 
L 76.6 54.570437 
L 86.6 54.570437 
" style="fill: none; stroke: #1f77b4; stroke-width: 1.5; stroke-linecap: square"/>
    </g>
    <g id="text_14">
     <!-- Vemund-Tyholt_flymodus-vinkel -->
     <g transform="translate(94.6 58.070437) scale(0.1 -0.1)">
      <use xlink:href="#DejaVuSans-56"/>
      <use xlink:href="#DejaVuSans-65" x="60.658203"/>
      <use xlink:href="#DejaVuSans-6d" x="122.181641"/>
      <use xlink:href="#DejaVuSans-75" x="219.59375"/>
      <use xlink:href="#DejaVuSans-6e" x="282.972656"/>
      <use xlink:href="#DejaVuSans-64" x="346.351562"/>
      <use xlink:href="#DejaVuSans-2d" x="409.828125"/>
      <use xlink:href="#DejaVuSans-54" x="436.787109"/>
      <use xlink:href="#DejaVuSans-79" x="482.246094"/>
      <use xlink:href="#DejaVuSans-68" x="541.425781"/>
      <use xlink:href="#DejaVuSans-6f" x="604.804688"/>
      <use xlink:href="#DejaVuSans-6c" x="665.986328"/>
      <use xlink:href="#DejaVuSans-74" x="693.769531"/>
      <use xlink:href="#DejaVuSans-5f" x="732.978516"/>
      <use xlink:href="#DejaVuSans-66" x="782.978516"/>
      <use xlink:href="#DejaVuSans-6c" x="818.183594"/>
      <use xlink:href="#DejaVuSans-79" x="845.966797"/>
      <use xlink:href="#DejaVuSans-6d" x="905.146484"/>
      <use xlink:href="#DejaVuSans-6f" x="1002.558594"/>
      <use xlink:href="#DejaVuSans-64" x="1063.740234"/>
      <use xlink:href="#DejaVuSans-75" x="1127.216797"/>
      <use xlink:href="#DejaVuSans-73" x="1190.595703"/>
      <use xlink:href="#DejaVuSans-2d" x="1242.695312"/>
      <use xlink:href="#DejaVuSans-76" x="1276.154297"/>
      <use xlink:href="#DejaVuSans-69" x="1335.333984"/>
      <use xlink:href="#DejaVuSans-6e" x="1363.117188"/>
      <use xlink:href="#DejaVuSans-6b" x="1426.496094"/>
      <use xlink:href="#DejaVuSans-65" x="1480.78125"/>
      <use xlink:href="#DejaVuSans-6c" x="1542.304688"/>
     </g>
    </g>
   </g>
  </g>
 </g>
 <defs>
  <clipPath id="pca86620066">
   <rect x="57.6" y="41.472" width="357.12" height="266.112"/>
  </clipPath>
 </defs>
</svg>
