<?xml version="1.0" encoding="utf-8" standalone="no"?>
<!DOCTYPE svg PUBLIC "-//W3C//DTD SVG 1.1//EN"
  "http://www.w3.org/Graphics/SVG/1.1/DTD/svg11.dtd">
<svg xmlns:xlink="http://www.w3.org/1999/xlink" width="647.085938pt" height="458.691562pt" viewBox="0 0 647.085938 458.691562" xmlns="http://www.w3.org/2000/svg" version="1.1">
 <metadata>
  <rdf:RDF xmlns:dc="http://purl.org/dc/elements/1.1/" xmlns:cc="http://creativecommons.org/ns#" xmlns:rdf="http://www.w3.org/1999/02/22-rdf-syntax-ns#">
   <cc:Work>
    <dc:type rdf:resource="http://purl.org/dc/dcmitype/StillImage"/>
    <dc:date>2023-04-10T14:16:19.473981</dc:date>
    <dc:format>image/svg+xml</dc:format>
    <dc:creator>
     <cc:Agent>
      <dc:title>Matplotlib v3.7.1, https://matplotlib.org/</dc:title>
     </cc:Agent>
    </dc:creator>
   </cc:Work>
  </rdf:RDF>
 </metadata>
 <defs>
  <style type="text/css">*{stroke-linejoin: round; stroke-linecap: butt}</style>
 </defs>
 <g id="figure_1">
  <g id="patch_1">
   <path d="M 0 458.691562 
L 647.085938 458.691562 
L 647.085938 0 
L 0 0 
L 0 458.691562 
z
" style="fill: none"/>
  </g>
  <g id="axes_1">
   <g id="patch_2">
    <path d="M 81.885937 414.957187 
L 639.885937 414.957187 
L 639.885937 26.877187 
L 81.885937 26.877187 
L 81.885937 414.957187 
z
" style="fill: none"/>
   </g>
   <g id="matplotlib.axis_1">
    <g id="xtick_1">
     <g id="line2d_1">
      <path d="M 144.72998 414.957187 
L 144.72998 26.877187 
" clip-path="url(#p4634f52e06)" style="fill: none; stroke: #808080; stroke-width: 0.8; stroke-linecap: square"/>
     </g>
     <g id="line2d_2">
      <defs>
       <path id="m8bb1e5f11e" d="M 0 0 
L 0 -5 
" style="stroke: #808080; stroke-width: 0.8"/>
      </defs>
      <g>
       <use xlink:href="#m8bb1e5f11e" x="144.72998" y="414.957187" style="fill: #808080; stroke: #808080; stroke-width: 0.8"/>
      </g>
     </g>
     <g id="text_1">
      <!-- 25 -->
      <g style="fill: #808080" transform="translate(135.18623 429.854844) scale(0.15 -0.15)">
       <defs>
        <path id="DejaVuSans-32" d="M 1228 531 
L 3431 531 
L 3431 0 
L 469 0 
L 469 531 
Q 828 903 1448 1529 
Q 2069 2156 2228 2338 
Q 2531 2678 2651 2914 
Q 2772 3150 2772 3378 
Q 2772 3750 2511 3984 
Q 2250 4219 1831 4219 
Q 1534 4219 1204 4116 
Q 875 4013 500 3803 
L 500 4441 
Q 881 4594 1212 4672 
Q 1544 4750 1819 4750 
Q 2544 4750 2975 4387 
Q 3406 4025 3406 3419 
Q 3406 3131 3298 2873 
Q 3191 2616 2906 2266 
Q 2828 2175 2409 1742 
Q 1991 1309 1228 531 
z
" transform="scale(0.015625)"/>
        <path id="DejaVuSans-35" d="M 691 4666 
L 3169 4666 
L 3169 4134 
L 1269 4134 
L 1269 2991 
Q 1406 3038 1543 3061 
Q 1681 3084 1819 3084 
Q 2600 3084 3056 2656 
Q 3513 2228 3513 1497 
Q 3513 744 3044 326 
Q 2575 -91 1722 -91 
Q 1428 -91 1123 -41 
Q 819 9 494 109 
L 494 744 
Q 775 591 1075 516 
Q 1375 441 1709 441 
Q 2250 441 2565 725 
Q 2881 1009 2881 1497 
Q 2881 1984 2565 2268 
Q 2250 2553 1709 2553 
Q 1456 2553 1204 2497 
Q 953 2441 691 2322 
L 691 4666 
z
" transform="scale(0.015625)"/>
       </defs>
       <use xlink:href="#DejaVuSans-32"/>
       <use xlink:href="#DejaVuSans-35" x="63.623047"/>
      </g>
     </g>
    </g>
    <g id="xtick_2">
     <g id="line2d_3">
      <path d="M 238.68432 414.957187 
L 238.68432 26.877187 
" clip-path="url(#p4634f52e06)" style="fill: none; stroke: #808080; stroke-width: 0.8; stroke-linecap: square"/>
     </g>
     <g id="line2d_4">
      <g>
       <use xlink:href="#m8bb1e5f11e" x="238.68432" y="414.957187" style="fill: #808080; stroke: #808080; stroke-width: 0.8"/>
      </g>
     </g>
     <g id="text_2">
      <!-- 30 -->
      <g style="fill: #808080" transform="translate(229.14057 429.854844) scale(0.15 -0.15)">
       <defs>
        <path id="DejaVuSans-33" d="M 2597 2516 
Q 3050 2419 3304 2112 
Q 3559 1806 3559 1356 
Q 3559 666 3084 287 
Q 2609 -91 1734 -91 
Q 1441 -91 1130 -33 
Q 819 25 488 141 
L 488 750 
Q 750 597 1062 519 
Q 1375 441 1716 441 
Q 2309 441 2620 675 
Q 2931 909 2931 1356 
Q 2931 1769 2642 2001 
Q 2353 2234 1838 2234 
L 1294 2234 
L 1294 2753 
L 1863 2753 
Q 2328 2753 2575 2939 
Q 2822 3125 2822 3475 
Q 2822 3834 2567 4026 
Q 2313 4219 1838 4219 
Q 1578 4219 1281 4162 
Q 984 4106 628 3988 
L 628 4550 
Q 988 4650 1302 4700 
Q 1616 4750 1894 4750 
Q 2613 4750 3031 4423 
Q 3450 4097 3450 3541 
Q 3450 3153 3228 2886 
Q 3006 2619 2597 2516 
z
" transform="scale(0.015625)"/>
        <path id="DejaVuSans-30" d="M 2034 4250 
Q 1547 4250 1301 3770 
Q 1056 3291 1056 2328 
Q 1056 1369 1301 889 
Q 1547 409 2034 409 
Q 2525 409 2770 889 
Q 3016 1369 3016 2328 
Q 3016 3291 2770 3770 
Q 2525 4250 2034 4250 
z
M 2034 4750 
Q 2819 4750 3233 4129 
Q 3647 3509 3647 2328 
Q 3647 1150 3233 529 
Q 2819 -91 2034 -91 
Q 1250 -91 836 529 
Q 422 1150 422 2328 
Q 422 3509 836 4129 
Q 1250 4750 2034 4750 
z
" transform="scale(0.015625)"/>
       </defs>
       <use xlink:href="#DejaVuSans-33"/>
       <use xlink:href="#DejaVuSans-30" x="63.623047"/>
      </g>
     </g>
    </g>
    <g id="xtick_3">
     <g id="line2d_5">
      <path d="M 332.638659 414.957187 
L 332.638659 26.877187 
" clip-path="url(#p4634f52e06)" style="fill: none; stroke: #808080; stroke-width: 0.8; stroke-linecap: square"/>
     </g>
     <g id="line2d_6">
      <g>
       <use xlink:href="#m8bb1e5f11e" x="332.638659" y="414.957187" style="fill: #808080; stroke: #808080; stroke-width: 0.8"/>
      </g>
     </g>
     <g id="text_3">
      <!-- 35 -->
      <g style="fill: #808080" transform="translate(323.094909 429.854844) scale(0.15 -0.15)">
       <use xlink:href="#DejaVuSans-33"/>
       <use xlink:href="#DejaVuSans-35" x="63.623047"/>
      </g>
     </g>
    </g>
    <g id="xtick_4">
     <g id="line2d_7">
      <path d="M 426.592999 414.957187 
L 426.592999 26.877187 
" clip-path="url(#p4634f52e06)" style="fill: none; stroke: #808080; stroke-width: 0.8; stroke-linecap: square"/>
     </g>
     <g id="line2d_8">
      <g>
       <use xlink:href="#m8bb1e5f11e" x="426.592999" y="414.957187" style="fill: #808080; stroke: #808080; stroke-width: 0.8"/>
      </g>
     </g>
     <g id="text_4">
      <!-- 40 -->
      <g style="fill: #808080" transform="translate(417.049249 429.854844) scale(0.15 -0.15)">
       <defs>
        <path id="DejaVuSans-34" d="M 2419 4116 
L 825 1625 
L 2419 1625 
L 2419 4116 
z
M 2253 4666 
L 3047 4666 
L 3047 1625 
L 3713 1625 
L 3713 1100 
L 3047 1100 
L 3047 0 
L 2419 0 
L 2419 1100 
L 313 1100 
L 313 1709 
L 2253 4666 
z
" transform="scale(0.015625)"/>
       </defs>
       <use xlink:href="#DejaVuSans-34"/>
       <use xlink:href="#DejaVuSans-30" x="63.623047"/>
      </g>
     </g>
    </g>
    <g id="xtick_5">
     <g id="line2d_9">
      <path d="M 520.547339 414.957187 
L 520.547339 26.877187 
" clip-path="url(#p4634f52e06)" style="fill: none; stroke: #808080; stroke-width: 0.8; stroke-linecap: square"/>
     </g>
     <g id="line2d_10">
      <g>
       <use xlink:href="#m8bb1e5f11e" x="520.547339" y="414.957187" style="fill: #808080; stroke: #808080; stroke-width: 0.8"/>
      </g>
     </g>
     <g id="text_5">
      <!-- 45 -->
      <g style="fill: #808080" transform="translate(511.003589 429.854844) scale(0.15 -0.15)">
       <use xlink:href="#DejaVuSans-34"/>
       <use xlink:href="#DejaVuSans-35" x="63.623047"/>
      </g>
     </g>
    </g>
    <g id="xtick_6">
     <g id="line2d_11">
      <path d="M 614.501678 414.957187 
L 614.501678 26.877187 
" clip-path="url(#p4634f52e06)" style="fill: none; stroke: #808080; stroke-width: 0.8; stroke-linecap: square"/>
     </g>
     <g id="line2d_12">
      <g>
       <use xlink:href="#m8bb1e5f11e" x="614.501678" y="414.957187" style="fill: #808080; stroke: #808080; stroke-width: 0.8"/>
      </g>
     </g>
     <g id="text_6">
      <!-- 50 -->
      <g style="fill: #808080" transform="translate(604.957928 429.854844) scale(0.15 -0.15)">
       <use xlink:href="#DejaVuSans-35"/>
       <use xlink:href="#DejaVuSans-30" x="63.623047"/>
      </g>
     </g>
    </g>
    <g id="text_7">
     <!-- time [s] -->
     <g style="fill: #808080" transform="translate(331.798828 448.372031) scale(0.15 -0.15)">
      <defs>
       <path id="DejaVuSans-74" d="M 1172 4494 
L 1172 3500 
L 2356 3500 
L 2356 3053 
L 1172 3053 
L 1172 1153 
Q 1172 725 1289 603 
Q 1406 481 1766 481 
L 2356 481 
L 2356 0 
L 1766 0 
Q 1100 0 847 248 
Q 594 497 594 1153 
L 594 3053 
L 172 3053 
L 172 3500 
L 594 3500 
L 594 4494 
L 1172 4494 
z
" transform="scale(0.015625)"/>
       <path id="DejaVuSans-69" d="M 603 3500 
L 1178 3500 
L 1178 0 
L 603 0 
L 603 3500 
z
M 603 4863 
L 1178 4863 
L 1178 4134 
L 603 4134 
L 603 4863 
z
" transform="scale(0.015625)"/>
       <path id="DejaVuSans-6d" d="M 3328 2828 
Q 3544 3216 3844 3400 
Q 4144 3584 4550 3584 
Q 5097 3584 5394 3201 
Q 5691 2819 5691 2113 
L 5691 0 
L 5113 0 
L 5113 2094 
Q 5113 2597 4934 2840 
Q 4756 3084 4391 3084 
Q 3944 3084 3684 2787 
Q 3425 2491 3425 1978 
L 3425 0 
L 2847 0 
L 2847 2094 
Q 2847 2600 2669 2842 
Q 2491 3084 2119 3084 
Q 1678 3084 1418 2786 
Q 1159 2488 1159 1978 
L 1159 0 
L 581 0 
L 581 3500 
L 1159 3500 
L 1159 2956 
Q 1356 3278 1631 3431 
Q 1906 3584 2284 3584 
Q 2666 3584 2933 3390 
Q 3200 3197 3328 2828 
z
" transform="scale(0.015625)"/>
       <path id="DejaVuSans-65" d="M 3597 1894 
L 3597 1613 
L 953 1613 
Q 991 1019 1311 708 
Q 1631 397 2203 397 
Q 2534 397 2845 478 
Q 3156 559 3463 722 
L 3463 178 
Q 3153 47 2828 -22 
Q 2503 -91 2169 -91 
Q 1331 -91 842 396 
Q 353 884 353 1716 
Q 353 2575 817 3079 
Q 1281 3584 2069 3584 
Q 2775 3584 3186 3129 
Q 3597 2675 3597 1894 
z
M 3022 2063 
Q 3016 2534 2758 2815 
Q 2500 3097 2075 3097 
Q 1594 3097 1305 2825 
Q 1016 2553 972 2059 
L 3022 2063 
z
" transform="scale(0.015625)"/>
       <path id="DejaVuSans-20" transform="scale(0.015625)"/>
       <path id="DejaVuSans-5b" d="M 550 4863 
L 1875 4863 
L 1875 4416 
L 1125 4416 
L 1125 -397 
L 1875 -397 
L 1875 -844 
L 550 -844 
L 550 4863 
z
" transform="scale(0.015625)"/>
       <path id="DejaVuSans-73" d="M 2834 3397 
L 2834 2853 
Q 2591 2978 2328 3040 
Q 2066 3103 1784 3103 
Q 1356 3103 1142 2972 
Q 928 2841 928 2578 
Q 928 2378 1081 2264 
Q 1234 2150 1697 2047 
L 1894 2003 
Q 2506 1872 2764 1633 
Q 3022 1394 3022 966 
Q 3022 478 2636 193 
Q 2250 -91 1575 -91 
Q 1294 -91 989 -36 
Q 684 19 347 128 
L 347 722 
Q 666 556 975 473 
Q 1284 391 1588 391 
Q 1994 391 2212 530 
Q 2431 669 2431 922 
Q 2431 1156 2273 1281 
Q 2116 1406 1581 1522 
L 1381 1569 
Q 847 1681 609 1914 
Q 372 2147 372 2553 
Q 372 3047 722 3315 
Q 1072 3584 1716 3584 
Q 2034 3584 2315 3537 
Q 2597 3491 2834 3397 
z
" transform="scale(0.015625)"/>
       <path id="DejaVuSans-5d" d="M 1947 4863 
L 1947 -844 
L 622 -844 
L 622 -397 
L 1369 -397 
L 1369 4416 
L 622 4416 
L 622 4863 
L 1947 4863 
z
" transform="scale(0.015625)"/>
      </defs>
      <use xlink:href="#DejaVuSans-74"/>
      <use xlink:href="#DejaVuSans-69" x="39.208984"/>
      <use xlink:href="#DejaVuSans-6d" x="66.992188"/>
      <use xlink:href="#DejaVuSans-65" x="164.404297"/>
      <use xlink:href="#DejaVuSans-20" x="225.927734"/>
      <use xlink:href="#DejaVuSans-5b" x="257.714844"/>
      <use xlink:href="#DejaVuSans-73" x="296.728516"/>
      <use xlink:href="#DejaVuSans-5d" x="348.828125"/>
     </g>
    </g>
   </g>
   <g id="matplotlib.axis_2">
    <g id="ytick_1">
     <g id="line2d_13">
      <path d="M 81.885937 371.686754 
L 639.885937 371.686754 
" clip-path="url(#p4634f52e06)" style="fill: none; stroke: #808080; stroke-width: 0.8; stroke-linecap: square"/>
     </g>
     <g id="line2d_14">
      <defs>
       <path id="m43e65bf3f2" d="M 0 0 
L 5 0 
" style="stroke: #808080; stroke-width: 0.8"/>
      </defs>
      <g>
       <use xlink:href="#m43e65bf3f2" x="81.885937" y="371.686754" style="fill: #808080; stroke: #808080; stroke-width: 0.8"/>
      </g>
     </g>
     <g id="text_8">
      <!-- 267.00 -->
      <g style="fill: #808080" transform="translate(25.9 377.385582) scale(0.15 -0.15)">
       <defs>
        <path id="DejaVuSans-36" d="M 2113 2584 
Q 1688 2584 1439 2293 
Q 1191 2003 1191 1497 
Q 1191 994 1439 701 
Q 1688 409 2113 409 
Q 2538 409 2786 701 
Q 3034 994 3034 1497 
Q 3034 2003 2786 2293 
Q 2538 2584 2113 2584 
z
M 3366 4563 
L 3366 3988 
Q 3128 4100 2886 4159 
Q 2644 4219 2406 4219 
Q 1781 4219 1451 3797 
Q 1122 3375 1075 2522 
Q 1259 2794 1537 2939 
Q 1816 3084 2150 3084 
Q 2853 3084 3261 2657 
Q 3669 2231 3669 1497 
Q 3669 778 3244 343 
Q 2819 -91 2113 -91 
Q 1303 -91 875 529 
Q 447 1150 447 2328 
Q 447 3434 972 4092 
Q 1497 4750 2381 4750 
Q 2619 4750 2861 4703 
Q 3103 4656 3366 4563 
z
" transform="scale(0.015625)"/>
        <path id="DejaVuSans-37" d="M 525 4666 
L 3525 4666 
L 3525 4397 
L 1831 0 
L 1172 0 
L 2766 4134 
L 525 4134 
L 525 4666 
z
" transform="scale(0.015625)"/>
        <path id="DejaVuSans-2e" d="M 684 794 
L 1344 794 
L 1344 0 
L 684 0 
L 684 794 
z
" transform="scale(0.015625)"/>
       </defs>
       <use xlink:href="#DejaVuSans-32"/>
       <use xlink:href="#DejaVuSans-36" x="63.623047"/>
       <use xlink:href="#DejaVuSans-37" x="127.246094"/>
       <use xlink:href="#DejaVuSans-2e" x="190.869141"/>
       <use xlink:href="#DejaVuSans-30" x="222.65625"/>
       <use xlink:href="#DejaVuSans-30" x="286.279297"/>
      </g>
     </g>
    </g>
    <g id="ytick_2">
     <g id="line2d_15">
      <path d="M 81.885937 325.682682 
L 639.885937 325.682682 
" clip-path="url(#p4634f52e06)" style="fill: none; stroke: #808080; stroke-width: 0.8; stroke-linecap: square"/>
     </g>
     <g id="line2d_16">
      <g>
       <use xlink:href="#m43e65bf3f2" x="81.885937" y="325.682682" style="fill: #808080; stroke: #808080; stroke-width: 0.8"/>
      </g>
     </g>
     <g id="text_9">
      <!-- 267.25 -->
      <g style="fill: #808080" transform="translate(25.9 331.38151) scale(0.15 -0.15)">
       <use xlink:href="#DejaVuSans-32"/>
       <use xlink:href="#DejaVuSans-36" x="63.623047"/>
       <use xlink:href="#DejaVuSans-37" x="127.246094"/>
       <use xlink:href="#DejaVuSans-2e" x="190.869141"/>
       <use xlink:href="#DejaVuSans-32" x="222.65625"/>
       <use xlink:href="#DejaVuSans-35" x="286.279297"/>
      </g>
     </g>
    </g>
    <g id="ytick_3">
     <g id="line2d_17">
      <path d="M 81.885937 279.67861 
L 639.885937 279.67861 
" clip-path="url(#p4634f52e06)" style="fill: none; stroke: #808080; stroke-width: 0.8; stroke-linecap: square"/>
     </g>
     <g id="line2d_18">
      <g>
       <use xlink:href="#m43e65bf3f2" x="81.885937" y="279.67861" style="fill: #808080; stroke: #808080; stroke-width: 0.8"/>
      </g>
     </g>
     <g id="text_10">
      <!-- 267.50 -->
      <g style="fill: #808080" transform="translate(25.9 285.377438) scale(0.15 -0.15)">
       <use xlink:href="#DejaVuSans-32"/>
       <use xlink:href="#DejaVuSans-36" x="63.623047"/>
       <use xlink:href="#DejaVuSans-37" x="127.246094"/>
       <use xlink:href="#DejaVuSans-2e" x="190.869141"/>
       <use xlink:href="#DejaVuSans-35" x="222.65625"/>
       <use xlink:href="#DejaVuSans-30" x="286.279297"/>
      </g>
     </g>
    </g>
    <g id="ytick_4">
     <g id="line2d_19">
      <path d="M 81.885937 233.674538 
L 639.885937 233.674538 
" clip-path="url(#p4634f52e06)" style="fill: none; stroke: #808080; stroke-width: 0.8; stroke-linecap: square"/>
     </g>
     <g id="line2d_20">
      <g>
       <use xlink:href="#m43e65bf3f2" x="81.885937" y="233.674538" style="fill: #808080; stroke: #808080; stroke-width: 0.8"/>
      </g>
     </g>
     <g id="text_11">
      <!-- 267.75 -->
      <g style="fill: #808080" transform="translate(25.9 239.373367) scale(0.15 -0.15)">
       <use xlink:href="#DejaVuSans-32"/>
       <use xlink:href="#DejaVuSans-36" x="63.623047"/>
       <use xlink:href="#DejaVuSans-37" x="127.246094"/>
       <use xlink:href="#DejaVuSans-2e" x="190.869141"/>
       <use xlink:href="#DejaVuSans-37" x="222.65625"/>
       <use xlink:href="#DejaVuSans-35" x="286.279297"/>
      </g>
     </g>
    </g>
    <g id="ytick_5">
     <g id="line2d_21">
      <path d="M 81.885937 187.670467 
L 639.885937 187.670467 
" clip-path="url(#p4634f52e06)" style="fill: none; stroke: #808080; stroke-width: 0.8; stroke-linecap: square"/>
     </g>
     <g id="line2d_22">
      <g>
       <use xlink:href="#m43e65bf3f2" x="81.885937" y="187.670467" style="fill: #808080; stroke: #808080; stroke-width: 0.8"/>
      </g>
     </g>
     <g id="text_12">
      <!-- 268.00 -->
      <g style="fill: #808080" transform="translate(25.9 193.369295) scale(0.15 -0.15)">
       <defs>
        <path id="DejaVuSans-38" d="M 2034 2216 
Q 1584 2216 1326 1975 
Q 1069 1734 1069 1313 
Q 1069 891 1326 650 
Q 1584 409 2034 409 
Q 2484 409 2743 651 
Q 3003 894 3003 1313 
Q 3003 1734 2745 1975 
Q 2488 2216 2034 2216 
z
M 1403 2484 
Q 997 2584 770 2862 
Q 544 3141 544 3541 
Q 544 4100 942 4425 
Q 1341 4750 2034 4750 
Q 2731 4750 3128 4425 
Q 3525 4100 3525 3541 
Q 3525 3141 3298 2862 
Q 3072 2584 2669 2484 
Q 3125 2378 3379 2068 
Q 3634 1759 3634 1313 
Q 3634 634 3220 271 
Q 2806 -91 2034 -91 
Q 1263 -91 848 271 
Q 434 634 434 1313 
Q 434 1759 690 2068 
Q 947 2378 1403 2484 
z
M 1172 3481 
Q 1172 3119 1398 2916 
Q 1625 2713 2034 2713 
Q 2441 2713 2670 2916 
Q 2900 3119 2900 3481 
Q 2900 3844 2670 4047 
Q 2441 4250 2034 4250 
Q 1625 4250 1398 4047 
Q 1172 3844 1172 3481 
z
" transform="scale(0.015625)"/>
       </defs>
       <use xlink:href="#DejaVuSans-32"/>
       <use xlink:href="#DejaVuSans-36" x="63.623047"/>
       <use xlink:href="#DejaVuSans-38" x="127.246094"/>
       <use xlink:href="#DejaVuSans-2e" x="190.869141"/>
       <use xlink:href="#DejaVuSans-30" x="222.65625"/>
       <use xlink:href="#DejaVuSans-30" x="286.279297"/>
      </g>
     </g>
    </g>
    <g id="ytick_6">
     <g id="line2d_23">
      <path d="M 81.885937 141.666395 
L 639.885937 141.666395 
" clip-path="url(#p4634f52e06)" style="fill: none; stroke: #808080; stroke-width: 0.8; stroke-linecap: square"/>
     </g>
     <g id="line2d_24">
      <g>
       <use xlink:href="#m43e65bf3f2" x="81.885937" y="141.666395" style="fill: #808080; stroke: #808080; stroke-width: 0.8"/>
      </g>
     </g>
     <g id="text_13">
      <!-- 268.25 -->
      <g style="fill: #808080" transform="translate(25.9 147.365223) scale(0.15 -0.15)">
       <use xlink:href="#DejaVuSans-32"/>
       <use xlink:href="#DejaVuSans-36" x="63.623047"/>
       <use xlink:href="#DejaVuSans-38" x="127.246094"/>
       <use xlink:href="#DejaVuSans-2e" x="190.869141"/>
       <use xlink:href="#DejaVuSans-32" x="222.65625"/>
       <use xlink:href="#DejaVuSans-35" x="286.279297"/>
      </g>
     </g>
    </g>
    <g id="ytick_7">
     <g id="line2d_25">
      <path d="M 81.885937 95.662323 
L 639.885937 95.662323 
" clip-path="url(#p4634f52e06)" style="fill: none; stroke: #808080; stroke-width: 0.8; stroke-linecap: square"/>
     </g>
     <g id="line2d_26">
      <g>
       <use xlink:href="#m43e65bf3f2" x="81.885937" y="95.662323" style="fill: #808080; stroke: #808080; stroke-width: 0.8"/>
      </g>
     </g>
     <g id="text_14">
      <!-- 268.50 -->
      <g style="fill: #808080" transform="translate(25.9 101.361151) scale(0.15 -0.15)">
       <use xlink:href="#DejaVuSans-32"/>
       <use xlink:href="#DejaVuSans-36" x="63.623047"/>
       <use xlink:href="#DejaVuSans-38" x="127.246094"/>
       <use xlink:href="#DejaVuSans-2e" x="190.869141"/>
       <use xlink:href="#DejaVuSans-35" x="222.65625"/>
       <use xlink:href="#DejaVuSans-30" x="286.279297"/>
      </g>
     </g>
    </g>
    <g id="ytick_8">
     <g id="line2d_27">
      <path d="M 81.885937 49.658252 
L 639.885937 49.658252 
" clip-path="url(#p4634f52e06)" style="fill: none; stroke: #808080; stroke-width: 0.8; stroke-linecap: square"/>
     </g>
     <g id="line2d_28">
      <g>
       <use xlink:href="#m43e65bf3f2" x="81.885937" y="49.658252" style="fill: #808080; stroke: #808080; stroke-width: 0.8"/>
      </g>
     </g>
     <g id="text_15">
      <!-- 268.75 -->
      <g style="fill: #808080" transform="translate(25.9 55.35708) scale(0.15 -0.15)">
       <use xlink:href="#DejaVuSans-32"/>
       <use xlink:href="#DejaVuSans-36" x="63.623047"/>
       <use xlink:href="#DejaVuSans-38" x="127.246094"/>
       <use xlink:href="#DejaVuSans-2e" x="190.869141"/>
       <use xlink:href="#DejaVuSans-37" x="222.65625"/>
       <use xlink:href="#DejaVuSans-35" x="286.279297"/>
      </g>
     </g>
    </g>
    <g id="text_16">
     <!-- $\theta$ [deg] -->
     <g style="fill: #808080" transform="translate(18.75 247.917187) rotate(-90) scale(0.15 -0.15)">
      <defs>
       <path id="DejaVuSans-Oblique-3b8" d="M 2913 2219 
L 925 2219 
Q 791 1284 928 888 
Q 1100 400 1566 400 
Q 2034 400 2391 891 
Q 2703 1322 2913 2219 
z
M 3009 2750 
Q 3094 3638 2984 3950 
Q 2813 4444 2353 4444 
Q 1875 4444 1525 3956 
Q 1250 3563 1034 2750 
L 3009 2750 
z
M 2444 4913 
Q 3194 4913 3494 4250 
Q 3794 3591 3566 2422 
Q 3341 1256 2781 594 
Q 2225 -72 1475 -72 
Q 722 -72 425 594 
Q 128 1256 353 2422 
Q 581 3591 1134 4250 
Q 1691 4913 2444 4913 
z
" transform="scale(0.015625)"/>
       <path id="DejaVuSans-64" d="M 2906 2969 
L 2906 4863 
L 3481 4863 
L 3481 0 
L 2906 0 
L 2906 525 
Q 2725 213 2448 61 
Q 2172 -91 1784 -91 
Q 1150 -91 751 415 
Q 353 922 353 1747 
Q 353 2572 751 3078 
Q 1150 3584 1784 3584 
Q 2172 3584 2448 3432 
Q 2725 3281 2906 2969 
z
M 947 1747 
Q 947 1113 1208 752 
Q 1469 391 1925 391 
Q 2381 391 2643 752 
Q 2906 1113 2906 1747 
Q 2906 2381 2643 2742 
Q 2381 3103 1925 3103 
Q 1469 3103 1208 2742 
Q 947 2381 947 1747 
z
" transform="scale(0.015625)"/>
       <path id="DejaVuSans-67" d="M 2906 1791 
Q 2906 2416 2648 2759 
Q 2391 3103 1925 3103 
Q 1463 3103 1205 2759 
Q 947 2416 947 1791 
Q 947 1169 1205 825 
Q 1463 481 1925 481 
Q 2391 481 2648 825 
Q 2906 1169 2906 1791 
z
M 3481 434 
Q 3481 -459 3084 -895 
Q 2688 -1331 1869 -1331 
Q 1566 -1331 1297 -1286 
Q 1028 -1241 775 -1147 
L 775 -588 
Q 1028 -725 1275 -790 
Q 1522 -856 1778 -856 
Q 2344 -856 2625 -561 
Q 2906 -266 2906 331 
L 2906 616 
Q 2728 306 2450 153 
Q 2172 0 1784 0 
Q 1141 0 747 490 
Q 353 981 353 1791 
Q 353 2603 747 3093 
Q 1141 3584 1784 3584 
Q 2172 3584 2450 3431 
Q 2728 3278 2906 2969 
L 2906 3500 
L 3481 3500 
L 3481 434 
z
" transform="scale(0.015625)"/>
      </defs>
      <use xlink:href="#DejaVuSans-Oblique-3b8" transform="translate(0 0.234375)"/>
      <use xlink:href="#DejaVuSans-20" transform="translate(61.181641 0.234375)"/>
      <use xlink:href="#DejaVuSans-5b" transform="translate(92.96875 0.234375)"/>
      <use xlink:href="#DejaVuSans-64" transform="translate(131.982422 0.234375)"/>
      <use xlink:href="#DejaVuSans-65" transform="translate(195.458984 0.234375)"/>
      <use xlink:href="#DejaVuSans-67" transform="translate(256.982422 0.234375)"/>
      <use xlink:href="#DejaVuSans-5d" transform="translate(320.458984 0.234375)"/>
     </g>
    </g>
   </g>
   <g id="line2d_29">
    <path d="M 107.249574 249.966947 
L 107.438497 262.192384 
L 107.627421 302.844719 
L 108.005284 239.411218 
L 108.194207 231.166247 
L 108.38315 231.019135 
L 108.572073 227.130597 
L 108.760996 199.968282 
L 108.949938 261.22861 
L 109.138862 251.352189 
L 109.327785 212.48296 
L 109.516727 206.943644 
L 109.705651 216.862856 
L 109.894574 197.246439 
L 110.083516 204.328759 
L 110.27244 204.36295 
L 110.461382 236.805418 
L 110.650305 240.820416 
L 111.028171 174.349288 
L 111.217094 220.341759 
L 111.59496 187.786629 
L 111.783883 199.590495 
L 111.972807 246.811744 
L 112.161749 193.542263 
L 112.350672 220.625725 
L 112.539595 171.359057 
L 112.728538 193.944964 
L 112.917461 155.87984 
L 113.106384 142.615372 
L 113.295327 190.372677 
L 113.673173 128.622278 
L 113.862115 147.637973 
L 114.051039 198.464865 
L 114.239962 143.100341 
L 114.428904 164.455236 
L 114.617828 172.988885 
L 114.80677 219.275664 
L 114.995694 135.413092 
L 115.184617 143.0729 
L 115.373559 184.139169 
L 115.562482 124.961284 
L 115.751406 102.060593 
L 115.940348 205.271794 
L 116.129271 156.313992 
L 116.318195 168.1238 
L 116.507137 153.776769 
L 116.69606 187.238676 
L 116.884984 119.822798 
L 117.073926 178.921553 
L 117.262849 139.1588 
L 117.451773 206.524717 
L 117.640715 202.681446 
L 117.829638 185.655834 
L 118.018562 155.53655 
L 118.207504 168.335601 
L 118.396427 125.984868 
L 118.585351 189.303561 
L 118.963216 178.345981 
L 119.152158 195.218719 
L 119.341082 182.577612 
L 119.718947 258.835394 
L 119.907871 287.857813 
L 120.096794 221.645231 
L 120.285736 248.964124 
L 120.474659 203.778616 
L 120.852525 227.731112 
L 121.041448 166.698578 
L 121.419314 239.174055 
L 121.608238 209.756407 
L 121.797161 151.017016 
L 122.175026 211.913206 
L 122.36395 206.993236 
L 122.552892 196.381428 
L 122.741815 171.844935 
L 122.930739 199.384571 
L 123.119681 194.186719 
L 123.308604 159.733721 
L 123.497528 151.485353 
L 123.68647 205.710262 
L 123.875393 158.789328 
L 124.064335 241.114836 
L 124.253259 185.339545 
L 124.442182 210.479859 
L 124.631124 218.980524 
L 124.820048 153.502126 
L 125.008971 204.021817 
L 125.197913 208.776227 
L 125.386837 220.060088 
L 125.57576 168.450375 
L 125.764702 179.584415 
L 125.953626 137.479731 
L 126.709338 155.621253 
L 126.898273 146.073743 
L 127.087196 207.312609 
L 127.27612 155.558071 
L 127.465062 136.202861 
L 127.653985 144.041165 
L 127.842909 141.747102 
L 128.031851 153.393568 
L 128.220774 147.39309 
L 128.409698 196.020988 
L 128.59864 204.987366 
L 128.787563 192.087587 
L 128.976487 155.660293 
L 129.165429 194.290071 
L 129.354352 169.748967 
L 129.732218 197.952257 
L 129.921141 193.156845 
L 130.110065 255.087798 
L 130.48793 165.340893 
L 130.676872 198.876952 
L 130.865796 204.168066 
L 131.054719 221.529019 
L 131.432585 131.030832 
L 131.621508 179.947814 
L 131.81045 154.093846 
L 132.188297 225.126811 
L 132.377239 232.424348 
L 132.944028 118.303562 
L 133.132952 179.822842 
L 133.510817 230.827899 
L 133.69974 210.456971 
L 133.888664 218.905515 
L 134.077606 170.724315 
L 134.266529 218.867618 
L 134.455453 214.035502 
L 134.644395 212.247247 
L 134.833318 138.894569 
L 135.022242 185.586859 
L 135.211184 192.013259 
L 135.400107 233.487233 
L 135.589031 219.179941 
L 135.777973 265.125654 
L 135.966896 261.176858 
L 136.15582 220.560068 
L 136.344762 230.944081 
L 136.533685 205.98158 
L 136.722609 235.149212 
L 136.911551 205.046704 
L 137.100474 194.692573 
L 137.289416 169.960469 
L 137.47834 239.91857 
L 137.667263 222.438841 
L 137.856205 193.852342 
L 138.045129 230.244857 
L 138.234052 209.907882 
L 138.422994 173.816383 
L 138.611918 168.619389 
L 138.800841 197.97149 
L 138.989783 148.161661 
L 139.178707 190.418467 
L 139.36763 189.025117 
L 139.556572 209.523156 
L 139.745496 284.018176 
L 139.934419 276.180417 
L 140.312284 218.574347 
L 140.501208 237.123285 
L 140.69015 223.666686 
L 140.879073 222.717842 
L 141.256939 244.245392 
L 141.445862 201.513898 
L 141.634786 290.460178 
L 141.823728 251.259478 
L 142.012651 171.594494 
L 142.201575 186.464549 
L 142.390517 167.990546 
L 142.768364 233.750248 
L 142.957306 156.657178 
L 143.146229 207.264998 
L 143.335153 220.34799 
L 143.524095 219.981652 
L 143.713018 213.309445 
L 143.901942 149.668043 
L 144.090884 171.269874 
L 144.279807 208.844657 
L 144.657673 233.27303 
L 144.846596 157.382544 
L 145.035519 184.046646 
L 145.224462 168.214304 
L 145.413385 208.81394 
L 145.60232 213.196224 
L 145.791262 206.317782 
L 145.980186 191.551864 
L 146.358051 250.04819 
L 146.735917 197.533267 
L 146.92484 280.222431 
L 147.302706 189.429944 
L 147.491629 227.006908 
L 147.680553 235.142256 
L 147.869495 184.559969 
L 148.058418 220.913552 
L 148.247341 229.411779 
L 148.436284 253.629633 
L 148.625207 200.787963 
L 148.814131 202.222025 
L 149.003073 201.044343 
L 149.191996 201.044343 
L 149.569862 255.714346 
L 149.758785 181.080585 
L 149.947708 217.513337 
L 150.13665 181.56821 
L 150.325574 210.765619 
L 150.514497 193.47181 
L 150.70344 130.416563 
L 150.892363 200.890665 
L 151.081286 204.34492 
L 151.270228 159.458351 
L 151.459152 197.564978 
L 151.837017 166.169089 
L 152.025941 192.284572 
L 152.214864 257.82126 
L 152.781653 150.461927 
L 152.970595 172.015005 
L 153.159519 180.455129 
L 153.348442 237.814272 
L 153.537384 242.642188 
L 153.726308 262.792554 
L 153.915231 214.62727 
L 154.104173 272.842321 
L 154.48202 254.011753 
L 154.670962 215.12561 
L 154.859885 210.800274 
L 155.048809 223.344277 
L 155.237751 209.760964 
L 155.426674 266.187033 
L 155.615598 257.060546 
L 155.80454 269.945957 
L 155.993464 244.810713 
L 156.371329 157.534163 
L 156.749176 217.273543 
L 157.127041 243.759409 
L 157.315965 189.682643 
L 157.504907 194.673154 
L 157.69383 211.661843 
L 157.882754 204.102875 
L 158.071696 253.268474 
L 158.449543 188.56752 
L 158.638485 259.259304 
L 158.827408 248.046889 
L 159.016332 276.950308 
L 159.205274 265.740102 
L 159.394197 262.892813 
L 159.583121 237.987478 
L 159.772063 258.058259 
L 159.960986 247.453469 
L 160.149909 191.884848 
L 160.338852 209.92041 
L 160.527775 162.049501 
L 160.716698 240.211331 
L 160.905641 201.430089 
L 161.094564 198.299701 
L 161.283487 212.821702 
L 161.472429 269.783004 
L 161.661353 282.20898 
L 161.850276 218.334943 
L 162.039218 274.183421 
L 162.417065 299.440471 
L 162.606008 235.613354 
L 162.983854 204.217966 
L 163.172796 202.179977 
L 163.36172 277.880296 
L 163.550643 300.83002 
L 163.739585 302.330736 
L 163.928509 318.007984 
L 164.117432 265.149605 
L 164.306374 277.371868 
L 164.495298 275.666935 
L 164.684221 231.757986 
L 164.873163 286.019165 
L 165.062087 197.977555 
L 165.25101 178.603656 
L 165.439952 252.558508 
L 165.628875 241.496121 
L 165.817799 191.928453 
L 166.006741 272.626752 
L 166.195665 305.655553 
L 166.384607 243.803132 
L 166.762453 300.674095 
L 166.951377 293.456038 
L 167.140319 261.299333 
L 167.329242 275.512067 
L 167.518185 194.582758 
L 167.707108 212.906497 
L 167.896031 247.071554 
L 168.084955 258.346402 
L 168.273897 200.922908 
L 168.46282 260.181661 
L 168.651744 215.572127 
L 169.029609 199.575687 
L 169.218533 228.941549 
L 169.407475 225.849643 
L 169.596398 197.630771 
L 169.785322 192.593997 
L 170.163187 277.298655 
L 170.35211 218.561546 
L 170.541053 232.716483 
L 170.729976 210.127772 
L 170.918899 201.201034 
L 171.107842 214.320227 
L 171.296765 239.42231 
L 171.485689 244.8952 
L 171.674631 244.8952 
L 171.863554 215.234631 
L 172.052477 226.427986 
L 172.241419 284.767647 
L 172.430343 268.595915 
L 172.619266 241.39253 
L 172.808209 249.505946 
L 172.997132 275.854381 
L 173.186055 252.352291 
L 173.374998 277.060275 
L 173.563921 262.110159 
L 173.752844 238.187645 
L 174.13071 219.868165 
L 174.319633 226.83051 
L 174.508575 263.293247 
L 174.697499 261.005844 
L 174.886422 204.961275 
L 175.075364 190.645092 
L 175.264288 191.261159 
L 175.453211 225.07146 
L 175.642153 212.459236 
L 175.831077 261.09326 
L 176.02 198.017603 
L 176.208942 243.853228 
L 176.397866 230.805177 
L 176.586789 183.793166 
L 176.964654 247.250007 
L 177.153578 232.645888 
L 177.34252 246.926115 
L 177.531443 225.132685 
L 177.720367 236.132187 
L 177.909309 218.583498 
L 178.098233 183.230072 
L 178.287156 186.234937 
L 178.476098 185.865923 
L 178.853945 240.174573 
L 179.042887 201.449903 
L 179.23181 228.764161 
L 179.420734 212.575448 
L 179.609676 139.506121 
L 179.798599 182.459483 
L 179.987523 159.254301 
L 180.176465 166.192416 
L 180.365388 223.974009 
L 180.743254 136.9921 
L 181.1211 215.663529 
L 181.310043 234.307009 
L 181.68789 101.634538 
L 181.876832 186.977689 
L 182.065755 210.963411 
L 182.254678 210.663576 
L 182.443621 215.174164 
L 182.821467 187.066896 
L 183.01041 218.889334 
L 183.199333 225.235398 
L 183.388259 222.165983 
L 183.577202 257.295865 
L 183.766125 194.079057 
L 183.955048 236.388419 
L 184.143991 235.38531 
L 184.332914 272.757626 
L 184.521837 208.586071 
L 184.71078 198.591227 
L 184.899703 180.544606 
L 185.088626 228.26977 
L 185.277569 204.030157 
L 185.466492 206.342807 
L 185.655415 241.287244 
L 185.844357 201.461584 
L 186.033281 201.998497 
L 186.222204 125.048508 
L 186.411146 106.884451 
L 186.60007 150.49888 
L 186.977917 108.115706 
L 187.166859 160.056149 
L 187.355782 94.081067 
L 187.733648 129.31973 
L 187.922571 78.466836 
L 188.111494 88.101728 
L 188.300437 123.249433 
L 188.678283 232.094551 
L 188.867226 203.25241 
L 189.056149 146.043769 
L 189.245072 157.053934 
L 189.434015 108.471139 
L 189.811861 204.413086 
L 190.000803 165.773387 
L 190.189727 95.386344 
L 190.37865 162.136846 
L 190.567592 163.566229 
L 190.756516 143.990083 
L 190.945439 140.430559 
L 191.134381 205.141529 
L 191.323305 172.280353 
L 191.512228 248.035821 
L 191.890094 195.747418 
L 192.079017 224.93243 
L 192.267959 184.848668 
L 192.456883 179.525188 
L 192.645806 167.152068 
L 192.834748 223.340377 
L 193.023672 189.972118 
L 193.212595 187.448977 
L 193.401537 221.073143 
L 193.590461 222.620006 
L 193.779384 223.014058 
L 193.968326 215.782591 
L 194.15725 215.782591 
L 194.346173 181.220895 
L 194.724038 227.021226 
L 194.912962 225.454334 
L 195.101904 270.475477 
L 195.290827 258.522274 
L 195.479751 214.151714 
L 195.857616 243.09211 
L 196.04654 182.171312 
L 196.235463 181.774032 
L 196.424405 173.185761 
L 196.613329 203.926752 
L 196.802252 166.485947 
L 196.991194 234.390326 
L 197.180118 218.562164 
L 197.369041 147.841167 
L 197.93583 71.804605 
L 198.502619 207.307844 
L 198.691561 175.485271 
L 198.880485 172.299262 
L 199.25835 209.913872 
L 199.447273 172.327527 
L 199.636197 177.631339 
L 199.825139 173.964953 
L 200.014062 173.576924 
L 200.202986 166.842209 
L 200.391928 229.456352 
L 200.580851 217.808785 
L 200.769775 197.885358 
L 200.958717 216.67325 
L 201.14764 265.256551 
L 201.336564 227.21008 
L 201.525506 279.464055 
L 201.714429 217.861333 
L 201.903353 254.171797 
L 202.092294 232.215552 
L 202.281217 235.165053 
L 202.470141 190.609901 
L 202.659083 200.696991 
L 202.848006 183.19594 
L 203.03693 190.095958 
L 203.225853 231.032569 
L 203.414795 157.43362 
L 203.603719 191.61909 
L 203.792642 279.945532 
L 204.170508 184.166656 
L 204.359431 195.951528 
L 204.548373 148.593059 
L 204.737297 181.067353 
L 204.92622 188.391138 
L 205.115162 169.290051 
L 205.304086 229.694405 
L 205.681951 213.446531 
L 205.870875 234.47279 
L 206.059798 167.448339 
L 206.24874 208.632842 
L 206.437663 206.47414 
L 206.626587 214.569333 
L 206.815529 205.299922 
L 207.004452 207.442765 
L 207.193376 194.056521 
L 207.382318 136.741841 
L 207.571241 190.203835 
L 207.760165 196.891332 
L 207.949107 198.380218 
L 208.13803 234.921229 
L 208.326954 232.948447 
L 208.704819 262.022933 
L 208.893743 251.6667 
L 209.082666 214.259741 
L 209.460532 310.971915 
L 209.649455 252.584618 
L 209.838397 331.278709 
L 210.027321 323.652156 
L 210.216244 259.693868 
L 210.405186 250.837531 
L 210.59411 269.106344 
L 210.783033 271.375175 
L 211.160898 319.499901 
L 211.349822 299.792197 
L 211.538764 317.60314 
L 211.727687 302.466088 
L 211.916611 225.710751 
L 212.105553 239.471812 
L 212.294476 228.569407 
L 212.4834 232.407572 
L 213.050189 263.894321 
L 213.239131 228.315713 
L 213.428054 259.972168 
L 213.616978 244.308684 
L 213.994843 233.034749 
L 214.183767 211.177785 
L 214.37269 319.009245 
L 214.561632 362.083305 
L 214.939479 248.278276 
L 215.128421 226.271842 
L 215.317344 222.967428 
L 215.506268 226.778422 
L 215.69521 263.209127 
L 215.884133 203.955441 
L 216.073057 227.786524 
L 216.450922 336.130526 
L 216.639846 264.458089 
L 216.828788 242.010877 
L 217.017711 242.010877 
L 217.206635 253.921863 
L 217.395577 244.623378 
L 217.5845 210.953585 
L 217.773424 206.506466 
L 218.151289 169.467988 
L 218.340213 210.99205 
L 218.529136 189.975746 
L 218.718078 233.67899 
L 218.907002 185.06733 
L 219.284867 285.679565 
L 219.473791 229.633736 
L 219.662714 245.693628 
L 219.851656 225.608244 
L 220.040579 266.016798 
L 220.229503 243.16785 
L 220.418445 242.724014 
L 220.607368 229.363396 
L 220.796292 271.895723 
L 221.17415 218.211834 
L 221.363074 198.598779 
L 221.552016 209.309899 
L 221.740939 257.472968 
L 221.929863 218.912972 
L 222.118786 293.112861 
L 222.307728 252.105975 
L 222.496652 250.448347 
L 222.685575 242.461546 
L 222.874517 274.267266 
L 223.063441 262.490513 
L 223.252364 292.006716 
L 223.441306 239.460362 
L 223.819153 282.098057 
L 224.008095 347.152309 
L 224.197018 352.397041 
L 224.574884 253.131801 
L 224.763808 247.735105 
L 224.952731 268.71824 
L 225.141673 308.461447 
L 225.330596 311.715499 
L 225.708443 244.386081 
L 225.897385 270.751459 
L 226.086309 257.454027 
L 226.275232 307.322347 
L 226.653098 209.563263 
L 226.842021 220.382478 
L 227.219886 280.86677 
L 227.40881 301.2889 
L 227.597752 276.089705 
L 227.786676 268.242501 
L 227.975599 285.392006 
L 228.164541 233.503244 
L 228.353465 266.52322 
L 228.542388 255.102338 
L 228.73133 281.062739 
L 228.920253 222.434721 
L 229.109177 229.897242 
L 229.487042 197.20385 
L 229.675966 208.19775 
L 229.864889 240.610158 
L 230.242755 147.258516 
L 230.62062 285.878386 
L 230.809544 280.404068 
L 230.998467 284.545768 
L 231.187409 259.637869 
L 231.376333 278.163915 
L 231.565256 276.45079 
L 231.754198 264.905206 
L 231.943122 275.390216 
L 232.132045 257.368741 
L 232.320987 279.09041 
L 232.50991 278.387631 
L 232.698834 274.320628 
L 233.0767 258.032345 
L 233.454546 195.729673 
L 233.643489 246.39202 
L 233.832412 242.801541 
L 234.210277 278.078556 
L 234.399201 210.723696 
L 234.588124 201.406925 
L 234.777066 239.410713 
L 234.96599 235.457925 
L 235.154913 291.684517 
L 235.532779 221.036005 
L 235.721702 195.618122 
L 235.910626 185.231808 
L 236.099568 214.662368 
L 236.288491 280.733254 
L 236.477414 247.657227 
L 236.666357 238.160542 
L 236.85528 279.098612 
L 237.044203 294.776697 
L 237.233146 256.359719 
L 237.422069 287.842523 
L 237.610992 351.810319 
L 237.799934 270.9854 
L 237.988858 280.02143 
L 238.177781 344.304779 
L 238.74457 246.790358 
L 238.933512 278.725335 
L 239.311359 281.190797 
L 239.500282 281.190797 
L 240.067071 231.753554 
L 240.256014 226.937969 
L 240.444937 271.586937 
L 240.633861 273.880845 
L 240.822803 260.896298 
L 241.011726 281.232916 
L 241.200649 262.592839 
L 241.389591 281.470465 
L 241.578515 284.42826 
L 241.767438 273.112711 
L 241.956362 243.65221 
L 242.145304 264.22457 
L 242.334227 255.274789 
L 242.523151 257.148406 
L 242.712093 244.379673 
L 242.901016 367.824719 
L 243.089939 299.122629 
L 243.278882 304.791038 
L 243.467805 362.32531 
L 243.656728 288.942899 
L 243.845671 304.368706 
L 244.034594 300.668191 
L 244.223518 299.456194 
L 244.41246 318.632705 
L 244.790307 287.062952 
L 244.97923 304.491339 
L 245.168172 232.558385 
L 245.357095 227.176898 
L 245.546019 207.339032 
L 245.734961 240.699979 
L 245.923884 225.532455 
L 246.112808 178.777513 
L 246.30175 188.79791 
L 246.490673 204.878631 
L 246.679597 203.892599 
L 246.868539 242.687029 
L 247.057462 237.185984 
L 247.246386 248.589726 
L 247.435309 213.306163 
L 248.002098 274.761583 
L 248.19104 274.881347 
L 248.379963 218.770939 
L 248.568887 220.315577 
L 248.757829 361.246707 
L 248.946752 313.76665 
L 249.135676 322.114587 
L 249.324618 295.725387 
L 249.513542 286.747341 
L 250.08033 342.710833 
L 250.269254 326.088955 
L 250.458177 328.527784 
L 250.647119 295.225832 
L 250.836043 289.762832 
L 251.024966 321.776566 
L 251.213908 246.862447 
L 251.402832 274.315593 
L 251.591755 261.469539 
L 251.780697 258.499445 
L 252.158544 261.842125 
L 252.347467 289.586252 
L 252.53641 294.001634 
L 252.725333 284.565835 
L 252.914256 267.529549 
L 253.103199 285.972883 
L 253.292122 230.335333 
L 253.481045 297.99383 
L 253.669987 299.141746 
L 253.858911 272.475455 
L 254.236776 284.951638 
L 254.4257 314.168241 
L 254.614623 324.624073 
L 254.803565 290.974701 
L 254.992489 290.04665 
L 255.181412 265.509232 
L 255.370336 295.888644 
L 255.559278 247.458421 
L 255.748201 269.670142 
L 255.937124 277.182742 
L 256.126067 248.810933 
L 256.503913 289.779498 
L 256.881779 250.864093 
L 257.070702 305.843961 
L 257.259644 283.696614 
L 257.448568 277.029001 
L 257.826415 207.178964 
L 258.015357 216.224758 
L 258.393204 263.364633 
L 258.582158 293.500267 
L 258.771082 243.815515 
L 258.960005 275.882881 
L 259.148947 261.485686 
L 259.337871 230.949041 
L 259.526794 281.414143 
L 259.715717 274.500233 
L 259.90466 272.930356 
L 260.282506 279.230438 
L 260.471449 291.239441 
L 260.849295 231.857628 
L 261.038237 245.181467 
L 261.605026 314.009548 
L 261.79395 301.346471 
L 261.982873 301.346471 
L 262.171797 270.941166 
L 262.360739 269.027108 
L 262.549662 289.427409 
L 262.738586 283.084982 
L 262.927528 205.837208 
L 263.116451 200.521618 
L 263.305375 218.147764 
L 263.494317 262.731234 
L 263.68324 250.513144 
L 263.872163 252.797449 
L 264.061106 237.158977 
L 264.250029 276.852587 
L 264.438952 263.379411 
L 264.816818 202.318434 
L 265.005741 190.347195 
L 265.194665 229.247641 
L 265.383607 202.888302 
L 265.57253 214.08425 
L 265.761454 202.249925 
L 265.950396 211.481287 
L 266.328243 238.561408 
L 266.517166 240.571419 
L 266.706108 241.148154 
L 266.895032 273.25859 
L 267.083955 211.678768 
L 267.461821 246.039682 
L 267.650744 215.673982 
L 267.839686 158.457532 
L 268.028609 224.371652 
L 268.406456 128.369318 
L 268.595398 132.159468 
L 268.973245 196.982596 
L 269.162187 217.074443 
L 269.351111 300.754065 
L 269.540034 217.03808 
L 269.728976 226.169367 
L 269.9179 188.019242 
L 270.106823 122.176725 
L 270.295765 193.58721 
L 270.484689 194.127923 
L 270.673612 197.239682 
L 270.862535 197.371476 
L 271.051478 231.243301 
L 271.240401 198.001388 
L 271.429324 242.922966 
L 271.80719 140.362042 
L 271.996113 191.00562 
L 272.185056 186.111699 
L 272.373979 162.230606 
L 272.751826 231.952926 
L 272.940768 226.920954 
L 273.318615 284.980591 
L 273.507557 156.203028 
L 273.885404 228.906785 
L 274.263269 117.194056 
L 274.452193 142.809647 
L 274.641116 136.353869 
L 274.830058 173.577822 
L 275.018981 137.194847 
L 275.396847 180.468506 
L 275.58577 199.910536 
L 275.963636 275.401449 
L 276.152559 257.93033 
L 276.341483 253.187739 
L 276.719348 172.078362 
L 276.908272 145.842029 
L 277.097195 197.060613 
L 277.286137 189.3773 
L 277.47506 158.900323 
L 277.663983 180.908368 
L 277.852925 156.490233 
L 278.041849 174.174752 
L 278.230772 222.599814 
L 278.419696 190.901237 
L 278.608638 258.204324 
L 278.797561 278.806815 
L 278.986485 202.648978 
L 279.175427 257.41347 
L 279.36435 199.56516 
L 279.553274 212.463234 
L 279.742216 236.678346 
L 279.931139 235.132053 
L 280.120062 180.886088 
L 280.308986 206.166178 
L 280.497928 204.839801 
L 280.686851 205.278006 
L 280.875775 249.767273 
L 281.064717 244.430373 
L 281.25364 258.827633 
L 281.442564 199.986847 
L 281.631506 222.992373 
L 281.820429 215.437688 
L 282.009353 222.347483 
L 282.198276 223.204793 
L 282.387218 222.902712 
L 282.765065 284.331704 
L 282.954007 254.801628 
L 283.142931 264.606329 
L 283.331854 228.201611 
L 283.520796 264.929323 
L 283.70972 245.852681 
L 283.898643 203.281802 
L 284.087566 192.586717 
L 284.276509 207.03735 
L 284.465432 256.23263 
L 284.654355 256.23263 
L 284.843297 232.901827 
L 285.032221 168.182599 
L 285.410068 249.615375 
L 285.787933 210.359783 
L 285.976857 248.478092 
L 286.165799 224.27014 
L 286.354722 232.075275 
L 286.543646 258.418491 
L 286.921511 250.445555 
L 287.110434 214.024706 
L 287.299358 269.707525 
L 287.677223 251.705672 
L 287.866147 206.76369 
L 288.055089 245.439884 
L 288.244012 259.181596 
L 288.621878 202.672902 
L 288.810801 182.07158 
L 288.999725 147.838581 
L 289.188648 209.489716 
L 289.37759 221.811916 
L 289.566514 245.002118 
L 289.755437 199.75277 
L 289.944379 190.220571 
L 290.133303 188.709456 
L 290.322226 182.853752 
L 290.511149 232.617264 
L 290.700092 239.873304 
L 290.889015 226.372849 
L 291.26688 176.351772 
L 291.455804 226.24297 
L 292.022593 148.141982 
L 292.211516 177.409455 
L 292.40044 167.376468 
L 292.589382 204.699355 
L 292.778305 207.708936 
L 292.967229 173.35461 
L 293.156171 167.330295 
L 293.345094 241.812308 
L 293.534017 238.257758 
L 293.722941 225.603254 
L 293.911883 189.707964 
L 294.100806 239.422529 
L 294.478672 262.868597 
L 294.667595 291.408271 
L 294.856519 266.353551 
L 295.045461 220.628614 
L 295.234384 253.152966 
L 295.423308 241.13391 
L 295.612231 265.108251 
L 295.801173 186.709286 
L 295.990097 250.258511 
L 296.17902 268.365917 
L 296.367962 257.058391 
L 296.556886 192.623318 
L 296.745809 176.481323 
L 296.934751 198.386304 
L 297.123675 180.299416 
L 297.312598 235.571529 
L 297.501521 221.636347 
L 297.690464 260.931805 
L 297.879387 226.643189 
L 298.06831 253.10624 
L 298.257252 258.070032 
L 298.446176 229.732905 
L 298.635099 313.113611 
L 298.824023 262.252146 
L 299.012965 262.78117 
L 299.201888 275.593132 
L 299.390812 275.946632 
L 299.579754 305.102753 
L 299.768677 253.025394 
L 299.957601 234.538126 
L 300.146524 248.681148 
L 300.524389 216.630499 
L 300.713313 226.80165 
L 300.902255 248.401584 
L 301.091178 285.661868 
L 301.280102 207.692432 
L 301.657967 256.584044 
L 301.846891 294.667349 
L 302.224756 298.914784 
L 302.41368 263.310757 
L 302.791545 320.888954 
L 302.980469 301.325554 
L 303.169392 238.307948 
L 303.547258 286.750319 
L 303.736181 248.438346 
L 303.925104 299.933848 
L 304.114047 192.274072 
L 304.491893 284.681678 
L 304.680817 221.571078 
L 304.869759 230.709025 
L 305.058682 232.681685 
L 305.247606 231.806128 
L 305.436548 229.896242 
L 305.625471 232.696425 
L 305.814395 202.558169 
L 306.003337 216.230903 
L 306.19226 217.491119 
L 306.381184 251.084703 
L 306.570107 257.586577 
L 306.759049 244.154684 
L 306.947973 180.69777 
L 307.136896 240.073176 
L 307.325838 240.073176 
L 307.514761 254.368719 
L 307.703685 225.617633 
L 308.08155 328.230618 
L 308.459397 237.018123 
L 308.648339 281.821554 
L 309.026186 303.666713 
L 309.21511 266.639727 
L 309.404052 309.402254 
L 309.592975 283.902252 
L 309.781898 306.654757 
L 309.970841 367.120508 
L 310.348687 310.685525 
L 310.53763 305.647285 
L 310.726553 316.633949 
L 310.915476 306.419179 
L 311.1044 243.000857 
L 311.293342 297.237761 
L 311.482265 282.0264 
L 311.671189 295.794425 
L 311.860131 293.219075 
L 312.237978 328.259196 
L 312.426901 301.840022 
L 312.615843 298.067512 
L 312.804767 313.317938 
L 312.99369 305.348994 
L 313.371556 214.210946 
L 313.560479 304.395952 
L 313.749421 307.619025 
L 314.316191 213.542738 
L 314.505133 211.184541 
L 314.694057 285.416399 
L 314.882985 219.892229 
L 315.071927 228.494208 
L 315.26085 201.17469 
L 315.449774 211.523516 
L 315.638697 263.077761 
L 315.827639 260.762554 
L 316.205486 313.129135 
L 316.394428 274.63655 
L 316.772275 315.241123 
L 317.150141 280.893779 
L 317.339064 302.284472 
L 317.527987 305.868518 
L 317.71693 286.014809 
L 317.905853 246.672767 
L 318.094776 244.954802 
L 318.2837 279.800151 
L 318.472642 281.28924 
L 318.661565 317.093475 
L 318.850489 313.552592 
L 319.039431 313.50601 
L 319.228354 324.12655 
L 319.417278 351.197947 
L 319.606201 340.538652 
L 319.984067 305.031466 
L 320.17299 361.533339 
L 320.361932 351.597315 
L 320.550856 283.934695 
L 320.739779 275.559723 
L 320.928721 302.54023 
L 321.306568 231.94246 
L 321.495491 290.269593 
L 321.684434 241.691038 
L 321.873357 279.586329 
L 322.06228 256.978167 
L 322.251222 285.128275 
L 322.440146 275.774392 
L 322.629069 373.453296 
L 323.006935 293.745671 
L 323.195858 291.040112 
L 323.573724 268.425416 
L 323.762647 278.130657 
L 323.951571 217.571703 
L 324.140494 259.942811 
L 324.329436 222.579448 
L 324.518359 227.959133 
L 324.707283 321.405622 
L 324.896225 307.296296 
L 325.085148 224.090932 
L 325.462995 193.945387 
L 325.651937 253.895471 
L 325.840861 216.687671 
L 326.029784 204.080974 
L 326.218726 266.394537 
L 326.40765 261.232054 
L 326.596573 268.288267 
L 326.785496 229.062965 
L 326.974439 271.532301 
L 327.163362 273.374801 
L 327.541228 361.873395 
L 327.919074 246.499111 
L 328.107998 257.0364 
L 328.29694 234.659414 
L 328.674787 309.254388 
L 328.86371 306.421284 
L 329.052652 222.217516 
L 329.241576 267.849312 
L 329.430499 264.482856 
L 329.619441 299.680941 
L 329.808365 299.680941 
L 329.997288 268.917762 
L 330.186211 265.365611 
L 330.564077 209.836907 
L 330.753 249.641865 
L 330.941943 196.959831 
L 331.130866 261.311146 
L 331.508713 191.654529 
L 331.697655 199.479831 
L 332.075502 264.624157 
L 332.453367 166.049893 
L 332.642291 231.18209 
L 332.831214 200.634549 
L 333.020156 194.331976 
L 333.20908 153.143522 
L 333.398003 248.979967 
L 333.775862 138.522554 
L 333.964785 201.236045 
L 334.153708 207.692842 
L 334.34265 233.851531 
L 334.531574 185.573298 
L 334.720497 183.189058 
L 335.098363 257.686821 
L 335.287286 218.204678 
L 335.47621 266.580823 
L 335.665152 239.991095 
L 335.854075 241.662109 
L 336.042999 177.149605 
L 336.420864 267.130654 
L 336.609787 228.477586 
L 336.798711 268.07293 
L 336.987653 281.237488 
L 337.176576 220.045981 
L 337.3655 195.460064 
L 337.554423 240.459769 
L 337.743365 239.53457 
L 337.932289 236.880516 
L 338.121212 209.843476 
L 338.310154 237.853409 
L 338.499078 219.716401 
L 338.688001 189.527718 
L 338.876924 226.332739 
L 339.065867 207.213563 
L 339.25479 218.01888 
L 339.443713 211.977544 
L 339.632637 253.575371 
L 339.821579 206.820692 
L 340.010502 211.621281 
L 340.199426 199.712718 
L 340.388368 203.982158 
L 340.577291 182.830385 
L 340.766215 217.01096 
L 341.14408 155.086658 
L 341.333004 191.078241 
L 341.521927 171.871055 
L 341.899792 232.637338 
L 342.088716 193.74334 
L 342.655505 230.856734 
L 342.844428 209.734126 
L 343.033352 165.12635 
L 343.222294 174.486224 
L 343.411217 155.024289 
L 343.60014 151.651115 
L 343.789083 209.613182 
L 343.978006 208.288077 
L 344.355853 166.665168 
L 344.544795 181.665907 
L 344.733719 174.543652 
L 344.922642 139.294304 
L 345.111584 172.128885 
L 345.300508 226.322865 
L 345.678354 167.308862 
L 345.867296 137.259745 
L 346.05622 210.172785 
L 346.245143 200.950825 
L 346.434067 166.929476 
L 346.623009 227.122385 
L 346.811932 220.802738 
L 347.000856 234.147935 
L 347.378721 207.928116 
L 347.567644 240.727455 
L 347.756568 206.429358 
L 347.94551 203.893689 
L 348.323357 242.367885 
L 348.701222 153.479962 
L 348.890146 123.327196 
L 349.079069 174.561171 
L 349.268011 185.430163 
L 349.456935 220.795119 
L 349.834781 206.628567 
L 350.023724 183.252884 
L 350.212647 216.625934 
L 350.40157 207.974572 
L 350.590494 177.203461 
L 350.779436 220.74762 
L 350.968359 126.058079 
L 351.535148 209.535843 
L 351.724072 211.288791 
L 351.912995 249.630746 
L 352.101937 171.057659 
L 352.290861 171.057659 
L 352.668725 215.333028 
L 352.857648 205.679078 
L 353.046571 247.108751 
L 353.235495 199.447993 
L 353.61336 245.6985 
L 353.802284 230.676346 
L 353.991207 257.329873 
L 354.180149 208.470541 
L 354.369073 303.608039 
L 354.746938 207.484457 
L 355.124785 215.131736 
L 355.313708 236.911968 
L 355.502651 215.253707 
L 355.691574 162.600018 
L 355.880497 193.623785 
L 356.069421 201.824577 
L 356.258363 193.625927 
L 356.447286 229.730356 
L 356.63621 237.510104 
L 356.825152 194.858566 
L 357.014075 195.926131 
L 357.202999 168.08794 
L 357.391922 162.992348 
L 357.580864 178.571752 
L 357.769788 168.198571 
L 357.958711 197.898689 
L 358.147634 179.277314 
L 358.5255 191.157258 
L 358.714423 166.092149 
L 358.903365 162.776808 
L 359.092289 233.017546 
L 359.281212 214.638493 
L 359.470136 212.499582 
L 359.659078 165.256453 
L 359.848001 214.276047 
L 360.036925 200.330557 
L 360.225848 149.02052 
L 360.41479 135.832908 
L 360.603714 132.67889 
L 360.792637 157.211495 
L 360.98156 157.65896 
L 361.170502 140.802533 
L 361.359426 201.259601 
L 361.548349 198.210147 
L 361.737291 178.519812 
L 361.926215 172.827515 
L 362.115138 156.299201 
L 362.304062 155.034507 
L 362.493004 132.131405 
L 362.681927 164.013458 
L 362.870851 160.949572 
L 363.059774 132.810552 
L 363.437639 174.404143 
L 363.626563 216.144257 
L 363.815505 197.115706 
L 364.004428 218.18732 
L 364.193352 177.483842 
L 364.571217 195.540579 
L 364.760141 189.849903 
L 365.137988 218.027454 
L 365.32693 171.673837 
L 365.704776 209.716398 
L 365.8937 150.949661 
L 366.082642 205.469223 
L 366.271565 202.261669 
L 366.460489 187.032621 
L 366.649431 256.838412 
L 366.838354 224.063765 
L 367.027278 214.400546 
L 367.216201 245.654561 
L 367.405143 216.752076 
L 367.594067 242.750657 
L 367.78299 190.209967 
L 367.971913 183.149519 
L 368.160856 200.124723 
L 368.349779 192.927777 
L 368.538702 181.491616 
L 368.727645 203.435052 
L 368.916568 261.184165 
L 369.294415 198.188411 
L 369.483357 186.663991 
L 369.67228 182.353266 
L 369.861204 208.617761 
L 370.050127 177.309842 
L 370.239069 206.09398 
L 370.427993 193.645361 
L 370.616916 192.223541 
L 370.805839 253.148837 
L 371.183705 215.126094 
L 371.37263 239.698674 
L 371.561572 197.203957 
L 372.128342 231.162866 
L 372.317284 209.051748 
L 372.695131 271.339772 
L 372.884055 185.5501 
L 373.072997 257.836554 
L 373.26192 267.468255 
L 373.828709 169.782794 
L 374.017632 294.957962 
L 374.395498 153.907537 
L 374.584422 131.843106 
L 374.773345 188.06293 
L 374.962268 188.06293 
L 375.151211 215.937453 
L 375.529057 169.010624 
L 375.717981 148.162697 
L 375.906923 200.255242 
L 376.095846 201.268364 
L 376.284769 206.852546 
L 376.473693 175.661153 
L 376.662635 168.39852 
L 376.851559 178.08307 
L 377.229424 247.678596 
L 377.418348 191.950109 
L 377.607271 257.189183 
L 377.796194 224.556407 
L 377.985136 214.058843 
L 378.17406 180.046748 
L 378.362983 210.582568 
L 378.551907 177.9403 
L 378.929772 261.997267 
L 379.118696 249.905864 
L 379.685484 188.873461 
L 379.874408 193.91261 
L 380.252273 234.05554 
L 380.441197 204.707703 
L 380.63012 219.356122 
L 380.819062 270.410743 
L 381.007986 224.152506 
L 381.196909 266.205326 
L 381.385833 207.291223 
L 381.574775 215.169499 
L 381.763698 302.885922 
L 382.330487 175.440264 
L 382.708334 202.597197 
L 382.897257 175.871948 
L 383.086199 183.992062 
L 383.275123 171.427166 
L 383.464046 198.888164 
L 383.652969 199.7662 
L 383.841912 186.612815 
L 384.030835 196.505571 
L 384.219758 178.446959 
L 384.597624 241.295518 
L 384.786548 219.576899 
L 384.975471 229.184881 
L 385.164413 228.19055 
L 385.54226 190.497448 
L 385.731183 187.754281 
L 385.920125 210.602638 
L 386.109049 175.081909 
L 386.297972 165.166584 
L 386.675838 205.068517 
L 386.864761 244.985586 
L 387.053685 188.055719 
L 387.242608 187.078392 
L 387.43155 147.640994 
L 387.998339 193.709735 
L 388.187262 232.271679 
L 388.376186 156.792858 
L 388.565109 220.692629 
L 388.942975 176.584329 
L 389.131898 218.384041 
L 389.320821 224.107726 
L 389.509764 246.345725 
L 389.698687 169.315246 
L 389.88761 204.052473 
L 390.076534 173.042926 
L 390.265464 179.723201 
L 390.454388 202.80649 
L 390.643311 188.541137 
L 390.832234 161.498754 
L 391.021177 204.632449 
L 391.2101 194.835247 
L 391.399023 176.349867 
L 391.587947 210.604633 
L 391.776889 221.20645 
L 391.965812 244.02234 
L 392.532601 172.100518 
L 392.721525 179.255198 
L 392.910448 135.183476 
L 393.09939 125.271094 
L 393.288314 94.770198 
L 393.477237 110.344957 
L 393.66616 162.705388 
L 394.044026 181.347745 
L 394.232949 156.542313 
L 394.610815 192.850515 
L 394.799738 170.206524 
L 394.988662 174.882581 
L 395.177585 155.824712 
L 395.366527 154.669749 
L 395.744374 243.287343 
L 395.933297 192.976098 
L 396.12224 275.948567 
L 396.500086 213.695948 
L 396.68901 216.36564 
L 396.877952 191.189571 
L 397.066875 142.119355 
L 397.255799 142.119355 
L 397.444722 208.422134 
L 397.822588 151.419882 
L 398.011511 218.988713 
L 398.389377 145.244196 
L 398.5783 154.236516 
L 398.956165 196.387834 
L 399.145089 126.022914 
L 399.334012 97.397016 
L 399.522936 169.728652 
L 399.711878 81.628218 
L 399.900801 131.286013 
L 400.089725 135.106528 
L 400.278648 174.0103 
L 400.46759 115.724593 
L 400.845437 181.608169 
L 401.03436 127.461595 
L 401.223302 174.100889 
L 401.412226 168.236925 
L 401.601149 177.070772 
L 401.790073 230.694794 
L 401.979015 220.353533 
L 402.167938 217.550739 
L 402.734727 74.229658 
L 402.923651 98.885348 
L 403.112574 103.149062 
L 403.301497 141.630646 
L 403.490439 152.707077 
L 403.679363 140.043816 
L 403.868286 158.570492 
L 404.05721 124.482228 
L 404.623999 205.818593 
L 404.812922 168.429848 
L 405.190788 215.014197 
L 405.568634 115.472976 
L 405.757576 143.760131 
L 405.9465 220.08469 
L 406.135423 115.426433 
L 406.324347 218.463692 
L 406.702212 90.75243 
L 407.080078 164.447884 
L 407.269001 115.155033 
L 407.457925 113.655566 
L 407.646848 96.892882 
L 407.83579 154.267786 
L 408.024713 153.872454 
L 408.213637 93.972986 
L 408.40256 135.034086 
L 408.591484 144.305972 
L 408.780426 84.401435 
L 409.15829 126.33139 
L 409.347232 116.34103 
L 409.536155 91.073835 
L 409.725079 124.672306 
L 409.914002 94.863573 
L 410.480791 139.926406 
L 410.669715 202.588566 
L 410.858657 171.999374 
L 411.04758 114.623308 
L 411.236503 147.102844 
L 411.425427 114.895797 
L 411.614369 135.077708 
L 411.803292 168.555677 
L 411.992216 158.827522 
L 412.370081 167.773964 
L 412.559005 224.927889 
L 412.747928 222.033893 
L 412.936852 141.7182 
L 413.125794 144.947227 
L 413.314717 164.709306 
L 413.692564 150.037041 
L 413.881506 131.882993 
L 414.070429 98.42124 
L 414.259353 143.794612 
L 414.448276 137.844994 
L 414.637218 188.834075 
L 414.826142 120.442875 
L 415.015065 130.018527 
L 415.203989 152.00035 
L 415.392931 131.270718 
L 415.581854 151.077245 
L 415.770778 41.54963 
L 415.959701 26.877188 
L 416.148643 104.516405 
L 416.337566 125.808642 
L 416.52649 134.334624 
L 416.715413 112.109396 
L 416.904355 109.623155 
L 417.093279 157.765089 
L 417.282202 135.468307 
L 417.471126 85.772574 
L 417.660068 118.158757 
L 417.848991 128.528843 
L 418.037915 84.38628 
L 418.226838 147.132237 
L 418.41578 144.689586 
L 418.604703 81.804058 
L 418.793627 148.5205 
L 418.98255 73.955417 
L 419.171492 82.615908 
L 419.549339 120.556035 
L 419.738263 120.556035 
L 420.116128 70.29997 
L 420.493975 117.337766 
L 420.87184 136.182665 
L 421.060764 131.847106 
L 421.249687 110.648165 
L 421.438629 149.276156 
L 421.627553 127.929562 
L 421.816476 90.963409 
L 422.0054 134.419878 
L 422.194342 107.43041 
L 422.572189 159.192209 
L 422.761112 148.674151 
L 423.138977 232.704392 
L 423.327901 208.367667 
L 423.516824 121.82472 
L 423.705766 119.473576 
L 423.89469 178.842973 
L 424.083613 186.946406 
L 424.272537 138.226473 
L 424.461479 136.529846 
L 424.650402 181.964475 
L 424.839326 188.343222 
L 425.217191 140.806474 
L 425.406114 112.421855 
L 425.595038 123.276937 
L 425.783961 117.604321 
L 425.972903 183.429163 
L 426.161827 167.989328 
L 426.35075 169.287333 
L 426.539674 186.691828 
L 426.728597 178.448268 
L 426.917539 188.07403 
L 427.295386 150.514413 
L 427.484309 189.655338 
L 427.673251 123.733559 
L 427.862183 179.741489 
L 428.051107 179.334837 
L 428.24003 159.685218 
L 428.428972 171.071187 
L 428.617896 133.362751 
L 428.806819 167.647536 
L 428.995743 141.789393 
L 429.184685 148.315466 
L 429.562531 191.066591 
L 429.751455 186.699641 
L 430.12932 127.407824 
L 430.318244 178.029973 
L 430.507167 184.568068 
L 430.885033 136.219436 
L 431.073956 174.745819 
L 431.26288 119.682561 
L 431.451822 141.107004 
L 431.640745 184.091591 
L 431.829668 179.57856 
L 432.018592 188.677367 
L 432.207534 173.619788 
L 432.396458 148.956976 
L 432.585381 179.979352 
L 432.774304 168.625151 
L 433.15217 235.507239 
L 433.341093 208.496357 
L 433.530016 231.166004 
L 433.718959 154.598932 
L 433.907882 132.039106 
L 434.096805 184.819591 
L 434.285729 197.36018 
L 434.663595 110.867438 
L 434.852518 120.168818 
L 435.041441 108.106764 
L 435.230383 166.824099 
L 435.419307 128.869323 
L 435.60823 131.330229 
L 435.986077 111.890776 
L 436.363943 193.649184 
L 436.741789 183.048324 
L 437.119655 198.853968 
L 437.308578 243.706438 
L 437.497502 215.725917 
L 437.686444 205.897872 
L 437.875367 223.164994 
L 438.06429 203.740846 
L 438.253214 156.204712 
L 438.442156 155.945515 
L 438.820003 183.203656 
L 439.008926 233.94134 
L 439.197868 232.937581 
L 439.386792 219.152534 
L 439.575715 237.174569 
L 439.764639 271.914735 
L 439.953581 276.920541 
L 440.142504 274.225131 
L 440.331428 185.623334 
L 440.709293 223.62736 
L 440.898217 194.279268 
L 441.08714 227.363248 
L 441.276063 205.790784 
L 441.465005 216.836665 
L 441.653929 234.823218 
L 441.842852 200.175247 
L 442.031776 200.175247 
L 442.220699 211.615345 
L 442.409641 145.043538 
L 442.598565 173.118042 
L 442.787488 168.882255 
L 443.165353 184.211163 
L 443.354277 104.607853 
L 443.5432 109.754017 
L 443.732124 163.651467 
L 444.109989 115.779145 
L 444.487836 174.819764 
L 444.676778 100.48976 
L 445.054625 196.536307 
L 445.243548 128.385811 
L 445.621414 206.629942 
L 445.810337 144.981768 
L 445.999261 176.225357 
L 446.188184 167.270335 
L 446.377126 174.219018 
L 446.566036 206.248301 
L 446.754959 196.722446 
L 447.132825 216.375129 
L 447.321748 176.001422 
L 447.510671 172.702016 
L 447.699595 185.336748 
L 447.888537 166.630036 
L 448.07746 190.027965 
L 448.266384 193.609231 
L 448.455307 251.184337 
L 448.644249 218.974206 
L 448.833173 129.917239 
L 449.022096 134.583272 
L 449.588885 231.34618 
L 449.777808 222.756944 
L 449.966732 174.195598 
L 450.155655 161.443886 
L 450.344597 162.709973 
L 450.533521 198.582586 
L 450.722444 168.652088 
L 450.911367 202.08663 
L 451.478156 111.691941 
L 451.856022 171.622316 
L 452.233869 200.151033 
L 452.422792 168.629726 
L 452.611734 199.492718 
L 452.800658 196.758122 
L 452.989581 180.162141 
L 453.178504 202.623726 
L 453.367447 184.310628 
L 453.55637 196.048706 
L 453.745293 170.267895 
L 453.934217 180.592493 
L 454.12314 132.540989 
L 454.501006 257.920011 
L 454.689929 209.72748 
L 454.878853 234.289354 
L 455.067795 213.995096 
L 455.256718 259.792167 
L 455.634565 191.377832 
L 455.823507 218.048805 
L 456.01243 169.50272 
L 456.201354 164.275478 
L 456.579219 261.00178 
L 456.957066 173.259575 
L 457.14599 177.803588 
L 457.334913 190.203684 
L 457.523855 140.202865 
L 457.712778 242.85578 
L 457.901702 266.258782 
L 458.279567 227.454228 
L 458.468491 211.537278 
L 458.657414 186.083782 
L 458.846338 196.175924 
L 459.03528 225.947983 
L 459.224203 173.735039 
L 459.413127 242.409634 
L 459.60205 228.043359 
L 459.790973 223.426873 
L 460.168839 225.667875 
L 460.357762 201.800701 
L 460.735628 235.807424 
L 460.924551 210.62821 
L 461.113475 247.460181 
L 461.49134 228.224553 
L 461.680264 262.491869 
L 461.869187 205.834019 
L 462.05811 200.013121 
L 462.624899 267.005812 
L 462.813823 235.662815 
L 463.002746 244.803101 
L 463.380612 180.56509 
L 463.569535 175.729218 
L 463.758458 252.905454 
L 463.9474 202.581707 
L 464.136324 250.018595 
L 464.325247 203.653081 
L 464.514171 203.653081 
L 464.703094 223.124298 
L 464.892036 187.637432 
L 465.08096 189.28028 
L 465.269883 244.788907 
L 465.647738 191.996578 
L 465.836661 245.529468 
L 466.025584 222.068517 
L 466.214508 214.597836 
L 466.40345 242.546131 
L 466.592373 253.418962 
L 466.97022 303.281163 
L 467.348086 241.863191 
L 467.537009 180.166257 
L 467.725932 157.494286 
L 467.914856 265.604312 
L 468.103798 258.644169 
L 468.292721 221.417719 
L 468.481645 283.174944 
L 468.670568 276.782833 
L 468.85951 208.250434 
L 469.048434 206.822445 
L 469.237357 202.273803 
L 469.42628 157.858641 
L 469.615204 193.259642 
L 469.804146 260.585351 
L 469.993069 259.486958 
L 470.181993 226.939651 
L 470.559858 273.943159 
L 470.937705 300.622688 
L 471.126628 294.812742 
L 471.315571 220.788 
L 471.504494 236.583888 
L 471.693417 213.074913 
L 471.882341 230.99741 
L 472.071264 212.609582 
L 472.260206 220.889284 
L 472.44913 202.514508 
L 472.638053 213.137516 
L 472.826977 233.997408 
L 473.015919 232.807762 
L 473.204842 310.281002 
L 473.393765 310.122253 
L 473.582689 292.845645 
L 473.960554 277.22025 
L 474.149478 291.072895 
L 474.338401 289.78132 
L 474.527325 210.159805 
L 474.716267 296.909346 
L 474.90519 262.623127 
L 475.094114 280.259036 
L 475.283037 263.358998 
L 475.471979 299.11312 
L 475.660902 288.006478 
L 475.849826 187.792833 
L 476.038749 234.72078 
L 476.227673 238.979728 
L 476.416615 235.080004 
L 476.794462 213.749169 
L 476.983385 213.764396 
L 477.361251 296.674515 
L 477.550174 269.438223 
L 477.739097 315.805147 
L 477.928021 304.355508 
L 478.116963 317.57289 
L 478.305886 273.418972 
L 478.49481 285.177497 
L 478.683733 309.627453 
L 478.872675 237.280903 
L 479.061599 234.325405 
L 479.250522 240.384847 
L 479.439445 238.41642 
L 479.628388 242.205673 
L 480.006234 192.384197 
L 480.195158 272.988565 
L 480.384081 255.350264 
L 480.573023 201.221287 
L 480.95087 212.01918 
L 481.139793 228.841662 
L 481.328736 197.616338 
L 481.517659 187.932287 
L 481.706582 226.247744 
L 481.895506 207.987151 
L 482.084429 209.731817 
L 482.273371 217.974288 
L 482.462295 219.362064 
L 482.651218 282.977271 
L 482.840141 269.025395 
L 483.029084 270.377199 
L 483.218007 268.787994 
L 483.40693 218.553133 
L 483.595854 255.92442 
L 483.784777 249.062977 
L 483.973719 291.452978 
L 484.162654 256.52492 
L 484.351577 257.592628 
L 484.5405 273.147949 
L 484.729443 229.876946 
L 484.918366 219.310371 
L 485.10729 226.988405 
L 485.296213 259.626749 
L 485.485136 222.879277 
L 485.674079 303.402649 
L 486.051925 202.97145 
L 486.240849 214.526294 
L 486.429791 235.399214 
L 486.807637 216.027268 
L 486.996561 216.027268 
L 487.185484 189.193978 
L 487.374427 195.382091 
L 487.56335 227.943625 
L 487.752273 224.775349 
L 487.941197 251.445159 
L 488.130139 192.329416 
L 488.319062 229.207181 
L 488.507986 219.881496 
L 488.696909 176.600039 
L 488.885832 284.38562 
L 489.074775 263.588382 
L 489.263698 267.222293 
L 489.452621 320.32848 
L 489.641545 302.467804 
L 489.830487 314.241529 
L 490.01941 380.209655 
L 490.397257 301.787553 
L 490.586181 286.831243 
L 490.775123 298.271479 
L 490.964046 321.01043 
L 491.341893 262.533073 
L 491.530835 308.46496 
L 491.719758 317.156752 
L 492.097605 256.928586 
L 492.286529 296.509034 
L 492.664394 266.413066 
L 492.853317 214.314768 
L 493.042241 248.113076 
L 493.231183 337.111642 
L 493.420106 313.596454 
L 493.60903 309.23087 
L 493.797953 315.798742 
L 493.986877 236.33069 
L 494.175819 226.718483 
L 494.364742 223.784468 
L 494.553666 246.771287 
L 494.742589 290.113131 
L 494.931531 285.11786 
L 495.120454 291.654824 
L 495.309378 293.783581 
L 495.498301 245.746607 
L 495.687225 228.456593 
L 495.876167 292.304307 
L 496.06509 278.024406 
L 496.442937 213.570866 
L 496.63186 217.945941 
L 497.009726 308.583951 
L 497.387573 339.373048 
L 497.765438 245.703658 
L 497.954362 279.615384 
L 498.143285 275.406985 
L 498.332208 279.040788 
L 498.52115 268.131731 
L 498.710074 268.211654 
L 498.898997 184.104186 
L 499.087921 185.498595 
L 499.276863 144.369686 
L 499.65471 264.551236 
L 499.843633 264.111789 
L 500.221499 242.071653 
L 500.410422 253.994837 
L 500.599345 232.872286 
L 500.788269 338.284029 
L 501.355058 203.50351 
L 501.543981 239.151343 
L 501.732905 295.955685 
L 501.921847 299.664444 
L 502.11077 255.003626 
L 502.299694 241.448931 
L 502.488617 243.02246 
L 502.67754 232.212429 
L 502.866482 198.746165 
L 503.055403 249.1872 
L 503.244327 178.065851 
L 503.43325 216.259765 
L 503.622174 229.737325 
L 503.811116 218.049378 
L 504.000039 241.124943 
L 504.188963 217.571236 
L 504.566828 153.506965 
L 504.755751 237.457185 
L 504.944675 245.375738 
L 505.133598 247.31117 
L 505.322522 246.67577 
L 505.511464 222.305418 
L 505.700387 219.912836 
L 505.889311 246.092395 
L 506.078234 207.120392 
L 506.267157 198.794275 
L 506.645023 209.420575 
L 506.833946 242.345247 
L 507.02287 194.690826 
L 507.211812 243.593367 
L 507.589659 177.474722 
L 507.778582 212.498153 
L 507.967505 205.932655 
L 508.156448 210.209783 
L 508.345371 245.912776 
L 508.534294 240.798831 
L 508.723218 192.249491 
L 508.912141 263.836012 
L 509.290007 218.933836 
L 509.47893 218.933836 
L 509.667853 236.087844 
L 509.856796 265.999587 
L 510.234642 197.553936 
L 510.423566 178.40093 
L 510.612489 228.449254 
L 510.801431 208.200379 
L 511.179278 260.452313 
L 511.368202 248.818747 
L 511.557125 268.772791 
L 511.746067 274.317405 
L 512.123914 233.729958 
L 512.312837 244.347963 
L 512.501779 207.448901 
L 512.690703 192.770748 
L 512.879626 215.468612 
L 513.06855 279.310589 
L 513.257473 258.77864 
L 513.446415 294.734992 
L 513.635339 284.245454 
L 513.824262 267.31305 
L 514.013185 221.811883 
L 514.202109 234.790954 
L 514.391051 236.328492 
L 514.579974 212.253964 
L 514.768898 225.319207 
L 514.957821 261.251083 
L 515.52461 183.706243 
L 515.713533 244.9412 
L 515.902457 211.778485 
L 516.091399 227.904172 
L 516.280322 257.106113 
L 516.469246 267.951681 
L 516.658169 214.474648 
L 517.036035 280.311859 
L 517.413881 171.826443 
L 517.602805 191.224918 
L 517.791728 167.246092 
L 518.169594 191.790652 
L 518.358517 251.642614 
L 518.547441 228.169326 
L 518.736364 218.797111 
L 518.925306 246.803945 
L 519.303153 148.038243 
L 519.492076 217.256971 
L 519.681 209.126941 
L 519.869942 207.396906 
L 520.247789 218.615919 
L 520.436712 198.109658 
L 520.625654 227.143961 
L 520.814578 227.306643 
L 521.003501 219.934137 
L 521.192424 266.435065 
L 521.381348 252.125622 
L 521.57029 216.825386 
L 521.759213 238.725409 
L 521.948123 216.020204 
L 522.137047 155.549476 
L 522.514912 270.053348 
L 522.703836 201.870523 
L 522.892759 191.760873 
L 523.081682 203.772252 
L 523.270606 225.079931 
L 523.459548 202.246688 
L 523.648471 217.87157 
L 523.837395 192.468312 
L 524.026318 186.164157 
L 524.215242 235.419627 
L 524.404184 203.591332 
L 524.593107 222.166622 
L 524.78203 170.108997 
L 524.970954 228.495621 
L 525.159877 217.933717 
L 525.348819 283.41175 
L 525.726666 205.901366 
L 526.104532 241.296059 
L 526.293455 221.946175 
L 526.482379 284.875252 
L 526.671302 295.994091 
L 526.860225 249.87671 
L 527.049167 250.801677 
L 527.238091 257.516717 
L 527.427014 172.559683 
L 527.615938 198.48828 
L 527.804861 185.471401 
L 528.182727 227.211247 
L 528.37165 204.028753 
L 528.560573 206.049744 
L 528.749497 280.579316 
L 528.938439 208.936495 
L 529.127362 235.86675 
L 529.316286 241.407597 
L 529.505209 213.799913 
L 529.694132 204.736239 
L 529.883075 219.368019 
L 530.071998 266.202457 
L 530.449845 236.790694 
L 530.82771 321.574453 
L 531.205557 215.798531 
L 531.394481 255.567657 
L 531.583404 246.181698 
L 531.772346 246.181698 
L 531.961269 220.207264 
L 532.150193 122.526749 
L 532.716982 191.153546 
L 532.905905 170.577402 
L 533.094829 181.679593 
L 533.283752 120.14427 
L 533.472675 127.778165 
L 533.661618 204.172284 
L 533.850541 181.860646 
L 534.039464 190.731633 
L 534.228388 247.919066 
L 534.41733 199.28613 
L 534.606253 185.084353 
L 534.795177 249.265544 
L 534.9841 239.366263 
L 535.173023 254.329081 
L 535.361947 245.587028 
L 535.928736 161.871142 
L 536.117659 186.974985 
L 536.306583 231.829494 
L 536.495525 200.470448 
L 536.684448 212.582513 
L 536.873371 278.856489 
L 537.062295 224.009385 
L 537.251218 243.70755 
L 537.44016 201.754727 
L 537.818007 247.393093 
L 538.006931 265.650572 
L 538.195854 244.549708 
L 538.384796 309.843779 
L 538.57372 222.670594 
L 538.951566 205.101391 
L 539.329432 274.501954 
L 539.518355 274.01083 
L 539.707279 244.431502 
L 539.896202 272.100809 
L 540.085125 234.559043 
L 540.274068 265.61138 
L 540.462991 199.568882 
L 540.65193 181.628113 
L 540.840854 181.199118 
L 541.029777 248.821558 
L 541.218719 266.698095 
L 541.407642 303.833766 
L 541.596566 286.789096 
L 541.785489 326.131703 
L 541.974413 256.454309 
L 542.163355 255.906671 
L 542.352278 193.046052 
L 542.541202 200.90214 
L 542.730125 273.684768 
L 542.919048 262.132369 
L 543.296914 299.028213 
L 543.485837 292.486568 
L 543.674761 341.026181 
L 543.863684 344.240381 
L 544.052626 270.270516 
L 544.24155 277.371835 
L 544.430473 292.690324 
L 544.619396 291.256596 
L 544.80832 252.59771 
L 544.997262 253.799958 
L 545.186185 288.536157 
L 545.375109 268.037733 
L 545.564032 274.901535 
L 545.941898 230.123352 
L 546.130821 285.026005 
L 546.508668 177.600866 
L 546.697591 179.439891 
L 546.886533 259.480378 
L 547.075457 208.419489 
L 547.26438 249.345455 
L 547.453303 250.026827 
L 547.642227 206.483524 
L 547.831169 250.77588 
L 548.020092 197.238737 
L 548.209016 264.750335 
L 548.397939 276.365481 
L 548.586863 263.8891 
L 548.775805 235.916153 
L 548.964728 170.734641 
L 549.153652 252.199468 
L 549.342575 223.447767 
L 549.531498 168.946461 
L 549.72044 202.034795 
L 549.909364 182.080667 
L 550.098287 187.221203 
L 550.287211 197.504533 
L 550.476134 136.182315 
L 550.665076 186.577517 
L 550.854 199.661413 
L 551.042923 224.725203 
L 551.231846 288.413492 
L 551.42077 253.11621 
L 551.609693 251.660167 
L 551.798635 236.271302 
L 551.987559 288.281768 
L 552.176482 266.239203 
L 552.365405 265.898476 
L 552.554329 229.193994 
L 552.743271 304.661501 
L 552.932195 212.181091 
L 553.121118 207.19803 
L 553.498965 275.45342 
L 553.687907 233.045291 
L 553.87683 256.574981 
L 554.065753 256.574981 
L 554.4436 286.060085 
L 554.632543 334.791262 
L 554.821466 331.728937 
L 555.010389 269.219384 
L 555.199313 258.104785 
L 555.388236 211.213916 
L 555.577178 259.526275 
L 555.766101 262.791686 
L 555.955025 269.316937 
L 556.143948 271.740635 
L 556.332872 294.817898 
L 556.521814 300.903858 
L 556.899661 207.344685 
L 557.277508 271.784439 
L 557.466431 261.176911 
L 557.655373 189.731166 
L 557.844297 260.955455 
L 558.03322 197.340358 
L 558.222143 199.493309 
L 558.411066 278.749127 
L 558.600009 228.419645 
L 558.788932 224.321812 
L 558.977856 277.31845 
L 559.166779 284.215677 
L 559.355702 209.413617 
L 559.922496 218.472598 
L 560.300343 277.010529 
L 560.489285 268.571046 
L 560.678208 320.365904 
L 560.867132 286.38119 
L 561.056055 224.726756 
L 561.244978 302.101259 
L 561.433902 242.540282 
L 561.622844 249.687377 
L 561.811767 242.860769 
L 562.000691 266.605859 
L 562.189614 268.184248 
L 562.378538 311.598939 
L 562.56748 305.76775 
L 562.756403 275.951589 
L 562.945326 302.54375 
L 563.13425 304.19637 
L 563.323173 298.075273 
L 563.512115 268.633947 
L 563.701039 266.612023 
L 564.078886 232.033807 
L 564.267809 236.261363 
L 564.456751 208.816737 
L 564.645675 217.53684 
L 564.834598 276.702406 
L 565.023521 261.225065 
L 565.212445 232.107555 
L 565.401368 268.265694 
L 565.59031 270.853565 
L 565.968157 249.873692 
L 566.346004 241.932622 
L 566.912793 335.829855 
L 567.101716 302.093291 
L 567.29064 297.117545 
L 567.479582 373.934716 
L 567.857428 271.037207 
L 568.046352 312.340897 
L 568.235275 271.222244 
L 568.424199 373.103865 
L 568.613141 323.918681 
L 568.802064 331.876998 
L 568.990988 349.065051 
L 569.179911 378.18533 
L 569.368834 303.24944 
L 569.557776 296.69895 
L 569.7467 308.930646 
L 569.935623 348.6114 
L 570.124547 338.958514 
L 570.31347 368.184956 
L 570.502393 354.936881 
L 570.691336 378.420328 
L 570.880259 327.113201 
L 571.069183 336.368056 
L 571.258106 332.874934 
L 571.447029 359.453817 
L 571.635971 363.182514 
L 571.824895 336.36864 
L 572.013818 351.763448 
L 572.202741 311.588121 
L 572.391665 314.522446 
L 572.580607 327.97477 
L 572.769531 351.146498 
L 573.147377 287.450743 
L 573.336301 338.587951 
L 573.525224 351.872387 
L 573.714166 339.995226 
L 573.90309 338.705418 
L 574.092013 289.613921 
L 574.280936 333.633008 
L 574.46986 317.774527 
L 574.658802 288.252414 
L 574.847725 343.531342 
L 575.225572 318.710249 
L 575.414496 307.132349 
L 575.603419 349.299655 
L 575.792361 338.895659 
L 575.981285 291.254571 
L 576.170208 283.473478 
L 576.359131 283.473478 
L 576.548054 320.431651 
L 576.736997 318.847297 
L 576.92592 288.806875 
L 577.114843 218.36603 
L 577.303767 270.556515 
L 577.49269 280.246412 
L 577.681614 312.13861 
L 577.870556 379.75303 
L 578.059479 362.280234 
L 578.248393 259.709681 
L 578.437317 235.571995 
L 578.62624 286.460516 
L 578.815182 262.267932 
L 579.193029 249.263825 
L 579.381952 284.194585 
L 579.570876 223.504222 
L 579.759818 247.742349 
L 579.948741 318.06803 
L 580.137665 287.992196 
L 580.326588 317.973758 
L 580.515511 316.200688 
L 580.704435 308.116554 
L 580.893377 315.873568 
L 581.082301 316.204317 
L 581.271224 292.526932 
L 581.460147 312.97753 
L 581.649071 247.385712 
L 581.838013 226.970638 
L 582.026936 275.529457 
L 582.215859 229.065544 
L 582.404783 221.993178 
L 582.593706 240.968759 
L 582.78263 298.267926 
L 582.971572 222.506049 
L 583.160495 256.021279 
L 583.538342 213.187309 
L 583.727265 293.474959 
L 583.916189 221.786285 
L 584.105131 231.834726 
L 584.294054 292.285209 
L 584.482978 196.448504 
L 584.671901 196.32113 
L 584.860824 206.920019 
L 585.23869 264.144201 
L 585.427614 233.181875 
L 585.616537 220.814926 
L 585.994384 128.591533 
L 586.183326 139.668567 
L 586.372249 135.009255 
L 586.750096 170.492695 
L 586.939019 213.961349 
L 587.127943 186.408989 
L 587.316885 224.859766 
L 587.505808 180.709857 
L 587.694732 199.538089 
L 587.883655 189.956797 
L 588.072579 282.068699 
L 588.450444 230.419196 
L 588.639367 229.851941 
L 588.828291 242.38841 
L 589.017214 204.91525 
L 589.206137 208.952931 
L 589.39508 175.459882 
L 589.584003 191.25144 
L 589.772927 265.756376 
L 589.96185 273.787531 
L 590.150773 269.681781 
L 590.339716 273.670707 
L 590.528639 245.623058 
L 590.717562 238.24918 
L 590.906486 269.927937 
L 591.284332 228.947623 
L 591.473274 226.333897 
L 591.662198 226.093156 
L 592.040045 307.673304 
L 592.228968 260.361308 
L 592.417892 259.217347 
L 592.606834 307.994008 
L 592.795757 296.993373 
L 592.984681 247.121215 
L 593.173604 249.626811 
L 593.362527 283.133197 
L 593.551469 281.704108 
L 593.740393 262.354628 
L 594.11824 303.8593 
L 594.307163 268.964186 
L 594.496086 312.369321 
L 594.685029 312.094483 
L 594.873952 327.358639 
L 595.062875 325.588011 
L 595.251799 289.539083 
L 595.440722 313.413406 
L 595.629645 277.128773 
L 596.007511 323.537115 
L 596.574281 338.519413 
L 596.763223 303.009039 
L 596.952147 304.662646 
L 597.141068 331.359538 
L 597.329991 303.356593 
L 597.518915 307.178386 
L 597.707838 346.889441 
L 598.085703 264.949824 
L 598.274627 294.382071 
L 598.46355 251.059327 
L 598.652474 251.059327 
L 598.841397 299.91287 
L 599.030339 267.131928 
L 599.219263 275.725937 
L 599.786033 330.582548 
L 599.974956 314.860727 
L 600.163898 256.745318 
L 600.352822 321.831143 
L 600.541745 337.991224 
L 600.730668 382.966168 
L 600.919592 369.148864 
L 601.297457 256.948308 
L 601.486381 239.816763 
L 602.053151 336.79842 
L 602.242074 293.560048 
L 602.431017 316.181407 
L 602.61994 314.385248 
L 602.997787 392.49131 
L 603.18671 332.88832 
L 603.375652 342.952629 
L 603.753499 400.590309 
L 603.942422 345.644433 
L 604.131346 368.842016 
L 604.320269 414.957188 
L 604.509211 347.867663 
L 604.698135 324.175974 
L 604.887058 319.017012 
L 605.075982 336.668869 
L 605.453828 242.269113 
L 605.64277 251.430604 
L 606.020617 241.449512 
L 606.209541 301.583606 
L 606.398464 317.008757 
L 606.587387 260.141706 
L 606.965253 333.88114 
L 607.154176 296.85246 
L 607.3431 298.879451 
L 607.532023 266.799 
L 607.720946 277.553851 
L 607.909889 259.644091 
L 608.098812 274.168127 
L 608.287735 236.661474 
L 608.476659 264.929668 
L 608.665582 274.967085 
L 608.854506 249.989334 
L 609.043448 294.277765 
L 609.232371 276.973939 
L 609.610218 212.962548 
L 609.799141 194.203276 
L 609.988065 230.50623 
L 610.177007 234.413032 
L 610.36593 199.023402 
L 610.743777 307.917611 
L 611.121624 223.284767 
L 611.310566 245.092145 
L 611.499489 208.846477 
L 611.688413 237.568022 
L 611.877336 240.630639 
L 612.06626 220.02059 
L 612.255183 227.75735 
L 612.444125 287.22723 
L 612.633048 268.19549 
L 612.821972 267.062901 
L 613.199819 298.715025 
L 613.388742 312.983801 
L 613.577684 288.393363 
L 613.766608 227.842976 
L 613.955531 232.661959 
L 614.144454 278.425312 
L 614.333378 228.106272 
L 614.522301 227.166045 
L 614.522301 227.166045 
" clip-path="url(#p4634f52e06)" style="fill: none; stroke: #1f77b4; stroke-width: 2; stroke-linecap: square"/>
   </g>
   <g id="patch_3">
    <path d="M 81.885937 414.957188 
L 81.885937 26.877188 
" style="fill: none; stroke: #808080; stroke-width: 2; stroke-linejoin: miter; stroke-linecap: square"/>
   </g>
   <g id="patch_4">
    <path d="M 81.885938 414.957187 
L 639.885938 414.957187 
" style="fill: none; stroke: #808080; stroke-width: 2; stroke-linejoin: miter; stroke-linecap: square"/>
   </g>
   <g id="text_17">
    <!-- Vemund-Tyholt_flymodus-vinkel -->
    <g style="fill: #808080" transform="translate(219.578906 20.877187) scale(0.18 -0.18)">
     <defs>
      <path id="DejaVuSans-56" d="M 1831 0 
L 50 4666 
L 709 4666 
L 2188 738 
L 3669 4666 
L 4325 4666 
L 2547 0 
L 1831 0 
z
" transform="scale(0.015625)"/>
      <path id="DejaVuSans-75" d="M 544 1381 
L 544 3500 
L 1119 3500 
L 1119 1403 
Q 1119 906 1312 657 
Q 1506 409 1894 409 
Q 2359 409 2629 706 
Q 2900 1003 2900 1516 
L 2900 3500 
L 3475 3500 
L 3475 0 
L 2900 0 
L 2900 538 
Q 2691 219 2414 64 
Q 2138 -91 1772 -91 
Q 1169 -91 856 284 
Q 544 659 544 1381 
z
M 1991 3584 
L 1991 3584 
z
" transform="scale(0.015625)"/>
      <path id="DejaVuSans-6e" d="M 3513 2113 
L 3513 0 
L 2938 0 
L 2938 2094 
Q 2938 2591 2744 2837 
Q 2550 3084 2163 3084 
Q 1697 3084 1428 2787 
Q 1159 2491 1159 1978 
L 1159 0 
L 581 0 
L 581 3500 
L 1159 3500 
L 1159 2956 
Q 1366 3272 1645 3428 
Q 1925 3584 2291 3584 
Q 2894 3584 3203 3211 
Q 3513 2838 3513 2113 
z
" transform="scale(0.015625)"/>
      <path id="DejaVuSans-2d" d="M 313 2009 
L 1997 2009 
L 1997 1497 
L 313 1497 
L 313 2009 
z
" transform="scale(0.015625)"/>
      <path id="DejaVuSans-54" d="M -19 4666 
L 3928 4666 
L 3928 4134 
L 2272 4134 
L 2272 0 
L 1638 0 
L 1638 4134 
L -19 4134 
L -19 4666 
z
" transform="scale(0.015625)"/>
      <path id="DejaVuSans-79" d="M 2059 -325 
Q 1816 -950 1584 -1140 
Q 1353 -1331 966 -1331 
L 506 -1331 
L 506 -850 
L 844 -850 
Q 1081 -850 1212 -737 
Q 1344 -625 1503 -206 
L 1606 56 
L 191 3500 
L 800 3500 
L 1894 763 
L 2988 3500 
L 3597 3500 
L 2059 -325 
z
" transform="scale(0.015625)"/>
      <path id="DejaVuSans-68" d="M 3513 2113 
L 3513 0 
L 2938 0 
L 2938 2094 
Q 2938 2591 2744 2837 
Q 2550 3084 2163 3084 
Q 1697 3084 1428 2787 
Q 1159 2491 1159 1978 
L 1159 0 
L 581 0 
L 581 4863 
L 1159 4863 
L 1159 2956 
Q 1366 3272 1645 3428 
Q 1925 3584 2291 3584 
Q 2894 3584 3203 3211 
Q 3513 2838 3513 2113 
z
" transform="scale(0.015625)"/>
      <path id="DejaVuSans-6f" d="M 1959 3097 
Q 1497 3097 1228 2736 
Q 959 2375 959 1747 
Q 959 1119 1226 758 
Q 1494 397 1959 397 
Q 2419 397 2687 759 
Q 2956 1122 2956 1747 
Q 2956 2369 2687 2733 
Q 2419 3097 1959 3097 
z
M 1959 3584 
Q 2709 3584 3137 3096 
Q 3566 2609 3566 1747 
Q 3566 888 3137 398 
Q 2709 -91 1959 -91 
Q 1206 -91 779 398 
Q 353 888 353 1747 
Q 353 2609 779 3096 
Q 1206 3584 1959 3584 
z
" transform="scale(0.015625)"/>
      <path id="DejaVuSans-6c" d="M 603 4863 
L 1178 4863 
L 1178 0 
L 603 0 
L 603 4863 
z
" transform="scale(0.015625)"/>
      <path id="DejaVuSans-5f" d="M 3263 -1063 
L 3263 -1509 
L -63 -1509 
L -63 -1063 
L 3263 -1063 
z
" transform="scale(0.015625)"/>
      <path id="DejaVuSans-66" d="M 2375 4863 
L 2375 4384 
L 1825 4384 
Q 1516 4384 1395 4259 
Q 1275 4134 1275 3809 
L 1275 3500 
L 2222 3500 
L 2222 3053 
L 1275 3053 
L 1275 0 
L 697 0 
L 697 3053 
L 147 3053 
L 147 3500 
L 697 3500 
L 697 3744 
Q 697 4328 969 4595 
Q 1241 4863 1831 4863 
L 2375 4863 
z
" transform="scale(0.015625)"/>
      <path id="DejaVuSans-76" d="M 191 3500 
L 800 3500 
L 1894 563 
L 2988 3500 
L 3597 3500 
L 2284 0 
L 1503 0 
L 191 3500 
z
" transform="scale(0.015625)"/>
      <path id="DejaVuSans-6b" d="M 581 4863 
L 1159 4863 
L 1159 1991 
L 2875 3500 
L 3609 3500 
L 1753 1863 
L 3688 0 
L 2938 0 
L 1159 1709 
L 1159 0 
L 581 0 
L 581 4863 
z
" transform="scale(0.015625)"/>
     </defs>
     <use xlink:href="#DejaVuSans-56"/>
     <use xlink:href="#DejaVuSans-65" x="60.658203"/>
     <use xlink:href="#DejaVuSans-6d" x="122.181641"/>
     <use xlink:href="#DejaVuSans-75" x="219.59375"/>
     <use xlink:href="#DejaVuSans-6e" x="282.972656"/>
     <use xlink:href="#DejaVuSans-64" x="346.351562"/>
     <use xlink:href="#DejaVuSans-2d" x="409.828125"/>
     <use xlink:href="#DejaVuSans-54" x="436.787109"/>
     <use xlink:href="#DejaVuSans-79" x="482.246094"/>
     <use xlink:href="#DejaVuSans-68" x="541.425781"/>
     <use xlink:href="#DejaVuSans-6f" x="604.804688"/>
     <use xlink:href="#DejaVuSans-6c" x="665.986328"/>
     <use xlink:href="#DejaVuSans-74" x="693.769531"/>
     <use xlink:href="#DejaVuSans-5f" x="732.978516"/>
     <use xlink:href="#DejaVuSans-66" x="782.978516"/>
     <use xlink:href="#DejaVuSans-6c" x="818.183594"/>
     <use xlink:href="#DejaVuSans-79" x="845.966797"/>
     <use xlink:href="#DejaVuSans-6d" x="905.146484"/>
     <use xlink:href="#DejaVuSans-6f" x="1002.558594"/>
     <use xlink:href="#DejaVuSans-64" x="1063.740234"/>
     <use xlink:href="#DejaVuSans-75" x="1127.216797"/>
     <use xlink:href="#DejaVuSans-73" x="1190.595703"/>
     <use xlink:href="#DejaVuSans-2d" x="1242.695312"/>
     <use xlink:href="#DejaVuSans-76" x="1276.154297"/>
     <use xlink:href="#DejaVuSans-69" x="1335.333984"/>
     <use xlink:href="#DejaVuSans-6e" x="1363.117188"/>
     <use xlink:href="#DejaVuSans-6b" x="1426.496094"/>
     <use xlink:href="#DejaVuSans-65" x="1480.78125"/>
     <use xlink:href="#DejaVuSans-6c" x="1542.304688"/>
    </g>
   </g>
   <g id="legend_1">
    <g id="patch_5">
     <path d="M 92.385937 61.311562 
L 375.897656 61.311562 
Q 378.897656 61.311562 378.897656 58.311562 
L 378.897656 37.377187 
Q 378.897656 34.377187 375.897656 34.377187 
L 92.385937 34.377187 
Q 89.385937 34.377187 89.385937 37.377187 
L 89.385937 58.311562 
Q 89.385937 61.311562 92.385937 61.311562 
z
" style="fill: #ffffff; opacity: 0.8; stroke: #cccccc; stroke-linejoin: miter"/>
    </g>
    <g id="line2d_30">
     <path d="M 95.385937 46.524844 
L 110.385937 46.524844 
L 125.385937 46.524844 
" style="fill: none; stroke: #1f77b4; stroke-width: 2; stroke-linecap: square"/>
    </g>
    <g id="text_18">
     <!-- Vemund-Tyholt_flymodus-vinkel -->
     <g style="fill: #808080" transform="translate(137.385938 51.774844) scale(0.15 -0.15)">
      <use xlink:href="#DejaVuSans-56"/>
      <use xlink:href="#DejaVuSans-65" x="60.658203"/>
      <use xlink:href="#DejaVuSans-6d" x="122.181641"/>
      <use xlink:href="#DejaVuSans-75" x="219.59375"/>
      <use xlink:href="#DejaVuSans-6e" x="282.972656"/>
      <use xlink:href="#DejaVuSans-64" x="346.351562"/>
      <use xlink:href="#DejaVuSans-2d" x="409.828125"/>
      <use xlink:href="#DejaVuSans-54" x="436.787109"/>
      <use xlink:href="#DejaVuSans-79" x="482.246094"/>
      <use xlink:href="#DejaVuSans-68" x="541.425781"/>
      <use xlink:href="#DejaVuSans-6f" x="604.804688"/>
      <use xlink:href="#DejaVuSans-6c" x="665.986328"/>
      <use xlink:href="#DejaVuSans-74" x="693.769531"/>
      <use xlink:href="#DejaVuSans-5f" x="732.978516"/>
      <use xlink:href="#DejaVuSans-66" x="782.978516"/>
      <use xlink:href="#DejaVuSans-6c" x="818.183594"/>
      <use xlink:href="#DejaVuSans-79" x="845.966797"/>
      <use xlink:href="#DejaVuSans-6d" x="905.146484"/>
      <use xlink:href="#DejaVuSans-6f" x="1002.558594"/>
      <use xlink:href="#DejaVuSans-64" x="1063.740234"/>
      <use xlink:href="#DejaVuSans-75" x="1127.216797"/>
      <use xlink:href="#DejaVuSans-73" x="1190.595703"/>
      <use xlink:href="#DejaVuSans-2d" x="1242.695312"/>
      <use xlink:href="#DejaVuSans-76" x="1276.154297"/>
      <use xlink:href="#DejaVuSans-69" x="1335.333984"/>
      <use xlink:href="#DejaVuSans-6e" x="1363.117188"/>
      <use xlink:href="#DejaVuSans-6b" x="1426.496094"/>
      <use xlink:href="#DejaVuSans-65" x="1480.78125"/>
      <use xlink:href="#DejaVuSans-6c" x="1542.304688"/>
     </g>
    </g>
   </g>
  </g>
 </g>
 <defs>
  <clipPath id="p4634f52e06">
   <rect x="81.885937" y="26.877187" width="558" height="388.08"/>
  </clipPath>
 </defs>
</svg>
