<?xml version="1.0" encoding="utf-8" standalone="no"?>
<!DOCTYPE svg PUBLIC "-//W3C//DTD SVG 1.1//EN"
  "http://www.w3.org/Graphics/SVG/1.1/DTD/svg11.dtd">
<svg xmlns:xlink="http://www.w3.org/1999/xlink" width="637.542187pt" height="458.691562pt" viewBox="0 0 637.542187 458.691562" xmlns="http://www.w3.org/2000/svg" version="1.1">
 <metadata>
  <rdf:RDF xmlns:dc="http://purl.org/dc/elements/1.1/" xmlns:cc="http://creativecommons.org/ns#" xmlns:rdf="http://www.w3.org/1999/02/22-rdf-syntax-ns#">
   <cc:Work>
    <dc:type rdf:resource="http://purl.org/dc/dcmitype/StillImage"/>
    <dc:date>2023-04-10T19:04:12.539644</dc:date>
    <dc:format>image/svg+xml</dc:format>
    <dc:creator>
     <cc:Agent>
      <dc:title>Matplotlib v3.7.1, https://matplotlib.org/</dc:title>
     </cc:Agent>
    </dc:creator>
   </cc:Work>
  </rdf:RDF>
 </metadata>
 <defs>
  <style type="text/css">*{stroke-linejoin: round; stroke-linecap: butt}</style>
 </defs>
 <g id="figure_1">
  <g id="patch_1">
   <path d="M 0 458.691562 
L 637.542187 458.691562 
L 637.542187 0 
L 0 0 
L 0 458.691562 
z
" style="fill: none"/>
  </g>
  <g id="axes_1">
   <g id="patch_2">
    <path d="M 72.342187 414.957187 
L 630.342188 414.957187 
L 630.342188 26.877187 
L 72.342187 26.877187 
L 72.342187 414.957187 
z
" style="fill: none"/>
   </g>
   <g id="matplotlib.axis_1">
    <g id="xtick_1">
     <g id="line2d_1">
      <path d="M 98.059408 414.957187 
L 98.059408 26.877187 
" clip-path="url(#p0c2459e8e3)" style="fill: none; stroke: #808080; stroke-width: 0.8; stroke-linecap: square"/>
     </g>
     <g id="line2d_2">
      <defs>
       <path id="m6e55ff3432" d="M 0 0 
L 0 -5 
" style="stroke: #808080; stroke-width: 0.8"/>
      </defs>
      <g>
       <use xlink:href="#m6e55ff3432" x="98.059408" y="414.957187" style="fill: #808080; stroke: #808080; stroke-width: 0.8"/>
      </g>
     </g>
     <g id="text_1">
      <!-- 30 -->
      <g style="fill: #808080" transform="translate(88.515658 429.854844) scale(0.15 -0.15)">
       <defs>
        <path id="DejaVuSans-33" d="M 2597 2516 
Q 3050 2419 3304 2112 
Q 3559 1806 3559 1356 
Q 3559 666 3084 287 
Q 2609 -91 1734 -91 
Q 1441 -91 1130 -33 
Q 819 25 488 141 
L 488 750 
Q 750 597 1062 519 
Q 1375 441 1716 441 
Q 2309 441 2620 675 
Q 2931 909 2931 1356 
Q 2931 1769 2642 2001 
Q 2353 2234 1838 2234 
L 1294 2234 
L 1294 2753 
L 1863 2753 
Q 2328 2753 2575 2939 
Q 2822 3125 2822 3475 
Q 2822 3834 2567 4026 
Q 2313 4219 1838 4219 
Q 1578 4219 1281 4162 
Q 984 4106 628 3988 
L 628 4550 
Q 988 4650 1302 4700 
Q 1616 4750 1894 4750 
Q 2613 4750 3031 4423 
Q 3450 4097 3450 3541 
Q 3450 3153 3228 2886 
Q 3006 2619 2597 2516 
z
" transform="scale(0.015625)"/>
        <path id="DejaVuSans-30" d="M 2034 4250 
Q 1547 4250 1301 3770 
Q 1056 3291 1056 2328 
Q 1056 1369 1301 889 
Q 1547 409 2034 409 
Q 2525 409 2770 889 
Q 3016 1369 3016 2328 
Q 3016 3291 2770 3770 
Q 2525 4250 2034 4250 
z
M 2034 4750 
Q 2819 4750 3233 4129 
Q 3647 3509 3647 2328 
Q 3647 1150 3233 529 
Q 2819 -91 2034 -91 
Q 1250 -91 836 529 
Q 422 1150 422 2328 
Q 422 3509 836 4129 
Q 1250 4750 2034 4750 
z
" transform="scale(0.015625)"/>
       </defs>
       <use xlink:href="#DejaVuSans-33"/>
       <use xlink:href="#DejaVuSans-30" x="63.623047"/>
      </g>
     </g>
    </g>
    <g id="xtick_2">
     <g id="line2d_3">
      <path d="M 199.530272 414.957187 
L 199.530272 26.877187 
" clip-path="url(#p0c2459e8e3)" style="fill: none; stroke: #808080; stroke-width: 0.8; stroke-linecap: square"/>
     </g>
     <g id="line2d_4">
      <g>
       <use xlink:href="#m6e55ff3432" x="199.530272" y="414.957187" style="fill: #808080; stroke: #808080; stroke-width: 0.8"/>
      </g>
     </g>
     <g id="text_2">
      <!-- 35 -->
      <g style="fill: #808080" transform="translate(189.986522 429.854844) scale(0.15 -0.15)">
       <defs>
        <path id="DejaVuSans-35" d="M 691 4666 
L 3169 4666 
L 3169 4134 
L 1269 4134 
L 1269 2991 
Q 1406 3038 1543 3061 
Q 1681 3084 1819 3084 
Q 2600 3084 3056 2656 
Q 3513 2228 3513 1497 
Q 3513 744 3044 326 
Q 2575 -91 1722 -91 
Q 1428 -91 1123 -41 
Q 819 9 494 109 
L 494 744 
Q 775 591 1075 516 
Q 1375 441 1709 441 
Q 2250 441 2565 725 
Q 2881 1009 2881 1497 
Q 2881 1984 2565 2268 
Q 2250 2553 1709 2553 
Q 1456 2553 1204 2497 
Q 953 2441 691 2322 
L 691 4666 
z
" transform="scale(0.015625)"/>
       </defs>
       <use xlink:href="#DejaVuSans-33"/>
       <use xlink:href="#DejaVuSans-35" x="63.623047"/>
      </g>
     </g>
    </g>
    <g id="xtick_3">
     <g id="line2d_5">
      <path d="M 301.001136 414.957187 
L 301.001136 26.877187 
" clip-path="url(#p0c2459e8e3)" style="fill: none; stroke: #808080; stroke-width: 0.8; stroke-linecap: square"/>
     </g>
     <g id="line2d_6">
      <g>
       <use xlink:href="#m6e55ff3432" x="301.001136" y="414.957187" style="fill: #808080; stroke: #808080; stroke-width: 0.8"/>
      </g>
     </g>
     <g id="text_3">
      <!-- 40 -->
      <g style="fill: #808080" transform="translate(291.457386 429.854844) scale(0.15 -0.15)">
       <defs>
        <path id="DejaVuSans-34" d="M 2419 4116 
L 825 1625 
L 2419 1625 
L 2419 4116 
z
M 2253 4666 
L 3047 4666 
L 3047 1625 
L 3713 1625 
L 3713 1100 
L 3047 1100 
L 3047 0 
L 2419 0 
L 2419 1100 
L 313 1100 
L 313 1709 
L 2253 4666 
z
" transform="scale(0.015625)"/>
       </defs>
       <use xlink:href="#DejaVuSans-34"/>
       <use xlink:href="#DejaVuSans-30" x="63.623047"/>
      </g>
     </g>
    </g>
    <g id="xtick_4">
     <g id="line2d_7">
      <path d="M 402.472 414.957187 
L 402.472 26.877187 
" clip-path="url(#p0c2459e8e3)" style="fill: none; stroke: #808080; stroke-width: 0.8; stroke-linecap: square"/>
     </g>
     <g id="line2d_8">
      <g>
       <use xlink:href="#m6e55ff3432" x="402.472" y="414.957187" style="fill: #808080; stroke: #808080; stroke-width: 0.8"/>
      </g>
     </g>
     <g id="text_4">
      <!-- 45 -->
      <g style="fill: #808080" transform="translate(392.92825 429.854844) scale(0.15 -0.15)">
       <use xlink:href="#DejaVuSans-34"/>
       <use xlink:href="#DejaVuSans-35" x="63.623047"/>
      </g>
     </g>
    </g>
    <g id="xtick_5">
     <g id="line2d_9">
      <path d="M 503.942864 414.957187 
L 503.942864 26.877187 
" clip-path="url(#p0c2459e8e3)" style="fill: none; stroke: #808080; stroke-width: 0.8; stroke-linecap: square"/>
     </g>
     <g id="line2d_10">
      <g>
       <use xlink:href="#m6e55ff3432" x="503.942864" y="414.957187" style="fill: #808080; stroke: #808080; stroke-width: 0.8"/>
      </g>
     </g>
     <g id="text_5">
      <!-- 50 -->
      <g style="fill: #808080" transform="translate(494.399114 429.854844) scale(0.15 -0.15)">
       <use xlink:href="#DejaVuSans-35"/>
       <use xlink:href="#DejaVuSans-30" x="63.623047"/>
      </g>
     </g>
    </g>
    <g id="xtick_6">
     <g id="line2d_11">
      <path d="M 605.413728 414.957187 
L 605.413728 26.877187 
" clip-path="url(#p0c2459e8e3)" style="fill: none; stroke: #808080; stroke-width: 0.8; stroke-linecap: square"/>
     </g>
     <g id="line2d_12">
      <g>
       <use xlink:href="#m6e55ff3432" x="605.413728" y="414.957187" style="fill: #808080; stroke: #808080; stroke-width: 0.8"/>
      </g>
     </g>
     <g id="text_6">
      <!-- 55 -->
      <g style="fill: #808080" transform="translate(595.869978 429.854844) scale(0.15 -0.15)">
       <use xlink:href="#DejaVuSans-35"/>
       <use xlink:href="#DejaVuSans-35" x="63.623047"/>
      </g>
     </g>
    </g>
    <g id="text_7">
     <!-- time [s] -->
     <g style="fill: #808080" transform="translate(322.255078 448.372031) scale(0.15 -0.15)">
      <defs>
       <path id="DejaVuSans-74" d="M 1172 4494 
L 1172 3500 
L 2356 3500 
L 2356 3053 
L 1172 3053 
L 1172 1153 
Q 1172 725 1289 603 
Q 1406 481 1766 481 
L 2356 481 
L 2356 0 
L 1766 0 
Q 1100 0 847 248 
Q 594 497 594 1153 
L 594 3053 
L 172 3053 
L 172 3500 
L 594 3500 
L 594 4494 
L 1172 4494 
z
" transform="scale(0.015625)"/>
       <path id="DejaVuSans-69" d="M 603 3500 
L 1178 3500 
L 1178 0 
L 603 0 
L 603 3500 
z
M 603 4863 
L 1178 4863 
L 1178 4134 
L 603 4134 
L 603 4863 
z
" transform="scale(0.015625)"/>
       <path id="DejaVuSans-6d" d="M 3328 2828 
Q 3544 3216 3844 3400 
Q 4144 3584 4550 3584 
Q 5097 3584 5394 3201 
Q 5691 2819 5691 2113 
L 5691 0 
L 5113 0 
L 5113 2094 
Q 5113 2597 4934 2840 
Q 4756 3084 4391 3084 
Q 3944 3084 3684 2787 
Q 3425 2491 3425 1978 
L 3425 0 
L 2847 0 
L 2847 2094 
Q 2847 2600 2669 2842 
Q 2491 3084 2119 3084 
Q 1678 3084 1418 2786 
Q 1159 2488 1159 1978 
L 1159 0 
L 581 0 
L 581 3500 
L 1159 3500 
L 1159 2956 
Q 1356 3278 1631 3431 
Q 1906 3584 2284 3584 
Q 2666 3584 2933 3390 
Q 3200 3197 3328 2828 
z
" transform="scale(0.015625)"/>
       <path id="DejaVuSans-65" d="M 3597 1894 
L 3597 1613 
L 953 1613 
Q 991 1019 1311 708 
Q 1631 397 2203 397 
Q 2534 397 2845 478 
Q 3156 559 3463 722 
L 3463 178 
Q 3153 47 2828 -22 
Q 2503 -91 2169 -91 
Q 1331 -91 842 396 
Q 353 884 353 1716 
Q 353 2575 817 3079 
Q 1281 3584 2069 3584 
Q 2775 3584 3186 3129 
Q 3597 2675 3597 1894 
z
M 3022 2063 
Q 3016 2534 2758 2815 
Q 2500 3097 2075 3097 
Q 1594 3097 1305 2825 
Q 1016 2553 972 2059 
L 3022 2063 
z
" transform="scale(0.015625)"/>
       <path id="DejaVuSans-20" transform="scale(0.015625)"/>
       <path id="DejaVuSans-5b" d="M 550 4863 
L 1875 4863 
L 1875 4416 
L 1125 4416 
L 1125 -397 
L 1875 -397 
L 1875 -844 
L 550 -844 
L 550 4863 
z
" transform="scale(0.015625)"/>
       <path id="DejaVuSans-73" d="M 2834 3397 
L 2834 2853 
Q 2591 2978 2328 3040 
Q 2066 3103 1784 3103 
Q 1356 3103 1142 2972 
Q 928 2841 928 2578 
Q 928 2378 1081 2264 
Q 1234 2150 1697 2047 
L 1894 2003 
Q 2506 1872 2764 1633 
Q 3022 1394 3022 966 
Q 3022 478 2636 193 
Q 2250 -91 1575 -91 
Q 1294 -91 989 -36 
Q 684 19 347 128 
L 347 722 
Q 666 556 975 473 
Q 1284 391 1588 391 
Q 1994 391 2212 530 
Q 2431 669 2431 922 
Q 2431 1156 2273 1281 
Q 2116 1406 1581 1522 
L 1381 1569 
Q 847 1681 609 1914 
Q 372 2147 372 2553 
Q 372 3047 722 3315 
Q 1072 3584 1716 3584 
Q 2034 3584 2315 3537 
Q 2597 3491 2834 3397 
z
" transform="scale(0.015625)"/>
       <path id="DejaVuSans-5d" d="M 1947 4863 
L 1947 -844 
L 622 -844 
L 622 -397 
L 1369 -397 
L 1369 4416 
L 622 4416 
L 622 4863 
L 1947 4863 
z
" transform="scale(0.015625)"/>
      </defs>
      <use xlink:href="#DejaVuSans-74"/>
      <use xlink:href="#DejaVuSans-69" x="39.208984"/>
      <use xlink:href="#DejaVuSans-6d" x="66.992188"/>
      <use xlink:href="#DejaVuSans-65" x="164.404297"/>
      <use xlink:href="#DejaVuSans-20" x="225.927734"/>
      <use xlink:href="#DejaVuSans-5b" x="257.714844"/>
      <use xlink:href="#DejaVuSans-73" x="296.728516"/>
      <use xlink:href="#DejaVuSans-5d" x="348.828125"/>
     </g>
    </g>
   </g>
   <g id="matplotlib.axis_2">
    <g id="ytick_1">
     <g id="line2d_13">
      <path d="M 72.342187 359.37049 
L 630.342188 359.37049 
" clip-path="url(#p0c2459e8e3)" style="fill: none; stroke: #808080; stroke-width: 0.8; stroke-linecap: square"/>
     </g>
     <g id="line2d_14">
      <defs>
       <path id="mb1e964cd32" d="M 0 0 
L 5 0 
" style="stroke: #808080; stroke-width: 0.8"/>
      </defs>
      <g>
       <use xlink:href="#mb1e964cd32" x="72.342187" y="359.37049" style="fill: #808080; stroke: #808080; stroke-width: 0.8"/>
      </g>
     </g>
     <g id="text_8">
      <!-- 269.0 -->
      <g style="fill: #808080" transform="translate(25.9 365.069318) scale(0.15 -0.15)">
       <defs>
        <path id="DejaVuSans-32" d="M 1228 531 
L 3431 531 
L 3431 0 
L 469 0 
L 469 531 
Q 828 903 1448 1529 
Q 2069 2156 2228 2338 
Q 2531 2678 2651 2914 
Q 2772 3150 2772 3378 
Q 2772 3750 2511 3984 
Q 2250 4219 1831 4219 
Q 1534 4219 1204 4116 
Q 875 4013 500 3803 
L 500 4441 
Q 881 4594 1212 4672 
Q 1544 4750 1819 4750 
Q 2544 4750 2975 4387 
Q 3406 4025 3406 3419 
Q 3406 3131 3298 2873 
Q 3191 2616 2906 2266 
Q 2828 2175 2409 1742 
Q 1991 1309 1228 531 
z
" transform="scale(0.015625)"/>
        <path id="DejaVuSans-36" d="M 2113 2584 
Q 1688 2584 1439 2293 
Q 1191 2003 1191 1497 
Q 1191 994 1439 701 
Q 1688 409 2113 409 
Q 2538 409 2786 701 
Q 3034 994 3034 1497 
Q 3034 2003 2786 2293 
Q 2538 2584 2113 2584 
z
M 3366 4563 
L 3366 3988 
Q 3128 4100 2886 4159 
Q 2644 4219 2406 4219 
Q 1781 4219 1451 3797 
Q 1122 3375 1075 2522 
Q 1259 2794 1537 2939 
Q 1816 3084 2150 3084 
Q 2853 3084 3261 2657 
Q 3669 2231 3669 1497 
Q 3669 778 3244 343 
Q 2819 -91 2113 -91 
Q 1303 -91 875 529 
Q 447 1150 447 2328 
Q 447 3434 972 4092 
Q 1497 4750 2381 4750 
Q 2619 4750 2861 4703 
Q 3103 4656 3366 4563 
z
" transform="scale(0.015625)"/>
        <path id="DejaVuSans-39" d="M 703 97 
L 703 672 
Q 941 559 1184 500 
Q 1428 441 1663 441 
Q 2288 441 2617 861 
Q 2947 1281 2994 2138 
Q 2813 1869 2534 1725 
Q 2256 1581 1919 1581 
Q 1219 1581 811 2004 
Q 403 2428 403 3163 
Q 403 3881 828 4315 
Q 1253 4750 1959 4750 
Q 2769 4750 3195 4129 
Q 3622 3509 3622 2328 
Q 3622 1225 3098 567 
Q 2575 -91 1691 -91 
Q 1453 -91 1209 -44 
Q 966 3 703 97 
z
M 1959 2075 
Q 2384 2075 2632 2365 
Q 2881 2656 2881 3163 
Q 2881 3666 2632 3958 
Q 2384 4250 1959 4250 
Q 1534 4250 1286 3958 
Q 1038 3666 1038 3163 
Q 1038 2656 1286 2365 
Q 1534 2075 1959 2075 
z
" transform="scale(0.015625)"/>
        <path id="DejaVuSans-2e" d="M 684 794 
L 1344 794 
L 1344 0 
L 684 0 
L 684 794 
z
" transform="scale(0.015625)"/>
       </defs>
       <use xlink:href="#DejaVuSans-32"/>
       <use xlink:href="#DejaVuSans-36" x="63.623047"/>
       <use xlink:href="#DejaVuSans-39" x="127.246094"/>
       <use xlink:href="#DejaVuSans-2e" x="190.869141"/>
       <use xlink:href="#DejaVuSans-30" x="222.65625"/>
      </g>
     </g>
    </g>
    <g id="ytick_2">
     <g id="line2d_15">
      <path d="M 72.342187 273.486535 
L 630.342188 273.486535 
" clip-path="url(#p0c2459e8e3)" style="fill: none; stroke: #808080; stroke-width: 0.8; stroke-linecap: square"/>
     </g>
     <g id="line2d_16">
      <g>
       <use xlink:href="#mb1e964cd32" x="72.342187" y="273.486535" style="fill: #808080; stroke: #808080; stroke-width: 0.8"/>
      </g>
     </g>
     <g id="text_9">
      <!-- 269.5 -->
      <g style="fill: #808080" transform="translate(25.9 279.185363) scale(0.15 -0.15)">
       <use xlink:href="#DejaVuSans-32"/>
       <use xlink:href="#DejaVuSans-36" x="63.623047"/>
       <use xlink:href="#DejaVuSans-39" x="127.246094"/>
       <use xlink:href="#DejaVuSans-2e" x="190.869141"/>
       <use xlink:href="#DejaVuSans-35" x="222.65625"/>
      </g>
     </g>
    </g>
    <g id="ytick_3">
     <g id="line2d_17">
      <path d="M 72.342187 187.602579 
L 630.342188 187.602579 
" clip-path="url(#p0c2459e8e3)" style="fill: none; stroke: #808080; stroke-width: 0.8; stroke-linecap: square"/>
     </g>
     <g id="line2d_18">
      <g>
       <use xlink:href="#mb1e964cd32" x="72.342187" y="187.602579" style="fill: #808080; stroke: #808080; stroke-width: 0.8"/>
      </g>
     </g>
     <g id="text_10">
      <!-- 270.0 -->
      <g style="fill: #808080" transform="translate(25.9 193.301407) scale(0.15 -0.15)">
       <defs>
        <path id="DejaVuSans-37" d="M 525 4666 
L 3525 4666 
L 3525 4397 
L 1831 0 
L 1172 0 
L 2766 4134 
L 525 4134 
L 525 4666 
z
" transform="scale(0.015625)"/>
       </defs>
       <use xlink:href="#DejaVuSans-32"/>
       <use xlink:href="#DejaVuSans-37" x="63.623047"/>
       <use xlink:href="#DejaVuSans-30" x="127.246094"/>
       <use xlink:href="#DejaVuSans-2e" x="190.869141"/>
       <use xlink:href="#DejaVuSans-30" x="222.65625"/>
      </g>
     </g>
    </g>
    <g id="ytick_4">
     <g id="line2d_19">
      <path d="M 72.342187 101.718624 
L 630.342188 101.718624 
" clip-path="url(#p0c2459e8e3)" style="fill: none; stroke: #808080; stroke-width: 0.8; stroke-linecap: square"/>
     </g>
     <g id="line2d_20">
      <g>
       <use xlink:href="#mb1e964cd32" x="72.342187" y="101.718624" style="fill: #808080; stroke: #808080; stroke-width: 0.8"/>
      </g>
     </g>
     <g id="text_11">
      <!-- 270.5 -->
      <g style="fill: #808080" transform="translate(25.9 107.417452) scale(0.15 -0.15)">
       <use xlink:href="#DejaVuSans-32"/>
       <use xlink:href="#DejaVuSans-37" x="63.623047"/>
       <use xlink:href="#DejaVuSans-30" x="127.246094"/>
       <use xlink:href="#DejaVuSans-2e" x="190.869141"/>
       <use xlink:href="#DejaVuSans-35" x="222.65625"/>
      </g>
     </g>
    </g>
    <g id="text_12">
     <!-- $\theta$ [deg] -->
     <g style="fill: #808080" transform="translate(18.75 247.917187) rotate(-90) scale(0.15 -0.15)">
      <defs>
       <path id="DejaVuSans-Oblique-3b8" d="M 2913 2219 
L 925 2219 
Q 791 1284 928 888 
Q 1100 400 1566 400 
Q 2034 400 2391 891 
Q 2703 1322 2913 2219 
z
M 3009 2750 
Q 3094 3638 2984 3950 
Q 2813 4444 2353 4444 
Q 1875 4444 1525 3956 
Q 1250 3563 1034 2750 
L 3009 2750 
z
M 2444 4913 
Q 3194 4913 3494 4250 
Q 3794 3591 3566 2422 
Q 3341 1256 2781 594 
Q 2225 -72 1475 -72 
Q 722 -72 425 594 
Q 128 1256 353 2422 
Q 581 3591 1134 4250 
Q 1691 4913 2444 4913 
z
" transform="scale(0.015625)"/>
       <path id="DejaVuSans-64" d="M 2906 2969 
L 2906 4863 
L 3481 4863 
L 3481 0 
L 2906 0 
L 2906 525 
Q 2725 213 2448 61 
Q 2172 -91 1784 -91 
Q 1150 -91 751 415 
Q 353 922 353 1747 
Q 353 2572 751 3078 
Q 1150 3584 1784 3584 
Q 2172 3584 2448 3432 
Q 2725 3281 2906 2969 
z
M 947 1747 
Q 947 1113 1208 752 
Q 1469 391 1925 391 
Q 2381 391 2643 752 
Q 2906 1113 2906 1747 
Q 2906 2381 2643 2742 
Q 2381 3103 1925 3103 
Q 1469 3103 1208 2742 
Q 947 2381 947 1747 
z
" transform="scale(0.015625)"/>
       <path id="DejaVuSans-67" d="M 2906 1791 
Q 2906 2416 2648 2759 
Q 2391 3103 1925 3103 
Q 1463 3103 1205 2759 
Q 947 2416 947 1791 
Q 947 1169 1205 825 
Q 1463 481 1925 481 
Q 2391 481 2648 825 
Q 2906 1169 2906 1791 
z
M 3481 434 
Q 3481 -459 3084 -895 
Q 2688 -1331 1869 -1331 
Q 1566 -1331 1297 -1286 
Q 1028 -1241 775 -1147 
L 775 -588 
Q 1028 -725 1275 -790 
Q 1522 -856 1778 -856 
Q 2344 -856 2625 -561 
Q 2906 -266 2906 331 
L 2906 616 
Q 2728 306 2450 153 
Q 2172 0 1784 0 
Q 1141 0 747 490 
Q 353 981 353 1791 
Q 353 2603 747 3093 
Q 1141 3584 1784 3584 
Q 2172 3584 2450 3431 
Q 2728 3278 2906 2969 
L 2906 3500 
L 3481 3500 
L 3481 434 
z
" transform="scale(0.015625)"/>
      </defs>
      <use xlink:href="#DejaVuSans-Oblique-3b8" transform="translate(0 0.234375)"/>
      <use xlink:href="#DejaVuSans-20" transform="translate(61.181641 0.234375)"/>
      <use xlink:href="#DejaVuSans-5b" transform="translate(92.96875 0.234375)"/>
      <use xlink:href="#DejaVuSans-64" transform="translate(131.982422 0.234375)"/>
      <use xlink:href="#DejaVuSans-65" transform="translate(195.458984 0.234375)"/>
      <use xlink:href="#DejaVuSans-67" transform="translate(256.982422 0.234375)"/>
      <use xlink:href="#DejaVuSans-5d" transform="translate(320.458984 0.234375)"/>
     </g>
    </g>
   </g>
   <g id="line2d_21">
    <path d="M 97.705824 127.636471 
L 97.909882 108.974969 
L 98.11394 169.751986 
L 98.317998 166.154165 
L 98.522055 159.335453 
L 98.726113 135.413297 
L 98.930151 128.981089 
L 99.134209 130.167506 
L 99.338267 193.652942 
L 99.542325 143.390582 
L 99.746383 157.352556 
L 100.154478 138.148451 
L 100.358536 151.241799 
L 100.97071 116.099208 
L 101.174747 201.586042 
L 101.378805 179.073439 
L 101.582863 136.766452 
L 101.786921 193.887183 
L 101.990979 117.792678 
L 102.195017 197.460217 
L 102.399075 142.60997 
L 102.603132 142.894114 
L 102.80719 149.678995 
L 103.011247 121.903036 
L 103.215305 131.910474 
L 103.419343 155.697481 
L 103.623401 141.264652 
L 103.827459 181.549509 
L 104.235575 123.032311 
L 104.439612 129.891862 
L 104.64367 129.048622 
L 104.847728 156.166098 
L 105.051786 153.987745 
L 105.255844 199.461989 
L 105.459902 205.019547 
L 105.663939 177.609 
L 105.867997 198.375772 
L 106.072055 111.458992 
L 106.276113 184.968722 
L 106.480171 181.773679 
L 106.684209 195.98809 
L 106.888267 134.927825 
L 107.092324 172.218147 
L 107.296382 175.064203 
L 107.704478 252.056808 
L 107.908536 229.08087 
L 108.112594 173.824232 
L 108.316652 185.290978 
L 108.724767 161.522857 
L 108.928805 196.616431 
L 109.336921 91.99511 
L 109.540979 154.126727 
L 109.745037 166.258664 
L 109.949074 142.083911 
L 110.153132 186.847788 
L 110.35719 183.962346 
L 110.561248 187.199383 
L 110.765306 193.158093 
L 110.969344 118.154612 
L 111.173401 184.062255 
L 111.377459 201.017484 
L 111.785575 178.68641 
L 111.989613 195.762195 
L 112.397729 206.71061 
L 112.601786 145.18129 
L 112.805844 156.460672 
L 113.009902 182.822779 
L 113.21394 144.936646 
L 113.417998 128.682549 
L 113.622056 203.765329 
L 113.826114 117.941908 
L 114.234209 186.897153 
L 114.438267 126.955078 
L 114.642325 151.8454 
L 114.846383 126.686704 
L 115.050441 150.349633 
L 115.254478 152.990747 
L 115.458536 232.804103 
L 115.662594 232.804103 
L 115.866652 213.201162 
L 116.07071 207.041725 
L 116.274768 207.041725 
L 116.478806 160.586273 
L 116.682863 177.633705 
L 116.886921 265.6403 
L 117.090979 271.735846 
L 117.295037 239.214849 
L 117.499075 235.112479 
L 117.703133 237.796431 
L 117.907191 217.811354 
L 118.111249 151.580529 
L 118.315306 267.504665 
L 118.519344 196.555855 
L 118.723402 189.860385 
L 118.92746 188.668003 
L 119.539613 253.620732 
L 119.743671 221.389036 
L 119.947729 209.186971 
L 120.151787 221.703049 
L 120.355845 199.791233 
L 120.559883 222.720755 
L 120.76394 200.013365 
L 120.967998 206.3763 
L 121.172056 186.72861 
L 121.376114 180.000347 
L 121.580172 146.798023 
L 121.78421 199.911382 
L 122.192325 148.56847 
L 122.396383 163.628335 
L 122.600441 115.127277 
L 122.804479 205.849986 
L 123.008537 204.481739 
L 123.212605 141.454406 
L 123.416663 150.026504 
L 123.620721 201.247549 
L 123.824758 196.853447 
L 124.028816 180.170034 
L 124.232874 183.521886 
L 124.436932 156.61756 
L 124.64099 182.299731 
L 124.845028 168.876662 
L 125.049085 214.235441 
L 125.253143 172.069256 
L 125.457201 222.849315 
L 125.661259 211.849055 
L 125.865297 226.124416 
L 126.273413 141.446061 
L 126.477471 156.936534 
L 126.681528 238.645371 
L 126.885566 233.009929 
L 127.089624 199.159576 
L 127.293682 206.546749 
L 127.49774 122.630487 
L 127.701798 185.646803 
L 127.905835 175.979308 
L 128.109893 175.277607 
L 128.518009 155.927272 
L 128.722067 244.039043 
L 128.926105 179.938737 
L 129.130162 226.878366 
L 129.33422 202.948628 
L 129.538278 209.646426 
L 129.742336 171.342427 
L 129.946394 156.675281 
L 130.150432 163.040704 
L 130.558547 257.70575 
L 130.762605 202.145729 
L 130.966663 285.098543 
L 131.170701 288.78996 
L 131.374759 248.630145 
L 131.578817 308.41066 
L 131.782875 241.013014 
L 131.986933 284.822345 
L 132.19097 263.841766 
L 132.395028 182.355535 
L 132.599086 220.49686 
L 132.803144 183.772052 
L 133.007202 215.837114 
L 133.211239 209.735346 
L 133.415297 142.209425 
L 133.823413 153.700188 
L 134.027471 179.866595 
L 134.231509 233.380499 
L 134.435567 238.25511 
L 134.639624 255.565582 
L 134.843682 292.517364 
L 135.04774 265.725921 
L 135.455836 296.380509 
L 135.659894 304.357089 
L 135.863952 300.420203 
L 136.06801 281.105328 
L 136.272047 216.296098 
L 136.476105 251.333233 
L 136.680163 237.014526 
L 136.884221 206.600063 
L 137.088279 207.75346 
L 137.292316 228.003629 
L 137.496374 303.869309 
L 137.700432 285.342979 
L 137.90449 216.715955 
L 138.108548 211.80469 
L 138.312586 222.577081 
L 138.516644 240.249484 
L 138.720701 216.576358 
L 138.924759 289.109624 
L 139.128817 274.763416 
L 139.332855 321.829722 
L 139.536913 322.531313 
L 139.740971 244.617852 
L 139.945029 263.709644 
L 140.149086 254.5484 
L 140.353124 254.5484 
L 140.557182 264.34385 
L 140.76124 287.63096 
L 140.965298 240.880399 
L 141.169356 283.847422 
L 141.577451 241.997193 
L 141.781509 288.237444 
L 142.189605 248.398057 
L 142.393663 175.744169 
L 142.59772 194.330503 
L 142.801778 187.235721 
L 143.005836 205.087653 
L 143.209874 248.955971 
L 143.413922 255.613799 
L 143.61798 228.76649 
L 143.822037 245.633264 
L 144.230133 195.992049 
L 144.434191 210.054283 
L 144.842307 278.413512 
L 145.046365 274.303933 
L 145.250402 235.883937 
L 145.658518 290.655887 
L 146.066634 246.287437 
L 146.270672 247.285337 
L 146.474729 250.643949 
L 146.678787 212.723831 
L 147.086903 250.344824 
L 147.494999 211.541402 
L 147.699057 252.307306 
L 147.903114 236.886444 
L 148.107172 233.175991 
L 148.31121 237.859712 
L 148.515268 188.76403 
L 148.719326 169.279589 
L 148.923384 179.846138 
L 149.127442 183.695681 
L 149.331479 209.473358 
L 149.535537 204.930506 
L 149.739595 207.721653 
L 149.943653 240.295743 
L 150.147711 199.995434 
L 150.351748 223.389515 
L 150.555806 286.483875 
L 150.963922 314.18762 
L 151.16796 268.479735 
L 151.372018 298.945908 
L 151.780134 262.592308 
L 151.984191 322.717576 
L 152.188229 284.021106 
L 152.392287 213.356449 
L 152.800403 267.990749 
L 153.004461 260.277918 
L 153.208498 238.402276 
L 153.412556 260.86035 
L 153.616614 210.544036 
L 153.820672 239.356935 
L 154.02473 249.149149 
L 154.228768 235.462234 
L 154.432825 207.771339 
L 154.636883 267.500573 
L 154.840941 212.250723 
L 155.044999 251.197711 
L 155.249037 220.405863 
L 155.657153 239.180228 
L 156.065248 145.765084 
L 156.269306 172.407671 
L 156.677422 167.713961 
L 156.88148 186.643004 
L 157.085517 168.048183 
L 157.289575 161.339723 
L 157.901749 276.985173 
L 158.105787 246.905391 
L 158.309845 179.421661 
L 158.513902 208.586036 
L 158.71796 215.045508 
L 158.922018 267.149776 
L 159.126056 213.195601 
L 159.330114 230.881939 
L 159.534172 226.58852 
L 159.73823 208.296824 
L 159.942267 201.507319 
L 160.146325 167.533698 
L 160.350383 221.90765 
L 160.554441 213.369962 
L 160.758499 235.658919 
L 160.962536 234.989268 
L 161.166594 217.525793 
L 161.370652 240.017275 
L 161.57471 301.367962 
L 161.778768 298.847909 
L 161.982806 251.987602 
L 162.186864 290.866938 
L 162.390921 251.861572 
L 162.594979 253.508446 
L 162.799017 237.253415 
L 163.207133 225.761359 
L 163.615249 268.236156 
L 163.819355 186.215153 
L 164.023413 264.718309 
L 164.227471 264.718309 
L 164.431529 242.704944 
L 164.635586 235.589995 
L 164.839624 243.964347 
L 165.043682 195.675466 
L 165.24774 212.145591 
L 165.451798 211.066161 
L 165.655856 171.458804 
L 165.859893 200.315725 
L 166.063951 161.95331 
L 166.268009 164.685313 
L 166.472067 204.514124 
L 166.676104 154.6288 
L 167.08422 233.10092 
L 167.288278 198.734915 
L 167.696374 233.180327 
L 167.900432 229.444646 
L 168.10449 212.362704 
L 168.308548 236.886031 
L 168.512585 210.854324 
L 168.716643 203.898369 
L 168.920701 234.252449 
L 169.124759 231.707944 
L 169.328817 223.557461 
L 169.532854 261.916401 
L 169.736912 238.134791 
L 170.145028 178.513823 
L 170.349086 198.039538 
L 170.553124 202.142107 
L 170.961239 198.100157 
L 171.165297 176.749924 
L 171.369335 167.358245 
L 171.573393 138.485681 
L 171.777451 147.24766 
L 171.981509 148.92754 
L 172.185567 163.577272 
L 172.593662 213.278738 
L 172.79772 179.828509 
L 173.205816 212.563022 
L 173.409873 203.074058 
L 173.613931 158.308245 
L 173.817989 160.570228 
L 174.226085 218.203646 
L 174.430143 194.725625 
L 174.634201 251.137681 
L 175.042317 125.838287 
L 175.246354 148.37715 
L 175.450412 187.867544 
L 175.65447 172.299137 
L 175.858528 189.748148 
L 176.062565 168.615689 
L 176.266623 120.278026 
L 176.470681 125.129595 
L 176.674739 173.165661 
L 176.878797 166.948543 
L 177.082835 172.269719 
L 177.286893 105.200105 
L 177.490951 105.34115 
L 177.695008 116.511698 
L 177.899046 174.654101 
L 178.103104 162.635905 
L 178.307162 160.216694 
L 178.51122 149.738029 
L 178.715278 150.390356 
L 178.919315 131.955754 
L 179.123373 135.665195 
L 179.531489 172.458719 
L 179.735527 194.212064 
L 179.939585 157.688358 
L 180.143642 148.944417 
L 180.3477 198.653399 
L 180.551758 166.560002 
L 180.755796 200.79718 
L 180.959854 198.315419 
L 181.163912 211.471786 
L 181.36797 234.24352 
L 181.980123 190.182294 
L 182.184181 238.009232 
L 182.388239 222.614452 
L 182.592276 180.574257 
L 183.000392 216.154692 
L 183.408488 168.052834 
L 183.612546 159.592047 
L 184.224643 150.06913 
L 184.632739 217.863181 
L 184.836797 165.217689 
L 185.040854 158.861427 
L 185.244892 211.642389 
L 185.653008 245.596603 
L 185.857066 233.126215 
L 186.061124 200.051202 
L 186.265161 218.149368 
L 186.469219 251.274735 
L 186.673277 210.112369 
L 187.081373 220.086688 
L 187.285431 240.20742 
L 187.489488 239.159315 
L 187.693547 272.172474 
L 187.897604 179.384838 
L 188.101642 176.438783 
L 188.3057 273.41346 
L 188.509758 273.41346 
L 188.713816 266.528932 
L 188.917853 299.761273 
L 189.121911 233.09236 
L 189.325969 210.414509 
L 189.530027 254.91077 
L 189.734065 204.915362 
L 189.938122 273.034719 
L 190.142181 265.750208 
L 190.346238 249.694274 
L 190.550296 190.828483 
L 190.754334 172.946221 
L 191.16245 204.44692 
L 191.366508 207.108532 
L 191.570566 186.447039 
L 191.774603 180.613687 
L 191.978661 190.339442 
L 192.182719 236.325748 
L 192.386777 251.731543 
L 192.794872 197.459354 
L 192.99893 218.601311 
L 193.202988 265.176523 
L 193.407026 268.495102 
L 193.611084 235.020903 
L 194.0192 296.789369 
L 194.427295 222.468826 
L 194.631353 231.094403 
L 194.835411 230.398015 
L 195.039469 237.900062 
L 195.243506 180.878917 
L 195.85568 236.018391 
L 196.059718 198.085147 
L 196.263776 209.175179 
L 196.467834 278.37809 
L 196.671892 298.351947 
L 197.079987 200.962153 
L 197.284045 165.704808 
L 197.488103 162.949653 
L 197.692161 186.119395 
L 197.896198 145.075825 
L 198.100256 222.142009 
L 198.304314 216.626103 
L 198.508372 237.478429 
L 198.71243 172.694476 
L 198.916467 233.468068 
L 199.120526 229.379834 
L 199.324583 149.703014 
L 199.528641 159.700061 
L 199.732679 214.135628 
L 199.936737 177.523063 
L 200.140795 203.375162 
L 200.344853 256.26691 
L 200.54889 248.740735 
L 200.752948 201.957894 
L 200.957006 230.407477 
L 201.161064 193.438859 
L 201.365122 195.04774 
L 201.56916 177.87579 
L 201.773217 193.290474 
L 201.977275 162.382745 
L 202.181333 159.607094 
L 202.385371 162.660731 
L 202.589429 184.006998 
L 202.793487 117.528593 
L 202.997545 176.576994 
L 203.40564 104.389783 
L 203.609698 161.965538 
L 203.813756 140.695668 
L 204.017814 147.554887 
L 204.221851 86.377899 
L 204.425909 184.802428 
L 204.629967 146.911397 
L 204.834025 169.593927 
L 205.038063 116.92033 
L 205.242121 117.483543 
L 205.446179 154.642414 
L 205.854274 190.62272 
L 206.058332 229.766907 
L 206.26239 181.183132 
L 206.466448 207.78668 
L 206.670485 187.56901 
L 206.874543 199.724705 
L 207.078601 196.670133 
L 207.282659 253.329166 
L 207.486717 223.209423 
L 207.894813 289.570592 
L 208.09887 220.225239 
L 208.302928 250.302264 
L 208.506966 212.951622 
L 208.711024 208.464743 
L 208.915082 209.758874 
L 209.11914 193.016586 
L 209.323177 185.540665 
L 209.527235 227.825476 
L 209.731293 238.660371 
L 209.935351 238.961287 
L 210.343447 163.488239 
L 210.547505 260.298023 
L 210.95562 193.497964 
L 211.159658 189.882965 
L 211.567774 254.249651 
L 211.771832 222.918732 
L 211.975869 168.496827 
L 212.179927 168.496827 
L 212.383985 186.231952 
L 212.588043 167.380236 
L 212.79208 167.380236 
L 212.996139 182.49646 
L 213.200196 161.846254 
L 213.404254 221.274382 
L 213.81235 143.72909 
L 214.016408 143.587507 
L 214.424524 212.859079 
L 215.036677 136.505868 
L 215.240735 220.511672 
L 215.444773 156.915225 
L 215.64883 173.476991 
L 215.852888 204.198856 
L 216.056946 259.659865 
L 216.465042 195.242888 
L 216.6691 230.263693 
L 216.873158 236.864009 
L 217.077195 177.21133 
L 217.689369 241.607529 
L 217.893407 193.853161 
L 218.097464 235.923496 
L 218.301522 219.841353 
L 218.709638 235.457762 
L 218.913676 259.732388 
L 219.117734 265.451973 
L 219.321792 244.481619 
L 219.525849 209.161041 
L 219.729887 258.58519 
L 219.933945 256.476919 
L 220.138003 223.993966 
L 220.342061 287.629738 
L 220.546098 283.798725 
L 220.954214 322.199508 
L 221.36231 266.030173 
L 221.566368 283.146886 
L 221.770426 320.88041 
L 222.178521 270.860377 
L 222.382579 358.124839 
L 222.586637 322.764877 
L 222.790695 239.749584 
L 222.994733 229.342811 
L 223.19879 174.17394 
L 223.402848 264.255957 
L 223.606906 214.279826 
L 223.810944 222.249575 
L 224.015002 195.197729 
L 224.21906 216.10229 
L 224.627175 264.8708 
L 225.035284 306.912874 
L 225.239341 311.425835 
L 225.443399 273.986323 
L 225.647437 286.370345 
L 225.851495 228.603114 
L 226.463648 270.89839 
L 226.667706 244.455932 
L 226.871764 268.665803 
L 227.075822 267.357828 
L 227.27986 287.467571 
L 227.483918 328.114507 
L 227.687975 318.851584 
L 227.892033 327.54536 
L 228.096071 271.174708 
L 228.300129 274.643326 
L 228.504187 203.810025 
L 228.912282 277.71528 
L 229.11634 260.586115 
L 229.320398 311.688037 
L 229.728494 215.687512 
L 229.932552 277.018271 
L 230.136609 266.422723 
L 230.340667 275.685543 
L 230.544705 257.109546 
L 230.748763 294.528364 
L 230.952821 241.09966 
L 231.156879 314.106569 
L 231.360916 294.857582 
L 231.564974 236.276373 
L 231.769032 246.30096 
L 231.97309 281.08657 
L 232.177128 247.837495 
L 232.381186 296.667043 
L 232.585244 253.696006 
L 232.789301 271.067961 
L 233.401455 227.494375 
L 233.605513 283.484092 
L 233.80955 220.498722 
L 234.013608 228.483749 
L 234.217666 214.884968 
L 234.625762 269.214104 
L 234.82982 204.447043 
L 235.033878 237.054711 
L 235.237935 244.072329 
L 235.441973 242.447188 
L 235.646031 235.175449 
L 235.850089 175.54191 
L 236.054147 188.802641 
L 236.258184 213.904468 
L 236.462242 210.319918 
L 236.6663 247.895453 
L 236.870358 222.360567 
L 237.074416 222.360567 
L 237.278454 266.456853 
L 237.482512 279.336053 
L 237.890627 237.352218 
L 238.094665 270.436264 
L 238.298723 243.776509 
L 238.502781 270.196424 
L 238.910876 187.828786 
L 239.318992 224.29786 
L 239.52305 153.784046 
L 239.727088 151.954215 
L 239.931146 173.221227 
L 240.135203 214.656863 
L 240.339261 180.359341 
L 240.543299 178.359211 
L 240.747357 251.286509 
L 240.951415 279.371462 
L 241.155473 202.659066 
L 241.35951 196.334625 
L 241.563568 202.375922 
L 241.767626 205.00067 
L 242.175722 180.311043 
L 242.37978 192.236638 
L 242.583837 246.482842 
L 242.787895 236.189737 
L 242.991933 176.419243 
L 243.195991 184.199788 
L 243.604107 238.975948 
L 243.808144 155.819688 
L 244.420318 249.973498 
L 244.624356 275.412875 
L 244.828414 271.170402 
L 245.032459 224.439596 
L 245.236496 218.341276 
L 245.440554 168.686522 
L 245.644612 220.94652 
L 245.84867 227.122958 
L 246.052708 168.350982 
L 246.256766 247.239858 
L 246.460824 174.415241 
L 246.664881 241.882362 
L 246.868919 234.463748 
L 247.072977 198.347295 
L 247.277035 247.773202 
L 247.68513 203.661598 
L 247.889188 221.455812 
L 248.093246 205.782036 
L 248.297304 202.110391 
L 248.501342 194.934087 
L 248.7054 177.040581 
L 248.909458 128.639582 
L 249.113516 174.265862 
L 249.317553 189.290238 
L 249.521611 227.788408 
L 249.725669 212.246615 
L 249.929727 266.216386 
L 250.133764 250.849707 
L 250.337822 182.236073 
L 250.745938 215.570967 
L 250.949976 220.070691 
L 251.154034 155.392476 
L 251.358092 158.042311 
L 251.56215 178.260162 
L 251.766187 237.243013 
L 251.970245 217.88054 
L 252.174303 224.508508 
L 252.378361 184.517182 
L 252.990514 219.1135 
L 253.39861 295.498814 
L 253.602668 274.40735 
L 253.806725 279.347072 
L 254.010784 291.4849 
L 254.418879 270.411477 
L 254.622937 279.897471 
L 254.826995 282.631294 
L 255.031032 276.715672 
L 255.643206 234.232605 
L 255.847244 169.494507 
L 256.051302 222.118121 
L 256.255359 243.58898 
L 256.459418 224.975688 
L 256.663455 180.157229 
L 257.071571 282.70713 
L 257.479666 247.335568 
L 257.683724 267.682007 
L 257.887782 327.113136 
L 258.09182 281.957388 
L 258.295878 270.879732 
L 258.499936 295.915238 
L 258.908031 185.06205 
L 259.112089 186.456773 
L 259.316147 201.846413 
L 259.520205 235.869894 
L 259.724243 240.874805 
L 259.928301 269.190613 
L 260.132358 192.327025 
L 260.336416 233.209965 
L 260.744512 194.913113 
L 260.94857 233.28993 
L 261.152628 193.374479 
L 261.356665 193.374479 
L 261.560723 164.787955 
L 261.764781 175.308919 
L 261.968839 161.025495 
L 262.172876 166.243794 
L 262.376935 185.352473 
L 262.580992 186.29373 
L 262.78503 163.765812 
L 262.989088 183.855218 
L 263.193146 242.154322 
L 263.397204 255.194165 
L 263.601241 228.42091 
L 263.805299 224.71116 
L 264.009357 259.216065 
L 264.213415 224.334927 
L 264.417453 225.619853 
L 264.62151 216.724451 
L 264.825569 254.177864 
L 265.029626 209.186767 
L 265.233664 224.331944 
L 265.437737 289.395732 
L 265.641795 240.73198 
L 265.845853 223.130804 
L 266.049891 217.711267 
L 266.253948 238.411451 
L 266.662064 208.811875 
L 266.866102 229.725027 
L 267.07016 266.398573 
L 267.274218 230.798798 
L 267.478255 285.360772 
L 267.682313 221.23685 
L 267.886371 279.811385 
L 268.090429 222.755953 
L 268.294467 220.242944 
L 268.498525 267.760974 
L 268.702583 244.120689 
L 268.90664 239.950698 
L 269.110678 311.811585 
L 269.518794 243.256195 
L 269.722852 242.210569 
L 269.926889 257.800576 
L 270.130947 227.841238 
L 270.335005 258.919336 
L 270.539063 236.437292 
L 270.743101 194.674494 
L 270.947158 192.502206 
L 271.151217 171.547789 
L 271.355254 225.497926 
L 271.559312 198.445793 
L 271.76337 279.733645 
L 271.967428 253.652188 
L 272.171465 313.434393 
L 272.375523 248.182973 
L 272.579581 249.765594 
L 272.783639 255.200591 
L 272.987677 249.390656 
L 273.191735 163.303744 
L 273.395792 224.971976 
L 273.599851 173.078006 
L 273.803888 233.363846 
L 274.212004 192.263744 
L 274.416042 268.385855 
L 274.620099 215.734147 
L 274.824157 237.749452 
L 275.028215 215.970929 
L 275.436311 234.198721 
L 275.640369 185.735781 
L 275.844426 267.196935 
L 276.048464 262.451528 
L 276.252522 233.951695 
L 276.45658 241.788642 
L 276.660638 213.324651 
L 276.864676 235.499038 
L 277.068734 237.715096 
L 277.272791 211.395957 
L 277.476829 249.298369 
L 277.680887 244.956347 
L 277.884945 286.964323 
L 278.089003 230.051608 
L 278.29304 262.991159 
L 278.497098 248.26827 
L 278.701156 257.444603 
L 278.905214 166.539751 
L 279.109252 138.494423 
L 279.517368 189.396091 
L 279.721425 189.945259 
L 279.925463 187.474513 
L 280.129521 194.443058 
L 280.333579 166.278744 
L 280.537616 167.421174 
L 280.945732 274.510555 
L 281.14979 237.648562 
L 281.353828 177.326009 
L 281.557886 184.296661 
L 281.761943 232.276975 
L 281.966002 191.204463 
L 282.170039 175.642944 
L 282.374097 175.752177 
L 282.782213 280.081729 
L 282.98625 259.408123 
L 283.190308 274.146827 
L 283.394366 266.552468 
L 283.802462 212.194389 
L 284.00652 205.108501 
L 284.210577 191.244532 
L 284.414615 162.416473 
L 284.618673 209.555834 
L 284.822731 200.623144 
L 285.026789 130.646067 
L 285.230827 231.772401 
L 285.434884 231.772401 
L 285.638927 217.442834 
L 285.842965 168.94889 
L 286.047023 153.044207 
L 286.25108 114.15436 
L 286.455139 161.92641 
L 286.659176 181.776101 
L 287.067292 148.175243 
L 287.27135 185.542094 
L 287.475387 174.175223 
L 287.679445 195.081268 
L 287.883503 172.34443 
L 288.087541 164.792103 
L 288.291599 145.724457 
L 288.495657 194.899403 
L 288.903752 210.814481 
L 289.10781 194.191878 
L 289.311868 193.052009 
L 289.719964 287.30831 
L 289.924021 196.410945 
L 290.128079 195.218591 
L 290.332117 117.269561 
L 290.740233 109.847459 
L 290.944291 123.699486 
L 291.148328 156.540229 
L 291.352386 118.62418 
L 291.760502 185.060285 
L 291.96454 123.832414 
L 292.168598 174.628686 
L 292.576693 146.410692 
L 292.780751 149.847222 
L 292.984809 110.970654 
L 293.188867 133.167809 
L 293.596962 215.258297 
L 293.80102 127.343552 
L 294.005078 143.224673 
L 294.209116 146.969324 
L 294.413174 116.041875 
L 294.821269 164.792836 
L 295.025327 134.847597 
L 295.229385 125.572553 
L 295.433443 129.521118 
L 295.637481 81.836913 
L 295.841538 100.48681 
L 296.045596 143.981266 
L 296.249634 152.577799 
L 296.453692 172.194313 
L 296.65775 106.187544 
L 297.269903 169.989552 
L 297.473961 178.39261 
L 297.678019 175.412603 
L 297.882057 206.86791 
L 298.086115 204.072438 
L 298.290172 232.860409 
L 298.49421 194.456373 
L 298.698268 200.764332 
L 299.106384 141.464266 
L 299.514479 212.544614 
L 299.718537 209.011729 
L 299.922575 232.035564 
L 300.126633 173.965856 
L 300.330691 200.820012 
L 300.534749 170.279001 
L 300.738786 182.927896 
L 300.942844 165.311341 
L 301.146902 199.482796 
L 301.35094 156.078601 
L 301.554997 195.625144 
L 301.759055 163.41512 
L 301.963113 222.132924 
L 302.167151 164.434233 
L 302.575267 139.297843 
L 302.779325 140.44194 
L 302.983362 108.409546 
L 303.391478 137.80775 
L 303.595515 126.936003 
L 303.799574 200.620786 
L 304.003631 225.724642 
L 304.207689 180.077526 
L 304.411727 176.535305 
L 304.615785 201.118553 
L 304.819843 162.017763 
L 305.02388 84.793311 
L 305.227938 117.004492 
L 305.431996 168.777046 
L 305.636054 149.384274 
L 305.840092 110.425381 
L 306.044157 114.868623 
L 306.248215 96.675856 
L 306.452273 104.639827 
L 306.860369 165.186903 
L 307.064426 145.72059 
L 307.268464 105.41392 
L 307.472522 140.249579 
L 307.67658 125.092187 
L 307.880638 175.923379 
L 308.288733 76.261152 
L 308.696829 136.800945 
L 309.104945 44.622472 
L 309.309003 93.044998 
L 309.51304 114.797767 
L 309.717098 114.797767 
L 309.921156 32.444141 
L 310.125194 53.315997 
L 310.533309 182.750384 
L 310.737367 187.840557 
L 310.941405 149.490397 
L 311.145463 150.303511 
L 311.553558 92.219396 
L 311.757616 102.507091 
L 311.961674 121.127148 
L 312.165732 103.922737 
L 312.36977 117.105012 
L 312.777885 163.729632 
L 312.981923 204.830971 
L 313.185981 166.209561 
L 313.390039 154.623619 
L 313.594097 182.64531 
L 313.798134 142.656929 
L 314.002192 143.428533 
L 314.20625 165.199255 
L 314.410308 155.646464 
L 314.614346 105.75974 
L 314.818404 154.073823 
L 315.022462 107.735007 
L 315.226499 152.710809 
L 315.430557 139.46703 
L 315.634615 135.909486 
L 315.838673 155.378016 
L 316.042711 142.147829 
L 316.246768 153.402634 
L 316.450826 142.011991 
L 316.654864 178.590364 
L 316.858922 161.397336 
L 317.267038 87.079769 
L 317.471075 188.694835 
L 317.675133 149.770586 
L 317.879191 184.383558 
L 318.083229 179.88915 
L 318.287287 197.047469 
L 318.491345 154.892359 
L 318.695402 153.993429 
L 319.103498 100.132734 
L 319.307556 148.974264 
L 319.511593 151.703535 
L 319.715651 94.825033 
L 319.919709 132.445272 
L 320.123747 118.981036 
L 320.327805 128.091234 
L 320.531863 75.240002 
L 320.735921 123.872289 
L 320.939958 77.21283 
L 321.144016 89.954756 
L 321.348074 68.29316 
L 321.552112 142.54448 
L 321.75617 97.3331 
L 321.960227 139.824724 
L 322.164285 225.632051 
L 322.368323 122.526715 
L 322.572381 111.566314 
L 322.776439 107.017132 
L 322.980476 111.034157 
L 323.184534 145.774287 
L 323.388592 136.399985 
L 323.59265 77.930044 
L 323.796688 117.81219 
L 324.000746 90.795278 
L 324.204804 93.431145 
L 324.408841 141.097687 
L 324.612899 150.437105 
L 325.021015 122.832796 
L 325.225053 197.591707 
L 325.42911 163.721136 
L 325.633168 183.300912 
L 325.837206 178.703699 
L 326.041264 150.327849 
L 326.245314 169.180476 
L 326.449372 176.955741 
L 326.65341 235.974229 
L 326.857468 148.358134 
L 327.061526 132.033677 
L 327.265563 101.736835 
L 327.469621 156.002065 
L 327.673679 106.457969 
L 327.877737 128.937225 
L 328.081774 87.212351 
L 328.285832 139.342748 
L 328.48989 119.020711 
L 328.693928 177.583241 
L 328.897986 171.527203 
L 329.102044 173.686118 
L 329.306081 180.366265 
L 329.510139 140.343132 
L 329.714197 144.187878 
L 329.918255 183.665321 
L 330.326351 102.103157 
L 330.530408 127.324474 
L 330.734446 128.962221 
L 330.938504 125.136859 
L 331.142562 159.680326 
L 331.34662 154.696646 
L 331.550658 170.50726 
L 331.958773 131.535223 
L 332.162811 159.19137 
L 332.366869 111.769781 
L 332.570927 114.738814 
L 332.774985 185.648799 
L 332.979022 79.776381 
L 333.18308 81.578878 
L 333.387138 139.85295 
L 333.591176 139.85295 
L 333.795234 137.98474 
L 333.999292 117.71983 
L 334.203329 117.71983 
L 334.407387 138.927092 
L 334.611445 140.733371 
L 334.815503 162.235048 
L 335.01954 154.098059 
L 335.223598 162.675458 
L 335.427656 203.946495 
L 335.631694 185.794444 
L 335.835752 182.251479 
L 336.03981 212.277744 
L 336.447905 131.433616 
L 336.651963 159.411341 
L 336.856021 142.631827 
L 337.060058 150.632832 
L 337.264117 141.336754 
L 337.468174 124.152188 
L 337.672212 74.345297 
L 337.87627 113.230383 
L 338.284386 208.815446 
L 338.488423 221.869216 
L 338.692481 177.597413 
L 338.896539 232.312197 
L 339.100577 201.972764 
L 339.304635 236.791514 
L 339.508692 186.131945 
L 339.71273 197.500463 
L 339.916788 202.398439 
L 340.120846 148.714177 
L 340.324904 181.599091 
L 340.528942 189.669221 
L 340.732999 212.663625 
L 340.937057 176.780595 
L 341.141095 166.806607 
L 341.345153 180.149332 
L 341.753269 242.368901 
L 341.957306 250.578074 
L 342.161364 241.292218 
L 342.365422 265.471461 
L 342.56946 230.564234 
L 342.773518 223.58759 
L 342.977576 241.459521 
L 343.385671 198.531166 
L 343.589729 254.792017 
L 343.793767 258.249363 
L 343.997825 250.724578 
L 344.201882 296.905803 
L 344.609978 179.669699 
L 344.814036 231.849164 
L 345.018094 205.525616 
L 345.222131 260.029092 
L 345.426189 234.989221 
L 345.834305 290.029366 
L 346.038343 257.824629 
L 346.242401 263.357135 
L 346.446459 287.223988 
L 346.650504 293.268914 
L 346.854562 304.817409 
L 347.05862 222.266238 
L 347.262657 239.099559 
L 347.466715 339.887453 
L 347.670773 258.372296 
L 347.874831 291.200308 
L 348.078868 276.219208 
L 348.282926 301.614615 
L 348.486984 305.172163 
L 348.691022 305.457351 
L 348.89508 331.672827 
L 349.099138 315.463781 
L 349.303175 328.993187 
L 349.507233 254.260904 
L 349.711291 289.711254 
L 349.915349 256.726522 
L 350.119387 289.782112 
L 350.323445 293.150715 
L 350.527502 302.623263 
L 350.73154 296.694914 
L 350.935598 254.85765 
L 351.139656 287.5253 
L 351.343694 266.376023 
L 351.547751 283.460782 
L 351.751809 268.606598 
L 351.955847 311.175032 
L 352.159905 321.957794 
L 352.363963 316.490536 
L 352.568021 302.484382 
L 352.772058 244.886503 
L 352.976116 301.010715 
L 353.180174 279.611213 
L 353.384212 337.486544 
L 353.58827 277.725273 
L 353.792328 293.60851 
L 353.996365 372.139327 
L 354.200423 301.247226 
L 354.404481 369.864984 
L 354.608539 329.932198 
L 354.812576 368.59182 
L 355.016634 384.381739 
L 355.220692 364.719608 
L 355.42473 374.103709 
L 355.628788 329.585779 
L 355.832846 327.389444 
L 356.240941 275.608166 
L 356.444999 373.783943 
L 356.649057 357.033119 
L 356.853095 371.761755 
L 357.057153 318.768827 
L 357.465248 309.566823 
L 357.669306 344.099167 
L 357.873364 331.210764 
L 358.077402 289.031573 
L 358.281459 289.031573 
L 358.485517 324.543549 
L 358.689555 255.351138 
L 358.893613 278.644244 
L 359.097671 327.519106 
L 359.505766 283.415758 
L 359.913882 263.555026 
L 360.11792 312.243492 
L 360.730073 259.522548 
L 360.934131 272.744245 
L 361.138189 229.375772 
L 361.342227 221.601191 
L 361.546284 277.010169 
L 361.9544 320.627263 
L 362.158438 280.676561 
L 362.362496 266.683705 
L 362.566554 299.625298 
L 362.770591 290.098484 
L 362.974649 301.143391 
L 363.178707 318.616654 
L 363.382745 294.445227 
L 363.586803 318.898778 
L 363.790861 320.734026 
L 363.994898 301.923968 
L 364.198956 297.613591 
L 364.403014 280.329074 
L 364.607072 296.938278 
L 364.81111 227.046076 
L 365.015167 250.956668 
L 365.219225 323.559446 
L 365.423263 340.087412 
L 365.627321 323.371228 
L 365.831379 296.953368 
L 366.035416 357.233119 
L 366.443532 339.505395 
L 366.64757 348.401349 
L 366.851628 414.957187 
L 367.055686 404.274359 
L 367.259744 363.378491 
L 367.463781 401.130355 
L 367.667839 387.174675 
L 368.075935 316.30338 
L 368.279992 330.926969 
L 368.48405 369.642672 
L 368.892146 289.334515 
L 369.096204 314.674954 
L 369.300241 299.599283 
L 369.504299 296.86184 
L 369.708357 332.968232 
L 369.912415 318.262397 
L 370.116453 272.23014 
L 370.524569 353.10269 
L 370.728606 369.179925 
L 370.932664 339.1434 
L 371.136722 358.602859 
L 371.34076 342.090256 
L 371.544818 338.451677 
L 371.748875 309.145508 
L 371.952913 308.531254 
L 372.156971 280.72595 
L 372.361029 274.604485 
L 372.565066 273.429584 
L 372.769124 296.538386 
L 372.973182 353.49661 
L 373.17724 249.88869 
L 373.381278 211.917202 
L 373.585336 215.996135 
L 373.789394 290.916727 
L 373.993431 278.363601 
L 374.197489 242.482786 
L 374.401547 306.711795 
L 374.605585 281.490857 
L 374.809643 341.654899 
L 375.013701 281.448213 
L 375.217738 321.359469 
L 375.421796 385.942907 
L 375.829892 279.137909 
L 376.033949 287.833487 
L 376.238007 289.512668 
L 376.442065 216.269344 
L 376.646103 301.027377 
L 376.850161 302.328918 
L 377.054219 343.541256 
L 377.258256 335.794788 
L 377.462314 309.525069 
L 377.666372 334.112388 
L 377.87041 301.970751 
L 378.074468 304.278645 
L 378.278526 251.326362 
L 378.482563 288.029723 
L 378.890679 262.591844 
L 379.298775 330.916869 
L 379.502832 225.32925 
L 379.910928 184.620598 
L 380.114986 232.844229 
L 380.319044 243.684502 
L 380.523081 216.425175 
L 380.727139 173.285295 
L 380.931197 214.988304 
L 381.135235 233.494112 
L 381.339293 236.635903 
L 381.543351 268.527179 
L 381.747388 212.530692 
L 381.951446 250.706954 
L 382.155504 253.159235 
L 382.359542 253.159235 
L 382.5636 267.566213 
L 382.767657 297.167617 
L 382.971695 261.114082 
L 383.175753 285.49085 
L 383.379811 287.175299 
L 383.583849 270.317031 
L 383.787906 301.370992 
L 383.991964 288.951464 
L 384.40006 280.492069 
L 384.604118 263.973806 
L 385.012213 272.161481 
L 385.216271 284.738376 
L 385.420329 330.646614 
L 385.828425 300.242972 
L 386.032483 329.008071 
L 386.23652 298.83477 
L 386.440578 298.536413 
L 386.644636 270.581116 
L 386.848674 333.934824 
L 387.052731 263.807266 
L 387.460827 347.063231 
L 387.664885 304.591068 
L 387.868943 308.059155 
L 388.07298 353.850676 
L 388.277038 346.984616 
L 388.685154 310.960809 
L 388.889192 305.60095 
L 389.297308 350.191057 
L 389.501345 281.323675 
L 389.705403 336.334954 
L 389.909461 276.640309 
L 390.113499 319.98742 
L 390.317557 334.900257 
L 390.521614 297.725759 
L 390.725652 341.001709 
L 390.92971 288.120452 
L 391.133768 293.845754 
L 391.337805 244.703901 
L 391.541863 286.035694 
L 391.745921 304.624671 
L 391.949959 287.811686 
L 392.154017 239.445114 
L 392.358075 273.732787 
L 392.562112 240.266073 
L 392.76617 259.722377 
L 392.970228 289.892751 
L 393.174266 284.977197 
L 393.378324 265.518775 
L 393.582382 276.699016 
L 393.786439 239.30787 
L 393.990477 273.650929 
L 394.194535 225.786995 
L 394.398593 250.885132 
L 394.602631 232.451022 
L 394.806688 228.338055 
L 395.010746 200.97752 
L 395.214784 245.237238 
L 395.418842 185.024505 
L 395.6229 199.977297 
L 395.826937 262.898249 
L 396.030995 266.820095 
L 396.439091 209.703873 
L 396.643149 221.629622 
L 396.847207 258.256494 
L 397.051244 242.933606 
L 397.255302 205.485397 
L 397.45936 201.122341 
L 397.663398 217.749765 
L 397.867456 207.357463 
L 398.071513 257.64015 
L 398.275551 237.13465 
L 398.479609 241.273478 
L 398.887705 275.484329 
L 399.091762 315.562423 
L 399.29582 236.883924 
L 399.499858 232.99945 
L 399.703916 241.462934 
L 399.907974 192.802547 
L 400.316069 264.07062 
L 400.520127 257.822924 
L 400.724165 255.096983 
L 400.928223 234.33576 
L 401.132281 265.660664 
L 401.336339 253.118322 
L 401.540376 257.373952 
L 401.744434 319.989899 
L 401.948492 242.188152 
L 402.15253 259.453636 
L 402.356587 229.618665 
L 402.560645 231.691624 
L 402.968741 175.660066 
L 403.172799 244.749686 
L 403.376836 199.763399 
L 403.580894 224.617165 
L 403.784952 279.836118 
L 403.98899 270.491034 
L 404.193048 294.310643 
L 404.397106 261.944694 
L 404.601143 207.222441 
L 404.805201 252.64641 
L 405.009259 271.674088 
L 405.213297 271.674088 
L 405.417355 251.143674 
L 405.621413 255.550848 
L 405.82545 247.561157 
L 406.029508 268.407669 
L 406.233566 268.407669 
L 406.437604 279.868045 
L 406.641661 204.104226 
L 406.845719 208.375651 
L 407.049757 173.201061 
L 407.253815 180.390447 
L 407.457873 216.622934 
L 407.661904 168.854485 
L 407.865962 160.411253 
L 408.07002 140.728796 
L 408.274057 183.840722 
L 408.478115 172.80466 
L 408.886211 249.086558 
L 409.090268 283.363585 
L 409.294326 248.933862 
L 409.498364 262.728622 
L 409.702422 167.107608 
L 410.110517 155.464396 
L 410.314575 163.670419 
L 410.518633 223.791566 
L 410.926729 193.627727 
L 411.130787 222.552835 
L 411.334824 189.939668 
L 411.538882 199.994178 
L 411.74294 226.329095 
L 411.946978 162.220896 
L 412.151036 186.565111 
L 412.559131 125.770131 
L 412.763189 120.199232 
L 412.967247 138.133169 
L 413.171285 189.206382 
L 413.375342 142.837721 
L 413.5794 150.246077 
L 413.783438 177.049154 
L 413.987496 172.452659 
L 414.191554 174.764848 
L 414.395591 168.749644 
L 414.599649 139.057163 
L 414.803707 151.171483 
L 415.007745 150.028393 
L 415.211803 191.977597 
L 415.415861 159.455066 
L 415.619898 165.255341 
L 415.823956 131.067921 
L 416.028014 172.833924 
L 416.640168 143.771344 
L 416.844205 154.770775 
L 417.048263 123.39873 
L 417.252321 143.144124 
L 417.660416 197.178847 
L 417.864474 130.209143 
L 418.068512 116.459653 
L 418.27257 139.677367 
L 418.476628 149.706118 
L 418.680686 243.933658 
L 418.884723 108.025886 
L 419.292839 139.579076 
L 419.496877 52.329345 
L 419.904993 156.429706 
L 420.10903 125.399474 
L 420.517146 106.482288 
L 420.721184 123.949761 
L 420.925242 119.115943 
L 421.129299 82.633143 
L 421.333337 100.25604 
L 421.537395 170.383583 
L 421.94549 151.70569 
L 422.149548 169.27476 
L 422.353606 147.246454 
L 422.557644 186.600241 
L 422.761702 164.494979 
L 422.96576 164.123898 
L 423.169797 164.540816 
L 423.373855 165.393214 
L 423.781951 215.674911 
L 423.986009 184.324314 
L 424.190046 175.381644 
L 424.394104 179.119353 
L 424.598162 151.632558 
L 424.8022 190.0128 
L 425.006258 146.163514 
L 425.414353 195.404275 
L 425.618411 125.337157 
L 425.822469 131.21167 
L 426.026507 149.594908 
L 426.230564 186.225352 
L 426.434622 160.234166 
L 426.63866 239.492332 
L 426.842718 154.758122 
L 427.046776 148.030274 
L 427.250813 167.025051 
L 427.454871 162.053074 
L 427.658929 163.262494 
L 427.862999 176.838845 
L 428.067057 172.644995 
L 428.271115 175.182348 
L 428.475152 141.474817 
L 428.67921 150.158158 
L 428.883268 167.056924 
L 429.087306 172.444802 
L 429.291364 214.388594 
L 429.495422 225.282132 
L 429.699459 259.993656 
L 429.903517 186.890019 
L 430.107575 182.703131 
L 430.311613 182.703131 
L 430.515671 248.888825 
L 430.719728 259.9963 
L 430.923766 234.85249 
L 431.127824 227.620049 
L 431.331882 211.726224 
L 431.535919 232.606158 
L 431.739977 273.636571 
L 431.944035 231.461501 
L 432.352131 243.942101 
L 432.556189 246.151357 
L 432.760226 245.766185 
L 432.964284 182.226091 
L 433.37238 261.505144 
L 433.576438 211.228203 
L 433.780496 255.323218 
L 434.392649 230.598026 
L 434.596687 249.158606 
L 434.800745 232.65713 
L 435.004802 304.452175 
L 435.20884 291.054472 
L 435.412898 294.05701 
L 435.616956 279.404605 
L 435.820993 184.252577 
L 436.025051 238.761804 
L 436.229109 250.334409 
L 436.433147 297.482691 
L 436.637205 292.163865 
L 436.841242 283.689021 
L 437.0453 286.697184 
L 437.657454 237.657438 
L 438.065549 268.454166 
L 438.269607 239.187756 
L 438.473665 233.734304 
L 438.677703 237.470292 
L 439.085819 249.666563 
L 439.289856 267.995178 
L 439.493914 346.676873 
L 439.697972 230.917558 
L 440.106067 326.942512 
L 440.310125 336.416966 
L 440.514163 243.941542 
L 440.718221 269.739862 
L 440.922279 257.724618 
L 441.126316 255.303177 
L 441.330374 186.206844 
L 441.534432 262.527128 
L 441.942528 126.570633 
L 442.350623 189.310558 
L 442.554681 191.171472 
L 442.758739 262.227401 
L 442.962777 225.451912 
L 443.166835 250.249685 
L 443.370872 227.022403 
L 443.778988 262.869397 
L 443.983026 249.641398 
L 444.187084 181.509101 
L 444.391141 272.893233 
L 444.595179 228.236968 
L 444.799237 253.343979 
L 445.003295 261.51182 
L 445.207333 274.721148 
L 445.41139 262.875969 
L 445.615448 274.760464 
L 445.819486 253.028902 
L 446.023544 255.032557 
L 446.227602 287.621639 
L 446.431639 281.492026 
L 446.635697 229.498237 
L 446.839755 262.159132 
L 447.451909 174.460553 
L 447.655946 210.320698 
L 447.860004 223.23144 
L 448.064042 225.010909 
L 448.472142 309.676032 
L 448.67618 199.18763 
L 448.880238 243.647084 
L 449.084296 232.142214 
L 449.288333 303.349044 
L 449.492391 207.885512 
L 449.900487 235.80953 
L 450.104545 209.973666 
L 450.308603 164.11175 
L 450.51264 175.721543 
L 450.716698 209.234058 
L 450.920756 192.908659 
L 451.124794 200.191973 
L 451.328852 188.575054 
L 451.736947 221.1433 
L 451.941005 189.18977 
L 452.145043 181.524606 
L 452.349101 190.729064 
L 452.553158 178.662798 
L 452.757196 176.983925 
L 452.961254 182.588952 
L 453.165312 184.532441 
L 453.369349 159.362405 
L 453.573407 178.402343 
L 453.777465 145.969369 
L 453.981503 160.845035 
L 454.185561 154.431646 
L 454.389619 154.431646 
L 454.593656 107.065597 
L 454.797714 141.104564 
L 455.001772 100.018248 
L 455.20581 200.275906 
L 455.409868 224.019312 
L 455.613926 185.461188 
L 455.817963 192.742953 
L 456.022021 164.725214 
L 456.226059 155.886256 
L 456.430117 195.358629 
L 456.634175 202.813268 
L 457.04227 128.203581 
L 457.246328 162.059721 
L 457.450366 163.698672 
L 457.654423 244.124304 
L 457.858481 229.531957 
L 458.062519 192.141874 
L 458.266577 178.833893 
L 458.674672 206.713427 
L 458.87873 203.882909 
L 459.082788 154.054916 
L 459.286826 150.613499 
L 459.694921 222.327569 
L 459.898979 193.491106 
L 460.103037 249.440453 
L 460.307075 175.217109 
L 460.511133 231.405729 
L 460.715191 205.280321 
L 460.919228 207.120086 
L 461.123286 213.993823 
L 461.327344 171.393309 
L 461.531382 211.984909 
L 461.73544 218.150868 
L 461.939497 216.896201 
L 462.143535 221.225622 
L 462.347593 216.103799 
L 462.551631 199.242444 
L 462.755689 227.790855 
L 462.959746 225.986986 
L 463.367842 269.711747 
L 463.5719 235.321773 
L 463.775937 249.356843 
L 463.979995 202.219644 
L 464.184053 214.338582 
L 464.388091 169.5379 
L 464.592149 243.154591 
L 464.796207 185.484204 
L 465.000244 248.239072 
L 465.204302 180.634869 
L 465.612398 304.552546 
L 465.816456 254.02688 
L 466.224551 224.039073 
L 466.632647 247.800084 
L 466.836705 280.607608 
L 467.2448 234.5984 
L 467.448858 231.958081 
L 467.652916 257.005654 
L 468.061011 222.600591 
L 468.469158 299.170968 
L 468.673216 228.205677 
L 468.877253 224.552678 
L 469.081311 267.31953 
L 469.285369 235.191134 
L 469.693465 283.815822 
L 469.897522 215.277044 
L 470.10156 263.946468 
L 470.509676 239.559186 
L 470.713714 243.073499 
L 470.917771 230.230789 
L 471.121809 280.549245 
L 471.325867 177.633828 
L 471.529925 249.263019 
L 471.733962 256.637421 
L 472.142078 167.731569 
L 472.346116 188.921114 
L 472.550174 172.997812 
L 472.754232 228.489127 
L 472.958269 226.618011 
L 473.366385 249.637682 
L 473.570423 224.186133 
L 473.774481 221.430972 
L 473.978518 211.916942 
L 474.182576 185.07873 
L 474.386634 212.360526 
L 474.590672 210.207482 
L 474.79473 236.210525 
L 474.998788 199.099532 
L 475.202825 187.329842 
L 475.610941 263.558206 
L 475.814979 293.95593 
L 476.019036 207.208502 
L 476.223074 277.326052 
L 476.427132 236.030295 
L 476.63119 242.625407 
L 476.835228 275.468424 
L 477.039285 266.015951 
L 477.243343 270.746184 
L 477.447381 237.617491 
L 477.651439 234.92114 
L 477.855497 239.478521 
L 478.059534 253.33986 
L 478.263592 232.178956 
L 478.46763 199.338973 
L 478.671688 199.338973 
L 478.875746 218.097542 
L 479.079783 210.027086 
L 479.283841 246.107997 
L 479.487899 199.449448 
L 479.691937 253.02492 
L 480.100053 197.719821 
L 480.30409 260.229922 
L 480.508148 231.15432 
L 480.712186 261.91727 
L 481.120302 219.160264 
L 481.324339 209.961106 
L 481.528397 222.386836 
L 481.936493 151.66691 
L 482.14055 190.313555 
L 482.344608 167.689011 
L 482.548646 183.226087 
L 482.752704 239.273064 
L 482.956742 211.778141 
L 483.160799 116.742228 
L 483.364857 164.535236 
L 483.568895 164.367153 
L 483.772953 148.191336 
L 483.977011 170.146346 
L 484.181048 173.377572 
L 484.385106 152.833583 
L 484.589164 163.269293 
L 484.793202 141.345153 
L 485.201297 180.286761 
L 485.609413 200.782592 
L 486.017509 147.2115 
L 486.221567 200.96478 
L 486.425604 166.671183 
L 486.629662 237.923513 
L 486.83372 223.977902 
L 487.037758 196.828213 
L 487.241816 228.656569 
L 487.445853 216.913622 
L 487.649911 177.990919 
L 487.853969 181.433228 
L 488.058007 206.314087 
L 488.262064 245.128052 
L 488.67016 168.196457 
L 488.874149 204.901332 
L 489.078187 196.744152 
L 489.282245 138.097198 
L 489.486303 174.290381 
L 489.690341 180.530021 
L 489.894398 144.888934 
L 490.302494 187.991844 
L 490.506552 220.821091 
L 490.71061 228.424686 
L 490.914647 218.881298 
L 491.118705 171.645096 
L 491.526801 239.531702 
L 491.730859 192.607562 
L 491.934896 171.289916 
L 492.343012 286.392214 
L 492.54705 295.749893 
L 492.751108 257.845582 
L 493.159203 329.914428 
L 493.363261 258.252901 
L 493.567299 289.963912 
L 493.771357 259.526999 
L 493.975415 292.267031 
L 494.179452 290.928921 
L 494.38351 304.159962 
L 494.587568 300.247661 
L 494.791605 307.603303 
L 494.995663 221.707764 
L 495.199701 202.42278 
L 495.403759 262.421762 
L 495.607817 260.258966 
L 495.811855 281.162942 
L 496.015912 317.714169 
L 496.21997 299.23135 
L 496.424008 343.653041 
L 496.628066 347.279578 
L 497.036161 295.08976 
L 497.240219 296.392579 
L 497.444257 268.218061 
L 497.648315 281.148877 
L 497.852373 323.484662 
L 498.260468 290.479631 
L 498.464506 294.816536 
L 498.668564 238.734884 
L 498.872621 236.075213 
L 499.076659 265.623231 
L 499.280717 277.037966 
L 499.688813 256.79415 
L 499.892871 284.068243 
L 500.096908 229.789368 
L 500.300966 237.227283 
L 500.709062 292.888455 
L 500.91312 292.809861 
L 501.117177 295.42914 
L 501.321215 290.485208 
L 501.525273 247.275946 
L 501.72931 247.275946 
L 501.933369 246.961774 
L 502.137426 250.236792 
L 502.341464 282.283913 
L 502.545522 280.896039 
L 502.74958 280.896039 
L 502.953617 215.515739 
L 503.157675 251.79653 
L 503.361713 258.113198 
L 503.565771 235.134348 
L 503.769829 255.818457 
L 503.973866 253.947688 
L 504.177924 241.71367 
L 504.381982 285.135653 
L 504.58602 239.19196 
L 504.790078 152.827353 
L 504.994115 141.887459 
L 505.198173 169.640648 
L 505.402231 166.871342 
L 505.606269 158.419018 
L 505.810327 167.006388 
L 506.014385 163.994938 
L 506.218422 213.046454 
L 506.626518 250.658698 
L 506.830576 227.138787 
L 507.034634 256.524244 
L 507.646787 197.59393 
L 507.850825 239.289994 
L 508.054882 207.804436 
L 508.25892 198.676235 
L 508.462978 258.822339 
L 508.667036 229.079944 
L 508.871073 264.385122 
L 509.279195 224.393296 
L 509.483233 251.454001 
L 509.687291 305.868699 
L 509.891328 249.915488 
L 510.095386 249.297828 
L 510.299444 226.850736 
L 510.503482 233.785347 
L 510.911598 209.803418 
L 511.115635 246.424393 
L 511.319693 205.077227 
L 511.523731 220.954393 
L 511.727789 274.084492 
L 511.931847 296.675995 
L 512.339942 259.52168 
L 512.544 300.606787 
L 512.748038 296.178323 
L 512.952096 252.195871 
L 513.156133 240.292855 
L 513.360191 259.517783 
L 513.564249 219.189539 
L 513.972344 302.899403 
L 514.176382 214.864513 
L 514.38044 178.101878 
L 514.584498 115.607095 
L 514.788536 194.513537 
L 514.992593 228.087994 
L 515.196651 160.735496 
L 515.604747 188.339894 
L 516.012842 157.882013 
L 516.2169 189.10323 
L 516.420938 184.726102 
L 516.829054 219.456552 
L 517.033091 289.060146 
L 517.237149 236.195202 
L 517.441187 256.883061 
L 517.849303 271.371461 
L 518.05334 312.754562 
L 518.257398 235.154554 
L 518.665494 257.344824 
L 518.869552 239.557541 
L 519.073589 262.222835 
L 519.277647 251.870038 
L 519.481705 221.253898 
L 519.889801 260.005309 
L 520.093838 246.317125 
L 520.297896 259.150008 
L 520.501954 220.447345 
L 520.910049 274.187502 
L 521.114107 253.093124 
L 521.318145 288.368224 
L 521.726241 244.381708 
L 521.930298 264.500682 
L 522.134356 224.638506 
L 522.338394 246.918951 
L 522.542452 192.316294 
L 522.746489 183.983494 
L 522.950547 181.161366 
L 523.154605 215.089636 
L 523.358643 183.484309 
L 523.970796 211.619738 
L 524.174854 175.362507 
L 524.378892 197.868196 
L 524.58295 154.37942 
L 524.787008 177.262941 
L 524.991045 116.722827 
L 525.195103 126.119836 
L 525.399141 142.296119 
L 525.807257 203.767425 
L 526.011294 235.034022 
L 526.215352 224.399038 
L 526.41941 177.711609 
L 526.623448 188.877592 
L 526.827506 166.147691 
L 527.031543 166.147691 
L 527.235601 199.716399 
L 527.439659 198.217281 
L 527.643697 236.49368 
L 527.847755 252.654868 
L 528.051792 249.533752 
L 528.25585 251.01965 
L 528.663946 218.876454 
L 528.868003 217.60228 
L 529.072061 221.064926 
L 529.276099 218.317278 
L 529.684257 263.086669 
L 529.888315 210.897745 
L 530.092373 218.207572 
L 530.29641 241.953987 
L 530.704506 164.602248 
L 530.908564 158.337581 
L 531.316659 234.939429 
L 531.520717 177.637289 
L 531.724755 152.082689 
L 531.928813 161.084834 
L 532.132871 202.556765 
L 532.336908 135.012794 
L 532.540966 184.468507 
L 532.745004 185.834927 
L 532.949062 164.512225 
L 533.15312 248.718583 
L 533.357157 187.987421 
L 533.561215 199.863624 
L 533.765273 277.628676 
L 533.969311 248.761281 
L 534.173369 250.882722 
L 534.377406 278.040659 
L 534.581464 270.028929 
L 534.785522 249.731461 
L 534.98956 317.471156 
L 535.397655 267.852709 
L 535.601713 266.054862 
L 536.009809 208.055317 
L 536.417904 191.60806 
L 536.621962 227.735773 
L 536.82602 208.170532 
L 537.234115 309.61542 
L 537.438173 307.595133 
L 537.642211 249.327425 
L 537.846269 300.26575 
L 538.050307 248.994981 
L 538.254364 271.490873 
L 538.66246 207.584639 
L 538.866518 251.833081 
L 539.070555 183.677369 
L 539.274613 283.491216 
L 539.478671 234.898224 
L 539.886767 285.877255 
L 540.090804 281.293424 
L 540.294862 286.868464 
L 540.49892 302.036752 
L 540.702958 373.952003 
L 541.519169 166.897344 
L 541.927265 234.930586 
L 542.131323 255.188988 
L 542.33536 249.268515 
L 542.743456 206.331482 
L 542.947514 213.828792 
L 543.355609 273.251675 
L 543.559667 309.552736 
L 543.763705 274.049779 
L 543.967763 298.754428 
L 544.171821 261.445539 
L 544.375858 307.752079 
L 544.579916 283.226914 
L 544.988012 348.705915 
L 545.192069 325.795359 
L 545.396107 339.763937 
L 545.600165 332.257496 
L 546.008261 304.807906 
L 546.416356 252.807999 
L 546.620414 263.096234 
L 546.824452 229.236125 
L 547.028509 244.456714 
L 547.232567 247.489845 
L 547.436605 234.250948 
L 547.640663 302.71189 
L 547.8447 290.036944 
L 548.048758 250.882877 
L 548.252816 271.180887 
L 548.456854 259.34489 
L 548.864949 208.720302 
L 549.069007 266.79916 
L 549.273065 208.319665 
L 549.477103 195.145735 
L 549.885146 256.625073 
L 550.089204 308.8643 
L 550.293262 259.141005 
L 550.497299 245.857948 
L 550.701357 266.777958 
L 550.905415 266.777958 
L 551.109453 264.301502 
L 551.313511 278.385677 
L 551.517548 222.745473 
L 551.721606 233.30284 
L 551.925664 259.668909 
L 552.129702 171.54751 
L 552.33376 174.867257 
L 552.537797 180.580033 
L 552.741855 243.875072 
L 552.945913 179.791567 
L 553.354009 203.300884 
L 553.558046 193.404809 
L 553.762104 151.631838 
L 553.966162 133.326627 
L 554.1702 175.85134 
L 554.374258 179.38909 
L 554.578295 250.527641 
L 554.782353 197.876946 
L 554.986411 251.806209 
L 555.394507 170.540539 
L 555.802602 189.752636 
L 556.210698 199.919064 
L 556.414756 192.120424 
L 556.822851 220.862637 
L 557.026909 260.33095 
L 557.230947 189.735514 
L 557.639042 166.006694 
L 557.8431 179.071922 
L 558.047158 181.436253 
L 558.251196 205.143835 
L 558.455253 197.723895 
L 558.659291 226.948468 
L 558.863349 207.443962 
L 559.067407 227.853735 
L 559.475502 182.18852 
L 559.67954 168.753201 
L 559.883598 143.499522 
L 560.087656 193.467255 
L 560.291693 192.254908 
L 560.495751 231.917385 
L 560.699789 176.489637 
L 560.903847 167.94849 
L 561.107905 205.907344 
L 561.311942 205.477632 
L 561.516 212.909733 
L 561.720038 182.951189 
L 561.924096 199.761243 
L 562.128154 198.187211 
L 562.332191 218.252606 
L 562.536249 282.947292 
L 562.740287 276.673063 
L 562.944345 185.435789 
L 563.148403 208.882229 
L 563.35244 197.518714 
L 563.556498 253.213176 
L 563.760536 252.510363 
L 563.964594 191.936428 
L 564.168652 262.088902 
L 564.372689 282.692653 
L 564.576747 282.050031 
L 564.780785 271.491225 
L 564.984843 320.617986 
L 565.18888 256.278883 
L 565.392938 232.75366 
L 565.596996 242.306251 
L 565.801034 206.868977 
L 566.209129 184.130927 
L 566.413187 226.122158 
L 566.617245 179.667078 
L 566.821283 229.917441 
L 567.025341 206.172872 
L 567.433436 239.257706 
L 567.637494 227.560171 
L 567.841532 269.973395 
L 568.04559 240.802484 
L 568.249627 255.997616 
L 568.453685 292.158169 
L 568.861781 258.413484 
L 569.065838 190.77719 
L 569.269876 200.443236 
L 569.473934 173.885745 
L 569.677992 204.586653 
L 570.29012 115.714868 
L 570.494178 125.639745 
L 570.698236 151.753129 
L 570.902273 152.101066 
L 571.106331 115.441938 
L 571.310369 122.019056 
L 571.718464 185.750968 
L 571.922522 165.260633 
L 572.12658 201.721436 
L 572.330618 171.505368 
L 572.534676 160.715064 
L 572.738713 161.558944 
L 572.942771 184.983557 
L 573.350867 144.273587 
L 573.554925 187.082047 
L 573.758962 204.096955 
L 573.96302 176.412723 
L 574.167078 193.465165 
L 574.371116 224.93574 
L 574.575174 207.652619 
L 574.779211 207.652619 
L 574.983269 239.563985 
L 575.391365 179.480046 
L 575.595423 229.428711 
L 575.79946 216.03747 
L 576.003518 194.936431 
L 576.207556 250.930231 
L 576.411614 202.227396 
L 576.615672 209.028994 
L 576.819709 145.448563 
L 577.023767 210.851361 
L 577.227805 187.144497 
L 577.431863 188.543009 
L 577.63592 156.429545 
L 577.839958 195.579965 
L 578.044016 204.66914 
L 578.248054 251.264854 
L 578.452112 256.476608 
L 578.656169 284.081484 
L 578.860207 278.49937 
L 579.064265 178.672805 
L 579.268303 216.892377 
L 579.47236 193.762647 
L 579.676418 224.840181 
L 579.880456 205.831131 
L 580.288552 225.896939 
L 580.492609 200.520395 
L 580.696647 202.705292 
L 580.900705 176.937586 
L 581.104763 177.943091 
L 581.3088 159.64168 
L 581.512858 179.839574 
L 581.716896 219.941042 
L 581.920954 175.428936 
L 582.125012 170.213234 
L 582.329049 168.317324 
L 582.533107 187.677004 
L 582.737145 220.553116 
L 582.941203 196.497722 
L 583.145261 264.404724 
L 583.349298 250.284471 
L 583.553356 264.426112 
L 583.961452 174.275137 
L 584.165489 202.075413 
L 584.369547 158.764923 
L 584.777643 222.480542 
L 584.981701 222.688906 
L 585.185738 275.360716 
L 585.389796 282.011827 
L 585.593854 258.19161 
L 585.797892 263.754855 
L 586.205987 208.586954 
L 586.410045 201.979069 
L 586.614083 216.992719 
L 586.818141 170.231847 
L 587.022199 223.988325 
L 587.226236 221.115481 
L 587.430294 239.48395 
L 587.634332 246.322457 
L 587.83839 240.75083 
L 588.042448 275.866642 
L 588.246485 191.156851 
L 588.450543 199.420553 
L 588.654581 224.132003 
L 588.858639 268.787959 
L 589.062697 255.887438 
L 589.266734 273.917726 
L 589.470792 246.323946 
L 589.67483 340.509099 
L 589.878888 242.162746 
L 590.082925 251.783257 
L 590.286983 233.051878 
L 590.491049 179.11778 
L 590.695086 191.309055 
L 590.899144 247.202544 
L 591.103182 202.044254 
L 591.30724 203.968644 
L 591.511297 216.94253 
L 591.715335 221.040643 
L 591.919393 250.816525 
L 592.123431 213.321253 
L 592.327489 250.122105 
L 592.531526 238.62939 
L 592.735584 234.428946 
L 593.14368 160.372877 
L 593.347737 178.478726 
L 593.551775 173.890398 
L 593.959891 193.082274 
L 594.163929 228.812093 
L 594.367986 215.162016 
L 594.572024 169.140925 
L 594.776082 220.926089 
L 594.98012 215.703649 
L 595.184177 164.391741 
L 595.388235 143.209993 
L 595.592273 146.650902 
L 595.796331 192.282251 
L 596.000369 174.51115 
L 596.408484 105.276251 
L 596.81658 226.527169 
L 597.224675 142.048596 
L 597.632771 185.08893 
L 597.836829 170.454941 
L 598.040866 109.103547 
L 598.448962 213.097044 
L 598.65302 188.10466 
L 598.857078 188.10466 
L 599.061115 208.208935 
L 599.265173 174.611672 
L 599.469211 201.194538 
L 599.673269 197.96102 
L 599.877306 184.85948 
L 600.081364 112.857057 
L 600.48946 202.39451 
L 600.693518 180.376386 
L 600.897555 131.215088 
L 601.101613 167.08603 
L 601.305651 177.701877 
L 601.509709 125.004948 
L 601.713767 224.863344 
L 601.917804 168.048275 
L 602.121862 180.698938 
L 602.3259 200.744249 
L 602.529958 142.027898 
L 603.142111 187.242218 
L 603.346149 167.337518 
L 603.754244 26.877187 
L 604.16236 150.636504 
L 604.366398 93.892842 
L 604.570456 94.808526 
L 604.774493 82.290339 
L 604.978551 106.968057 
L 604.978551 106.968057 
" clip-path="url(#p0c2459e8e3)" style="fill: none; stroke: #1f77b4; stroke-width: 2; stroke-linecap: square"/>
   </g>
   <g id="patch_3">
    <path d="M 72.342187 414.957187 
L 72.342187 26.877187 
" style="fill: none; stroke: #808080; stroke-width: 2; stroke-linejoin: miter; stroke-linecap: square"/>
   </g>
   <g id="patch_4">
    <path d="M 72.342188 414.957187 
L 630.342188 414.957187 
" style="fill: none; stroke: #808080; stroke-width: 2; stroke-linejoin: miter; stroke-linecap: square"/>
   </g>
   <g id="text_13">
    <!-- Vemund-Tyholt-vinkel -->
    <g style="fill: #808080" transform="translate(255.909844 20.877187) scale(0.18 -0.18)">
     <defs>
      <path id="DejaVuSans-56" d="M 1831 0 
L 50 4666 
L 709 4666 
L 2188 738 
L 3669 4666 
L 4325 4666 
L 2547 0 
L 1831 0 
z
" transform="scale(0.015625)"/>
      <path id="DejaVuSans-75" d="M 544 1381 
L 544 3500 
L 1119 3500 
L 1119 1403 
Q 1119 906 1312 657 
Q 1506 409 1894 409 
Q 2359 409 2629 706 
Q 2900 1003 2900 1516 
L 2900 3500 
L 3475 3500 
L 3475 0 
L 2900 0 
L 2900 538 
Q 2691 219 2414 64 
Q 2138 -91 1772 -91 
Q 1169 -91 856 284 
Q 544 659 544 1381 
z
M 1991 3584 
L 1991 3584 
z
" transform="scale(0.015625)"/>
      <path id="DejaVuSans-6e" d="M 3513 2113 
L 3513 0 
L 2938 0 
L 2938 2094 
Q 2938 2591 2744 2837 
Q 2550 3084 2163 3084 
Q 1697 3084 1428 2787 
Q 1159 2491 1159 1978 
L 1159 0 
L 581 0 
L 581 3500 
L 1159 3500 
L 1159 2956 
Q 1366 3272 1645 3428 
Q 1925 3584 2291 3584 
Q 2894 3584 3203 3211 
Q 3513 2838 3513 2113 
z
" transform="scale(0.015625)"/>
      <path id="DejaVuSans-2d" d="M 313 2009 
L 1997 2009 
L 1997 1497 
L 313 1497 
L 313 2009 
z
" transform="scale(0.015625)"/>
      <path id="DejaVuSans-54" d="M -19 4666 
L 3928 4666 
L 3928 4134 
L 2272 4134 
L 2272 0 
L 1638 0 
L 1638 4134 
L -19 4134 
L -19 4666 
z
" transform="scale(0.015625)"/>
      <path id="DejaVuSans-79" d="M 2059 -325 
Q 1816 -950 1584 -1140 
Q 1353 -1331 966 -1331 
L 506 -1331 
L 506 -850 
L 844 -850 
Q 1081 -850 1212 -737 
Q 1344 -625 1503 -206 
L 1606 56 
L 191 3500 
L 800 3500 
L 1894 763 
L 2988 3500 
L 3597 3500 
L 2059 -325 
z
" transform="scale(0.015625)"/>
      <path id="DejaVuSans-68" d="M 3513 2113 
L 3513 0 
L 2938 0 
L 2938 2094 
Q 2938 2591 2744 2837 
Q 2550 3084 2163 3084 
Q 1697 3084 1428 2787 
Q 1159 2491 1159 1978 
L 1159 0 
L 581 0 
L 581 4863 
L 1159 4863 
L 1159 2956 
Q 1366 3272 1645 3428 
Q 1925 3584 2291 3584 
Q 2894 3584 3203 3211 
Q 3513 2838 3513 2113 
z
" transform="scale(0.015625)"/>
      <path id="DejaVuSans-6f" d="M 1959 3097 
Q 1497 3097 1228 2736 
Q 959 2375 959 1747 
Q 959 1119 1226 758 
Q 1494 397 1959 397 
Q 2419 397 2687 759 
Q 2956 1122 2956 1747 
Q 2956 2369 2687 2733 
Q 2419 3097 1959 3097 
z
M 1959 3584 
Q 2709 3584 3137 3096 
Q 3566 2609 3566 1747 
Q 3566 888 3137 398 
Q 2709 -91 1959 -91 
Q 1206 -91 779 398 
Q 353 888 353 1747 
Q 353 2609 779 3096 
Q 1206 3584 1959 3584 
z
" transform="scale(0.015625)"/>
      <path id="DejaVuSans-6c" d="M 603 4863 
L 1178 4863 
L 1178 0 
L 603 0 
L 603 4863 
z
" transform="scale(0.015625)"/>
      <path id="DejaVuSans-76" d="M 191 3500 
L 800 3500 
L 1894 563 
L 2988 3500 
L 3597 3500 
L 2284 0 
L 1503 0 
L 191 3500 
z
" transform="scale(0.015625)"/>
      <path id="DejaVuSans-6b" d="M 581 4863 
L 1159 4863 
L 1159 1991 
L 2875 3500 
L 3609 3500 
L 1753 1863 
L 3688 0 
L 2938 0 
L 1159 1709 
L 1159 0 
L 581 0 
L 581 4863 
z
" transform="scale(0.015625)"/>
     </defs>
     <use xlink:href="#DejaVuSans-56"/>
     <use xlink:href="#DejaVuSans-65" x="60.658203"/>
     <use xlink:href="#DejaVuSans-6d" x="122.181641"/>
     <use xlink:href="#DejaVuSans-75" x="219.59375"/>
     <use xlink:href="#DejaVuSans-6e" x="282.972656"/>
     <use xlink:href="#DejaVuSans-64" x="346.351562"/>
     <use xlink:href="#DejaVuSans-2d" x="409.828125"/>
     <use xlink:href="#DejaVuSans-54" x="436.787109"/>
     <use xlink:href="#DejaVuSans-79" x="482.246094"/>
     <use xlink:href="#DejaVuSans-68" x="541.425781"/>
     <use xlink:href="#DejaVuSans-6f" x="604.804688"/>
     <use xlink:href="#DejaVuSans-6c" x="665.986328"/>
     <use xlink:href="#DejaVuSans-74" x="693.769531"/>
     <use xlink:href="#DejaVuSans-2d" x="732.978516"/>
     <use xlink:href="#DejaVuSans-76" x="766.4375"/>
     <use xlink:href="#DejaVuSans-69" x="825.617188"/>
     <use xlink:href="#DejaVuSans-6e" x="853.400391"/>
     <use xlink:href="#DejaVuSans-6b" x="916.779297"/>
     <use xlink:href="#DejaVuSans-65" x="971.064453"/>
     <use xlink:href="#DejaVuSans-6c" x="1032.587891"/>
    </g>
   </g>
   <g id="legend_1">
    <g id="patch_5">
     <path d="M 82.842187 60.894375 
L 289.896094 60.894375 
Q 292.896094 60.894375 292.896094 57.894375 
L 292.896094 37.377187 
Q 292.896094 34.377187 289.896094 34.377187 
L 82.842187 34.377187 
Q 79.842187 34.377187 79.842187 37.377187 
L 79.842187 57.894375 
Q 79.842187 60.894375 82.842187 60.894375 
z
" style="fill: #ffffff; opacity: 0.8; stroke: #cccccc; stroke-linejoin: miter"/>
    </g>
    <g id="line2d_22">
     <path d="M 85.842187 46.524844 
L 100.842187 46.524844 
L 115.842187 46.524844 
" style="fill: none; stroke: #1f77b4; stroke-width: 2; stroke-linecap: square"/>
    </g>
    <g id="text_14">
     <!-- Vemund-Tyholt-vinkel -->
     <g style="fill: #808080" transform="translate(127.842187 51.774844) scale(0.15 -0.15)">
      <use xlink:href="#DejaVuSans-56"/>
      <use xlink:href="#DejaVuSans-65" x="60.658203"/>
      <use xlink:href="#DejaVuSans-6d" x="122.181641"/>
      <use xlink:href="#DejaVuSans-75" x="219.59375"/>
      <use xlink:href="#DejaVuSans-6e" x="282.972656"/>
      <use xlink:href="#DejaVuSans-64" x="346.351562"/>
      <use xlink:href="#DejaVuSans-2d" x="409.828125"/>
      <use xlink:href="#DejaVuSans-54" x="436.787109"/>
      <use xlink:href="#DejaVuSans-79" x="482.246094"/>
      <use xlink:href="#DejaVuSans-68" x="541.425781"/>
      <use xlink:href="#DejaVuSans-6f" x="604.804688"/>
      <use xlink:href="#DejaVuSans-6c" x="665.986328"/>
      <use xlink:href="#DejaVuSans-74" x="693.769531"/>
      <use xlink:href="#DejaVuSans-2d" x="732.978516"/>
      <use xlink:href="#DejaVuSans-76" x="766.4375"/>
      <use xlink:href="#DejaVuSans-69" x="825.617188"/>
      <use xlink:href="#DejaVuSans-6e" x="853.400391"/>
      <use xlink:href="#DejaVuSans-6b" x="916.779297"/>
      <use xlink:href="#DejaVuSans-65" x="971.064453"/>
      <use xlink:href="#DejaVuSans-6c" x="1032.587891"/>
     </g>
    </g>
   </g>
  </g>
 </g>
 <defs>
  <clipPath id="p0c2459e8e3">
   <rect x="72.342187" y="26.877187" width="558" height="388.08"/>
  </clipPath>
 </defs>
</svg>
