<?xml version="1.0" encoding="utf-8" standalone="no"?>
<!DOCTYPE svg PUBLIC "-//W3C//DTD SVG 1.1//EN"
  "http://www.w3.org/Graphics/SVG/1.1/DTD/svg11.dtd">
<svg xmlns:xlink="http://www.w3.org/1999/xlink" width="627.998437pt" height="458.691562pt" viewBox="0 0 627.998437 458.691562" xmlns="http://www.w3.org/2000/svg" version="1.1">
 <metadata>
  <rdf:RDF xmlns:dc="http://purl.org/dc/elements/1.1/" xmlns:cc="http://creativecommons.org/ns#" xmlns:rdf="http://www.w3.org/1999/02/22-rdf-syntax-ns#">
   <cc:Work>
    <dc:type rdf:resource="http://purl.org/dc/dcmitype/StillImage"/>
    <dc:date>2023-03-30T16:06:04.005538</dc:date>
    <dc:format>image/svg+xml</dc:format>
    <dc:creator>
     <cc:Agent>
      <dc:title>Matplotlib v3.7.0, https://matplotlib.org/</dc:title>
     </cc:Agent>
    </dc:creator>
   </cc:Work>
  </rdf:RDF>
 </metadata>
 <defs>
  <style type="text/css">*{stroke-linejoin: round; stroke-linecap: butt}</style>
 </defs>
 <g id="figure_1">
  <g id="patch_1">
   <path d="M 0 458.691562 
L 627.998437 458.691562 
L 627.998437 0 
L 0 0 
L 0 458.691562 
z
" style="fill: none"/>
  </g>
  <g id="axes_1">
   <g id="patch_2">
    <path d="M 62.798438 414.957187 
L 620.798437 414.957187 
L 620.798437 26.877187 
L 62.798438 26.877187 
L 62.798438 414.957187 
z
" style="fill: none"/>
   </g>
   <g id="matplotlib.axis_1">
    <g id="xtick_1">
     <g id="line2d_1">
      <path d="M 87.903381 414.957187 
L 87.903381 26.877187 
" clip-path="url(#p649ff3600f)" style="fill: none; stroke: #808080; stroke-width: 0.8; stroke-linecap: square"/>
     </g>
     <g id="line2d_2">
      <defs>
       <path id="m6be2e71cbb" d="M 0 0 
L 0 -5 
" style="stroke: #808080; stroke-width: 0.8"/>
      </defs>
      <g>
       <use xlink:href="#m6be2e71cbb" x="87.903381" y="414.957187" style="fill: #808080; stroke: #808080; stroke-width: 0.8"/>
      </g>
     </g>
     <g id="text_1">
      <!-- 30 -->
      <g style="fill: #808080" transform="translate(78.359631 429.854844) scale(0.15 -0.15)">
       <defs>
        <path id="DejaVuSans-33" d="M 2597 2516 
Q 3050 2419 3304 2112 
Q 3559 1806 3559 1356 
Q 3559 666 3084 287 
Q 2609 -91 1734 -91 
Q 1441 -91 1130 -33 
Q 819 25 488 141 
L 488 750 
Q 750 597 1062 519 
Q 1375 441 1716 441 
Q 2309 441 2620 675 
Q 2931 909 2931 1356 
Q 2931 1769 2642 2001 
Q 2353 2234 1838 2234 
L 1294 2234 
L 1294 2753 
L 1863 2753 
Q 2328 2753 2575 2939 
Q 2822 3125 2822 3475 
Q 2822 3834 2567 4026 
Q 2313 4219 1838 4219 
Q 1578 4219 1281 4162 
Q 984 4106 628 3988 
L 628 4550 
Q 988 4650 1302 4700 
Q 1616 4750 1894 4750 
Q 2613 4750 3031 4423 
Q 3450 4097 3450 3541 
Q 3450 3153 3228 2886 
Q 3006 2619 2597 2516 
z
" transform="scale(0.015625)"/>
        <path id="DejaVuSans-30" d="M 2034 4250 
Q 1547 4250 1301 3770 
Q 1056 3291 1056 2328 
Q 1056 1369 1301 889 
Q 1547 409 2034 409 
Q 2525 409 2770 889 
Q 3016 1369 3016 2328 
Q 3016 3291 2770 3770 
Q 2525 4250 2034 4250 
z
M 2034 4750 
Q 2819 4750 3233 4129 
Q 3647 3509 3647 2328 
Q 3647 1150 3233 529 
Q 2819 -91 2034 -91 
Q 1250 -91 836 529 
Q 422 1150 422 2328 
Q 422 3509 836 4129 
Q 1250 4750 2034 4750 
z
" transform="scale(0.015625)"/>
       </defs>
       <use xlink:href="#DejaVuSans-33"/>
       <use xlink:href="#DejaVuSans-30" x="63.623047"/>
      </g>
     </g>
    </g>
    <g id="xtick_2">
     <g id="line2d_3">
      <path d="M 189.415083 414.957187 
L 189.415083 26.877187 
" clip-path="url(#p649ff3600f)" style="fill: none; stroke: #808080; stroke-width: 0.8; stroke-linecap: square"/>
     </g>
     <g id="line2d_4">
      <g>
       <use xlink:href="#m6be2e71cbb" x="189.415083" y="414.957187" style="fill: #808080; stroke: #808080; stroke-width: 0.8"/>
      </g>
     </g>
     <g id="text_2">
      <!-- 35 -->
      <g style="fill: #808080" transform="translate(179.871333 429.854844) scale(0.15 -0.15)">
       <defs>
        <path id="DejaVuSans-35" d="M 691 4666 
L 3169 4666 
L 3169 4134 
L 1269 4134 
L 1269 2991 
Q 1406 3038 1543 3061 
Q 1681 3084 1819 3084 
Q 2600 3084 3056 2656 
Q 3513 2228 3513 1497 
Q 3513 744 3044 326 
Q 2575 -91 1722 -91 
Q 1428 -91 1123 -41 
Q 819 9 494 109 
L 494 744 
Q 775 591 1075 516 
Q 1375 441 1709 441 
Q 2250 441 2565 725 
Q 2881 1009 2881 1497 
Q 2881 1984 2565 2268 
Q 2250 2553 1709 2553 
Q 1456 2553 1204 2497 
Q 953 2441 691 2322 
L 691 4666 
z
" transform="scale(0.015625)"/>
       </defs>
       <use xlink:href="#DejaVuSans-33"/>
       <use xlink:href="#DejaVuSans-35" x="63.623047"/>
      </g>
     </g>
    </g>
    <g id="xtick_3">
     <g id="line2d_5">
      <path d="M 290.926786 414.957187 
L 290.926786 26.877187 
" clip-path="url(#p649ff3600f)" style="fill: none; stroke: #808080; stroke-width: 0.8; stroke-linecap: square"/>
     </g>
     <g id="line2d_6">
      <g>
       <use xlink:href="#m6be2e71cbb" x="290.926786" y="414.957187" style="fill: #808080; stroke: #808080; stroke-width: 0.8"/>
      </g>
     </g>
     <g id="text_3">
      <!-- 40 -->
      <g style="fill: #808080" transform="translate(281.383036 429.854844) scale(0.15 -0.15)">
       <defs>
        <path id="DejaVuSans-34" d="M 2419 4116 
L 825 1625 
L 2419 1625 
L 2419 4116 
z
M 2253 4666 
L 3047 4666 
L 3047 1625 
L 3713 1625 
L 3713 1100 
L 3047 1100 
L 3047 0 
L 2419 0 
L 2419 1100 
L 313 1100 
L 313 1709 
L 2253 4666 
z
" transform="scale(0.015625)"/>
       </defs>
       <use xlink:href="#DejaVuSans-34"/>
       <use xlink:href="#DejaVuSans-30" x="63.623047"/>
      </g>
     </g>
    </g>
    <g id="xtick_4">
     <g id="line2d_7">
      <path d="M 392.438489 414.957187 
L 392.438489 26.877187 
" clip-path="url(#p649ff3600f)" style="fill: none; stroke: #808080; stroke-width: 0.8; stroke-linecap: square"/>
     </g>
     <g id="line2d_8">
      <g>
       <use xlink:href="#m6be2e71cbb" x="392.438489" y="414.957187" style="fill: #808080; stroke: #808080; stroke-width: 0.8"/>
      </g>
     </g>
     <g id="text_4">
      <!-- 45 -->
      <g style="fill: #808080" transform="translate(382.894739 429.854844) scale(0.15 -0.15)">
       <use xlink:href="#DejaVuSans-34"/>
       <use xlink:href="#DejaVuSans-35" x="63.623047"/>
      </g>
     </g>
    </g>
    <g id="xtick_5">
     <g id="line2d_9">
      <path d="M 493.950191 414.957187 
L 493.950191 26.877187 
" clip-path="url(#p649ff3600f)" style="fill: none; stroke: #808080; stroke-width: 0.8; stroke-linecap: square"/>
     </g>
     <g id="line2d_10">
      <g>
       <use xlink:href="#m6be2e71cbb" x="493.950191" y="414.957187" style="fill: #808080; stroke: #808080; stroke-width: 0.8"/>
      </g>
     </g>
     <g id="text_5">
      <!-- 50 -->
      <g style="fill: #808080" transform="translate(484.406441 429.854844) scale(0.15 -0.15)">
       <use xlink:href="#DejaVuSans-35"/>
       <use xlink:href="#DejaVuSans-30" x="63.623047"/>
      </g>
     </g>
    </g>
    <g id="xtick_6">
     <g id="line2d_11">
      <path d="M 595.461894 414.957187 
L 595.461894 26.877187 
" clip-path="url(#p649ff3600f)" style="fill: none; stroke: #808080; stroke-width: 0.8; stroke-linecap: square"/>
     </g>
     <g id="line2d_12">
      <g>
       <use xlink:href="#m6be2e71cbb" x="595.461894" y="414.957187" style="fill: #808080; stroke: #808080; stroke-width: 0.8"/>
      </g>
     </g>
     <g id="text_6">
      <!-- 55 -->
      <g style="fill: #808080" transform="translate(585.918144 429.854844) scale(0.15 -0.15)">
       <use xlink:href="#DejaVuSans-35"/>
       <use xlink:href="#DejaVuSans-35" x="63.623047"/>
      </g>
     </g>
    </g>
    <g id="text_7">
     <!-- time [s] -->
     <g style="fill: #808080" transform="translate(312.711328 448.372031) scale(0.15 -0.15)">
      <defs>
       <path id="DejaVuSans-74" d="M 1172 4494 
L 1172 3500 
L 2356 3500 
L 2356 3053 
L 1172 3053 
L 1172 1153 
Q 1172 725 1289 603 
Q 1406 481 1766 481 
L 2356 481 
L 2356 0 
L 1766 0 
Q 1100 0 847 248 
Q 594 497 594 1153 
L 594 3053 
L 172 3053 
L 172 3500 
L 594 3500 
L 594 4494 
L 1172 4494 
z
" transform="scale(0.015625)"/>
       <path id="DejaVuSans-69" d="M 603 3500 
L 1178 3500 
L 1178 0 
L 603 0 
L 603 3500 
z
M 603 4863 
L 1178 4863 
L 1178 4134 
L 603 4134 
L 603 4863 
z
" transform="scale(0.015625)"/>
       <path id="DejaVuSans-6d" d="M 3328 2828 
Q 3544 3216 3844 3400 
Q 4144 3584 4550 3584 
Q 5097 3584 5394 3201 
Q 5691 2819 5691 2113 
L 5691 0 
L 5113 0 
L 5113 2094 
Q 5113 2597 4934 2840 
Q 4756 3084 4391 3084 
Q 3944 3084 3684 2787 
Q 3425 2491 3425 1978 
L 3425 0 
L 2847 0 
L 2847 2094 
Q 2847 2600 2669 2842 
Q 2491 3084 2119 3084 
Q 1678 3084 1418 2786 
Q 1159 2488 1159 1978 
L 1159 0 
L 581 0 
L 581 3500 
L 1159 3500 
L 1159 2956 
Q 1356 3278 1631 3431 
Q 1906 3584 2284 3584 
Q 2666 3584 2933 3390 
Q 3200 3197 3328 2828 
z
" transform="scale(0.015625)"/>
       <path id="DejaVuSans-65" d="M 3597 1894 
L 3597 1613 
L 953 1613 
Q 991 1019 1311 708 
Q 1631 397 2203 397 
Q 2534 397 2845 478 
Q 3156 559 3463 722 
L 3463 178 
Q 3153 47 2828 -22 
Q 2503 -91 2169 -91 
Q 1331 -91 842 396 
Q 353 884 353 1716 
Q 353 2575 817 3079 
Q 1281 3584 2069 3584 
Q 2775 3584 3186 3129 
Q 3597 2675 3597 1894 
z
M 3022 2063 
Q 3016 2534 2758 2815 
Q 2500 3097 2075 3097 
Q 1594 3097 1305 2825 
Q 1016 2553 972 2059 
L 3022 2063 
z
" transform="scale(0.015625)"/>
       <path id="DejaVuSans-20" transform="scale(0.015625)"/>
       <path id="DejaVuSans-5b" d="M 550 4863 
L 1875 4863 
L 1875 4416 
L 1125 4416 
L 1125 -397 
L 1875 -397 
L 1875 -844 
L 550 -844 
L 550 4863 
z
" transform="scale(0.015625)"/>
       <path id="DejaVuSans-73" d="M 2834 3397 
L 2834 2853 
Q 2591 2978 2328 3040 
Q 2066 3103 1784 3103 
Q 1356 3103 1142 2972 
Q 928 2841 928 2578 
Q 928 2378 1081 2264 
Q 1234 2150 1697 2047 
L 1894 2003 
Q 2506 1872 2764 1633 
Q 3022 1394 3022 966 
Q 3022 478 2636 193 
Q 2250 -91 1575 -91 
Q 1294 -91 989 -36 
Q 684 19 347 128 
L 347 722 
Q 666 556 975 473 
Q 1284 391 1588 391 
Q 1994 391 2212 530 
Q 2431 669 2431 922 
Q 2431 1156 2273 1281 
Q 2116 1406 1581 1522 
L 1381 1569 
Q 847 1681 609 1914 
Q 372 2147 372 2553 
Q 372 3047 722 3315 
Q 1072 3584 1716 3584 
Q 2034 3584 2315 3537 
Q 2597 3491 2834 3397 
z
" transform="scale(0.015625)"/>
       <path id="DejaVuSans-5d" d="M 1947 4863 
L 1947 -844 
L 622 -844 
L 622 -397 
L 1369 -397 
L 1369 4416 
L 622 4416 
L 622 4863 
L 1947 4863 
z
" transform="scale(0.015625)"/>
      </defs>
      <use xlink:href="#DejaVuSans-74"/>
      <use xlink:href="#DejaVuSans-69" x="39.208984"/>
      <use xlink:href="#DejaVuSans-6d" x="66.992188"/>
      <use xlink:href="#DejaVuSans-65" x="164.404297"/>
      <use xlink:href="#DejaVuSans-20" x="225.927734"/>
      <use xlink:href="#DejaVuSans-5b" x="257.714844"/>
      <use xlink:href="#DejaVuSans-73" x="296.728516"/>
      <use xlink:href="#DejaVuSans-5d" x="348.828125"/>
     </g>
    </g>
   </g>
   <g id="matplotlib.axis_2">
    <g id="ytick_1">
     <g id="line2d_13">
      <path d="M 62.798438 411.911445 
L 620.798437 411.911445 
" clip-path="url(#p649ff3600f)" style="fill: none; stroke: #808080; stroke-width: 0.8; stroke-linecap: square"/>
     </g>
     <g id="line2d_14">
      <defs>
       <path id="m8cfbc14db9" d="M 0 0 
L 5 0 
" style="stroke: #808080; stroke-width: 0.8"/>
      </defs>
      <g>
       <use xlink:href="#m8cfbc14db9" x="62.798438" y="411.911445" style="fill: #808080; stroke: #808080; stroke-width: 0.8"/>
      </g>
     </g>
     <g id="text_8">
      <!-- 64.4 -->
      <g style="fill: #808080" transform="translate(25.9 417.610273) scale(0.15 -0.15)">
       <defs>
        <path id="DejaVuSans-36" d="M 2113 2584 
Q 1688 2584 1439 2293 
Q 1191 2003 1191 1497 
Q 1191 994 1439 701 
Q 1688 409 2113 409 
Q 2538 409 2786 701 
Q 3034 994 3034 1497 
Q 3034 2003 2786 2293 
Q 2538 2584 2113 2584 
z
M 3366 4563 
L 3366 3988 
Q 3128 4100 2886 4159 
Q 2644 4219 2406 4219 
Q 1781 4219 1451 3797 
Q 1122 3375 1075 2522 
Q 1259 2794 1537 2939 
Q 1816 3084 2150 3084 
Q 2853 3084 3261 2657 
Q 3669 2231 3669 1497 
Q 3669 778 3244 343 
Q 2819 -91 2113 -91 
Q 1303 -91 875 529 
Q 447 1150 447 2328 
Q 447 3434 972 4092 
Q 1497 4750 2381 4750 
Q 2619 4750 2861 4703 
Q 3103 4656 3366 4563 
z
" transform="scale(0.015625)"/>
        <path id="DejaVuSans-2e" d="M 684 794 
L 1344 794 
L 1344 0 
L 684 0 
L 684 794 
z
" transform="scale(0.015625)"/>
       </defs>
       <use xlink:href="#DejaVuSans-36"/>
       <use xlink:href="#DejaVuSans-34" x="63.623047"/>
       <use xlink:href="#DejaVuSans-2e" x="127.246094"/>
       <use xlink:href="#DejaVuSans-34" x="159.033203"/>
      </g>
     </g>
    </g>
    <g id="ytick_2">
     <g id="line2d_15">
      <path d="M 62.798438 328.969209 
L 620.798437 328.969209 
" clip-path="url(#p649ff3600f)" style="fill: none; stroke: #808080; stroke-width: 0.8; stroke-linecap: square"/>
     </g>
     <g id="line2d_16">
      <g>
       <use xlink:href="#m8cfbc14db9" x="62.798438" y="328.969209" style="fill: #808080; stroke: #808080; stroke-width: 0.8"/>
      </g>
     </g>
     <g id="text_9">
      <!-- 64.6 -->
      <g style="fill: #808080" transform="translate(25.9 334.668037) scale(0.15 -0.15)">
       <use xlink:href="#DejaVuSans-36"/>
       <use xlink:href="#DejaVuSans-34" x="63.623047"/>
       <use xlink:href="#DejaVuSans-2e" x="127.246094"/>
       <use xlink:href="#DejaVuSans-36" x="159.033203"/>
      </g>
     </g>
    </g>
    <g id="ytick_3">
     <g id="line2d_17">
      <path d="M 62.798438 246.026972 
L 620.798437 246.026972 
" clip-path="url(#p649ff3600f)" style="fill: none; stroke: #808080; stroke-width: 0.8; stroke-linecap: square"/>
     </g>
     <g id="line2d_18">
      <g>
       <use xlink:href="#m8cfbc14db9" x="62.798438" y="246.026972" style="fill: #808080; stroke: #808080; stroke-width: 0.8"/>
      </g>
     </g>
     <g id="text_10">
      <!-- 64.8 -->
      <g style="fill: #808080" transform="translate(25.9 251.725801) scale(0.15 -0.15)">
       <defs>
        <path id="DejaVuSans-38" d="M 2034 2216 
Q 1584 2216 1326 1975 
Q 1069 1734 1069 1313 
Q 1069 891 1326 650 
Q 1584 409 2034 409 
Q 2484 409 2743 651 
Q 3003 894 3003 1313 
Q 3003 1734 2745 1975 
Q 2488 2216 2034 2216 
z
M 1403 2484 
Q 997 2584 770 2862 
Q 544 3141 544 3541 
Q 544 4100 942 4425 
Q 1341 4750 2034 4750 
Q 2731 4750 3128 4425 
Q 3525 4100 3525 3541 
Q 3525 3141 3298 2862 
Q 3072 2584 2669 2484 
Q 3125 2378 3379 2068 
Q 3634 1759 3634 1313 
Q 3634 634 3220 271 
Q 2806 -91 2034 -91 
Q 1263 -91 848 271 
Q 434 634 434 1313 
Q 434 1759 690 2068 
Q 947 2378 1403 2484 
z
M 1172 3481 
Q 1172 3119 1398 2916 
Q 1625 2713 2034 2713 
Q 2441 2713 2670 2916 
Q 2900 3119 2900 3481 
Q 2900 3844 2670 4047 
Q 2441 4250 2034 4250 
Q 1625 4250 1398 4047 
Q 1172 3844 1172 3481 
z
" transform="scale(0.015625)"/>
       </defs>
       <use xlink:href="#DejaVuSans-36"/>
       <use xlink:href="#DejaVuSans-34" x="63.623047"/>
       <use xlink:href="#DejaVuSans-2e" x="127.246094"/>
       <use xlink:href="#DejaVuSans-38" x="159.033203"/>
      </g>
     </g>
    </g>
    <g id="ytick_4">
     <g id="line2d_19">
      <path d="M 62.798438 163.084736 
L 620.798437 163.084736 
" clip-path="url(#p649ff3600f)" style="fill: none; stroke: #808080; stroke-width: 0.8; stroke-linecap: square"/>
     </g>
     <g id="line2d_20">
      <g>
       <use xlink:href="#m8cfbc14db9" x="62.798438" y="163.084736" style="fill: #808080; stroke: #808080; stroke-width: 0.8"/>
      </g>
     </g>
     <g id="text_11">
      <!-- 65.0 -->
      <g style="fill: #808080" transform="translate(25.9 168.783564) scale(0.15 -0.15)">
       <use xlink:href="#DejaVuSans-36"/>
       <use xlink:href="#DejaVuSans-35" x="63.623047"/>
       <use xlink:href="#DejaVuSans-2e" x="127.246094"/>
       <use xlink:href="#DejaVuSans-30" x="159.033203"/>
      </g>
     </g>
    </g>
    <g id="ytick_5">
     <g id="line2d_21">
      <path d="M 62.798438 80.1425 
L 620.798437 80.1425 
" clip-path="url(#p649ff3600f)" style="fill: none; stroke: #808080; stroke-width: 0.8; stroke-linecap: square"/>
     </g>
     <g id="line2d_22">
      <g>
       <use xlink:href="#m8cfbc14db9" x="62.798438" y="80.1425" style="fill: #808080; stroke: #808080; stroke-width: 0.8"/>
      </g>
     </g>
     <g id="text_12">
      <!-- 65.2 -->
      <g style="fill: #808080" transform="translate(25.9 85.841328) scale(0.15 -0.15)">
       <defs>
        <path id="DejaVuSans-32" d="M 1228 531 
L 3431 531 
L 3431 0 
L 469 0 
L 469 531 
Q 828 903 1448 1529 
Q 2069 2156 2228 2338 
Q 2531 2678 2651 2914 
Q 2772 3150 2772 3378 
Q 2772 3750 2511 3984 
Q 2250 4219 1831 4219 
Q 1534 4219 1204 4116 
Q 875 4013 500 3803 
L 500 4441 
Q 881 4594 1212 4672 
Q 1544 4750 1819 4750 
Q 2544 4750 2975 4387 
Q 3406 4025 3406 3419 
Q 3406 3131 3298 2873 
Q 3191 2616 2906 2266 
Q 2828 2175 2409 1742 
Q 1991 1309 1228 531 
z
" transform="scale(0.015625)"/>
       </defs>
       <use xlink:href="#DejaVuSans-36"/>
       <use xlink:href="#DejaVuSans-35" x="63.623047"/>
       <use xlink:href="#DejaVuSans-2e" x="127.246094"/>
       <use xlink:href="#DejaVuSans-32" x="159.033203"/>
      </g>
     </g>
    </g>
    <g id="text_13">
     <!-- $\theta$ [deg] -->
     <g style="fill: #808080" transform="translate(18.75 247.917187) rotate(-90) scale(0.15 -0.15)">
      <defs>
       <path id="DejaVuSans-Oblique-3b8" d="M 2913 2219 
L 925 2219 
Q 791 1284 928 888 
Q 1100 400 1566 400 
Q 2034 400 2391 891 
Q 2703 1322 2913 2219 
z
M 3009 2750 
Q 3094 3638 2984 3950 
Q 2813 4444 2353 4444 
Q 1875 4444 1525 3956 
Q 1250 3563 1034 2750 
L 3009 2750 
z
M 2444 4913 
Q 3194 4913 3494 4250 
Q 3794 3591 3566 2422 
Q 3341 1256 2781 594 
Q 2225 -72 1475 -72 
Q 722 -72 425 594 
Q 128 1256 353 2422 
Q 581 3591 1134 4250 
Q 1691 4913 2444 4913 
z
" transform="scale(0.015625)"/>
       <path id="DejaVuSans-64" d="M 2906 2969 
L 2906 4863 
L 3481 4863 
L 3481 0 
L 2906 0 
L 2906 525 
Q 2725 213 2448 61 
Q 2172 -91 1784 -91 
Q 1150 -91 751 415 
Q 353 922 353 1747 
Q 353 2572 751 3078 
Q 1150 3584 1784 3584 
Q 2172 3584 2448 3432 
Q 2725 3281 2906 2969 
z
M 947 1747 
Q 947 1113 1208 752 
Q 1469 391 1925 391 
Q 2381 391 2643 752 
Q 2906 1113 2906 1747 
Q 2906 2381 2643 2742 
Q 2381 3103 1925 3103 
Q 1469 3103 1208 2742 
Q 947 2381 947 1747 
z
" transform="scale(0.015625)"/>
       <path id="DejaVuSans-67" d="M 2906 1791 
Q 2906 2416 2648 2759 
Q 2391 3103 1925 3103 
Q 1463 3103 1205 2759 
Q 947 2416 947 1791 
Q 947 1169 1205 825 
Q 1463 481 1925 481 
Q 2391 481 2648 825 
Q 2906 1169 2906 1791 
z
M 3481 434 
Q 3481 -459 3084 -895 
Q 2688 -1331 1869 -1331 
Q 1566 -1331 1297 -1286 
Q 1028 -1241 775 -1147 
L 775 -588 
Q 1028 -725 1275 -790 
Q 1522 -856 1778 -856 
Q 2344 -856 2625 -561 
Q 2906 -266 2906 331 
L 2906 616 
Q 2728 306 2450 153 
Q 2172 0 1784 0 
Q 1141 0 747 490 
Q 353 981 353 1791 
Q 353 2603 747 3093 
Q 1141 3584 1784 3584 
Q 2172 3584 2450 3431 
Q 2728 3278 2906 2969 
L 2906 3500 
L 3481 3500 
L 3481 434 
z
" transform="scale(0.015625)"/>
      </defs>
      <use xlink:href="#DejaVuSans-Oblique-3b8" transform="translate(0 0.234375)"/>
      <use xlink:href="#DejaVuSans-20" transform="translate(61.181641 0.234375)"/>
      <use xlink:href="#DejaVuSans-5b" transform="translate(92.96875 0.234375)"/>
      <use xlink:href="#DejaVuSans-64" transform="translate(131.982422 0.234375)"/>
      <use xlink:href="#DejaVuSans-65" transform="translate(195.458984 0.234375)"/>
      <use xlink:href="#DejaVuSans-67" transform="translate(256.982422 0.234375)"/>
      <use xlink:href="#DejaVuSans-5d" transform="translate(320.458984 0.234375)"/>
     </g>
    </g>
   </g>
   <g id="line2d_23">
    <path d="M 88.162074 158.994396 
L 88.570354 117.892934 
L 88.774474 108.881459 
L 89.182754 228.854538 
L 89.591034 158.614264 
L 89.795154 172.334133 
L 89.999294 172.691078 
L 90.203434 130.408387 
L 90.407574 133.790322 
L 90.611714 135.249941 
L 90.815854 194.874723 
L 91.019973 213.137849 
L 91.224113 204.779445 
L 91.428254 144.290664 
L 91.632394 180.668709 
L 91.836534 137.920882 
L 92.040653 157.109194 
L 92.244793 129.500107 
L 92.448933 144.192201 
L 92.653073 205.396046 
L 93.061353 115.386539 
L 93.877892 170.832738 
L 94.286152 104.709626 
L 94.490292 117.569517 
L 95.102712 219.970687 
L 95.306852 182.411106 
L 95.510972 171.714034 
L 95.715112 184.499421 
L 95.919252 72.838136 
L 96.123392 118.723191 
L 96.327532 208.241791 
L 96.531652 202.559211 
L 96.939932 162.742527 
L 97.144072 209.864874 
L 97.348212 209.402739 
L 97.552332 278.510545 
L 97.756472 209.425746 
L 97.960612 215.451034 
L 98.164752 184.44966 
L 98.368892 236.205823 
L 98.573032 226.513081 
L 98.777152 171.151377 
L 98.981292 177.665196 
L 99.185432 153.540026 
L 99.389572 239.426805 
L 99.593712 224.781313 
L 99.797832 136.81215 
L 100.001972 132.483687 
L 100.206112 112.118743 
L 100.614392 187.134698 
L 100.818512 149.924975 
L 101.022652 158.045465 
L 101.226792 150.484458 
L 101.430932 114.171042 
L 101.635072 164.846708 
L 101.839191 127.268348 
L 102.043331 172.697602 
L 102.247471 112.302548 
L 102.451612 185.050331 
L 102.655752 203.734952 
L 102.859892 233.492073 
L 103.064011 242.176274 
L 103.472291 223.020436 
L 103.676431 223.039316 
L 103.880571 202.66916 
L 104.084691 165.198539 
L 104.288831 186.701359 
L 104.492971 191.780738 
L 104.697111 244.830424 
L 104.901251 233.658493 
L 105.105371 290.50524 
L 105.309511 304.175686 
L 105.513651 304.175686 
L 105.717791 240.985507 
L 105.921931 258.910845 
L 106.126071 258.910845 
L 106.330191 159.572499 
L 106.534331 176.392015 
L 106.738471 235.02298 
L 106.942611 251.696284 
L 107.146751 190.669222 
L 107.350871 207.399816 
L 107.555011 242.337122 
L 107.759151 224.246569 
L 107.963291 223.602676 
L 108.167431 228.124858 
L 108.371551 157.666305 
L 108.779831 188.87948 
L 108.983971 229.621112 
L 109.188111 190.81684 
L 109.392231 228.176764 
L 109.596371 140.120459 
L 109.800511 162.392348 
L 110.004651 149.99432 
L 110.208791 205.243081 
L 110.41291 204.116125 
L 110.61705 200.773543 
L 110.82119 219.448636 
L 111.025331 178.684582 
L 111.229471 237.004829 
L 111.433611 146.412043 
L 111.84187 201.464698 
L 112.04601 197.345247 
L 112.45429 230.150824 
L 112.65841 240.739193 
L 113.0667 187.397006 
L 113.27084 182.43427 
L 113.47498 156.246679 
L 113.6791 104.622239 
L 113.88324 152.325793 
L 114.08738 113.617933 
L 114.29152 112.384858 
L 114.69978 228.822646 
L 114.90392 210.538185 
L 115.10806 208.341607 
L 115.3122 210.267389 
L 115.51634 201.833637 
L 115.72046 159.936561 
L 115.9246 220.678874 
L 116.12874 187.17617 
L 116.33288 185.847065 
L 116.53702 216.391141 
L 116.74114 172.991687 
L 116.94528 154.941385 
L 117.14942 146.858148 
L 117.35356 178.3818 
L 117.5577 156.031698 
L 117.76182 152.781366 
L 117.96596 153.500187 
L 118.1701 102.705985 
L 118.37424 194.201794 
L 118.57838 147.498183 
L 118.7825 186.891764 
L 118.98664 194.128374 
L 119.19078 166.561828 
L 119.39492 215.225675 
L 119.8032 187.431103 
L 120.211459 296.177765 
L 120.61974 271.244116 
L 121.027999 326.617581 
L 121.232139 284.283627 
L 121.436279 292.645792 
L 121.640419 235.669257 
L 122.048679 304.240339 
L 122.252819 271.716678 
L 122.456959 214.180916 
L 122.661099 223.808157 
L 122.865239 242.832706 
L 123.069359 248.299947 
L 123.273499 244.141514 
L 123.681779 177.129031 
L 123.885919 129.0021 
L 124.090039 197.714003 
L 124.294179 156.461717 
L 124.498319 177.507781 
L 124.702459 180.946418 
L 124.906599 254.311584 
L 125.110719 237.010581 
L 125.314859 197.63039 
L 125.518999 245.460409 
L 125.723139 177.002837 
L 125.927279 240.918208 
L 126.131399 202.615984 
L 126.335539 207.772021 
L 126.539679 152.957932 
L 126.743819 158.518911 
L 126.947959 172.401119 
L 127.152079 152.669829 
L 127.356219 179.978306 
L 127.560359 175.083806 
L 127.764499 235.398308 
L 127.968639 224.424931 
L 128.172758 143.914717 
L 128.376898 149.386415 
L 128.581038 238.94001 
L 128.785178 253.949765 
L 128.989319 221.367228 
L 129.193438 288.171971 
L 129.397578 272.501899 
L 129.601718 196.345232 
L 129.805858 198.549841 
L 130.009998 215.061036 
L 130.214118 215.061036 
L 130.418258 221.413217 
L 130.622398 221.317177 
L 130.826538 194.309234 
L 131.234798 219.539031 
L 131.438938 197.952982 
L 131.643078 162.24441 
L 131.847218 187.728625 
L 132.051338 171.339172 
L 132.255478 258.937224 
L 132.459618 201.647007 
L 132.663758 227.581864 
L 132.867898 210.521836 
L 133.480288 315.025511 
L 133.684428 254.67858 
L 133.888568 296.133567 
L 134.092687 198.592252 
L 134.296827 263.461771 
L 134.500967 248.080404 
L 134.705107 279.371484 
L 134.909248 276.570396 
L 135.113367 279.192512 
L 135.317507 223.699673 
L 135.521647 259.169487 
L 135.725787 249.333186 
L 135.929927 276.13114 
L 136.134047 271.209855 
L 136.338187 170.805126 
L 136.542327 174.494615 
L 136.746467 201.049213 
L 136.950607 267.121139 
L 137.154727 246.368973 
L 137.358867 212.303577 
L 137.563007 141.412893 
L 137.971287 218.025154 
L 138.175407 172.411847 
L 138.379547 179.319207 
L 138.583687 294.027633 
L 138.787827 249.898717 
L 138.991967 334.06775 
L 139.196087 263.453052 
L 139.400227 251.576127 
L 139.604367 257.142031 
L 139.808507 242.970793 
L 140.012647 205.917374 
L 140.216767 233.069882 
L 140.420907 196.40851 
L 140.625047 220.065326 
L 140.829187 208.83387 
L 141.033306 264.748474 
L 141.237446 219.041868 
L 141.441587 313.42619 
L 141.849867 243.518853 
L 142.053986 232.5526 
L 142.258126 249.069697 
L 142.462266 208.820921 
L 142.666406 239.389153 
L 142.870546 227.635542 
L 143.074666 234.384141 
L 143.278806 262.967951 
L 143.482946 224.162047 
L 143.687086 161.505181 
L 144.095346 216.507756 
L 144.299486 162.842127 
L 144.503626 145.871556 
L 144.707766 219.125792 
L 144.911906 150.042184 
L 145.116026 158.047702 
L 145.320166 143.166234 
L 145.524306 217.789614 
L 145.728446 125.512922 
L 145.932566 132.962796 
L 146.136706 132.922165 
L 146.340846 227.102029 
L 146.544986 231.379267 
L 146.749126 204.766962 
L 146.953246 148.437997 
L 147.157386 134.923499 
L 147.565666 200.582278 
L 147.769806 162.538431 
L 148.178066 270.395206 
L 148.382206 238.948172 
L 148.790486 293.017014 
L 148.994605 206.659028 
L 149.198745 242.580454 
L 149.402885 173.121659 
L 149.607025 241.841387 
L 149.811145 244.088807 
L 150.015285 248.417258 
L 150.219425 186.982525 
L 150.423565 235.35868 
L 150.831825 128.66014 
L 151.035965 139.679427 
L 151.240105 194.439487 
L 151.444245 198.420466 
L 151.852505 180.541138 
L 152.056645 142.994271 
L 152.464925 266.393509 
L 152.669045 169.238516 
L 152.873185 180.798911 
L 153.077325 177.456461 
L 153.281465 115.242984 
L 153.485605 196.308876 
L 153.689793 182.103009 
L 153.893933 194.533073 
L 154.098073 194.533073 
L 154.302213 158.693834 
L 154.506353 172.965786 
L 154.710473 264.349286 
L 155.118753 189.646432 
L 155.322893 217.615436 
L 155.527033 198.054603 
L 155.731153 198.325821 
L 155.935293 219.673016 
L 156.139433 259.054257 
L 156.343573 179.774216 
L 156.547693 153.585792 
L 156.751833 190.358695 
L 156.955973 177.732122 
L 157.160113 185.223154 
L 157.364253 235.822131 
L 157.568373 172.889081 
L 157.772513 160.988906 
L 157.976653 190.67588 
L 158.180793 159.257832 
L 158.384912 149.569295 
L 158.589053 107.257243 
L 158.793193 107.720847 
L 158.997332 159.056006 
L 159.201473 162.1251 
L 159.405592 249.408221 
L 159.609732 153.197736 
L 159.813872 157.941693 
L 160.018012 120.131933 
L 160.222152 194.701541 
L 160.630412 86.584243 
L 160.834552 90.65997 
L 161.038692 131.662225 
L 161.242812 104.519691 
L 161.446952 119.750879 
L 161.651092 121.450612 
L 161.855232 137.853871 
L 162.059372 165.725203 
L 162.263492 167.854639 
L 162.671772 242.35343 
L 163.080032 102.434574 
L 163.284172 110.23576 
L 163.488312 128.152512 
L 163.692452 129.723293 
L 163.896592 182.625474 
L 164.100712 108.630889 
L 164.508992 78.000415 
L 164.713132 103.742162 
L 164.917272 150.716622 
L 165.121391 108.243748 
L 165.529672 166.992693 
L 165.733811 149.897632 
L 165.937931 167.68161 
L 166.142071 201.510731 
L 166.346211 131.861352 
L 166.754491 188.45913 
L 166.958611 195.833091 
L 167.162751 174.133342 
L 167.366891 169.714095 
L 167.571031 156.726875 
L 167.775151 194.165328 
L 167.979291 185.080913 
L 168.183431 224.845579 
L 168.591711 115.800631 
L 168.795831 111.035879 
L 169.204111 157.523643 
L 169.408251 139.075699 
L 169.612371 162.931365 
L 169.816511 99.234548 
L 170.020651 112.815845 
L 170.224791 170.294458 
L 170.428931 122.345778 
L 170.837191 148.51203 
L 171.041331 216.2788 
L 171.245471 216.743109 
L 171.44959 240.617845 
L 171.65373 152.560635 
L 171.857871 260.931888 
L 172.062011 226.881677 
L 172.266151 221.887879 
L 172.47027 209.778155 
L 172.67441 183.185514 
L 172.87855 205.526782 
L 173.08269 240.76392 
L 173.49095 214.439655 
L 173.899154 99.697 
L 174.103294 203.883621 
L 174.307414 250.180777 
L 174.715694 237.979772 
L 174.919834 220.222007 
L 175.123954 180.554104 
L 175.328094 164.773884 
L 175.532234 182.775954 
L 175.736374 141.747549 
L 175.940514 186.325275 
L 176.144633 120.510274 
L 176.348774 182.509284 
L 176.552914 165.674997 
L 176.757053 208.331371 
L 176.961173 177.541057 
L 177.165313 225.132817 
L 177.369453 194.798581 
L 177.573594 94.091233 
L 177.777734 48.850565 
L 177.981853 177.12205 
L 178.185993 171.740827 
L 178.390133 171.740827 
L 178.594273 194.390618 
L 179.002533 122.872902 
L 179.206673 131.978542 
L 179.410813 169.587131 
L 179.614933 100.306773 
L 179.819073 156.284859 
L 180.023213 155.389331 
L 180.227353 141.700923 
L 180.431493 116.264236 
L 180.635613 70.538603 
L 180.839753 76.844068 
L 181.452173 279.264135 
L 181.656292 200.456476 
L 181.860433 200.681312 
L 182.064573 200.074299 
L 182.268713 241.781565 
L 182.472833 187.690751 
L 182.676973 256.95837 
L 182.881112 176.368711 
L 183.085253 223.875587 
L 183.289372 218.123145 
L 183.493512 224.903326 
L 183.697652 175.071513 
L 183.901792 152.375298 
L 184.105932 165.829512 
L 184.310052 161.67373 
L 184.514192 179.888186 
L 184.718332 131.806016 
L 184.922472 188.58761 
L 185.126592 142.959698 
L 185.330732 224.509511 
L 185.534872 228.285905 
L 185.739012 265.724061 
L 185.943132 228.726488 
L 186.147272 154.007037 
L 186.351412 207.613231 
L 186.555552 208.042984 
L 186.759692 189.438002 
L 186.963812 228.73799 
L 187.167952 200.392039 
L 187.372092 205.229022 
L 187.576232 222.442038 
L 187.780352 202.635546 
L 187.984492 222.842197 
L 188.188631 200.078979 
L 188.392772 223.526244 
L 188.596912 274.98496 
L 188.801031 207.160143 
L 189.005171 243.075244 
L 189.209312 197.814219 
L 189.413451 202.965001 
L 189.617571 158.17828 
L 189.821711 227.205423 
L 190.025851 152.725989 
L 190.229991 189.635657 
L 190.434111 201.149429 
L 190.638251 231.387139 
L 190.842391 212.0943 
L 191.046531 212.341059 
L 191.250671 236.691499 
L 191.454791 147.962484 
L 191.658931 157.533543 
L 191.863071 205.496419 
L 192.067211 216.860178 
L 192.475471 139.427895 
L 192.679611 146.225611 
L 192.883751 131.246624 
L 193.08787 149.301049 
L 193.292011 189.355497 
L 193.700291 93.155175 
L 193.904431 93.59535 
L 194.31269 181.447819 
L 194.516831 136.754932 
L 194.720971 192.990906 
L 195.12923 100.49665 
L 195.33337 155.359388 
L 195.53751 171.657535 
L 195.74163 210.04701 
L 195.94577 210.050861 
L 196.14991 145.14923 
L 196.55817 208.697957 
L 196.76231 165.736893 
L 196.96645 176.313278 
L 197.17059 159.188022 
L 197.57885 208.98404 
L 197.78299 168.419448 
L 198.39539 238.644752 
L 198.59953 201.737143 
L 198.80367 214.370614 
L 199.00781 297.358219 
L 199.21193 247.929704 
L 199.41607 256.870119 
L 199.82435 133.713186 
L 200.028469 177.781006 
L 200.232609 133.876825 
L 200.84503 266.283312 
L 201.049149 221.30594 
L 201.253289 228.120846 
L 201.457429 230.784795 
L 201.661569 162.415637 
L 201.865689 222.729907 
L 202.069829 222.729907 
L 202.273969 194.804315 
L 202.478109 94.434114 
L 202.682229 94.434114 
L 202.886369 151.8373 
L 203.090509 124.607089 
L 203.294649 121.850229 
L 203.498769 128.050357 
L 203.702909 110.964486 
L 204.111189 193.426885 
L 204.315329 136.97868 
L 204.519448 167.950886 
L 204.723589 129.135571 
L 204.927729 145.563229 
L 205.131869 188.318232 
L 205.335988 94.1018 
L 205.540129 212.141113 
L 205.744268 205.727877 
L 205.948409 190.134888 
L 206.356668 146.931871 
L 206.560808 169.313621 
L 206.764948 137.333087 
L 206.969068 165.085349 
L 207.173208 116.689963 
L 207.377348 147.056451 
L 207.581488 77.042576 
L 207.785608 154.203367 
L 207.989748 163.93001 
L 208.193888 195.34014 
L 208.398028 168.942106 
L 208.602168 159.147328 
L 208.806288 175.376389 
L 209.010428 175.155074 
L 209.214568 210.161566 
L 209.418708 210.353812 
L 209.622828 201.679218 
L 209.826968 210.167877 
L 210.031108 203.72797 
L 210.235248 190.342691 
L 210.439368 190.722627 
L 210.643507 138.239984 
L 210.847648 159.242032 
L 211.051788 208.952317 
L 211.255907 178.168599 
L 211.460047 222.915464 
L 212.072447 139.294454 
L 212.276587 199.834306 
L 212.684867 176.416118 
L 212.888987 223.280834 
L 213.093127 218.964953 
L 213.297267 224.354918 
L 213.501407 192.684201 
L 213.705527 133.006076 
L 214.113807 163.308737 
L 214.317947 219.186052 
L 214.522087 207.047803 
L 214.726219 215.208435 
L 214.930359 158.070135 
L 215.134499 145.389348 
L 215.338639 148.201304 
L 215.542759 221.059252 
L 215.746899 180.779647 
L 215.951039 169.411299 
L 216.155179 187.8613 
L 216.359299 150.127093 
L 216.563439 136.985072 
L 216.767579 148.934352 
L 216.971719 247.127144 
L 217.175839 211.093772 
L 217.379979 242.662683 
L 217.584119 229.037813 
L 217.788259 223.311417 
L 217.992379 209.856576 
L 218.196519 172.800169 
L 218.400659 77.243569 
L 218.604799 154.536622 
L 219.013058 177.972147 
L 219.217199 108.000446 
L 219.421339 117.791851 
L 219.625458 109.002829 
L 220.033738 167.522791 
L 220.237878 166.929196 
L 220.441998 109.904557 
L 220.646138 151.642015 
L 220.850278 90.023341 
L 221.054418 166.573027 
L 221.258538 175.480904 
L 221.666818 229.337881 
L 221.870958 233.54615 
L 222.075078 175.860201 
L 222.279218 230.389209 
L 222.483358 147.032041 
L 222.687498 173.973364 
L 222.891618 159.814715 
L 223.095758 175.388393 
L 223.299898 221.755918 
L 223.504038 221.925078 
L 223.708157 182.471921 
L 223.912298 183.104708 
L 224.116438 181.08286 
L 224.524697 209.409716 
L 224.728837 248.108279 
L 224.932977 200.344791 
L 225.137117 256.508185 
L 225.341237 215.680091 
L 225.545377 224.346747 
L 225.749517 203.183699 
L 226.157777 130.124798 
L 226.361917 195.945818 
L 226.566057 198.626144 
L 226.770197 228.292683 
L 226.974337 228.292683 
L 227.178457 127.487894 
L 227.382597 144.825545 
L 227.586737 116.071986 
L 227.790877 115.040417 
L 227.994997 74.157728 
L 228.199137 150.693791 
L 228.403277 155.343189 
L 228.607417 184.383962 
L 228.811537 157.530856 
L 229.015677 154.558564 
L 229.219817 144.110193 
L 229.423957 160.075599 
L 229.628076 150.608045 
L 229.832216 118.536267 
L 230.036356 116.337467 
L 230.240496 144.392476 
L 230.444616 113.369904 
L 230.648756 134.808927 
L 230.852896 198.821423 
L 231.057036 207.156221 
L 231.261156 187.499456 
L 231.465296 257.454643 
L 231.669436 195.36445 
L 231.873576 192.588497 
L 232.077696 238.130835 
L 232.281836 160.073448 
L 232.485976 214.805569 
L 232.690116 231.574133 
L 232.894236 237.046252 
L 233.098376 247.984785 
L 233.302516 238.792901 
L 233.506656 209.360636 
L 233.710776 213.380804 
L 233.914916 165.69068 
L 234.119056 167.459769 
L 234.323196 165.802403 
L 234.731455 112.762166 
L 234.935583 213.912399 
L 235.139703 163.321409 
L 235.343842 219.697599 
L 235.547983 147.281866 
L 235.752123 224.303887 
L 235.956242 117.953711 
L 236.160382 97.592434 
L 236.568662 190.075921 
L 236.772782 158.805433 
L 236.976922 163.321331 
L 237.181062 123.050466 
L 237.385202 145.55251 
L 237.589322 126.658388 
L 237.793462 141.958071 
L 237.997602 172.243694 
L 238.201742 164.480502 
L 238.405862 167.074326 
L 238.610002 204.314438 
L 238.814142 149.867598 
L 239.018282 193.818151 
L 239.426542 121.917736 
L 239.630682 126.711841 
L 239.834822 109.274877 
L 240.038942 190.294613 
L 240.447222 92.50044 
L 240.651362 141.938481 
L 240.855481 133.13497 
L 241.059621 101.017597 
L 241.263761 110.866507 
L 241.467901 69.472678 
L 241.876161 107.178125 
L 242.284441 39.772716 
L 242.488561 36.277748 
L 242.896841 82.351709 
L 243.100981 93.210855 
L 243.305101 113.131915 
L 243.713381 178.034145 
L 243.917521 136.869533 
L 244.121641 65.64028 
L 244.325781 130.496788 
L 244.529921 103.637201 
L 244.93818 135.145323 
L 245.142321 147.997455 
L 245.346461 125.263212 
L 245.5506 125.351245 
L 245.75472 58.709686 
L 245.95886 105.167054 
L 246.163 101.98576 
L 246.36714 127.315512 
L 246.57126 113.932463 
L 246.7754 188.303452 
L 246.97954 209.253493 
L 247.18366 130.691884 
L 247.3878 140.982944 
L 247.79608 68.799618 
L 248.20434 159.364722 
L 248.40848 125.453689 
L 248.61262 121.392058 
L 249.02088 67.371083 
L 249.22502 72.069438 
L 249.42916 100.793963 
L 249.63328 98.794851 
L 250.04156 164.631574 
L 250.2457 134.622727 
L 250.449819 126.55918 
L 250.858099 61.999652 
L 251.062239 111.583572 
L 251.266359 111.583572 
L 251.878779 147.011806 
L 252.082899 135.604108 
L 252.287039 140.145454 
L 252.491179 123.563973 
L 252.695299 88.703634 
L 252.899439 156.842692 
L 253.307719 89.417096 
L 253.511839 67.304188 
L 253.715979 90.996236 
L 253.920119 130.00021 
L 254.124259 144.352247 
L 254.328378 81.386697 
L 254.532518 131.959738 
L 254.736659 113.273039 
L 254.940799 165.662904 
L 255.144918 134.88516 
L 255.349074 121.096808 
L 255.553213 146.566225 
L 255.757354 221.575216 
L 255.961473 201.460606 
L 256.165613 201.767404 
L 256.369753 186.711927 
L 256.573893 237.477916 
L 256.778013 175.893839 
L 256.982153 245.384808 
L 257.390413 177.27182 
L 257.594553 107.969007 
L 258.002833 154.311235 
L 258.206953 144.830138 
L 258.411093 145.747399 
L 258.615233 152.468013 
L 259.023492 92.451716 
L 259.227633 94.571716 
L 259.431773 69.20637 
L 259.635913 150.268962 
L 259.840033 111.652351 
L 260.044173 167.321631 
L 260.248312 143.522954 
L 260.452453 135.83471 
L 260.656572 208.657119 
L 260.860712 158.114973 
L 261.064852 167.720485 
L 261.268972 139.12587 
L 261.677252 187.498691 
L 261.881392 255.29145 
L 262.289652 121.173777 
L 262.902052 219.123365 
L 263.106192 141.451603 
L 263.310332 217.961216 
L 263.514472 223.224207 
L 263.718592 179.968592 
L 263.922731 163.655192 
L 264.126872 193.918246 
L 264.330991 196.450444 
L 264.535131 115.230529 
L 264.739272 155.828677 
L 265.147531 81.500914 
L 265.351671 173.465131 
L 265.555811 134.916077 
L 265.759951 122.343154 
L 265.964071 155.387285 
L 266.168211 135.317248 
L 266.372351 176.470819 
L 266.576491 180.258238 
L 266.780611 81.683606 
L 266.984751 115.356526 
L 267.188891 130.23842 
L 267.393011 166.882796 
L 267.597151 61.524534 
L 267.801291 181.251991 
L 268.005431 122.066182 
L 268.209551 108.129063 
L 268.413691 151.234911 
L 268.821971 126.145626 
L 269.02609 184.695799 
L 269.23023 127.916979 
L 269.43437 162.401099 
L 269.638511 151.022189 
L 269.84263 166.106075 
L 270.04677 169.886769 
L 270.25091 206.855332 
L 270.45503 187.126459 
L 270.65917 189.602083 
L 270.86331 180.894769 
L 271.06745 165.344125 
L 271.27157 112.818964 
L 271.47571 141.492349 
L 271.67985 48.942435 
L 271.88399 60.346438 
L 272.49639 163.647266 
L 272.904649 187.517802 
L 273.10879 186.729001 
L 273.31293 102.363717 
L 273.721189 161.948075 
L 273.925329 171.079445 
L 274.129469 141.954585 
L 274.333589 143.214803 
L 274.741869 203.589951 
L 274.946009 189.981801 
L 275.150129 194.857349 
L 275.354269 194.857349 
L 275.558394 224.129765 
L 275.762514 231.021754 
L 275.966654 230.468781 
L 276.170793 211.648022 
L 276.579053 242.077228 
L 276.783193 181.63216 
L 276.987333 184.931195 
L 277.191474 226.761586 
L 277.395593 214.47002 
L 277.599733 192.994461 
L 277.803873 187.196041 
L 278.007993 205.040906 
L 278.212133 160.59945 
L 278.620413 173.766898 
L 278.824533 204.006081 
L 279.028673 198.478159 
L 279.232813 212.100224 
L 279.436953 183.615676 
L 279.641073 188.341574 
L 280.049353 155.24857 
L 280.253473 93.281243 
L 280.661753 218.948689 
L 281.478292 135.15837 
L 281.682432 180.224899 
L 281.886552 174.23323 
L 282.090692 201.557449 
L 282.294832 136.646213 
L 282.498952 163.007956 
L 282.703092 111.722664 
L 282.907232 96.90255 
L 283.111372 204.764634 
L 283.315492 198.158297 
L 283.519632 243.561852 
L 283.927912 142.552891 
L 284.132032 247.771373 
L 284.336172 193.056641 
L 284.540312 204.515226 
L 284.744431 170.937156 
L 284.948571 259.191016 
L 285.152711 162.46478 
L 285.356852 259.810392 
L 285.560971 188.734165 
L 285.765111 240.334178 
L 285.969251 224.110247 
L 286.173371 312.319402 
L 286.377511 265.558479 
L 286.581651 285.340793 
L 286.785791 236.483175 
L 286.989911 269.672421 
L 287.398191 233.235532 
L 287.602331 273.305845 
L 287.806451 274.736617 
L 288.010591 272.947556 
L 288.418851 164.752056 
L 288.622991 221.16639 
L 288.82713 161.608112 
L 289.031271 245.956919 
L 289.23539 253.573592 
L 289.43953 172.017756 
L 289.64367 194.612311 
L 289.84779 190.79479 
L 290.05193 199.774268 
L 290.25607 149.639281 
L 290.46021 128.673113 
L 290.66433 194.467742 
L 290.86847 175.648143 
L 291.07261 167.078112 
L 291.27673 194.686769 
L 291.48087 181.807694 
L 291.68501 239.950499 
L 291.88915 192.96844 
L 292.09327 189.463628 
L 292.297409 283.017886 
L 292.50155 272.03722 
L 292.70569 220.276243 
L 292.909809 209.802767 
L 293.11395 234.801966 
L 293.31809 205.080207 
L 293.522209 252.265498 
L 293.726349 239.725957 
L 293.930489 286.859955 
L 294.134629 293.742874 
L 295.155289 159.242806 
L 295.359429 153.397592 
L 295.563569 106.818087 
L 295.971836 189.762338 
L 296.175976 137.850721 
L 296.380116 128.636138 
L 296.584236 185.083453 
L 296.788376 201.241817 
L 296.992516 202.007972 
L 297.196636 163.052719 
L 297.400776 227.322998 
L 297.604916 187.181329 
L 297.809056 188.220606 
L 298.013176 133.43788 
L 298.217316 140.981479 
L 298.421456 130.560664 
L 298.625576 172.319539 
L 298.829716 98.842555 
L 299.237996 81.630218 
L 299.442115 95.407538 
L 299.646255 95.407538 
L 299.850395 81.485244 
L 300.054515 146.070358 
L 300.258655 139.624553 
L 300.462795 182.225252 
L 300.666935 122.75429 
L 300.871055 180.328655 
L 301.075195 169.977542 
L 301.279335 124.014662 
L 301.483455 110.693032 
L 301.687595 148.481786 
L 301.891735 75.421297 
L 302.095875 57.519235 
L 302.299995 64.575445 
L 302.504135 77.421217 
L 302.708275 98.636437 
L 302.912394 174.374091 
L 303.116534 183.575879 
L 303.524815 140.106584 
L 303.728934 169.117767 
L 303.933074 164.170134 
L 304.137214 174.36252 
L 304.341354 101.010591 
L 304.545474 179.538247 
L 304.749614 207.73538 
L 304.953754 206.849453 
L 305.157874 233.524786 
L 305.362014 214.241296 
L 305.566154 210.011057 
L 305.770294 230.445159 
L 305.974414 205.52634 
L 306.178554 224.524789 
L 306.382694 222.005671 
L 306.586814 232.767876 
L 306.790954 253.181433 
L 306.995094 202.509531 
L 307.199234 199.581955 
L 307.403353 217.430247 
L 307.607493 186.108434 
L 307.811633 189.622646 
L 308.015753 198.748922 
L 308.219893 170.848165 
L 308.424033 192.918446 
L 308.628173 196.733741 
L 308.832293 206.605036 
L 309.036433 186.539332 
L 309.240573 210.045876 
L 309.444693 204.508841 
L 309.648833 167.845481 
L 309.852973 216.354479 
L 310.057093 213.791241 
L 310.261233 151.769095 
L 310.465373 197.852533 
L 310.669513 188.932697 
L 310.873632 193.605701 
L 311.077772 210.336726 
L 311.281913 106.634773 
L 311.486032 110.959293 
L 311.690172 141.190554 
L 312.098452 240.971313 
L 312.302572 225.065316 
L 312.506712 185.258901 
L 312.710852 182.242205 
L 312.914972 183.046346 
L 313.119112 127.971565 
L 313.323252 173.61375 
L 313.527392 159.251895 
L 313.731512 176.559685 
L 313.935652 123.604892 
L 314.139792 193.45508 
L 314.343912 156.980654 
L 314.548052 192.16132 
L 314.752192 198.054408 
L 314.956332 208.43104 
L 315.568731 93.150641 
L 315.772851 195.230683 
L 315.976991 126.990221 
L 316.181124 213.908359 
L 316.385264 195.081089 
L 316.589383 202.489255 
L 316.793523 191.958718 
L 317.201783 142.330105 
L 317.405923 177.917984 
L 317.610063 170.555627 
L 317.814203 208.166864 
L 318.018323 168.438031 
L 318.222463 211.93495 
L 318.426603 141.33043 
L 318.630723 197.964006 
L 318.834863 141.506356 
L 319.039003 178.98775 
L 319.243122 149.075855 
L 319.447263 158.73159 
L 319.651403 154.024357 
L 319.855543 188.875531 
L 320.263803 75.804115 
L 320.467942 91.43259 
L 320.672062 83.081294 
L 320.876202 99.107127 
L 321.080342 148.274062 
L 321.284482 114.1504 
L 321.692742 167.640759 
L 321.896882 145.749827 
L 322.101002 182.023003 
L 322.305142 133.202881 
L 322.509282 194.010931 
L 322.917542 101.488174 
L 323.325822 73.110925 
L 323.529942 73.110925 
L 323.734082 49.594372 
L 323.938222 102.280972 
L 324.142341 102.280972 
L 324.346481 165.228885 
L 324.550621 121.351976 
L 324.754761 157.882956 
L 324.958881 138.402944 
L 325.163021 159.444337 
L 325.367161 101.062741 
L 325.571281 75.124203 
L 325.775421 102.76261 
L 325.979561 146.539002 
L 326.183701 110.657645 
L 326.387821 128.020341 
L 326.796101 121.917122 
L 327.00022 82.450129 
L 327.408501 123.417332 
L 327.61262 63.833502 
L 327.81676 41.779977 
L 328.020901 80.122229 
L 328.22504 182.601902 
L 328.42916 159.102426 
L 328.6333 154.271708 
L 328.83744 111.747847 
L 329.04156 131.592607 
L 329.2457 81.030442 
L 329.44984 144.367782 
L 329.65396 154.562115 
L 329.8581 138.265634 
L 330.06224 151.812832 
L 330.26638 188.870633 
L 330.4705 185.668214 
L 330.67464 157.592306 
L 330.87878 183.66476 
L 331.0829 119.372871 
L 331.287039 178.464773 
L 331.49118 158.498889 
L 331.899439 224.653438 
L 332.103579 255.554655 
L 332.511839 191.574442 
L 332.715979 180.498532 
L 332.920119 288.173472 
L 333.124239 222.9082 
L 333.328379 252.482577 
L 333.532519 212.758529 
L 333.736639 205.65609 
L 333.940779 167.46288 
L 334.144919 247.552462 
L 334.349059 158.180301 
L 334.553179 194.549636 
L 334.757318 128.848016 
L 334.961459 126.694004 
L 335.165578 120.392898 
L 335.573858 185.032774 
L 335.777998 188.699113 
L 335.982118 157.049609 
L 336.390398 169.375052 
L 336.594526 150.534546 
L 336.798666 153.613716 
L 337.002806 182.813702 
L 337.206925 156.967294 
L 337.411065 222.560358 
L 337.615205 189.607221 
L 338.227605 259.421488 
L 338.635865 235.379678 
L 339.044145 326.759737 
L 339.248265 243.542364 
L 339.452405 228.590874 
L 339.656545 229.893277 
L 339.860685 171.936163 
L 340.268945 223.382133 
L 340.473085 230.34771 
L 340.677204 266.651204 
L 340.881344 203.067785 
L 341.085484 255.04253 
L 341.289604 236.350717 
L 341.493744 237.318122 
L 341.697884 216.531141 
L 341.902004 179.062413 
L 342.106144 210.124783 
L 342.310284 178.280178 
L 342.514424 217.506505 
L 342.718544 192.834603 
L 342.922684 305.866182 
L 343.126824 144.428842 
L 343.535084 237.843131 
L 343.739224 216.470333 
L 343.943343 233.992677 
L 344.147483 151.921106 
L 344.351624 146.941327 
L 344.555764 245.829944 
L 344.759883 244.788728 
L 344.964023 228.084796 
L 345.168163 178.710429 
L 345.372283 221.951566 
L 345.576423 175.548341 
L 345.780563 225.313501 
L 345.984683 182.772835 
L 346.188823 189.354662 
L 346.392963 241.660052 
L 346.597103 211.218068 
L 346.801223 162.972756 
L 347.005363 183.175793 
L 347.209503 185.461994 
L 347.413623 206.367492 
L 347.821903 213.296747 
L 348.026022 97.224305 
L 348.230162 97.224305 
L 348.434302 238.185397 
L 348.638422 243.679395 
L 348.842562 275.333984 
L 349.046702 218.332713 
L 349.250842 217.794112 
L 349.454962 255.528949 
L 349.659102 247.403082 
L 349.863242 228.875899 
L 350.067362 272.411831 
L 350.271502 228.525167 
L 350.475642 258.418226 
L 350.679762 229.256495 
L 350.883902 280.622982 
L 351.088042 273.145057 
L 351.496301 246.566197 
L 351.700441 240.025933 
L 351.904581 239.256097 
L 352.108701 251.586433 
L 352.312841 214.714806 
L 352.516981 199.117803 
L 352.721101 206.050477 
L 352.925241 262.760726 
L 353.129381 255.306893 
L 353.537641 330.469899 
L 353.945901 237.05009 
L 354.150041 271.078348 
L 354.354181 264.306527 
L 354.558321 195.878575 
L 354.76244 192.958428 
L 354.96658 235.770775 
L 355.17072 191.220125 
L 355.57898 310.215826 
L 356.19138 207.386798 
L 356.39552 197.383634 
L 356.59964 235.669471 
L 356.80378 212.897271 
L 357.00792 238.051182 
L 357.21206 286.016119 
L 357.41618 241.404268 
L 357.62032 276.670818 
L 358.028579 190.229528 
L 358.232719 207.474408 
L 358.43686 193.776194 
L 358.640979 229.759794 
L 358.845119 296.282368 
L 359.049259 285.279877 
L 359.253379 280.85906 
L 359.457519 312.053453 
L 359.865799 226.769534 
L 360.069919 274.333171 
L 360.274059 249.695526 
L 360.478199 205.950396 
L 360.682319 265.641231 
L 360.886459 181.098333 
L 361.090599 330.403926 
L 361.294718 356.224731 
L 361.498858 271.432704 
L 361.702999 299.869671 
L 361.907118 225.055392 
L 362.111258 208.982485 
L 362.315398 291.270875 
L 362.519518 235.616059 
L 362.723658 256.064013 
L 362.927798 330.532184 
L 363.131938 251.381606 
L 363.336058 245.717088 
L 363.540198 226.656437 
L 363.744338 320.728554 
L 363.948458 197.246029 
L 364.764998 352.370332 
L 365.173257 260.513849 
L 365.377397 267.1032 
L 365.581537 228.798969 
L 365.785657 271.870212 
L 365.989797 275.612994 
L 366.193937 271.882795 
L 366.602197 166.419706 
L 367.010477 261.143704 
L 367.214597 253.814353 
L 367.418737 210.304099 
L 367.622877 261.273264 
L 367.826997 250.307186 
L 368.031137 222.046604 
L 368.235277 213.424994 
L 368.643536 290.743965 
L 368.847676 190.19009 
L 369.051796 184.207368 
L 369.255936 220.046009 
L 369.460076 185.116563 
L 369.664196 170.295498 
L 369.868336 194.791206 
L 370.072476 179.065203 
L 370.480736 266.525242 
L 370.684876 187.685693 
L 371.093136 265.067665 
L 371.297276 269.03232 
L 371.501416 256.711745 
L 371.705535 209.376098 
L 371.909675 230.520392 
L 372.113815 175.578936 
L 372.317935 175.578936 
L 372.522075 237.721573 
L 372.726215 247.680623 
L 372.930335 155.033798 
L 373.542735 251.806766 
L 373.746875 222.057372 
L 373.951015 230.171897 
L 374.155155 219.980457 
L 374.359275 286.285435 
L 374.563415 192.094984 
L 374.767555 199.790227 
L 374.971674 200.503856 
L 375.175814 186.366987 
L 375.379954 189.376765 
L 375.584074 172.133343 
L 375.788214 240.207555 
L 375.992354 252.971261 
L 376.196474 201.85766 
L 376.400614 248.799935 
L 376.604754 189.951994 
L 376.808874 201.429084 
L 377.013014 179.727419 
L 377.217154 170.26516 
L 377.421274 141.005775 
L 377.625414 196.06884 
L 377.829554 201.094097 
L 378.237813 244.481792 
L 378.441953 289.038951 
L 378.646093 222.343532 
L 378.850213 224.149401 
L 379.054353 230.166311 
L 379.258493 205.110955 
L 379.462613 219.987693 
L 379.666753 257.578643 
L 379.870893 256.015635 
L 380.279153 233.549777 
L 380.687413 269.551764 
L 380.891553 264.819551 
L 381.095693 253.288139 
L 381.299812 158.104182 
L 382.116352 297.627655 
L 382.320492 267.151616 
L 382.524612 269.813112 
L 382.728752 301.422777 
L 382.932892 219.744381 
L 383.137012 223.330223 
L 383.341152 196.441999 
L 383.749432 226.214631 
L 383.953552 272.419272 
L 384.157692 182.419594 
L 384.361832 159.997916 
L 384.770091 102.182524 
L 384.974232 188.364488 
L 385.178351 212.626937 
L 385.382491 257.406421 
L 385.586631 164.308463 
L 385.790751 176.095291 
L 385.994891 160.261566 
L 386.199031 248.807673 
L 386.607291 214.05349 
L 386.811431 254.513936 
L 387.219691 228.440568 
L 387.423831 181.083989 
L 387.62795 205.282889 
L 388.036231 215.075835 
L 388.24035 184.611577 
L 388.44449 187.114615 
L 388.64863 207.522122 
L 388.85275 176.199582 
L 389.05689 289.639947 
L 389.87343 161.583252 
L 390.07755 178.404131 
L 390.28169 175.392904 
L 390.48583 185.853588 
L 390.894089 223.444219 
L 391.09823 222.178482 
L 391.30237 207.556452 
L 391.506489 180.612795 
L 391.710629 225.065804 
L 391.914769 199.840598 
L 392.323029 286.88571 
L 392.527169 294.930762 
L 392.731289 316.293697 
L 393.139569 258.370326 
L 393.343689 268.646004 
L 393.547829 245.903707 
L 393.751969 261.393365 
L 393.956088 202.213187 
L 394.160229 275.585671 
L 394.364369 245.156004 
L 394.772628 233.684041 
L 394.976768 266.145352 
L 395.180888 266.145352 
L 395.385028 284.067851 
L 395.589168 245.054464 
L 395.793288 257.605271 
L 395.997428 296.356262 
L 396.201568 296.356262 
L 396.405688 218.942673 
L 396.609828 241.664219 
L 396.813968 297.731124 
L 397.018087 204.371025 
L 397.222228 264.77048 
L 397.426368 179.026704 
L 397.630481 180.601142 
L 397.834621 203.824515 
L 398.038761 196.808504 
L 398.24288 216.812175 
L 398.44702 265.364809 
L 398.65116 162.092316 
L 398.85528 241.955023 
L 399.05942 276.173024 
L 399.26356 271.300258 
L 399.46768 275.763523 
L 399.67182 307.419964 
L 399.87596 252.287996 
L 400.08008 247.353627 
L 400.48836 190.848757 
L 400.69248 207.832721 
L 400.89662 239.557194 
L 401.10076 217.257366 
L 401.304879 260.015072 
L 401.509019 250.466434 
L 401.713159 168.411316 
L 401.917279 207.862257 
L 402.121419 193.888873 
L 402.325559 187.62015 
L 402.529679 152.59342 
L 402.733819 198.296071 
L 402.937959 201.673837 
L 403.142079 299.064859 
L 403.346219 256.165261 
L 403.550359 245.045744 
L 403.754479 269.218057 
L 403.958619 261.177246 
L 404.162759 194.317637 
L 404.366878 178.505036 
L 404.571018 118.422544 
L 404.775158 194.967877 
L 404.979278 200.20297 
L 405.183418 187.811244 
L 405.387558 227.296736 
L 405.591678 313.746812 
L 405.795818 277.453613 
L 405.999958 294.1064 
L 406.204098 250.314367 
L 406.408218 231.758845 
L 406.612358 253.884544 
L 406.816478 239.121537 
L 407.224758 187.302805 
L 407.428898 212.738365 
L 407.633017 299.325144 
L 407.837157 243.917674 
L 408.041277 260.059503 
L 408.245417 246.949825 
L 408.449557 277.087504 
L 408.653697 214.046654 
L 408.857817 255.621744 
L 409.061957 274.193541 
L 409.266097 242.386873 
L 409.470217 172.727731 
L 409.674357 232.89488 
L 409.878497 248.680688 
L 410.082617 222.944596 
L 410.286757 166.042593 
L 410.490897 227.231237 
L 410.695016 226.333258 
L 410.899156 260.139894 
L 411.103296 247.816246 
L 411.307416 257.912692 
L 411.511556 252.105492 
L 411.715696 276.198762 
L 411.919816 279.054559 
L 412.123956 264.540677 
L 412.328096 233.108964 
L 412.532216 232.749398 
L 412.736356 206.261001 
L 412.940496 225.411105 
L 413.144616 224.667981 
L 413.348756 266.480605 
L 413.552896 272.339683 
L 413.757015 341.549403 
L 414.165275 261.407357 
L 414.369415 275.31896 
L 414.573555 272.474251 
L 414.777675 350.825634 
L 414.981815 296.325887 
L 415.185955 286.623012 
L 415.390075 307.714057 
L 415.594215 278.093393 
L 415.798355 325.383837 
L 416.002475 323.372028 
L 416.410755 297.312281 
L 416.614874 341.577076 
L 416.819014 338.669694 
L 417.023154 339.56179 
L 417.227274 335.542616 
L 417.635554 280.269093 
L 417.839706 324.034196 
L 418.043846 326.717595 
L 418.247986 294.287804 
L 418.452106 327.308853 
L 418.656246 288.938636 
L 418.860386 336.488011 
L 419.268646 244.320401 
L 419.676905 308.214295 
L 419.881045 275.423536 
L 420.085186 320.285556 
L 420.289305 320.285556 
L 420.493445 305.071823 
L 420.697585 364.296708 
L 420.901705 325.070255 
L 421.105845 373.125462 
L 421.718245 252.620616 
L 421.922385 361.400709 
L 422.126505 351.044039 
L 422.330645 319.875615 
L 422.534785 360.408315 
L 423.147185 295.93734 
L 423.351304 229.156856 
L 423.555444 294.910103 
L 423.759584 300.99793 
L 423.963704 299.024274 
L 424.371984 311.591945 
L 424.576104 331.92959 
L 424.780244 321.374479 
L 424.984384 289.329093 
L 425.188504 291.468756 
L 425.392644 253.87011 
L 425.596784 319.328109 
L 425.800903 218.732496 
L 426.005043 219.608459 
L 426.209184 204.521691 
L 426.413303 228.371168 
L 426.821563 293.603802 
L 427.025703 241.080863 
L 427.229843 266.869317 
L 427.433963 333.03959 
L 427.842243 250.300058 
L 428.046363 289.909255 
L 428.250503 285.11109 
L 428.454643 331.175817 
L 428.658762 183.887138 
L 428.862902 231.877005 
L 429.067042 180.529106 
L 429.271162 312.161211 
L 429.475302 204.807899 
L 429.679442 195.364343 
L 429.883562 225.595553 
L 430.087702 298.623211 
L 430.291842 226.523772 
L 430.495962 299.606111 
L 430.700102 262.622501 
L 430.904242 256.552833 
L 431.108362 299.233249 
L 431.312502 211.981087 
L 431.516642 176.018192 
L 431.720761 218.170024 
L 431.924901 195.975308 
L 432.333161 273.309502 
L 432.537301 279.430722 
L 432.741441 326.612539 
L 432.945561 325.790093 
L 433.149701 359.096499 
L 433.353821 300.464161 
L 433.557961 295.68887 
L 433.762101 234.429476 
L 433.966221 307.865125 
L 434.170361 267.501875 
L 434.57862 329.085654 
L 434.78276 303.087429 
L 434.9869 299.031866 
L 435.19102 233.491693 
L 435.39516 278.03319 
L 435.5993 274.181161 
L 435.80342 235.294087 
L 436.00756 224.188326 
L 436.2117 231.361999 
L 436.41582 365.32626 
L 436.61996 317.354026 
L 436.8241 340.351647 
L 437.02822 284.265035 
L 437.23236 307.695451 
L 437.4365 243.016719 
L 437.640619 312.171023 
L 437.844759 271.499305 
L 438.048879 308.487591 
L 438.253004 381.317807 
L 438.457144 283.919256 
L 438.661264 278.133986 
L 438.865404 279.847848 
L 439.069544 241.005141 
L 439.273664 237.87707 
L 439.477804 242.927839 
L 439.886063 288.495076 
L 440.294343 219.245949 
L 440.498463 219.272043 
L 440.702603 176.954317 
L 441.110863 268.417653 
L 441.315003 228.874148 
L 441.519143 223.641353 
L 441.723263 259.54686 
L 441.927403 196.695319 
L 442.131522 260.870407 
L 442.335663 255.419482 
L 442.539803 255.347101 
L 442.948062 182.121156 
L 443.356322 282.998289 
L 443.560462 258.361918 
L 443.764602 291.102819 
L 443.968722 253.757056 
L 444.172862 257.326682 
L 444.377002 257.326682 
L 444.581122 191.351331 
L 444.785262 235.147228 
L 444.989402 251.13674 
L 445.193521 339.550181 
L 445.397662 330.337447 
L 445.601802 282.460354 
L 445.805921 302.629237 
L 446.010061 265.499909 
L 446.214181 259.344207 
L 446.622461 233.349192 
L 447.030721 314.574699 
L 447.234861 284.187505 
L 447.438981 320.442524 
L 447.847261 221.177562 
L 448.05138 225.409915 
L 448.459661 331.256659 
L 448.66378 231.556324 
L 448.86792 293.072312 
L 449.07206 209.421372 
L 449.27618 198.370574 
L 449.48032 301.392858 
L 449.68444 229.022278 
L 449.88858 263.788875 
L 450.09272 270.566112 
L 450.29684 240.349965 
L 450.50098 192.47337 
L 450.70512 170.817301 
L 450.909239 200.068826 
L 451.113379 200.224558 
L 451.317519 231.9635 
L 451.521639 157.702781 
L 451.725779 252.321072 
L 451.929919 255.097412 
L 452.134039 215.781244 
L 452.338179 265.010522 
L 452.542299 234.143972 
L 452.746439 289.51552 
L 452.950579 297.70708 
L 453.154699 295.785766 
L 453.358839 281.489818 
L 453.562979 224.492733 
L 453.767098 270.882391 
L 453.971238 276.140493 
L 454.175378 256.694419 
L 454.379498 294.670372 
L 454.583638 302.413586 
L 454.991898 295.878648 
L 455.196038 317.85872 
L 455.400158 211.044574 
L 455.604298 175.462069 
L 455.808438 257.643798 
L 456.012558 251.086716 
L 456.216698 262.442603 
L 456.420838 321.606154 
L 456.624957 317.708941 
L 457.033237 240.66599 
L 457.237357 262.23151 
L 457.645637 360.70675 
L 457.849757 265.297372 
L 458.053897 283.423906 
L 458.666348 249.082504 
L 458.870467 310.039463 
L 459.074607 332.014603 
L 459.278747 328.403353 
L 459.687007 374.318785 
L 459.891147 331.204603 
L 460.299407 318.053867 
L 460.503547 287.51598 
L 460.707667 356.279541 
L 460.911807 334.394873 
L 461.115926 355.687314 
L 461.524206 278.476286 
L 461.728326 341.285796 
L 461.932466 274.223444 
L 462.340726 259.642897 
L 462.544866 229.816424 
L 462.749006 220.986632 
L 463.157266 273.025305 
L 463.361406 266.575017 
L 463.565526 272.892698 
L 463.769666 271.441755 
L 463.973785 285.830367 
L 464.177925 200.301062 
L 464.382065 277.128072 
L 464.586185 278.747134 
L 464.790325 286.445738 
L 464.994465 318.259857 
L 465.198585 303.047606 
L 465.402725 334.659253 
L 465.606865 271.067227 
L 465.810985 269.95448 
L 466.015125 244.668234 
L 466.219245 298.315663 
L 466.423385 295.252654 
L 466.627525 237.025278 
L 466.831644 288.831851 
L 467.035784 284.881304 
L 467.239924 357.802511 
L 467.444044 329.892984 
L 467.648184 237.09452 
L 467.852324 258.732137 
L 468.260584 270.731861 
L 468.464704 324.657088 
L 468.668844 324.657088 
L 468.872984 300.144083 
L 469.077104 314.48375 
L 469.485384 367.380268 
L 469.893643 298.368369 
L 470.097783 248.614111 
L 470.506043 320.454915 
L 470.710163 279.47635 
L 470.914303 341.173286 
L 471.118443 296.351558 
L 471.322563 317.834142 
L 471.526703 362.120042 
L 471.730843 360.007491 
L 471.934962 371.590204 
L 472.139103 279.57486 
L 472.343243 328.149534 
L 472.547362 189.243359 
L 472.751502 297.50276 
L 472.955622 324.186206 
L 473.159762 287.759954 
L 473.363902 289.218822 
L 473.568022 261.401758 
L 473.976302 315.291693 
L 474.180422 272.521077 
L 474.384562 273.334663 
L 474.588702 206.749675 
L 474.792821 252.463491 
L 474.996961 224.399266 
L 475.405221 337.050987 
L 476.017621 241.320516 
L 476.221761 229.370322 
L 476.425881 287.723776 
L 476.630021 277.51932 
L 477.038281 317.464362 
L 477.242421 299.150232 
L 477.44654 314.114025 
L 477.65068 203.286991 
L 477.85482 224.583319 
L 478.05894 191.774276 
L 478.26308 233.331028 
L 478.46722 305.101947 
L 478.67134 281.873241 
L 478.875411 160.173191 
L 479.079531 259.682724 
L 479.283671 263.234269 
L 479.487811 199.994489 
L 479.691931 273.88739 
L 480.100211 193.670219 
L 480.304331 211.181048 
L 480.508471 212.154167 
L 481.120871 283.928026 
L 481.32499 287.004787 
L 481.529131 266.316047 
L 481.733271 227.13305 
L 481.93739 228.015517 
L 482.14153 193.665237 
L 482.54979 284.845454 
L 482.95805 258.494104 
L 483.16219 348.783737 
L 483.36633 377.159927 
L 483.570449 326.250052 
L 483.77459 304.192008 
L 484.182849 222.21651 
L 484.386989 295.770707 
L 484.59113 286.743165 
L 484.795249 255.974126 
L 484.999389 271.118751 
L 485.203509 277.023135 
L 485.407649 264.806835 
L 485.611789 336.056124 
L 485.815909 298.998462 
L 486.020049 349.246181 
L 486.224189 291.796517 
L 486.428309 359.717395 
L 486.632449 342.650523 
L 486.836568 309.214065 
L 487.040708 306.767183 
L 487.244848 334.212682 
L 487.448968 310.112794 
L 487.653108 316.23123 
L 487.857248 326.250447 
L 488.061368 368.330916 
L 488.265508 366.525276 
L 488.673768 324.688128 
L 488.877908 353.502165 
L 489.286168 364.705102 
L 489.490307 346.175523 
L 489.694427 405.256859 
L 489.898567 384.442485 
L 490.102687 276.504674 
L 490.510967 414.957188 
L 490.715087 310.325636 
L 490.919227 384.551392 
L 491.123367 330.319549 
L 491.327487 355.678732 
L 491.531627 235.015734 
L 491.735746 235.015734 
L 491.939886 205.416723 
L 492.144027 273.068393 
L 492.348146 253.499324 
L 492.552286 285.633801 
L 492.756426 285.633801 
L 492.960546 302.967294 
L 493.164686 281.578137 
L 493.368806 354.160542 
L 493.572946 362.460134 
L 493.777086 170.375634 
L 493.981206 283.965339 
L 494.185345 249.767922 
L 494.389486 252.42426 
L 494.797745 180.237836 
L 495.206005 293.809186 
L 495.410145 300.098248 
L 495.614265 214.158589 
L 496.022545 288.285967 
L 496.226665 266.379714 
L 496.430805 309.58964 
L 496.634925 314.199775 
L 496.839065 270.61043 
L 497.043205 322.848127 
L 497.247324 318.815276 
L 497.451464 273.528148 
L 497.655604 200.672485 
L 497.859724 293.481488 
L 498.063864 298.057562 
L 498.267984 219.515489 
L 498.472124 284.732374 
L 498.676264 286.496331 
L 499.28867 132.1506 
L 499.492789 230.782824 
L 499.696929 213.051349 
L 499.901049 210.610752 
L 500.105189 168.118843 
L 500.309329 268.343274 
L 500.513449 233.545945 
L 500.717589 244.828914 
L 500.921729 289.65373 
L 501.534109 228.755069 
L 501.738249 306.872223 
L 501.942389 256.607874 
L 502.146508 287.71243 
L 502.350648 273.150117 
L 502.554788 204.214003 
L 502.758908 197.877744 
L 502.963048 218.124432 
L 503.167168 285.921064 
L 503.371308 197.066823 
L 503.575448 260.089226 
L 503.779568 157.445622 
L 503.983708 231.321221 
L 504.391968 197.809808 
L 504.596108 179.140866 
L 504.800227 182.973527 
L 505.004367 157.804097 
L 505.208507 104.559274 
L 505.412627 126.735537 
L 505.616767 114.524625 
L 505.820887 140.364013 
L 506.025027 87.330935 
L 506.229167 64.33246 
L 506.433287 176.762428 
L 506.637427 86.161027 
L 506.841567 166.112004 
L 507.045686 200.685731 
L 507.249826 290.165328 
L 507.453946 218.269605 
L 507.658086 238.744496 
L 507.862226 238.214783 
L 508.066346 211.957515 
L 508.270486 139.120275 
L 508.474606 159.475404 
L 508.678746 123.183852 
L 508.882886 153.215385 
L 509.087006 90.976652 
L 509.291146 89.658023 
L 509.495286 182.04685 
L 509.699405 216.494677 
L 509.903545 218.353974 
L 510.107665 165.124306 
L 510.311805 249.227619 
L 510.924205 184.325115 
L 511.128345 189.156728 
L 511.536605 269.427239 
L 511.740724 255.856165 
L 511.944865 226.91473 
L 512.149005 178.437682 
L 512.353124 235.590247 
L 512.557264 254.017662 
L 512.761384 174.044369 
L 512.965524 165.500678 
L 513.169664 146.701737 
L 513.373784 162.468039 
L 513.782064 232.015964 
L 513.986184 219.625514 
L 514.190324 215.951022 
L 514.394443 220.862289 
L 514.598583 208.483736 
L 514.802723 138.593847 
L 515.006843 141.39346 
L 515.210983 176.048721 
L 515.415103 171.723093 
L 515.619243 223.619754 
L 515.823383 159.364415 
L 516.027503 166.704448 
L 516.231643 159.353246 
L 516.435783 158.836827 
L 516.639903 145.470172 
L 516.844043 197.295325 
L 517.048162 197.295325 
L 517.252302 229.935644 
L 517.660562 189.936499 
L 517.864702 207.24458 
L 518.068822 178.4242 
L 518.272962 243.997356 
L 518.477102 177.06756 
L 518.681222 240.583119 
L 518.885362 166.065846 
L 519.089502 172.854676 
L 519.293622 164.811087 
L 519.497824 219.708244 
L 519.701944 193.789118 
L 519.906084 236.427891 
L 520.110224 197.889155 
L 520.518484 184.208277 
L 520.722603 139.061234 
L 520.926743 148.739859 
L 521.130883 195.576987 
L 521.335003 150.744413 
L 521.743263 113.591078 
L 521.947403 119.236522 
L 522.151543 139.226659 
L 522.355663 194.082549 
L 522.559803 192.054787 
L 522.763923 151.851301 
L 523.376322 184.29582 
L 523.580462 165.120728 
L 523.784602 254.440682 
L 523.988722 204.370966 
L 524.192862 198.370805 
L 524.396982 165.178009 
L 524.805262 194.549723 
L 525.009382 182.413303 
L 525.213522 212.832259 
L 525.621781 300.462032 
L 526.030041 213.289009 
L 526.234181 240.906998 
L 526.642441 194.630776 
L 526.846581 186.231262 
L 527.254841 247.197361 
L 527.458981 198.006865 
L 527.663101 225.278739 
L 527.867241 282.759426 
L 528.07136 202.014567 
L 528.2755 280.521222 
L 528.47964 269.225031 
L 528.68376 264.906467 
L 528.8879 304.665839 
L 529.09202 249.537336 
L 529.29616 260.631549 
L 529.5003 285.26434 
L 529.70442 249.456354 
L 529.90856 267.915275 
L 530.11268 248.643088 
L 530.31682 297.922262 
L 530.725079 316.946714 
L 530.929219 312.471862 
L 531.133339 359.464984 
L 531.337479 295.714942 
L 531.541619 288.089002 
L 531.745739 300.267374 
L 531.949879 305.34425 
L 532.154019 272.253254 
L 532.358139 293.575038 
L 532.562279 253.203329 
L 532.766398 237.037211 
L 532.970538 207.21055 
L 533.582938 319.315548 
L 533.787058 240.821565 
L 533.991198 243.331872 
L 534.195338 288.047472 
L 534.399458 281.52359 
L 534.603598 266.06351 
L 534.807718 349.439167 
L 535.011858 263.529369 
L 535.215998 316.579338 
L 535.420117 286.211313 
L 535.624257 342.469601 
L 535.828377 257.993121 
L 536.032517 322.257787 
L 536.236657 311.159314 
L 536.644917 222.413879 
L 536.849037 282.032533 
L 537.053177 306.599816 
L 537.257317 298.834292 
L 537.461436 359.829785 
L 537.665577 356.207721 
L 537.869696 255.987845 
L 538.073836 276.457288 
L 538.277976 194.715715 
L 538.686236 196.958353 
L 539.094496 298.31348 
L 539.502756 225.868801 
L 539.706896 291.47462 
L 539.910963 238.398291 
L 540.115103 282.938933 
L 540.319243 203.43357 
L 540.523363 197.546313 
L 540.727503 199.903801 
L 540.931643 199.903801 
L 541.135763 261.14681 
L 541.339903 201.992901 
L 541.544022 212.506939 
L 541.748162 247.402647 
L 541.952302 248.600133 
L 542.156422 243.617128 
L 542.360562 184.492238 
L 542.564682 275.047982 
L 542.768822 235.960402 
L 542.972962 223.156671 
L 543.177082 234.501525 
L 543.381222 236.974021 
L 543.585342 242.336687 
L 543.789482 237.951139 
L 543.993622 258.077706 
L 544.197741 332.565243 
L 544.401881 283.062828 
L 544.606001 308.577912 
L 544.810141 213.619827 
L 545.014281 285.421495 
L 545.218401 201.546005 
L 545.626661 239.454378 
L 546.034941 214.426357 
L 546.23906 269.458673 
L 546.4432 231.732828 
L 546.64732 262.592598 
L 546.85146 233.351084 
L 547.0556 333.726807 
L 547.25972 269.576416 
L 547.46386 326.933312 
L 547.66798 320.349586 
L 547.87212 256.843151 
L 548.07626 295.187046 
L 548.48452 205.930366 
L 548.688639 284.674773 
L 548.892779 250.415486 
L 549.096919 320.809187 
L 549.505179 261.634072 
L 549.709299 181.018947 
L 549.913439 199.404369 
L 550.321699 208.230624 
L 550.525839 196.638749 
L 550.729958 241.323776 
L 550.934098 238.831016 
L 551.138239 297.693863 
L 551.342358 242.554758 
L 551.546498 240.356311 
L 551.750618 176.212495 
L 551.954758 267.280014 
L 552.158898 256.740265 
L 552.363018 230.008624 
L 552.567158 225.93212 
L 552.771278 305.814948 
L 552.975418 305.269645 
L 553.383677 307.58587 
L 553.587817 221.704274 
L 553.996077 303.032541 
L 554.200217 270.810236 
L 554.404337 263.915171 
L 554.608477 205.976377 
L 554.812597 313.614759 
L 555.016737 294.275441 
L 555.220856 290.724814 
L 555.424997 316.259258 
L 555.629137 327.738905 
L 555.833256 271.417891 
L 556.037396 264.239966 
L 556.241516 185.68611 
L 556.445656 205.705356 
L 556.649796 289.819863 
L 556.853916 220.349499 
L 557.058056 302.157245 
L 557.262176 283.232596 
L 557.466316 287.125663 
L 557.670456 207.412231 
L 557.874575 207.655839 
L 558.078715 212.65263 
L 558.282835 244.011556 
L 558.486975 236.560964 
L 558.691115 259.647196 
L 558.895235 242.852522 
L 559.099375 267.870665 
L 559.507635 217.590236 
L 559.915895 294.459611 
L 560.12003 290.385073 
L 560.324149 229.822233 
L 560.528289 290.426975 
L 560.732429 312.83007 
L 560.936549 305.241941 
L 561.140689 268.065978 
L 561.344809 257.761736 
L 561.957209 196.086954 
L 562.161349 204.002312 
L 562.569608 301.204081 
L 562.773728 298.775848 
L 563.182008 327.677394 
L 563.386128 223.920067 
L 563.590268 375.489534 
L 563.794388 353.35861 
L 563.998528 304.480336 
L 564.202668 355.317912 
L 564.406788 317.411575 
L 564.610928 215.120241 
L 564.815047 215.120241 
L 565.019187 280.263288 
L 565.223327 255.100235 
L 565.427447 279.119658 
L 565.631587 333.99067 
L 565.835707 233.472913 
L 566.039847 217.450197 
L 566.243967 275.534326 
L 566.448107 194.133871 
L 566.652247 253.395232 
L 566.856366 248.314629 
L 567.264626 303.485775 
L 567.468766 312.861302 
L 567.672906 149.122523 
L 567.877026 151.492576 
L 568.081166 146.506518 
L 568.285286 263.762664 
L 568.489426 234.913231 
L 568.693566 232.749249 
L 568.897686 171.111791 
L 569.101826 207.66765 
L 569.305945 221.251646 
L 569.510085 211.431773 
L 569.714225 214.441141 
L 569.918345 221.565752 
L 570.122485 246.130766 
L 570.326605 193.942086 
L 570.530745 184.76973 
L 570.734865 212.923991 
L 570.939005 223.035087 
L 571.347264 151.347869 
L 571.551404 142.366686 
L 571.755524 139.677873 
L 572.163804 193.958192 
L 572.367924 237.44214 
L 572.572064 211.708171 
L 572.776184 217.208858 
L 572.980324 266.319323 
L 573.184464 259.631394 
L 573.388584 261.416602 
L 573.592724 250.471022 
L 573.796843 211.00617 
L 574.000983 137.314844 
L 574.205103 241.295234 
L 574.409243 193.488349 
L 574.613383 117.563489 
L 574.817503 204.488271 
L 575.021643 211.661253 
L 575.225763 160.954124 
L 575.429903 195.859139 
L 575.634043 274.48007 
L 575.838162 209.357021 
L 576.042302 217.451645 
L 576.246422 197.2521 
L 576.654682 289.359085 
L 576.858822 256.097625 
L 577.062962 278.03566 
L 577.267082 251.613401 
L 577.471222 241.745125 
L 577.675342 252.156406 
L 577.879482 339.964069 
L 578.083622 325.288517 
L 578.287741 330.420601 
L 578.491881 193.355598 
L 578.900141 332.329521 
L 579.104281 219.696453 
L 579.308401 185.845789 
L 579.512541 196.103957 
L 579.716661 178.298637 
L 579.920801 177.147985 
L 580.32906 260.550704 
L 580.533208 228.197482 
L 580.737328 163.254712 
L 580.941468 139.701025 
L 581.145588 225.002749 
L 581.349728 208.416004 
L 581.553868 201.659134 
L 581.757987 181.254746 
L 581.962127 244.381482 
L 582.166247 235.194541 
L 582.370387 237.904396 
L 582.574507 295.030482 
L 582.778647 209.580552 
L 582.982787 196.90872 
L 583.391047 129.775683 
L 583.595166 148.356456 
L 583.799306 129.85165 
L 584.003446 175.017617 
L 584.207566 118.58137 
L 584.819966 199.196783 
L 585.024086 170.601371 
L 585.228226 237.864109 
L 585.432366 265.268966 
L 585.636486 237.494583 
L 586.044745 106.619864 
L 586.248885 119.290526 
L 586.861285 251.402363 
L 587.473665 157.112093 
L 587.677805 154.389499 
L 587.881945 170.027414 
L 588.086064 211.137161 
L 588.290204 129.761371 
L 588.698464 249.000596 
L 588.902604 249.000596 
L 589.106724 261.927196 
L 589.310864 223.615399 
L 589.514984 233.772423 
L 589.719124 257.85178 
L 589.923244 144.185401 
L 590.331524 205.151402 
L 590.535643 153.756236 
L 590.739783 153.738461 
L 590.943903 113.116006 
L 591.148043 190.86631 
L 591.352163 170.011125 
L 591.556303 106.678421 
L 591.760443 169.025578 
L 591.964563 195.024162 
L 592.168703 156.892593 
L 592.372822 160.039875 
L 592.576962 121.973419 
L 592.781103 164.122422 
L 592.985222 140.199873 
L 593.189362 65.002911 
L 593.393482 89.53656 
L 593.597622 83.033008 
L 593.801742 177.440807 
L 594.005882 117.967171 
L 594.210022 130.31411 
L 594.618282 102.28664 
L 594.822401 26.877188 
L 595.026541 61.9945 
L 595.230661 133.586397 
L 595.434801 145.709452 
L 595.434801 145.709452 
" clip-path="url(#p649ff3600f)" style="fill: none; stroke: #1f77b4; stroke-width: 2; stroke-linecap: square"/>
   </g>
   <g id="patch_3">
    <path d="M 62.798438 414.957188 
L 62.798438 26.877188 
" style="fill: none; stroke: #808080; stroke-width: 2; stroke-linejoin: miter; stroke-linecap: square"/>
   </g>
   <g id="patch_4">
    <path d="M 62.798437 414.957187 
L 620.798437 414.957187 
" style="fill: none; stroke: #808080; stroke-width: 2; stroke-linejoin: miter; stroke-linecap: square"/>
   </g>
   <g id="text_14">
    <!-- Vemund-Tyholt-vinkel -->
    <g style="fill: #808080" transform="translate(246.366094 20.877187) scale(0.18 -0.18)">
     <defs>
      <path id="DejaVuSans-56" d="M 1831 0 
L 50 4666 
L 709 4666 
L 2188 738 
L 3669 4666 
L 4325 4666 
L 2547 0 
L 1831 0 
z
" transform="scale(0.015625)"/>
      <path id="DejaVuSans-75" d="M 544 1381 
L 544 3500 
L 1119 3500 
L 1119 1403 
Q 1119 906 1312 657 
Q 1506 409 1894 409 
Q 2359 409 2629 706 
Q 2900 1003 2900 1516 
L 2900 3500 
L 3475 3500 
L 3475 0 
L 2900 0 
L 2900 538 
Q 2691 219 2414 64 
Q 2138 -91 1772 -91 
Q 1169 -91 856 284 
Q 544 659 544 1381 
z
M 1991 3584 
L 1991 3584 
z
" transform="scale(0.015625)"/>
      <path id="DejaVuSans-6e" d="M 3513 2113 
L 3513 0 
L 2938 0 
L 2938 2094 
Q 2938 2591 2744 2837 
Q 2550 3084 2163 3084 
Q 1697 3084 1428 2787 
Q 1159 2491 1159 1978 
L 1159 0 
L 581 0 
L 581 3500 
L 1159 3500 
L 1159 2956 
Q 1366 3272 1645 3428 
Q 1925 3584 2291 3584 
Q 2894 3584 3203 3211 
Q 3513 2838 3513 2113 
z
" transform="scale(0.015625)"/>
      <path id="DejaVuSans-2d" d="M 313 2009 
L 1997 2009 
L 1997 1497 
L 313 1497 
L 313 2009 
z
" transform="scale(0.015625)"/>
      <path id="DejaVuSans-54" d="M -19 4666 
L 3928 4666 
L 3928 4134 
L 2272 4134 
L 2272 0 
L 1638 0 
L 1638 4134 
L -19 4134 
L -19 4666 
z
" transform="scale(0.015625)"/>
      <path id="DejaVuSans-79" d="M 2059 -325 
Q 1816 -950 1584 -1140 
Q 1353 -1331 966 -1331 
L 506 -1331 
L 506 -850 
L 844 -850 
Q 1081 -850 1212 -737 
Q 1344 -625 1503 -206 
L 1606 56 
L 191 3500 
L 800 3500 
L 1894 763 
L 2988 3500 
L 3597 3500 
L 2059 -325 
z
" transform="scale(0.015625)"/>
      <path id="DejaVuSans-68" d="M 3513 2113 
L 3513 0 
L 2938 0 
L 2938 2094 
Q 2938 2591 2744 2837 
Q 2550 3084 2163 3084 
Q 1697 3084 1428 2787 
Q 1159 2491 1159 1978 
L 1159 0 
L 581 0 
L 581 4863 
L 1159 4863 
L 1159 2956 
Q 1366 3272 1645 3428 
Q 1925 3584 2291 3584 
Q 2894 3584 3203 3211 
Q 3513 2838 3513 2113 
z
" transform="scale(0.015625)"/>
      <path id="DejaVuSans-6f" d="M 1959 3097 
Q 1497 3097 1228 2736 
Q 959 2375 959 1747 
Q 959 1119 1226 758 
Q 1494 397 1959 397 
Q 2419 397 2687 759 
Q 2956 1122 2956 1747 
Q 2956 2369 2687 2733 
Q 2419 3097 1959 3097 
z
M 1959 3584 
Q 2709 3584 3137 3096 
Q 3566 2609 3566 1747 
Q 3566 888 3137 398 
Q 2709 -91 1959 -91 
Q 1206 -91 779 398 
Q 353 888 353 1747 
Q 353 2609 779 3096 
Q 1206 3584 1959 3584 
z
" transform="scale(0.015625)"/>
      <path id="DejaVuSans-6c" d="M 603 4863 
L 1178 4863 
L 1178 0 
L 603 0 
L 603 4863 
z
" transform="scale(0.015625)"/>
      <path id="DejaVuSans-76" d="M 191 3500 
L 800 3500 
L 1894 563 
L 2988 3500 
L 3597 3500 
L 2284 0 
L 1503 0 
L 191 3500 
z
" transform="scale(0.015625)"/>
      <path id="DejaVuSans-6b" d="M 581 4863 
L 1159 4863 
L 1159 1991 
L 2875 3500 
L 3609 3500 
L 1753 1863 
L 3688 0 
L 2938 0 
L 1159 1709 
L 1159 0 
L 581 0 
L 581 4863 
z
" transform="scale(0.015625)"/>
     </defs>
     <use xlink:href="#DejaVuSans-56"/>
     <use xlink:href="#DejaVuSans-65" x="60.658203"/>
     <use xlink:href="#DejaVuSans-6d" x="122.181641"/>
     <use xlink:href="#DejaVuSans-75" x="219.59375"/>
     <use xlink:href="#DejaVuSans-6e" x="282.972656"/>
     <use xlink:href="#DejaVuSans-64" x="346.351562"/>
     <use xlink:href="#DejaVuSans-2d" x="409.828125"/>
     <use xlink:href="#DejaVuSans-54" x="436.787109"/>
     <use xlink:href="#DejaVuSans-79" x="482.246094"/>
     <use xlink:href="#DejaVuSans-68" x="541.425781"/>
     <use xlink:href="#DejaVuSans-6f" x="604.804688"/>
     <use xlink:href="#DejaVuSans-6c" x="665.986328"/>
     <use xlink:href="#DejaVuSans-74" x="693.769531"/>
     <use xlink:href="#DejaVuSans-2d" x="732.978516"/>
     <use xlink:href="#DejaVuSans-76" x="766.4375"/>
     <use xlink:href="#DejaVuSans-69" x="825.617188"/>
     <use xlink:href="#DejaVuSans-6e" x="853.400391"/>
     <use xlink:href="#DejaVuSans-6b" x="916.779297"/>
     <use xlink:href="#DejaVuSans-65" x="971.064453"/>
     <use xlink:href="#DejaVuSans-6c" x="1032.587891"/>
    </g>
   </g>
   <g id="legend_1">
    <g id="patch_5">
     <path d="M 73.298438 407.457187 
L 280.352344 407.457187 
Q 283.352344 407.457187 283.352344 404.457187 
L 283.352344 383.94 
Q 283.352344 380.94 280.352344 380.94 
L 73.298438 380.94 
Q 70.298438 380.94 70.298438 383.94 
L 70.298438 404.457187 
Q 70.298438 407.457187 73.298438 407.457187 
z
" style="fill: #ffffff; opacity: 0.8; stroke: #cccccc; stroke-linejoin: miter"/>
    </g>
    <g id="line2d_24">
     <path d="M 76.298438 393.087656 
L 91.298438 393.087656 
L 106.298438 393.087656 
" style="fill: none; stroke: #1f77b4; stroke-width: 2; stroke-linecap: square"/>
    </g>
    <g id="text_15">
     <!-- Vemund-Tyholt-vinkel -->
     <g style="fill: #808080" transform="translate(118.298438 398.337656) scale(0.15 -0.15)">
      <use xlink:href="#DejaVuSans-56"/>
      <use xlink:href="#DejaVuSans-65" x="60.658203"/>
      <use xlink:href="#DejaVuSans-6d" x="122.181641"/>
      <use xlink:href="#DejaVuSans-75" x="219.59375"/>
      <use xlink:href="#DejaVuSans-6e" x="282.972656"/>
      <use xlink:href="#DejaVuSans-64" x="346.351562"/>
      <use xlink:href="#DejaVuSans-2d" x="409.828125"/>
      <use xlink:href="#DejaVuSans-54" x="436.787109"/>
      <use xlink:href="#DejaVuSans-79" x="482.246094"/>
      <use xlink:href="#DejaVuSans-68" x="541.425781"/>
      <use xlink:href="#DejaVuSans-6f" x="604.804688"/>
      <use xlink:href="#DejaVuSans-6c" x="665.986328"/>
      <use xlink:href="#DejaVuSans-74" x="693.769531"/>
      <use xlink:href="#DejaVuSans-2d" x="732.978516"/>
      <use xlink:href="#DejaVuSans-76" x="766.4375"/>
      <use xlink:href="#DejaVuSans-69" x="825.617188"/>
      <use xlink:href="#DejaVuSans-6e" x="853.400391"/>
      <use xlink:href="#DejaVuSans-6b" x="916.779297"/>
      <use xlink:href="#DejaVuSans-65" x="971.064453"/>
      <use xlink:href="#DejaVuSans-6c" x="1032.587891"/>
     </g>
    </g>
   </g>
  </g>
 </g>
 <defs>
  <clipPath id="p649ff3600f">
   <rect x="62.798438" y="26.877187" width="558" height="388.08"/>
  </clipPath>
 </defs>
</svg>
