<?xml version="1.0" encoding="utf-8" standalone="no"?>
<!DOCTYPE svg PUBLIC "-//W3C//DTD SVG 1.1//EN"
  "http://www.w3.org/Graphics/SVG/1.1/DTD/svg11.dtd">
<svg xmlns:xlink="http://www.w3.org/1999/xlink" width="627.998437pt" height="458.691562pt" viewBox="0 0 627.998437 458.691562" xmlns="http://www.w3.org/2000/svg" version="1.1">
 <metadata>
  <rdf:RDF xmlns:dc="http://purl.org/dc/elements/1.1/" xmlns:cc="http://creativecommons.org/ns#" xmlns:rdf="http://www.w3.org/1999/02/22-rdf-syntax-ns#">
   <cc:Work>
    <dc:type rdf:resource="http://purl.org/dc/dcmitype/StillImage"/>
    <dc:date>2023-03-30T16:06:15.783127</dc:date>
    <dc:format>image/svg+xml</dc:format>
    <dc:creator>
     <cc:Agent>
      <dc:title>Matplotlib v3.7.0, https://matplotlib.org/</dc:title>
     </cc:Agent>
    </dc:creator>
   </cc:Work>
  </rdf:RDF>
 </metadata>
 <defs>
  <style type="text/css">*{stroke-linejoin: round; stroke-linecap: butt}</style>
 </defs>
 <g id="figure_1">
  <g id="patch_1">
   <path d="M 0 458.691562 
L 627.998437 458.691562 
L 627.998437 0 
L 0 0 
L 0 458.691562 
z
" style="fill: none"/>
  </g>
  <g id="axes_1">
   <g id="patch_2">
    <path d="M 62.798438 414.957187 
L 620.798437 414.957187 
L 620.798437 26.877187 
L 62.798438 26.877187 
L 62.798438 414.957187 
z
" style="fill: none"/>
   </g>
   <g id="matplotlib.axis_1">
    <g id="xtick_1">
     <g id="line2d_1">
      <path d="M 125.64248 414.957187 
L 125.64248 26.877187 
" clip-path="url(#pddc1b0ad9e)" style="fill: none; stroke: #808080; stroke-width: 0.8; stroke-linecap: square"/>
     </g>
     <g id="line2d_2">
      <defs>
       <path id="m53daa58004" d="M 0 0 
L 0 -5 
" style="stroke: #808080; stroke-width: 0.8"/>
      </defs>
      <g>
       <use xlink:href="#m53daa58004" x="125.64248" y="414.957187" style="fill: #808080; stroke: #808080; stroke-width: 0.8"/>
      </g>
     </g>
     <g id="text_1">
      <!-- 25 -->
      <g style="fill: #808080" transform="translate(116.09873 429.854844) scale(0.15 -0.15)">
       <defs>
        <path id="DejaVuSans-32" d="M 1228 531 
L 3431 531 
L 3431 0 
L 469 0 
L 469 531 
Q 828 903 1448 1529 
Q 2069 2156 2228 2338 
Q 2531 2678 2651 2914 
Q 2772 3150 2772 3378 
Q 2772 3750 2511 3984 
Q 2250 4219 1831 4219 
Q 1534 4219 1204 4116 
Q 875 4013 500 3803 
L 500 4441 
Q 881 4594 1212 4672 
Q 1544 4750 1819 4750 
Q 2544 4750 2975 4387 
Q 3406 4025 3406 3419 
Q 3406 3131 3298 2873 
Q 3191 2616 2906 2266 
Q 2828 2175 2409 1742 
Q 1991 1309 1228 531 
z
" transform="scale(0.015625)"/>
        <path id="DejaVuSans-35" d="M 691 4666 
L 3169 4666 
L 3169 4134 
L 1269 4134 
L 1269 2991 
Q 1406 3038 1543 3061 
Q 1681 3084 1819 3084 
Q 2600 3084 3056 2656 
Q 3513 2228 3513 1497 
Q 3513 744 3044 326 
Q 2575 -91 1722 -91 
Q 1428 -91 1123 -41 
Q 819 9 494 109 
L 494 744 
Q 775 591 1075 516 
Q 1375 441 1709 441 
Q 2250 441 2565 725 
Q 2881 1009 2881 1497 
Q 2881 1984 2565 2268 
Q 2250 2553 1709 2553 
Q 1456 2553 1204 2497 
Q 953 2441 691 2322 
L 691 4666 
z
" transform="scale(0.015625)"/>
       </defs>
       <use xlink:href="#DejaVuSans-32"/>
       <use xlink:href="#DejaVuSans-35" x="63.623047"/>
      </g>
     </g>
    </g>
    <g id="xtick_2">
     <g id="line2d_3">
      <path d="M 219.59682 414.957187 
L 219.59682 26.877187 
" clip-path="url(#pddc1b0ad9e)" style="fill: none; stroke: #808080; stroke-width: 0.8; stroke-linecap: square"/>
     </g>
     <g id="line2d_4">
      <g>
       <use xlink:href="#m53daa58004" x="219.59682" y="414.957187" style="fill: #808080; stroke: #808080; stroke-width: 0.8"/>
      </g>
     </g>
     <g id="text_2">
      <!-- 30 -->
      <g style="fill: #808080" transform="translate(210.05307 429.854844) scale(0.15 -0.15)">
       <defs>
        <path id="DejaVuSans-33" d="M 2597 2516 
Q 3050 2419 3304 2112 
Q 3559 1806 3559 1356 
Q 3559 666 3084 287 
Q 2609 -91 1734 -91 
Q 1441 -91 1130 -33 
Q 819 25 488 141 
L 488 750 
Q 750 597 1062 519 
Q 1375 441 1716 441 
Q 2309 441 2620 675 
Q 2931 909 2931 1356 
Q 2931 1769 2642 2001 
Q 2353 2234 1838 2234 
L 1294 2234 
L 1294 2753 
L 1863 2753 
Q 2328 2753 2575 2939 
Q 2822 3125 2822 3475 
Q 2822 3834 2567 4026 
Q 2313 4219 1838 4219 
Q 1578 4219 1281 4162 
Q 984 4106 628 3988 
L 628 4550 
Q 988 4650 1302 4700 
Q 1616 4750 1894 4750 
Q 2613 4750 3031 4423 
Q 3450 4097 3450 3541 
Q 3450 3153 3228 2886 
Q 3006 2619 2597 2516 
z
" transform="scale(0.015625)"/>
        <path id="DejaVuSans-30" d="M 2034 4250 
Q 1547 4250 1301 3770 
Q 1056 3291 1056 2328 
Q 1056 1369 1301 889 
Q 1547 409 2034 409 
Q 2525 409 2770 889 
Q 3016 1369 3016 2328 
Q 3016 3291 2770 3770 
Q 2525 4250 2034 4250 
z
M 2034 4750 
Q 2819 4750 3233 4129 
Q 3647 3509 3647 2328 
Q 3647 1150 3233 529 
Q 2819 -91 2034 -91 
Q 1250 -91 836 529 
Q 422 1150 422 2328 
Q 422 3509 836 4129 
Q 1250 4750 2034 4750 
z
" transform="scale(0.015625)"/>
       </defs>
       <use xlink:href="#DejaVuSans-33"/>
       <use xlink:href="#DejaVuSans-30" x="63.623047"/>
      </g>
     </g>
    </g>
    <g id="xtick_3">
     <g id="line2d_5">
      <path d="M 313.551159 414.957187 
L 313.551159 26.877187 
" clip-path="url(#pddc1b0ad9e)" style="fill: none; stroke: #808080; stroke-width: 0.8; stroke-linecap: square"/>
     </g>
     <g id="line2d_6">
      <g>
       <use xlink:href="#m53daa58004" x="313.551159" y="414.957187" style="fill: #808080; stroke: #808080; stroke-width: 0.8"/>
      </g>
     </g>
     <g id="text_3">
      <!-- 35 -->
      <g style="fill: #808080" transform="translate(304.007409 429.854844) scale(0.15 -0.15)">
       <use xlink:href="#DejaVuSans-33"/>
       <use xlink:href="#DejaVuSans-35" x="63.623047"/>
      </g>
     </g>
    </g>
    <g id="xtick_4">
     <g id="line2d_7">
      <path d="M 407.505499 414.957187 
L 407.505499 26.877187 
" clip-path="url(#pddc1b0ad9e)" style="fill: none; stroke: #808080; stroke-width: 0.8; stroke-linecap: square"/>
     </g>
     <g id="line2d_8">
      <g>
       <use xlink:href="#m53daa58004" x="407.505499" y="414.957187" style="fill: #808080; stroke: #808080; stroke-width: 0.8"/>
      </g>
     </g>
     <g id="text_4">
      <!-- 40 -->
      <g style="fill: #808080" transform="translate(397.961749 429.854844) scale(0.15 -0.15)">
       <defs>
        <path id="DejaVuSans-34" d="M 2419 4116 
L 825 1625 
L 2419 1625 
L 2419 4116 
z
M 2253 4666 
L 3047 4666 
L 3047 1625 
L 3713 1625 
L 3713 1100 
L 3047 1100 
L 3047 0 
L 2419 0 
L 2419 1100 
L 313 1100 
L 313 1709 
L 2253 4666 
z
" transform="scale(0.015625)"/>
       </defs>
       <use xlink:href="#DejaVuSans-34"/>
       <use xlink:href="#DejaVuSans-30" x="63.623047"/>
      </g>
     </g>
    </g>
    <g id="xtick_5">
     <g id="line2d_9">
      <path d="M 501.459839 414.957187 
L 501.459839 26.877187 
" clip-path="url(#pddc1b0ad9e)" style="fill: none; stroke: #808080; stroke-width: 0.8; stroke-linecap: square"/>
     </g>
     <g id="line2d_10">
      <g>
       <use xlink:href="#m53daa58004" x="501.459839" y="414.957187" style="fill: #808080; stroke: #808080; stroke-width: 0.8"/>
      </g>
     </g>
     <g id="text_5">
      <!-- 45 -->
      <g style="fill: #808080" transform="translate(491.916089 429.854844) scale(0.15 -0.15)">
       <use xlink:href="#DejaVuSans-34"/>
       <use xlink:href="#DejaVuSans-35" x="63.623047"/>
      </g>
     </g>
    </g>
    <g id="xtick_6">
     <g id="line2d_11">
      <path d="M 595.414178 414.957187 
L 595.414178 26.877187 
" clip-path="url(#pddc1b0ad9e)" style="fill: none; stroke: #808080; stroke-width: 0.8; stroke-linecap: square"/>
     </g>
     <g id="line2d_12">
      <g>
       <use xlink:href="#m53daa58004" x="595.414178" y="414.957187" style="fill: #808080; stroke: #808080; stroke-width: 0.8"/>
      </g>
     </g>
     <g id="text_6">
      <!-- 50 -->
      <g style="fill: #808080" transform="translate(585.870428 429.854844) scale(0.15 -0.15)">
       <use xlink:href="#DejaVuSans-35"/>
       <use xlink:href="#DejaVuSans-30" x="63.623047"/>
      </g>
     </g>
    </g>
    <g id="text_7">
     <!-- time [s] -->
     <g style="fill: #808080" transform="translate(312.711328 448.372031) scale(0.15 -0.15)">
      <defs>
       <path id="DejaVuSans-74" d="M 1172 4494 
L 1172 3500 
L 2356 3500 
L 2356 3053 
L 1172 3053 
L 1172 1153 
Q 1172 725 1289 603 
Q 1406 481 1766 481 
L 2356 481 
L 2356 0 
L 1766 0 
Q 1100 0 847 248 
Q 594 497 594 1153 
L 594 3053 
L 172 3053 
L 172 3500 
L 594 3500 
L 594 4494 
L 1172 4494 
z
" transform="scale(0.015625)"/>
       <path id="DejaVuSans-69" d="M 603 3500 
L 1178 3500 
L 1178 0 
L 603 0 
L 603 3500 
z
M 603 4863 
L 1178 4863 
L 1178 4134 
L 603 4134 
L 603 4863 
z
" transform="scale(0.015625)"/>
       <path id="DejaVuSans-6d" d="M 3328 2828 
Q 3544 3216 3844 3400 
Q 4144 3584 4550 3584 
Q 5097 3584 5394 3201 
Q 5691 2819 5691 2113 
L 5691 0 
L 5113 0 
L 5113 2094 
Q 5113 2597 4934 2840 
Q 4756 3084 4391 3084 
Q 3944 3084 3684 2787 
Q 3425 2491 3425 1978 
L 3425 0 
L 2847 0 
L 2847 2094 
Q 2847 2600 2669 2842 
Q 2491 3084 2119 3084 
Q 1678 3084 1418 2786 
Q 1159 2488 1159 1978 
L 1159 0 
L 581 0 
L 581 3500 
L 1159 3500 
L 1159 2956 
Q 1356 3278 1631 3431 
Q 1906 3584 2284 3584 
Q 2666 3584 2933 3390 
Q 3200 3197 3328 2828 
z
" transform="scale(0.015625)"/>
       <path id="DejaVuSans-65" d="M 3597 1894 
L 3597 1613 
L 953 1613 
Q 991 1019 1311 708 
Q 1631 397 2203 397 
Q 2534 397 2845 478 
Q 3156 559 3463 722 
L 3463 178 
Q 3153 47 2828 -22 
Q 2503 -91 2169 -91 
Q 1331 -91 842 396 
Q 353 884 353 1716 
Q 353 2575 817 3079 
Q 1281 3584 2069 3584 
Q 2775 3584 3186 3129 
Q 3597 2675 3597 1894 
z
M 3022 2063 
Q 3016 2534 2758 2815 
Q 2500 3097 2075 3097 
Q 1594 3097 1305 2825 
Q 1016 2553 972 2059 
L 3022 2063 
z
" transform="scale(0.015625)"/>
       <path id="DejaVuSans-20" transform="scale(0.015625)"/>
       <path id="DejaVuSans-5b" d="M 550 4863 
L 1875 4863 
L 1875 4416 
L 1125 4416 
L 1125 -397 
L 1875 -397 
L 1875 -844 
L 550 -844 
L 550 4863 
z
" transform="scale(0.015625)"/>
       <path id="DejaVuSans-73" d="M 2834 3397 
L 2834 2853 
Q 2591 2978 2328 3040 
Q 2066 3103 1784 3103 
Q 1356 3103 1142 2972 
Q 928 2841 928 2578 
Q 928 2378 1081 2264 
Q 1234 2150 1697 2047 
L 1894 2003 
Q 2506 1872 2764 1633 
Q 3022 1394 3022 966 
Q 3022 478 2636 193 
Q 2250 -91 1575 -91 
Q 1294 -91 989 -36 
Q 684 19 347 128 
L 347 722 
Q 666 556 975 473 
Q 1284 391 1588 391 
Q 1994 391 2212 530 
Q 2431 669 2431 922 
Q 2431 1156 2273 1281 
Q 2116 1406 1581 1522 
L 1381 1569 
Q 847 1681 609 1914 
Q 372 2147 372 2553 
Q 372 3047 722 3315 
Q 1072 3584 1716 3584 
Q 2034 3584 2315 3537 
Q 2597 3491 2834 3397 
z
" transform="scale(0.015625)"/>
       <path id="DejaVuSans-5d" d="M 1947 4863 
L 1947 -844 
L 622 -844 
L 622 -397 
L 1369 -397 
L 1369 4416 
L 622 4416 
L 622 4863 
L 1947 4863 
z
" transform="scale(0.015625)"/>
      </defs>
      <use xlink:href="#DejaVuSans-74"/>
      <use xlink:href="#DejaVuSans-69" x="39.208984"/>
      <use xlink:href="#DejaVuSans-6d" x="66.992188"/>
      <use xlink:href="#DejaVuSans-65" x="164.404297"/>
      <use xlink:href="#DejaVuSans-20" x="225.927734"/>
      <use xlink:href="#DejaVuSans-5b" x="257.714844"/>
      <use xlink:href="#DejaVuSans-73" x="296.728516"/>
      <use xlink:href="#DejaVuSans-5d" x="348.828125"/>
     </g>
    </g>
   </g>
   <g id="matplotlib.axis_2">
    <g id="ytick_1">
     <g id="line2d_13">
      <path d="M 62.798438 354.011511 
L 620.798437 354.011511 
" clip-path="url(#pddc1b0ad9e)" style="fill: none; stroke: #808080; stroke-width: 0.8; stroke-linecap: square"/>
     </g>
     <g id="line2d_14">
      <defs>
       <path id="m77d96dfe41" d="M 0 0 
L 5 0 
" style="stroke: #808080; stroke-width: 0.8"/>
      </defs>
      <g>
       <use xlink:href="#m77d96dfe41" x="62.798438" y="354.011511" style="fill: #808080; stroke: #808080; stroke-width: 0.8"/>
      </g>
     </g>
     <g id="text_8">
      <!-- 63.6 -->
      <g style="fill: #808080" transform="translate(25.9 359.710339) scale(0.15 -0.15)">
       <defs>
        <path id="DejaVuSans-36" d="M 2113 2584 
Q 1688 2584 1439 2293 
Q 1191 2003 1191 1497 
Q 1191 994 1439 701 
Q 1688 409 2113 409 
Q 2538 409 2786 701 
Q 3034 994 3034 1497 
Q 3034 2003 2786 2293 
Q 2538 2584 2113 2584 
z
M 3366 4563 
L 3366 3988 
Q 3128 4100 2886 4159 
Q 2644 4219 2406 4219 
Q 1781 4219 1451 3797 
Q 1122 3375 1075 2522 
Q 1259 2794 1537 2939 
Q 1816 3084 2150 3084 
Q 2853 3084 3261 2657 
Q 3669 2231 3669 1497 
Q 3669 778 3244 343 
Q 2819 -91 2113 -91 
Q 1303 -91 875 529 
Q 447 1150 447 2328 
Q 447 3434 972 4092 
Q 1497 4750 2381 4750 
Q 2619 4750 2861 4703 
Q 3103 4656 3366 4563 
z
" transform="scale(0.015625)"/>
        <path id="DejaVuSans-2e" d="M 684 794 
L 1344 794 
L 1344 0 
L 684 0 
L 684 794 
z
" transform="scale(0.015625)"/>
       </defs>
       <use xlink:href="#DejaVuSans-36"/>
       <use xlink:href="#DejaVuSans-33" x="63.623047"/>
       <use xlink:href="#DejaVuSans-2e" x="127.246094"/>
       <use xlink:href="#DejaVuSans-36" x="159.033203"/>
      </g>
     </g>
    </g>
    <g id="ytick_2">
     <g id="line2d_15">
      <path d="M 62.798438 290.525169 
L 620.798437 290.525169 
" clip-path="url(#pddc1b0ad9e)" style="fill: none; stroke: #808080; stroke-width: 0.8; stroke-linecap: square"/>
     </g>
     <g id="line2d_16">
      <g>
       <use xlink:href="#m77d96dfe41" x="62.798438" y="290.525169" style="fill: #808080; stroke: #808080; stroke-width: 0.8"/>
      </g>
     </g>
     <g id="text_9">
      <!-- 63.8 -->
      <g style="fill: #808080" transform="translate(25.9 296.223998) scale(0.15 -0.15)">
       <defs>
        <path id="DejaVuSans-38" d="M 2034 2216 
Q 1584 2216 1326 1975 
Q 1069 1734 1069 1313 
Q 1069 891 1326 650 
Q 1584 409 2034 409 
Q 2484 409 2743 651 
Q 3003 894 3003 1313 
Q 3003 1734 2745 1975 
Q 2488 2216 2034 2216 
z
M 1403 2484 
Q 997 2584 770 2862 
Q 544 3141 544 3541 
Q 544 4100 942 4425 
Q 1341 4750 2034 4750 
Q 2731 4750 3128 4425 
Q 3525 4100 3525 3541 
Q 3525 3141 3298 2862 
Q 3072 2584 2669 2484 
Q 3125 2378 3379 2068 
Q 3634 1759 3634 1313 
Q 3634 634 3220 271 
Q 2806 -91 2034 -91 
Q 1263 -91 848 271 
Q 434 634 434 1313 
Q 434 1759 690 2068 
Q 947 2378 1403 2484 
z
M 1172 3481 
Q 1172 3119 1398 2916 
Q 1625 2713 2034 2713 
Q 2441 2713 2670 2916 
Q 2900 3119 2900 3481 
Q 2900 3844 2670 4047 
Q 2441 4250 2034 4250 
Q 1625 4250 1398 4047 
Q 1172 3844 1172 3481 
z
" transform="scale(0.015625)"/>
       </defs>
       <use xlink:href="#DejaVuSans-36"/>
       <use xlink:href="#DejaVuSans-33" x="63.623047"/>
       <use xlink:href="#DejaVuSans-2e" x="127.246094"/>
       <use xlink:href="#DejaVuSans-38" x="159.033203"/>
      </g>
     </g>
    </g>
    <g id="ytick_3">
     <g id="line2d_17">
      <path d="M 62.798438 227.038828 
L 620.798437 227.038828 
" clip-path="url(#pddc1b0ad9e)" style="fill: none; stroke: #808080; stroke-width: 0.8; stroke-linecap: square"/>
     </g>
     <g id="line2d_18">
      <g>
       <use xlink:href="#m77d96dfe41" x="62.798438" y="227.038828" style="fill: #808080; stroke: #808080; stroke-width: 0.8"/>
      </g>
     </g>
     <g id="text_10">
      <!-- 64.0 -->
      <g style="fill: #808080" transform="translate(25.9 232.737656) scale(0.15 -0.15)">
       <use xlink:href="#DejaVuSans-36"/>
       <use xlink:href="#DejaVuSans-34" x="63.623047"/>
       <use xlink:href="#DejaVuSans-2e" x="127.246094"/>
       <use xlink:href="#DejaVuSans-30" x="159.033203"/>
      </g>
     </g>
    </g>
    <g id="ytick_4">
     <g id="line2d_19">
      <path d="M 62.798438 163.552487 
L 620.798437 163.552487 
" clip-path="url(#pddc1b0ad9e)" style="fill: none; stroke: #808080; stroke-width: 0.8; stroke-linecap: square"/>
     </g>
     <g id="line2d_20">
      <g>
       <use xlink:href="#m77d96dfe41" x="62.798438" y="163.552487" style="fill: #808080; stroke: #808080; stroke-width: 0.8"/>
      </g>
     </g>
     <g id="text_11">
      <!-- 64.2 -->
      <g style="fill: #808080" transform="translate(25.9 169.251315) scale(0.15 -0.15)">
       <use xlink:href="#DejaVuSans-36"/>
       <use xlink:href="#DejaVuSans-34" x="63.623047"/>
       <use xlink:href="#DejaVuSans-2e" x="127.246094"/>
       <use xlink:href="#DejaVuSans-32" x="159.033203"/>
      </g>
     </g>
    </g>
    <g id="ytick_5">
     <g id="line2d_21">
      <path d="M 62.798438 100.066146 
L 620.798437 100.066146 
" clip-path="url(#pddc1b0ad9e)" style="fill: none; stroke: #808080; stroke-width: 0.8; stroke-linecap: square"/>
     </g>
     <g id="line2d_22">
      <g>
       <use xlink:href="#m77d96dfe41" x="62.798438" y="100.066146" style="fill: #808080; stroke: #808080; stroke-width: 0.8"/>
      </g>
     </g>
     <g id="text_12">
      <!-- 64.4 -->
      <g style="fill: #808080" transform="translate(25.9 105.764974) scale(0.15 -0.15)">
       <use xlink:href="#DejaVuSans-36"/>
       <use xlink:href="#DejaVuSans-34" x="63.623047"/>
       <use xlink:href="#DejaVuSans-2e" x="127.246094"/>
       <use xlink:href="#DejaVuSans-34" x="159.033203"/>
      </g>
     </g>
    </g>
    <g id="ytick_6">
     <g id="line2d_23">
      <path d="M 62.798438 36.579805 
L 620.798437 36.579805 
" clip-path="url(#pddc1b0ad9e)" style="fill: none; stroke: #808080; stroke-width: 0.8; stroke-linecap: square"/>
     </g>
     <g id="line2d_24">
      <g>
       <use xlink:href="#m77d96dfe41" x="62.798438" y="36.579805" style="fill: #808080; stroke: #808080; stroke-width: 0.8"/>
      </g>
     </g>
     <g id="text_13">
      <!-- 64.6 -->
      <g style="fill: #808080" transform="translate(25.9 42.278633) scale(0.15 -0.15)">
       <use xlink:href="#DejaVuSans-36"/>
       <use xlink:href="#DejaVuSans-34" x="63.623047"/>
       <use xlink:href="#DejaVuSans-2e" x="127.246094"/>
       <use xlink:href="#DejaVuSans-36" x="159.033203"/>
      </g>
     </g>
    </g>
    <g id="text_14">
     <!-- $\theta$ [deg] -->
     <g style="fill: #808080" transform="translate(18.75 247.917187) rotate(-90) scale(0.15 -0.15)">
      <defs>
       <path id="DejaVuSans-Oblique-3b8" d="M 2913 2219 
L 925 2219 
Q 791 1284 928 888 
Q 1100 400 1566 400 
Q 2034 400 2391 891 
Q 2703 1322 2913 2219 
z
M 3009 2750 
Q 3094 3638 2984 3950 
Q 2813 4444 2353 4444 
Q 1875 4444 1525 3956 
Q 1250 3563 1034 2750 
L 3009 2750 
z
M 2444 4913 
Q 3194 4913 3494 4250 
Q 3794 3591 3566 2422 
Q 3341 1256 2781 594 
Q 2225 -72 1475 -72 
Q 722 -72 425 594 
Q 128 1256 353 2422 
Q 581 3591 1134 4250 
Q 1691 4913 2444 4913 
z
" transform="scale(0.015625)"/>
       <path id="DejaVuSans-64" d="M 2906 2969 
L 2906 4863 
L 3481 4863 
L 3481 0 
L 2906 0 
L 2906 525 
Q 2725 213 2448 61 
Q 2172 -91 1784 -91 
Q 1150 -91 751 415 
Q 353 922 353 1747 
Q 353 2572 751 3078 
Q 1150 3584 1784 3584 
Q 2172 3584 2448 3432 
Q 2725 3281 2906 2969 
z
M 947 1747 
Q 947 1113 1208 752 
Q 1469 391 1925 391 
Q 2381 391 2643 752 
Q 2906 1113 2906 1747 
Q 2906 2381 2643 2742 
Q 2381 3103 1925 3103 
Q 1469 3103 1208 2742 
Q 947 2381 947 1747 
z
" transform="scale(0.015625)"/>
       <path id="DejaVuSans-67" d="M 2906 1791 
Q 2906 2416 2648 2759 
Q 2391 3103 1925 3103 
Q 1463 3103 1205 2759 
Q 947 2416 947 1791 
Q 947 1169 1205 825 
Q 1463 481 1925 481 
Q 2391 481 2648 825 
Q 2906 1169 2906 1791 
z
M 3481 434 
Q 3481 -459 3084 -895 
Q 2688 -1331 1869 -1331 
Q 1566 -1331 1297 -1286 
Q 1028 -1241 775 -1147 
L 775 -588 
Q 1028 -725 1275 -790 
Q 1522 -856 1778 -856 
Q 2344 -856 2625 -561 
Q 2906 -266 2906 331 
L 2906 616 
Q 2728 306 2450 153 
Q 2172 0 1784 0 
Q 1141 0 747 490 
Q 353 981 353 1791 
Q 353 2603 747 3093 
Q 1141 3584 1784 3584 
Q 2172 3584 2450 3431 
Q 2728 3278 2906 2969 
L 2906 3500 
L 3481 3500 
L 3481 434 
z
" transform="scale(0.015625)"/>
      </defs>
      <use xlink:href="#DejaVuSans-Oblique-3b8" transform="translate(0 0.234375)"/>
      <use xlink:href="#DejaVuSans-20" transform="translate(61.181641 0.234375)"/>
      <use xlink:href="#DejaVuSans-5b" transform="translate(92.96875 0.234375)"/>
      <use xlink:href="#DejaVuSans-64" transform="translate(131.982422 0.234375)"/>
      <use xlink:href="#DejaVuSans-65" transform="translate(195.458984 0.234375)"/>
      <use xlink:href="#DejaVuSans-67" transform="translate(256.982422 0.234375)"/>
      <use xlink:href="#DejaVuSans-5d" transform="translate(320.458984 0.234375)"/>
     </g>
    </g>
   </g>
   <g id="line2d_25">
    <path d="M 88.162074 220.019731 
L 88.350997 232.643757 
L 88.728863 286.692596 
L 89.106707 206.203703 
L 89.484573 213.524764 
L 89.673496 251.461704 
L 89.862438 236.47695 
L 90.051362 242.760119 
L 90.240285 199.528081 
L 90.429227 209.773992 
L 90.618151 213.691037 
L 90.807074 178.705581 
L 90.996016 176.644572 
L 91.18494 199.358216 
L 91.373882 258.299536 
L 91.940671 220.949099 
L 92.129594 228.989505 
L 92.318518 229.285006 
L 92.50746 260.432085 
L 92.696383 257.977554 
L 92.885307 243.21477 
L 93.074249 264.88618 
L 93.263172 269.833649 
L 93.452095 241.069307 
L 93.641038 250.931979 
L 93.829961 212.566099 
L 94.018884 228.657075 
L 94.207827 181.75644 
L 94.39675 218.155729 
L 94.585673 197.322618 
L 94.774615 237.160834 
L 95.152462 167.169997 
L 95.71927 261.87785 
L 95.908194 265.731343 
L 96.097117 217.029791 
L 96.286059 207.146406 
L 96.474982 240.212056 
L 96.663906 235.038588 
L 96.852848 235.079877 
L 97.041771 226.825262 
L 97.230695 206.545095 
L 97.419637 247.446709 
L 97.797484 178.17533 
L 97.986426 161.559636 
L 98.175349 133.258114 
L 98.364273 208.175533 
L 98.742138 179.659268 
L 98.931062 220.402002 
L 99.120004 153.381346 
L 99.308927 219.739294 
L 99.497851 205.803955 
L 99.686793 248.44201 
L 99.875716 214.780715 
L 100.064658 215.087993 
L 100.253582 203.346207 
L 100.442505 242.599473 
L 100.631447 188.62699 
L 100.820371 247.973338 
L 101.009294 209.036812 
L 101.198236 277.163508 
L 101.576083 222.625599 
L 101.765025 260.298052 
L 101.953948 190.277291 
L 102.142872 161.850105 
L 102.331814 208.714494 
L 102.520738 178.912345 
L 102.709661 174.717804 
L 102.898603 187.314865 
L 103.087526 230.347801 
L 103.27645 246.091112 
L 103.465392 222.573103 
L 103.654315 219.873241 
L 103.843239 184.741921 
L 104.032181 242.222432 
L 104.221104 242.656039 
L 104.410028 249.629064 
L 104.59897 211.01493 
L 104.787893 252.697805 
L 104.976835 257.271763 
L 105.543624 158.92123 
L 105.732548 173.026857 
L 106.110413 253.273523 
L 106.299337 252.573848 
L 106.48826 204.267109 
L 106.677202 208.315059 
L 106.866126 219.152972 
L 107.055049 201.009995 
L 107.243991 144.381302 
L 107.432915 144.381302 
L 107.621838 177.824831 
L 107.810773 191.428806 
L 107.999696 167.560684 
L 108.18862 188.3808 
L 108.566485 143.49072 
L 108.755409 141.108155 
L 108.944351 125.022429 
L 109.133274 162.62534 
L 109.322198 106.010806 
L 109.51114 164.392916 
L 109.700063 157.752685 
L 109.888987 163.955818 
L 110.077929 144.127722 
L 110.266852 185.308565 
L 110.455776 195.699583 
L 110.644718 240.346919 
L 110.833641 247.64382 
L 111.022565 209.185239 
L 111.211507 196.21571 
L 111.40043 167.318048 
L 111.589372 171.408623 
L 111.778296 149.79206 
L 112.156161 193.955539 
L 112.345085 204.152394 
L 112.534008 202.336581 
L 112.72295 148.560543 
L 112.911874 153.703687 
L 113.100797 134.104628 
L 113.289739 127.277543 
L 113.478663 147.563161 
L 113.667586 194.378702 
L 113.856528 156.042859 
L 114.045452 145.794802 
L 114.234375 141.886339 
L 114.423317 188.71462 
L 114.61224 175.358226 
L 114.801164 172.336074 
L 114.990106 172.768448 
L 115.179029 204.386842 
L 115.367953 184.084431 
L 115.556895 182.827512 
L 115.745818 163.548387 
L 115.934742 162.53362 
L 116.123684 170.063113 
L 116.312607 203.511762 
L 116.501531 168.418053 
L 116.690473 218.363097 
L 116.879396 223.140329 
L 117.06832 202.504473 
L 117.257262 235.802788 
L 117.446185 218.724151 
L 117.635109 252.267856 
L 117.824051 218.612476 
L 118.012974 251.055593 
L 118.201916 216.747295 
L 118.39084 237.36157 
L 118.579763 187.906167 
L 118.957629 233.801502 
L 119.146552 233.701372 
L 119.335494 223.077079 
L 119.524418 230.581392 
L 119.713341 189.307753 
L 120.091207 238.674378 
L 120.28013 248.740181 
L 120.469072 172.08574 
L 120.657996 204.790892 
L 120.846919 205.462771 
L 121.035861 254.691812 
L 121.224784 176.943709 
L 121.413708 171.929329 
L 121.60265 190.603983 
L 121.791573 150.902986 
L 121.980497 148.503371 
L 122.169439 167.418575 
L 122.547286 154.039767 
L 122.736228 174.54681 
L 123.114075 154.192632 
L 123.303017 181.693157 
L 123.49194 130.734041 
L 123.680864 197.249014 
L 123.869806 202.638762 
L 124.058729 219.638612 
L 124.247653 203.010022 
L 124.436595 204.460362 
L 124.814442 88.680867 
L 125.192307 181.766661 
L 125.381231 183.787346 
L 125.570173 158.424003 
L 125.759096 158.117009 
L 125.948019 195.011091 
L 126.136962 196.856096 
L 126.325885 202.965304 
L 126.51482 202.375205 
L 126.703762 169.06457 
L 126.892686 163.218929 
L 127.081628 204.780428 
L 127.270551 206.029157 
L 127.459475 219.510692 
L 127.648417 215.971933 
L 127.83734 207.980274 
L 128.026264 162.481441 
L 128.215206 163.471995 
L 128.404129 166.508492 
L 128.593053 167.661311 
L 128.781995 219.816711 
L 128.970918 175.082526 
L 129.159841 219.687447 
L 129.348784 180.03534 
L 129.537707 165.887677 
L 129.726631 161.092888 
L 129.915573 189.467132 
L 130.104496 189.467132 
L 130.29342 209.442901 
L 130.482362 207.363714 
L 130.671285 128.411736 
L 130.860208 172.413069 
L 131.04915 163.559419 
L 131.238074 140.898995 
L 131.426997 174.160413 
L 131.61594 153.480503 
L 131.804863 168.333256 
L 131.993786 207.318205 
L 132.182728 131.262921 
L 132.371652 115.599557 
L 132.560575 133.565874 
L 132.749517 132.23054 
L 132.938441 230.879527 
L 133.316306 149.076193 
L 133.50523 163.807908 
L 133.694153 131.790419 
L 134.638808 205.156951 
L 134.827731 188.961696 
L 135.016673 193.719393 
L 135.205597 226.985269 
L 135.39452 234.722763 
L 135.583462 182.560256 
L 135.772385 213.779361 
L 135.961309 162.571755 
L 136.150251 162.166689 
L 136.339174 144.846319 
L 136.528098 175.172161 
L 136.71704 176.478343 
L 136.905964 210.909642 
L 137.283829 159.110597 
L 137.472752 164.269752 
L 137.661676 226.368135 
L 138.039541 152.271753 
L 138.228465 137.610262 
L 138.417407 210.941511 
L 138.795254 161.488659 
L 138.984196 189.999858 
L 139.173119 166.764058 
L 139.362043 169.637766 
L 139.550985 155.903784 
L 139.739908 184.744073 
L 139.928832 119.521517 
L 140.117774 163.474732 
L 140.495621 149.54695 
L 140.684563 125.519206 
L 140.873486 125.011104 
L 141.062409 132.924629 
L 141.251352 148.022943 
L 141.440275 95.777209 
L 141.629198 144.197789 
L 142.007064 159.211977 
L 142.195987 155.800426 
L 142.384929 124.010531 
L 142.573853 120.796467 
L 142.762776 147.120161 
L 142.951718 98.55819 
L 143.140642 155.712075 
L 143.329565 158.45364 
L 143.518508 196.457943 
L 143.707431 211.523808 
L 143.896354 164.602554 
L 144.085296 148.627226 
L 144.27422 151.666693 
L 144.463143 172.58333 
L 144.652085 172.404525 
L 144.841009 171.123304 
L 145.029932 195.601142 
L 145.218874 167.21483 
L 145.407798 171.369041 
L 145.785663 244.180533 
L 146.16351 166.230164 
L 146.352452 192.88447 
L 146.541375 163.096426 
L 146.730299 155.395955 
L 146.919241 208.729848 
L 147.108165 183.000337 
L 147.297107 225.420782 
L 147.48603 159.736508 
L 147.674953 204.24264 
L 147.863877 211.685975 
L 148.619608 164.111705 
L 148.808531 167.140974 
L 148.997455 209.347411 
L 149.186397 149.843944 
L 149.37532 152.004227 
L 149.564244 198.977929 
L 149.753186 102.012604 
L 149.942109 198.553488 
L 150.131033 174.909645 
L 150.319975 168.7793 
L 150.508898 171.046995 
L 150.697822 167.126925 
L 150.886764 144.810776 
L 151.075687 184.769023 
L 151.26461 188.964686 
L 151.453553 219.309769 
L 152.020342 129.771702 
L 152.209265 180.129741 
L 152.398189 186.787463 
L 152.587131 186.787463 
L 152.964977 177.268714 
L 153.342843 90.315917 
L 153.531766 108.310958 
L 153.720709 43.213854 
L 154.098555 148.73961 
L 154.287498 156.89067 
L 154.476421 178.11346 
L 154.665344 126.804207 
L 154.854286 176.849278 
L 155.04321 160.63939 
L 155.232133 196.167061 
L 155.421075 205.929394 
L 155.609999 179.367676 
L 155.798922 183.720545 
L 155.987864 158.473999 
L 156.176788 211.405768 
L 156.365711 153.457576 
L 156.554653 143.199825 
L 156.9325 84.690594 
L 157.121442 66.107297 
L 157.499289 122.773379 
L 157.688231 144.059049 
L 157.877154 100.736787 
L 158.066078 142.382883 
L 158.25502 135.143313 
L 158.443943 121.867131 
L 158.632867 59.0762 
L 158.821809 156.966776 
L 159.010733 125.706297 
L 159.199656 183.246641 
L 159.388598 203.886911 
L 159.577522 125.616725 
L 159.766445 138.20509 
L 159.955387 139.852703 
L 160.522176 158.362033 
L 160.711099 151.695792 
L 161.088965 88.564564 
L 161.466812 149.838341 
L 161.655754 123.118713 
L 161.844677 132.276348 
L 162.222543 165.755962 
L 162.411466 116.391655 
L 162.60039 98.741878 
L 162.789332 130.704396 
L 162.978255 138.587301 
L 163.167178 134.643038 
L 163.356121 87.058983 
L 163.545044 142.862844 
L 163.733967 129.397262 
L 163.92291 188.022994 
L 164.111833 145.283271 
L 164.489702 123.911706 
L 164.678625 151.231701 
L 164.867548 134.567247 
L 165.056491 193.367718 
L 165.434337 97.773464 
L 165.62328 101.889132 
L 166.001126 95.632435 
L 166.190069 117.801459 
L 166.378992 80.444672 
L 166.567915 201.209776 
L 166.945781 146.566452 
L 167.134704 121.339698 
L 167.51257 115.991913 
L 167.701493 103.893082 
L 167.890417 118.354875 
L 168.079359 172.362544 
L 168.268282 126.547318 
L 168.457206 138.694906 
L 168.646148 94.439768 
L 168.835071 96.81659 
L 169.212937 142.837455 
L 169.40186 135.648622 
L 169.968649 182.718128 
L 170.157572 95.900468 
L 170.535438 170.045104 
L 170.724361 139.565169 
L 170.913303 153.455897 
L 171.102227 130.82163 
L 171.29115 141.541838 
L 171.480092 134.726131 
L 171.669016 161.292237 
L 171.857939 118.885562 
L 172.046881 130.701376 
L 172.235805 178.544693 
L 172.424728 148.156115 
L 172.61367 203.450258 
L 172.802594 170.07673 
L 172.991517 179.295205 
L 173.180459 173.359347 
L 173.369383 115.330621 
L 173.747248 99.78234 
L 173.936172 129.233342 
L 174.125095 88.389644 
L 174.314037 103.772672 
L 174.691884 151.025729 
L 174.880826 121.556251 
L 175.06975 121.556251 
L 175.258673 138.563867 
L 175.447615 74.716369 
L 175.636538 83.0021 
L 175.825462 104.983255 
L 176.014404 144.35457 
L 176.203327 143.918456 
L 176.392251 140.552092 
L 176.581193 70.083426 
L 176.770116 118.667942 
L 176.95904 84.623754 
L 177.147963 97.695001 
L 177.714752 192.011386 
L 177.903694 205.158586 
L 178.092618 152.043111 
L 178.281541 133.287517 
L 178.470483 135.23636 
L 178.659407 139.167477 
L 178.84833 128.373061 
L 179.037272 154.201864 
L 179.226196 139.736415 
L 179.415119 155.809277 
L 179.604061 183.196466 
L 179.792985 169.305791 
L 179.981908 164.002363 
L 180.17085 155.090259 
L 180.548697 184.453798 
L 180.737639 84.096248 
L 181.115486 163.809087 
L 181.304428 191.702933 
L 181.493351 149.363411 
L 181.682275 160.318989 
L 181.871217 119.174388 
L 182.06014 134.915355 
L 182.249064 193.233889 
L 182.438006 154.676783 
L 182.626929 195.722569 
L 182.815853 185.823115 
L 183.004794 155.485398 
L 183.193717 173.224043 
L 183.382641 168.128609 
L 183.571583 130.676819 
L 183.94943 182.491306 
L 184.138353 115.470527 
L 184.705142 159.124886 
L 184.894084 205.243945 
L 185.271931 132.98654 
L 185.460873 125.649381 
L 185.83872 148.335884 
L 186.027662 159.127974 
L 186.216586 220.216207 
L 186.405509 207.465542 
L 186.594451 216.599978 
L 186.783375 208.845069 
L 186.972298 136.961892 
L 187.16124 163.03272 
L 187.350163 152.631972 
L 187.539087 151.995754 
L 187.728029 173.105511 
L 187.916952 117.326247 
L 188.294818 142.535001 
L 188.483741 134.900884 
L 188.672665 83.571103 
L 189.05053 145.982606 
L 189.239454 226.062453 
L 189.617319 162.903454 
L 189.806243 199.250738 
L 189.995166 155.899166 
L 190.184108 233.718989 
L 190.561955 147.069406 
L 190.939821 214.12404 
L 191.128744 170.511926 
L 191.317686 191.918261 
L 191.50661 163.096125 
L 191.695533 164.302495 
L 191.884475 141.851115 
L 192.073398 134.505186 
L 192.262322 119.125275 
L 192.640187 165.424444 
L 192.829111 136.568285 
L 193.018053 155.520251 
L 193.206976 115.399451 
L 193.3959 143.082388 
L 193.584842 145.734814 
L 193.962689 183.236129 
L 194.151631 139.400607 
L 194.340554 183.823595 
L 194.529478 180.370686 
L 194.718401 221.906097 
L 194.907343 177.222045 
L 195.28519 158.970809 
L 195.474132 248.583884 
L 195.663056 165.183376 
L 195.851979 171.750727 
L 196.040921 139.210491 
L 196.229844 141.266807 
L 196.418768 130.379619 
L 196.60771 130.970449 
L 196.796633 83.11749 
L 197.174499 210.808834 
L 197.741288 167.636989 
L 197.930211 167.636989 
L 198.119135 200.043582 
L 198.308077 164.319536 
L 198.497 170.441317 
L 198.685924 150.687357 
L 198.874866 184.818379 
L 199.063789 124.368164 
L 199.630578 163.413901 
L 199.819502 133.654815 
L 200.008425 134.082922 
L 200.197367 104.351027 
L 200.764156 207.652964 
L 201.142003 111.962391 
L 201.330945 171.023486 
L 201.519868 111.124919 
L 201.708792 185.268229 
L 201.897727 177.372027 
L 202.08665 160.194892 
L 202.275574 192.342609 
L 202.464516 192.506335 
L 202.653439 219.28663 
L 202.842363 180.027837 
L 203.031286 211.48329 
L 203.220228 221.533311 
L 203.409152 204.31334 
L 203.598075 174.439034 
L 203.787017 184.570343 
L 203.975941 115.30533 
L 204.164864 181.235746 
L 204.353806 154.740328 
L 204.542729 152.942893 
L 204.731653 116.947017 
L 204.920595 184.883316 
L 205.109518 181.167343 
L 205.298442 228.736012 
L 205.487384 171.861177 
L 205.676308 167.653682 
L 205.865231 218.27701 
L 206.054173 172.072856 
L 206.243096 166.150101 
L 206.43202 185.830992 
L 206.620943 154.890007 
L 206.809885 219.826407 
L 206.998809 226.378721 
L 207.187732 178.734373 
L 207.376674 177.555287 
L 207.565598 195.299355 
L 207.754521 173.128843 
L 207.943463 172.409892 
L 208.32131 131.112724 
L 208.510252 154.071281 
L 208.699176 157.212103 
L 208.888099 154.394101 
L 209.077041 143.56632 
L 209.265965 153.754204 
L 209.454888 182.513035 
L 209.64383 122.404694 
L 209.832753 106.012589 
L 210.2106 97.938515 
L 210.399542 106.560389 
L 210.588466 161.963577 
L 210.777389 144.460908 
L 210.966331 115.539735 
L 211.155255 131.298928 
L 211.344178 118.376871 
L 211.53312 94.324695 
L 211.722044 106.248607 
L 211.910967 136.369896 
L 212.099909 140.958663 
L 212.288833 196.551044 
L 212.477756 156.928707 
L 212.666698 215.396313 
L 212.855622 170.241521 
L 213.233487 135.167831 
L 213.42241 148.530815 
L 213.611334 141.697633 
L 213.800257 205.381425 
L 214.178123 146.478524 
L 214.367046 140.699202 
L 214.555989 171.883165 
L 214.744912 150.816498 
L 214.933835 147.611081 
L 215.122777 175.305906 
L 215.500624 127.776193 
L 215.689566 145.41398 
L 215.87849 152.107856 
L 216.256355 189.245355 
L 216.445279 121.684073 
L 216.823126 174.583443 
L 217.012068 165.816234 
L 217.200991 166.101248 
L 217.389914 126.499345 
L 217.578857 179.360307 
L 217.76778 158.6014 
L 217.956703 111.108781 
L 218.145646 121.427634 
L 218.523492 194.8308 
L 218.712434 199.684998 
L 218.901358 210.132178 
L 219.279223 139.05639 
L 219.468147 197.838941 
L 219.65707 178.65987 
L 219.846012 177.221546 
L 220.034936 208.998526 
L 220.223859 138.341391 
L 220.412782 138.341391 
L 220.601725 113.767693 
L 220.790648 112.914116 
L 220.979571 133.351952 
L 221.168514 131.081682 
L 221.357437 136.147697 
L 221.546361 184.56907 
L 221.735303 199.337557 
L 221.924226 155.61111 
L 222.113149 156.000736 
L 222.302091 127.046102 
L 222.491015 174.525107 
L 222.679938 140.943023 
L 222.868862 154.327189 
L 223.057804 152.76194 
L 223.435651 228.776718 
L 223.624593 240.05353 
L 223.813516 237.837448 
L 224.002439 222.957822 
L 224.191382 145.841569 
L 224.569228 260.366366 
L 224.758171 171.125595 
L 224.947094 188.099409 
L 225.136018 141.99691 
L 225.32496 160.025108 
L 225.513883 123.28315 
L 225.89173 243.174541 
L 226.269595 146.341925 
L 226.647461 201.334149 
L 227.21425 110.541704 
L 227.403173 132.157507 
L 227.781039 66.724238 
L 227.969962 108.973694 
L 228.158886 117.124293 
L 228.347809 130.574409 
L 228.536751 134.419243 
L 228.725675 124.519575 
L 228.914598 140.623539 
L 229.10354 120.052632 
L 229.292463 129.328341 
L 229.481387 128.944167 
L 229.670329 201.772478 
L 230.048176 168.514346 
L 230.237118 153.947742 
L 230.426042 213.308928 
L 230.614965 182.535948 
L 230.803888 190.741932 
L 230.99283 132.112861 
L 231.181754 140.057078 
L 231.370677 162.709819 
L 231.559619 170.334862 
L 231.748543 206.357783 
L 231.937466 194.240962 
L 232.126408 201.063141 
L 232.315332 194.493601 
L 232.693197 141.042357 
L 232.882121 152.991684 
L 233.071044 143.427314 
L 233.259967 141.348452 
L 233.44891 173.748513 
L 233.637833 183.387292 
L 233.826756 221.780071 
L 234.015699 178.811896 
L 234.204622 182.706746 
L 234.393545 143.325245 
L 234.582487 223.460605 
L 234.771411 157.319537 
L 234.960334 151.538758 
L 235.3382 162.474135 
L 235.527123 123.997899 
L 235.716065 163.231707 
L 235.904989 124.937187 
L 236.093912 120.117073 
L 236.282836 170.447605 
L 236.471778 167.355815 
L 236.660701 159.578877 
L 236.849624 172.61966 
L 237.038567 104.46762 
L 237.22749 168.4087 
L 237.416413 162.944773 
L 237.605356 205.755148 
L 237.983202 147.320147 
L 238.172144 137.327819 
L 238.361068 176.329028 
L 238.549991 121.354968 
L 238.738915 142.447834 
L 238.927857 122.212352 
L 239.11678 148.903546 
L 239.305704 106.964395 
L 239.494658 112.222656 
L 239.872505 147.233879 
L 240.061447 187.013475 
L 240.250371 134.145386 
L 240.439294 121.82661 
L 240.628217 153.953688 
L 240.81716 137.162649 
L 241.006083 147.707519 
L 241.195006 144.317586 
L 241.383949 150.976872 
L 241.572872 81.748204 
L 241.761795 128.453456 
L 241.950737 117.317735 
L 242.139661 115.678291 
L 242.328584 81.750034 
L 242.517526 119.294103 
L 242.70645 114.822994 
L 242.895373 114.822994 
L 243.084297 139.86115 
L 243.273239 105.735329 
L 243.462162 106.275104 
L 243.651086 121.484923 
L 243.840028 100.192479 
L 244.028951 101.549973 
L 244.217875 26.877188 
L 244.406817 98.186974 
L 244.59574 123.735528 
L 244.784663 120.99948 
L 244.973606 143.261672 
L 245.162529 123.135031 
L 245.351452 118.730984 
L 245.540376 152.955137 
L 245.729318 158.914397 
L 246.107165 96.461719 
L 246.296107 142.701012 
L 246.673954 120.593543 
L 246.862896 145.3326 
L 247.051819 149.353176 
L 247.240743 113.570501 
L 247.429666 118.184469 
L 247.618608 107.241167 
L 247.807532 110.084125 
L 247.996455 82.292208 
L 248.374321 196.81575 
L 248.563244 146.2269 
L 248.941109 155.138235 
L 249.130033 102.120919 
L 249.318956 117.801265 
L 249.507898 115.850367 
L 249.696822 115.798916 
L 249.885745 113.121539 
L 250.074687 100.068324 
L 250.263611 96.88043 
L 250.641476 150.822694 
L 250.8304 134.888872 
L 251.019323 130.505576 
L 251.208265 188.072462 
L 251.586112 130.3031 
L 251.963978 207.143679 
L 252.152901 197.970926 
L 252.341824 227.856433 
L 252.530767 212.161522 
L 252.71969 178.819281 
L 252.908613 193.448652 
L 253.097556 178.876803 
L 253.286479 188.443681 
L 253.475402 191.839022 
L 253.853268 139.402127 
L 254.042191 192.290436 
L 254.231115 182.270045 
L 254.420057 165.429964 
L 254.60898 203.352101 
L 254.797904 170.099254 
L 254.986827 164.15497 
L 255.175769 152.528473 
L 255.364693 159.924719 
L 255.553616 124.766341 
L 255.931481 218.507033 
L 256.120405 159.454887 
L 256.49827 143.964746 
L 256.687194 200.481746 
L 256.876136 160.680407 
L 257.065059 187.719333 
L 257.442906 170.695378 
L 257.631848 148.480423 
L 257.820772 140.900622 
L 258.009695 118.866067 
L 258.198637 121.517425 
L 258.38756 114.42623 
L 258.576483 135.803355 
L 258.954349 213.278278 
L 259.143272 215.569968 
L 259.521138 129.102682 
L 259.710061 215.219193 
L 259.898985 175.159158 
L 260.465774 131.879434 
L 260.654716 168.138892 
L 261.032562 135.650529 
L 261.221486 165.816105 
L 261.410428 168.898847 
L 261.599351 236.064292 
L 261.788275 193.347568 
L 261.977217 194.599739 
L 262.16614 220.783196 
L 262.355064 231.092048 
L 262.544006 202.107927 
L 262.732929 237.198798 
L 262.921853 235.744024 
L 263.110776 241.477944 
L 263.299718 196.910005 
L 263.677565 159.439957 
L 263.866507 158.265632 
L 264.055431 160.935783 
L 264.433296 153.51751 
L 264.62222 143.780037 
L 265.000066 170.061862 
L 265.566855 122.184808 
L 266.133644 208.158857 
L 266.322568 191.06057 
L 266.51151 160.360545 
L 266.700433 180.559994 
L 266.889357 183.935135 
L 267.267222 123.853789 
L 267.456146 133.509892 
L 267.645088 187.286058 
L 267.834011 122.459351 
L 268.022934 157.458531 
L 268.4008 107.078339 
L 268.589723 146.0512 
L 268.778647 122.804756 
L 268.967589 173.770934 
L 269.156512 178.887988 
L 269.345436 137.865018 
L 269.534378 182.121731 
L 269.723301 155.294198 
L 269.912225 102.984639 
L 270.101148 141.694692 
L 270.29009 105.722524 
L 270.479014 102.600341 
L 270.667937 108.63027 
L 270.856879 100.515008 
L 271.045803 97.280088 
L 271.234726 132.549502 
L 271.423649 125.742207 
L 271.801515 175.817144 
L 271.990438 127.604638 
L 272.17938 169.911021 
L 272.368304 124.589615 
L 272.557227 160.946524 
L 272.746169 143.917547 
L 272.935093 186.721288 
L 273.124016 181.852053 
L 273.31294 192.349636 
L 273.501882 185.486113 
L 273.690805 142.998288 
L 273.879729 143.319669 
L 274.068671 146.762296 
L 274.257594 100.193949 
L 274.446517 154.297291 
L 274.824383 97.00989 
L 275.20223 164.636617 
L 275.391172 169.116773 
L 275.580095 128.474858 
L 275.769019 172.961663 
L 276.335808 214.095309 
L 276.713673 204.915565 
L 277.09152 178.16269 
L 277.469386 204.383115 
L 277.658309 211.749472 
L 277.847251 212.032345 
L 278.225098 169.317925 
L 278.414021 179.724936 
L 278.602964 234.055707 
L 278.791887 254.863479 
L 278.98081 259.180762 
L 279.358676 180.00672 
L 279.547599 223.557465 
L 279.736523 218.266332 
L 279.925465 196.547503 
L 280.114388 203.782602 
L 280.303312 221.493366 
L 280.492254 222.749489 
L 280.681177 228.639282 
L 280.870101 244.704584 
L 281.059024 242.274114 
L 281.247966 248.736472 
L 281.436889 246.919853 
L 281.625813 238.115995 
L 281.814755 168.225685 
L 282.192602 220.155166 
L 282.381544 220.380544 
L 282.570467 216.227392 
L 282.759391 207.689879 
L 282.948314 161.157445 
L 283.137256 157.516669 
L 283.32618 176.384072 
L 283.515103 176.102348 
L 283.704045 202.856245 
L 283.892969 176.61049 
L 284.081892 218.927429 
L 284.270815 233.26294 
L 284.459758 219.406287 
L 284.648681 184.032779 
L 284.837604 213.989753 
L 285.026547 148.860921 
L 285.21547 175.118124 
L 285.404393 219.922281 
L 285.593317 182.298539 
L 285.782259 190.088235 
L 285.971182 245.922954 
L 286.160106 205.137757 
L 286.349048 199.007587 
L 286.537971 201.011705 
L 286.726895 218.419931 
L 286.915837 191.890586 
L 287.10476 212.27473 
L 287.293684 171.098332 
L 287.482607 190.151257 
L 287.671549 188.406819 
L 287.860473 229.298811 
L 288.049396 194.989836 
L 288.238338 194.989836 
L 288.427261 182.835766 
L 288.616185 151.993044 
L 288.805108 193.758654 
L 288.99405 161.257831 
L 289.182974 180.044851 
L 289.371897 156.471324 
L 289.749763 221.061097 
L 290.12761 168.028965 
L 290.316552 223.212958 
L 290.505475 162.629608 
L 290.694398 221.887139 
L 290.883341 240.49186 
L 291.072264 202.302793 
L 291.261187 188.114173 
L 291.45013 221.897952 
L 291.639053 214.973623 
L 291.827976 231.491665 
L 292.0169 214.683192 
L 292.205842 229.796983 
L 292.394765 213.737052 
L 292.583689 220.9681 
L 292.772631 189.615195 
L 293.150478 246.192867 
L 293.339401 213.85844 
L 293.528343 254.548089 
L 294.095132 220.988287 
L 294.284056 171.332161 
L 294.472979 169.797054 
L 294.661921 153.384093 
L 294.850845 183.805115 
L 295.417633 157.090057 
L 295.606557 113.2466 
L 295.795485 116.134508 
L 295.984427 125.451166 
L 296.17335 141.298599 
L 296.362274 183.259021 
L 296.551197 132.779927 
L 296.929063 177.779653 
L 297.117986 177.376747 
L 297.495852 230.569005 
L 297.684775 176.143637 
L 297.873699 185.551861 
L 298.062641 163.589763 
L 298.251564 184.37325 
L 298.440487 232.637989 
L 298.62943 215.057498 
L 298.818353 265.585121 
L 299.007276 153.022814 
L 299.1962 207.859234 
L 299.385142 174.793034 
L 299.574065 270.843822 
L 299.762989 228.727625 
L 299.951931 248.050203 
L 300.140854 187.07737 
L 300.329778 250.293366 
L 300.518701 232.239157 
L 300.707643 267.450744 
L 300.896567 241.328808 
L 301.08549 282.375109 
L 301.274432 242.513879 
L 301.463356 237.077338 
L 301.652279 236.754649 
L 301.841221 269.482566 
L 302.030145 236.183591 
L 302.219068 227.6413 
L 302.407991 228.55509 
L 302.596934 259.467887 
L 302.785857 250.053275 
L 302.97478 246.51054 
L 303.163722 263.850978 
L 303.352646 206.850847 
L 303.541569 218.238457 
L 303.730493 243.546941 
L 303.919435 231.980145 
L 304.108358 254.66801 
L 304.486224 236.14641 
L 304.675147 236.434889 
L 304.864071 238.011119 
L 305.241936 184.870852 
L 305.619783 212.621964 
L 305.808725 257.63658 
L 305.997648 209.585738 
L 306.186572 212.340079 
L 306.375495 227.460781 
L 306.564437 220.88431 
L 306.753361 201.716336 
L 306.942284 233.260239 
L 307.131226 224.355472 
L 307.32015 227.025584 
L 307.509073 190.275755 
L 307.697996 186.968805 
L 307.886939 171.894294 
L 308.075862 190.876575 
L 308.642651 275.192378 
L 308.831574 233.724105 
L 309.020498 246.963312 
L 309.20944 243.809792 
L 309.398363 220.415614 
L 309.587287 225.62862 
L 309.77621 238.179113 
L 309.965152 234.825988 
L 310.342999 183.08781 
L 310.531941 188.792621 
L 310.720865 188.792621 
L 310.909788 244.048512 
L 311.098711 240.703254 
L 311.287654 242.313302 
L 311.476577 223.968414 
L 311.6655 232.990719 
L 311.854443 207.261335 
L 312.232289 256.593196 
L 312.421213 180.832065 
L 312.799078 259.102818 
L 312.988002 238.834977 
L 313.176944 233.607287 
L 313.743714 153.625699 
L 313.932656 153.089378 
L 314.310503 203.577097 
L 314.499445 209.685863 
L 314.688362 240.172292 
L 314.877285 199.590269 
L 315.066208 230.352585 
L 315.25515 190.045525 
L 315.444074 230.77635 
L 315.632997 241.168132 
L 315.82192 259.757838 
L 316.010863 229.141542 
L 316.199786 255.559259 
L 316.38871 219.775206 
L 316.766575 269.458107 
L 317.522287 203.65768 
L 317.711211 217.79193 
L 317.900153 203.061816 
L 318.089076 217.625618 
L 318.278 200.41909 
L 318.466923 199.715465 
L 318.655865 209.909302 
L 319.033712 157.465817 
L 319.222654 181.398652 
L 319.411578 164.636239 
L 319.789424 220.08366 
L 319.978367 217.057593 
L 320.16729 180.873275 
L 320.356213 197.11099 
L 320.545137 194.806001 
L 320.734079 197.759976 
L 320.923002 204.606494 
L 321.300868 193.890014 
L 321.489791 158.638399 
L 321.678715 191.501023 
L 321.867638 175.971326 
L 322.05658 208.72264 
L 322.245504 206.9799 
L 322.434427 201.316766 
L 322.623369 248.714253 
L 322.812292 201.862 
L 323.001216 223.184059 
L 323.190139 223.886432 
L 323.379082 193.597829 
L 323.568005 199.715616 
L 323.756928 210.925998 
L 323.945852 201.862606 
L 324.134794 218.917369 
L 324.51264 204.849608 
L 324.701583 263.67907 
L 325.268353 172.825413 
L 325.457295 166.699072 
L 325.835142 216.862903 
L 326.024084 179.227291 
L 326.213008 205.947474 
L 326.401931 193.794237 
L 326.590854 148.084312 
L 326.96872 202.284479 
L 327.157643 199.80299 
L 327.346567 158.829101 
L 327.535509 152.746034 
L 327.913356 252.228489 
L 328.102298 215.959362 
L 328.291221 221.522355 
L 328.480144 221.058506 
L 328.669068 211.02624 
L 328.85801 268.372015 
L 329.046933 218.277939 
L 329.235857 257.749008 
L 329.613722 129.606343 
L 329.802646 179.615411 
L 329.991569 191.739933 
L 330.180511 219.892312 
L 330.369435 230.766841 
L 330.558358 256.297134 
L 330.747281 242.448056 
L 330.936224 207.557098 
L 331.125147 258.04596 
L 331.31407 230.962774 
L 331.502994 251.744953 
L 331.691936 193.678732 
L 332.069783 254.201739 
L 332.258725 237.571112 
L 332.447648 197.694878 
L 332.636572 227.416679 
L 332.825495 278.810297 
L 333.014437 248.388962 
L 333.203361 248.388962 
L 333.392284 237.371176 
L 333.581225 249.889284 
L 333.770148 201.761427 
L 333.959071 260.997905 
L 334.147995 209.846639 
L 334.336937 266.969044 
L 334.52586 240.785641 
L 334.714784 239.223252 
L 334.903707 257.264372 
L 335.092649 238.418774 
L 335.470496 286.277584 
L 335.848362 242.838011 
L 336.037285 279.713603 
L 336.226208 282.306403 
L 336.415151 236.89202 
L 336.604074 246.514838 
L 336.792997 206.084054 
L 336.981921 286.456698 
L 337.170863 287.304617 
L 337.359786 229.323813 
L 337.54871 211.319124 
L 337.737652 249.464732 
L 337.926575 212.357312 
L 338.115499 258.558549 
L 338.304422 247.273175 
L 338.493364 266.756321 
L 338.682288 270.282526 
L 338.871211 258.942526 
L 339.060134 273.518927 
L 339.249077 202.787022 
L 339.438 225.840176 
L 339.626923 195.250975 
L 339.815865 227.186803 
L 340.004789 281.830618 
L 340.382636 224.845357 
L 340.571578 227.406394 
L 340.760501 232.007135 
L 340.949425 246.719473 
L 341.138348 195.502189 
L 341.32729 249.936252 
L 341.516214 224.096518 
L 341.705137 251.926914 
L 341.89406 192.394167 
L 342.083002 218.632861 
L 342.271926 213.234214 
L 342.460849 223.52807 
L 342.649791 189.439283 
L 342.838715 232.880031 
L 343.027638 212.19943 
L 343.216562 237.881111 
L 343.405504 213.638942 
L 343.594427 277.000977 
L 343.783351 257.504229 
L 344.161216 204.348081 
L 344.350139 246.061483 
L 344.539063 242.743765 
L 344.728005 236.461131 
L 344.916928 236.658065 
L 345.105852 229.151899 
L 345.294775 175.065804 
L 345.483717 224.383807 
L 345.672641 236.756773 
L 345.861564 187.794071 
L 346.050488 173.067122 
L 346.23943 229.090149 
L 346.428353 218.172694 
L 346.617276 221.006371 
L 346.8062 174.402336 
L 346.995142 203.574725 
L 347.184065 258.185549 
L 347.372989 259.452456 
L 347.561931 263.530851 
L 347.750854 265.14345 
L 347.939778 264.242707 
L 348.317643 190.53526 
L 348.69549 268.305741 
L 348.884413 252.396463 
L 349.073356 274.467559 
L 349.262279 241.010591 
L 349.640145 269.731195 
L 350.017991 221.038985 
L 350.206915 237.326962 
L 350.395857 228.507518 
L 350.58478 248.667603 
L 351.151569 208.925405 
L 351.340493 220.793773 
L 351.718339 287.301673 
L 351.907282 266.452905 
L 352.096205 272.316352 
L 352.28513 222.800754 
L 352.474072 284.603245 
L 352.662995 296.089072 
L 352.851919 289.735014 
L 353.040842 349.181389 
L 353.607631 252.959612 
L 353.796555 262.101672 
L 354.17442 296.453216 
L 354.363344 269.042915 
L 354.741209 309.695131 
L 354.930132 289.883174 
L 355.119056 238.63972 
L 355.496922 265.465301 
L 355.685845 242.772789 
L 355.874768 242.772789 
L 356.063711 293.364318 
L 356.252634 268.066759 
L 356.441557 274.619882 
L 356.630481 236.052906 
L 356.819423 272.078998 
L 357.008346 237.260189 
L 357.197269 282.092763 
L 357.386193 239.843527 
L 357.764059 228.724021 
L 357.952982 283.140983 
L 358.141924 164.241086 
L 358.330848 249.536099 
L 358.519771 209.017181 
L 358.708694 240.502026 
L 358.897636 226.307387 
L 359.464407 319.118878 
L 359.653349 255.65411 
L 359.842272 294.018839 
L 360.220119 230.658765 
L 360.409061 249.003946 
L 360.597984 193.515225 
L 360.975831 289.644722 
L 361.164773 265.490799 
L 361.353697 274.77567 
L 361.54262 273.338819 
L 361.731562 327.358859 
L 361.920486 307.434462 
L 362.109409 254.717157 
L 362.298333 276.933224 
L 362.487275 280.664981 
L 362.676198 339.480016 
L 362.865121 280.017159 
L 363.054045 316.018455 
L 363.242987 261.013724 
L 363.431911 294.017048 
L 363.620834 279.859754 
L 363.809757 276.859932 
L 363.998699 300.994907 
L 364.187623 266.367493 
L 364.376546 273.61567 
L 364.565469 261.911783 
L 364.754412 264.03068 
L 364.943335 326.659028 
L 365.132258 286.755141 
L 365.321201 297.313481 
L 365.510124 321.935291 
L 365.699048 313.389646 
L 365.887971 298.706013 
L 366.076913 296.789506 
L 366.265836 259.320215 
L 366.45476 303.861654 
L 366.832625 253.759527 
L 367.021549 246.710248 
L 367.210472 234.902812 
L 367.399396 273.404289 
L 367.588338 246.365361 
L 367.777261 260.217955 
L 367.966185 301.788447 
L 368.532973 200.104238 
L 368.721897 249.339827 
L 368.910839 217.813913 
L 369.099762 234.354604 
L 369.288686 214.990072 
L 369.477609 266.53682 
L 370.044398 190.025578 
L 370.233321 264.385825 
L 370.422264 208.87473 
L 370.611187 204.02508 
L 370.80011 167.097965 
L 371.177964 269.113402 
L 371.366888 231.642458 
L 371.744734 254.154323 
L 372.311523 147.372534 
L 372.500447 246.378161 
L 372.689389 232.286507 
L 372.878312 264.183423 
L 373.067236 263.498095 
L 373.256159 231.422614 
L 373.634025 251.942435 
L 373.822948 249.298806 
L 374.01189 219.51084 
L 374.389737 309.497803 
L 374.57866 292.757427 
L 374.956526 286.709852 
L 375.145449 318.276354 
L 375.334373 305.823902 
L 375.523315 308.585388 
L 375.712238 341.720772 
L 375.901162 304.727681 
L 376.090085 296.447343 
L 376.279027 239.908326 
L 376.467951 248.14404 
L 376.656874 224.475018 
L 376.845797 247.753878 
L 377.03474 295.833783 
L 377.223663 256.195251 
L 377.60151 327.692258 
L 377.790452 253.950096 
L 377.979375 262.333345 
L 378.168299 262.333345 
L 378.357222 238.492691 
L 378.546164 242.225705 
L 378.735088 255.31578 
L 378.924011 296.643508 
L 379.112934 271.659179 
L 379.301877 286.94015 
L 379.4908 256.829397 
L 379.679723 301.769924 
L 379.868665 299.181038 
L 380.057589 276.999566 
L 380.246512 215.775431 
L 380.435436 247.9258 
L 380.624378 240.924721 
L 380.813301 262.04103 
L 381.002225 227.337866 
L 381.191148 270.041589 
L 381.38009 199.96383 
L 381.569014 220.185272 
L 381.757937 263.875162 
L 381.94686 232.462963 
L 382.135802 262.667535 
L 382.324726 259.072983 
L 382.513649 238.513415 
L 382.891515 280.880365 
L 383.080438 259.438148 
L 383.269362 260.1566 
L 383.647227 215.718459 
L 384.025074 221.738634 
L 384.213997 245.967572 
L 384.591863 220.232608 
L 384.780786 218.393057 
L 384.96971 224.578259 
L 385.158652 214.167988 
L 385.347575 269.194121 
L 385.536499 229.9304 
L 385.725422 283.093592 
L 386.103288 215.648952 
L 386.292211 237.02998 
L 386.481134 275.418102 
L 386.670076 207.025524 
L 386.859 202.778304 
L 387.047923 188.097851 
L 387.236847 248.664235 
L 387.425789 224.972998 
L 387.614712 246.587555 
L 387.803636 252.48821 
L 387.992578 298.785669 
L 388.181501 263.024669 
L 388.370425 295.865215 
L 388.559348 236.346751 
L 388.74829 227.919159 
L 388.937213 238.491381 
L 389.126137 193.022578 
L 389.692926 231.726733 
L 389.881866 308.294272 
L 390.07079 231.641794 
L 390.448655 281.249197 
L 390.637579 219.733442 
L 390.826502 242.588203 
L 391.015444 212.651632 
L 391.204368 222.34348 
L 391.393291 224.906354 
L 391.771157 289.328404 
L 391.96008 293.224428 
L 392.149003 219.048375 
L 392.526869 299.878804 
L 392.715792 278.542087 
L 392.904716 209.571652 
L 393.093639 224.517621 
L 393.282581 209.568277 
L 393.471505 226.592428 
L 393.660428 171.593283 
L 393.849352 180.86522 
L 394.038294 221.970528 
L 394.227217 227.767263 
L 394.416141 199.751638 
L 394.605064 239.214707 
L 394.794006 245.697493 
L 394.982929 184.883872 
L 395.171853 213.655075 
L 395.360776 224.006714 
L 395.549718 241.762782 
L 395.738642 238.710364 
L 395.927565 211.298537 
L 396.116489 233.926322 
L 396.305431 185.422631 
L 396.494354 225.767483 
L 396.872201 175.103952 
L 397.250066 240.055733 
L 397.43899 163.351668 
L 397.627913 198.035457 
L 397.816855 199.188834 
L 398.005779 263.167445 
L 398.194702 276.703865 
L 398.950415 197.098476 
L 399.139338 240.266312 
L 399.32828 226.965794 
L 399.517203 255.00686 
L 399.706127 239.840872 
L 399.89505 236.708802 
L 400.083992 242.396745 
L 400.272916 256.260606 
L 400.461839 252.385774 
L 400.650763 252.385774 
L 400.839705 266.258804 
L 401.028628 160.066896 
L 401.406475 233.026612 
L 401.595417 253.130521 
L 401.78434 215.788797 
L 401.973264 265.09267 
L 402.540053 169.052904 
L 402.728976 180.815338 
L 402.9179 182.321782 
L 403.106842 201.039482 
L 403.295765 184.839129 
L 403.484689 210.868503 
L 403.673612 211.642568 
L 403.862554 183.588128 
L 404.051477 226.596803 
L 404.240401 234.644766 
L 404.429324 219.249132 
L 404.618266 245.167622 
L 404.80719 234.492294 
L 404.996113 207.045574 
L 405.185037 204.691541 
L 405.373979 191.494385 
L 405.562902 260.847426 
L 405.751826 232.075378 
L 405.940749 238.477127 
L 406.318614 185.260102 
L 406.507538 183.893531 
L 406.696461 220.59524 
L 406.885403 283.358996 
L 407.26325 227.302228 
L 407.452174 289.970538 
L 407.641097 278.144775 
L 407.830039 302.329291 
L 408.018963 277.924007 
L 408.207886 288.887785 
L 408.585751 254.479496 
L 408.774683 237.149343 
L 409.15253 281.389688 
L 409.341472 273.244242 
L 409.530396 193.326156 
L 409.719319 219.529309 
L 409.908243 205.497325 
L 410.097185 212.311625 
L 410.286108 260.89647 
L 410.475031 272.861916 
L 410.663955 221.886527 
L 410.852897 238.420404 
L 411.04182 233.17639 
L 411.419667 265.557544 
L 411.608609 269.594716 
L 411.797533 219.413974 
L 411.986456 258.031769 
L 412.17538 261.938023 
L 412.364322 276.094943 
L 412.553245 262.002907 
L 412.742168 302.063043 
L 412.931092 300.098722 
L 413.120034 320.913104 
L 413.308958 262.757935 
L 413.497881 305.739762 
L 413.686804 282.873325 
L 413.875746 328.169247 
L 414.06467 231.00358 
L 414.253593 268.43815 
L 414.442516 258.514054 
L 414.631459 284.963244 
L 414.820382 256.140515 
L 415.009305 269.164195 
L 415.198229 272.239564 
L 415.387171 281.276703 
L 415.765018 209.925105 
L 415.953941 236.769358 
L 416.142883 205.488643 
L 416.331807 212.983967 
L 416.52073 196.648073 
L 416.709653 242.638999 
L 416.898577 211.259878 
L 417.087519 200.746796 
L 417.276443 258.254581 
L 417.465366 249.780276 
L 417.654289 285.363365 
L 417.843232 271.089809 
L 418.032155 281.379418 
L 418.221078 284.885295 
L 418.410002 226.871018 
L 418.598944 215.235958 
L 418.787867 216.281993 
L 418.97679 211.600096 
L 419.165714 182.192026 
L 419.354656 250.278098 
L 419.54358 203.827489 
L 419.732503 222.139689 
L 419.921426 158.1242 
L 420.299292 237.030341 
L 420.488215 264.06958 
L 420.677139 241.440946 
L 420.866081 256.50726 
L 421.055004 245.754358 
L 421.243928 282.21157 
L 421.432851 225.128869 
L 421.621793 253.862166 
L 421.810717 258.948717 
L 421.99964 239.58908 
L 422.188563 245.435691 
L 422.377505 189.445031 
L 422.566429 170.575923 
L 422.755352 220.13257 
L 422.944276 220.13257 
L 423.511065 243.366083 
L 423.699988 214.785061 
L 423.888911 248.902688 
L 424.077853 227.334883 
L 424.266777 183.433537 
L 424.4557 220.639584 
L 424.644624 171.13343 
L 424.833566 162.871924 
L 425.211413 248.704773 
L 425.400336 179.425054 
L 425.589278 178.012971 
L 425.778202 151.835096 
L 425.967125 224.71378 
L 426.156048 172.751003 
L 426.34499 174.795797 
L 426.533914 146.47111 
L 426.722837 172.950833 
L 426.911761 220.252498 
L 427.289626 180.623648 
L 427.478536 166.42439 
L 428.045325 225.767423 
L 428.234248 227.122552 
L 428.423171 203.931418 
L 428.612095 255.230838 
L 428.801037 234.625426 
L 428.98996 261.989819 
L 429.178884 227.571072 
L 429.367807 215.307957 
L 429.556749 238.609148 
L 429.745673 230.434111 
L 429.934596 241.548911 
L 430.123519 265.414967 
L 430.312443 269.685821 
L 430.690308 200.724457 
L 430.879232 239.126106 
L 431.068155 220.792713 
L 431.257097 217.270885 
L 431.446021 220.741633 
L 431.634944 229.089191 
L 431.823867 212.467132 
L 432.01281 215.960629 
L 432.201733 235.408167 
L 432.390656 224.541765 
L 432.57958 223.431707 
L 432.957445 268.510135 
L 433.335292 304.202321 
L 433.524234 249.596469 
L 433.713158 297.373387 
L 433.902081 227.65942 
L 434.091004 276.612954 
L 434.279947 280.10036 
L 434.46887 279.992587 
L 434.657793 265.257009 
L 434.846717 284.750658 
L 435.03564 272.067973 
L 435.224582 317.229219 
L 435.413506 273.778817 
L 435.602429 282.47893 
L 435.791353 284.855994 
L 435.980295 283.847917 
L 436.358141 259.445099 
L 436.547065 271.729596 
L 436.736007 232.2555 
L 436.92493 223.980941 
L 437.113854 224.955178 
L 437.302777 272.373043 
L 437.491719 232.678229 
L 437.680643 247.522508 
L 437.869566 271.613892 
L 438.05849 269.532923 
L 438.247413 291.117878 
L 438.625278 261.054874 
L 438.814202 270.651141 
L 439.003125 208.083986 
L 439.192067 227.432925 
L 439.380991 274.331441 
L 439.569914 263.14275 
L 439.758838 287.004727 
L 439.94778 328.353532 
L 440.325627 267.817146 
L 440.51455 268.573858 
L 440.892415 317.021324 
L 441.459185 222.099538 
L 441.648128 258.245876 
L 441.837051 266.787273 
L 442.214898 365.256733 
L 442.40384 358.647742 
L 442.781687 266.119073 
L 442.97061 286.871483 
L 443.159534 262.026416 
L 443.348476 293.646198 
L 443.537399 290.78084 
L 443.726323 296.707338 
L 443.915246 333.158503 
L 444.104188 331.53438 
L 444.482035 234.846776 
L 444.670958 263.402076 
L 444.8599 231.743584 
L 445.237747 281.748455 
L 445.426671 281.748455 
L 445.615594 260.175358 
L 445.804536 219.74309 
L 445.99346 273.971513 
L 446.182383 264.057675 
L 446.371295 275.856407 
L 446.560238 266.150193 
L 446.749161 246.779115 
L 446.938084 249.454027 
L 447.127008 288.108918 
L 447.31595 286.932435 
L 447.504873 270.754025 
L 447.693797 290.383328 
L 447.88272 263.512527 
L 448.071643 299.35289 
L 448.449509 269.416838 
L 448.638432 296.537984 
L 448.827356 295.752057 
L 449.205221 318.919014 
L 449.394145 269.216401 
L 449.583068 346.755706 
L 449.77201 366.97415 
L 449.960934 352.003963 
L 450.149857 357.239269 
L 450.33878 259.832583 
L 450.527704 241.139805 
L 450.716646 287.915625 
L 450.905569 262.577221 
L 451.094493 265.02569 
L 451.283416 231.111487 
L 451.472358 311.547838 
L 451.661282 311.950913 
L 452.039128 301.514569 
L 452.228071 304.848212 
L 452.416994 250.21246 
L 452.605917 274.197336 
L 452.794841 329.042364 
L 453.36163 261.330548 
L 453.550553 274.513426 
L 453.739477 330.489999 
L 454.117342 281.498963 
L 454.306265 326.041174 
L 454.495189 298.646249 
L 454.684131 287.830309 
L 454.873054 293.022013 
L 455.061978 311.252516 
L 455.250901 285.386951 
L 455.628767 328.562088 
L 455.81769 226.712234 
L 456.006614 304.044752 
L 456.384479 256.285894 
L 456.573402 318.025093 
L 456.762326 274.597608 
L 456.951249 337.87549 
L 457.329115 279.392958 
L 457.518038 279.511291 
L 457.706962 264.948587 
L 457.895885 322.696599 
L 458.084827 343.171723 
L 458.462674 282.193616 
L 458.651597 303.894276 
L 458.840521 292.26048 
L 459.029463 359.754065 
L 459.218386 296.424488 
L 459.596233 323.597952 
L 459.785175 262.953033 
L 459.974099 295.869899 
L 460.351945 313.71086 
L 460.540888 322.099537 
L 460.729811 309.334319 
L 460.918734 335.630909 
L 461.107658 384.726141 
L 461.296581 377.332384 
L 461.485523 356.181052 
L 461.674447 309.409342 
L 461.86337 305.345698 
L 462.052293 370.207034 
L 462.241236 335.039503 
L 462.430159 328.17348 
L 462.619082 327.730846 
L 462.808006 288.83763 
L 462.996929 333.24992 
L 463.185871 348.204323 
L 463.374795 340.704913 
L 463.941584 384.509621 
L 464.130507 414.957188 
L 464.508354 364.423407 
L 464.697277 359.060378 
L 465.075154 333.787919 
L 465.264077 285.89206 
L 465.453 278.252844 
L 465.830866 296.933618 
L 466.208713 305.724507 
L 466.397636 332.38054 
L 466.586579 307.866954 
L 466.775502 346.694702 
L 466.964425 316.110658 
L 467.153349 312.101479 
L 467.342291 332.797055 
L 467.531214 334.070076 
L 467.720137 350.54985 
L 467.909061 350.54985 
L 468.097984 306.133952 
L 468.286927 302.762989 
L 468.47585 294.077695 
L 468.664773 302.442894 
L 468.853697 268.862016 
L 469.042639 191.135215 
L 469.420486 261.965839 
L 469.798332 304.156418 
L 469.987275 249.372468 
L 470.365121 302.054927 
L 470.742987 293.671934 
L 470.93191 311.376623 
L 471.120834 309.033133 
L 471.309757 356.898432 
L 471.498681 372.184841 
L 472.065469 302.785624 
L 472.254393 300.272278 
L 472.443335 336.679969 
L 472.632258 327.550653 
L 472.821182 291.544197 
L 473.199029 265.596115 
L 473.387971 272.076273 
L 473.576894 269.14509 
L 473.765817 246.377412 
L 473.954741 262.285647 
L 474.143683 268.596875 
L 474.332606 295.746136 
L 474.52153 283.500771 
L 474.710453 245.324936 
L 474.899377 230.393283 
L 475.088319 282.587012 
L 475.277242 285.575462 
L 475.466166 250.689291 
L 475.655089 249.197376 
L 475.844031 307.737659 
L 476.032954 301.663617 
L 476.221878 306.966068 
L 476.788667 257.105826 
L 476.97759 267.636397 
L 477.166514 249.740341 
L 477.355437 282.874414 
L 477.54436 273.681625 
L 477.733302 277.323473 
L 477.922226 253.667232 
L 478.111149 305.825332 
L 478.300073 268.091266 
L 478.489015 314.031195 
L 478.866862 274.013194 
L 479.055785 299.944875 
L 479.244708 264.178311 
L 479.43365 270.450504 
L 479.622574 331.783486 
L 479.811497 292.350357 
L 480.000421 313.589405 
L 480.189363 270.247536 
L 480.378286 265.035696 
L 480.56721 220.383154 
L 480.756133 279.324068 
L 480.945057 268.671136 
L 481.133999 302.359944 
L 481.322922 301.340731 
L 481.511845 284.078473 
L 481.700769 304.32416 
L 481.889692 254.374548 
L 482.078634 259.334397 
L 482.267558 273.913703 
L 482.456481 259.195068 
L 482.645405 336.602449 
L 482.834347 313.930425 
L 483.02327 317.854915 
L 483.212194 315.95273 
L 483.401117 356.490812 
L 483.59004 308.813267 
L 483.778982 321.449864 
L 483.967903 297.646167 
L 484.34575 284.863329 
L 484.723616 341.718205 
L 484.912539 356.977875 
L 485.101463 317.464314 
L 485.290386 310.266794 
L 485.479328 314.588151 
L 485.668251 348.85038 
L 486.046098 301.095315 
L 486.235022 320.866538 
L 486.423964 320.221659 
L 486.612887 317.485705 
L 486.801811 323.490767 
L 486.990734 316.793865 
L 487.179657 283.84196 
L 487.3686 330.518832 
L 487.557523 340.283617 
L 487.746446 356.575019 
L 487.93537 307.507989 
L 488.124312 341.899209 
L 488.502159 282.989593 
L 488.691082 300.969012 
L 488.880005 240.511259 
L 489.068948 286.854858 
L 489.257871 274.010332 
L 489.446794 253.160336 
L 489.824641 296.318641 
L 490.013583 292.549828 
L 490.202507 286.378013 
L 490.39143 286.378013 
L 490.580353 317.791495 
L 490.769296 315.284889 
L 491.147142 320.128363 
L 491.336066 327.306978 
L 491.902855 226.760358 
L 492.091778 321.264647 
L 492.280702 315.985576 
L 492.84749 267.684382 
L 493.036414 294.826355 
L 493.225337 301.861669 
L 493.414279 275.032197 
L 493.603203 279.679497 
L 493.792126 268.425847 
L 493.98105 312.615274 
L 494.169973 268.415451 
L 494.358915 324.409924 
L 494.547839 317.399666 
L 494.736762 320.57059 
L 494.925685 293.523316 
L 495.114609 327.878144 
L 495.303551 310.960423 
L 495.492474 316.827147 
L 495.681398 288.085724 
L 495.870321 304.434351 
L 496.059244 277.426633 
L 496.248187 322.873155 
L 496.43711 301.624119 
L 496.626033 331.095571 
L 496.814957 321.679054 
L 497.192822 272.850472 
L 497.381746 233.838665 
L 497.759592 300.21925 
L 497.948535 258.335521 
L 498.137458 306.521158 
L 498.326381 278.033902 
L 498.515305 305.210223 
L 498.704228 307.058501 
L 498.89317 315.773717 
L 499.082094 318.514323 
L 499.459941 302.218332 
L 499.648864 346.910493 
L 499.837806 364.559746 
L 500.404576 227.575222 
L 500.5935 167.557471 
L 500.782442 221.234724 
L 500.971365 238.73336 
L 501.160289 282.462737 
L 501.349212 253.672518 
L 501.538154 305.187957 
L 501.727078 300.854795 
L 501.916001 247.937159 
L 502.104924 250.926371 
L 502.293848 280.528091 
L 502.48279 267.887378 
L 502.671713 239.85812 
L 503.049547 263.369995 
L 503.23847 248.324519 
L 503.616336 302.365387 
L 503.805259 304.69615 
L 503.994182 294.791383 
L 504.183106 252.070149 
L 504.372048 288.658267 
L 504.560971 297.269477 
L 504.749895 275.903611 
L 504.938818 304.717805 
L 505.127742 353.115017 
L 505.505607 307.823664 
L 505.69453 323.310783 
L 505.883454 269.466687 
L 506.072377 290.865817 
L 506.261319 277.711406 
L 506.450243 256.21627 
L 506.82809 295.876379 
L 507.017032 272.631932 
L 507.205955 278.38356 
L 507.394879 293.701203 
L 507.583802 274.877783 
L 507.772725 276.194994 
L 507.961667 262.62191 
L 508.150591 326.002152 
L 508.528438 275.188597 
L 508.717361 273.030393 
L 508.906303 268.347132 
L 509.095227 256.296571 
L 509.28415 261.506313 
L 509.473073 245.651629 
L 509.661997 267.644014 
L 509.850939 303.838733 
L 510.039862 225.043052 
L 510.417709 301.888848 
L 510.606632 314.588039 
L 510.984498 236.034418 
L 511.173421 280.272726 
L 511.362345 218.571736 
L 511.551268 218.075092 
L 511.74021 260.16334 
L 511.929134 235.097773 
L 512.118057 265.208095 
L 512.306981 250.562931 
L 512.495904 271.542403 
L 512.684846 271.542403 
L 512.873769 254.779939 
L 513.062693 222.335579 
L 513.251616 275.576946 
L 513.44054 225.307568 
L 513.629482 252.120126 
L 513.818405 308.015568 
L 514.007329 322.872983 
L 514.196252 246.74032 
L 514.385175 268.055641 
L 514.763041 348.236575 
L 514.951964 238.969062 
L 515.140888 318.576307 
L 515.518753 254.263834 
L 515.707677 263.259234 
L 515.8966 240.303409 
L 516.085523 256.199602 
L 516.274447 262.345036 
L 516.463389 257.888025 
L 516.652312 209.337862 
L 516.841236 209.982452 
L 517.030159 137.647031 
L 517.219083 207.565716 
L 517.408025 220.062884 
L 517.596948 253.240583 
L 517.785871 254.930656 
L 517.974795 254.199385 
L 518.163718 230.80438 
L 518.35266 268.680344 
L 518.541584 253.302529 
L 518.730507 204.937531 
L 518.919431 278.595516 
L 519.108354 286.714432 
L 519.297296 287.637477 
L 519.48622 297.912257 
L 519.675143 248.60822 
L 519.864066 229.610387 
L 520.05299 226.550392 
L 520.241932 241.097103 
L 520.430855 224.719923 
L 520.619779 267.804621 
L 520.997625 174.929313 
L 521.186568 182.218331 
L 521.375491 258.883635 
L 521.56443 227.86668 
L 521.753354 286.53981 
L 522.131219 256.203695 
L 522.320142 293.843942 
L 522.697989 226.520929 
L 522.886913 321.994955 
L 523.075855 265.318899 
L 523.264778 258.069159 
L 523.453702 272.592759 
L 523.642625 319.40867 
L 523.831548 243.373004 
L 524.02049 332.75268 
L 524.398337 256.781537 
L 524.587261 254.888597 
L 524.776184 264.598512 
L 524.965126 213.239314 
L 525.15405 205.805492 
L 525.531896 254.959332 
L 525.72082 264.966335 
L 525.909762 259.671629 
L 526.098685 245.159707 
L 526.287609 268.14448 
L 526.665455 227.202764 
L 526.854398 234.547816 
L 527.043321 276.476926 
L 527.232244 252.797069 
L 527.421168 252.008911 
L 527.610091 249.111864 
L 527.799033 232.653808 
L 527.987957 277.904938 
L 528.17688 265.526151 
L 528.365803 236.080543 
L 528.554727 266.42348 
L 528.743669 246.487739 
L 528.932592 276.106354 
L 529.121516 287.655571 
L 529.310439 319.8546 
L 529.499363 219.257418 
L 529.688305 282.660971 
L 529.877228 282.851739 
L 530.255075 308.341166 
L 530.443998 264.0913 
L 530.63294 256.388308 
L 530.821864 169.634385 
L 531.010787 196.288384 
L 531.199711 258.004108 
L 531.955423 207.043965 
L 532.144346 260.327878 
L 532.33327 222.915405 
L 532.522193 256.335679 
L 532.711135 248.266984 
L 533.277905 292.180495 
L 533.466829 234.766346 
L 533.655771 285.441438 
L 533.844695 210.377314 
L 534.033618 235.820457 
L 534.222541 288.144327 
L 534.600407 249.198914 
L 534.78933 272.744323 
L 534.978253 272.744323 
L 535.167177 293.186722 
L 535.3561 271.688039 
L 535.545043 274.327623 
L 535.733966 314.937288 
L 535.922889 277.860897 
L 536.111813 298.25065 
L 536.300736 268.777901 
L 536.489678 321.580989 
L 536.678601 289.331029 
L 536.867525 297.873795 
L 537.056448 236.331935 
L 537.245372 291.582908 
L 537.434314 275.976491 
L 537.623237 282.527359 
L 537.812161 238.532482 
L 538.378931 281.04234 
L 538.567873 248.073327 
L 538.756797 285.331768 
L 538.94572 233.016739 
L 539.134643 250.80274 
L 539.323566 229.069344 
L 539.512509 224.339956 
L 539.701432 206.990863 
L 540.268202 296.56797 
L 540.457149 275.270599 
L 540.646073 295.081017 
L 541.023919 227.990898 
L 541.212843 320.059894 
L 541.401785 285.731467 
L 541.590708 295.204669 
L 541.779632 256.636057 
L 541.968555 263.593681 
L 542.346402 310.2288 
L 542.535344 300.381425 
L 542.724267 322.054902 
L 542.913191 299.696555 
L 543.291038 332.490497 
L 543.47998 238.614155 
L 543.668903 244.635656 
L 544.235673 337.332089 
L 544.424615 236.916333 
L 544.613539 305.190802 
L 544.802462 282.324864 
L 544.991386 236.785707 
L 545.180309 248.070523 
L 545.558175 303.688741 
L 545.747098 305.495202 
L 546.124945 285.250772 
L 546.313868 267.232906 
L 546.50281 271.818599 
L 546.691734 311.474815 
L 546.880657 277.408667 
L 547.06958 274.174699 
L 547.258504 261.115163 
L 547.636369 322.951514 
L 547.825293 280.455093 
L 548.20314 310.321516 
L 548.392082 368.467448 
L 548.581005 315.723174 
L 548.769928 313.982004 
L 548.958852 330.063434 
L 549.147775 288.92977 
L 549.336699 287.32836 
L 549.525641 323.377991 
L 549.714564 320.758393 
L 549.903488 258.354216 
L 550.092411 282.096392 
L 550.281334 289.238036 
L 550.470276 243.245957 
L 550.6592 289.467209 
L 550.848123 291.522401 
L 551.037047 263.325958 
L 551.22597 271.567056 
L 551.414893 253.792045 
L 551.603836 276.950485 
L 551.792759 266.98589 
L 551.981683 246.090112 
L 552.170606 293.027683 
L 552.359529 233.853207 
L 552.737395 280.895544 
L 552.926318 311.697055 
L 553.115241 273.808764 
L 553.304165 267.367467 
L 553.493107 289.182677 
L 553.682031 352.369935 
L 553.870954 360.676731 
L 554.059877 284.752186 
L 554.248801 289.90762 
L 554.437724 283.326743 
L 554.626666 286.210342 
L 554.81559 338.814213 
L 555.004513 312.942307 
L 555.193436 334.51458 
L 555.38236 275.922704 
L 555.571302 268.176339 
L 555.760225 276.720997 
L 556.138072 260.164154 
L 556.326996 302.083041 
L 556.515919 277.721922 
L 556.893785 332.437629 
L 557.082708 337.967683 
L 557.271631 337.967683 
L 557.460554 322.13327 
L 557.649497 324.145064 
L 557.83842 321.540395 
L 558.027343 250.732815 
L 558.216267 270.34805 
L 558.40519 269.615509 
L 558.594114 270.994425 
L 558.783056 309.326712 
L 558.971979 312.980389 
L 559.160893 304.724963 
L 559.349817 333.643675 
L 559.916606 226.114065 
L 560.105529 225.126406 
L 560.294452 263.238641 
L 560.483376 254.594552 
L 560.672318 254.915858 
L 560.861241 266.178944 
L 561.050165 225.147074 
L 561.239088 254.751506 
L 561.428011 257.801522 
L 561.616935 282.037392 
L 561.805877 235.870906 
L 561.994801 258.899176 
L 562.183724 247.032269 
L 562.372647 220.706378 
L 562.561571 221.159197 
L 562.750513 272.624422 
L 562.939436 278.385219 
L 563.128359 275.571745 
L 563.317283 258.989672 
L 563.506206 313.818442 
L 563.884072 267.423801 
L 564.072995 238.608672 
L 564.261919 266.960072 
L 564.450842 228.995032 
L 564.639765 274.681211 
L 564.828689 216.421679 
L 565.017631 253.778305 
L 565.206554 240.06866 
L 565.584401 262.218166 
L 565.773324 293.626588 
L 566.15119 250.750229 
L 566.529037 257.504668 
L 566.71796 233.690619 
L 566.906884 228.757104 
L 567.095826 273.362887 
L 567.284749 228.132845 
L 567.473672 242.99381 
L 567.662596 270.538515 
L 567.851519 234.951238 
L 568.040443 320.265938 
L 568.229385 267.864036 
L 568.418308 259.24801 
L 568.607232 240.473449 
L 568.796155 267.126499 
L 569.174021 237.61426 
L 569.551867 307.200902 
L 569.740791 292.198503 
L 569.929714 252.295154 
L 570.118637 264.231519 
L 570.496503 304.221114 
L 570.685427 299.606516 
L 570.87435 360.364542 
L 571.441139 273.1845 
L 571.630062 315.441031 
L 571.818986 316.82257 
L 572.007909 347.072414 
L 572.196832 315.324991 
L 572.385774 315.618288 
L 572.574698 302.428951 
L 572.763621 334.07908 
L 573.141468 290.853992 
L 573.330392 298.223394 
L 573.519334 333.183165 
L 573.708257 347.087744 
L 573.897181 305.872518 
L 574.086104 311.164228 
L 574.275027 342.731014 
L 574.463969 307.282017 
L 574.652893 316.72603 
L 574.841816 285.200088 
L 575.03074 273.013106 
L 575.219663 244.491295 
L 575.408586 292.318342 
L 575.597529 282.52404 
L 575.786452 318.438302 
L 575.975375 299.50155 
L 576.164299 292.471405 
L 576.353222 249.19866 
L 576.542145 281.253348 
L 576.731088 270.634814 
L 576.920011 343.950844 
L 577.108934 319.338572 
L 577.297858 361.243531 
L 577.486781 304.638857 
L 577.675723 339.80413 
L 578.053568 243.535812 
L 578.242491 224.934812 
L 578.431415 284.533905 
L 578.620338 265.117784 
L 578.80928 303.057457 
L 578.998203 243.951662 
L 579.187127 273.292328 
L 579.37605 257.092423 
L 579.564974 257.092423 
L 579.753897 280.092563 
L 579.942839 251.119169 
L 580.131763 311.739249 
L 580.320686 244.943241 
L 580.887456 305.366923 
L 581.265322 252.193253 
L 581.454245 264.158116 
L 581.643168 287.430826 
L 581.832092 280.219069 
L 582.209957 216.953648 
L 582.398881 225.381929 
L 582.587804 261.283718 
L 582.776728 319.021802 
L 582.965651 262.848399 
L 583.154574 326.182715 
L 583.343517 301.514835 
L 583.53244 355.372288 
L 583.721363 320.983213 
L 583.910287 312.520519 
L 584.09921 334.687284 
L 584.288152 314.722699 
L 584.477076 320.517193 
L 584.854922 295.218567 
L 585.043846 289.31527 
L 585.232769 327.165744 
L 585.421711 289.400968 
L 585.610635 295.339435 
L 585.799558 239.611206 
L 586.177405 300.915367 
L 586.744194 329.627343 
L 586.933117 273.520995 
L 587.122041 275.675662 
L 587.68883 317.996006 
L 587.877753 292.875648 
L 588.066676 326.893487 
L 588.2556 338.572137 
L 588.444523 315.247614 
L 588.633446 254.695912 
L 588.822389 254.791882 
L 589.011312 291.79366 
L 589.200235 250.855992 
L 589.389159 295.826999 
L 589.578082 269.854163 
L 589.767006 282.838738 
L 590.144871 342.896485 
L 590.333795 318.933098 
L 590.522718 317.347304 
L 590.711641 314.821851 
L 590.900565 288.221208 
L 591.089507 309.16555 
L 591.467354 293.048501 
L 591.8452 323.302938 
L 592.034124 320.960432 
L 592.223066 268.331896 
L 592.411989 282.62363 
L 592.600913 266.199422 
L 592.789836 274.271671 
L 592.97876 238.256821 
L 593.167683 250.299469 
L 593.356625 323.333741 
L 593.545548 267.89236 
L 593.734472 247.715894 
L 593.923395 314.996945 
L 594.112319 228.468379 
L 594.301242 297.514664 
L 594.679108 233.597518 
L 594.868031 275.2451 
L 595.056954 264.756306 
L 595.245878 240.459053 
L 595.434801 277.768475 
L 595.434801 277.768475 
" clip-path="url(#pddc1b0ad9e)" style="fill: none; stroke: #1f77b4; stroke-width: 2; stroke-linecap: square"/>
   </g>
   <g id="patch_3">
    <path d="M 62.798438 414.957188 
L 62.798438 26.877188 
" style="fill: none; stroke: #808080; stroke-width: 2; stroke-linejoin: miter; stroke-linecap: square"/>
   </g>
   <g id="patch_4">
    <path d="M 62.798438 414.957187 
L 620.798438 414.957187 
" style="fill: none; stroke: #808080; stroke-width: 2; stroke-linejoin: miter; stroke-linecap: square"/>
   </g>
   <g id="text_15">
    <!-- Vemund-Tyholt_flymodus-vinkel -->
    <g style="fill: #808080" transform="translate(200.491406 20.877187) scale(0.18 -0.18)">
     <defs>
      <path id="DejaVuSans-56" d="M 1831 0 
L 50 4666 
L 709 4666 
L 2188 738 
L 3669 4666 
L 4325 4666 
L 2547 0 
L 1831 0 
z
" transform="scale(0.015625)"/>
      <path id="DejaVuSans-75" d="M 544 1381 
L 544 3500 
L 1119 3500 
L 1119 1403 
Q 1119 906 1312 657 
Q 1506 409 1894 409 
Q 2359 409 2629 706 
Q 2900 1003 2900 1516 
L 2900 3500 
L 3475 3500 
L 3475 0 
L 2900 0 
L 2900 538 
Q 2691 219 2414 64 
Q 2138 -91 1772 -91 
Q 1169 -91 856 284 
Q 544 659 544 1381 
z
M 1991 3584 
L 1991 3584 
z
" transform="scale(0.015625)"/>
      <path id="DejaVuSans-6e" d="M 3513 2113 
L 3513 0 
L 2938 0 
L 2938 2094 
Q 2938 2591 2744 2837 
Q 2550 3084 2163 3084 
Q 1697 3084 1428 2787 
Q 1159 2491 1159 1978 
L 1159 0 
L 581 0 
L 581 3500 
L 1159 3500 
L 1159 2956 
Q 1366 3272 1645 3428 
Q 1925 3584 2291 3584 
Q 2894 3584 3203 3211 
Q 3513 2838 3513 2113 
z
" transform="scale(0.015625)"/>
      <path id="DejaVuSans-2d" d="M 313 2009 
L 1997 2009 
L 1997 1497 
L 313 1497 
L 313 2009 
z
" transform="scale(0.015625)"/>
      <path id="DejaVuSans-54" d="M -19 4666 
L 3928 4666 
L 3928 4134 
L 2272 4134 
L 2272 0 
L 1638 0 
L 1638 4134 
L -19 4134 
L -19 4666 
z
" transform="scale(0.015625)"/>
      <path id="DejaVuSans-79" d="M 2059 -325 
Q 1816 -950 1584 -1140 
Q 1353 -1331 966 -1331 
L 506 -1331 
L 506 -850 
L 844 -850 
Q 1081 -850 1212 -737 
Q 1344 -625 1503 -206 
L 1606 56 
L 191 3500 
L 800 3500 
L 1894 763 
L 2988 3500 
L 3597 3500 
L 2059 -325 
z
" transform="scale(0.015625)"/>
      <path id="DejaVuSans-68" d="M 3513 2113 
L 3513 0 
L 2938 0 
L 2938 2094 
Q 2938 2591 2744 2837 
Q 2550 3084 2163 3084 
Q 1697 3084 1428 2787 
Q 1159 2491 1159 1978 
L 1159 0 
L 581 0 
L 581 4863 
L 1159 4863 
L 1159 2956 
Q 1366 3272 1645 3428 
Q 1925 3584 2291 3584 
Q 2894 3584 3203 3211 
Q 3513 2838 3513 2113 
z
" transform="scale(0.015625)"/>
      <path id="DejaVuSans-6f" d="M 1959 3097 
Q 1497 3097 1228 2736 
Q 959 2375 959 1747 
Q 959 1119 1226 758 
Q 1494 397 1959 397 
Q 2419 397 2687 759 
Q 2956 1122 2956 1747 
Q 2956 2369 2687 2733 
Q 2419 3097 1959 3097 
z
M 1959 3584 
Q 2709 3584 3137 3096 
Q 3566 2609 3566 1747 
Q 3566 888 3137 398 
Q 2709 -91 1959 -91 
Q 1206 -91 779 398 
Q 353 888 353 1747 
Q 353 2609 779 3096 
Q 1206 3584 1959 3584 
z
" transform="scale(0.015625)"/>
      <path id="DejaVuSans-6c" d="M 603 4863 
L 1178 4863 
L 1178 0 
L 603 0 
L 603 4863 
z
" transform="scale(0.015625)"/>
      <path id="DejaVuSans-5f" d="M 3263 -1063 
L 3263 -1509 
L -63 -1509 
L -63 -1063 
L 3263 -1063 
z
" transform="scale(0.015625)"/>
      <path id="DejaVuSans-66" d="M 2375 4863 
L 2375 4384 
L 1825 4384 
Q 1516 4384 1395 4259 
Q 1275 4134 1275 3809 
L 1275 3500 
L 2222 3500 
L 2222 3053 
L 1275 3053 
L 1275 0 
L 697 0 
L 697 3053 
L 147 3053 
L 147 3500 
L 697 3500 
L 697 3744 
Q 697 4328 969 4595 
Q 1241 4863 1831 4863 
L 2375 4863 
z
" transform="scale(0.015625)"/>
      <path id="DejaVuSans-76" d="M 191 3500 
L 800 3500 
L 1894 563 
L 2988 3500 
L 3597 3500 
L 2284 0 
L 1503 0 
L 191 3500 
z
" transform="scale(0.015625)"/>
      <path id="DejaVuSans-6b" d="M 581 4863 
L 1159 4863 
L 1159 1991 
L 2875 3500 
L 3609 3500 
L 1753 1863 
L 3688 0 
L 2938 0 
L 1159 1709 
L 1159 0 
L 581 0 
L 581 4863 
z
" transform="scale(0.015625)"/>
     </defs>
     <use xlink:href="#DejaVuSans-56"/>
     <use xlink:href="#DejaVuSans-65" x="60.658203"/>
     <use xlink:href="#DejaVuSans-6d" x="122.181641"/>
     <use xlink:href="#DejaVuSans-75" x="219.59375"/>
     <use xlink:href="#DejaVuSans-6e" x="282.972656"/>
     <use xlink:href="#DejaVuSans-64" x="346.351562"/>
     <use xlink:href="#DejaVuSans-2d" x="409.828125"/>
     <use xlink:href="#DejaVuSans-54" x="436.787109"/>
     <use xlink:href="#DejaVuSans-79" x="482.246094"/>
     <use xlink:href="#DejaVuSans-68" x="541.425781"/>
     <use xlink:href="#DejaVuSans-6f" x="604.804688"/>
     <use xlink:href="#DejaVuSans-6c" x="665.986328"/>
     <use xlink:href="#DejaVuSans-74" x="693.769531"/>
     <use xlink:href="#DejaVuSans-5f" x="732.978516"/>
     <use xlink:href="#DejaVuSans-66" x="782.978516"/>
     <use xlink:href="#DejaVuSans-6c" x="818.183594"/>
     <use xlink:href="#DejaVuSans-79" x="845.966797"/>
     <use xlink:href="#DejaVuSans-6d" x="905.146484"/>
     <use xlink:href="#DejaVuSans-6f" x="1002.558594"/>
     <use xlink:href="#DejaVuSans-64" x="1063.740234"/>
     <use xlink:href="#DejaVuSans-75" x="1127.216797"/>
     <use xlink:href="#DejaVuSans-73" x="1190.595703"/>
     <use xlink:href="#DejaVuSans-2d" x="1242.695312"/>
     <use xlink:href="#DejaVuSans-76" x="1276.154297"/>
     <use xlink:href="#DejaVuSans-69" x="1335.333984"/>
     <use xlink:href="#DejaVuSans-6e" x="1363.117188"/>
     <use xlink:href="#DejaVuSans-6b" x="1426.496094"/>
     <use xlink:href="#DejaVuSans-65" x="1480.78125"/>
     <use xlink:href="#DejaVuSans-6c" x="1542.304688"/>
    </g>
   </g>
   <g id="legend_1">
    <g id="patch_5">
     <path d="M 326.786719 61.311562 
L 610.298437 61.311562 
Q 613.298437 61.311562 613.298437 58.311562 
L 613.298437 37.377187 
Q 613.298437 34.377187 610.298437 34.377187 
L 326.786719 34.377187 
Q 323.786719 34.377187 323.786719 37.377187 
L 323.786719 58.311562 
Q 323.786719 61.311562 326.786719 61.311562 
z
" style="fill: #ffffff; opacity: 0.8; stroke: #cccccc; stroke-linejoin: miter"/>
    </g>
    <g id="line2d_26">
     <path d="M 329.786719 46.524844 
L 344.786719 46.524844 
L 359.786719 46.524844 
" style="fill: none; stroke: #1f77b4; stroke-width: 2; stroke-linecap: square"/>
    </g>
    <g id="text_16">
     <!-- Vemund-Tyholt_flymodus-vinkel -->
     <g style="fill: #808080" transform="translate(371.786719 51.774844) scale(0.15 -0.15)">
      <use xlink:href="#DejaVuSans-56"/>
      <use xlink:href="#DejaVuSans-65" x="60.658203"/>
      <use xlink:href="#DejaVuSans-6d" x="122.181641"/>
      <use xlink:href="#DejaVuSans-75" x="219.59375"/>
      <use xlink:href="#DejaVuSans-6e" x="282.972656"/>
      <use xlink:href="#DejaVuSans-64" x="346.351562"/>
      <use xlink:href="#DejaVuSans-2d" x="409.828125"/>
      <use xlink:href="#DejaVuSans-54" x="436.787109"/>
      <use xlink:href="#DejaVuSans-79" x="482.246094"/>
      <use xlink:href="#DejaVuSans-68" x="541.425781"/>
      <use xlink:href="#DejaVuSans-6f" x="604.804688"/>
      <use xlink:href="#DejaVuSans-6c" x="665.986328"/>
      <use xlink:href="#DejaVuSans-74" x="693.769531"/>
      <use xlink:href="#DejaVuSans-5f" x="732.978516"/>
      <use xlink:href="#DejaVuSans-66" x="782.978516"/>
      <use xlink:href="#DejaVuSans-6c" x="818.183594"/>
      <use xlink:href="#DejaVuSans-79" x="845.966797"/>
      <use xlink:href="#DejaVuSans-6d" x="905.146484"/>
      <use xlink:href="#DejaVuSans-6f" x="1002.558594"/>
      <use xlink:href="#DejaVuSans-64" x="1063.740234"/>
      <use xlink:href="#DejaVuSans-75" x="1127.216797"/>
      <use xlink:href="#DejaVuSans-73" x="1190.595703"/>
      <use xlink:href="#DejaVuSans-2d" x="1242.695312"/>
      <use xlink:href="#DejaVuSans-76" x="1276.154297"/>
      <use xlink:href="#DejaVuSans-69" x="1335.333984"/>
      <use xlink:href="#DejaVuSans-6e" x="1363.117188"/>
      <use xlink:href="#DejaVuSans-6b" x="1426.496094"/>
      <use xlink:href="#DejaVuSans-65" x="1480.78125"/>
      <use xlink:href="#DejaVuSans-6c" x="1542.304688"/>
     </g>
    </g>
   </g>
  </g>
 </g>
 <defs>
  <clipPath id="pddc1b0ad9e">
   <rect x="62.798438" y="26.877187" width="558" height="388.08"/>
  </clipPath>
 </defs>
</svg>
