<?xml version="1.0" encoding="utf-8" standalone="no"?>
<!DOCTYPE svg PUBLIC "-//W3C//DTD SVG 1.1//EN"
  "http://www.w3.org/Graphics/SVG/1.1/DTD/svg11.dtd">
<svg xmlns:xlink="http://www.w3.org/1999/xlink" width="460.8pt" height="345.6pt" viewBox="0 0 460.8 345.6" xmlns="http://www.w3.org/2000/svg" version="1.1">
 <metadata>
  <rdf:RDF xmlns:dc="http://purl.org/dc/elements/1.1/" xmlns:cc="http://creativecommons.org/ns#" xmlns:rdf="http://www.w3.org/1999/02/22-rdf-syntax-ns#">
   <cc:Work>
    <dc:type rdf:resource="http://purl.org/dc/dcmitype/StillImage"/>
    <dc:date>2023-04-17T15:21:32.181166</dc:date>
    <dc:format>image/svg+xml</dc:format>
    <dc:creator>
     <cc:Agent>
      <dc:title>Matplotlib v3.7.1, https://matplotlib.org/</dc:title>
     </cc:Agent>
    </dc:creator>
   </cc:Work>
  </rdf:RDF>
 </metadata>
 <defs>
  <style type="text/css">*{stroke-linejoin: round; stroke-linecap: butt}</style>
 </defs>
 <g id="figure_1">
  <g id="patch_1">
   <path d="M 0 345.6 
L 460.8 345.6 
L 460.8 0 
L 0 0 
z
" style="fill: #ffffff"/>
  </g>
  <g id="axes_1">
   <g id="patch_2">
    <path d="M 57.6 307.584 
L 414.72 307.584 
L 414.72 41.472 
L 57.6 41.472 
z
" style="fill: #ffffff"/>
   </g>
   <g id="matplotlib.axis_1">
    <g id="xtick_1">
     <g id="line2d_1">
      <defs>
       <path id="madde133892" d="M 0 0 
L 0 3.5 
" style="stroke: #000000; stroke-width: 0.8"/>
      </defs>
      <g>
       <use xlink:href="#madde133892" x="73.99519" y="307.584" style="stroke: #000000; stroke-width: 0.8"/>
      </g>
     </g>
     <g id="text_1">
      <!-- 50 -->
      <g transform="translate(67.63269 322.182437) scale(0.1 -0.1)">
       <defs>
        <path id="DejaVuSans-35" d="M 691 4666 
L 3169 4666 
L 3169 4134 
L 1269 4134 
L 1269 2991 
Q 1406 3038 1543 3061 
Q 1681 3084 1819 3084 
Q 2600 3084 3056 2656 
Q 3513 2228 3513 1497 
Q 3513 744 3044 326 
Q 2575 -91 1722 -91 
Q 1428 -91 1123 -41 
Q 819 9 494 109 
L 494 744 
Q 775 591 1075 516 
Q 1375 441 1709 441 
Q 2250 441 2565 725 
Q 2881 1009 2881 1497 
Q 2881 1984 2565 2268 
Q 2250 2553 1709 2553 
Q 1456 2553 1204 2497 
Q 953 2441 691 2322 
L 691 4666 
z
" transform="scale(0.015625)"/>
        <path id="DejaVuSans-30" d="M 2034 4250 
Q 1547 4250 1301 3770 
Q 1056 3291 1056 2328 
Q 1056 1369 1301 889 
Q 1547 409 2034 409 
Q 2525 409 2770 889 
Q 3016 1369 3016 2328 
Q 3016 3291 2770 3770 
Q 2525 4250 2034 4250 
z
M 2034 4750 
Q 2819 4750 3233 4129 
Q 3647 3509 3647 2328 
Q 3647 1150 3233 529 
Q 2819 -91 2034 -91 
Q 1250 -91 836 529 
Q 422 1150 422 2328 
Q 422 3509 836 4129 
Q 1250 4750 2034 4750 
z
" transform="scale(0.015625)"/>
       </defs>
       <use xlink:href="#DejaVuSans-35"/>
       <use xlink:href="#DejaVuSans-30" x="63.623047"/>
      </g>
     </g>
    </g>
    <g id="xtick_2">
     <g id="line2d_2">
      <g>
       <use xlink:href="#madde133892" x="128.123141" y="307.584" style="stroke: #000000; stroke-width: 0.8"/>
      </g>
     </g>
     <g id="text_2">
      <!-- 55 -->
      <g transform="translate(121.760641 322.182437) scale(0.1 -0.1)">
       <use xlink:href="#DejaVuSans-35"/>
       <use xlink:href="#DejaVuSans-35" x="63.623047"/>
      </g>
     </g>
    </g>
    <g id="xtick_3">
     <g id="line2d_3">
      <g>
       <use xlink:href="#madde133892" x="182.251091" y="307.584" style="stroke: #000000; stroke-width: 0.8"/>
      </g>
     </g>
     <g id="text_3">
      <!-- 60 -->
      <g transform="translate(175.888591 322.182437) scale(0.1 -0.1)">
       <defs>
        <path id="DejaVuSans-36" d="M 2113 2584 
Q 1688 2584 1439 2293 
Q 1191 2003 1191 1497 
Q 1191 994 1439 701 
Q 1688 409 2113 409 
Q 2538 409 2786 701 
Q 3034 994 3034 1497 
Q 3034 2003 2786 2293 
Q 2538 2584 2113 2584 
z
M 3366 4563 
L 3366 3988 
Q 3128 4100 2886 4159 
Q 2644 4219 2406 4219 
Q 1781 4219 1451 3797 
Q 1122 3375 1075 2522 
Q 1259 2794 1537 2939 
Q 1816 3084 2150 3084 
Q 2853 3084 3261 2657 
Q 3669 2231 3669 1497 
Q 3669 778 3244 343 
Q 2819 -91 2113 -91 
Q 1303 -91 875 529 
Q 447 1150 447 2328 
Q 447 3434 972 4092 
Q 1497 4750 2381 4750 
Q 2619 4750 2861 4703 
Q 3103 4656 3366 4563 
z
" transform="scale(0.015625)"/>
       </defs>
       <use xlink:href="#DejaVuSans-36"/>
       <use xlink:href="#DejaVuSans-30" x="63.623047"/>
      </g>
     </g>
    </g>
    <g id="xtick_4">
     <g id="line2d_4">
      <g>
       <use xlink:href="#madde133892" x="236.379041" y="307.584" style="stroke: #000000; stroke-width: 0.8"/>
      </g>
     </g>
     <g id="text_4">
      <!-- 65 -->
      <g transform="translate(230.016541 322.182437) scale(0.1 -0.1)">
       <use xlink:href="#DejaVuSans-36"/>
       <use xlink:href="#DejaVuSans-35" x="63.623047"/>
      </g>
     </g>
    </g>
    <g id="xtick_5">
     <g id="line2d_5">
      <g>
       <use xlink:href="#madde133892" x="290.506991" y="307.584" style="stroke: #000000; stroke-width: 0.8"/>
      </g>
     </g>
     <g id="text_5">
      <!-- 70 -->
      <g transform="translate(284.144491 322.182437) scale(0.1 -0.1)">
       <defs>
        <path id="DejaVuSans-37" d="M 525 4666 
L 3525 4666 
L 3525 4397 
L 1831 0 
L 1172 0 
L 2766 4134 
L 525 4134 
L 525 4666 
z
" transform="scale(0.015625)"/>
       </defs>
       <use xlink:href="#DejaVuSans-37"/>
       <use xlink:href="#DejaVuSans-30" x="63.623047"/>
      </g>
     </g>
    </g>
    <g id="xtick_6">
     <g id="line2d_6">
      <g>
       <use xlink:href="#madde133892" x="344.634942" y="307.584" style="stroke: #000000; stroke-width: 0.8"/>
      </g>
     </g>
     <g id="text_6">
      <!-- 75 -->
      <g transform="translate(338.272442 322.182437) scale(0.1 -0.1)">
       <use xlink:href="#DejaVuSans-37"/>
       <use xlink:href="#DejaVuSans-35" x="63.623047"/>
      </g>
     </g>
    </g>
    <g id="xtick_7">
     <g id="line2d_7">
      <g>
       <use xlink:href="#madde133892" x="398.762892" y="307.584" style="stroke: #000000; stroke-width: 0.8"/>
      </g>
     </g>
     <g id="text_7">
      <!-- 80 -->
      <g transform="translate(392.400392 322.182437) scale(0.1 -0.1)">
       <defs>
        <path id="DejaVuSans-38" d="M 2034 2216 
Q 1584 2216 1326 1975 
Q 1069 1734 1069 1313 
Q 1069 891 1326 650 
Q 1584 409 2034 409 
Q 2484 409 2743 651 
Q 3003 894 3003 1313 
Q 3003 1734 2745 1975 
Q 2488 2216 2034 2216 
z
M 1403 2484 
Q 997 2584 770 2862 
Q 544 3141 544 3541 
Q 544 4100 942 4425 
Q 1341 4750 2034 4750 
Q 2731 4750 3128 4425 
Q 3525 4100 3525 3541 
Q 3525 3141 3298 2862 
Q 3072 2584 2669 2484 
Q 3125 2378 3379 2068 
Q 3634 1759 3634 1313 
Q 3634 634 3220 271 
Q 2806 -91 2034 -91 
Q 1263 -91 848 271 
Q 434 634 434 1313 
Q 434 1759 690 2068 
Q 947 2378 1403 2484 
z
M 1172 3481 
Q 1172 3119 1398 2916 
Q 1625 2713 2034 2713 
Q 2441 2713 2670 2916 
Q 2900 3119 2900 3481 
Q 2900 3844 2670 4047 
Q 2441 4250 2034 4250 
Q 1625 4250 1398 4047 
Q 1172 3844 1172 3481 
z
" transform="scale(0.015625)"/>
       </defs>
       <use xlink:href="#DejaVuSans-38"/>
       <use xlink:href="#DejaVuSans-30" x="63.623047"/>
      </g>
     </g>
    </g>
    <g id="text_8">
     <!-- time [s] -->
     <g transform="translate(216.768594 335.860562) scale(0.1 -0.1)">
      <defs>
       <path id="DejaVuSans-74" d="M 1172 4494 
L 1172 3500 
L 2356 3500 
L 2356 3053 
L 1172 3053 
L 1172 1153 
Q 1172 725 1289 603 
Q 1406 481 1766 481 
L 2356 481 
L 2356 0 
L 1766 0 
Q 1100 0 847 248 
Q 594 497 594 1153 
L 594 3053 
L 172 3053 
L 172 3500 
L 594 3500 
L 594 4494 
L 1172 4494 
z
" transform="scale(0.015625)"/>
       <path id="DejaVuSans-69" d="M 603 3500 
L 1178 3500 
L 1178 0 
L 603 0 
L 603 3500 
z
M 603 4863 
L 1178 4863 
L 1178 4134 
L 603 4134 
L 603 4863 
z
" transform="scale(0.015625)"/>
       <path id="DejaVuSans-6d" d="M 3328 2828 
Q 3544 3216 3844 3400 
Q 4144 3584 4550 3584 
Q 5097 3584 5394 3201 
Q 5691 2819 5691 2113 
L 5691 0 
L 5113 0 
L 5113 2094 
Q 5113 2597 4934 2840 
Q 4756 3084 4391 3084 
Q 3944 3084 3684 2787 
Q 3425 2491 3425 1978 
L 3425 0 
L 2847 0 
L 2847 2094 
Q 2847 2600 2669 2842 
Q 2491 3084 2119 3084 
Q 1678 3084 1418 2786 
Q 1159 2488 1159 1978 
L 1159 0 
L 581 0 
L 581 3500 
L 1159 3500 
L 1159 2956 
Q 1356 3278 1631 3431 
Q 1906 3584 2284 3584 
Q 2666 3584 2933 3390 
Q 3200 3197 3328 2828 
z
" transform="scale(0.015625)"/>
       <path id="DejaVuSans-65" d="M 3597 1894 
L 3597 1613 
L 953 1613 
Q 991 1019 1311 708 
Q 1631 397 2203 397 
Q 2534 397 2845 478 
Q 3156 559 3463 722 
L 3463 178 
Q 3153 47 2828 -22 
Q 2503 -91 2169 -91 
Q 1331 -91 842 396 
Q 353 884 353 1716 
Q 353 2575 817 3079 
Q 1281 3584 2069 3584 
Q 2775 3584 3186 3129 
Q 3597 2675 3597 1894 
z
M 3022 2063 
Q 3016 2534 2758 2815 
Q 2500 3097 2075 3097 
Q 1594 3097 1305 2825 
Q 1016 2553 972 2059 
L 3022 2063 
z
" transform="scale(0.015625)"/>
       <path id="DejaVuSans-20" transform="scale(0.015625)"/>
       <path id="DejaVuSans-5b" d="M 550 4863 
L 1875 4863 
L 1875 4416 
L 1125 4416 
L 1125 -397 
L 1875 -397 
L 1875 -844 
L 550 -844 
L 550 4863 
z
" transform="scale(0.015625)"/>
       <path id="DejaVuSans-73" d="M 2834 3397 
L 2834 2853 
Q 2591 2978 2328 3040 
Q 2066 3103 1784 3103 
Q 1356 3103 1142 2972 
Q 928 2841 928 2578 
Q 928 2378 1081 2264 
Q 1234 2150 1697 2047 
L 1894 2003 
Q 2506 1872 2764 1633 
Q 3022 1394 3022 966 
Q 3022 478 2636 193 
Q 2250 -91 1575 -91 
Q 1294 -91 989 -36 
Q 684 19 347 128 
L 347 722 
Q 666 556 975 473 
Q 1284 391 1588 391 
Q 1994 391 2212 530 
Q 2431 669 2431 922 
Q 2431 1156 2273 1281 
Q 2116 1406 1581 1522 
L 1381 1569 
Q 847 1681 609 1914 
Q 372 2147 372 2553 
Q 372 3047 722 3315 
Q 1072 3584 1716 3584 
Q 2034 3584 2315 3537 
Q 2597 3491 2834 3397 
z
" transform="scale(0.015625)"/>
       <path id="DejaVuSans-5d" d="M 1947 4863 
L 1947 -844 
L 622 -844 
L 622 -397 
L 1369 -397 
L 1369 4416 
L 622 4416 
L 622 4863 
L 1947 4863 
z
" transform="scale(0.015625)"/>
      </defs>
      <use xlink:href="#DejaVuSans-74"/>
      <use xlink:href="#DejaVuSans-69" x="39.208984"/>
      <use xlink:href="#DejaVuSans-6d" x="66.992188"/>
      <use xlink:href="#DejaVuSans-65" x="164.404297"/>
      <use xlink:href="#DejaVuSans-20" x="225.927734"/>
      <use xlink:href="#DejaVuSans-5b" x="257.714844"/>
      <use xlink:href="#DejaVuSans-73" x="296.728516"/>
      <use xlink:href="#DejaVuSans-5d" x="348.828125"/>
     </g>
    </g>
   </g>
   <g id="matplotlib.axis_2">
    <g id="ytick_1">
     <g id="line2d_8">
      <defs>
       <path id="m82bc994336" d="M 0 0 
L -3.5 0 
" style="stroke: #000000; stroke-width: 0.8"/>
      </defs>
      <g>
       <use xlink:href="#m82bc994336" x="57.6" y="300.618252" style="stroke: #000000; stroke-width: 0.8"/>
      </g>
     </g>
     <g id="text_9">
      <!-- 76 -->
      <g transform="translate(37.875 304.417471) scale(0.1 -0.1)">
       <use xlink:href="#DejaVuSans-37"/>
       <use xlink:href="#DejaVuSans-36" x="63.623047"/>
      </g>
     </g>
    </g>
    <g id="ytick_2">
     <g id="line2d_9">
      <g>
       <use xlink:href="#m82bc994336" x="57.6" y="247.24545" style="stroke: #000000; stroke-width: 0.8"/>
      </g>
     </g>
     <g id="text_10">
      <!-- 77 -->
      <g transform="translate(37.875 251.044669) scale(0.1 -0.1)">
       <use xlink:href="#DejaVuSans-37"/>
       <use xlink:href="#DejaVuSans-37" x="63.623047"/>
      </g>
     </g>
    </g>
    <g id="ytick_3">
     <g id="line2d_10">
      <g>
       <use xlink:href="#m82bc994336" x="57.6" y="193.872648" style="stroke: #000000; stroke-width: 0.8"/>
      </g>
     </g>
     <g id="text_11">
      <!-- 78 -->
      <g transform="translate(37.875 197.671867) scale(0.1 -0.1)">
       <use xlink:href="#DejaVuSans-37"/>
       <use xlink:href="#DejaVuSans-38" x="63.623047"/>
      </g>
     </g>
    </g>
    <g id="ytick_4">
     <g id="line2d_11">
      <g>
       <use xlink:href="#m82bc994336" x="57.6" y="140.499847" style="stroke: #000000; stroke-width: 0.8"/>
      </g>
     </g>
     <g id="text_12">
      <!-- 79 -->
      <g transform="translate(37.875 144.299066) scale(0.1 -0.1)">
       <defs>
        <path id="DejaVuSans-39" d="M 703 97 
L 703 672 
Q 941 559 1184 500 
Q 1428 441 1663 441 
Q 2288 441 2617 861 
Q 2947 1281 2994 2138 
Q 2813 1869 2534 1725 
Q 2256 1581 1919 1581 
Q 1219 1581 811 2004 
Q 403 2428 403 3163 
Q 403 3881 828 4315 
Q 1253 4750 1959 4750 
Q 2769 4750 3195 4129 
Q 3622 3509 3622 2328 
Q 3622 1225 3098 567 
Q 2575 -91 1691 -91 
Q 1453 -91 1209 -44 
Q 966 3 703 97 
z
M 1959 2075 
Q 2384 2075 2632 2365 
Q 2881 2656 2881 3163 
Q 2881 3666 2632 3958 
Q 2384 4250 1959 4250 
Q 1534 4250 1286 3958 
Q 1038 3666 1038 3163 
Q 1038 2656 1286 2365 
Q 1534 2075 1959 2075 
z
" transform="scale(0.015625)"/>
       </defs>
       <use xlink:href="#DejaVuSans-37"/>
       <use xlink:href="#DejaVuSans-39" x="63.623047"/>
      </g>
     </g>
    </g>
    <g id="ytick_5">
     <g id="line2d_12">
      <g>
       <use xlink:href="#m82bc994336" x="57.6" y="87.127045" style="stroke: #000000; stroke-width: 0.8"/>
      </g>
     </g>
     <g id="text_13">
      <!-- 80 -->
      <g transform="translate(37.875 90.926264) scale(0.1 -0.1)">
       <use xlink:href="#DejaVuSans-38"/>
       <use xlink:href="#DejaVuSans-30" x="63.623047"/>
      </g>
     </g>
    </g>
    <g id="text_14">
     <!-- $\theta$ [deg] -->
     <g transform="translate(31.775 192.528) rotate(-90) scale(0.1 -0.1)">
      <defs>
       <path id="DejaVuSans-Oblique-3b8" d="M 2913 2219 
L 925 2219 
Q 791 1284 928 888 
Q 1100 400 1566 400 
Q 2034 400 2391 891 
Q 2703 1322 2913 2219 
z
M 3009 2750 
Q 3094 3638 2984 3950 
Q 2813 4444 2353 4444 
Q 1875 4444 1525 3956 
Q 1250 3563 1034 2750 
L 3009 2750 
z
M 2444 4913 
Q 3194 4913 3494 4250 
Q 3794 3591 3566 2422 
Q 3341 1256 2781 594 
Q 2225 -72 1475 -72 
Q 722 -72 425 594 
Q 128 1256 353 2422 
Q 581 3591 1134 4250 
Q 1691 4913 2444 4913 
z
" transform="scale(0.015625)"/>
       <path id="DejaVuSans-64" d="M 2906 2969 
L 2906 4863 
L 3481 4863 
L 3481 0 
L 2906 0 
L 2906 525 
Q 2725 213 2448 61 
Q 2172 -91 1784 -91 
Q 1150 -91 751 415 
Q 353 922 353 1747 
Q 353 2572 751 3078 
Q 1150 3584 1784 3584 
Q 2172 3584 2448 3432 
Q 2725 3281 2906 2969 
z
M 947 1747 
Q 947 1113 1208 752 
Q 1469 391 1925 391 
Q 2381 391 2643 752 
Q 2906 1113 2906 1747 
Q 2906 2381 2643 2742 
Q 2381 3103 1925 3103 
Q 1469 3103 1208 2742 
Q 947 2381 947 1747 
z
" transform="scale(0.015625)"/>
       <path id="DejaVuSans-67" d="M 2906 1791 
Q 2906 2416 2648 2759 
Q 2391 3103 1925 3103 
Q 1463 3103 1205 2759 
Q 947 2416 947 1791 
Q 947 1169 1205 825 
Q 1463 481 1925 481 
Q 2391 481 2648 825 
Q 2906 1169 2906 1791 
z
M 3481 434 
Q 3481 -459 3084 -895 
Q 2688 -1331 1869 -1331 
Q 1566 -1331 1297 -1286 
Q 1028 -1241 775 -1147 
L 775 -588 
Q 1028 -725 1275 -790 
Q 1522 -856 1778 -856 
Q 2344 -856 2625 -561 
Q 2906 -266 2906 331 
L 2906 616 
Q 2728 306 2450 153 
Q 2172 0 1784 0 
Q 1141 0 747 490 
Q 353 981 353 1791 
Q 353 2603 747 3093 
Q 1141 3584 1784 3584 
Q 2172 3584 2450 3431 
Q 2728 3278 2906 2969 
L 2906 3500 
L 3481 3500 
L 3481 434 
z
" transform="scale(0.015625)"/>
      </defs>
      <use xlink:href="#DejaVuSans-Oblique-3b8" transform="translate(0 0.234375)"/>
      <use xlink:href="#DejaVuSans-20" transform="translate(61.181641 0.234375)"/>
      <use xlink:href="#DejaVuSans-5b" transform="translate(92.96875 0.234375)"/>
      <use xlink:href="#DejaVuSans-64" transform="translate(131.982422 0.234375)"/>
      <use xlink:href="#DejaVuSans-65" transform="translate(195.458984 0.234375)"/>
      <use xlink:href="#DejaVuSans-67" transform="translate(256.982422 0.234375)"/>
      <use xlink:href="#DejaVuSans-5d" transform="translate(320.458984 0.234375)"/>
     </g>
    </g>
   </g>
   <g id="line2d_13">
    <path d="M 73.832727 131.853507 
L 73.940691 117.09757 
L 74.048665 122.604552 
L 74.264603 152.346728 
L 74.372567 128.982467 
L 74.480541 131.790346 
L 74.588505 120.915615 
L 74.804443 137.668232 
L 74.912407 124.229099 
L 75.128345 131.574348 
L 75.236319 131.456388 
L 75.344283 132.832199 
L 75.452257 138.589657 
L 75.560221 115.178505 
L 75.668195 119.306909 
L 75.776159 109.828033 
L 75.884122 129.681146 
L 75.992097 103.729569 
L 76.208035 137.29636 
L 76.639911 116.267218 
L 76.747875 124.196892 
L 76.855849 123.263837 
L 76.963813 116.630203 
L 77.071776 133.16452 
L 77.179751 122.60686 
L 77.287714 141.160476 
L 77.611627 117.718461 
L 77.71959 126.03227 
L 77.827554 121.055273 
L 77.935528 128.859715 
L 78.151467 114.058131 
L 78.25943 116.23215 
L 78.583343 165.252405 
L 78.691306 162.009778 
L 78.79927 142.255189 
L 78.907244 147.312131 
L 79.015208 129.991016 
L 79.339119 156.086954 
L 79.555057 129.796568 
L 79.663021 131.671038 
L 79.770984 138.682346 
L 79.878959 114.675252 
L 79.986922 158.010698 
L 80.20286 151.097805 
L 80.310835 156.996671 
L 80.418798 139.46453 
L 80.526762 146.752987 
L 80.634736 140.751562 
L 80.850674 142.661147 
L 81.066612 147.126027 
L 81.282551 138.621864 
L 81.498478 147.489491 
L 81.606452 134.253764 
L 81.714416 142.063893 
L 81.82239 137.874717 
L 81.930354 159.384854 
L 82.038328 149.552001 
L 82.146292 149.680438 
L 82.254255 159.393591 
L 82.36223 145.131766 
L 82.470194 164.669699 
L 82.578168 162.349279 
L 82.794106 150.411354 
L 82.90207 163.064485 
L 83.118008 133.206332 
L 83.225971 133.180237 
L 83.333946 118.630521 
L 83.441909 119.120427 
L 83.549884 117.065023 
L 83.873785 135.146105 
L 83.981749 161.789615 
L 84.089723 140.55723 
L 84.197687 155.555294 
L 84.305661 148.322573 
L 84.413625 132.779355 
L 84.5216 145.224777 
L 84.629563 137.124676 
L 84.737527 168.590426 
L 85.061439 131.763385 
L 85.169403 142.682704 
L 85.277377 132.229223 
L 85.385341 134.874235 
L 85.493304 144.607318 
L 85.709243 137.249751 
L 86.033155 147.414743 
L 86.141119 128.027994 
L 86.357057 137.718927 
L 86.572995 121.383218 
L 86.788933 144.630468 
L 86.896896 150.366515 
L 87.004871 146.762838 
L 87.112834 132.323452 
L 87.328772 143.708082 
L 87.436736 140.824395 
L 87.544711 152.152595 
L 87.652674 149.763714 
L 87.760638 155.665051 
L 87.868612 155.164375 
L 87.976576 150.071709 
L 88.08455 151.679046 
L 88.192514 146.405196 
L 88.300488 155.722017 
L 88.408452 144.027752 
L 88.516415 157.374042 
L 88.62439 131.923981 
L 88.840328 150.303044 
L 88.948292 163.855963 
L 89.056266 137.34696 
L 89.16423 148.009913 
L 89.272193 144.056301 
L 89.380168 152.295541 
L 89.488131 150.386151 
L 89.596106 160.435318 
L 89.704069 156.432129 
L 89.812044 148.156694 
L 90.027971 157.2535 
L 90.243909 128.717916 
L 90.351883 138.445888 
L 90.459847 130.701881 
L 90.675785 156.137402 
L 90.783749 153.046964 
L 91.107661 165.64444 
L 91.215625 159.270313 
L 91.431564 137.957406 
L 91.539528 150.768566 
L 91.755466 129.901125 
L 91.86344 141.875038 
L 91.971404 125.231428 
L 92.295306 146.463696 
L 92.40328 141.733755 
L 92.511244 119.829396 
L 92.619218 143.454687 
L 92.94312 112.809778 
L 93.051083 140.729115 
L 93.159058 140.453896 
L 93.374985 159.549987 
L 93.482959 154.214153 
L 93.806861 121.688021 
L 94.022799 129.974272 
L 94.130763 125.37906 
L 94.238737 111.232283 
L 94.346701 139.036457 
L 94.454675 138.649698 
L 94.562639 154.39545 
L 94.670602 146.958559 
L 94.778577 127.386217 
L 94.88654 137.836106 
L 94.994515 136.682809 
L 95.102479 126.463318 
L 95.210453 144.088861 
L 95.318417 137.170499 
L 95.42638 150.100966 
L 95.534355 149.739212 
L 95.642318 148.696101 
L 95.750293 135.438026 
L 95.858256 142.083799 
L 95.966231 127.98563 
L 96.074194 151.248863 
L 96.182158 132.373731 
L 96.290132 140.777594 
L 96.398096 131.405598 
L 96.50607 150.688538 
L 96.721998 125.822708 
L 96.829972 143.430044 
L 96.937936 141.063206 
L 97.153874 124.39512 
L 97.369812 153.471188 
L 97.477775 143.541009 
L 97.58575 146.366122 
L 97.801688 131.118906 
L 98.125589 165.656792 
L 98.233553 164.679419 
L 98.341528 175.178888 
L 98.665429 128.835375 
L 98.773393 137.127123 
L 98.881367 133.390124 
L 98.989331 134.190306 
L 99.097294 132.308337 
L 99.205269 134.13904 
L 99.313233 160.526958 
L 99.529171 143.053689 
L 99.637145 142.598324 
L 99.745109 157.286254 
L 99.961047 149.895958 
L 100.06901 145.947046 
L 100.176985 131.310177 
L 100.392912 146.215832 
L 100.500886 157.469825 
L 100.60885 139.486717 
L 100.716824 149.953815 
L 100.824788 126.857508 
L 101.040726 155.250393 
L 101.256664 137.957287 
L 101.472591 161.381149 
L 101.688529 154.851869 
L 101.796504 158.648868 
L 101.904467 157.256008 
L 102.120405 151.076584 
L 102.228369 149.615554 
L 102.336343 143.318749 
L 102.552282 155.140128 
L 102.660245 156.84816 
L 102.768209 136.860879 
L 102.876183 152.974469 
L 102.984147 145.195202 
L 103.092121 147.618221 
L 103.200085 145.135873 
L 103.308048 153.672427 
L 103.416023 153.372813 
L 103.631961 143.413912 
L 103.739922 149.369191 
L 103.95586 125.983629 
L 104.063823 149.917646 
L 104.171798 146.300074 
L 104.279762 130.494479 
L 104.387725 163.443801 
L 104.4957 160.894423 
L 104.603663 171.014857 
L 104.711638 157.087727 
L 104.927565 170.792505 
L 105.035539 162.904397 
L 105.143503 138.241622 
L 105.467405 157.237544 
L 105.575379 159.157496 
L 105.683343 149.814561 
L 105.899281 157.919177 
L 106.007244 136.123838 
L 106.115219 142.711886 
L 106.223182 159.090954 
L 106.331157 138.26089 
L 106.43912 150.839727 
L 106.547084 149.654532 
L 106.655058 157.224504 
L 106.763022 173.99228 
L 106.97896 147.399938 
L 107.086924 149.438525 
L 107.194898 147.90204 
L 107.410836 168.145162 
L 107.5188 144.73103 
L 107.626763 153.767083 
L 107.734738 141.604851 
L 107.842701 155.019954 
L 108.058639 144.305082 
L 108.166603 159.426273 
L 108.382541 139.78347 
L 108.490516 144.040701 
L 108.706443 162.447954 
L 108.922381 128.692337 
L 109.030355 131.059106 
L 109.138319 113.556325 
L 109.246282 150.994065 
L 109.354257 146.983984 
L 109.46222 127.829267 
L 109.570195 151.107491 
L 109.678159 128.66102 
L 109.786122 131.65489 
L 109.894097 138.922459 
L 110.00206 156.171493 
L 110.433936 130.079125 
L 110.649874 161.188821 
L 110.757838 157.545777 
L 111.189714 145.710705 
L 111.297678 161.565921 
L 111.405641 142.952297 
L 111.513616 168.6384 
L 111.729543 153.695378 
L 111.837517 151.918172 
L 111.945481 159.44465 
L 112.053455 141.648717 
L 112.161419 156.47947 
L 112.377357 141.397792 
L 112.485321 155.888653 
L 112.593295 146.589423 
L 112.701259 152.91018 
L 112.809222 168.595668 
L 112.917197 151.700972 
L 113.02516 162.507382 
L 113.133135 144.901119 
L 113.241098 166.302649 
L 113.349062 160.038054 
L 113.457036 162.481798 
L 113.565 170.851578 
L 113.672974 159.911155 
L 113.888902 162.172633 
L 113.996876 159.49936 
L 114.10484 170.436728 
L 114.320778 135.9216 
L 114.428741 148.863792 
L 114.536716 137.683926 
L 114.644679 155.05932 
L 114.752643 140.529868 
L 114.968581 155.325437 
L 115.076555 147.672296 
L 115.184519 126.067245 
L 115.292483 142.771845 
L 115.400457 134.310411 
L 115.724359 142.495355 
L 115.832322 154.767957 
L 116.048265 143.681939 
L 116.156229 142.011296 
L 116.264203 158.719997 
L 116.372167 156.138277 
L 116.480141 138.013774 
L 116.696068 150.522601 
L 116.804043 141.398296 
L 117.019981 164.226991 
L 117.235908 134.299642 
L 117.451846 150.733397 
L 117.55982 180.764474 
L 117.775748 129.465642 
L 117.883722 135.937364 
L 117.991686 135.084896 
L 118.099649 135.143723 
L 118.207624 143.545057 
L 118.315587 139.265398 
L 118.423562 129.719053 
L 118.531525 141.69205 
L 118.639489 141.00059 
L 118.747463 153.10455 
L 118.855427 141.730766 
L 118.963391 156.675472 
L 119.071365 149.261787 
L 119.179329 149.848137 
L 119.287303 162.470099 
L 119.395267 137.59042 
L 119.50323 164.315138 
L 119.611205 138.483028 
L 119.827143 149.503267 
L 119.935106 167.882984 
L 120.04307 147.472496 
L 120.151044 151.328944 
L 120.366972 143.632196 
L 120.474946 146.591818 
L 120.58291 156.829826 
L 120.690884 139.555596 
L 120.798848 150.319245 
L 120.906811 149.824187 
L 121.014786 147.343619 
L 121.122749 148.958932 
L 121.230713 162.423022 
L 121.446651 139.982616 
L 121.770553 166.243472 
L 121.986491 152.31854 
L 122.094465 154.520126 
L 122.310392 133.10218 
L 122.418367 157.267222 
L 122.52633 140.401236 
L 122.634294 157.855083 
L 122.742269 149.334241 
L 122.850232 160.339943 
L 122.958207 150.340548 
L 123.06617 158.920471 
L 123.390072 133.22161 
L 123.498035 139.981719 
L 123.60601 121.780248 
L 123.821948 148.559527 
L 123.929912 159.863397 
L 124.037875 158.641837 
L 124.14585 161.413246 
L 124.253813 151.435119 
L 124.361777 156.888362 
L 124.577715 141.698171 
L 124.793653 168.267414 
L 125.009591 152.152023 
L 125.117555 142.717563 
L 125.333493 149.843309 
L 125.441456 149.568585 
L 125.549431 132.404922 
L 125.765358 142.673271 
L 125.981296 144.055742 
L 126.089259 154.358968 
L 126.197234 150.04885 
L 126.521136 179.288387 
L 126.737074 151.437592 
L 126.845037 155.376075 
L 127.168939 131.018601 
L 127.276902 149.23946 
L 127.384877 140.549817 
L 127.600815 151.129504 
L 127.708779 149.888217 
L 127.816742 134.734763 
L 128.03268 139.06805 
L 128.140644 160.796752 
L 128.248613 160.520422 
L 128.356576 154.94609 
L 128.572515 136.080211 
L 128.680478 134.599399 
L 128.788453 126.322477 
L 128.896416 150.420295 
L 129.00438 126.508157 
L 129.112354 127.513765 
L 129.220318 144.444507 
L 129.436256 131.31004 
L 129.544219 152.06548 
L 129.652194 151.175328 
L 129.760158 142.626004 
L 129.868121 155.619599 
L 129.976096 138.89288 
L 130.192023 153.864977 
L 130.299997 142.552732 
L 130.407961 158.668758 
L 130.515935 145.224142 
L 130.623899 164.134835 
L 130.839837 140.213017 
L 130.947801 155.231069 
L 131.055764 149.929793 
L 131.163739 152.410667 
L 131.379666 142.531009 
L 131.595604 158.290278 
L 131.703578 159.32106 
L 131.919505 149.900545 
L 132.02748 144.130658 
L 132.243407 159.352008 
L 132.351382 153.348884 
L 132.459345 157.757873 
L 132.567309 155.60847 
L 132.783247 131.300764 
L 132.891221 115.739317 
L 132.999185 116.303405 
L 133.215123 129.737081 
L 133.323087 121.694706 
L 133.754952 145.217505 
L 133.862926 127.205356 
L 133.97089 135.103962 
L 134.078864 130.005887 
L 134.186828 133.373207 
L 134.294792 124.175998 
L 134.51073 146.20858 
L 134.618693 149.828081 
L 134.726668 148.474968 
L 135.050569 112.087244 
L 135.266496 142.40088 
L 135.374471 127.020776 
L 135.590409 139.276516 
L 135.698373 141.013237 
L 135.806336 131.034882 
L 135.914311 133.939959 
L 136.022274 130.02096 
L 136.238212 115.011777 
L 136.346176 113.073012 
L 136.454139 118.213595 
L 136.562114 110.665908 
L 136.778052 141.706798 
L 136.993979 102.284538 
L 137.209917 130.314709 
L 137.317881 132.884374 
L 137.425855 145.666011 
L 137.641782 123.634145 
L 137.857721 143.607025 
L 138.181622 121.103382 
L 138.289597 121.785431 
L 138.39756 125.891858 
L 138.505524 139.516936 
L 138.829425 113.781303 
L 139.045364 144.876934 
L 139.261302 123.503924 
L 139.369265 130.071938 
L 139.477229 127.740692 
L 139.585203 147.463752 
L 139.693167 147.048924 
L 139.80113 138.302085 
L 140.125043 155.819003 
L 140.233007 137.569769 
L 140.556919 166.250161 
L 140.772857 144.696887 
L 140.880821 148.985458 
L 140.988784 145.307792 
L 141.096759 152.232324 
L 141.204722 151.594873 
L 141.42066 130.273614 
L 141.528624 133.705795 
L 141.636588 141.65907 
L 141.744562 141.259565 
L 141.852526 123.437915 
L 141.9605 128.169959 
L 142.068464 127.647188 
L 142.176427 126.410387 
L 142.284402 104.548454 
L 142.608303 146.574419 
L 142.716267 129.235703 
L 142.824231 137.506012 
L 142.932205 120.199168 
L 143.040169 134.734546 
L 143.148132 131.256378 
L 143.256107 136.545841 
L 143.36407 121.252205 
L 143.472034 122.139478 
L 143.795936 129.870522 
L 143.90391 128.093939 
L 144.011874 143.670114 
L 144.227812 137.788708 
L 144.44375 119.453316 
L 144.551713 135.444851 
L 144.767651 98.467167 
L 144.983579 115.769375 
L 145.091553 118.051855 
L 145.199517 122.888725 
L 145.415455 102.16124 
L 145.631382 136.48833 
L 145.955284 116.096732 
L 146.063258 132.136619 
L 146.171222 129.691654 
L 146.495123 111.260753 
L 146.603087 113.235988 
L 146.819025 134.710168 
L 146.926988 120.906628 
L 147.142927 131.326752 
L 147.358865 120.141284 
L 147.466828 117.087159 
L 147.574803 129.643533 
L 147.682766 120.872068 
L 147.79073 122.151827 
L 147.898704 119.298801 
L 148.006668 119.81702 
L 148.114631 124.994032 
L 148.222606 136.365521 
L 148.438533 104.787804 
L 148.546508 103.766445 
L 148.870409 134.442805 
L 148.978373 125.72071 
L 149.194311 140.406187 
L 149.518213 97.283936 
L 149.842114 137.418 
L 149.950078 130.556374 
L 150.058041 124.262442 
L 150.166016 130.662893 
L 150.273979 115.73753 
L 150.489918 131.371454 
L 150.597881 130.879525 
L 150.705845 125.300022 
L 150.813819 130.725848 
L 150.921783 142.600231 
L 151.137721 134.397949 
L 151.245684 135.60956 
L 151.353648 145.88225 
L 151.569586 126.937191 
L 151.67755 120.169157 
L 151.785524 122.942351 
L 151.893488 122.015824 
L 152.001462 137.597168 
L 152.109426 127.616774 
L 152.325353 159.293557 
L 152.433327 130.756184 
L 152.541291 136.562163 
L 152.649265 121.527903 
L 152.865186 142.969831 
L 152.973149 121.493213 
L 153.189087 134.088887 
L 153.297062 121.119733 
L 153.512989 141.280308 
L 153.620963 147.190511 
L 153.728927 133.971701 
L 153.836891 149.808795 
L 153.944865 137.470648 
L 154.052829 159.723857 
L 154.160792 128.05498 
L 154.268767 154.833784 
L 154.37673 132.038833 
L 154.592668 161.783998 
L 154.808595 138.276121 
L 154.91657 160.844441 
L 155.024534 151.895565 
L 155.240472 161.157927 
L 155.456399 136.611076 
L 155.564373 146.293943 
L 155.672337 145.489272 
L 155.7803 145.529895 
L 155.888275 126.564558 
L 156.104202 137.191015 
L 156.212177 155.023526 
L 156.32014 141.340945 
L 156.428104 149.206991 
L 156.536078 148.603037 
L 156.644042 154.450455 
L 156.752005 141.862249 
L 156.85998 148.7713 
L 157.075907 135.817214 
L 157.183881 136.366813 
L 157.291845 135.132451 
L 157.399809 149.478129 
L 157.507783 148.964666 
L 157.615747 144.107131 
L 157.831685 151.934608 
L 157.939648 151.764708 
L 158.047612 150.323406 
L 158.26355 162.529278 
L 158.371514 166.589858 
L 158.479477 152.225654 
L 158.587452 152.424851 
L 158.695415 152.569467 
L 158.80339 151.001549 
L 159.235255 163.986043 
L 159.343219 139.660704 
L 159.66712 158.133382 
L 159.775084 168.573954 
L 160.098986 128.051494 
L 160.20696 163.337315 
L 160.314924 159.944644 
L 160.422887 168.036993 
L 160.530862 142.294049 
L 160.638825 145.60796 
L 160.746789 153.41185 
L 160.854763 145.557085 
L 160.962727 160.32393 
L 161.070691 154.057633 
L 161.178665 160.162255 
L 161.394592 183.812335 
L 161.61053 175.777664 
L 161.718494 191.175598 
L 161.826468 179.488545 
L 161.934432 182.992608 
L 162.15037 162.572349 
L 162.258334 164.500623 
L 162.366297 159.260954 
L 162.474272 165.940927 
L 162.582235 189.427513 
L 162.798173 170.139345 
L 163.0141 195.100326 
L 163.230038 168.289687 
L 163.445966 211.36836 
L 163.661904 203.992973 
L 163.877842 195.098847 
L 163.985805 188.874416 
L 164.093769 195.454263 
L 164.201743 226.389312 
L 164.417671 204.106858 
L 164.633609 223.826847 
L 164.741572 222.251091 
L 164.849547 221.659484 
L 164.95751 205.417662 
L 165.281407 235.899991 
L 165.389371 236.264274 
L 165.497345 238.885797 
L 165.713272 221.945272 
L 165.92921 241.572211 
L 166.037174 241.487769 
L 166.145148 236.250203 
L 166.253112 250.121637 
L 166.469039 234.178394 
L 166.577014 235.707294 
L 166.684977 247.681264 
L 166.792941 243.675499 
L 166.900915 244.292224 
L 167.008879 248.615148 
L 167.116843 237.70752 
L 167.224817 245.792209 
L 167.332781 241.068011 
L 167.548719 260.055633 
L 167.764646 242.685954 
L 167.87262 273.197391 
L 167.980584 270.938022 
L 168.196522 252.817586 
L 168.304486 272.994319 
L 168.412449 271.400934 
L 168.628387 266.688218 
L 168.736351 252.136587 
L 169.060252 276.750411 
L 169.276191 259.835463 
L 169.384154 258.264224 
L 169.492118 252.427932 
L 169.600092 267.364131 
L 169.708056 264.537276 
L 169.816019 254.425402 
L 169.923994 255.124984 
L 170.031957 243.540851 
L 170.139921 252.185922 
L 170.247895 270.551623 
L 170.355859 262.376013 
L 170.571797 275.058453 
L 170.679761 278.380092 
L 170.895688 292.56455 
L 171.003662 287.380618 
L 171.21959 258.922876 
L 171.435528 289.303921 
L 171.543491 287.460357 
L 171.759429 269.398352 
L 171.867393 276.468903 
L 171.975367 275.16582 
L 172.191295 291.603713 
L 172.299269 264.685049 
L 172.407233 284.882042 
L 172.515196 255.930806 
L 172.62316 261.56585 
L 172.731134 253.387022 
L 172.947061 279.20138 
L 173.055036 260.284752 
L 173.163 270.249351 
L 173.270963 254.111541 
L 173.378938 263.170383 
L 173.486901 255.398118 
L 173.594865 272.600112 
L 173.702839 262.670256 
L 173.918766 286.2256 
L 174.134704 268.921841 
L 174.350632 287.357767 
L 174.674533 259.372611 
L 174.782508 269.446719 
L 175.106409 244.96068 
L 175.214373 243.372383 
L 175.322337 270.903086 
L 175.430311 254.043593 
L 175.538275 261.939189 
L 175.646238 284.733319 
L 175.862176 265.463353 
L 175.97014 281.874426 
L 176.186078 259.101668 
L 176.402005 283.599274 
L 176.50998 273.367083 
L 176.617943 274.076605 
L 176.725907 285.804194 
L 176.941845 261.077469 
L 177.049809 262.384108 
L 177.157772 265.323708 
L 177.265747 243.274238 
L 177.481685 256.045082 
L 177.589659 263.092142 
L 177.697623 277.848954 
L 177.805586 267.861829 
L 178.021524 295.488 
L 178.45339 260.200546 
L 178.561353 258.840104 
L 178.669328 252.739369 
L 178.885255 272.856324 
L 178.993229 283.748939 
L 179.101193 257.728228 
L 179.209157 281.036005 
L 179.31712 278.887493 
L 179.533058 264.930184 
L 179.641022 264.33463 
L 179.748996 260.64211 
L 179.85696 266.064007 
L 179.964923 255.751049 
L 180.180861 268.420656 
L 180.288825 274.409415 
L 180.612727 241.080931 
L 180.828665 266.107051 
L 180.936628 259.749359 
L 181.152566 277.525616 
L 181.368494 250.340021 
L 181.476468 253.354208 
L 181.584432 254.130895 
L 181.692395 253.987627 
L 181.908333 246.086089 
L 182.016297 261.384707 
L 182.124261 245.095246 
L 182.232235 249.379868 
L 182.448162 236.228326 
L 182.880028 259.281947 
L 182.988002 252.095337 
L 183.095966 255.848812 
L 183.203929 266.699795 
L 183.527831 233.31506 
L 183.635794 254.860957 
L 183.743769 253.21716 
L 183.851732 263.513919 
L 183.959696 249.486874 
L 184.067671 253.95117 
L 184.175634 267.216423 
L 184.283598 265.054421 
L 184.499536 268.092553 
L 184.607499 243.729055 
L 184.823437 264.59856 
L 185.039365 256.618259 
L 185.147339 258.993662 
L 185.255303 273.590835 
L 185.363266 247.88359 
L 185.471241 264.583261 
L 185.687168 239.145491 
L 185.795132 256.233181 
L 185.903106 255.580654 
L 186.119033 244.686683 
L 186.227008 242.981547 
L 186.442935 221.040705 
L 186.658873 258.263514 
L 186.8748 243.669448 
L 186.982775 244.226191 
L 187.198702 239.682049 
L 187.306676 225.954029 
L 187.41464 242.385889 
L 187.630567 217.820401 
L 187.738541 242.080219 
L 187.846505 228.052773 
L 187.954469 244.550807 
L 188.062443 232.059181 
L 188.170407 242.303791 
L 188.494308 208.923297 
L 188.710236 213.103996 
L 188.81821 233.638325 
L 189.034137 203.60879 
L 189.142101 218.715231 
L 189.250075 214.399705 
L 189.358039 197.733845 
L 189.681942 213.749665 
L 189.789905 207.378218 
L 189.89788 213.7434 
L 190.113807 202.531366 
L 190.329745 208.438978 
L 190.545672 225.467338 
L 190.76161 199.464482 
L 190.869574 191.881662 
L 191.085512 213.249915 
L 191.301439 216.882718 
L 191.517377 205.787428 
L 191.625341 206.471687 
L 191.733305 211.919649 
L 191.841279 200.242078 
L 191.949243 208.652303 
L 192.165181 181.92194 
L 192.273144 194.266279 
L 192.381108 188.335868 
L 192.489072 193.786874 
L 192.597046 192.840892 
L 192.812973 208.723234 
L 192.920948 201.434068 
L 193.028911 219.363267 
L 193.136875 183.81354 
L 193.352813 191.327789 
L 193.460776 189.094553 
L 193.56874 205.130846 
L 193.784678 159.158615 
L 193.892642 165.198111 
L 194.000605 177.522304 
L 194.10858 177.049577 
L 194.216543 184.645766 
L 194.432481 150.89227 
L 194.540445 145.371789 
L 194.756372 163.793551 
L 194.864347 168.084408 
L 194.97231 142.350336 
L 195.188248 161.210885 
L 195.296212 143.625387 
L 195.512139 149.996335 
L 195.620114 146.294547 
L 195.836041 156.9845 
L 195.944015 148.978918 
L 196.051979 163.416827 
L 196.267906 143.858254 
L 196.375881 156.487154 
L 196.483844 150.557267 
L 196.591808 156.76814 
L 196.807746 150.216553 
L 196.915709 153.885029 
L 197.023673 134.768805 
L 197.131647 150.426706 
L 197.239611 126.946789 
L 197.455538 133.108094 
L 197.563513 150.121621 
L 197.671476 147.14137 
L 197.77944 148.126591 
L 198.103342 133.561667 
L 198.211305 159.641182 
L 198.535207 123.027124 
L 198.751145 141.15994 
L 198.859109 134.47827 
L 198.967072 140.69719 
L 199.398937 109.582692 
L 199.614875 139.718398 
L 199.722839 122.26192 
L 199.830813 123.676807 
L 199.938777 117.021812 
L 200.046741 122.197354 
L 200.154704 115.908966 
L 200.478606 141.900457 
L 200.58658 120.769477 
L 200.802508 140.853972 
L 201.018446 119.242549 
L 201.126409 124.845008 
L 201.234373 124.585451 
L 201.450311 115.674314 
L 201.88217 134.383674 
L 201.990134 133.778744 
L 202.206072 121.860783 
L 202.314036 132.563981 
L 202.421999 131.253489 
L 202.529963 127.236763 
L 202.853864 105.454021 
L 202.961839 114.81917 
L 203.177766 92.749721 
L 203.501668 129.768156 
L 203.609631 118.953036 
L 203.717595 123.758693 
L 203.825569 106.897099 
L 203.933533 110.706952 
L 204.149471 88.865904 
L 204.365398 109.247663 
L 204.473362 94.170101 
L 204.581336 106.929617 
L 204.6893 88.409332 
L 204.797264 92.456114 
L 204.905227 77.762131 
L 205.013202 117.2745 
L 205.121165 112.219948 
L 205.229129 127.305071 
L 205.337103 126.576268 
L 205.445067 145.897171 
L 205.660994 112.568284 
L 205.876932 106.530958 
L 206.092859 135.670288 
L 206.200834 111.363601 
L 206.308797 119.350832 
L 206.524735 99.992873 
L 206.632699 98.693422 
L 206.740663 109.549568 
L 206.848626 105.476241 
L 206.956601 105.59948 
L 207.064564 113.544179 
L 207.172528 77.974652 
L 207.280492 90.258108 
L 207.388466 121.507015 
L 207.49643 99.054179 
L 207.604393 108.731614 
L 207.712357 107.13264 
L 207.820331 114.530429 
L 208.036258 93.683297 
L 208.252197 96.863003 
L 208.36016 92.346286 
L 208.468124 115.325067 
L 208.576098 101.359998 
L 208.684062 103.505901 
L 208.792025 109.229887 
L 208.899989 97.898219 
L 209.007963 99.825975 
L 209.115927 111.50757 
L 209.331854 88.011647 
L 209.439829 96.636799 
L 209.655756 124.216571 
L 209.76373 115.883626 
L 209.871694 117.215259 
L 210.087621 89.731061 
L 210.195596 110.183772 
L 210.519486 93.293682 
L 210.627461 81.386291 
L 210.843388 106.797261 
L 210.951352 104.295288 
L 211.059326 119.226529 
L 211.16729 94.957999 
L 211.275253 115.69497 
L 211.383217 103.738949 
L 211.707119 123.270072 
L 211.815093 103.932093 
L 212.03102 118.209602 
L 212.246958 94.660956 
L 212.354922 100.290007 
L 212.462886 98.45878 
L 212.570849 115.49653 
L 212.678824 115.384552 
L 212.786787 99.486392 
L 212.894751 106.780634 
L 213.002714 85.2233 
L 213.218652 101.816339 
L 213.326616 87.887031 
L 213.43458 99.298781 
L 213.650518 82.551369 
L 213.866445 75.991405 
L 214.082381 96.343579 
L 214.298319 88.022914 
L 214.514246 103.382334 
L 214.62221 116.799055 
L 214.730184 102.713973 
L 214.838148 110.498863 
L 214.946111 99.529171 
L 215.054075 102.878092 
L 215.162049 102.434723 
L 215.270013 105.144884 
L 215.377976 95.604261 
L 215.48594 97.657759 
L 215.593915 97.09229 
L 215.701878 104.041839 
L 215.809842 103.961886 
L 216.02578 110.879633 
L 216.241707 99.779854 
L 216.349671 102.582043 
L 216.457645 116.212964 
L 216.565609 101.309014 
L 216.781536 119.567826 
L 216.88951 110.836579 
L 216.997474 115.01463 
L 217.213401 102.681832 
L 217.321376 114.590077 
L 217.429339 107.258838 
L 217.537303 108.916983 
L 217.645277 102.580882 
L 217.861204 111.251516 
L 218.077143 98.712326 
L 218.185106 119.339177 
L 218.29307 106.342581 
L 218.509008 116.189501 
L 218.724935 127.235789 
L 218.832899 144.278459 
L 218.940873 124.079955 
L 219.048837 130.796523 
L 219.1568 125.460797 
L 219.264764 101.846882 
L 219.372738 103.776109 
L 219.480702 122.733731 
L 219.588666 112.738079 
L 219.696629 115.781587 
L 219.804604 138.287859 
L 219.912567 126.583131 
L 220.020531 132.529163 
L 220.128494 101.340978 
L 220.344432 127.378233 
L 220.452396 115.968538 
L 220.56036 131.023978 
L 220.776298 98.65769 
L 220.884261 96.062206 
L 220.992225 85.206104 
L 221.100199 103.871453 
L 221.208163 86.866523 
L 221.42409 102.89233 
L 221.640028 81.430673 
L 221.96393 102.589085 
L 222.179857 86.509388 
L 222.287821 90.42421 
L 222.395795 120.095276 
L 222.503759 95.080701 
L 222.719686 108.47625 
L 222.82766 104.519769 
L 222.935624 119.479088 
L 223.043588 91.272699 
L 223.151551 92.903617 
L 223.259526 91.136958 
L 223.367489 79.773299 
L 223.583417 107.555396 
L 223.691391 102.963552 
L 223.799355 103.463853 
L 223.907318 101.692929 
L 224.015282 113.382453 
L 224.123256 95.591414 
L 224.447147 101.90106 
L 224.663085 91.857558 
L 224.771049 108.418421 
L 224.879012 94.324379 
L 224.986987 110.513057 
L 225.09495 99.67217 
L 225.202914 109.107839 
L 225.310878 103.128469 
L 225.418852 114.265079 
L 225.526816 112.023642 
L 225.634779 125.087497 
L 225.742743 105.262181 
L 225.958681 111.822904 
L 226.066644 126.230294 
L 226.174608 112.017833 
L 226.282583 127.742697 
L 226.498517 108.609382 
L 226.606481 107.185089 
L 226.822419 124.294117 
L 226.930383 111.981903 
L 227.038346 123.856592 
L 227.254284 108.000568 
L 227.362248 108.904152 
L 227.578186 121.665748 
L 227.68615 94.997847 
L 227.794113 98.614906 
L 227.902077 106.517819 
L 228.010051 124.560723 
L 228.118015 117.194567 
L 228.333942 130.347596 
L 228.54988 101.845612 
L 228.657844 113.446224 
L 228.765807 105.148669 
L 228.873771 120.120065 
L 228.981745 113.470657 
L 229.089709 98.577797 
L 229.197673 101.450417 
L 229.413611 112.256333 
L 229.521574 91.822942 
L 229.629538 106.205028 
L 229.737501 105.851881 
L 229.845476 110.036193 
L 230.061403 93.578512 
L 230.169367 119.971106 
L 230.277341 114.694474 
L 230.385305 125.524684 
L 230.493268 93.169017 
L 230.709206 121.979418 
L 230.81717 108.615193 
L 230.925134 119.303372 
L 231.033097 119.24618 
L 231.141072 102.572958 
L 231.249035 121.641471 
L 231.356999 91.586532 
L 231.464963 112.778906 
L 231.572926 102.658237 
L 231.788864 119.567249 
L 231.896828 104.365958 
L 232.004791 109.712793 
L 232.220729 101.151261 
L 232.328693 109.258743 
L 232.544631 102.39919 
L 232.652595 100.643834 
L 232.760558 95.096532 
L 232.976496 116.611935 
L 233.08446 134.12841 
L 233.300387 109.718024 
L 233.408362 116.573856 
L 233.516325 97.949878 
L 233.732252 111.835516 
L 233.840227 108.082679 
L 233.948191 122.516073 
L 234.164118 103.915547 
L 234.272081 95.587724 
L 234.380056 117.997006 
L 234.488019 116.5337 
L 234.595983 127.158449 
L 234.811921 96.322252 
L 235.135812 121.81548 
L 235.243786 117.806479 
L 235.35175 99.758755 
L 235.459714 109.071642 
L 235.567677 107.118961 
L 235.675652 107.501666 
L 235.783615 113.866497 
L 235.891579 106.599909 
L 235.999542 119.964497 
L 236.21548 111.205788 
L 236.323444 110.671602 
L 236.431408 117.969323 
L 236.539371 112.638668 
L 236.647346 123.127319 
L 236.755309 117.007725 
L 236.863273 104.530764 
L 236.971237 124.37455 
L 237.079211 104.110739 
L 237.187175 123.258332 
L 237.403102 110.705313 
L 237.511076 123.988534 
L 237.61904 110.891637 
L 237.727003 113.67944 
L 237.834967 110.453631 
L 237.942931 120.022331 
L 238.050905 99.675434 
L 238.158869 122.661868 
L 238.266832 108.364099 
L 238.374796 111.946625 
L 238.48277 102.217782 
L 238.698695 119.227192 
L 238.914633 98.958713 
L 239.022597 103.935835 
L 239.13056 117.415216 
L 239.454462 103.555727 
L 239.562425 82.906588 
L 239.778353 112.992197 
L 239.886327 121.963299 
L 239.994291 99.472643 
L 240.102254 103.318649 
L 240.210218 112.111145 
L 240.426156 108.30391 
L 240.53412 122.269187 
L 240.750047 95.030316 
L 240.858021 107.681754 
L 240.965985 93.388317 
L 241.181912 106.537623 
L 241.289886 82.021807 
L 241.39785 88.866585 
L 241.505814 75.146642 
L 241.613777 104.939119 
L 241.829715 83.969406 
L 241.937679 96.4655 
L 242.045643 92.760642 
L 242.153606 119.318475 
L 242.369544 113.681558 
L 242.477508 120.848329 
L 242.693446 104.756058 
L 242.801409 120.955059 
L 243.1253 97.556638 
L 243.233275 79.626035 
L 243.341238 98.928289 
L 243.449202 82.216911 
L 243.557166 114.252057 
L 243.773104 103.721538 
L 243.989031 114.66667 
L 244.096994 116.520017 
L 244.204969 98.687829 
L 244.312932 115.234419 
L 244.420896 91.602054 
L 244.52886 103.029213 
L 244.636834 101.766944 
L 244.744798 107.647704 
L 244.960725 101.091826 
L 245.068699 116.845081 
L 245.176663 90.283829 
L 245.39259 99.786576 
L 245.500554 96.42404 
L 245.608528 87.871036 
L 245.716492 102.489437 
L 245.824455 92.442432 
L 245.932419 92.828296 
L 246.256321 72.845512 
L 246.364284 87.424982 
L 246.472248 79.473779 
L 246.580222 87.370398 
L 246.688186 81.836667 
L 246.79615 97.572652 
L 247.012088 82.529187 
L 247.120051 104.487622 
L 247.228015 97.32575 
L 247.335979 81.332586 
L 247.551917 97.310197 
L 247.65988 98.867713 
L 247.767844 114.276493 
L 247.875807 111.59583 
L 247.983782 91.562956 
L 248.199709 99.324016 
L 248.307673 91.529971 
L 248.415636 95.562656 
L 248.631574 119.324437 
L 248.847502 102.491815 
L 248.955476 102.714318 
L 249.06344 100.310702 
L 249.171403 104.149519 
L 249.279367 92.866195 
L 249.38733 109.086538 
L 249.495305 96.045514 
L 249.603268 98.511682 
L 249.711232 89.743755 
L 249.927159 105.423848 
L 250.035134 115.82355 
L 250.466999 94.327049 
L 250.574963 111.738845 
L 250.79089 101.871921 
L 250.898863 114.215066 
L 251.11479 89.008621 
L 251.330717 113.936147 
L 251.438692 105.159659 
L 251.546655 107.623544 
L 251.654619 105.130625 
L 251.978521 123.565762 
L 252.086484 136.92932 
L 252.410386 98.188226 
L 252.51835 93.557451 
L 252.626313 110.689885 
L 252.734277 109.393664 
L 252.84224 115.168482 
L 252.950215 112.278268 
L 253.166142 95.154928 
L 253.274106 101.33155 
L 253.382069 121.883032 
L 253.598007 104.524606 
L 253.705971 102.626499 
L 253.813935 103.035053 
L 253.921909 106.309288 
L 254.029873 113.896142 
L 254.137836 113.661265 
L 254.2458 94.191686 
L 254.353763 109.542152 
L 254.461738 80.99976 
L 254.677665 93.386996 
L 254.785629 80.210793 
L 255.001567 105.475721 
L 255.10953 88.643012 
L 255.325458 117.634861 
L 255.433432 114.291089 
L 255.541396 105.872177 
L 255.649359 123.250664 
L 255.757323 120.444648 
L 255.865286 106.110392 
L 255.973261 111.441202 
L 256.081224 106.299351 
L 256.189188 109.691584 
L 256.51309 98.297789 
L 256.621053 123.565912 
L 256.729017 121.071233 
L 256.836981 129.300244 
L 257.052919 110.049767 
L 257.160882 105.53718 
L 257.376809 119.590879 
L 257.484784 117.326345 
L 257.592747 110.095018 
L 257.700711 128.620516 
L 257.916638 108.790087 
L 258.024613 122.804645 
L 258.132576 111.656822 
L 258.24054 112.617363 
L 258.564442 135.20458 
L 258.672405 134.380364 
L 258.780369 123.683765 
L 258.888332 130.223874 
L 259.10427 114.281301 
L 259.320198 133.414598 
L 259.860027 111.900118 
L 259.96799 125.004207 
L 260.183928 103.536987 
L 260.399855 120.427174 
L 260.507819 106.281156 
L 260.615793 108.733822 
L 260.723757 128.694202 
L 260.831721 125.2394 
L 260.939684 106.231172 
L 261.047648 115.158598 
L 261.263586 83.873096 
L 261.587488 129.146548 
L 261.695451 127.28172 
L 261.911378 136.376438 
L 262.019342 121.260016 
L 262.127316 124.280406 
L 262.23528 134.373896 
L 262.343244 120.759587 
L 262.451207 134.901828 
L 262.667145 122.371588 
L 262.775109 91.075353 
L 262.991036 119.05183 
L 263.20697 121.481355 
L 263.314934 122.09456 
L 263.422897 105.296511 
L 263.530861 119.691357 
L 263.638825 105.047765 
L 263.746799 116.349539 
L 263.854763 105.359714 
L 264.07069 121.572525 
L 264.178653 123.276978 
L 264.394591 120.024397 
L 264.610519 107.524337 
L 264.826457 110.772932 
L 264.93442 129.251519 
L 265.366286 100.759545 
L 265.474249 107.865727 
L 265.582213 128.96711 
L 265.690176 122.573087 
L 265.79814 104.825499 
L 266.014078 144.565785 
L 266.122042 123.457334 
L 266.230005 141.486734 
L 266.553907 113.202554 
L 266.769834 134.813816 
L 266.877809 127.963936 
L 266.985772 137.765961 
L 267.093736 123.18632 
L 267.309663 141.643292 
L 267.525601 118.80417 
L 267.633565 125.80006 
L 267.849492 109.620046 
L 268.06543 123.488386 
L 268.281357 114.235968 
L 268.497295 136.597116 
L 268.605259 106.331332 
L 268.713222 120.322396 
L 268.821186 112.837935 
L 268.92915 91.169575 
L 269.037124 91.74408 
L 269.145088 91.930319 
L 269.361015 104.856879 
L 269.468979 104.288501 
L 269.576953 117.388782 
L 269.684917 104.875589 
L 269.79288 105.416982 
L 270.008807 128.426758 
L 270.116771 111.013893 
L 270.224745 116.215875 
L 270.332709 112.705187 
L 270.548636 122.297031 
L 270.764574 106.792484 
L 270.980502 123.354846 
L 271.088465 104.454487 
L 271.196429 109.3392 
L 271.304403 107.242034 
L 271.52033 112.52422 
L 271.628294 94.651384 
L 271.736258 110.196451 
L 271.952196 95.014821 
L 272.060159 102.272559 
L 272.168123 98.411316 
L 272.384061 114.181948 
L 272.492025 95.218142 
L 272.815915 112.512485 
L 272.92389 112.926581 
L 273.031853 101.782863 
L 273.139817 112.647168 
L 273.247781 111.882167 
L 273.355744 112.527635 
L 273.463719 104.592559 
L 273.571682 108.217579 
L 273.679646 105.225733 
L 273.78761 95.16043 
L 274.003548 117.834899 
L 274.219475 110.936596 
L 274.435402 119.970007 
L 274.543376 117.431175 
L 274.65134 109.374006 
L 274.759304 120.204388 
L 274.867267 115.356801 
L 275.083194 122.225039 
L 275.191169 108.322542 
L 275.299133 109.982046 
L 275.407096 105.0565 
L 275.515057 114.743241 
L 275.623021 109.987751 
L 275.730995 117.115276 
L 275.838959 116.813251 
L 275.946922 83.890216 
L 276.486751 127.86938 
L 276.594715 114.736528 
L 276.702678 117.071072 
L 276.810653 105.283236 
L 277.02658 125.824349 
L 277.134544 124.777325 
L 277.242507 132.691555 
L 277.566409 82.040833 
L 277.782336 117.770187 
L 277.8903 111.257684 
L 277.998274 112.759553 
L 278.106238 99.203042 
L 278.214201 121.455753 
L 278.322165 113.358277 
L 278.430129 121.35423 
L 278.538103 116.495601 
L 278.646067 124.271676 
L 278.75403 122.20982 
L 278.861994 122.774628 
L 278.969958 116.520139 
L 279.077921 121.452576 
L 279.185896 120.21469 
L 279.293859 116.847084 
L 279.401823 121.394079 
L 279.509786 143.462246 
L 279.61775 128.274088 
L 279.725724 139.166619 
L 279.941652 121.111004 
L 280.049615 118.393138 
L 280.157579 125.416899 
L 280.265553 121.766131 
L 280.373517 134.558276 
L 280.481481 123.529917 
L 280.589444 125.29106 
L 280.697408 124.553077 
L 280.913346 148.702419 
L 281.021309 146.442356 
L 281.129273 139.715941 
L 281.237237 142.171142 
L 281.3452 123.488423 
L 281.561138 126.814753 
L 281.669102 144.087549 
L 281.777065 122.943751 
L 281.885029 139.41459 
L 281.993004 138.803329 
L 282.100967 120.025402 
L 282.208931 120.148711 
L 282.316894 131.615063 
L 282.424858 129.00423 
L 282.532822 132.091775 
L 282.640796 138.704385 
L 282.74876 127.309425 
L 282.856723 139.570117 
L 282.964687 139.06928 
L 283.07265 131.431641 
L 283.180625 132.025637 
L 283.504516 125.065701 
L 283.612479 127.797977 
L 283.936381 110.800644 
L 284.260272 151.588873 
L 284.47621 124.052617 
L 284.584173 133.443034 
L 284.692137 124.05685 
L 284.800101 142.424373 
L 285.016039 111.692714 
L 285.124002 121.705023 
L 285.231966 106.099938 
L 285.33993 119.811928 
L 285.447893 109.16361 
L 285.555868 131.361471 
L 285.663831 121.656683 
L 285.879758 150.063914 
L 285.987722 143.844386 
L 286.095696 149.031014 
L 286.20366 138.81351 
L 286.311624 142.952877 
L 286.527551 128.096006 
L 286.635515 151.76472 
L 286.743489 132.741022 
L 286.851453 139.204608 
L 287.06738 128.932813 
L 287.283318 149.451485 
L 287.391281 133.219325 
L 287.499245 154.248036 
L 287.715175 120.030089 
L 287.823139 124.615309 
L 288.039077 144.558764 
L 288.362967 101.224833 
L 288.578906 116.372948 
L 288.686869 110.512103 
L 288.794833 128.851336 
L 289.01076 115.060028 
L 289.118734 121.156862 
L 289.226698 139.380944 
L 289.334662 133.629063 
L 289.442625 152.135838 
L 289.550589 151.129489 
L 289.658552 133.045734 
L 289.766527 148.049766 
L 289.87449 144.699855 
L 290.090418 116.123442 
L 290.198381 121.433663 
L 290.306356 115.478006 
L 290.414319 128.197828 
L 290.522283 121.295276 
L 290.630247 123.326786 
L 290.73821 123.242985 
L 290.846174 127.623821 
L 290.954148 141.418757 
L 291.062112 136.714678 
L 291.170075 143.922908 
L 291.386003 138.511004 
L 291.493966 141.839796 
L 291.709904 115.038382 
L 291.925832 111.728633 
L 292.14177 120.663569 
L 292.249733 110.857212 
L 292.357697 112.309618 
L 292.46566 101.963814 
L 292.573624 110.5633 
L 292.681588 106.14274 
L 292.789562 111.194494 
L 292.897526 101.039583 
L 293.005489 114.312672 
L 293.113453 113.591974 
L 293.221416 117.682529 
L 293.32938 111.00752 
L 293.437355 120.991447 
L 293.545318 105.937534 
L 293.869209 125.313453 
L 294.085147 113.430573 
L 294.193111 111.228723 
L 294.301074 123.9444 
L 294.409038 117.598784 
L 294.517001 117.992 
L 294.732939 104.479645 
L 294.840903 95.7242 
L 294.948867 105.551281 
L 295.05683 131.984834 
L 295.164794 127.217617 
L 295.272768 148.299439 
L 295.380732 146.035472 
L 295.488696 128.36442 
L 295.596659 132.474736 
L 295.704623 123.340967 
L 295.920561 126.405165 
L 296.028524 119.027117 
L 296.244452 142.523702 
L 296.352415 144.357575 
L 296.460379 143.409062 
L 296.568353 140.887683 
L 296.676317 146.794732 
L 296.892244 132.068812 
L 297.000208 136.759041 
L 297.216146 129.208745 
L 297.324109 136.743871 
L 297.432073 133.277214 
L 297.755975 115.206888 
L 297.863938 116.686665 
L 297.971902 146.484106 
L 298.079866 138.282396 
L 298.187829 151.670437 
L 298.403767 133.764538 
L 298.511731 150.258799 
L 298.619694 150.135583 
L 298.727658 136.754588 
L 298.835622 148.428655 
L 299.05156 133.005949 
L 299.159523 138.430588 
L 299.37545 123.313755 
L 299.483414 130.076055 
L 299.591378 128.827549 
L 299.699352 137.520435 
L 299.915279 105.676251 
L 300.239185 160.066816 
L 300.563087 127.077179 
L 300.779014 152.0458 
L 300.886978 156.900684 
L 300.994952 140.981791 
L 301.102916 147.849694 
L 301.210879 144.18193 
L 301.318843 145.569833 
L 301.858672 182.309186 
L 301.966635 183.826072 
L 302.074599 148.913539 
L 302.182563 161.916787 
L 302.398501 141.979588 
L 302.614428 164.848895 
L 302.722391 165.79251 
L 302.830355 145.738942 
L 302.938329 154.487803 
L 303.046293 151.398121 
L 303.154257 145.05314 
L 303.370184 158.480317 
L 303.586122 135.080606 
L 303.694086 154.758074 
L 303.910013 122.816442 
L 304.233914 139.952189 
L 304.341878 118.905139 
L 304.665769 168.609811 
L 304.881707 142.0139 
L 304.989671 144.699941 
L 305.205598 129.441347 
L 305.313561 132.092368 
L 305.529499 150.15996 
L 305.637463 134.706511 
L 305.745427 150.5768 
L 305.85339 128.73574 
L 305.961354 130.19326 
L 306.177292 135.249335 
L 306.393219 119.004035 
L 306.501183 130.380564 
L 306.71711 108.7057 
L 306.825074 103.868886 
L 306.933048 120.080761 
L 307.041012 118.356971 
L 307.148975 108.373195 
L 307.256939 118.796241 
L 307.364902 93.814151 
L 307.688804 118.307897 
L 307.796768 111.542709 
L 307.904731 111.910454 
L 308.012695 109.940947 
L 308.228633 124.573956 
L 308.336597 106.651542 
L 308.660487 121.329081 
L 308.984389 80.305432 
L 309.200316 95.734553 
L 309.30828 86.681677 
L 309.524207 104.973138 
L 309.632182 108.339485 
L 309.740145 117.74006 
L 309.848109 109.282978 
L 309.956072 114.289964 
L 310.172 97.036933 
L 310.279974 98.634378 
L 310.495901 109.951309 
L 310.711828 88.534485 
L 310.819792 114.655895 
L 310.927767 93.495174 
L 311.143694 108.39723 
L 311.251657 92.426595 
L 311.467585 110.014068 
L 311.683523 90.746839 
L 311.791486 95.418933 
L 311.89945 99.728646 
L 312.115377 83.57885 
L 312.331297 109.694572 
L 312.43926 115.66882 
L 312.547224 88.803348 
L 312.655187 110.812507 
L 312.871115 85.989006 
L 312.979089 86.480357 
L 313.087053 92.708572 
L 313.195016 81.67982 
L 313.518907 110.022375 
L 313.842809 89.34668 
L 313.950772 93.834072 
L 314.058736 106.085308 
L 314.274663 98.413004 
L 314.382638 109.080688 
L 314.490601 91.827535 
L 314.706528 116.334804 
L 314.814492 100.788023 
L 314.922456 100.832345 
L 315.030419 108.873296 
L 315.354321 85.174408 
L 315.570248 111.756986 
L 315.678212 107.531818 
L 315.89415 90.33261 
L 316.110077 96.410744 
L 316.326004 99.547827 
L 316.433968 119.404611 
L 316.541942 116.988409 
L 316.75787 98.535278 
L 316.865833 98.860819 
L 317.08176 81.998761 
L 317.189735 98.928221 
L 317.405662 93.437411 
L 317.513626 110.1915 
L 317.621589 98.560912 
L 317.729553 100.123887 
L 317.837516 137.219155 
L 318.053454 96.087234 
L 318.269382 101.565607 
L 318.485309 87.800575 
L 318.593273 89.780259 
L 318.809211 108.753754 
L 319.025138 78.976315 
L 319.349039 111.796329 
L 319.564967 102.613028 
L 319.67293 105.395699 
L 319.780894 89.367372 
L 319.888857 95.009423 
L 319.996821 109.30972 
L 320.104796 93.125967 
L 320.212759 102.864603 
L 320.320723 101.52304 
L 320.428686 121.46291 
L 320.53665 97.123456 
L 320.644614 98.983001 
L 320.752577 110.973004 
L 320.860552 93.374242 
L 321.076479 112.715607 
L 321.292406 100.98087 
L 321.40037 110.894532 
L 321.508344 108.565383 
L 321.616308 96.10857 
L 321.832235 103.508261 
L 321.940199 102.915731 
L 322.048162 116.32258 
L 322.156126 105.852804 
L 322.2641 122.645408 
L 322.480027 91.682994 
L 322.587991 104.959964 
L 322.695955 84.797247 
L 322.911882 106.648473 
L 323.019856 99.993852 
L 323.12782 110.298282 
L 323.343747 87.318764 
L 323.667638 97.169644 
L 323.883576 109.603583 
L 323.99154 108.125496 
L 324.207467 117.378506 
L 324.423394 108.188027 
L 324.531371 108.546701 
L 324.639334 108.290217 
L 324.963225 122.340289 
L 325.179152 108.037298 
L 325.503054 92.193126 
L 325.718981 123.12602 
L 325.826945 109.530804 
L 326.042883 130.048457 
L 326.150847 106.928022 
L 326.25881 118.212331 
L 326.366774 113.022775 
L 326.474737 124.540747 
L 326.690665 109.389186 
L 326.798639 100.585862 
L 326.906603 105.43121 
L 327.014566 104.947097 
L 327.12253 90.289157 
L 327.230493 112.279706 
L 327.338457 110.969643 
L 327.446421 119.034225 
L 327.554395 116.636771 
L 327.662359 121.790622 
L 327.770322 105.417906 
L 327.878286 120.409697 
L 328.094213 112.096233 
L 328.202188 112.958581 
L 328.418115 128.743122 
L 328.526078 129.799766 
L 328.634042 126.051068 
L 328.742006 109.487731 
L 328.849969 127.676448 
L 329.065907 111.620778 
L 329.173871 126.392305 
L 329.497762 98.285457 
L 329.605725 105.426366 
L 329.713689 128.821762 
L 329.929627 104.167652 
L 330.037591 106.241992 
L 330.253518 124.305362 
L 330.361481 126.782431 
L 330.793347 104.424788 
L 331.009274 128.399437 
L 331.117238 115.696016 
L 331.225201 120.821849 
L 331.333176 114.778048 
L 331.441139 125.066594 
L 331.549103 105.210811 
L 331.657066 113.689096 
L 331.76503 101.990014 
L 331.872994 106.777149 
L 331.980957 96.054975 
L 332.088932 98.624003 
L 332.196895 96.196028 
L 332.520786 135.859487 
L 332.62875 141.286076 
L 332.844688 103.726896 
L 332.952651 104.997034 
L 333.060615 89.497002 
L 333.384506 110.738197 
L 333.492469 111.267294 
L 333.600433 106.855142 
L 333.708407 120.871454 
L 333.924335 106.346939 
L 334.032298 120.940519 
L 334.140262 116.208537 
L 334.248226 129.69087 
L 334.356189 108.959677 
L 334.572127 120.492501 
L 334.680091 121.941978 
L 334.896018 119.372997 
L 335.003982 128.557218 
L 335.21992 114.196337 
L 335.327883 123.518913 
L 335.435847 116.85508 
L 335.54381 131.399135 
L 335.867701 104.016449 
L 335.975665 122.446621 
L 336.191603 106.835565 
L 336.40753 119.639862 
L 336.515494 143.805321 
L 336.623457 104.260598 
L 336.731421 110.038772 
L 336.839391 103.646381 
L 336.947355 113.167583 
L 337.055319 111.492016 
L 337.163282 114.141602 
L 337.379209 107.093355 
L 337.487173 103.871268 
L 337.703111 127.375387 
L 337.811075 109.10006 
L 337.919038 114.698326 
L 338.027002 106.422451 
L 338.134965 114.312394 
L 338.242929 113.594517 
L 338.350893 125.753498 
L 338.458867 124.635202 
L 338.566831 98.305635 
L 338.674794 114.911527 
L 338.782758 110.19644 
L 338.890722 112.159048 
L 338.998685 116.880974 
L 339.106649 127.565972 
L 339.214612 124.273485 
L 339.322587 100.425753 
L 339.43055 122.90474 
L 339.538514 120.666465 
L 339.646478 126.510687 
L 339.754441 105.714886 
L 340.078343 126.026088 
L 340.186307 116.585846 
L 340.29427 127.779576 
L 340.402234 114.459021 
L 340.618161 115.866925 
L 340.726125 119.619725 
L 340.942063 111.398885 
L 341.050026 112.997728 
L 341.15799 103.635841 
L 341.265953 111.21292 
L 341.373917 110.492131 
L 341.481881 124.200361 
L 341.697808 108.484085 
L 341.805782 108.683617 
L 341.913746 102.015866 
L 342.02171 117.898502 
L 342.129673 107.894703 
L 342.237637 110.188275 
L 342.453564 128.923128 
L 342.561528 137.346833 
L 342.669502 124.770014 
L 342.777466 136.060025 
L 343.101356 119.637493 
L 343.20932 118.770002 
L 343.425258 105.743518 
L 343.533222 144.703799 
L 343.641185 139.998948 
L 343.857113 115.984522 
L 343.965076 116.389993 
L 344.07304 116.22319 
L 344.181003 110.266701 
L 344.396941 119.564376 
L 344.612869 103.256534 
L 344.720832 121.335631 
L 344.828796 116.69874 
L 344.936759 122.286605 
L 345.044723 105.368143 
L 345.152698 114.995387 
L 345.260661 106.695288 
L 345.584552 137.494092 
L 345.692516 131.66506 
L 345.800479 132.605786 
L 345.908443 107.817213 
L 346.016417 125.445066 
L 346.232344 116.531083 
L 346.340308 125.07131 
L 346.448272 113.484601 
L 346.664199 128.18973 
L 346.772162 124.611859 
L 346.988101 112.21032 
L 347.204028 97.780336 
L 347.311991 106.615638 
L 347.419955 84.506661 
L 347.635882 113.882477 
L 347.743857 110.948559 
L 347.959784 102.516188 
L 348.175711 106.468063 
L 348.391638 86.972787 
L 348.607576 117.571211 
L 348.71554 114.105883 
L 348.823504 96.19461 
L 348.931467 96.742361 
L 349.039443 87.910074 
L 349.147407 110.078297 
L 349.363334 81.769235 
L 349.471308 76.649662 
L 349.579272 91.425169 
L 349.687235 90.146764 
L 350.011126 72.675893 
L 350.11909 92.315649 
L 350.227054 90.80897 
L 350.335028 114.713715 
L 350.550955 100.910584 
L 350.658919 114.487894 
L 350.874846 87.536317 
L 350.98281 109.04832 
L 351.090773 91.636959 
L 351.198748 124.717948 
L 351.306711 99.508182 
L 351.414675 104.544401 
L 351.522638 94.633173 
L 351.630602 112.613995 
L 351.846529 98.201546 
L 351.954493 92.403248 
L 352.062457 116.485117 
L 352.170431 94.294058 
L 352.278395 97.557582 
L 352.386358 89.76423 
L 352.602285 96.380163 
L 352.710249 100.987414 
L 352.926176 120.928467 
L 353.142114 90.737974 
L 353.250078 105.942948 
L 353.358042 90.030434 
L 353.466005 91.942516 
L 353.681932 120.664696 
L 353.789896 115.634082 
L 354.005834 96.65556 
L 354.329725 108.536216 
L 354.545652 99.490067 
L 354.653616 94.591547 
L 354.761579 99.625004 
L 354.869554 109.859462 
L 354.977517 94.825041 
L 355.085481 95.637473 
L 355.301408 114.614677 
L 355.409372 102.301165 
L 355.625299 124.48976 
L 355.733263 116.014183 
L 355.841237 116.08886 
L 355.949201 112.823923 
L 356.057164 124.502309 
L 356.381055 92.764971 
L 356.489019 92.938413 
L 356.81292 109.763133 
L 356.920884 94.990695 
L 357.028848 112.03573 
L 357.136811 94.526471 
L 357.244775 103.547418 
L 357.352738 83.987612 
L 357.460702 92.087407 
L 357.568666 89.789317 
L 357.67664 79.73378 
L 357.784604 85.269324 
L 358.000531 99.370849 
L 358.108494 97.149029 
L 358.540349 60.076555 
L 358.648323 53.568 
L 358.756287 80.445577 
L 358.864251 72.565781 
L 359.188141 88.45113 
L 359.296105 85.177376 
L 359.404069 93.164004 
L 359.620007 76.522244 
L 359.72797 78.118082 
L 359.835934 93.3865 
L 359.943897 85.561908 
L 360.051861 100.03522 
L 360.159825 75.138691 
L 360.267788 89.028161 
L 360.375752 86.895857 
L 360.483716 99.247462 
L 360.699654 84.127531 
L 360.807617 103.721085 
L 361.023544 79.033027 
L 361.239472 95.834251 
L 361.34743 82.197928 
L 361.455405 113.490213 
L 361.779296 99.703551 
L 361.887259 105.776347 
L 361.995223 104.379805 
L 362.21115 90.973194 
L 362.319114 100.002569 
L 362.427088 82.26269 
L 362.535052 86.287659 
L 362.643015 84.30849 
L 362.858942 94.963532 
L 362.966906 91.970065 
L 363.07487 101.359416 
L 363.290797 85.481986 
L 363.398771 92.02942 
L 363.506735 89.056125 
L 363.614699 113.850659 
L 363.830626 89.11953 
L 363.938589 97.485639 
L 364.046553 85.886823 
L 364.154517 92.643943 
L 364.26248 74.526605 
L 364.478418 84.4379 
L 364.586382 77.005684 
L 364.694345 92.223663 
L 364.802309 78.179071 
L 364.910273 81.041573 
L 365.018236 77.498403 
L 365.1262 59.374155 
L 365.234163 77.785795 
L 365.342127 75.789238 
L 365.450102 80.970815 
L 365.558065 58.528253 
L 365.881956 90.160257 
L 366.097883 80.587356 
L 366.31381 89.183689 
L 366.421785 67.486697 
L 366.637712 74.33527 
L 366.745676 109.909067 
L 366.961603 72.880649 
L 367.17753 102.721465 
L 367.285494 94.901905 
L 367.393468 97.349884 
L 367.501432 90.789945 
L 367.609395 94.797216 
L 367.717359 83.476849 
L 367.825323 86.08694 
L 367.933286 80.31634 
L 368.04125 106.393879 
L 368.149213 105.066887 
L 368.365151 89.815806 
L 368.581079 93.743888 
L 368.689042 98.179089 
L 368.797006 87.004028 
L 369.012933 104.742015 
L 369.120897 98.615144 
L 369.336824 109.12799 
L 369.552762 105.962912 
L 369.768689 88.342354 
L 369.876653 105.496786 
L 369.984616 84.862496 
L 370.09258 87.38618 
L 370.200544 81.674954 
L 370.308507 89.987976 
L 370.416482 88.914753 
L 370.524445 104.787914 
L 370.632409 94.728768 
L 370.740373 94.939189 
L 370.848336 96.819784 
L 370.9563 84.52147 
L 371.064263 87.099391 
L 371.280191 101.504121 
L 371.496129 81.175455 
L 371.604092 87.42195 
L 371.712056 85.158581 
L 371.820019 86.130809 
L 371.927983 108.096546 
L 372.14391 83.84871 
L 372.251874 88.383428 
L 372.359837 105.641046 
L 372.467801 77.172515 
L 372.683739 100.39114 
L 372.791703 104.363273 
L 373.115594 85.040429 
L 373.223557 91.140348 
L 373.331521 90.947617 
L 373.439484 91.270083 
L 373.547457 79.384363 
L 373.763384 97.740567 
L 373.871348 103.261446 
L 374.195239 83.172422 
L 374.411166 96.538136 
L 374.519129 75.77874 
L 374.843031 90.702125 
L 374.950995 73.659338 
L 375.166922 98.095765 
L 375.274886 98.201615 
L 375.490813 89.568145 
L 375.598776 91.946134 
L 375.706751 100.450416 
L 375.922678 84.038274 
L 376.138605 106.063359 
L 376.246569 102.231083 
L 376.354533 109.471468 
L 376.462496 108.393888 
L 376.57046 92.66472 
L 376.678423 97.020344 
L 376.786398 89.777377 
L 376.894361 105.462262 
L 377.002325 101.2183 
L 377.110289 101.426551 
L 377.326216 87.86972 
L 377.542143 91.069288 
L 377.650107 79.51355 
L 377.866045 88.596993 
L 378.189936 109.646342 
L 378.405863 92.030194 
L 378.62179 115.97258 
L 378.729754 96.702453 
L 378.837717 106.788637 
L 378.945692 102.666635 
L 379.053655 87.720916 
L 379.161619 97.811824 
L 379.377546 93.112637 
L 379.48551 106.538951 
L 379.593473 106.528056 
L 379.8094 107.534304 
L 379.917364 111.467191 
L 380.133302 97.249004 
L 380.241266 109.143108 
L 380.457193 104.650019 
L 380.565157 107.534548 
L 380.67312 115.161003 
L 380.997011 97.066252 
L 381.104975 112.165034 
L 381.212949 110.696314 
L 381.320913 102.334815 
L 381.428876 122.269317 
L 381.53684 94.906561 
L 381.752767 117.783751 
L 381.860731 118.99312 
L 382.076658 94.299634 
L 382.184622 120.188543 
L 382.292596 107.134969 
L 382.40056 110.715866 
L 382.508523 105.643363 
L 382.616487 112.495268 
L 382.72445 102.304912 
L 382.940378 131.121773 
L 383.048341 122.561282 
L 383.156305 147.195363 
L 383.264268 144.505427 
L 383.372232 137.41508 
L 383.480207 120.570767 
L 383.58817 139.759765 
L 383.912061 124.054365 
L 384.020025 134.307076 
L 384.127988 117.988551 
L 384.235952 130.078165 
L 384.451879 123.437239 
L 384.559843 124.291586 
L 384.883744 104.941966 
L 384.991708 122.957072 
L 385.099671 119.466741 
L 385.315599 128.288144 
L 385.423562 110.339229 
L 385.855432 143.028187 
L 385.963396 133.28776 
L 386.071359 112.65474 
L 386.287287 129.386957 
L 386.39525 123.032993 
L 386.611177 138.661222 
L 386.719141 126.74582 
L 386.935068 142.096279 
L 387.043043 113.933772 
L 387.151006 117.834735 
L 387.366933 134.315251 
L 387.582861 143.109756 
L 387.690824 126.936115 
L 387.798788 133.203545 
L 387.906752 122.478206 
L 388.014715 128.220025 
L 388.122679 140.541033 
L 388.338617 132.274628 
L 388.44658 143.611541 
L 388.554544 126.799487 
L 388.662508 132.203183 
L 388.878435 127.642834 
L 389.202326 143.777506 
L 389.310289 127.178054 
L 389.418264 134.513048 
L 389.526227 129.908582 
L 389.634191 138.065313 
L 389.742155 126.214582 
L 389.958082 151.644024 
L 390.066045 148.363127 
L 390.389936 124.708142 
L 390.605863 149.847137 
L 390.929765 136.35084 
L 391.145692 151.896928 
L 391.253656 153.793814 
L 391.36162 138.917619 
L 391.469583 150.160752 
L 391.577547 144.921792 
L 391.68551 164.633255 
L 391.793474 161.033215 
L 391.901448 166.132086 
L 392.117376 152.514899 
L 392.333303 169.726437 
L 392.54923 124.768543 
L 392.765157 147.621964 
L 392.873121 164.159449 
L 393.089048 148.386463 
L 393.197023 145.473689 
L 393.41295 154.170236 
L 393.628877 121.531659 
L 393.844804 152.483435 
L 394.060731 121.328663 
L 394.276659 152.283079 
L 394.384622 156.418417 
L 394.60056 140.003673 
L 394.708524 147.947486 
L 394.816487 144.561912 
L 394.924451 145.759458 
L 395.032415 159.349337 
L 395.140378 128.856926 
L 395.356306 153.945851 
L 395.464269 161.568512 
L 395.572233 142.211953 
L 395.680196 145.870576 
L 395.896134 135.821689 
L 396.112062 151.542534 
L 396.220025 147.617887 
L 396.435952 151.775185 
L 396.543916 135.835249 
L 396.759843 166.599575 
L 396.867807 171.073972 
L 396.975771 166.461013 
L 397.083745 170.208973 
L 397.191709 138.376572 
L 397.299672 184.135496 
L 397.515599 150.409552 
L 397.623563 154.642487 
L 397.731527 172.676969 
L 397.83949 147.860854 
L 397.947454 162.808116 
L 398.163371 149.107097 
L 398.271335 151.002028 
L 398.379309 146.216442 
L 398.487273 135.447062 
L 398.487273 135.447062 
" clip-path="url(#p268e0a9ed4)" style="fill: none; stroke: #1f77b4; stroke-width: 1.5; stroke-linecap: square"/>
   </g>
   <g id="patch_3">
    <path d="M 57.6 307.584 
L 57.6 41.472 
" style="fill: none; stroke: #000000; stroke-width: 0.8; stroke-linejoin: miter; stroke-linecap: square"/>
   </g>
   <g id="patch_4">
    <path d="M 414.72 307.584 
L 414.72 41.472 
" style="fill: none; stroke: #000000; stroke-width: 0.8; stroke-linejoin: miter; stroke-linecap: square"/>
   </g>
   <g id="patch_5">
    <path d="M 57.6 307.584 
L 414.72 307.584 
" style="fill: none; stroke: #000000; stroke-width: 0.8; stroke-linejoin: miter; stroke-linecap: square"/>
   </g>
   <g id="patch_6">
    <path d="M 57.6 41.472 
L 414.72 41.472 
" style="fill: none; stroke: #000000; stroke-width: 0.8; stroke-linejoin: miter; stroke-linecap: square"/>
   </g>
   <g id="text_15">
    <!-- Thorb-Nidarosdomen-vinkel -->
    <g transform="translate(153.34875 35.472) scale(0.12 -0.12)">
     <defs>
      <path id="DejaVuSans-54" d="M -19 4666 
L 3928 4666 
L 3928 4134 
L 2272 4134 
L 2272 0 
L 1638 0 
L 1638 4134 
L -19 4134 
L -19 4666 
z
" transform="scale(0.015625)"/>
      <path id="DejaVuSans-68" d="M 3513 2113 
L 3513 0 
L 2938 0 
L 2938 2094 
Q 2938 2591 2744 2837 
Q 2550 3084 2163 3084 
Q 1697 3084 1428 2787 
Q 1159 2491 1159 1978 
L 1159 0 
L 581 0 
L 581 4863 
L 1159 4863 
L 1159 2956 
Q 1366 3272 1645 3428 
Q 1925 3584 2291 3584 
Q 2894 3584 3203 3211 
Q 3513 2838 3513 2113 
z
" transform="scale(0.015625)"/>
      <path id="DejaVuSans-6f" d="M 1959 3097 
Q 1497 3097 1228 2736 
Q 959 2375 959 1747 
Q 959 1119 1226 758 
Q 1494 397 1959 397 
Q 2419 397 2687 759 
Q 2956 1122 2956 1747 
Q 2956 2369 2687 2733 
Q 2419 3097 1959 3097 
z
M 1959 3584 
Q 2709 3584 3137 3096 
Q 3566 2609 3566 1747 
Q 3566 888 3137 398 
Q 2709 -91 1959 -91 
Q 1206 -91 779 398 
Q 353 888 353 1747 
Q 353 2609 779 3096 
Q 1206 3584 1959 3584 
z
" transform="scale(0.015625)"/>
      <path id="DejaVuSans-72" d="M 2631 2963 
Q 2534 3019 2420 3045 
Q 2306 3072 2169 3072 
Q 1681 3072 1420 2755 
Q 1159 2438 1159 1844 
L 1159 0 
L 581 0 
L 581 3500 
L 1159 3500 
L 1159 2956 
Q 1341 3275 1631 3429 
Q 1922 3584 2338 3584 
Q 2397 3584 2469 3576 
Q 2541 3569 2628 3553 
L 2631 2963 
z
" transform="scale(0.015625)"/>
      <path id="DejaVuSans-62" d="M 3116 1747 
Q 3116 2381 2855 2742 
Q 2594 3103 2138 3103 
Q 1681 3103 1420 2742 
Q 1159 2381 1159 1747 
Q 1159 1113 1420 752 
Q 1681 391 2138 391 
Q 2594 391 2855 752 
Q 3116 1113 3116 1747 
z
M 1159 2969 
Q 1341 3281 1617 3432 
Q 1894 3584 2278 3584 
Q 2916 3584 3314 3078 
Q 3713 2572 3713 1747 
Q 3713 922 3314 415 
Q 2916 -91 2278 -91 
Q 1894 -91 1617 61 
Q 1341 213 1159 525 
L 1159 0 
L 581 0 
L 581 4863 
L 1159 4863 
L 1159 2969 
z
" transform="scale(0.015625)"/>
      <path id="DejaVuSans-2d" d="M 313 2009 
L 1997 2009 
L 1997 1497 
L 313 1497 
L 313 2009 
z
" transform="scale(0.015625)"/>
      <path id="DejaVuSans-4e" d="M 628 4666 
L 1478 4666 
L 3547 763 
L 3547 4666 
L 4159 4666 
L 4159 0 
L 3309 0 
L 1241 3903 
L 1241 0 
L 628 0 
L 628 4666 
z
" transform="scale(0.015625)"/>
      <path id="DejaVuSans-61" d="M 2194 1759 
Q 1497 1759 1228 1600 
Q 959 1441 959 1056 
Q 959 750 1161 570 
Q 1363 391 1709 391 
Q 2188 391 2477 730 
Q 2766 1069 2766 1631 
L 2766 1759 
L 2194 1759 
z
M 3341 1997 
L 3341 0 
L 2766 0 
L 2766 531 
Q 2569 213 2275 61 
Q 1981 -91 1556 -91 
Q 1019 -91 701 211 
Q 384 513 384 1019 
Q 384 1609 779 1909 
Q 1175 2209 1959 2209 
L 2766 2209 
L 2766 2266 
Q 2766 2663 2505 2880 
Q 2244 3097 1772 3097 
Q 1472 3097 1187 3025 
Q 903 2953 641 2809 
L 641 3341 
Q 956 3463 1253 3523 
Q 1550 3584 1831 3584 
Q 2591 3584 2966 3190 
Q 3341 2797 3341 1997 
z
" transform="scale(0.015625)"/>
      <path id="DejaVuSans-6e" d="M 3513 2113 
L 3513 0 
L 2938 0 
L 2938 2094 
Q 2938 2591 2744 2837 
Q 2550 3084 2163 3084 
Q 1697 3084 1428 2787 
Q 1159 2491 1159 1978 
L 1159 0 
L 581 0 
L 581 3500 
L 1159 3500 
L 1159 2956 
Q 1366 3272 1645 3428 
Q 1925 3584 2291 3584 
Q 2894 3584 3203 3211 
Q 3513 2838 3513 2113 
z
" transform="scale(0.015625)"/>
      <path id="DejaVuSans-76" d="M 191 3500 
L 800 3500 
L 1894 563 
L 2988 3500 
L 3597 3500 
L 2284 0 
L 1503 0 
L 191 3500 
z
" transform="scale(0.015625)"/>
      <path id="DejaVuSans-6b" d="M 581 4863 
L 1159 4863 
L 1159 1991 
L 2875 3500 
L 3609 3500 
L 1753 1863 
L 3688 0 
L 2938 0 
L 1159 1709 
L 1159 0 
L 581 0 
L 581 4863 
z
" transform="scale(0.015625)"/>
      <path id="DejaVuSans-6c" d="M 603 4863 
L 1178 4863 
L 1178 0 
L 603 0 
L 603 4863 
z
" transform="scale(0.015625)"/>
     </defs>
     <use xlink:href="#DejaVuSans-54"/>
     <use xlink:href="#DejaVuSans-68" x="61.083984"/>
     <use xlink:href="#DejaVuSans-6f" x="124.462891"/>
     <use xlink:href="#DejaVuSans-72" x="185.644531"/>
     <use xlink:href="#DejaVuSans-62" x="226.757812"/>
     <use xlink:href="#DejaVuSans-2d" x="290.234375"/>
     <use xlink:href="#DejaVuSans-4e" x="326.318359"/>
     <use xlink:href="#DejaVuSans-69" x="401.123047"/>
     <use xlink:href="#DejaVuSans-64" x="428.90625"/>
     <use xlink:href="#DejaVuSans-61" x="492.382812"/>
     <use xlink:href="#DejaVuSans-72" x="553.662109"/>
     <use xlink:href="#DejaVuSans-6f" x="592.525391"/>
     <use xlink:href="#DejaVuSans-73" x="653.707031"/>
     <use xlink:href="#DejaVuSans-64" x="705.806641"/>
     <use xlink:href="#DejaVuSans-6f" x="769.283203"/>
     <use xlink:href="#DejaVuSans-6d" x="830.464844"/>
     <use xlink:href="#DejaVuSans-65" x="927.876953"/>
     <use xlink:href="#DejaVuSans-6e" x="989.400391"/>
     <use xlink:href="#DejaVuSans-2d" x="1052.779297"/>
     <use xlink:href="#DejaVuSans-76" x="1086.238281"/>
     <use xlink:href="#DejaVuSans-69" x="1145.417969"/>
     <use xlink:href="#DejaVuSans-6e" x="1173.201172"/>
     <use xlink:href="#DejaVuSans-6b" x="1236.580078"/>
     <use xlink:href="#DejaVuSans-65" x="1290.865234"/>
     <use xlink:href="#DejaVuSans-6c" x="1352.388672"/>
    </g>
   </g>
   <g id="legend_1">
    <g id="patch_7">
     <path d="M 64.6 64.150125 
L 234.61875 64.150125 
Q 236.61875 64.150125 236.61875 62.150125 
L 236.61875 48.472 
Q 236.61875 46.472 234.61875 46.472 
L 64.6 46.472 
Q 62.6 46.472 62.6 48.472 
L 62.6 62.150125 
Q 62.6 64.150125 64.6 64.150125 
z
" style="fill: #ffffff; opacity: 0.8; stroke: #cccccc; stroke-linejoin: miter"/>
    </g>
    <g id="line2d_14">
     <path d="M 66.6 54.570438 
L 76.6 54.570438 
L 86.6 54.570438 
" style="fill: none; stroke: #1f77b4; stroke-width: 1.5; stroke-linecap: square"/>
    </g>
    <g id="text_16">
     <!-- Thorb-Nidarosdomen-vinkel -->
     <g transform="translate(94.6 58.070438) scale(0.1 -0.1)">
      <use xlink:href="#DejaVuSans-54"/>
      <use xlink:href="#DejaVuSans-68" x="61.083984"/>
      <use xlink:href="#DejaVuSans-6f" x="124.462891"/>
      <use xlink:href="#DejaVuSans-72" x="185.644531"/>
      <use xlink:href="#DejaVuSans-62" x="226.757812"/>
      <use xlink:href="#DejaVuSans-2d" x="290.234375"/>
      <use xlink:href="#DejaVuSans-4e" x="326.318359"/>
      <use xlink:href="#DejaVuSans-69" x="401.123047"/>
      <use xlink:href="#DejaVuSans-64" x="428.90625"/>
      <use xlink:href="#DejaVuSans-61" x="492.382812"/>
      <use xlink:href="#DejaVuSans-72" x="553.662109"/>
      <use xlink:href="#DejaVuSans-6f" x="592.525391"/>
      <use xlink:href="#DejaVuSans-73" x="653.707031"/>
      <use xlink:href="#DejaVuSans-64" x="705.806641"/>
      <use xlink:href="#DejaVuSans-6f" x="769.283203"/>
      <use xlink:href="#DejaVuSans-6d" x="830.464844"/>
      <use xlink:href="#DejaVuSans-65" x="927.876953"/>
      <use xlink:href="#DejaVuSans-6e" x="989.400391"/>
      <use xlink:href="#DejaVuSans-2d" x="1052.779297"/>
      <use xlink:href="#DejaVuSans-76" x="1086.238281"/>
      <use xlink:href="#DejaVuSans-69" x="1145.417969"/>
      <use xlink:href="#DejaVuSans-6e" x="1173.201172"/>
      <use xlink:href="#DejaVuSans-6b" x="1236.580078"/>
      <use xlink:href="#DejaVuSans-65" x="1290.865234"/>
      <use xlink:href="#DejaVuSans-6c" x="1352.388672"/>
     </g>
    </g>
   </g>
  </g>
 </g>
 <defs>
  <clipPath id="p268e0a9ed4">
   <rect x="57.6" y="41.472" width="357.12" height="266.112"/>
  </clipPath>
 </defs>
</svg>
