<?xml version="1.0" encoding="utf-8" standalone="no"?>
<!DOCTYPE svg PUBLIC "-//W3C//DTD SVG 1.1//EN"
  "http://www.w3.org/Graphics/SVG/1.1/DTD/svg11.dtd">
<svg xmlns:xlink="http://www.w3.org/1999/xlink" width="613.6875pt" height="458.691562pt" viewBox="0 0 613.6875 458.691562" xmlns="http://www.w3.org/2000/svg" version="1.1">
 <metadata>
  <rdf:RDF xmlns:dc="http://purl.org/dc/elements/1.1/" xmlns:cc="http://creativecommons.org/ns#" xmlns:rdf="http://www.w3.org/1999/02/22-rdf-syntax-ns#">
   <cc:Work>
    <dc:type rdf:resource="http://purl.org/dc/dcmitype/StillImage"/>
    <dc:date>2023-04-10T19:04:19.601008</dc:date>
    <dc:format>image/svg+xml</dc:format>
    <dc:creator>
     <cc:Agent>
      <dc:title>Matplotlib v3.7.1, https://matplotlib.org/</dc:title>
     </cc:Agent>
    </dc:creator>
   </cc:Work>
  </rdf:RDF>
 </metadata>
 <defs>
  <style type="text/css">*{stroke-linejoin: round; stroke-linecap: butt}</style>
 </defs>
 <g id="figure_1">
  <g id="patch_1">
   <path d="M 0 458.691562 
L 613.6875 458.691562 
L 613.6875 0 
L 0 0 
L 0 458.691562 
z
" style="fill: none"/>
  </g>
  <g id="axes_1">
   <g id="patch_2">
    <path d="M 48.4875 414.957187 
L 606.4875 414.957187 
L 606.4875 26.877187 
L 48.4875 26.877187 
L 48.4875 414.957187 
z
" style="fill: none"/>
   </g>
   <g id="matplotlib.axis_1">
    <g id="xtick_1">
     <g id="line2d_1">
      <path d="M 74.104985 414.957187 
L 74.104985 26.877187 
" clip-path="url(#p0ef184a0ca)" style="fill: none; stroke: #808080; stroke-width: 0.8; stroke-linecap: square"/>
     </g>
     <g id="line2d_2">
      <defs>
       <path id="macd5b0f073" d="M 0 0 
L 0 -5 
" style="stroke: #808080; stroke-width: 0.8"/>
      </defs>
      <g>
       <use xlink:href="#macd5b0f073" x="74.104985" y="414.957187" style="fill: #808080; stroke: #808080; stroke-width: 0.8"/>
      </g>
     </g>
     <g id="text_1">
      <!-- 50 -->
      <g style="fill: #808080" transform="translate(64.561235 429.854844) scale(0.15 -0.15)">
       <defs>
        <path id="DejaVuSans-35" d="M 691 4666 
L 3169 4666 
L 3169 4134 
L 1269 4134 
L 1269 2991 
Q 1406 3038 1543 3061 
Q 1681 3084 1819 3084 
Q 2600 3084 3056 2656 
Q 3513 2228 3513 1497 
Q 3513 744 3044 326 
Q 2575 -91 1722 -91 
Q 1428 -91 1123 -41 
Q 819 9 494 109 
L 494 744 
Q 775 591 1075 516 
Q 1375 441 1709 441 
Q 2250 441 2565 725 
Q 2881 1009 2881 1497 
Q 2881 1984 2565 2268 
Q 2250 2553 1709 2553 
Q 1456 2553 1204 2497 
Q 953 2441 691 2322 
L 691 4666 
z
" transform="scale(0.015625)"/>
        <path id="DejaVuSans-30" d="M 2034 4250 
Q 1547 4250 1301 3770 
Q 1056 3291 1056 2328 
Q 1056 1369 1301 889 
Q 1547 409 2034 409 
Q 2525 409 2770 889 
Q 3016 1369 3016 2328 
Q 3016 3291 2770 3770 
Q 2525 4250 2034 4250 
z
M 2034 4750 
Q 2819 4750 3233 4129 
Q 3647 3509 3647 2328 
Q 3647 1150 3233 529 
Q 2819 -91 2034 -91 
Q 1250 -91 836 529 
Q 422 1150 422 2328 
Q 422 3509 836 4129 
Q 1250 4750 2034 4750 
z
" transform="scale(0.015625)"/>
       </defs>
       <use xlink:href="#DejaVuSans-35"/>
       <use xlink:href="#DejaVuSans-30" x="63.623047"/>
      </g>
     </g>
    </g>
    <g id="xtick_2">
     <g id="line2d_3">
      <path d="M 158.679907 414.957187 
L 158.679907 26.877187 
" clip-path="url(#p0ef184a0ca)" style="fill: none; stroke: #808080; stroke-width: 0.8; stroke-linecap: square"/>
     </g>
     <g id="line2d_4">
      <g>
       <use xlink:href="#macd5b0f073" x="158.679907" y="414.957187" style="fill: #808080; stroke: #808080; stroke-width: 0.8"/>
      </g>
     </g>
     <g id="text_2">
      <!-- 55 -->
      <g style="fill: #808080" transform="translate(149.136157 429.854844) scale(0.15 -0.15)">
       <use xlink:href="#DejaVuSans-35"/>
       <use xlink:href="#DejaVuSans-35" x="63.623047"/>
      </g>
     </g>
    </g>
    <g id="xtick_3">
     <g id="line2d_5">
      <path d="M 243.25483 414.957187 
L 243.25483 26.877187 
" clip-path="url(#p0ef184a0ca)" style="fill: none; stroke: #808080; stroke-width: 0.8; stroke-linecap: square"/>
     </g>
     <g id="line2d_6">
      <g>
       <use xlink:href="#macd5b0f073" x="243.25483" y="414.957187" style="fill: #808080; stroke: #808080; stroke-width: 0.8"/>
      </g>
     </g>
     <g id="text_3">
      <!-- 60 -->
      <g style="fill: #808080" transform="translate(233.71108 429.854844) scale(0.15 -0.15)">
       <defs>
        <path id="DejaVuSans-36" d="M 2113 2584 
Q 1688 2584 1439 2293 
Q 1191 2003 1191 1497 
Q 1191 994 1439 701 
Q 1688 409 2113 409 
Q 2538 409 2786 701 
Q 3034 994 3034 1497 
Q 3034 2003 2786 2293 
Q 2538 2584 2113 2584 
z
M 3366 4563 
L 3366 3988 
Q 3128 4100 2886 4159 
Q 2644 4219 2406 4219 
Q 1781 4219 1451 3797 
Q 1122 3375 1075 2522 
Q 1259 2794 1537 2939 
Q 1816 3084 2150 3084 
Q 2853 3084 3261 2657 
Q 3669 2231 3669 1497 
Q 3669 778 3244 343 
Q 2819 -91 2113 -91 
Q 1303 -91 875 529 
Q 447 1150 447 2328 
Q 447 3434 972 4092 
Q 1497 4750 2381 4750 
Q 2619 4750 2861 4703 
Q 3103 4656 3366 4563 
z
" transform="scale(0.015625)"/>
       </defs>
       <use xlink:href="#DejaVuSans-36"/>
       <use xlink:href="#DejaVuSans-30" x="63.623047"/>
      </g>
     </g>
    </g>
    <g id="xtick_4">
     <g id="line2d_7">
      <path d="M 327.829752 414.957187 
L 327.829752 26.877187 
" clip-path="url(#p0ef184a0ca)" style="fill: none; stroke: #808080; stroke-width: 0.8; stroke-linecap: square"/>
     </g>
     <g id="line2d_8">
      <g>
       <use xlink:href="#macd5b0f073" x="327.829752" y="414.957187" style="fill: #808080; stroke: #808080; stroke-width: 0.8"/>
      </g>
     </g>
     <g id="text_4">
      <!-- 65 -->
      <g style="fill: #808080" transform="translate(318.286002 429.854844) scale(0.15 -0.15)">
       <use xlink:href="#DejaVuSans-36"/>
       <use xlink:href="#DejaVuSans-35" x="63.623047"/>
      </g>
     </g>
    </g>
    <g id="xtick_5">
     <g id="line2d_9">
      <path d="M 412.404674 414.957187 
L 412.404674 26.877187 
" clip-path="url(#p0ef184a0ca)" style="fill: none; stroke: #808080; stroke-width: 0.8; stroke-linecap: square"/>
     </g>
     <g id="line2d_10">
      <g>
       <use xlink:href="#macd5b0f073" x="412.404674" y="414.957187" style="fill: #808080; stroke: #808080; stroke-width: 0.8"/>
      </g>
     </g>
     <g id="text_5">
      <!-- 70 -->
      <g style="fill: #808080" transform="translate(402.860924 429.854844) scale(0.15 -0.15)">
       <defs>
        <path id="DejaVuSans-37" d="M 525 4666 
L 3525 4666 
L 3525 4397 
L 1831 0 
L 1172 0 
L 2766 4134 
L 525 4134 
L 525 4666 
z
" transform="scale(0.015625)"/>
       </defs>
       <use xlink:href="#DejaVuSans-37"/>
       <use xlink:href="#DejaVuSans-30" x="63.623047"/>
      </g>
     </g>
    </g>
    <g id="xtick_6">
     <g id="line2d_11">
      <path d="M 496.979596 414.957187 
L 496.979596 26.877187 
" clip-path="url(#p0ef184a0ca)" style="fill: none; stroke: #808080; stroke-width: 0.8; stroke-linecap: square"/>
     </g>
     <g id="line2d_12">
      <g>
       <use xlink:href="#macd5b0f073" x="496.979596" y="414.957187" style="fill: #808080; stroke: #808080; stroke-width: 0.8"/>
      </g>
     </g>
     <g id="text_6">
      <!-- 75 -->
      <g style="fill: #808080" transform="translate(487.435846 429.854844) scale(0.15 -0.15)">
       <use xlink:href="#DejaVuSans-37"/>
       <use xlink:href="#DejaVuSans-35" x="63.623047"/>
      </g>
     </g>
    </g>
    <g id="xtick_7">
     <g id="line2d_13">
      <path d="M 581.554518 414.957187 
L 581.554518 26.877187 
" clip-path="url(#p0ef184a0ca)" style="fill: none; stroke: #808080; stroke-width: 0.8; stroke-linecap: square"/>
     </g>
     <g id="line2d_14">
      <g>
       <use xlink:href="#macd5b0f073" x="581.554518" y="414.957187" style="fill: #808080; stroke: #808080; stroke-width: 0.8"/>
      </g>
     </g>
     <g id="text_7">
      <!-- 80 -->
      <g style="fill: #808080" transform="translate(572.010768 429.854844) scale(0.15 -0.15)">
       <defs>
        <path id="DejaVuSans-38" d="M 2034 2216 
Q 1584 2216 1326 1975 
Q 1069 1734 1069 1313 
Q 1069 891 1326 650 
Q 1584 409 2034 409 
Q 2484 409 2743 651 
Q 3003 894 3003 1313 
Q 3003 1734 2745 1975 
Q 2488 2216 2034 2216 
z
M 1403 2484 
Q 997 2584 770 2862 
Q 544 3141 544 3541 
Q 544 4100 942 4425 
Q 1341 4750 2034 4750 
Q 2731 4750 3128 4425 
Q 3525 4100 3525 3541 
Q 3525 3141 3298 2862 
Q 3072 2584 2669 2484 
Q 3125 2378 3379 2068 
Q 3634 1759 3634 1313 
Q 3634 634 3220 271 
Q 2806 -91 2034 -91 
Q 1263 -91 848 271 
Q 434 634 434 1313 
Q 434 1759 690 2068 
Q 947 2378 1403 2484 
z
M 1172 3481 
Q 1172 3119 1398 2916 
Q 1625 2713 2034 2713 
Q 2441 2713 2670 2916 
Q 2900 3119 2900 3481 
Q 2900 3844 2670 4047 
Q 2441 4250 2034 4250 
Q 1625 4250 1398 4047 
Q 1172 3844 1172 3481 
z
" transform="scale(0.015625)"/>
       </defs>
       <use xlink:href="#DejaVuSans-38"/>
       <use xlink:href="#DejaVuSans-30" x="63.623047"/>
      </g>
     </g>
    </g>
    <g id="text_8">
     <!-- time [s] -->
     <g style="fill: #808080" transform="translate(298.400391 448.372031) scale(0.15 -0.15)">
      <defs>
       <path id="DejaVuSans-74" d="M 1172 4494 
L 1172 3500 
L 2356 3500 
L 2356 3053 
L 1172 3053 
L 1172 1153 
Q 1172 725 1289 603 
Q 1406 481 1766 481 
L 2356 481 
L 2356 0 
L 1766 0 
Q 1100 0 847 248 
Q 594 497 594 1153 
L 594 3053 
L 172 3053 
L 172 3500 
L 594 3500 
L 594 4494 
L 1172 4494 
z
" transform="scale(0.015625)"/>
       <path id="DejaVuSans-69" d="M 603 3500 
L 1178 3500 
L 1178 0 
L 603 0 
L 603 3500 
z
M 603 4863 
L 1178 4863 
L 1178 4134 
L 603 4134 
L 603 4863 
z
" transform="scale(0.015625)"/>
       <path id="DejaVuSans-6d" d="M 3328 2828 
Q 3544 3216 3844 3400 
Q 4144 3584 4550 3584 
Q 5097 3584 5394 3201 
Q 5691 2819 5691 2113 
L 5691 0 
L 5113 0 
L 5113 2094 
Q 5113 2597 4934 2840 
Q 4756 3084 4391 3084 
Q 3944 3084 3684 2787 
Q 3425 2491 3425 1978 
L 3425 0 
L 2847 0 
L 2847 2094 
Q 2847 2600 2669 2842 
Q 2491 3084 2119 3084 
Q 1678 3084 1418 2786 
Q 1159 2488 1159 1978 
L 1159 0 
L 581 0 
L 581 3500 
L 1159 3500 
L 1159 2956 
Q 1356 3278 1631 3431 
Q 1906 3584 2284 3584 
Q 2666 3584 2933 3390 
Q 3200 3197 3328 2828 
z
" transform="scale(0.015625)"/>
       <path id="DejaVuSans-65" d="M 3597 1894 
L 3597 1613 
L 953 1613 
Q 991 1019 1311 708 
Q 1631 397 2203 397 
Q 2534 397 2845 478 
Q 3156 559 3463 722 
L 3463 178 
Q 3153 47 2828 -22 
Q 2503 -91 2169 -91 
Q 1331 -91 842 396 
Q 353 884 353 1716 
Q 353 2575 817 3079 
Q 1281 3584 2069 3584 
Q 2775 3584 3186 3129 
Q 3597 2675 3597 1894 
z
M 3022 2063 
Q 3016 2534 2758 2815 
Q 2500 3097 2075 3097 
Q 1594 3097 1305 2825 
Q 1016 2553 972 2059 
L 3022 2063 
z
" transform="scale(0.015625)"/>
       <path id="DejaVuSans-20" transform="scale(0.015625)"/>
       <path id="DejaVuSans-5b" d="M 550 4863 
L 1875 4863 
L 1875 4416 
L 1125 4416 
L 1125 -397 
L 1875 -397 
L 1875 -844 
L 550 -844 
L 550 4863 
z
" transform="scale(0.015625)"/>
       <path id="DejaVuSans-73" d="M 2834 3397 
L 2834 2853 
Q 2591 2978 2328 3040 
Q 2066 3103 1784 3103 
Q 1356 3103 1142 2972 
Q 928 2841 928 2578 
Q 928 2378 1081 2264 
Q 1234 2150 1697 2047 
L 1894 2003 
Q 2506 1872 2764 1633 
Q 3022 1394 3022 966 
Q 3022 478 2636 193 
Q 2250 -91 1575 -91 
Q 1294 -91 989 -36 
Q 684 19 347 128 
L 347 722 
Q 666 556 975 473 
Q 1284 391 1588 391 
Q 1994 391 2212 530 
Q 2431 669 2431 922 
Q 2431 1156 2273 1281 
Q 2116 1406 1581 1522 
L 1381 1569 
Q 847 1681 609 1914 
Q 372 2147 372 2553 
Q 372 3047 722 3315 
Q 1072 3584 1716 3584 
Q 2034 3584 2315 3537 
Q 2597 3491 2834 3397 
z
" transform="scale(0.015625)"/>
       <path id="DejaVuSans-5d" d="M 1947 4863 
L 1947 -844 
L 622 -844 
L 622 -397 
L 1369 -397 
L 1369 4416 
L 622 4416 
L 622 4863 
L 1947 4863 
z
" transform="scale(0.015625)"/>
      </defs>
      <use xlink:href="#DejaVuSans-74"/>
      <use xlink:href="#DejaVuSans-69" x="39.208984"/>
      <use xlink:href="#DejaVuSans-6d" x="66.992188"/>
      <use xlink:href="#DejaVuSans-65" x="164.404297"/>
      <use xlink:href="#DejaVuSans-20" x="225.927734"/>
      <use xlink:href="#DejaVuSans-5b" x="257.714844"/>
      <use xlink:href="#DejaVuSans-73" x="296.728516"/>
      <use xlink:href="#DejaVuSans-5d" x="348.828125"/>
     </g>
    </g>
   </g>
   <g id="matplotlib.axis_2">
    <g id="ytick_1">
     <g id="line2d_15">
      <path d="M 48.4875 337.568097 
L 606.4875 337.568097 
" clip-path="url(#p0ef184a0ca)" style="fill: none; stroke: #808080; stroke-width: 0.8; stroke-linecap: square"/>
     </g>
     <g id="line2d_16">
      <defs>
       <path id="m9fa2e78424" d="M 0 0 
L 5 0 
" style="stroke: #808080; stroke-width: 0.8"/>
      </defs>
      <g>
       <use xlink:href="#m9fa2e78424" x="48.4875" y="337.568097" style="fill: #808080; stroke: #808080; stroke-width: 0.8"/>
      </g>
     </g>
     <g id="text_9">
      <!-- 77 -->
      <g style="fill: #808080" transform="translate(25.9 343.266925) scale(0.15 -0.15)">
       <use xlink:href="#DejaVuSans-37"/>
       <use xlink:href="#DejaVuSans-37" x="63.623047"/>
      </g>
     </g>
    </g>
    <g id="ytick_2">
     <g id="line2d_17">
      <path d="M 48.4875 251.949228 
L 606.4875 251.949228 
" clip-path="url(#p0ef184a0ca)" style="fill: none; stroke: #808080; stroke-width: 0.8; stroke-linecap: square"/>
     </g>
     <g id="line2d_18">
      <g>
       <use xlink:href="#m9fa2e78424" x="48.4875" y="251.949228" style="fill: #808080; stroke: #808080; stroke-width: 0.8"/>
      </g>
     </g>
     <g id="text_10">
      <!-- 78 -->
      <g style="fill: #808080" transform="translate(25.9 257.648056) scale(0.15 -0.15)">
       <use xlink:href="#DejaVuSans-37"/>
       <use xlink:href="#DejaVuSans-38" x="63.623047"/>
      </g>
     </g>
    </g>
    <g id="ytick_3">
     <g id="line2d_19">
      <path d="M 48.4875 166.330358 
L 606.4875 166.330358 
" clip-path="url(#p0ef184a0ca)" style="fill: none; stroke: #808080; stroke-width: 0.8; stroke-linecap: square"/>
     </g>
     <g id="line2d_20">
      <g>
       <use xlink:href="#m9fa2e78424" x="48.4875" y="166.330358" style="fill: #808080; stroke: #808080; stroke-width: 0.8"/>
      </g>
     </g>
     <g id="text_11">
      <!-- 79 -->
      <g style="fill: #808080" transform="translate(25.9 172.029186) scale(0.15 -0.15)">
       <defs>
        <path id="DejaVuSans-39" d="M 703 97 
L 703 672 
Q 941 559 1184 500 
Q 1428 441 1663 441 
Q 2288 441 2617 861 
Q 2947 1281 2994 2138 
Q 2813 1869 2534 1725 
Q 2256 1581 1919 1581 
Q 1219 1581 811 2004 
Q 403 2428 403 3163 
Q 403 3881 828 4315 
Q 1253 4750 1959 4750 
Q 2769 4750 3195 4129 
Q 3622 3509 3622 2328 
Q 3622 1225 3098 567 
Q 2575 -91 1691 -91 
Q 1453 -91 1209 -44 
Q 966 3 703 97 
z
M 1959 2075 
Q 2384 2075 2632 2365 
Q 2881 2656 2881 3163 
Q 2881 3666 2632 3958 
Q 2384 4250 1959 4250 
Q 1534 4250 1286 3958 
Q 1038 3666 1038 3163 
Q 1038 2656 1286 2365 
Q 1534 2075 1959 2075 
z
" transform="scale(0.015625)"/>
       </defs>
       <use xlink:href="#DejaVuSans-37"/>
       <use xlink:href="#DejaVuSans-39" x="63.623047"/>
      </g>
     </g>
    </g>
    <g id="ytick_4">
     <g id="line2d_21">
      <path d="M 48.4875 80.711489 
L 606.4875 80.711489 
" clip-path="url(#p0ef184a0ca)" style="fill: none; stroke: #808080; stroke-width: 0.8; stroke-linecap: square"/>
     </g>
     <g id="line2d_22">
      <g>
       <use xlink:href="#m9fa2e78424" x="48.4875" y="80.711489" style="fill: #808080; stroke: #808080; stroke-width: 0.8"/>
      </g>
     </g>
     <g id="text_12">
      <!-- 80 -->
      <g style="fill: #808080" transform="translate(25.9 86.410317) scale(0.15 -0.15)">
       <use xlink:href="#DejaVuSans-38"/>
       <use xlink:href="#DejaVuSans-30" x="63.623047"/>
      </g>
     </g>
    </g>
    <g id="text_13">
     <!-- $\theta$ [deg] -->
     <g style="fill: #808080" transform="translate(18.75 247.917187) rotate(-90) scale(0.15 -0.15)">
      <defs>
       <path id="DejaVuSans-Oblique-3b8" d="M 2913 2219 
L 925 2219 
Q 791 1284 928 888 
Q 1100 400 1566 400 
Q 2034 400 2391 891 
Q 2703 1322 2913 2219 
z
M 3009 2750 
Q 3094 3638 2984 3950 
Q 2813 4444 2353 4444 
Q 1875 4444 1525 3956 
Q 1250 3563 1034 2750 
L 3009 2750 
z
M 2444 4913 
Q 3194 4913 3494 4250 
Q 3794 3591 3566 2422 
Q 3341 1256 2781 594 
Q 2225 -72 1475 -72 
Q 722 -72 425 594 
Q 128 1256 353 2422 
Q 581 3591 1134 4250 
Q 1691 4913 2444 4913 
z
" transform="scale(0.015625)"/>
       <path id="DejaVuSans-64" d="M 2906 2969 
L 2906 4863 
L 3481 4863 
L 3481 0 
L 2906 0 
L 2906 525 
Q 2725 213 2448 61 
Q 2172 -91 1784 -91 
Q 1150 -91 751 415 
Q 353 922 353 1747 
Q 353 2572 751 3078 
Q 1150 3584 1784 3584 
Q 2172 3584 2448 3432 
Q 2725 3281 2906 2969 
z
M 947 1747 
Q 947 1113 1208 752 
Q 1469 391 1925 391 
Q 2381 391 2643 752 
Q 2906 1113 2906 1747 
Q 2906 2381 2643 2742 
Q 2381 3103 1925 3103 
Q 1469 3103 1208 2742 
Q 947 2381 947 1747 
z
" transform="scale(0.015625)"/>
       <path id="DejaVuSans-67" d="M 2906 1791 
Q 2906 2416 2648 2759 
Q 2391 3103 1925 3103 
Q 1463 3103 1205 2759 
Q 947 2416 947 1791 
Q 947 1169 1205 825 
Q 1463 481 1925 481 
Q 2391 481 2648 825 
Q 2906 1169 2906 1791 
z
M 3481 434 
Q 3481 -459 3084 -895 
Q 2688 -1331 1869 -1331 
Q 1566 -1331 1297 -1286 
Q 1028 -1241 775 -1147 
L 775 -588 
Q 1028 -725 1275 -790 
Q 1522 -856 1778 -856 
Q 2344 -856 2625 -561 
Q 2906 -266 2906 331 
L 2906 616 
Q 2728 306 2450 153 
Q 2172 0 1784 0 
Q 1141 0 747 490 
Q 353 981 353 1791 
Q 353 2603 747 3093 
Q 1141 3584 1784 3584 
Q 2172 3584 2450 3431 
Q 2728 3278 2906 2969 
L 2906 3500 
L 3481 3500 
L 3481 434 
z
" transform="scale(0.015625)"/>
      </defs>
      <use xlink:href="#DejaVuSans-Oblique-3b8" transform="translate(0 0.234375)"/>
      <use xlink:href="#DejaVuSans-20" transform="translate(61.181641 0.234375)"/>
      <use xlink:href="#DejaVuSans-5b" transform="translate(92.96875 0.234375)"/>
      <use xlink:href="#DejaVuSans-64" transform="translate(131.982422 0.234375)"/>
      <use xlink:href="#DejaVuSans-65" transform="translate(195.458984 0.234375)"/>
      <use xlink:href="#DejaVuSans-67" transform="translate(256.982422 0.234375)"/>
      <use xlink:href="#DejaVuSans-5d" transform="translate(320.458984 0.234375)"/>
     </g>
    </g>
   </g>
   <g id="line2d_23">
    <path d="M 73.851136 152.460189 
L 74.01983 128.789206 
L 74.18854 137.623322 
L 74.525943 185.33473 
L 74.694636 147.854562 
L 74.863346 152.358868 
L 75.032039 134.913986 
L 75.369442 161.787977 
L 75.538135 140.229366 
L 75.706845 150.763871 
L 75.875539 152.012371 
L 76.044249 151.823143 
L 76.212942 154.030173 
L 76.381652 163.266096 
L 76.550345 125.710707 
L 76.719055 132.333354 
L 76.887748 117.127658 
L 77.056441 148.97536 
L 77.225151 107.344704 
L 77.393845 158.089686 
L 77.562555 161.191432 
L 77.731248 150.686198 
L 77.899958 131.78841 
L 78.068651 138.111915 
L 78.237361 127.457183 
L 78.406054 140.177702 
L 78.574764 138.680926 
L 78.743457 128.039471 
L 78.91215 154.563272 
L 79.080861 137.627026 
L 79.249554 167.390118 
L 79.418264 152.636389 
L 79.586957 149.798029 
L 79.755667 129.785218 
L 79.92436 143.121954 
L 80.093053 135.138022 
L 80.261763 147.657647 
L 80.430456 129.802401 
L 80.599166 123.913439 
L 80.76786 127.400929 
L 81.105263 161.373818 
L 81.273973 206.037588 
L 81.442666 200.835873 
L 81.611359 169.146219 
L 81.780069 177.258398 
L 81.948762 149.472442 
L 82.454873 191.334676 
L 82.792277 149.160515 
L 82.96097 152.167478 
L 83.129663 163.414785 
L 83.298373 124.903405 
L 83.467066 194.420681 
L 83.804469 183.331249 
L 83.973179 192.794014 
L 84.141872 164.669537 
L 84.310566 176.361437 
L 84.479276 166.734152 
L 84.816679 169.797444 
L 84.985372 175.311113 
L 85.154082 176.959856 
L 85.322775 172.421594 
L 85.491485 163.317761 
L 85.828871 177.542913 
L 85.997582 156.310601 
L 86.166275 168.839349 
L 86.334985 162.119213 
L 86.503678 196.625057 
L 86.672388 180.851522 
L 86.841081 181.057557 
L 87.009774 196.639072 
L 87.178484 173.760728 
L 87.347177 205.102829 
L 87.515887 201.380489 
L 87.853291 182.230069 
L 88.021984 202.5278 
L 88.359387 154.630344 
L 88.52808 154.588484 
L 88.69679 131.248315 
L 88.865483 132.034206 
L 89.034193 128.736995 
L 89.54029 157.742064 
L 89.708983 200.482695 
L 89.877693 166.42241 
L 90.046386 190.481805 
L 90.215096 178.879315 
L 90.383789 153.945404 
L 90.552499 173.909934 
L 90.721192 160.916023 
L 90.889886 211.39233 
L 91.395999 152.315618 
L 91.564692 169.832025 
L 91.733402 153.062899 
L 91.902095 157.305939 
L 92.070788 172.919426 
L 92.239498 161.149965 
L 92.408191 161.116662 
L 92.576902 168.82909 
L 92.745595 171.03733 
L 92.914305 177.423005 
L 93.082998 146.323427 
L 93.251691 160.081794 
L 93.420401 161.8693 
L 93.589094 138.741427 
L 93.757804 135.6641 
L 93.926497 165.671809 
L 94.263901 182.158139 
L 94.432611 176.377241 
L 94.601304 153.214059 
L 94.769997 169.827709 
L 94.938707 171.476902 
L 95.1074 166.850988 
L 95.27611 185.023308 
L 95.444803 181.191145 
L 95.613496 190.657874 
L 95.782207 189.854705 
L 95.9509 181.68522 
L 96.11961 184.263658 
L 96.288303 175.803523 
L 96.457013 190.749257 
L 96.625706 171.989707 
L 96.794399 193.39938 
L 96.963109 152.573241 
L 97.131802 181.315389 
L 97.300512 182.056321 
L 97.469206 203.797461 
L 97.637916 161.272603 
L 97.806609 178.377757 
L 97.975302 172.035503 
L 98.144012 185.252618 
L 98.312705 182.189638 
L 98.481415 198.310177 
L 98.650108 191.888394 
L 98.818818 178.613218 
L 98.987511 189.875003 
L 99.156205 193.20601 
L 99.324915 177.612632 
L 99.493608 147.430177 
L 99.662318 163.035466 
L 99.831011 150.612789 
L 99.999721 183.404117 
L 100.168414 191.415604 
L 100.337107 186.458025 
L 100.505817 192.630484 
L 100.674511 192.598057 
L 100.843221 206.666477 
L 101.011914 196.441315 
L 101.349319 162.251859 
L 101.518012 182.803095 
L 101.686722 157.832706 
L 101.855415 149.328243 
L 102.024126 168.536395 
L 102.192819 141.837271 
L 102.361512 151.673493 
L 102.698915 175.897367 
L 102.867625 168.309753 
L 103.036318 133.171511 
L 103.205028 171.070415 
L 103.711125 121.910873 
L 103.879818 166.698143 
L 104.048528 166.256646 
L 104.217221 176.734987 
L 104.385914 196.889958 
L 104.554624 188.330392 
L 104.892027 150.227544 
L 105.06072 136.153054 
L 105.398124 149.445583 
L 105.566817 142.074096 
L 105.735527 119.380308 
L 105.90422 163.982837 
L 106.07293 163.362411 
L 106.241623 188.621222 
L 106.410316 176.69121 
L 106.579026 145.293911 
L 106.747719 162.057275 
L 106.91643 160.207194 
L 107.085123 143.813427 
L 107.253833 172.087735 
L 107.422526 160.98953 
L 107.591219 181.732153 
L 107.759929 181.15184 
L 107.928622 179.478516 
L 108.097332 158.210354 
L 108.266025 168.871281 
L 108.434735 146.255469 
L 108.603429 183.573572 
L 108.772122 153.294714 
L 108.940832 166.775912 
L 109.109525 151.741667 
L 109.278235 182.674718 
L 109.615621 142.785781 
L 109.784331 171.030884 
L 109.953024 167.23408 
L 110.121735 146.164241 
L 110.290428 140.495692 
L 110.459138 178.626178 
L 110.627831 187.138552 
L 110.796524 171.20889 
L 110.965234 175.740841 
L 111.302637 151.281766 
L 111.47133 179.369094 
L 111.640024 183.213995 
L 111.808734 206.686292 
L 111.977427 205.118422 
L 112.146137 221.961321 
L 112.652233 147.618601 
L 112.820926 160.919947 
L 112.989636 154.925178 
L 113.158329 156.208803 
L 113.327023 153.189812 
L 113.495733 156.126565 
L 113.664426 198.457183 
L 113.833136 171.042828 
L 114.170539 169.696665 
L 114.339232 193.258553 
L 114.507925 183.439124 
L 114.676635 181.403286 
L 114.845329 175.068573 
L 115.014039 151.588596 
L 115.351425 175.499751 
L 115.520135 193.553032 
L 115.688828 164.70513 
L 115.857538 181.496099 
L 116.026231 144.445774 
L 116.194924 179.249289 
L 116.363634 189.992692 
L 116.532328 180.832847 
L 116.701038 162.251669 
L 117.038424 199.827448 
L 117.375827 189.353394 
L 117.544537 195.444413 
L 117.71323 193.210033 
L 117.88194 183.839128 
L 118.050633 183.297207 
L 118.219327 180.953473 
L 118.388037 170.852347 
L 118.72544 189.815809 
L 118.894133 192.555778 
L 119.062826 160.492847 
L 119.231536 186.341731 
L 119.400229 173.862491 
L 119.568939 177.749416 
L 119.737633 173.767317 
L 119.906326 187.461373 
L 120.075036 186.980742 
L 120.412439 171.005005 
L 120.581128 180.558264 
L 120.918531 143.043926 
L 121.087224 181.438078 
L 121.255934 175.634889 
L 121.424627 150.280082 
L 121.593321 203.136285 
L 121.762031 199.046657 
L 121.930724 215.28152 
L 122.099434 192.940082 
L 122.268127 214.40762 
L 122.43682 214.924832 
L 122.60553 202.27099 
L 122.774223 162.70779 
L 123.111626 190.275271 
L 123.44903 196.260338 
L 123.617723 181.272713 
L 123.786433 193.568464 
L 123.955126 194.273867 
L 124.123819 159.310511 
L 124.292529 169.878838 
L 124.461222 196.153592 
L 124.629932 162.738699 
L 124.798625 182.917249 
L 124.967319 181.015999 
L 125.136029 193.159497 
L 125.304722 220.057804 
L 125.642125 177.399254 
L 125.810818 180.669488 
L 125.979528 178.204709 
L 126.148221 202.807695 
L 126.316931 210.678051 
L 126.485625 173.117881 
L 126.654318 187.613216 
L 126.823028 168.102969 
L 126.991721 189.62303 
L 127.160431 174.491973 
L 127.329124 172.43459 
L 127.497817 196.6915 
L 127.83522 165.18117 
L 128.00393 172.010479 
L 128.172624 200.026012 
L 128.341317 201.53878 
L 128.67872 147.389144 
L 128.84743 151.185837 
L 129.016123 123.108458 
L 129.184816 183.164834 
L 129.353526 176.731994 
L 129.522219 146.004637 
L 129.69093 183.346787 
L 129.859623 147.338907 
L 130.028316 152.141573 
L 130.197026 163.799966 
L 130.365719 191.470291 
L 130.871815 158.448234 
L 131.040525 149.613783 
L 131.377929 199.518921 
L 131.884025 183.911826 
L 132.052718 183.372038 
L 132.221428 174.689444 
L 132.390121 200.123852 
L 132.558814 170.264496 
L 132.727524 211.469288 
L 133.064911 187.498189 
L 133.233621 184.647255 
L 133.402314 196.72098 
L 133.571024 168.173337 
L 133.739717 191.964338 
L 134.07712 167.770812 
L 134.245813 191.016569 
L 134.414524 176.099053 
L 134.583217 186.238602 
L 134.75191 211.400739 
L 134.92062 184.298829 
L 135.089313 201.634112 
L 135.258023 173.390733 
L 135.426716 207.722354 
L 135.595409 197.6729 
L 135.764119 201.593071 
L 135.932813 215.019593 
L 136.101523 197.469332 
L 136.270216 200.376252 
L 136.438909 201.097119 
L 136.607619 196.808744 
L 136.776312 214.354105 
L 137.113715 158.986088 
L 137.282408 179.74752 
L 137.451118 161.813152 
L 137.619812 189.686179 
L 137.788505 166.378517 
L 138.125908 190.113076 
L 138.294618 177.836162 
L 138.463311 143.178059 
L 138.632004 169.975022 
L 138.800714 156.401472 
L 139.306811 169.531486 
L 139.475504 189.218786 
L 139.812914 171.434965 
L 139.981607 168.754974 
L 140.150317 195.558517 
L 140.31901 191.417006 
L 140.48772 162.342283 
L 140.656413 179.926549 
L 140.825107 182.408526 
L 140.993817 167.771621 
L 141.33122 204.392651 
L 141.668606 156.384196 
L 141.837316 165.619589 
L 142.006009 182.746678 
L 142.174719 230.921531 
L 142.512106 148.629654 
L 142.680816 159.011376 
L 142.849509 157.643875 
L 143.018202 157.738243 
L 143.186912 171.215384 
L 143.355605 164.350097 
L 143.524315 149.036168 
L 143.693008 168.24285 
L 143.861701 167.133633 
L 144.030412 186.550404 
L 144.199105 168.304958 
L 144.367798 192.278757 
L 144.536508 180.385971 
L 144.705201 181.326573 
L 144.873911 201.574304 
L 145.042604 161.663152 
L 145.211297 204.534055 
L 145.380007 163.095046 
L 145.717411 180.773345 
L 145.886104 210.257475 
L 146.054797 177.51565 
L 146.223507 183.702035 
L 146.3922 172.274671 
L 146.560893 171.355169 
L 146.729603 176.102895 
L 146.898296 192.526367 
L 147.067006 164.815623 
L 147.2357 182.08231 
L 147.404393 181.288154 
L 147.573103 177.30891 
L 147.741796 179.900141 
L 147.910489 201.498786 
L 148.079199 188.290086 
L 148.247892 165.500635 
L 148.416602 177.495898 
L 148.585295 180.982026 
L 148.753989 207.627424 
L 148.922699 190.355336 
L 149.091392 185.289513 
L 149.260102 188.821224 
L 149.597488 154.463268 
L 149.766198 193.228023 
L 149.934891 166.17217 
L 150.103584 194.17105 
L 150.272295 180.502199 
L 150.440988 198.157179 
L 150.609698 182.116483 
L 150.778391 195.880109 
L 151.284487 154.654853 
L 151.45318 165.499195 
L 151.62189 136.301002 
L 151.790584 169.09926 
L 151.959294 179.259429 
L 152.127987 197.39272 
L 152.29668 195.433135 
L 152.46539 199.878937 
L 152.634083 183.872357 
L 152.802776 192.620268 
L 153.140179 168.25267 
L 153.477583 210.874164 
L 153.646276 202.212103 
L 153.983679 169.887944 
L 154.321082 181.318828 
L 154.489775 180.878126 
L 154.658485 153.344749 
L 154.995872 169.816894 
L 155.333275 172.034607 
L 155.501968 188.562699 
L 155.670678 181.648551 
L 156.176774 228.553642 
L 156.345467 190.130823 
L 156.514178 183.876325 
L 156.682871 190.194307 
L 156.851564 174.777861 
L 157.020274 170.346328 
L 157.188967 151.12086 
L 157.35766 180.350154 
L 157.52637 166.410519 
L 157.695063 182.878785 
L 157.863773 183.3821 
L 158.032467 181.390868 
L 158.20116 157.082204 
L 158.36987 163.812707 
L 158.538563 164.033518 
L 158.707256 198.889978 
L 158.875958 198.446698 
L 159.044651 189.50454 
L 159.213361 165.303611 
L 159.719457 143.587494 
L 159.88815 182.24441 
L 160.056843 143.885356 
L 160.225553 145.498518 
L 160.394247 172.65825 
L 160.73165 151.588376 
L 160.900343 184.883562 
L 161.069053 183.455609 
L 161.237746 169.741069 
L 161.406439 190.58496 
L 161.575149 163.752516 
L 161.743842 183.892146 
L 161.912536 187.770255 
L 162.081246 169.623529 
L 162.249939 195.47632 
L 162.418649 173.908916 
L 162.587342 204.244818 
L 162.924745 165.870235 
L 163.093438 189.961694 
L 163.262131 181.457563 
L 163.430842 185.4373 
L 163.768228 169.588681 
L 164.105631 194.869176 
L 164.274341 196.522722 
L 164.443034 190.893967 
L 164.780437 172.154785 
L 165.117824 196.572367 
L 165.286534 186.942356 
L 165.455227 194.015109 
L 165.62392 190.567108 
L 165.961323 151.573496 
L 166.130033 126.610342 
L 166.298726 127.515233 
L 166.46742 144.813088 
L 166.63613 149.065088 
L 166.804823 136.163779 
L 167.479612 173.898269 
L 167.648322 145.00378 
L 167.817015 157.67446 
L 167.985725 149.496299 
L 168.154419 154.89804 
L 168.323112 140.144184 
L 168.491822 167.268057 
L 168.829208 181.2944 
L 168.997918 179.123781 
L 169.504014 120.751808 
L 169.672708 165.968484 
L 169.841401 169.379933 
L 170.010111 144.707682 
L 170.347514 164.367932 
L 170.516207 167.153923 
L 170.6849 151.146977 
L 170.85361 155.807205 
L 171.022303 149.520478 
L 171.359707 125.443246 
L 171.5284 122.333145 
L 171.697093 130.579496 
L 171.865803 118.471749 
L 172.203206 168.266509 
L 172.540592 105.026634 
L 172.709303 141.741078 
L 173.046689 154.11387 
L 173.215399 174.617747 
L 173.552785 139.274962 
L 173.721495 167.407541 
L 173.890188 171.314791 
L 174.227592 141.571607 
L 174.396285 135.215196 
L 174.564995 136.309317 
L 174.733688 142.896709 
L 174.902381 164.753606 
L 175.408477 123.469361 
L 175.577187 171.443757 
L 175.745881 173.351936 
L 176.083284 139.066065 
L 176.251977 149.602255 
L 176.42067 145.862547 
L 176.58938 177.501623 
L 176.758073 176.83617 
L 176.926766 162.804782 
L 177.095476 172.289202 
L 177.26417 173.516038 
L 177.43288 190.904839 
L 177.601573 161.630025 
L 178.107686 207.638154 
L 178.276379 180.634871 
L 178.445089 173.06311 
L 178.613782 179.942694 
L 178.782475 174.043103 
L 178.951185 185.151207 
L 179.119879 184.12863 
L 179.457282 149.925776 
L 179.625975 155.431568 
L 179.794668 168.189946 
L 179.963378 167.549073 
L 180.132071 138.960176 
L 180.300781 146.551163 
L 180.469475 145.712552 
L 180.638168 143.728516 
L 180.806878 108.658332 
L 181.312974 176.074985 
L 181.481667 148.260794 
L 181.65036 161.527749 
L 181.81907 133.764686 
L 181.987764 157.081855 
L 182.156457 151.502294 
L 182.325167 159.987474 
L 182.49386 135.453933 
L 182.662553 136.877267 
L 183.168649 149.279149 
L 183.337359 146.429215 
L 183.506053 171.415995 
L 183.843456 161.98124 
L 184.180859 132.568215 
L 184.349552 158.221302 
L 184.686955 98.902935 
L 184.855648 120.525469 
L 185.361745 138.079184 
L 185.699148 104.828844 
L 185.867841 146.00189 
L 186.036534 159.895217 
L 186.373937 127.379465 
L 186.542631 127.183695 
L 186.711341 152.914347 
L 186.880034 148.992215 
L 187.217437 124.089251 
L 187.38613 119.42598 
L 187.554823 122.594585 
L 187.892226 157.042748 
L 188.06092 134.899571 
L 188.398323 151.615186 
L 188.567016 134.687599 
L 188.735726 133.67183 
L 188.904419 128.772504 
L 189.073129 148.915022 
L 189.241822 134.844129 
L 189.410515 136.897077 
L 189.579225 132.320347 
L 189.747919 133.151657 
L 189.916612 141.456447 
L 190.085322 159.698211 
L 190.254015 117.544274 
L 190.422708 109.042291 
L 190.591418 107.40386 
L 190.928804 146.236426 
L 191.097514 156.613854 
L 191.266208 142.62216 
L 191.603611 166.180112 
L 192.109707 97.004835 
L 192.447093 124.354631 
L 192.615803 161.386563 
L 192.95319 140.282856 
L 193.1219 150.550245 
L 193.290593 126.607475 
L 193.627996 151.686895 
L 193.796689 150.897759 
L 193.965382 141.947306 
L 194.134092 150.651236 
L 194.302786 169.699724 
L 194.471479 158.888247 
L 194.640189 156.541897 
L 194.808882 158.485524 
L 194.977575 174.96463 
L 195.314978 144.573599 
L 195.483671 133.716543 
L 195.652381 138.165209 
L 195.821075 136.678905 
L 195.989785 161.673977 
L 196.158478 145.663763 
L 196.495864 196.478601 
L 196.664574 150.6999 
L 196.833267 160.013657 
L 197.001977 135.896198 
L 197.170659 165.959166 
L 197.339352 170.292624 
L 197.508046 135.84055 
L 197.845449 156.046111 
L 198.014159 135.241425 
L 198.182852 165.284754 
L 198.351545 167.582348 
L 198.520255 177.063299 
L 198.688948 155.858125 
L 198.857641 181.263463 
L 199.026351 161.471018 
L 199.195045 197.168875 
L 199.363738 146.366718 
L 199.532448 189.324383 
L 199.701141 152.757482 
L 200.038544 200.473684 
L 200.37593 162.763132 
L 200.54464 198.966478 
L 200.713334 184.610989 
L 200.882027 190.069119 
L 201.050737 199.469362 
L 201.21943 168.730543 
L 201.388123 160.092123 
L 201.556833 175.625054 
L 201.725526 174.334228 
L 201.894219 174.399393 
L 202.062929 143.975832 
L 202.400316 161.02244 
L 202.569026 189.62876 
L 202.737719 167.67962 
L 202.906412 180.298068 
L 203.075122 179.329226 
L 203.243815 188.709459 
L 203.412508 168.515878 
L 203.581219 179.599147 
L 203.918605 158.818635 
L 204.087315 159.700283 
L 204.256008 157.720162 
L 204.424701 180.73302 
L 204.593411 179.90934 
L 204.762104 172.117044 
L 205.099508 184.67362 
L 205.268201 184.401074 
L 205.436894 182.088985 
L 205.605587 201.146842 
L 205.774297 201.669237 
L 205.94299 208.183084 
L 206.111683 185.140507 
L 206.449086 185.692041 
L 206.617797 183.176838 
L 206.955183 193.781915 
L 207.123876 196.038014 
L 207.292586 204.006132 
L 207.461279 164.984233 
L 207.967375 194.617489 
L 208.136069 211.365906 
L 208.642165 146.361126 
L 208.810875 202.965464 
L 208.979568 197.523054 
L 209.148261 210.50453 
L 209.316971 169.208557 
L 209.485664 174.524623 
L 209.654358 187.043363 
L 209.823068 174.443011 
L 209.991761 198.131492 
L 210.160454 188.079307 
L 210.329164 197.872139 
L 210.497857 231.311304 
L 210.66655 235.810808 
L 211.003953 222.921856 
L 211.172647 247.622709 
L 211.341357 228.874728 
L 211.51005 234.495829 
L 211.847453 201.738331 
L 212.016146 204.831604 
L 212.184839 196.426302 
L 212.353549 207.142091 
L 212.522242 244.81849 
L 212.859646 213.877054 
L 213.028339 248.472082 
L 213.197032 253.918627 
L 213.534435 210.909893 
L 213.871821 280.015266 
L 214.040531 270.161941 
L 214.209225 268.183915 
L 214.546628 253.916255 
L 214.715321 243.931229 
L 214.884014 254.486402 
L 215.052724 304.111376 
L 215.39011 268.366606 
L 215.727514 300.000755 
L 216.064917 296.523943 
L 216.23361 270.469353 
L 216.739699 319.368089 
L 216.908392 319.95246 
L 217.077102 324.15782 
L 217.245795 314.393395 
L 217.414488 296.982395 
L 217.751891 328.467277 
L 217.920584 328.331817 
L 218.089294 319.929889 
L 218.257988 342.18198 
L 218.426681 321.987511 
L 218.595374 316.606361 
L 218.764084 319.058972 
L 218.932777 338.267216 
L 219.10147 331.8413 
L 219.27018 332.83063 
L 219.438873 339.76532 
L 219.607566 322.267667 
L 219.776277 335.236857 
L 219.94497 327.658455 
L 220.113663 338.206038 
L 220.282373 358.117766 
L 220.619759 330.253905 
L 220.788469 379.199336 
L 220.957162 375.574931 
L 221.294566 346.506731 
L 221.463259 378.873574 
L 221.631952 376.317518 
L 221.800662 370.555621 
L 221.969355 368.757536 
L 222.138048 345.414296 
L 222.644144 384.898971 
L 222.812838 361.503202 
L 223.150241 355.244048 
L 223.318934 345.881662 
L 223.487644 369.841814 
L 223.656337 365.307067 
L 223.82503 349.085937 
L 223.99374 350.208183 
L 224.162433 331.625303 
L 224.331127 345.493437 
L 224.499837 374.955083 
L 224.66853 361.840041 
L 224.837223 380.300505 
L 225.005933 382.18479 
L 225.174626 387.513252 
L 225.343319 405.39002 
L 225.512012 410.267487 
L 225.680722 401.951595 
L 225.849416 361.00713 
L 226.018109 356.300634 
L 226.355512 405.036894 
L 226.524205 402.07951 
L 226.861608 373.105043 
L 227.030301 384.447386 
L 227.199011 382.357023 
L 227.536398 408.726144 
L 227.705108 365.544121 
L 227.873801 397.943463 
L 228.042494 351.500855 
L 228.211187 360.540405 
L 228.379897 347.420201 
L 228.717284 388.830735 
L 228.885994 358.485311 
L 229.054687 374.470188 
L 229.22338 348.582451 
L 229.39209 363.114344 
L 229.560783 350.646336 
L 229.729476 378.241201 
L 229.898186 362.312056 
L 230.235573 400.098754 
L 230.404283 376.918559 
L 230.572976 372.340641 
L 230.910362 401.914939 
L 231.247765 380.639285 
L 231.416458 357.022085 
L 231.585168 373.182633 
L 232.091265 333.902944 
L 232.259958 331.355052 
L 232.428651 375.518887 
L 232.597361 348.473452 
L 232.766054 361.139303 
L 232.934747 397.704886 
L 233.272151 366.79265 
L 233.440844 393.118745 
L 233.778247 356.587447 
L 233.94694 386.633663 
L 234.115633 395.885689 
L 234.284343 379.47155 
L 234.453036 380.609741 
L 234.62173 399.422749 
L 234.790423 385.713993 
L 234.959133 359.75696 
L 235.127826 361.853027 
L 235.296519 366.568635 
L 235.465229 331.19761 
L 235.633939 351.559937 
L 235.802632 351.684173 
L 235.971342 362.988831 
L 236.140035 386.661217 
L 236.308729 370.640204 
L 236.646132 414.957188 
L 236.983518 381.932798 
L 237.152228 383.221728 
L 237.320921 358.350231 
L 237.489614 356.167855 
L 237.658324 346.381259 
L 237.827018 377.281415 
L 237.995711 378.652208 
L 238.164421 396.125777 
L 238.333114 354.38422 
L 238.501807 391.773778 
L 238.6705 388.327208 
L 239.007903 365.937357 
L 239.176597 364.98199 
L 239.345307 359.058572 
L 239.514 367.756198 
L 239.682693 351.212495 
L 239.851403 371.45686 
L 240.020096 371.536657 
L 240.188789 381.143625 
L 240.694886 327.679181 
L 241.032289 367.825248 
L 241.200982 357.626452 
L 241.538385 386.142529 
L 241.875771 342.532305 
L 242.044481 347.367563 
L 242.213175 348.613498 
L 242.381868 348.383673 
L 242.550561 338.35067 
L 242.719271 335.708288 
L 242.887964 360.249821 
L 243.056657 334.118812 
L 243.225367 340.992059 
L 243.39406 333.645899 
L 243.562753 319.894793 
L 244.237543 356.876643 
L 244.406253 345.348124 
L 244.574946 351.369324 
L 244.743639 368.776109 
L 245.081042 320.144247 
L 245.249736 315.22143 
L 245.418429 349.784639 
L 245.587139 347.147715 
L 245.755832 363.665433 
L 245.924525 341.163714 
L 246.093235 348.325189 
L 246.261928 369.604866 
L 246.430621 366.136655 
L 246.599332 370.244509 
L 246.768025 371.010325 
L 246.936718 331.927214 
L 247.274121 365.405377 
L 247.442814 353.315146 
L 247.611507 352.603645 
L 247.780217 356.414187 
L 247.94891 379.830486 
L 248.117604 338.59178 
L 248.286314 365.380835 
L 248.6237 324.574412 
L 248.792393 351.985915 
L 248.961103 350.939153 
L 249.298489 333.463408 
L 249.467199 330.728085 
L 249.804586 295.531319 
L 249.973279 353.840848 
L 250.141989 355.242908 
L 250.310682 334.534121 
L 250.479375 331.831594 
L 250.648085 332.724702 
L 250.985472 325.435141 
L 251.154182 303.413109 
L 251.322875 329.772552 
L 251.491568 299.288899 
L 251.660261 290.365414 
L 251.828971 329.282205 
L 251.997664 306.779844 
L 252.166357 333.245441 
L 252.335067 313.20679 
L 252.503761 329.640853 
L 252.841147 291.875919 
L 253.009857 276.092977 
L 253.17855 281.202853 
L 253.347243 282.799515 
L 253.515953 315.740001 
L 253.853339 267.567622 
L 254.022033 291.80087 
L 254.190743 284.878048 
L 254.359436 258.143231 
L 254.865534 283.835275 
L 255.034227 273.614412 
L 255.202937 283.825224 
L 255.540324 265.839253 
L 255.877727 275.316049 
L 256.215113 302.632375 
L 256.552516 260.91946 
L 256.721209 248.755353 
L 256.889903 277.316959 
L 257.227306 288.598846 
L 257.395999 288.861215 
L 257.733402 271.06252 
L 257.902095 272.160185 
L 258.070788 280.899624 
L 258.239498 262.166855 
L 258.408192 275.658257 
L 258.745595 232.7783 
L 258.914288 252.580677 
L 259.082981 243.06731 
L 259.251674 251.811632 
L 259.420384 250.294118 
L 259.589077 258.977917 
L 259.757771 275.772041 
L 259.926481 264.079004 
L 260.095174 292.840428 
L 260.263867 235.812742 
L 260.60127 247.866848 
L 260.769963 244.284367 
L 260.938656 270.009253 
L 261.27606 196.262132 
L 261.444753 205.95049 
L 261.613446 225.720549 
L 261.782156 224.962217 
L 261.950849 237.147771 
L 262.119542 184.160844 
L 262.288252 183.001538 
L 262.456945 174.145765 
L 262.794332 203.697342 
L 262.963042 210.580592 
L 263.131735 169.298852 
L 263.469138 199.554315 
L 263.637831 171.344246 
L 263.975217 181.564308 
L 264.143928 175.626024 
L 264.312621 191.701161 
L 264.481314 192.774489 
L 264.650024 179.932202 
L 264.818717 203.093014 
L 265.156103 171.717803 
L 265.324813 191.976664 
L 265.493506 182.464136 
L 265.6622 192.427412 
L 265.999603 181.917574 
L 266.168296 187.802421 
L 266.336989 157.136812 
L 266.505699 182.254696 
L 266.674392 144.588995 
L 266.843085 152.20989 
L 267.011779 154.472754 
L 267.180489 181.765288 
L 267.349182 176.984468 
L 267.517875 178.564927 
L 267.686585 171.134688 
L 267.855278 158.203092 
L 268.023971 155.200361 
L 268.192664 197.036251 
L 268.361374 168.764272 
L 268.530068 165.150844 
L 268.698761 138.301199 
L 268.867471 162.456984 
L 269.036164 167.389257 
L 269.204857 156.670746 
L 269.37355 166.646929 
L 269.710953 147.8115 
L 269.879647 124.475063 
L 270.04834 116.734089 
L 270.385743 165.076785 
L 270.554436 137.073684 
L 270.723146 139.343399 
L 270.891839 128.667678 
L 271.060532 136.970109 
L 271.229225 126.882487 
L 271.735322 168.57717 
L 271.904032 134.679557 
L 272.072725 162.984853 
L 272.241418 166.898435 
L 272.410111 133.627678 
L 272.578821 132.23011 
L 272.747514 141.217388 
L 272.916208 140.801016 
L 273.253611 126.506066 
L 273.759707 154.217728 
L 273.928391 156.518998 
L 274.097084 155.54859 
L 274.434487 136.430194 
L 274.603181 153.599907 
L 274.771874 151.49766 
L 274.940567 145.054162 
L 275.446663 110.111013 
L 275.615373 125.134272 
L 275.95276 89.731199 
L 276.458856 149.114938 
L 276.627549 131.765684 
L 276.796242 139.474758 
L 276.964952 112.425951 
L 277.133645 118.537589 
L 277.302339 88.978381 
L 277.471049 83.500909 
L 277.639742 111.149586 
L 277.808435 116.196647 
L 277.977128 92.009724 
L 278.145838 112.478115 
L 278.314531 82.768491 
L 278.483224 89.260204 
L 278.651917 65.688606 
L 278.820628 129.073032 
L 278.989321 120.964688 
L 279.158014 145.163739 
L 279.326724 143.994617 
L 279.495417 174.988566 
L 279.66411 128.621565 
L 280.170206 111.8386 
L 280.507593 158.582942 
L 280.676303 119.590964 
L 280.844996 132.403813 
L 281.013689 104.761024 
L 281.351092 99.265886 
L 281.519785 116.680952 
L 281.688479 110.146658 
L 281.857189 110.344354 
L 282.025882 123.088974 
L 282.194575 66.029525 
L 282.363268 85.734235 
L 282.531978 135.862691 
L 282.700671 99.844599 
L 282.869364 115.368818 
L 283.038058 112.803798 
L 283.206768 124.671084 
L 283.375461 99.401796 
L 283.544154 91.22881 
L 283.712864 95.061924 
L 283.881557 96.329588 
L 284.05025 89.084021 
L 284.218943 125.945816 
L 284.387653 103.543517 
L 284.556347 106.985903 
L 284.72504 116.168132 
L 284.893733 97.990247 
L 285.062443 101.08269 
L 285.231136 119.821914 
L 285.568522 82.130538 
L 285.737232 95.966719 
L 286.074619 140.209271 
L 286.243329 126.841837 
L 286.412022 128.977998 
L 286.749408 84.888765 
L 286.918118 117.698322 
L 287.424198 90.603803 
L 287.592908 71.502362 
L 287.761601 101.969424 
L 287.930294 112.265793 
L 288.098987 108.252212 
L 288.267697 132.204411 
L 288.43639 93.273644 
L 288.605083 126.539202 
L 288.773776 107.359751 
L 289.11118 126.815908 
L 289.279873 138.690929 
L 289.448583 107.669587 
L 289.617276 115.464174 
L 289.785969 130.573091 
L 289.954662 101.374192 
L 290.123372 92.797138 
L 290.292066 101.827074 
L 290.460759 98.88948 
L 290.629452 126.220871 
L 290.798162 126.04124 
L 290.966855 100.537941 
L 291.135548 112.239121 
L 291.304241 77.657564 
L 291.641644 104.275565 
L 291.810338 81.930633 
L 291.979031 100.236982 
L 292.316434 73.371341 
L 292.485127 69.456366 
L 292.65382 62.848066 
L 292.82253 92.518844 
L 292.99122 95.496345 
L 293.159913 84.72752 
L 293.328623 82.148613 
L 293.497316 105.992587 
L 293.666009 106.787682 
L 293.834702 128.310338 
L 294.003413 105.715518 
L 294.172106 118.20378 
L 294.340799 100.606566 
L 294.509492 105.978793 
L 294.678202 105.267556 
L 294.846895 109.615105 
L 295.015588 94.310357 
L 295.184281 97.604509 
L 295.352991 96.697402 
L 295.521685 107.845638 
L 295.690378 107.717379 
L 295.859071 117.107733 
L 296.027781 118.814599 
L 296.196474 101.327141 
L 296.365167 101.008703 
L 296.53386 105.503881 
L 296.70257 127.37015 
L 296.871264 103.46173 
L 297.039957 127.562844 
L 297.20865 132.751908 
L 297.37736 118.745534 
L 297.546053 125.447823 
L 297.883439 105.663959 
L 298.052149 124.766769 
L 298.220843 113.00624 
L 298.389536 115.666181 
L 298.558246 105.502019 
L 298.895632 119.411161 
L 299.233035 99.296211 
L 299.401728 132.385117 
L 299.570421 111.536412 
L 299.739115 127.244258 
L 299.907825 127.332512 
L 300.245211 145.0526 
L 300.413904 172.391883 
L 300.582614 139.990116 
L 300.751307 150.76461 
L 300.92 142.205215 
L 301.088694 104.32456 
L 301.257404 107.419363 
L 301.426097 137.830548 
L 301.59479 121.795856 
L 301.763483 126.678149 
L 301.932193 162.781961 
L 302.100886 144.005627 
L 302.269579 153.544053 
L 302.438272 103.513007 
L 302.775676 145.281102 
L 302.944369 126.97805 
L 303.113062 151.129485 
L 303.281772 109.156679 
L 303.787851 77.62998 
L 303.956561 107.57231 
L 304.125255 80.293568 
L 304.462641 106.001634 
L 304.631351 79.708473 
L 304.800044 71.573559 
L 305.30614 105.515177 
L 305.643527 79.720663 
L 305.81222 86.00069 
L 305.98093 133.598026 
L 306.149623 93.470479 
L 306.318316 113.385882 
L 306.487009 114.959172 
L 306.655719 108.612317 
L 306.824413 132.609558 
L 306.993106 87.361809 
L 307.161799 89.978073 
L 307.330509 87.144058 
L 307.499202 68.914855 
L 307.836588 113.481969 
L 308.005298 106.115885 
L 308.173991 106.918451 
L 308.342685 104.077595 
L 308.511378 122.829539 
L 308.680088 94.289747 
L 308.848781 97.276619 
L 309.017474 97.411697 
L 309.186167 104.41147 
L 309.354877 92.227117 
L 309.52357 88.30002 
L 309.692264 114.866404 
L 309.860957 92.257213 
L 310.029667 118.22655 
L 310.19836 100.83596 
L 310.367053 115.972346 
L 310.535746 106.38044 
L 310.704456 124.245418 
L 310.873149 120.64978 
L 311.041843 141.60638 
L 311.210536 109.803269 
L 311.547939 120.327762 
L 311.716632 143.439618 
L 311.885325 120.640461 
L 312.054035 145.865765 
L 312.22274 119.089868 
L 312.560127 112.887935 
L 312.728837 136.387999 
L 312.89753 140.333667 
L 313.066223 120.582824 
L 313.234916 139.631805 
L 313.572319 114.196098 
L 313.741012 115.645597 
L 314.078416 136.117324 
L 314.247109 93.337566 
L 314.415802 99.139933 
L 314.584495 111.817522 
L 314.753205 140.761347 
L 314.921898 128.944805 
L 315.259285 150.044457 
L 315.596688 104.322523 
L 315.765381 122.931838 
L 315.934074 109.621178 
L 316.102767 133.637792 
L 316.271477 122.971034 
L 316.44017 99.080404 
L 316.608863 103.688565 
L 316.777557 118.652963 
L 316.946267 121.023055 
L 317.11496 88.24449 
L 317.283653 111.315753 
L 317.452346 110.749247 
L 317.621056 117.46158 
L 317.958442 91.060717 
L 318.127136 133.398837 
L 318.295846 124.93424 
L 318.464539 142.307702 
L 318.633232 90.403819 
L 318.970635 136.620503 
L 319.139328 115.18206 
L 319.308021 132.32768 
L 319.476715 132.235934 
L 319.645425 105.489307 
L 319.814118 136.078381 
L 319.982811 87.865249 
L 320.151504 121.861349 
L 320.320197 105.626109 
L 320.6576 132.750982 
L 320.826293 108.365578 
L 320.994987 116.942793 
L 321.33239 103.208669 
L 321.501083 116.214421 
L 321.669776 106.302953 
L 321.838486 105.210554 
L 322.007179 102.394672 
L 322.175872 93.495874 
L 322.344566 127.049056 
L 322.513276 128.010166 
L 322.681969 156.109512 
L 323.019355 116.951184 
L 323.188065 127.949081 
L 323.356758 98.073116 
L 323.525451 115.929416 
L 323.694144 120.347994 
L 323.862855 114.327818 
L 324.031548 137.481388 
L 324.200241 111.128296 
L 324.368934 107.643044 
L 324.537627 94.283827 
L 324.706337 130.232051 
L 324.87503 127.884664 
L 325.043723 144.928533 
L 325.212417 100.009254 
L 325.381127 95.462134 
L 325.887206 136.35752 
L 326.055916 129.926414 
L 326.224609 100.974857 
L 326.393302 115.91428 
L 326.561996 112.781854 
L 326.730706 113.395777 
L 326.899399 123.606027 
L 327.068092 111.949208 
L 327.236785 133.388235 
L 327.405478 119.513644 
L 327.574188 119.337806 
L 327.742881 118.480883 
L 327.911574 130.187643 
L 328.080268 121.636384 
L 328.248978 138.461928 
L 328.417671 128.645079 
L 328.586364 108.629955 
L 328.755057 140.462695 
L 328.923767 107.956164 
L 329.09246 138.672095 
L 329.429847 118.53496 
L 329.598557 139.843461 
L 329.76725 118.833855 
L 329.935943 123.305956 
L 330.104636 118.13122 
L 330.273329 133.48101 
L 330.442039 100.841196 
L 330.610732 137.715267 
L 330.779426 114.779264 
L 330.948119 120.526232 
L 331.116829 104.919546 
L 331.454211 132.205475 
L 331.791614 99.691456 
L 331.960307 107.675589 
L 332.129 129.298764 
L 332.635097 107.065834 
L 332.80379 73.941172 
L 333.141176 122.203504 
L 333.309886 136.594646 
L 333.478579 100.515886 
L 333.647272 106.685521 
L 333.815965 120.790149 
L 334.153369 114.682709 
L 334.322062 137.085341 
L 334.659448 93.389653 
L 334.828158 113.684669 
L 334.996851 90.755613 
L 335.334238 111.849291 
L 335.502948 72.521836 
L 335.671641 83.502001 
L 335.840334 61.492925 
L 336.009027 109.285023 
L 336.34643 75.64611 
L 336.515123 95.691927 
L 336.683816 89.748718 
L 336.85251 132.351909 
L 337.189913 123.309354 
L 337.358606 134.806048 
L 337.527299 112.018518 
L 337.696009 108.991364 
L 337.864702 134.977261 
L 338.033395 124.299619 
L 338.202089 122.141869 
L 338.539492 68.678619 
L 338.708185 99.64265 
L 338.876878 72.834815 
L 339.045571 124.224528 
L 339.214281 111.499808 
L 339.382974 107.331821 
L 339.551668 121.674258 
L 339.889054 127.862715 
L 340.057764 99.256914 
L 340.226457 125.800401 
L 340.39515 87.89015 
L 340.563843 106.221216 
L 340.732553 104.196327 
L 340.901246 113.630046 
L 341.238633 103.113325 
L 341.407343 128.384171 
L 341.576036 85.775497 
L 341.913422 101.019486 
L 342.082115 95.625418 
L 342.250825 81.904975 
L 342.419519 105.355326 
L 342.588212 89.238255 
L 342.756905 89.857246 
L 343.094308 66.219709 
L 343.263001 57.80153 
L 343.431694 81.18943 
L 343.600387 68.434375 
L 343.769098 81.101867 
L 343.937791 72.224841 
L 344.106484 97.467983 
L 344.275177 78.842394 
L 344.443887 73.335758 
L 344.61258 108.560749 
L 344.781273 97.071911 
L 344.949966 71.416211 
L 345.11866 90.768152 
L 345.456063 99.545477 
L 345.624756 124.263728 
L 345.793449 119.963499 
L 345.962159 87.827429 
L 346.130852 97.513828 
L 346.299545 100.277463 
L 346.468239 87.774515 
L 346.636932 94.243615 
L 346.974335 132.361472 
L 347.311721 105.35914 
L 347.480431 105.716073 
L 347.649124 101.860272 
L 347.817817 108.018375 
L 347.986511 89.918043 
L 348.155204 115.938176 
L 348.323914 95.0182 
L 348.492607 98.974345 
L 348.6613 84.909127 
L 348.829993 94.114957 
L 349.167396 126.745466 
L 349.504783 109.805908 
L 349.673476 108.175847 
L 349.842186 92.261496 
L 350.010879 120.192918 
L 350.179572 105.541169 
L 350.348265 104.364728 
L 350.516973 124.165189 
L 350.85436 83.72985 
L 351.191746 123.717757 
L 351.360456 109.638807 
L 351.529149 113.591289 
L 351.697842 109.592232 
L 352.203939 139.165264 
L 352.372632 160.602638 
L 352.541325 134.073945 
L 352.710018 125.45031 
L 352.878728 98.455466 
L 353.047421 91.026932 
L 353.216114 118.510212 
L 353.384807 116.430857 
L 353.553501 125.694627 
L 353.722211 121.058242 
L 353.890904 97.451161 
L 354.059597 93.589551 
L 354.22829 103.497883 
L 354.396983 136.465884 
L 354.734386 108.620076 
L 354.90308 105.575196 
L 355.071773 106.230586 
L 355.240483 111.483004 
L 355.409176 123.653583 
L 355.577869 123.2768 
L 355.746562 92.04435 
L 355.915255 116.669057 
L 356.083965 70.882302 
L 356.252658 87.500638 
L 356.421352 90.753494 
L 356.590045 69.616668 
L 356.758738 100.379573 
L 356.927448 110.145824 
L 357.096141 83.143352 
L 357.433527 129.651111 
L 357.602237 124.287143 
L 357.770931 110.781804 
L 357.939624 138.659795 
L 358.108317 134.158477 
L 358.27701 111.163941 
L 358.44572 119.71545 
L 358.614413 111.467062 
L 358.783106 116.90877 
L 359.120493 104.919364 
L 359.289203 98.631223 
L 359.457896 139.165505 
L 359.626589 135.163623 
L 359.795282 148.364329 
L 359.963992 124.663395 
L 360.301378 110.244413 
L 360.470072 130.875533 
L 360.638765 132.78889 
L 360.807475 129.1562 
L 360.976168 117.555945 
L 361.144861 147.273931 
L 361.313554 123.310515 
L 361.482247 115.462619 
L 361.650957 137.944306 
L 361.819651 120.06134 
L 361.988344 121.602208 
L 362.157037 138.380599 
L 362.32573 140.808967 
L 362.49444 157.835868 
L 362.663133 156.513688 
L 362.831826 139.354561 
L 363.000519 149.845985 
L 363.337923 124.271441 
L 363.675309 154.964439 
L 363.844002 146.732522 
L 364.012712 132.077246 
L 364.181405 132.3214 
L 364.518791 120.451626 
L 364.687485 141.472769 
L 364.856195 113.420364 
L 365.024888 107.035771 
L 365.362274 134.130446 
L 365.530967 111.437876 
L 365.699677 115.37236 
L 365.86837 147.392137 
L 366.037064 141.850058 
L 366.205757 111.357692 
L 366.37445 125.678771 
L 366.54316 107.03415 
L 366.711853 75.491613 
L 367.217949 148.117775 
L 367.386643 145.126279 
L 367.724029 159.715724 
L 367.892722 135.466463 
L 368.061432 140.311672 
L 368.230125 156.503312 
L 368.398818 134.663691 
L 368.567511 157.350202 
L 368.736205 140.063549 
L 368.904915 137.24961 
L 369.073608 87.045233 
L 369.242301 122.028411 
L 369.579687 135.30929 
L 369.748391 135.821528 
L 369.917084 136.805212 
L 370.085777 109.858341 
L 370.25447 132.950073 
L 370.423163 109.45931 
L 370.591873 127.58924 
L 370.760567 109.959728 
L 371.097953 135.967779 
L 371.266646 138.702006 
L 371.435356 133.554808 
L 371.604049 133.484324 
L 371.772742 115.403036 
L 371.941435 113.432145 
L 372.278839 118.643433 
L 372.447532 148.286166 
L 372.784918 122.21164 
L 372.953611 117.096041 
L 373.122321 102.580291 
L 373.291014 113.979791 
L 373.459708 147.829927 
L 373.628401 137.572848 
L 373.797094 109.102758 
L 373.965804 169.686675 
L 374.134497 172.8528 
L 374.30319 138.991327 
L 374.471883 167.91349 
L 374.809286 146.66055 
L 374.97798 122.540951 
L 375.315366 157.209018 
L 375.484076 146.220668 
L 375.652769 161.944749 
L 375.821462 138.556576 
L 376.158849 168.164635 
L 376.496252 131.526877 
L 376.664945 142.74945 
L 377.002331 116.794012 
L 377.171041 124.45973 
L 377.339734 139.04114 
L 377.508427 127.541782 
L 377.677121 124.19872 
L 377.845814 151.040477 
L 378.014524 160.069727 
L 378.183217 111.518365 
L 378.35191 133.962365 
L 378.520603 121.956042 
L 378.689296 87.196381 
L 378.858006 88.117983 
L 379.0267 88.41674 
L 379.195393 107.348624 
L 379.364086 109.153098 
L 379.532779 108.241325 
L 379.701489 129.256358 
L 379.870182 109.183112 
L 380.038875 110.051595 
L 380.376262 146.963112 
L 380.544955 119.029975 
L 380.713665 127.37482 
L 380.882358 121.743092 
L 381.051051 127.334466 
L 381.219744 137.130007 
L 381.557147 112.25813 
L 381.894534 138.826919 
L 382.063227 108.507593 
L 382.23192 116.343488 
L 382.40063 112.979283 
L 382.738016 121.45279 
L 382.906709 92.781783 
L 383.075403 117.718661 
L 383.412806 93.364796 
L 383.581499 105.007418 
L 383.750192 98.81334 
L 384.087595 124.112062 
L 384.256288 93.690958 
L 384.593675 119.293904 
L 384.762368 121.433966 
L 384.931078 122.098245 
L 385.099771 104.221864 
L 385.268464 121.65002 
L 385.437157 120.422831 
L 385.60585 121.458268 
L 385.77456 108.729084 
L 385.943254 114.544221 
L 386.111947 109.7448 
L 386.28064 93.598377 
L 386.618043 129.972005 
L 386.786736 126.11434 
L 386.955429 118.905977 
L 387.124123 133.096214 
L 387.292816 133.397074 
L 387.461526 129.324364 
L 387.630219 116.399322 
L 387.798912 133.773059 
L 387.967605 125.996723 
L 388.136298 134.517255 
L 388.304991 137.014521 
L 388.473701 114.712599 
L 388.642395 117.374719 
L 388.811088 109.473323 
L 388.979777 125.01247 
L 389.14847 117.383872 
L 389.31718 128.81761 
L 389.485873 128.333111 
L 389.654566 75.519075 
L 390.498049 146.068985 
L 390.666742 125.001701 
L 390.835435 128.746699 
L 391.004145 109.837046 
L 391.341531 142.788414 
L 391.510224 141.108813 
L 391.678918 153.804557 
L 392.185014 72.552358 
L 392.5224 129.868196 
L 392.691093 119.421056 
L 392.859803 121.830305 
L 393.028497 100.083401 
L 393.19719 135.780457 
L 393.365883 122.790758 
L 393.534576 135.617598 
L 393.703286 127.823547 
L 393.871979 140.297668 
L 394.040672 136.990106 
L 394.209365 137.896153 
L 394.378059 127.86291 
L 394.546752 135.775362 
L 394.715462 133.789587 
L 394.884155 128.387384 
L 395.052848 135.681522 
L 395.221541 171.08254 
L 395.390234 146.718204 
L 395.558944 164.191639 
L 395.727638 141.30875 
L 396.065024 130.867512 
L 396.233717 142.134797 
L 396.402427 136.278356 
L 396.57112 156.799088 
L 396.739813 139.107763 
L 396.908506 141.932929 
L 397.0772 140.749081 
L 397.414603 179.488651 
L 397.583296 175.863133 
L 397.751989 165.072843 
L 397.920682 169.011395 
L 398.089375 139.041199 
L 398.258085 140.860708 
L 398.426779 144.377188 
L 398.595472 172.08563 
L 398.764165 138.167454 
L 398.932858 164.589426 
L 399.101568 163.608861 
L 399.270261 133.485937 
L 399.438954 133.683745 
L 399.607647 152.077684 
L 399.776341 147.889473 
L 399.945034 152.84241 
L 400.113744 163.450138 
L 400.282437 145.170723 
L 400.45113 164.838916 
L 400.619823 164.035491 
L 400.788516 151.783445 
L 400.957226 152.736313 
L 401.463306 141.571417 
L 401.631999 145.954443 
L 401.800709 133.718498 
L 401.969402 131.790318 
L 402.138095 118.687887 
L 402.475482 171.105523 
L 402.644175 184.119005 
L 402.981578 139.946261 
L 403.150271 155.010055 
L 403.318964 139.95305 
L 403.487657 169.41762 
L 403.825061 120.118915 
L 403.993754 136.180329 
L 404.162447 111.147171 
L 404.33114 133.143489 
L 404.499833 116.061812 
L 404.668543 151.670881 
L 404.837236 136.102784 
L 405.174623 181.672717 
L 405.343316 171.695557 
L 405.512026 180.015773 
L 405.680719 163.625193 
L 405.849412 170.265428 
L 406.186798 146.432531 
L 406.355491 184.401093 
L 406.524201 153.88391 
L 406.692895 164.252579 
L 406.861588 150.3941 
L 407.030281 147.774908 
L 407.367684 180.690278 
L 407.536377 154.651188 
L 407.70507 188.384745 
L 408.042461 133.493455 
L 408.211154 140.848913 
L 408.548557 172.841538 
L 409.054637 103.326691 
L 409.223347 122.411182 
L 409.39204 127.626792 
L 409.560733 118.225019 
L 409.729426 147.644206 
L 409.898119 139.443975 
L 410.066812 125.520649 
L 410.235522 135.300986 
L 410.404216 164.535452 
L 410.572909 155.308477 
L 410.741602 184.996427 
L 410.910295 183.382076 
L 411.078988 154.372718 
L 411.247698 178.441688 
L 411.416391 173.067871 
L 411.753778 127.226543 
L 411.922471 135.745021 
L 412.091181 126.191156 
L 412.259874 146.595871 
L 412.428567 135.523026 
L 412.59726 138.781907 
L 412.765953 138.647476 
L 412.934647 145.675068 
L 413.103357 167.804443 
L 413.27205 160.258317 
L 413.440743 171.82152 
L 413.609436 164.324822 
L 413.778129 163.139923 
L 413.946822 168.47986 
L 414.284225 125.485925 
L 414.452919 121.321127 
L 414.621612 120.176537 
L 414.959015 134.509662 
L 415.127708 118.778631 
L 415.296401 121.108534 
L 415.465094 104.512138 
L 415.633788 118.307148 
L 415.802481 111.215832 
L 415.971191 119.319688 
L 416.139884 103.029518 
L 416.308577 124.321766 
L 416.47727 123.165645 
L 416.645963 129.727577 
L 416.814656 119.01975 
L 416.983366 135.035634 
L 417.15206 110.886648 
L 417.658139 141.968852 
L 417.995542 122.906732 
L 418.164235 119.374598 
L 418.332928 139.772663 
L 418.501622 129.593237 
L 418.670315 130.224022 
L 418.839025 111.376704 
L 419.007718 108.547951 
L 419.176411 94.502759 
L 419.345104 110.267034 
L 419.513797 152.670859 
L 419.682491 145.023449 
L 419.851201 178.842204 
L 420.019894 175.210424 
L 420.188587 146.863111 
L 420.35728 153.456742 
L 420.525973 138.804655 
L 420.694666 143.04936 
L 420.863376 143.72014 
L 421.032069 131.884521 
L 421.369456 169.57696 
L 421.538149 172.518797 
L 421.706842 170.997225 
L 421.875552 166.952512 
L 422.044245 176.428404 
L 422.212938 156.951186 
L 422.381632 152.805574 
L 422.550325 160.329483 
L 422.719035 150.350287 
L 422.887728 148.217549 
L 423.056421 160.305147 
L 423.225114 154.744051 
L 423.5625 130.020269 
L 423.73121 125.756237 
L 423.899904 128.130046 
L 424.068597 175.930108 
L 424.23729 162.773198 
L 424.405983 184.249847 
L 424.743386 155.5258 
L 424.912079 181.985345 
L 425.080772 181.787685 
L 425.249466 160.32234 
L 425.418159 179.049488 
L 425.755562 154.308898 
L 425.924255 163.010922 
L 426.261641 138.761003 
L 426.430335 149.608859 
L 426.599028 147.606047 
L 426.767738 161.550885 
L 427.105124 110.467507 
L 427.611227 197.719039 
L 428.117323 144.798162 
L 428.286016 183.367987 
L 428.454709 184.851991 
L 428.623403 192.640035 
L 428.792113 167.103477 
L 428.960806 178.120738 
L 429.129499 172.237034 
L 429.298192 174.463462 
L 430.141675 233.399507 
L 430.310368 235.832844 
L 430.479061 179.827323 
L 430.647754 200.6867 
L 430.985157 168.704111 
L 431.15385 204.901228 
L 431.322543 205.39029 
L 431.491237 206.904006 
L 431.65993 174.73474 
L 431.82864 188.769371 
L 431.997333 183.813007 
L 432.166026 173.634599 
L 432.503412 195.174029 
L 432.840816 157.636993 
L 433.009509 189.202931 
L 433.346895 137.96323 
L 433.515588 148.283139 
L 433.684281 151.106362 
L 433.852991 165.451823 
L 434.021684 131.688848 
L 434.527764 211.423425 
L 434.865167 168.759152 
L 435.03386 173.068009 
L 435.371247 148.590682 
L 435.53994 152.843361 
L 435.708633 178.888399 
L 435.877343 181.826789 
L 436.046036 157.036882 
L 436.214729 182.49547 
L 436.383422 147.458771 
L 436.552115 149.796875 
L 436.889519 157.907663 
L 437.226905 131.847494 
L 437.395598 150.097342 
L 437.732984 115.327247 
L 437.901677 107.568193 
L 438.070387 133.574742 
L 438.239081 130.809495 
L 438.407774 114.793855 
L 438.576467 131.514157 
L 438.74516 91.438722 
L 439.251256 130.730773 
L 439.41995 119.878283 
L 439.588643 120.468208 
L 439.757336 117.30879 
L 439.926029 137.560778 
L 440.094739 140.782576 
L 440.263432 112.032036 
L 440.769512 135.577255 
L 440.938205 102.75039 
L 441.106915 99.912792 
L 441.275608 69.768485 
L 441.612994 94.519366 
L 441.781687 79.997044 
L 442.119074 109.339596 
L 442.287784 114.739778 
L 442.456477 129.819867 
L 442.62517 116.253297 
L 442.793863 124.285337 
L 443.131249 96.608601 
L 443.299959 99.171169 
L 443.637346 117.325412 
L 443.974732 82.969256 
L 444.143425 124.872352 
L 444.312135 90.92703 
L 444.480828 109.842306 
L 444.649521 114.832411 
L 444.818215 89.212851 
L 445.155601 117.426088 
L 445.493004 86.518241 
L 445.83039 100.926557 
L 445.999083 91.662882 
L 446.167777 75.019593 
L 446.505151 116.913564 
L 446.673844 126.497254 
L 446.842537 83.400558 
L 447.01123 118.706918 
L 447.348617 78.885885 
L 447.517327 79.674093 
L 447.68602 89.665188 
L 447.854713 71.973232 
L 448.360792 117.439414 
L 448.529485 109.069525 
L 448.698196 106.268689 
L 448.866889 84.272154 
L 449.035582 91.470678 
L 449.204275 111.123702 
L 449.541661 98.816048 
L 449.710371 115.928791 
L 449.879064 88.251859 
L 450.216451 127.565603 
L 450.385144 102.625974 
L 450.553837 102.697074 
L 450.72253 115.596099 
L 451.059933 85.044767 
L 451.228626 77.579134 
L 451.566013 120.222019 
L 451.734706 113.444146 
L 452.072109 85.853749 
L 452.240802 95.595788 
L 452.409495 95.604089 
L 452.746882 100.636493 
L 452.915575 132.490084 
L 453.084285 128.614093 
L 453.252978 99.525789 
L 453.421671 99.012196 
L 453.590364 99.534418 
L 453.927751 72.484866 
L 454.096461 99.642542 
L 454.433847 90.834368 
L 454.60254 117.710718 
L 454.771233 99.053317 
L 454.939926 101.560589 
L 455.108619 161.067582 
L 455.277329 110.955188 
L 455.446023 95.085126 
L 455.614716 103.216777 
L 455.783409 103.873348 
L 455.952102 85.568374 
L 456.120795 81.791943 
L 456.289488 84.967687 
L 456.458198 112.981571 
L 456.626892 115.404335 
L 456.795585 78.528592 
L 456.964278 67.636359 
L 457.470374 120.285131 
L 457.639067 106.791715 
L 457.80776 105.553586 
L 457.976454 110.017454 
L 458.145147 84.305347 
L 458.31384 93.356136 
L 458.482533 116.296196 
L 458.651243 90.334759 
L 458.819936 105.957155 
L 458.988629 103.805064 
L 459.157322 135.791939 
L 459.326016 96.747398 
L 459.494709 99.730419 
L 459.663402 118.964381 
L 459.832112 90.733034 
L 460.169498 121.759807 
L 460.338191 103.005612 
L 460.506884 102.935334 
L 460.675578 118.838499 
L 460.844288 115.102156 
L 461.012981 95.119352 
L 461.350367 106.98969 
L 461.51906 106.039172 
L 461.687753 127.545992 
L 461.856447 110.750727 
L 462.025157 137.688863 
L 462.362543 88.019991 
L 462.531236 109.318463 
L 462.699929 76.974104 
L 463.037315 112.027112 
L 463.206025 101.351992 
L 463.374719 117.882016 
L 463.712105 81.019038 
L 463.880798 85.637884 
L 464.049491 94.337855 
L 464.218184 96.821492 
L 464.555587 116.767602 
L 464.724281 114.396505 
L 465.061667 129.239874 
L 465.399053 114.496814 
L 465.567767 115.072188 
L 465.73646 114.660744 
L 466.242539 137.199402 
L 466.411232 116.271044 
L 466.579926 114.25502 
L 466.748636 104.69151 
L 466.917329 103.98419 
L 467.086022 88.838328 
L 467.254715 133.544078 
L 467.423408 138.459844 
L 467.592101 116.650852 
L 467.760811 146.364548 
L 467.929505 149.564588 
L 468.098198 112.475556 
L 468.266891 130.577469 
L 468.435584 122.252555 
L 468.604277 140.729303 
L 468.941663 116.423674 
L 469.110373 102.301675 
L 469.279067 110.07442 
L 469.44776 109.297822 
L 469.616453 85.784043 
L 469.785146 121.06055 
L 469.953839 118.95899 
L 470.122532 131.895924 
L 470.291242 128.050008 
L 470.459936 136.317643 
L 470.628629 110.053078 
L 470.797322 134.102411 
L 470.966015 124.036702 
L 471.134708 120.766228 
L 471.303418 122.149578 
L 471.472111 145.053433 
L 471.809498 149.165645 
L 471.978191 143.152109 
L 472.146884 116.581756 
L 472.315577 145.75949 
L 472.48427 120.003519 
L 472.65298 120.003519 
L 472.821673 143.699511 
L 473.327753 98.611441 
L 473.496446 110.06665 
L 473.665139 147.596764 
L 473.833849 133.967726 
L 474.002542 108.047463 
L 474.171235 111.37505 
L 474.339928 139.478453 
L 474.508622 140.351706 
L 474.677315 144.325338 
L 475.183411 111.304496 
L 475.352104 108.459952 
L 475.689491 146.919284 
L 475.858184 126.54088 
L 476.026877 134.76357 
L 476.195587 125.068307 
L 476.36428 141.572848 
L 476.532973 109.720863 
L 476.701666 123.321445 
L 476.870359 104.554168 
L 477.039053 112.23353 
L 477.207746 95.033376 
L 477.376456 99.154526 
L 477.545149 95.259649 
L 478.051228 158.886448 
L 478.219921 167.591601 
L 478.557325 107.340416 
L 478.726018 109.377929 
L 478.894711 84.513295 
L 479.232097 117.409791 
L 479.569483 119.436472 
L 479.738177 112.358644 
L 479.906887 134.843146 
L 480.07558 111.949742 
L 480.244273 111.543402 
L 480.412966 134.953937 
L 480.581659 127.363049 
L 480.750352 148.990958 
L 480.919046 115.73467 
L 481.087756 133.822429 
L 481.256449 134.235242 
L 481.425142 136.560444 
L 481.762528 132.43937 
L 481.931221 147.172391 
L 482.268624 124.135144 
L 482.437318 139.090111 
L 482.606011 128.400211 
L 482.774704 151.7313 
L 483.280783 107.804907 
L 483.449476 137.369975 
L 483.78688 112.32724 
L 484.124266 132.867467 
L 484.292959 171.63289 
L 484.461652 108.196564 
L 484.630345 117.465717 
L 484.799049 107.211256 
L 484.967742 122.484851 
L 485.136435 119.796963 
L 485.305128 124.04734 
L 485.473822 114.392076 
L 485.642515 112.740778 
L 485.811208 107.572014 
L 485.979901 135.816 
L 486.148611 145.276537 
L 486.317304 115.959868 
L 486.485997 124.940419 
L 486.65469 111.664536 
L 486.823384 124.32132 
L 486.992077 123.169725 
L 487.16077 142.674757 
L 487.32948 140.880823 
L 487.498173 98.643811 
L 487.666866 125.282429 
L 487.835559 117.718643 
L 488.004252 120.866993 
L 488.172946 128.44175 
L 488.341639 145.582267 
L 488.510332 140.300569 
L 488.679042 102.044833 
L 488.847735 138.104874 
L 489.016428 134.514308 
L 489.185121 143.889414 
L 489.353814 110.529483 
L 489.691201 129.946885 
L 489.859911 143.112037 
L 490.028604 127.968315 
L 490.197297 145.924925 
L 490.36599 124.556533 
L 490.703377 126.815047 
L 490.87207 132.835163 
L 491.040763 122.469931 
L 491.209473 119.647565 
L 491.378166 122.212377 
L 491.546859 107.194349 
L 491.715552 119.349246 
L 491.884245 118.192981 
L 492.052939 140.183266 
L 492.390325 114.97174 
L 492.559035 115.291823 
L 492.727728 104.595639 
L 492.896421 130.074034 
L 493.065114 114.026274 
L 493.233807 117.705545 
L 493.402501 144.913721 
L 493.571194 147.759371 
L 493.739887 161.272398 
L 493.908597 141.097086 
L 494.07729 159.208143 
L 494.583369 132.863667 
L 494.752063 131.472066 
L 495.089466 110.575414 
L 495.258159 173.074199 
L 495.426852 165.526833 
L 495.764238 127.003692 
L 495.932932 127.654135 
L 496.101625 127.386555 
L 496.270318 117.831353 
L 496.607721 132.746374 
L 496.945107 106.585878 
L 497.1138 135.587763 
L 497.282494 128.149416 
L 497.451187 137.113284 
L 497.61988 109.973251 
L 497.78859 125.416953 
L 497.957283 112.102212 
L 498.294669 133.919496 
L 498.463362 161.508627 
L 498.632056 152.157888 
L 498.800749 153.66697 
L 498.969442 113.901966 
L 499.138152 142.179981 
L 499.306845 129.099898 
L 499.475538 127.880466 
L 499.644231 141.580413 
L 499.812924 122.993402 
L 499.981618 131.383373 
L 500.150311 146.582879 
L 500.319004 140.843378 
L 500.656407 120.949242 
L 500.8251 98.186058 
L 500.993793 97.801144 
L 501.162487 111.97444 
L 501.33118 76.507957 
L 501.499873 123.398325 
L 501.668566 123.631661 
L 501.837276 118.925168 
L 502.005969 105.481512 
L 502.174662 105.398239 
L 502.512049 111.737706 
L 502.680742 83.847246 
L 502.849435 80.464033 
L 503.186838 129.549006 
L 503.355531 123.990042 
L 503.524224 95.257374 
L 503.692917 96.136058 
L 503.86163 81.967597 
L 504.030323 117.529122 
L 504.367709 72.116669 
L 504.536419 63.90402 
L 504.705112 87.606396 
L 504.873805 85.555622 
L 505.042499 75.302401 
L 505.211192 72.812007 
L 505.379885 57.529432 
L 505.548578 89.034875 
L 505.717271 86.61791 
L 505.885981 124.965106 
L 506.054674 106.328082 
L 506.223367 102.822582 
L 506.392061 124.602851 
L 506.560754 90.262327 
L 506.729447 81.368029 
L 506.89814 115.876868 
L 507.066833 87.946142 
L 507.235543 141.013563 
L 507.404236 100.572896 
L 507.57293 108.65183 
L 507.741623 92.752569 
L 507.910316 121.596805 
L 508.079009 104.06492 
L 508.247702 98.476834 
L 508.416395 89.175397 
L 508.585088 127.80673 
L 508.753798 92.208572 
L 508.922492 97.443808 
L 509.091185 84.941974 
L 509.259878 88.725996 
L 509.597264 102.945831 
L 509.93465 134.934603 
L 510.272054 86.504021 
L 510.440747 110.895333 
L 510.60944 85.369009 
L 510.778133 88.436307 
L 510.946826 126.280285 
L 511.115519 134.511471 
L 511.284212 126.441527 
L 511.452906 103.459261 
L 511.621616 95.996815 
L 512.127695 115.055368 
L 512.296388 102.735496 
L 512.465081 100.543837 
L 512.633774 92.685793 
L 512.802468 100.760297 
L 512.971178 117.178074 
L 513.139871 93.060358 
L 513.308564 94.363634 
L 513.477257 124.058375 
L 513.64595 124.806233 
L 513.814643 105.053306 
L 513.983336 133.400991 
L 514.15203 140.647511 
L 514.320723 127.051272 
L 514.489433 127.171067 
L 514.658126 121.933563 
L 514.826819 140.667641 
L 515.332899 89.755662 
L 515.501592 90.033892 
L 516.007688 117.023546 
L 516.176381 93.326094 
L 516.345074 120.669172 
L 516.513767 92.581402 
L 516.682461 107.052504 
L 516.851154 75.675315 
L 517.019847 88.668736 
L 517.18854 84.982217 
L 517.35725 68.85146 
L 517.525943 77.731395 
L 517.694636 99.177446 
L 517.863329 100.352591 
L 518.032023 96.788422 
L 518.538102 41.861726 
L 518.706795 37.317994 
L 518.875505 26.877188 
L 519.044198 69.993301 
L 519.212891 57.352795 
L 519.718971 82.835541 
L 519.887664 77.583895 
L 520.056357 90.395777 
L 520.22505 66.746303 
L 520.39376 63.699621 
L 520.562454 66.25961 
L 520.731147 90.752699 
L 520.89984 78.200748 
L 521.068533 101.418352 
L 521.237226 61.480172 
L 521.405919 83.761196 
L 521.574612 80.340624 
L 521.743305 100.154657 
L 521.912016 76.533057 
L 522.080709 75.899769 
L 522.249402 107.331095 
L 522.586788 67.727335 
L 522.755481 76.93124 
L 522.924174 94.679298 
L 523.09286 72.804363 
L 523.26157 123.002404 
L 523.767649 100.8863 
L 523.936342 110.628077 
L 524.105035 108.387791 
L 524.273729 90.124232 
L 524.442422 86.881353 
L 524.611115 101.365976 
L 524.779825 72.908253 
L 524.948518 79.364973 
L 525.117211 76.190057 
L 525.285904 93.279131 
L 525.454598 93.282519 
L 525.623291 88.480501 
L 525.791984 103.542585 
L 526.12937 78.07254 
L 526.29808 88.575715 
L 526.466773 83.806055 
L 526.635466 123.58062 
L 526.972853 83.907767 
L 527.141546 97.3284 
L 527.310239 78.721965 
L 527.478932 89.561513 
L 527.647625 60.498283 
L 527.816318 73.044986 
L 527.985028 76.397652 
L 528.153722 64.475139 
L 528.322415 88.887314 
L 528.491108 66.357446 
L 528.659801 70.949377 
L 528.828494 65.265542 
L 528.997187 36.191228 
L 529.16588 65.726567 
L 529.334574 62.523757 
L 529.503284 70.835869 
L 529.671977 34.83426 
L 530.178056 85.577266 
L 530.515442 70.220738 
L 530.852829 84.010688 
L 531.021539 49.205098 
L 531.190232 60.086934 
L 531.358925 60.19135 
L 531.527618 117.257649 
L 531.865005 57.857896 
L 532.202391 105.727537 
L 532.371084 93.18366 
L 532.539794 97.110626 
L 532.708487 86.587391 
L 532.87718 93.015722 
L 533.045873 74.855966 
L 533.214567 79.042987 
L 533.38326 69.785983 
L 533.551953 111.618702 
L 533.720646 109.489985 
L 534.058049 85.024709 
L 534.395435 91.326008 
L 534.564129 98.440809 
L 534.732822 80.514149 
L 535.070208 108.968837 
L 535.238901 99.140314 
L 535.576287 116.004671 
L 535.744997 112.051297 
L 535.913691 110.927359 
L 536.082384 86.420177 
L 536.251077 82.661047 
L 536.41977 110.179614 
L 536.588463 77.078775 
L 536.757156 81.127185 
L 536.925849 71.965426 
L 537.094543 85.300899 
L 537.263253 83.57927 
L 537.431946 109.042466 
L 537.600639 92.90592 
L 537.769332 93.243469 
L 537.938025 96.260258 
L 538.106718 76.531712 
L 538.275411 80.667128 
L 538.444105 102.054219 
L 538.612798 103.774715 
L 538.781491 92.897288 
L 538.950201 71.164146 
L 539.118894 81.184565 
L 539.287587 77.553744 
L 539.45628 79.113361 
L 539.624974 114.350064 
L 539.793667 99.817269 
L 539.96236 75.452493 
L 540.131053 82.726937 
L 540.299746 110.411033 
L 540.468439 64.742763 
L 540.805842 101.989309 
L 540.974536 108.361271 
L 541.143229 99.700771 
L 541.311922 97.227538 
L 541.480615 77.364209 
L 541.649308 87.149496 
L 541.818001 86.840322 
L 541.986694 87.357612 
L 542.155402 68.290936 
L 542.324095 96.253268 
L 542.492788 97.737347 
L 542.661481 106.593758 
L 542.830174 93.751923 
L 542.998867 89.744926 
L 543.16756 74.367614 
L 543.336254 93.282634 
L 543.504947 95.808447 
L 543.67364 62.506917 
L 544.179736 86.446512 
L 544.348429 59.107041 
L 544.685816 98.307143 
L 544.854509 98.476945 
L 545.023202 86.831265 
L 545.191895 84.62742 
L 545.360588 88.44211 
L 545.529298 102.084397 
L 545.866684 75.756585 
L 546.204071 111.088493 
L 546.372764 104.940882 
L 546.541457 116.555667 
L 546.71015 114.82705 
L 546.878843 89.594842 
L 547.047536 96.581989 
L 547.216247 84.963064 
L 547.38494 110.124232 
L 547.553633 103.31621 
L 547.722326 103.650279 
L 548.059712 81.902864 
L 548.228405 86.799111 
L 548.397098 87.035504 
L 548.565792 68.498175 
L 548.734485 81.934983 
L 548.903195 83.06953 
L 549.409274 116.836195 
L 549.577967 93.527185 
L 549.746661 88.576957 
L 550.084047 126.984534 
L 550.25274 96.072038 
L 550.421433 112.25196 
L 550.590143 105.639581 
L 550.758836 81.664157 
L 550.927529 97.851654 
L 551.096223 91.988919 
L 551.264916 90.313375 
L 551.433609 111.851422 
L 551.602302 111.833943 
L 551.939688 113.448134 
L 552.108381 119.757139 
L 552.445785 96.948798 
L 552.614478 116.028924 
L 552.951864 108.82126 
L 553.120557 113.448525 
L 553.28925 125.68263 
L 553.79533 96.655633 
L 553.964023 120.876597 
L 554.132733 118.520524 
L 554.301426 105.107286 
L 554.470119 137.08555 
L 554.638812 93.191129 
L 554.976199 129.889954 
L 555.144892 131.829985 
L 555.482278 92.217518 
L 555.650971 133.747642 
L 555.819681 112.807533 
L 555.988374 118.55189 
L 556.157067 110.414749 
L 556.325761 121.406346 
L 556.494454 105.059317 
L 556.83184 151.286366 
L 557.000533 137.553911 
L 557.169226 177.071082 
L 557.337919 172.755977 
L 557.506613 161.381878 
L 557.675323 134.360794 
L 557.844016 165.143144 
L 558.012709 157.177178 
L 558.181402 141.602983 
L 558.350095 139.949064 
L 558.518788 156.396123 
L 558.687482 130.218489 
L 558.856175 149.612244 
L 559.024868 139.096797 
L 559.193561 138.959091 
L 559.362254 140.329607 
L 559.530964 126.897495 
L 559.699657 125.924723 
L 559.86835 109.289591 
L 560.037044 138.188824 
L 560.205737 132.589751 
L 560.543123 146.740752 
L 560.711816 117.947701 
L 561.386613 170.386238 
L 561.555306 154.76097 
L 561.723999 121.662167 
L 562.061385 148.503431 
L 562.230078 138.310614 
L 562.398772 160.813492 
L 562.567465 163.380898 
L 562.736158 144.266608 
L 562.904851 163.121148 
L 563.073544 168.891301 
L 563.242254 123.713947 
L 563.410947 129.971741 
L 563.57964 151.858665 
L 563.917027 162.449756 
L 564.08572 170.517088 
L 564.254413 144.571872 
L 564.423106 154.625875 
L 564.591799 137.420642 
L 564.760492 146.631477 
L 564.929186 166.396427 
L 565.097896 156.39051 
L 565.266589 153.135736 
L 565.435282 171.322034 
L 565.603975 144.352698 
L 565.772668 153.021127 
L 565.941361 150.536762 
L 566.110054 145.705567 
L 566.278748 156.914657 
L 566.447441 159.315448 
L 566.616134 171.58827 
L 566.784827 144.959982 
L 566.953537 156.726535 
L 567.12223 149.340205 
L 567.290923 162.424961 
L 567.459616 143.414413 
L 567.797003 184.207477 
L 567.965696 178.94437 
L 568.471775 140.997831 
L 568.640468 171.390332 
L 568.809162 181.32497 
L 569.315258 159.674659 
L 569.652644 184.613176 
L 569.821337 187.656098 
L 569.99003 163.792201 
L 570.158724 181.82806 
L 570.327417 173.423896 
L 570.49611 205.044367 
L 570.664803 199.269303 
L 570.833513 207.448742 
L 571.170899 185.604505 
L 571.508286 213.214681 
L 571.845672 141.094724 
L 572.014365 176.449414 
L 572.183058 177.755422 
L 572.351751 204.284304 
L 572.689138 178.981805 
L 572.857848 174.309231 
L 573.195234 188.259942 
L 573.53262 135.902224 
L 573.701313 152.849277 
L 573.870007 185.554032 
L 574.0387 143.014137 
L 574.207393 135.576584 
L 574.544779 185.232626 
L 574.713472 191.866398 
L 575.050875 165.534413 
L 575.219569 178.277613 
L 575.388262 172.846588 
L 575.556955 174.767652 
L 575.725648 196.568083 
L 575.894341 147.653174 
L 576.231727 187.899991 
L 576.400421 200.128008 
L 576.569114 169.076861 
L 576.737807 174.945903 
L 577.07521 158.825814 
L 577.412596 184.044669 
L 577.581289 177.74888 
L 577.749983 183.861794 
L 577.918676 184.417879 
L 578.087369 158.847566 
L 578.424755 208.198672 
L 578.593448 215.376351 
L 578.762141 207.976395 
L 578.930851 213.988749 
L 579.099545 162.924272 
L 579.268238 236.329212 
L 579.605624 182.227178 
L 579.774317 189.01751 
L 579.94301 217.947826 
L 580.111703 178.138641 
L 580.280397 202.116541 
L 580.44909 183.593893 
L 580.617767 180.137823 
L 580.78646 183.177607 
L 580.95517 175.500731 
L 581.123864 158.224849 
L 581.123864 158.224849 
" clip-path="url(#p0ef184a0ca)" style="fill: none; stroke: #1f77b4; stroke-width: 2; stroke-linecap: square"/>
   </g>
   <g id="patch_3">
    <path d="M 48.4875 414.957188 
L 48.4875 26.877188 
" style="fill: none; stroke: #808080; stroke-width: 2; stroke-linejoin: miter; stroke-linecap: square"/>
   </g>
   <g id="patch_4">
    <path d="M 48.4875 414.957187 
L 606.4875 414.957187 
" style="fill: none; stroke: #808080; stroke-width: 2; stroke-linejoin: miter; stroke-linecap: square"/>
   </g>
   <g id="text_14">
    <!-- Thorb-Nidarosdomen-vinkel -->
    <g style="fill: #808080" transform="translate(203.270625 20.877187) scale(0.18 -0.18)">
     <defs>
      <path id="DejaVuSans-54" d="M -19 4666 
L 3928 4666 
L 3928 4134 
L 2272 4134 
L 2272 0 
L 1638 0 
L 1638 4134 
L -19 4134 
L -19 4666 
z
" transform="scale(0.015625)"/>
      <path id="DejaVuSans-68" d="M 3513 2113 
L 3513 0 
L 2938 0 
L 2938 2094 
Q 2938 2591 2744 2837 
Q 2550 3084 2163 3084 
Q 1697 3084 1428 2787 
Q 1159 2491 1159 1978 
L 1159 0 
L 581 0 
L 581 4863 
L 1159 4863 
L 1159 2956 
Q 1366 3272 1645 3428 
Q 1925 3584 2291 3584 
Q 2894 3584 3203 3211 
Q 3513 2838 3513 2113 
z
" transform="scale(0.015625)"/>
      <path id="DejaVuSans-6f" d="M 1959 3097 
Q 1497 3097 1228 2736 
Q 959 2375 959 1747 
Q 959 1119 1226 758 
Q 1494 397 1959 397 
Q 2419 397 2687 759 
Q 2956 1122 2956 1747 
Q 2956 2369 2687 2733 
Q 2419 3097 1959 3097 
z
M 1959 3584 
Q 2709 3584 3137 3096 
Q 3566 2609 3566 1747 
Q 3566 888 3137 398 
Q 2709 -91 1959 -91 
Q 1206 -91 779 398 
Q 353 888 353 1747 
Q 353 2609 779 3096 
Q 1206 3584 1959 3584 
z
" transform="scale(0.015625)"/>
      <path id="DejaVuSans-72" d="M 2631 2963 
Q 2534 3019 2420 3045 
Q 2306 3072 2169 3072 
Q 1681 3072 1420 2755 
Q 1159 2438 1159 1844 
L 1159 0 
L 581 0 
L 581 3500 
L 1159 3500 
L 1159 2956 
Q 1341 3275 1631 3429 
Q 1922 3584 2338 3584 
Q 2397 3584 2469 3576 
Q 2541 3569 2628 3553 
L 2631 2963 
z
" transform="scale(0.015625)"/>
      <path id="DejaVuSans-62" d="M 3116 1747 
Q 3116 2381 2855 2742 
Q 2594 3103 2138 3103 
Q 1681 3103 1420 2742 
Q 1159 2381 1159 1747 
Q 1159 1113 1420 752 
Q 1681 391 2138 391 
Q 2594 391 2855 752 
Q 3116 1113 3116 1747 
z
M 1159 2969 
Q 1341 3281 1617 3432 
Q 1894 3584 2278 3584 
Q 2916 3584 3314 3078 
Q 3713 2572 3713 1747 
Q 3713 922 3314 415 
Q 2916 -91 2278 -91 
Q 1894 -91 1617 61 
Q 1341 213 1159 525 
L 1159 0 
L 581 0 
L 581 4863 
L 1159 4863 
L 1159 2969 
z
" transform="scale(0.015625)"/>
      <path id="DejaVuSans-2d" d="M 313 2009 
L 1997 2009 
L 1997 1497 
L 313 1497 
L 313 2009 
z
" transform="scale(0.015625)"/>
      <path id="DejaVuSans-4e" d="M 628 4666 
L 1478 4666 
L 3547 763 
L 3547 4666 
L 4159 4666 
L 4159 0 
L 3309 0 
L 1241 3903 
L 1241 0 
L 628 0 
L 628 4666 
z
" transform="scale(0.015625)"/>
      <path id="DejaVuSans-61" d="M 2194 1759 
Q 1497 1759 1228 1600 
Q 959 1441 959 1056 
Q 959 750 1161 570 
Q 1363 391 1709 391 
Q 2188 391 2477 730 
Q 2766 1069 2766 1631 
L 2766 1759 
L 2194 1759 
z
M 3341 1997 
L 3341 0 
L 2766 0 
L 2766 531 
Q 2569 213 2275 61 
Q 1981 -91 1556 -91 
Q 1019 -91 701 211 
Q 384 513 384 1019 
Q 384 1609 779 1909 
Q 1175 2209 1959 2209 
L 2766 2209 
L 2766 2266 
Q 2766 2663 2505 2880 
Q 2244 3097 1772 3097 
Q 1472 3097 1187 3025 
Q 903 2953 641 2809 
L 641 3341 
Q 956 3463 1253 3523 
Q 1550 3584 1831 3584 
Q 2591 3584 2966 3190 
Q 3341 2797 3341 1997 
z
" transform="scale(0.015625)"/>
      <path id="DejaVuSans-6e" d="M 3513 2113 
L 3513 0 
L 2938 0 
L 2938 2094 
Q 2938 2591 2744 2837 
Q 2550 3084 2163 3084 
Q 1697 3084 1428 2787 
Q 1159 2491 1159 1978 
L 1159 0 
L 581 0 
L 581 3500 
L 1159 3500 
L 1159 2956 
Q 1366 3272 1645 3428 
Q 1925 3584 2291 3584 
Q 2894 3584 3203 3211 
Q 3513 2838 3513 2113 
z
" transform="scale(0.015625)"/>
      <path id="DejaVuSans-76" d="M 191 3500 
L 800 3500 
L 1894 563 
L 2988 3500 
L 3597 3500 
L 2284 0 
L 1503 0 
L 191 3500 
z
" transform="scale(0.015625)"/>
      <path id="DejaVuSans-6b" d="M 581 4863 
L 1159 4863 
L 1159 1991 
L 2875 3500 
L 3609 3500 
L 1753 1863 
L 3688 0 
L 2938 0 
L 1159 1709 
L 1159 0 
L 581 0 
L 581 4863 
z
" transform="scale(0.015625)"/>
      <path id="DejaVuSans-6c" d="M 603 4863 
L 1178 4863 
L 1178 0 
L 603 0 
L 603 4863 
z
" transform="scale(0.015625)"/>
     </defs>
     <use xlink:href="#DejaVuSans-54"/>
     <use xlink:href="#DejaVuSans-68" x="61.083984"/>
     <use xlink:href="#DejaVuSans-6f" x="124.462891"/>
     <use xlink:href="#DejaVuSans-72" x="185.644531"/>
     <use xlink:href="#DejaVuSans-62" x="226.757812"/>
     <use xlink:href="#DejaVuSans-2d" x="290.234375"/>
     <use xlink:href="#DejaVuSans-4e" x="326.318359"/>
     <use xlink:href="#DejaVuSans-69" x="401.123047"/>
     <use xlink:href="#DejaVuSans-64" x="428.90625"/>
     <use xlink:href="#DejaVuSans-61" x="492.382812"/>
     <use xlink:href="#DejaVuSans-72" x="553.662109"/>
     <use xlink:href="#DejaVuSans-6f" x="592.525391"/>
     <use xlink:href="#DejaVuSans-73" x="653.707031"/>
     <use xlink:href="#DejaVuSans-64" x="705.806641"/>
     <use xlink:href="#DejaVuSans-6f" x="769.283203"/>
     <use xlink:href="#DejaVuSans-6d" x="830.464844"/>
     <use xlink:href="#DejaVuSans-65" x="927.876953"/>
     <use xlink:href="#DejaVuSans-6e" x="989.400391"/>
     <use xlink:href="#DejaVuSans-2d" x="1052.779297"/>
     <use xlink:href="#DejaVuSans-76" x="1086.238281"/>
     <use xlink:href="#DejaVuSans-69" x="1145.417969"/>
     <use xlink:href="#DejaVuSans-6e" x="1173.201172"/>
     <use xlink:href="#DejaVuSans-6b" x="1236.580078"/>
     <use xlink:href="#DejaVuSans-65" x="1290.865234"/>
     <use xlink:href="#DejaVuSans-6c" x="1352.388672"/>
    </g>
   </g>
   <g id="legend_1">
    <g id="patch_5">
     <path d="M 58.9875 60.894375 
L 314.015625 60.894375 
Q 317.015625 60.894375 317.015625 57.894375 
L 317.015625 37.377187 
Q 317.015625 34.377187 314.015625 34.377187 
L 58.9875 34.377187 
Q 55.9875 34.377187 55.9875 37.377187 
L 55.9875 57.894375 
Q 55.9875 60.894375 58.9875 60.894375 
z
" style="fill: #ffffff; opacity: 0.8; stroke: #cccccc; stroke-linejoin: miter"/>
    </g>
    <g id="line2d_24">
     <path d="M 61.9875 46.524844 
L 76.9875 46.524844 
L 91.9875 46.524844 
" style="fill: none; stroke: #1f77b4; stroke-width: 2; stroke-linecap: square"/>
    </g>
    <g id="text_15">
     <!-- Thorb-Nidarosdomen-vinkel -->
     <g style="fill: #808080" transform="translate(103.9875 51.774844) scale(0.15 -0.15)">
      <use xlink:href="#DejaVuSans-54"/>
      <use xlink:href="#DejaVuSans-68" x="61.083984"/>
      <use xlink:href="#DejaVuSans-6f" x="124.462891"/>
      <use xlink:href="#DejaVuSans-72" x="185.644531"/>
      <use xlink:href="#DejaVuSans-62" x="226.757812"/>
      <use xlink:href="#DejaVuSans-2d" x="290.234375"/>
      <use xlink:href="#DejaVuSans-4e" x="326.318359"/>
      <use xlink:href="#DejaVuSans-69" x="401.123047"/>
      <use xlink:href="#DejaVuSans-64" x="428.90625"/>
      <use xlink:href="#DejaVuSans-61" x="492.382812"/>
      <use xlink:href="#DejaVuSans-72" x="553.662109"/>
      <use xlink:href="#DejaVuSans-6f" x="592.525391"/>
      <use xlink:href="#DejaVuSans-73" x="653.707031"/>
      <use xlink:href="#DejaVuSans-64" x="705.806641"/>
      <use xlink:href="#DejaVuSans-6f" x="769.283203"/>
      <use xlink:href="#DejaVuSans-6d" x="830.464844"/>
      <use xlink:href="#DejaVuSans-65" x="927.876953"/>
      <use xlink:href="#DejaVuSans-6e" x="989.400391"/>
      <use xlink:href="#DejaVuSans-2d" x="1052.779297"/>
      <use xlink:href="#DejaVuSans-76" x="1086.238281"/>
      <use xlink:href="#DejaVuSans-69" x="1145.417969"/>
      <use xlink:href="#DejaVuSans-6e" x="1173.201172"/>
      <use xlink:href="#DejaVuSans-6b" x="1236.580078"/>
      <use xlink:href="#DejaVuSans-65" x="1290.865234"/>
      <use xlink:href="#DejaVuSans-6c" x="1352.388672"/>
     </g>
    </g>
   </g>
  </g>
 </g>
 <defs>
  <clipPath id="p0ef184a0ca">
   <rect x="48.4875" y="26.877187" width="558" height="388.08"/>
  </clipPath>
 </defs>
</svg>
