<?xml version="1.0" encoding="utf-8" standalone="no"?>
<!DOCTYPE svg PUBLIC "-//W3C//DTD SVG 1.1//EN"
  "http://www.w3.org/Graphics/SVG/1.1/DTD/svg11.dtd">
<svg xmlns:xlink="http://www.w3.org/1999/xlink" width="460.8pt" height="345.6pt" viewBox="0 0 460.8 345.6" xmlns="http://www.w3.org/2000/svg" version="1.1">
 <metadata>
  <rdf:RDF xmlns:dc="http://purl.org/dc/elements/1.1/" xmlns:cc="http://creativecommons.org/ns#" xmlns:rdf="http://www.w3.org/1999/02/22-rdf-syntax-ns#">
   <cc:Work>
    <dc:type rdf:resource="http://purl.org/dc/dcmitype/StillImage"/>
    <dc:date>2023-04-17T15:21:33.465951</dc:date>
    <dc:format>image/svg+xml</dc:format>
    <dc:creator>
     <cc:Agent>
      <dc:title>Matplotlib v3.7.1, https://matplotlib.org/</dc:title>
     </cc:Agent>
    </dc:creator>
   </cc:Work>
  </rdf:RDF>
 </metadata>
 <defs>
  <style type="text/css">*{stroke-linejoin: round; stroke-linecap: butt}</style>
 </defs>
 <g id="figure_1">
  <g id="patch_1">
   <path d="M 0 345.6 
L 460.8 345.6 
L 460.8 0 
L 0 0 
z
" style="fill: #ffffff"/>
  </g>
  <g id="axes_1">
   <g id="patch_2">
    <path d="M 57.6 307.584 
L 414.72 307.584 
L 414.72 41.472 
L 57.6 41.472 
z
" style="fill: #ffffff"/>
   </g>
   <g id="matplotlib.axis_1">
    <g id="xtick_1">
     <g id="line2d_1">
      <defs>
       <path id="mb983ecb3f5" d="M 0 0 
L 0 3.5 
" style="stroke: #000000; stroke-width: 0.8"/>
      </defs>
      <g>
       <use xlink:href="#mb983ecb3f5" x="73.970296" y="307.584" style="stroke: #000000; stroke-width: 0.8"/>
      </g>
     </g>
     <g id="text_1">
      <!-- 50 -->
      <g transform="translate(67.607796 322.182437) scale(0.1 -0.1)">
       <defs>
        <path id="DejaVuSans-35" d="M 691 4666 
L 3169 4666 
L 3169 4134 
L 1269 4134 
L 1269 2991 
Q 1406 3038 1543 3061 
Q 1681 3084 1819 3084 
Q 2600 3084 3056 2656 
Q 3513 2228 3513 1497 
Q 3513 744 3044 326 
Q 2575 -91 1722 -91 
Q 1428 -91 1123 -41 
Q 819 9 494 109 
L 494 744 
Q 775 591 1075 516 
Q 1375 441 1709 441 
Q 2250 441 2565 725 
Q 2881 1009 2881 1497 
Q 2881 1984 2565 2268 
Q 2250 2553 1709 2553 
Q 1456 2553 1204 2497 
Q 953 2441 691 2322 
L 691 4666 
z
" transform="scale(0.015625)"/>
        <path id="DejaVuSans-30" d="M 2034 4250 
Q 1547 4250 1301 3770 
Q 1056 3291 1056 2328 
Q 1056 1369 1301 889 
Q 1547 409 2034 409 
Q 2525 409 2770 889 
Q 3016 1369 3016 2328 
Q 3016 3291 2770 3770 
Q 2525 4250 2034 4250 
z
M 2034 4750 
Q 2819 4750 3233 4129 
Q 3647 3509 3647 2328 
Q 3647 1150 3233 529 
Q 2819 -91 2034 -91 
Q 1250 -91 836 529 
Q 422 1150 422 2328 
Q 422 3509 836 4129 
Q 1250 4750 2034 4750 
z
" transform="scale(0.015625)"/>
       </defs>
       <use xlink:href="#DejaVuSans-35"/>
       <use xlink:href="#DejaVuSans-30" x="63.623047"/>
      </g>
     </g>
    </g>
    <g id="xtick_2">
     <g id="line2d_2">
      <g>
       <use xlink:href="#mb983ecb3f5" x="114.570299" y="307.584" style="stroke: #000000; stroke-width: 0.8"/>
      </g>
     </g>
     <g id="text_2">
      <!-- 55 -->
      <g transform="translate(108.207799 322.182437) scale(0.1 -0.1)">
       <use xlink:href="#DejaVuSans-35"/>
       <use xlink:href="#DejaVuSans-35" x="63.623047"/>
      </g>
     </g>
    </g>
    <g id="xtick_3">
     <g id="line2d_3">
      <g>
       <use xlink:href="#mb983ecb3f5" x="155.170302" y="307.584" style="stroke: #000000; stroke-width: 0.8"/>
      </g>
     </g>
     <g id="text_3">
      <!-- 60 -->
      <g transform="translate(148.807802 322.182437) scale(0.1 -0.1)">
       <defs>
        <path id="DejaVuSans-36" d="M 2113 2584 
Q 1688 2584 1439 2293 
Q 1191 2003 1191 1497 
Q 1191 994 1439 701 
Q 1688 409 2113 409 
Q 2538 409 2786 701 
Q 3034 994 3034 1497 
Q 3034 2003 2786 2293 
Q 2538 2584 2113 2584 
z
M 3366 4563 
L 3366 3988 
Q 3128 4100 2886 4159 
Q 2644 4219 2406 4219 
Q 1781 4219 1451 3797 
Q 1122 3375 1075 2522 
Q 1259 2794 1537 2939 
Q 1816 3084 2150 3084 
Q 2853 3084 3261 2657 
Q 3669 2231 3669 1497 
Q 3669 778 3244 343 
Q 2819 -91 2113 -91 
Q 1303 -91 875 529 
Q 447 1150 447 2328 
Q 447 3434 972 4092 
Q 1497 4750 2381 4750 
Q 2619 4750 2861 4703 
Q 3103 4656 3366 4563 
z
" transform="scale(0.015625)"/>
       </defs>
       <use xlink:href="#DejaVuSans-36"/>
       <use xlink:href="#DejaVuSans-30" x="63.623047"/>
      </g>
     </g>
    </g>
    <g id="xtick_4">
     <g id="line2d_4">
      <g>
       <use xlink:href="#mb983ecb3f5" x="195.770304" y="307.584" style="stroke: #000000; stroke-width: 0.8"/>
      </g>
     </g>
     <g id="text_4">
      <!-- 65 -->
      <g transform="translate(189.407804 322.182437) scale(0.1 -0.1)">
       <use xlink:href="#DejaVuSans-36"/>
       <use xlink:href="#DejaVuSans-35" x="63.623047"/>
      </g>
     </g>
    </g>
    <g id="xtick_5">
     <g id="line2d_5">
      <g>
       <use xlink:href="#mb983ecb3f5" x="236.370307" y="307.584" style="stroke: #000000; stroke-width: 0.8"/>
      </g>
     </g>
     <g id="text_5">
      <!-- 70 -->
      <g transform="translate(230.007807 322.182437) scale(0.1 -0.1)">
       <defs>
        <path id="DejaVuSans-37" d="M 525 4666 
L 3525 4666 
L 3525 4397 
L 1831 0 
L 1172 0 
L 2766 4134 
L 525 4134 
L 525 4666 
z
" transform="scale(0.015625)"/>
       </defs>
       <use xlink:href="#DejaVuSans-37"/>
       <use xlink:href="#DejaVuSans-30" x="63.623047"/>
      </g>
     </g>
    </g>
    <g id="xtick_6">
     <g id="line2d_6">
      <g>
       <use xlink:href="#mb983ecb3f5" x="276.97031" y="307.584" style="stroke: #000000; stroke-width: 0.8"/>
      </g>
     </g>
     <g id="text_6">
      <!-- 75 -->
      <g transform="translate(270.60781 322.182437) scale(0.1 -0.1)">
       <use xlink:href="#DejaVuSans-37"/>
       <use xlink:href="#DejaVuSans-35" x="63.623047"/>
      </g>
     </g>
    </g>
    <g id="xtick_7">
     <g id="line2d_7">
      <g>
       <use xlink:href="#mb983ecb3f5" x="317.570313" y="307.584" style="stroke: #000000; stroke-width: 0.8"/>
      </g>
     </g>
     <g id="text_7">
      <!-- 80 -->
      <g transform="translate(311.207813 322.182437) scale(0.1 -0.1)">
       <defs>
        <path id="DejaVuSans-38" d="M 2034 2216 
Q 1584 2216 1326 1975 
Q 1069 1734 1069 1313 
Q 1069 891 1326 650 
Q 1584 409 2034 409 
Q 2484 409 2743 651 
Q 3003 894 3003 1313 
Q 3003 1734 2745 1975 
Q 2488 2216 2034 2216 
z
M 1403 2484 
Q 997 2584 770 2862 
Q 544 3141 544 3541 
Q 544 4100 942 4425 
Q 1341 4750 2034 4750 
Q 2731 4750 3128 4425 
Q 3525 4100 3525 3541 
Q 3525 3141 3298 2862 
Q 3072 2584 2669 2484 
Q 3125 2378 3379 2068 
Q 3634 1759 3634 1313 
Q 3634 634 3220 271 
Q 2806 -91 2034 -91 
Q 1263 -91 848 271 
Q 434 634 434 1313 
Q 434 1759 690 2068 
Q 947 2378 1403 2484 
z
M 1172 3481 
Q 1172 3119 1398 2916 
Q 1625 2713 2034 2713 
Q 2441 2713 2670 2916 
Q 2900 3119 2900 3481 
Q 2900 3844 2670 4047 
Q 2441 4250 2034 4250 
Q 1625 4250 1398 4047 
Q 1172 3844 1172 3481 
z
" transform="scale(0.015625)"/>
       </defs>
       <use xlink:href="#DejaVuSans-38"/>
       <use xlink:href="#DejaVuSans-30" x="63.623047"/>
      </g>
     </g>
    </g>
    <g id="xtick_8">
     <g id="line2d_8">
      <g>
       <use xlink:href="#mb983ecb3f5" x="358.170316" y="307.584" style="stroke: #000000; stroke-width: 0.8"/>
      </g>
     </g>
     <g id="text_8">
      <!-- 85 -->
      <g transform="translate(351.807816 322.182437) scale(0.1 -0.1)">
       <use xlink:href="#DejaVuSans-38"/>
       <use xlink:href="#DejaVuSans-35" x="63.623047"/>
      </g>
     </g>
    </g>
    <g id="xtick_9">
     <g id="line2d_9">
      <g>
       <use xlink:href="#mb983ecb3f5" x="398.770318" y="307.584" style="stroke: #000000; stroke-width: 0.8"/>
      </g>
     </g>
     <g id="text_9">
      <!-- 90 -->
      <g transform="translate(392.407818 322.182437) scale(0.1 -0.1)">
       <defs>
        <path id="DejaVuSans-39" d="M 703 97 
L 703 672 
Q 941 559 1184 500 
Q 1428 441 1663 441 
Q 2288 441 2617 861 
Q 2947 1281 2994 2138 
Q 2813 1869 2534 1725 
Q 2256 1581 1919 1581 
Q 1219 1581 811 2004 
Q 403 2428 403 3163 
Q 403 3881 828 4315 
Q 1253 4750 1959 4750 
Q 2769 4750 3195 4129 
Q 3622 3509 3622 2328 
Q 3622 1225 3098 567 
Q 2575 -91 1691 -91 
Q 1453 -91 1209 -44 
Q 966 3 703 97 
z
M 1959 2075 
Q 2384 2075 2632 2365 
Q 2881 2656 2881 3163 
Q 2881 3666 2632 3958 
Q 2384 4250 1959 4250 
Q 1534 4250 1286 3958 
Q 1038 3666 1038 3163 
Q 1038 2656 1286 2365 
Q 1534 2075 1959 2075 
z
" transform="scale(0.015625)"/>
       </defs>
       <use xlink:href="#DejaVuSans-39"/>
       <use xlink:href="#DejaVuSans-30" x="63.623047"/>
      </g>
     </g>
    </g>
    <g id="text_10">
     <!-- time [s] -->
     <g transform="translate(216.768594 335.860562) scale(0.1 -0.1)">
      <defs>
       <path id="DejaVuSans-74" d="M 1172 4494 
L 1172 3500 
L 2356 3500 
L 2356 3053 
L 1172 3053 
L 1172 1153 
Q 1172 725 1289 603 
Q 1406 481 1766 481 
L 2356 481 
L 2356 0 
L 1766 0 
Q 1100 0 847 248 
Q 594 497 594 1153 
L 594 3053 
L 172 3053 
L 172 3500 
L 594 3500 
L 594 4494 
L 1172 4494 
z
" transform="scale(0.015625)"/>
       <path id="DejaVuSans-69" d="M 603 3500 
L 1178 3500 
L 1178 0 
L 603 0 
L 603 3500 
z
M 603 4863 
L 1178 4863 
L 1178 4134 
L 603 4134 
L 603 4863 
z
" transform="scale(0.015625)"/>
       <path id="DejaVuSans-6d" d="M 3328 2828 
Q 3544 3216 3844 3400 
Q 4144 3584 4550 3584 
Q 5097 3584 5394 3201 
Q 5691 2819 5691 2113 
L 5691 0 
L 5113 0 
L 5113 2094 
Q 5113 2597 4934 2840 
Q 4756 3084 4391 3084 
Q 3944 3084 3684 2787 
Q 3425 2491 3425 1978 
L 3425 0 
L 2847 0 
L 2847 2094 
Q 2847 2600 2669 2842 
Q 2491 3084 2119 3084 
Q 1678 3084 1418 2786 
Q 1159 2488 1159 1978 
L 1159 0 
L 581 0 
L 581 3500 
L 1159 3500 
L 1159 2956 
Q 1356 3278 1631 3431 
Q 1906 3584 2284 3584 
Q 2666 3584 2933 3390 
Q 3200 3197 3328 2828 
z
" transform="scale(0.015625)"/>
       <path id="DejaVuSans-65" d="M 3597 1894 
L 3597 1613 
L 953 1613 
Q 991 1019 1311 708 
Q 1631 397 2203 397 
Q 2534 397 2845 478 
Q 3156 559 3463 722 
L 3463 178 
Q 3153 47 2828 -22 
Q 2503 -91 2169 -91 
Q 1331 -91 842 396 
Q 353 884 353 1716 
Q 353 2575 817 3079 
Q 1281 3584 2069 3584 
Q 2775 3584 3186 3129 
Q 3597 2675 3597 1894 
z
M 3022 2063 
Q 3016 2534 2758 2815 
Q 2500 3097 2075 3097 
Q 1594 3097 1305 2825 
Q 1016 2553 972 2059 
L 3022 2063 
z
" transform="scale(0.015625)"/>
       <path id="DejaVuSans-20" transform="scale(0.015625)"/>
       <path id="DejaVuSans-5b" d="M 550 4863 
L 1875 4863 
L 1875 4416 
L 1125 4416 
L 1125 -397 
L 1875 -397 
L 1875 -844 
L 550 -844 
L 550 4863 
z
" transform="scale(0.015625)"/>
       <path id="DejaVuSans-73" d="M 2834 3397 
L 2834 2853 
Q 2591 2978 2328 3040 
Q 2066 3103 1784 3103 
Q 1356 3103 1142 2972 
Q 928 2841 928 2578 
Q 928 2378 1081 2264 
Q 1234 2150 1697 2047 
L 1894 2003 
Q 2506 1872 2764 1633 
Q 3022 1394 3022 966 
Q 3022 478 2636 193 
Q 2250 -91 1575 -91 
Q 1294 -91 989 -36 
Q 684 19 347 128 
L 347 722 
Q 666 556 975 473 
Q 1284 391 1588 391 
Q 1994 391 2212 530 
Q 2431 669 2431 922 
Q 2431 1156 2273 1281 
Q 2116 1406 1581 1522 
L 1381 1569 
Q 847 1681 609 1914 
Q 372 2147 372 2553 
Q 372 3047 722 3315 
Q 1072 3584 1716 3584 
Q 2034 3584 2315 3537 
Q 2597 3491 2834 3397 
z
" transform="scale(0.015625)"/>
       <path id="DejaVuSans-5d" d="M 1947 4863 
L 1947 -844 
L 622 -844 
L 622 -397 
L 1369 -397 
L 1369 4416 
L 622 4416 
L 622 4863 
L 1947 4863 
z
" transform="scale(0.015625)"/>
      </defs>
      <use xlink:href="#DejaVuSans-74"/>
      <use xlink:href="#DejaVuSans-69" x="39.208984"/>
      <use xlink:href="#DejaVuSans-6d" x="66.992188"/>
      <use xlink:href="#DejaVuSans-65" x="164.404297"/>
      <use xlink:href="#DejaVuSans-20" x="225.927734"/>
      <use xlink:href="#DejaVuSans-5b" x="257.714844"/>
      <use xlink:href="#DejaVuSans-73" x="296.728516"/>
      <use xlink:href="#DejaVuSans-5d" x="348.828125"/>
     </g>
    </g>
   </g>
   <g id="matplotlib.axis_2">
    <g id="ytick_1">
     <g id="line2d_10">
      <defs>
       <path id="mac62d9be24" d="M 0 0 
L -3.5 0 
" style="stroke: #000000; stroke-width: 0.8"/>
      </defs>
      <g>
       <use xlink:href="#mac62d9be24" x="57.6" y="280.881285" style="stroke: #000000; stroke-width: 0.8"/>
      </g>
     </g>
     <g id="text_11">
      <!-- 69.00 -->
      <g transform="translate(21.971875 284.680503) scale(0.1 -0.1)">
       <defs>
        <path id="DejaVuSans-2e" d="M 684 794 
L 1344 794 
L 1344 0 
L 684 0 
L 684 794 
z
" transform="scale(0.015625)"/>
       </defs>
       <use xlink:href="#DejaVuSans-36"/>
       <use xlink:href="#DejaVuSans-39" x="63.623047"/>
       <use xlink:href="#DejaVuSans-2e" x="127.246094"/>
       <use xlink:href="#DejaVuSans-30" x="159.033203"/>
       <use xlink:href="#DejaVuSans-30" x="222.65625"/>
      </g>
     </g>
    </g>
    <g id="ytick_2">
     <g id="line2d_11">
      <g>
       <use xlink:href="#mac62d9be24" x="57.6" y="248.499776" style="stroke: #000000; stroke-width: 0.8"/>
      </g>
     </g>
     <g id="text_12">
      <!-- 69.25 -->
      <g transform="translate(21.971875 252.298995) scale(0.1 -0.1)">
       <defs>
        <path id="DejaVuSans-32" d="M 1228 531 
L 3431 531 
L 3431 0 
L 469 0 
L 469 531 
Q 828 903 1448 1529 
Q 2069 2156 2228 2338 
Q 2531 2678 2651 2914 
Q 2772 3150 2772 3378 
Q 2772 3750 2511 3984 
Q 2250 4219 1831 4219 
Q 1534 4219 1204 4116 
Q 875 4013 500 3803 
L 500 4441 
Q 881 4594 1212 4672 
Q 1544 4750 1819 4750 
Q 2544 4750 2975 4387 
Q 3406 4025 3406 3419 
Q 3406 3131 3298 2873 
Q 3191 2616 2906 2266 
Q 2828 2175 2409 1742 
Q 1991 1309 1228 531 
z
" transform="scale(0.015625)"/>
       </defs>
       <use xlink:href="#DejaVuSans-36"/>
       <use xlink:href="#DejaVuSans-39" x="63.623047"/>
       <use xlink:href="#DejaVuSans-2e" x="127.246094"/>
       <use xlink:href="#DejaVuSans-32" x="159.033203"/>
       <use xlink:href="#DejaVuSans-35" x="222.65625"/>
      </g>
     </g>
    </g>
    <g id="ytick_3">
     <g id="line2d_12">
      <g>
       <use xlink:href="#mac62d9be24" x="57.6" y="216.118268" style="stroke: #000000; stroke-width: 0.8"/>
      </g>
     </g>
     <g id="text_13">
      <!-- 69.50 -->
      <g transform="translate(21.971875 219.917486) scale(0.1 -0.1)">
       <use xlink:href="#DejaVuSans-36"/>
       <use xlink:href="#DejaVuSans-39" x="63.623047"/>
       <use xlink:href="#DejaVuSans-2e" x="127.246094"/>
       <use xlink:href="#DejaVuSans-35" x="159.033203"/>
       <use xlink:href="#DejaVuSans-30" x="222.65625"/>
      </g>
     </g>
    </g>
    <g id="ytick_4">
     <g id="line2d_13">
      <g>
       <use xlink:href="#mac62d9be24" x="57.6" y="183.736759" style="stroke: #000000; stroke-width: 0.8"/>
      </g>
     </g>
     <g id="text_14">
      <!-- 69.75 -->
      <g transform="translate(21.971875 187.535978) scale(0.1 -0.1)">
       <use xlink:href="#DejaVuSans-36"/>
       <use xlink:href="#DejaVuSans-39" x="63.623047"/>
       <use xlink:href="#DejaVuSans-2e" x="127.246094"/>
       <use xlink:href="#DejaVuSans-37" x="159.033203"/>
       <use xlink:href="#DejaVuSans-35" x="222.65625"/>
      </g>
     </g>
    </g>
    <g id="ytick_5">
     <g id="line2d_14">
      <g>
       <use xlink:href="#mac62d9be24" x="57.6" y="151.355251" style="stroke: #000000; stroke-width: 0.8"/>
      </g>
     </g>
     <g id="text_15">
      <!-- 70.00 -->
      <g transform="translate(21.971875 155.15447) scale(0.1 -0.1)">
       <use xlink:href="#DejaVuSans-37"/>
       <use xlink:href="#DejaVuSans-30" x="63.623047"/>
       <use xlink:href="#DejaVuSans-2e" x="127.246094"/>
       <use xlink:href="#DejaVuSans-30" x="159.033203"/>
       <use xlink:href="#DejaVuSans-30" x="222.65625"/>
      </g>
     </g>
    </g>
    <g id="ytick_6">
     <g id="line2d_15">
      <g>
       <use xlink:href="#mac62d9be24" x="57.6" y="118.973742" style="stroke: #000000; stroke-width: 0.8"/>
      </g>
     </g>
     <g id="text_16">
      <!-- 70.25 -->
      <g transform="translate(21.971875 122.772961) scale(0.1 -0.1)">
       <use xlink:href="#DejaVuSans-37"/>
       <use xlink:href="#DejaVuSans-30" x="63.623047"/>
       <use xlink:href="#DejaVuSans-2e" x="127.246094"/>
       <use xlink:href="#DejaVuSans-32" x="159.033203"/>
       <use xlink:href="#DejaVuSans-35" x="222.65625"/>
      </g>
     </g>
    </g>
    <g id="ytick_7">
     <g id="line2d_16">
      <g>
       <use xlink:href="#mac62d9be24" x="57.6" y="86.592234" style="stroke: #000000; stroke-width: 0.8"/>
      </g>
     </g>
     <g id="text_17">
      <!-- 70.50 -->
      <g transform="translate(21.971875 90.391453) scale(0.1 -0.1)">
       <use xlink:href="#DejaVuSans-37"/>
       <use xlink:href="#DejaVuSans-30" x="63.623047"/>
       <use xlink:href="#DejaVuSans-2e" x="127.246094"/>
       <use xlink:href="#DejaVuSans-35" x="159.033203"/>
       <use xlink:href="#DejaVuSans-30" x="222.65625"/>
      </g>
     </g>
    </g>
    <g id="ytick_8">
     <g id="line2d_17">
      <g>
       <use xlink:href="#mac62d9be24" x="57.6" y="54.210725" style="stroke: #000000; stroke-width: 0.8"/>
      </g>
     </g>
     <g id="text_18">
      <!-- 70.75 -->
      <g transform="translate(21.971875 58.009944) scale(0.1 -0.1)">
       <use xlink:href="#DejaVuSans-37"/>
       <use xlink:href="#DejaVuSans-30" x="63.623047"/>
       <use xlink:href="#DejaVuSans-2e" x="127.246094"/>
       <use xlink:href="#DejaVuSans-37" x="159.033203"/>
       <use xlink:href="#DejaVuSans-35" x="222.65625"/>
      </g>
     </g>
    </g>
    <g id="text_19">
     <!-- $\theta$ [deg] -->
     <g transform="translate(15.871875 192.528) rotate(-90) scale(0.1 -0.1)">
      <defs>
       <path id="DejaVuSans-Oblique-3b8" d="M 2913 2219 
L 925 2219 
Q 791 1284 928 888 
Q 1100 400 1566 400 
Q 2034 400 2391 891 
Q 2703 1322 2913 2219 
z
M 3009 2750 
Q 3094 3638 2984 3950 
Q 2813 4444 2353 4444 
Q 1875 4444 1525 3956 
Q 1250 3563 1034 2750 
L 3009 2750 
z
M 2444 4913 
Q 3194 4913 3494 4250 
Q 3794 3591 3566 2422 
Q 3341 1256 2781 594 
Q 2225 -72 1475 -72 
Q 722 -72 425 594 
Q 128 1256 353 2422 
Q 581 3591 1134 4250 
Q 1691 4913 2444 4913 
z
" transform="scale(0.015625)"/>
       <path id="DejaVuSans-64" d="M 2906 2969 
L 2906 4863 
L 3481 4863 
L 3481 0 
L 2906 0 
L 2906 525 
Q 2725 213 2448 61 
Q 2172 -91 1784 -91 
Q 1150 -91 751 415 
Q 353 922 353 1747 
Q 353 2572 751 3078 
Q 1150 3584 1784 3584 
Q 2172 3584 2448 3432 
Q 2725 3281 2906 2969 
z
M 947 1747 
Q 947 1113 1208 752 
Q 1469 391 1925 391 
Q 2381 391 2643 752 
Q 2906 1113 2906 1747 
Q 2906 2381 2643 2742 
Q 2381 3103 1925 3103 
Q 1469 3103 1208 2742 
Q 947 2381 947 1747 
z
" transform="scale(0.015625)"/>
       <path id="DejaVuSans-67" d="M 2906 1791 
Q 2906 2416 2648 2759 
Q 2391 3103 1925 3103 
Q 1463 3103 1205 2759 
Q 947 2416 947 1791 
Q 947 1169 1205 825 
Q 1463 481 1925 481 
Q 2391 481 2648 825 
Q 2906 1169 2906 1791 
z
M 3481 434 
Q 3481 -459 3084 -895 
Q 2688 -1331 1869 -1331 
Q 1566 -1331 1297 -1286 
Q 1028 -1241 775 -1147 
L 775 -588 
Q 1028 -725 1275 -790 
Q 1522 -856 1778 -856 
Q 2344 -856 2625 -561 
Q 2906 -266 2906 331 
L 2906 616 
Q 2728 306 2450 153 
Q 2172 0 1784 0 
Q 1141 0 747 490 
Q 353 981 353 1791 
Q 353 2603 747 3093 
Q 1141 3584 1784 3584 
Q 2172 3584 2450 3431 
Q 2728 3278 2906 2969 
L 2906 3500 
L 3481 3500 
L 3481 434 
z
" transform="scale(0.015625)"/>
      </defs>
      <use xlink:href="#DejaVuSans-Oblique-3b8" transform="translate(0 0.234375)"/>
      <use xlink:href="#DejaVuSans-20" transform="translate(61.181641 0.234375)"/>
      <use xlink:href="#DejaVuSans-5b" transform="translate(92.96875 0.234375)"/>
      <use xlink:href="#DejaVuSans-64" transform="translate(131.982422 0.234375)"/>
      <use xlink:href="#DejaVuSans-65" transform="translate(195.458984 0.234375)"/>
      <use xlink:href="#DejaVuSans-67" transform="translate(256.982422 0.234375)"/>
      <use xlink:href="#DejaVuSans-5d" transform="translate(320.458984 0.234375)"/>
     </g>
    </g>
   </g>
   <g id="line2d_18">
    <path d="M 73.832727 192.59258 
L 73.913708 173.360863 
L 73.994697 178.031435 
L 74.156658 209.365011 
L 74.237647 207.253394 
L 74.399609 182.892102 
L 74.480598 193.486017 
L 74.642559 221.12351 
L 74.723548 217.985807 
L 74.804529 244.414107 
L 74.88551 223.502357 
L 74.966499 236.124207 
L 75.209449 177.182517 
L 75.29043 208.689728 
L 75.371411 178.440358 
L 75.452399 180.959056 
L 75.69535 188.620653 
L 75.776331 218.777492 
L 75.857319 194.980691 
L 75.9383 224.257442 
L 76.019281 204.065371 
L 76.10027 219.69743 
L 76.181251 191.154755 
L 76.262231 235.57865 
L 76.34322 206.912407 
L 76.424201 215.525127 
L 76.505182 215.68923 
L 76.586171 235.036443 
L 76.829121 167.967355 
L 76.910102 178.872954 
L 76.991083 167.613051 
L 77.072072 173.084299 
L 77.153052 169.724755 
L 77.234033 210.136439 
L 77.315022 208.021772 
L 77.476984 167.829318 
L 77.557972 172.743906 
L 77.638953 193.583057 
L 77.719934 180.999672 
L 77.881904 200.267913 
L 77.962884 194.742786 
L 78.043873 215.797859 
L 78.124854 204.204053 
L 78.205835 218.551973 
L 78.367804 165.572735 
L 78.448785 183.744257 
L 78.529774 207.53838 
L 78.610755 152.010326 
L 78.691736 157.887337 
L 78.853705 237.192692 
L 78.934694 210.869675 
L 79.015675 250.124192 
L 79.258625 155.082009 
L 79.501576 218.108482 
L 79.582557 188.262899 
L 79.663545 215.606534 
L 79.744526 167.873612 
L 79.825507 201.710986 
L 79.906496 180.143503 
L 79.987477 201.074391 
L 80.068457 185.981026 
L 80.230427 224.884167 
L 80.392397 172.913034 
L 80.635347 240.971238 
L 80.878297 167.879502 
L 80.959278 169.769207 
L 81.040259 154.83412 
L 81.202229 195.608976 
L 81.283209 190.073347 
L 81.364198 162.976931 
L 81.445179 174.165679 
L 81.607149 160.931893 
L 81.688129 209.564355 
L 81.850099 151.437094 
L 81.93108 200.977843 
L 82.012061 185.450899 
L 82.17403 223.536429 
L 82.255011 218.095774 
L 82.416981 166.901595 
L 82.497962 167.197816 
L 82.659924 205.605298 
L 82.740905 226.630704 
L 82.902875 171.166321 
L 82.983856 164.61733 
L 83.064844 170.351887 
L 83.145825 215.983142 
L 83.388776 145.805291 
L 83.469756 151.368973 
L 83.550745 168.765005 
L 83.631726 116.464305 
L 83.793696 172.613471 
L 83.874677 148.027372 
L 84.117627 198.429156 
L 84.279597 160.699403 
L 84.360577 193.294967 
L 84.441558 174.097889 
L 84.522547 176.722228 
L 84.603528 203.038709 
L 84.684509 201.198153 
L 84.846478 187.366917 
L 84.927459 191.552994 
L 85.089429 258.492882 
L 85.251398 212.533443 
L 85.41336 178.12337 
L 85.494341 219.588431 
L 85.575329 215.591455 
L 85.737291 242.693834 
L 85.81828 185.072317 
L 85.899261 200.530971 
L 85.980241 204.243375 
L 86.06123 201.159753 
L 86.142211 241.666902 
L 86.304181 196.519669 
L 86.385161 210.619077 
L 86.547131 163.845277 
L 86.709093 180.242809 
L 86.790082 205.504197 
L 86.871062 198.85763 
L 86.952043 207.286345 
L 87.033032 195.210207 
L 87.114013 224.106924 
L 87.194993 177.220878 
L 87.275982 189.433754 
L 87.356963 170.127374 
L 87.437944 204.009594 
L 87.518933 196.038641 
L 87.599914 198.871501 
L 87.680894 214.163951 
L 87.923845 164.355021 
L 88.004834 195.43061 
L 88.166795 160.286311 
L 88.409746 225.651498 
L 88.490726 151.668389 
L 88.571715 163.720581 
L 88.652696 154.175089 
L 88.733677 157.61725 
L 88.814666 163.926271 
L 88.976627 221.119833 
L 89.057616 195.336864 
L 89.138597 195.836777 
L 89.300566 156.679591 
L 89.462528 193.407066 
L 89.624498 202.910302 
L 89.786467 183.361125 
L 89.867448 159.382398 
L 89.948429 194.443949 
L 90.029418 159.978813 
L 90.110398 162.540159 
L 90.191379 206.318622 
L 90.27236 195.009571 
L 90.353349 223.53299 
L 90.43433 188.821823 
L 90.51531 213.282014 
L 90.758261 169.22358 
L 90.83925 186.208108 
L 90.92023 176.2447 
L 91.163181 208.789157 
L 91.325151 166.865289 
L 91.406131 197.808168 
L 91.487112 190.805554 
L 91.568101 209.104619 
L 91.649082 202.132869 
L 91.730062 215.806891 
L 91.811043 213.484799 
L 91.973012 200.400007 
L 92.053992 160.955871 
L 92.134981 189.752634 
L 92.215962 173.954744 
L 92.296943 192.838454 
L 92.377932 175.751198 
L 92.458912 188.295703 
L 92.539893 170.425022 
L 92.620882 214.675444 
L 92.782844 142.199707 
L 92.863832 143.524563 
L 92.944813 171.613241 
L 93.025794 144.738705 
L 93.106783 152.241643 
L 93.268744 198.424982 
L 93.349725 179.916269 
L 93.430714 192.715282 
L 93.511695 153.353651 
L 93.592676 156.297618 
L 93.754645 204.222116 
L 93.916615 185.292822 
L 93.997596 197.3123 
L 94.078576 235.906906 
L 94.240546 183.794507 
L 94.483496 230.170013 
L 94.564477 218.387888 
L 94.645458 229.748661 
L 94.888408 186.042335 
L 95.050378 197.042304 
L 95.131359 218.217007 
L 95.293328 181.226556 
L 95.455298 229.465338 
L 95.536279 217.525377 
L 95.61726 219.818331 
L 95.69824 215.562728 
L 95.86021 184.401367 
L 96.02218 208.250362 
L 96.184141 194.161844 
L 96.346111 205.517925 
L 96.508081 212.85746 
L 96.589061 223.311551 
L 96.670042 220.847158 
L 96.751023 223.552173 
L 96.912992 197.58015 
L 96.993973 198.873801 
L 97.074962 201.173227 
L 97.155943 195.869272 
L 97.236924 210.920878 
L 97.317913 193.711224 
L 97.398893 212.208309 
L 97.560855 164.373193 
L 97.641844 175.492796 
L 97.722825 171.975796 
L 97.884794 193.424266 
L 97.965775 187.221121 
L 98.046756 186.078002 
L 98.127745 153.080004 
L 98.208725 196.343148 
L 98.289706 140.10616 
L 98.370695 158.863796 
L 98.532657 161.246996 
L 98.613637 171.697447 
L 98.694626 140.16544 
L 98.775607 141.837952 
L 98.856588 139.214376 
L 99.099538 230.088222 
L 99.342489 159.138774 
L 99.66642 216.45948 
L 99.90937 176.363957 
L 100.07134 219.650084 
L 100.152321 205.816139 
L 100.233301 215.236767 
L 100.31429 214.476385 
L 100.395271 212.774662 
L 100.476252 238.070059 
L 100.557241 219.581241 
L 100.638221 221.483993 
L 100.881172 256.414502 
L 101.043137 207.508821 
L 101.124126 222.230331 
L 101.286088 173.44495 
L 101.367077 202.103771 
L 101.448057 151.594602 
L 101.529038 161.455118 
L 101.771989 191.690793 
L 101.852969 175.475821 
L 101.933958 186.798424 
L 102.09592 176.061386 
L 102.257889 138.262706 
L 102.33887 209.586324 
L 102.50084 148.46838 
L 102.581821 192.241535 
L 102.662801 180.31756 
L 102.74379 179.644872 
L 102.824771 208.570969 
L 102.986741 146.810087 
L 103.067722 165.776467 
L 103.229683 197.774007 
L 103.310672 171.973264 
L 103.391653 191.299696 
L 103.553622 166.943869 
L 103.634603 178.047571 
L 103.796565 205.043985 
L 103.877554 206.201178 
L 103.958534 203.017852 
L 104.039515 193.638316 
L 104.201485 160.993928 
L 104.282465 159.981052 
L 104.363454 165.362248 
L 104.606397 215.225261 
L 104.768366 172.446752 
L 104.930336 241.032323 
L 105.092297 159.761152 
L 105.173278 205.037672 
L 105.254267 169.083817 
L 105.335248 176.607867 
L 105.416229 167.1994 
L 105.578198 211.793842 
L 105.659179 216.434714 
L 105.902129 167.538585 
L 105.98311 220.308291 
L 106.064099 202.879836 
L 106.226061 171.023106 
L 106.30705 179.86949 
L 106.38803 216.190273 
L 106.469011 164.57664 
L 106.549992 169.094794 
L 106.630981 179.102 
L 106.711962 158.832273 
L 106.792942 183.997857 
L 106.873931 145.009323 
L 107.035893 200.635731 
L 107.197862 226.955868 
L 107.278843 215.657443 
L 107.359824 254.724433 
L 107.440813 201.964785 
L 107.602774 242.296401 
L 107.845725 188.3967 
L 108.088675 226.120092 
L 108.250637 194.905632 
L 108.331626 198.903115 
L 108.493587 175.512334 
L 108.574576 193.855982 
L 108.655557 184.582757 
L 108.817518 193.668124 
L 108.898507 214.595828 
L 109.060469 135.286087 
L 109.303419 197.468429 
L 109.3844 147.768743 
L 109.465389 157.689234 
L 109.54637 205.425808 
L 109.62735 163.17272 
L 109.708339 177.389988 
L 109.78932 205.725133 
L 109.870301 200.264381 
L 109.951281 195.05601 
L 110.03227 239.757305 
L 110.194232 203.610005 
L 110.680132 151.2533 
L 110.923082 206.511902 
L 111.004063 194.451089 
L 111.085044 201.726067 
L 111.247014 183.628048 
L 111.327994 199.503459 
L 111.408975 164.745042 
L 111.489964 168.087813 
L 111.570945 208.35557 
L 111.813895 144.292858 
L 112.056846 197.738894 
L 112.137826 170.749156 
L 112.299788 193.337301 
L 112.380777 192.53986 
L 112.461758 201.857707 
L 112.623727 156.856984 
L 112.86667 232.965904 
L 113.028639 173.687284 
L 113.10962 202.694355 
L 113.190609 191.554846 
L 113.27159 193.151973 
L 113.433551 200.297278 
L 113.51454 200.305775 
L 113.595521 169.041501 
L 113.676502 200.341908 
L 113.838471 182.743932 
L 113.919452 197.95719 
L 114.000433 177.67812 
L 114.081422 196.223196 
L 114.405353 159.453638 
L 114.486334 210.806851 
L 114.648295 181.127664 
L 114.729284 175.691793 
L 114.810265 162.034058 
L 114.891246 183.027814 
L 115.053215 158.885667 
L 115.134196 186.618706 
L 115.215177 174.707749 
L 115.296166 178.18065 
L 115.377146 199.845079 
L 115.458127 134.125978 
L 115.539108 148.008558 
L 115.782058 116.603168 
L 115.863047 147.36033 
L 116.025009 111.028134 
L 116.267959 169.537674 
L 116.34894 178.803635 
L 116.672871 96.76584 
L 116.834841 140.545494 
L 116.996802 121.365538 
L 117.158772 174.509698 
L 117.482703 111.687021 
L 117.563684 114.027722 
L 117.644665 150.828273 
L 117.725654 149.841822 
L 117.806634 155.606434 
L 117.887615 153.071372 
L 117.968604 157.993926 
L 118.049585 183.567003 
L 118.130565 144.124968 
L 118.211546 153.407825 
L 118.292535 161.192443 
L 118.373516 122.335581 
L 118.616466 205.617744 
L 118.697447 197.315002 
L 118.778428 198.160014 
L 118.859409 207.916169 
L 118.940398 237.121376 
L 119.183348 197.831332 
L 119.264329 207.506076 
L 119.42629 187.195761 
L 119.58826 185.255924 
L 119.83121 236.5693 
L 119.993171 179.973901 
L 120.155141 212.883401 
L 120.236122 227.985588 
L 120.317103 216.052278 
L 120.398083 241.041984 
L 120.479072 208.192111 
L 120.560053 252.025528 
L 120.641034 198.700751 
L 120.803004 230.728621 
L 120.883984 198.22469 
L 120.964965 206.496474 
L 121.045954 198.016118 
L 121.126935 175.225504 
L 121.207915 221.277657 
L 121.288896 176.758973 
L 121.369885 178.493675 
L 121.450866 173.461138 
L 121.693816 215.546906 
L 121.774797 207.316369 
L 121.855778 186.430072 
L 122.017747 234.306002 
L 122.179709 226.77432 
L 122.422659 165.091458 
L 122.66561 222.013781 
L 122.746591 183.058669 
L 122.827571 202.531376 
L 122.989541 139.148455 
L 123.232491 223.965611 
L 123.313472 180.813173 
L 123.394453 191.432696 
L 123.475434 165.003397 
L 123.556423 168.550503 
L 123.637403 207.910805 
L 123.799365 177.61529 
L 123.961335 227.565819 
L 124.042315 211.27185 
L 124.204285 219.115761 
L 124.285266 221.132897 
L 124.366247 255.361895 
L 124.447227 214.62065 
L 124.528216 220.346692 
L 124.609197 198.82266 
L 124.690178 202.152758 
L 124.771167 194.41168 
L 124.852147 217.796889 
L 124.933128 209.710028 
L 125.014109 208.548368 
L 125.176079 177.326057 
L 125.33804 156.989797 
L 125.661971 233.097085 
L 125.74296 218.613372 
L 125.823941 226.88435 
L 125.904922 179.593923 
L 125.985902 192.503537 
L 126.066891 189.693925 
L 126.228853 250.188613 
L 126.309834 243.928239 
L 126.390822 190.152227 
L 126.471803 211.621249 
L 126.552784 172.302504 
L 126.633765 192.914412 
L 126.714754 170.765714 
L 127.038685 210.960586 
L 127.200646 162.059295 
L 127.362616 193.937821 
L 127.524578 180.667255 
L 127.686547 227.041579 
L 127.92949 175.595409 
L 128.091459 202.769102 
L 128.17244 186.12402 
L 128.253421 188.722663 
L 128.33441 186.753741 
L 128.41539 163.519691 
L 128.73932 220.936513 
L 128.901281 198.430743 
L 128.98227 219.237801 
L 129.063251 208.63526 
L 129.225213 173.896347 
L 129.387182 199.428266 
L 129.549144 151.458361 
L 129.630133 184.887982 
L 129.711113 175.984811 
L 129.792094 168.370738 
L 129.873075 202.554095 
L 129.954064 195.636283 
L 130.035045 208.347287 
L 130.277995 168.234155 
L 130.358976 175.734877 
L 130.520937 209.940057 
L 130.601918 202.560745 
L 130.844868 155.479213 
L 130.925857 143.481291 
L 131.087819 166.044386 
L 131.1688 107.785181 
L 131.24978 147.418724 
L 131.330769 92.377867 
L 131.41175 92.855663 
L 131.735681 162.489252 
L 131.816662 175.010493 
L 131.897643 147.370963 
L 132.059612 176.803006 
L 132.221574 135.968326 
L 132.383544 169.735242 
L 132.545505 114.705923 
L 132.626494 118.280645 
L 132.707475 127.540348 
L 132.788456 161.918235 
L 132.869436 152.802338 
L 133.112387 205.07166 
L 133.193367 203.320764 
L 133.274356 174.674012 
L 133.355337 184.241532 
L 133.436318 161.924809 
L 133.598279 181.235793 
L 133.679268 165.701927 
L 133.84123 174.315889 
L 133.922211 158.995328 
L 134.0032 165.471896 
L 134.08418 127.031651 
L 134.246142 203.562873 
L 134.327131 200.422902 
L 134.570073 137.170028 
L 134.732043 204.769134 
L 134.813023 131.726869 
L 134.894004 138.524209 
L 134.974993 158.539084 
L 135.055974 156.759614 
L 135.136955 155.617976 
L 135.217935 129.802572 
L 135.298916 132.369321 
L 135.460886 153.401528 
L 135.541867 143.479075 
L 135.703836 186.798174 
L 135.784817 166.039984 
L 135.865798 217.967453 
L 136.027767 166.622514 
L 136.189729 195.698266 
L 136.351699 231.872244 
L 136.51366 153.817189 
L 136.594641 159.313525 
L 136.75661 138.287541 
L 136.837591 134.277542 
L 136.918572 142.555482 
L 137.080542 189.26865 
L 137.161522 169.87618 
L 137.242503 170.171923 
L 137.323484 172.579957 
L 137.404473 195.935336 
L 137.485454 168.474557 
L 137.566434 170.940807 
L 137.647415 186.398718 
L 137.728396 178.852008 
L 137.809385 192.265351 
L 137.971349 165.024831 
L 138.05233 137.123077 
L 138.133319 197.504037 
L 138.2143 183.239492 
L 138.295281 215.75383 
L 138.376261 205.644924 
L 138.45725 200.940845 
L 138.619212 171.951178 
L 138.700192 178.770736 
L 138.781173 168.407437 
L 138.862162 182.178618 
L 138.943143 180.134177 
L 139.105104 148.790509 
L 139.186093 163.01306 
L 139.348055 218.868357 
L 139.510024 170.42119 
L 139.752967 247.16465 
L 139.914936 167.370152 
L 139.995917 175.861232 
L 140.076898 199.775332 
L 140.238868 135.356161 
L 140.64378 211.870361 
L 140.72476 207.70354 
L 140.805741 231.276231 
L 140.886722 199.039223 
L 140.967711 205.82852 
L 141.048692 188.708311 
L 141.129672 189.252514 
L 141.210653 187.88221 
L 141.291642 170.000224 
L 141.453603 199.612427 
L 141.534584 182.363518 
L 141.615573 186.900676 
L 141.696554 210.58492 
L 141.777535 164.500022 
L 141.858515 200.90256 
L 141.939496 194.920877 
L 142.020485 154.371235 
L 142.182447 203.195302 
L 142.263427 202.307634 
L 142.344408 195.044692 
L 142.425397 203.959478 
L 142.506378 170.849498 
L 142.587359 171.793306 
L 142.668339 196.568671 
L 142.830309 157.33221 
L 142.99227 199.891725 
L 143.073259 167.100065 
L 143.235221 202.574158 
L 143.316202 195.370575 
L 143.478171 206.367617 
L 143.640133 158.806905 
L 143.721114 184.485268 
L 143.802103 182.095442 
L 143.883083 156.959501 
L 144.045045 188.759632 
L 144.126026 157.607389 
L 144.207014 168.023618 
L 144.287995 200.441842 
L 144.368976 200.283027 
L 144.449957 153.946752 
L 144.530946 161.137357 
L 144.611926 209.386494 
L 144.692907 161.687101 
L 144.773888 167.167784 
L 144.935858 133.144944 
L 145.1788 200.636072 
L 145.259789 192.929632 
L 145.34077 218.269668 
L 145.502731 196.951642 
L 145.583712 215.243787 
L 145.664701 175.101885 
L 145.826662 227.628223 
L 146.069613 199.616354 
L 146.231574 236.766501 
L 146.474525 176.28446 
L 146.636486 245.118263 
L 146.717467 244.640132 
L 146.798456 235.532412 
L 146.879437 246.249119 
L 147.041406 295.488 
L 147.122395 237.918507 
L 147.203376 240.736074 
L 147.365337 271.284876 
L 147.608287 209.663914 
L 147.689268 201.703626 
L 147.85123 227.512996 
L 147.932219 262.178833 
L 148.09418 226.877518 
L 148.175161 272.000454 
L 148.25615 259.363743 
L 148.418111 227.250819 
L 148.499092 245.541355 
L 148.742043 212.492711 
L 148.823023 197.593106 
L 148.984985 237.842531 
L 149.065974 214.4933 
L 149.146955 225.128075 
L 149.308916 189.145572 
L 149.470886 229.608194 
L 149.551866 194.516047 
L 149.713828 242.544968 
L 149.794817 233.468205 
L 149.956778 205.639433 
L 150.037759 237.68532 
L 150.11874 190.059821 
L 150.36169 231.867159 
L 150.442671 206.80091 
L 150.523652 212.743258 
L 150.604641 232.888086 
L 150.685622 215.35681 
L 150.766602 231.70125 
L 150.847583 197.07244 
L 151.009553 229.299429 
L 151.171514 231.342554 
L 151.252495 178.227259 
L 151.333484 204.910096 
L 151.414465 184.675747 
L 151.495445 229.28276 
L 151.576426 188.540868 
L 151.657407 201.252509 
L 151.738396 216.519192 
L 151.819377 201.444088 
L 151.900357 203.165754 
L 151.981338 273.247901 
L 152.062319 249.735303 
L 152.143308 218.401781 
L 152.224289 254.666131 
L 152.305269 203.62585 
L 152.38625 204.432541 
L 152.467231 197.08843 
L 152.629201 221.519161 
L 152.710181 196.601036 
L 152.791162 225.983053 
L 152.953132 200.413895 
L 153.034112 225.174859 
L 153.115093 193.945185 
L 153.196074 221.701769 
L 153.277063 211.711491 
L 153.358044 223.395404 
L 153.520005 203.751747 
L 153.600986 216.531456 
L 153.681975 214.12286 
L 153.843936 200.321669 
L 153.924917 200.660685 
L 154.005898 204.146089 
L 154.167868 167.205483 
L 154.41081 201.573903 
L 154.491799 207.855753 
L 154.572779 189.131392 
L 154.815722 230.168192 
L 154.977691 188.818333 
L 155.139653 201.583411 
L 155.220634 196.45767 
L 155.301623 200.771353 
L 155.463584 186.692733 
L 155.544565 192.324922 
L 155.625546 208.424506 
L 155.706535 194.439844 
L 155.868496 155.632397 
L 155.949477 143.66665 
L 156.030458 145.151633 
L 156.111447 170.676474 
L 156.192427 159.361123 
L 156.273402 131.648396 
L 156.354383 159.124347 
L 156.516352 135.998658 
L 156.597333 142.325515 
L 156.678314 157.993926 
L 156.759295 126.933014 
L 156.840275 133.093521 
L 157.164207 195.803511 
L 157.245187 196.121224 
L 157.326176 184.138036 
L 157.407157 139.539897 
L 157.569119 170.008252 
L 157.650099 166.896913 
L 157.731088 189.490597 
L 157.812069 165.080209 
L 157.89305 166.653094 
L 158.055011 138.438396 
L 158.136 147.011301 
L 158.297962 183.546056 
L 158.540912 157.857011 
L 158.621893 165.587185 
L 158.702874 214.992949 
L 158.864835 175.779523 
L 158.945816 194.909655 
L 159.269747 112.893864 
L 159.350728 125.884754 
L 159.512698 205.472959 
L 159.593678 187.91336 
L 159.674659 189.880307 
L 159.836629 181.955582 
L 159.99859 159.246153 
L 160.079571 197.349194 
L 160.160552 182.31589 
L 160.241541 197.302437 
L 160.403502 172.830738 
L 160.727433 206.87491 
L 160.808414 182.353494 
L 160.889395 225.701571 
L 160.970376 196.021535 
L 161.051365 210.765668 
L 161.132345 194.479307 
L 161.213326 228.671698 
L 161.294307 227.343488 
L 161.537257 161.695385 
L 161.618238 192.260439 
L 161.699219 181.000826 
L 161.7802 151.859474 
L 162.104131 192.441728 
L 162.185112 229.158508 
L 162.266092 226.341199 
L 162.428062 153.781379 
L 162.590023 176.952428 
L 162.671004 176.648336 
L 162.751985 159.116352 
L 162.832974 186.994886 
L 162.994935 135.918296 
L 163.075916 141.398587 
L 163.156897 169.373156 
L 163.237886 117.940077 
L 163.318867 147.917199 
L 163.399847 128.175107 
L 163.480828 180.788236 
L 163.561809 165.763607 
L 163.642798 169.66284 
L 163.723779 164.18608 
L 163.88574 200.039868 
L 164.047702 193.255992 
L 164.12869 145.953866 
L 164.290652 220.260117 
L 164.371633 211.895904 
L 164.533602 161.557921 
L 164.776545 215.868132 
L 164.857526 154.77575 
L 164.938514 161.431006 
L 165.100476 193.798771 
L 165.181457 187.882878 
L 165.262437 173.484892 
L 165.343418 191.111425 
L 165.505384 268.081993 
L 165.667346 203.285425 
L 165.748326 195.717335 
L 165.910296 149.871076 
L 165.991277 148.766279 
L 166.072258 150.243089 
L 166.153238 234.327158 
L 166.315208 176.155054 
L 166.396189 156.579384 
L 166.47717 176.483217 
L 166.55815 159.862444 
L 166.801101 212.101993 
L 166.882082 163.165919 
L 166.963062 173.431849 
L 167.044043 173.427972 
L 167.125024 168.800886 
L 167.206013 184.742834 
L 167.286993 169.340438 
L 167.448955 122.619717 
L 167.529936 129.063471 
L 167.691905 195.295975 
L 167.772886 122.228465 
L 167.853867 125.724151 
L 168.015828 192.40771 
L 168.096817 151.221247 
L 168.177798 181.832528 
L 168.33976 141.377972 
L 168.42074 147.978952 
L 168.501729 184.491747 
L 168.663691 116.756917 
L 168.825652 163.603324 
L 168.906633 150.998714 
L 169.068603 132.558664 
L 169.149584 145.187344 
L 169.230564 144.06358 
L 169.311545 142.084512 
L 169.392534 151.162516 
L 169.554495 114.502151 
L 169.635476 139.878838 
L 169.716457 112.88005 
L 169.797438 159.249122 
L 169.878427 155.232529 
L 169.959407 173.556743 
L 170.20235 103.371391 
L 170.28333 132.347558 
L 170.364319 126.721119 
L 170.4453 150.338405 
L 170.526281 123.467412 
L 170.607262 175.709308 
L 170.688242 146.374347 
L 170.769223 161.684345 
L 170.850212 142.73033 
L 170.931193 165.049782 
L 171.012174 161.737804 
L 171.093154 162.754805 
L 171.174135 154.244311 
L 171.255124 176.303671 
L 171.336105 174.437761 
L 171.579047 122.835684 
L 171.660028 126.010852 
L 171.741017 134.726552 
L 171.821998 126.692128 
L 172.145921 181.295816 
L 172.226909 174.754557 
L 172.30789 140.670022 
L 172.388871 141.137527 
L 172.469852 135.344322 
L 172.550833 116.951217 
L 172.631813 148.007058 
L 172.712802 138.745802 
L 172.955744 187.04744 
L 173.036725 189.302769 
L 173.360656 156.917879 
L 173.603607 209.446987 
L 173.684588 178.938646 
L 173.846549 208.125969 
L 174.251461 143.322035 
L 174.332442 160.839545 
L 174.494403 140.420894 
L 174.656373 176.334503 
L 174.818334 196.912925 
L 174.899315 195.699802 
L 174.980296 158.78783 
L 175.142265 214.426582 
L 175.223246 187.086733 
L 175.304227 193.57938 
L 175.547177 147.384973 
L 175.628158 184.977981 
L 175.709139 166.149332 
L 175.79012 180.881797 
L 175.8711 166.673531 
L 175.952081 224.608682 
L 176.03307 223.096006 
L 176.114051 221.676304 
L 176.195032 251.67405 
L 176.356993 160.325523 
L 176.437974 172.54058 
L 176.518963 156.694272 
L 176.680924 175.065494 
L 176.761905 173.401535 
L 176.842886 156.678906 
L 177.085836 213.955846 
L 177.247798 184.534799 
L 177.328779 189.135673 
L 177.409759 184.94446 
L 177.490748 150.809773 
L 177.571729 189.195351 
L 177.65271 184.569744 
L 177.733691 203.421663 
L 177.895652 161.785572 
L 178.219583 215.181531 
L 178.381545 156.598651 
L 178.462526 150.888386 
L 178.543514 157.707266 
L 178.624495 156.927246 
L 178.705476 159.457175 
L 178.786457 167.478105 
L 178.867437 197.507301 
L 178.948418 174.83375 
L 179.191369 205.635038 
L 179.35333 206.076785 
L 179.434311 201.606184 
L 179.5153 162.187508 
L 179.677261 185.239649 
L 179.758242 144.203879 
L 179.839223 157.065305 
L 180.001193 131.379144 
L 180.163154 145.635773 
L 180.244135 135.979094 
L 180.406096 168.516708 
L 180.568066 157.224337 
L 180.730028 183.418455 
L 180.811008 168.763473 
L 180.891989 169.931837 
L 180.97297 181.405984 
L 181.053959 140.247469 
L 181.13494 140.305789 
L 181.21592 131.26929 
L 181.296901 154.887943 
L 181.377882 129.841031 
L 181.458863 134.905534 
L 181.620832 167.296115 
L 181.701813 163.944144 
L 181.944755 117.029385 
L 182.106725 164.717025 
L 182.268686 146.068499 
L 182.349667 151.880833 
L 182.430648 178.89508 
L 182.592618 131.764206 
L 182.754579 163.727207 
L 182.83556 136.828902 
L 182.916541 164.809874 
L 182.997521 162.905099 
L 183.159491 124.126189 
L 183.321453 159.479368 
L 183.483414 141.185307 
L 183.645384 183.909159 
L 183.726365 181.715311 
L 183.888326 158.371365 
L 184.050288 197.408787 
L 184.131268 146.29579 
L 184.212257 166.923305 
L 184.293238 143.284341 
L 184.374219 144.276269 
L 184.4552 182.977482 
L 184.617161 125.14738 
L 184.779131 186.468189 
L 184.860112 176.52602 
L 184.941092 176.709111 
L 185.022073 212.431097 
L 185.103054 168.96713 
L 185.184035 193.637565 
L 185.265024 177.971129 
L 185.346004 180.114042 
L 185.426985 170.36457 
L 185.507966 179.852664 
L 185.588947 163.755642 
L 185.669927 186.250117 
L 185.750908 153.891877 
L 185.831897 157.75728 
L 185.912878 140.994851 
L 185.993859 202.545426 
L 186.074839 174.67897 
L 186.15582 188.768831 
L 186.236801 181.844393 
L 186.317782 203.867215 
L 186.39877 173.45416 
L 186.479751 184.90221 
L 186.560732 160.116196 
L 186.641713 175.118697 
L 186.722694 160.39073 
L 186.803674 163.484574 
L 186.884663 161.676324 
L 187.046625 123.196513 
L 187.127605 127.785534 
L 187.289567 162.462326 
L 187.370548 147.978685 
L 187.451537 159.789297 
L 187.532517 157.690588 
L 187.613498 139.374188 
L 187.694479 145.014852 
L 187.77546 156.637786 
L 187.856441 186.580977 
L 188.01841 151.844959 
L 188.099391 151.744175 
L 188.180372 145.358841 
L 188.261352 172.64245 
L 188.342333 142.008325 
L 188.423314 144.373473 
L 188.504295 189.091311 
L 188.585284 145.235199 
L 188.909207 197.737936 
L 189.152157 151.437265 
L 189.233138 151.910642 
L 189.314119 158.06345 
L 189.47608 112.987201 
L 189.557061 145.069691 
L 189.638042 143.941409 
L 189.719031 138.035916 
L 189.800011 118.459413 
L 189.880992 152.21784 
L 190.042954 127.906147 
L 190.123934 154.061438 
L 190.204915 128.279222 
L 190.285904 151.396528 
L 190.528846 109.150504 
L 190.690808 148.297429 
L 190.771789 142.491596 
L 190.933758 125.190867 
L 191.09572 145.255525 
L 191.176701 113.421367 
L 191.419651 172.225565 
L 191.500632 170.16624 
L 191.581613 196.33067 
L 191.662593 188.245161 
L 191.905536 138.171015 
L 191.986525 148.195305 
L 192.067505 142.02969 
L 192.148486 153.459975 
L 192.310448 130.923262 
L 192.391428 96.337053 
L 192.472409 102.634842 
L 192.553398 94.90755 
L 192.634379 120.126538 
L 192.71536 116.534509 
L 192.958302 150.133439 
L 193.039283 86.078176 
L 193.120268 87.479019 
L 193.201257 111.277609 
L 193.282238 94.259001 
L 193.4442 148.942349 
L 193.52518 152.642375 
L 193.606161 176.162772 
L 193.768131 128.762895 
L 193.930092 149.534347 
L 194.011073 140.581979 
L 194.092054 148.842408 
L 194.173035 143.720801 
L 194.335004 101.93348 
L 194.577947 199.136104 
L 194.739908 161.674597 
L 194.820889 165.952574 
L 195.063839 129.170825 
L 195.306782 174.168022 
L 195.387762 149.978634 
L 195.549732 184.445066 
L 195.711694 152.288352 
L 195.792674 165.307041 
L 195.954636 131.533176 
L 196.035617 194.197261 
L 196.116597 174.542209 
L 196.197586 148.634499 
L 196.359548 171.749953 
L 196.440529 159.265566 
L 196.521509 161.018133 
L 196.60249 215.768642 
L 196.683471 202.633201 
L 196.76446 201.618747 
L 196.926421 163.692505 
L 197.088383 216.341668 
L 197.169364 217.373098 
L 197.250344 212.48491 
L 197.331325 180.349858 
L 197.412314 209.003744 
L 197.574276 153.566682 
L 197.655256 170.789184 
L 197.736237 162.808504 
L 197.817218 126.585593 
L 197.898199 131.66917 
L 198.141149 213.850919 
L 198.22213 214.627283 
L 198.384091 183.56209 
L 198.546053 226.754686 
L 198.708022 163.396434 
L 198.789003 163.845039 
L 198.950965 228.251253 
L 199.031946 199.959342 
L 199.355877 259.394739 
L 199.598819 214.817595 
L 199.6798 231.631446 
L 199.760781 271.815401 
L 199.841769 229.564081 
L 199.92275 238.934696 
L 200.246673 168.583675 
L 200.327654 171.402041 
L 200.489616 185.191502 
L 200.651585 259.900351 
L 200.894528 202.116764 
L 200.975508 230.191388 
L 201.056489 201.680695 
L 201.137478 225.390988 
L 201.218459 195.240078 
L 201.299439 205.343532 
L 201.38042 206.636346 
L 201.461401 210.114342 
L 201.623363 163.782211 
L 201.704343 167.499306 
L 201.785324 137.089822 
L 201.866313 138.396369 
L 201.947294 190.473573 
L 202.028274 185.113641 
L 202.109255 196.51126 
L 202.190236 192.990584 
L 202.433174 165.104257 
L 202.595144 189.678008 
L 202.676125 148.820091 
L 202.757105 159.641193 
L 202.838086 174.269757 
L 202.919067 214.637664 
L 203.000048 187.793776 
L 203.081028 190.301056 
L 203.162017 191.990184 
L 203.323979 159.060628 
L 203.40496 190.202242 
L 203.566921 142.248936 
L 203.647902 148.135644 
L 203.809872 187.517165 
L 203.971833 150.073164 
L 204.133795 195.660851 
L 204.214775 166.886602 
L 204.295756 209.093003 
L 204.376737 186.246612 
L 204.457726 189.741302 
L 204.538707 180.13851 
L 204.619687 221.563282 
L 204.781649 156.335467 
L 204.94361 205.934806 
L 205.024591 174.38758 
L 205.105572 206.436784 
L 205.186561 196.506313 
L 205.267542 171.941955 
L 205.348522 183.971425 
L 205.672445 160.795077 
L 205.915396 205.325338 
L 205.996377 199.584704 
L 206.077357 196.390477 
L 206.158338 164.627772 
L 206.239319 202.377687 
L 206.40128 161.039143 
L 206.482261 153.365003 
L 206.644231 192.90607 
L 206.725212 191.183566 
L 206.887173 152.529469 
L 207.130115 174.384694 
L 207.211104 198.744314 
L 207.454047 143.145909 
L 207.616008 191.509689 
L 207.696989 182.220576 
L 207.939939 258.27125 
L 208.02092 202.596788 
L 208.101901 210.111114 
L 208.263862 197.956486 
L 208.344843 237.166203 
L 208.425824 207.850055 
L 208.506805 209.75093 
L 208.587786 197.068572 
L 208.668774 198.740418 
L 208.749755 209.298201 
L 208.911717 181.649231 
L 208.992697 200.399372 
L 209.073678 182.134006 
L 209.154659 188.95565 
L 209.23564 206.728256 
L 209.316629 198.577741 
L 209.397609 203.537409 
L 209.47859 184.198007 
L 209.559571 201.082601 
L 209.721532 172.500709 
L 209.802513 192.447333 
L 209.883494 184.164845 
L 209.964475 220.562139 
L 210.045464 218.58081 
L 210.126444 214.469549 
L 210.288406 151.886088 
L 210.369387 173.366744 
L 210.450367 156.838341 
L 210.531348 179.200066 
L 210.612329 168.691916 
L 210.69331 188.587965 
L 210.855279 153.743526 
L 211.098222 177.756423 
L 211.341164 157.44103 
L 211.422145 172.988537 
L 211.503131 149.04227 
L 211.584112 191.259994 
L 211.665092 130.915418 
L 211.746073 157.262263 
L 211.827054 119.244769 
L 212.069996 169.696336 
L 212.150977 165.560223 
L 212.231966 167.8727 
L 212.312947 155.937338 
L 212.474908 169.425589 
L 212.555889 152.869893 
L 212.63687 160.29185 
L 212.717851 159.115379 
L 212.798831 147.723501 
L 212.879812 152.376503 
L 212.960793 196.397098 
L 213.122762 153.631889 
L 213.203743 166.939475 
L 213.284724 163.91167 
L 213.365705 164.352494 
L 213.446686 167.701287 
L 213.527666 149.229636 
L 213.689628 209.182035 
L 213.770617 179.217216 
L 213.851597 190.461303 
L 213.932578 186.343518 
L 214.013559 173.663193 
L 214.175521 221.358677 
L 214.256501 215.61946 
L 214.337482 230.60894 
L 214.418463 212.838237 
L 214.499444 216.941092 
L 214.580432 220.844852 
L 214.742394 185.17118 
L 214.904356 204.781546 
L 215.066317 167.584003 
L 215.147298 199.455717 
L 215.309259 176.223888 
L 215.471229 199.020885 
L 215.55221 188.339953 
L 215.633191 147.072659 
L 215.714171 192.899969 
L 215.876133 157.319516 
L 216.038094 206.110284 
L 216.119083 173.249023 
L 216.281045 211.7357 
L 216.362026 203.910422 
L 216.523987 165.119932 
L 216.604968 183.272157 
L 216.685949 173.962321 
L 216.766929 182.175674 
L 216.928899 150.935801 
L 217.00988 174.758062 
L 217.090861 159.070646 
L 217.171841 163.855049 
L 217.414784 176.147072 
L 217.495764 142.972031 
L 217.576745 153.766285 
L 217.738707 207.179275 
L 217.981657 113.000529 
L 218.224599 200.667689 
L 218.30558 213.823777 
L 218.386561 179.812216 
L 218.467542 190.351112 
L 218.548522 162.066063 
L 218.629511 168.453649 
L 218.710492 212.841447 
L 218.791473 150.51224 
L 218.872454 207.225761 
L 219.034415 166.232361 
L 219.196377 198.924589 
L 219.277357 163.200108 
L 219.358338 193.326913 
L 219.439327 164.610558 
L 219.601289 205.954444 
L 219.682269 178.356173 
L 219.76325 184.711792 
L 219.844231 190.875506 
L 220.087173 166.673834 
L 220.168154 207.325045 
L 220.330124 151.359609 
L 220.411104 158.723575 
L 220.654047 235.814506 
L 220.735034 237.985167 
L 220.816015 184.366405 
L 220.896996 197.52366 
L 220.977977 180.576533 
L 221.058957 181.815663 
L 221.301908 214.164094 
L 221.382889 226.045163 
L 221.868773 179.721673 
L 222.030743 212.816441 
L 222.192704 164.712546 
L 222.273685 208.1635 
L 222.354666 205.278551 
L 222.435647 180.077102 
L 222.516627 188.445344 
L 222.597608 234.535722 
L 222.84055 174.166971 
L 222.921539 198.547331 
L 223.00252 187.960386 
L 223.245462 217.108544 
L 223.326443 212.504247 
L 223.650366 124.196835 
L 223.893317 164.498599 
L 223.974297 174.158642 
L 224.055278 143.713816 
L 224.136259 146.233881 
L 224.21724 144.422492 
L 224.379201 102.69205 
L 224.622144 158.773005 
L 224.703132 148.056784 
L 224.865094 182.247357 
L 225.027055 143.705608 
L 225.431959 224.373641 
L 225.51294 172.791408 
L 225.67491 204.382765 
L 225.755891 212.470937 
L 226.160794 143.032139 
L 226.241775 145.466338 
L 226.403737 153.46515 
L 226.484717 201.195487 
L 226.565706 198.644379 
L 226.646687 125.889987 
L 226.808649 200.030149 
L 227.051591 125.320322 
L 227.213552 150.607928 
L 227.294533 163.647863 
L 227.456495 116.713752 
L 227.537484 161.722434 
L 227.618464 105.677043 
L 227.699445 112.849464 
L 227.861407 152.501322 
L 227.942387 145.20518 
L 228.023368 162.04262 
L 228.104349 118.837836 
L 228.18533 127.354174 
L 228.26631 137.068427 
L 228.347291 99.530473 
L 228.590242 153.771126 
L 228.671222 117.984282 
L 228.833184 149.926275 
L 228.995145 144.866631 
L 229.076126 137.823942 
L 229.157107 110.433203 
L 229.238088 156.45062 
L 229.319069 154.99567 
L 229.481038 120.340461 
L 229.804961 185.515303 
L 229.885941 135.273202 
L 229.966922 148.768746 
L 230.047903 114.95832 
L 230.209864 178.712432 
L 230.290845 161.965283 
L 230.614776 134.102303 
L 230.695757 134.706323 
L 230.776738 158.057237 
L 231.01968 99.741917 
L 231.262622 158.861243 
L 231.424584 147.846717 
L 231.505565 178.100073 
L 231.586554 169.349825 
L 231.748515 179.661068 
L 231.910477 139.388972 
L 231.991457 171.721478 
L 232.072438 155.26322 
L 232.153419 159.969499 
L 232.2344 194.024254 
L 232.315381 168.839391 
L 232.396361 191.653464 
L 232.477342 191.080581 
L 232.639312 146.979662 
L 232.801273 174.231979 
L 232.882254 148.719347 
L 233.044216 189.010812 
L 233.125196 152.958014 
L 233.206177 172.263367 
L 233.287158 141.450537 
L 233.449119 165.707513 
L 233.5301 115.247001 
L 233.611089 137.798939 
L 233.69207 128.786016 
L 233.854031 184.626314 
L 234.096974 161.669271 
L 234.177954 160.294849 
L 234.258935 197.641214 
L 234.339916 180.395659 
L 234.420897 195.178641 
L 234.501877 163.42384 
L 234.582858 181.344644 
L 234.744828 167.207181 
L 234.825809 168.445149 
L 234.906789 177.462082 
L 235.068751 145.034906 
L 235.149732 186.539353 
L 235.230712 183.512198 
L 235.311693 163.859849 
L 235.392674 178.234029 
L 235.473655 174.787062 
L 235.554635 157.26309 
L 235.635616 172.266837 
L 235.716597 133.503043 
L 236.040528 195.010807 
L 236.121509 168.544433 
L 236.20249 197.820988 
L 236.445432 131.416586 
L 236.526413 136.396955 
L 236.607394 154.956617 
L 236.850336 111.207976 
L 236.931317 152.614834 
L 237.012306 140.526562 
L 237.093286 125.817464 
L 237.255248 172.058006 
L 237.417209 94.532081 
L 237.579171 162.094516 
L 237.822113 133.023805 
L 237.984075 152.319133 
L 238.065055 129.957956 
L 238.227025 182.231118 
L 238.308006 164.662133 
L 238.469967 137.24035 
L 238.550948 177.618514 
L 238.631929 136.509564 
L 238.71291 180.845534 
L 238.79389 169.704731 
L 238.955852 193.059838 
L 239.279777 132.889364 
L 239.360758 148.070265 
L 239.441747 132.399947 
L 239.522728 144.889839 
L 239.684689 118.397257 
L 239.76567 174.141456 
L 239.846651 142.568003 
L 239.927631 191.534569 
L 240.008612 172.603261 
L 240.089593 182.164309 
L 240.170574 218.034336 
L 240.251554 142.146632 
L 240.413516 187.596962 
L 240.494497 183.223701 
L 240.575477 135.305523 
L 240.656466 147.832128 
L 240.737447 123.576874 
L 240.899409 206.356704 
L 240.980389 197.122552 
L 241.06137 187.591749 
L 241.142351 207.784347 
L 241.223332 142.377662 
L 241.304312 166.939299 
L 241.385293 152.646777 
L 241.547255 172.953897 
L 241.709216 147.308347 
L 241.790197 161.130245 
L 241.871178 149.007132 
L 241.952167 150.390912 
L 242.033147 180.452879 
L 242.114128 176.277247 
L 242.195109 147.57627 
L 242.27609 168.699809 
L 242.357071 155.633641 
L 242.438051 172.700577 
L 242.519032 153.820976 
L 242.600013 160.475677 
L 242.680994 156.9793 
L 242.761974 159.764364 
L 242.842955 141.41043 
L 242.923936 175.209353 
L 243.004917 130.968762 
L 243.085897 156.874928 
L 243.166878 131.122573 
L 243.409829 181.949481 
L 243.57179 135.867687 
L 243.733752 148.392764 
L 243.814732 130.661515 
L 243.895713 164.374955 
L 244.057675 131.253812 
L 244.219636 159.398687 
L 244.381598 141.577512 
L 244.462579 160.618584 
L 244.543559 138.238335 
L 244.62454 161.42703 
L 244.705529 156.856352 
L 244.867491 136.199015 
L 245.029452 158.512639 
L 245.110433 146.550302 
L 245.272394 163.559435 
L 245.515337 112.5759 
L 245.677298 156.341726 
L 245.83926 142.673529 
L 245.92024 151.823152 
L 246.001221 150.067857 
L 246.082202 117.88586 
L 246.163191 139.420156 
L 246.244172 112.457084 
L 246.406133 150.315717 
L 246.649075 100.958248 
L 246.892018 169.025122 
L 247.053979 126.341971 
L 247.13496 171.23523 
L 247.215941 114.703031 
L 247.296922 116.133811 
L 247.539864 178.725856 
L 247.863795 111.805105 
L 248.025757 154.22825 
L 248.106737 146.288828 
L 248.187718 138.901354 
L 248.268695 141.690957 
L 248.349676 149.813513 
L 248.430656 135.519296 
L 248.592618 154.248606 
L 248.673599 190.752062 
L 248.754579 151.014067 
L 248.83556 159.642039 
L 248.916541 172.433642 
L 248.997522 152.261882 
L 249.078503 212.132153 
L 249.159491 172.736588 
L 249.321453 207.073599 
L 249.483414 165.269393 
L 249.564395 168.253913 
L 249.645376 154.657567 
L 249.807338 194.189127 
L 249.888318 168.500928 
L 250.05028 232.606165 
L 250.374203 174.013577 
L 250.536164 212.564592 
L 250.617145 169.861095 
L 250.698134 203.499811 
L 250.779115 146.682278 
L 250.860096 168.254577 
L 250.941076 155.085566 
L 251.022057 203.271685 
L 251.184019 170.057451 
L 251.264999 176.126877 
L 251.34598 175.718811 
L 251.426961 172.04683 
L 251.669903 203.280783 
L 251.831865 159.785948 
L 251.993826 196.009566 
L 252.074807 155.683558 
L 252.155788 183.118604 
L 252.236769 177.134114 
L 252.317749 189.629748 
L 252.39873 123.500211 
L 252.479719 182.821465 
L 252.641681 132.487533 
L 252.965604 185.894815 
L 253.127565 139.19148 
L 253.208546 144.29851 
L 253.289527 173.575606 
L 253.532469 103.577479 
L 253.61345 128.454884 
L 253.694431 104.04683 
L 253.856392 123.828761 
L 253.937373 100.453207 
L 254.099334 179.482333 
L 254.180315 145.513029 
L 254.261304 174.716123 
L 254.342285 172.40065 
L 254.423266 161.394428 
L 254.585227 169.745183 
L 254.747189 211.912653 
L 255.071112 139.348519 
L 255.152092 216.426843 
L 255.233073 205.592327 
L 255.314054 219.926778 
L 255.637977 144.916093 
L 255.799939 192.5516 
L 255.880919 189.549046 
L 255.9619 234.429301 
L 256.042881 164.662533 
L 256.123862 209.453409 
L 256.20485 188.292846 
L 256.366812 200.677357 
L 256.447793 202.31782 
L 256.528774 188.640428 
L 256.609754 200.15127 
L 256.690735 172.76501 
L 256.933677 229.734829 
L 257.014658 224.71839 
L 257.095639 173.157614 
L 257.17662 198.169517 
L 257.338581 134.862188 
L 257.419562 154.390065 
L 257.500541 153.968659 
L 257.581522 134.950961 
L 257.743484 174.955091 
L 257.824464 144.391254 
L 257.905445 146.732466 
L 257.986426 153.035194 
L 258.067407 174.178625 
L 258.148388 171.1115 
L 258.229376 182.62509 
L 258.310357 145.501093 
L 258.472319 182.153803 
L 258.553299 157.430389 
L 258.63428 179.867219 
L 258.715261 160.899924 
L 258.958203 195.726201 
L 259.120165 157.291307 
L 259.201146 207.001111 
L 259.282126 163.442172 
L 259.363107 184.658017 
L 259.444088 176.65793 
L 259.525069 189.896869 
L 259.606049 177.412876 
L 259.68703 195.757881 
L 259.848992 170.145809 
L 260.010953 202.118706 
L 260.172915 178.423193 
L 260.253896 182.783223 
L 260.415865 209.357445 
L 260.496838 209.120934 
L 260.658808 192.294294 
L 260.739788 189.259084 
L 260.90175 212.057442 
L 261.063711 152.621088 
L 261.144692 162.898424 
L 261.225673 204.640097 
L 261.306654 201.263003 
L 261.549596 126.524232 
L 261.630577 172.319829 
L 261.711557 140.568175 
L 261.792538 191.221865 
L 261.873519 187.099534 
L 261.9545 170.134906 
L 262.116461 209.31626 
L 262.440384 145.973729 
L 262.521365 158.617349 
L 262.602346 123.303836 
L 262.683327 153.169814 
L 262.764307 134.887186 
L 262.845288 147.928034 
L 263.007258 129.884649 
L 263.088239 129.992405 
L 263.2502 152.672774 
L 263.331181 110.707941 
L 263.493142 191.059018 
L 263.574123 170.494393 
L 263.655104 171.914111 
L 263.736085 131.879574 
L 263.817065 132.253836 
L 263.898046 155.500523 
L 263.979027 141.111234 
L 264.060008 157.488667 
L 264.140989 145.092227 
L 264.221969 151.462814 
L 264.30295 185.221598 
L 264.383931 142.329139 
L 264.464912 172.488966 
L 264.545892 131.557048 
L 264.788835 168.816581 
L 264.869815 164.644031 
L 264.950796 190.000853 
L 265.031777 175.203703 
L 265.112758 210.134105 
L 265.3557 164.705625 
L 265.436681 162.953613 
L 265.598642 135.017824 
L 265.679623 174.748923 
L 265.760604 110.600597 
L 265.841593 117.634692 
L 266.003554 189.780933 
L 266.084535 163.929002 
L 266.165516 166.892647 
L 266.246497 203.242943 
L 266.327477 169.914084 
L 266.489439 197.621544 
L 266.6514 158.99067 
L 266.813359 195.832745 
L 266.89434 184.188601 
L 267.056301 195.064688 
L 267.218263 182.779469 
L 267.299243 207.457647 
L 267.380224 171.574924 
L 267.542186 215.644805 
L 267.623167 211.431061 
L 267.704147 190.188067 
L 267.785128 227.846035 
L 267.94709 157.727126 
L 268.02807 187.261441 
L 268.190032 153.448453 
L 268.271013 184.691028 
L 268.351993 170.561736 
L 268.432974 212.812004 
L 268.513955 203.247091 
L 268.675916 168.276693 
L 268.756897 165.865353 
L 268.837878 177.162165 
L 268.99984 127.786327 
L 269.323771 193.974868 
L 269.404751 157.012431 
L 269.485732 181.685008 
L 269.566713 170.21802 
L 269.647694 171.109471 
L 269.728675 169.969002 
L 269.809655 164.871451 
L 269.971617 221.354778 
L 270.214559 160.664457 
L 270.29554 157.186981 
L 270.376521 168.7854 
L 270.457501 196.338775 
L 270.619463 172.303998 
L 270.700444 160.585967 
L 270.862405 202.92021 
L 270.943386 150.796683 
L 271.105348 220.102377 
L 271.186328 215.624154 
L 271.267309 213.873349 
L 271.34829 214.772954 
L 271.510251 227.202144 
L 271.591232 192.013083 
L 271.753194 231.661062 
L 271.834174 189.010762 
L 271.915155 210.492667 
L 271.996136 173.628742 
L 272.077117 175.7285 
L 272.320059 195.359179 
L 272.40104 152.226256 
L 272.482021 197.213422 
L 272.563001 179.507373 
L 272.724963 198.958603 
L 272.805944 189.416424 
L 272.886924 203.270924 
L 272.967905 168.766244 
L 273.129867 230.155149 
L 273.210847 247.152741 
L 273.372809 203.29032 
L 273.45379 229.926519 
L 273.615759 178.130604 
L 273.69674 148.362863 
L 273.858702 212.968325 
L 274.020663 179.73866 
L 274.101644 210.584159 
L 274.182625 203.741777 
L 274.344586 193.694522 
L 274.425567 148.239409 
L 274.506548 168.710998 
L 274.587529 149.503861 
L 274.668509 161.817963 
L 274.74949 136.746705 
L 274.830471 146.528623 
L 274.911452 176.856732 
L 274.992432 155.73436 
L 275.154394 197.46484 
L 275.235375 159.844739 
L 275.316355 159.986722 
L 275.397336 187.472698 
L 275.559298 170.194519 
L 275.640279 130.363567 
L 275.721259 153.749453 
L 275.80224 99.167944 
L 275.883226 120.687615 
L 275.964207 119.959014 
L 276.045187 99.772208 
L 276.126168 146.058594 
L 276.28813 115.828818 
L 276.369111 116.910932 
L 276.450091 134.328808 
L 276.531072 126.719018 
L 276.612053 141.062412 
L 276.774014 104.066645 
L 276.854995 115.542344 
L 276.935976 131.052512 
L 277.016957 113.14217 
L 277.097937 155.552195 
L 277.178918 138.854198 
L 277.259899 172.706045 
L 277.421861 125.679009 
L 277.502841 173.332373 
L 277.664803 99.15317 
L 277.826764 129.773209 
L 277.988726 139.323209 
L 278.150687 98.432401 
L 278.39363 139.35635 
L 278.47461 156.364197 
L 278.555591 119.582313 
L 278.636572 123.957443 
L 278.717553 115.773042 
L 278.798534 145.945744 
L 278.879514 136.833041 
L 278.960495 160.282796 
L 279.041476 149.764342 
L 279.122457 184.385478 
L 279.203437 165.754843 
L 279.284418 169.230361 
L 279.365399 155.100799 
L 279.44638 156.882217 
L 279.608341 161.217297 
L 279.689322 177.72389 
L 279.770303 158.384661 
L 279.851283 161.724318 
L 279.932264 169.22694 
L 280.094226 145.636919 
L 280.175207 131.192826 
L 280.418149 197.227579 
L 280.49913 184.506547 
L 280.58011 138.328241 
L 280.904033 188.053648 
L 280.985014 150.087116 
L 281.065995 222.963632 
L 281.146976 216.312891 
L 281.227956 213.539113 
L 281.55188 173.525621 
L 281.63286 174.893313 
L 281.875803 118.982992 
L 281.956783 130.492205 
L 282.118753 161.024482 
L 282.280715 127.749088 
L 282.361687 176.228392 
L 282.523657 131.574839 
L 282.604638 147.081739 
L 282.766599 210.188871 
L 282.928561 188.270845 
L 283.009541 194.737904 
L 283.090522 168.70398 
L 283.171503 176.434722 
L 283.333465 211.247304 
L 283.414445 193.987144 
L 283.495426 147.763668 
L 283.576407 153.86655 
L 283.819349 186.903099 
L 283.981311 161.855679 
L 284.224253 209.015065 
L 284.386214 132.284678 
L 284.548176 175.358622 
L 284.629157 142.242348 
L 284.791118 163.156011 
L 284.872099 132.515059 
L 285.034061 181.586708 
L 285.115042 109.272033 
L 285.196022 125.925578 
L 285.277003 147.931134 
L 285.519946 113.210444 
L 285.681907 137.594646 
L 285.762888 129.363567 
L 285.843869 140.802384 
L 285.924849 114.35147 
L 286.086811 142.767244 
L 286.167792 150.148928 
L 286.248772 146.296088 
L 286.329753 169.924797 
L 286.491715 142.321442 
L 286.572695 144.783848 
L 286.734657 155.187591 
L 286.977599 200.829608 
L 287.058572 193.938188 
L 287.220542 145.313953 
L 287.463476 169.259483 
L 287.544457 134.380205 
L 287.625437 156.438407 
L 287.706418 139.989327 
L 288.111322 223.731276 
L 288.273283 171.580192 
L 288.354264 182.758362 
L 288.435245 193.696554 
L 288.597206 150.392873 
L 288.840149 194.560653 
L 289.00211 168.295309 
L 289.083091 177.727795 
L 289.245053 118.706025 
L 289.326033 162.218447 
L 289.407014 156.457039 
L 289.568976 205.906517 
L 289.649956 197.779995 
L 289.811918 150.304683 
L 290.05486 189.325055 
L 290.135841 161.192831 
L 290.297803 187.679849 
L 290.459764 177.84031 
L 290.540745 197.411892 
L 290.702706 180.398461 
L 290.783687 179.579813 
L 290.864668 193.992075 
L 291.10761 120.897792 
L 291.269572 190.675618 
L 291.350553 190.101062 
L 291.431533 187.783473 
L 291.593495 205.865938 
L 291.917418 161.217289 
L 292.079379 195.456749 
L 292.241341 176.685389 
L 292.322322 194.564464 
L 292.403302 186.783629 
L 292.484283 211.992072 
L 292.565264 196.246473 
L 292.646245 153.590966 
L 292.889187 220.072803 
L 293.051149 153.627728 
L 293.132129 184.68691 
L 293.21311 175.89559 
L 293.294091 157.53206 
L 293.375072 171.119812 
L 293.456052 143.032878 
L 293.618014 213.319337 
L 293.779975 134.368409 
L 293.860956 144.944477 
L 294.022918 124.155906 
L 294.103899 137.760526 
L 294.184879 129.195863 
L 294.26586 160.253108 
L 294.346841 104.528014 
L 294.670765 172.662453 
L 294.994688 95.525028 
L 295.156649 121.566549 
L 295.23763 124.207136 
L 295.399591 80.237516 
L 295.642526 159.527183 
L 295.804487 138.13041 
L 295.885468 149.816737 
L 296.047429 112.301938 
L 296.12841 107.168165 
L 296.209391 158.596267 
L 296.290372 149.113393 
L 296.452333 117.687232 
L 296.695276 137.63092 
L 296.857237 126.527623 
L 296.938218 130.901395 
L 297.019199 127.872121 
L 297.100179 114.702169 
L 297.18116 126.467571 
L 297.424102 92.365798 
L 297.505083 97.240162 
L 297.586064 125.970353 
L 297.667045 103.035069 
L 297.748026 134.987341 
L 297.829006 130.130776 
L 297.909987 141.994898 
L 298.071949 106.200305 
L 298.314891 182.71138 
L 298.638814 133.724001 
L 298.719795 147.021698 
L 298.881756 107.857495 
L 299.043718 141.337926 
L 299.367641 105.289512 
L 299.448622 104.24048 
L 299.529602 138.593658 
L 299.691564 100.599464 
L 299.772545 112.051061 
L 299.934506 53.568 
L 300.09646 116.817022 
L 300.17744 115.157949 
L 300.258421 125.215567 
L 300.339402 150.03029 
L 300.420383 141.04969 
L 300.582344 124.346623 
L 300.663325 124.922354 
L 300.744306 110.675301 
L 300.906267 136.106848 
L 300.987248 133.662187 
L 301.068229 129.225466 
L 301.14921 140.456401 
L 301.23019 123.007007 
L 301.311171 166.493652 
L 301.473133 127.155636 
L 301.554113 129.264193 
L 301.635094 124.824626 
L 301.797056 153.219347 
L 301.878036 149.486399 
L 301.959017 150.178173 
L 302.039998 152.875119 
L 302.28294 125.059747 
L 302.363921 158.771288 
L 302.444902 126.856362 
L 302.687844 153.333018 
L 302.930786 180.723637 
L 303.254709 143.886798 
L 303.335682 186.108102 
L 303.416663 164.890491 
L 303.497638 188.391683 
L 303.74058 162.348311 
L 303.821561 167.825741 
L 303.902541 162.644093 
L 303.983522 133.951529 
L 304.064503 139.73644 
L 304.145484 165.866854 
L 304.226464 141.357905 
L 304.307445 143.008184 
L 304.388426 141.638788 
L 304.469407 172.856905 
L 304.550387 150.639935 
L 304.631368 151.255634 
L 304.79333 133.040354 
L 304.874311 174.765853 
L 304.955291 153.772615 
L 305.117253 180.861735 
L 305.198234 168.846169 
L 305.279214 203.584856 
L 305.522157 116.165332 
L 305.603137 150.422271 
L 305.684118 148.126659 
L 305.765099 163.303532 
L 305.927061 114.396179 
L 306.089022 182.407025 
L 306.169995 136.736738 
L 306.250975 151.636113 
L 306.331956 171.227575 
L 306.412937 116.085877 
L 306.493918 130.355529 
L 306.655879 163.928771 
L 306.73686 111.325974 
L 306.817841 152.379992 
L 306.898822 145.7061 
L 306.979802 144.712334 
L 307.060783 147.607138 
L 307.222745 198.231457 
L 307.465687 117.994714 
L 307.627648 175.158975 
L 307.708629 120.907602 
L 307.78961 132.662788 
L 307.951572 145.533856 
L 308.032552 116.195142 
L 308.113533 119.873361 
L 308.194514 141.993725 
L 308.356475 130.903911 
L 308.518437 163.129011 
L 308.599418 132.622826 
L 308.761371 158.225095 
L 308.842352 130.107678 
L 308.923333 169.289444 
L 309.085294 107.026893 
L 309.166275 151.643748 
L 309.247256 133.743526 
L 309.409217 149.53478 
L 309.490198 124.674711 
L 309.652159 166.231085 
L 309.895102 126.550621 
L 310.300006 174.643887 
L 310.380986 162.784841 
L 310.461967 201.855166 
L 310.623929 130.658446 
L 310.866871 167.324706 
L 311.028832 179.77731 
L 311.109805 134.630063 
L 311.190786 144.728471 
L 311.271767 144.621964 
L 311.433728 167.026822 
L 311.514709 140.587487 
L 311.59569 157.946995 
L 311.757651 108.104324 
L 311.838632 134.248468 
L 311.919613 122.999064 
L 312.081574 143.352499 
L 312.243536 98.370232 
L 312.405497 133.418397 
L 312.486478 125.643236 
L 312.567459 148.186893 
L 312.64844 107.121298 
L 312.810406 170.075043 
L 313.053348 92.149793 
L 313.215309 141.901352 
L 313.296282 125.352667 
L 313.377263 142.997969 
L 313.458244 109.342565 
L 313.539224 117.958868 
L 313.701186 159.087527 
L 313.944128 130.507068 
L 314.025109 131.564056 
L 314.10609 153.106357 
L 314.187071 142.1743 
L 314.268051 163.802444 
L 314.510994 135.576608 
L 314.591974 129.007353 
L 314.753936 150.631817 
L 314.834917 139.79284 
L 314.915897 98.118756 
L 314.996878 108.02032 
L 315.239812 171.411491 
L 315.401774 187.206056 
L 315.563735 167.324503 
L 315.644716 180.543352 
L 315.806678 136.762634 
L 315.887658 179.828803 
L 315.968639 174.691585 
L 316.130601 122.085646 
L 316.211582 161.837777 
L 316.292562 152.039144 
L 316.373543 130.086504 
L 316.454524 173.470778 
L 316.535505 125.054959 
L 316.616485 140.229071 
L 316.697466 135.995246 
L 316.778447 125.425148 
L 316.859428 152.607248 
L 316.940408 123.627644 
L 317.021389 127.428971 
L 317.102362 128.954196 
L 317.183343 153.289755 
L 317.264323 151.810572 
L 317.426285 132.087684 
L 317.507266 138.885526 
L 317.588246 173.901239 
L 317.669227 155.422664 
L 317.750208 160.099422 
L 317.831189 157.149341 
L 317.99315 185.614687 
L 318.155112 150.166541 
L 318.236093 160.083668 
L 318.398054 134.961779 
L 318.479035 169.253222 
L 318.560016 149.341482 
L 318.721977 171.911302 
L 318.802958 200.397058 
L 318.964911 162.72115 
L 319.045892 171.866599 
L 319.126873 204.575512 
L 319.288834 136.98929 
L 319.369815 139.72792 
L 319.450796 177.08731 
L 319.612757 152.538934 
L 319.774719 186.101939 
L 319.93668 159.337841 
L 320.098642 163.790339 
L 320.179623 110.318601 
L 320.260604 117.229662 
L 320.503546 141.564205 
L 320.584527 146.588883 
L 320.74648 130.698842 
L 320.827461 135.37095 
L 320.908442 131.197586 
L 321.070403 103.927419 
L 321.151384 115.675886 
L 321.232365 108.094025 
L 321.313345 109.476301 
L 321.637268 140.110852 
L 321.718249 139.797945 
L 321.961194 91.456926 
L 322.123155 127.194569 
L 322.204136 130.850825 
L 322.285117 157.121404 
L 322.366089 156.56429 
L 322.44707 155.74688 
L 322.528051 166.670435 
L 322.609032 196.570902 
L 322.690012 183.000115 
L 322.770993 146.905703 
L 322.932955 190.113427 
L 323.094916 126.591405 
L 323.256878 171.615451 
L 323.418839 118.183332 
L 323.49982 164.358691 
L 323.580801 139.638827 
L 323.823743 169.077068 
L 323.904716 165.587273 
L 324.066677 132.854188 
L 324.147658 167.678357 
L 324.228639 156.654744 
L 324.30962 131.977564 
L 324.3906 132.260273 
L 324.633543 203.104455 
L 324.714523 200.155104 
L 324.957466 154.170573 
L 325.038446 172.938952 
L 325.200408 118.855327 
L 325.362369 188.801486 
L 325.443342 180.812202 
L 325.524323 192.542127 
L 325.605304 184.451881 
L 325.686284 191.036745 
L 325.767265 154.789463 
L 325.848246 155.353164 
L 326.010207 172.219606 
L 326.091188 160.413477 
L 326.172169 165.060126 
L 326.25315 158.077763 
L 326.496092 227.810715 
L 326.577073 177.097574 
L 326.658054 188.191781 
L 326.739034 208.748506 
L 326.820007 200.095221 
L 326.900988 215.555491 
L 326.981969 201.1682 
L 327.062949 209.637127 
L 327.14393 206.951943 
L 327.224911 199.379654 
L 327.305892 230.822381 
L 327.467853 186.621497 
L 327.548834 196.860733 
L 327.629815 177.839049 
L 327.710795 204.574787 
L 327.791776 195.26917 
L 327.872757 188.312612 
L 327.953738 201.778273 
L 328.034718 162.347577 
L 328.19668 183.025908 
L 328.277653 187.190652 
L 328.358633 180.800116 
L 328.439614 163.239932 
L 328.520595 191.721467 
L 328.601576 182.876395 
L 328.682556 194.878164 
L 328.763537 175.448681 
L 328.844518 192.777041 
L 329.00648 119.740416 
L 329.168441 168.141481 
L 329.249422 148.332806 
L 329.330403 193.89404 
L 329.573345 128.557847 
L 329.654318 106.625798 
L 329.735298 148.030569 
L 329.816279 147.881122 
L 329.89726 149.899979 
L 330.059221 168.134224 
L 330.140202 164.167096 
L 330.221183 200.039137 
L 330.302164 199.81025 
L 330.383144 161.138376 
L 330.464125 161.544654 
L 330.788048 96.146072 
L 330.95001 161.172267 
L 331.030982 147.095061 
L 331.273922 204.031729 
L 331.435883 158.987987 
L 331.516864 161.457013 
L 331.597845 181.701836 
L 331.678826 178.170646 
L 331.759806 181.549168 
L 331.840787 140.268211 
L 331.921768 177.457204 
L 332.002749 176.61075 
L 332.083729 156.682373 
L 332.16471 168.981141 
L 332.245691 211.352933 
L 332.407644 133.301838 
L 332.569606 184.960605 
L 332.731567 158.547759 
L 332.812548 175.528625 
L 332.893529 171.55749 
L 333.136471 176.785496 
L 333.217452 168.67017 
L 333.298433 170.888303 
L 333.379414 170.092453 
L 333.460394 166.170584 
L 333.541375 123.278957 
L 333.622348 132.215677 
L 333.703328 115.75138 
L 333.86529 159.114626 
L 333.946271 173.323175 
L 334.027252 152.220426 
L 334.189213 190.654376 
L 334.270194 153.492444 
L 334.351175 160.284606 
L 334.513136 197.677096 
L 334.675098 154.146846 
L 334.756078 190.509382 
L 334.837051 177.018099 
L 334.918032 160.302761 
L 334.999013 173.49977 
L 335.079993 167.351942 
L 335.160974 186.674469 
L 335.241955 152.048225 
L 335.322936 163.335153 
L 335.403916 172.555983 
L 335.727839 112.254559 
L 335.889801 82.017871 
L 336.051754 128.158568 
L 336.294697 146.065316 
L 336.456658 156.188536 
L 336.537639 150.106865 
L 336.61862 193.681291 
L 336.699601 115.973101 
L 336.780581 130.103582 
L 336.861562 152.772452 
L 336.942543 142.687035 
L 337.104504 178.38742 
L 337.185485 160.995677 
L 337.266458 162.23218 
L 337.347439 161.562222 
L 337.5094 221.855756 
L 337.833323 150.126089 
L 337.914304 173.92393 
L 337.995285 169.935966 
L 338.157246 201.397928 
L 338.238227 193.856621 
L 338.40018 221.136791 
L 338.724103 153.547038 
L 338.805084 155.138403 
L 338.886065 129.70543 
L 339.048027 170.972982 
L 339.129007 156.460994 
L 339.37195 194.291546 
L 339.45293 178.133806 
L 339.533903 132.641573 
L 339.614884 156.010852 
L 339.695865 113.372767 
L 339.938807 184.140214 
L 340.100768 132.004953 
L 340.181749 210.781683 
L 340.343708 169.185769 
L 340.424689 175.998644 
L 340.586651 158.829104 
L 340.667623 137.990175 
L 340.748604 161.126464 
L 340.829585 147.251043 
L 340.991546 80.901581 
L 341.39645 153.706017 
L 341.477431 149.279123 
L 341.720365 171.618917 
L 341.801346 153.491504 
L 342.044288 200.768899 
L 342.20625 134.099327 
L 342.28723 149.412732 
L 342.368211 149.259778 
L 342.449192 126.271413 
L 342.530173 191.871836 
L 342.611153 178.045361 
L 342.692134 201.337163 
L 342.773115 197.457005 
L 342.854088 213.131108 
L 343.016049 170.895765 
L 343.09703 187.089007 
L 343.178011 144.057631 
L 343.258991 165.954348 
L 343.339972 161.077128 
L 343.501934 163.669649 
L 343.663895 205.493444 
L 343.744876 149.170014 
L 343.825857 159.001543 
L 343.906829 156.118368 
L 343.98781 138.885764 
L 344.068791 144.382933 
L 344.149772 152.368463 
L 344.230753 179.681398 
L 344.311733 157.660229 
L 344.473695 192.763696 
L 344.554676 162.525246 
L 344.635656 187.238615 
L 344.716637 162.1938 
L 344.797618 200.409957 
L 344.878591 196.56695 
L 344.959571 208.016201 
L 345.121533 144.613006 
L 345.202514 177.093574 
L 345.283494 171.34625 
L 345.364475 148.940633 
L 345.445456 167.951685 
L 345.526437 143.106503 
L 345.607417 147.393984 
L 345.688398 197.17469 
L 345.769379 179.517861 
L 345.85036 178.646722 
L 345.931332 184.242411 
L 346.012313 200.575602 
L 346.174275 171.011405 
L 346.255255 190.623487 
L 346.336236 150.096409 
L 346.417217 183.718982 
L 346.579179 153.350343 
L 346.660159 154.659914 
L 346.822121 133.148397 
L 346.903102 184.385191 
L 346.984074 137.646638 
L 347.065055 152.344652 
L 347.146036 147.078508 
L 347.307997 195.289417 
L 347.388978 166.44453 
L 347.469959 176.672436 
L 347.63192 122.024972 
L 347.793882 184.354545 
L 347.955835 134.755874 
L 348.036816 146.074457 
L 348.198778 108.991534 
L 348.279758 137.06336 
L 348.360739 130.94411 
L 348.44172 116.206263 
L 348.603681 191.690917 
L 348.765643 123.991369 
L 349.008577 205.357501 
L 349.089558 163.520553 
L 349.170539 173.718253 
L 349.251519 183.015242 
L 349.413481 171.033066 
L 349.494467 216.345705 
L 349.737409 183.726705 
L 349.81839 228.047002 
L 350.142305 146.292881 
L 350.223286 171.156197 
L 350.304267 149.2027 
L 350.385247 166.015143 
L 350.466228 154.984202 
L 350.547209 168.024727 
L 350.62819 147.326769 
L 350.70917 185.992981 
L 350.790151 155.627695 
L 350.871124 191.083356 
L 350.952105 185.049425 
L 351.033085 147.326382 
L 351.114066 191.810211 
L 351.276028 138.166242 
L 351.437989 179.638582 
L 351.599951 142.922458 
L 351.680932 178.700257 
L 351.761904 147.696577 
L 351.842885 157.540027 
L 352.085827 231.472612 
L 352.166808 177.6864 
L 352.247789 204.304745 
L 352.32877 177.536108 
L 352.40975 181.064034 
L 352.652684 195.248366 
L 352.733665 178.841913 
L 352.814646 195.432474 
L 352.895627 192.502249 
L 353.057588 124.949642 
L 353.138569 159.299135 
L 353.21955 148.365534 
L 353.300531 180.843563 
L 353.381511 162.505609 
L 353.462492 189.835548 
L 353.543473 166.788788 
L 353.624446 170.528732 
L 353.705426 154.35312 
L 353.786407 197.584693 
L 353.948369 151.181347 
L 354.029349 163.485902 
L 354.11033 165.885311 
L 354.191311 152.781212 
L 354.272292 162.590823 
L 354.353272 186.044775 
L 354.434253 135.145291 
L 354.596207 189.148025 
L 354.677187 169.198386 
L 354.92013 211.579039 
L 355.00111 174.152306 
L 355.082091 189.245632 
L 355.163072 180.930467 
L 355.244053 190.128286 
L 355.325033 149.253189 
L 355.406006 171.772525 
L 355.567968 121.04176 
L 355.648948 107.289848 
L 355.81091 141.888679 
L 355.891891 123.129539 
L 356.053852 136.628342 
L 356.134833 155.976751 
L 356.215806 155.187786 
L 356.296786 156.85756 
L 356.377767 167.470763 
L 356.620709 83.463599 
L 356.782671 130.24856 
L 356.863652 151.511134 
L 357.025613 110.091197 
L 357.106586 140.57541 
L 357.187567 136.433231 
L 357.349528 108.100481 
L 357.430509 144.114883 
L 357.51149 115.011096 
L 357.754432 167.602076 
L 357.997366 85.688486 
L 358.159328 133.426758 
L 358.240309 149.551569 
L 358.321289 133.54457 
L 358.40227 141.2588 
L 358.483251 173.281 
L 358.645212 134.680283 
L 358.726189 180.520508 
L 358.807161 149.122147 
L 358.969123 195.118223 
L 359.050104 127.345776 
L 359.131084 166.718131 
L 359.212065 165.287018 
L 359.293046 184.749158 
L 359.374027 156.054491 
L 359.455008 169.899465 
L 359.535988 166.398243 
L 359.616969 133.784804 
L 359.697942 137.244657 
L 359.778922 134.203142 
L 360.102846 189.3651 
L 360.264807 115.190093 
L 360.345788 205.67813 
L 360.426769 181.443719 
L 360.588722 156.804932 
L 360.669703 159.694397 
L 360.750684 220.502724 
L 360.912645 178.480903 
L 360.993626 179.752191 
L 361.074607 126.731589 
L 361.236568 166.572753 
L 361.317541 171.99504 
L 361.398522 128.20538 
L 361.560483 174.828497 
L 361.722445 197.947193 
L 361.884406 153.279469 
L 362.046368 189.044889 
L 362.12734 177.440707 
L 362.208321 205.809232 
L 362.370283 150.845299 
L 362.532244 177.946927 
L 362.694206 150.612492 
L 362.856167 193.892106 
L 362.93714 180.48505 
L 363.099101 152.402135 
L 363.180082 197.161945 
L 363.261063 179.076282 
L 363.342044 182.750692 
L 363.504005 152.80336 
L 363.584986 158.876007 
L 363.746939 183.11179 
L 363.82792 159.803293 
L 363.908901 182.491072 
L 364.070862 147.022666 
L 364.151843 190.860516 
L 364.232824 188.474305 
L 364.313805 164.224018 
L 364.394786 168.225843 
L 364.556739 213.066182 
L 364.7187 178.696693 
L 364.880662 217.709029 
L 364.961643 214.592808 
L 365.042624 191.109875 
L 365.204585 229.537507 
L 365.366538 146.580329 
L 365.5285 193.498207 
L 365.609481 207.51185 
L 365.690462 189.074886 
L 365.771442 193.418036 
L 365.852423 186.47974 
L 365.933404 187.478331 
L 366.014385 185.979363 
L 366.095357 198.879221 
L 366.176338 185.884915 
L 366.257319 241.317134 
L 366.500261 182.761198 
L 366.581242 202.712963 
L 366.743203 179.601857 
L 366.824184 214.854987 
L 366.905157 164.897199 
L 367.067118 225.160563 
L 367.22908 189.44578 
L 367.310061 217.375484 
L 367.633976 164.902544 
L 367.714956 188.430466 
L 367.795937 162.209652 
L 367.957902 192.641673 
L 368.119863 153.834535 
L 368.200844 205.498679 
L 368.281825 176.413714 
L 368.362806 196.164059 
L 368.60574 162.461673 
L 368.68672 212.013339 
L 368.767701 184.910263 
L 368.848682 202.225728 
L 369.010644 175.703575 
L 369.172597 214.931673 
L 369.253578 213.578675 
L 369.415539 169.738166 
L 369.49652 177.674394 
L 369.577501 172.550784 
L 369.658482 197.721821 
L 369.820443 168.979554 
L 369.901416 200.247893 
L 369.982396 191.834163 
L 370.063377 172.684607 
L 370.225339 228.906888 
L 370.30632 268.044082 
L 370.468281 172.136315 
L 370.549262 185.681027 
L 370.630234 200.279158 
L 370.711215 163.792101 
L 370.792196 201.190148 
L 370.873177 194.216499 
L 370.954158 171.036825 
L 371.1971 205.32606 
L 371.278081 201.258992 
L 371.359053 140.010912 
L 371.440034 145.161945 
L 371.521015 154.934678 
L 371.601996 149.578085 
L 371.682976 151.988725 
L 371.763957 186.643071 
L 371.844938 128.003059 
L 371.925919 146.067226 
L 372.006899 160.33443 
L 372.08788 160.217088 
L 372.168853 163.788833 
L 372.249834 212.739677 
L 372.330814 208.934551 
L 372.492776 221.744036 
L 372.573757 185.27044 
L 372.654737 191.894733 
L 372.735718 199.099394 
L 372.816699 179.3964 
L 372.897672 205.792907 
L 372.978652 204.159068 
L 373.221595 191.248665 
L 373.383556 170.780165 
L 373.545518 230.75757 
L 373.707471 193.575964 
L 373.788452 203.227165 
L 374.112375 155.25303 
L 374.274328 237.927625 
L 374.355309 210.138625 
L 374.43629 167.296417 
L 374.517271 223.326694 
L 374.679232 141.667943 
L 374.760213 154.588032 
L 374.841194 167.347134 
L 375.084128 113.840281 
L 375.165109 198.043725 
L 375.246089 174.416587 
L 375.32707 183.282406 
L 375.570012 122.612435 
L 375.812947 160.670106 
L 375.893927 157.232011 
L 375.974908 158.376195 
L 376.055889 133.260653 
L 376.13687 176.886663 
L 376.21785 167.101095 
L 376.298831 176.763341 
L 376.379804 164.93595 
L 376.460785 133.933717 
L 376.622746 161.181977 
L 376.703727 136.862332 
L 377.108622 195.215807 
L 377.189602 191.896677 
L 377.270583 180.557999 
L 377.351564 182.149469 
L 377.432545 201.49703 
L 377.513525 197.722174 
L 377.594506 149.73909 
L 377.675487 161.504076 
L 377.75646 170.563163 
L 377.83744 169.035788 
L 377.918421 168.390454 
L 377.999402 181.039819 
L 378.080383 180.820827 
L 378.161363 188.915285 
L 378.242344 214.699881 
L 378.323325 195.803279 
L 378.566259 250.015356 
L 378.809201 194.299899 
L 378.890182 213.563874 
L 378.971163 196.348448 
L 379.052144 233.481931 
L 379.295078 202.566536 
L 379.376059 213.370085 
L 379.457039 191.038171 
L 379.53802 198.697887 
L 379.699982 173.321864 
L 379.780962 197.158316 
L 379.942916 147.982353 
L 380.023897 197.472681 
L 380.104877 188.129211 
L 380.185858 200.487857 
L 380.266839 195.251877 
L 380.34782 182.342311 
L 380.4288 127.298542 
L 380.509773 131.536781 
L 380.752715 203.18919 
L 380.914677 129.655495 
L 380.995658 150.50862 
L 381.076638 124.394038 
L 381.157611 136.743416 
L 381.238592 99.592508 
L 381.481534 163.289567 
L 381.562515 120.088911 
L 381.724476 154.990069 
L 381.805457 168.465616 
L 381.88643 163.879306 
L 382.048391 141.02926 
L 382.129372 163.758032 
L 382.291334 138.708489 
L 382.372315 154.163108 
L 382.453295 145.500802 
L 382.534268 157.893067 
L 382.615249 137.782804 
L 382.696229 143.76338 
L 382.77721 128.017716 
L 382.858191 143.302415 
L 383.263087 99.944743 
L 383.344067 115.71409 
L 383.425048 115.571238 
L 383.58701 126.404316 
L 383.667991 125.234445 
L 383.829944 175.142948 
L 383.910925 154.141482 
L 383.991905 179.769181 
L 384.072886 119.951796 
L 384.153867 168.538223 
L 384.234848 134.406966 
L 384.315829 186.521687 
L 384.396809 178.715032 
L 384.477782 148.469243 
L 384.639743 206.322392 
L 384.801705 154.516614 
L 385.12562 232.614624 
L 385.287581 180.390941 
L 385.368562 200.357059 
L 385.449543 189.033587 
L 385.530524 159.733904 
L 385.611505 161.523627 
L 385.692485 167.630482 
L 385.773458 202.083168 
L 385.854439 164.004655 
L 385.935419 205.827346 
L 386.0164 160.393158 
L 386.097381 162.513315 
L 386.259343 138.292605 
L 386.502275 193.120199 
L 386.583255 184.567037 
L 386.745217 158.156439 
L 386.907179 228.101339 
L 386.988159 221.394611 
L 387.231093 160.341003 
L 387.393055 199.854318 
L 387.474036 182.719152 
L 387.555017 248.233374 
L 387.71697 195.809637 
L 387.878931 179.091906 
L 387.959912 182.696837 
L 388.040893 171.44973 
L 388.121874 134.300835 
L 388.202855 151.984295 
L 388.283835 129.846745 
L 388.364808 177.244514 
L 388.445789 163.323699 
L 388.526769 134.230475 
L 388.60775 172.014886 
L 388.688731 133.316262 
L 388.769712 201.063153 
L 388.850693 188.484069 
L 388.931673 182.25022 
L 389.093627 139.5077 
L 389.174607 178.067555 
L 389.255588 156.666141 
L 389.336569 188.240589 
L 389.41755 169.211285 
L 389.498531 111.204501 
L 389.660484 148.107102 
L 389.903426 131.15403 
L 390.227341 168.234879 
L 390.308322 150.727447 
L 390.389303 154.016319 
L 390.551264 160.780906 
L 390.632245 191.838917 
L 390.713226 178.31088 
L 390.794207 197.250714 
L 390.875179 169.874506 
L 390.95616 172.83395 
L 391.037141 185.142458 
L 391.118121 152.795048 
L 391.199102 160.307445 
L 391.280083 143.352177 
L 391.361064 165.567054 
L 391.523017 113.91131 
L 391.765959 193.337091 
L 391.84694 175.273318 
L 391.927921 153.778832 
L 392.008902 158.017437 
L 392.089874 146.996902 
L 392.251836 168.190195 
L 392.332817 173.57985 
L 392.494778 147.477176 
L 392.65674 149.912845 
L 392.737712 134.778301 
L 392.818693 158.693414 
L 392.980655 118.383775 
L 393.061635 134.543092 
L 393.142616 204.851793 
L 393.30457 136.494769 
L 393.38555 171.656885 
L 393.628493 124.702964 
L 393.871435 171.418483 
L 393.952408 131.326419 
L 394.114369 191.540535 
L 394.276331 162.667697 
L 394.438292 204.316864 
L 394.519265 159.918317 
L 394.681226 200.930424 
L 394.762207 173.435578 
L 394.843188 179.165585 
L 395.08613 136.348971 
L 395.167103 144.540248 
L 395.329064 168.68509 
L 395.410045 133.458727 
L 395.572006 215.47252 
L 395.81494 139.206803 
L 395.976901 179.036605 
L 396.057882 166.267864 
L 396.138863 206.506837 
L 396.381797 156.561798 
L 396.462778 151.397256 
L 396.543759 135.830135 
L 396.624739 188.327536 
L 396.70572 107.566302 
L 396.786701 133.467558 
L 396.867682 131.093203 
L 396.948654 124.895615 
L 397.110616 155.207303 
L 397.191597 95.993414 
L 397.272577 151.185966 
L 397.353558 135.17903 
L 397.596492 212.225727 
L 397.677473 175.062662 
L 397.758454 199.396813 
L 397.839435 153.541059 
L 397.920415 183.02417 
L 398.001396 179.851753 
L 398.16335 156.950078 
L 398.24433 209.771841 
L 398.325311 191.127197 
L 398.406292 185.2718 
L 398.487273 170.797805 
L 398.487273 170.797805 
" clip-path="url(#p87d5585348)" style="fill: none; stroke: #1f77b4; stroke-width: 1.5; stroke-linecap: square"/>
   </g>
   <g id="patch_3">
    <path d="M 57.6 307.584 
L 57.6 41.472 
" style="fill: none; stroke: #000000; stroke-width: 0.8; stroke-linejoin: miter; stroke-linecap: square"/>
   </g>
   <g id="patch_4">
    <path d="M 414.72 307.584 
L 414.72 41.472 
" style="fill: none; stroke: #000000; stroke-width: 0.8; stroke-linejoin: miter; stroke-linecap: square"/>
   </g>
   <g id="patch_5">
    <path d="M 57.6 307.584 
L 414.72 307.584 
" style="fill: none; stroke: #000000; stroke-width: 0.8; stroke-linejoin: miter; stroke-linecap: square"/>
   </g>
   <g id="patch_6">
    <path d="M 57.6 41.472 
L 414.72 41.472 
" style="fill: none; stroke: #000000; stroke-width: 0.8; stroke-linejoin: miter; stroke-linecap: square"/>
   </g>
   <g id="text_20">
    <!-- Thorb-Tyholt-vinkel -->
    <g transform="translate(179.714063 35.472) scale(0.12 -0.12)">
     <defs>
      <path id="DejaVuSans-54" d="M -19 4666 
L 3928 4666 
L 3928 4134 
L 2272 4134 
L 2272 0 
L 1638 0 
L 1638 4134 
L -19 4134 
L -19 4666 
z
" transform="scale(0.015625)"/>
      <path id="DejaVuSans-68" d="M 3513 2113 
L 3513 0 
L 2938 0 
L 2938 2094 
Q 2938 2591 2744 2837 
Q 2550 3084 2163 3084 
Q 1697 3084 1428 2787 
Q 1159 2491 1159 1978 
L 1159 0 
L 581 0 
L 581 4863 
L 1159 4863 
L 1159 2956 
Q 1366 3272 1645 3428 
Q 1925 3584 2291 3584 
Q 2894 3584 3203 3211 
Q 3513 2838 3513 2113 
z
" transform="scale(0.015625)"/>
      <path id="DejaVuSans-6f" d="M 1959 3097 
Q 1497 3097 1228 2736 
Q 959 2375 959 1747 
Q 959 1119 1226 758 
Q 1494 397 1959 397 
Q 2419 397 2687 759 
Q 2956 1122 2956 1747 
Q 2956 2369 2687 2733 
Q 2419 3097 1959 3097 
z
M 1959 3584 
Q 2709 3584 3137 3096 
Q 3566 2609 3566 1747 
Q 3566 888 3137 398 
Q 2709 -91 1959 -91 
Q 1206 -91 779 398 
Q 353 888 353 1747 
Q 353 2609 779 3096 
Q 1206 3584 1959 3584 
z
" transform="scale(0.015625)"/>
      <path id="DejaVuSans-72" d="M 2631 2963 
Q 2534 3019 2420 3045 
Q 2306 3072 2169 3072 
Q 1681 3072 1420 2755 
Q 1159 2438 1159 1844 
L 1159 0 
L 581 0 
L 581 3500 
L 1159 3500 
L 1159 2956 
Q 1341 3275 1631 3429 
Q 1922 3584 2338 3584 
Q 2397 3584 2469 3576 
Q 2541 3569 2628 3553 
L 2631 2963 
z
" transform="scale(0.015625)"/>
      <path id="DejaVuSans-62" d="M 3116 1747 
Q 3116 2381 2855 2742 
Q 2594 3103 2138 3103 
Q 1681 3103 1420 2742 
Q 1159 2381 1159 1747 
Q 1159 1113 1420 752 
Q 1681 391 2138 391 
Q 2594 391 2855 752 
Q 3116 1113 3116 1747 
z
M 1159 2969 
Q 1341 3281 1617 3432 
Q 1894 3584 2278 3584 
Q 2916 3584 3314 3078 
Q 3713 2572 3713 1747 
Q 3713 922 3314 415 
Q 2916 -91 2278 -91 
Q 1894 -91 1617 61 
Q 1341 213 1159 525 
L 1159 0 
L 581 0 
L 581 4863 
L 1159 4863 
L 1159 2969 
z
" transform="scale(0.015625)"/>
      <path id="DejaVuSans-2d" d="M 313 2009 
L 1997 2009 
L 1997 1497 
L 313 1497 
L 313 2009 
z
" transform="scale(0.015625)"/>
      <path id="DejaVuSans-79" d="M 2059 -325 
Q 1816 -950 1584 -1140 
Q 1353 -1331 966 -1331 
L 506 -1331 
L 506 -850 
L 844 -850 
Q 1081 -850 1212 -737 
Q 1344 -625 1503 -206 
L 1606 56 
L 191 3500 
L 800 3500 
L 1894 763 
L 2988 3500 
L 3597 3500 
L 2059 -325 
z
" transform="scale(0.015625)"/>
      <path id="DejaVuSans-6c" d="M 603 4863 
L 1178 4863 
L 1178 0 
L 603 0 
L 603 4863 
z
" transform="scale(0.015625)"/>
      <path id="DejaVuSans-76" d="M 191 3500 
L 800 3500 
L 1894 563 
L 2988 3500 
L 3597 3500 
L 2284 0 
L 1503 0 
L 191 3500 
z
" transform="scale(0.015625)"/>
      <path id="DejaVuSans-6e" d="M 3513 2113 
L 3513 0 
L 2938 0 
L 2938 2094 
Q 2938 2591 2744 2837 
Q 2550 3084 2163 3084 
Q 1697 3084 1428 2787 
Q 1159 2491 1159 1978 
L 1159 0 
L 581 0 
L 581 3500 
L 1159 3500 
L 1159 2956 
Q 1366 3272 1645 3428 
Q 1925 3584 2291 3584 
Q 2894 3584 3203 3211 
Q 3513 2838 3513 2113 
z
" transform="scale(0.015625)"/>
      <path id="DejaVuSans-6b" d="M 581 4863 
L 1159 4863 
L 1159 1991 
L 2875 3500 
L 3609 3500 
L 1753 1863 
L 3688 0 
L 2938 0 
L 1159 1709 
L 1159 0 
L 581 0 
L 581 4863 
z
" transform="scale(0.015625)"/>
     </defs>
     <use xlink:href="#DejaVuSans-54"/>
     <use xlink:href="#DejaVuSans-68" x="61.083984"/>
     <use xlink:href="#DejaVuSans-6f" x="124.462891"/>
     <use xlink:href="#DejaVuSans-72" x="185.644531"/>
     <use xlink:href="#DejaVuSans-62" x="226.757812"/>
     <use xlink:href="#DejaVuSans-2d" x="290.234375"/>
     <use xlink:href="#DejaVuSans-54" x="317.193359"/>
     <use xlink:href="#DejaVuSans-79" x="362.652344"/>
     <use xlink:href="#DejaVuSans-68" x="421.832031"/>
     <use xlink:href="#DejaVuSans-6f" x="485.210938"/>
     <use xlink:href="#DejaVuSans-6c" x="546.392578"/>
     <use xlink:href="#DejaVuSans-74" x="574.175781"/>
     <use xlink:href="#DejaVuSans-2d" x="613.384766"/>
     <use xlink:href="#DejaVuSans-76" x="646.84375"/>
     <use xlink:href="#DejaVuSans-69" x="706.023438"/>
     <use xlink:href="#DejaVuSans-6e" x="733.806641"/>
     <use xlink:href="#DejaVuSans-6b" x="797.185547"/>
     <use xlink:href="#DejaVuSans-65" x="851.470703"/>
     <use xlink:href="#DejaVuSans-6c" x="912.994141"/>
    </g>
   </g>
   <g id="legend_1">
    <g id="patch_7">
     <path d="M 64.6 64.150125 
L 190.676563 64.150125 
Q 192.676563 64.150125 192.676563 62.150125 
L 192.676563 48.472 
Q 192.676563 46.472 190.676563 46.472 
L 64.6 46.472 
Q 62.6 46.472 62.6 48.472 
L 62.6 62.150125 
Q 62.6 64.150125 64.6 64.150125 
z
" style="fill: #ffffff; opacity: 0.8; stroke: #cccccc; stroke-linejoin: miter"/>
    </g>
    <g id="line2d_19">
     <path d="M 66.6 54.570438 
L 76.6 54.570438 
L 86.6 54.570438 
" style="fill: none; stroke: #1f77b4; stroke-width: 1.5; stroke-linecap: square"/>
    </g>
    <g id="text_21">
     <!-- Thorb-Tyholt-vinkel -->
     <g transform="translate(94.6 58.070438) scale(0.1 -0.1)">
      <use xlink:href="#DejaVuSans-54"/>
      <use xlink:href="#DejaVuSans-68" x="61.083984"/>
      <use xlink:href="#DejaVuSans-6f" x="124.462891"/>
      <use xlink:href="#DejaVuSans-72" x="185.644531"/>
      <use xlink:href="#DejaVuSans-62" x="226.757812"/>
      <use xlink:href="#DejaVuSans-2d" x="290.234375"/>
      <use xlink:href="#DejaVuSans-54" x="317.193359"/>
      <use xlink:href="#DejaVuSans-79" x="362.652344"/>
      <use xlink:href="#DejaVuSans-68" x="421.832031"/>
      <use xlink:href="#DejaVuSans-6f" x="485.210938"/>
      <use xlink:href="#DejaVuSans-6c" x="546.392578"/>
      <use xlink:href="#DejaVuSans-74" x="574.175781"/>
      <use xlink:href="#DejaVuSans-2d" x="613.384766"/>
      <use xlink:href="#DejaVuSans-76" x="646.84375"/>
      <use xlink:href="#DejaVuSans-69" x="706.023438"/>
      <use xlink:href="#DejaVuSans-6e" x="733.806641"/>
      <use xlink:href="#DejaVuSans-6b" x="797.185547"/>
      <use xlink:href="#DejaVuSans-65" x="851.470703"/>
      <use xlink:href="#DejaVuSans-6c" x="912.994141"/>
     </g>
    </g>
   </g>
  </g>
 </g>
 <defs>
  <clipPath id="p87d5585348">
   <rect x="57.6" y="41.472" width="357.12" height="266.112"/>
  </clipPath>
 </defs>
</svg>
