<?xml version="1.0" encoding="utf-8" standalone="no"?>
<!DOCTYPE svg PUBLIC "-//W3C//DTD SVG 1.1//EN"
  "http://www.w3.org/Graphics/SVG/1.1/DTD/svg11.dtd">
<svg xmlns:xlink="http://www.w3.org/1999/xlink" width="627.998437pt" height="458.691562pt" viewBox="0 0 627.998437 458.691562" xmlns="http://www.w3.org/2000/svg" version="1.1">
 <metadata>
  <rdf:RDF xmlns:dc="http://purl.org/dc/elements/1.1/" xmlns:cc="http://creativecommons.org/ns#" xmlns:rdf="http://www.w3.org/1999/02/22-rdf-syntax-ns#">
   <cc:Work>
    <dc:type rdf:resource="http://purl.org/dc/dcmitype/StillImage"/>
    <dc:date>2023-03-30T13:41:31.263917</dc:date>
    <dc:format>image/svg+xml</dc:format>
    <dc:creator>
     <cc:Agent>
      <dc:title>Matplotlib v3.7.0, https://matplotlib.org/</dc:title>
     </cc:Agent>
    </dc:creator>
   </cc:Work>
  </rdf:RDF>
 </metadata>
 <defs>
  <style type="text/css">*{stroke-linejoin: round; stroke-linecap: butt}</style>
 </defs>
 <g id="figure_1">
  <g id="patch_1">
   <path d="M 0 458.691562 
L 627.998437 458.691562 
L 627.998437 0 
L 0 0 
L 0 458.691562 
z
" style="fill: none"/>
  </g>
  <g id="axes_1">
   <g id="patch_2">
    <path d="M 62.798438 414.957187 
L 620.798437 414.957187 
L 620.798437 26.877187 
L 62.798438 26.877187 
L 62.798438 414.957187 
z
" style="fill: none"/>
   </g>
   <g id="matplotlib.axis_1">
    <g id="xtick_1">
     <g id="line2d_1">
      <path d="M 70.480088 414.957187 
L 70.480088 26.877187 
" clip-path="url(#p7607dbf947)" style="fill: none; stroke: #808080; stroke-width: 0.8; stroke-linecap: square"/>
     </g>
     <g id="line2d_2">
      <defs>
       <path id="m9e0a86f997" d="M 0 0 
L 0 -5 
" style="stroke: #808080; stroke-width: 0.8"/>
      </defs>
      <g>
       <use xlink:href="#m9e0a86f997" x="70.480088" y="414.957187" style="fill: #808080; stroke: #808080; stroke-width: 0.8"/>
      </g>
     </g>
     <g id="text_1">
      <!-- 70 -->
      <g style="fill: #808080" transform="translate(60.936338 429.854844) scale(0.15 -0.15)">
       <defs>
        <path id="DejaVuSans-37" d="M 525 4666 
L 3525 4666 
L 3525 4397 
L 1831 0 
L 1172 0 
L 2766 4134 
L 525 4134 
L 525 4666 
z
" transform="scale(0.015625)"/>
        <path id="DejaVuSans-30" d="M 2034 4250 
Q 1547 4250 1301 3770 
Q 1056 3291 1056 2328 
Q 1056 1369 1301 889 
Q 1547 409 2034 409 
Q 2525 409 2770 889 
Q 3016 1369 3016 2328 
Q 3016 3291 2770 3770 
Q 2525 4250 2034 4250 
z
M 2034 4750 
Q 2819 4750 3233 4129 
Q 3647 3509 3647 2328 
Q 3647 1150 3233 529 
Q 2819 -91 2034 -91 
Q 1250 -91 836 529 
Q 422 1150 422 2328 
Q 422 3509 836 4129 
Q 1250 4750 2034 4750 
z
" transform="scale(0.015625)"/>
       </defs>
       <use xlink:href="#DejaVuSans-37"/>
       <use xlink:href="#DejaVuSans-30" x="63.623047"/>
      </g>
     </g>
    </g>
    <g id="xtick_2">
     <g id="line2d_3">
      <path d="M 132.661116 414.957187 
L 132.661116 26.877187 
" clip-path="url(#p7607dbf947)" style="fill: none; stroke: #808080; stroke-width: 0.8; stroke-linecap: square"/>
     </g>
     <g id="line2d_4">
      <g>
       <use xlink:href="#m9e0a86f997" x="132.661116" y="414.957187" style="fill: #808080; stroke: #808080; stroke-width: 0.8"/>
      </g>
     </g>
     <g id="text_2">
      <!-- 75 -->
      <g style="fill: #808080" transform="translate(123.117366 429.854844) scale(0.15 -0.15)">
       <defs>
        <path id="DejaVuSans-35" d="M 691 4666 
L 3169 4666 
L 3169 4134 
L 1269 4134 
L 1269 2991 
Q 1406 3038 1543 3061 
Q 1681 3084 1819 3084 
Q 2600 3084 3056 2656 
Q 3513 2228 3513 1497 
Q 3513 744 3044 326 
Q 2575 -91 1722 -91 
Q 1428 -91 1123 -41 
Q 819 9 494 109 
L 494 744 
Q 775 591 1075 516 
Q 1375 441 1709 441 
Q 2250 441 2565 725 
Q 2881 1009 2881 1497 
Q 2881 1984 2565 2268 
Q 2250 2553 1709 2553 
Q 1456 2553 1204 2497 
Q 953 2441 691 2322 
L 691 4666 
z
" transform="scale(0.015625)"/>
       </defs>
       <use xlink:href="#DejaVuSans-37"/>
       <use xlink:href="#DejaVuSans-35" x="63.623047"/>
      </g>
     </g>
    </g>
    <g id="xtick_3">
     <g id="line2d_5">
      <path d="M 194.842144 414.957187 
L 194.842144 26.877187 
" clip-path="url(#p7607dbf947)" style="fill: none; stroke: #808080; stroke-width: 0.8; stroke-linecap: square"/>
     </g>
     <g id="line2d_6">
      <g>
       <use xlink:href="#m9e0a86f997" x="194.842144" y="414.957187" style="fill: #808080; stroke: #808080; stroke-width: 0.8"/>
      </g>
     </g>
     <g id="text_3">
      <!-- 80 -->
      <g style="fill: #808080" transform="translate(185.298394 429.854844) scale(0.15 -0.15)">
       <defs>
        <path id="DejaVuSans-38" d="M 2034 2216 
Q 1584 2216 1326 1975 
Q 1069 1734 1069 1313 
Q 1069 891 1326 650 
Q 1584 409 2034 409 
Q 2484 409 2743 651 
Q 3003 894 3003 1313 
Q 3003 1734 2745 1975 
Q 2488 2216 2034 2216 
z
M 1403 2484 
Q 997 2584 770 2862 
Q 544 3141 544 3541 
Q 544 4100 942 4425 
Q 1341 4750 2034 4750 
Q 2731 4750 3128 4425 
Q 3525 4100 3525 3541 
Q 3525 3141 3298 2862 
Q 3072 2584 2669 2484 
Q 3125 2378 3379 2068 
Q 3634 1759 3634 1313 
Q 3634 634 3220 271 
Q 2806 -91 2034 -91 
Q 1263 -91 848 271 
Q 434 634 434 1313 
Q 434 1759 690 2068 
Q 947 2378 1403 2484 
z
M 1172 3481 
Q 1172 3119 1398 2916 
Q 1625 2713 2034 2713 
Q 2441 2713 2670 2916 
Q 2900 3119 2900 3481 
Q 2900 3844 2670 4047 
Q 2441 4250 2034 4250 
Q 1625 4250 1398 4047 
Q 1172 3844 1172 3481 
z
" transform="scale(0.015625)"/>
       </defs>
       <use xlink:href="#DejaVuSans-38"/>
       <use xlink:href="#DejaVuSans-30" x="63.623047"/>
      </g>
     </g>
    </g>
    <g id="xtick_4">
     <g id="line2d_7">
      <path d="M 257.023172 414.957187 
L 257.023172 26.877187 
" clip-path="url(#p7607dbf947)" style="fill: none; stroke: #808080; stroke-width: 0.8; stroke-linecap: square"/>
     </g>
     <g id="line2d_8">
      <g>
       <use xlink:href="#m9e0a86f997" x="257.023172" y="414.957187" style="fill: #808080; stroke: #808080; stroke-width: 0.8"/>
      </g>
     </g>
     <g id="text_4">
      <!-- 85 -->
      <g style="fill: #808080" transform="translate(247.479422 429.854844) scale(0.15 -0.15)">
       <use xlink:href="#DejaVuSans-38"/>
       <use xlink:href="#DejaVuSans-35" x="63.623047"/>
      </g>
     </g>
    </g>
    <g id="xtick_5">
     <g id="line2d_9">
      <path d="M 319.2042 414.957187 
L 319.2042 26.877187 
" clip-path="url(#p7607dbf947)" style="fill: none; stroke: #808080; stroke-width: 0.8; stroke-linecap: square"/>
     </g>
     <g id="line2d_10">
      <g>
       <use xlink:href="#m9e0a86f997" x="319.2042" y="414.957187" style="fill: #808080; stroke: #808080; stroke-width: 0.8"/>
      </g>
     </g>
     <g id="text_5">
      <!-- 90 -->
      <g style="fill: #808080" transform="translate(309.66045 429.854844) scale(0.15 -0.15)">
       <defs>
        <path id="DejaVuSans-39" d="M 703 97 
L 703 672 
Q 941 559 1184 500 
Q 1428 441 1663 441 
Q 2288 441 2617 861 
Q 2947 1281 2994 2138 
Q 2813 1869 2534 1725 
Q 2256 1581 1919 1581 
Q 1219 1581 811 2004 
Q 403 2428 403 3163 
Q 403 3881 828 4315 
Q 1253 4750 1959 4750 
Q 2769 4750 3195 4129 
Q 3622 3509 3622 2328 
Q 3622 1225 3098 567 
Q 2575 -91 1691 -91 
Q 1453 -91 1209 -44 
Q 966 3 703 97 
z
M 1959 2075 
Q 2384 2075 2632 2365 
Q 2881 2656 2881 3163 
Q 2881 3666 2632 3958 
Q 2384 4250 1959 4250 
Q 1534 4250 1286 3958 
Q 1038 3666 1038 3163 
Q 1038 2656 1286 2365 
Q 1534 2075 1959 2075 
z
" transform="scale(0.015625)"/>
       </defs>
       <use xlink:href="#DejaVuSans-39"/>
       <use xlink:href="#DejaVuSans-30" x="63.623047"/>
      </g>
     </g>
    </g>
    <g id="xtick_6">
     <g id="line2d_11">
      <path d="M 381.385228 414.957187 
L 381.385228 26.877187 
" clip-path="url(#p7607dbf947)" style="fill: none; stroke: #808080; stroke-width: 0.8; stroke-linecap: square"/>
     </g>
     <g id="line2d_12">
      <g>
       <use xlink:href="#m9e0a86f997" x="381.385228" y="414.957187" style="fill: #808080; stroke: #808080; stroke-width: 0.8"/>
      </g>
     </g>
     <g id="text_6">
      <!-- 95 -->
      <g style="fill: #808080" transform="translate(371.841478 429.854844) scale(0.15 -0.15)">
       <use xlink:href="#DejaVuSans-39"/>
       <use xlink:href="#DejaVuSans-35" x="63.623047"/>
      </g>
     </g>
    </g>
    <g id="xtick_7">
     <g id="line2d_13">
      <path d="M 443.566256 414.957187 
L 443.566256 26.877187 
" clip-path="url(#p7607dbf947)" style="fill: none; stroke: #808080; stroke-width: 0.8; stroke-linecap: square"/>
     </g>
     <g id="line2d_14">
      <g>
       <use xlink:href="#m9e0a86f997" x="443.566256" y="414.957187" style="fill: #808080; stroke: #808080; stroke-width: 0.8"/>
      </g>
     </g>
     <g id="text_7">
      <!-- 100 -->
      <g style="fill: #808080" transform="translate(429.250631 429.854844) scale(0.15 -0.15)">
       <defs>
        <path id="DejaVuSans-31" d="M 794 531 
L 1825 531 
L 1825 4091 
L 703 3866 
L 703 4441 
L 1819 4666 
L 2450 4666 
L 2450 531 
L 3481 531 
L 3481 0 
L 794 0 
L 794 531 
z
" transform="scale(0.015625)"/>
       </defs>
       <use xlink:href="#DejaVuSans-31"/>
       <use xlink:href="#DejaVuSans-30" x="63.623047"/>
       <use xlink:href="#DejaVuSans-30" x="127.246094"/>
      </g>
     </g>
    </g>
    <g id="xtick_8">
     <g id="line2d_15">
      <path d="M 505.747284 414.957187 
L 505.747284 26.877187 
" clip-path="url(#p7607dbf947)" style="fill: none; stroke: #808080; stroke-width: 0.8; stroke-linecap: square"/>
     </g>
     <g id="line2d_16">
      <g>
       <use xlink:href="#m9e0a86f997" x="505.747284" y="414.957187" style="fill: #808080; stroke: #808080; stroke-width: 0.8"/>
      </g>
     </g>
     <g id="text_8">
      <!-- 105 -->
      <g style="fill: #808080" transform="translate(491.431659 429.854844) scale(0.15 -0.15)">
       <use xlink:href="#DejaVuSans-31"/>
       <use xlink:href="#DejaVuSans-30" x="63.623047"/>
       <use xlink:href="#DejaVuSans-35" x="127.246094"/>
      </g>
     </g>
    </g>
    <g id="xtick_9">
     <g id="line2d_17">
      <path d="M 567.928312 414.957187 
L 567.928312 26.877187 
" clip-path="url(#p7607dbf947)" style="fill: none; stroke: #808080; stroke-width: 0.8; stroke-linecap: square"/>
     </g>
     <g id="line2d_18">
      <g>
       <use xlink:href="#m9e0a86f997" x="567.928312" y="414.957187" style="fill: #808080; stroke: #808080; stroke-width: 0.8"/>
      </g>
     </g>
     <g id="text_9">
      <!-- 110 -->
      <g style="fill: #808080" transform="translate(553.612687 429.854844) scale(0.15 -0.15)">
       <use xlink:href="#DejaVuSans-31"/>
       <use xlink:href="#DejaVuSans-31" x="63.623047"/>
       <use xlink:href="#DejaVuSans-30" x="127.246094"/>
      </g>
     </g>
    </g>
    <g id="text_10">
     <!-- time [s] -->
     <g style="fill: #808080" transform="translate(312.711328 448.372031) scale(0.15 -0.15)">
      <defs>
       <path id="DejaVuSans-74" d="M 1172 4494 
L 1172 3500 
L 2356 3500 
L 2356 3053 
L 1172 3053 
L 1172 1153 
Q 1172 725 1289 603 
Q 1406 481 1766 481 
L 2356 481 
L 2356 0 
L 1766 0 
Q 1100 0 847 248 
Q 594 497 594 1153 
L 594 3053 
L 172 3053 
L 172 3500 
L 594 3500 
L 594 4494 
L 1172 4494 
z
" transform="scale(0.015625)"/>
       <path id="DejaVuSans-69" d="M 603 3500 
L 1178 3500 
L 1178 0 
L 603 0 
L 603 3500 
z
M 603 4863 
L 1178 4863 
L 1178 4134 
L 603 4134 
L 603 4863 
z
" transform="scale(0.015625)"/>
       <path id="DejaVuSans-6d" d="M 3328 2828 
Q 3544 3216 3844 3400 
Q 4144 3584 4550 3584 
Q 5097 3584 5394 3201 
Q 5691 2819 5691 2113 
L 5691 0 
L 5113 0 
L 5113 2094 
Q 5113 2597 4934 2840 
Q 4756 3084 4391 3084 
Q 3944 3084 3684 2787 
Q 3425 2491 3425 1978 
L 3425 0 
L 2847 0 
L 2847 2094 
Q 2847 2600 2669 2842 
Q 2491 3084 2119 3084 
Q 1678 3084 1418 2786 
Q 1159 2488 1159 1978 
L 1159 0 
L 581 0 
L 581 3500 
L 1159 3500 
L 1159 2956 
Q 1356 3278 1631 3431 
Q 1906 3584 2284 3584 
Q 2666 3584 2933 3390 
Q 3200 3197 3328 2828 
z
" transform="scale(0.015625)"/>
       <path id="DejaVuSans-65" d="M 3597 1894 
L 3597 1613 
L 953 1613 
Q 991 1019 1311 708 
Q 1631 397 2203 397 
Q 2534 397 2845 478 
Q 3156 559 3463 722 
L 3463 178 
Q 3153 47 2828 -22 
Q 2503 -91 2169 -91 
Q 1331 -91 842 396 
Q 353 884 353 1716 
Q 353 2575 817 3079 
Q 1281 3584 2069 3584 
Q 2775 3584 3186 3129 
Q 3597 2675 3597 1894 
z
M 3022 2063 
Q 3016 2534 2758 2815 
Q 2500 3097 2075 3097 
Q 1594 3097 1305 2825 
Q 1016 2553 972 2059 
L 3022 2063 
z
" transform="scale(0.015625)"/>
       <path id="DejaVuSans-20" transform="scale(0.015625)"/>
       <path id="DejaVuSans-5b" d="M 550 4863 
L 1875 4863 
L 1875 4416 
L 1125 4416 
L 1125 -397 
L 1875 -397 
L 1875 -844 
L 550 -844 
L 550 4863 
z
" transform="scale(0.015625)"/>
       <path id="DejaVuSans-73" d="M 2834 3397 
L 2834 2853 
Q 2591 2978 2328 3040 
Q 2066 3103 1784 3103 
Q 1356 3103 1142 2972 
Q 928 2841 928 2578 
Q 928 2378 1081 2264 
Q 1234 2150 1697 2047 
L 1894 2003 
Q 2506 1872 2764 1633 
Q 3022 1394 3022 966 
Q 3022 478 2636 193 
Q 2250 -91 1575 -91 
Q 1294 -91 989 -36 
Q 684 19 347 128 
L 347 722 
Q 666 556 975 473 
Q 1284 391 1588 391 
Q 1994 391 2212 530 
Q 2431 669 2431 922 
Q 2431 1156 2273 1281 
Q 2116 1406 1581 1522 
L 1381 1569 
Q 847 1681 609 1914 
Q 372 2147 372 2553 
Q 372 3047 722 3315 
Q 1072 3584 1716 3584 
Q 2034 3584 2315 3537 
Q 2597 3491 2834 3397 
z
" transform="scale(0.015625)"/>
       <path id="DejaVuSans-5d" d="M 1947 4863 
L 1947 -844 
L 622 -844 
L 622 -397 
L 1369 -397 
L 1369 4416 
L 622 4416 
L 622 4863 
L 1947 4863 
z
" transform="scale(0.015625)"/>
      </defs>
      <use xlink:href="#DejaVuSans-74"/>
      <use xlink:href="#DejaVuSans-69" x="39.208984"/>
      <use xlink:href="#DejaVuSans-6d" x="66.992188"/>
      <use xlink:href="#DejaVuSans-65" x="164.404297"/>
      <use xlink:href="#DejaVuSans-20" x="225.927734"/>
      <use xlink:href="#DejaVuSans-5b" x="257.714844"/>
      <use xlink:href="#DejaVuSans-73" x="296.728516"/>
      <use xlink:href="#DejaVuSans-5d" x="348.828125"/>
     </g>
    </g>
   </g>
   <g id="matplotlib.axis_2">
    <g id="ytick_1">
     <g id="line2d_19">
      <path d="M 62.798438 406.352936 
L 620.798437 406.352936 
" clip-path="url(#p7607dbf947)" style="fill: none; stroke: #808080; stroke-width: 0.8; stroke-linecap: square"/>
     </g>
     <g id="line2d_20">
      <defs>
       <path id="m18f0839e10" d="M 0 0 
L 5 0 
" style="stroke: #808080; stroke-width: 0.8"/>
      </defs>
      <g>
       <use xlink:href="#m18f0839e10" x="62.798438" y="406.352936" style="fill: #808080; stroke: #808080; stroke-width: 0.8"/>
      </g>
     </g>
     <g id="text_11">
      <!-- 78.0 -->
      <g style="fill: #808080" transform="translate(25.9 412.051765) scale(0.15 -0.15)">
       <defs>
        <path id="DejaVuSans-2e" d="M 684 794 
L 1344 794 
L 1344 0 
L 684 0 
L 684 794 
z
" transform="scale(0.015625)"/>
       </defs>
       <use xlink:href="#DejaVuSans-37"/>
       <use xlink:href="#DejaVuSans-38" x="63.623047"/>
       <use xlink:href="#DejaVuSans-2e" x="127.246094"/>
       <use xlink:href="#DejaVuSans-30" x="159.033203"/>
      </g>
     </g>
    </g>
    <g id="ytick_2">
     <g id="line2d_21">
      <path d="M 62.798438 354.445645 
L 620.798437 354.445645 
" clip-path="url(#p7607dbf947)" style="fill: none; stroke: #808080; stroke-width: 0.8; stroke-linecap: square"/>
     </g>
     <g id="line2d_22">
      <g>
       <use xlink:href="#m18f0839e10" x="62.798438" y="354.445645" style="fill: #808080; stroke: #808080; stroke-width: 0.8"/>
      </g>
     </g>
     <g id="text_12">
      <!-- 78.2 -->
      <g style="fill: #808080" transform="translate(25.9 360.144473) scale(0.15 -0.15)">
       <defs>
        <path id="DejaVuSans-32" d="M 1228 531 
L 3431 531 
L 3431 0 
L 469 0 
L 469 531 
Q 828 903 1448 1529 
Q 2069 2156 2228 2338 
Q 2531 2678 2651 2914 
Q 2772 3150 2772 3378 
Q 2772 3750 2511 3984 
Q 2250 4219 1831 4219 
Q 1534 4219 1204 4116 
Q 875 4013 500 3803 
L 500 4441 
Q 881 4594 1212 4672 
Q 1544 4750 1819 4750 
Q 2544 4750 2975 4387 
Q 3406 4025 3406 3419 
Q 3406 3131 3298 2873 
Q 3191 2616 2906 2266 
Q 2828 2175 2409 1742 
Q 1991 1309 1228 531 
z
" transform="scale(0.015625)"/>
       </defs>
       <use xlink:href="#DejaVuSans-37"/>
       <use xlink:href="#DejaVuSans-38" x="63.623047"/>
       <use xlink:href="#DejaVuSans-2e" x="127.246094"/>
       <use xlink:href="#DejaVuSans-32" x="159.033203"/>
      </g>
     </g>
    </g>
    <g id="ytick_3">
     <g id="line2d_23">
      <path d="M 62.798438 302.538353 
L 620.798437 302.538353 
" clip-path="url(#p7607dbf947)" style="fill: none; stroke: #808080; stroke-width: 0.8; stroke-linecap: square"/>
     </g>
     <g id="line2d_24">
      <g>
       <use xlink:href="#m18f0839e10" x="62.798438" y="302.538353" style="fill: #808080; stroke: #808080; stroke-width: 0.8"/>
      </g>
     </g>
     <g id="text_13">
      <!-- 78.4 -->
      <g style="fill: #808080" transform="translate(25.9 308.237182) scale(0.15 -0.15)">
       <defs>
        <path id="DejaVuSans-34" d="M 2419 4116 
L 825 1625 
L 2419 1625 
L 2419 4116 
z
M 2253 4666 
L 3047 4666 
L 3047 1625 
L 3713 1625 
L 3713 1100 
L 3047 1100 
L 3047 0 
L 2419 0 
L 2419 1100 
L 313 1100 
L 313 1709 
L 2253 4666 
z
" transform="scale(0.015625)"/>
       </defs>
       <use xlink:href="#DejaVuSans-37"/>
       <use xlink:href="#DejaVuSans-38" x="63.623047"/>
       <use xlink:href="#DejaVuSans-2e" x="127.246094"/>
       <use xlink:href="#DejaVuSans-34" x="159.033203"/>
      </g>
     </g>
    </g>
    <g id="ytick_4">
     <g id="line2d_25">
      <path d="M 62.798438 250.631062 
L 620.798437 250.631062 
" clip-path="url(#p7607dbf947)" style="fill: none; stroke: #808080; stroke-width: 0.8; stroke-linecap: square"/>
     </g>
     <g id="line2d_26">
      <g>
       <use xlink:href="#m18f0839e10" x="62.798438" y="250.631062" style="fill: #808080; stroke: #808080; stroke-width: 0.8"/>
      </g>
     </g>
     <g id="text_14">
      <!-- 78.6 -->
      <g style="fill: #808080" transform="translate(25.9 256.32989) scale(0.15 -0.15)">
       <defs>
        <path id="DejaVuSans-36" d="M 2113 2584 
Q 1688 2584 1439 2293 
Q 1191 2003 1191 1497 
Q 1191 994 1439 701 
Q 1688 409 2113 409 
Q 2538 409 2786 701 
Q 3034 994 3034 1497 
Q 3034 2003 2786 2293 
Q 2538 2584 2113 2584 
z
M 3366 4563 
L 3366 3988 
Q 3128 4100 2886 4159 
Q 2644 4219 2406 4219 
Q 1781 4219 1451 3797 
Q 1122 3375 1075 2522 
Q 1259 2794 1537 2939 
Q 1816 3084 2150 3084 
Q 2853 3084 3261 2657 
Q 3669 2231 3669 1497 
Q 3669 778 3244 343 
Q 2819 -91 2113 -91 
Q 1303 -91 875 529 
Q 447 1150 447 2328 
Q 447 3434 972 4092 
Q 1497 4750 2381 4750 
Q 2619 4750 2861 4703 
Q 3103 4656 3366 4563 
z
" transform="scale(0.015625)"/>
       </defs>
       <use xlink:href="#DejaVuSans-37"/>
       <use xlink:href="#DejaVuSans-38" x="63.623047"/>
       <use xlink:href="#DejaVuSans-2e" x="127.246094"/>
       <use xlink:href="#DejaVuSans-36" x="159.033203"/>
      </g>
     </g>
    </g>
    <g id="ytick_5">
     <g id="line2d_27">
      <path d="M 62.798438 198.72377 
L 620.798437 198.72377 
" clip-path="url(#p7607dbf947)" style="fill: none; stroke: #808080; stroke-width: 0.8; stroke-linecap: square"/>
     </g>
     <g id="line2d_28">
      <g>
       <use xlink:href="#m18f0839e10" x="62.798438" y="198.72377" style="fill: #808080; stroke: #808080; stroke-width: 0.8"/>
      </g>
     </g>
     <g id="text_15">
      <!-- 78.8 -->
      <g style="fill: #808080" transform="translate(25.9 204.422599) scale(0.15 -0.15)">
       <use xlink:href="#DejaVuSans-37"/>
       <use xlink:href="#DejaVuSans-38" x="63.623047"/>
       <use xlink:href="#DejaVuSans-2e" x="127.246094"/>
       <use xlink:href="#DejaVuSans-38" x="159.033203"/>
      </g>
     </g>
    </g>
    <g id="ytick_6">
     <g id="line2d_29">
      <path d="M 62.798438 146.816479 
L 620.798437 146.816479 
" clip-path="url(#p7607dbf947)" style="fill: none; stroke: #808080; stroke-width: 0.8; stroke-linecap: square"/>
     </g>
     <g id="line2d_30">
      <g>
       <use xlink:href="#m18f0839e10" x="62.798438" y="146.816479" style="fill: #808080; stroke: #808080; stroke-width: 0.8"/>
      </g>
     </g>
     <g id="text_16">
      <!-- 79.0 -->
      <g style="fill: #808080" transform="translate(25.9 152.515307) scale(0.15 -0.15)">
       <use xlink:href="#DejaVuSans-37"/>
       <use xlink:href="#DejaVuSans-39" x="63.623047"/>
       <use xlink:href="#DejaVuSans-2e" x="127.246094"/>
       <use xlink:href="#DejaVuSans-30" x="159.033203"/>
      </g>
     </g>
    </g>
    <g id="ytick_7">
     <g id="line2d_31">
      <path d="M 62.798438 94.909188 
L 620.798437 94.909188 
" clip-path="url(#p7607dbf947)" style="fill: none; stroke: #808080; stroke-width: 0.8; stroke-linecap: square"/>
     </g>
     <g id="line2d_32">
      <g>
       <use xlink:href="#m18f0839e10" x="62.798438" y="94.909188" style="fill: #808080; stroke: #808080; stroke-width: 0.8"/>
      </g>
     </g>
     <g id="text_17">
      <!-- 79.2 -->
      <g style="fill: #808080" transform="translate(25.9 100.608016) scale(0.15 -0.15)">
       <use xlink:href="#DejaVuSans-37"/>
       <use xlink:href="#DejaVuSans-39" x="63.623047"/>
       <use xlink:href="#DejaVuSans-2e" x="127.246094"/>
       <use xlink:href="#DejaVuSans-32" x="159.033203"/>
      </g>
     </g>
    </g>
    <g id="ytick_8">
     <g id="line2d_33">
      <path d="M 62.798438 43.001896 
L 620.798437 43.001896 
" clip-path="url(#p7607dbf947)" style="fill: none; stroke: #808080; stroke-width: 0.8; stroke-linecap: square"/>
     </g>
     <g id="line2d_34">
      <g>
       <use xlink:href="#m18f0839e10" x="62.798438" y="43.001896" style="fill: #808080; stroke: #808080; stroke-width: 0.8"/>
      </g>
     </g>
     <g id="text_18">
      <!-- 79.4 -->
      <g style="fill: #808080" transform="translate(25.9 48.700724) scale(0.15 -0.15)">
       <use xlink:href="#DejaVuSans-37"/>
       <use xlink:href="#DejaVuSans-39" x="63.623047"/>
       <use xlink:href="#DejaVuSans-2e" x="127.246094"/>
       <use xlink:href="#DejaVuSans-34" x="159.033203"/>
      </g>
     </g>
    </g>
    <g id="text_19">
     <!-- $\theta$ [deg] -->
     <g style="fill: #808080" transform="translate(18.75 247.917187) rotate(-90) scale(0.15 -0.15)">
      <defs>
       <path id="DejaVuSans-Oblique-3b8" d="M 2913 2219 
L 925 2219 
Q 791 1284 928 888 
Q 1100 400 1566 400 
Q 2034 400 2391 891 
Q 2703 1322 2913 2219 
z
M 3009 2750 
Q 3094 3638 2984 3950 
Q 2813 4444 2353 4444 
Q 1875 4444 1525 3956 
Q 1250 3563 1034 2750 
L 3009 2750 
z
M 2444 4913 
Q 3194 4913 3494 4250 
Q 3794 3591 3566 2422 
Q 3341 1256 2781 594 
Q 2225 -72 1475 -72 
Q 722 -72 425 594 
Q 128 1256 353 2422 
Q 581 3591 1134 4250 
Q 1691 4913 2444 4913 
z
" transform="scale(0.015625)"/>
       <path id="DejaVuSans-64" d="M 2906 2969 
L 2906 4863 
L 3481 4863 
L 3481 0 
L 2906 0 
L 2906 525 
Q 2725 213 2448 61 
Q 2172 -91 1784 -91 
Q 1150 -91 751 415 
Q 353 922 353 1747 
Q 353 2572 751 3078 
Q 1150 3584 1784 3584 
Q 2172 3584 2448 3432 
Q 2725 3281 2906 2969 
z
M 947 1747 
Q 947 1113 1208 752 
Q 1469 391 1925 391 
Q 2381 391 2643 752 
Q 2906 1113 2906 1747 
Q 2906 2381 2643 2742 
Q 2381 3103 1925 3103 
Q 1469 3103 1208 2742 
Q 947 2381 947 1747 
z
" transform="scale(0.015625)"/>
       <path id="DejaVuSans-67" d="M 2906 1791 
Q 2906 2416 2648 2759 
Q 2391 3103 1925 3103 
Q 1463 3103 1205 2759 
Q 947 2416 947 1791 
Q 947 1169 1205 825 
Q 1463 481 1925 481 
Q 2391 481 2648 825 
Q 2906 1169 2906 1791 
z
M 3481 434 
Q 3481 -459 3084 -895 
Q 2688 -1331 1869 -1331 
Q 1566 -1331 1297 -1286 
Q 1028 -1241 775 -1147 
L 775 -588 
Q 1028 -725 1275 -790 
Q 1522 -856 1778 -856 
Q 2344 -856 2625 -561 
Q 2906 -266 2906 331 
L 2906 616 
Q 2728 306 2450 153 
Q 2172 0 1784 0 
Q 1141 0 747 490 
Q 353 981 353 1791 
Q 353 2603 747 3093 
Q 1141 3584 1784 3584 
Q 2172 3584 2450 3431 
Q 2728 3278 2906 2969 
L 2906 3500 
L 3481 3500 
L 3481 434 
z
" transform="scale(0.015625)"/>
      </defs>
      <use xlink:href="#DejaVuSans-Oblique-3b8" transform="translate(0 0.234375)"/>
      <use xlink:href="#DejaVuSans-20" transform="translate(61.181641 0.234375)"/>
      <use xlink:href="#DejaVuSans-5b" transform="translate(92.96875 0.234375)"/>
      <use xlink:href="#DejaVuSans-64" transform="translate(131.982422 0.234375)"/>
      <use xlink:href="#DejaVuSans-65" transform="translate(195.458984 0.234375)"/>
      <use xlink:href="#DejaVuSans-67" transform="translate(256.982422 0.234375)"/>
      <use xlink:href="#DejaVuSans-5d" transform="translate(320.458984 0.234375)"/>
     </g>
    </g>
   </g>
   <g id="line2d_35">
    <path d="M 88.162074 80.922847 
L 89.032608 80.922847 
L 89.156572 52.077324 
L 89.529882 52.077324 
L 89.654978 43.078105 
L 89.778358 43.078105 
L 89.903267 77.385166 
L 90.524592 77.385166 
L 90.648743 48.384339 
L 91.270367 48.384339 
L 91.395089 43.078105 
L 92.016949 43.078105 
L 92.141448 37.792028 
L 92.514385 37.792028 
L 92.638697 32.12176 
L 92.763321 32.12176 
L 92.888404 26.877188 
L 93.262522 26.877188 
L 93.633594 35.825844 
L 93.758192 35.825844 
L 93.883077 30.584769 
L 94.007003 30.584769 
L 94.130582 26.877188 
L 94.255466 26.877188 
L 94.381669 32.12176 
L 94.752964 32.12176 
L 94.877227 60.959454 
L 95.001589 60.959454 
L 95.126274 66.686618 
L 95.499037 66.686618 
L 95.629468 72.02572 
L 96.245769 72.02572 
L 96.370355 66.686618 
L 96.991655 66.686618 
L 97.116702 98.915792 
L 97.490285 98.915792 
L 97.613055 93.527506 
L 98.000617 93.527506 
L 98.113327 98.915792 
L 98.234915 98.915792 
L 98.359228 125.814731 
L 98.731729 125.814731 
L 98.8568 134.527446 
L 100.722194 134.527446 
L 100.849255 154.7915 
L 100.970955 154.7915 
L 101.096884 129.074132 
L 101.220438 129.074132 
L 101.343805 151.99545 
L 101.717774 151.99545 
L 101.843181 146.53259 
L 101.966337 146.53259 
L 102.090425 117.813822 
L 102.218481 117.813822 
L 102.338925 146.53259 
L 102.960263 146.53259 
L 103.086118 137.964603 
L 103.209908 137.964603 
L 103.333847 143.411879 
L 103.45837 143.411879 
L 103.582546 149.301239 
L 103.707169 149.301239 
L 103.833098 176.166668 
L 103.955732 176.166668 
L 104.082295 181.705939 
L 104.45568 181.705939 
L 104.577741 187.266257 
L 105.199427 187.266257 
L 105.322856 193.27795 
L 105.448014 193.27795 
L 105.574863 187.266257 
L 106.193391 187.266257 
L 106.319121 193.27795 
L 106.940297 193.27795 
L 107.068763 198.882363 
L 107.193386 198.882363 
L 107.316442 193.27795 
L 107.438018 193.27795 
L 107.568213 198.882363 
L 109.18334 198.882363 
L 109.30376 204.508411 
L 109.428296 204.508411 
L 109.553803 198.882363 
L 109.926578 198.882363 
L 110.049758 207.458478 
L 110.423479 207.458478 
L 110.54615 201.838383 
L 110.919584 201.838383 
L 111.044294 195.809864 
L 111.173407 195.809864 
L 111.295705 199.014773 
L 111.416982 199.014773 
L 111.542762 172.278567 
L 111.914704 172.278567 
L 112.039402 190.233977 
L 112.660578 190.233977 
L 112.787477 195.809864 
L 112.910086 195.809864 
L 113.034522 201.838383 
L 113.407298 201.838383 
L 113.53151 198.882363 
L 114.155746 198.882363 
L 114.27767 207.458478 
L 115.3976 207.458478 
L 115.523032 180.480803 
L 115.893954 180.480803 
L 116.019759 213.100263 
L 117.884904 213.100263 
L 118.010758 186.073059 
L 118.133018 186.073059 
L 118.25789 213.100263 
L 118.383695 213.100263 
L 118.506975 219.199929 
L 118.879775 219.199929 
L 119.00844 213.100263 
L 119.37838 213.100263 
L 119.502891 207.458478 
L 119.876575 207.458478 
L 120.002193 210.652518 
L 120.125286 210.652518 
L 120.257856 177.821667 
L 120.37202 177.821667 
L 120.496557 172.278567 
L 121.615343 172.278567 
L 121.740314 195.809864 
L 121.863607 195.809864 
L 121.998216 168.934501 
L 122.112505 168.934501 
L 122.238496 201.838383 
L 122.613908 201.838383 
L 122.734676 207.458478 
L 122.858814 207.458478 
L 122.9834 180.480803 
L 123.106779 180.480803 
L 123.234959 207.458478 
L 123.607386 207.458478 
L 123.73094 174.910063 
L 123.853549 174.910063 
L 123.978247 180.480803 
L 124.599161 180.480803 
L 124.726695 174.910063 
L 125.346888 174.910063 
L 125.47089 168.934501 
L 127.336457 168.934501 
L 127.462324 174.910063 
L 128.082132 174.910063 
L 128.209193 201.838383 
L 128.579618 201.838383 
L 128.70347 195.809864 
L 128.82864 195.809864 
L 128.952853 204.606682 
L 129.077128 204.606682 
L 129.204064 199.014773 
L 129.574477 199.014773 
L 129.698752 193.444021 
L 129.822554 193.444021 
L 129.949142 187.468293 
L 130.072049 187.468293 
L 130.195802 193.444021 
L 130.81719 193.444021 
L 130.94343 217.067481 
L 131.067157 217.067481 
L 131.1928 222.692305 
L 131.568772 222.692305 
L 131.690037 220.300203 
L 131.817297 220.300203 
L 131.944494 249.406377 
L 132.062937 249.406377 
L 132.190259 255.113473 
L 133.056503 255.113473 
L 133.18314 260.842568 
L 133.305227 260.842568 
L 133.435757 255.113473 
L 133.554125 255.113473 
L 133.679034 246.352868 
L 133.805585 246.352868 
L 133.927112 255.113473 
L 134.051038 255.113473 
L 134.175189 260.842568 
L 134.797882 260.842568 
L 134.922344 225.954092 
L 135.302394 225.954092 
L 135.419494 217.09683 
L 135.793736 217.09683 
L 135.918695 198.882363 
L 136.538752 198.882363 
L 136.663151 193.27795 
L 136.793234 193.27795 
L 136.91205 162.774345 
L 137.036648 162.774345 
L 137.169603 189.933698 
L 137.284924 189.933698 
L 137.408988 171.816046 
L 137.782547 171.816046 
L 137.910528 166.261173 
L 138.285989 166.261173 
L 138.405227 160.302637 
L 138.529502 160.302637 
L 138.651775 154.7915 
L 139.025371 154.7915 
L 139.152482 125.814731 
L 139.522944 125.814731 
L 139.648214 131.272837 
L 139.772402 131.272837 
L 139.898418 137.174055 
L 140.269564 137.174055 
L 140.395791 142.675509 
L 140.518537 142.675509 
L 140.642862 148.198232 
L 140.7669 148.198232 
L 140.892916 154.169213 
L 141.515983 154.169213 
L 141.637149 148.198232 
L 142.259208 148.198232 
L 142.383607 183.421301 
L 143.005828 183.421301 
L 143.133672 177.392378 
L 143.255447 177.392378 
L 143.379971 204.508411 
L 143.503114 204.508411 
L 143.627551 177.392378 
L 143.751664 177.392378 
L 143.879347 204.508411 
L 145.749665 204.508411 
L 145.867262 213.100263 
L 145.991922 213.100263 
L 146.118274 204.508411 
L 146.238943 204.508411 
L 146.367185 207.458478 
L 146.48753 207.458478 
L 146.615996 201.838383 
L 146.98749 201.838383 
L 147.109489 195.809864 
L 147.482265 195.809864 
L 147.610818 190.233977 
L 147.731163 190.233977 
L 147.856856 193.444021 
L 148.478517 193.444021 
L 148.601747 184.679192 
L 148.727527 184.679192 
L 148.850198 190.233977 
L 148.974858 190.233977 
L 149.098772 195.809864 
L 149.222575 195.809864 
L 149.348516 222.692305 
L 149.473264 222.692305 
L 149.600063 201.838383 
L 149.970016 201.838383 
L 150.096305 198.882363 
L 150.218043 198.882363 
L 150.343574 225.954092 
L 150.467016 225.954092 
L 150.594301 198.882363 
L 151.213102 198.882363 
L 151.340361 204.508411 
L 151.710836 204.508411 
L 151.834974 231.629791 
L 152.208881 231.629791 
L 152.332634 237.766111 
L 152.706653 237.766111 
L 152.833166 231.629791 
L 153.202484 231.629791 
L 153.330216 237.766111 
L 153.452166 237.766111 
L 153.577324 231.629791 
L 154.695836 231.629791 
L 154.820285 204.508411 
L 155.44161 204.508411 
L 155.573496 198.882363 
L 155.692523 198.882363 
L 155.814522 193.27795 
L 155.941757 193.27795 
L 156.062699 187.266257 
L 156.436631 187.266257 
L 156.562821 181.705939 
L 156.685604 181.705939 
L 156.81014 190.233977 
L 157.183003 190.233977 
L 157.316045 184.679192 
L 157.68101 184.679192 
L 157.807586 181.705939 
L 157.928852 181.705939 
L 158.053027 208.625985 
L 159.177534 208.625985 
L 159.298277 214.235422 
L 159.422378 214.235422 
L 159.546018 208.625985 
L 159.919142 208.625985 
L 160.044884 214.235422 
L 160.916115 214.235422 
L 161.038002 222.692305 
L 161.162539 222.692305 
L 161.286901 220.300203 
L 161.410827 220.300203 
L 161.535078 228.773717 
L 161.659663 228.773717 
L 161.78364 220.300203 
L 162.65548 220.300203 
L 162.778549 225.954092 
L 163.400906 225.954092 
L 163.529186 234.443105 
L 164.395231 234.443105 
L 164.521757 228.773717 
L 164.892579 228.773717 
L 165.020386 204.606682 
L 165.391222 204.606682 
L 165.514241 199.014773 
L 165.888048 199.014773 
L 166.014288 203.16236 
L 166.136822 203.16236 
L 166.264529 208.750806 
L 166.3848 208.750806 
L 166.510231 199.014773 
L 166.636571 199.014773 
L 166.761281 208.750806 
L 166.883143 208.750806 
L 167.007605 199.014773 
L 167.132266 199.014773 
L 167.259637 204.606682 
L 167.636914 204.606682 
L 167.753442 210.652518 
L 168.624623 210.652518 
L 168.748052 204.606682 
L 169.869935 204.606682 
L 169.993774 210.652518 
L 170.116532 210.652518 
L 170.240471 187.675014 
L 170.86263 187.675014 
L 170.989467 204.606682 
L 171.359257 204.606682 
L 171.483557 177.821667 
L 171.608703 177.821667 
L 171.732828 204.606682 
L 171.857091 204.606682 
L 171.983119 210.652518 
L 172.604445 210.652518 
L 172.729802 183.814749 
L 173.102701 183.814749 
L 173.224738 216.288751 
L 173.602537 216.288751 
L 173.724524 189.401818 
L 173.847618 189.401818 
L 173.973074 210.652518 
L 174.593777 210.652518 
L 174.71814 214.360471 
L 175.84374 214.360471 
L 175.961026 210.652518 
L 176.334585 210.652518 
L 176.460564 216.288751 
L 176.831822 216.288751 
L 176.956731 221.946732 
L 177.085446 221.946732 
L 177.206885 240.134358 
L 177.57777 240.134358 
L 177.70309 213.100263 
L 178.076611 213.100263 
L 178.200974 207.458478 
L 178.326007 207.458478 
L 178.449026 221.946732 
L 179.32104 221.946732 
L 179.445738 216.288751 
L 180.562447 216.288751 
L 180.690267 220.425498 
L 181.059784 220.425498 
L 181.188075 193.687512 
L 181.557319 193.687512 
L 181.684952 187.675014 
L 182.055028 187.675014 
L 182.178955 182.11395 
L 182.304101 182.11395 
L 182.429905 158.950258 
L 182.552837 158.950258 
L 182.678269 153.441589 
L 182.801238 153.441589 
L 182.927876 176.573937 
L 183.050024 176.573937 
L 183.175754 157.431761 
L 183.298189 157.431761 
L 183.42459 151.526477 
L 184.294901 151.526477 
L 184.420021 146.064468 
L 184.790969 146.064468 
L 184.918639 151.526477 
L 185.537576 151.526477 
L 185.664848 176.573937 
L 185.7863 176.573937 
L 186.036455 147.953788 
L 186.158665 182.11395 
L 186.546302 182.11395 
L 186.656773 158.950258 
L 187.279578 158.950258 
L 187.404139 148.987751 
L 187.775397 148.987751 
L 187.900505 158.950258 
L 188.024967 158.950258 
L 188.152885 148.987751 
L 188.772121 148.987751 
L 188.894668 154.923957 
L 189.270813 154.923957 
L 189.39285 128.108115 
L 189.519537 128.108115 
L 189.641524 154.923957 
L 190.014225 154.923957 
L 190.13896 128.108115 
L 191.757433 128.108115 
L 191.880812 122.224781 
L 192.004105 122.224781 
L 192.128927 132.290501 
L 192.253003 132.290501 
L 192.378708 105.644724 
L 192.501441 105.644724 
L 192.626984 100.233503 
L 192.999237 100.233503 
L 193.123338 109.925887 
L 193.246979 109.925887 
L 193.372622 100.233503 
L 193.496101 100.233503 
L 193.621234 109.925887 
L 194.001086 109.925887 
L 194.11923 115.35488 
L 194.258751 115.35488 
L 194.368899 105.644724 
L 194.494069 105.644724 
L 194.615397 111.495265 
L 194.739199 111.495265 
L 194.863885 138.19373 
L 194.989018 138.19373 
L 195.116962 143.697058 
L 195.237356 143.697058 
L 195.364094 133.592902 
L 195.983728 133.592902 
L 196.110391 139.098899 
L 196.483862 139.098899 
L 196.607665 160.458019 
L 196.729714 160.458019 
L 196.8541 166.013466 
L 198.470907 166.013466 
L 198.596463 160.458019 
L 198.72213 160.458019 
L 198.843247 166.013466 
L 199.714216 166.013466 
L 199.847532 139.098899 
L 199.963363 139.098899 
L 200.08729 166.013466 
L 200.214264 166.013466 
L 200.336474 160.458019 
L 200.462515 160.458019 
L 200.585136 166.013466 
L 200.70971 166.013466 
L 200.834694 160.458019 
L 200.958695 160.458019 
L 201.085258 154.923957 
L 201.209023 154.923957 
L 201.334094 128.108115 
L 201.455907 128.108115 
L 201.580381 122.224781 
L 201.705153 122.224781 
L 201.953318 116.78322 
L 202.077282 126.830534 
L 202.204554 126.830534 
L 202.328543 121.391265 
L 203.196702 121.391265 
L 203.3214 116.78322 
L 203.445488 116.78322 
L 203.570149 122.224781 
L 203.695419 122.224781 
L 203.81758 148.987751 
L 203.943782 148.987751 
L 204.067237 154.923957 
L 204.192133 154.923957 
L 204.322316 145.919968 
L 205.683956 145.919968 
L 205.812384 140.001507 
L 205.933824 140.001507 
L 206.056495 145.919968 
L 206.429618 145.919968 
L 206.556244 140.001507 
L 206.679138 140.001507 
L 206.808002 145.919968 
L 207.673525 145.919968 
L 207.800673 140.001507 
L 207.922585 140.001507 
L 208.049372 113.144834 
L 209.663691 113.144834 
L 209.790403 122.224781 
L 210.160878 122.224781 
L 210.287652 116.78322 
L 210.410796 116.78322 
L 210.534213 90.081364 
L 210.658363 90.081364 
L 210.791443 84.70923 
L 210.907759 84.70923 
L 211.033775 89.060286 
L 211.160525 89.060286 
L 211.285695 55.246263 
L 212.415823 55.246263 
L 212.524441 89.060286 
L 212.898472 89.060286 
L 213.026702 94.842809 
L 213.145667 94.842809 
L 213.278784 84.70923 
L 213.394453 84.70923 
L 213.518467 116.78322 
L 213.891802 116.78322 
L 214.021947 90.081364 
L 214.140488 90.081364 
L 214.266355 111.362292 
L 215.632373 111.362292 
L 215.757245 116.78322 
L 215.881669 116.78322 
L 216.006442 111.362292 
L 216.130543 111.362292 
L 216.254407 116.78322 
L 216.632866 116.78322 
L 216.753559 138.0276 
L 218.36896 138.0276 
L 218.493148 143.497274 
L 219.120828 143.497274 
L 219.240427 138.0276 
L 219.61222 138.0276 
L 219.740014 132.160331 
L 219.861902 132.160331 
L 219.986836 100.168885 
L 220.357969 100.168885 
L 220.485602 104.783658 
L 221.355714 104.783658 
L 221.479964 110.159967 
L 221.603431 110.159967 
L 221.726313 100.168885 
L 221.851732 100.168885 
L 221.976803 132.160331 
L 222.099474 132.160331 
L 222.229208 138.0276 
L 222.34969 138.0276 
L 222.48849 143.497274 
L 222.846877 143.497274 
L 222.970854 138.0276 
L 223.593099 138.0276 
L 223.719302 132.160331 
L 225.08578 132.160331 
L 225.20845 160.832917 
L 225.332725 160.832917 
L 225.458505 155.354019 
L 227.572299 155.354019 
L 227.698415 160.832917 
L 227.820091 160.832917 
L 227.946132 181.941106 
L 228.318758 181.941106 
L 228.443568 191.622891 
L 228.566238 191.622891 
L 228.692814 186.098995 
L 229.063823 186.098995 
L 229.187887 153.784358 
L 229.317659 153.784358 
L 229.440093 148.350985 
L 229.561259 148.350985 
L 229.68526 180.173392 
L 229.811674 180.173392 
L 229.934507 174.692445 
L 230.061045 174.692445 
L 230.182995 180.173392 
L 230.557698 180.173392 
L 230.682607 186.098995 
L 230.805116 186.098995 
L 230.930908 191.622891 
L 231.301731 191.622891 
L 231.428344 223.71459 
L 231.551587 223.71459 
L 231.676645 187.468293 
L 232.049818 187.468293 
L 232.172924 193.444021 
L 232.29715 193.444021 
L 232.457353 203.16236 
L 233.545272 203.16236 
L 233.665456 208.750806 
L 233.789942 208.750806 
L 233.91362 193.444021 
L 234.041203 193.444021 
L 234.165304 220.140334 
L 235.282722 220.140334 
L 235.406549 225.759669 
L 235.531085 225.759669 
L 235.655622 220.140334 
L 236.027663 220.140334 
L 236.152498 211.463928 
L 237.022535 211.463928 
L 237.152244 220.140334 
L 237.27193 220.140334 
L 237.397648 214.112474 
L 237.770647 214.112474 
L 237.894263 208.537054 
L 238.054354 208.537054 
L 238.393701 176.434716 
L 238.515451 176.434716 
L 238.640236 202.982597 
L 238.765606 202.982597 
L 238.888575 176.434716 
L 239.013509 176.434716 
L 239.142012 199.89325 
L 239.510174 199.89325 
L 239.634411 205.453002 
L 240.007448 205.453002 
L 240.132158 231.981381 
L 240.754453 231.981381 
L 240.879798 228.910617 
L 241.99785 228.910617 
L 242.123754 223.285563 
L 242.743401 223.285563 
L 242.870151 194.246113 
L 243.492359 194.246113 
L 243.616721 223.285563 
L 243.741406 223.285563 
L 243.862746 194.246113 
L 243.986561 194.246113 
L 244.116445 188.268817 
L 244.235907 188.268817 
L 244.360207 194.246113 
L 244.485999 194.246113 
L 244.611655 188.268817 
L 245.728451 188.268817 
L 245.852713 161.359817 
L 246.227329 161.359817 
L 246.351268 159.253542 
L 246.724292 159.253542 
L 246.849463 153.380145 
L 246.973265 153.380145 
L 247.099244 129.852349 
L 247.469544 129.852349 
L 247.59663 156.380917 
L 247.96657 156.380917 
L 248.091666 161.8288 
L 248.468396 161.8288 
L 248.590096 135.252272 
L 248.713215 135.252272 
L 248.837477 126.71648 
L 248.962063 126.71648 
L 249.086351 141.090303 
L 249.210265 141.090303 
L 249.334266 164.728786 
L 249.459748 164.728786 
L 249.58702 143.411879 
L 249.710001 143.411879 
L 249.834276 170.224719 
L 249.956587 170.224719 
L 250.080862 176.166668 
L 250.952005 176.166668 
L 251.076007 149.301239 
L 251.449379 149.301239 
L 251.576738 154.7915 
L 251.697469 154.7915 
L 251.822813 149.301239 
L 251.946678 149.301239 
L 252.071065 154.7915 
L 252.444051 154.7915 
L 252.569956 120.377315 
L 252.692403 120.377315 
L 252.819339 125.814731 
L 253.938436 125.814731 
L 254.061716 131.272837 
L 254.683178 131.272837 
L 254.811731 107.719885 
L 255.180962 107.719885 
L 255.306132 102.315512 
L 255.431589 102.315512 
L 255.555864 78.946621 
L 255.925866 78.946621 
L 256.051658 100.168885 
L 256.423973 100.168885 
L 256.547564 110.159967 
L 256.673369 110.159967 
L 256.796437 78.383603 
L 257.169374 78.383603 
L 257.295938 88.004174 
L 257.671809 88.004174 
L 257.791918 93.349947 
L 257.917984 93.349947 
L 258.040555 98.715958 
L 258.415607 98.715958 
L 258.537506 104.517483 
L 258.911898 104.517483 
L 259.03539 136.423507 
L 259.657237 136.423507 
L 259.783378 162.936862 
L 259.906596 162.936862 
L 260.030336 172.680879 
L 262.144615 172.680879 
L 262.268293 201.144502 
L 262.393091 201.144502 
L 262.519281 206.740296 
L 263.140618 206.740296 
L 263.266199 201.144502 
L 263.387875 201.144502 
L 263.512473 206.740296 
L 264.633361 206.740296 
L 264.757586 227.590922 
L 264.880207 227.590922 
L 265.00544 221.968263 
L 265.626566 221.968263 
L 265.751227 189.589996 
L 265.875464 189.589996 
L 266.001592 215.936836 
L 266.372987 215.936836 
L 266.497237 189.589996 
L 266.620617 189.589996 
L 266.744942 221.968263 
L 266.870958 221.968263 
L 266.995805 212.443117 
L 267.118836 212.443117 
L 267.242577 218.048451 
L 267.617665 218.048451 
L 267.741243 214.360471 
L 268.11321 214.360471 
L 268.361624 250.277965 
L 268.486757 241.056256 
L 270.10314 241.056256 
L 270.227241 235.398043 
L 270.849686 235.398043 
L 270.979109 208.750806 
L 271.100922 208.750806 
L 271.224687 235.398043 
L 271.34783 235.398043 
L 271.472304 229.761218 
L 272.839628 229.761218 
L 272.970407 223.71459 
L 273.087966 223.71459 
L 273.337063 214.112474 
L 273.463515 223.71459 
L 273.585427 223.71459 
L 273.709217 218.121804 
L 274.084305 218.121804 
L 274.215022 212.550041 
L 274.581567 212.550041 
L 274.7068 206.573074 
L 274.829532 206.573074 
L 274.955163 210.147726 
L 275.575332 210.147726 
L 275.701534 206.573074 
L 275.825648 206.573074 
L 275.951676 212.550041 
L 276.570639 212.550041 
L 276.695063 218.121804 
L 277.07234 218.121804 
L 277.192897 223.71459 
L 277.565448 223.71459 
L 277.692633 252.314375 
L 277.813625 252.314375 
L 277.946991 258.416845 
L 279.556049 258.416845 
L 279.680759 248.899072 
L 279.803318 248.899072 
L 279.927382 254.570661 
L 280.550088 254.570661 
L 280.678355 290.771793 
L 282.291791 290.771793 
L 282.418167 264.105709 
L 283.036645 264.105709 
L 283.161989 258.416845 
L 284.529325 258.416845 
L 284.655391 285.034666 
L 284.777801 285.034666 
L 284.901802 281.331021 
L 285.026786 281.331021 
L 285.151732 287.072746 
L 285.524458 287.072746 
L 285.648596 284.735385 
L 285.772038 284.735385 
L 285.896649 290.506946 
L 286.023535 290.506946 
L 286.146007 296.300734 
L 286.27022 296.300734 
L 286.39498 269.254817 
L 286.521431 269.254817 
L 286.645395 296.300734 
L 286.768402 296.300734 
L 286.892776 263.510362 
L 288.762299 263.510362 
L 288.882457 269.254817 
L 289.006558 269.254817 
L 289.131156 240.134358 
L 289.254922 240.134358 
L 289.380925 269.254817 
L 290.00143 269.254817 
L 290.128155 263.510362 
L 291.001214 263.510362 
L 291.124606 269.254817 
L 291.246207 269.254817 
L 291.375941 263.510362 
L 291.494595 263.510362 
L 291.618497 266.418961 
L 291.744973 266.418961 
L 291.868801 237.498859 
L 291.991583 237.498859 
L 292.115734 231.40033 
L 292.4976 231.40033 
L 292.61547 225.759669 
L 292.737868 225.759669 
L 292.863262 235.398043 
L 292.986169 235.398043 
L 293.111973 229.761218 
L 293.985269 229.761218 
L 294.10835 235.398043 
L 294.230461 235.398043 
L 294.35598 225.759669 
L 294.484844 225.759669 
L 294.605947 231.40033 
L 294.726678 231.40033 
L 294.851662 237.498859 
L 294.977516 237.498859 
L 295.100386 266.418961 
L 295.22532 266.418961 
L 295.349508 257.787961 
L 295.971716 257.787961 
L 296.096849 228.773717 
L 296.469451 228.773717 
L 296.599583 257.787961 
L 297.215735 257.787961 
L 297.342012 228.773717 
L 297.711628 228.773717 
L 297.837868 257.787961 
L 298.70645 257.787961 
L 298.832429 263.510362 
L 299.206846 263.510362 
L 299.329629 272.157117 
L 299.452461 272.157117 
L 299.57732 266.418961 
L 300.696766 266.418961 
L 300.824075 275.99008 
L 300.945701 275.99008 
L 301.070362 269.816142 
L 301.195681 269.816142 
L 301.322779 264.105709 
L 301.693925 264.105709 
L 301.819755 273.212578 
L 301.944453 273.212578 
L 302.064425 267.507222 
L 302.437797 267.507222 
L 302.561736 261.387057 
L 302.685514 261.387057 
L 302.812649 267.507222 
L 303.433216 267.507222 
L 303.556832 299.789149 
L 303.929818 299.789149 
L 304.056531 305.564372 
L 304.428485 305.564372 
L 304.551902 332.198432 
L 307.413573 332.198432 
L 307.536741 341.381657 
L 307.661078 341.381657 
L 307.785365 347.695636 
L 308.158414 347.695636 
L 308.284567 369.977716 
L 308.406803 369.977716 
L 308.531687 376.347488 
L 308.904139 376.347488 
L 309.029558 369.977716 
L 310.147585 369.977716 
L 310.27395 364.086088 
L 311.145603 364.086088 
L 311.274144 358.21665 
L 311.889773 358.21665 
L 312.014459 364.086088 
L 312.388913 364.086088 
L 312.511211 369.977716 
L 312.635548 369.977716 
L 312.760208 396.540033 
L 312.883426 396.540033 
L 313.010126 402.961546 
L 313.382168 402.961546 
L 313.506406 399.913199 
L 313.62986 399.913199 
L 313.754558 408.947878 
L 313.878335 408.947878 
L 314.00501 399.913199 
L 316.863547 399.913199 
L 316.988232 405.906121 
L 317.609309 405.906121 
L 317.73683 414.957188 
L 318.356165 414.957188 
L 318.480527 408.947878 
L 318.60464 408.947878 
L 318.729139 382.285603 
L 318.853365 382.285603 
L 318.980127 376.347488 
L 319.355874 376.347488 
L 319.476195 369.977716 
L 319.599288 369.977716 
L 319.723451 374.115881 
L 319.851009 374.115881 
L 319.975148 368.228387 
L 320.842797 368.228387 
L 320.96895 361.912771 
L 321.092578 361.912771 
L 321.219813 358.21665 
L 321.590822 358.21665 
L 321.71756 390.60053 
L 322.338499 390.60053 
L 322.462973 369.977716 
L 322.586365 369.977716 
L 322.708887 396.540033 
L 323.578675 396.540033 
L 323.704119 364.086088 
L 324.325593 364.086088 
L 324.449968 390.60053 
L 325.321074 390.60053 
L 325.444964 358.21665 
L 325.817304 358.21665 
L 325.94378 384.683381 
L 326.068627 384.683381 
L 326.193176 358.21665 
L 327.807395 358.21665 
L 327.931073 329.723663 
L 328.058258 329.723663 
L 328.184424 323.482631 
L 328.309333 323.482631 
L 328.433384 361.912771 
L 328.554413 361.912771 
L 328.680442 327.788296 
L 329.052807 327.788296 
L 329.175888 337.386739 
L 329.300175 337.386739 
L 329.424289 331.600424 
L 329.548427 331.600424 
L 329.672863 305.488948 
L 330.049991 305.488948 
L 330.169939 311.22833 
L 330.294574 311.22833 
L 330.418899 301.537037 
L 330.543149 301.537037 
L 330.667996 307.280555 
L 330.792595 307.280555 
L 330.918026 339.839745 
L 331.288936 339.839745 
L 331.41331 345.67601 
L 332.781815 345.67601 
L 332.907471 351.534353 
L 333.278965 351.534353 
L 333.403153 357.868151 
L 334.273924 357.868151 
L 334.398112 386.414982 
L 334.522921 386.414982 
L 334.648154 392.371346 
L 336.015017 392.371346 
L 336.139143 363.772743 
L 337.258178 363.772743 
L 337.384231 357.868151 
L 337.756534 357.868151 
L 337.882401 351.534353 
L 338.254853 351.534353 
L 338.38404 345.67601 
L 338.75255 345.67601 
L 338.876116 339.839745 
L 339.248966 339.839745 
L 339.375168 345.67601 
L 339.496968 345.67601 
L 339.621766 351.534353 
L 339.745966 351.534353 
L 339.872218 347.695636 
L 339.995088 347.695636 
L 340.119052 357.868151 
L 340.243253 357.868151 
L 340.367279 353.581757 
L 341.487396 353.581757 
L 341.612069 347.695636 
L 342.481819 347.695636 
L 342.607836 321.09975 
L 342.979392 321.09975 
L 343.105035 347.695636 
L 343.230118 347.695636 
L 343.352404 357.868151 
L 343.482747 357.868151 
L 343.603105 347.695636 
L 343.728201 347.695636 
L 343.850635 341.381657 
L 343.976141 341.381657 
L 344.099048 357.868151 
L 346.462189 357.868151 
L 346.586899 361.203585 
L 346.710888 361.203585 
L 346.840026 355.327787 
L 346.959301 355.327787 
L 347.093612 349.474126 
L 348.700345 349.474126 
L 348.824446 355.327787 
L 348.949952 355.327787 
L 349.073257 351.534353 
L 349.695453 351.534353 
L 349.819143 357.868151 
L 349.944115 357.868151 
L 350.06931 341.381657 
L 350.440954 341.381657 
L 350.566373 347.695636 
L 350.689665 347.695636 
L 350.815719 341.381657 
L 352.679881 341.381657 
L 352.807402 332.198432 
L 353.427894 332.198432 
L 353.550117 326.375024 
L 354.91805 326.375024 
L 355.04664 317.445707 
L 355.168279 317.445707 
L 355.29126 285.034666 
L 355.41617 285.034666 
L 355.539549 287.863964 
L 355.666573 287.863964 
L 355.788671 282.155405 
L 356.161782 282.155405 
L 356.28801 276.468267 
L 356.660885 276.468267 
L 356.783133 267.51703 
L 356.907246 267.51703 
L 357.031993 273.188035 
L 357.655072 273.188035 
L 357.780815 278.880407 
L 358.151625 278.880407 
L 358.277467 285.034666 
L 358.65069 285.034666 
L 358.773622 281.331021 
L 358.897611 281.331021 
L 359.022371 308.097643 
L 359.395059 308.097643 
L 359.526696 281.331021 
L 359.643845 281.331021 
L 359.770732 308.097643 
L 359.892831 308.097643 
L 360.018772 299.668764 
L 360.887814 299.668764 
L 361.012935 272.818072 
L 361.39393 272.818072 
L 361.510905 299.668764 
L 361.634882 299.668764 
L 361.758796 291.484355 
L 361.884837 291.484355 
L 362.006389 264.551593 
L 362.130987 264.551593 
L 362.255797 291.484355 
L 362.62999 291.484355 
L 362.753568 297.244511 
L 364.12124 297.244511 
L 364.245652 299.668764 
L 364.370225 299.668764 
L 364.494774 272.818072 
L 364.61875 272.818072 
L 364.743585 267.113431 
L 365.364973 267.113431 
L 365.489235 260.994031 
L 366.359832 260.994031 
L 366.484579 267.113431 
L 366.85718 267.113431 
L 366.980809 272.818072 
L 367.106066 272.818072 
L 367.233985 278.544336 
L 367.603726 278.544336 
L 367.728013 251.649662 
L 368.349152 251.649662 
L 368.473812 260.263759 
L 369.344782 260.263759 
L 369.468945 266.418961 
L 369.598257 266.418961 
L 369.718888 237.498859 
L 370.593054 237.498859 
L 370.712068 247.173755 
L 372.826733 247.173755 
L 372.950884 252.876773 
L 373.07639 252.876773 
L 373.199247 247.173755 
L 373.574 247.173755 
L 373.69968 214.360471 
L 373.820821 214.360471 
L 373.947198 208.750806 
L 374.567379 208.750806 
L 374.691754 203.16236 
L 375.317655 203.16236 
L 375.447166 208.750806 
L 375.811447 208.750806 
L 375.935486 214.360471 
L 376.06047 214.360471 
L 376.183539 231.40033 
L 376.309716 231.40033 
L 376.432798 237.498859 
L 376.806021 237.498859 
L 376.930345 243.184198 
L 377.310744 243.184198 
L 377.427793 210.652518 
L 380.293854 210.652518 
L 380.412918 183.814749 
L 382.040967 183.814749 
L 382.15441 193.687512 
L 382.528889 193.687512 
L 382.651696 187.675014 
L 383.023613 187.675014 
L 383.151495 182.11395 
L 383.272437 182.11395 
L 383.396513 162.936862 
L 383.771999 162.936862 
L 383.895491 157.431761 
L 384.019107 157.431761 
L 384.143755 162.936862 
L 384.52296 162.936862 
L 384.642658 191.505874 
L 384.767654 191.505874 
L 384.890611 197.084082 
L 385.015433 197.084082 
L 385.139932 203.115111 
L 385.511203 203.115111 
L 385.634955 208.737543 
L 385.761357 208.737543 
L 385.884625 241.122656 
L 386.009895 241.122656 
L 386.133423 231.755545 
L 386.755109 231.755545 
L 386.880989 241.122656 
L 387.252893 241.122656 
L 387.376895 274.083309 
L 387.999439 274.083309 
L 388.12247 279.870734 
L 388.49726 279.870734 
L 388.620217 308.803288 
L 388.744131 308.803288 
L 388.871926 302.962908 
L 390.486332 302.962908 
L 390.614076 308.803288 
L 390.735329 308.803288 
L 390.859704 302.962908 
L 391.481601 302.962908 
L 391.609731 306.115596 
L 391.978577 306.115596 
L 392.105265 271.634452 
L 392.725408 271.634452 
L 392.848552 265.897248 
L 392.973038 265.897248 
L 393.096604 276.380135 
L 393.224809 276.380135 
L 393.347654 259.743067 
L 393.967425 259.743067 
L 394.097507 265.897248 
L 394.466701 265.897248 
L 394.592257 262.133464 
L 394.962707 262.133464 
L 395.087703 290.903665 
L 395.957628 290.903665 
L 396.084403 262.133464 
L 396.208342 262.133464 
L 396.332405 275.99008 
L 396.712244 275.99008 
L 396.830326 281.745696 
L 397.20136 281.745696 
L 397.325797 275.99008 
L 397.949137 275.99008 
L 398.072728 296.530656 
L 399.190768 296.530656 
L 399.317194 290.771793 
L 399.439691 290.771793 
L 399.564165 281.331021 
L 400.683324 281.331021 
L 400.80745 290.771793 
L 400.931613 290.771793 
L 401.059606 285.034666 
L 401.429434 285.034666 
L 401.556196 294.035718 
L 401.678618 294.035718 
L 401.802495 287.863964 
L 401.926957 287.863964 
L 402.052662 282.155405 
L 402.424306 282.155405 
L 402.550769 287.863964 
L 402.921928 287.863964 
L 403.046464 294.035718 
L 403.175726 294.035718 
L 403.297253 320.573573 
L 403.419799 320.573573 
L 403.543092 317.445707 
L 403.670264 317.445707 
L 403.792848 323.252939 
L 403.916265 323.252939 
L 404.041671 329.531499 
L 405.161403 329.531499 
L 405.286884 335.384612 
L 406.155677 335.384612 
L 406.281096 364.278025 
L 406.404924 364.278025 
L 406.52946 344.363879 
L 406.652155 344.363879 
L 406.776754 350.255853 
L 406.901452 350.255853 
L 407.026373 379.107839 
L 407.150387 379.107839 
L 407.276602 350.255853 
L 407.400628 350.255853 
L 407.523461 344.363879 
L 408.145047 344.363879 
L 408.269845 373.163486 
L 408.642744 373.163486 
L 408.76784 344.363879 
L 408.892998 344.363879 
L 409.020071 373.163486 
L 409.142468 373.163486 
L 409.265388 344.363879 
L 409.389227 344.363879 
L 409.513751 373.163486 
L 409.638312 373.163486 
L 409.76209 344.363879 
L 409.886651 344.363879 
L 410.010938 347.695636 
L 410.135139 347.695636 
L 410.259712 341.381657 
L 410.632836 341.381657 
L 410.758889 345.67601 
L 411.130122 345.67601 
L 411.254211 339.839745 
L 412.125379 339.839745 
L 412.249766 335.541653 
L 412.623797 335.541653 
L 412.748645 314.837645 
L 413.119405 314.837645 
L 413.245981 347.695636 
L 413.370467 347.695636 
L 413.496135 314.837645 
L 413.618234 314.837645 
L 413.74124 321.09975 
L 415.360571 321.09975 
L 415.482371 326.937529 
L 415.607343 326.937529 
L 415.73158 300.303925 
L 416.10448 300.303925 
L 416.230496 294.514542 
L 416.852505 294.514542 
L 416.975276 285.131382 
L 417.099973 285.131382 
L 417.223676 256.413571 
L 418.094584 256.413571 
L 418.221856 250.277965 
L 418.841055 250.277965 
L 418.968886 227.590922 
L 419.337819 227.590922 
L 419.464071 221.968263 
L 419.586481 221.968263 
L 419.711987 195.569879 
L 419.835715 195.569879 
L 419.962067 189.589996 
L 420.083792 189.589996 
L 420.211325 200.202666 
L 420.584449 200.202666 
L 420.709781 194.652418 
L 420.829815 194.652418 
L 420.956515 189.589996 
L 421.078353 189.589996 
L 421.204555 195.569879 
L 421.829027 195.569879 
L 421.949447 191.505874 
L 422.322832 191.505874 
L 422.448188 197.084082 
L 422.820155 197.084082 
L 422.945587 191.505874 
L 423.316745 191.505874 
L 423.44347 185.948775 
L 424.31204 185.948775 
L 424.440655 179.987697 
L 424.561635 179.987697 
L 424.685387 170.631191 
L 424.809003 170.631191 
L 424.933713 179.987697 
L 425.307086 179.987697 
L 425.431982 151.526477 
L 425.556021 151.526477 
L 425.682236 147.953788 
L 425.804049 147.953788 
L 425.928386 142.067068 
L 426.052624 142.067068 
L 426.179473 147.953788 
L 426.304357 147.953788 
L 426.428309 157.431761 
L 426.550358 157.431761 
L 426.677879 147.953788 
L 427.050057 147.953788 
L 427.172666 142.067068 
L 427.794662 142.067068 
L 427.920878 136.622234 
L 428.043076 136.622234 
L 428.167363 131.197912 
L 428.540511 131.197912 
L 428.664277 134.785909 
L 429.287529 134.785909 
L 429.411394 129.386829 
L 430.033366 129.386829 
L 430.159096 125.379156 
L 430.282127 125.379156 
L 430.406179 131.197912 
L 430.787386 131.197912 
L 430.903502 136.622234 
L 431.028474 136.622234 
L 431.153657 142.067068 
L 431.277546 142.067068 
L 431.403189 147.953788 
L 432.021828 147.953788 
L 432.149013 153.441589 
L 432.768622 153.441589 
L 432.893805 147.953788 
L 433.017011 147.953788 
L 433.142119 176.573937 
L 433.765521 176.573937 
L 433.890903 166.756454 
L 435.256386 166.756454 
L 435.380984 172.278567 
L 436.004697 172.278567 
L 436.128574 166.756454 
L 436.252451 166.756454 
L 436.37644 176.573937 
L 436.499646 176.573937 
L 436.625612 166.756454 
L 436.750285 166.756454 
L 436.873142 160.832917 
L 436.997169 160.832917 
L 437.120822 170.631191 
L 437.246316 170.631191 
L 437.370727 165.134522 
L 437.743353 165.134522 
L 437.867566 159.658543 
L 438.242729 159.658543 
L 438.3654 134.785909 
L 438.490297 134.785909 
L 438.614373 125.379156 
L 439.238048 125.379156 
L 439.362498 153.784358 
L 439.48441 153.784358 
L 439.610289 131.197912 
L 439.981908 131.197912 
L 440.106121 136.622234 
L 440.480438 136.622234 
L 440.603283 142.067068 
L 440.727483 142.067068 
L 440.851882 170.631191 
L 441.976364 170.631191 
L 442.09707 160.832917 
L 442.46895 160.832917 
L 442.593399 176.573937 
L 443.215968 176.573937 
L 443.340753 147.953788 
L 443.463846 147.953788 
L 443.588855 176.573937 
L 443.716761 176.573937 
L 443.838984 147.953788 
L 443.963409 147.953788 
L 444.087149 170.631191 
L 444.211076 170.631191 
L 444.335127 142.067068 
L 445.205288 142.067068 
L 445.329153 136.622234 
L 445.455679 136.622234 
L 445.579693 165.134522 
L 445.702674 165.134522 
L 445.82925 170.631191 
L 445.952393 170.631191 
L 446.075387 165.134522 
L 446.45004 165.134522 
L 446.575099 159.658543 
L 446.697446 159.658543 
L 446.824221 131.197912 
L 446.946034 131.197912 
L 447.071639 153.784358 
L 447.1963 153.784358 
L 447.320562 125.379156 
L 447.44337 125.379156 
L 447.567483 153.784358 
L 448.19004 153.784358 
L 448.314551 131.197912 
L 448.438341 131.197912 
L 448.564034 136.622234 
L 448.688483 136.622234 
L 448.813666 165.134522 
L 448.936436 165.134522 
L 449.062676 170.631191 
L 449.186503 170.631191 
L 449.309311 176.573937 
L 449.932576 176.573937 
L 450.056627 166.756454 
L 451.17453 166.756454 
L 451.299191 199.014773 
L 452.42264 199.014773 
L 452.544552 204.606682 
L 455.15332 204.606682 
L 455.278664 199.014773 
L 455.652596 199.014773 
L 455.777269 203.16236 
L 456.148652 203.16236 
L 456.27769 170.631191 
L 456.646709 170.631191 
L 456.773148 165.134522 
L 457.143722 165.134522 
L 457.269067 170.631191 
L 457.393217 170.631191 
L 457.517331 176.573937 
L 457.892021 176.573937 
L 458.020761 172.278567 
L 458.139091 172.278567 
L 458.263453 177.821667 
L 458.38784 177.821667 
L 458.516095 183.814749 
L 459.38689 183.814749 
L 459.50889 177.821667 
L 460.039717 177.821667 
L 460.253582 183.814749 
L 462.118702 183.814749 
L 462.244444 177.821667 
L 462.865397 177.821667 
L 462.993999 172.278567 
L 464.107425 172.278567 
L 464.234511 166.756454 
L 464.605495 166.756454 
L 464.731536 160.832917 
L 464.854356 160.832917 
L 464.979576 165.134522 
L 465.109448 165.134522 
L 465.229532 136.622234 
L 465.351717 136.622234 
L 465.477995 131.197912 
L 466.09983 131.197912 
L 466.223694 159.658543 
L 466.348492 159.658543 
L 466.473575 165.134522 
L 466.846413 165.134522 
L 466.97014 155.354019 
L 467.092799 155.354019 
L 467.218815 160.832917 
L 467.591142 160.832917 
L 467.714559 166.756454 
L 467.838287 166.756454 
L 467.963669 160.832917 
L 468.585491 160.832917 
L 468.70902 187.468293 
L 469.33134 187.468293 
L 469.456735 193.444021 
L 469.829759 193.444021 
L 469.956148 166.756454 
L 470.07801 166.756454 
L 470.201651 176.573937 
L 470.326299 176.573937 
L 470.450773 203.16236 
L 473.310901 203.16236 
L 473.435363 197.167645 
L 473.558991 197.167645 
L 473.808151 170.631191 
L 473.934552 165.134522 
L 474.057969 165.134522 
L 474.183749 168.981184 
L 475.051771 168.981184 
L 475.17775 172.637818 
L 475.301416 172.637818 
L 475.425181 178.548746 
L 475.549754 178.548746 
L 475.674328 168.981184 
L 475.799958 168.981184 
L 475.922629 195.328154 
L 476.046904 195.328154 
L 476.296337 200.868759 
L 476.419754 179.987697 
L 476.544116 179.987697 
L 476.670157 185.948775 
L 477.0444 185.948775 
L 477.167916 212.443117 
L 478.782421 212.443117 
L 478.90891 185.948775 
L 479.777815 185.948775 
L 479.903968 195.569879 
L 480.52461 195.569879 
L 480.649046 189.589996 
L 481.519245 189.589996 
L 481.644017 195.569879 
L 482.018335 195.569879 
L 482.140993 189.589996 
L 482.514054 189.589996 
L 482.640369 184.058966 
L 483.015582 184.058966 
L 483.136461 178.548746 
L 483.259667 178.548746 
L 483.387362 189.123046 
L 483.512731 189.123046 
L 483.633561 155.107343 
L 483.75724 155.107343 
L 483.884387 149.671583 
L 484.006847 149.671583 
L 484.131432 177.705182 
L 484.504021 177.705182 
L 484.631107 183.191566 
L 484.75272 183.191566 
L 484.880938 172.637818 
L 485.001208 172.637818 
L 485.12853 178.548746 
L 485.249671 178.548746 
L 485.376346 184.058966 
L 485.498171 184.058966 
L 485.622235 210.358116 
L 485.747169 210.358116 
L 485.871307 179.987697 
L 485.995645 179.987697 
L 486.122867 206.43028 
L 486.990578 206.43028 
L 487.115239 212.443117 
L 489.230476 212.443117 
L 489.355945 218.048451 
L 489.726332 218.048451 
L 489.851639 212.443117 
L 490.229464 212.443117 
L 490.348292 218.048451 
L 490.477379 218.048451 
L 490.597551 212.443117 
L 490.969816 212.443117 
L 491.097573 218.048451 
L 491.223079 218.048451 
L 491.345501 212.443117 
L 491.470299 212.443117 
L 491.592173 185.948775 
L 491.716859 185.948775 
L 491.841544 179.987697 
L 491.964513 179.987697 
L 492.093788 189.589996 
L 492.216297 189.589996 
L 492.338234 184.058966 
L 492.71229 184.058966 
L 492.835533 178.548746 
L 492.960019 178.548746 
L 493.087652 150.295093 
L 493.706465 150.295093 
L 493.830976 155.754086 
L 493.955786 155.754086 
L 494.079526 184.058966 
L 494.208378 184.058966 
L 494.332927 189.589996 
L 494.45418 189.589996 
L 494.580469 179.987697 
L 494.949974 179.987697 
L 495.077731 185.948775 
L 495.9463 185.948775 
L 496.07366 157.431761 
L 496.214388 157.431761 
L 496.319822 185.948775 
L 496.94019 185.948775 
L 497.189287 157.431761 
L 497.437725 157.431761 
L 497.562161 185.948775 
L 497.68712 185.948775 
L 497.81091 157.431761 
L 498.185576 157.431761 
L 498.308993 147.953788 
L 498.432037 147.953788 
L 498.556138 176.573937 
L 498.680773 176.573937 
L 498.804439 182.11395 
L 498.945043 182.11395 
L 499.055775 176.573937 
L 499.427269 176.573937 
L 499.554392 147.953788 
L 500.423347 147.953788 
L 500.546254 151.526477 
L 500.918681 151.526477 
L 501.046202 146.064468 
L 501.417037 146.064468 
L 501.543053 140.62303 
L 501.665152 140.62303 
L 501.789763 150.295093 
L 502.909096 150.295093 
L 503.035597 146.064468 
L 503.157608 146.064468 
L 503.28457 140.62303 
L 503.407215 140.62303 
L 503.535806 146.064468 
L 503.904589 146.064468 
L 504.027658 151.526477 
L 504.401167 151.526477 
L 504.530454 179.987697 
L 504.651097 179.987697 
L 504.780658 174.474066 
L 508.131979 174.474066 
L 508.258467 165.134522 
L 509.1269 165.134522 
L 509.254595 159.658543 
L 509.874092 159.658543 
L 509.997944 163.088861 
L 510.619008 163.088861 
L 510.743271 129.386829 
L 510.867745 129.386829 
L 510.995614 139.022626 
L 511.862654 139.022626 
L 511.995423 134.785909 
L 512.1119 134.785909 
L 512.236822 140.62303 
L 512.362502 140.62303 
L 512.484215 174.474066 
L 512.858769 174.474066 
L 513.111274 170.631191 
L 515.096789 170.631191 
L 515.223551 142.067068 
L 515.843657 142.067068 
L 515.968119 147.953788 
L 516.091635 147.953788 
L 516.216159 142.067068 
L 516.340434 142.067068 
L 516.46456 147.953788 
L 517.336089 147.953788 
L 517.459021 153.441589 
L 518.081254 153.441589 
L 518.205716 116.78322 
L 518.33065 116.78322 
L 518.456168 143.497274 
L 518.578653 143.497274 
L 518.703562 116.78322 
L 518.827663 116.78322 
L 518.956937 111.362292 
L 519.076349 111.362292 
L 519.20045 105.547328 
L 519.325123 105.547328 
L 519.449013 100.168885 
L 519.57376 100.168885 
L 519.698993 110.159967 
L 519.822596 110.159967 
L 519.946759 104.783658 
L 520.077501 104.783658 
L 520.196814 78.383603 
L 520.321587 78.383603 
L 520.444394 83.711857 
L 520.571492 83.711857 
L 520.692658 68.306724 
L 520.821771 68.306724 
L 520.942315 73.616617 
L 521.065931 73.616617 
L 521.189808 78.946621 
L 521.313896 78.946621 
L 521.441156 84.70923 
L 521.565108 84.70923 
L 521.687965 75.567464 
L 522.061536 75.567464 
L 522.185326 80.922847 
L 523.335588 80.922847 
L 523.557972 75.567464 
L 524.299369 75.567464 
L 524.424627 69.82283 
L 524.548504 69.82283 
L 524.673251 78.946621 
L 524.814303 78.946621 
L 524.922647 73.616617 
L 525.294266 73.616617 
L 525.418292 64.509455 
L 525.791577 64.509455 
L 525.91671 73.616617 
L 526.787755 73.616617 
L 526.912427 78.946621 
L 527.2858 78.946621 
L 527.409888 73.616617 
L 527.783012 73.616617 
L 527.906379 104.783658 
L 528.029995 104.783658 
L 528.161134 78.383603 
L 528.279527 78.383603 
L 528.405929 72.667932 
L 528.527667 72.667932 
L 528.65423 99.016422 
L 528.776329 99.016422 
L 528.902531 67.381222 
L 529.02667 67.381222 
L 529.15077 93.682003 
L 530.020608 93.682003 
L 530.14466 119.997069 
L 530.268935 119.997069 
L 530.393981 115.527595 
L 530.523379 115.527595 
L 530.641747 121.327106 
L 531.015977 121.327106 
L 531.141222 126.733494 
L 531.26602 126.733494 
L 531.388952 146.53259 
L 532.259424 146.53259 
L 532.382642 151.99545 
L 535.243603 151.99545 
L 535.371535 146.53259 
L 535.989054 146.53259 
L 536.114449 117.813822 
L 536.238686 117.813822 
L 536.365772 146.53259 
L 536.984461 146.53259 
L 537.108313 121.327106 
L 537.481921 121.327106 
L 537.610736 115.527595 
L 537.979407 115.527595 
L 538.103072 119.997069 
L 538.228156 119.997069 
L 538.353525 110.163312 
L 538.731287 110.163312 
L 538.849543 115.527595 
L 539.227305 115.527595 
L 539.349566 121.327106 
L 539.472933 121.327106 
L 539.595566 117.813822 
L 539.722092 117.813822 
L 539.8449 146.53259 
L 540.216966 146.53259 
L 540.347559 151.99545 
L 540.469148 151.99545 
L 540.59014 146.53259 
L 541.462552 146.53259 
L 541.59006 167.718668 
L 541.710368 167.718668 
L 541.833661 146.53259 
L 542.207369 146.53259 
L 542.334927 137.964603 
L 542.456963 137.964603 
L 542.583439 146.53259 
L 542.707229 146.53259 
L 542.829676 137.964603 
L 542.953504 137.964603 
L 543.080415 164.728786 
L 543.948661 164.728786 
L 544.074976 137.964603 
L 545.689817 137.964603 
L 545.81408 141.090303 
L 545.942844 141.090303 
L 546.064881 135.252272 
L 546.191817 135.252272 
L 546.313232 106.641474 
L 546.436126 106.641474 
L 546.56259 110.163312 
L 546.686455 110.163312 
L 546.810705 104.81913 
L 547.92908 104.81913 
L 548.056191 110.163312 
L 548.427125 110.163312 
L 548.550294 115.527595 
L 548.67478 115.527595 
L 548.800373 121.327106 
L 548.92379 121.327106 
L 549.047443 112.423619 
L 549.176295 112.423619 
L 549.298866 117.813822 
L 549.422855 117.813822 
L 549.549443 146.53259 
L 550.167199 146.53259 
L 550.290641 117.813822 
L 550.664225 117.813822 
L 550.788997 126.733494 
L 550.913434 126.733494 
L 551.039487 155.354019 
L 551.162121 155.354019 
L 551.286333 146.53259 
L 551.909785 146.53259 
L 552.032307 126.733494 
L 552.157962 126.733494 
L 552.280894 155.354019 
L 552.404995 155.354019 
L 552.531173 151.99545 
L 552.654229 151.99545 
L 552.780146 132.160331 
L 553.152635 132.160331 
L 553.27635 123.224417 
L 553.650419 123.224417 
L 553.780626 151.99545 
L 554.163897 151.99545 
L 554.27065 157.901653 
L 554.892137 157.901653 
L 555.016362 151.99545 
L 555.140425 151.99545 
L 555.268295 132.160331 
L 555.390791 132.160331 
L 555.517106 126.733494 
L 555.887381 126.733494 
L 556.011669 131.197912 
L 557.13079 131.197912 
L 557.255028 136.622234 
L 557.385956 136.622234 
L 557.505195 132.160331 
L 557.877112 132.160331 
L 558.001275 138.0276 
L 558.127366 138.0276 
L 558.250932 143.497274 
L 559.868012 143.497274 
L 559.991416 138.0276 
L 560.86205 138.0276 
L 560.987718 143.497274 
L 561.361861 143.497274 
L 561.484121 138.0276 
L 562.353748 138.0276 
L 562.480647 143.497274 
L 563.846453 143.497274 
L 563.970828 138.0276 
L 564.095874 138.0276 
L 564.220049 142.067068 
L 564.592874 142.067068 
L 564.720383 136.622234 
L 565.09271 136.622234 
L 565.21716 114.305654 
L 565.338699 114.305654 
L 565.463533 108.519838 
L 566.086811 108.519838 
L 566.211098 114.305654 
L 566.584321 114.305654 
L 566.70693 119.699279 
L 566.836279 119.699279 
L 566.95686 125.113308 
L 567.08223 125.113308 
L 567.206878 147.953788 
L 567.577203 147.953788 
L 567.704761 153.441589 
L 569.06961 153.441589 
L 569.195601 147.953788 
L 569.318869 147.953788 
L 569.475888 153.441589 
L 571.060584 153.441589 
L 571.183989 182.11395 
L 573.299723 182.11395 
L 573.423662 147.953788 
L 573.546358 147.953788 
L 573.673767 176.573937 
L 573.795729 176.573937 
L 573.919295 179.987697 
L 574.044702 179.987697 
L 574.168703 151.526477 
L 574.29304 151.526477 
L 574.421058 146.064468 
L 574.541739 146.064468 
L 574.667308 150.295093 
L 575.287949 150.295093 
L 575.414002 155.754086 
L 575.537121 155.754086 
L 575.662092 161.233711 
L 576.035912 161.233711 
L 576.158558 167.158034 
L 576.532565 167.158034 
L 576.655223 172.680879 
L 576.78451 172.680879 
L 576.905278 162.936862 
L 577.029155 162.936862 
L 577.153591 157.431761 
L 577.283736 157.431761 
L 577.403696 162.936862 
L 579.516508 162.936862 
L 579.643332 157.431761 
L 579.765518 157.431761 
L 579.890564 162.936862 
L 580.510708 162.936862 
L 580.75978 191.505874 
L 581.507656 191.505874 
L 581.630961 185.948775 
L 582.500986 185.948775 
L 582.625472 179.987697 
L 582.750282 179.987697 
L 582.874184 184.058966 
L 583.249135 184.058966 
L 583.374691 178.548746 
L 583.495633 178.548746 
L 583.619709 144.439135 
L 584.241532 144.439135 
L 584.3672 150.295093 
L 584.490679 150.295093 
L 584.614842 178.548746 
L 584.739378 178.548746 
L 584.866762 184.058966 
L 585.236851 184.058966 
L 585.362967 174.474066 
L 585.490065 174.474066 
L 585.60995 179.987697 
L 586.23283 179.987697 
L 586.356222 185.948775 
L 587.724142 185.948775 
L 587.848169 157.431761 
L 587.97467 157.431761 
L 588.097291 176.573937 
L 588.221043 176.573937 
L 588.344995 147.953788 
L 589.216512 147.953788 
L 589.342292 153.441589 
L 589.716422 153.441589 
L 589.842177 147.953788 
L 589.963903 147.953788 
L 590.087569 153.441589 
L 590.211781 153.441589 
L 590.336342 126.830534 
L 590.958265 126.830534 
L 591.084007 132.290501 
L 591.207026 132.290501 
L 591.332905 126.830534 
L 591.616886 126.830534 
L 591.836373 121.391265 
L 591.952402 121.391265 
L 592.077138 94.842809 
L 592.450261 94.842809 
L 592.574188 89.060286 
L 592.701559 89.060286 
L 592.824951 98.715958 
L 592.947585 98.715958 
L 593.074074 89.060286 
L 593.196147 89.060286 
L 593.322499 98.715958 
L 593.444996 98.715958 
L 593.569358 89.060286 
L 593.693235 89.060286 
L 593.817808 94.842809 
L 593.942332 94.842809 
L 594.066371 100.233503 
L 594.687982 100.233503 
L 594.816834 90.081364 
L 594.942079 90.081364 
L 595.06261 61.340272 
L 595.185928 61.340272 
L 595.315774 90.081364 
L 595.434801 90.081364 
L 595.434801 90.081364 
" clip-path="url(#p7607dbf947)" style="fill: none; stroke: #1f77b4; stroke-width: 2; stroke-linecap: square"/>
   </g>
   <g id="patch_3">
    <path d="M 62.798438 414.957188 
L 62.798438 26.877188 
" style="fill: none; stroke: #808080; stroke-width: 2; stroke-linejoin: miter; stroke-linecap: square"/>
   </g>
   <g id="patch_4">
    <path d="M 62.798437 414.957187 
L 620.798437 414.957187 
" style="fill: none; stroke: #808080; stroke-width: 2; stroke-linejoin: miter; stroke-linecap: square"/>
   </g>
   <g id="text_20">
    <!-- Oskar-Nidarosdomen-vinkel -->
    <g style="fill: #808080" transform="translate(218.234062 20.877187) scale(0.18 -0.18)">
     <defs>
      <path id="DejaVuSans-4f" d="M 2522 4238 
Q 1834 4238 1429 3725 
Q 1025 3213 1025 2328 
Q 1025 1447 1429 934 
Q 1834 422 2522 422 
Q 3209 422 3611 934 
Q 4013 1447 4013 2328 
Q 4013 3213 3611 3725 
Q 3209 4238 2522 4238 
z
M 2522 4750 
Q 3503 4750 4090 4092 
Q 4678 3434 4678 2328 
Q 4678 1225 4090 567 
Q 3503 -91 2522 -91 
Q 1538 -91 948 565 
Q 359 1222 359 2328 
Q 359 3434 948 4092 
Q 1538 4750 2522 4750 
z
" transform="scale(0.015625)"/>
      <path id="DejaVuSans-6b" d="M 581 4863 
L 1159 4863 
L 1159 1991 
L 2875 3500 
L 3609 3500 
L 1753 1863 
L 3688 0 
L 2938 0 
L 1159 1709 
L 1159 0 
L 581 0 
L 581 4863 
z
" transform="scale(0.015625)"/>
      <path id="DejaVuSans-61" d="M 2194 1759 
Q 1497 1759 1228 1600 
Q 959 1441 959 1056 
Q 959 750 1161 570 
Q 1363 391 1709 391 
Q 2188 391 2477 730 
Q 2766 1069 2766 1631 
L 2766 1759 
L 2194 1759 
z
M 3341 1997 
L 3341 0 
L 2766 0 
L 2766 531 
Q 2569 213 2275 61 
Q 1981 -91 1556 -91 
Q 1019 -91 701 211 
Q 384 513 384 1019 
Q 384 1609 779 1909 
Q 1175 2209 1959 2209 
L 2766 2209 
L 2766 2266 
Q 2766 2663 2505 2880 
Q 2244 3097 1772 3097 
Q 1472 3097 1187 3025 
Q 903 2953 641 2809 
L 641 3341 
Q 956 3463 1253 3523 
Q 1550 3584 1831 3584 
Q 2591 3584 2966 3190 
Q 3341 2797 3341 1997 
z
" transform="scale(0.015625)"/>
      <path id="DejaVuSans-72" d="M 2631 2963 
Q 2534 3019 2420 3045 
Q 2306 3072 2169 3072 
Q 1681 3072 1420 2755 
Q 1159 2438 1159 1844 
L 1159 0 
L 581 0 
L 581 3500 
L 1159 3500 
L 1159 2956 
Q 1341 3275 1631 3429 
Q 1922 3584 2338 3584 
Q 2397 3584 2469 3576 
Q 2541 3569 2628 3553 
L 2631 2963 
z
" transform="scale(0.015625)"/>
      <path id="DejaVuSans-2d" d="M 313 2009 
L 1997 2009 
L 1997 1497 
L 313 1497 
L 313 2009 
z
" transform="scale(0.015625)"/>
      <path id="DejaVuSans-4e" d="M 628 4666 
L 1478 4666 
L 3547 763 
L 3547 4666 
L 4159 4666 
L 4159 0 
L 3309 0 
L 1241 3903 
L 1241 0 
L 628 0 
L 628 4666 
z
" transform="scale(0.015625)"/>
      <path id="DejaVuSans-6f" d="M 1959 3097 
Q 1497 3097 1228 2736 
Q 959 2375 959 1747 
Q 959 1119 1226 758 
Q 1494 397 1959 397 
Q 2419 397 2687 759 
Q 2956 1122 2956 1747 
Q 2956 2369 2687 2733 
Q 2419 3097 1959 3097 
z
M 1959 3584 
Q 2709 3584 3137 3096 
Q 3566 2609 3566 1747 
Q 3566 888 3137 398 
Q 2709 -91 1959 -91 
Q 1206 -91 779 398 
Q 353 888 353 1747 
Q 353 2609 779 3096 
Q 1206 3584 1959 3584 
z
" transform="scale(0.015625)"/>
      <path id="DejaVuSans-6e" d="M 3513 2113 
L 3513 0 
L 2938 0 
L 2938 2094 
Q 2938 2591 2744 2837 
Q 2550 3084 2163 3084 
Q 1697 3084 1428 2787 
Q 1159 2491 1159 1978 
L 1159 0 
L 581 0 
L 581 3500 
L 1159 3500 
L 1159 2956 
Q 1366 3272 1645 3428 
Q 1925 3584 2291 3584 
Q 2894 3584 3203 3211 
Q 3513 2838 3513 2113 
z
" transform="scale(0.015625)"/>
      <path id="DejaVuSans-76" d="M 191 3500 
L 800 3500 
L 1894 563 
L 2988 3500 
L 3597 3500 
L 2284 0 
L 1503 0 
L 191 3500 
z
" transform="scale(0.015625)"/>
      <path id="DejaVuSans-6c" d="M 603 4863 
L 1178 4863 
L 1178 0 
L 603 0 
L 603 4863 
z
" transform="scale(0.015625)"/>
     </defs>
     <use xlink:href="#DejaVuSans-4f"/>
     <use xlink:href="#DejaVuSans-73" x="78.710938"/>
     <use xlink:href="#DejaVuSans-6b" x="130.810547"/>
     <use xlink:href="#DejaVuSans-61" x="186.970703"/>
     <use xlink:href="#DejaVuSans-72" x="248.25"/>
     <use xlink:href="#DejaVuSans-2d" x="282.988281"/>
     <use xlink:href="#DejaVuSans-4e" x="319.072266"/>
     <use xlink:href="#DejaVuSans-69" x="393.876953"/>
     <use xlink:href="#DejaVuSans-64" x="421.660156"/>
     <use xlink:href="#DejaVuSans-61" x="485.136719"/>
     <use xlink:href="#DejaVuSans-72" x="546.416016"/>
     <use xlink:href="#DejaVuSans-6f" x="585.279297"/>
     <use xlink:href="#DejaVuSans-73" x="646.460938"/>
     <use xlink:href="#DejaVuSans-64" x="698.560547"/>
     <use xlink:href="#DejaVuSans-6f" x="762.037109"/>
     <use xlink:href="#DejaVuSans-6d" x="823.21875"/>
     <use xlink:href="#DejaVuSans-65" x="920.630859"/>
     <use xlink:href="#DejaVuSans-6e" x="982.154297"/>
     <use xlink:href="#DejaVuSans-2d" x="1045.533203"/>
     <use xlink:href="#DejaVuSans-76" x="1078.992188"/>
     <use xlink:href="#DejaVuSans-69" x="1138.171875"/>
     <use xlink:href="#DejaVuSans-6e" x="1165.955078"/>
     <use xlink:href="#DejaVuSans-6b" x="1229.333984"/>
     <use xlink:href="#DejaVuSans-65" x="1283.619141"/>
     <use xlink:href="#DejaVuSans-6c" x="1345.142578"/>
    </g>
   </g>
   <g id="legend_1">
    <g id="patch_5">
     <path d="M 356.357813 60.894375 
L 610.298437 60.894375 
Q 613.298437 60.894375 613.298437 57.894375 
L 613.298437 37.377187 
Q 613.298437 34.377187 610.298437 34.377187 
L 356.357813 34.377187 
Q 353.357813 34.377187 353.357813 37.377187 
L 353.357813 57.894375 
Q 353.357813 60.894375 356.357813 60.894375 
z
" style="fill: #ffffff; opacity: 0.8; stroke: #cccccc; stroke-linejoin: miter"/>
    </g>
    <g id="line2d_36">
     <path d="M 359.357813 46.524844 
L 374.357813 46.524844 
L 389.357813 46.524844 
" style="fill: none; stroke: #1f77b4; stroke-width: 2; stroke-linecap: square"/>
    </g>
    <g id="text_21">
     <!-- Oskar-Nidarosdomen-vinkel -->
     <g style="fill: #808080" transform="translate(401.357813 51.774844) scale(0.15 -0.15)">
      <use xlink:href="#DejaVuSans-4f"/>
      <use xlink:href="#DejaVuSans-73" x="78.710938"/>
      <use xlink:href="#DejaVuSans-6b" x="130.810547"/>
      <use xlink:href="#DejaVuSans-61" x="186.970703"/>
      <use xlink:href="#DejaVuSans-72" x="248.25"/>
      <use xlink:href="#DejaVuSans-2d" x="282.988281"/>
      <use xlink:href="#DejaVuSans-4e" x="319.072266"/>
      <use xlink:href="#DejaVuSans-69" x="393.876953"/>
      <use xlink:href="#DejaVuSans-64" x="421.660156"/>
      <use xlink:href="#DejaVuSans-61" x="485.136719"/>
      <use xlink:href="#DejaVuSans-72" x="546.416016"/>
      <use xlink:href="#DejaVuSans-6f" x="585.279297"/>
      <use xlink:href="#DejaVuSans-73" x="646.460938"/>
      <use xlink:href="#DejaVuSans-64" x="698.560547"/>
      <use xlink:href="#DejaVuSans-6f" x="762.037109"/>
      <use xlink:href="#DejaVuSans-6d" x="823.21875"/>
      <use xlink:href="#DejaVuSans-65" x="920.630859"/>
      <use xlink:href="#DejaVuSans-6e" x="982.154297"/>
      <use xlink:href="#DejaVuSans-2d" x="1045.533203"/>
      <use xlink:href="#DejaVuSans-76" x="1078.992188"/>
      <use xlink:href="#DejaVuSans-69" x="1138.171875"/>
      <use xlink:href="#DejaVuSans-6e" x="1165.955078"/>
      <use xlink:href="#DejaVuSans-6b" x="1229.333984"/>
      <use xlink:href="#DejaVuSans-65" x="1283.619141"/>
      <use xlink:href="#DejaVuSans-6c" x="1345.142578"/>
     </g>
    </g>
   </g>
  </g>
 </g>
 <defs>
  <clipPath id="p7607dbf947">
   <rect x="62.798438" y="26.877187" width="558" height="388.08"/>
  </clipPath>
 </defs>
</svg>
