<?xml version="1.0" encoding="utf-8" standalone="no"?>
<!DOCTYPE svg PUBLIC "-//W3C//DTD SVG 1.1//EN"
  "http://www.w3.org/Graphics/SVG/1.1/DTD/svg11.dtd">
<svg xmlns:xlink="http://www.w3.org/1999/xlink" width="628.89899pt" height="458.691562pt" viewBox="0 0 628.89899 458.691562" xmlns="http://www.w3.org/2000/svg" version="1.1">
 <metadata>
  <rdf:RDF xmlns:dc="http://purl.org/dc/elements/1.1/" xmlns:cc="http://creativecommons.org/ns#" xmlns:rdf="http://www.w3.org/1999/02/22-rdf-syntax-ns#">
   <cc:Work>
    <dc:type rdf:resource="http://purl.org/dc/dcmitype/StillImage"/>
    <dc:date>2023-03-30T16:06:06.632329</dc:date>
    <dc:format>image/svg+xml</dc:format>
    <dc:creator>
     <cc:Agent>
      <dc:title>Matplotlib v3.7.0, https://matplotlib.org/</dc:title>
     </cc:Agent>
    </dc:creator>
   </cc:Work>
  </rdf:RDF>
 </metadata>
 <defs>
  <style type="text/css">*{stroke-linejoin: round; stroke-linecap: butt}</style>
 </defs>
 <g id="figure_1">
  <g id="patch_1">
   <path d="M 0 458.691562 
L 628.89899 458.691562 
L 628.89899 0 
L 0 0 
L 0 458.691562 
z
" style="fill: none"/>
  </g>
  <g id="axes_1">
   <g id="patch_2">
    <path d="M 62.798438 414.957187 
L 620.798437 414.957187 
L 620.798437 26.877187 
L 62.798438 26.877187 
L 62.798438 414.957187 
z
" style="fill: none"/>
   </g>
   <g id="matplotlib.axis_1">
    <g id="xtick_1">
     <g id="line2d_1">
      <path d="M 160.644375 414.957187 
L 160.644375 26.877187 
" clip-path="url(#p2bd203200f)" style="fill: none; stroke: #808080; stroke-width: 0.8; stroke-linecap: square"/>
     </g>
     <g id="line2d_2">
      <defs>
       <path id="me37c1b900d" d="M 0 0 
L 0 -5 
" style="stroke: #808080; stroke-width: 0.8"/>
      </defs>
      <g>
       <use xlink:href="#me37c1b900d" x="160.644375" y="414.957187" style="fill: #808080; stroke: #808080; stroke-width: 0.8"/>
      </g>
     </g>
     <g id="text_1">
      <!-- 30 -->
      <g style="fill: #808080" transform="translate(151.100625 429.854844) scale(0.15 -0.15)">
       <defs>
        <path id="DejaVuSans-33" d="M 2597 2516 
Q 3050 2419 3304 2112 
Q 3559 1806 3559 1356 
Q 3559 666 3084 287 
Q 2609 -91 1734 -91 
Q 1441 -91 1130 -33 
Q 819 25 488 141 
L 488 750 
Q 750 597 1062 519 
Q 1375 441 1716 441 
Q 2309 441 2620 675 
Q 2931 909 2931 1356 
Q 2931 1769 2642 2001 
Q 2353 2234 1838 2234 
L 1294 2234 
L 1294 2753 
L 1863 2753 
Q 2328 2753 2575 2939 
Q 2822 3125 2822 3475 
Q 2822 3834 2567 4026 
Q 2313 4219 1838 4219 
Q 1578 4219 1281 4162 
Q 984 4106 628 3988 
L 628 4550 
Q 988 4650 1302 4700 
Q 1616 4750 1894 4750 
Q 2613 4750 3031 4423 
Q 3450 4097 3450 3541 
Q 3450 3153 3228 2886 
Q 3006 2619 2597 2516 
z
" transform="scale(0.015625)"/>
        <path id="DejaVuSans-30" d="M 2034 4250 
Q 1547 4250 1301 3770 
Q 1056 3291 1056 2328 
Q 1056 1369 1301 889 
Q 1547 409 2034 409 
Q 2525 409 2770 889 
Q 3016 1369 3016 2328 
Q 3016 3291 2770 3770 
Q 2525 4250 2034 4250 
z
M 2034 4750 
Q 2819 4750 3233 4129 
Q 3647 3509 3647 2328 
Q 3647 1150 3233 529 
Q 2819 -91 2034 -91 
Q 1250 -91 836 529 
Q 422 1150 422 2328 
Q 422 3509 836 4129 
Q 1250 4750 2034 4750 
z
" transform="scale(0.015625)"/>
       </defs>
       <use xlink:href="#DejaVuSans-33"/>
       <use xlink:href="#DejaVuSans-30" x="63.623047"/>
      </g>
     </g>
    </g>
    <g id="xtick_2">
     <g id="line2d_3">
      <path d="M 273.522091 414.957187 
L 273.522091 26.877187 
" clip-path="url(#p2bd203200f)" style="fill: none; stroke: #808080; stroke-width: 0.8; stroke-linecap: square"/>
     </g>
     <g id="line2d_4">
      <g>
       <use xlink:href="#me37c1b900d" x="273.522091" y="414.957187" style="fill: #808080; stroke: #808080; stroke-width: 0.8"/>
      </g>
     </g>
     <g id="text_2">
      <!-- 35 -->
      <g style="fill: #808080" transform="translate(263.978341 429.854844) scale(0.15 -0.15)">
       <defs>
        <path id="DejaVuSans-35" d="M 691 4666 
L 3169 4666 
L 3169 4134 
L 1269 4134 
L 1269 2991 
Q 1406 3038 1543 3061 
Q 1681 3084 1819 3084 
Q 2600 3084 3056 2656 
Q 3513 2228 3513 1497 
Q 3513 744 3044 326 
Q 2575 -91 1722 -91 
Q 1428 -91 1123 -41 
Q 819 9 494 109 
L 494 744 
Q 775 591 1075 516 
Q 1375 441 1709 441 
Q 2250 441 2565 725 
Q 2881 1009 2881 1497 
Q 2881 1984 2565 2268 
Q 2250 2553 1709 2553 
Q 1456 2553 1204 2497 
Q 953 2441 691 2322 
L 691 4666 
z
" transform="scale(0.015625)"/>
       </defs>
       <use xlink:href="#DejaVuSans-33"/>
       <use xlink:href="#DejaVuSans-35" x="63.623047"/>
      </g>
     </g>
    </g>
    <g id="xtick_3">
     <g id="line2d_5">
      <path d="M 386.399807 414.957187 
L 386.399807 26.877187 
" clip-path="url(#p2bd203200f)" style="fill: none; stroke: #808080; stroke-width: 0.8; stroke-linecap: square"/>
     </g>
     <g id="line2d_6">
      <g>
       <use xlink:href="#me37c1b900d" x="386.399807" y="414.957187" style="fill: #808080; stroke: #808080; stroke-width: 0.8"/>
      </g>
     </g>
     <g id="text_3">
      <!-- 40 -->
      <g style="fill: #808080" transform="translate(376.856057 429.854844) scale(0.15 -0.15)">
       <defs>
        <path id="DejaVuSans-34" d="M 2419 4116 
L 825 1625 
L 2419 1625 
L 2419 4116 
z
M 2253 4666 
L 3047 4666 
L 3047 1625 
L 3713 1625 
L 3713 1100 
L 3047 1100 
L 3047 0 
L 2419 0 
L 2419 1100 
L 313 1100 
L 313 1709 
L 2253 4666 
z
" transform="scale(0.015625)"/>
       </defs>
       <use xlink:href="#DejaVuSans-34"/>
       <use xlink:href="#DejaVuSans-30" x="63.623047"/>
      </g>
     </g>
    </g>
    <g id="xtick_4">
     <g id="line2d_7">
      <path d="M 499.277523 414.957187 
L 499.277523 26.877187 
" clip-path="url(#p2bd203200f)" style="fill: none; stroke: #808080; stroke-width: 0.8; stroke-linecap: square"/>
     </g>
     <g id="line2d_8">
      <g>
       <use xlink:href="#me37c1b900d" x="499.277523" y="414.957187" style="fill: #808080; stroke: #808080; stroke-width: 0.8"/>
      </g>
     </g>
     <g id="text_4">
      <!-- 45 -->
      <g style="fill: #808080" transform="translate(489.733773 429.854844) scale(0.15 -0.15)">
       <use xlink:href="#DejaVuSans-34"/>
       <use xlink:href="#DejaVuSans-35" x="63.623047"/>
      </g>
     </g>
    </g>
    <g id="xtick_5">
     <g id="line2d_9">
      <path d="M 612.15524 414.957187 
L 612.15524 26.877187 
" clip-path="url(#p2bd203200f)" style="fill: none; stroke: #808080; stroke-width: 0.8; stroke-linecap: square"/>
     </g>
     <g id="line2d_10">
      <g>
       <use xlink:href="#me37c1b900d" x="612.15524" y="414.957187" style="fill: #808080; stroke: #808080; stroke-width: 0.8"/>
      </g>
     </g>
     <g id="text_5">
      <!-- 50 -->
      <g style="fill: #808080" transform="translate(602.61149 429.854844) scale(0.15 -0.15)">
       <use xlink:href="#DejaVuSans-35"/>
       <use xlink:href="#DejaVuSans-30" x="63.623047"/>
      </g>
     </g>
    </g>
    <g id="text_6">
     <!-- time [s] -->
     <g style="fill: #808080" transform="translate(312.711328 448.372031) scale(0.15 -0.15)">
      <defs>
       <path id="DejaVuSans-74" d="M 1172 4494 
L 1172 3500 
L 2356 3500 
L 2356 3053 
L 1172 3053 
L 1172 1153 
Q 1172 725 1289 603 
Q 1406 481 1766 481 
L 2356 481 
L 2356 0 
L 1766 0 
Q 1100 0 847 248 
Q 594 497 594 1153 
L 594 3053 
L 172 3053 
L 172 3500 
L 594 3500 
L 594 4494 
L 1172 4494 
z
" transform="scale(0.015625)"/>
       <path id="DejaVuSans-69" d="M 603 3500 
L 1178 3500 
L 1178 0 
L 603 0 
L 603 3500 
z
M 603 4863 
L 1178 4863 
L 1178 4134 
L 603 4134 
L 603 4863 
z
" transform="scale(0.015625)"/>
       <path id="DejaVuSans-6d" d="M 3328 2828 
Q 3544 3216 3844 3400 
Q 4144 3584 4550 3584 
Q 5097 3584 5394 3201 
Q 5691 2819 5691 2113 
L 5691 0 
L 5113 0 
L 5113 2094 
Q 5113 2597 4934 2840 
Q 4756 3084 4391 3084 
Q 3944 3084 3684 2787 
Q 3425 2491 3425 1978 
L 3425 0 
L 2847 0 
L 2847 2094 
Q 2847 2600 2669 2842 
Q 2491 3084 2119 3084 
Q 1678 3084 1418 2786 
Q 1159 2488 1159 1978 
L 1159 0 
L 581 0 
L 581 3500 
L 1159 3500 
L 1159 2956 
Q 1356 3278 1631 3431 
Q 1906 3584 2284 3584 
Q 2666 3584 2933 3390 
Q 3200 3197 3328 2828 
z
" transform="scale(0.015625)"/>
       <path id="DejaVuSans-65" d="M 3597 1894 
L 3597 1613 
L 953 1613 
Q 991 1019 1311 708 
Q 1631 397 2203 397 
Q 2534 397 2845 478 
Q 3156 559 3463 722 
L 3463 178 
Q 3153 47 2828 -22 
Q 2503 -91 2169 -91 
Q 1331 -91 842 396 
Q 353 884 353 1716 
Q 353 2575 817 3079 
Q 1281 3584 2069 3584 
Q 2775 3584 3186 3129 
Q 3597 2675 3597 1894 
z
M 3022 2063 
Q 3016 2534 2758 2815 
Q 2500 3097 2075 3097 
Q 1594 3097 1305 2825 
Q 1016 2553 972 2059 
L 3022 2063 
z
" transform="scale(0.015625)"/>
       <path id="DejaVuSans-20" transform="scale(0.015625)"/>
       <path id="DejaVuSans-5b" d="M 550 4863 
L 1875 4863 
L 1875 4416 
L 1125 4416 
L 1125 -397 
L 1875 -397 
L 1875 -844 
L 550 -844 
L 550 4863 
z
" transform="scale(0.015625)"/>
       <path id="DejaVuSans-73" d="M 2834 3397 
L 2834 2853 
Q 2591 2978 2328 3040 
Q 2066 3103 1784 3103 
Q 1356 3103 1142 2972 
Q 928 2841 928 2578 
Q 928 2378 1081 2264 
Q 1234 2150 1697 2047 
L 1894 2003 
Q 2506 1872 2764 1633 
Q 3022 1394 3022 966 
Q 3022 478 2636 193 
Q 2250 -91 1575 -91 
Q 1294 -91 989 -36 
Q 684 19 347 128 
L 347 722 
Q 666 556 975 473 
Q 1284 391 1588 391 
Q 1994 391 2212 530 
Q 2431 669 2431 922 
Q 2431 1156 2273 1281 
Q 2116 1406 1581 1522 
L 1381 1569 
Q 847 1681 609 1914 
Q 372 2147 372 2553 
Q 372 3047 722 3315 
Q 1072 3584 1716 3584 
Q 2034 3584 2315 3537 
Q 2597 3491 2834 3397 
z
" transform="scale(0.015625)"/>
       <path id="DejaVuSans-5d" d="M 1947 4863 
L 1947 -844 
L 622 -844 
L 622 -397 
L 1369 -397 
L 1369 4416 
L 622 4416 
L 622 4863 
L 1947 4863 
z
" transform="scale(0.015625)"/>
      </defs>
      <use xlink:href="#DejaVuSans-74"/>
      <use xlink:href="#DejaVuSans-69" x="39.208984"/>
      <use xlink:href="#DejaVuSans-6d" x="66.992188"/>
      <use xlink:href="#DejaVuSans-65" x="164.404297"/>
      <use xlink:href="#DejaVuSans-20" x="225.927734"/>
      <use xlink:href="#DejaVuSans-5b" x="257.714844"/>
      <use xlink:href="#DejaVuSans-73" x="296.728516"/>
      <use xlink:href="#DejaVuSans-5d" x="348.828125"/>
     </g>
    </g>
   </g>
   <g id="matplotlib.axis_2">
    <g id="ytick_1">
     <g id="line2d_11">
      <path d="M 62.798438 399.187427 
L 620.798437 399.187427 
" clip-path="url(#p2bd203200f)" style="fill: none; stroke: #808080; stroke-width: 0.8; stroke-linecap: square"/>
     </g>
     <g id="line2d_12">
      <defs>
       <path id="m79279cffab" d="M 0 0 
L 5 0 
" style="stroke: #808080; stroke-width: 0.8"/>
      </defs>
      <g>
       <use xlink:href="#m79279cffab" x="62.798438" y="399.187427" style="fill: #808080; stroke: #808080; stroke-width: 0.8"/>
      </g>
     </g>
     <g id="text_7">
      <!-- 69.9 -->
      <g style="fill: #808080" transform="translate(25.9 404.886255) scale(0.15 -0.15)">
       <defs>
        <path id="DejaVuSans-36" d="M 2113 2584 
Q 1688 2584 1439 2293 
Q 1191 2003 1191 1497 
Q 1191 994 1439 701 
Q 1688 409 2113 409 
Q 2538 409 2786 701 
Q 3034 994 3034 1497 
Q 3034 2003 2786 2293 
Q 2538 2584 2113 2584 
z
M 3366 4563 
L 3366 3988 
Q 3128 4100 2886 4159 
Q 2644 4219 2406 4219 
Q 1781 4219 1451 3797 
Q 1122 3375 1075 2522 
Q 1259 2794 1537 2939 
Q 1816 3084 2150 3084 
Q 2853 3084 3261 2657 
Q 3669 2231 3669 1497 
Q 3669 778 3244 343 
Q 2819 -91 2113 -91 
Q 1303 -91 875 529 
Q 447 1150 447 2328 
Q 447 3434 972 4092 
Q 1497 4750 2381 4750 
Q 2619 4750 2861 4703 
Q 3103 4656 3366 4563 
z
" transform="scale(0.015625)"/>
        <path id="DejaVuSans-39" d="M 703 97 
L 703 672 
Q 941 559 1184 500 
Q 1428 441 1663 441 
Q 2288 441 2617 861 
Q 2947 1281 2994 2138 
Q 2813 1869 2534 1725 
Q 2256 1581 1919 1581 
Q 1219 1581 811 2004 
Q 403 2428 403 3163 
Q 403 3881 828 4315 
Q 1253 4750 1959 4750 
Q 2769 4750 3195 4129 
Q 3622 3509 3622 2328 
Q 3622 1225 3098 567 
Q 2575 -91 1691 -91 
Q 1453 -91 1209 -44 
Q 966 3 703 97 
z
M 1959 2075 
Q 2384 2075 2632 2365 
Q 2881 2656 2881 3163 
Q 2881 3666 2632 3958 
Q 2384 4250 1959 4250 
Q 1534 4250 1286 3958 
Q 1038 3666 1038 3163 
Q 1038 2656 1286 2365 
Q 1534 2075 1959 2075 
z
" transform="scale(0.015625)"/>
        <path id="DejaVuSans-2e" d="M 684 794 
L 1344 794 
L 1344 0 
L 684 0 
L 684 794 
z
" transform="scale(0.015625)"/>
       </defs>
       <use xlink:href="#DejaVuSans-36"/>
       <use xlink:href="#DejaVuSans-39" x="63.623047"/>
       <use xlink:href="#DejaVuSans-2e" x="127.246094"/>
       <use xlink:href="#DejaVuSans-39" x="159.033203"/>
      </g>
     </g>
    </g>
    <g id="ytick_2">
     <g id="line2d_13">
      <path d="M 62.798438 351.549356 
L 620.798437 351.549356 
" clip-path="url(#p2bd203200f)" style="fill: none; stroke: #808080; stroke-width: 0.8; stroke-linecap: square"/>
     </g>
     <g id="line2d_14">
      <g>
       <use xlink:href="#m79279cffab" x="62.798438" y="351.549356" style="fill: #808080; stroke: #808080; stroke-width: 0.8"/>
      </g>
     </g>
     <g id="text_8">
      <!-- 70.0 -->
      <g style="fill: #808080" transform="translate(25.9 357.248184) scale(0.15 -0.15)">
       <defs>
        <path id="DejaVuSans-37" d="M 525 4666 
L 3525 4666 
L 3525 4397 
L 1831 0 
L 1172 0 
L 2766 4134 
L 525 4134 
L 525 4666 
z
" transform="scale(0.015625)"/>
       </defs>
       <use xlink:href="#DejaVuSans-37"/>
       <use xlink:href="#DejaVuSans-30" x="63.623047"/>
       <use xlink:href="#DejaVuSans-2e" x="127.246094"/>
       <use xlink:href="#DejaVuSans-30" x="159.033203"/>
      </g>
     </g>
    </g>
    <g id="ytick_3">
     <g id="line2d_15">
      <path d="M 62.798438 303.911285 
L 620.798437 303.911285 
" clip-path="url(#p2bd203200f)" style="fill: none; stroke: #808080; stroke-width: 0.8; stroke-linecap: square"/>
     </g>
     <g id="line2d_16">
      <g>
       <use xlink:href="#m79279cffab" x="62.798438" y="303.911285" style="fill: #808080; stroke: #808080; stroke-width: 0.8"/>
      </g>
     </g>
     <g id="text_9">
      <!-- 70.1 -->
      <g style="fill: #808080" transform="translate(25.9 309.610113) scale(0.15 -0.15)">
       <defs>
        <path id="DejaVuSans-31" d="M 794 531 
L 1825 531 
L 1825 4091 
L 703 3866 
L 703 4441 
L 1819 4666 
L 2450 4666 
L 2450 531 
L 3481 531 
L 3481 0 
L 794 0 
L 794 531 
z
" transform="scale(0.015625)"/>
       </defs>
       <use xlink:href="#DejaVuSans-37"/>
       <use xlink:href="#DejaVuSans-30" x="63.623047"/>
       <use xlink:href="#DejaVuSans-2e" x="127.246094"/>
       <use xlink:href="#DejaVuSans-31" x="159.033203"/>
      </g>
     </g>
    </g>
    <g id="ytick_4">
     <g id="line2d_17">
      <path d="M 62.798438 256.273214 
L 620.798437 256.273214 
" clip-path="url(#p2bd203200f)" style="fill: none; stroke: #808080; stroke-width: 0.8; stroke-linecap: square"/>
     </g>
     <g id="line2d_18">
      <g>
       <use xlink:href="#m79279cffab" x="62.798438" y="256.273214" style="fill: #808080; stroke: #808080; stroke-width: 0.8"/>
      </g>
     </g>
     <g id="text_10">
      <!-- 70.2 -->
      <g style="fill: #808080" transform="translate(25.9 261.972042) scale(0.15 -0.15)">
       <defs>
        <path id="DejaVuSans-32" d="M 1228 531 
L 3431 531 
L 3431 0 
L 469 0 
L 469 531 
Q 828 903 1448 1529 
Q 2069 2156 2228 2338 
Q 2531 2678 2651 2914 
Q 2772 3150 2772 3378 
Q 2772 3750 2511 3984 
Q 2250 4219 1831 4219 
Q 1534 4219 1204 4116 
Q 875 4013 500 3803 
L 500 4441 
Q 881 4594 1212 4672 
Q 1544 4750 1819 4750 
Q 2544 4750 2975 4387 
Q 3406 4025 3406 3419 
Q 3406 3131 3298 2873 
Q 3191 2616 2906 2266 
Q 2828 2175 2409 1742 
Q 1991 1309 1228 531 
z
" transform="scale(0.015625)"/>
       </defs>
       <use xlink:href="#DejaVuSans-37"/>
       <use xlink:href="#DejaVuSans-30" x="63.623047"/>
       <use xlink:href="#DejaVuSans-2e" x="127.246094"/>
       <use xlink:href="#DejaVuSans-32" x="159.033203"/>
      </g>
     </g>
    </g>
    <g id="ytick_5">
     <g id="line2d_19">
      <path d="M 62.798438 208.635143 
L 620.798437 208.635143 
" clip-path="url(#p2bd203200f)" style="fill: none; stroke: #808080; stroke-width: 0.8; stroke-linecap: square"/>
     </g>
     <g id="line2d_20">
      <g>
       <use xlink:href="#m79279cffab" x="62.798438" y="208.635143" style="fill: #808080; stroke: #808080; stroke-width: 0.8"/>
      </g>
     </g>
     <g id="text_11">
      <!-- 70.3 -->
      <g style="fill: #808080" transform="translate(25.9 214.333971) scale(0.15 -0.15)">
       <use xlink:href="#DejaVuSans-37"/>
       <use xlink:href="#DejaVuSans-30" x="63.623047"/>
       <use xlink:href="#DejaVuSans-2e" x="127.246094"/>
       <use xlink:href="#DejaVuSans-33" x="159.033203"/>
      </g>
     </g>
    </g>
    <g id="ytick_6">
     <g id="line2d_21">
      <path d="M 62.798438 160.997072 
L 620.798437 160.997072 
" clip-path="url(#p2bd203200f)" style="fill: none; stroke: #808080; stroke-width: 0.8; stroke-linecap: square"/>
     </g>
     <g id="line2d_22">
      <g>
       <use xlink:href="#m79279cffab" x="62.798438" y="160.997072" style="fill: #808080; stroke: #808080; stroke-width: 0.8"/>
      </g>
     </g>
     <g id="text_12">
      <!-- 70.4 -->
      <g style="fill: #808080" transform="translate(25.9 166.6959) scale(0.15 -0.15)">
       <use xlink:href="#DejaVuSans-37"/>
       <use xlink:href="#DejaVuSans-30" x="63.623047"/>
       <use xlink:href="#DejaVuSans-2e" x="127.246094"/>
       <use xlink:href="#DejaVuSans-34" x="159.033203"/>
      </g>
     </g>
    </g>
    <g id="ytick_7">
     <g id="line2d_23">
      <path d="M 62.798438 113.359001 
L 620.798437 113.359001 
" clip-path="url(#p2bd203200f)" style="fill: none; stroke: #808080; stroke-width: 0.8; stroke-linecap: square"/>
     </g>
     <g id="line2d_24">
      <g>
       <use xlink:href="#m79279cffab" x="62.798438" y="113.359001" style="fill: #808080; stroke: #808080; stroke-width: 0.8"/>
      </g>
     </g>
     <g id="text_13">
      <!-- 70.5 -->
      <g style="fill: #808080" transform="translate(25.9 119.05783) scale(0.15 -0.15)">
       <use xlink:href="#DejaVuSans-37"/>
       <use xlink:href="#DejaVuSans-30" x="63.623047"/>
       <use xlink:href="#DejaVuSans-2e" x="127.246094"/>
       <use xlink:href="#DejaVuSans-35" x="159.033203"/>
      </g>
     </g>
    </g>
    <g id="ytick_8">
     <g id="line2d_25">
      <path d="M 62.798438 65.720931 
L 620.798437 65.720931 
" clip-path="url(#p2bd203200f)" style="fill: none; stroke: #808080; stroke-width: 0.8; stroke-linecap: square"/>
     </g>
     <g id="line2d_26">
      <g>
       <use xlink:href="#m79279cffab" x="62.798438" y="65.720931" style="fill: #808080; stroke: #808080; stroke-width: 0.8"/>
      </g>
     </g>
     <g id="text_14">
      <!-- 70.6 -->
      <g style="fill: #808080" transform="translate(25.9 71.419759) scale(0.15 -0.15)">
       <use xlink:href="#DejaVuSans-37"/>
       <use xlink:href="#DejaVuSans-30" x="63.623047"/>
       <use xlink:href="#DejaVuSans-2e" x="127.246094"/>
       <use xlink:href="#DejaVuSans-36" x="159.033203"/>
      </g>
     </g>
    </g>
    <g id="text_15">
     <!-- $\theta$ [deg] -->
     <g style="fill: #808080" transform="translate(18.75 247.917187) rotate(-90) scale(0.15 -0.15)">
      <defs>
       <path id="DejaVuSans-Oblique-3b8" d="M 2913 2219 
L 925 2219 
Q 791 1284 928 888 
Q 1100 400 1566 400 
Q 2034 400 2391 891 
Q 2703 1322 2913 2219 
z
M 3009 2750 
Q 3094 3638 2984 3950 
Q 2813 4444 2353 4444 
Q 1875 4444 1525 3956 
Q 1250 3563 1034 2750 
L 3009 2750 
z
M 2444 4913 
Q 3194 4913 3494 4250 
Q 3794 3591 3566 2422 
Q 3341 1256 2781 594 
Q 2225 -72 1475 -72 
Q 722 -72 425 594 
Q 128 1256 353 2422 
Q 581 3591 1134 4250 
Q 1691 4913 2444 4913 
z
" transform="scale(0.015625)"/>
       <path id="DejaVuSans-64" d="M 2906 2969 
L 2906 4863 
L 3481 4863 
L 3481 0 
L 2906 0 
L 2906 525 
Q 2725 213 2448 61 
Q 2172 -91 1784 -91 
Q 1150 -91 751 415 
Q 353 922 353 1747 
Q 353 2572 751 3078 
Q 1150 3584 1784 3584 
Q 2172 3584 2448 3432 
Q 2725 3281 2906 2969 
z
M 947 1747 
Q 947 1113 1208 752 
Q 1469 391 1925 391 
Q 2381 391 2643 752 
Q 2906 1113 2906 1747 
Q 2906 2381 2643 2742 
Q 2381 3103 1925 3103 
Q 1469 3103 1208 2742 
Q 947 2381 947 1747 
z
" transform="scale(0.015625)"/>
       <path id="DejaVuSans-67" d="M 2906 1791 
Q 2906 2416 2648 2759 
Q 2391 3103 1925 3103 
Q 1463 3103 1205 2759 
Q 947 2416 947 1791 
Q 947 1169 1205 825 
Q 1463 481 1925 481 
Q 2391 481 2648 825 
Q 2906 1169 2906 1791 
z
M 3481 434 
Q 3481 -459 3084 -895 
Q 2688 -1331 1869 -1331 
Q 1566 -1331 1297 -1286 
Q 1028 -1241 775 -1147 
L 775 -588 
Q 1028 -725 1275 -790 
Q 1522 -856 1778 -856 
Q 2344 -856 2625 -561 
Q 2906 -266 2906 331 
L 2906 616 
Q 2728 306 2450 153 
Q 2172 0 1784 0 
Q 1141 0 747 490 
Q 353 981 353 1791 
Q 353 2603 747 3093 
Q 1141 3584 1784 3584 
Q 2172 3584 2450 3431 
Q 2728 3278 2906 2969 
L 2906 3500 
L 3481 3500 
L 3481 434 
z
" transform="scale(0.015625)"/>
      </defs>
      <use xlink:href="#DejaVuSans-Oblique-3b8" transform="translate(0 0.234375)"/>
      <use xlink:href="#DejaVuSans-20" transform="translate(61.181641 0.234375)"/>
      <use xlink:href="#DejaVuSans-5b" transform="translate(92.96875 0.234375)"/>
      <use xlink:href="#DejaVuSans-64" transform="translate(131.982422 0.234375)"/>
      <use xlink:href="#DejaVuSans-65" transform="translate(195.458984 0.234375)"/>
      <use xlink:href="#DejaVuSans-67" transform="translate(256.982422 0.234375)"/>
      <use xlink:href="#DejaVuSans-5d" transform="translate(320.458984 0.234375)"/>
     </g>
    </g>
   </g>
   <g id="line2d_27">
    <path d="M 88.162074 220.303539 
L 88.392186 237.483755 
L 88.627536 237.483755 
L 88.839272 295.912922 
L 89.066405 295.912922 
L 89.291551 305.846194 
L 89.516606 305.846194 
L 89.742836 324.565109 
L 89.968321 324.565109 
L 90.195611 305.846194 
L 90.419267 305.846194 
L 90.653511 324.565109 
L 90.87071 324.565109 
L 91.098723 331.974581 
L 96.741932 331.974581 
L 96.96789 349.431396 
L 98.566532 349.431396 
L 98.773821 331.974581 
L 99.907903 331.974581 
L 100.127563 313.243501 
L 100.361762 313.243501 
L 100.578736 288.526882 
L 100.804852 288.526882 
L 101.031578 271.268856 
L 101.711125 271.268856 
L 101.936948 235.617651 
L 102.160739 235.617651 
L 102.394125 184.813333 
L 102.610625 184.813333 
L 102.837373 192.217941 
L 103.965812 192.217941 
L 104.192628 209.284944 
L 104.417729 209.284944 
L 104.643823 260.113498 
L 104.868743 260.113498 
L 105.094454 278.643656 
L 105.773549 278.643656 
L 105.997498 295.912922 
L 106.222802 295.912922 
L 106.45393 360.607457 
L 109.386561 360.607457 
L 109.608908 295.912922 
L 110.287867 295.912922 
L 110.5129 288.526882 
L 110.740552 288.526882 
L 110.964637 295.912922 
L 112.546482 295.912922 
L 112.77199 313.243501 
L 113.44754 313.243501 
L 113.673408 254.72506 
L 114.350539 254.72506 
L 114.575911 262.175904 
L 114.803721 262.175904 
L 115.029138 254.72506 
L 116.610306 254.72506 
L 116.832811 237.483755 
L 117.059921 237.483755 
L 117.285202 220.303539 
L 117.962378 220.303539 
L 118.194951 154.566188 
L 118.415424 154.566188 
L 118.640457 147.902218 
L 119.31752 147.902218 
L 119.544269 137.582664 
L 120.220926 137.582664 
L 120.445959 201.869038 
L 121.127695 201.869038 
L 121.356001 195.249677 
L 121.574939 195.249677 
L 121.80688 213.673286 
L 122.523405 213.673286 
L 122.929426 237.483755 
L 123.380847 237.483755 
L 123.606715 288.526882 
L 123.922344 288.526882 
L 124.283733 305.846194 
L 125.647477 305.846194 
L 125.864247 288.526882 
L 127.897084 288.526882 
L 128.121959 281.934235 
L 129.278166 281.934235 
L 129.475792 299.243485 
L 129.701751 299.243485 
L 129.928387 346.700595 
L 132.862169 346.700595 
L 133.08955 329.319118 
L 133.31386 329.319118 
L 133.541986 264.686245 
L 134.669747 264.686245 
L 134.894397 246.178942 
L 136.92536 246.178942 
L 137.150935 271.268856 
L 137.378203 271.268856 
L 137.60292 299.942542 
L 137.82924 299.942542 
L 138.053708 318.537917 
L 138.734474 318.537917 
L 138.958852 335.867896 
L 139.185037 335.867896 
L 139.409934 353.259339 
L 140.990109 353.259339 
L 141.216113 360.607457 
L 142.797236 360.607457 
L 143.022111 343.204853 
L 144.606102 343.204853 
L 144.829261 278.643656 
L 147.763201 278.643656 
L 147.990379 295.912922 
L 148.214622 295.912922 
L 148.441235 278.643656 
L 149.117215 278.643656 
L 149.342473 252.750772 
L 150.020281 252.750772 
L 150.24712 184.813333 
L 151.378087 184.813333 
L 151.599621 167.817114 
L 152.282531 167.817114 
L 152.503749 161.217906 
L 154.084082 161.217906 
L 154.337244 184.813333 
L 154.557017 184.813333 
L 154.765796 252.750772 
L 154.987668 252.750772 
L 155.225818 271.268856 
L 156.342472 271.268856 
L 156.568769 264.686245 
L 157.247661 264.686245 
L 157.470369 318.537917 
L 157.696824 318.537917 
L 157.926237 311.999079 
L 159.501558 311.999079 
L 159.72763 318.537917 
L 159.952482 318.537917 
L 160.178847 311.999079 
L 162.682994 311.999079 
L 162.889808 264.686245 
L 163.588386 264.686245 
L 163.81439 311.999079 
L 164.018563 311.999079 
L 164.244251 318.537917 
L 164.468561 318.537917 
L 164.724545 311.999079 
L 164.965336 311.999079 
L 165.268187 246.178942 
L 165.598693 229.055807 
L 166.274627 229.055807 
L 166.500383 211.992326 
L 167.187627 211.992326 
L 167.403766 193.682692 
L 168.983851 193.682692 
L 169.210532 142.991334 
L 169.886534 142.991334 
L 170.112831 211.992326 
L 170.3373 211.992326 
L 170.563687 235.617651 
L 171.241721 235.617651 
L 171.61354 252.750772 
L 172.154924 252.750772 
L 172.370318 278.643656 
L 172.594493 278.643656 
L 172.829685 271.268856 
L 175.756243 271.268856 
L 175.982924 278.643656 
L 176.208228 278.643656 
L 176.433486 318.537917 
L 179.822256 318.537917 
L 180.081446 288.526882 
L 180.319211 288.526882 
L 180.504105 335.867896 
L 181.624281 335.867896 
L 181.853084 271.268856 
L 182.52886 271.268856 
L 182.753329 252.750772 
L 183.430528 252.750772 
L 183.658428 235.617651 
L 184.334633 235.617651 
L 184.559508 211.992326 
L 184.785444 211.992326 
L 185.013389 229.055807 
L 186.594219 229.055807 
L 186.818914 246.178942 
L 187.04582 246.178942 
L 187.269883 299.942542 
L 187.494487 299.942542 
L 187.720964 282.737834 
L 188.39796 282.737834 
L 188.624415 299.942542 
L 190.656033 299.942542 
L 190.881902 252.750772 
L 191.107296 252.750772 
L 191.332668 260.113498 
L 195.622518 260.113498 
L 195.847234 209.284944 
L 198.333479 209.284944 
L 198.558241 192.217941 
L 198.783071 192.217941 
L 199.010113 175.210453 
L 199.237652 175.210453 
L 199.464672 128.101481 
L 199.686025 128.101481 
L 199.913293 117.095782 
L 200.136813 117.095782 
L 200.36302 70.06061 
L 200.587828 70.06061 
L 200.814486 46.104308 
L 201.039858 46.104308 
L 201.266178 70.06061 
L 201.499947 70.06061 
L 201.717508 88.167238 
L 202.39719 88.167238 
L 202.620484 95.651825 
L 202.845585 95.651825 
L 203.072718 112.537778 
L 203.755063 112.537778 
L 203.976891 176.689631 
L 204.652825 176.689631 
L 204.879009 195.082675 
L 205.555644 195.082675 
L 205.781128 203.413855 
L 210.521789 203.413855 
L 210.886 185.007109 
L 211.200297 192.995626 
L 211.885216 192.995626 
L 212.111085 211.415525 
L 212.778305 211.415525 
L 213.031896 203.413855 
L 214.586154 203.413855 
L 214.811616 192.995626 
L 215.491298 192.995626 
L 215.715383 167.97711 
L 216.843686 167.97711 
L 217.070864 103.999643 
L 218.654087 103.999643 
L 218.875666 151.006536 
L 219.101331 151.006536 
L 219.326432 167.97711 
L 220.003675 167.97711 
L 220.233065 185.007109 
L 220.483789 185.007109 
L 220.681438 192.995626 
L 220.906336 192.995626 
L 221.13243 203.413855 
L 221.357485 203.413855 
L 221.584437 275.778183 
L 221.840918 275.778183 
L 222.040102 203.413855 
L 222.715743 203.413855 
L 222.940753 250.591112 
L 223.166215 250.591112 
L 223.390752 203.413855 
L 225.876522 203.413855 
L 226.104061 185.007109 
L 226.777038 185.007109 
L 227.006541 240.042336 
L 227.229678 240.042336 
L 227.454214 232.106909 
L 227.680534 232.106909 
L 227.905951 185.007109 
L 229.938495 185.007109 
L 230.163099 192.995626 
L 230.840342 192.995626 
L 231.067746 185.007109 
L 231.291695 185.007109 
L 231.518647 167.97711 
L 231.744041 167.97711 
L 231.9693 151.006536 
L 232.647131 151.006536 
L 232.874105 132.796699 
L 233.596816 132.796699 
L 234.001957 115.948594 
L 234.233266 69.090344 
L 234.45331 69.090344 
L 234.678681 115.948594 
L 235.366287 115.948594 
L 235.584254 132.796699 
L 235.80703 132.796699 
L 236.033553 151.006536 
L 236.260843 151.006536 
L 236.525135 158.970718 
L 236.712061 158.970718 
L 236.937026 175.953445 
L 237.161743 175.953445 
L 237.388063 240.042336 
L 238.516117 240.042336 
L 238.759053 258.539568 
L 238.96896 258.539568 
L 239.19318 248.230562 
L 239.422435 248.230562 
L 239.645414 266.741231 
L 239.875549 266.741231 
L 240.106948 258.539568 
L 240.77839 258.539568 
L 241.000578 266.741231 
L 241.232384 266.741231 
L 241.462474 258.539568 
L 242.579738 258.539568 
L 242.809173 275.778183 
L 243.935512 275.778183 
L 244.162848 258.539568 
L 244.844968 258.539568 
L 245.064176 309.231305 
L 245.287629 309.231305 
L 245.514175 326.547135 
L 246.191757 326.547135 
L 246.417761 275.778183 
L 246.643494 275.778183 
L 246.869249 258.539568 
L 247.094011 258.539568 
L 247.320353 250.591112 
L 247.998004 250.591112 
L 248.224617 232.106909 
L 248.90317 232.106909 
L 249.126239 215.005169 
L 249.352807 215.005169 
L 249.576914 151.006536 
L 249.804182 151.006536 
L 250.029012 142.714406 
L 250.254519 142.714406 
L 250.483751 124.518167 
L 251.610745 124.518167 
L 251.840609 142.714406 
L 252.062166 142.714406 
L 252.288237 197.96303 
L 252.514422 197.96303 
L 252.739409 206.755623 
L 252.963269 206.755623 
L 253.188753 215.005169 
L 253.417646 215.005169 
L 253.641551 232.106909 
L 255.674659 232.106909 
L 255.899037 250.591112 
L 258.382121 250.591112 
L 258.607583 242.315425 
L 258.833948 242.315425 
L 259.058439 195.082675 
L 260.641707 195.082675 
L 260.864957 212.224295 
L 262.445787 212.224295 
L 262.670752 220.56823 
L 262.897591 220.56823 
L 263.124588 212.224295 
L 264.256436 212.224295 
L 264.477089 147.798095 
L 265.155597 147.798095 
L 265.380969 129.482944 
L 265.606024 129.482944 
L 265.83257 112.537778 
L 266.509881 112.537778 
L 266.73575 37.373529 
L 266.961031 37.373529 
L 267.187644 95.651825 
L 267.412158 95.651825 
L 267.637462 26.877187 
L 267.86412 26.877187 
L 268.089176 44.91255 
L 268.31685 44.91255 
L 268.542967 95.651825 
L 268.766262 95.651825 
L 268.992785 112.537778 
L 270.121359 112.537778 
L 270.348672 137.856352 
L 271.024832 137.856352 
L 271.250813 203.413855 
L 272.832659 203.413855 
L 273.05776 211.415525 
L 273.762478 211.415525 
L 273.987736 203.413855 
L 274.187801 203.413855 
L 274.411592 211.415525 
L 278.699681 211.415525 
L 278.925888 283.992355 
L 279.151802 283.992355 
L 279.379905 236.851261 
L 279.608279 236.851261 
L 279.832635 219.672011 
L 280.363318 219.672011 
L 280.734889 236.851261 
L 281.409243 236.851261 
L 281.635179 219.672011 
L 282.311836 219.672011 
L 282.551137 192.995626 
L 282.803509 192.995626 
L 282.989599 145.898503 
L 283.216009 145.898503 
L 283.440952 128.928227 
L 285.021375 128.928227 
L 285.248079 175.953445 
L 285.472638 175.953445 
L 285.697219 192.995626 
L 286.378256 192.995626 
L 286.601279 211.415525 
L 287.731027 211.415525 
L 287.955586 236.851261 
L 288.181477 236.851261 
L 288.407549 283.992355 
L 289.539306 283.992355 
L 289.764181 236.851261 
L 290.439686 236.851261 
L 290.666367 228.582145 
L 294.062305 228.582145 
L 294.314462 211.415525 
L 296.760409 211.415525 
L 296.98542 192.995626 
L 299.022411 192.995626 
L 299.243742 175.953445 
L 299.471777 175.953445 
L 299.696494 158.970718 
L 299.922656 158.970718 
L 300.147734 112.017227 
L 301.726871 112.017227 
L 301.952829 175.953445 
L 302.629328 175.953445 
L 302.858267 192.995626 
L 303.082239 192.995626 
L 303.306865 211.415525 
L 303.535127 211.415525 
L 303.776956 258.539568 
L 303.984651 258.539568 
L 304.210655 275.778183 
L 305.790085 275.778183 
L 306.017849 293.078034 
L 306.24505 293.078034 
L 306.469202 275.778183 
L 306.702814 275.778183 
L 306.975188 293.078034 
L 307.597844 293.078034 
L 307.824661 301.304746 
L 309.405671 301.304746 
L 309.661858 293.078034 
L 313.927806 293.078034 
L 314.149213 275.778183 
L 314.821678 275.778183 
L 315.048326 258.539568 
L 315.274256 258.539568 
L 315.516975 185.007109 
L 316.18668 185.007109 
L 316.413161 167.97711 
L 317.08265 167.97711 
L 317.307296 175.953445 
L 317.532394 175.953445 
L 317.757551 158.970718 
L 317.98409 158.970718 
L 318.209109 175.953445 
L 318.886786 175.953445 
L 319.111696 240.042336 
L 319.788128 240.042336 
L 320.014081 258.539568 
L 320.256044 258.539568 
L 320.473919 309.231305 
L 321.596588 309.231305 
L 321.821582 301.339557 
L 322.505471 301.339557 
L 322.728674 250.591112 
L 323.409464 250.591112 
L 323.630838 301.339557 
L 323.854302 301.339557 
L 324.079238 250.591112 
L 324.303489 250.591112 
L 324.529305 267.817598 
L 325.20612 267.817598 
L 325.431793 318.643381 
L 326.109896 318.643381 
L 326.334943 267.817598 
L 328.368037 267.817598 
L 328.592757 259.529277 
L 330.624951 259.529277 
L 330.852328 242.315425 
L 331.979535 242.315425 
L 332.206186 176.689631 
L 332.882213 176.689631 
L 333.107253 159.672322 
L 333.784517 159.672322 
L 334.01022 167.97711 
L 334.236345 167.97711 
L 334.464599 185.007109 
L 335.139141 185.007109 
L 335.366955 203.413855 
L 336.04318 203.413855 
L 336.268566 267.817598 
L 336.494284 267.817598 
L 336.719095 275.778183 
L 336.944852 275.778183 
L 337.170383 293.078034 
L 337.396737 293.078034 
L 337.623852 275.778183 
L 339.202997 275.778183 
L 339.428661 283.992355 
L 342.815497 283.992355 
L 343.040898 293.121003 
L 343.267154 293.121003 
L 343.493137 283.992355 
L 344.621199 283.992355 
L 344.846749 246.040866 
L 345.072999 246.040866 
L 345.298584 236.851261 
L 346.427392 236.851261 
L 346.653295 219.672011 
L 346.878617 219.672011 
L 347.104415 172.552635 
L 347.781284 172.552635 
L 348.015962 154.196677 
L 348.686531 154.196677 
L 348.915266 128.928227 
L 349.138842 128.928227 
L 349.364998 78.230137 
L 350.492016 78.230137 
L 350.717666 128.928227 
L 350.942714 128.928227 
L 351.168161 137.213718 
L 351.393299 137.213718 
L 351.618938 154.196677 
L 352.297468 154.196677 
L 352.543517 172.552635 
L 352.761427 172.552635 
L 352.98379 219.672011 
L 353.204655 219.672011 
L 353.429071 236.851261 
L 353.653954 236.851261 
L 353.878596 228.582145 
L 354.782242 228.582145 
L 355.007478 236.851261 
L 355.233279 236.851261 
L 355.460908 219.672011 
L 356.71595 219.672011 
L 357.04088 211.415525 
L 357.263813 228.582145 
L 359.746762 228.582145 
L 359.980374 211.415525 
L 360.197731 211.415525 
L 360.459675 203.413855 
L 361.55495 203.413855 
L 361.784521 250.591112 
L 362.455353 250.591112 
L 362.682237 232.106909 
L 363.359007 232.106909 
L 363.587155 223.844793 
L 363.847451 223.844793 
L 364.053182 206.755623 
L 364.265031 206.755623 
L 364.4874 189.726023 
L 364.713652 189.726023 
L 364.937534 135.279825 
L 365.210472 135.279825 
L 365.843829 109.929219 
L 366.073106 109.929219 
L 366.294279 100.271568 
L 366.518409 100.271568 
L 366.744097 93.115917 
L 367.873393 93.115917 
L 368.099307 109.929219 
L 368.327004 109.929219 
L 368.551359 156.960965 
L 368.777408 156.960965 
L 369.002509 175.210453 
L 369.680204 175.210453 
L 369.905485 192.217941 
L 370.583113 192.217941 
L 370.80713 199.359291 
L 373.743328 199.359291 
L 373.968474 182.340939 
L 374.208745 182.340939 
L 374.420617 199.359291 
L 376.452912 199.359291 
L 376.679006 206.755623 
L 376.905146 206.755623 
L 377.1372 159.672322 
L 377.808528 159.672322 
L 378.034148 176.689631 
L 380.064593 176.689631 
L 380.292674 159.672322 
L 380.968879 159.672322 
L 381.193189 142.714406 
L 381.418493 142.714406 
L 381.647184 95.651825 
L 383.67835 95.651825 
L 383.902435 103.999643 
L 384.129432 103.999643 
L 384.353427 120.898375 
L 384.579431 120.898375 
L 384.808301 167.97711 
L 385.031393 167.97711 
L 385.256945 185.007109 
L 385.934911 185.007109 
L 386.160622 211.415525 
L 386.386896 211.415525 
L 386.616918 258.539568 
L 388.643028 258.539568 
L 388.869326 250.591112 
L 389.097745 250.591112 
L 389.322597 240.042336 
L 389.548556 240.042336 
L 389.77255 258.539568 
L 389.997922 258.539568 
L 390.224287 240.042336 
L 390.900605 240.042336 
L 391.153338 232.106909 
L 391.352726 232.106909 
L 391.577917 273.460501 
L 391.804259 273.460501 
L 392.028389 222.928529 
L 392.255702 222.928529 
L 392.479968 273.460501 
L 392.706852 273.460501 
L 392.931727 222.928529 
L 393.235142 222.928529 
L 393.610348 215.005169 
L 394.063303 215.005169 
L 394.28714 265.593593 
L 394.964 265.593593 
L 395.202398 282.772278 
L 395.867992 282.772278 
L 396.108196 265.593593 
L 396.320384 265.593593 
L 396.545101 197.96303 
L 396.771059 197.96303 
L 396.996137 179.676321 
L 397.222096 179.676321 
L 397.451283 162.757019 
L 397.673742 162.757019 
L 397.898662 154.545956 
L 398.15652 154.545956 
L 398.352702 137.697791 
L 399.479402 137.697791 
L 399.703893 119.618927 
L 399.930619 119.618927 
L 400.165992 112.280267 
L 400.383146 112.280267 
L 400.609443 130.34714 
L 400.834025 130.34714 
L 401.059577 147.184144 
L 401.737837 147.184144 
L 402.00784 221.940603 
L 402.643861 221.940603 
L 402.866704 240.29643 
L 406.709491 240.29643 
L 406.930121 232.964089 
L 408.510116 232.964089 
L 408.734223 214.620221 
L 409.231946 214.620221 
L 409.532788 207.552283 
L 410.318191 207.552283 
L 410.54275 254.475804 
L 410.766564 254.475804 
L 410.991936 207.552283 
L 411.217533 207.552283 
L 411.467557 254.475804 
L 412.121097 254.475804 
L 412.350148 207.552283 
L 413.024457 207.552283 
L 413.251364 200.223876 
L 413.477435 200.223876 
L 413.703823 183.27343 
L 413.927118 183.27343 
L 414.155063 173.68799 
L 414.830929 173.68799 
L 415.05752 155.550496 
L 415.734719 155.550496 
L 416.000794 105.194624 
L 416.195734 105.194624 
L 416.411308 148.25615 
L 416.638056 148.25615 
L 416.861961 173.68799 
L 417.53934 173.68799 
L 417.76566 190.590738 
L 417.991189 190.590738 
L 418.265731 237.443314 
L 418.464802 237.443314 
L 418.669404 254.475804 
L 418.895046 254.475804 
L 419.122089 272.884718 
L 419.355249 272.884718 
L 419.599584 279.917352 
L 420.248811 279.917352 
L 420.482852 297.083909 
L 422.056503 297.083909 
L 422.280069 257.402914 
L 422.506456 257.402914 
L 422.731421 274.569157 
L 424.313267 274.569157 
L 424.540354 321.616333 
L 425.23243 321.616333 
L 425.442699 274.569157 
L 426.570257 274.569157 
L 426.798044 282.772278 
L 427.473346 282.772278 
L 427.699463 274.569157 
L 429.730969 274.569157 
L 429.985372 257.402914 
L 430.184534 257.402914 
L 430.407874 199.359291 
L 430.633448 199.359291 
L 430.8604 182.340939 
L 431.988094 182.340939 
L 432.213827 164.079781 
L 432.438995 164.079781 
L 432.66466 182.340939 
L 433.799533 182.340939 
L 434.021518 189.726023 
L 434.245626 189.726023 
L 434.470636 257.402914 
L 435.148896 257.402914 
L 435.379866 274.569157 
L 436.051624 274.569157 
L 436.281985 293.123003 
L 436.503519 293.123003 
L 436.728439 274.569157 
L 437.407376 274.569157 
L 437.631731 301.339557 
L 438.309269 301.339557 
L 438.535792 293.123003 
L 439.212719 293.123003 
L 439.438226 318.643381 
L 439.663914 318.643381 
L 439.890798 301.339557 
L 440.115606 301.339557 
L 440.344702 250.591112 
L 440.567252 250.591112 
L 440.792307 267.817598 
L 442.373973 267.817598 
L 442.599841 250.591112 
L 444.178887 250.591112 
L 444.404485 267.817598 
L 444.630263 267.817598 
L 444.855634 250.591112 
L 445.129543 250.591112 
L 445.533284 258.539568 
L 445.813289 250.591112 
L 446.210099 232.106909 
L 446.438789 232.106909 
L 446.663032 185.007109 
L 446.892829 185.007109 
L 447.113618 167.97711 
L 447.339192 167.97711 
L 447.566483 159.672322 
L 447.791629 159.672322 
L 448.01621 95.651825 
L 448.242462 95.651825 
L 448.468082 103.999643 
L 448.698105 103.999643 
L 448.919503 112.537778 
L 449.145936 112.537778 
L 449.373226 95.651825 
L 449.598034 95.651825 
L 449.822954 112.537778 
L 450.049409 112.537778 
L 450.273562 159.672322 
L 450.500536 159.672322 
L 450.725388 176.689631 
L 451.429429 176.689631 
L 451.653853 195.082675 
L 452.758384 195.082675 
L 452.985381 176.689631 
L 453.208653 176.689631 
L 453.434476 195.082675 
L 454.115151 195.082675 
L 454.342735 176.689631 
L 455.0149 176.689631 
L 455.243003 242.315425 
L 461.789572 242.315425 
L 462.013589 234.895645 
L 462.240563 234.895645 
L 462.471037 216.437186 
L 462.692819 216.437186 
L 462.91783 169.232312 
L 463.142389 169.232312 
L 463.373246 152.226387 
L 464.047013 152.226387 
L 464.271663 135.279825 
L 464.948771 135.279825 
L 465.17491 117.095782 
L 465.852515 117.095782 
L 466.078609 135.279825 
L 466.303349 135.279825 
L 466.529939 152.226387 
L 466.755085 152.226387 
L 466.979983 199.359291 
L 467.205986 199.359291 
L 467.431787 216.437186 
L 468.563476 216.437186 
L 468.787087 234.895645 
L 469.463022 234.895645 
L 469.690877 187.613066 
L 469.915187 187.613066 
L 470.139723 169.232312 
L 473.526777 169.232312 
L 473.753413 176.689631 
L 474.431425 176.689631 
L 474.657293 159.672322 
L 474.882281 159.672322 
L 475.106343 176.689631 
L 476.687308 176.689631 
L 476.913606 159.672322 
L 477.139067 159.672322 
L 477.364349 176.689631 
L 478.493532 176.689631 
L 478.718656 169.232312 
L 478.945382 169.232312 
L 479.172085 159.672322 
L 479.397141 159.672322 
L 479.621926 112.537778 
L 479.848562 112.537778 
L 480.077162 88.167238 
L 480.300027 88.167238 
L 480.52506 95.651825 
L 480.7512 95.651825 
L 480.977226 70.06061 
L 482.106026 70.06061 
L 482.331442 117.095782 
L 482.55722 117.095782 
L 482.783044 142.714406 
L 483.462274 142.714406 
L 483.690422 159.672322 
L 484.362632 159.672322 
L 484.587891 185.007109 
L 484.819583 185.007109 
L 485.041591 250.591112 
L 485.719016 250.591112 
L 485.943823 259.529277 
L 486.168653 259.529277 
L 486.397907 267.817598 
L 486.621473 267.817598 
L 486.84838 250.591112 
L 487.073819 250.591112 
L 487.298355 242.315425 
L 487.523863 242.315425 
L 487.749799 267.817598 
L 487.975915 267.817598 
L 488.203996 285.10529 
L 488.426455 285.10529 
L 488.6551 275.778183 
L 488.878395 275.778183 
L 489.103834 326.547135 
L 489.331802 326.547135 
L 489.556136 343.924393 
L 490.234305 343.924393 
L 490.461302 293.078034 
L 491.587393 293.078034 
L 491.814141 301.304746 
L 492.49204 301.304746 
L 492.716508 283.992355 
L 493.393865 283.992355 
L 493.619575 301.304746 
L 495.651577 301.304746 
L 495.880922 236.851261 
L 496.556224 236.851261 
L 496.779519 219.672011 
L 497.457711 219.672011 
L 497.682405 192.995626 
L 499.26389 192.995626 
L 499.488855 201.238547 
L 499.714836 201.238547 
L 499.940028 211.415525 
L 500.167296 211.415525 
L 500.394473 266.741231 
L 500.623705 266.741231 
L 500.846323 283.992355 
L 501.070746 283.992355 
L 501.294063 275.778183 
L 502.423157 275.778183 
L 502.650718 228.582145 
L 502.875096 228.582145 
L 503.102635 258.539568 
L 503.343087 258.539568 
L 503.55383 203.413855 
L 503.779518 203.413855 
L 504.005589 250.591112 
L 504.682404 250.591112 
L 504.907934 211.415525 
L 505.133193 211.415525 
L 505.35888 250.591112 
L 506.035943 250.591112 
L 506.263347 203.413855 
L 507.84508 203.413855 
L 508.069413 185.007109 
L 508.29334 185.007109 
L 508.518328 176.689631 
L 509.196836 176.689631 
L 509.421665 223.844793 
L 511.004392 223.844793 
L 511.227415 232.106909 
L 511.905607 232.106909 
L 512.130843 223.844793 
L 512.358021 223.844793 
L 512.591452 206.755623 
L 512.808358 206.755623 
L 513.037522 189.726023 
L 513.260253 189.726023 
L 513.48655 142.714406 
L 513.714111 142.714406 
L 513.936887 124.518167 
L 515.518462 124.518167 
L 515.743021 189.726023 
L 515.969995 189.726023 
L 516.216904 206.755623 
L 516.871866 206.755623 
L 517.099111 223.844793 
L 517.327124 223.844793 
L 517.549538 293.123003 
L 518.225676 293.123003 
L 518.453124 310.414322 
L 519.133009 310.414322 
L 519.354904 375.034586 
L 520.490206 375.034586 
L 520.709618 357.610086 
L 520.936547 357.610086 
L 521.163047 375.034586 
L 523.645725 375.034586 
L 523.874754 357.610086 
L 524.547302 357.610086 
L 524.778566 350.281079 
L 525.001115 350.281079 
L 525.283423 367.694441 
L 525.571035 414.957187 
L 526.356122 414.957187 
L 526.590005 367.694441 
L 526.808175 367.694441 
L 527.047453 360.607457 
L 527.257202 360.607457 
L 527.481897 390.442767 
L 527.707788 390.442767 
L 527.935169 343.204853 
L 528.62589 343.204853 
L 528.837265 397.472195 
L 529.065142 397.472195 
L 529.314308 332.929234 
L 529.51566 332.929234 
L 529.742725 325.863741 
L 530.421955 325.863741 
L 530.644595 260.113498 
L 532.239444 260.113498 
L 532.449036 278.643656 
L 533.126279 278.643656 
L 533.352622 295.912922 
L 533.578422 295.912922 
L 533.815601 313.243501 
L 534.030181 313.243501 
L 534.25526 360.607457 
L 534.566531 360.607457 
L 534.933903 379.416295 
L 535.163022 396.945497 
L 535.39318 396.945497 
L 535.630675 331.974581 
L 537.949589 331.974581 
L 538.319173 324.565109 
L 538.545696 324.565109 
L 538.770391 305.846194 
L 539.448966 305.846194 
L 539.674857 288.526882 
L 540.803589 288.526882 
L 541.0279 335.867896 
L 541.706453 335.867896 
L 541.930538 288.526882 
L 543.512722 288.526882 
L 543.737913 335.867896 
L 543.963849 335.867896 
L 544.190169 288.526882 
L 544.415496 288.526882 
L 544.656693 264.686245 
L 544.867119 264.686245 
L 545.094545 246.178942 
L 545.386966 246.178942 
L 545.769577 229.055807 
L 546.259218 229.055807 
L 546.457454 154.875642 
L 547.57544 154.875642 
L 547.803972 136.659463 
L 548.09269 136.659463 
L 548.705052 205.695602 
L 548.937354 205.695602 
L 549.156608 222.749506 
L 550.287485 222.749506 
L 550.509493 246.178942 
L 550.735677 246.178942 
L 550.96141 293.414383 
L 551.187617 293.414383 
L 551.414817 311.999079 
L 552.093009 311.999079 
L 552.316665 329.319118 
L 552.542804 329.319118 
L 552.781021 281.934235 
L 553.054614 281.934235 
L 553.450138 288.526882 
L 557.057619 288.526882 
L 557.282878 281.934235 
L 557.960709 281.934235 
L 558.185335 288.526882 
L 559.767159 288.526882 
L 559.994923 295.912922 
L 560.668532 295.912922 
L 560.89711 278.643656 
L 561.121601 278.643656 
L 561.349366 227.731644 
L 561.572073 227.731644 
L 561.797016 209.284944 
L 562.023697 209.284944 
L 562.250513 192.217941 
L 562.476653 192.217941 
L 562.699857 145.037074 
L 563.377485 145.037074 
L 563.602834 128.101481 
L 564.283509 128.101481 
L 564.506668 145.037074 
L 565.183957 145.037074 
L 565.411428 152.226387 
L 565.637093 152.226387 
L 565.861539 169.232312 
L 566.989301 169.232312 
L 567.218171 195.082675 
L 567.442098 195.082675 
L 567.669005 212.224295 
L 569.250151 212.224295 
L 569.47839 220.56823 
L 569.699314 220.56823 
L 569.927982 195.082675 
L 570.15157 195.082675 
L 570.375993 203.413855 
L 572.408131 203.413855 
L 572.633593 211.415525 
L 572.859845 211.415525 
L 573.215793 250.591112 
L 574.215393 250.591112 
L 574.439772 203.413855 
L 574.712665 203.413855 
L 575.117828 242.315425 
L 576.021572 242.315425 
L 576.246673 250.591112 
L 576.922923 250.591112 
L 577.149582 242.315425 
L 577.375495 242.315425 
L 577.601522 223.844793 
L 578.72926 223.844793 
L 578.958921 206.755623 
L 579.181358 206.755623 
L 579.406685 159.672322 
L 579.633275 159.672322 
L 579.85806 142.714406 
L 580.988282 142.714406 
L 581.211735 171.452784 
L 581.439183 171.452784 
L 581.664126 189.726023 
L 581.889475 189.726023 
L 582.118459 206.755623 
L 582.342995 206.755623 
L 582.569563 223.844793 
L 583.24832 223.844793 
L 583.471073 301.339557 
L 583.695654 301.339557 
L 583.920732 318.643381 
L 584.599489 318.643381 
L 584.824002 310.414322 
L 586.85833 310.414322 
L 587.105103 318.643381 
L 590.46843 318.643381 
L 590.717912 301.339557 
L 593.177292 301.339557 
L 593.402867 318.643381 
L 593.62869 318.643381 
L 593.855213 293.123003 
L 594.079524 293.123003 
L 594.306295 242.315425 
L 594.983877 242.315425 
L 595.209836 223.844793 
L 595.434801 223.844793 
L 595.434801 223.844793 
" clip-path="url(#p2bd203200f)" style="fill: none; stroke: #1f77b4; stroke-width: 2; stroke-linecap: square"/>
   </g>
   <g id="patch_3">
    <path d="M 62.798438 414.957187 
L 62.798438 26.877187 
" style="fill: none; stroke: #808080; stroke-width: 2; stroke-linejoin: miter; stroke-linecap: square"/>
   </g>
   <g id="patch_4">
    <path d="M 62.798437 414.957187 
L 620.798437 414.957187 
" style="fill: none; stroke: #808080; stroke-width: 2; stroke-linejoin: miter; stroke-linecap: square"/>
   </g>
   <g id="text_16">
    <!-- Oskar-Tyholt_restart-vinkel -->
    <g style="fill: #808080" transform="translate(223.286719 20.877187) scale(0.18 -0.18)">
     <defs>
      <path id="DejaVuSans-4f" d="M 2522 4238 
Q 1834 4238 1429 3725 
Q 1025 3213 1025 2328 
Q 1025 1447 1429 934 
Q 1834 422 2522 422 
Q 3209 422 3611 934 
Q 4013 1447 4013 2328 
Q 4013 3213 3611 3725 
Q 3209 4238 2522 4238 
z
M 2522 4750 
Q 3503 4750 4090 4092 
Q 4678 3434 4678 2328 
Q 4678 1225 4090 567 
Q 3503 -91 2522 -91 
Q 1538 -91 948 565 
Q 359 1222 359 2328 
Q 359 3434 948 4092 
Q 1538 4750 2522 4750 
z
" transform="scale(0.015625)"/>
      <path id="DejaVuSans-6b" d="M 581 4863 
L 1159 4863 
L 1159 1991 
L 2875 3500 
L 3609 3500 
L 1753 1863 
L 3688 0 
L 2938 0 
L 1159 1709 
L 1159 0 
L 581 0 
L 581 4863 
z
" transform="scale(0.015625)"/>
      <path id="DejaVuSans-61" d="M 2194 1759 
Q 1497 1759 1228 1600 
Q 959 1441 959 1056 
Q 959 750 1161 570 
Q 1363 391 1709 391 
Q 2188 391 2477 730 
Q 2766 1069 2766 1631 
L 2766 1759 
L 2194 1759 
z
M 3341 1997 
L 3341 0 
L 2766 0 
L 2766 531 
Q 2569 213 2275 61 
Q 1981 -91 1556 -91 
Q 1019 -91 701 211 
Q 384 513 384 1019 
Q 384 1609 779 1909 
Q 1175 2209 1959 2209 
L 2766 2209 
L 2766 2266 
Q 2766 2663 2505 2880 
Q 2244 3097 1772 3097 
Q 1472 3097 1187 3025 
Q 903 2953 641 2809 
L 641 3341 
Q 956 3463 1253 3523 
Q 1550 3584 1831 3584 
Q 2591 3584 2966 3190 
Q 3341 2797 3341 1997 
z
" transform="scale(0.015625)"/>
      <path id="DejaVuSans-72" d="M 2631 2963 
Q 2534 3019 2420 3045 
Q 2306 3072 2169 3072 
Q 1681 3072 1420 2755 
Q 1159 2438 1159 1844 
L 1159 0 
L 581 0 
L 581 3500 
L 1159 3500 
L 1159 2956 
Q 1341 3275 1631 3429 
Q 1922 3584 2338 3584 
Q 2397 3584 2469 3576 
Q 2541 3569 2628 3553 
L 2631 2963 
z
" transform="scale(0.015625)"/>
      <path id="DejaVuSans-2d" d="M 313 2009 
L 1997 2009 
L 1997 1497 
L 313 1497 
L 313 2009 
z
" transform="scale(0.015625)"/>
      <path id="DejaVuSans-54" d="M -19 4666 
L 3928 4666 
L 3928 4134 
L 2272 4134 
L 2272 0 
L 1638 0 
L 1638 4134 
L -19 4134 
L -19 4666 
z
" transform="scale(0.015625)"/>
      <path id="DejaVuSans-79" d="M 2059 -325 
Q 1816 -950 1584 -1140 
Q 1353 -1331 966 -1331 
L 506 -1331 
L 506 -850 
L 844 -850 
Q 1081 -850 1212 -737 
Q 1344 -625 1503 -206 
L 1606 56 
L 191 3500 
L 800 3500 
L 1894 763 
L 2988 3500 
L 3597 3500 
L 2059 -325 
z
" transform="scale(0.015625)"/>
      <path id="DejaVuSans-68" d="M 3513 2113 
L 3513 0 
L 2938 0 
L 2938 2094 
Q 2938 2591 2744 2837 
Q 2550 3084 2163 3084 
Q 1697 3084 1428 2787 
Q 1159 2491 1159 1978 
L 1159 0 
L 581 0 
L 581 4863 
L 1159 4863 
L 1159 2956 
Q 1366 3272 1645 3428 
Q 1925 3584 2291 3584 
Q 2894 3584 3203 3211 
Q 3513 2838 3513 2113 
z
" transform="scale(0.015625)"/>
      <path id="DejaVuSans-6f" d="M 1959 3097 
Q 1497 3097 1228 2736 
Q 959 2375 959 1747 
Q 959 1119 1226 758 
Q 1494 397 1959 397 
Q 2419 397 2687 759 
Q 2956 1122 2956 1747 
Q 2956 2369 2687 2733 
Q 2419 3097 1959 3097 
z
M 1959 3584 
Q 2709 3584 3137 3096 
Q 3566 2609 3566 1747 
Q 3566 888 3137 398 
Q 2709 -91 1959 -91 
Q 1206 -91 779 398 
Q 353 888 353 1747 
Q 353 2609 779 3096 
Q 1206 3584 1959 3584 
z
" transform="scale(0.015625)"/>
      <path id="DejaVuSans-6c" d="M 603 4863 
L 1178 4863 
L 1178 0 
L 603 0 
L 603 4863 
z
" transform="scale(0.015625)"/>
      <path id="DejaVuSans-5f" d="M 3263 -1063 
L 3263 -1509 
L -63 -1509 
L -63 -1063 
L 3263 -1063 
z
" transform="scale(0.015625)"/>
      <path id="DejaVuSans-76" d="M 191 3500 
L 800 3500 
L 1894 563 
L 2988 3500 
L 3597 3500 
L 2284 0 
L 1503 0 
L 191 3500 
z
" transform="scale(0.015625)"/>
      <path id="DejaVuSans-6e" d="M 3513 2113 
L 3513 0 
L 2938 0 
L 2938 2094 
Q 2938 2591 2744 2837 
Q 2550 3084 2163 3084 
Q 1697 3084 1428 2787 
Q 1159 2491 1159 1978 
L 1159 0 
L 581 0 
L 581 3500 
L 1159 3500 
L 1159 2956 
Q 1366 3272 1645 3428 
Q 1925 3584 2291 3584 
Q 2894 3584 3203 3211 
Q 3513 2838 3513 2113 
z
" transform="scale(0.015625)"/>
     </defs>
     <use xlink:href="#DejaVuSans-4f"/>
     <use xlink:href="#DejaVuSans-73" x="78.710938"/>
     <use xlink:href="#DejaVuSans-6b" x="130.810547"/>
     <use xlink:href="#DejaVuSans-61" x="186.970703"/>
     <use xlink:href="#DejaVuSans-72" x="248.25"/>
     <use xlink:href="#DejaVuSans-2d" x="282.988281"/>
     <use xlink:href="#DejaVuSans-54" x="309.947266"/>
     <use xlink:href="#DejaVuSans-79" x="355.40625"/>
     <use xlink:href="#DejaVuSans-68" x="414.585938"/>
     <use xlink:href="#DejaVuSans-6f" x="477.964844"/>
     <use xlink:href="#DejaVuSans-6c" x="539.146484"/>
     <use xlink:href="#DejaVuSans-74" x="566.929688"/>
     <use xlink:href="#DejaVuSans-5f" x="606.138672"/>
     <use xlink:href="#DejaVuSans-72" x="656.138672"/>
     <use xlink:href="#DejaVuSans-65" x="695.001953"/>
     <use xlink:href="#DejaVuSans-73" x="756.525391"/>
     <use xlink:href="#DejaVuSans-74" x="808.625"/>
     <use xlink:href="#DejaVuSans-61" x="847.833984"/>
     <use xlink:href="#DejaVuSans-72" x="909.113281"/>
     <use xlink:href="#DejaVuSans-74" x="950.226562"/>
     <use xlink:href="#DejaVuSans-2d" x="989.435547"/>
     <use xlink:href="#DejaVuSans-76" x="1022.894531"/>
     <use xlink:href="#DejaVuSans-69" x="1082.074219"/>
     <use xlink:href="#DejaVuSans-6e" x="1109.857422"/>
     <use xlink:href="#DejaVuSans-6b" x="1173.236328"/>
     <use xlink:href="#DejaVuSans-65" x="1227.521484"/>
     <use xlink:href="#DejaVuSans-6c" x="1289.044922"/>
    </g>
   </g>
   <g id="legend_1">
    <g id="patch_5">
     <path d="M 364.778906 61.311562 
L 610.298437 61.311562 
Q 613.298437 61.311562 613.298437 58.311562 
L 613.298437 37.377187 
Q 613.298437 34.377187 610.298437 34.377187 
L 364.778906 34.377187 
Q 361.778906 34.377187 361.778906 37.377187 
L 361.778906 58.311562 
Q 361.778906 61.311562 364.778906 61.311562 
z
" style="fill: #ffffff; opacity: 0.8; stroke: #cccccc; stroke-linejoin: miter"/>
    </g>
    <g id="line2d_28">
     <path d="M 367.778906 46.524844 
L 382.778906 46.524844 
L 397.778906 46.524844 
" style="fill: none; stroke: #1f77b4; stroke-width: 2; stroke-linecap: square"/>
    </g>
    <g id="text_17">
     <!-- Oskar-Tyholt_restart-vinkel -->
     <g style="fill: #808080" transform="translate(409.778906 51.774844) scale(0.15 -0.15)">
      <use xlink:href="#DejaVuSans-4f"/>
      <use xlink:href="#DejaVuSans-73" x="78.710938"/>
      <use xlink:href="#DejaVuSans-6b" x="130.810547"/>
      <use xlink:href="#DejaVuSans-61" x="186.970703"/>
      <use xlink:href="#DejaVuSans-72" x="248.25"/>
      <use xlink:href="#DejaVuSans-2d" x="282.988281"/>
      <use xlink:href="#DejaVuSans-54" x="309.947266"/>
      <use xlink:href="#DejaVuSans-79" x="355.40625"/>
      <use xlink:href="#DejaVuSans-68" x="414.585938"/>
      <use xlink:href="#DejaVuSans-6f" x="477.964844"/>
      <use xlink:href="#DejaVuSans-6c" x="539.146484"/>
      <use xlink:href="#DejaVuSans-74" x="566.929688"/>
      <use xlink:href="#DejaVuSans-5f" x="606.138672"/>
      <use xlink:href="#DejaVuSans-72" x="656.138672"/>
      <use xlink:href="#DejaVuSans-65" x="695.001953"/>
      <use xlink:href="#DejaVuSans-73" x="756.525391"/>
      <use xlink:href="#DejaVuSans-74" x="808.625"/>
      <use xlink:href="#DejaVuSans-61" x="847.833984"/>
      <use xlink:href="#DejaVuSans-72" x="909.113281"/>
      <use xlink:href="#DejaVuSans-74" x="950.226562"/>
      <use xlink:href="#DejaVuSans-2d" x="989.435547"/>
      <use xlink:href="#DejaVuSans-76" x="1022.894531"/>
      <use xlink:href="#DejaVuSans-69" x="1082.074219"/>
      <use xlink:href="#DejaVuSans-6e" x="1109.857422"/>
      <use xlink:href="#DejaVuSans-6b" x="1173.236328"/>
      <use xlink:href="#DejaVuSans-65" x="1227.521484"/>
      <use xlink:href="#DejaVuSans-6c" x="1289.044922"/>
     </g>
    </g>
   </g>
  </g>
 </g>
 <defs>
  <clipPath id="p2bd203200f">
   <rect x="62.798438" y="26.877187" width="558" height="388.08"/>
  </clipPath>
 </defs>
</svg>
