<?xml version="1.0" encoding="utf-8" standalone="no"?>
<!DOCTYPE svg PUBLIC "-//W3C//DTD SVG 1.1//EN"
  "http://www.w3.org/Graphics/SVG/1.1/DTD/svg11.dtd">
<svg xmlns:xlink="http://www.w3.org/1999/xlink" width="627.998438pt" height="458.691562pt" viewBox="0 0 627.998438 458.691562" xmlns="http://www.w3.org/2000/svg" version="1.1">
 <metadata>
  <rdf:RDF xmlns:dc="http://purl.org/dc/elements/1.1/" xmlns:cc="http://creativecommons.org/ns#" xmlns:rdf="http://www.w3.org/1999/02/22-rdf-syntax-ns#">
   <cc:Work>
    <dc:type rdf:resource="http://purl.org/dc/dcmitype/StillImage"/>
    <dc:date>2023-03-30T16:05:59.224403</dc:date>
    <dc:format>image/svg+xml</dc:format>
    <dc:creator>
     <cc:Agent>
      <dc:title>Matplotlib v3.7.0, https://matplotlib.org/</dc:title>
     </cc:Agent>
    </dc:creator>
   </cc:Work>
  </rdf:RDF>
 </metadata>
 <defs>
  <style type="text/css">*{stroke-linejoin: round; stroke-linecap: butt}</style>
 </defs>
 <g id="figure_1">
  <g id="patch_1">
   <path d="M 0 458.691562 
L 627.998438 458.691562 
L 627.998438 0 
L 0 0 
L 0 458.691562 
z
" style="fill: none"/>
  </g>
  <g id="axes_1">
   <g id="patch_2">
    <path d="M 62.798438 414.957187 
L 620.798437 414.957187 
L 620.798437 26.877187 
L 62.798438 26.877187 
L 62.798438 414.957187 
z
" style="fill: none"/>
   </g>
   <g id="matplotlib.axis_1">
    <g id="xtick_1">
     <g id="line2d_1">
      <path d="M 171.371111 414.957187 
L 171.371111 26.877187 
" clip-path="url(#p65ed754521)" style="fill: none; stroke: #808080; stroke-width: 0.8; stroke-linecap: square"/>
     </g>
     <g id="line2d_2">
      <defs>
       <path id="m9ea2fc9cf8" d="M 0 0 
L 0 -5 
" style="stroke: #808080; stroke-width: 0.8"/>
      </defs>
      <g>
       <use xlink:href="#m9ea2fc9cf8" x="171.371111" y="414.957187" style="fill: #808080; stroke: #808080; stroke-width: 0.8"/>
      </g>
     </g>
     <g id="text_1">
      <!-- 60 -->
      <g style="fill: #808080" transform="translate(161.827361 429.854844) scale(0.15 -0.15)">
       <defs>
        <path id="DejaVuSans-36" d="M 2113 2584 
Q 1688 2584 1439 2293 
Q 1191 2003 1191 1497 
Q 1191 994 1439 701 
Q 1688 409 2113 409 
Q 2538 409 2786 701 
Q 3034 994 3034 1497 
Q 3034 2003 2786 2293 
Q 2538 2584 2113 2584 
z
M 3366 4563 
L 3366 3988 
Q 3128 4100 2886 4159 
Q 2644 4219 2406 4219 
Q 1781 4219 1451 3797 
Q 1122 3375 1075 2522 
Q 1259 2794 1537 2939 
Q 1816 3084 2150 3084 
Q 2853 3084 3261 2657 
Q 3669 2231 3669 1497 
Q 3669 778 3244 343 
Q 2819 -91 2113 -91 
Q 1303 -91 875 529 
Q 447 1150 447 2328 
Q 447 3434 972 4092 
Q 1497 4750 2381 4750 
Q 2619 4750 2861 4703 
Q 3103 4656 3366 4563 
z
" transform="scale(0.015625)"/>
        <path id="DejaVuSans-30" d="M 2034 4250 
Q 1547 4250 1301 3770 
Q 1056 3291 1056 2328 
Q 1056 1369 1301 889 
Q 1547 409 2034 409 
Q 2525 409 2770 889 
Q 3016 1369 3016 2328 
Q 3016 3291 2770 3770 
Q 2525 4250 2034 4250 
z
M 2034 4750 
Q 2819 4750 3233 4129 
Q 3647 3509 3647 2328 
Q 3647 1150 3233 529 
Q 2819 -91 2034 -91 
Q 1250 -91 836 529 
Q 422 1150 422 2328 
Q 422 3509 836 4129 
Q 1250 4750 2034 4750 
z
" transform="scale(0.015625)"/>
       </defs>
       <use xlink:href="#DejaVuSans-36"/>
       <use xlink:href="#DejaVuSans-30" x="63.623047"/>
      </g>
     </g>
    </g>
    <g id="xtick_2">
     <g id="line2d_3">
      <path d="M 291.068834 414.957187 
L 291.068834 26.877187 
" clip-path="url(#p65ed754521)" style="fill: none; stroke: #808080; stroke-width: 0.8; stroke-linecap: square"/>
     </g>
     <g id="line2d_4">
      <g>
       <use xlink:href="#m9ea2fc9cf8" x="291.068834" y="414.957187" style="fill: #808080; stroke: #808080; stroke-width: 0.8"/>
      </g>
     </g>
     <g id="text_2">
      <!-- 70 -->
      <g style="fill: #808080" transform="translate(281.525084 429.854844) scale(0.15 -0.15)">
       <defs>
        <path id="DejaVuSans-37" d="M 525 4666 
L 3525 4666 
L 3525 4397 
L 1831 0 
L 1172 0 
L 2766 4134 
L 525 4134 
L 525 4666 
z
" transform="scale(0.015625)"/>
       </defs>
       <use xlink:href="#DejaVuSans-37"/>
       <use xlink:href="#DejaVuSans-30" x="63.623047"/>
      </g>
     </g>
    </g>
    <g id="xtick_3">
     <g id="line2d_5">
      <path d="M 410.766558 414.957187 
L 410.766558 26.877187 
" clip-path="url(#p65ed754521)" style="fill: none; stroke: #808080; stroke-width: 0.8; stroke-linecap: square"/>
     </g>
     <g id="line2d_6">
      <g>
       <use xlink:href="#m9ea2fc9cf8" x="410.766558" y="414.957187" style="fill: #808080; stroke: #808080; stroke-width: 0.8"/>
      </g>
     </g>
     <g id="text_3">
      <!-- 80 -->
      <g style="fill: #808080" transform="translate(401.222808 429.854844) scale(0.15 -0.15)">
       <defs>
        <path id="DejaVuSans-38" d="M 2034 2216 
Q 1584 2216 1326 1975 
Q 1069 1734 1069 1313 
Q 1069 891 1326 650 
Q 1584 409 2034 409 
Q 2484 409 2743 651 
Q 3003 894 3003 1313 
Q 3003 1734 2745 1975 
Q 2488 2216 2034 2216 
z
M 1403 2484 
Q 997 2584 770 2862 
Q 544 3141 544 3541 
Q 544 4100 942 4425 
Q 1341 4750 2034 4750 
Q 2731 4750 3128 4425 
Q 3525 4100 3525 3541 
Q 3525 3141 3298 2862 
Q 3072 2584 2669 2484 
Q 3125 2378 3379 2068 
Q 3634 1759 3634 1313 
Q 3634 634 3220 271 
Q 2806 -91 2034 -91 
Q 1263 -91 848 271 
Q 434 634 434 1313 
Q 434 1759 690 2068 
Q 947 2378 1403 2484 
z
M 1172 3481 
Q 1172 3119 1398 2916 
Q 1625 2713 2034 2713 
Q 2441 2713 2670 2916 
Q 2900 3119 2900 3481 
Q 2900 3844 2670 4047 
Q 2441 4250 2034 4250 
Q 1625 4250 1398 4047 
Q 1172 3844 1172 3481 
z
" transform="scale(0.015625)"/>
       </defs>
       <use xlink:href="#DejaVuSans-38"/>
       <use xlink:href="#DejaVuSans-30" x="63.623047"/>
      </g>
     </g>
    </g>
    <g id="xtick_4">
     <g id="line2d_7">
      <path d="M 530.464281 414.957187 
L 530.464281 26.877187 
" clip-path="url(#p65ed754521)" style="fill: none; stroke: #808080; stroke-width: 0.8; stroke-linecap: square"/>
     </g>
     <g id="line2d_8">
      <g>
       <use xlink:href="#m9ea2fc9cf8" x="530.464281" y="414.957187" style="fill: #808080; stroke: #808080; stroke-width: 0.8"/>
      </g>
     </g>
     <g id="text_4">
      <!-- 90 -->
      <g style="fill: #808080" transform="translate(520.920531 429.854844) scale(0.15 -0.15)">
       <defs>
        <path id="DejaVuSans-39" d="M 703 97 
L 703 672 
Q 941 559 1184 500 
Q 1428 441 1663 441 
Q 2288 441 2617 861 
Q 2947 1281 2994 2138 
Q 2813 1869 2534 1725 
Q 2256 1581 1919 1581 
Q 1219 1581 811 2004 
Q 403 2428 403 3163 
Q 403 3881 828 4315 
Q 1253 4750 1959 4750 
Q 2769 4750 3195 4129 
Q 3622 3509 3622 2328 
Q 3622 1225 3098 567 
Q 2575 -91 1691 -91 
Q 1453 -91 1209 -44 
Q 966 3 703 97 
z
M 1959 2075 
Q 2384 2075 2632 2365 
Q 2881 2656 2881 3163 
Q 2881 3666 2632 3958 
Q 2384 4250 1959 4250 
Q 1534 4250 1286 3958 
Q 1038 3666 1038 3163 
Q 1038 2656 1286 2365 
Q 1534 2075 1959 2075 
z
" transform="scale(0.015625)"/>
       </defs>
       <use xlink:href="#DejaVuSans-39"/>
       <use xlink:href="#DejaVuSans-30" x="63.623047"/>
      </g>
     </g>
    </g>
    <g id="text_5">
     <!-- time [s] -->
     <g style="fill: #808080" transform="translate(312.711328 448.372031) scale(0.15 -0.15)">
      <defs>
       <path id="DejaVuSans-74" d="M 1172 4494 
L 1172 3500 
L 2356 3500 
L 2356 3053 
L 1172 3053 
L 1172 1153 
Q 1172 725 1289 603 
Q 1406 481 1766 481 
L 2356 481 
L 2356 0 
L 1766 0 
Q 1100 0 847 248 
Q 594 497 594 1153 
L 594 3053 
L 172 3053 
L 172 3500 
L 594 3500 
L 594 4494 
L 1172 4494 
z
" transform="scale(0.015625)"/>
       <path id="DejaVuSans-69" d="M 603 3500 
L 1178 3500 
L 1178 0 
L 603 0 
L 603 3500 
z
M 603 4863 
L 1178 4863 
L 1178 4134 
L 603 4134 
L 603 4863 
z
" transform="scale(0.015625)"/>
       <path id="DejaVuSans-6d" d="M 3328 2828 
Q 3544 3216 3844 3400 
Q 4144 3584 4550 3584 
Q 5097 3584 5394 3201 
Q 5691 2819 5691 2113 
L 5691 0 
L 5113 0 
L 5113 2094 
Q 5113 2597 4934 2840 
Q 4756 3084 4391 3084 
Q 3944 3084 3684 2787 
Q 3425 2491 3425 1978 
L 3425 0 
L 2847 0 
L 2847 2094 
Q 2847 2600 2669 2842 
Q 2491 3084 2119 3084 
Q 1678 3084 1418 2786 
Q 1159 2488 1159 1978 
L 1159 0 
L 581 0 
L 581 3500 
L 1159 3500 
L 1159 2956 
Q 1356 3278 1631 3431 
Q 1906 3584 2284 3584 
Q 2666 3584 2933 3390 
Q 3200 3197 3328 2828 
z
" transform="scale(0.015625)"/>
       <path id="DejaVuSans-65" d="M 3597 1894 
L 3597 1613 
L 953 1613 
Q 991 1019 1311 708 
Q 1631 397 2203 397 
Q 2534 397 2845 478 
Q 3156 559 3463 722 
L 3463 178 
Q 3153 47 2828 -22 
Q 2503 -91 2169 -91 
Q 1331 -91 842 396 
Q 353 884 353 1716 
Q 353 2575 817 3079 
Q 1281 3584 2069 3584 
Q 2775 3584 3186 3129 
Q 3597 2675 3597 1894 
z
M 3022 2063 
Q 3016 2534 2758 2815 
Q 2500 3097 2075 3097 
Q 1594 3097 1305 2825 
Q 1016 2553 972 2059 
L 3022 2063 
z
" transform="scale(0.015625)"/>
       <path id="DejaVuSans-20" transform="scale(0.015625)"/>
       <path id="DejaVuSans-5b" d="M 550 4863 
L 1875 4863 
L 1875 4416 
L 1125 4416 
L 1125 -397 
L 1875 -397 
L 1875 -844 
L 550 -844 
L 550 4863 
z
" transform="scale(0.015625)"/>
       <path id="DejaVuSans-73" d="M 2834 3397 
L 2834 2853 
Q 2591 2978 2328 3040 
Q 2066 3103 1784 3103 
Q 1356 3103 1142 2972 
Q 928 2841 928 2578 
Q 928 2378 1081 2264 
Q 1234 2150 1697 2047 
L 1894 2003 
Q 2506 1872 2764 1633 
Q 3022 1394 3022 966 
Q 3022 478 2636 193 
Q 2250 -91 1575 -91 
Q 1294 -91 989 -36 
Q 684 19 347 128 
L 347 722 
Q 666 556 975 473 
Q 1284 391 1588 391 
Q 1994 391 2212 530 
Q 2431 669 2431 922 
Q 2431 1156 2273 1281 
Q 2116 1406 1581 1522 
L 1381 1569 
Q 847 1681 609 1914 
Q 372 2147 372 2553 
Q 372 3047 722 3315 
Q 1072 3584 1716 3584 
Q 2034 3584 2315 3537 
Q 2597 3491 2834 3397 
z
" transform="scale(0.015625)"/>
       <path id="DejaVuSans-5d" d="M 1947 4863 
L 1947 -844 
L 622 -844 
L 622 -397 
L 1369 -397 
L 1369 4416 
L 622 4416 
L 622 4863 
L 1947 4863 
z
" transform="scale(0.015625)"/>
      </defs>
      <use xlink:href="#DejaVuSans-74"/>
      <use xlink:href="#DejaVuSans-69" x="39.208984"/>
      <use xlink:href="#DejaVuSans-6d" x="66.992188"/>
      <use xlink:href="#DejaVuSans-65" x="164.404297"/>
      <use xlink:href="#DejaVuSans-20" x="225.927734"/>
      <use xlink:href="#DejaVuSans-5b" x="257.714844"/>
      <use xlink:href="#DejaVuSans-73" x="296.728516"/>
      <use xlink:href="#DejaVuSans-5d" x="348.828125"/>
     </g>
    </g>
   </g>
   <g id="matplotlib.axis_2">
    <g id="ytick_1">
     <g id="line2d_9">
      <path d="M 62.798438 347.285772 
L 620.798437 347.285772 
" clip-path="url(#p65ed754521)" style="fill: none; stroke: #808080; stroke-width: 0.8; stroke-linecap: square"/>
     </g>
     <g id="line2d_10">
      <defs>
       <path id="m9235b20ad1" d="M 0 0 
L 5 0 
" style="stroke: #808080; stroke-width: 0.8"/>
      </defs>
      <g>
       <use xlink:href="#m9235b20ad1" x="62.798438" y="347.285772" style="fill: #808080; stroke: #808080; stroke-width: 0.8"/>
      </g>
     </g>
     <g id="text_6">
      <!-- 73.8 -->
      <g style="fill: #808080" transform="translate(25.9 352.9846) scale(0.15 -0.15)">
       <defs>
        <path id="DejaVuSans-33" d="M 2597 2516 
Q 3050 2419 3304 2112 
Q 3559 1806 3559 1356 
Q 3559 666 3084 287 
Q 2609 -91 1734 -91 
Q 1441 -91 1130 -33 
Q 819 25 488 141 
L 488 750 
Q 750 597 1062 519 
Q 1375 441 1716 441 
Q 2309 441 2620 675 
Q 2931 909 2931 1356 
Q 2931 1769 2642 2001 
Q 2353 2234 1838 2234 
L 1294 2234 
L 1294 2753 
L 1863 2753 
Q 2328 2753 2575 2939 
Q 2822 3125 2822 3475 
Q 2822 3834 2567 4026 
Q 2313 4219 1838 4219 
Q 1578 4219 1281 4162 
Q 984 4106 628 3988 
L 628 4550 
Q 988 4650 1302 4700 
Q 1616 4750 1894 4750 
Q 2613 4750 3031 4423 
Q 3450 4097 3450 3541 
Q 3450 3153 3228 2886 
Q 3006 2619 2597 2516 
z
" transform="scale(0.015625)"/>
        <path id="DejaVuSans-2e" d="M 684 794 
L 1344 794 
L 1344 0 
L 684 0 
L 684 794 
z
" transform="scale(0.015625)"/>
       </defs>
       <use xlink:href="#DejaVuSans-37"/>
       <use xlink:href="#DejaVuSans-33" x="63.623047"/>
       <use xlink:href="#DejaVuSans-2e" x="127.246094"/>
       <use xlink:href="#DejaVuSans-38" x="159.033203"/>
      </g>
     </g>
    </g>
    <g id="ytick_2">
     <g id="line2d_11">
      <path d="M 62.798438 268.227395 
L 620.798437 268.227395 
" clip-path="url(#p65ed754521)" style="fill: none; stroke: #808080; stroke-width: 0.8; stroke-linecap: square"/>
     </g>
     <g id="line2d_12">
      <g>
       <use xlink:href="#m9235b20ad1" x="62.798438" y="268.227395" style="fill: #808080; stroke: #808080; stroke-width: 0.8"/>
      </g>
     </g>
     <g id="text_7">
      <!-- 74.0 -->
      <g style="fill: #808080" transform="translate(25.9 273.926223) scale(0.15 -0.15)">
       <defs>
        <path id="DejaVuSans-34" d="M 2419 4116 
L 825 1625 
L 2419 1625 
L 2419 4116 
z
M 2253 4666 
L 3047 4666 
L 3047 1625 
L 3713 1625 
L 3713 1100 
L 3047 1100 
L 3047 0 
L 2419 0 
L 2419 1100 
L 313 1100 
L 313 1709 
L 2253 4666 
z
" transform="scale(0.015625)"/>
       </defs>
       <use xlink:href="#DejaVuSans-37"/>
       <use xlink:href="#DejaVuSans-34" x="63.623047"/>
       <use xlink:href="#DejaVuSans-2e" x="127.246094"/>
       <use xlink:href="#DejaVuSans-30" x="159.033203"/>
      </g>
     </g>
    </g>
    <g id="ytick_3">
     <g id="line2d_13">
      <path d="M 62.798438 189.169017 
L 620.798437 189.169017 
" clip-path="url(#p65ed754521)" style="fill: none; stroke: #808080; stroke-width: 0.8; stroke-linecap: square"/>
     </g>
     <g id="line2d_14">
      <g>
       <use xlink:href="#m9235b20ad1" x="62.798438" y="189.169017" style="fill: #808080; stroke: #808080; stroke-width: 0.8"/>
      </g>
     </g>
     <g id="text_8">
      <!-- 74.2 -->
      <g style="fill: #808080" transform="translate(25.9 194.867845) scale(0.15 -0.15)">
       <defs>
        <path id="DejaVuSans-32" d="M 1228 531 
L 3431 531 
L 3431 0 
L 469 0 
L 469 531 
Q 828 903 1448 1529 
Q 2069 2156 2228 2338 
Q 2531 2678 2651 2914 
Q 2772 3150 2772 3378 
Q 2772 3750 2511 3984 
Q 2250 4219 1831 4219 
Q 1534 4219 1204 4116 
Q 875 4013 500 3803 
L 500 4441 
Q 881 4594 1212 4672 
Q 1544 4750 1819 4750 
Q 2544 4750 2975 4387 
Q 3406 4025 3406 3419 
Q 3406 3131 3298 2873 
Q 3191 2616 2906 2266 
Q 2828 2175 2409 1742 
Q 1991 1309 1228 531 
z
" transform="scale(0.015625)"/>
       </defs>
       <use xlink:href="#DejaVuSans-37"/>
       <use xlink:href="#DejaVuSans-34" x="63.623047"/>
       <use xlink:href="#DejaVuSans-2e" x="127.246094"/>
       <use xlink:href="#DejaVuSans-32" x="159.033203"/>
      </g>
     </g>
    </g>
    <g id="ytick_4">
     <g id="line2d_15">
      <path d="M 62.798438 110.110639 
L 620.798437 110.110639 
" clip-path="url(#p65ed754521)" style="fill: none; stroke: #808080; stroke-width: 0.8; stroke-linecap: square"/>
     </g>
     <g id="line2d_16">
      <g>
       <use xlink:href="#m9235b20ad1" x="62.798438" y="110.110639" style="fill: #808080; stroke: #808080; stroke-width: 0.8"/>
      </g>
     </g>
     <g id="text_9">
      <!-- 74.4 -->
      <g style="fill: #808080" transform="translate(25.9 115.809467) scale(0.15 -0.15)">
       <use xlink:href="#DejaVuSans-37"/>
       <use xlink:href="#DejaVuSans-34" x="63.623047"/>
       <use xlink:href="#DejaVuSans-2e" x="127.246094"/>
       <use xlink:href="#DejaVuSans-34" x="159.033203"/>
      </g>
     </g>
    </g>
    <g id="ytick_5">
     <g id="line2d_17">
      <path d="M 62.798438 31.052262 
L 620.798437 31.052262 
" clip-path="url(#p65ed754521)" style="fill: none; stroke: #808080; stroke-width: 0.8; stroke-linecap: square"/>
     </g>
     <g id="line2d_18">
      <g>
       <use xlink:href="#m9235b20ad1" x="62.798438" y="31.052262" style="fill: #808080; stroke: #808080; stroke-width: 0.8"/>
      </g>
     </g>
     <g id="text_10">
      <!-- 74.6 -->
      <g style="fill: #808080" transform="translate(25.9 36.75109) scale(0.15 -0.15)">
       <use xlink:href="#DejaVuSans-37"/>
       <use xlink:href="#DejaVuSans-34" x="63.623047"/>
       <use xlink:href="#DejaVuSans-2e" x="127.246094"/>
       <use xlink:href="#DejaVuSans-36" x="159.033203"/>
      </g>
     </g>
    </g>
    <g id="text_11">
     <!-- $\theta$ [deg] -->
     <g style="fill: #808080" transform="translate(18.75 247.917187) rotate(-90) scale(0.15 -0.15)">
      <defs>
       <path id="DejaVuSans-Oblique-3b8" d="M 2913 2219 
L 925 2219 
Q 791 1284 928 888 
Q 1100 400 1566 400 
Q 2034 400 2391 891 
Q 2703 1322 2913 2219 
z
M 3009 2750 
Q 3094 3638 2984 3950 
Q 2813 4444 2353 4444 
Q 1875 4444 1525 3956 
Q 1250 3563 1034 2750 
L 3009 2750 
z
M 2444 4913 
Q 3194 4913 3494 4250 
Q 3794 3591 3566 2422 
Q 3341 1256 2781 594 
Q 2225 -72 1475 -72 
Q 722 -72 425 594 
Q 128 1256 353 2422 
Q 581 3591 1134 4250 
Q 1691 4913 2444 4913 
z
" transform="scale(0.015625)"/>
       <path id="DejaVuSans-64" d="M 2906 2969 
L 2906 4863 
L 3481 4863 
L 3481 0 
L 2906 0 
L 2906 525 
Q 2725 213 2448 61 
Q 2172 -91 1784 -91 
Q 1150 -91 751 415 
Q 353 922 353 1747 
Q 353 2572 751 3078 
Q 1150 3584 1784 3584 
Q 2172 3584 2448 3432 
Q 2725 3281 2906 2969 
z
M 947 1747 
Q 947 1113 1208 752 
Q 1469 391 1925 391 
Q 2381 391 2643 752 
Q 2906 1113 2906 1747 
Q 2906 2381 2643 2742 
Q 2381 3103 1925 3103 
Q 1469 3103 1208 2742 
Q 947 2381 947 1747 
z
" transform="scale(0.015625)"/>
       <path id="DejaVuSans-67" d="M 2906 1791 
Q 2906 2416 2648 2759 
Q 2391 3103 1925 3103 
Q 1463 3103 1205 2759 
Q 947 2416 947 1791 
Q 947 1169 1205 825 
Q 1463 481 1925 481 
Q 2391 481 2648 825 
Q 2906 1169 2906 1791 
z
M 3481 434 
Q 3481 -459 3084 -895 
Q 2688 -1331 1869 -1331 
Q 1566 -1331 1297 -1286 
Q 1028 -1241 775 -1147 
L 775 -588 
Q 1028 -725 1275 -790 
Q 1522 -856 1778 -856 
Q 2344 -856 2625 -561 
Q 2906 -266 2906 331 
L 2906 616 
Q 2728 306 2450 153 
Q 2172 0 1784 0 
Q 1141 0 747 490 
Q 353 981 353 1791 
Q 353 2603 747 3093 
Q 1141 3584 1784 3584 
Q 2172 3584 2450 3431 
Q 2728 3278 2906 2969 
L 2906 3500 
L 3481 3500 
L 3481 434 
z
" transform="scale(0.015625)"/>
      </defs>
      <use xlink:href="#DejaVuSans-Oblique-3b8" transform="translate(0 0.234375)"/>
      <use xlink:href="#DejaVuSans-20" transform="translate(61.181641 0.234375)"/>
      <use xlink:href="#DejaVuSans-5b" transform="translate(92.96875 0.234375)"/>
      <use xlink:href="#DejaVuSans-64" transform="translate(131.982422 0.234375)"/>
      <use xlink:href="#DejaVuSans-65" transform="translate(195.458984 0.234375)"/>
      <use xlink:href="#DejaVuSans-67" transform="translate(256.982422 0.234375)"/>
      <use xlink:href="#DejaVuSans-5d" transform="translate(320.458984 0.234375)"/>
     </g>
    </g>
   </g>
   <g id="line2d_19">
    <path d="M 88.162074 229.90529 
L 88.27526 219.640629 
L 88.395664 219.640629 
L 88.51517 229.90529 
L 91.027925 229.90529 
L 91.147922 217.062043 
L 91.505662 217.062043 
L 91.62676 176.315096 
L 91.747464 176.315096 
L 91.867317 142.444663 
L 93.423004 142.444663 
L 93.541541 154.194605 
L 93.662364 154.194605 
L 93.782169 164.504091 
L 93.901819 164.504091 
L 94.020799 229.90529 
L 94.380957 229.90529 
L 94.498345 241.87715 
L 96.798013 241.87715 
L 97.012871 253.893506 
L 98.450273 253.893506 
L 98.568139 200.9858 
L 98.929147 200.9858 
L 99.051072 212.9323 
L 99.168064 212.9323 
L 99.285775 200.9858 
L 99.887435 200.9858 
L 100.00584 189.083582 
L 100.124449 189.083582 
L 100.244613 176.315096 
L 100.608495 176.315096 
L 100.723153 154.194605 
L 100.84303 154.194605 
L 100.96657 98.595726 
L 101.322049 98.595726 
L 101.442369 108.975903 
L 101.562832 108.975903 
L 101.681956 140.112476 
L 101.800624 140.112476 
L 101.92007 142.444663 
L 102.281402 142.444663 
L 102.400214 154.194605 
L 102.541278 154.194605 
L 102.638987 205.181836 
L 102.99826 205.181836 
L 103.120698 217.062043 
L 103.236398 217.062043 
L 103.356299 205.181836 
L 104.916033 205.181836 
L 105.03257 214.966084 
L 105.151921 214.966084 
L 105.270972 164.504091 
L 105.63392 164.504091 
L 105.750757 205.181836 
L 106.828359 205.181836 
L 106.949074 164.504091 
L 107.307234 164.504091 
L 107.427291 176.315096 
L 108.025636 176.315096 
L 108.144986 186.19338 
L 108.266108 186.19338 
L 108.391013 176.315096 
L 108.504439 176.315096 
L 108.623298 164.504091 
L 108.74381 164.504091 
L 108.863616 120.668838 
L 108.983313 120.668838 
L 109.102053 108.975903 
L 109.70442 108.975903 
L 109.819653 45.40218 
L 110.180985 45.40218 
L 110.299378 57.852664 
L 110.420165 57.852664 
L 110.538462 110.270961 
L 111.138602 110.270961 
L 111.257175 121.989466 
L 111.377244 121.989466 
L 111.49754 165.988047 
L 111.61543 165.988047 
L 111.735032 178.737559 
L 111.854862 178.737559 
L 111.974476 200.9858 
L 112.097848 200.9858 
L 112.215295 190.622101 
L 112.333617 190.622101 
L 112.455457 200.9858 
L 113.532485 200.9858 
L 113.650974 156.91983 
L 114.013024 156.91983 
L 114.129861 200.9858 
L 114.731569 200.9858 
L 114.848322 212.9323 
L 115.20708 212.9323 
L 115.326742 200.9858 
L 115.685057 200.9858 
L 115.804551 212.9323 
L 115.929779 212.9323 
L 116.044833 253.893506 
L 116.64447 253.893506 
L 116.763534 263.74584 
L 116.884117 263.74584 
L 117.001648 253.893506 
L 117.121466 253.893506 
L 117.241319 241.87715 
L 117.361113 241.87715 
L 117.481576 229.90529 
L 117.599634 229.90529 
L 117.719643 217.062043 
L 118.320921 217.062043 
L 118.438751 164.504091 
L 118.796504 164.504091 
L 118.918763 205.181836 
L 119.515312 205.181836 
L 119.635202 217.062043 
L 119.995875 217.062043 
L 120.116518 270.700801 
L 120.239077 270.700801 
L 120.353819 280.443008 
L 120.475073 280.443008 
L 120.593693 292.500869 
L 120.713846 292.500869 
L 120.83328 324.265119 
L 120.952834 324.265119 
L 121.07161 336.397358 
L 122.868501 336.397358 
L 122.988569 324.265119 
L 123.347064 324.265119 
L 123.466738 270.700801 
L 124.066543 270.700801 
L 124.184493 282.742103 
L 124.304071 282.742103 
L 124.425205 270.700801 
L 124.544185 270.700801 
L 124.664661 282.742103 
L 124.782778 282.742103 
L 124.903565 272.540456 
L 125.023838 272.540456 
L 125.14156 282.742103 
L 125.26224 282.742103 
L 125.500486 272.540456 
L 125.740779 272.540456 
L 125.861746 251.346556 
L 126.220037 251.346556 
L 126.338011 197.590626 
L 126.460809 197.590626 
L 126.57767 185.74347 
L 127.178576 185.74347 
L 127.298765 165.024097 
L 127.89845 165.024097 
L 128.020027 173.939977 
L 128.135344 173.939977 
L 128.253569 185.74347 
L 128.614243 185.74347 
L 128.733653 176.812439 
L 128.853614 176.812439 
L 128.972007 188.644399 
L 129.094374 188.644399 
L 129.213426 201.435524 
L 129.330885 201.435524 
L 129.449972 254.447682 
L 130.050567 254.447682 
L 130.169523 242.454444 
L 130.768036 242.454444 
L 130.889349 251.346556 
L 131.252919 251.346556 
L 131.365555 242.454444 
L 131.485983 242.454444 
L 131.611881 251.346556 
L 133.164803 251.346556 
L 133.283196 263.354933 
L 133.400607 263.354933 
L 133.521909 251.346556 
L 134.358213 251.346556 
L 134.479623 263.354933 
L 134.837279 263.354933 
L 134.958976 210.398169 
L 135.076579 210.398169 
L 135.19654 188.644399 
L 135.79777 188.644399 
L 135.916642 176.812439 
L 136.514999 176.812439 
L 136.632853 185.74347 
L 136.753915 185.74347 
L 136.872488 176.812439 
L 136.992174 176.812439 
L 137.112051 188.644399 
L 137.230779 188.644399 
L 137.353314 201.435524 
L 137.473071 201.435524 
L 137.590973 213.358831 
L 137.710635 213.358831 
L 137.830165 222.336768 
L 137.950258 222.336768 
L 138.070243 275.407917 
L 138.188816 275.407917 
L 138.308561 234.319763 
L 138.90717 234.319763 
L 139.028639 222.336768 
L 139.148181 222.336768 
L 139.265796 275.407917 
L 139.389228 275.407917 
L 139.505371 234.319763 
L 139.864943 234.319763 
L 139.984246 275.407917 
L 140.102818 275.407917 
L 140.225999 234.319763 
L 140.584625 234.319763 
L 140.702216 275.407917 
L 141.304511 275.407917 
L 141.420295 263.354933 
L 142.259304 263.354933 
L 142.379505 251.346556 
L 142.982386 251.346556 
L 143.095608 295.412601 
L 143.217257 295.412601 
L 143.335507 251.346556 
L 143.456988 251.346556 
L 143.574423 282.449732 
L 143.693654 282.449732 
L 143.815865 226.547615 
L 143.933672 226.547615 
L 144.054662 270.458796 
L 144.413468 270.458796 
L 144.532484 258.511961 
L 144.65351 258.511961 
L 144.773914 201.937933 
L 145.373564 201.937933 
L 145.490832 245.695222 
L 145.610194 245.695222 
L 145.730335 258.511961 
L 145.851517 258.511961 
L 145.969443 270.458796 
L 146.090206 270.458796 
L 146.208647 282.449732 
L 146.569883 282.449732 
L 146.687905 345.322993 
L 148.243724 345.322993 
L 148.363218 336.300835 
L 148.483251 336.300835 
L 148.604217 348.453471 
L 148.722455 348.453471 
L 148.842595 357.49091 
L 149.202443 357.49091 
L 149.32068 316.604146 
L 149.920892 316.604146 
L 150.041416 328.747753 
L 150.159701 328.747753 
L 150.278453 319.624016 
L 152.075739 319.624016 
L 152.194467 275.407917 
L 152.313219 275.407917 
L 152.433958 263.354933 
L 152.553787 263.354933 
L 152.671845 242.454444 
L 153.033105 242.454444 
L 153.151235 229.588248 
L 153.273039 229.588248 
L 153.390247 188.644399 
L 153.5228 188.644399 
L 153.636525 229.588248 
L 153.997725 229.588248 
L 154.110265 188.644399 
L 154.227628 188.644399 
L 154.346883 242.454444 
L 154.708047 242.454444 
L 154.827984 251.346556 
L 154.947478 251.346556 
L 155.066434 263.354933 
L 155.42427 263.354933 
L 155.545057 319.624016 
L 156.383013 319.624016 
L 156.506948 328.747753 
L 157.103462 328.747753 
L 157.221005 316.604146 
L 158.538542 316.604146 
L 158.656767 357.49091 
L 159.496303 357.49091 
L 159.61478 369.703918 
L 160.931527 369.703918 
L 161.051141 357.49091 
L 161.409312 357.49091 
L 161.529896 304.505421 
L 161.649833 304.505421 
L 161.769016 295.412601 
L 161.888462 295.412601 
L 162.008256 282.449732 
L 162.36699 282.449732 
L 162.486891 295.412601 
L 163.100473 295.412601 
L 163.20862 307.495891 
L 163.329288 307.495891 
L 163.444545 316.604146 
L 163.563847 316.604146 
L 163.685879 328.747753 
L 164.04277 328.747753 
L 164.164431 382.907063 
L 164.284224 382.907063 
L 164.402198 395.214508 
L 164.522111 395.214508 
L 164.642036 392.980092 
L 164.762967 392.980092 
L 164.881396 364.282648 
L 165.241949 364.282648 
L 165.359684 395.214508 
L 165.479442 395.214508 
L 165.599726 392.980092 
L 165.719412 392.980092 
L 165.838427 395.214508 
L 165.959047 395.214508 
L 166.077655 382.907063 
L 166.197377 382.907063 
L 166.31869 341.875923 
L 166.437478 341.875923 
L 166.55732 352.027747 
L 166.677329 352.027747 
L 166.796129 341.875923 
L 167.156718 341.875923 
L 167.277373 354.11353 
L 167.638741 354.11353 
L 167.753663 341.875923 
L 168.594048 341.875923 
L 168.711484 352.027747 
L 169.312019 352.027747 
L 169.429562 338.88101 
L 169.550816 338.88101 
L 169.668587 294.828112 
L 169.803426 294.828112 
L 169.908916 282.742103 
L 170.028961 282.742103 
L 170.147461 272.540456 
L 170.268308 272.540456 
L 170.387946 260.516475 
L 170.749589 260.516475 
L 170.866306 247.617276 
L 170.999805 247.617276 
L 171.105438 238.464108 
L 171.703831 238.464108 
L 171.823565 251.346556 
L 171.943179 251.346556 
L 172.063451 263.354933 
L 172.184046 263.354933 
L 172.304307 272.540456 
L 172.664441 272.540456 
L 172.784558 284.609091 
L 172.903573 284.609091 
L 173.020386 341.875923 
L 173.861011 341.875923 
L 173.978758 297.656269 
L 174.577618 297.656269 
L 174.696502 352.027747 
L 174.828253 352.027747 
L 174.939787 284.609091 
L 175.533356 284.609091 
L 175.654802 297.656269 
L 176.493835 297.656269 
L 176.611414 284.609091 
L 177.927574 284.609091 
L 178.051653 307.894059 
L 178.167317 307.894059 
L 178.288271 294.828112 
L 178.648358 294.828112 
L 178.766428 282.742103 
L 178.88737 282.742103 
L 179.00538 270.700801 
L 179.126059 270.700801 
L 179.246092 219.640629 
L 179.364629 219.640629 
L 179.485344 206.816165 
L 179.604862 206.816165 
L 179.726152 194.953345 
L 180.32251 194.953345 
L 180.44368 205.181836 
L 180.561738 205.181836 
L 180.682046 217.062043 
L 180.807094 217.062043 
L 180.921465 270.700801 
L 181.04236 270.700801 
L 181.160059 280.443008 
L 181.280164 280.443008 
L 181.400328 292.500869 
L 181.519356 292.500869 
L 181.638515 304.603489 
L 183.194561 304.603489 
L 183.315719 348.574582 
L 185.110072 348.574582 
L 185.231326 338.88101 
L 185.369876 338.88101 
L 185.468902 294.828112 
L 186.30754 294.828112 
L 186.426017 304.603489 
L 187.026337 304.603489 
L 187.145077 251.712705 
L 187.5035 251.712705 
L 187.625903 229.90529 
L 187.745469 229.90529 
L 187.862928 217.062043 
L 187.984122 217.062043 
L 188.102551 176.315096 
L 188.221985 176.315096 
L 188.341839 164.504091 
L 188.702452 164.504091 
L 188.820629 176.315096 
L 189.420578 176.315096 
L 189.779576 198.980005 
L 189.897945 198.980005 
L 190.018157 210.89912 
L 190.141542 210.89912 
L 190.259312 273.87418 
L 191.574766 273.87418 
L 191.815095 233.070793 
L 191.932327 221.089929 
L 192.291899 221.089929 
L 192.411741 233.070793 
L 192.532264 233.070793 
L 192.651292 232.373043 
L 193.01388 232.373043 
L 193.134679 233.070793 
L 193.249158 233.070793 
L 193.36888 261.823806 
L 193.489738 261.823806 
L 193.609939 221.089929 
L 193.729074 221.089929 
L 193.848137 273.018945 
L 193.967775 273.018945 
L 194.088275 285.088396 
L 194.209289 285.088396 
L 194.326402 273.018945 
L 194.926602 273.018945 
L 195.046192 244.373177 
L 195.168212 244.373177 
L 195.284594 221.089929 
L 195.646356 221.089929 
L 195.764653 209.153452 
L 196.122406 209.153452 
L 196.243432 196.34819 
L 196.365321 196.34819 
L 196.481224 184.503143 
L 196.840066 184.503143 
L 196.961858 118.904767 
L 197.092807 118.904767 
L 197.199674 106.342429 
L 198.036588 106.342429 
L 198.156717 118.904767 
L 198.27991 118.904767 
L 198.399619 162.581394 
L 198.516217 162.581394 
L 198.639577 174.365584 
L 198.756905 174.365584 
L 198.875573 196.34819 
L 198.99472 196.34819 
L 199.116716 209.153452 
L 199.954804 209.153452 
L 200.072251 221.089929 
L 200.434636 221.089929 
L 200.552467 261.823806 
L 201.628298 261.823806 
L 201.75039 273.87418 
L 202.106789 273.87418 
L 202.228115 261.823806 
L 202.588106 261.823806 
L 202.706236 273.87418 
L 203.78379 273.87418 
L 203.907618 286.901629 
L 204.023485 286.901629 
L 204.142393 327.755272 
L 204.500612 327.755272 
L 204.620023 273.87418 
L 204.985831 273.87418 
L 205.103542 261.823806 
L 205.460385 261.823806 
L 205.578598 239.724118 
L 206.177063 239.724118 
L 206.296784 226.862913 
L 206.656991 226.862913 
L 206.776724 239.724118 
L 206.895644 239.724118 
L 207.022284 249.818031 
L 207.136799 249.818031 
L 207.254809 239.724118 
L 207.375105 239.724118 
L 207.494779 249.818031 
L 207.61316 249.818031 
L 207.732355 261.823806 
L 207.878147 261.823806 
L 208.212582 314.652943 
L 208.332807 314.652943 
L 208.453893 325.780085 
L 209.050071 325.780085 
L 209.168919 313.641513 
L 210.48794 313.641513 
L 210.606094 301.547808 
L 211.443403 301.547808 
L 211.566764 299.132103 
L 212.879321 299.132103 
L 213.002023 301.547808 
L 213.120273 301.547808 
L 213.240102 248.09408 
L 213.614588 248.09408 
L 213.71863 236.161274 
L 213.837693 236.161274 
L 213.958073 224.272391 
L 215.992348 224.272391 
L 216.111926 276.572472 
L 216.474299 276.572472 
L 216.591842 288.573757 
L 216.711216 288.573757 
L 216.83253 301.547808 
L 217.431318 301.547808 
L 217.54837 312.125423 
L 218.146572 312.125423 
L 218.265994 313.641513 
L 218.386721 313.641513 
L 218.505545 301.547808 
L 218.626296 301.547808 
L 218.745383 345.194262 
L 218.865943 345.194262 
L 219.104441 357.36196 
L 219.585602 357.36196 
L 219.705132 367.869693 
L 220.302938 367.869693 
L 220.423498 355.684238 
L 221.979724 355.684238 
L 222.097123 342.611688 
L 222.457473 342.611688 
L 222.575735 287.112981 
L 222.696845 287.112981 
L 222.816183 275.138044 
L 222.93551 275.138044 
L 223.056465 264.615317 
L 223.413547 264.615317 
L 223.538619 224.272391 
L 224.131123 224.272391 
L 224.25094 236.161274 
L 224.373702 236.161274 
L 224.495423 276.572472 
L 224.611135 276.572472 
L 224.730078 288.573757 
L 224.853498 288.573757 
L 224.969509 301.547808 
L 227.003784 301.547808 
L 227.123195 260.994152 
L 227.243826 260.994152 
L 227.364852 313.641513 
L 227.484897 313.641513 
L 227.602572 273.018945 
L 228.442958 273.018945 
L 228.560082 285.088396 
L 229.399857 285.088396 
L 229.520046 273.87418 
L 230.116763 273.87418 
L 230.240363 261.823806 
L 230.838804 261.823806 
L 230.954144 251.712705 
L 231.313585 251.712705 
L 231.43418 239.724118 
L 231.553938 239.724118 
L 231.678447 198.980005 
L 231.791478 198.980005 
L 231.911858 186.19338 
L 232.275595 186.19338 
L 232.391427 174.365584 
L 232.511998 174.365584 
L 232.630212 196.34819 
L 232.752698 196.34819 
L 232.869116 209.153452 
L 232.990669 209.153452 
L 233.108775 249.818031 
L 233.469424 249.818031 
L 233.595849 261.823806 
L 233.711357 261.823806 
L 233.826734 273.87418 
L 233.948443 273.87418 
L 234.067757 314.652943 
L 234.670842 314.652943 
L 234.784627 327.755272 
L 235.862732 327.755272 
L 235.981293 314.652943 
L 236.117389 314.652943 
L 236.221179 327.755272 
L 237.298698 327.755272 
L 237.417785 339.968807 
L 237.543432 339.968807 
L 237.657169 351.135357 
L 237.776903 351.135357 
L 237.897127 338.902817 
L 238.494921 338.902817 
L 238.614607 327.755272 
L 238.736902 327.755272 
L 238.855319 338.902817 
L 239.216244 338.902817 
L 239.335906 327.755272 
L 239.452455 327.755272 
L 239.581741 314.652943 
L 239.693371 314.652943 
L 239.812195 302.533257 
L 240.170594 302.533257 
L 240.292506 290.458381 
L 240.41127 290.458381 
L 240.532524 277.504543 
L 240.649804 277.504543 
L 240.77004 225.024469 
L 241.369702 225.024469 
L 241.488095 265.521968 
L 241.848002 265.521968 
L 241.968609 277.504543 
L 242.087864 277.504543 
L 242.209213 321.163509 
L 242.329821 321.163509 
L 242.446873 334.197 
L 242.564704 334.197 
L 242.684796 345.194262 
L 242.80453 345.194262 
L 242.931254 357.36196 
L 243.043914 357.36196 
L 243.164988 345.194262 
L 243.762327 345.194262 
L 243.882205 301.547808 
L 244.003829 301.547808 
L 244.12233 345.194262 
L 244.242902 345.194262 
L 244.364347 290.458381 
L 244.480657 290.458381 
L 244.599505 301.547808 
L 244.719167 301.547808 
L 244.839535 313.641513 
L 244.960466 313.641513 
L 245.080427 357.36196 
L 245.676892 357.36196 
L 245.795932 313.641513 
L 245.918035 313.641513 
L 246.037817 357.36196 
L 246.157766 357.36196 
L 246.27799 313.641513 
L 246.633971 313.641513 
L 246.754328 302.533257 
L 246.874444 302.533257 
L 246.994286 290.458381 
L 247.352828 290.458381 
L 247.47237 302.533257 
L 247.599082 302.533257 
L 247.711802 290.458381 
L 247.831739 290.458381 
L 247.952538 302.533257 
L 248.071864 302.533257 
L 248.192568 290.458381 
L 248.311248 290.458381 
L 248.429737 280.443008 
L 248.549949 280.443008 
L 248.66985 267.507436 
L 248.791966 267.507436 
L 248.909988 226.862913 
L 249.027878 226.862913 
L 249.150317 214.966084 
L 249.507351 214.966084 
L 249.62724 205.181836 
L 250.22543 205.181836 
L 250.346289 245.833796 
L 250.704197 245.833796 
L 250.824613 257.783007 
L 251.183802 257.783007 
L 251.302709 270.700801 
L 251.424765 270.700801 
L 251.542596 314.604359 
L 251.661671 314.604359 
L 251.78168 326.720217 
L 251.90127 326.720217 
L 252.021267 314.604359 
L 252.383412 314.604359 
L 252.499854 326.720217 
L 252.619731 326.720217 
L 252.739369 314.604359 
L 254.055793 314.604359 
L 254.175742 336.397358 
L 255.253536 336.397358 
L 255.371893 326.720217 
L 255.492309 326.720217 
L 255.612845 336.397358 
L 256.450023 336.397358 
L 256.570056 324.265119 
L 257.168544 324.265119 
L 257.291593 257.783007 
L 258.126078 257.783007 
L 258.245369 245.833796 
L 258.369352 245.833796 
L 258.486967 233.928559 
L 259.323702 233.928559 
L 259.442813 299.210119 
L 260.04111 299.210119 
L 260.160676 311.249698 
L 260.519422 311.249698 
L 260.639 351.840429 
L 261.251757 351.840429 
L 261.357677 311.249698 
L 262.198614 311.249698 
L 262.315439 351.840429 
L 262.919397 351.840429 
L 263.034379 339.732423 
L 263.393424 339.732423 
L 263.511781 342.271737 
L 263.633011 342.271737 
L 263.754612 351.840429 
L 263.872694 351.840429 
L 263.991362 392.40479 
L 265.547205 392.40479 
L 265.666376 380.228555 
L 265.786433 380.228555 
L 265.906658 370.749383 
L 266.028893 370.749383 
L 266.147011 330.179847 
L 266.268935 330.179847 
L 266.386957 318.13236 
L 266.745104 318.13236 
L 266.866119 305.207568 
L 267.222937 305.207568 
L 267.34388 295.256809 
L 267.704039 295.256809 
L 267.821139 318.13236 
L 267.940525 318.13236 
L 268.063371 308.163559 
L 268.18004 308.163559 
L 268.300121 320.194239 
L 268.42177 320.194239 
L 268.543431 372.98431 
L 268.899292 372.98431 
L 269.017937 386.112091 
L 269.378502 386.112091 
L 269.499229 398.348993 
L 269.857472 398.348993 
L 269.97735 410.631194 
L 270.09463 410.631194 
L 270.215045 398.348993 
L 270.334025 398.348993 
L 270.454764 410.631194 
L 272.010703 410.631194 
L 272.130628 369.703918 
L 272.252444 369.703918 
L 272.369509 401.648518 
L 272.728734 401.648518 
L 272.849329 360.651153 
L 274.64513 360.651153 
L 274.763104 348.453471 
L 275.12732 348.453471 
L 275.242649 295.412601 
L 275.362873 295.412601 
L 275.482308 282.449732 
L 275.60337 282.449732 
L 275.721284 270.458796 
L 277.277044 270.458796 
L 277.396502 332.269273 
L 277.755834 332.269273 
L 277.876394 345.322993 
L 278.713739 345.322993 
L 278.835616 304.505421 
L 278.957935 304.505421 
L 279.072761 345.322993 
L 279.431327 345.322993 
L 279.554604 291.525981 
L 279.911483 291.525981 
L 280.031911 332.269273 
L 280.150507 332.269273 
L 280.269582 342.271737 
L 280.391076 342.271737 
L 280.633499 291.525981 
L 281.11235 291.525981 
L 281.22738 304.505421 
L 281.827568 304.505421 
L 281.945458 260.516475 
L 282.06591 260.516475 
L 282.187762 304.505421 
L 282.544007 304.505421 
L 282.664578 314.604359 
L 282.78357 314.604359 
L 282.903291 326.720217 
L 283.265676 326.720217 
L 283.381951 270.700801 
L 283.740864 270.700801 
L 283.860765 247.617276 
L 284.45917 247.617276 
L 284.578748 194.953345 
L 285.418512 194.953345 
L 285.537252 235.685277 
L 285.895268 235.685277 
L 286.015348 247.617276 
L 286.375734 247.617276 
L 286.495959 260.516475 
L 286.616925 260.516475 
L 286.733942 326.720217 
L 287.093897 326.720217 
L 287.213894 314.604359 
L 287.333879 314.604359 
L 287.452463 326.720217 
L 288.528689 326.720217 
L 288.648986 314.604359 
L 289.248312 314.604359 
L 289.368656 304.505421 
L 289.726349 304.505421 
L 289.847004 332.269273 
L 290.443362 332.269273 
L 290.568458 291.525981 
L 291.161884 291.525981 
L 291.281677 332.269273 
L 292.119118 332.269273 
L 292.240312 291.525981 
L 292.361351 291.525981 
L 292.481096 279.519707 
L 293.076724 279.519707 
L 293.197367 267.55758 
L 293.318346 267.55758 
L 293.436488 214.674997 
L 294.03421 214.674997 
L 294.154578 279.519707 
L 294.276969 279.519707 
L 294.394931 291.525981 
L 294.753581 291.525981 
L 294.875781 304.505421 
L 295.470631 304.505421 
L 295.593824 345.322993 
L 296.192815 345.322993 
L 296.311184 304.505421 
L 296.907087 304.505421 
L 297.027539 316.604146 
L 297.148218 316.604146 
L 297.267832 304.505421 
L 297.386668 304.505421 
L 297.51028 316.604146 
L 297.626686 316.604146 
L 297.745474 314.604359 
L 297.867374 314.604359 
L 297.984977 304.505421 
L 298.105537 304.505421 
L 298.226084 316.604146 
L 298.344549 316.604146 
L 298.464067 304.505421 
L 299.301664 304.505421 
L 299.421805 314.604359 
L 299.543645 314.604359 
L 299.660973 301.606525 
L 299.78255 301.606525 
L 299.900619 314.604359 
L 300.021598 314.604359 
L 300.140266 301.606525 
L 300.499144 301.606525 
L 300.618794 289.583224 
L 300.979371 289.583224 
L 301.098375 277.604121 
L 301.216899 277.604121 
L 301.338345 267.55758 
L 301.456043 267.55758 
L 301.576962 254.724424 
L 301.69879 254.724424 
L 301.815735 211.04354 
L 301.935876 211.04354 
L 302.054101 199.245474 
L 302.663123 199.245474 
L 302.773101 211.04354 
L 302.898856 211.04354 
L 303.012473 277.604121 
L 303.370561 277.604121 
L 303.49288 289.583224 
L 303.851099 289.583224 
L 303.96966 301.606525 
L 304.094445 301.606525 
L 304.209546 364.929771 
L 304.569405 364.929771 
L 304.688624 377.130867 
L 304.807149 377.130867 
L 304.927601 367.528546 
L 305.04737 367.528546 
L 305.167271 364.929771 
L 305.288106 364.929771 
L 305.406475 355.343667 
L 305.770249 355.343667 
L 305.886571 377.130867 
L 306.006819 377.130867 
L 306.124686 364.929771 
L 306.244467 364.929771 
L 306.363854 355.343667 
L 306.483432 355.343667 
L 306.603141 367.528546 
L 307.680756 367.528546 
L 307.800717 377.130867 
L 307.91996 377.130867 
L 308.039538 379.758568 
L 308.159966 379.758568 
L 308.281172 389.377156 
L 308.656065 389.377156 
L 308.758287 377.130867 
L 308.877637 377.130867 
L 308.997467 389.377156 
L 309.356225 389.377156 
L 309.475947 377.130867 
L 309.835842 377.130867 
L 309.954917 336.397358 
L 310.075357 336.397358 
L 310.19618 314.604359 
L 310.553717 314.604359 
L 310.674947 257.783007 
L 311.031502 257.783007 
L 311.151547 245.833796 
L 311.271412 245.833796 
L 311.390715 289.583224 
L 311.511646 289.583224 
L 311.63041 311.249698 
L 311.996338 311.249698 
L 312.109009 324.265119 
L 312.230395 324.265119 
L 312.349781 336.397358 
L 312.469742 336.397358 
L 312.588363 346.346071 
L 312.708934 346.346071 
L 312.832175 399.265879 
L 312.946367 399.265879 
L 313.066735 410.215587 
L 313.426115 410.215587 
L 313.546184 369.57475 
L 314.864152 369.57475 
L 314.981611 358.540178 
L 315.102577 358.540178 
L 315.222598 369.57475 
L 315.342464 369.57475 
L 315.460653 346.346071 
L 315.581093 346.346071 
L 315.701305 369.57475 
L 317.01822 369.57475 
L 317.136038 357.36196 
L 318.215568 357.36196 
L 318.453479 301.547808 
L 318.57295 288.573757 
L 318.694167 288.573757 
L 318.814069 276.572472 
L 318.934604 276.572472 
L 319.053548 265.521968 
L 319.173138 265.521968 
L 319.291148 213.154428 
L 319.412809 213.154428 
L 319.531369 200.420131 
L 320.384682 200.420131 
L 320.488161 213.154428 
L 320.847553 213.154428 
L 320.966832 225.024469 
L 321.331443 225.024469 
L 321.446497 277.504543 
L 321.566805 277.504543 
L 321.685378 288.573757 
L 322.52471 288.573757 
L 322.642792 236.938376 
L 322.761747 236.938376 
L 322.88208 225.024469 
L 323.484339 225.024469 
L 323.600481 236.938376 
L 325.157126 236.938376 
L 325.278201 226.862913 
L 325.398832 226.862913 
L 325.515621 255.541769 
L 325.636552 255.541769 
L 325.755208 267.507436 
L 326.593798 267.507436 
L 326.712491 280.443008 
L 326.831207 280.443008 
L 326.951982 267.507436 
L 327.071284 267.507436 
L 327.192143 257.783007 
L 327.310871 257.783007 
L 327.430677 205.181836 
L 327.790381 205.181836 
L 327.909767 183.134236 
L 328.988339 183.134236 
L 329.106349 194.953345 
L 329.227567 194.953345 
L 329.349539 235.685277 
L 329.466232 235.685277 
L 329.585798 247.617276 
L 329.944473 247.617276 
L 330.066193 260.516475 
L 330.664036 260.516475 
L 330.784045 247.617276 
L 331.625364 247.617276 
L 331.740956 257.783007 
L 331.861528 257.783007 
L 331.979741 270.700801 
L 332.099894 270.700801 
L 332.221483 257.783007 
L 332.337948 257.783007 
L 332.458723 270.700801 
L 332.822664 270.700801 
L 332.936808 282.742103 
L 334.01331 282.742103 
L 334.135042 292.500869 
L 334.253004 292.500869 
L 334.373037 280.443008 
L 334.970999 280.443008 
L 335.091164 290.458381 
L 335.450927 290.458381 
L 335.570397 249.818031 
L 336.169712 249.818031 
L 336.288225 236.938376 
L 336.646695 236.938376 
L 336.769062 184.503143 
L 336.890579 184.503143 
L 337.006591 196.34819 
L 337.125953 196.34819 
L 337.245818 236.938376 
L 337.605342 236.938376 
L 337.72577 249.818031 
L 337.845899 249.818031 
L 337.965992 260.994152 
L 338.083547 260.994152 
L 338.20364 290.458381 
L 338.325911 290.458381 
L 338.442209 277.504543 
L 338.562984 277.504543 
L 338.802858 334.197 
L 338.923382 346.346071 
L 339.280835 346.346071 
L 339.400306 336.397358 
L 339.998148 336.397358 
L 340.122442 326.720217 
L 340.477094 326.720217 
L 340.597546 314.604359 
L 341.195903 314.604359 
L 341.317384 326.720217 
L 341.436795 326.720217 
L 341.556756 316.604146 
L 342.392797 316.604146 
L 342.512422 307.495891 
L 342.631797 307.495891 
L 342.75171 348.453471 
L 342.871528 348.453471 
L 342.991513 336.300835 
L 344.0706 336.300835 
L 344.189316 327.552378 
L 344.310318 327.552378 
L 344.433415 273.648655 
L 344.547415 273.648655 
L 344.670548 261.6726 
L 344.787517 261.6726 
L 344.906389 240.602875 
L 345.269612 240.602875 
L 345.385551 217.686799 
L 346.223207 217.686799 
L 346.34275 226.547615 
L 346.462723 226.547615 
L 346.582049 282.449732 
L 346.943943 282.449732 
L 347.060816 295.412601 
L 347.180203 295.412601 
L 347.302007 316.604146 
L 347.419945 316.604146 
L 347.539703 328.747753 
L 348.617701 328.747753 
L 348.736764 369.703918 
L 349.337323 369.703918 
L 349.455178 379.758568 
L 349.814151 379.758568 
L 349.934304 392.980092 
L 351.010829 392.980092 
L 351.131054 402.616253 
L 351.489596 402.616253 
L 351.610215 414.957188 
L 351.968938 414.957188 
L 352.089545 405.304658 
L 352.687591 405.304658 
L 352.807037 414.957188 
L 353.165795 414.957188 
L 353.286139 402.616253 
L 353.407656 402.616253 
L 353.525056 392.980092 
L 353.645424 392.980092 
L 353.763961 379.758568 
L 354.126274 379.758568 
L 354.243673 367.528546 
L 354.362533 367.528546 
L 354.486504 345.322993 
L 355.080683 345.322993 
L 355.202057 357.49091 
L 355.321515 357.49091 
L 355.441464 369.703918 
L 356.041377 369.703918 
L 356.157281 382.907063 
L 357.474051 382.907063 
L 357.596406 369.703918 
L 357.715314 369.703918 
L 357.834736 382.907063 
L 358.193495 382.907063 
L 358.31391 373.837741 
L 358.435727 373.837741 
L 358.551989 382.907063 
L 358.672154 382.907063 
L 358.791361 373.837741 
L 358.911705 373.837741 
L 359.031019 382.907063 
L 359.631292 382.907063 
L 359.752749 369.703918 
L 359.874098 369.703918 
L 359.988446 360.651153 
L 360.108467 360.651153 
L 360.229349 319.624016 
L 362.02302 319.624016 
L 362.145518 307.495891 
L 362.261649 307.495891 
L 362.382508 316.604146 
L 362.503343 316.604146 
L 362.621891 260.516475 
L 362.742523 260.516475 
L 362.861371 251.346556 
L 364.17868 251.346556 
L 364.297252 263.354933 
L 364.656178 263.354933 
L 364.777001 275.407917 
L 364.897776 275.407917 
L 365.015882 319.624016 
L 365.136166 319.624016 
L 365.257288 332.735461 
L 365.377022 332.735461 
L 365.49484 328.747753 
L 365.615879 328.747753 
L 365.734391 319.624016 
L 367.050192 319.624016 
L 367.171578 275.407917 
L 367.290498 275.407917 
L 367.409645 319.624016 
L 368.486254 319.624016 
L 368.608369 332.735461 
L 368.728414 332.735461 
L 368.846472 319.624016 
L 369.204835 319.624016 
L 369.324509 310.776868 
L 369.925787 310.776868 
L 370.043246 319.624016 
L 370.164572 319.624016 
L 370.283084 307.495891 
L 370.642213 307.495891 
L 370.76166 295.412601 
L 370.880089 295.412601 
L 371.003317 286.595448 
L 371.120801 286.595448 
L 371.23978 273.648655 
L 371.60323 273.648655 
L 371.719218 229.588248 
L 371.842698 229.588248 
L 371.959822 217.686799 
L 372.080657 217.686799 
L 372.197326 229.588248 
L 372.320244 229.588248 
L 372.437236 220.341435 
L 372.557904 220.341435 
L 372.678331 233.190692 
L 373.03527 233.190692 
L 373.155758 254.447682 
L 373.51618 254.447682 
L 373.635853 310.776868 
L 374.950529 310.776868 
L 375.071424 323.872087 
L 375.42926 323.872087 
L 375.548946 310.776868 
L 375.908985 310.776868 
L 376.027414 298.663763 
L 376.63099 298.663763 
L 376.747875 289.462701 
L 378.062862 289.462701 
L 378.184271 298.663763 
L 378.542 298.663763 
L 378.661554 286.595448 
L 378.784364 286.595448 
L 378.902266 298.663763 
L 379.019725 298.663763 
L 379.141673 286.595448 
L 379.501628 286.595448 
L 379.618106 273.648655 
L 379.978217 273.648655 
L 380.100129 270.458796 
L 380.218522 270.458796 
L 380.336795 217.686799 
L 380.456876 217.686799 
L 380.577819 205.829178 
L 380.936517 205.829178 
L 381.054994 214.674997 
L 381.414434 214.674997 
L 381.533725 226.547615 
L 381.657959 226.547615 
L 381.775203 270.458796 
L 382.132489 270.458796 
L 382.252773 291.525981 
L 382.611459 291.525981 
L 382.732497 304.505421 
L 383.570812 304.505421 
L 383.689002 316.604146 
L 384.771692 316.604146 
L 384.885632 260.516475 
L 385.005521 260.516475 
L 385.124656 272.540456 
L 385.484264 272.540456 
L 385.604501 316.604146 
L 385.96272 316.604146 
L 386.083315 272.540456 
L 386.201026 272.540456 
L 386.325847 316.604146 
L 386.44175 316.604146 
L 386.564955 260.516475 
L 386.682008 260.516475 
L 386.801562 251.346556 
L 387.160727 251.346556 
L 387.400361 238.464108 
L 388.120212 238.464108 
L 388.238641 226.547615 
L 388.595424 226.547615 
L 388.715385 214.674997 
L 389.074969 214.674997 
L 389.194953 193.108215 
L 389.314639 193.108215 
L 389.435438 152.377505 
L 389.795896 152.377505 
L 389.915019 181.340415 
L 390.032526 181.340415 
L 390.151997 193.108215 
L 390.272077 193.108215 
L 390.391751 205.829178 
L 390.990108 205.829178 
L 391.110787 261.6726 
L 391.474333 261.6726 
L 391.589985 273.648655 
L 392.188725 273.648655 
L 392.306927 261.6726 
L 392.428659 261.6726 
L 392.546526 252.519411 
L 394.105481 252.519411 
L 394.221647 264.479956 
L 395.303248 264.479956 
L 395.418816 277.409994 
L 396.495617 277.409994 
L 396.617361 286.595448 
L 396.737897 286.595448 
L 396.856218 277.409994 
L 396.977029 277.409994 
L 397.09802 286.595448 
L 397.215754 286.595448 
L 397.334482 273.648655 
L 397.454108 273.648655 
L 397.572693 261.6726 
L 397.936514 261.6726 
L 398.052621 258.511961 
L 398.412528 258.511961 
L 398.531496 270.458796 
L 399.129517 270.458796 
L 399.249071 291.525981 
L 399.369499 291.525981 
L 399.493099 304.505421 
L 399.849032 304.505421 
L 399.971483 316.604146 
L 400.088524 316.604146 
L 400.206665 326.720217 
L 400.327069 326.720217 
L 400.446384 338.88101 
L 400.564825 338.88101 
L 400.687419 326.720217 
L 402.008547 326.720217 
L 402.123493 314.604359 
L 402.244998 314.604359 
L 402.361464 324.265119 
L 402.483376 324.265119 
L 402.602236 342.271737 
L 402.721467 342.271737 
L 402.840614 355.343667 
L 402.960862 355.343667 
L 403.079602 324.265119 
L 403.43836 324.265119 
L 403.558573 314.604359 
L 403.678127 314.604359 
L 403.798602 301.606525 
L 404.397582 301.606525 
L 404.515747 314.604359 
L 404.637779 314.604359 
L 404.755406 291.525981 
L 405.114775 291.525981 
L 405.235645 304.505421 
L 405.355906 304.505421 
L 405.473449 291.525981 
L 405.597575 291.525981 
L 405.713048 247.617276 
L 405.833679 247.617276 
L 405.954921 235.685277 
L 406.311369 235.685277 
L 406.431988 223.7972 
L 406.794146 223.7972 
L 406.909905 221.156478 
L 407.750459 221.156478 
L 407.868157 277.604121 
L 408.229561 277.604121 
L 408.346769 299.210119 
L 408.465796 299.210119 
L 408.58553 301.606525 
L 408.946119 301.606525 
L 409.064548 324.265119 
L 409.18488 324.265119 
L 409.303872 314.604359 
L 410.861115 314.604359 
L 410.980885 326.720217 
L 411.098703 326.720217 
L 411.220472 336.397358 
L 411.578392 336.397358 
L 411.698915 326.720217 
L 411.818206 326.720217 
L 411.93721 336.397358 
L 412.05686 336.397358 
L 412.178568 326.720217 
L 412.775872 326.720217 
L 412.894528 336.397358 
L 413.014286 336.397358 
L 413.134151 326.720217 
L 414.212496 326.720217 
L 414.331463 316.604146 
L 414.453878 316.604146 
L 414.570308 282.742103 
L 414.693717 282.742103 
L 414.809381 270.700801 
L 414.932178 270.700801 
L 415.050787 260.516475 
L 415.170257 260.516475 
L 415.289057 247.617276 
L 415.410131 247.617276 
L 415.528165 235.685277 
L 415.651526 235.685277 
L 415.770613 194.953345 
L 416.127983 194.953345 
L 416.248075 235.685277 
L 416.367749 235.685277 
L 416.487291 257.783007 
L 416.844996 257.783007 
L 416.976855 270.700801 
L 417.56627 270.700801 
L 417.683359 282.742103 
L 418.046953 282.742103 
L 418.163299 272.540456 
L 418.281704 272.540456 
L 418.401114 282.742103 
L 419.238855 282.742103 
L 419.361868 270.700801 
L 420.918776 270.700801 
L 421.034273 260.516475 
L 421.394958 260.516475 
L 421.514344 270.700801 
L 421.87339 270.700801 
L 421.993219 260.516475 
L 423.314287 260.516475 
L 423.429472 247.617276 
L 423.789606 247.617276 
L 423.907988 185.74347 
L 424.266698 185.74347 
L 424.386024 194.953345 
L 424.505052 194.953345 
L 424.625228 185.74347 
L 424.743992 185.74347 
L 424.865138 194.953345 
L 425.228361 194.953345 
L 425.347544 206.816165 
L 425.464968 206.816165 
L 425.583097 247.617276 
L 425.703645 247.617276 
L 425.826299 260.516475 
L 426.181059 260.516475 
L 426.301786 272.540456 
L 426.4217 272.540456 
L 426.544246 294.828112 
L 426.660149 294.828112 
L 426.785533 284.609091 
L 426.92145 284.609091 
L 427.019039 294.828112 
L 427.379664 294.828112 
L 427.498512 243.593797 
L 427.619036 243.593797 
L 427.739595 256.565535 
L 427.857222 256.565535 
L 427.97704 266.884204 
L 428.336289 266.884204 
L 428.455879 256.565535 
L 429.055624 256.565535 
L 429.173395 215.446948 
L 429.298646 215.446948 
L 429.413365 256.565535 
L 429.535337 256.565535 
L 429.652329 215.446948 
L 430.730494 215.446948 
L 430.849689 202.550873 
L 431.92667 202.550873 
L 432.046475 190.622101 
L 432.405748 190.622101 
L 432.52997 169.421625 
L 432.886717 169.421625 
L 433.005625 156.689208 
L 433.841594 156.689208 
L 433.961926 165.988047 
L 434.093486 165.988047 
L 434.202758 210.398169 
L 434.323688 210.398169 
L 434.442357 219.640629 
L 434.798769 219.640629 
L 434.920489 260.516475 
L 435.040019 260.516475 
L 435.160423 272.540456 
L 435.279247 272.540456 
L 435.398993 219.640629 
L 435.99954 219.640629 
L 436.116724 260.516475 
L 436.715955 260.516475 
L 436.8346 272.540456 
L 437.196027 272.540456 
L 437.312792 260.516475 
L 437.673477 260.516475 
L 437.792612 263.354933 
L 438.151227 263.354933 
L 438.278142 272.540456 
L 440.307186 272.540456 
L 440.426405 270.700801 
L 440.784289 270.700801 
L 440.904143 257.783007 
L 441.02378 257.783007 
L 441.143897 235.685277 
L 441.506186 235.685277 
L 441.622233 233.928559 
L 441.741261 233.928559 
L 441.864836 223.7972 
L 442.459914 223.7972 
L 442.580198 235.685277 
L 442.700003 235.685277 
L 443.059408 257.783007 
L 443.177837 257.783007 
L 443.299761 301.606525 
L 443.419734 301.606525 
L 443.537636 314.604359 
L 444.135574 314.604359 
L 444.256134 324.265119 
L 445.096112 324.265119 
L 445.214338 311.249698 
L 445.811115 311.249698 
L 445.932428 351.840429 
L 446.769965 351.840429 
L 446.889077 342.271737 
L 447.011587 342.271737 
L 447.130196 311.249698 
L 447.2506 311.249698 
L 447.36831 301.606525 
L 449.165775 301.606525 
L 449.28272 245.833796 
L 449.403471 245.833796 
L 449.523121 235.685277 
L 449.641789 235.685277 
L 449.761463 223.7972 
L 449.881675 223.7972 
L 450.002462 211.04354 
L 450.599874 211.04354 
L 450.720517 170.454617 
L 451.558245 170.454617 
L 451.677883 223.7972 
L 452.036749 223.7972 
L 452.155824 235.685277 
L 452.514738 235.685277 
L 452.636542 291.525981 
L 452.754014 291.525981 
L 452.875698 247.617276 
L 454.432762 247.617276 
L 454.550042 238.464108 
L 454.67035 238.464108 
L 454.791113 226.547615 
L 455.866154 226.547615 
L 455.987624 185.74347 
L 456.344682 185.74347 
L 456.465038 226.547615 
L 456.824849 226.547615 
L 456.943231 217.686799 
L 457.304861 217.686799 
L 457.422273 176.812439 
L 457.781139 176.812439 
L 457.905217 165.024097 
L 458.020666 165.024097 
L 458.172371 152.377505 
L 458.379855 111.61857 
L 458.501527 111.61857 
L 458.620603 99.988657 
L 458.739235 99.988657 
L 458.859771 88.401891 
L 459.696218 88.401891 
L 459.816299 79.087847 
L 459.935578 79.087847 
L 460.056903 99.988657 
L 460.174842 99.988657 
L 460.295485 111.61857 
L 460.655404 111.61857 
L 460.774048 152.377505 
L 460.894345 152.377505 
L 461.014509 165.024097 
L 461.37231 165.024097 
L 461.492761 176.812439 
L 462.331483 176.812439 
L 462.449673 185.74347 
L 462.808694 185.74347 
L 462.928584 197.590626 
L 463.049454 197.590626 
L 463.16738 185.74347 
L 463.286767 185.74347 
L 463.41154 197.590626 
L 463.528173 197.590626 
L 463.646985 185.74347 
L 464.485899 185.74347 
L 464.604627 226.547615 
L 464.965097 226.547615 
L 465.083549 185.74347 
L 465.443409 185.74347 
L 465.561921 238.464108 
L 465.681272 238.464108 
L 465.801891 197.590626 
L 466.400967 197.590626 
L 466.519719 185.74347 
L 466.638962 185.74347 
L 466.758264 173.939977 
L 467.117896 173.939977 
L 467.239246 161.277121 
L 467.596531 161.277121 
L 467.716289 149.56311 
L 467.836513 149.56311 
L 467.957288 140.678549 
L 468.077154 140.678549 
L 468.196875 108.943866 
L 468.555957 108.943866 
L 468.673919 149.56311 
L 468.793712 149.56311 
L 468.913123 161.277121 
L 469.034364 161.277121 
L 469.152769 173.939977 
L 469.514616 173.939977 
L 469.631165 185.74347 
L 469.751856 185.74347 
L 469.872823 197.590626 
L 469.991204 197.590626 
L 470.118215 238.464108 
L 470.233915 238.464108 
L 470.349687 197.590626 
L 470.469265 197.590626 
L 470.590124 188.644399 
L 470.949121 188.644399 
L 471.067825 197.590626 
L 472.147774 197.590626 
L 472.267208 210.398169 
L 473.103034 210.398169 
L 473.224048 260.516475 
L 473.343842 260.516475 
L 473.464676 251.346556 
L 473.586325 251.346556 
L 473.703006 260.516475 
L 474.061381 260.516475 
L 474.181031 219.640629 
L 475.257521 219.640629 
L 475.380522 206.816165 
L 475.738071 206.816165 
L 475.857027 194.953345 
L 475.974785 194.953345 
L 476.095237 173.939977 
L 476.453995 173.939977 
L 476.574292 161.277121 
L 476.694133 161.277121 
L 476.813376 170.454617 
L 477.411733 170.454617 
L 477.53252 180.647167 
L 477.65205 180.647167 
L 477.772597 193.345394 
L 478.376125 193.345394 
L 478.49082 245.833796 
L 478.848189 245.833796 
L 478.967851 255.541769 
L 479.33002 255.541769 
L 479.448042 289.583224 
L 479.56859 289.583224 
L 479.807435 299.210119 
L 480.28467 299.210119 
L 480.407228 289.583224 
L 482.439396 289.583224 
L 482.561201 257.783007 
L 484.116553 257.783007 
L 484.234371 235.685277 
L 484.354272 235.685277 
L 484.475502 223.7972 
L 484.833087 223.7972 
L 484.952474 211.04354 
L 485.074482 211.04354 
L 485.19382 161.277121 
L 485.313327 161.277121 
L 485.431408 158.725088 
L 485.551417 158.725088 
L 485.671139 149.56311 
L 486.029825 149.56311 
L 486.15534 161.277121 
L 486.509825 161.277121 
L 486.630301 170.454617 
L 486.748395 170.454617 
L 486.868056 183.134236 
L 486.987287 183.134236 
L 487.108816 194.953345 
L 488.424366 194.953345 
L 488.547403 205.181836 
L 488.671925 205.181836 
L 488.78571 165.988047 
L 489.142002 165.988047 
L 489.262023 176.315096 
L 489.620841 176.315096 
L 489.742585 165.988047 
L 489.860308 165.988047 
L 489.980688 176.315096 
L 491.537429 176.315096 
L 491.65575 217.062043 
L 491.791535 217.062043 
L 491.896594 176.315096 
L 492.016519 176.315096 
L 492.134601 165.988047 
L 492.254203 165.988047 
L 492.373984 176.315096 
L 492.495537 176.315096 
L 492.613116 165.988047 
L 492.733388 165.988047 
L 492.852488 154.194605 
L 493.215315 154.194605 
L 493.333301 142.444663 
L 493.691102 142.444663 
L 493.810405 129.839295 
L 493.932377 129.839295 
L 494.050363 86.070557 
L 494.410413 86.070557 
L 494.529525 65.170067 
L 494.88845 65.170067 
L 495.007849 76.74078 
L 495.127534 76.74078 
L 495.249327 133.177421 
L 495.607223 133.177421 
L 495.72728 144.911589 
L 496.086098 144.911589 
L 496.20479 194.953345 
L 496.330604 194.953345 
L 496.443982 206.816165 
L 496.563512 206.816165 
L 496.683078 197.590626 
L 498.00028 197.590626 
L 498.120827 156.689208 
L 498.239831 156.689208 
L 498.361599 197.590626 
L 498.719292 197.590626 
L 498.839349 156.689208 
L 499.197137 156.689208 
L 499.316368 210.398169 
L 499.437981 210.398169 
L 499.588333 201.435524 
L 499.797146 169.421625 
L 500.156431 169.421625 
L 500.277302 181.290244 
L 500.872965 181.290244 
L 500.992663 172.240707 
L 501.115054 172.240707 
L 501.231939 181.290244 
L 502.070062 181.290244 
L 502.189437 169.421625 
L 502.310068 169.421625 
L 502.428701 125.261897 
L 502.549356 125.261897 
L 502.670059 112.610626 
L 502.789553 112.610626 
L 502.90736 100.908118 
L 503.029068 100.908118 
L 503.147785 60.020355 
L 503.745507 60.020355 
L 503.866641 100.908118 
L 504.224537 100.908118 
L 504.344104 121.989466 
L 504.467883 121.989466 
L 504.583403 112.610626 
L 504.702754 112.610626 
L 504.823361 169.421625 
L 504.945537 169.421625 
L 505.068526 181.290244 
L 505.660419 181.290244 
L 505.780129 137.054924 
L 505.902747 137.054924 
L 506.025497 181.290244 
L 506.138947 181.290244 
L 506.260213 137.054924 
L 509.014529 137.054924 
L 509.132108 127.927238 
L 509.253027 127.927238 
L 509.373 125.261897 
L 509.493152 125.261897 
L 509.610803 127.927238 
L 509.970483 127.927238 
L 510.209196 172.240707 
L 510.330079 127.927238 
L 510.45016 127.927238 
L 510.569355 116.149831 
L 510.930914 116.149831 
L 511.04805 103.515329 
L 511.166263 103.515329 
L 511.286009 41.331306 
L 511.407706 41.331306 
L 511.5286 29.77368 
L 511.885683 29.77368 
L 512.007056 39.293598 
L 512.126203 39.293598 
L 512.243196 26.877187 
L 512.364773 26.877187 
L 512.483261 39.293598 
L 512.603366 39.293598 
L 512.722406 48.430804 
L 512.842211 48.430804 
L 512.962878 60.020355 
L 513.082372 60.020355 
L 513.202525 100.908118 
L 513.320679 100.908118 
L 513.44198 110.270961 
L 513.799625 110.270961 
L 513.919921 132.405099 
L 514.519846 132.405099 
L 514.639807 176.315096 
L 515.235627 176.315096 
L 515.356988 186.19338 
L 515.476662 186.19338 
L 515.596994 174.365584 
L 516.911742 174.365584 
L 517.036096 130.614625 
L 517.157122 130.614625 
L 517.27141 140.838576 
L 517.631329 140.838576 
L 517.749997 152.60925 
L 517.868929 152.60925 
L 517.989381 140.838576 
L 518.10988 140.838576 
L 518.22868 196.34819 
L 518.348558 196.34819 
L 518.473163 207.59147 
L 519.30845 207.59147 
L 519.429141 195.727334 
L 519.547139 195.727334 
L 519.667148 152.158113 
L 519.789551 152.158113 
L 519.906914 140.411631 
L 520.271083 140.411631 
L 520.388602 87.473597 
L 520.505535 87.473597 
L 520.631744 127.809977 
L 520.984553 127.809977 
L 521.103808 116.53033 
L 521.460615 116.53033 
L 521.580061 129.111332 
L 521.939657 129.111332 
L 522.059079 140.838576 
L 522.418903 140.838576 
L 522.537583 152.158113 
L 522.899262 152.158113 
L 523.017176 140.411631 
L 523.136167 140.411631 
L 523.256452 152.158113 
L 523.617987 152.158113 
L 523.735805 140.411631 
L 524.811684 140.411631 
L 524.9338 183.906914 
L 525.057184 183.906914 
L 525.171926 140.411631 
L 525.29251 140.411631 
L 525.411836 116.53033 
L 526.489798 116.53033 
L 526.608706 160.041156 
L 526.967883 160.041156 
L 527.086192 148.329235 
L 527.206464 148.329235 
L 527.327646 160.041156 
L 527.924591 160.041156 
L 528.045701 148.329235 
L 528.165686 148.329235 
L 528.283229 93.29702 
L 529.122897 93.29702 
L 529.241601 80.857567 
L 529.600575 80.857567 
L 529.720691 70.722655 
L 529.83991 70.722655 
L 529.959404 93.29702 
L 530.078791 93.29702 
L 530.198357 104.892089 
L 530.557031 104.892089 
L 530.67862 116.53033 
L 531.036253 116.53033 
L 531.15789 183.906914 
L 531.277025 183.906914 
L 531.395095 195.727334 
L 532.714343 195.727334 
L 532.83294 206.432981 
L 533.670513 206.432981 
L 533.791288 218.315314 
L 533.911476 218.315314 
L 534.030719 206.432981 
L 534.388148 206.432981 
L 534.509689 195.727334 
L 536.064096 195.727334 
L 536.187839 152.158113 
L 536.541726 152.158113 
L 536.662237 140.411631 
L 537.021414 140.411631 
L 537.141064 127.809977 
L 537.501965 127.809977 
L 537.621483 104.892089 
L 539.41501 104.892089 
L 539.535593 116.53033 
L 539.654597 116.53033 
L 539.774725 183.906914 
L 539.898433 183.906914 
L 540.015928 172.701754 
L 541.570694 172.701754 
L 541.691277 183.906914 
L 542.050897 183.906914 
L 542.168752 171.225886 
L 543.006588 171.225886 
L 543.126298 211.517868 
L 543.724319 211.517868 
L 543.844041 234.876995 
L 544.445438 234.876995 
L 544.562646 222.10319 
L 545.401644 222.10319 
L 545.520958 210.286475 
L 545.883678 210.286475 
L 546.001473 198.513481 
L 546.360243 198.513481 
L 546.47678 147.807678 
L 547.793767 147.807678 
L 547.91368 199.719001 
L 548.274233 199.719001 
L 548.392016 211.517868 
L 548.513018 211.517868 
L 548.633314 224.272391 
L 548.99005 224.272391 
L 549.109676 236.161274 
L 549.950097 236.161274 
L 550.06952 225.024469 
L 550.433568 225.024469 
L 550.547042 236.161274 
L 550.906554 236.161274 
L 551.027496 225.024469 
L 551.384938 225.024469 
L 551.504552 236.161274 
L 551.863884 236.161274 
L 551.983271 264.615317 
L 552.102669 264.615317 
L 552.223181 253.583467 
L 552.342663 253.583467 
L 552.462744 264.615317 
L 552.582585 264.615317 
L 552.702091 253.583467 
L 554.018216 253.583467 
L 554.138261 240.775677 
L 554.499077 240.775677 
L 554.616764 188.639989 
L 554.976193 188.639989 
L 555.099649 176.903455 
L 555.216594 176.903455 
L 555.335154 166.914166 
L 555.455606 166.914166 
L 555.578512 154.340957 
L 555.695983 154.340957 
L 555.815286 164.312137 
L 555.934828 164.312137 
L 556.053508 166.914166 
L 556.41235 166.914166 
L 556.534298 217.123143 
L 556.895953 217.123143 
L 557.010994 228.927501 
L 557.130919 228.927501 
L 557.252305 240.775677 
L 559.045807 240.775677 
L 559.167408 230.830432 
L 561.201839 230.830432 
L 561.320088 218.999009 
L 561.440253 218.999009 
L 561.562632 230.830432 
L 561.920552 230.830432 
L 562.038945 218.999009 
L 562.398397 218.999009 
L 562.519232 274.345983 
L 562.639768 274.345983 
L 562.760614 218.999009 
L 563.115291 218.999009 
L 563.234725 207.211351 
L 563.356254 207.211351 
L 563.477795 194.565149 
L 563.60246 194.565149 
L 563.714079 184.941203 
L 563.833992 184.941203 
L 563.954791 173.258898 
L 564.315033 173.258898 
L 564.4326 151.592247 
L 564.551855 151.592247 
L 564.671421 161.619142 
L 564.795727 161.619142 
L 564.910697 173.258898 
L 565.030538 173.258898 
L 565.151157 216.557282 
L 565.272675 216.557282 
L 565.629817 241.01963 
L 565.988096 241.01963 
L 566.110188 252.864216 
L 566.227515 252.864216 
L 566.350253 314.726825 
L 566.466875 314.726825 
L 566.586166 252.864216 
L 567.186114 252.864216 
L 567.305585 262.441327 
L 567.906563 262.441327 
L 568.024106 250.580661 
L 569.103241 250.580661 
L 569.221754 260.410069 
L 570.058752 260.410069 
L 570.179982 217.123143 
L 570.53722 217.123143 
L 570.656283 228.097947 
L 571.255191 228.097947 
L 571.374661 239.920787 
L 571.496645 239.920787 
L 571.614033 228.097947 
L 571.735418 228.097947 
L 571.856025 204.459012 
L 571.97522 204.459012 
L 572.095086 203.680554 
L 572.216878 203.680554 
L 572.333081 163.686241 
L 572.455412 163.686241 
L 572.572452 152.664484 
L 572.691097 152.664484 
L 572.811034 101.024513 
L 572.936238 101.024513 
L 573.05086 112.113823 
L 573.172138 112.113823 
L 573.289286 99.715433 
L 573.410695 99.715433 
L 573.531087 88.646175 
L 573.65185 88.646175 
L 573.768759 139.59201 
L 573.889762 139.59201 
L 574.008526 152.062538 
L 574.366075 152.062538 
L 574.488107 163.686241 
L 574.608187 163.686241 
L 574.72609 175.352444 
L 574.845476 175.352444 
L 574.965712 187.963801 
L 575.563902 187.963801 
L 575.683659 176.903455 
L 578.437413 176.903455 
L 578.556872 217.123143 
L 580.351236 217.123143 
L 580.471508 194.565149 
L 580.602685 194.565149 
L 580.711107 192.743958 
L 581.073923 192.743958 
L 581.189707 152.664484 
L 581.309249 152.664484 
L 581.43012 141.059275 
L 581.790541 141.059275 
L 581.914309 181.071551 
L 582.266902 181.071551 
L 582.388683 192.743958 
L 582.507842 192.743958 
L 582.627181 204.459012 
L 582.745693 204.459012 
L 582.867127 217.123143 
L 582.985424 217.123143 
L 583.105768 260.410069 
L 583.22707 260.410069 
L 583.344278 283.189406 
L 584.18367 283.189406 
L 584.302111 272.287259 
L 586.338947 272.287259 
L 586.457891 262.441327 
L 586.577996 262.441327 
L 586.697538 272.287259 
L 586.815368 272.287259 
L 586.936538 260.410069 
L 587.057552 260.410069 
L 587.176101 272.287259 
L 587.535505 272.287259 
L 587.657956 312.524618 
L 588.014213 312.524618 
L 588.13306 324.513483 
L 588.252028 324.513483 
L 588.371462 312.524618 
L 588.732267 312.524618 
L 588.850816 302.754369 
L 588.970992 302.754369 
L 589.090331 237.85608 
L 589.448766 237.85608 
L 589.568404 216.557282 
L 589.928586 216.557282 
L 590.050798 204.845018 
L 590.166833 204.845018 
L 590.286889 192.279415 
L 591.125001 192.279415 
L 591.244758 244.956929 
L 591.364157 244.956929 
L 591.484046 256.736323 
L 591.603217 256.736323 
L 591.724555 266.190776 
L 592.094145 266.190776 
L 592.202448 306.271506 
L 592.355733 306.271506 
L 592.560931 318.176676 
L 592.805162 318.176676 
L 592.921269 306.271506 
L 593.043528 306.271506 
L 593.159096 266.190776 
L 593.519769 266.190776 
L 593.63839 278.028961 
L 595.434801 278.028961 
L 595.434801 278.028961 
" clip-path="url(#p65ed754521)" style="fill: none; stroke: #1f77b4; stroke-width: 2; stroke-linecap: square"/>
   </g>
   <g id="patch_3">
    <path d="M 62.798438 414.957188 
L 62.798438 26.877187 
" style="fill: none; stroke: #808080; stroke-width: 2; stroke-linejoin: miter; stroke-linecap: square"/>
   </g>
   <g id="patch_4">
    <path d="M 62.798437 414.957187 
L 620.798438 414.957187 
" style="fill: none; stroke: #808080; stroke-width: 2; stroke-linejoin: miter; stroke-linecap: square"/>
   </g>
   <g id="text_12">
    <!-- Oskar-Tyholt-vinkel -->
    <g style="fill: #808080" transform="translate(257.782031 20.877187) scale(0.18 -0.18)">
     <defs>
      <path id="DejaVuSans-4f" d="M 2522 4238 
Q 1834 4238 1429 3725 
Q 1025 3213 1025 2328 
Q 1025 1447 1429 934 
Q 1834 422 2522 422 
Q 3209 422 3611 934 
Q 4013 1447 4013 2328 
Q 4013 3213 3611 3725 
Q 3209 4238 2522 4238 
z
M 2522 4750 
Q 3503 4750 4090 4092 
Q 4678 3434 4678 2328 
Q 4678 1225 4090 567 
Q 3503 -91 2522 -91 
Q 1538 -91 948 565 
Q 359 1222 359 2328 
Q 359 3434 948 4092 
Q 1538 4750 2522 4750 
z
" transform="scale(0.015625)"/>
      <path id="DejaVuSans-6b" d="M 581 4863 
L 1159 4863 
L 1159 1991 
L 2875 3500 
L 3609 3500 
L 1753 1863 
L 3688 0 
L 2938 0 
L 1159 1709 
L 1159 0 
L 581 0 
L 581 4863 
z
" transform="scale(0.015625)"/>
      <path id="DejaVuSans-61" d="M 2194 1759 
Q 1497 1759 1228 1600 
Q 959 1441 959 1056 
Q 959 750 1161 570 
Q 1363 391 1709 391 
Q 2188 391 2477 730 
Q 2766 1069 2766 1631 
L 2766 1759 
L 2194 1759 
z
M 3341 1997 
L 3341 0 
L 2766 0 
L 2766 531 
Q 2569 213 2275 61 
Q 1981 -91 1556 -91 
Q 1019 -91 701 211 
Q 384 513 384 1019 
Q 384 1609 779 1909 
Q 1175 2209 1959 2209 
L 2766 2209 
L 2766 2266 
Q 2766 2663 2505 2880 
Q 2244 3097 1772 3097 
Q 1472 3097 1187 3025 
Q 903 2953 641 2809 
L 641 3341 
Q 956 3463 1253 3523 
Q 1550 3584 1831 3584 
Q 2591 3584 2966 3190 
Q 3341 2797 3341 1997 
z
" transform="scale(0.015625)"/>
      <path id="DejaVuSans-72" d="M 2631 2963 
Q 2534 3019 2420 3045 
Q 2306 3072 2169 3072 
Q 1681 3072 1420 2755 
Q 1159 2438 1159 1844 
L 1159 0 
L 581 0 
L 581 3500 
L 1159 3500 
L 1159 2956 
Q 1341 3275 1631 3429 
Q 1922 3584 2338 3584 
Q 2397 3584 2469 3576 
Q 2541 3569 2628 3553 
L 2631 2963 
z
" transform="scale(0.015625)"/>
      <path id="DejaVuSans-2d" d="M 313 2009 
L 1997 2009 
L 1997 1497 
L 313 1497 
L 313 2009 
z
" transform="scale(0.015625)"/>
      <path id="DejaVuSans-54" d="M -19 4666 
L 3928 4666 
L 3928 4134 
L 2272 4134 
L 2272 0 
L 1638 0 
L 1638 4134 
L -19 4134 
L -19 4666 
z
" transform="scale(0.015625)"/>
      <path id="DejaVuSans-79" d="M 2059 -325 
Q 1816 -950 1584 -1140 
Q 1353 -1331 966 -1331 
L 506 -1331 
L 506 -850 
L 844 -850 
Q 1081 -850 1212 -737 
Q 1344 -625 1503 -206 
L 1606 56 
L 191 3500 
L 800 3500 
L 1894 763 
L 2988 3500 
L 3597 3500 
L 2059 -325 
z
" transform="scale(0.015625)"/>
      <path id="DejaVuSans-68" d="M 3513 2113 
L 3513 0 
L 2938 0 
L 2938 2094 
Q 2938 2591 2744 2837 
Q 2550 3084 2163 3084 
Q 1697 3084 1428 2787 
Q 1159 2491 1159 1978 
L 1159 0 
L 581 0 
L 581 4863 
L 1159 4863 
L 1159 2956 
Q 1366 3272 1645 3428 
Q 1925 3584 2291 3584 
Q 2894 3584 3203 3211 
Q 3513 2838 3513 2113 
z
" transform="scale(0.015625)"/>
      <path id="DejaVuSans-6f" d="M 1959 3097 
Q 1497 3097 1228 2736 
Q 959 2375 959 1747 
Q 959 1119 1226 758 
Q 1494 397 1959 397 
Q 2419 397 2687 759 
Q 2956 1122 2956 1747 
Q 2956 2369 2687 2733 
Q 2419 3097 1959 3097 
z
M 1959 3584 
Q 2709 3584 3137 3096 
Q 3566 2609 3566 1747 
Q 3566 888 3137 398 
Q 2709 -91 1959 -91 
Q 1206 -91 779 398 
Q 353 888 353 1747 
Q 353 2609 779 3096 
Q 1206 3584 1959 3584 
z
" transform="scale(0.015625)"/>
      <path id="DejaVuSans-6c" d="M 603 4863 
L 1178 4863 
L 1178 0 
L 603 0 
L 603 4863 
z
" transform="scale(0.015625)"/>
      <path id="DejaVuSans-76" d="M 191 3500 
L 800 3500 
L 1894 563 
L 2988 3500 
L 3597 3500 
L 2284 0 
L 1503 0 
L 191 3500 
z
" transform="scale(0.015625)"/>
      <path id="DejaVuSans-6e" d="M 3513 2113 
L 3513 0 
L 2938 0 
L 2938 2094 
Q 2938 2591 2744 2837 
Q 2550 3084 2163 3084 
Q 1697 3084 1428 2787 
Q 1159 2491 1159 1978 
L 1159 0 
L 581 0 
L 581 3500 
L 1159 3500 
L 1159 2956 
Q 1366 3272 1645 3428 
Q 1925 3584 2291 3584 
Q 2894 3584 3203 3211 
Q 3513 2838 3513 2113 
z
" transform="scale(0.015625)"/>
     </defs>
     <use xlink:href="#DejaVuSans-4f"/>
     <use xlink:href="#DejaVuSans-73" x="78.710938"/>
     <use xlink:href="#DejaVuSans-6b" x="130.810547"/>
     <use xlink:href="#DejaVuSans-61" x="186.970703"/>
     <use xlink:href="#DejaVuSans-72" x="248.25"/>
     <use xlink:href="#DejaVuSans-2d" x="282.988281"/>
     <use xlink:href="#DejaVuSans-54" x="309.947266"/>
     <use xlink:href="#DejaVuSans-79" x="355.40625"/>
     <use xlink:href="#DejaVuSans-68" x="414.585938"/>
     <use xlink:href="#DejaVuSans-6f" x="477.964844"/>
     <use xlink:href="#DejaVuSans-6c" x="539.146484"/>
     <use xlink:href="#DejaVuSans-74" x="566.929688"/>
     <use xlink:href="#DejaVuSans-2d" x="606.138672"/>
     <use xlink:href="#DejaVuSans-76" x="639.597656"/>
     <use xlink:href="#DejaVuSans-69" x="698.777344"/>
     <use xlink:href="#DejaVuSans-6e" x="726.560547"/>
     <use xlink:href="#DejaVuSans-6b" x="789.939453"/>
     <use xlink:href="#DejaVuSans-65" x="844.224609"/>
     <use xlink:href="#DejaVuSans-6c" x="905.748047"/>
    </g>
   </g>
   <g id="legend_1">
    <g id="patch_5">
     <path d="M 422.271094 407.457187 
L 610.298437 407.457187 
Q 613.298437 407.457187 613.298437 404.457187 
L 613.298437 383.94 
Q 613.298437 380.94 610.298437 380.94 
L 422.271094 380.94 
Q 419.271094 380.94 419.271094 383.94 
L 419.271094 404.457187 
Q 419.271094 407.457187 422.271094 407.457187 
z
" style="fill: #ffffff; opacity: 0.8; stroke: #cccccc; stroke-linejoin: miter"/>
    </g>
    <g id="line2d_20">
     <path d="M 425.271094 393.087656 
L 440.271094 393.087656 
L 455.271094 393.087656 
" style="fill: none; stroke: #1f77b4; stroke-width: 2; stroke-linecap: square"/>
    </g>
    <g id="text_13">
     <!-- Oskar-Tyholt-vinkel -->
     <g style="fill: #808080" transform="translate(467.271094 398.337656) scale(0.15 -0.15)">
      <use xlink:href="#DejaVuSans-4f"/>
      <use xlink:href="#DejaVuSans-73" x="78.710938"/>
      <use xlink:href="#DejaVuSans-6b" x="130.810547"/>
      <use xlink:href="#DejaVuSans-61" x="186.970703"/>
      <use xlink:href="#DejaVuSans-72" x="248.25"/>
      <use xlink:href="#DejaVuSans-2d" x="282.988281"/>
      <use xlink:href="#DejaVuSans-54" x="309.947266"/>
      <use xlink:href="#DejaVuSans-79" x="355.40625"/>
      <use xlink:href="#DejaVuSans-68" x="414.585938"/>
      <use xlink:href="#DejaVuSans-6f" x="477.964844"/>
      <use xlink:href="#DejaVuSans-6c" x="539.146484"/>
      <use xlink:href="#DejaVuSans-74" x="566.929688"/>
      <use xlink:href="#DejaVuSans-2d" x="606.138672"/>
      <use xlink:href="#DejaVuSans-76" x="639.597656"/>
      <use xlink:href="#DejaVuSans-69" x="698.777344"/>
      <use xlink:href="#DejaVuSans-6e" x="726.560547"/>
      <use xlink:href="#DejaVuSans-6b" x="789.939453"/>
      <use xlink:href="#DejaVuSans-65" x="844.224609"/>
      <use xlink:href="#DejaVuSans-6c" x="905.748047"/>
     </g>
    </g>
   </g>
  </g>
 </g>
 <defs>
  <clipPath id="p65ed754521">
   <rect x="62.798438" y="26.877187" width="558" height="388.08"/>
  </clipPath>
 </defs>
</svg>
